<svg width="274" height="40" viewBox="0 0 274 40" fill="none" xmlns="http://www.w3.org/2000/svg">
<g clip-path="url(#clip0)">
<path fill-rule="evenodd" clip-rule="evenodd" d="M5.6915 14.8839C6.23302 13.4172 6.97761 12.2665 7.92528 11.4204C8.04937 11.364 8.18475 11.3414 8.32014 11.3188C8.45552 11.3076 8.78269 11.2963 9.31292 11.2963C9.60625 11.2963 9.85445 11.3188 10.0801 11.3527C10.3057 11.3978 10.5313 11.4768 10.7683 11.5896C11.0052 11.7137 11.2872 11.8716 11.6031 12.086L7.57554 15.29L8.52321 16.0459V26.7183C7.49657 26.2219 6.63916 25.4209 6.07508 24.4282C5.28536 23.0631 4.8905 21.2242 4.8905 18.934C4.87922 17.693 5.14998 16.3392 5.6915 14.8839ZM5.3192 10.7886C5.55612 10.7886 5.86073 10.8337 6.23302 10.9127C6.60532 10.9917 6.94377 11.0706 7.25966 11.1496C5.04844 12.1311 3.33363 13.7444 2.12649 16.012C1.07729 18.0089 0.535766 20.2314 0.547048 22.499C0.547048 25.3984 1.55112 27.8803 3.57054 29.9449C5.58997 32.0094 8.04937 33.0474 10.9375 33.0474C13.7241 33.0474 16.0932 31.9756 18.0111 29.8434C19.929 27.7111 20.8992 25.1953 20.8992 22.2959C20.6397 22.9051 20.3351 23.4128 20.008 23.8189C19.5906 24.3153 19.1167 24.7779 18.609 25.184C18.2142 25.5225 17.8532 25.782 17.5373 25.9512C17.2214 26.1204 16.8153 26.3122 16.3076 26.5265V12.2891C16.9394 12.0296 17.447 11.7588 17.8306 11.4768C18.2142 11.206 18.6316 10.7999 19.0829 10.2696C20.2449 8.98354 20.8879 7.53948 21.0233 5.96005C20.1772 6.51285 19.4213 6.91899 18.7444 7.18975C18.0675 7.44923 17.3116 7.62973 16.4768 7.70871C16.3414 7.70871 16.1609 7.71999 15.924 7.74255C14.9989 7.74255 13.6225 7.38154 11.7949 6.65951C9.96726 5.93748 8.52321 5.57647 7.46273 5.57647C5.37561 5.57647 3.70592 6.55797 2.44237 8.49842C1.3142 10.2358 0.738837 12.3004 0.738837 14.7033C0.89678 13.97 1.28036 13.2706 1.88957 12.605C2.34084 12.1086 2.8598 11.6799 3.43516 11.3414C3.99925 10.9804 4.63102 10.7886 5.3192 10.7886ZM24.5658 32.8443L28.0067 29.0085L26.2693 27.1922V16.9146L27.2621 16.2489L30.0261 18.3473V31.9079C30.0261 32.6751 29.981 33.3294 29.8907 33.8709C29.8118 34.3786 29.5974 34.8637 29.2815 35.2699L28.3113 36.477C27.8713 37.0185 27.3298 37.4472 26.6755 37.7631C27.9954 37.6277 29.0785 37.3344 29.9133 36.8719C30.7594 36.4093 31.6281 35.676 32.5194 34.6832C33.1737 33.9386 33.6701 33.2053 33.9973 32.472C34.3357 31.7161 34.5501 30.9151 34.6516 30.1028V14.9064L33.467 14.9854L29.7554 12.4921L27.0703 14.7033L26.2016 14.2295V6.71592L25.4119 5.01239L21.892 8.4533V27.9368L20.8203 29.2003L24.5658 32.8443ZM36.3439 28.5347L42.7067 32.5622L48.7537 26.1994L45.4708 28.5347L41.4432 25.6466V22.9615L48.6409 17.5802L44.0605 11.4091L36.75 16.5084V27.6547L36.3439 28.5347ZM57.497 8.65637V16.0459C56.9668 16.1023 56.5381 16.1925 56.2109 16.3279C55.8838 16.4633 55.534 16.6889 55.1617 17.0048C54.1013 17.8284 53.5823 18.8776 53.5823 20.1637C53.571 20.5698 53.6274 20.9647 53.7402 21.3483C54.1125 21.0324 54.4736 20.818 54.8233 20.7165C55.1843 20.6149 55.6243 20.5585 56.1545 20.5585C56.414 20.5585 56.6284 20.5924 56.7863 20.6375C56.9442 20.6939 57.1812 20.7955 57.497 20.9534V28.2188L62.9574 33.713L67.9777 28.6137L74.0247 33.713L82.8357 25.1727V10.5517L77.3754 6.36619L73.3478 9.99889L67.8536 6.36619L62.9574 10.4727V8.06972C62.9574 7.28 62.3933 6.38875 61.2539 5.38468C60.9154 5.14777 60.5882 4.89957 60.2836 4.65137C59.979 4.40317 59.7985 4.04216 59.7534 3.57961C59.7083 3.20732 59.6857 2.83502 59.6744 2.45144C59.6744 1.56019 59.979 0.838163 60.5882 0.319206C60.3626 0.274079 60.137 0.251516 59.9113 0.240234C58.7268 0.240234 57.6776 0.736628 56.775 1.71813C55.8612 2.71092 55.4099 3.80525 55.4099 5.02367C55.4099 5.20417 55.4325 5.46365 55.4889 5.77954C55.7145 7.06565 56.3802 8.02459 57.497 8.65637ZM83.8962 28.7378L88.7925 32.1787L92.3462 28.8167L96.5768 31.7838L100.21 27.8691H98.946L97.3327 26.1994V14.6244L96.464 14.7823L92.3575 11.3414L84.5731 16.7115V28.0496L83.8962 28.7378ZM107.475 12.1086C106.979 11.8716 106.505 11.567 106.076 11.2173L99.6342 15.7638V23.4354L100.232 23.9092H104.068L99.0927 32.5622C99.8598 31.9079 100.446 31.4679 100.875 31.2536C101.473 30.9602 102.139 30.8136 102.816 30.8136C103.662 30.8136 104.339 30.9151 104.869 31.1069C105.399 31.2987 105.941 31.6484 106.493 32.1561L112.811 27.1809V19.3965L112.337 18.9227H108.107V18.5278L111.864 11.9281C111.469 12.165 111.153 12.3004 110.916 12.3455C110.532 12.3906 110.149 12.4132 109.765 12.4019H108.93C108.423 12.4132 107.926 12.3116 107.475 12.1086ZM117.493 32.2915L120.968 28.4219L119.23 26.6055V16.3279L120.178 15.651L122.987 17.7832V31.2987C122.999 31.953 122.953 32.6074 122.852 33.2617C122.762 33.7694 122.547 34.2432 122.198 34.6606C121.983 34.9201 121.701 35.3037 121.329 35.8114C120.855 36.3642 120.28 36.8154 119.625 37.1539C120.832 37.0524 121.916 36.759 122.852 36.2739C123.788 35.7888 124.668 35.0668 125.481 34.1191C126.09 33.4084 126.564 32.6638 126.902 31.8853C127.24 31.1069 127.466 30.3059 127.579 29.4936V14.3085L126.428 14.4326L122.671 11.9393L119.986 14.1167L119.118 13.6429V6.16312L118.362 4.42574L114.808 7.86665V27.3952L113.736 28.6137L117.493 32.2915ZM136.503 8.93841L132.949 6.0503L130.061 9.20917L133.062 11.9393L136.503 8.93841ZM130.93 17.8622V28.6137L130.174 29.7644H131.516L134.596 32.3705L137.834 29.4034L141.986 32.7653L145.618 28.7378L144.468 27.2824V17.2079L145.415 16.7341L147.514 19.0242V28.8957L151.192 32.0997L154.745 28.0721H153.087L152.139 26.5265V15.7751L152.613 14.7823L151.665 14.9854L148.033 12.0973L144.479 15.7751L140.327 12.4921L136.886 16.3279H138.229L139.38 17.6704V27.5419L137.089 28.3316L135.623 27.1809V16.1136L136.097 15.4367L131.99 12.3906L128.628 15.9443L129.779 16.3053L130.93 17.8622ZM201.993 28.2639L200.854 26.7973V16.7228L201.801 16.2489L203.9 18.5391V28.4557L207.577 31.6146L211.131 27.587H209.473L208.525 26.0414V15.29L208.999 14.3423L208.051 14.5003L204.419 11.6122L200.865 15.29L196.713 12.007L193.272 15.8428H194.615L195.765 17.1853V27.1019L194.344 28.9972L198.733 31.8853L201.993 28.2639ZM155.512 28.3429C156.043 28.3429 156.516 28.4106 156.956 28.546C157.396 28.6813 157.814 28.907 158.243 29.2342C158.66 29.5613 158.976 29.8772 159.168 30.1818C159.359 30.4864 159.529 30.9038 159.664 31.4228L157.611 34.074L155.433 36.9959C155.986 36.6801 156.46 36.4883 156.855 36.4206C157.25 36.3529 157.825 36.319 158.592 36.319C159.484 36.398 160.251 36.6124 160.883 36.9508C161.514 37.2893 162.09 37.8082 162.62 38.4964C163.883 38.0226 165.35 36.9621 167.031 35.3375C168.712 33.7017 169.547 32.3592 169.547 31.31C169.547 31.1295 169.355 30.5541 168.971 29.6177C168.588 28.6588 168.396 27.6434 168.396 26.6055V14.3085L162.902 10.8676L155.986 15.7638V27.4629L155.512 28.3429ZM169.152 14.8274H171.442V28.546L170.889 29.6177H172.232L175.12 31.8289L178.832 27.5983H177.207L176.135 26.4476V15.0982L178.471 12.2101H176.135V4.66265L171.431 9.05123V12.0522L169.152 14.8274ZM179.148 28.3429L184.044 31.8177L192.584 25.8496V14.2295L191.715 14.4326L187.598 10.9578L179.813 16.3279V27.6773L179.148 28.3429ZM219.265 8.73534V12.4132C218.577 12.4132 218.002 12.4809 217.528 12.6275C217.054 12.7742 216.603 13.0562 216.163 13.4736C215.723 13.8911 215.475 14.3875 215.396 14.9403C215.317 15.4931 215.272 16.2151 215.272 17.1176C215.272 17.4899 215.26 17.7381 215.226 17.8735C215.802 16.9484 216.614 16.5648 217.641 16.7228C218.329 16.8243 218.87 17.1176 219.265 17.5915V23.7174C218.058 24.3492 216.998 25.184 216.106 26.2107C215.102 27.3952 214.425 28.6137 214.087 29.8885C214.538 29.5388 215.012 29.2229 215.508 28.9634C215.903 28.7603 216.456 28.5685 217.167 28.3542C217.426 28.2752 217.731 28.185 218.081 28.0947C218.419 28.0044 218.814 27.9593 219.265 27.9593V39.7712L224.444 35.5406L226.181 36.8042V30.0803L228.392 30.8362L235.861 25.6579V8.26151L231.077 4.42574L226.181 8.53227V6.36619L225.233 5.57647V9.05123L224.444 9.60403V5.97133L220.416 2.88015L215.633 7.58461C216.027 7.34769 216.434 7.22359 216.851 7.22359C217.189 7.22359 217.528 7.28 217.844 7.38154C218.555 7.6523 219.028 8.10357 219.265 8.73534ZM236.538 28.7378L241.434 32.1787L250.008 26.2107V14.6244L249.139 14.7823L244.988 11.3414L237.203 16.7115V28.0496L236.538 28.7378ZM259.225 11.9393C258.717 11.6911 258.221 11.3978 257.758 11.0706L251.35 15.572V23.2436L251.903 23.7174H255.739L250.764 32.3705C251.317 31.8966 251.779 31.5469 252.151 31.2987C252.84 30.8474 253.629 30.6218 254.521 30.6218C255.344 30.6218 256.01 30.7233 256.54 30.9151C257.07 31.1182 257.612 31.4566 258.165 31.9643L264.494 26.9891V19.2047L264.02 18.7309H259.789V18.336L263.546 11.7363C263.151 11.9732 262.835 12.1086 262.598 12.1537C262.361 12.1988 261.978 12.2101 261.448 12.2101H260.624C260.082 12.2101 259.62 12.1198 259.225 11.9393ZM264.595 15.0192H266.885V28.7378L266.333 29.8095H267.675L270.518 32.0207L274.275 27.7901H272.65L271.579 26.6394V15.3013L273.869 12.4132H271.579V4.86572L266.897 9.2543V12.2552L264.595 15.0192ZM89.2663 15.3802L92.3462 17.6704V26.8763L91.3534 27.948L89.255 26.1317L89.2663 15.3802ZM165.79 31.5807C166.422 32.032 166.738 32.5961 166.738 33.2843C166.738 33.6002 166.704 33.8371 166.659 33.995C166.501 34.2319 166.377 34.3899 166.298 34.4689C166.083 34.6832 165.813 34.8186 165.508 34.8637C165.17 34.9201 164.718 34.7509 164.165 34.3673C163.613 33.9837 162.778 33.792 161.672 33.792C160.961 33.792 160.318 33.8596 159.732 33.995C159.156 34.1304 158.547 34.356 157.915 34.6719L163.692 27.5532V28.467C163.692 28.9972 163.737 29.4259 163.827 29.7757C163.917 30.1141 164.12 30.4526 164.436 30.7685C164.888 31.0392 165.339 31.3213 165.79 31.5807ZM160.691 14.9064L163.692 17.1176V26.0527L162.823 27.0004L160.691 24.8681V14.9064V14.9064ZM41.4432 21.8221V16.0459L44.3313 19.6786L41.4432 21.8221ZM109.156 15.3013L106.471 20.0847H104.451V14.9064C105.241 15.4028 106.099 15.6623 107.024 15.6623C107.757 15.651 108.468 15.5382 109.156 15.3013ZM184.518 14.9854L187.598 17.3207V26.5265L186.616 27.5983L184.518 25.7368V14.9854ZM105.196 22.9615H108.084V28.0609C107.678 27.9142 107.261 27.8014 106.843 27.7224C106.561 27.6886 105.997 27.666 105.128 27.666C104.621 27.6547 104.124 27.7111 103.628 27.8239C103.21 27.9255 102.703 28.106 102.127 28.3429L105.196 22.9615ZM224.444 12.2101L225.233 11.5332V34.0966L224.444 33.6227V12.2101ZM226.181 10.9465L228.595 9.40096L230.333 10.6645V25.5225C229.509 25.0487 229.069 24.8005 228.99 24.7666L228.121 24.4846C227.478 24.3266 226.824 24.1687 226.181 24.0107V10.9465ZM14.9989 12.6839C15.2584 12.6839 15.4727 12.6614 15.6307 12.605V26.9891C14.6379 27.4855 13.5436 27.745 12.4267 27.745C11.7723 27.745 11.1067 27.666 10.4524 27.5081C9.79804 27.3501 9.27908 27.1358 8.90678 26.8763L13.4082 22.3749V12.4921C13.6 12.5937 13.803 12.6614 14.0174 12.6726C14.243 12.6839 14.3897 12.6952 14.4687 12.6952L14.9989 12.6839ZM241.919 15.3802L244.999 17.6704V26.8763L244.051 27.948L241.919 26.1317V15.3802ZM62.9461 11.6234L64.4127 10.4727L67.4588 13.5526V27.745L66.2291 29.0085L62.9461 25.8496V11.6234ZM259.857 15.3802C260.195 15.3238 260.534 15.2336 260.838 15.0982L258.153 19.8816H256.134V14.7033C256.912 15.1997 257.815 15.4592 258.74 15.4592C259.146 15.4592 259.518 15.4254 259.857 15.3802ZM256.89 22.7697H259.778V27.8691C259.372 27.7224 258.954 27.6096 258.537 27.5306C258.255 27.4855 257.691 27.4742 256.811 27.4742C256.303 27.4629 255.795 27.5193 255.31 27.6322C254.814 27.7675 254.318 27.9368 253.844 28.1511L256.89 22.7697ZM73.3365 11.6234L74.7693 10.4727L77.8492 13.5526V27.745L76.5857 29.0085L73.3478 25.8496L73.3365 11.6234Z" fill="#A6ABC9"/>
</g>
<defs>
<clipPath id="clip0">
<rect width="274" height="40" fill="white"/>
</clipPath>
</defs>
</svg>
