<svg width="271" height="40" viewBox="0 0 271 40" fill="none" xmlns="http://www.w3.org/2000/svg">
<path d="M8.0604 22.0133V11.9524L5.00799 13.3243C5.00799 13.3243 4.22176 15.0621 4.36051 17.5774C4.453 19.5438 5.56297 21.8762 6.4417 22.8822L8.0604 22.0133ZM17.0327 1.29688C17.7726 1.34261 18.9751 1.70847 19.8538 2.48591C20.8251 3.40054 21.01 4.77249 20.6863 6.05298C20.4088 7.15054 20.0388 7.74505 18.8826 8.52249C17.7264 9.29993 16.2927 9.2542 16.2927 9.2542V14.1018L18.6976 16.0225L16.2927 17.9432V24.5743C16.2927 24.5743 18.6976 23.2024 20.1776 20.1841C20.1776 20.1841 20.2238 20.0012 20.3626 19.7268C20.5013 20.5499 20.4088 22.1963 19.4838 24.2999C18.8364 25.8091 17.5414 27.3182 15.9689 28.2329C13.1478 29.7877 11.0203 29.9249 8.70789 29.4676C6.02546 28.9188 3.62053 27.4554 1.95557 24.8487C0.799355 23.0194 0.29062 20.9158 0.336868 18.6292C0.429366 14.1475 3.80552 10.306 7.69041 8.84261C8.1529 8.65969 8.3379 8.56822 9.03163 8.47676C8.70789 8.70542 8.38414 8.93408 7.92166 9.2542C6.67294 10.0774 5.60922 11.678 5.14673 12.9127L12.6853 9.57432V20.0012L6.58045 23.0194C7.27418 23.9798 9.40162 25.3975 11.1591 25.6262C14.2115 25.9463 16.0152 24.6201 16.0152 24.6201V17.8518L13.6565 15.931L16.0152 14.0103V9.2542C14.7202 9.117 13.1478 8.70542 12.2228 8.47676C10.9278 8.11091 6.39545 6.87615 5.70172 6.73896C5.00799 6.64749 4.12926 6.64749 3.57428 7.15054C3.06554 7.60786 2.69555 8.43103 2.9268 9.20847C3.06554 9.62005 3.34303 9.89444 3.57428 10.1231C3.57428 10.1231 3.29679 10.1231 2.8343 9.80298C2.00182 9.29993 1.35434 8.29383 1.26184 7.10481C1.16935 5.5042 1.86308 4.04078 3.20429 3.08042C4.36051 2.34871 5.65547 1.89139 7.18168 2.07432C9.40162 2.39444 12.4078 3.6292 15.044 4.26944C16.0614 4.4981 16.8939 4.58957 17.5876 4.17798C17.9114 3.94932 18.5126 3.30908 18.0501 2.48591C17.4951 1.52554 16.3852 1.52554 15.4602 1.38835C16.2464 1.25115 16.4314 1.25115 17.0327 1.29688Z" fill="#A6ABC9"/>
<path d="M46.3544 19.4056L42.932 21.8751V13.5976L46.3544 19.4056ZM46.2619 11.4482C46.2619 11.4482 43.9495 12.8202 42.377 13.7348C40.8046 14.6495 38.7234 15.6556 38.7234 15.6556V25.2592L37.3359 26.3568L37.5209 26.5854L38.8621 25.4879L43.117 29.2836L50.5168 23.4757L50.3318 23.247L46.2619 26.4025L42.8858 23.2928V22.1495L49.6381 17.2562L46.2619 11.4482Z" fill="#A6ABC9"/>
<path d="M26.9303 32.9417C27.9015 33.1704 29.6127 33.3076 31.6939 32.3015C33.9601 31.1582 35.1163 28.7801 35.1163 26.3106L35.2088 22.835V15.1978L36.6888 14.1002L36.5038 13.8716L35.0238 14.9234L31.6939 11.2649L27.439 14.8777V2.62158L22.1204 6.6917C22.3517 6.8289 23.0917 6.96609 23.1379 8.01792V25.213L20.918 26.8594L21.0567 27.088L22.1667 26.2649L25.1729 29.0545L29.9365 25.3502L29.7515 25.1216L28.6415 25.9905L27.439 24.8472V15.2893L28.8265 14.1002L30.9077 16.6612C30.9077 16.6612 30.9077 22.8807 30.9077 24.9387C30.9077 27.1338 30.9077 29.8777 29.7052 31.2039C28.5953 32.4844 28.0865 32.5759 26.9303 32.9417Z" fill="#A6ABC9"/>
<path d="M59.9984 32.0729C58.1022 31.8443 57.3159 30.701 57.3159 29.8321C57.3159 29.2376 57.8709 28.14 59.0271 27.9571C60.1833 27.8199 61.3858 28.3229 62.357 29.512L66.7507 24.7101L66.5194 24.5272L65.317 25.8534C64.1145 24.4815 62.4033 23.6583 60.7383 23.3839V8.74977L72.1618 29.329C72.1618 29.329 72.2543 29.5577 72.763 29.5577C73.1792 29.5577 73.0867 29.2376 73.0867 29.2376V8.52112C74.0117 8.47538 75.4454 7.97234 76.1392 7.28636C78.3591 5.04551 77.4341 2.62172 77.2029 2.39307C77.0641 3.4449 76.2317 4.54246 74.8442 4.54246C73.0405 4.54246 71.9305 3.21624 71.9305 3.21624L67.4906 8.10953L67.7219 8.29246L68.9706 6.87477C70.4968 8.29246 71.653 8.38392 72.8092 8.47538V20.5028L64.2995 5.27416C63.5133 4.03941 62.357 2.89612 60.5533 2.89612C58.4259 2.89612 56.9459 4.72538 56.7609 6.28026C56.5759 8.0638 56.7609 8.47538 56.7609 8.47538C56.7609 8.47538 57.0847 6.50892 58.3334 6.50892C59.4434 6.50892 60.0446 7.56075 60.4608 8.29246V12.6827C59.3046 12.7742 56.2985 12.9114 56.1135 15.9754C56.1135 17.1187 56.8072 18.3077 57.4547 18.7193C58.2871 19.2681 58.8884 19.2223 58.8884 19.2223C58.8884 19.2223 57.9172 18.7193 58.1947 17.7132C58.4721 16.7986 60.3683 16.6614 60.4146 17.0272V23.2467C59.4896 23.2467 56.5759 23.3382 55.2347 25.8077C54.4485 27.3169 54.4948 29.0089 55.3272 30.1979C56.1135 31.2498 57.5472 32.4845 59.9984 32.0729Z" fill="#A6ABC9"/>
<path d="M84.1865 19.4056L80.7641 21.8751V13.5976L84.1865 19.4056ZM84.094 11.4482C84.094 11.4482 81.7815 12.8202 80.2091 13.7348C78.6366 14.6495 76.5554 15.6556 76.5554 15.6556V25.2592L75.168 26.3568L75.353 26.5854L76.6942 25.4879L80.9491 29.2836L88.3489 23.4757L88.1639 23.247L84.094 26.4025L80.7178 23.2928V22.1495L87.4701 17.2562L84.094 11.4482Z" fill="#A6ABC9"/>
<path d="M94.4529 29.3748L90.8455 26.4022L89.273 27.5455L89.1343 27.3168L90.753 26.1278V17.8504C90.8455 14.4205 87.5618 15.2894 87.7468 11.6309C87.8393 10.0303 89.3655 8.84124 90.198 8.42965C91.0305 8.01807 91.9554 8.01807 91.9554 8.01807C91.9554 8.01807 90.4755 8.9327 90.8455 10.2589C91.4004 12.2711 94.9154 12.454 94.9616 15.1979V24.5729L97.5515 26.6309L98.2453 26.0821V15.8839L96.8578 14.512L100.465 11.3565L103.749 14.2376L102.5 15.5638V24.6187L105.599 27.1339L106.154 26.7681V15.9297L104.766 14.6492L108.374 11.4022L111.75 14.1461L113.091 12.9571L113.276 13.1857L110.224 15.8382V24.7101L102.454 29.4205L98.4765 26.3108L94.4529 29.3748Z" fill="#A6ABC9"/>
<path d="M253.225 19.4056L249.802 21.8751V13.5976L253.225 19.4056ZM253.132 11.4482C253.132 11.4482 250.82 12.8202 249.247 13.7348C247.675 14.6495 245.594 15.6556 245.594 15.6556V25.2592L244.206 26.3568L244.391 26.5854L245.732 25.4879L249.987 29.2836L257.387 23.4757L257.202 23.247L253.132 26.4025L249.756 23.2928V22.1495L256.554 17.3019L253.132 11.4482Z" fill="#A6ABC9"/>
<path d="M218.446 15.4723L218.631 15.701L220.019 14.5119L222.1 16.7985V24.7558L221.082 25.6705L224.32 29.2375L227.604 26.0363L226.262 24.6186V15.0607L227.095 14.3747L229.361 17.0272V24.9388L228.482 25.8077L231.535 29.1461L234.772 25.9449L233.57 24.7101V15.0607L234.448 14.3747L236.807 16.9815V24.8473L236.021 25.6247L239.351 29.2375L243.883 25.1217L243.652 24.9388L242.588 25.8991L240.923 24.0699V15.1065L242.542 13.8717L242.357 13.643L240.738 14.8778L237.686 11.4937L233.292 14.8778L230.24 11.5851L226.031 14.8778L222.932 11.6308L218.446 15.4723Z" fill="#A6ABC9"/>
<path d="M209.335 15.2438L209.52 15.4267L210.676 14.4206L212.526 16.57V25.6706L211.231 26.7682L211.416 26.9969L212.757 25.8536L215.717 29.2377L220.018 25.442L219.833 25.2133L218.585 26.3109L216.781 24.2987V15.4267L218.307 14.1463L218.122 13.9633L216.688 15.1524L213.59 11.5396L209.335 15.2438Z" fill="#A6ABC9"/>
<path d="M210.537 7.69831L213.775 4.77148L216.411 7.65258L213.173 10.5794L210.537 7.69831Z" fill="#A6ABC9"/>
<path d="M197.265 22.0119V11.9509L194.212 13.3229C194.212 13.3229 193.426 15.0607 193.565 17.5759C193.657 19.5424 194.767 21.8747 195.646 22.8808L197.265 22.0119ZM206.237 1.29543C206.977 1.34116 208.179 1.70701 209.058 2.48445C210.029 3.39908 210.214 4.77104 209.89 6.05152C209.613 7.14908 209.243 7.7436 208.087 8.52104C206.931 9.29847 205.497 9.25274 205.497 9.25274V14.1003L207.902 16.021L205.497 17.9418V24.5729C205.497 24.5729 207.902 23.2009 209.382 20.1826C209.382 20.1826 209.428 19.9997 209.567 19.7253C209.705 20.5485 209.613 22.1948 208.688 24.2985C207.994 25.8991 206.699 27.4082 205.127 28.2771C202.306 29.832 200.178 29.9692 197.912 29.5119C195.23 28.9631 192.825 27.4997 191.16 24.893C190.003 23.0637 189.495 20.9601 189.541 18.6735C189.633 14.1918 193.01 10.3503 196.895 8.88689C197.357 8.70396 197.542 8.6125 198.236 8.52104C197.912 8.74969 197.588 8.97835 197.126 9.29847C195.877 10.1216 194.813 11.7223 194.351 12.957L201.889 9.6186V20.0454L195.831 23.0637C196.525 24.0241 198.652 25.4418 200.409 25.6704C203.462 25.9905 205.266 24.6643 205.266 24.6643V17.896L202.907 15.9753L205.266 14.0546V9.25274C203.971 9.11555 202.398 8.70396 201.473 8.4753C200.132 8.15518 195.6 6.87469 194.906 6.78323C194.212 6.69177 193.333 6.69177 192.778 7.19482C192.27 7.65213 191.9 8.4753 192.131 9.25274C192.27 9.66433 192.547 9.93872 192.778 10.1674C192.778 10.1674 192.501 10.1674 192.038 9.84725C191.206 9.34421 190.558 8.33811 190.466 7.14908C190.373 5.54847 191.021 4.13079 192.362 3.12469C193.518 2.39299 194.813 1.93567 196.34 2.1186C198.559 2.43872 201.566 3.67347 204.202 4.31372C205.219 4.54238 206.052 4.63384 206.746 4.22225C207.069 3.9936 207.67 3.35335 207.208 2.53018C206.653 1.56982 205.543 1.56982 204.618 1.43262C205.451 1.24969 205.636 1.24969 206.237 1.29543Z" fill="#A6ABC9"/>
<path d="M262.753 13.3233V18.0794L264.371 19.4514C264.371 19.4514 267.84 16.7075 269.135 14.1465C269.135 14.1465 267.563 16.2502 265.435 15.6099C263.678 15.0611 262.753 13.3233 262.753 13.3233ZM258.868 25.9453C258.868 25.9453 260.394 23.43 263.03 23.9788C265.528 24.4819 266.406 27.1343 266.406 27.1343V21.0977L264.649 19.5886C262.706 21.5093 259.284 24.2532 258.868 25.9453ZM261.365 30.5642C260.856 30.7014 258.729 30.1983 258.22 28.0032C257.712 25.8995 259.238 24.4361 261.458 22.1953L258.775 19.7715V15.1983C258.775 15.1983 260.718 14.238 262.244 13.2776C263.77 12.3172 265.343 11.3111 265.343 11.3111C265.343 11.3111 266.499 12.7288 267.794 12.6374C269.829 12.4544 269.736 10.8995 269.644 10.5337C269.967 11.1282 270.892 12.9575 267.378 17.0276L270.291 19.3599V25.305C270.291 25.305 266.915 27.0428 263.77 29.3294C263.77 29.3294 262.013 27.1343 260.44 28.1861C259.423 28.8264 259.885 30.0154 261.365 30.5642Z" fill="#A6ABC9"/>
<path d="M145.049 23.7956L148.795 27.134V16.8901L145.049 13.4603V23.7956ZM152.726 15.4267L154.021 14.2377L154.206 14.4664L152.958 15.6097V25.0761C152.958 25.0761 150.553 26.3566 148.842 27.2712C147.177 28.2316 145.373 29.3292 145.373 29.3292L140.933 25.6249L139.777 26.631L139.592 26.4023L140.841 25.3505V15.1981C140.841 15.1981 142.922 14.2834 144.679 13.2773C146.252 12.4084 148.009 11.4023 148.009 11.4023L152.726 15.4267Z" fill="#A6ABC9"/>
<path d="M161.421 14.4667L164.242 11.6313C164.242 11.6313 164.612 11.9514 164.982 12.1344C165.167 12.2258 166.046 12.6832 166.832 12.2258C167.248 11.9972 167.295 11.9514 167.757 11.4941C167.85 13.6893 166.786 15.2441 165.445 15.8844C164.89 16.1588 163.317 16.6618 161.606 14.6496V24.8478L163.364 26.4027L164.844 25.1679L165.029 25.3966L160.357 29.238L156.843 26.0368L155.548 27.2258L155.316 26.9972L157.259 25.2594V16.4332L155.779 14.4667L154.484 15.5642L154.299 15.3813L158.785 11.3569L161.421 14.4667Z" fill="#A6ABC9"/>
<path d="M173.261 18.7192L178.441 11.265C178.441 11.265 179.134 12.0881 180.337 12.3625C181.955 12.7741 183.389 11.2192 183.389 11.2192C183.112 13.2314 182.094 15.4723 179.967 15.8381C178.117 16.1583 176.359 14.6948 176.359 14.6948L176.036 15.1979L183.25 25.9906L184.684 24.7558L184.869 24.9845L179.921 29.2833L173.261 18.7192Z" fill="#A6ABC9"/>
<path d="M169.006 8.74993C169.006 7.14932 168.359 6.14322 167.48 6.23468L173.169 2.30176V24.5731L174.649 26.128L175.805 25.1676L175.99 25.3963L171.411 29.3292L168.313 26.4481L167.064 27.5457L166.879 27.317L169.053 25.442V8.74993" fill="#A6ABC9"/>
<path d="M132.609 15.0154C132.609 15.0154 131.961 15.7014 130.99 15.7014C130.019 15.7014 129.371 15.0154 129.371 15.0154V18.0795C129.371 18.0795 130.019 17.3935 130.99 17.3935C131.961 17.3935 132.609 18.0795 132.609 18.0795V15.0154ZM132.609 8.4758L130.435 6.55507L129.371 7.37824V14.5124C129.371 14.5124 130.019 15.3356 130.99 15.3356C131.961 15.3356 132.609 14.5581 132.609 14.5581V8.4758ZM129.371 28.7349C129.371 28.7349 130.712 29.1008 131.637 28.3234C132.701 27.4545 132.609 26.2197 132.609 26.2197V18.491C132.609 18.491 132.007 17.7136 130.99 17.7136C130.019 17.7136 129.371 18.5368 129.371 18.5368V28.7349ZM121.601 8.38434C121.601 6.87519 121 6.05202 119.983 6.00629C118.549 5.96056 118.179 7.97275 118.179 7.97275C118.179 7.97275 117.902 6.41787 119.243 5.00019C119.983 4.22275 121.37 3.12519 123.498 3.62824C125.718 4.17702 126.365 5.86909 126.365 7.37824V28.0947C126.365 28.0947 127.198 28.1862 127.799 28.3234C128.446 28.4606 129.094 28.6435 129.094 28.6435V3.67397H129.371V7.05812L133.904 3.44531L137.233 6.37214L138.806 5.04592L138.991 5.27458L137.372 6.64653V25.8996C137.28 27.1343 137.095 28.4148 135.892 29.1923C133.21 30.7471 129.972 28.9636 127.105 28.552C124.978 28.2319 121.601 27.8203 120.769 29.7868C120.491 30.427 120.491 31.3874 121.463 32.0276C123.405 33.3081 132.054 29.8782 135.014 31.2502C137.742 32.4849 137.696 34.4514 137.28 35.8234C136.586 38.3843 133.349 38.7959 133.349 38.7959C133.349 38.7959 134.921 37.8813 134.505 36.3721C134.274 35.5947 133.765 35.4118 132.054 35.5947C128.354 36.0063 123.914 37.7898 120.908 36.5551C119.382 35.9148 118.272 34.0398 118.41 32.1648C118.503 29.4666 121.601 28.4148 121.601 28.4148V18.491C121.509 18.0795 119.844 18.2167 119.474 18.9484C118.919 20.0459 120.168 20.549 120.168 20.549C120.168 20.549 119.15 20.6862 118.272 19.7258C117.855 19.2227 116.977 17.5307 118.133 15.9758C119.058 14.6953 120.214 14.4667 121.648 14.3295V8.38434H121.601Z" fill="#A6ABC9"/>
</svg>
