<svg width="230" height="40" viewBox="0 0 230 40" fill="none" xmlns="http://www.w3.org/2000/svg">
<path d="M86.3858 16.4687V30.7716H81.1632V16.4687H75.8809V11.915H91.6532V16.4687H86.3858Z" fill="#A6ABC9"/>
<path d="M103.859 25.0837H95.5629C95.7271 26.6514 96.6373 27.3381 97.9653 27.3381C99.2038 27.3381 100.233 27.0694 101.621 26.3378L103.471 29.4433C101.726 30.4734 99.9201 31.0557 97.7117 31.0557C93.4589 31.0557 91.1162 28.0398 91.1162 23.6952C91.1162 18.8131 93.8618 16.3198 97.5774 16.3198C101.457 16.3198 103.874 18.8728 103.874 24.1282C103.874 24.5462 103.874 24.8448 103.859 25.0837ZM97.4431 19.9179C96.3388 19.9179 95.7271 20.6794 95.5629 22.0679H99.6067C99.3531 20.6346 98.8756 19.9179 97.4431 19.9179Z" fill="#A6ABC9"/>
<path d="M112.872 31.0703C108.724 31.0703 106.247 28.4277 106.247 23.6651C106.247 19.3205 108.456 16.3345 112.977 16.3345C115.648 16.3345 117.17 17.5737 118.408 19.5593L115.066 22.0974C114.394 20.8582 113.932 20.2611 112.887 20.2611C111.649 20.2611 111.022 21.5002 111.022 23.7397C111.022 25.9792 111.694 27.1288 113.022 27.1288C113.932 27.1288 114.588 26.6212 115.469 25.2924L118.543 27.6962C116.901 30.1148 115.379 31.0703 112.872 31.0703Z" fill="#A6ABC9"/>
<path d="M129.391 30.7718V22.7395C129.391 20.9031 128.779 20.4254 127.779 20.4254C126.749 20.4254 126.138 20.9031 126.138 22.6947V30.7718H121.288V13.0649L126.138 11.124V17.5738C127.033 16.9019 128.018 16.3346 129.689 16.3346C132.793 16.3346 134.27 18.4098 134.27 22.1274V30.7718H129.391Z" fill="#A6ABC9"/>
<path d="M145.864 31.0706C140.269 31.0706 137.27 26.9201 137.27 21.3512C137.27 15.2897 140.821 11.6318 145.879 11.6318C150.505 11.6318 152.341 13.6325 153.639 17.1858L148.909 19.0222C148.237 17.2754 147.595 16.1705 145.864 16.1705C143.686 16.1705 142.746 18.3503 142.746 21.3363C142.746 24.2178 143.656 26.5021 145.924 26.5021C147.566 26.5021 148.267 25.6063 149.282 23.8296L153.698 26.1736C152.445 28.6669 150.341 31.0706 145.864 31.0706Z" fill="#A6ABC9"/>
<path d="M165.621 21.9633C165.009 21.2914 164.308 20.7838 163.368 20.7838C162.189 20.7838 161.458 21.3511 161.458 23.0681V30.772H156.608V16.6333H161.458V17.6634C162.294 16.8572 163.234 16.3496 164.472 16.3496C165.502 16.3496 166.188 16.5885 166.755 16.9468L165.621 21.9633Z" fill="#A6ABC9"/>
<path d="M177.141 30.772V29.8314C176.275 30.5032 175.261 31.0706 173.619 31.0706C170.515 31.0706 169.038 28.9953 169.038 25.2778V16.6333H173.918V24.6656C173.918 26.502 174.529 26.9798 175.529 26.9798C176.529 26.9798 177.141 26.502 177.141 24.7104V16.6333H182.02V30.772H177.141Z" fill="#A6ABC9"/>
<path d="M193.614 30.7717V22.7394C193.614 20.903 193.003 20.4253 192.003 20.4253C190.973 20.4253 190.361 20.903 190.361 22.6946V30.7717H185.512V16.6331H190.361V17.5737C191.257 16.9018 192.241 16.3345 193.913 16.3345C197.016 16.3345 198.494 18.4097 198.494 22.1273V30.7717H193.614Z" fill="#A6ABC9"/>
<path d="M207.939 31.0703C203.791 31.0703 201.313 28.4277 201.313 23.6651C201.313 19.3205 203.522 16.3345 208.043 16.3345C210.714 16.3345 212.236 17.5737 213.475 19.5593L210.132 22.0974C209.461 20.8582 208.998 20.2611 207.954 20.2611C206.715 20.2611 206.088 21.5002 206.088 23.7397C206.088 25.9792 206.76 27.1288 208.088 27.1288C208.998 27.1288 209.655 26.6212 210.535 25.2924L213.609 27.6962C211.968 30.1148 210.446 31.0703 207.939 31.0703Z" fill="#A6ABC9"/>
<path d="M224.457 30.7718V22.7395C224.457 20.9031 223.845 20.4254 222.845 20.4254C221.816 20.4254 221.204 20.9031 221.204 22.6947V30.7718H216.354V13.0649L221.204 11.124V17.5738C222.099 16.9019 223.084 16.3346 224.755 16.3346C227.859 16.3346 229.336 18.4098 229.336 22.1274V30.7718H224.457Z" fill="#A6ABC9"/>
<path d="M0.287109 3.83838V14.6178H11.0607V36.1617H21.8193V14.6178H32.5929V3.83838H0.287109Z" fill="#A6ABC9"/>
<path d="M43.3514 25.3822V14.6177H32.5928V36.1616H64.8836V25.3822H43.3514Z" fill="#A6ABC9"/>
<path d="M64.8838 3.83838H43.3516V14.6178H64.8838V3.83838Z" fill="#A6ABC9"/>
</svg>
