<svg width="181" height="40" viewBox="0 0 181 40" fill="none" xmlns="http://www.w3.org/2000/svg">
<path d="M161.54 32.2675H168.044C168.296 33.0874 169.154 33.9074 170.762 33.9074C172.939 33.9074 173.689 32.5552 173.689 30.5556V29.1315H173.545C172.471 30.383 171.043 31.3036 168.938 31.3036C164.792 31.3036 161.187 28.2396 161.187 22.2481C161.187 16.7601 164.15 12.4805 168.621 12.4805C171.195 12.4805 172.766 13.5162 173.805 15.1561H173.913V13.0559H180.344V29.6637C180.344 32.7278 179.27 35.1157 177.662 36.5471C175.982 38.0432 173.588 38.6473 170.87 38.6473C165.758 38.6473 162.189 36.5399 161.54 32.2675ZM173.978 21.9244C173.978 19.5365 172.838 17.6088 170.87 17.6088C168.974 17.6088 167.763 19.3207 167.763 21.9244C167.763 24.4922 168.981 26.3407 170.87 26.3407C172.831 26.3479 173.978 24.4562 173.978 21.9244ZM154.006 16.3285H154.114C155.505 13.6529 157.33 12.6603 159.651 12.6603C160.185 12.6603 160.545 12.7322 160.761 12.8401V18.7237H160.617C156.652 18.0116 154.33 19.9033 154.33 24.2117V32.2315H147.574V13.0559H154.006C154.006 13.0559 154.006 16.3285 154.006 16.3285ZM0.336914 5.35254H13.5602C16.0621 5.35254 17.9872 5.95672 19.3499 7.06439C20.8857 8.30872 21.7076 10.1644 21.7076 12.3726C21.7076 14.9403 20.6694 16.5443 18.528 17.5441V17.652C21.3183 18.5798 22.9261 21.0757 22.9261 24.1038C22.9261 26.988 21.8158 29.2393 19.9988 30.5916C18.4631 31.6992 16.4659 32.2315 13.8198 32.2315H0.336914V5.35254ZM12.9185 26.276C14.5264 26.276 15.7016 25.3122 15.7016 23.5284C15.7016 21.6727 14.4182 20.7808 12.8825 20.7808H7.66237V26.2688H12.9185V26.276ZM12.2336 15.8682C13.6612 15.8682 14.6994 15.0842 14.6994 13.5162C14.6994 11.9842 13.6251 11.2361 12.1975 11.2361H7.66237V15.8682H12.2336Z" fill="#A6ABC9"/>
<path d="M24.1377 5.35254H31.0666V32.2315H24.1377V5.35254ZM32.3933 22.6725C32.3933 16.6162 36.3228 12.5164 42.4009 12.5164C48.479 12.5164 52.3364 16.6162 52.3364 22.6725C52.3364 28.7718 48.479 32.8285 42.4009 32.8285C36.3228 32.8357 32.3933 28.7718 32.3933 22.6725ZM45.4724 22.6725C45.4724 19.3207 44.3981 17.2204 42.3288 17.2204C40.2595 17.2204 39.2573 19.3207 39.2573 22.6725C39.2573 26.0602 40.2595 28.1604 42.3288 28.1604C44.3981 28.1676 45.4724 26.0602 45.4724 22.6725ZM53.1223 22.6725C53.1223 16.6162 57.0518 12.5164 63.1299 12.5164C69.208 12.5164 73.0654 16.6162 73.0654 22.6725C73.0654 28.7718 69.208 32.8285 63.1299 32.8285C57.0518 32.8357 53.1223 28.7718 53.1223 22.6725ZM66.2014 22.6725C66.2014 19.3207 65.1271 17.2204 63.0578 17.2204C60.9885 17.2204 59.9863 19.3207 59.9863 22.6725C59.9863 26.0602 60.9885 28.1604 63.0578 28.1604C65.1271 28.1676 66.2014 26.0602 66.2014 22.6725ZM74.3848 13.0559H80.8162V15.9401H80.9244C82.2078 13.696 83.9598 12.4805 86.7141 12.4805C89.1439 12.4805 90.968 13.6888 91.8981 15.7963H92.0063C93.5781 13.2645 95.6185 12.4805 97.9762 12.4805C102.447 12.4805 104.372 15.7603 104.372 20.1766V32.2243H97.6157V21.3922C97.6157 19.4286 97.0101 18.1483 95.2941 18.1483C93.6141 18.1483 92.7561 19.7163 92.7561 21.7878V32.2315H85.9931V21.3922C85.9931 19.4286 85.3874 18.1483 83.6714 18.1483C81.9915 18.1483 81.1335 19.7163 81.1335 21.7878V32.2315H74.3848V13.0559ZM112.62 29.7356H112.548V32.2315H106.116V5.35254H112.872V15.0482H112.98C114.264 13.3723 115.98 12.4805 118.446 12.4805C123.269 12.4805 126.06 16.832 126.06 22.6005C126.06 29.1243 123.024 32.8644 118.02 32.8644C115.944 32.8716 113.802 31.8719 112.62 29.7356ZM119.196 22.5358C119.196 19.4358 118.056 17.4362 116.016 17.4362C113.947 17.4362 112.62 19.4358 112.62 22.5358C112.62 25.5999 113.939 27.6354 116.016 27.6354C118.085 27.6282 119.196 25.6358 119.196 22.5358ZM126.918 22.6077C126.918 16.6162 130.883 12.4517 136.637 12.4517C139.492 12.4517 141.713 13.3436 143.393 14.9475C145.606 17.0838 146.608 20.4355 146.536 24.3915H133.637C133.926 26.7795 135.065 27.995 137.105 27.995C138.288 27.995 139.319 27.4628 139.752 26.1753H146.255C145.116 30.5556 141.72 32.7709 136.896 32.7709C130.919 32.7637 126.918 28.7359 126.918 22.6077ZM133.637 20.6082H139.78C139.672 18.2921 138.389 17.0766 136.781 17.0766C134.921 17.0766 133.883 18.4 133.637 20.6082Z" fill="#A6ABC9"/>
</svg>
