<svg width="175" height="40" viewBox="0 0 175 40" fill="none" xmlns="http://www.w3.org/2000/svg">
<path d="M28.9263 29.5264V10.4736C28.9263 9.48238 29.1459 8.73899 29.6125 8.24339C30.0517 7.7478 30.6555 7.5 31.3692 7.5C32.1103 7.5 32.7142 7.7478 33.1534 8.24339C33.62 8.73899 33.8396 9.48238 33.8396 10.4736V29.5264C33.8396 30.5176 33.62 31.2886 33.1534 31.7842C32.6867 32.2797 32.1103 32.5275 31.3692 32.5275C30.6555 32.5275 30.0791 32.2797 29.6399 31.7842C29.1733 31.261 28.9263 30.5176 28.9263 29.5264Z" fill="#A6ABC9"/>
<path d="M161.75 32.5C154.888 32.5 149.289 26.8833 149.289 20C149.289 13.1167 154.888 7.5 161.75 7.5C168.612 7.5 174.212 13.1167 174.212 20C174.212 26.9108 168.64 32.5 161.75 32.5ZM161.75 12.5661C157.66 12.5661 154.339 15.8976 154.339 20C154.339 24.1024 157.66 27.4339 161.75 27.4339C165.84 27.4339 169.161 24.1024 169.161 20C169.161 15.9251 165.84 12.5661 161.75 12.5661Z" fill="#A6ABC9"/>
<path d="M105.838 32.5C98.9755 32.5 93.376 26.8833 93.376 20C93.376 13.1167 98.9755 7.5 105.838 7.5C112.7 7.5 118.299 13.1167 118.299 20C118.299 26.9108 112.7 32.5 105.838 32.5ZM105.838 12.5661C101.748 12.5661 98.4265 15.8976 98.4265 20C98.4265 24.1024 101.748 27.4339 105.838 27.4339C109.928 27.4339 113.249 24.1024 113.249 20C113.249 15.9251 109.928 12.5661 105.838 12.5661Z" fill="#A6ABC9"/>
<path d="M145.309 20C145.309 17.2467 144.403 14.6861 142.893 12.6211C140.697 9.62005 137.184 7.63767 133.204 7.5C133.067 7.5 132.957 7.5 132.82 7.5H126.561C125.491 7.5 124.722 7.7478 124.256 8.24339C123.789 8.73899 123.542 9.50991 123.542 10.6112V20V20.0275V29.4163C123.542 30.5176 123.789 31.2886 124.256 31.7842C124.722 32.2797 125.518 32.5275 126.561 32.5275H132.82C132.957 32.5275 133.067 32.5275 133.204 32.5275C137.184 32.4174 140.67 30.435 142.893 27.4064C144.403 25.3139 145.309 22.7533 145.309 20ZM133.725 27.3789C133.122 27.4064 132.463 27.4339 131.777 27.4339H128.51V20.0275V20V12.5661H131.777C132.463 12.5661 133.122 12.5661 133.725 12.6211C135.894 12.8689 137.76 14.0804 138.941 15.7874C139.764 16.9714 140.258 18.4306 140.258 20C140.258 21.5694 139.764 23.0011 138.941 24.185C137.76 25.9471 135.894 27.1311 133.725 27.3789Z" fill="#A6ABC9"/>
<path d="M86.321 7.60993C85.4152 7.3346 84.4271 7.69253 83.9056 8.49099L76.3847 19.9723L68.8637 8.49099C68.3422 7.69253 67.3541 7.3346 66.4483 7.60993C65.5424 7.88526 64.9111 8.76632 64.9111 9.72998V30.132C64.9111 31.3434 65.8718 32.3621 67.0796 32.3621C68.2599 32.3621 69.248 31.3709 69.248 30.132V16.9987L74.573 25.1485C74.573 25.1485 74.573 25.1485 74.573 25.176C74.573 25.176 74.573 25.2035 74.6005 25.2035C74.6279 25.2586 74.6554 25.3137 74.7103 25.3412C74.7377 25.3687 74.7377 25.3687 74.7652 25.3963C74.7926 25.4238 74.8201 25.4789 74.8475 25.5064C74.875 25.5339 74.9024 25.5615 74.9299 25.589C74.9573 25.6165 74.9848 25.6165 74.9848 25.6441C75.0397 25.6716 75.0671 25.6991 75.122 25.7542L75.1495 25.7817C75.2044 25.8093 75.2593 25.8368 75.2867 25.8643C75.3142 25.8643 75.3142 25.8919 75.3142 25.8919C75.3416 25.9194 75.3965 25.9194 75.424 25.9469C75.6435 26.0571 75.8631 26.1121 76.1102 26.1397C76.1651 26.1397 76.1925 26.1397 76.2474 26.1397C76.2749 26.1397 76.3023 26.1397 76.3298 26.1397C76.3572 26.1397 76.3847 26.1397 76.4121 26.1397C76.467 26.1397 76.4944 26.1397 76.5493 26.1397C76.7689 26.1121 77.016 26.0571 77.2356 25.9469C77.263 25.9194 77.3179 25.9194 77.3454 25.8919L77.3728 25.8643C77.4277 25.8368 77.4826 25.8093 77.51 25.7817C77.5375 25.7817 77.5375 25.7542 77.5375 25.7542C77.5924 25.7267 77.6198 25.6991 77.6747 25.6441C77.7022 25.6165 77.7296 25.6165 77.7296 25.589C77.7571 25.5615 77.7845 25.5339 77.812 25.5064C77.8394 25.4789 77.8669 25.4513 77.8943 25.3963C77.9218 25.3687 77.9218 25.3687 77.9492 25.3412C77.9767 25.2861 78.0316 25.2586 78.059 25.2035L78.0865 25.176C78.0865 25.176 78.0865 25.176 78.0865 25.1485L83.4115 16.9987V30.132C83.4115 31.3434 84.3722 32.3621 85.5799 32.3621C86.7602 32.3621 87.7484 31.3709 87.7484 30.132V9.72998C87.8582 8.76632 87.2269 7.88526 86.321 7.60993Z" fill="#A6ABC9"/>
<path d="M57.555 31.7567H41.3878C40.5368 31.7567 39.6036 31.2335 39.2468 30.4075C38.8899 29.5816 38.835 28.4527 39.5761 27.5441L52.7789 12.1531H41.8544C40.6741 12.1531 39.6859 11.1069 39.6859 9.84037C39.6859 8.57385 40.6466 7.77539 41.8544 7.77539H56.5669C57.4178 7.77539 58.2961 7.91306 59.0647 8.76658C59.7783 9.5375 59.7235 11.217 58.9549 12.2082L46.1913 27.1311H57.555C58.7627 27.1311 59.6137 28.1774 59.6137 29.4439C59.6137 30.7104 58.7627 31.7567 57.555 31.7567Z" fill="#A6ABC9"/>
<path d="M12.8413 32.5C9.24548 32.5 6.00654 31.0683 3.67341 28.4802C1.64221 26.2225 0.461914 23.2214 0.461914 20.2478C0.461914 10.9692 8.14754 7.5 13.006 7.5C17.782 7.5 21.268 9.84031 21.4327 9.95044C22.5032 10.6938 22.8051 12.1531 22.064 13.2544C21.3503 14.3557 19.8956 14.6311 18.8251 13.9152C18.7702 13.8877 16.2723 12.2632 13.006 12.2632C9.95915 12.2632 5.7595 14.2731 5.7595 20.2478C5.7595 23.6344 8.28478 27.6542 12.8962 27.6542C15.5038 27.6542 17.3154 26.9659 18.3859 26.2775V22.7533H14.8176C13.5275 22.7533 12.4844 21.6795 12.4844 20.3855C12.4844 19.0639 13.5275 18.0176 14.8176 18.0176H20.7739C22.064 18.0176 23.1071 19.0914 23.1071 20.3855V27.4615C23.1071 28.0947 22.86 28.728 22.3934 29.1685C20.8288 30.7104 17.3703 32.5 12.8413 32.5Z" fill="#A6ABC9"/>
</svg>
