<svg width="116" height="40" viewBox="0 0 116 40" fill="none" xmlns="http://www.w3.org/2000/svg">
<path fill-rule="evenodd" clip-rule="evenodd" d="M70.3898 12.7632C68.5583 12.7632 67.1084 13.1435 65.6585 13.9802C65.6585 9.79696 65.6585 5.91799 65.8112 4.625L56.8828 6.22222V6.9828L57.7985 7.13492C59.0195 7.3631 59.4011 8.04762 59.63 9.64484C59.8589 12.8393 59.7826 29.6481 59.63 32.4623C61.9956 32.9947 64.5139 33.375 67.0321 33.375C74.0527 33.375 78.2498 29.0397 78.2498 22.1944C78.3261 16.7183 74.8921 12.7632 70.3898 12.7632ZM67.3374 31.8538C66.8032 31.8538 66.1164 31.8538 65.7348 31.7017C65.5822 29.8763 65.5059 22.1184 65.5822 15.2731C66.3453 15.045 66.8795 14.8929 67.5663 14.8929C70.4661 14.8929 72.0686 18.3155 72.0686 22.4987C72.0686 27.8228 70.0845 31.8538 67.3374 31.8538Z" fill="#A6ABC9"/>
<path fill-rule="evenodd" clip-rule="evenodd" d="M23.6116 5.15723H0.336914V6.37416L1.63419 6.52627C3.38934 6.75445 3.99982 7.81926 4.30506 10.3292C4.68662 15.0448 4.53399 23.6394 4.30506 27.7465C4.07613 30.2564 3.38934 31.3973 1.63419 31.5494L0.336914 31.7776V32.8424H15.2938V31.7776L13.6913 31.5494C11.9361 31.3973 11.3256 30.2564 11.0204 27.7465C10.8678 25.9972 10.7915 23.2591 10.7915 19.8365L13.9965 19.9886C15.9806 19.9886 16.8963 21.5858 17.2779 23.7915H18.4988V14.3603H17.2779C16.8963 16.566 15.9806 18.1632 13.9965 18.1632L10.7915 18.3153C10.7915 13.8279 10.9441 9.64466 11.0204 7.13474H15.6753C19.2619 7.13474 21.0934 9.34043 22.3907 13.2955L23.6879 12.9152L23.6116 5.15723Z" fill="#A6ABC9"/>
<path fill-rule="evenodd" clip-rule="evenodd" d="M31.09 12.5352C37.729 12.5352 41.0104 17.0226 41.0104 22.9551C41.0104 28.5834 37.3475 33.3751 30.7085 33.3751C24.0694 33.3751 20.7881 28.8877 20.7881 22.9551C20.7881 17.2508 24.5273 12.5352 31.09 12.5352ZM30.7085 13.8281C27.8087 13.8281 27.0456 17.7832 27.0456 22.8791C27.0456 27.8989 28.3428 31.93 31.0137 31.93C34.0661 31.93 34.8292 27.975 34.8292 22.8791C34.8292 17.9353 33.5319 13.8281 30.7085 13.8281Z" fill="#A6ABC9"/>
<path fill-rule="evenodd" clip-rule="evenodd" d="M80.0049 23.0311C80.0049 17.6309 83.4389 12.459 90.1542 12.459C95.7248 12.459 98.3194 16.5661 98.3194 21.9663H86.0334C85.8808 26.834 88.2464 30.4087 93.054 30.4087C95.1907 30.4087 96.259 29.8763 97.5563 28.9636L98.0905 29.6481C96.7932 31.4735 93.8934 33.2989 90.1542 33.2989C84.2783 33.375 80.0049 29.1157 80.0049 23.0311ZM86.1097 20.5972L92.2909 20.4451C92.2909 17.7831 91.9093 13.828 89.62 13.828C87.407 13.828 86.2623 17.5549 86.1097 20.5972Z" fill="#A6ABC9"/>
<path fill-rule="evenodd" clip-rule="evenodd" d="M114.116 13.6C112.514 12.9154 110.453 12.5352 108.011 12.5352C103.127 12.5352 100.075 15.4254 100.075 18.848C100.075 22.2706 102.288 23.7157 105.493 24.7805C108.774 25.9975 109.69 26.9102 109.69 28.4313C109.69 30.0285 108.469 31.4737 106.409 31.4737C103.89 31.4737 102.059 30.0285 100.609 26.0735L99.6934 26.3017L99.846 32.0821C101.449 32.7666 104.348 33.299 106.867 33.299C112.056 33.299 115.337 30.637 115.337 26.6059C115.337 23.8678 113.887 22.2706 110.453 20.9776C106.79 19.5325 105.417 18.6198 105.417 16.8705C105.417 15.1211 106.638 13.9803 108.164 13.9803C110.529 13.9803 112.132 15.4254 113.353 19.0001L114.269 18.7719L114.116 13.6Z" fill="#A6ABC9"/>
<path fill-rule="evenodd" clip-rule="evenodd" d="M58.1803 13.0675C55.9673 11.7746 51.9992 12.383 49.8625 17.1747L50.0151 12.5351L41.1631 14.2845V15.0451L42.0788 15.1972C43.2998 15.3493 43.834 15.9578 43.9103 17.7071C44.1392 20.9015 44.0629 26.3777 43.9103 29.1919C43.7576 30.7891 43.2235 31.5497 42.0788 31.7018L41.1631 31.8539V32.9187H53.4491V31.8539L51.8466 31.7018C50.5493 31.5497 50.0914 30.7891 50.0151 29.1919C49.7862 26.682 49.7862 21.6621 49.8625 18.5437C50.5493 17.631 53.4491 16.7944 56.0436 18.5437L58.1803 13.0675Z" fill="#A6ABC9"/>
</svg>
