<svg width="24" height="24" viewBox="0 0 24 24" fill="none" xmlns="http://www.w3.org/2000/svg">
<path d="M7 13.5H12.5" stroke="#1757C2" stroke-width="1.5" stroke-linecap="round" stroke-linejoin="round"/>
<path d="M7 17H10" stroke="#1757C2" stroke-width="1.5" stroke-linecap="round" stroke-linejoin="round"/>
<path d="M10 21H5C3.895 21 3 20.105 3 19V5C3 3.895 3.895 3 5 3H17C18.105 3 19 3.895 19 5V9" stroke="#1757C2" stroke-width="1.5" stroke-linecap="round" stroke-linejoin="round"/>
<path d="M21.273 13.163L20.818 12.708C20.427 12.317 19.794 12.317 19.404 12.708L13.127 18.988C13.033 19.082 12.981 19.209 12.981 19.341V21H14.64C14.773 21 14.9 20.947 14.993 20.854L21.273 14.577C21.664 14.186 21.664 13.553 21.273 13.163V13.163Z" stroke="#1757C2" stroke-width="1.5" stroke-linecap="round" stroke-linejoin="round"/>
<path d="M7 8.7V6.5H11V8.7L9 10.3L7 8.7Z" stroke="#1757C2" stroke-width="1.5" stroke-linecap="round" stroke-linejoin="round"/>
</svg>
