<svg width="24" height="24" viewBox="0 0 24 24" fill="none" xmlns="http://www.w3.org/2000/svg">
<path d="M2 19C2 16.8 3.8 15 6 15H10C12.2 15 14 16.8 14 19" stroke="#1757C2" stroke-width="1.5" stroke-linecap="round" stroke-linejoin="round"/>
<path d="M10.4997 5.99991C11.8997 7.39991 11.8997 9.59991 10.4997 10.8999C9.09968 12.1999 6.89968 12.2999 5.59968 10.8999C4.29968 9.49991 4.19968 7.39991 5.49968 5.99991C6.79968 4.59991 9.09968 4.69991 10.4997 5.99991Z" stroke="#1757C2" stroke-width="1.5" stroke-linecap="round" stroke-linejoin="round"/>
<path d="M16 14H19C20.7 14 22 15.3 22 17" stroke="#1757C2" stroke-width="1.5" stroke-linecap="round" stroke-linejoin="round"/>
<path d="M19.2999 6.6999C20.2999 7.6999 20.2999 9.2999 19.2999 10.1999C18.2999 11.0999 16.6999 11.1999 15.7999 10.1999C14.8999 9.1999 14.7999 7.5999 15.7999 6.6999C16.6999 5.7999 18.2999 5.7999 19.2999 6.6999Z" stroke="#1757C2" stroke-width="1.5" stroke-linecap="round" stroke-linejoin="round"/>
</svg>
