<svg width="24" height="24" viewBox="0 0 24 24" fill="none" xmlns="http://www.w3.org/2000/svg">
<path d="M6.5 2.5L8 4L6.5 5.5" stroke="#1757C2" stroke-width="1.5" stroke-linecap="round" stroke-linejoin="round"/>
<path d="M8 4H6C4.343 4 3 5.343 3 7" stroke="#1757C2" stroke-width="1.5" stroke-linecap="round" stroke-linejoin="round"/>
<path d="M17.5 21.5L16 20L17.5 18.5" stroke="#1757C2" stroke-width="1.5" stroke-linecap="round" stroke-linejoin="round"/>
<path d="M16 20H18C19.657 20 21 18.657 21 17" stroke="#1757C2" stroke-width="1.5" stroke-linecap="round" stroke-linejoin="round"/>
<path d="M11 20H5C3.895 20 3 19.105 3 18V12C3 10.895 3.895 10 5 10H11C12.105 10 13 10.895 13 12V18C13 19.105 12.105 20 11 20Z" stroke="#1757C2" stroke-width="1.5" stroke-linecap="round" stroke-linejoin="round"/>
<path d="M11 10V6C11 4.895 11.895 4 13 4H19C20.105 4 21 4.895 21 6V12C21 13.105 20.105 14 19 14H13" stroke="#1757C2" stroke-width="1.5" stroke-linecap="round" stroke-linejoin="round"/>
</svg>
