<svg width="16" height="16" viewBox="0 0 16 16" fill="none" xmlns="http://www.w3.org/2000/svg">
<path d="M3.72985 8.28645L3.3763 8.64L3.72985 8.28645C3.7038 8.2604 3.6963 8.23432 3.6963 8.21334C3.6963 8.19236 3.7038 8.16628 3.72985 8.14023C3.7559 8.11418 3.78198 8.10668 3.80296 8.10668C3.82393 8.10668 3.85001 8.11418 3.87606 8.14023L3.87712 8.14128L6.11713 10.3679L6.47023 10.7189L6.82273 10.3673L12.1427 5.06067L12.1432 5.06022C12.1692 5.03418 12.1953 5.02667 12.2163 5.02667C12.2373 5.02667 12.2634 5.03418 12.2894 5.06022C12.3155 5.08627 12.323 5.11235 12.323 5.13334C12.323 5.15428 12.3155 5.18029 12.2896 5.20627C12.2895 5.20633 12.2895 5.20639 12.2894 5.20645L6.55428 10.9283C6.51569 10.9609 6.48905 10.9667 6.45629 10.9667C6.43238 10.9667 6.41887 10.9628 6.41178 10.96C6.4054 10.9575 6.39611 10.9527 6.38317 10.9398L3.72985 8.28645Z" fill="#1757C2" stroke="#1757C2"/>
</svg>
