<svg width="24" height="24" viewBox="0 0 24 24" fill="none" xmlns="http://www.w3.org/2000/svg">
<path d="M14.22 2.33509C17.498 2.82809 20.09 5.41909 20.582 8.69709C20.672 9.29609 20.19 9.83309 19.584 9.83309H14.083C13.531 9.83309 13.083 9.38509 13.083 8.83309V3.33209C13.083 2.72609 13.621 2.24509 14.22 2.33509Z" stroke="#1757C2" stroke-width="1.5" stroke-linecap="round" stroke-linejoin="round"/>
<path d="M19.1841 17.589C19.9031 16.618 20.3951 15.469 20.5821 14.22C20.6721 13.621 20.1901 13.084 19.5841 13.084H15.4971C14.6061 13.084 14.1601 14.161 14.7901 14.791L17.6811 17.682C18.1071 18.107 18.8251 18.073 19.1841 17.589Z" stroke="#1757C2" stroke-width="1.5" stroke-linecap="round" stroke-linejoin="round"/>
<path d="M8.70921 6.66615C4.57621 7.28015 1.53121 11.2292 2.39821 15.6882C2.97521 18.6552 5.37321 21.0422 8.34221 21.6072C10.5932 22.0352 12.7112 21.4681 14.3342 20.2691C14.8202 19.9101 14.8572 19.1902 14.4302 18.7632L10.1262 14.4592C9.93821 14.2712 9.83321 14.0172 9.83321 13.7522V7.66215C9.83321 7.06115 9.30421 6.57815 8.70921 6.66615Z" stroke="#1757C2" stroke-width="1.5" stroke-linecap="round" stroke-linejoin="round"/>
</svg>
