<svg width="24" height="24" viewBox="0 0 24 24" fill="none" xmlns="http://www.w3.org/2000/svg">
<path d="M16.333 21H4.667C3.746 21 3 20.254 3 19.333V7.667C3 6.746 3.746 6 4.667 6H16.334C17.254 6 18 6.746 18 7.667V19.334C18 20.254 17.254 21 16.333 21V21Z" stroke="#1757C2" stroke-width="1.5" stroke-linecap="round" stroke-linejoin="round"/>
<path d="M12.2684 10.166C13.2444 11.142 13.2444 12.725 12.2684 13.702C11.2924 14.678 9.70938 14.678 8.73238 13.702C7.75538 12.726 7.75638 11.143 8.73238 10.166C9.70838 9.18897 11.2914 9.18997 12.2684 10.166Z" stroke="#1757C2" stroke-width="1.5" stroke-linecap="round" stroke-linejoin="round"/>
<path d="M15 18.4341C14.869 18.1051 14.666 17.8091 14.406 17.5681C13.967 17.1601 13.392 16.9341 12.792 16.9341C11.792 16.9341 9.208 16.9341 8.208 16.9341C7.608 16.9341 7.034 17.1611 6.594 17.5681C6.334 17.8091 6.131 18.1051 6 18.4341" stroke="#1757C2" stroke-width="1.5" stroke-linecap="round" stroke-linejoin="round"/>
<path d="M6 6V4.667C6 3.746 6.746 3 7.667 3H19.334C20.254 3 21 3.746 21 4.667V16.334C21 17.254 20.254 18 19.333 18H18" stroke="#1757C2" stroke-width="1.5" stroke-linecap="round" stroke-linejoin="round"/>
</svg>
