<svg width="40" height="40" viewBox="0 0 40 40" fill="none" xmlns="http://www.w3.org/2000/svg">
<path d="M40 20C40 31.0456 31.0456 40 20 40C8.95437 40 0 31.0456 0 20C0 20.0047 20 0.00226562 20 0C31.0456 0 40 8.95437 40 20Z" fill="#0052B4"/>
<path d="M19.9468 20H20.0003C20.0003 19.9819 20.0003 19.9646 20.0003 19.9465C19.9825 19.9644 19.9647 19.9822 19.9468 20Z" fill="#F0F0F0"/>
<path d="M20 10.4357C20 6.9166 20 4.61059 20 0.000976562H19.9966C8.9525 0.00277344 0 8.95629 0 20.0009H10.4348V14.125L16.3107 20.0009H19.9466C19.9645 19.9831 19.9823 19.9653 20.0001 19.9474C20.0001 18.6 20.0001 17.3977 20.0001 16.3118L14.1241 10.4357H20Z" fill="#F0F0F0"/>
<path d="M10.1181 2.60864C6.99004 4.38981 4.38957 6.99028 2.6084 10.1183V20H7.82582V7.82614V7.82606H19.9997C19.9997 6.18052 19.9997 4.61286 19.9997 2.60864H10.1181V2.60864Z" fill="#D80027"/>
<path d="M19.9997 17.5405L12.894 10.4348H10.4346C10.4346 10.4348 10.4346 10.4348 10.4346 10.4348L19.9996 19.9999H19.9997C19.9997 19.9999 19.9997 18.3042 19.9997 17.5405Z" fill="#D80027"/>
<path d="M12.0621 23.4783L13.1598 25.7734L15.6385 25.2005L14.5285 27.4898L16.5218 29.0705L14.04 29.6298L14.0469 32.1739L12.0621 30.5823L10.0775 32.1739L10.0844 29.6298L7.60254 29.0705L9.5959 27.4898L8.48574 25.2005L10.9646 25.7734L12.0621 23.4783Z" fill="#F0F0F0"/>
<path d="M29.9441 27.8259L30.4929 28.9735L31.7323 28.687L31.1772 29.8316L32.174 30.622L30.933 30.9017L30.9365 32.1737L29.9441 31.3779L28.9518 32.1737L28.9552 30.9017L27.7144 30.622L28.711 29.8316L28.156 28.687L29.3953 28.9735L29.9441 27.8259Z" fill="#F0F0F0"/>
<path d="M24.8382 15.6521L25.387 16.7998L26.6264 16.5132L26.0714 17.6578L27.068 18.4482L25.8271 18.7279L25.8305 19.9999L24.8382 19.2041L23.8459 19.9999L23.8493 18.7279L22.6084 18.4482L23.605 17.6578L23.05 16.5132L24.2894 16.7998L24.8382 15.6521Z" fill="#F0F0F0"/>
<path d="M29.9441 8.69556L30.4929 9.84321L31.7323 9.55673L31.1773 10.7013L32.1739 11.4917L30.933 11.7714L30.9365 13.0434L29.9441 12.2476L28.9518 13.0434L28.9552 11.7714L27.7144 11.4917L28.7109 10.7013L28.156 9.55673L29.3953 9.84321L29.9441 8.69556Z" fill="#F0F0F0"/>
<path d="M34.4037 13.9131L34.9524 15.0607L36.1918 14.7742L35.6368 15.9188L36.6334 16.7092L35.3925 16.9889L35.3959 18.2609L34.4037 17.4651L33.4113 18.2609L33.4147 16.9889L32.1738 16.7092L33.1705 15.9188L32.6155 14.7742L33.8548 15.0607L34.4037 13.9131Z" fill="#F0F0F0"/>
<path d="M31.2149 20L31.6465 21.3286H33.0436L31.9133 22.1498L32.3451 23.4783L31.2149 22.6572L30.0847 23.4783L30.5164 22.1498L29.3862 21.3286H30.7832L31.2149 20Z" fill="#F0F0F0"/>
</svg>
