<svg width="24" height="24" viewBox="0 0 24 24" fill="none" xmlns="http://www.w3.org/2000/svg">
<path d="M12 24C18.6274 24 24 18.6274 24 12C24 5.37258 18.6274 0 12 0C5.37258 0 0 5.37258 0 12C0 18.6274 5.37258 24 12 24Z" fill="#F0F0F0"/>
<path d="M23.9999 12C23.9999 7.24242 21.2312 3.13167 17.2173 1.19067V22.8092C21.2312 20.8682 23.9999 16.7575 23.9999 12Z" fill="#D80027"/>
<path d="M0 12C0 16.7575 2.76867 20.8682 6.78262 22.8092V1.19067C2.76867 3.13167 0 7.24242 0 12Z" fill="#6DA544"/>
<path d="M8.86963 12C8.86963 13.7289 10.2712 15.1305 12.0001 15.1305C13.729 15.1305 15.1305 13.7289 15.1305 12V10.9565H8.86963V12Z" fill="#6DA544"/>
<path d="M16.174 9.91287H13.0436C13.0436 9.33659 12.5764 8.86938 12.0001 8.86938C11.4238 8.86938 10.9566 9.33659 10.9566 9.91287H7.82617C7.82617 10.4892 8.32816 10.9563 8.90439 10.9563H8.86965C8.86965 11.5327 9.33681 11.9998 9.91314 11.9998C9.91314 12.5762 10.3803 13.0433 10.9566 13.0433H13.0436C13.6199 13.0433 14.0871 12.5762 14.0871 11.9998C14.6634 11.9998 15.1306 11.5327 15.1306 10.9563H15.0958C15.6721 10.9563 16.174 10.4892 16.174 9.91287Z" fill="#FF9811"/>
</svg>
