<svg width="24" height="24" viewBox="0 0 24 24" fill="none" xmlns="http://www.w3.org/2000/svg">
<path d="M24 12C24 18.6274 18.6274 24 12 24C5.37262 24 0 18.6274 0 12C0 12.0028 12 0.00135937 12 0C18.6274 0 24 5.37262 24 12Z" fill="#0052B4"/>
<path d="M11.9678 12.0001H11.9999C11.9999 11.9893 11.9999 11.9788 11.9999 11.968C11.9892 11.9788 11.9785 11.9894 11.9678 12.0001Z" fill="#F0F0F0"/>
<path d="M12 6.26184C12 4.15035 12 2.76674 12 0.000976562H11.998C5.3715 0.00205469 0 5.37416 0 12.0009H6.26086V8.47537L9.78642 12.0009H11.9679C11.9787 11.9902 11.9894 11.9796 12 11.9688C12 11.1604 12 10.439 12 9.78745L8.47444 6.26184H12Z" fill="#F0F0F0"/>
<path d="M6.07124 1.56519C4.19441 2.63389 2.63413 4.19417 1.56543 6.071V12H4.69588V4.69569V4.69564H12.0002C12.0002 3.70831 12.0002 2.76772 12.0002 1.56519H6.07124V1.56519Z" fill="#D80027"/>
<path d="M12.0003 10.5244L7.7369 6.26101H6.26123C6.26123 6.26096 6.26123 6.26101 6.26123 6.26101L12.0003 12.0001H12.0003C12.0003 12.0001 12.0003 10.9826 12.0003 10.5244Z" fill="#D80027"/>
<path d="M7.23729 14.0872L7.89588 15.4643L9.38308 15.1205L8.71709 16.494L9.91305 17.4425L8.42398 17.7781L8.42815 19.3045L7.23729 18.3495L6.04648 19.3045L6.05065 17.7781L4.56152 17.4425L5.75754 16.494L5.09145 15.1205L6.57874 15.4643L7.23729 14.0872Z" fill="#F0F0F0"/>
<path d="M17.9663 16.6958L18.2956 17.3843L19.0392 17.2125L18.7062 17.8992L19.3042 18.3735L18.5596 18.5413L18.5617 19.3045L17.9663 18.827L17.3709 19.3045L17.3729 18.5413L16.6284 18.3735L17.2264 17.8992L16.8934 17.2125L17.637 17.3843L17.9663 16.6958Z" fill="#F0F0F0"/>
<path d="M14.9033 9.3916L15.2326 10.0802L15.9762 9.90826L15.6432 10.595L16.2412 11.0693L15.4967 11.2371L15.4987 12.0003L14.9033 11.5228L14.3079 12.0003L14.3099 11.2371L13.5654 11.0693L14.1634 10.595L13.8304 9.90826L14.574 10.0802L14.9033 9.3916Z" fill="#F0F0F0"/>
<path d="M17.9663 5.21753L18.2956 5.90612L19.0392 5.73423L18.7062 6.421L19.3041 6.89519L18.5596 7.06305L18.5617 7.82626L17.9663 7.34875L17.3709 7.82626L17.3729 7.06305L16.6284 6.89519L17.2264 6.421L16.8934 5.73423L17.637 5.90612L17.9663 5.21753Z" fill="#F0F0F0"/>
<path d="M20.6421 8.3479L20.9714 9.03649L21.715 8.86456L21.382 9.55132L21.98 10.0256L21.2354 10.1934L21.2375 10.9566L20.6421 10.4791L20.0467 10.9566L20.0487 10.1934L19.3042 10.0256L19.9022 9.55132L19.5692 8.86456L20.3128 9.03649L20.6421 8.3479Z" fill="#F0F0F0"/>
<path d="M18.729 12L18.988 12.7972H19.8262L19.1481 13.2899L19.4072 14.087L18.729 13.5943L18.0509 14.087L18.3099 13.2899L17.6318 12.7972H18.47L18.729 12Z" fill="#F0F0F0"/>
</svg>
