<svg width="24" height="24" viewBox="0 0 24 24" fill="none" xmlns="http://www.w3.org/2000/svg">
<path d="M24 12C24 18.6274 18.6274 24 12 24C5.37262 24 0 18.6274 0 12C0 12.0029 12 0.0013125 12 0C18.6274 0 24 5.37262 24 12Z" fill="#0052B4"/>
<path d="M11.9678 12.0001H11.9999C11.9999 11.9893 11.9999 11.9788 11.9999 11.968C11.9892 11.9788 11.9785 11.9894 11.9678 12.0001Z" fill="#F0F0F0"/>
<path d="M12 6.26086C12 4.14938 12 2.76586 12 0H11.998C5.3715 0.001125 0 5.37323 0 12H6.26086V8.47448L9.78642 12H11.9679C11.9786 11.9893 11.9894 11.9786 12 11.9679C12 11.1594 12 10.4381 12 9.78647L8.47444 6.26086H12Z" fill="#F0F0F0"/>
<path d="M6.07075 1.56519C4.19393 2.63389 2.63364 4.19417 1.56494 6.071V12H4.69539V4.69573V4.69564H11.9997C11.9997 3.70831 11.9997 2.76772 11.9997 1.56519H6.07075V1.56519Z" fill="#D80027"/>
<path d="M11.9998 10.5242L7.73641 6.26074C7.73641 6.26074 6.26074 6.26084 6.26074 6.26074V6.26084L11.9998 11.9998H11.9998C11.9998 11.9998 11.9998 10.9823 11.9998 10.5242Z" fill="#D80027"/>
<path d="M20.7808 8.90454L21.0398 9.7017H21.878L21.1999 10.1944L21.4589 10.9915L20.7808 10.4989L20.1027 10.9915L20.3617 10.1944L19.6836 9.7017H20.5218L20.7808 8.90454Z" fill="#D80027"/>
<path d="M17.7845 14.6436L18.173 15.8393H19.4302L18.413 16.5783L18.8016 17.774L17.7845 17.035L16.7673 17.774L17.1559 16.5783L16.1387 15.8393H17.3959L17.7845 14.6436Z" fill="#D80027"/>
<path d="M17.8978 5.2522L18.2216 6.24871H19.2693L18.4216 6.86441L18.7454 7.86088L17.8978 7.24499L17.0502 7.86088L17.374 6.86441L16.5264 6.24871H17.574L17.8978 5.2522Z" fill="#D80027"/>
<path d="M15.0149 8.86963L15.4034 10.0654H16.6607L15.6435 10.8043L16.0321 12.0001L15.0149 11.2611L13.9977 12.0001L14.3863 10.8043L13.3691 10.0654H14.6264L15.0149 8.86963Z" fill="#D80027"/>
</svg>
