<svg width="20" height="20" viewBox="0 0 20 20" fill="none" xmlns="http://www.w3.org/2000/svg">
<path d="M17.5043 9.73318C17.4043 11.1665 16.3043 12.6998 14.121 12.6998C13.121 12.6998 12.6043 12.6998 12.6043 12.6998C12.2377 12.6998 11.9377 12.3832 11.9377 12.0165C11.9377 11.6499 12.2377 11.3332 12.6043 11.3332C12.6043 11.3332 13.121 11.3499 14.121 11.3499C15.4543 11.3499 16.121 10.4999 16.1877 9.63319C16.2543 8.74985 15.6876 7.76652 14.3043 7.56652C14.121 7.53318 13.9543 7.43317 13.8543 7.28317C13.7543 7.13317 13.721 6.93318 13.7543 6.74984C13.9376 5.99984 13.7376 5.39984 13.2543 5.1165C12.8376 4.88317 12.171 4.88317 11.6043 5.43317C11.4543 5.58317 11.2376 5.64984 11.0376 5.6165C10.8376 5.58317 10.6543 5.44984 10.5543 5.26651C9.62098 3.51651 8.17098 3.4165 7.22098 3.8665C6.30431 4.29984 5.57098 5.38318 6.13765 6.74984C6.20431 6.91651 6.2043 7.1165 6.12096 7.28317C6.03763 7.44984 5.88765 7.58319 5.72098 7.63319C3.80431 8.23319 3.83765 9.51652 3.88765 9.88319C3.98765 10.5999 4.5543 11.3165 5.43763 11.3165H7.47098C7.83765 11.3165 8.13765 11.6165 8.13765 11.9832C8.13765 12.3498 7.83765 12.6332 7.47098 12.6332H5.43763C4.0043 12.6332 2.80431 11.5665 2.57098 10.0832C2.40431 8.93318 2.87097 7.39984 4.68763 6.58318C4.27097 4.79984 5.28765 3.28318 6.63765 2.64985C8.03765 1.98318 10.0043 2.16652 11.321 3.98318C12.1376 3.53318 13.1043 3.49984 13.9043 3.94984C14.5876 4.33317 15.2043 5.14984 15.1543 6.3665C16.871 6.93317 17.5876 8.43318 17.5043 9.73318ZM12.2876 13.7665L10.671 15.3832L10.6543 9.33318C10.6543 8.96651 10.3543 8.64985 9.98764 8.64985C9.62098 8.64985 9.32098 8.96651 9.32098 9.33318L9.33764 15.3665L7.72098 13.7498C7.45431 13.4832 7.03763 13.4832 6.77097 13.7498C6.5043 14.0165 6.5043 14.4332 6.77097 14.6998L9.52097 17.4665C9.6543 17.5999 9.82098 17.6665 9.98764 17.6665C10.171 17.6665 10.3376 17.5999 10.4543 17.4665L13.2043 14.7165C13.471 14.4499 13.471 14.0332 13.2043 13.7665C12.971 13.5165 12.5543 13.5165 12.2876 13.7665Z" fill="#1757C2"/>
</svg>
