<svg width="24" height="24" viewBox="0 0 24 24" fill="none" xmlns="http://www.w3.org/2000/svg">
<path d="M19.2258 12.0697L19.2249 12.0716C18.6751 13.2729 18.0438 14.3823 17.4634 15.3459L17.4595 15.3524L17.4557 15.3589C16.8563 16.4011 16.2823 17.3336 15.5515 18.3639L15.5514 18.3639L15.5481 18.3686C15.2715 18.7651 14.9568 19.199 14.604 19.6514C13.7116 20.7589 12.5794 21.4776 11.4874 21.1809C10.8796 21.0082 10.3873 20.6403 9.92398 20.1304C9.54917 19.718 9.22805 19.2553 8.88103 18.7552C8.78328 18.6144 8.68348 18.4706 8.57984 18.3241L8.57986 18.3241L8.57589 18.3186C7.22107 16.44 5.95393 14.3926 4.9271 12.1346C4.43051 11.0387 3.98006 9.85276 3.81559 8.69093C3.65245 7.53858 3.77688 6.45979 4.37225 5.51774L4.37242 5.51747C4.69233 5.0108 5.12077 4.59192 5.62578 4.22918C5.94658 4.00995 6.31438 3.83156 6.72064 3.65675C9.48549 2.51886 12.9961 2.54183 15.9521 3.22896C16.8487 3.43952 17.6578 3.7389 18.3594 4.17202C18.804 4.44642 19.2011 4.80892 19.5316 5.24522L19.5326 5.24642C20.0299 5.9001 20.2657 6.57794 20.3341 7.28035L20.3352 7.29205L20.3367 7.30371C20.53 8.80236 19.968 10.4599 19.2258 12.0697Z" stroke="#1757C2" stroke-width="1.5"/>
</svg>
