<svg width="47" height="48" viewBox="0 0 47 48" fill="none" xmlns="http://www.w3.org/2000/svg">
<path d="M2.70226 47.8568H0V34.2816H2.70226L8.21401 42.9077V34.2816H10.9163V47.8568H8.38559L2.70226 38.9314V47.8568V47.8568Z" fill="white"/>
<path d="M12.8574 34.2816H16.1495L19.1734 39.2521L22.2081 34.2816H25.5537L20.5138 41.9991V47.8568H17.8116V41.935L12.8574 34.2816Z" fill="white"/>
<path d="M33.9499 38.1082L35.3547 35.917C35.3547 35.917 33.7462 34.1639 30.7758 34.1639C27.7626 34.1639 26.3793 36.1842 26.3793 38.183C26.3793 40.1819 28.3202 41.5181 29.6285 42.0311C31.6337 42.7366 33.0492 43.0787 33.0492 44.0834C33.0492 44.8424 32.2771 45.4196 31.1833 45.4196C29.1352 45.4196 27.516 43.7521 27.516 43.7521L26.0469 46.0289C26.0469 46.0289 27.9985 47.985 31.1404 47.985C33.5639 47.985 35.73 46.2961 35.73 43.8055C35.73 41.5608 33.8212 40.3316 32.1484 39.8505C30.7008 39.4337 29.1781 39.0275 29.1781 38.012C29.1781 37.3493 29.7357 36.7293 30.7115 36.7293C32.3522 36.7507 33.9499 38.1082 33.9499 38.1082Z" fill="white"/>
<path d="M38.1426 47.8568V34.2816H47V36.6546H40.8448V39.8827H46.1421V42.2557H40.8448V45.4838H47V47.8568H38.1426V47.8568Z" fill="white"/>
<path d="M0 31.1616V0.996948H6.04791V31.1616H0V31.1616Z" fill="white"/>
<path d="M8.21387 31.1603V0.995605H14.2618V31.1603H8.21387V31.1603Z" fill="white"/>
<path d="M16.3857 31.1603V0.995605H22.4337V31.1603H16.3857V31.1603Z" fill="white"/>
<path d="M24.6426 31.1603V0.995605H30.6905V31.1603H24.6426V31.1603Z" fill="white"/>
<path d="M32.7383 31.1603V0.995605H38.7862V31.1603H32.7383V31.1603Z" fill="white"/>
<path d="M40.9521 31.1603V0.995605H47.0001V31.1603H40.9521V31.1603Z" fill="white"/>
</svg>
