<svg width="24" height="24" viewBox="0 0 24 24" fill="none" xmlns="http://www.w3.org/2000/svg">
<path d="M20.185 11.16L17.425 13.96C17.265 14.12 17.065 14.2 16.845 14.2C16.625 14.2 16.425 14.12 16.265 13.96L13.505 11.16C13.205 10.84 13.205 10.34 13.505 10.02C13.825 9.72003 14.325 9.72003 14.645 10.02L16.185 11.58C15.985 8.68003 13.605 6.38003 10.705 6.38003C7.66498 6.38003 5.20498 8.90003 5.20498 11.98C5.20498 15.06 7.66498 17.58 10.705 17.58C11.825 17.58 12.905 17.24 13.805 16.6C14.165 16.34 14.665 16.44 14.925 16.8C15.185 17.16 15.085 17.66 14.725 17.92C13.545 18.74 12.145 19.18 10.705 19.18C6.78498 19.18 3.60498 15.96 3.60498 11.98C3.60498 8.00003 6.78498 4.78003 10.705 4.78003C14.385 4.78003 17.425 7.64003 17.765 11.3L19.025 10.02C19.345 9.70003 19.845 9.70003 20.165 10.02C20.485 10.34 20.485 10.84 20.185 11.16Z" fill="#1757C2"/>
</svg>
