<svg width="32" height="32" viewBox="0 0 32 32" fill="none" xmlns="http://www.w3.org/2000/svg">
<circle cx="16" cy="16" r="16" fill="#FDC106"/>
<path d="M16.9341 10.4319V15.0079C16.9341 15.4932 16.9101 15.9706 16.8621 16.4399C16.8141 16.9039 16.7528 17.3972 16.6781 17.9199H15.3341C15.2594 17.3972 15.1981 16.9039 15.1501 16.4399C15.1021 15.9706 15.0781 15.4932 15.0781 15.0079V10.4319H16.9341ZM14.7661 20.9119C14.7661 20.7466 14.7954 20.5892 14.8541 20.4399C14.9181 20.2906 15.0034 20.1626 15.1101 20.0559C15.2221 19.9492 15.3528 19.8639 15.5021 19.7999C15.6514 19.7359 15.8114 19.7039 15.9821 19.7039C16.1474 19.7039 16.3048 19.7359 16.4541 19.7999C16.6034 19.8639 16.7314 19.9492 16.8381 20.0559C16.9501 20.1626 17.0381 20.2906 17.1021 20.4399C17.1661 20.5892 17.1981 20.7466 17.1981 20.9119C17.1981 21.0826 17.1661 21.2426 17.1021 21.3919C17.0381 21.5359 16.9501 21.6612 16.8381 21.7679C16.7314 21.8746 16.6034 21.9572 16.4541 22.0159C16.3048 22.0799 16.1474 22.1119 15.9821 22.1119C15.8114 22.1119 15.6514 22.0799 15.5021 22.0159C15.3528 21.9572 15.2221 21.8746 15.1101 21.7679C15.0034 21.6612 14.9181 21.5359 14.8541 21.3919C14.7954 21.2426 14.7661 21.0826 14.7661 20.9119Z" fill="white"/>
</svg>
