<svg width="50" height="50" viewBox="0 0 50 50" fill="none" xmlns="http://www.w3.org/2000/svg">
<path d="M49 25C49 38.2548 38.2548 49 25 49C11.7452 49 1 38.2548 1 25C1 11.7452 11.7452 1 25 1C38.2548 1 49 11.7452 49 25Z" fill="#FFF8F2"/>
<path fill-rule="evenodd" clip-rule="evenodd" d="M25 2C12.2975 2 2 12.2975 2 25C2 37.7025 12.2975 48 25 48C37.7025 48 48 37.7025 48 25C48 12.2975 37.7025 2 25 2ZM0 25C0 11.1929 11.1929 0 25 0C38.8071 0 50 11.1929 50 25C50 38.8071 38.8071 50 25 50C11.1929 50 0 38.8071 0 25Z" fill="#FF6B01"/>
<path d="M34.1098 24.609C34.1098 26.081 33.8767 27.4205 33.4104 28.6273C32.9441 29.8342 32.2858 30.8673 31.4355 31.7267C30.5852 32.5862 29.5612 33.2536 28.3635 33.729C27.1749 34.1953 25.8584 34.4284 24.4138 34.4284H17.0767V14.7759H24.4138C25.8584 14.7759 27.1749 15.0136 28.3635 15.489C29.5612 15.9553 30.5852 16.6227 31.4355 17.4913C32.2858 18.3507 32.9441 19.3839 33.4104 20.5907C33.8767 21.7976 34.1098 23.137 34.1098 24.609ZM31.3807 24.609C31.3807 23.4022 31.2161 22.3233 30.8869 21.3725C30.5578 20.4216 30.0915 19.617 29.4881 18.9587C28.8847 18.3005 28.1532 17.7976 27.2938 17.4502C26.4344 17.1027 25.4744 16.929 24.4138 16.929H19.7372V32.2753H24.4138C25.4744 32.2753 26.4344 32.1016 27.2938 31.7542C28.1532 31.4067 28.8847 30.9084 29.4881 30.2593C30.0915 29.601 30.5578 28.7964 30.8869 27.8456C31.2161 26.8947 31.3807 25.8159 31.3807 24.609Z" fill="#FF6B01"/>
</svg>
