<svg width="50" height="50" viewBox="0 0 50 50" fill="none" xmlns="http://www.w3.org/2000/svg">
<path d="M49 25C49 38.2548 38.2548 49 25 49C11.7452 49 1 38.2548 1 25C1 11.7452 11.7452 1 25 1C38.2548 1 49 11.7452 49 25Z" fill="#FFFCF3"/>
<path fill-rule="evenodd" clip-rule="evenodd" d="M25 2C12.2975 2 2 12.2975 2 25C2 37.7025 12.2975 48 25 48C37.7025 48 48 37.7025 48 25C48 12.2975 37.7025 2 25 2ZM0 25C0 11.1929 11.1929 0 25 0C38.8071 0 50 11.1929 50 25C50 38.8071 38.8071 50 25 50C11.1929 50 0 38.8071 0 25Z" fill="#FDC106"/>
<path d="M32.1455 30.3692C32.2918 30.3692 32.4198 30.4286 32.5295 30.5475L33.5855 31.6858C32.7809 32.6184 31.8027 33.3452 30.6507 33.8664C29.5078 34.3875 28.1227 34.6481 26.4952 34.6481C25.0872 34.6481 23.8072 34.4058 22.6552 33.9212C21.5032 33.4275 20.5204 32.7418 19.7067 31.8641C18.8929 30.9772 18.2621 29.9166 17.8141 28.6824C17.3661 27.4481 17.1421 26.0904 17.1421 24.6092C17.1421 23.1281 17.3752 21.7704 17.8415 20.5361C18.3078 19.3018 18.9615 18.2412 19.8027 17.3544C20.6529 16.4675 21.6678 15.7818 22.8472 15.2972C24.0267 14.8035 25.3295 14.5566 26.7558 14.5566C28.1547 14.5566 29.3889 14.7806 30.4587 15.2286C31.5284 15.6766 32.4701 16.2846 33.2838 17.0526L32.4061 18.2732C32.3512 18.3646 32.2781 18.4424 32.1867 18.5064C32.1044 18.5612 31.9901 18.5886 31.8438 18.5886C31.6792 18.5886 31.4781 18.5018 31.2404 18.3281C31.0027 18.1452 30.6918 17.9441 30.3078 17.7246C29.9238 17.5052 29.4438 17.3086 28.8678 17.1349C28.2918 16.9521 27.5832 16.8606 26.7421 16.8606C25.7272 16.8606 24.7992 17.0389 23.9581 17.3955C23.1169 17.7429 22.3901 18.2504 21.7775 18.9178C21.1741 19.5852 20.7032 20.3989 20.3649 21.3589C20.0267 22.3189 19.8575 23.4024 19.8575 24.6092C19.8575 25.8344 20.0312 26.9269 20.3787 27.8869C20.7352 28.8469 21.2152 29.6606 21.8187 30.3281C22.4312 30.9864 23.1489 31.4892 23.9718 31.8366C24.8038 32.1841 25.6998 32.3578 26.6598 32.3578C27.2449 32.3578 27.7707 32.3258 28.2369 32.2618C28.7124 32.1886 29.1467 32.0789 29.5398 31.9326C29.9421 31.7864 30.3124 31.6035 30.6507 31.3841C30.9981 31.1555 31.3409 30.8858 31.6792 30.5749C31.8347 30.4378 31.9901 30.3692 32.1455 30.3692Z" fill="#FDC106"/>
</svg>
