<svg width="50" height="50" viewBox="0 0 50 50" fill="none" xmlns="http://www.w3.org/2000/svg">
<path d="M49 25C49 38.2548 38.2548 49 25 49C11.7452 49 1 38.2548 1 25C1 11.7452 11.7452 1 25 1C38.2548 1 49 11.7452 49 25Z" fill="#F9FCF5"/>
<path fill-rule="evenodd" clip-rule="evenodd" d="M25 2C12.2975 2 2 12.2975 2 25C2 37.7025 12.2975 48 25 48C37.7025 48 48 37.7025 48 25C48 12.2975 37.7025 2 25 2ZM0 25C0 11.1929 11.1929 0 25 0C38.8071 0 50 11.1929 50 25C50 38.8071 38.8071 50 25 50C11.1929 50 0 38.8071 0 25Z" fill="#90CA2F"/>
<path d="M25.5418 32.3164C26.3007 32.3164 26.9544 32.2296 27.503 32.0559C28.0516 31.8822 28.4996 31.6399 28.847 31.329C29.2036 31.009 29.4641 30.6342 29.6287 30.2044C29.7933 29.7656 29.8756 29.2856 29.8756 28.7645C29.8756 27.7496 29.5144 26.9496 28.7921 26.3644C28.0698 25.7702 26.9864 25.473 25.5418 25.473H21.2904V32.3164H25.5418ZM21.2904 16.8742V23.5805H24.8013C25.551 23.5805 26.2001 23.4982 26.7487 23.3336C27.3064 23.169 27.7636 22.9405 28.1201 22.6479C28.4858 22.3553 28.7556 22.0033 28.9293 21.5919C29.103 21.1713 29.1898 20.7142 29.1898 20.2205C29.1898 19.0593 28.8424 18.2136 28.1476 17.6833C27.4527 17.1439 26.3738 16.8742 24.911 16.8742H21.2904ZM24.911 14.7759C26.1178 14.7759 27.1556 14.8947 28.0241 15.1325C28.9018 15.3702 29.6196 15.7085 30.1773 16.1473C30.7441 16.5862 31.1601 17.1256 31.4253 17.7656C31.6904 18.3965 31.823 19.1096 31.823 19.905C31.823 20.3896 31.7453 20.8559 31.5898 21.3039C31.4436 21.7427 31.2196 22.1542 30.9178 22.5382C30.6161 22.9222 30.2321 23.2696 29.7658 23.5805C29.3087 23.8822 28.7693 24.129 28.1476 24.321C29.5921 24.5953 30.6756 25.1119 31.3978 25.8707C32.1293 26.6204 32.495 27.6079 32.495 28.833C32.495 29.665 32.3396 30.4239 32.0287 31.1096C31.727 31.7953 31.279 32.385 30.6847 32.8787C30.0996 33.3724 29.3773 33.7564 28.5178 34.0307C27.6584 34.2959 26.6801 34.4284 25.583 34.4284H18.6436V14.7759H24.911Z" fill="#90CA2F"/>
</svg>
