<svg width="50" height="50" viewBox="0 0 50 50" fill="none" xmlns="http://www.w3.org/2000/svg">
<path d="M49 25C49 38.2548 38.2548 49 25 49C11.7452 49 1 38.2548 1 25C1 11.7452 11.7452 1 25 1C38.2548 1 49 11.7452 49 25Z" fill="#F4FBF7"/>
<path fill-rule="evenodd" clip-rule="evenodd" d="M25 2C12.2975 2 2 12.2975 2 25C2 37.7025 12.2975 48 25 48C37.7025 48 48 37.7025 48 25C48 12.2975 37.7025 2 25 2ZM0 25C0 11.1929 11.1929 0 25 0C38.8071 0 50 11.1929 50 25C50 38.8071 38.8071 50 25 50C11.1929 50 0 38.8071 0 25Z" fill="#20AF5D"/>
<path d="M28.6653 27.1324L25.5796 19.137C25.4881 18.8993 25.3921 18.625 25.2916 18.3142C25.191 17.9942 25.095 17.6559 25.0036 17.2993C24.8116 18.0399 24.615 18.657 24.4138 19.1507L21.3281 27.1324H28.6653ZM34.2058 34.4284H32.1487C31.911 34.4284 31.719 34.369 31.5727 34.2502C31.4264 34.1313 31.3167 33.9804 31.2436 33.7976L29.4058 29.0525H20.5876L18.7498 33.7976C18.695 33.9622 18.5898 34.1084 18.4344 34.2365C18.279 34.3645 18.087 34.4284 17.8584 34.4284H15.8013L23.6596 14.7759H26.3476L34.2058 34.4284Z" fill="#20AF5D"/>
</svg>
