<svg width="50" height="50" viewBox="0 0 50 50" fill="none" xmlns="http://www.w3.org/2000/svg">
<path d="M49 25C49 38.2548 38.2548 49 25 49C11.7452 49 1 38.2548 1 25C1 11.7452 11.7452 1 25 1C38.2548 1 49 11.7452 49 25Z" fill="#FEF5F5"/>
<path fill-rule="evenodd" clip-rule="evenodd" d="M25 2C12.2975 2 2 12.2975 2 25C2 37.7025 12.2975 48 25 48C37.7025 48 48 37.7025 48 25C48 12.2975 37.7025 2 25 2ZM0 25C0 11.1929 11.1929 0 25 0C38.8071 0 50 11.1929 50 25C50 38.8071 38.8071 50 25 50C11.1929 50 0 38.8071 0 25Z" fill="#EF1700"/>
<path d="M22.4159 16.9427V23.8136H30.4937V25.9804H22.4159V34.4284H19.7554V14.7759H31.8651V16.9427H22.4159Z" fill="#EF1700"/>
</svg>
