<svg width="24" height="24" viewBox="0 0 24 24" fill="none" xmlns="http://www.w3.org/2000/svg">
<path d="M7.083 21.813C6.345 21.813 5.646 21.65 5.018 21.359L2 22L2.631 18.976C2.338 18.346 2.174 17.644 2.174 16.904C2.174 14.196 4.369 12 7.078 12C9.787 12 11.982 14.196 11.982 16.904C11.982 19.612 9.786 21.808 7.078 21.808" stroke="#1757C2" stroke-width="1.5" stroke-linecap="round" stroke-linejoin="round"/>
<path d="M6.612 12.019C6.219 11.164 6 10.227 6 9.24C6 5.223 9.598 2 14 2C18.402 2 22 5.223 22 9.24C22 11.614 20.738 13.704 18.801 15.022C18.802 15.778 18.8 16.797 18.8 17.867L15.661 16.321C15.124 16.424 14.569 16.48 14 16.48C13.289 16.48 12.602 16.388 11.944 16.23" stroke="#1757C2" stroke-width="1.5" stroke-linecap="round" stroke-linejoin="round"/>
<circle cx="4.75" cy="17" r="0.75" fill="#1757C2"/>
<circle cx="7" cy="17" r="0.75" fill="#1757C2"/>
<circle cx="9.25" cy="17" r="0.75" fill="#1757C2"/>
<path d="M13.9996 10.0439C13.9996 9.38694 14.4056 9.03094 14.8126 8.75694C15.2106 8.48894 15.6086 8.13994 15.6086 7.49694C15.6086 6.60794 14.8886 5.88794 13.9996 5.88794C13.1106 5.88794 12.3906 6.60794 12.3906 7.49694" stroke="#1757C2" stroke-width="1.5" stroke-linecap="round" stroke-linejoin="round"/>
<circle cx="14" cy="12.5" r="0.75" fill="#1757C2"/>
</svg>
