<svg width="24" height="24" viewBox="0 0 24 24" fill="none" xmlns="http://www.w3.org/2000/svg">
<g clip-path="url(#clip0)">
<path d="M14.7292 9.27059C17.124 11.6655 17.2781 15.4715 15.1862 18.0437C14.8936 18.4061 15.0557 18.2249 11.2046 22.0759C8.64074 24.6398 4.48903 24.6421 1.92384 22.0759C-0.64074 19.5123 -0.641819 15.3608 1.92384 12.7951C3.46007 11.2589 4.3536 10.3624 4.89614 9.82057C5.24596 9.47126 5.84915 9.71023 5.85642 10.2046C5.86514 10.802 5.93975 11.3967 6.07889 11.9778C6.12417 12.1666 6.06614 12.3654 5.92879 12.5027L3.77962 14.6514C2.24423 16.1877 2.23804 18.6776 3.77962 20.2201C5.31595 21.7555 7.80581 21.7617 9.34837 20.2201L12.8729 16.6951C14.4066 15.1611 14.4093 12.6633 12.8729 11.1268C12.5617 10.815 12.2001 10.5579 11.8035 10.3661C11.5868 10.2614 11.4668 10.0263 11.4959 9.78739C11.5595 9.26604 11.7911 8.76153 12.1904 8.36215L12.3955 8.15707C12.5654 7.98711 12.8257 7.94173 13.0405 8.04954C13.6498 8.35536 14.2211 8.76256 14.7292 9.27059ZM22.0762 1.9234C19.511 -0.642771 15.3592 -0.640474 12.7954 1.9234C8.94431 5.77446 9.1064 5.59325 8.81381 5.95559C6.72192 8.52776 6.87595 12.3338 9.27084 14.7287C9.77887 15.2367 10.3502 15.6439 10.9595 15.9498C11.1743 16.0576 11.4345 16.0122 11.6045 15.8422L11.8096 15.6372C12.209 15.2378 12.4405 14.7333 12.504 14.2119C12.5332 13.973 12.4132 13.7379 12.1965 13.6332C11.7998 13.4415 11.4383 13.1843 11.1271 12.8725C9.59067 11.336 9.59343 8.83817 11.1271 7.30418L14.6516 3.77918C16.1942 2.2376 18.684 2.24379 20.2204 3.77918C21.7619 5.32175 21.7558 7.81161 20.2204 9.34793L18.0712 11.4967C17.9339 11.634 17.8759 11.8327 17.9212 12.0216C18.0603 12.6027 18.1349 13.1973 18.1436 13.7948C18.1509 14.2891 18.7541 14.5281 19.1039 14.1788C19.6464 13.637 20.54 12.7405 22.0762 11.2042C24.6418 8.63853 24.6407 4.48704 22.0762 1.9234V1.9234Z" fill="#4A5078"/>
</g>
<defs>
<clipPath id="clip0">
<rect width="24" height="24" fill="white"/>
</clipPath>
</defs>
</svg>
