<svg width="24" height="24" viewBox="0 0 24 24" fill="none" xmlns="http://www.w3.org/2000/svg">
<path d="M3 11.2909C3 13.9739 4.42 16.3359 6.599 17.8249C6.598 18.6799 6.6 19.8319 6.6 21.0409L10.131 19.2939C10.735 19.4099 11.359 19.4729 12 19.4729C16.952 19.4729 21 15.8299 21 11.2909C21 6.75189 16.952 3.10889 12 3.10889C7.048 3.10889 3 6.75189 3 11.2909V11.2909Z" stroke="#1757C2" stroke-width="1.5" stroke-linecap="round" stroke-linejoin="round"/>
<path d="M11.8992 12.328V12.121C11.8992 11.443 12.3182 11.076 12.7382 10.794C13.1482 10.518 13.5592 10.158 13.5592 9.49396C13.5592 8.57696 12.8162 7.83496 11.9002 7.83496C10.9842 7.83496 10.2402 8.57596 10.2402 9.49296" stroke="#1757C2" stroke-width="1.5" stroke-linecap="round" stroke-linejoin="round"/>
<path d="M11.898 14.667C11.815 14.667 11.748 14.734 11.749 14.817C11.749 14.9 11.816 14.967 11.899 14.967C11.982 14.967 12.049 14.9 12.049 14.817C12.049 14.734 11.983 14.667 11.898 14.667" stroke="#1757C2" stroke-width="1.5" stroke-linecap="round" stroke-linejoin="round"/>
</svg>
