<svg width="278" height="32" viewBox="0 0 278 32" fill="none" xmlns="http://www.w3.org/2000/svg">
<path d="M5.5 8.5L6.96123 11.9888L10.7308 12.3004L7.86433 14.7682L8.73282 18.4496L5.5 16.486L2.26718 18.4496L3.13567 14.7682L0.269189 12.3004L4.03877 11.9888L5.5 8.5Z" fill="#FEBB01"/>
<path d="M16.5 8.5L17.9612 11.9888L21.7308 12.3004L18.8643 14.7682L19.7328 18.4496L16.5 16.486L13.2672 18.4496L14.1357 14.7682L11.2692 12.3004L15.0388 11.9888L16.5 8.5Z" fill="#FEBB01"/>
<path d="M27.5 8.5L28.9612 11.9888L32.7308 12.3004L29.8643 14.7682L30.7328 18.4496L27.5 16.486L24.2672 18.4496L25.1357 14.7682L22.2692 12.3004L26.0388 11.9888L27.5 8.5Z" fill="#FEBB01"/>
<path d="M8.00781 7.5C10.6014 3.61429 15.449 1 21.0011 1C29.2854 1 36.0011 6.8203 36.0011 14C36.0011 16.9271 34.8848 19.6283 33.0011 21.8013L36.0011 29.3125L28.5011 25.2608C26.2948 26.3669 23.7332 27 21.0011 27C15.5398 27 10.7602 24.4706 8.13694 20.6897" stroke="#4A328A" stroke-width="0.8"/>
<path d="M48.5625 25.0547C49.2188 25.0547 49.763 24.7812 50.1953 24.2344C50.6328 23.6823 50.8516 22.8594 50.8516 21.7656C50.8516 21.099 50.7552 20.526 50.5625 20.0469C50.1979 19.125 49.5312 18.6641 48.5625 18.6641C47.5885 18.6641 46.9219 19.151 46.5625 20.125C46.3698 20.6458 46.2734 21.3073 46.2734 22.1094C46.2734 22.7552 46.3698 23.3047 46.5625 23.7578C46.9271 24.6224 47.5938 25.0547 48.5625 25.0547ZM44.9219 17.6719H46.2891V18.7812C46.5703 18.401 46.8776 18.1068 47.2109 17.8984C47.6849 17.5859 48.2422 17.4297 48.8828 17.4297C49.8307 17.4297 50.6354 17.7943 51.2969 18.5234C51.9583 19.2474 52.2891 20.2839 52.2891 21.6328C52.2891 23.4557 51.8125 24.7578 50.8594 25.5391C50.2552 26.0339 49.5521 26.2812 48.75 26.2812C48.1198 26.2812 47.5911 26.1432 47.1641 25.8672C46.9141 25.7109 46.6354 25.4427 46.3281 25.0625V29.3359H44.9219V17.6719Z" fill="#4A328A"/>
<path d="M57.4219 17.4453C58.0156 17.4453 58.5911 17.5859 59.1484 17.8672C59.7057 18.1432 60.1302 18.5026 60.4219 18.9453C60.7031 19.3672 60.8906 19.8594 60.9844 20.4219C61.0677 20.8073 61.1094 21.4219 61.1094 22.2656H54.9766C55.0026 23.1146 55.2031 23.7969 55.5781 24.3125C55.9531 24.8229 56.5339 25.0781 57.3203 25.0781C58.0547 25.0781 58.6406 24.8359 59.0781 24.3516C59.3281 24.0703 59.5052 23.7448 59.6094 23.375H60.9922C60.9557 23.6823 60.8333 24.026 60.625 24.4062C60.4219 24.7812 60.1927 25.0885 59.9375 25.3281C59.5104 25.7448 58.9818 26.026 58.3516 26.1719C58.013 26.2552 57.6302 26.2969 57.2031 26.2969C56.1615 26.2969 55.2786 25.9193 54.5547 25.1641C53.8307 24.4036 53.4688 23.3411 53.4688 21.9766C53.4688 20.6328 53.8333 19.5417 54.5625 18.7031C55.2917 17.8646 56.2448 17.4453 57.4219 17.4453ZM59.6641 21.1484C59.6068 20.5391 59.474 20.0521 59.2656 19.6875C58.8802 19.0104 58.237 18.6719 57.3359 18.6719C56.6901 18.6719 56.1484 18.9062 55.7109 19.375C55.2734 19.8385 55.0417 20.4297 55.0156 21.1484H59.6641Z" fill="#4A328A"/>
<path d="M66.3281 17.4453C66.9219 17.4453 67.4974 17.5859 68.0547 17.8672C68.612 18.1432 69.0365 18.5026 69.3281 18.9453C69.6094 19.3672 69.7969 19.8594 69.8906 20.4219C69.974 20.8073 70.0156 21.4219 70.0156 22.2656H63.8828C63.9089 23.1146 64.1094 23.7969 64.4844 24.3125C64.8594 24.8229 65.4401 25.0781 66.2266 25.0781C66.9609 25.0781 67.5469 24.8359 67.9844 24.3516C68.2344 24.0703 68.4115 23.7448 68.5156 23.375H69.8984C69.862 23.6823 69.7396 24.026 69.5312 24.4062C69.3281 24.7812 69.099 25.0885 68.8438 25.3281C68.4167 25.7448 67.888 26.026 67.2578 26.1719C66.9193 26.2552 66.5365 26.2969 66.1094 26.2969C65.0677 26.2969 64.1849 25.9193 63.4609 25.1641C62.737 24.4036 62.375 23.3411 62.375 21.9766C62.375 20.6328 62.7396 19.5417 63.4688 18.7031C64.1979 17.8646 65.151 17.4453 66.3281 17.4453ZM68.5703 21.1484C68.513 20.5391 68.3802 20.0521 68.1719 19.6875C67.7865 19.0104 67.1432 18.6719 66.2422 18.6719C65.5964 18.6719 65.0547 18.9062 64.6172 19.375C64.1797 19.8385 63.9479 20.4297 63.9219 21.1484H68.5703Z" fill="#4A328A"/>
<path d="M71.7891 17.6328H73.125V19.0781C73.2344 18.7969 73.5026 18.4557 73.9297 18.0547C74.3568 17.6484 74.849 17.4453 75.4062 17.4453C75.4323 17.4453 75.4766 17.4479 75.5391 17.4531C75.6016 17.4583 75.7083 17.4688 75.8594 17.4844V18.9688C75.776 18.9531 75.6979 18.9427 75.625 18.9375C75.5573 18.9323 75.4818 18.9297 75.3984 18.9297C74.6901 18.9297 74.1458 19.1589 73.7656 19.6172C73.3854 20.0703 73.1953 20.5938 73.1953 21.1875V26H71.7891V17.6328Z" fill="#4A328A"/>
<path d="M78.296 26.0005V17.7125H79.256V26.0005H78.296ZM78.248 15.9045V14.4805H79.304V15.9045H78.248Z" fill="#FEBB01"/>
<path d="M82.6589 26.0005H81.6989V17.7125H82.6589V18.8645C83.0429 18.4591 83.4376 18.1285 83.8429 17.8725C84.2589 17.6165 84.7549 17.4885 85.3309 17.4885C85.8429 17.4885 86.3176 17.5791 86.7549 17.7605C87.1923 17.9311 87.5603 18.2351 87.8589 18.6725C88.0616 18.9711 88.1789 19.2805 88.2109 19.6005C88.2536 19.9098 88.2749 20.2351 88.2749 20.5765V26.0005H87.3149V20.5925C87.3149 19.8458 87.1496 19.2858 86.8189 18.9125C86.4883 18.5391 85.9389 18.3525 85.1709 18.3525C84.8723 18.3525 84.6003 18.4005 84.3549 18.4965C84.1096 18.5818 83.8856 18.6991 83.6829 18.8485C83.4909 18.9978 83.3256 19.1685 83.1869 19.3605C83.0483 19.5525 82.9416 19.7551 82.8669 19.9685C82.7709 20.2351 82.7123 20.4911 82.6909 20.7365C82.6696 20.9818 82.6589 21.2485 82.6589 21.5365V26.0005Z" fill="#FEBB01"/>
<path d="M91.1495 23.4085C91.2989 24.1231 91.5655 24.6298 91.9495 24.9285C92.3442 25.2165 92.9042 25.3605 93.6295 25.3605C93.9815 25.3605 94.2855 25.3178 94.5415 25.2325C94.7975 25.1471 95.0055 25.0351 95.1655 24.8965C95.3362 24.7471 95.4642 24.5818 95.5495 24.4005C95.6349 24.2191 95.6775 24.0271 95.6775 23.8245C95.6775 23.4191 95.5442 23.1205 95.2775 22.9285C95.0215 22.7258 94.6962 22.5711 94.3015 22.4645C93.9069 22.3471 93.4802 22.2511 93.0215 22.1765C92.5629 22.0911 92.1362 21.9685 91.7415 21.8085C91.3469 21.6485 91.0162 21.4191 90.7495 21.1205C90.4935 20.8218 90.3655 20.4005 90.3655 19.8565C90.3655 19.1631 90.6162 18.5978 91.1175 18.1605C91.6295 17.7125 92.3495 17.4885 93.2775 17.4885C94.1735 17.4885 94.8989 17.6911 95.4535 18.0965C96.0189 18.4911 96.3602 19.1578 96.4775 20.0965H95.5015C95.4162 19.4565 95.1709 19.0085 94.7655 18.7525C94.3709 18.4858 93.8695 18.3525 93.2615 18.3525C92.6535 18.3525 92.1895 18.4858 91.8695 18.7525C91.5495 19.0085 91.3895 19.3498 91.3895 19.7765C91.3895 20.1498 91.5175 20.4378 91.7735 20.6405C92.0402 20.8325 92.3709 20.9925 92.7655 21.1205C93.1602 21.2378 93.5869 21.3445 94.0455 21.4405C94.5042 21.5365 94.9309 21.6751 95.3255 21.8565C95.7202 22.0271 96.0455 22.2618 96.3015 22.5605C96.5682 22.8591 96.7015 23.2751 96.7015 23.8085C96.7015 24.2031 96.6162 24.5551 96.4455 24.8645C96.2749 25.1631 96.0402 25.4138 95.7415 25.6165C95.4429 25.8191 95.0855 25.9685 94.6695 26.0645C94.2642 26.1711 93.8162 26.2245 93.3255 26.2245C92.8349 26.2245 92.3975 26.1498 92.0135 26.0005C91.6402 25.8618 91.3202 25.6645 91.0535 25.4085C90.7869 25.1525 90.5789 24.8538 90.4295 24.5125C90.2802 24.1711 90.1949 23.8031 90.1735 23.4085H91.1495Z" fill="#FEBB01"/>
<path d="M98.4523 26.0005V17.7125H99.4123V26.0005H98.4523ZM98.4043 15.9045V14.4805H99.4603V15.9045H98.4043Z" fill="#FEBB01"/>
<path d="M108.255 21.8885C108.255 21.3871 108.191 20.9231 108.063 20.4965C107.946 20.0591 107.77 19.6858 107.535 19.3765C107.301 19.0565 107.007 18.8058 106.655 18.6245C106.303 18.4431 105.903 18.3525 105.455 18.3525C105.05 18.3525 104.677 18.4271 104.335 18.5765C103.994 18.7151 103.695 18.9231 103.439 19.2005C103.183 19.4778 102.981 19.8191 102.831 20.2245C102.693 20.6191 102.623 21.0778 102.623 21.6005C102.602 22.1231 102.645 22.6138 102.751 23.0725C102.858 23.5205 103.029 23.9151 103.263 24.2565C103.498 24.5978 103.797 24.8698 104.159 25.0725C104.522 25.2645 104.954 25.3605 105.455 25.3605C105.893 25.3605 106.282 25.2698 106.623 25.0885C106.975 24.8965 107.269 24.6458 107.503 24.3365C107.749 24.0165 107.935 23.6485 108.063 23.2325C108.191 22.8058 108.255 22.3578 108.255 21.8885ZM108.255 17.7125H109.215V25.2005C109.215 25.7551 109.157 26.2831 109.039 26.7845C108.933 27.2965 108.735 27.7445 108.447 28.1285C108.159 28.5125 107.765 28.8165 107.263 29.0405C106.762 29.2751 106.117 29.3925 105.327 29.3925C104.719 29.3925 104.197 29.3125 103.759 29.1525C103.322 29.0031 102.965 28.8111 102.687 28.5765C102.41 28.3418 102.197 28.0805 102.047 27.7925C101.909 27.5151 101.834 27.2538 101.823 27.0085H102.847C102.922 27.3178 103.039 27.5685 103.199 27.7605C103.359 27.9631 103.546 28.1178 103.759 28.2245C103.983 28.3418 104.229 28.4218 104.495 28.4645C104.762 28.5071 105.039 28.5285 105.327 28.5285C105.978 28.5285 106.501 28.4165 106.895 28.1925C107.29 27.9685 107.589 27.6751 107.791 27.3125C107.994 26.9498 108.122 26.5391 108.175 26.0805C108.239 25.6218 108.266 25.1525 108.255 24.6725C107.946 25.1845 107.519 25.5738 106.975 25.8405C106.442 26.0965 105.882 26.2245 105.295 26.2245C104.666 26.2245 104.117 26.1071 103.647 25.8725C103.189 25.6271 102.805 25.3071 102.495 24.9125C102.197 24.5071 101.973 24.0378 101.823 23.5045C101.674 22.9711 101.599 22.4165 101.599 21.8405C101.599 21.2325 101.669 20.6618 101.807 20.1285C101.946 19.5951 102.165 19.1365 102.463 18.7525C102.773 18.3578 103.162 18.0485 103.631 17.8245C104.101 17.6005 104.671 17.4885 105.343 17.4885C105.61 17.4885 105.882 17.5258 106.159 17.6005C106.437 17.6751 106.703 17.7818 106.959 17.9205C107.226 18.0591 107.466 18.2351 107.679 18.4485C107.903 18.6618 108.085 18.9018 108.223 19.1685H108.255V17.7125Z" fill="#FEBB01"/>
<path d="M111.636 26.0005V14.4805H112.596V18.8645C112.98 18.4591 113.375 18.1285 113.78 17.8725C114.196 17.6165 114.692 17.4885 115.268 17.4885C115.78 17.4885 116.255 17.5791 116.692 17.7605C117.13 17.9311 117.498 18.2351 117.796 18.6725C117.999 18.9711 118.116 19.2805 118.148 19.6005C118.191 19.9098 118.212 20.2351 118.212 20.5765V26.0005H117.252V20.5925C117.252 19.8458 117.087 19.2858 116.756 18.9125C116.426 18.5391 115.876 18.3525 115.108 18.3525C114.81 18.3525 114.538 18.4005 114.292 18.4965C114.047 18.5818 113.823 18.6991 113.62 18.8485C113.428 18.9978 113.263 19.1685 113.124 19.3605C112.986 19.5525 112.879 19.7551 112.804 19.9685C112.708 20.2351 112.65 20.4911 112.628 20.7365C112.607 20.9818 112.596 21.2485 112.596 21.5365V26.0005H111.636Z" fill="#FEBB01"/>
<path d="M123.439 26.0325C123.322 26.0538 123.167 26.0911 122.975 26.1445C122.783 26.1978 122.57 26.2245 122.335 26.2245C121.855 26.2245 121.487 26.1071 121.231 25.8725C120.986 25.6271 120.863 25.1951 120.863 24.5765V18.5125H119.695V17.7125H120.863V15.4085H121.823V17.7125H123.375V18.5125H121.823V24.1925C121.823 24.3951 121.828 24.5711 121.839 24.7205C121.85 24.8698 121.882 24.9925 121.935 25.0885C121.988 25.1845 122.068 25.2538 122.175 25.2965C122.292 25.3391 122.452 25.3605 122.655 25.3605C122.783 25.3605 122.911 25.3498 123.039 25.3285C123.178 25.3071 123.311 25.2805 123.439 25.2485V26.0325Z" fill="#FEBB01"/>
<path d="M125.54 23.4085C125.69 24.1231 125.956 24.6298 126.34 24.9285C126.735 25.2165 127.295 25.3605 128.02 25.3605C128.372 25.3605 128.676 25.3178 128.932 25.2325C129.188 25.1471 129.396 25.0351 129.556 24.8965C129.727 24.7471 129.855 24.5818 129.94 24.4005C130.026 24.2191 130.068 24.0271 130.068 23.8245C130.068 23.4191 129.935 23.1205 129.668 22.9285C129.412 22.7258 129.087 22.5711 128.692 22.4645C128.298 22.3471 127.871 22.2511 127.412 22.1765C126.954 22.0911 126.527 21.9685 126.132 21.8085C125.738 21.6485 125.407 21.4191 125.14 21.1205C124.884 20.8218 124.756 20.4005 124.756 19.8565C124.756 19.1631 125.007 18.5978 125.508 18.1605C126.02 17.7125 126.74 17.4885 127.668 17.4885C128.564 17.4885 129.29 17.6911 129.844 18.0965C130.41 18.4911 130.751 19.1578 130.868 20.0965H129.892C129.807 19.4565 129.562 19.0085 129.156 18.7525C128.762 18.4858 128.26 18.3525 127.652 18.3525C127.044 18.3525 126.58 18.4858 126.26 18.7525C125.94 19.0085 125.78 19.3498 125.78 19.7765C125.78 20.1498 125.908 20.4378 126.164 20.6405C126.431 20.8325 126.762 20.9925 127.156 21.1205C127.551 21.2378 127.978 21.3445 128.436 21.4405C128.895 21.5365 129.322 21.6751 129.716 21.8565C130.111 22.0271 130.436 22.2618 130.692 22.5605C130.959 22.8591 131.092 23.2751 131.092 23.8085C131.092 24.2031 131.007 24.5551 130.836 24.8645C130.666 25.1631 130.431 25.4138 130.132 25.6165C129.834 25.8191 129.476 25.9685 129.06 26.0645C128.655 26.1711 128.207 26.2245 127.716 26.2245C127.226 26.2245 126.788 26.1498 126.404 26.0005C126.031 25.8618 125.711 25.6645 125.444 25.4085C125.178 25.1525 124.97 24.8538 124.82 24.5125C124.671 24.1711 124.586 23.8031 124.564 23.4085H125.54Z" fill="#FEBB01"/>
<g clip-path="url(#clip0)">
<path d="M76.9889 6.46523L76.8966 7.5732H76.4441C75.7217 7.5732 75.3462 8.15232 75.3462 8.70731V11.2097H74.0657V6.46523H75.2785L75.3061 7.05741C75.5606 6.65132 76.0058 6.46523 76.5549 6.46523H76.9889ZM68.1118 11.2097H66.8303V8.70152C66.8303 8.17626 66.7849 7.51515 66.0461 7.51515C65.3346 7.51515 65.0511 8.02864 65.0511 8.62657V11.2097H63.77V6.46518H64.9578L64.9849 7.07173C65.2395 6.66564 65.7137 6.34945 66.4131 6.34945C67.7043 6.34945 68.1118 7.27132 68.1118 8.23068V11.2097ZM63.2112 10.1014L63.1216 11.1809C62.8143 11.2634 62.5414 11.2929 62.2113 11.2929C61.0038 11.2929 60.6536 10.7392 60.6536 9.62638V5.12727H61.935V6.46528H63.2102L63.1216 7.57311H61.935V9.53002C61.935 9.9766 62.0575 10.2178 62.5156 10.2178C62.7148 10.2178 62.9363 10.1939 63.2112 10.1014ZM60.2328 6.46523L60.1336 7.5732H59.7854C59.0644 7.5732 58.7059 8.1516 58.7059 8.70731V11.2097H57.4243V6.46523H58.6377L58.6629 7.05741C58.9188 6.65132 59.3641 6.46523 59.9139 6.46523H60.2328ZM51.6414 10.6841C50.7722 11.149 49.904 11.4173 48.7573 11.3839C46.6314 11.319 45.0977 9.99897 45.0977 7.76923C45.0977 5.54926 46.6462 4.13084 48.7583 4.09752C49.8289 4.08115 50.787 4.35284 51.5359 5.01366L50.6338 5.9262C50.1704 5.53117 49.4886 5.30027 48.6739 5.33718C47.3446 5.39906 46.5437 6.36502 46.526 7.69313C46.5086 9.13209 47.391 10.1238 48.7704 10.1599C49.4194 10.1762 49.8844 10.089 50.2867 9.90836V8.43753H48.8531L48.9499 7.23119H51.6414V10.6841ZM73.4935 9.28835H69.9802C70.0802 9.89461 70.5568 10.2593 71.1503 10.2759C71.7273 10.2915 72.0501 10.1172 72.4721 9.68984L73.3082 10.3274C72.714 11.0593 72.0009 11.3257 71.1886 11.3257C69.7599 11.3257 68.6895 10.3267 68.6895 8.83732C68.6895 7.34954 69.7546 6.3494 71.1352 6.3494C72.6569 6.3494 73.4935 7.27128 73.4935 8.90768V9.28835ZM72.2097 8.2964C72.1704 7.69704 71.7214 7.31809 71.1029 7.34221C70.4804 7.36576 70.066 7.77113 69.9802 8.2964H72.2097ZM56.6175 8.10287V11.2097H55.4877L55.4597 10.7418C55.1131 11.1712 54.5504 11.3257 53.971 11.3257C53.0985 11.3257 52.2741 10.8955 52.2569 9.89349C52.2309 8.31854 54.0294 8.20668 55.1589 8.20668H55.3846V8.14436C55.3846 7.62355 55.04 7.34225 54.3911 7.34225C53.9253 7.34225 53.4655 7.52906 53.1255 7.84784L52.3861 7.0967C53.0574 6.55247 53.7559 6.34943 54.5 6.34943C55.9696 6.34943 56.6175 7.02863 56.6175 8.10287ZM55.3846 9.14062H55.2064C54.5998 9.14191 53.5341 9.17178 53.5382 9.80618C53.5439 10.6999 55.3846 10.4159 55.3846 9.33806V9.14062Z" fill="#4A328A"/>
</g>
<path d="M133.795 23.8477V24.104H133.07V25.9995H132.774V24.104H132.049V23.8477H133.795Z" fill="#4A328A"/>
<path d="M134.056 23.8477H134.473L135.091 25.667L135.705 23.8477H136.118V25.9995H135.841V24.7295C135.841 24.6855 135.842 24.6128 135.844 24.5112C135.846 24.4097 135.847 24.3008 135.847 24.1846L135.233 25.9995H134.945L134.327 24.1846V24.2505C134.327 24.3032 134.328 24.3838 134.33 24.4922C134.333 24.5996 134.334 24.6787 134.334 24.7295V25.9995H134.056V23.8477Z" fill="#4A328A"/>
<path d="M150.74 26.2C153.48 26.2 155.38 24.54 155.38 21.8C155.38 19.24 153.74 17.54 151.22 17.54C149.82 17.54 148.84 17.98 148.2 18.64H148.16L148.2 18.46L148.72 14.3H154.78V12.8H147.36L146.58 20.06L147.98 20.32C148.6 19.42 149.64 19.04 150.92 19.04C152.7 19.04 153.7 20.02 153.72 21.88C153.74 23.64 152.6 24.7 150.78 24.7C149.04 24.7 148.24 23.76 147.82 22.36L146.26 23.18C147.02 25.08 148.38 26.2 150.74 26.2ZM159.301 23.6C158.521 23.6 158.001 24.12 158.001 24.9C158.001 25.68 158.521 26.2 159.301 26.2C160.081 26.2 160.601 25.68 160.601 24.9C160.601 24.12 160.081 23.6 159.301 23.6ZM167.685 26.2C170.685 26.2 172.605 23.82 172.605 19.4C172.605 14.98 170.685 12.6 167.685 12.6C164.685 12.6 162.765 14.98 162.765 19.4C162.765 23.82 164.685 26.2 167.685 26.2ZM167.685 24.76C165.565 24.76 164.425 22.88 164.425 19.4C164.425 15.92 165.565 14.04 167.685 14.04C169.805 14.04 170.945 15.92 170.945 19.4C170.945 22.88 169.805 24.76 167.685 24.76Z" fill="#483186"/>
<path d="M189.5 11L191.758 16.3918L197.584 16.8734L193.154 20.6872L194.496 26.3766L189.5 23.342L184.504 26.3766L185.846 20.6872L181.416 16.8734L187.242 16.3918L189.5 11Z" fill="#FEBB01"/>
<path d="M209.5 11L211.758 16.3918L217.584 16.8734L213.154 20.6872L214.496 26.3766L209.5 23.342L204.504 26.3766L205.846 20.6872L201.416 16.8734L207.242 16.3918L209.5 11Z" fill="#FEBB01"/>
<path d="M229.5 11L231.758 16.3918L237.584 16.8734L233.154 20.6872L234.496 26.3766L229.5 23.342L224.504 26.3766L225.846 20.6872L221.416 16.8734L227.242 16.3918L229.5 11Z" fill="#FEBB01"/>
<path d="M249.5 11L251.758 16.3918L257.584 16.8734L253.154 20.6872L254.496 26.3766L249.5 23.342L244.504 26.3766L245.846 20.6872L241.416 16.8734L247.242 16.3918L249.5 11Z" fill="#FEBB01"/>
<path d="M268.5 11L270.758 16.3918L276.584 16.8734L272.154 20.6872L273.496 26.3766L268.5 23.342L263.504 26.3766L264.846 20.6872L260.416 16.8734L266.242 16.3918L268.5 11Z" fill="#F9F9FB"/>
<path d="M268.5 11L270.758 16.3918L276.584 16.8734L272.154 20.6872L273.496 26.3766L268.5 23.342L263.504 26.3766L264.846 20.6872L260.416 16.8734L266.242 16.3918L268.5 11Z" fill="#FEBB01"/>
<defs>
<clipPath id="clip0">
<rect width="32.25" height="7.48339" fill="white" transform="translate(45 4)"/>
</clipPath>
</defs>
</svg>
