<svg xmlns="http://www.w3.org/2000/svg" width="672" height="400" fill="none" xmlns:v="https://vecta.io/nano"><path fill="#222e61" d="M0 0h672v400H0z"/><path fill="#0c2f69" d="M0 0h672v400H0z"/><path d="M0 0H672V48H0V0Z" fill="#081f44"/><circle cx="26" cy="24" r="6" fill="#e02424"/><circle cx="48" cy="24" r="6" fill="#ff9901"/><circle cx="70" cy="24" r="6" fill="#20af5d"/><g fill="#fff"><path opacity=".7" d="M48.947 90h-5.435v-1.047h2.2v-8.027l-2.065 1.033v-1.2l2.234-1.15h1.033v9.346h2.044V90zm-.27 29h-5.684v-.872l2.805-3.23a8.17 8.17 0 0 0 1.047-1.721 4.36 4.36 0 0 0 .403-1.794c0-.576-.176-1.03-.527-1.362s-.835-.5-1.465-.5c-.483 0-1.133.15-1.948.447l-.168-1.032a5.86 5.86 0 0 1 2.314-.469c.923 0 1.665.26 2.227.783s.85 1.21.85 2.08c0 .62-.147 1.235-.44 1.845a8.67 8.67 0 0 1-1.113 1.758l-2.65 3.018h4.35V119zm-2.043 24.448c.63.176 1.135.498 1.516.967s.57.986.57 1.567c0 .91-.354 1.673-1.062 2.293-.708.615-1.543.923-2.505.923-.82 0-1.555-.18-2.205-.542l.234-.99c.68.317 1.35.476 2.014.476.625 0 1.157-.193 1.597-.58.444-.4.666-.89.666-1.5a1.78 1.78 0 0 0-.71-1.465c-.474-.376-1.1-.564-1.882-.564h-.315v-.99h.088c.752 0 1.372-.175 1.86-.527s.732-.835.732-1.435c0-.49-.176-.87-.527-1.143s-.835-.418-1.45-.418c-.532 0-1.128.145-1.787.433l-.16-1.033c.664-.303 1.333-.454 2.007-.454.923 0 1.682.244 2.278.732s.9 1.106.9 1.868c0 .527-.183 1.02-.55 1.48s-.798.74-1.31.857v.044zm2.717 33.164h-1.274V179h-1.2v-2.388h-4.497v-.915l4.08-7.03h1.62v6.9h1.274v1.047zm-2.476-1.047v-5.713l-3.28 5.713h3.28zm-2.205 27.268c.332-.088.657-.132.974-.132.977 0 1.748.3 2.315.9s.85 1.34.85 2.234a3.24 3.24 0 0 1-.989 2.388c-.66.65-1.462.974-2.4.974-.903 0-1.66-.152-2.27-.454l.242-1.018a5.28 5.28 0 0 0 2.058.417c.63 0 1.138-.203 1.523-.608s.586-.972.586-1.7c0-.69-.183-1.218-.55-1.59s-.837-.557-1.414-.557c-.42 0-.835.08-1.245.242l-.718-.33v-4.936h4.724v1.047H44.67v3.12zm-.527 30.784c.645-.523 1.345-.784 2.102-.784.874 0 1.602.28 2.183.842.586.557.88 1.277.88 2.16 0 .972-.26 1.775-.776 2.4s-1.21.952-2.073.952c-1.104 0-1.977-.506-2.622-1.516-.645-1.016-.967-2.256-.967-3.72 0-1.563.334-2.87 1.003-3.92s1.594-1.574 2.76-1.574c.806 0 1.502.12 2.087.36l-.2 1.07c-.68-.25-1.3-.374-1.86-.374-.796 0-1.416.38-1.86 1.143s-.666 1.746-.666 2.952zm.037 1.032c0 .884.207 1.687.623 2.4s.938 1.084 1.567 1.084c.532 0 .942-.195 1.23-.586s.432-.93.432-1.62c0-.634-.16-1.135-.476-1.5s-.764-.55-1.34-.55c-.747 0-1.426.254-2.036.76zm4.9 24.873L44.985 269h-1.23l4.036-9.287h-4.84v-1.047h6.13v.856zm-2.05 33.81c.703.205 1.248.554 1.633 1.047s.586 1.07.586 1.73c0 .947-.315 1.7-.945 2.256s-1.397.835-2.314.835c-.962 0-1.753-.28-2.373-.843s-.923-1.306-.923-2.233c0-.655.2-1.23.6-1.73s.96-.852 1.677-1.062c-.57-.146-1.03-.427-1.377-.842s-.513-.89-.513-1.406c0-.665.264-1.265.79-1.802.527-.542 1.223-.813 2.087-.813.854 0 1.56.268 2.117.805s.842 1.14.842 1.8c0 .502-.176.966-.527 1.39s-.806.706-1.362.857zm-1.07-.498c.024 0 .142-.03.35-.088s.388-.13.535-.212a1.91 1.91 0 0 0 .418-.33 1.6 1.6 0 0 0 .308-.461 1.5 1.5 0 0 0 .117-.601c0-.47-.17-.857-.505-1.164a1.73 1.73 0 0 0-1.223-.469c-.464 0-.862.16-1.194.476a1.54 1.54 0 0 0-.498 1.157c0 .288.06.54.176.755a1.68 1.68 0 0 0 .447.52 2.15 2.15 0 0 0 .615.307c.234.073.386.1.454.1zm0 1.025c-1.338.39-2.007 1.126-2.007 2.205 0 .63.203 1.135.608 1.516a2.03 2.03 0 0 0 1.428.564c.566 0 1.042-.185 1.428-.557s.586-.883.586-1.523c0-.483-.134-.916-.403-1.296-.27-.386-.815-.69-1.64-.91zm2 30.176c-.596.523-1.296.784-2.102.784-.874 0-1.604-.278-2.2-.835s-.872-1.284-.872-2.168c0-.947.278-1.743.835-2.388s1.284-.974 2.168-.974c1.08 0 1.92.493 2.527 1.48s.908 2.238.908 3.757-.356 2.815-1.07 3.89-1.658 1.604-2.85 1.604c-.8 0-1.494-.122-2.08-.366l.2-1.062c.674.25 1.294.373 1.86.373.8 0 1.457-.393 1.94-1.18s.732-1.758.732-2.915zM47.93 323c0-.927-.188-1.74-.564-2.44s-.87-1.054-1.48-1.054c-.552 0-.994.205-1.326.615s-.49.935-.49 1.59c0 .6.166 1.094.498 1.48.337.38.776.57 1.318.57a2.95 2.95 0 0 0 1.948-.688l.095-.074zm-7.49 35h-5.435v-1.047h2.2v-8.028l-2.065 1.033v-1.2l2.234-1.15h1.033v9.346h2.043V358zm5.535-10.532c1.094 0 1.934.47 2.52 1.413s.886 2.256.886 3.955c0 1.646-.286 2.952-.857 3.92s-1.42 1.443-2.55 1.443a2.81 2.81 0 0 1-2.52-1.406c-.59-.938-.886-2.256-.886-3.956 0-1.65.286-2.956.857-3.918s1.426-1.45 2.55-1.45zm0 9.675c.723 0 1.257-.342 1.604-1.025.352-.69.527-1.783.527-3.282s-.176-2.595-.527-3.274c-.347-.683-.88-1.025-1.604-1.025-.713 0-1.245.35-1.597 1.047s-.527 1.783-.527 3.252c0 1.5.173 2.58.52 3.274s.886 1.033 1.604 1.033zm-.03-5.405a1.04 1.04 0 0 1 .776.322c.215.2.322.47.322.776a1.16 1.16 0 0 1-.322.821c-.215.224-.474.337-.776.337a1.03 1.03 0 0 1-.769-.337c-.2-.23-.315-.503-.315-.82 0-.312.102-.573.308-.783s.47-.315.776-.315z"/><path d="M88.702 92.505h-.58c-.703 0-1.21-.2-1.523-.57s-.46-1.077-.46-2.102v-.703c0-.913-.12-1.548-.36-1.904s-.625-.542-1.157-.542v-1.194c.532 0 .918-.178 1.157-.535s.36-.998.36-1.912v-.7c0-1.02.154-1.72.46-2.095s.82-.57 1.523-.57h.58v.96h-.22c-.454 0-.77.098-.952.293s-.264.662-.264 1.4v.47c0 1.01-.117 1.755-.352 2.234s-.632.833-1.194 1.062c.562.234.96.59 1.194 1.07s.352 1.223.352 2.234v.47c0 .737.088 1.204.264 1.4s.498.293.952.293h.22v.96zm-.315 17.918l-.264 2.05h-.586l-.27-2.05v-1.757h1.12v1.757zm-2.65 0l-.27 2.05h-.586l-.27-2.05v-1.757h1.128v1.757zm7.49 1.934c.254-.352.596-.635 1.025-.85a3.05 3.05 0 0 1 1.37-.322c.89 0 1.58.357 2.073 1.07.498.713.747 1.65.747 2.813 0 1.177-.264 2.16-.79 2.952-.527.786-1.233 1.18-2.117 1.18a2.66 2.66 0 0 1-1.333-.352c-.4-.24-.735-.554-.974-.945v1.1h-1.143v-10.334h1.143v3.69zm0 1.135v3.172c.215.43.505.788.872 1.076s.745.432 1.135.432c.615 0 1.103-.293 1.465-.88s.55-1.306.55-2.16c0-.88-.173-1.592-.52-2.14s-.83-.82-1.45-.82c-.806 0-1.49.44-2.05 1.318zm13.365-1.92l-.462 1.1c-.503-.22-.937-.33-1.303-.33-.337 0-.667.098-.99.293s-.62.467-.894.828c-.268.356-.402.557-.402.6V119h-1.136v-7.632h1.136v1.546c.6-1.153 1.4-1.73 2.373-1.73.576 0 1.135.13 1.677.388zm8.618 3.648h-5.236c0 .864.25 1.577.747 2.138s1.118.843 1.845.843c.694 0 1.41-.125 2.146-.374l.198.916c-.674.302-1.46.454-2.358.454-1.133 0-2.046-.364-2.74-1.092s-1.04-1.71-1.04-2.944c0-1.21.31-2.175.93-2.893.625-.723 1.43-1.084 2.417-1.084a2.82 2.82 0 0 1 2.204 1.003c.59.67.886 1.56.886 2.674v.36zm-1.245-.93c0-.596-.185-1.097-.556-1.502s-.786-.615-1.245-.615c-.59 0-1.082.195-1.473.586-.385.4-.6.9-.644 1.53h3.918zm9.718 4.71h-1.136c-.092-.308-.14-.718-.14-1.23-.65.952-1.533 1.428-2.65 1.428-.567 0-1.067-.2-1.502-.6-.43-.405-.644-.925-.644-1.56 0-.376.076-.708.227-.996a1.96 1.96 0 0 1 .666-.725c.293-.2.65-.357 1.07-.47a7.85 7.85 0 0 1 1.494-.242l1.282-.102v-.366c0-1.31-.61-1.963-1.83-1.963-.29 0-.655.063-1.1.2-.44.122-.818.27-1.135.44l-.3-.82c1.04-.532 2.007-.798 2.9-.798 1.738 0 2.607.92 2.607 2.76v3.282c0 .664.064 1.254.19 1.772zm-1.333-2.263v-1.384l-2.124.263c-.38.078-.713.227-.996.447s-.418.518-.418.894c0 .34.12.617.36.827s.544.315.915.315c.406 0 .81-.12 1.21-.36s.752-.578 1.055-1.003zm9.622 2.007c-.664.302-1.394.454-2.2.454-1.2 0-2.16-.364-2.88-1.092s-1.07-1.704-1.07-2.915.36-2.18 1.077-2.907c.722-.733 1.67-1.1 2.84-1.1.767 0 1.497.134 2.2.403l-.3.945c-.693-.24-1.318-.36-1.875-.36-.84 0-1.506.27-2 .813s-.733 1.277-.733 2.204c0 .85.254 1.565.762 2.146s1.17.865 1.985.865c.644 0 1.308-.125 1.992-.374l.198.916zm8.538.256h-1.143v-4.893c0-.678-.1-1.17-.33-1.472s-.555-.46-1.018-.46c-.7 0-1.448.434-2.25 1.304V119h-1.143v-10.334h1.143v3.823c.82-.87 1.685-1.304 2.593-1.304 1.43 0 2.146.864 2.146 2.593V119zm8.736-3.78h-5.237c0 .864.25 1.577.747 2.138.503.562 1.118.843 1.846.843.693 0 1.408-.125 2.146-.374l.197.916c-.673.302-1.46.454-2.358.454-1.133 0-2.046-.364-2.74-1.092s-1.04-1.71-1.04-2.944c0-1.21.3-2.175.93-2.893.625-.723 1.43-1.084 2.417-1.084a2.82 2.82 0 0 1 2.204 1.003c.59.67.887 1.56.887 2.674v.36zm-1.245-.93c0-.596-.186-1.097-.557-1.502s-.786-.615-1.245-.615c-.59 0-1.082.195-1.472.586s-.6.9-.645 1.53H148zm9.497 4.71h-1.143v-1.1c-.234.376-.57.686-1 .93s-.894.366-1.377.366c-.874 0-1.565-.388-2.073-1.165s-.762-1.77-.762-2.966c0-1.118.264-2.044.79-2.776.533-.737 1.236-1.106 2.1-1.106.962 0 1.736.39 2.32 1.172v-3.69h1.143V119zm-1.143-2.336v-3.172c-.546-.88-1.206-1.318-1.977-1.318-.63 0-1.128.28-1.494.842s-.55 1.262-.55 2.117c0 .88.17 1.606.513 2.182s.82.857 1.42.857c.288 0 .58-.078.872-.234s.57-.39.827-.703.388-.503.388-.57zm11.227 5.603h-9.002v-.96h9.002v.96zm4.502-13.785c.215 0 .398.08.55.235s.227.334.227.55a.76.76 0 0 1-.227.564.73.73 0 0 1-.549.227c-.2 0-.378-.078-.535-.234a.79.79 0 0 1-.227-.557c0-.2.076-.393.227-.55a.74.74 0 0 1 .535-.235zM172.64 119h-1.143v-6.643h-2.248v-.99h3.39V119zm10.383 0h-1.142v-1.1c-.235.376-.57.686-1.01.93-.434.244-.893.366-1.377.366-.874 0-1.565-.388-2.073-1.165s-.76-1.77-.76-2.966c0-1.118.263-2.044.79-2.776s1.235-1.106 2.11-1.106a2.76 2.76 0 0 1 2.322 1.172v-3.69h1.142V119zm-1.142-2.336v-3.172c-.547-.88-1.206-1.318-1.978-1.318-.63 0-1.128.28-1.494.842s-.55 1.262-.55 2.117c0 .88.17 1.606.513 2.182s.82.857 1.42.857c.29 0 .58-.078.872-.234s.57-.39.828-.703.388-.503.388-.57zm9.908-1.443h-5.237c0 .864.25 1.577.747 2.138s1.118.843 1.846.843c.693 0 1.408-.125 2.146-.374l.197.916c-.674.302-1.46.454-2.358.454-1.133 0-2.046-.364-2.74-1.092s-1.04-1.71-1.04-2.944c0-1.21.3-2.175.93-2.893.625-.723 1.43-1.084 2.417-1.084a2.82 2.82 0 0 1 2.204 1.003c.59.67.887 1.56.887 2.674v.36zm-1.246-.93c0-.596-.185-1.097-.556-1.502s-.786-.615-1.245-.615c-.59 0-1.082.195-1.472.586s-.6.9-.645 1.53h3.918zm9.527 4.71h-1.142v-4.893c0-.678-.1-1.17-.33-1.472s-.554-.46-1.018-.46c-.698 0-1.448.434-2.248 1.304V119h-1.143v-7.632h1.143v1.12c.82-.87 1.684-1.304 2.592-1.304 1.43 0 2.146.864 2.146 2.593V119zm8.582-.344c-.766.35-1.52.527-2.263.527-1.362 0-2.043-.72-2.043-2.16v-4.665h-1.465v-.99h1.465v-2.087h1.113v2.087h2.593v.99h-2.593v4.365c0 .464.103.825.308 1.084s.483.38.835.38c.625 0 1.242-.14 1.853-.417l.197.886zm5.975-10.174c.215 0 .398.08.55.235s.227.334.227.55a.76.76 0 0 1-.227.564.73.73 0 0 1-.549.227c-.2 0-.378-.078-.535-.234a.79.79 0 0 1-.227-.557c0-.2.076-.393.227-.55a.74.74 0 0 1 .535-.235zm.557 10.518h-1.143v-6.643h-2.25v-.99h3.392V119zm10.486-.344c-.767.35-1.52.527-2.263.527-1.363 0-2.044-.72-2.044-2.16v-4.665h-1.465v-.99h1.465v-2.087h1.114v2.087h2.592v.99h-2.592v4.365c0 .464.102.825.307 1.084s.484.38.835.38a4.43 4.43 0 0 0 1.853-.417l.198.886zm5.975-10.174a.74.74 0 0 1 .549.235.75.75 0 0 1 .227.549c0 .225-.076.413-.227.564s-.33.227-.55.227c-.2 0-.38-.078-.535-.234s-.227-.347-.227-.557a.76.76 0 0 1 .227-.549c.156-.156.334-.235.535-.235zM232.2 119h-1.142v-6.643h-2.25v-.99h3.39V119zm10.64-3.78h-5.237c0 .864.25 1.577.748 2.138a2.38 2.38 0 0 0 1.845.843c.694 0 1.41-.125 2.146-.374l.198.916c-.674.302-1.46.454-2.358.454-1.133 0-2.046-.364-2.74-1.092s-1.04-1.71-1.04-2.944c0-1.21.3-2.175.93-2.893.625-.723 1.43-1.084 2.417-1.084.88 0 1.614.335 2.205 1.003s.886 1.56.886 2.674v.36zm-1.245-.93c0-.596-.185-1.097-.556-1.502s-.787-.615-1.246-.615c-.6 0-1.08.195-1.472.586-.385.4-.6.9-.644 1.53h3.918zm8.73-1.832c-.64-.21-1.243-.314-1.81-.314-.62 0-1.11.105-1.473.314s-.542.48-.542.828c0 .22.083.413.25.58s.5.312.997.454l1.09.315c.503.14.913.312 1.23.512a1.96 1.96 0 0 1 .711.718c.16.28.242.603.242.974a2 2 0 0 1-.916 1.729c-.6.42-1.387.63-2.33.63s-1.712-.142-2.322-.425l.22-.99c.64.303 1.326.454 2.058.454.635 0 1.15-.117 1.545-.35.4-.24.6-.554.6-.945 0-.264-.1-.498-.3-.703-.196-.2-.66-.427-1.392-.652l-1.304-.403a2.8 2.8 0 0 1-.776-.403c-.24-.176-.422-.385-.55-.63-.122-.244-.183-.517-.183-.82 0-.66.288-1.182.864-1.567s1.34-.58 2.292-.58c.616 0 1.3.105 2.05.315l-.256.96zm8.237-2.036l-.263 2.05h-.586l-.27-2.05v-1.757h1.12v1.757zm-2.65 0l-.27 2.05h-.586l-.27-2.05v-1.757h1.128v1.757zm9.212.835c.25 0 .46.086.63.257a.82.82 0 0 1 .256.615c0 .244-.085.452-.256.622a.87.87 0 0 1-.63.249.86.86 0 0 1-.623-.249c-.166-.17-.25-.378-.25-.622s.083-.45.25-.615a.85.85 0 0 1 .623-.257zm0 6.123a.87.87 0 0 1 .63.249c.17.166.256.374.256.623a.82.82 0 0 1-.256.615.87.87 0 0 1-.63.249.86.86 0 0 1-.623-.249c-.166-.166-.25-.37-.25-.615s.083-.457.25-.623a.86.86 0 0 1 .623-.249zm19.252 3.597h-2.85v-12.312h2.85v1.003h-1.707v10.32h1.707v.99zM88.702 151.505h-.58c-.703 0-1.21-.19-1.523-.57s-.46-1.077-.46-2.102v-.704c0-.913-.12-1.547-.36-1.904s-.625-.542-1.157-.542v-1.194c.532 0 .918-.178 1.157-.534.24-.362.36-1 .36-1.912v-.7c0-1.02.154-1.72.46-2.095s.82-.57 1.523-.57h.58v.96h-.22c-.454 0-.77.098-.952.293s-.264.662-.264 1.4v.47c0 1-.117 1.755-.352 2.234s-.632.832-1.194 1.062c.562.234.96.6 1.194 1.07s.352 1.223.352 2.234v.47c0 .737.088 1.203.264 1.398s.498.293.952.293h.22v.96zm8.15-5.823c-.527 0-.913.18-1.157.542-.24.357-.36.99-.36 1.904v.704c0 1.025-.154 1.726-.46 2.102s-.813.57-1.516.57h-.586v-.96H93c.454 0 .77-.097.945-.293.18-.195.27-.66.27-1.398v-.47c0-1.01.117-1.756.352-2.234s.632-.835 1.194-1.07c-.562-.23-.96-.584-1.194-1.062s-.352-1.224-.352-2.234v-.47c0-.737-.1-1.204-.27-1.4-.176-.195-.49-.293-.945-.293h-.227v-.96h.586c.703 0 1.21.2 1.516.57s.46 1.074.46 2.095v.7c0 .825.107 1.44.322 1.846.215.4.613.6 1.194.6v1.194zm-9.886 35.266h-2.922v-.99h1.78v-10.305h-1.78v-.988h2.922v12.282zm8.055-1.75c-.254-.03-.464-.135-.63-.315s-.25-.386-.25-.615c0-.25.08-.46.242-.63a.8.8 0 0 1 .608-.257c.273 0 .5.113.7.337s.3.486.3.8c0 .957-.532 1.704-1.597 2.24l-.278-.528c.596-.292.894-.637.894-1.032zm-6.634 21.225l-.264 2.05h-.586l-.27-2.05v-1.757h1.12v1.757zm-2.65 0l-.27 2.05h-.586l-.27-2.05v-1.757h1.128v1.757zm7.49 1.934c.254-.352.596-.635 1.025-.85a3.05 3.05 0 0 1 1.37-.322c.89 0 1.58.357 2.073 1.07.498.713.747 1.65.747 2.813 0 1.177-.264 2.16-.79 2.952s-1.233 1.18-2.117 1.18a2.66 2.66 0 0 1-1.333-.352c-.4-.24-.735-.554-.974-.945v1.1h-1.143v-10.334h1.143v3.69zm0 1.135v3.172c.215.43.505.788.872 1.076s.745.432 1.135.432c.615 0 1.103-.293 1.465-.88s.55-1.306.55-2.16c0-.88-.173-1.592-.52-2.14s-.83-.82-1.45-.82c-.806 0-1.49.44-2.05 1.318zm13.365-1.92l-.462 1.1c-.503-.22-.937-.33-1.303-.33-.337 0-.667.098-.99.293s-.62.467-.894.828c-.268.356-.402.557-.402.6V209h-1.136v-7.632h1.136v1.546c.6-1.153 1.4-1.73 2.373-1.73.576 0 1.135.13 1.677.388zm8.618 3.648h-5.236c0 .864.25 1.577.747 2.138s1.118.843 1.845.843c.694 0 1.41-.125 2.146-.374l.198.916c-.674.302-1.46.454-2.358.454-1.133 0-2.046-.364-2.74-1.092s-1.04-1.71-1.04-2.944c0-1.21.31-2.175.93-2.893.625-.723 1.43-1.084 2.417-1.084a2.82 2.82 0 0 1 2.204 1.003c.59.67.886 1.56.886 2.674v.36zm-1.245-.93c0-.596-.185-1.097-.556-1.502s-.786-.615-1.245-.615c-.59 0-1.082.195-1.473.586-.385.4-.6.9-.644 1.53h3.918zm9.718 4.71h-1.136c-.092-.308-.14-.718-.14-1.23-.65.952-1.533 1.428-2.65 1.428-.567 0-1.067-.2-1.502-.6-.43-.405-.644-.925-.644-1.56 0-.376.076-.708.227-.996a1.96 1.96 0 0 1 .666-.725c.293-.2.65-.357 1.07-.47a7.85 7.85 0 0 1 1.494-.242l1.282-.102v-.366c0-1.31-.61-1.963-1.83-1.963-.29 0-.655.063-1.1.2-.44.122-.818.27-1.135.44l-.3-.82c1.04-.532 2.007-.798 2.9-.798 1.738 0 2.607.92 2.607 2.76v3.282c0 .664.064 1.254.19 1.772zm-1.333-2.263v-1.384l-2.124.263c-.38.078-.713.227-.996.447s-.418.518-.418.894c0 .34.12.617.36.827s.544.315.915.315c.406 0 .81-.12 1.21-.36s.752-.578 1.055-1.003zm9.622 2.007c-.664.302-1.394.454-2.2.454-1.2 0-2.16-.364-2.88-1.092s-1.07-1.704-1.07-2.915.36-2.18 1.077-2.907c.722-.733 1.67-1.1 2.84-1.1.767 0 1.497.134 2.2.403l-.3.945c-.693-.24-1.318-.36-1.875-.36-.84 0-1.506.27-2 .813s-.733 1.277-.733 2.204c0 .85.254 1.565.762 2.146s1.17.865 1.985.865c.644 0 1.308-.125 1.992-.374l.198.916zm8.538.256h-1.143v-4.893c0-.678-.1-1.17-.33-1.472s-.555-.46-1.018-.46c-.7 0-1.448.434-2.25 1.304V209h-1.143v-10.334h1.143v3.823c.82-.87 1.685-1.304 2.593-1.304 1.43 0 2.146.864 2.146 2.593V209zm8.736-3.78h-5.237c0 .864.25 1.577.747 2.138.503.562 1.118.843 1.846.843.693 0 1.408-.125 2.146-.374l.197.916c-.673.302-1.46.454-2.358.454-1.133 0-2.046-.364-2.74-1.092s-1.04-1.71-1.04-2.944c0-1.21.3-2.175.93-2.893.625-.723 1.43-1.084 2.417-1.084a2.82 2.82 0 0 1 2.204 1.003c.59.67.887 1.56.887 2.674v.36zm-1.245-.93c0-.596-.186-1.097-.557-1.502s-.786-.615-1.245-.615c-.59 0-1.082.195-1.472.586s-.6.9-.645 1.53H148zm8.728-1.832c-.64-.21-1.243-.314-1.81-.314-.62 0-1.11.105-1.472.314s-.542.48-.542.828c0 .22.083.413.25.58.166.16.498.312.996.454l1.09.315c.503.14.913.312 1.23.512s.554.435.7.718c.16.28.242.603.242.974 0 .728-.305 1.304-.916 1.73-.6.42-1.386.63-2.33.63-.937 0-1.71-.142-2.322-.425l.22-.99c.64.303 1.326.454 2.058.454.635 0 1.15-.117 1.546-.35.4-.24.6-.554.6-.945 0-.264-.1-.498-.3-.703-.195-.2-.66-.427-1.392-.652l-1.303-.403c-.28-.093-.537-.227-.777-.403s-.422-.385-.55-.63-.183-.517-.183-.82c0-.66.288-1.182.864-1.567s1.34-.58 2.293-.58c.615 0 1.298.105 2.05.315l-.256.96zm8.238-2.036l-.264 2.05h-.586l-.27-2.05v-1.757h1.12v1.757zm-2.652 0l-.27 2.05h-.585l-.27-2.05v-1.757h1.127v1.757zm9.212.835c.25 0 .46.086.63.257s.257.37.257.615-.086.452-.257.622a.87.87 0 0 1-.63.249.86.86 0 0 1-.622-.249c-.166-.17-.25-.378-.25-.622s.083-.45.25-.615.378-.257.622-.257zm0 6.123a.87.87 0 0 1 .63.249c.17.166.257.374.257.623s-.086.45-.257.615a.87.87 0 0 1-.63.249.86.86 0 0 1-.622-.249c-.166-.166-.25-.37-.25-.615s.083-.457.25-.623a.86.86 0 0 1 .622-.249zm19.252 3.597h-2.85v-12.312h2.85v1.003h-1.707v10.32h1.707v.99zM88.702 241.505h-.58c-.703 0-1.21-.19-1.523-.57s-.46-1.077-.46-2.102v-.704c0-.913-.12-1.547-.36-1.904s-.625-.542-1.157-.542v-1.194c.532 0 .918-.178 1.157-.534.24-.362.36-1 .36-1.912v-.7c0-1.02.154-1.72.46-2.095s.82-.57 1.523-.57h.58v.96h-.22c-.454 0-.77.098-.952.293s-.264.662-.264 1.4v.47c0 1-.117 1.755-.352 2.234s-.632.832-1.194 1.062c.562.234.96.6 1.194 1.07s.352 1.223.352 2.234v.47c0 .737.088 1.203.264 1.398s.498.293.952.293h.22v.96zm8.15-5.823c-.527 0-.913.18-1.157.542-.24.357-.36.99-.36 1.904v.704c0 1.025-.154 1.726-.46 2.102s-.813.57-1.516.57h-.586v-.96H93c.454 0 .77-.097.945-.293.18-.195.27-.66.27-1.398v-.47c0-1.01.117-1.756.352-2.234s.632-.835 1.194-1.07c-.562-.23-.96-.584-1.194-1.062s-.352-1.224-.352-2.234v-.47c0-.737-.1-1.204-.27-1.4-.176-.195-.49-.293-.945-.293h-.227v-.96h.586c.703 0 1.21.2 1.516.57s.46 1.074.46 2.095v.7c0 .825.107 1.44.322 1.846.215.4.613.6 1.194.6v1.194zm-9.886 35.266h-2.922v-.99h1.78v-10.305h-1.78v-.988h2.922v12.282zm8.055-1.75c-.254-.03-.464-.135-.63-.315s-.25-.386-.25-.615c0-.25.08-.46.242-.63a.8.8 0 0 1 .608-.257c.273 0 .5.113.7.337s.3.486.3.8c0 .957-.532 1.704-1.597 2.24l-.278-.528c.596-.292.894-.637.894-1.032zm-6.634 21.225l-.264 2.05h-.586l-.27-2.05v-1.757h1.12v1.757zm-2.65 0l-.27 2.05h-.586l-.27-2.05v-1.757h1.128v1.757zM97.965 299h-1.142v-4.893c0-.678-.1-1.17-.33-1.472s-.554-.46-1.018-.46c-.698 0-1.448.434-2.248 1.304V299h-1.143v-7.632h1.143v1.12c.82-.87 1.685-1.304 2.593-1.304 1.43 0 2.146.864 2.146 2.593V299zm8.736-3.78h-5.237c0 .864.25 1.577.747 2.138s1.118.843 1.846.843c.693 0 1.408-.125 2.146-.374l.197.916c-.673.302-1.46.454-2.358.454-1.133 0-2.046-.364-2.74-1.092s-1.04-1.71-1.04-2.944c0-1.21.3-2.175.93-2.893s1.43-1.084 2.417-1.084a2.82 2.82 0 0 1 2.204 1.003c.59.67.887 1.56.887 2.674v.36zm-1.245-.93c0-.596-.186-1.097-.557-1.502s-.786-.615-1.245-.615c-.59 0-1.082.195-1.472.586s-.6.9-.645 1.53h3.92zm9.797 4.71h-1.29l-2.043-2.988-2.117 2.988h-1.216l2.718-3.823-2.718-3.81h1.31l2.05 2.966 2.088-2.966h1.215l-2.702 3.765 2.702 3.867zm8.31-.344c-.766.35-1.52.527-2.263.527-1.362 0-2.043-.72-2.043-2.16v-4.665h-1.465v-.99h1.465v-2.087h1.113v2.087h2.593v.99h-2.593v4.365c0 .464.103.825.308 1.084s.483.38.835.38c.625 0 1.242-.14 1.853-.417l.197.886zm9.98 3.61h-9v-.96h9v.96zm2.225-9.9a2.76 2.76 0 0 1 1.025-.85c.435-.215.892-.322 1.37-.322.88 0 1.567.364 2.065 1.09.503.723.755 1.665.755 2.828 0 1.17-.264 2.148-.79 2.93s-1.228 1.165-2.117 1.165c-.473 0-.918-.117-1.333-.352s-.735-.554-.974-.945v4.117h-1.143v-10.65h1.143v.99zm0 1.135v3.172a3.13 3.13 0 0 0 .872 1.076c.366.288.744.432 1.135.432.615 0 1.103-.288 1.465-.864s.55-1.29.55-2.146c0-.88-.173-1.597-.52-2.153s-.83-.835-1.45-.835c-.806 0-1.49.44-2.05 1.318zM149.208 299h-1.135c-.093-.308-.14-.718-.14-1.23-.65.952-1.534 1.428-2.652 1.428-.566 0-1.067-.2-1.5-.6s-.645-.925-.645-1.56c0-.376.076-.708.227-.996a1.97 1.97 0 0 1 .667-.725c.293-.2.65-.357 1.07-.47a7.85 7.85 0 0 1 1.494-.242l1.282-.102v-.366c0-1.31-.6-1.963-1.83-1.963-.288 0-.654.063-1.1.2a5.5 5.5 0 0 0-1.135.44l-.3-.82c1.04-.532 2.007-.798 2.9-.798 1.738 0 2.608.92 2.608 2.76v3.282c0 .664.063 1.254.2 1.772zm-1.333-2.263v-1.384l-2.124.263c-.38.078-.713.227-.996.447a1.08 1.08 0 0 0-.418.894c0 .34.12.617.36.827s.545.315.916.315c.405 0 .808-.12 1.208-.36a3.59 3.59 0 0 0 1.055-1.003zm5.887-.615c-.713.346-1.07.65-1.07.915 0 .142.08.26.242.36s.39.146.674.146l2.57-.073c.6 0 1.084.15 1.42.447s.512.72.512 1.267c0 .864-.385 1.553-1.157 2.066s-1.672.77-2.703.77c-.844 0-1.535-.18-2.072-.535s-.806-.808-.806-1.37c0-.6.415-1.125 1.245-1.545-.688-.322-1.033-.718-1.033-1.187 0-.537.445-1.037 1.333-1.5-.4-.25-.725-.57-.944-.967s-.33-.813-.33-1.252c0-.718.244-1.307.732-1.765.49-.464 1.1-.696 1.83-.696.528 0 1.004.1 1.43.33l2.263-.344v1.113h-1.458c.22.386.33.84.33 1.363 0 .693-.242 1.28-.725 1.757s-1.096.718-1.84.718a7.01 7.01 0 0 1-.446-.014zm.446-.872c.42 0 .762-.144 1.026-.432s.403-.674.403-1.143c0-.493-.13-.88-.388-1.157s-.606-.417-1.04-.417c-.405 0-.747.146-1.025.44-.273.288-.4.667-.4 1.135 0 .46.137.838.4 1.136.278.293.62.44 1.025.44zm.044 5.88c.752 0 1.392-.168 1.92-.505.533-.332.8-.745.8-1.238 0-.508-.376-.762-1.128-.762l-1.29.044-.908.03c-.108 0-.276.088-.506.263a2.52 2.52 0 0 0-.52.528 1.01 1.01 0 0 0-.176.556c0 .298.166.552.498.762s.77.322 1.31.322zm12-5.9h-5.237c0 .864.25 1.577.747 2.138.503.562 1.12.843 1.846.843.694 0 1.41-.125 2.146-.374l.198.916c-.674.302-1.46.454-2.358.454-1.133 0-2.046-.364-2.74-1.092s-1.04-1.71-1.04-2.944c0-1.21.3-2.175.93-2.893s1.43-1.084 2.417-1.084c.88 0 1.614.335 2.205 1.003s.886 1.56.886 2.674v.36zm-1.245-.93c0-.596-.185-1.097-.557-1.502s-.786-.615-1.245-.615c-.6 0-1.08.195-1.472.586s-.6.9-.644 1.53h3.918zm11.072 7.976h-9v-.96h9v.96zm7.037-3.61c-.767.35-1.52.527-2.263.527-1.363 0-2.044-.72-2.044-2.16v-4.665h-1.465v-.99h1.465v-2.087h1.114v2.087h2.592v.99h-2.592v4.365c0 .464.102.825.307 1.084s.484.38.835.38a4.43 4.43 0 0 0 1.853-.417l.198.886zm5.477-7.47c1.05 0 1.884.366 2.504 1.1s.93 1.696.93 2.893c0 1.206-.3 2.177-.93 2.915s-1.455 1.106-2.504 1.106c-1.055 0-1.893-.366-2.513-1.1s-.923-1.71-.923-2.922c0-1.2.31-2.166.93-2.893.62-.733 1.455-1.1 2.505-1.1zm0 7.017c.693 0 1.24-.293 1.64-.88s.6-1.297.6-2.132c0-.88-.198-1.6-.594-2.168s-.944-.85-1.647-.85a1.89 1.89 0 0 0-1.648.842c-.39.557-.586 1.282-.586 2.175 0 .85.197 1.565.593 2.146a1.88 1.88 0 0 0 1.641.865zm12.214.798h-1.5l-3.237-3.794-.747.645V299h-1.143v-10.334h1.143v5.925l3.58-3.223h1.458l-3.48 3.12 3.925 4.512zm7.99-3.78h-5.237c0 .864.25 1.577.747 2.138s1.12.843 1.846.843c.693 0 1.41-.125 2.146-.374l.198.916c-.674.302-1.46.454-2.36.454-1.132 0-2.045-.364-2.74-1.092s-1.04-1.71-1.04-2.944c0-1.21.3-2.175.93-2.893s1.43-1.084 2.417-1.084c.88 0 1.614.335 2.205 1.003s.886 1.56.886 2.674v.36zm-1.245-.93c0-.596-.186-1.097-.557-1.502s-.786-.615-1.245-.615c-.59 0-1.08.195-1.472.586s-.6.9-.644 1.53h3.918zm9.527 4.71h-1.143v-4.893c0-.678-.1-1.17-.33-1.472s-.554-.46-1.018-.46c-.7 0-1.448.434-2.25 1.304V299h-1.142v-7.632h1.142v1.12c.82-.87 1.685-1.304 2.593-1.304 1.43 0 2.146.864 2.146 2.593V299zm7.44-8.577l-.263 2.05h-.586l-.27-2.05v-1.757h1.12v1.757zm-2.65 0l-.27 2.05h-.586l-.27-2.05v-1.757h1.128v1.757zm9.212.835c.25 0 .46.086.63.257a.82.82 0 0 1 .256.615c0 .244-.085.452-.256.622a.87.87 0 0 1-.63.249.86.86 0 0 1-.623-.249c-.166-.17-.25-.378-.25-.622s.083-.45.25-.615a.85.85 0 0 1 .623-.257zm0 6.123a.87.87 0 0 1 .63.249c.17.166.256.374.256.623a.82.82 0 0 1-.256.615.87.87 0 0 1-.63.249.86.86 0 0 1-.623-.249c-.166-.166-.25-.37-.25-.615s.083-.457.25-.623a.86.86 0 0 1 .623-.249zm85.16 1.817c-.254-.03-.464-.135-.63-.315s-.25-.386-.25-.615c0-.25.08-.46.242-.63a.8.8 0 0 1 .608-.257c.273 0 .5.113.7.337s.3.486.3.8c0 .957-.532 1.704-1.596 2.24l-.28-.528c.596-.292.894-.637.894-1.032zM88.387 320.423l-.264 2.05h-.586l-.27-2.05v-1.757h1.12v1.757zm-2.65 0l-.27 2.05h-.586l-.27-2.05v-1.757h1.128v1.757zm12.303 8.233c-.767.35-1.52.527-2.263.527-1.362 0-2.044-.72-2.044-2.16v-4.665h-1.465v-.99h1.465v-2.087h1.113v2.087h2.593v.99h-2.593v4.365c0 .464.103.825.308 1.084s.483.38.835.38c.625 0 1.243-.14 1.853-.417l.198.886zm5.477-7.47c1.05 0 1.884.366 2.505 1.1s.93 1.696.93 2.893c0 1.206-.3 2.177-.93 2.915s-1.456 1.106-2.505 1.106c-1.055 0-1.892-.366-2.513-1.1-.615-.737-.922-1.71-.922-2.922 0-1.2.3-2.166.93-2.893.62-.733 1.455-1.1 2.505-1.1zm0 7.017c.693 0 1.24-.293 1.64-.88s.6-1.297.6-2.132c0-.88-.198-1.6-.593-2.168s-.945-.85-1.648-.85a1.89 1.89 0 0 0-1.648.842c-.39.557-.586 1.282-.586 2.175 0 .85.198 1.565.593 2.146a1.88 1.88 0 0 0 1.641.865zm11.54.454c-.767.35-1.52.527-2.264.527-1.362 0-2.043-.72-2.043-2.16v-4.665h-1.465v-.99h1.465v-2.087h1.113v2.087h2.593v.99h-2.593v4.365c0 .464.103.825.308 1.084s.483.38.835.38a4.43 4.43 0 0 0 1.853-.417l.198.886zm8.626.344h-1.136c-.092-.308-.14-.718-.14-1.23-.65.952-1.533 1.428-2.65 1.428-.567 0-1.067-.2-1.502-.6-.43-.405-.644-.925-.644-1.56 0-.376.076-.708.227-.996a1.96 1.96 0 0 1 .666-.725c.293-.2.65-.357 1.07-.47a7.85 7.85 0 0 1 1.494-.242l1.282-.102v-.366c0-1.31-.61-1.963-1.83-1.963-.29 0-.655.063-1.1.2s-.818.27-1.135.44l-.3-.82c1.04-.532 2.007-.798 2.9-.798 1.738 0 2.607.92 2.607 2.76v3.282c0 .664.064 1.254.19 1.772zm-1.333-2.263v-1.384l-2.124.263c-.38.078-.713.227-.996.447s-.418.518-.418.894c0 .34.12.617.36.827s.544.315.915.315c.406 0 .81-.12 1.21-.36.4-.244.752-.578 1.055-1.003zm9.094 2.263h-3.12v-9.346h-1.992v-.988h3.135v9.345h1.977v.99zm10.61 3.267h-9v-.96h9v.96zm7.08-10.694l-.462 1.1c-.503-.22-.937-.33-1.303-.33-.337 0-.667.098-.99.293s-.62.467-.894.828c-.268.356-.403.557-.403.6V329h-1.135v-7.632h1.135v1.546c.61-1.153 1.402-1.73 2.374-1.73.576 0 1.135.13 1.677.388zm8.618 3.648h-5.236c0 .864.25 1.577.747 2.138s1.118.843 1.845.843c.694 0 1.41-.125 2.146-.374l.198.916c-.674.302-1.46.454-2.358.454-1.133 0-2.046-.364-2.74-1.092s-1.04-1.71-1.04-2.944c0-1.21.3-2.175.93-2.893s1.43-1.084 2.417-1.084a2.82 2.82 0 0 1 2.204 1.003c.59.67.886 1.56.886 2.674v.36zm-1.245-.93c0-.596-.185-1.097-.556-1.502s-.786-.615-1.245-.615c-.59 0-1.082.195-1.473.586-.385.4-.6.9-.644 1.53h3.918zm8.73-1.832c-.64-.21-1.243-.314-1.81-.314-.62 0-1.11.105-1.472.314s-.542.48-.542.828c0 .22.083.413.25.58s.498.312.996.454l1.09.315c.503.14.913.312 1.23.512a1.96 1.96 0 0 1 .711.718c.16.28.242.603.242.974a2 2 0 0 1-.916 1.729c-.6.42-1.387.63-2.33.63s-1.71-.142-2.322-.425l.22-.99c.64.303 1.326.454 2.058.454.635 0 1.15-.117 1.545-.35.4-.24.6-.554.6-.945 0-.264-.1-.498-.3-.703s-.66-.427-1.392-.652l-1.304-.403a2.8 2.8 0 0 1-.776-.403c-.24-.176-.422-.385-.55-.63-.122-.244-.183-.517-.183-.82 0-.66.288-1.182.864-1.567s1.34-.58 2.292-.58c.616 0 1.3.105 2.05.315l-.256.96zm9.292 6.54h-1.142v-1.128c-.82.874-1.685 1.31-2.593 1.31-1.43 0-2.146-.867-2.146-2.6v-5.215h1.143v4.885c0 .65.102 1.136.307 1.458s.552.476 1.04.476c.698 0 1.448-.435 2.25-1.304v-5.515h1.142V329zm7.967 0h-3.12v-9.346h-1.992v-.988h3.135v9.345h1.977v.99zm9.14-.344c-.767.35-1.52.527-2.263.527-1.363 0-2.044-.72-2.044-2.16v-4.665h-1.465v-.99h1.465v-2.087h1.113v2.087h2.593v.99h-2.593v4.365c0 .464.103.825.308 1.084s.483.38.835.38a4.43 4.43 0 0 0 1.853-.417l.198.886zm7.637-6.197c-.64-.21-1.243-.314-1.81-.314-.62 0-1.11.105-1.472.314s-.542.48-.542.828c0 .22.083.413.25.58s.498.312.996.454l1.09.315c.503.14.913.312 1.23.512s.554.435.7.718.242.603.242.974c0 .728-.305 1.304-.916 1.73s-1.386.63-2.33.63c-.937 0-1.71-.142-2.322-.425l.22-.99c.64.303 1.326.454 2.058.454.635 0 1.15-.117 1.546-.35.4-.24.6-.554.6-.945 0-.264-.1-.498-.3-.703s-.66-.427-1.392-.652l-1.303-.403a2.79 2.79 0 0 1-.777-.403c-.24-.176-.422-.385-.55-.63-.122-.244-.183-.517-.183-.82 0-.66.288-1.182.864-1.567s1.34-.58 2.293-.58c.615 0 1.298.105 2.05.315l-.256.96zm8.238-2.036l-.264 2.05h-.586l-.27-2.05v-1.757h1.12v1.757zm-2.652 0l-.27 2.05H204l-.27-2.05v-1.757h1.128v1.757zm9.212.835c.25 0 .46.086.63.257s.257.37.257.615-.086.452-.257.622a.87.87 0 0 1-.63.249.86.86 0 0 1-.622-.249c-.166-.17-.25-.378-.25-.622s.083-.45.25-.615.378-.257.622-.257zm0 6.123a.87.87 0 0 1 .63.249c.17.166.257.374.257.623s-.086.45-.257.615a.87.87 0 0 1-.63.249.86.86 0 0 1-.622-.249c-.166-.166-.25-.37-.25-.615s.083-.457.25-.623a.86.86 0 0 1 .622-.249zm-125.727 27.3c-.527 0-.913.18-1.157.542s-.36.99-.36 1.904v.704c0 1.025-.154 1.726-.462 2.102s-.813.57-1.516.57h-.586v-.96h.227c.454 0 .77-.097.945-.293s.27-.66.27-1.398v-.47c0-1.01.117-1.756.35-2.234s.632-.835 1.194-1.07c-.562-.23-.96-.584-1.194-1.062s-.35-1.224-.35-2.234v-.47c0-.737-.1-1.204-.27-1.4s-.49-.293-.945-.293h-.227v-.96h.586c.703 0 1.208.2 1.516.57.308.376.462 1.074.462 2.095v.7c0 .825.107 1.44.322 1.846.215.4.613.6 1.194.6v1.194z"/></g><path d="M250.054 290.423l-.264 2.05h-.586l-.27-2.05v-1.757h1.12v1.757zm-2.652 0l-.27 2.05h-.586l-.27-2.05v-1.757h1.128v1.757zm11.43 2.036c-.64-.21-1.242-.314-1.81-.314-.62 0-1.1.105-1.472.314s-.542.48-.542.828c0 .22.083.413.25.58s.498.312.996.454l1.092.315c.503.14.913.312 1.23.512s.554.435.71.718.24.603.24.974c0 .728-.305 1.304-.915 1.73s-1.387.63-2.33.63-1.712-.142-2.322-.425l.22-.99c.64.303 1.325.454 2.058.454.634 0 1.15-.117 1.545-.35.4-.24.6-.554.6-.945 0-.264-.1-.498-.3-.703-.195-.2-.66-.427-1.39-.652l-1.304-.403a2.8 2.8 0 0 1-.776-.403 1.81 1.81 0 0 1-.55-.63c-.122-.244-.183-.517-.183-.82 0-.66.288-1.182.865-1.567s1.34-.58 2.292-.58c.615 0 1.3.105 2.05.315l-.257.96zm9.38 6.197c-.767.35-1.52.527-2.263.527-1.363 0-2.044-.72-2.044-2.16v-4.665h-1.465v-.99h1.465v-2.087h1.114v2.087h2.592v.99h-2.592v4.365c0 .464.102.825.307 1.084s.484.38.835.38a4.43 4.43 0 0 0 1.853-.417l.198.886zm8.553-7.083l-.462 1.1c-.503-.22-.937-.33-1.304-.33-.336 0-.666.098-.988.293s-.62.467-.894.828c-.268.356-.403.557-.403.6V299h-1.135v-7.632h1.135v1.546c.61-1.153 1.402-1.73 2.373-1.73.577 0 1.136.13 1.678.388zm5.93-3.09a.74.74 0 0 1 .55.235.75.75 0 0 1 .227.549c0 .225-.076.413-.227.564s-.33.227-.55.227c-.2 0-.378-.078-.534-.234s-.227-.347-.227-.557a.76.76 0 0 1 .227-.549c.156-.156.334-.235.534-.235zm.557 10.518h-1.143v-6.643h-2.248v-.99h3.39V299zm10.413 0h-1.143v-4.893c0-.678-.11-1.17-.33-1.472-.215-.307-.554-.46-1.018-.46-.698 0-1.448.434-2.25 1.304V299h-1.142v-7.632h1.142v1.12c.82-.87 1.685-1.304 2.593-1.304 1.43 0 2.146.864 2.146 2.593V299zm4.744-2.878c-.713.346-1.07.65-1.07.915 0 .142.08.26.24.36.167.098.39.146.674.146l2.57-.073c.6 0 1.084.15 1.42.447s.513.72.513 1.267c0 .864-.386 1.553-1.158 2.066s-1.672.77-2.702.77c-.845 0-1.536-.18-2.073-.535s-.806-.808-.806-1.37c0-.6.415-1.125 1.246-1.545-.69-.322-1.033-.718-1.033-1.187 0-.537.444-1.037 1.333-1.5-.4-.25-.725-.57-.945-.967s-.33-.813-.33-1.252c0-.718.245-1.307.733-1.765.488-.464 1.098-.696 1.83-.696.527 0 1.003.1 1.428.33l2.263-.344v1.113h-1.457c.22.386.33.84.33 1.363 0 .693-.24 1.28-.725 1.757s-1.096.718-1.838.718c-.156 0-.305-.005-.447-.014zm.447-.872c.42 0 .762-.144 1.025-.432.27-.293.403-.674.403-1.143 0-.493-.13-.88-.388-1.157s-.606-.417-1.04-.417c-.405 0-.747.146-1.025.44-.274.288-.41.667-.41 1.135 0 .46.137.838.41 1.136s.62.44 1.025.44zm.044 5.88c.752 0 1.39-.168 1.92-.505.532-.332.798-.745.798-1.238 0-.508-.376-.762-1.128-.762l-1.29.044-.908.03c-.107 0-.276.088-.505.263s-.398.352-.52.528-.176.366-.176.556c0 .298.166.552.498.762s.77.322 1.31.322zm10.713-10.708l-.263 2.05h-.586l-.27-2.05v-1.757h1.12v1.757zm-2.65 0l-.27 2.05h-.586l-.27-2.05v-1.757h1.128v1.757z" fill="#63c78e"/><path d="M231.132 318.468c1.094 0 1.933.47 2.52 1.413s.887 2.256.887 3.955c0 1.646-.286 2.952-.857 3.92s-1.42 1.443-2.55 1.443c-1.09 0-1.93-.47-2.52-1.406s-.886-2.256-.886-3.956c0-1.65.286-2.956.857-3.918s1.426-1.45 2.55-1.45zm0 9.675c.722 0 1.257-.342 1.604-1.025.35-.69.527-1.783.527-3.282s-.176-2.595-.527-3.274-.882-1.025-1.604-1.025c-.713 0-1.245.35-1.597 1.047s-.527 1.783-.527 3.252c0 1.5.173 2.58.52 3.274s.886 1.033 1.604 1.033zm-.03-5.405a1.04 1.04 0 0 1 1.098 1.098 1.16 1.16 0 0 1-.322.821c-.215.224-.474.337-.776.337a1.03 1.03 0 0 1-.77-.337 1.18 1.18 0 0 1-.314-.821c0-.312.102-.573.307-.783.2-.2.47-.315.777-.315z" fill="#8babe1"/></svg>