<svg width="370" height="48" viewBox="0 0 370 48" fill="none" xmlns="http://www.w3.org/2000/svg">
<g clip-path="url(#clip0)">
<path d="M22 19.1807L0 33.542L22 48L44 33.5356L22 19.1807ZM14.7775 33.629L21.9459 28.9417L29.2225 33.6435L22 38.1085L14.7775 33.629Z" fill="url(#paint0_linear)"/>
<path d="M22 0L0 14.3614L22 28.8193L44 14.3549L22 0ZM14.7775 14.4483L21.9459 9.76102L29.2225 14.4628L22 18.9279L14.7775 14.4483Z" fill="url(#paint1_linear)"/>
</g>
<path d="M76.4382 13.1818V27.5639C76.4382 30.6214 73.9985 32.3366 71.0582 32.3366C68.1392 32.3366 65.6889 30.6214 65.6889 27.5639V13.1818H62.397V27.6172C62.397 32.5391 66.2322 35.3622 71.0582 35.3622C75.8842 35.3622 79.7301 32.5391 79.7301 27.6172V13.1818H76.4382Z" fill="black"/>
<path d="M84.2604 41.1364H87.4458V32.4538H87.6376C88.2128 33.4979 89.3847 35.3196 92.3677 35.3196C96.3307 35.3196 99.2072 32.1449 99.2072 26.8501C99.2072 21.5447 96.2881 18.4233 92.3357 18.4233C89.2995 18.4233 88.2022 20.277 87.6376 21.2891H87.3712V18.6364H84.2604V41.1364ZM87.3819 26.8182C87.3819 23.3984 88.8734 21.1293 91.6539 21.1293C94.541 21.1293 95.9898 23.5689 95.9898 26.8182C95.9898 30.0994 94.4984 32.603 91.6539 32.603C88.916 32.603 87.3819 30.2592 87.3819 26.8182Z" fill="black"/>
<path d="M117.797 20.0746H121.174C120.439 15.8239 116.807 12.8835 112.098 12.8835C106.451 12.8835 102.329 17.1342 102.329 24.1016C102.329 31.005 106.334 35.2983 112.247 35.2983C117.542 35.2983 121.324 31.8253 121.324 26.3175V23.8352H112.748V26.5518H118.138C118.064 30.0675 115.741 32.294 112.247 32.294C108.401 32.294 105.599 29.3856 105.599 24.0802C105.599 18.7962 108.422 15.8878 112.119 15.8878C115.017 15.8878 116.977 17.4858 117.797 20.0746Z" fill="black"/>
<path d="M135.613 28.2138C135.623 30.9943 133.556 32.3153 131.767 32.3153C129.796 32.3153 128.432 30.8878 128.432 28.6612V18.6364H125.247V29.0447C125.247 33.1037 127.473 35.2131 130.616 35.2131C133.077 35.2131 134.75 33.9133 135.506 32.1662H135.676V35H138.809V18.6364H135.613V28.2138Z" fill="black"/>
<path d="M147.851 35.3622C150.557 35.3622 152.08 33.9879 152.687 32.7628H152.815V35H155.926V24.1335C155.926 19.3714 152.176 18.4233 149.576 18.4233C146.615 18.4233 143.888 19.6165 142.822 22.5994L145.816 23.2812C146.285 22.12 147.478 21.0014 149.619 21.0014C151.675 21.0014 152.73 22.0774 152.73 23.9311V24.0057C152.73 25.1669 151.537 25.1456 148.596 25.4865C145.496 25.8487 142.322 26.6584 142.322 30.3764C142.322 33.5937 144.74 35.3622 147.851 35.3622ZM148.543 32.8054C146.743 32.8054 145.443 31.9957 145.443 30.419C145.443 28.7145 146.956 28.1072 148.799 27.8622C149.832 27.7237 152.282 27.4467 152.741 26.9886V29.098C152.741 31.0369 151.196 32.8054 148.543 32.8054Z" fill="black"/>
<path d="M160.169 35H163.354V25.0071C163.354 22.8658 165.005 21.321 167.264 21.321C167.924 21.321 168.67 21.4382 168.926 21.5128V18.4659C168.606 18.4233 167.978 18.3913 167.573 18.3913C165.655 18.3913 164.015 19.478 163.418 21.2358H163.247V18.6364H160.169V35Z" fill="black"/>
<path d="M177.222 35.3196C180.205 35.3196 181.377 33.4979 181.952 32.4538H182.219V35H185.329V13.1818H182.144V21.2891H181.952C181.377 20.277 180.29 18.4233 177.243 18.4233C173.291 18.4233 170.383 21.5447 170.383 26.8501C170.383 32.1449 173.248 35.3196 177.222 35.3196ZM177.925 32.603C175.081 32.603 173.6 30.0994 173.6 26.8182C173.6 23.5689 175.049 21.1293 177.925 21.1293C180.706 21.1293 182.197 23.3984 182.197 26.8182C182.197 30.2592 180.674 32.603 177.925 32.603Z" fill="black"/>
<path d="M198.071 35H206.434C211.505 35 213.795 32.4751 213.795 29.13C213.795 25.7528 211.43 23.8459 209.268 23.7287V23.5156C211.27 23.0043 212.943 21.6406 212.943 18.9133C212.943 15.6854 210.706 13.1818 206.061 13.1818H198.071V35ZM201.363 32.1768V25.1882H206.231C208.873 25.1882 210.525 26.8927 210.525 28.9702C210.525 30.8025 209.278 32.1768 206.114 32.1768H201.363ZM201.363 22.6207V15.9837H205.858C208.469 15.9837 209.715 17.3579 209.715 19.169C209.715 21.2784 207.989 22.6207 205.773 22.6207H201.363Z" fill="black"/>
<path d="M217.444 35H220.629V25.0071C220.629 22.8658 222.281 21.321 224.539 21.321C225.2 21.321 225.945 21.4382 226.201 21.5128V18.4659C225.882 18.4233 225.253 18.3913 224.848 18.3913C222.931 18.3913 221.29 19.478 220.693 21.2358H220.523V18.6364H217.444V35Z" fill="black"/>
<path d="M235.424 35.3302C238.993 35.3302 241.518 33.5724 242.242 30.9091L239.228 30.3658C238.652 31.9105 237.267 32.6989 235.456 32.6989C232.729 32.6989 230.897 30.9304 230.811 27.777H242.445V26.6477C242.445 20.7351 238.908 18.4233 235.201 18.4233C230.641 18.4233 227.637 21.8963 227.637 26.9247C227.637 32.0064 230.598 35.3302 235.424 35.3302ZM230.822 25.3906C230.95 23.0682 232.633 21.0547 235.222 21.0547C237.693 21.0547 239.313 22.8871 239.323 25.3906H230.822Z" fill="black"/>
<path d="M250.741 35.3622C253.447 35.3622 254.971 33.9879 255.578 32.7628H255.706V35H258.817V24.1335C258.817 19.3714 255.067 18.4233 252.467 18.4233C249.505 18.4233 246.778 19.6165 245.713 22.5994L248.706 23.2812C249.175 22.12 250.368 21.0014 252.51 21.0014C254.566 21.0014 255.621 22.0774 255.621 23.9311V24.0057C255.621 25.1669 254.427 25.1456 251.487 25.4865C248.387 25.8487 245.212 26.6584 245.212 30.3764C245.212 33.5937 247.63 35.3622 250.741 35.3622ZM251.434 32.8054C249.633 32.8054 248.334 31.9957 248.334 30.419C248.334 28.7145 249.846 28.1072 251.689 27.8622C252.723 27.7237 255.173 27.4467 255.631 26.9886V29.098C255.631 31.0369 254.086 32.8054 251.434 32.8054Z" fill="black"/>
<path d="M269.952 35.3302C273.819 35.3302 276.323 33.0078 276.674 29.8224H273.574C273.169 31.5909 271.795 32.6349 269.973 32.6349C267.278 32.6349 265.542 30.3871 265.542 26.8182C265.542 23.3132 267.31 21.1079 269.973 21.1079C271.997 21.1079 273.233 22.3864 273.574 23.9204H276.674C276.333 20.6179 273.638 18.4233 269.92 18.4233C265.307 18.4233 262.324 21.8963 262.324 26.8927C262.324 31.8253 265.201 35.3302 269.952 35.3302Z" fill="black"/>
<path d="M283.266 25.2841C283.266 22.674 284.917 21.1825 287.187 21.1825C289.381 21.1825 290.692 22.5781 290.692 24.9751V35H293.877V24.5916C293.877 20.5114 291.64 18.4233 288.273 18.4233C285.727 18.4233 284.193 19.5312 283.426 21.2997H283.223V13.1818H280.081V35H283.266V25.2841Z" fill="black"/>
<path d="M310.283 18.9133H313.458C313.362 15.419 310.273 12.8835 305.841 12.8835C301.462 12.8835 298.106 15.3871 298.106 19.1477C298.106 22.1839 300.28 23.9631 303.785 24.9112L306.363 25.6143C308.696 26.2322 310.496 26.9993 310.496 28.9382C310.496 31.0689 308.461 32.4751 305.66 32.4751C303.124 32.4751 301.015 31.3459 300.823 28.9702H297.52C297.733 32.9226 300.791 35.3622 305.681 35.3622C310.805 35.3622 313.756 32.6669 313.756 28.9702C313.756 25.0391 310.251 23.5156 307.481 22.8338L305.351 22.2798C303.646 21.843 301.377 21.044 301.388 18.956C301.388 17.1023 303.081 15.728 305.766 15.728C308.27 15.728 310.049 16.8998 310.283 18.9133Z" fill="black"/>
<path d="M317.434 35H320.62V18.6364H317.434V35ZM319.043 16.1115C320.14 16.1115 321.056 15.2592 321.056 14.2152C321.056 13.1712 320.14 12.3082 319.043 12.3082C317.935 12.3082 317.029 13.1712 317.029 14.2152C317.029 15.2592 317.935 16.1115 319.043 16.1115Z" fill="black"/>
<path d="M331.766 41.4453C335.931 41.4453 339.149 39.5383 339.149 35.3622V18.6364H336.027V21.2891H335.793C335.228 20.277 334.099 18.4233 331.052 18.4233C327.1 18.4233 324.191 21.5447 324.191 26.7543C324.191 31.9744 327.164 34.755 331.031 34.755C334.035 34.755 335.196 33.0611 335.771 32.017H335.974V35.2344C335.974 37.7592 334.216 38.8778 331.798 38.8778C329.145 38.8778 328.112 37.5462 327.547 36.6406L324.809 37.7699C325.672 39.7408 327.856 41.4453 331.766 41.4453ZM331.734 32.1129C328.889 32.1129 327.409 29.929 327.409 26.7116C327.409 23.5689 328.857 21.1293 331.734 21.1293C334.514 21.1293 336.006 23.3984 336.006 26.7116C336.006 30.0888 334.482 32.1129 331.734 32.1129Z" fill="black"/>
<path d="M346.606 25.2841C346.606 22.674 348.257 21.1825 350.526 21.1825C352.721 21.1825 354.031 22.5781 354.031 24.9751V35H357.217V24.5916C357.217 20.5114 354.98 18.4233 351.613 18.4233C349.067 18.4233 347.533 19.5312 346.766 21.2997H346.563V13.1818H343.421V35H346.606V25.2841Z" fill="black"/>
<path d="M369.106 18.6364H365.75V14.7159H362.565V18.6364H360.168V21.1932H362.565V30.8558C362.554 33.8281 364.823 35.2663 367.337 35.2131C368.35 35.2024 369.031 35.0106 369.404 34.8722L368.829 32.2408C368.616 32.2834 368.222 32.3792 367.71 32.3792C366.677 32.3792 365.75 32.0383 365.75 30.1953V21.1932H369.106V18.6364Z" fill="black"/>
<defs>
<linearGradient id="paint0_linear" x1="0" y1="48" x2="47.8189" y2="4.16604" gradientUnits="userSpaceOnUse">
<stop stop-color="#B71029"/>
<stop offset="1" stop-color="#E43838"/>
</linearGradient>
<linearGradient id="paint1_linear" x1="0" y1="48" x2="47.8189" y2="4.16604" gradientUnits="userSpaceOnUse">
<stop stop-color="#B71029"/>
<stop offset="1" stop-color="#E43838"/>
</linearGradient>
<clipPath id="clip0">
<rect width="44" height="48" fill="white"/>
</clipPath>
</defs>
</svg>
