<svg width="368" height="48" viewBox="0 0 368 48" fill="none" xmlns="http://www.w3.org/2000/svg">
<path d="M21.9951 0L0 14.363V23.9936L21.9951 9.6161L44 24.0612V14.4306L21.9951 0Z" fill="url(#paint0_linear)"/>
<path d="M22 19.1807L0 33.542L22 48L44 33.5356L22 19.1807ZM14.7775 33.629L21.9459 28.9417L29.2225 33.6435L22 38.1085L14.7775 33.629Z" fill="url(#paint1_linear)"/>
<path d="M76.4382 13.1818V27.5639C76.4382 30.6214 73.9985 32.3366 71.0582 32.3366C68.1392 32.3366 65.6889 30.6214 65.6889 27.5639V13.1818H62.397V27.6172C62.397 32.5391 66.2322 35.3622 71.0582 35.3622C75.8842 35.3622 79.7301 32.5391 79.7301 27.6172V13.1818H76.4382Z" fill="black"/>
<path d="M84.2604 41.1364H87.4458V32.4538H87.6376C88.2128 33.4979 89.3847 35.3196 92.3677 35.3196C96.3307 35.3196 99.2072 32.1449 99.2072 26.8501C99.2072 21.5447 96.2881 18.4233 92.3357 18.4233C89.2995 18.4233 88.2022 20.277 87.6376 21.2891H87.3712V18.6364H84.2604V41.1364ZM87.3819 26.8182C87.3819 23.3984 88.8734 21.1293 91.6539 21.1293C94.541 21.1293 95.9898 23.5689 95.9898 26.8182C95.9898 30.0994 94.4984 32.603 91.6539 32.603C88.916 32.603 87.3819 30.2592 87.3819 26.8182Z" fill="black"/>
<path d="M117.797 20.0746H121.174C120.439 15.8239 116.807 12.8835 112.098 12.8835C106.451 12.8835 102.329 17.1342 102.329 24.1016C102.329 31.005 106.334 35.2983 112.247 35.2983C117.542 35.2983 121.324 31.8253 121.324 26.3175V23.8352H112.748V26.5518H118.138C118.064 30.0675 115.741 32.294 112.247 32.294C108.401 32.294 105.599 29.3856 105.599 24.0802C105.599 18.7962 108.422 15.8878 112.119 15.8878C115.017 15.8878 116.977 17.4858 117.797 20.0746Z" fill="black"/>
<path d="M135.613 28.2138C135.623 30.9943 133.556 32.3153 131.767 32.3153C129.796 32.3153 128.432 30.8878 128.432 28.6612V18.6364H125.247V29.0447C125.247 33.1037 127.473 35.2131 130.616 35.2131C133.077 35.2131 134.75 33.9133 135.506 32.1662H135.676V35H138.809V18.6364H135.613V28.2138Z" fill="black"/>
<path d="M147.851 35.3622C150.557 35.3622 152.08 33.9879 152.687 32.7628H152.815V35H155.926V24.1335C155.926 19.3714 152.176 18.4233 149.576 18.4233C146.615 18.4233 143.888 19.6165 142.822 22.5994L145.816 23.2812C146.285 22.12 147.478 21.0014 149.619 21.0014C151.675 21.0014 152.73 22.0774 152.73 23.9311V24.0057C152.73 25.1669 151.537 25.1456 148.596 25.4865C145.496 25.8487 142.322 26.6584 142.322 30.3764C142.322 33.5937 144.74 35.3622 147.851 35.3622ZM148.543 32.8054C146.743 32.8054 145.443 31.9957 145.443 30.419C145.443 28.7145 146.956 28.1072 148.799 27.8622C149.832 27.7237 152.282 27.4467 152.741 26.9886V29.098C152.741 31.0369 151.196 32.8054 148.543 32.8054Z" fill="black"/>
<path d="M160.169 35H163.354V25.0071C163.354 22.8658 165.005 21.321 167.264 21.321C167.924 21.321 168.67 21.4382 168.926 21.5128V18.4659C168.606 18.4233 167.978 18.3913 167.573 18.3913C165.655 18.3913 164.015 19.478 163.418 21.2358H163.247V18.6364H160.169V35Z" fill="black"/>
<path d="M177.222 35.3196C180.205 35.3196 181.377 33.4979 181.952 32.4538H182.219V35H185.329V13.1818H182.144V21.2891H181.952C181.377 20.277 180.29 18.4233 177.243 18.4233C173.291 18.4233 170.383 21.5447 170.383 26.8501C170.383 32.1449 173.248 35.3196 177.222 35.3196ZM177.925 32.603C175.081 32.603 173.6 30.0994 173.6 26.8182C173.6 23.5689 175.049 21.1293 177.925 21.1293C180.706 21.1293 182.197 23.3984 182.197 26.8182C182.197 30.2592 180.674 32.603 177.925 32.603Z" fill="black"/>
<path d="M199.978 13.1818H196.42L204.271 35H208.074L215.926 13.1818H212.368L206.295 30.9517H206.05L199.978 13.1818Z" fill="black"/>
<path d="M224.233 35.3302C227.802 35.3302 230.327 33.5724 231.051 30.9091L228.036 30.3658C227.461 31.9105 226.076 32.6989 224.265 32.6989C221.538 32.6989 219.705 30.9304 219.62 27.777H231.254V26.6477C231.254 20.7351 227.717 18.4233 224.009 18.4233C219.45 18.4233 216.445 21.8963 216.445 26.9247C216.445 32.0064 219.407 35.3302 224.233 35.3302ZM219.631 25.3906C219.758 23.0682 221.442 21.0547 224.03 21.0547C226.502 21.0547 228.121 22.8871 228.132 25.3906H219.631Z" fill="black"/>
<path d="M237.973 25.2841C237.973 22.674 239.571 21.1825 241.787 21.1825C243.95 21.1825 245.26 22.5994 245.26 24.9751V35H248.445V24.5916C248.445 20.5433 246.219 18.4233 242.874 18.4233C240.413 18.4233 238.804 19.5632 238.048 21.2997H237.845V18.6364H234.788V35H237.973V25.2841Z" fill="black"/>
<path d="M258.843 35.3196C261.826 35.3196 262.998 33.4979 263.573 32.4538H263.84V35H266.95V13.1818H263.765V21.2891H263.573C262.998 20.277 261.911 18.4233 258.864 18.4233C254.912 18.4233 252.004 21.5447 252.004 26.8501C252.004 32.1449 254.869 35.3196 258.843 35.3196ZM259.546 32.603C256.702 32.603 255.221 30.0994 255.221 26.8182C255.221 23.5689 256.67 21.1293 259.546 21.1293C262.327 21.1293 263.818 23.3984 263.818 26.8182C263.818 30.2592 262.295 32.603 259.546 32.603Z" fill="black"/>
<path d="M278.39 35.3302C283.002 35.3302 286.017 31.9531 286.017 26.8927C286.017 21.8004 283.002 18.4233 278.39 18.4233C273.777 18.4233 270.762 21.8004 270.762 26.8927C270.762 31.9531 273.777 35.3302 278.39 35.3302ZM278.4 32.6562C275.385 32.6562 273.979 30.0248 273.979 26.8821C273.979 23.75 275.385 21.0866 278.4 21.0866C281.394 21.0866 282.8 23.75 282.8 26.8821C282.8 30.0248 281.394 32.6562 278.4 32.6562Z" fill="black"/>
<path d="M289.573 35H292.758V25.0071C292.758 22.8658 294.41 21.321 296.668 21.321C297.329 21.321 298.074 21.4382 298.33 21.5128V18.4659C298.01 18.4233 297.382 18.3913 296.977 18.3913C295.059 18.3913 293.419 19.478 292.822 21.2358H292.652V18.6364H289.573V35Z" fill="black"/>
<path d="M309.282 35H312.574V26.7436H317.048C317.123 26.7436 317.187 26.7436 317.261 26.7436L321.693 35H325.443L320.606 26.1683C323.28 25.1775 324.612 22.951 324.612 20.0213C324.612 16.005 322.119 13.1818 317.059 13.1818H309.282V35ZM312.574 23.9098V16.005H316.707C319.956 16.005 321.299 17.5497 321.299 20.0213C321.299 22.4822 319.956 23.9098 316.75 23.9098H312.574Z" fill="black"/>
<path d="M328.362 35H331.547V18.6364H328.362V35ZM329.971 16.1115C331.068 16.1115 331.984 15.2592 331.984 14.2152C331.984 13.1712 331.068 12.3082 329.971 12.3082C328.863 12.3082 327.957 13.1712 327.957 14.2152C327.957 15.2592 328.863 16.1115 329.971 16.1115Z" fill="black"/>
<path d="M348.095 22.6314C347.434 20.0852 345.442 18.4233 341.905 18.4233C338.208 18.4233 335.588 20.3729 335.588 23.2706C335.588 25.593 336.994 27.1378 340.062 27.8196L342.832 28.4268C344.409 28.7784 345.144 29.4815 345.144 30.5042C345.144 31.772 343.791 32.7628 341.703 32.7628C339.796 32.7628 338.571 31.9425 338.187 30.3338L335.108 30.8025C335.641 33.7003 338.049 35.3302 341.724 35.3302C345.676 35.3302 348.414 33.2315 348.414 30.2699C348.414 27.9581 346.944 26.5305 343.94 25.8381L341.341 25.2415C339.54 24.8153 338.762 24.2081 338.773 23.1001C338.762 21.843 340.126 20.9481 341.937 20.9481C343.919 20.9481 344.835 22.0454 345.208 23.1427L348.095 22.6314Z" fill="black"/>
<path d="M351.917 35H355.102V29.1939L356.689 27.6065L362.25 35H366.16L359.086 25.6569L365.713 18.6364H361.899L355.379 25.5611H355.102V13.1818H351.917V35Z" fill="black"/>
<defs>
<linearGradient id="paint0_linear" x1="0" y1="48" x2="47.8189" y2="4.16603" gradientUnits="userSpaceOnUse">
<stop stop-color="#1757C2"/>
<stop offset="1" stop-color="#1EA7FF"/>
</linearGradient>
<linearGradient id="paint1_linear" x1="0" y1="48" x2="47.8189" y2="4.16603" gradientUnits="userSpaceOnUse">
<stop stop-color="#1757C2"/>
<stop offset="1" stop-color="#1EA7FF"/>
</linearGradient>
</defs>
</svg>
