<svg width="264" height="48" viewBox="0 0 264 48" fill="none" xmlns="http://www.w3.org/2000/svg">
<path d="M21.9951 0L0 14.4145V33.8213L17.9513 45.6342V24.425L8.83637 18.35L21.9951 9.71717L35.1538 18.35L26.0389 24.3829V45.6342L44 33.8131V14.4825L21.9951 0Z" fill="url(#paint0_linear)"/>
<path d="M76.4382 13.1818V27.5639C76.4382 30.6215 73.9985 32.3367 71.0582 32.3367C68.1392 32.3367 65.6889 30.6215 65.6889 27.5639V13.1818H62.397V27.6172C62.397 32.5391 66.2322 35.3622 71.0582 35.3622C75.8842 35.3622 79.7301 32.5391 79.7301 27.6172V13.1818H76.4382Z" fill="black"/>
<path d="M84.2604 41.1364H87.4458V32.4539H87.6376C88.2128 33.4979 89.3847 35.3196 92.3677 35.3196C96.3307 35.3196 99.2072 32.1449 99.2072 26.8502C99.2072 21.5448 96.2881 18.4233 92.3357 18.4233C89.2995 18.4233 88.2022 20.277 87.6376 21.2891H87.3712V18.6364H84.2604V41.1364ZM87.3819 26.8182C87.3819 23.3985 88.8734 21.1293 91.6539 21.1293C94.541 21.1293 95.9898 23.5689 95.9898 26.8182C95.9898 30.0995 94.4984 32.603 91.6539 32.603C88.916 32.603 87.3819 30.2593 87.3819 26.8182Z" fill="black"/>
<path d="M117.797 20.0746H121.174C120.439 15.8239 116.807 12.8835 112.098 12.8835C106.451 12.8835 102.329 17.1343 102.329 24.1016C102.329 31.005 106.334 35.2983 112.247 35.2983C117.542 35.2983 121.324 31.8253 121.324 26.3175V23.8352H112.748V26.5519H118.138C118.064 30.0675 115.741 32.2941 112.247 32.2941C108.401 32.2941 105.599 29.3857 105.599 24.0803C105.599 18.7962 108.422 15.8878 112.119 15.8878C115.017 15.8878 116.977 17.4858 117.797 20.0746Z" fill="black"/>
<path d="M135.613 28.2138C135.623 30.9943 133.556 32.3154 131.767 32.3154C129.796 32.3154 128.432 30.8878 128.432 28.6612V18.6364H125.247V29.0448C125.247 33.1037 127.473 35.2131 130.616 35.2131C133.077 35.2131 134.75 33.9134 135.506 32.1662H135.676V35H138.809V18.6364H135.613V28.2138Z" fill="black"/>
<path d="M147.851 35.3622C150.557 35.3622 152.08 33.9879 152.687 32.7628H152.815V35H155.926V24.1335C155.926 19.3715 152.176 18.4233 149.576 18.4233C146.615 18.4233 143.888 19.6165 142.822 22.5995L145.816 23.2813C146.285 22.1201 147.478 21.0014 149.619 21.0014C151.675 21.0014 152.73 22.0774 152.73 23.9311V24.0057C152.73 25.1669 151.537 25.1456 148.596 25.4865C145.496 25.8487 142.322 26.6584 142.322 30.3764C142.322 33.5938 144.74 35.3622 147.851 35.3622ZM148.543 32.8054C146.743 32.8054 145.443 31.9958 145.443 30.4191C145.443 28.7145 146.956 28.1073 148.799 27.8622C149.832 27.7237 152.282 27.4468 152.741 26.9887V29.098C152.741 31.037 151.196 32.8054 148.543 32.8054Z" fill="black"/>
<path d="M160.169 35H163.354V25.0071C163.354 22.8658 165.005 21.321 167.264 21.321C167.924 21.321 168.67 21.4382 168.926 21.5128V18.4659C168.606 18.4233 167.978 18.3914 167.573 18.3914C165.655 18.3914 164.015 19.478 163.418 21.2358H163.247V18.6364H160.169V35Z" fill="black"/>
<path d="M177.222 35.3196C180.205 35.3196 181.377 33.4979 181.952 32.4539H182.219V35H185.329V13.1818H182.144V21.2891H181.952C181.377 20.277 180.29 18.4233 177.243 18.4233C173.291 18.4233 170.383 21.5448 170.383 26.8502C170.383 32.1449 173.248 35.3196 177.222 35.3196ZM177.925 32.603C175.081 32.603 173.6 30.0995 173.6 26.8182C173.6 23.5689 175.049 21.1293 177.925 21.1293C180.706 21.1293 182.197 23.3985 182.197 26.8182C182.197 30.2593 180.674 32.603 177.925 32.603Z" fill="black"/>
<path d="M216.192 20.277C215.447 15.6108 211.792 12.8835 207.179 12.8835C201.533 12.8835 197.368 17.1129 197.368 24.0909C197.368 31.0689 201.512 35.2983 207.179 35.2983C211.973 35.2983 215.478 32.2941 216.192 27.9794L212.868 27.9688C212.304 30.76 209.96 32.2941 207.201 32.2941C203.461 32.2941 200.638 29.4283 200.638 24.0909C200.638 18.7962 203.451 15.8878 207.211 15.8878C209.992 15.8878 212.325 17.4539 212.868 20.277H216.192Z" fill="black"/>
<path d="M226.768 35.3303C231.381 35.3303 234.396 31.9531 234.396 26.8928C234.396 21.8004 231.381 18.4233 226.768 18.4233C222.155 18.4233 219.141 21.8004 219.141 26.8928C219.141 31.9531 222.155 35.3303 226.768 35.3303ZM226.779 32.6563C223.764 32.6563 222.358 30.0249 222.358 26.8821C222.358 23.75 223.764 21.0867 226.779 21.0867C229.773 21.0867 231.179 23.75 231.179 26.8821C231.179 30.0249 229.773 32.6563 226.779 32.6563Z" fill="black"/>
<path d="M237.952 35H241.137V25.0071C241.137 22.8658 242.788 21.321 245.047 21.321C245.708 21.321 246.453 21.4382 246.709 21.5128V18.4659C246.389 18.4233 245.761 18.3914 245.356 18.3914C243.438 18.3914 241.798 19.478 241.201 21.2358H241.031V18.6364H237.952V35Z" fill="black"/>
<path d="M255.932 35.3303C259.501 35.3303 262.026 33.5725 262.75 30.9091L259.735 30.3658C259.16 31.9105 257.775 32.6989 255.964 32.6989C253.237 32.6989 251.404 30.9304 251.319 27.777H262.953V26.6478C262.953 20.7351 259.416 18.4233 255.708 18.4233C251.149 18.4233 248.144 21.8963 248.144 26.9247C248.144 32.0064 251.106 35.3303 255.932 35.3303ZM251.33 25.3906C251.458 23.0682 253.141 21.0547 255.73 21.0547C258.201 21.0547 259.821 22.8871 259.831 25.3906H251.33Z" fill="black"/>
<defs>
<linearGradient id="paint0_linear" x1="0" y1="45.6342" x2="45.6039" y2="1.66346" gradientUnits="userSpaceOnUse">
<stop stop-color="#16191C"/>
<stop offset="1" stop-color="#2C3238"/>
</linearGradient>
</defs>
</svg>
