<svg width="24" height="24" viewBox="0 0 24 24" fill="none" xmlns="http://www.w3.org/2000/svg">
<path d="M20 10.5C20 5.805 16.195 2 11.5 2C6.805 2 3 5.805 3 10.5C3 15.195 6.805 19 11.5 19" stroke="#1757C2" stroke-width="1.5" stroke-linecap="round" stroke-linejoin="round"/>
<path d="M3.88721 14.281H3.94521C6.77821 14.281 8.66721 14.119 8.66721 11.448C8.66721 8.615 11.5002 8.615 11.5002 6.726C11.5002 4.614 7.72221 4.837 7.72221 2.948V2.88" stroke="#1757C2" stroke-width="1.5" stroke-linecap="round" stroke-linejoin="round"/>
<path d="M19.9999 10.5H16.9319C14.8269 10.5 13.7099 8.01302 15.1079 6.43902L17.1389 4.15302" stroke="#1757C2" stroke-width="1.5" stroke-linecap="round" stroke-linejoin="round"/>
<path d="M17.478 20.853C17.802 21.049 18.199 21.049 18.523 20.853C19.382 20.332 21 19.143 21 17.567V15.623C21 15.201 20.735 14.825 20.338 14.684L18.812 14.139C18.286 13.951 17.712 13.951 17.186 14.139L15.666 14.683C15.267 14.825 15 15.204 15 15.628V17.567C15 19.143 16.618 20.332 17.478 20.853V20.853Z" stroke="#1757C2" stroke-width="1.5" stroke-linecap="round" stroke-linejoin="round"/>
</svg>
