<svg xmlns="http://www.w3.org/2000/svg" xmlns:xlink="http://www.w3.org/1999/xlink" width="672" height="400" fill="none" xmlns:v="https://vecta.io/nano"><style><![CDATA[.B{fill:#131520}.C{fill:#f3f7fc}.D{fill:#1757c2}.E{fill:#5d6598}.F{stroke:#5d6598}.G{stroke-width:1.25}.H{stroke-linejoin:round}.I{stroke-linecap:round}.J{stroke:#f9f9fb}.K{fill-opacity:.1}]]></style><path fill="#fff" d="M0 0h672v400H0z"/><path stroke="#ecedf3" d="M40 77.5h592"/><path d="M46.575 52.273v5.753c0 1.223-.976 1.91-2.152 1.91-1.168 0-2.148-.686-2.148-1.91v-5.753H40.96v5.774c0 1.97 1.534 3.098 3.465 3.098s3.47-1.13 3.47-3.098v-5.774h-1.317zm9.034 3.78c-.264-1.018-1.06-1.683-2.476-1.683-1.48 0-2.527.78-2.527 1.94 0 .93.563 1.547 1.8 1.82l1.108.243c.63.14.925.422.925.83 0 .507-.54.903-1.376.903-.763 0-1.253-.328-1.406-.972l-1.232.188c.213 1.16 1.176 1.81 2.646 1.81 1.58 0 2.676-.84 2.676-2.024 0-.925-.588-1.496-1.8-1.773l-1.04-.24c-.72-.17-1.03-.413-1.027-.857-.004-.503.54-.86 1.266-.86.793 0 1.16.44 1.308.878l1.155-.205zm5.35 5.08c1.428 0 2.438-.703 2.727-1.77l-1.206-.217c-.23.618-.784.933-1.508.933-1.09 0-1.824-.707-1.858-1.97h4.653v-.452c0-2.365-1.415-3.3-2.898-3.3-1.824 0-3.026 1.39-3.026 3.4 0 2.033 1.185 3.362 3.115 3.362zm-1.84-3.976c.05-.93.724-1.734 1.76-1.734.99 0 1.636.733 1.64 1.734h-3.4zM66.18 61h1.274v-3.997c0-.857.66-1.474 1.564-1.474.264 0 .563.047.665.077v-1.22a5.16 5.16 0 0 0-.541-.03c-.767 0-1.423.435-1.662 1.138h-.068v-1.04h-1.23V61zm11.055-3.886c0-1.044.64-1.64 1.526-1.64.865 0 1.39.567 1.39 1.517v4h1.274v-4.163c0-1.62-.89-2.467-2.23-2.467-.984 0-1.628.456-1.93 1.15h-.08v-1.065h-1.223V61h1.274v-3.886zm8.803 4.03c1.082 0 1.692-.55 1.935-1.04h.05V61h1.244v-4.347c0-1.905-1.5-2.284-2.54-2.284-1.185 0-2.275.477-2.702 1.67l1.198.273c.188-.465.665-.912 1.52-.912.822 0 1.244.43 1.244 1.172v.03c0 .465-.477.456-1.653.592-1.24.145-2.5.47-2.5 1.956 0 1.287.967 1.994 2.212 1.994zm.277-1.023c-.72 0-1.24-.324-1.24-.955 0-.682.605-.925 1.342-1.023.413-.055 1.393-.166 1.577-.35v.844c0 .776-.618 1.483-1.68 1.483zm5.65.878h1.274v-4.035c0-.882.618-1.496 1.342-1.496.707 0 1.197.47 1.197 1.18V61h1.27v-4.172c0-.788.48-1.36 1.313-1.36.673 0 1.227.375 1.227 1.26V61h1.275v-4.39c0-1.496-.836-2.24-2.02-2.24-.942 0-1.65.452-1.965 1.15h-.068c-.285-.716-.886-1.15-1.76-1.15-.865 0-1.51.43-1.78 1.15h-.08v-1.065h-1.223V61zm14.426.132c1.428 0 2.438-.703 2.728-1.77l-1.206-.217c-.23.618-.784.933-1.51.933-1.09 0-1.824-.707-1.858-1.97h4.654v-.452c0-2.365-1.415-3.3-2.898-3.3-1.824 0-3.026 1.39-3.026 3.4 0 2.033 1.185 3.362 3.115 3.362zm-1.84-3.976c.052-.93.725-1.734 1.76-1.734.99 0 1.637.733 1.64 1.734h-3.4z" class="E"/><g clip-path="url(#A)" class="E"><path d="M186.696 61l.8-2.3h3.41l.797 2.3h1.398l-3.14-8.727h-1.52L185.298 61h1.398zm1.185-3.418l1.287-3.724h.068l1.287 3.724h-2.642zm10.03 3.55c1.546 0 2.548-.93 2.688-2.203h-1.24c-.162.707-.71 1.125-1.44 1.125-1.078 0-1.773-.9-1.773-2.327 0-1.402.708-2.284 1.773-2.284a1.4 1.4 0 0 1 1.44 1.125h1.24c-.136-1.32-1.214-2.2-2.7-2.2-1.845 0-3.04 1.39-3.04 3.388 0 1.973 1.15 3.375 3.052 3.375zm7.808 0c1.547 0 2.548-.93 2.69-2.203h-1.24c-.162.707-.712 1.125-1.44 1.125-1.078 0-1.773-.9-1.773-2.327 0-1.402.707-2.284 1.773-2.284a1.4 1.4 0 0 1 1.44 1.125h1.24c-.136-1.32-1.214-2.2-2.702-2.2-1.845 0-3.038 1.39-3.038 3.388 0 1.973 1.15 3.375 3.05 3.375zm7.81 0c1.845 0 3.05-1.35 3.05-3.375 0-2.037-1.206-3.388-3.05-3.388s-3.05 1.35-3.05 3.388c0 2.024 1.206 3.375 3.05 3.375zm.004-1.07c-1.206 0-1.77-1.053-1.77-2.3s.563-2.318 1.77-2.318c1.197 0 1.76 1.065 1.76 2.318s-.563 2.3-1.76 2.3zm9.615-1.777c.005 1.112-.822 1.64-1.538 1.64-.788 0-1.334-.57-1.334-1.462v-4H219v4.163c0 1.624.89 2.467 2.148 2.467.984 0 1.653-.52 1.956-1.22h.068V61h1.253v-6.545h-1.28v3.83zm5.265-1.172c0-1.044.64-1.64 1.526-1.64.865 0 1.39.567 1.39 1.517v4h1.274v-4.163c0-1.62-.89-2.467-2.23-2.467-.984 0-1.628.456-1.93 1.15h-.08v-1.065h-1.223V61h1.274v-3.886zm9.953-2.66h-1.342v-1.568h-1.274v1.568h-.96v1.023h.96v3.865c-.005 1.19.903 1.764 1.91 1.743.404-.004.677-.08.826-.136l-.23-1.053c-.085.017-.243.055-.447.055-.414 0-.784-.136-.784-.874v-3.6h1.342v-1.023z"/></g><g clip-path="url(#B)" class="E"><path d="M283.96 61h5.523v-1.133h-4.206v-2.672h3.87v-1.13h-3.87v-2.66h4.154v-1.133h-5.47V61zm8.128 0h1.274v-4.035c0-.882.618-1.496 1.342-1.496.708 0 1.198.47 1.198 1.18V61h1.27v-4.172c0-.788.48-1.36 1.312-1.36.674 0 1.228.375 1.228 1.26V61h1.274v-4.39c0-1.496-.835-2.24-2.02-2.24-.942 0-1.65.452-1.965 1.15h-.068c-.285-.716-.886-1.15-1.76-1.15-.865 0-1.508.43-1.78 1.15h-.08v-1.065h-1.223V61zm13.5.145c1.083 0 1.692-.55 1.935-1.04h.05V61h1.244v-4.347c0-1.905-1.5-2.284-2.54-2.284-1.185 0-2.276.477-2.702 1.67l1.197.273c.188-.465.665-.912 1.522-.912.822 0 1.244.43 1.244 1.172v.03c0 .465-.477.456-1.653.592-1.24.145-2.5.47-2.5 1.956 0 1.287.967 1.994 2.21 1.994zm.277-1.023c-.72 0-1.24-.324-1.24-.955 0-.682.605-.925 1.343-1.023.413-.055 1.393-.166 1.576-.35v.844c0 .776-.618 1.483-1.68 1.483zm5.65.878h1.274v-6.545h-1.274V61zm.643-7.555c.44 0 .805-.34.805-.758s-.366-.763-.805-.763-.805.345-.805.763.362.758.805.758zm4.62-1.172h-1.274V61h1.274v-8.727z"/></g><path d="M479.96 61h5.27v-1.133h-3.954v-7.594h-1.317V61zm9.576.145c1.082 0 1.692-.55 1.934-1.04h.052V61h1.244v-4.347c0-1.905-1.5-2.284-2.54-2.284-1.185 0-2.275.477-2.702 1.67l1.198.273c.187-.465.665-.912 1.52-.912.823 0 1.245.43 1.245 1.172v.03c0 .465-.478.456-1.654.592-1.24.145-2.5.47-2.5 1.956 0 1.287.967 1.994 2.212 1.994zm.277-1.023c-.72 0-1.24-.324-1.24-.955 0-.682.605-.925 1.342-1.023.413-.055 1.394-.166 1.577-.35v.844c0 .776-.618 1.483-1.68 1.483zm10.555-4.07c-.264-1.018-1.06-1.683-2.476-1.683-1.48 0-2.527.78-2.527 1.94 0 .93.562 1.547 1.8 1.82l1.108.243c.63.14.924.422.924.83 0 .507-.54.903-1.376.903-.763 0-1.253-.328-1.406-.972l-1.232.188c.213 1.16 1.176 1.8 2.647 1.8 1.58 0 2.676-.84 2.676-2.024 0-.925-.588-1.496-1.8-1.773l-1.04-.24c-.72-.17-1.03-.413-1.027-.857-.004-.503.54-.86 1.266-.86.792 0 1.16.44 1.308.878l1.155-.205zm5.584-1.598H504.6v-1.568h-1.274v1.568h-.96v1.023h.96v3.865c-.005 1.2.903 1.764 1.9 1.743.404-.004.677-.08.826-.136l-.23-1.053c-.085.017-.243.055-.447.055-.414 0-.784-.136-.784-.874v-3.6h1.342v-1.023zm7.86-2.182h-1.274V61h1.274v-8.727zm5.472 8.86c1.845 0 3.05-1.35 3.05-3.375 0-2.037-1.206-3.388-3.05-3.388s-3.052 1.35-3.052 3.388c0 2.024 1.206 3.375 3.052 3.375zm.004-1.07c-1.206 0-1.77-1.053-1.77-2.3s.563-2.318 1.77-2.318c1.197 0 1.76 1.065 1.76 2.318s-.563 2.3-1.76 2.3zm8.213 3.516c1.666 0 2.953-.763 2.953-2.433v-6.7h-1.248v1.06h-.094c-.226-.405-.677-1.146-1.896-1.146-1.58 0-2.745 1.25-2.745 3.332s1.2 3.2 2.736 3.2c1.202 0 1.666-.678 1.897-1.095h.08v1.287c0 1-.704 1.457-1.67 1.457-1.06 0-1.474-.533-1.7-.895l-1.095.452c.345.788 1.218 1.47 2.782 1.47zm-.012-3.733c-1.138 0-1.73-.874-1.73-2.16 0-1.257.58-2.233 1.73-2.233 1.112 0 1.708.908 1.708 2.233 0 1.35-.6 2.16-1.708 2.16zM533.16 61h1.274v-6.545h-1.274V61zm.644-7.555c.44 0 .805-.34.805-.758s-.366-.763-.805-.763-.806.345-.806.763.363.758.806.758zm4.62 3.67c0-1.044.64-1.64 1.525-1.64.865 0 1.4.567 1.4 1.517v4h1.275V56.83c0-1.62-.9-2.467-2.23-2.467-.984 0-1.628.456-1.93 1.15h-.08v-1.065h-1.223V61h1.274v-3.886zm19.276 1.472l-3.333 3.32c-.107.107-.24.16-.374.16s-.266-.053-.373-.16l-3.333-3.32a.537.537 0 1 1 .76-.76l2.426 2.413v-7.773c0-.293.24-.533.534-.533s.533.24.533.533v7.787l2.427-2.413a.53.53 0 0 1 .76 0c.186.2.186.533-.027.747z" class="E"/><path d="M293.074 119h1.173v-4.773c0-1.118.815-1.91 1.73-1.91.9 0 1.512.582 1.512 1.452V119h1.193v-4.972c0-.984.616-1.7 1.7-1.7.835 0 1.55.443 1.55 1.57V119h1.174v-5.11c0-1.795-.965-2.625-2.327-2.625-1.094 0-1.894.502-2.287 1.293h-.08c-.377-.816-1.044-1.293-2.048-1.293-.994 0-1.73.477-2.048 1.293h-.1v-1.193h-1.133V119zm15.27.16c2.068 0 3.46-1.57 3.46-3.937 0-2.387-1.392-3.958-3.46-3.958s-3.46 1.57-3.46 3.958c0 2.366 1.392 3.937 3.46 3.937zm0-1.054c-1.57 0-2.287-1.352-2.287-2.883s.716-2.904 2.287-2.904 2.287 1.372 2.287 2.904-.716 2.883-2.287 2.883zm6.425-3.7c0-1.332.825-2.088 1.95-2.088 1.088 0 1.75.71 1.75 1.91V119h1.173v-4.852c0-1.95-1.04-2.884-2.585-2.884-1.154 0-1.87.517-2.228 1.293h-.1v-1.193h-1.134V119h1.174v-4.594zm7.016 4.594h1.173v-7.636h-1.173V119zm.596-8.91c.458 0 .836-.358.836-.796s-.378-.795-.836-.795-.835.358-.835.795.378.796.835.796zm5.828 9.068c1.69 0 2.804-1.034 3.003-2.386h-1.173c-.22.835-.915 1.332-1.83 1.332-1.392 0-2.287-1.153-2.287-2.923 0-1.73.915-2.864 2.287-2.864 1.034 0 1.65.637 1.83 1.333h1.173c-.2-1.432-1.412-2.387-3.023-2.387-2.068 0-3.44 1.63-3.44 3.958 0 2.287 1.313 3.937 3.46 3.937zm6.966.02c1.332 0 2.028-.716 2.267-1.213h.06V119h1.174v-5.03c0-2.426-1.85-2.705-2.824-2.705-1.154 0-2.466.398-3.063 1.8l1.114.398c.258-.557.87-1.154 1.988-1.154 1.08 0 1.61.572 1.61 1.55v.04c0 .567-.576.517-1.97.696-1.416.184-2.963.497-2.963 2.247 0 1.492 1.154 2.347 2.606 2.347zm.18-1.054c-.935 0-1.61-.418-1.61-1.233 0-.895.815-1.173 1.73-1.293.497-.06 1.83-.198 2.028-.437v1.074c0 .954-.755 1.89-2.147 1.89zm11.33 3.56c1.014 0 2.306-.3 2.923-.557l-.28-.915c-.358.12-1.51.517-2.605.517-3.4 0-5.2-1.91-5.2-5.3 0-3.32 1.85-5.31 4.972-5.31 3.162 0 4.653 2.227 4.653 4.454 0 2.267-.24 3.28-1.253 3.28-.596 0-.915-.497-.915-1.054v-4.494h-1.054v.557h-.06c-.14-.437-.915-.815-1.91-.716-1.492.16-2.625 1.392-2.625 3.182 0 1.89.895 3.34 2.625 3.4 1.133.04 1.73-.517 1.968-1.093h.06c.12.855 1.193 1.153 1.89 1.153 2.108 0 2.307-2.267 2.307-4.196 0-2.724-1.91-5.41-5.628-5.41-3.838 0-6.125 2.327-6.125 6.205 0 4.017 2.208 6.284 6.265 6.284zm-.577-3.958c-1.293 0-1.75-1.173-1.75-2.446 0-1.153.656-2.147 1.8-2.147 1.193 0 1.83.477 1.83 2.147 0 1.65-.537 2.446-1.87 2.446zM357 122.023c1.83 0 3.3-.835 3.3-2.804v-7.855h-1.134v1.213h-.12c-.258-.398-.736-1.313-2.227-1.313-1.93 0-3.262 1.53-3.262 3.878 0 2.386 1.392 3.74 3.242 3.74 1.49 0 1.97-.875 2.227-1.293h.1v1.55c0 1.273-.895 1.85-2.128 1.85-1.387 0-1.875-.73-2.188-1.154l-.934.656c.477.8 1.417 1.532 3.122 1.532zm-.04-4.196c-1.472 0-2.227-1.114-2.227-2.705 0-1.55.736-2.804 2.227-2.804 1.432 0 2.187 1.154 2.187 2.804 0 1.7-.775 2.705-2.187 2.705zm6.662-9.01h-1.173V119h1.173v-10.182zm5.25 10.34c2.068 0 3.46-1.57 3.46-3.937 0-2.387-1.392-3.958-3.46-3.958s-3.46 1.57-3.46 3.958c0 2.366 1.392 3.937 3.46 3.937zm0-1.054c-1.57 0-2.287-1.352-2.287-2.883s.716-2.904 2.287-2.904 2.287 1.372 2.287 2.904-.716 2.883-2.287 2.883zm5.41.895h1.133v-1.173h.14c.26.417.756 1.332 2.228 1.332 1.91 0 3.24-1.53 3.24-3.957 0-2.407-1.332-3.938-3.26-3.938-1.492 0-1.95.915-2.208 1.313h-.1v-3.76h-1.173V119zm1.153-3.818c0-1.7.756-2.864 2.187-2.864 1.492 0 2.228 1.253 2.228 2.864 0 1.63-.756 2.923-2.228 2.923-1.412 0-2.187-1.193-2.187-2.923zm9.63 3.997c1.332 0 2.028-.716 2.267-1.213h.06V119h1.173v-5.03c0-2.426-1.85-2.705-2.824-2.705-1.153 0-2.466.398-3.062 1.8l1.113.398c.26-.557.87-1.154 1.99-1.154 1.08 0 1.61.572 1.61 1.55v.04c0 .567-.577.517-1.97.696-1.417.184-2.963.497-2.963 2.247 0 1.492 1.153 2.347 2.605 2.347zm.18-1.054c-.935 0-1.61-.418-1.61-1.233 0-.895.815-1.173 1.73-1.293.497-.06 1.83-.198 2.03-.437v1.074c0 .954-.756 1.89-2.148 1.89zm6.636-9.307h-1.174V119h1.174v-10.182zM394.2 119h1.133v-1.173h.14c.26.417.756 1.332 2.228 1.332 1.91 0 3.24-1.53 3.24-3.957 0-2.407-1.332-3.938-3.26-3.938-1.492 0-1.95.915-2.208 1.313h-.1v-3.76H394.2V119zm1.153-3.818c0-1.7.756-2.864 2.188-2.864 1.49 0 2.227 1.253 2.227 2.864 0 1.63-.756 2.923-2.227 2.923-1.412 0-2.188-1.193-2.188-2.923zm9.63 3.997c1.333 0 2.03-.716 2.267-1.213h.06V119h1.173v-5.03c0-2.426-1.85-2.705-2.824-2.705-1.153 0-2.466.398-3.062 1.8l1.113.398c.26-.557.87-1.154 1.99-1.154 1.08 0 1.61.572 1.61 1.55v.04c0 .567-.577.517-1.97.696-1.417.184-2.963.497-2.963 2.247 0 1.492 1.153 2.347 2.605 2.347zm.18-1.054c-.935 0-1.61-.418-1.61-1.233 0-.895.816-1.173 1.73-1.293.498-.06 1.83-.198 2.03-.437v1.074c0 .954-.756 1.89-2.148 1.89zm6.636-3.72c0-1.332.825-2.088 1.95-2.088 1.09 0 1.75.71 1.75 1.91V119h1.173v-4.852c0-1.95-1.04-2.884-2.585-2.884-1.154 0-1.87.517-2.227 1.293h-.1v-1.193h-1.133V119h1.173v-4.594zm7.016 4.594h1.173v-2.86l.82-.76 2.858 3.62h1.492l-3.465-4.375 3.226-3.26h-1.45l-3.34 3.4h-.14v-5.946h-1.173V119zm8.47.08a.9.9 0 0 0 .895-.895c0-.493-.402-.895-.895-.895s-.894.402-.894.895.402.895.894.895zm6.103.08c1.7 0 2.804-1.034 3.003-2.386h-1.173c-.22.835-.915 1.332-1.83 1.332-1.392 0-2.287-1.153-2.287-2.923 0-1.73.915-2.864 2.287-2.864 1.034 0 1.65.637 1.83 1.333h1.173c-.2-1.432-1.412-2.387-3.023-2.387-2.068 0-3.44 1.63-3.44 3.958 0 2.287 1.312 3.937 3.46 3.937zm7.82 0c2.07 0 3.46-1.57 3.46-3.937 0-2.387-1.392-3.958-3.46-3.958s-3.46 1.57-3.46 3.958c0 2.366 1.392 3.937 3.46 3.937zm0-1.054c-1.57 0-2.287-1.352-2.287-2.883s.716-2.904 2.287-2.904 2.287 1.372 2.287 2.904-.716 2.883-2.287 2.883zm5.252.895h1.173v-4.773c0-1.118.815-1.91 1.73-1.91.9 0 1.51.582 1.51 1.452V119h1.194v-4.972c0-.984.616-1.7 1.7-1.7.835 0 1.55.443 1.55 1.57V119h1.173v-5.11c0-1.795-.964-2.625-2.326-2.625-1.094 0-1.895.502-2.287 1.293h-.08c-.378-.816-1.044-1.293-2.048-1.293-.994 0-1.73.477-2.048 1.293h-.1v-1.193h-1.133V119z" class="B"/><path d="M194 114c0-6.627 5.373-12 12-12h42c6.627 0 12 5.373 12 12h0c0 6.627-5.373 12-12 12h-42c-6.627 0-12-5.373-12-12h0z" class="C"/><path d="M207.696 118l.8-2.3h3.41l.797 2.3h1.398l-3.14-8.727h-1.52l-3.14 8.727h1.398zm1.185-3.418l1.287-3.724h.068l1.287 3.724h-2.642zm9.723 3.546c1.193 0 1.662-.73 1.892-1.146h.106V118h1.245v-8.727h-1.275v3.243h-.076c-.23-.405-.665-1.147-1.884-1.147-1.58 0-2.744 1.25-2.744 3.37s1.146 3.388 2.736 3.388zm.28-1.087c-1.138 0-1.73-1-1.73-2.314 0-1.3.58-2.275 1.73-2.275 1.112 0 1.71.907 1.71 2.275 0 1.377-.6 2.314-1.71 2.314zm5.78.96h1.274v-4.036c0-.882.618-1.495 1.343-1.495.707 0 1.197.47 1.197 1.18V118h1.27v-4.172c0-.788.48-1.36 1.312-1.36.674 0 1.228.375 1.228 1.26V118h1.274v-4.39c0-1.496-.835-2.242-2.02-2.242-.942 0-1.65.452-1.965 1.15h-.068c-.285-.716-.886-1.15-1.76-1.15-.865 0-1.508.43-1.78 1.15h-.08v-1.065h-1.223V118zm11.606 0h1.274v-6.545h-1.274V118zm.643-7.555c.44 0 .805-.34.805-.76s-.366-.763-.805-.763-.805.345-.805.763.362.76.805.76zm4.62 3.67c0-1.044.64-1.64 1.526-1.64.865 0 1.39.567 1.39 1.517v4h1.274v-4.163c0-1.62-.89-2.468-2.23-2.468-.984 0-1.628.456-1.93 1.15h-.08v-1.065h-1.223V118h1.274v-3.886z" class="D"/><path d="M489.054 119h6.423v-1.094h-4.733v-.08l2.287-2.446c1.75-1.875 2.267-2.75 2.267-3.878 0-1.57-1.272-2.824-3.062-2.824-1.785 0-3.142 1.213-3.142 3.003h1.173c0-1.16.75-1.93 1.93-1.93 1.104 0 1.95.676 1.95 1.75 0 .94-.552 1.635-1.73 2.923l-3.36 3.68V119zm13.607-4.594c0-1.332.85-2.088 2.01-2.088 1.103 0 1.77.696 1.77 1.91V119h1.173v-4.852c0-1.964-1.044-2.884-2.605-2.884-1.203 0-1.89.502-2.247 1.293h-.1v-3.74h-1.173V119h1.173v-4.594zm10.2 4.753c2.068 0 3.46-1.57 3.46-3.937 0-2.387-1.392-3.958-3.46-3.958s-3.46 1.57-3.46 3.958c0 2.366 1.393 3.937 3.46 3.937zm0-1.054c-1.57 0-2.287-1.352-2.287-2.883s.716-2.904 2.287-2.904 2.287 1.372 2.287 2.904-.716 2.883-2.287 2.883zm10.063-2.227c0 1.432-1.093 2.088-1.968 2.088-.975 0-1.67-.716-1.67-1.83v-4.772h-1.173v4.852c0 1.95 1.034 2.883 2.466 2.883 1.153 0 1.91-.616 2.267-1.392h.08V119h1.174v-7.636h-1.174v4.514zm3.323 3.122h1.173v-4.832c0-1.034.815-1.8 1.93-1.8a3.68 3.68 0 0 1 .716.079v-1.193l-.617-.02c-.914 0-1.7.517-1.988 1.273h-.08v-1.153h-1.133V119zm10.618-5.926c-.368-1.084-1.193-1.8-2.705-1.8-1.61 0-2.804.915-2.804 2.208 0 1.054.627 1.76 2.03 2.088l1.272.298c.77.18 1.134.547 1.134 1.074 0 .656-.696 1.193-1.8 1.193-.96 0-1.56-.413-1.77-1.233l-1.113.278c.273 1.298 1.342 1.99 2.903 1.99 1.775 0 2.983-.97 2.983-2.287 0-1.064-.666-1.735-2.028-2.068l-1.134-.278c-.905-.224-1.312-.527-1.312-1.114 0-.656.696-1.134 1.63-1.134 1.024 0 1.447.567 1.65 1.094l1.054-.298zm8.1 6.105c1.332 0 2.028-.716 2.267-1.213h.06V119h1.174v-5.03c0-2.426-1.85-2.705-2.824-2.705-1.153 0-2.466.398-3.063 1.8l1.114.398c.26-.557.87-1.154 1.99-1.154 1.08 0 1.6.572 1.6 1.55v.04c0 .567-.576.517-1.968.696-1.417.184-2.963.497-2.963 2.247 0 1.492 1.153 2.347 2.605 2.347zm.18-1.054c-.935 0-1.61-.418-1.61-1.233 0-.895.815-1.173 1.73-1.293.497-.06 1.83-.198 2.028-.437v1.074c0 .954-.755 1.89-2.147 1.89zm8.545 3.898c1.83 0 3.3-.835 3.3-2.804v-7.855h-1.134v1.213h-.12c-.26-.398-.736-1.313-2.227-1.313-1.93 0-3.262 1.53-3.262 3.878 0 2.386 1.392 3.74 3.242 3.74 1.49 0 1.97-.875 2.227-1.293h.1v1.55c0 1.273-.895 1.85-2.128 1.85-1.387 0-1.875-.73-2.188-1.154l-.934.656c.477.8 1.416 1.532 3.122 1.532zm-.04-4.196c-1.472 0-2.227-1.114-2.227-2.705 0-1.55.735-2.804 2.227-2.804 1.432 0 2.187 1.154 2.187 2.804 0 1.7-.775 2.705-2.187 2.705zm8.59 1.332c2.068 0 3.46-1.57 3.46-3.937 0-2.387-1.392-3.958-3.46-3.958s-3.46 1.57-3.46 3.958c0 2.366 1.392 3.937 3.46 3.937zm0-1.054c-1.57 0-2.287-1.352-2.287-2.883s.716-2.904 2.287-2.904 2.287 1.372 2.287 2.904-.716 2.883-2.287 2.883z" class="B"/><g class="F G H"><path d="M610.616 112.433l-3.05-3.05" class="I"/><use xlink:href="#C"/></g><path d="M40 149.5h592" class="J"/><path d="M77.12 108.818V119h1.462v-7.373h.094l3.003 7.358h1.213l3.003-7.353h.094V119h1.462v-10.182h-1.864l-3.24 7.915h-.12l-3.24-7.915H77.12zm15.662 10.336c2.153 0 3.56-1.576 3.56-3.937 0-2.377-1.407-3.953-3.56-3.953s-3.56 1.576-3.56 3.953c0 2.36 1.407 3.937 3.56 3.937zm.005-1.248c-1.407 0-2.063-1.228-2.063-2.694s.656-2.705 2.063-2.705c1.397 0 2.053 1.243 2.053 2.705s-.656 2.694-2.053 2.694zm6.7-3.44c0-1.218.746-1.914 1.78-1.914 1.01 0 1.62.66 1.62 1.77V119h1.487v-4.857c0-1.89-1.04-2.88-2.6-2.88-1.15 0-1.9.532-2.252 1.343h-.094v-1.243H98V119h1.486v-4.534zm6.88 4.534h1.487v-7.636h-1.487V119zm.75-8.815c.512 0 .94-.397.94-.885s-.428-.89-.94-.89c-.517 0-.94.402-.94.89s.422.885.94.885zm5.952 8.97c1.805 0 2.973-1.084 3.137-2.57h-1.446c-.19.825-.83 1.312-1.68 1.312-1.257 0-2.068-1.05-2.068-2.714 0-1.636.825-2.665 2.068-2.665.945 0 1.522.597 1.68 1.313h1.446c-.16-1.542-1.416-2.566-3.15-2.566-2.153 0-3.545 1.62-3.545 3.953 0 2.3 1.342 3.937 3.56 3.937zm6.95.015c1.263 0 1.974-.64 2.258-1.213h.06V119h1.452v-5.07c0-2.222-1.75-2.665-2.963-2.665-1.382 0-2.655.557-3.152 1.95l1.397.318c.22-.542.775-1.064 1.775-1.064.96 0 1.45.502 1.45 1.368v.034c0 .542-.556.532-1.93.69-1.446.17-2.928.547-2.928 2.282 0 1.502 1.13 2.327 2.58 2.327zm.324-1.193c-.84 0-1.447-.378-1.447-1.114 0-.795.706-1.08 1.566-1.193.482-.065 1.626-.194 1.84-.408v.985c0 .905-.72 1.73-1.958 1.73zm9.25 1.024h1.536v-4.44h5.076V119h1.542v-10.182h-1.542v4.425h-5.076v-4.425h-1.536V119zm12.494.17c1.263 0 1.974-.64 2.257-1.213h.06V119h1.45v-5.07c0-2.222-1.75-2.665-2.963-2.665-1.382 0-2.655.557-3.152 1.95l1.397.318c.22-.542.776-1.064 1.775-1.064.96 0 1.452.502 1.452 1.368v.034c0 .542-.557.532-1.93.69-1.447.17-2.928.547-2.928 2.282 0 1.502 1.128 2.327 2.58 2.327zm.323-1.193c-.84 0-1.447-.378-1.447-1.114 0-.795.706-1.08 1.566-1.193.483-.065 1.626-.194 1.84-.408v.985c0 .905-.72 1.73-1.96 1.73zm6.912-9.158h-1.487V119h1.487v-10.182zm3.486 0h-1.486V119h1.486v-10.182z" class="B"/><circle cx="52" cy="114" r="12" class="C"/><path d="M45.08 111.182V117h.835v-4.213h.054l1.716 4.204h.693l1.716-4.2h.054v4.2h.835v-5.818H49.92l-1.852 4.523h-.068l-1.852-4.523H45.08zM53.26 117h.878v-2.537h2.9V117h.88v-5.818h-.88v2.528h-2.9v-2.528h-.878V117z" class="D"/><path d="M293.074 191h1.173v-4.832c0-1.034.815-1.8 1.93-1.8a3.68 3.68 0 0 1 .716.079v-1.193l-.616-.02c-.915 0-1.71.517-1.99 1.273h-.08v-1.153h-1.133V191zm8.08.16c2.068 0 3.46-1.57 3.46-3.937 0-2.387-1.392-3.958-3.46-3.958s-3.46 1.57-3.46 3.958c0 2.366 1.393 3.937 3.46 3.937zm0-1.054c-1.57 0-2.287-1.352-2.287-2.883s.716-2.904 2.287-2.904 2.287 1.372 2.287 2.904-.716 2.883-2.287 2.883zm6.424-9.287h-1.173V191h1.173v-10.182zm4.396 10.36c1.333 0 2.03-.716 2.267-1.213h.06V191h1.173v-5.03c0-2.426-1.85-2.705-2.823-2.705-1.154 0-2.466.398-3.063 1.8l1.114.398c.258-.557.87-1.154 1.988-1.154 1.08 0 1.61.572 1.61 1.55v.04c0 .567-.577.517-1.97.696-1.417.184-2.963.497-2.963 2.247 0 1.492 1.154 2.347 2.605 2.347zm.18-1.054c-.934 0-1.6-.418-1.6-1.233 0-.895.815-1.173 1.73-1.293.497-.06 1.83-.198 2.028-.437v1.074c0 .954-.756 1.89-2.148 1.89zm6.636-3.72c0-1.332.825-2.088 1.95-2.088 1.09 0 1.75.71 1.75 1.91V191h1.173v-4.852c0-1.95-1.04-2.884-2.585-2.884-1.153 0-1.87.517-2.227 1.293h-.1v-1.193h-1.133V191h1.173v-4.594zm9.9 4.753c1.47 0 1.97-.915 2.227-1.332h.14V191h1.134v-10.182h-1.173v3.76h-.1c-.258-.398-.716-1.313-2.207-1.313-1.93 0-3.262 1.53-3.262 3.938 0 2.426 1.333 3.957 3.242 3.957zm.16-1.054c-1.472 0-2.227-1.293-2.227-2.923 0-1.61.735-2.864 2.227-2.864 1.432 0 2.187 1.154 2.187 2.864 0 1.73-.775 2.923-2.187 2.923zm11.52 3.58c1.014 0 2.307-.3 2.923-.557l-.278-.915c-.358.12-1.51.517-2.605.517-3.4 0-5.2-1.91-5.2-5.3 0-3.32 1.85-5.31 4.97-5.31 3.162 0 4.654 2.227 4.654 4.454 0 2.267-.24 3.28-1.253 3.28-.597 0-.915-.497-.915-1.054v-4.494H341.6v.557h-.06c-.14-.437-.914-.815-1.91-.716-1.49.16-2.625 1.392-2.625 3.182 0 1.89.895 3.34 2.625 3.4 1.134.04 1.73-.517 1.97-1.093h.06c.12.855 1.193 1.153 1.89 1.153 2.108 0 2.307-2.267 2.307-4.196 0-2.724-1.91-5.41-5.628-5.41-3.838 0-6.125 2.327-6.125 6.205 0 4.017 2.207 6.284 6.264 6.284zm-.577-3.958c-1.292 0-1.75-1.173-1.75-2.446 0-1.153.657-2.147 1.8-2.147 1.193 0 1.83.477 1.83 2.147 0 1.65-.537 2.446-1.87 2.446zm10.904 4.296c1.83 0 3.3-.835 3.3-2.804v-7.855h-1.133v1.213h-.12c-.26-.398-.736-1.313-2.228-1.313-1.93 0-3.26 1.53-3.26 3.878 0 2.386 1.392 3.74 3.24 3.74 1.492 0 1.97-.875 2.228-1.293h.1v1.55c0 1.273-.895 1.85-2.128 1.85-1.387 0-1.874-.73-2.187-1.154l-.935.656c.477.8 1.417 1.532 3.122 1.532zm-.04-4.196c-1.472 0-2.228-1.114-2.228-2.705 0-1.55.736-2.804 2.228-2.804 1.43 0 2.187 1.154 2.187 2.804 0 1.7-.775 2.705-2.187 2.705zm6.662-9.01h-1.174V191h1.174v-10.182zm5.25 10.34c2.068 0 3.46-1.57 3.46-3.937 0-2.387-1.392-3.958-3.46-3.958s-3.46 1.57-3.46 3.958c0 2.366 1.392 3.937 3.46 3.937zm0-1.054c-1.57 0-2.287-1.352-2.287-2.883s.716-2.904 2.287-2.904 2.287 1.372 2.287 2.904-.716 2.883-2.287 2.883zm5.4.895h1.134v-1.173h.14c.258.417.756 1.332 2.227 1.332 1.91 0 3.242-1.53 3.242-3.957 0-2.407-1.333-3.938-3.262-3.938-1.49 0-1.95.915-2.207 1.313h-.1v-3.76h-1.173V191zm1.154-3.818c0-1.7.755-2.864 2.187-2.864 1.49 0 2.227 1.253 2.227 2.864 0 1.63-.755 2.923-2.227 2.923-1.412 0-2.187-1.193-2.187-2.923zm9.63 3.997c1.333 0 2.03-.716 2.268-1.213h.06V191h1.173v-5.03c0-2.426-1.85-2.705-2.823-2.705-1.154 0-2.466.398-3.063 1.8l1.114.398c.258-.557.87-1.154 1.988-1.154 1.08 0 1.61.572 1.61 1.55v.04c0 .567-.577.517-1.97.696-1.416.184-2.963.497-2.963 2.247 0 1.492 1.154 2.347 2.605 2.347zm.18-1.054c-.934 0-1.6-.418-1.6-1.233 0-.895.815-1.173 1.73-1.293.497-.06 1.83-.198 2.028-.437v1.074c0 .954-.756 1.89-2.148 1.89zm6.636-9.307h-1.173V191h1.173v-10.182zM387.883 191h1.134v-1.173h.14c.26.417.756 1.332 2.227 1.332 1.91 0 3.242-1.53 3.242-3.957 0-2.407-1.333-3.938-3.262-3.938-1.49 0-1.948.915-2.207 1.313h-.1v-3.76h-1.174V191zm1.154-3.818c0-1.7.755-2.864 2.187-2.864 1.492 0 2.228 1.253 2.228 2.864 0 1.63-.756 2.923-2.228 2.923-1.412 0-2.187-1.193-2.187-2.923zm9.63 3.997c1.332 0 2.028-.716 2.267-1.213h.06V191h1.174v-5.03c0-2.426-1.85-2.705-2.824-2.705-1.154 0-2.466.398-3.063 1.8l1.114.398c.26-.557.87-1.154 1.99-1.154 1.078 0 1.6.572 1.6 1.55v.04c0 .567-.576.517-1.968.696-1.417.184-2.963.497-2.963 2.247 0 1.492 1.153 2.347 2.605 2.347zm.18-1.054c-.935 0-1.61-.418-1.61-1.233 0-.895.815-1.173 1.73-1.293.497-.06 1.83-.198 2.028-.437v1.074c0 .954-.755 1.89-2.147 1.89zm6.636-3.72c0-1.332.825-2.088 1.948-2.088 1.09 0 1.75.71 1.75 1.91V191h1.174v-4.852c0-1.95-1.04-2.884-2.586-2.884-1.153 0-1.87.517-2.227 1.293h-.1v-1.193h-1.134V191h1.174v-4.594zm7.016 4.594h1.173v-2.86l.82-.76 2.86 3.62h1.49l-3.465-4.375 3.227-3.26h-1.452l-3.34 3.4h-.14v-5.946h-1.173V191zm8.47.08a.9.9 0 0 0 .895-.895.9.9 0 0 0-.895-.895.9.9 0 0 0-.895.895.9.9 0 0 0 .895.895zm6.103.08c1.7 0 2.804-1.034 3.003-2.386H428.9c-.22.835-.915 1.332-1.83 1.332-1.392 0-2.287-1.153-2.287-2.923 0-1.73.915-2.864 2.287-2.864 1.034 0 1.65.637 1.83 1.333h1.174c-.2-1.432-1.412-2.387-3.023-2.387-2.068 0-3.44 1.63-3.44 3.958 0 2.287 1.313 3.937 3.46 3.937zm7.82 0c2.068 0 3.46-1.57 3.46-3.937 0-2.387-1.392-3.958-3.46-3.958s-3.46 1.57-3.46 3.958c0 2.366 1.392 3.937 3.46 3.937zm0-1.054c-1.57 0-2.287-1.352-2.287-2.883s.716-2.904 2.287-2.904 2.287 1.372 2.287 2.904-.716 2.883-2.287 2.883zm5.25.895h1.174v-4.773c0-1.118.815-1.91 1.73-1.91.9 0 1.51.582 1.51 1.452V191h1.193v-4.972c0-.984.617-1.7 1.69-1.7.835 0 1.55.443 1.55 1.57V191h1.173v-5.11c0-1.795-.965-2.625-2.327-2.625-1.094 0-1.894.502-2.287 1.293h-.08c-.378-.816-1.044-1.293-2.05-1.293-.994 0-1.73.477-2.048 1.293h-.1v-1.193h-1.134V191z" class="B"/><use xlink:href="#D" class="C"/><path d="M209.996 190.144c-.6 0-1.144-.116-1.632-.348-.48-.24-.864-.604-1.152-1.092-.28-.488-.42-1.108-.42-1.86V181.6h1.272v5.256c0 .736.176 1.276.528 1.62s.828.516 1.428.516c.592 0 1.064-.172 1.416-.516s.528-.884.528-1.62V181.6h1.272v5.244c0 .752-.148 1.372-.444 1.86-.288.488-.68.852-1.176 1.092-.488.232-1.028.348-1.62.348zm8.2 0c-.752 0-1.372-.184-1.86-.552s-.768-.856-.84-1.464h1.284c.064.272.216.508.456.708.24.192.556.288.948.288.384 0 .664-.08.84-.24s.264-.344.264-.552c0-.304-.124-.508-.372-.612-.24-.112-.576-.212-1.008-.3-.336-.072-.672-.168-1.008-.288-.328-.12-.604-.288-.828-.504-.216-.224-.324-.524-.324-.9 0-.52.2-.952.6-1.296.4-.352.96-.528 1.68-.528.664 0 1.2.16 1.608.48.416.32.66.772.732 1.356h-1.224c-.04-.256-.16-.456-.36-.6-.192-.144-.452-.216-.78-.216-.32 0-.568.068-.744.204-.176.128-.264.296-.264.504s.12.372.36.492c.248.12.572.228.972.324a9.1 9.1 0 0 1 1.104.312 1.91 1.91 0 0 1 .828.504c.208.224.312.552.312.984.008.544-.204.996-.636 1.356-.424.36-1.004.54-1.74.54zm7.548 0c-.584 0-1.104-.128-1.56-.384a2.83 2.83 0 0 1-1.056-1.092c-.256-.464-.384-1.004-.384-1.62 0-.624.124-1.172.372-1.644.256-.472.608-.84 1.056-1.104.456-.264.984-.396 1.584-.396.584 0 1.092.132 1.524.396.432.256.768.6 1.008 1.032a2.89 2.89 0 0 1 .36 1.428l-.012.264-.012.3h-4.632c.04.576.228 1.016.564 1.32.344.296.74.444 1.188.444.36 0 .66-.08.9-.24.248-.168.432-.392.552-.672h1.272c-.16.56-.48 1.028-.96 1.404-.472.376-1.06.564-1.764.564zm0-5.196c-.424 0-.8.128-1.128.384-.328.248-.528.624-.6 1.128h3.36c-.024-.464-.188-.832-.492-1.104s-.684-.408-1.14-.408zm5.224 5.052v-5.952h1.14l.108 1.128c.208-.392.496-.7.864-.924.376-.232.828-.348 1.356-.348v1.332h-.348c-.352 0-.668.06-.948.18-.272.112-.492.308-.66.588-.16.272-.24.652-.24 1.14V190h-1.272z" class="D"/><path d="M492.634 180.818H491.4l-2.546 1.69v1.252l2.486-1.65h.06V191h1.233v-10.182zm2.69 8.094h4.793V191h1.173v-2.088h1.392v-1.094h-1.392v-7h-1.49l-4.475 7.08v1.014zm4.793-1.094h-3.46v-.08l3.38-5.35h.08v5.43zm9.56-1.412c0-1.332.85-2.088 2.008-2.088 1.104 0 1.77.696 1.77 1.91V191h1.174v-4.852c0-1.964-1.044-2.884-2.606-2.884-1.203 0-1.89.502-2.247 1.293h-.1v-3.74h-1.173V191h1.173v-4.594zm10.2 4.753c2.07 0 3.46-1.57 3.46-3.937 0-2.387-1.392-3.958-3.46-3.958s-3.46 1.57-3.46 3.958c0 2.366 1.392 3.937 3.46 3.937zm0-1.054c-1.57 0-2.287-1.352-2.287-2.883s.716-2.904 2.287-2.904 2.287 1.372 2.287 2.904-.716 2.883-2.287 2.883zm10.064-2.227c0 1.432-1.094 2.088-1.97 2.088-.974 0-1.67-.716-1.67-1.83v-4.772h-1.173v4.852c0 1.95 1.034 2.883 2.466 2.883 1.153 0 1.91-.616 2.267-1.392h.08V191h1.173v-7.636h-1.173v4.514zM533.26 191h1.174v-4.832c0-1.034.815-1.8 1.93-1.8a3.68 3.68 0 0 1 .716.079v-1.193l-.617-.02c-.915 0-1.7.517-1.99 1.273h-.08v-1.153h-1.134V191zm10.618-5.926c-.367-1.084-1.193-1.8-2.704-1.8-1.61 0-2.804.915-2.804 2.208 0 1.054.626 1.76 2.028 2.088l1.273.298c.77.18 1.134.547 1.134 1.074 0 .656-.696 1.193-1.8 1.193-.96 0-1.56-.413-1.77-1.233l-1.114.278c.274 1.298 1.343 1.99 2.904 1.99 1.775 0 2.983-.97 2.983-2.287 0-1.064-.667-1.735-2.03-2.068l-1.133-.278c-.905-.224-1.313-.527-1.313-1.114 0-.656.696-1.134 1.63-1.134 1.024 0 1.447.567 1.65 1.094l1.054-.298zm8.1 6.105c1.333 0 2.03-.716 2.268-1.213h.06V191h1.173v-5.03c0-2.426-1.85-2.705-2.823-2.705-1.154 0-2.466.398-3.063 1.8l1.114.398c.258-.557.87-1.154 1.988-1.154 1.08 0 1.61.572 1.61 1.55v.04c0 .567-.577.517-1.97.696-1.416.184-2.963.497-2.963 2.247 0 1.492 1.154 2.347 2.605 2.347zm.18-1.054c-.934 0-1.6-.418-1.6-1.233 0-.895.815-1.173 1.73-1.293.497-.06 1.83-.198 2.028-.437v1.074c0 .954-.756 1.89-2.148 1.89zm8.545 3.898c1.83 0 3.3-.835 3.3-2.804v-7.855h-1.133v1.213h-.12c-.26-.398-.736-1.313-2.228-1.313-1.93 0-3.26 1.53-3.26 3.878 0 2.386 1.392 3.74 3.24 3.74 1.492 0 1.97-.875 2.228-1.293h.1v1.55c0 1.273-.895 1.85-2.128 1.85-1.387 0-1.874-.73-2.187-1.154l-.935.656c.477.8 1.417 1.532 3.122 1.532zm-.04-4.196c-1.472 0-2.228-1.114-2.228-2.705 0-1.55.736-2.804 2.228-2.804 1.43 0 2.187 1.154 2.187 2.804 0 1.7-.775 2.705-2.187 2.705zm8.6 1.332c2.07 0 3.46-1.57 3.46-3.937 0-2.387-1.392-3.958-3.46-3.958s-3.46 1.57-3.46 3.958c0 2.366 1.392 3.937 3.46 3.937zm0-1.054c-1.57 0-2.286-1.352-2.286-2.883s.715-2.904 2.286-2.904 2.287 1.372 2.287 2.904-.715 2.883-2.287 2.883z" class="B"/><g class="F G H"><path d="M610.616 184.433l-3.05-3.05" class="I"/><use xlink:href="#C" y="72"/></g><path d="M40 221.5h592" class="J"/><path d="M77.12 191h1.536v-3.853h2.188L82.91 191h1.75l-2.257-4.12c1.248-.463 1.87-1.502 1.87-2.87 0-1.874-1.163-3.192-3.525-3.192h-3.63V191zm1.536-5.175v-3.69h1.93c1.516 0 2.143.72 2.143 1.874s-.627 1.815-2.123 1.815h-1.95zm10.49 5.33c2.153 0 3.56-1.576 3.56-3.937 0-2.377-1.407-3.953-3.56-3.953s-3.56 1.576-3.56 3.953c0 2.36 1.407 3.937 3.56 3.937zm.005-1.248c-1.407 0-2.063-1.228-2.063-2.694s.656-2.705 2.063-2.705c1.397 0 2.053 1.243 2.053 2.705s-.656 2.694-2.053 2.694zm6.7-9.088h-1.487V191h1.487v-10.182zm4.222 10.35c1.263 0 1.974-.64 2.257-1.213h.06V191h1.452v-5.07c0-2.222-1.75-2.665-2.963-2.665-1.382 0-2.655.557-3.152 1.95l1.397.318c.22-.542.776-1.064 1.774-1.064.96 0 1.452.502 1.452 1.368v.034c0 .542-.557.532-1.93.69-1.447.17-2.928.547-2.928 2.282 0 1.502 1.13 2.327 2.58 2.327zm.323-1.193c-.84 0-1.446-.378-1.446-1.114 0-.795.706-1.08 1.566-1.193.482-.065 1.625-.194 1.84-.408v.985c0 .905-.72 1.73-1.96 1.73zm6.912-3.5c0-1.218.746-1.914 1.78-1.914 1.01 0 1.62.66 1.62 1.77V191h1.486v-4.857c0-1.89-1.04-2.88-2.6-2.88-1.148 0-1.9.532-2.252 1.343h-.095v-1.243h-1.426V191h1.486v-4.534zm9.74 4.683c1.393 0 1.94-.85 2.208-1.337h.124V191h1.452v-10.182h-1.487v3.784h-.09c-.27-.473-.776-1.338-2.198-1.338-1.844 0-3.2 1.457-3.2 3.933s1.337 3.952 3.19 3.952zm.33-1.268c-1.328 0-2.02-1.168-2.02-2.7 0-1.517.676-2.655 2.02-2.655 1.297 0 1.993 1.06 1.993 2.655 0 1.606-.71 2.7-1.993 2.7zm8.9-7.74h3.172V191h1.53v-8.86h3.177v-1.323h-7.88v1.323zm9.502 8.86h1.486v-7.636h-1.486V191zm.75-8.815c.512 0 .94-.397.94-.885s-.428-.89-.94-.89-.94.402-.94.89.422.885.94.885zm4.223 4.28c0-1.218.745-1.914 1.78-1.914 1 0 1.62.66 1.62 1.77V191h1.487v-4.857c0-1.89-1.04-2.88-2.6-2.88-1.148 0-1.9.532-2.252 1.343h-.094v-1.243h-1.427V191h1.487v-4.534zm10.082 7.542c1.944 0 3.445-.9 3.445-2.84v-7.805h-1.456v1.238h-.1c-.263-.473-.8-1.338-2.212-1.338-1.845 0-3.202 1.457-3.202 3.888 0 2.436 1.387 3.734 3.192 3.734 1.402 0 1.944-.79 2.212-1.278h.095v1.5c0 1.18-.82 1.7-1.95 1.7-1.238 0-1.72-.622-1.984-1.044l-1.278.527c.403.92 1.422 1.715 3.247 1.715zm-.015-4.355c-1.327 0-2.018-1.02-2.018-2.52 0-1.467.676-2.605 2.018-2.605 1.298 0 1.994 1.06 1.994 2.605 0 1.576-.71 2.52-1.994 2.52zm11.176-4.425c-.308-1.188-1.238-1.964-2.888-1.964-1.726 0-2.95.9-2.95 2.262 0 1.084.657 1.805 2.09 2.123l1.292.284c.736.164 1.08.492 1.08.97 0 .592-.63 1.054-1.606 1.054-.9 0-1.46-.383-1.64-1.134l-1.437.22c.248 1.352 1.372 2.113 3.087 2.113 1.845 0 3.122-.98 3.122-2.36 0-1.08-.686-1.745-2.088-2.07l-1.213-.278c-.84-.2-1.203-.482-1.198-1-.005-.587.63-1.005 1.477-1.005.924 0 1.352.513 1.526 1.025l1.347-.24z" class="B"/><g fill="#a02c80"><circle cx="52" cy="186" r="12" class="K"/><path d="M46.456 189h.878v-2.202h1.25L49.765 189h1l-1.3-2.355c.713-.264 1.068-.858 1.068-1.64 0-1.07-.665-1.824-2.014-1.824h-2.074V189zm.878-2.957v-2.108h1.102c.867 0 1.225.412 1.225 1.07s-.358 1.037-1.213 1.037h-1.114zm4.99-2.105h1.813V189h.875v-5.062h1.815v-.756h-4.503v.756z"/></g><path d="M293.074 263h1.173v-4.773c0-1.118.815-1.91 1.73-1.91.9 0 1.512.582 1.512 1.452V263h1.193v-4.972c0-.984.616-1.7 1.7-1.7.835 0 1.55.443 1.55 1.57V263h1.174v-5.11c0-1.795-.965-2.625-2.327-2.625-1.094 0-1.894.502-2.287 1.293h-.08c-.377-.816-1.044-1.293-2.048-1.293-.994 0-1.73.477-2.048 1.293h-.1v-1.193h-1.133V263zm14.415.18c1.332 0 2.028-.716 2.267-1.213h.06V263h1.173v-5.03c0-2.426-1.85-2.705-2.824-2.705-1.153 0-2.466.398-3.062 1.8l1.113.398c.26-.557.87-1.154 1.99-1.154 1.08 0 1.61.572 1.61 1.55v.04c0 .567-.577.517-1.97.696-1.417.184-2.963.497-2.963 2.247 0 1.492 1.153 2.347 2.605 2.347zm.18-1.054c-.935 0-1.61-.418-1.61-1.233 0-.895.816-1.173 1.73-1.293.497-.06 1.83-.198 2.03-.437v1.074c0 .954-.756 1.89-2.148 1.89zm8.545 3.898c1.83 0 3.3-.835 3.3-2.804v-7.855h-1.133v1.213h-.12c-.258-.398-.736-1.313-2.227-1.313-1.93 0-3.26 1.53-3.26 3.878 0 2.386 1.392 3.74 3.24 3.74 1.492 0 1.97-.875 2.227-1.293h.1v1.55c0 1.273-.895 1.85-2.128 1.85-1.387 0-1.874-.73-2.188-1.154l-.934.656c.477.8 1.417 1.532 3.122 1.532zm-.04-4.196c-1.47 0-2.227-1.114-2.227-2.705 0-1.55.736-2.804 2.227-2.804 1.432 0 2.188 1.154 2.188 2.804 0 1.7-.776 2.705-2.188 2.705zm8.57 4.196c1.83 0 3.3-.835 3.3-2.804v-7.855h-1.133v1.213h-.12c-.258-.398-.735-1.313-2.227-1.313-1.93 0-3.26 1.53-3.26 3.878 0 2.386 1.392 3.74 3.24 3.74 1.492 0 1.97-.875 2.228-1.293h.1v1.55c0 1.273-.895 1.85-2.128 1.85-1.387 0-1.874-.73-2.187-1.154l-.935.656c.477.8 1.417 1.532 3.122 1.532zm-.04-4.196c-1.47 0-2.227-1.114-2.227-2.705 0-1.55.736-2.804 2.227-2.804 1.432 0 2.188 1.154 2.188 2.804 0 1.7-.776 2.705-2.188 2.705zm5.49 1.173h1.173v-7.636h-1.173V263zm.597-8.91c.457 0 .835-.358.835-.796s-.378-.795-.835-.795-.836.358-.836.795.378.796.836.796zm5.927 9.068c1.55 0 2.685-.775 3.043-1.93l-1.134-.318c-.298.795-.99 1.193-1.91 1.193-1.377 0-2.327-.9-2.38-2.525h5.543v-.498c0-2.843-1.7-3.818-3.28-3.818-2.07 0-3.44 1.63-3.44 3.977s1.353 3.918 3.56 3.918zm-2.38-4.594c.08-1.188.92-2.247 2.262-2.247 1.272 0 2.088.955 2.088 2.247h-4.35zm13.194 7.12c1.014 0 2.307-.3 2.923-.557l-.278-.915c-.358.12-1.51.517-2.605.517-3.4 0-5.2-1.91-5.2-5.3 0-3.32 1.85-5.31 4.97-5.31 3.162 0 4.654 2.227 4.654 4.454 0 2.267-.24 3.28-1.253 3.28-.597 0-.915-.497-.915-1.054v-4.494h-1.054v.557h-.06c-.14-.437-.914-.815-1.91-.716-1.49.16-2.625 1.392-2.625 3.182 0 1.89.895 3.34 2.625 3.4 1.134.04 1.73-.517 1.97-1.093h.06c.12.855 1.193 1.153 1.89 1.153 2.108 0 2.307-2.267 2.307-4.196 0-2.724-1.91-5.41-5.628-5.41-3.838 0-6.125 2.327-6.125 6.205 0 4.017 2.207 6.284 6.264 6.284zm-.577-3.958c-1.292 0-1.75-1.173-1.75-2.446 0-1.153.657-2.147 1.8-2.147 1.193 0 1.83.477 1.83 2.147 0 1.65-.537 2.446-1.87 2.446zm10.904 4.296c1.83 0 3.302-.835 3.302-2.804v-7.855h-1.134v1.213h-.12c-.26-.398-.736-1.313-2.228-1.313-1.93 0-3.26 1.53-3.26 3.878 0 2.386 1.392 3.74 3.242 3.74 1.49 0 1.968-.875 2.227-1.293h.1v1.55c0 1.273-.895 1.85-2.128 1.85-1.387 0-1.874-.73-2.187-1.154l-.935.656c.478.8 1.417 1.532 3.122 1.532zm-.04-4.196c-1.472 0-2.228-1.114-2.228-2.705 0-1.55.736-2.804 2.228-2.804 1.43 0 2.187 1.154 2.187 2.804 0 1.7-.775 2.705-2.187 2.705zm6.662-9.01h-1.174V263h1.174v-10.182zm5.25 10.34c2.068 0 3.46-1.57 3.46-3.937 0-2.387-1.392-3.958-3.46-3.958s-3.46 1.57-3.46 3.958c0 2.366 1.392 3.937 3.46 3.937zm0-1.054c-1.57 0-2.287-1.352-2.287-2.883s.716-2.904 2.287-2.904 2.287 1.372 2.287 2.904-.716 2.883-2.287 2.883zm5.4.895h1.134v-1.173h.14c.258.417.756 1.332 2.227 1.332 1.91 0 3.242-1.53 3.242-3.957 0-2.407-1.333-3.938-3.262-3.938-1.49 0-1.95.915-2.207 1.313h-.1v-3.76h-1.173V263zm1.154-3.818c0-1.7.755-2.864 2.187-2.864 1.492 0 2.227 1.253 2.227 2.864 0 1.63-.755 2.923-2.227 2.923-1.412 0-2.187-1.193-2.187-2.923zm9.63 3.997c1.332 0 2.028-.716 2.267-1.213h.06V263h1.174v-5.03c0-2.426-1.85-2.705-2.824-2.705-1.154 0-2.466.398-3.063 1.8l1.114.398c.258-.557.87-1.154 1.988-1.154 1.08 0 1.61.572 1.61 1.55v.04c0 .567-.576.517-1.97.696-1.416.184-2.963.497-2.963 2.247 0 1.492 1.154 2.347 2.606 2.347zm.18-1.054c-.935 0-1.61-.418-1.61-1.233 0-.895.815-1.173 1.73-1.293.497-.06 1.83-.198 2.028-.437v1.074c0 .954-.755 1.89-2.147 1.89zm6.635-9.307h-1.173V263h1.173v-10.182zM395.047 263h1.134v-1.173h.14c.26.417.756 1.332 2.227 1.332 1.91 0 3.242-1.53 3.242-3.957 0-2.407-1.333-3.938-3.26-3.938-1.492 0-1.95.915-2.208 1.313h-.1v-3.76h-1.174V263zm1.154-3.818c0-1.7.755-2.864 2.187-2.864 1.492 0 2.228 1.253 2.228 2.864 0 1.63-.756 2.923-2.228 2.923-1.412 0-2.187-1.193-2.187-2.923zm9.63 3.997c1.332 0 2.028-.716 2.267-1.213h.06V263h1.174v-5.03c0-2.426-1.85-2.705-2.824-2.705-1.153 0-2.466.398-3.063 1.8l1.114.398c.26-.557.87-1.154 1.99-1.154 1.08 0 1.6.572 1.6 1.55v.04c0 .567-.576.517-1.968.696-1.417.184-2.963.497-2.963 2.247 0 1.492 1.153 2.347 2.605 2.347zm.18-1.054c-.935 0-1.61-.418-1.61-1.233 0-.895.815-1.173 1.73-1.293.497-.06 1.83-.198 2.028-.437v1.074c0 .954-.755 1.89-2.147 1.89zm6.636-3.72c0-1.332.825-2.088 1.948-2.088 1.09 0 1.75.71 1.75 1.91V263h1.174v-4.852c0-1.95-1.04-2.884-2.585-2.884-1.154 0-1.87.517-2.228 1.293h-.1v-1.193h-1.134V263h1.174v-4.594zm7.016 4.594h1.173v-2.86l.82-.76 2.86 3.62h1.492l-3.466-4.375 3.227-3.26h-1.452l-3.34 3.4h-.14v-5.946h-1.173V263zm8.47.08a.9.9 0 0 0 .895-.895.9.9 0 0 0-.895-.895.9.9 0 0 0-.895.895.9.9 0 0 0 .895.895zm6.103.08c1.7 0 2.804-1.034 3.003-2.386h-1.174c-.218.835-.914 1.332-1.83 1.332-1.392 0-2.287-1.153-2.287-2.923 0-1.73.915-2.864 2.287-2.864 1.034 0 1.65.637 1.83 1.333h1.174c-.2-1.432-1.412-2.387-3.023-2.387-2.068 0-3.44 1.63-3.44 3.958 0 2.287 1.312 3.937 3.46 3.937zm7.82 0c2.068 0 3.46-1.57 3.46-3.937 0-2.387-1.392-3.958-3.46-3.958s-3.46 1.57-3.46 3.958c0 2.366 1.392 3.937 3.46 3.937zm0-1.054c-1.57 0-2.287-1.352-2.287-2.883s.716-2.904 2.287-2.904 2.287 1.372 2.287 2.904-.716 2.883-2.287 2.883zm5.25.895h1.174v-4.773c0-1.118.815-1.91 1.73-1.91.9 0 1.51.582 1.51 1.452V263h1.193v-4.972c0-.984.617-1.7 1.69-1.7.835 0 1.55.443 1.55 1.57V263h1.173v-5.11c0-1.795-.964-2.625-2.327-2.625-1.093 0-1.894.502-2.287 1.293h-.08c-.378-.816-1.044-1.293-2.048-1.293-.995 0-1.73.477-2.05 1.293h-.1v-1.193h-1.134V263z" class="B"/><a href="mailto:maggie@globalbank.com"><path fill="#000" fill-opacity="0" d="M0-.472h166.403v16.943H0z"/></a><use xlink:href="#D" y="72" class="C"/><path d="M209.996 262.144c-.6 0-1.144-.116-1.632-.348-.48-.24-.864-.604-1.152-1.092-.28-.488-.42-1.108-.42-1.86V253.6h1.272v5.256c0 .736.176 1.276.528 1.62s.828.516 1.428.516c.592 0 1.064-.172 1.416-.516s.528-.884.528-1.62V253.6h1.272v5.244c0 .752-.148 1.372-.444 1.86-.288.488-.68.852-1.176 1.092-.488.232-1.028.348-1.62.348zm8.2 0c-.752 0-1.372-.184-1.86-.552s-.768-.856-.84-1.464h1.284c.064.272.216.508.456.708.24.192.556.288.948.288.384 0 .664-.08.84-.24s.264-.344.264-.552c0-.304-.124-.508-.372-.612-.24-.112-.576-.212-1.008-.3-.336-.072-.672-.168-1.008-.288-.328-.12-.604-.288-.828-.504-.216-.224-.324-.524-.324-.9 0-.52.2-.952.6-1.296.4-.352.96-.528 1.68-.528.664 0 1.2.16 1.608.48.416.32.66.772.732 1.356h-1.224c-.04-.256-.16-.456-.36-.6-.192-.144-.452-.216-.78-.216-.32 0-.568.068-.744.204-.176.128-.264.296-.264.504s.12.372.36.492c.248.12.572.228.972.324a9.1 9.1 0 0 1 1.104.312 1.91 1.91 0 0 1 .828.504c.208.224.312.552.312.984.008.544-.204.996-.636 1.356-.424.36-1.004.54-1.74.54zm7.548 0c-.584 0-1.104-.128-1.56-.384a2.83 2.83 0 0 1-1.056-1.092c-.256-.464-.384-1.004-.384-1.62 0-.624.124-1.172.372-1.644.256-.472.608-.84 1.056-1.104.456-.264.984-.396 1.584-.396.584 0 1.092.132 1.524.396.432.256.768.6 1.008 1.032a2.89 2.89 0 0 1 .36 1.428l-.012.264-.012.3h-4.632c.04.576.228 1.016.564 1.32.344.296.74.444 1.188.444.36 0 .66-.08.9-.24.248-.168.432-.392.552-.672h1.272c-.16.56-.48 1.028-.96 1.404-.472.376-1.06.564-1.764.564zm0-5.196c-.424 0-.8.128-1.128.384-.328.248-.528.624-.6 1.128h3.36c-.024-.464-.188-.832-.492-1.104s-.684-.408-1.14-.408zm5.224 5.052v-5.952h1.14l.108 1.128c.208-.392.496-.7.864-.924.376-.232.828-.348 1.356-.348v1.332h-.348c-.352 0-.668.06-.948.18-.272.112-.492.308-.66.588-.16.272-.24.652-.24 1.14V262h-1.272z" class="D"/><path d="M489.054 263h6.423v-1.094h-4.733v-.08l2.287-2.446c1.75-1.875 2.267-2.75 2.267-3.878 0-1.57-1.272-2.824-3.062-2.824-1.785 0-3.142 1.213-3.142 3.003h1.173c0-1.16.75-1.93 1.93-1.93 1.104 0 1.95.676 1.95 1.75 0 .94-.552 1.635-1.73 2.923l-3.36 3.68V263zm15.317.16c1.472 0 1.97-.915 2.228-1.332h.14V263h1.133v-10.182h-1.173v3.76h-.1c-.26-.398-.716-1.313-2.208-1.313-1.93 0-3.26 1.53-3.26 3.938 0 2.426 1.332 3.957 3.24 3.957zm.16-1.054c-1.472 0-2.228-1.293-2.228-2.923 0-1.61.736-2.864 2.228-2.864 1.43 0 2.187 1.154 2.187 2.864 0 1.73-.776 2.923-2.187 2.923zm7.9 1.074c1.333 0 2.03-.716 2.267-1.213h.06V263h1.173v-5.03c0-2.426-1.85-2.705-2.823-2.705-1.154 0-2.466.398-3.063 1.8l1.114.398c.258-.557.87-1.154 1.988-1.154 1.08 0 1.61.572 1.61 1.55v.04c0 .567-.577.517-1.97.696-1.417.184-2.963.497-2.963 2.247 0 1.492 1.154 2.347 2.605 2.347zm.18-1.054c-.934 0-1.6-.418-1.6-1.233 0-.895.815-1.173 1.73-1.293.497-.06 1.83-.198 2.028-.437v1.074c0 .954-.756 1.89-2.148 1.89zm5.945 3.72c1.06 0 1.8-.562 2.247-1.73l3.252-8.73-1.283-.02-2.108 6.085h-.08l-2.108-6.085h-1.273l2.824 7.676-.22.596c-.418 1.144-.955 1.253-1.8 1.034l-.298 1.035c.12.06.457.14.855.14zm12.46-8.77c-.368-1.084-1.193-1.8-2.704-1.8-1.61 0-2.804.915-2.804 2.208 0 1.054.626 1.76 2.028 2.088l1.273.298c.77.18 1.133.547 1.133 1.074 0 .656-.696 1.193-1.79 1.193-.96 0-1.562-.413-1.77-1.233l-1.114.278c.273 1.298 1.342 1.99 2.903 1.99 1.775 0 2.983-.97 2.983-2.287 0-1.064-.666-1.735-2.028-2.068l-1.134-.278c-.904-.224-1.312-.527-1.312-1.114 0-.656.696-1.134 1.63-1.134 1.024 0 1.446.567 1.65 1.094l1.054-.298zm8.1 6.105c1.333 0 2.03-.716 2.267-1.213h.06V263h1.173v-5.03c0-2.426-1.85-2.705-2.824-2.705-1.153 0-2.466.398-3.062 1.8l1.113.398c.26-.557.87-1.154 1.99-1.154 1.08 0 1.61.572 1.61 1.55v.04c0 .567-.577.517-1.97.696-1.417.184-2.963.497-2.963 2.247 0 1.492 1.154 2.347 2.605 2.347zm.18-1.054c-.934 0-1.61-.418-1.61-1.233 0-.895.816-1.173 1.73-1.293.497-.06 1.83-.198 2.028-.437v1.074c0 .954-.756 1.89-2.148 1.89zm8.545 3.898c1.83 0 3.3-.835 3.3-2.804v-7.855h-1.133v1.213h-.12c-.258-.398-.735-1.313-2.227-1.313-1.93 0-3.26 1.53-3.26 3.878 0 2.386 1.392 3.74 3.24 3.74 1.492 0 1.97-.875 2.228-1.293h.1v1.55c0 1.273-.895 1.85-2.128 1.85-1.387 0-1.874-.73-2.187-1.154l-.935.656c.477.8 1.417 1.532 3.122 1.532zm-.04-4.196c-1.47 0-2.227-1.114-2.227-2.705 0-1.55.736-2.804 2.227-2.804 1.432 0 2.188 1.154 2.188 2.804 0 1.7-.776 2.705-2.188 2.705zm8.59 1.332c2.068 0 3.46-1.57 3.46-3.937 0-2.387-1.392-3.958-3.46-3.958s-3.46 1.57-3.46 3.958c0 2.366 1.392 3.937 3.46 3.937zm0-1.054c-1.57 0-2.287-1.352-2.287-2.883s.716-2.904 2.287-2.904 2.287 1.372 2.287 2.904-.716 2.883-2.287 2.883z" class="B"/><g class="F G H"><path d="M610.616 256.433l-3.05-3.05" class="I"/><use xlink:href="#C" y="144"/></g><path d="M40 293.5h592" class="J"/><path d="M77.12 252.818V263h1.462v-7.373h.094l3.003 7.358h1.213l3.003-7.353h.094V263h1.462v-10.182h-1.864l-3.24 7.915h-.12l-3.24-7.915H77.12zm14.667 10.35c1.263 0 1.974-.64 2.257-1.213h.06V263h1.452v-5.07c0-2.222-1.75-2.665-2.963-2.665-1.382 0-2.655.557-3.152 1.95l1.397.318c.22-.542.775-1.064 1.775-1.064.96 0 1.452.502 1.452 1.368v.034c0 .542-.557.532-1.93.69-1.447.17-2.928.547-2.928 2.282 0 1.502 1.13 2.327 2.58 2.327zm.323-1.193c-.84 0-1.447-.378-1.447-1.114 0-.795.706-1.08 1.566-1.193.482-.065 1.626-.194 1.84-.408v.985c0 .905-.72 1.73-1.96 1.73zm8.627 4.032c1.944 0 3.445-.9 3.445-2.84v-7.805h-1.456v1.238h-.1c-.263-.473-.8-1.338-2.212-1.338-1.844 0-3.202 1.457-3.202 3.888 0 2.436 1.387 3.734 3.192 3.734 1.402 0 1.944-.79 2.212-1.278h.095v1.5c0 1.18-.82 1.7-1.95 1.7-1.238 0-1.72-.622-1.984-1.044l-1.278.527c.403.92 1.422 1.715 3.246 1.715zm-.015-4.355c-1.327 0-2.018-1.02-2.018-2.52 0-1.467.676-2.605 2.018-2.605 1.298 0 1.994 1.06 1.994 2.605 0 1.576-.71 2.52-1.994 2.52zm8.656 4.355c1.944 0 3.445-.9 3.445-2.84v-7.805h-1.457v1.238h-.11c-.263-.473-.8-1.338-2.212-1.338-1.845 0-3.202 1.457-3.202 3.888 0 2.436 1.387 3.734 3.192 3.734 1.402 0 1.944-.79 2.212-1.278h.095v1.5c0 1.18-.82 1.7-1.95 1.7-1.238 0-1.72-.622-1.984-1.044l-1.278.527c.403.92 1.422 1.715 3.247 1.715zm-.015-4.355c-1.328 0-2.02-1.02-2.02-2.52 0-1.467.677-2.605 2.02-2.605 1.297 0 1.993 1.06 1.993 2.605 0 1.576-.7 2.52-1.993 2.52zm5.454 1.347h1.486v-7.636h-1.486V263zm.75-8.815c.512 0 .94-.397.94-.885s-.428-.89-.94-.89-.94.402-.94.89.422.885.94.885zm6.027 8.97c1.666 0 2.844-.82 3.182-2.063l-1.407-.254c-.268.72-.915 1.09-1.76 1.09-1.273 0-2.128-.825-2.167-2.297h5.428v-.527c0-2.76-1.65-3.838-3.38-3.838-2.128 0-3.53 1.62-3.53 3.968 0 2.37 1.382 3.922 3.634 3.922zm-2.148-4.638c.06-1.084.846-2.024 2.054-2.024 1.153 0 1.91.855 1.914 2.024h-3.968zm19.743-.607c0-3.256-1.95-5.23-4.584-5.23-2.645 0-4.59 1.974-4.59 5.23s1.944 5.23 4.59 5.23c.656 0 1.268-.12 1.815-.353l.87 1.13h1.57l-1.373-1.8c1.054-.9 1.7-2.342 1.7-4.216zm-5.1 1.8l1.447 1.9c-.29.094-.602.14-.93.14-1.755 0-3.063-1.347-3.063-3.828s1.308-3.828 3.063-3.828c1.75 0 3.062 1.347 3.062 3.828 0 1.392-.412 2.43-1.088 3.068l-.98-1.278h-1.51zm11.734.134c.005 1.298-.96 1.914-1.795 1.914-.92 0-1.556-.666-1.556-1.705v-4.678h-1.486v4.857c0 1.894 1.04 2.878 2.505 2.878 1.15 0 1.93-.606 2.282-1.42h.08V263h1.46v-7.636h-1.49v4.47z" class="B"/><g fill="#0d316d"><circle cx="52" cy="258" r="12" class="K"/><path d="M44.975 255.182V261h.835v-4.213h.054l1.716 4.204h.693l1.716-4.2h.054v4.2h.835v-5.818h-1.065l-1.852 4.523h-.068l-1.852-4.523h-1.065zm13.234 2.91c0-1.86-1.114-2.99-2.62-2.99-1.51 0-2.622 1.128-2.622 2.99s1.11 2.99 2.622 2.99c.375 0 .724-.07 1.037-.202l.497.645h.898l-.784-1.023c.602-.51.972-1.338.972-2.41zm-2.915 1.023l.827 1.085c-.165.054-.344.08-.53.08-1.003 0-1.75-.77-1.75-2.187s.747-2.188 1.75-2.188 1.75.77 1.75 2.188c0 .795-.236 1.39-.622 1.753l-.56-.73h-.864z"/></g><path d="M293.074 327.364v8.193c0 .775-.318 1.213-1.034 1.213h-.22v1.094h.24c1.47 0 2.187-.895 2.187-2.307v-8.193h-1.173zm.577-1.273c.457 0 .835-.358.835-.796s-.378-.795-.835-.795-.836.358-.836.795.378.796.836.796zm4.992 9.088c1.333 0 2.03-.716 2.267-1.213h.06V335h1.173v-5.03c0-2.426-1.85-2.705-2.824-2.705-1.153 0-2.465.398-3.062 1.8l1.114.398c.258-.557.87-1.154 1.988-1.154 1.08 0 1.61.572 1.61 1.55v.04c0 .567-.577.517-1.97.696-1.417.184-2.963.497-2.963 2.247 0 1.492 1.154 2.347 2.605 2.347zm.18-1.054c-.934 0-1.61-.418-1.61-1.233 0-.895.816-1.173 1.73-1.293.497-.06 1.83-.198 2.028-.437v1.074c0 .954-.756 1.89-2.148 1.89zm8.565 1.034c1.7 0 2.804-1.034 3.003-2.386h-1.173c-.22.835-.915 1.332-1.83 1.332-1.392 0-2.287-1.153-2.287-2.923 0-1.73.915-2.864 2.287-2.864 1.034 0 1.65.637 1.83 1.333h1.173c-.2-1.432-1.412-2.387-3.023-2.387-2.068 0-3.44 1.63-3.44 3.958 0 2.287 1.312 3.937 3.46 3.937zm4.718-.16h1.173v-2.86l.82-.76 2.858 3.62h1.492l-3.465-4.375 3.226-3.26h-1.45l-3.34 3.4h-.14v-5.946h-1.173V335zm13.482 2.685c1.014 0 2.307-.3 2.923-.557l-.278-.915c-.358.12-1.512.517-2.605.517-3.4 0-5.21-1.91-5.21-5.3 0-3.32 1.85-5.31 4.972-5.31 3.162 0 4.653 2.227 4.653 4.454 0 2.267-.238 3.28-1.252 3.28-.597 0-.915-.497-.915-1.054v-4.494h-1.054v.557h-.06c-.14-.437-.915-.815-1.91-.716-1.49.16-2.625 1.392-2.625 3.182 0 1.89.895 3.34 2.625 3.4 1.134.04 1.73-.517 1.97-1.093h.06c.12.855 1.194 1.153 1.9 1.153 2.108 0 2.306-2.267 2.306-4.196 0-2.724-1.91-5.41-5.627-5.41-3.838 0-6.125 2.327-6.125 6.205 0 4.017 2.207 6.284 6.264 6.284zm-.577-3.958c-1.292 0-1.75-1.173-1.75-2.446 0-1.153.656-2.147 1.8-2.147 1.193 0 1.83.477 1.83 2.147 0 1.65-.536 2.446-1.87 2.446zm10.904 4.296c1.83 0 3.3-.835 3.3-2.804v-7.855h-1.133v1.213h-.12c-.258-.398-.735-1.313-2.227-1.313-1.93 0-3.26 1.53-3.26 3.878 0 2.386 1.392 3.74 3.24 3.74 1.492 0 1.97-.875 2.227-1.293h.1v1.55c0 1.273-.895 1.85-2.128 1.85-1.387 0-1.874-.73-2.187-1.154l-.935.656c.477.8 1.417 1.532 3.122 1.532zm-.04-4.196c-1.47 0-2.227-1.114-2.227-2.705 0-1.55.736-2.804 2.227-2.804 1.432 0 2.188 1.154 2.188 2.804 0 1.7-.776 2.705-2.188 2.705zm6.662-9.01h-1.173V335h1.173v-10.182zm5.25 10.34c2.07 0 3.46-1.57 3.46-3.937 0-2.387-1.392-3.958-3.46-3.958s-3.46 1.57-3.46 3.958c0 2.366 1.392 3.937 3.46 3.937zm0-1.054c-1.57 0-2.286-1.352-2.286-2.883s.715-2.904 2.286-2.904 2.287 1.372 2.287 2.904-.716 2.883-2.287 2.883zm5.41.895h1.133v-1.173h.14c.258.417.755 1.332 2.227 1.332 1.91 0 3.24-1.53 3.24-3.957 0-2.407-1.332-3.938-3.26-3.938-1.492 0-1.95.915-2.207 1.313h-.1v-3.76h-1.173V335zm1.153-3.818c0-1.7.756-2.864 2.188-2.864 1.49 0 2.227 1.253 2.227 2.864 0 1.63-.756 2.923-2.227 2.923-1.412 0-2.188-1.193-2.188-2.923zm9.63 3.997c1.333 0 2.03-.716 2.267-1.213h.06V335h1.173v-5.03c0-2.426-1.85-2.705-2.824-2.705-1.153 0-2.466.398-3.062 1.8l1.113.398c.26-.557.87-1.154 1.99-1.154 1.08 0 1.61.572 1.61 1.55v.04c0 .567-.577.517-1.97.696-1.417.184-2.963.497-2.963 2.247 0 1.492 1.153 2.347 2.605 2.347zm.18-1.054c-.935 0-1.61-.418-1.61-1.233 0-.895.816-1.173 1.73-1.293.498-.06 1.83-.198 2.03-.437v1.074c0 .954-.756 1.89-2.148 1.89zm6.636-9.307h-1.173V335h1.173v-10.182zM373.104 335h1.134v-1.173h.14c.258.417.755 1.332 2.227 1.332 1.91 0 3.242-1.53 3.242-3.957 0-2.407-1.333-3.938-3.262-3.938-1.49 0-1.95.915-2.207 1.313h-.1v-3.76h-1.173V335zm1.153-3.818c0-1.7.756-2.864 2.188-2.864 1.49 0 2.227 1.253 2.227 2.864 0 1.63-.755 2.923-2.227 2.923-1.412 0-2.188-1.193-2.188-2.923zm9.63 3.997c1.333 0 2.03-.716 2.267-1.213h.06V335h1.173v-5.03c0-2.426-1.85-2.705-2.823-2.705-1.154 0-2.466.398-3.063 1.8l1.114.398c.258-.557.87-1.154 1.988-1.154 1.08 0 1.61.572 1.61 1.55v.04c0 .567-.577.517-1.97.696-1.417.184-2.963.497-2.963 2.247 0 1.492 1.154 2.347 2.605 2.347zm.18-1.054c-.934 0-1.6-.418-1.6-1.233 0-.895.815-1.173 1.73-1.293.497-.06 1.83-.198 2.028-.437v1.074c0 .954-.756 1.89-2.148 1.89zm6.636-3.72c0-1.332.826-2.088 1.95-2.088 1.09 0 1.75.71 1.75 1.91V335h1.173v-4.852c0-1.95-1.04-2.884-2.585-2.884-1.153 0-1.87.517-2.227 1.293h-.1v-1.193h-1.133V335h1.173v-4.594zm7.016 4.594h1.174v-2.86l.82-.76 2.86 3.62h1.49l-3.465-4.375 3.227-3.26h-1.452l-3.34 3.4h-.14v-5.946h-1.174V335zm8.47.08a.9.9 0 0 0 .895-.895.9.9 0 0 0-.895-.895.9.9 0 0 0-.895.895.9.9 0 0 0 .895.895zm6.102.08c1.69 0 2.804-1.034 3.003-2.386h-1.173c-.22.835-.915 1.332-1.83 1.332-1.392 0-2.287-1.153-2.287-2.923 0-1.73.915-2.864 2.287-2.864 1.034 0 1.65.637 1.83 1.333h1.173c-.2-1.432-1.412-2.387-3.023-2.387-2.068 0-3.44 1.63-3.44 3.958 0 2.287 1.313 3.937 3.46 3.937zm7.82 0c2.068 0 3.46-1.57 3.46-3.937 0-2.387-1.392-3.958-3.46-3.958s-3.46 1.57-3.46 3.958c0 2.366 1.393 3.937 3.46 3.937zm0-1.054c-1.57 0-2.287-1.352-2.287-2.883s.716-2.904 2.287-2.904 2.287 1.372 2.287 2.904-.716 2.883-2.287 2.883zm5.25.895h1.173v-4.773c0-1.118.816-1.91 1.73-1.91.9 0 1.512.582 1.512 1.452V335h1.193v-4.972c0-.984.616-1.7 1.7-1.7.835 0 1.55.443 1.55 1.57V335h1.174v-5.11c0-1.795-.965-2.625-2.327-2.625-1.094 0-1.894.502-2.287 1.293h-.08c-.377-.816-1.044-1.293-2.048-1.293-.994 0-1.73.477-2.048 1.293h-.1v-1.193h-1.133V335z" class="B"/><a href="mailto:maggie@globalbank.com"><path fill="#000" fill-opacity="0" d="M26.646-.472H144.46v16.943H26.646z"/></a><use xlink:href="#D" y="144" class="C"/><path d="M209.996 334.144c-.6 0-1.144-.116-1.632-.348-.48-.24-.864-.604-1.152-1.092-.28-.488-.42-1.108-.42-1.86V325.6h1.272v5.256c0 .736.176 1.276.528 1.62s.828.516 1.428.516c.592 0 1.064-.172 1.416-.516s.528-.884.528-1.62V325.6h1.272v5.244c0 .752-.148 1.372-.444 1.86-.288.488-.68.852-1.176 1.092-.488.232-1.028.348-1.62.348zm8.2 0c-.752 0-1.372-.184-1.86-.552s-.768-.856-.84-1.464h1.284c.064.272.216.508.456.708.24.192.556.288.948.288.384 0 .664-.08.84-.24s.264-.344.264-.552c0-.304-.124-.508-.372-.612-.24-.112-.576-.212-1.008-.3-.336-.072-.672-.168-1.008-.288-.328-.12-.604-.288-.828-.504-.216-.224-.324-.524-.324-.9 0-.52.2-.952.6-1.296.4-.352.96-.528 1.68-.528.664 0 1.2.16 1.608.48.416.32.66.772.732 1.356h-1.224c-.04-.256-.16-.456-.36-.6-.192-.144-.452-.216-.78-.216-.32 0-.568.068-.744.204-.176.128-.264.296-.264.504s.12.372.36.492c.248.12.572.228.972.324a9.1 9.1 0 0 1 1.104.312 1.91 1.91 0 0 1 .828.504c.208.224.312.552.312.984.008.544-.204.996-.636 1.356-.424.36-1.004.54-1.74.54zm7.548 0c-.584 0-1.104-.128-1.56-.384a2.83 2.83 0 0 1-1.056-1.092c-.256-.464-.384-1.004-.384-1.62 0-.624.124-1.172.372-1.644.256-.472.608-.84 1.056-1.104.456-.264.984-.396 1.584-.396.584 0 1.092.132 1.524.396.432.256.768.6 1.008 1.032a2.89 2.89 0 0 1 .36 1.428l-.012.264-.012.3h-4.632c.04.576.228 1.016.564 1.32.344.296.74.444 1.188.444.36 0 .66-.08.9-.24.248-.168.432-.392.552-.672h1.272c-.16.56-.48 1.028-.96 1.404-.472.376-1.06.564-1.764.564zm0-5.196c-.424 0-.8.128-1.128.384-.328.248-.528.624-.6 1.128h3.36c-.024-.464-.188-.832-.492-1.104s-.684-.408-1.14-.408zm5.224 5.052v-5.952h1.14l.108 1.128c.208-.392.496-.7.864-.924.376-.232.828-.348 1.356-.348v1.332h-.348c-.352 0-.668.06-.948.18-.272.112-.492.308-.66.588-.16.272-.24.652-.24 1.14V334h-1.272z" class="D"/><path d="M488.815 332.912h4.793V335h1.173v-2.088h1.392v-1.094h-1.392v-7h-1.49l-4.475 7.08v1.014zm4.793-1.094h-3.46v-.08l3.38-5.35h.08v5.43zm11.27 3.34c1.472 0 1.97-.915 2.228-1.332h.14V335h1.133v-10.182h-1.173v3.76h-.1c-.26-.398-.716-1.313-2.208-1.313-1.93 0-3.26 1.53-3.26 3.938 0 2.426 1.332 3.957 3.24 3.957zm.16-1.054c-1.47 0-2.227-1.293-2.227-2.923 0-1.61.736-2.864 2.227-2.864 1.432 0 2.188 1.154 2.188 2.864 0 1.73-.776 2.923-2.188 2.923zm7.9 1.074c1.333 0 2.03-.716 2.267-1.213h.06V335h1.173v-5.03c0-2.426-1.85-2.705-2.824-2.705-1.153 0-2.466.398-3.062 1.8l1.114.398c.258-.557.87-1.154 1.988-1.154 1.08 0 1.61.572 1.61 1.55v.04c0 .567-.577.517-1.97.696-1.417.184-2.963.497-2.963 2.247 0 1.492 1.154 2.347 2.605 2.347zm.18-1.054c-.934 0-1.61-.418-1.61-1.233 0-.895.816-1.173 1.73-1.293.497-.06 1.83-.198 2.028-.437v1.074c0 .954-.756 1.89-2.148 1.89zm5.945 3.72c1.06 0 1.8-.562 2.247-1.73l3.252-8.73-1.283-.02-2.108 6.085h-.08l-2.108-6.085h-1.272l2.824 7.676-.22.596c-.418 1.144-.955 1.253-1.8 1.034l-.298 1.035c.12.06.457.14.855.14zm12.46-8.77c-.368-1.084-1.193-1.8-2.704-1.8-1.61 0-2.804.915-2.804 2.208 0 1.054.626 1.76 2.028 2.088l1.273.298c.77.18 1.133.547 1.133 1.074 0 .656-.696 1.193-1.8 1.193-.96 0-1.56-.413-1.77-1.233l-1.114.278c.273 1.298 1.342 1.99 2.903 1.99 1.775 0 2.983-.97 2.983-2.287 0-1.064-.666-1.735-2.028-2.068l-1.134-.278c-.904-.224-1.312-.527-1.312-1.114 0-.656.696-1.134 1.63-1.134 1.024 0 1.446.567 1.65 1.094l1.054-.298zm8.1 6.105c1.332 0 2.028-.716 2.267-1.213h.06V335h1.173v-5.03c0-2.426-1.85-2.705-2.824-2.705-1.153 0-2.466.398-3.062 1.8l1.113.398c.26-.557.87-1.154 1.99-1.154 1.08 0 1.61.572 1.61 1.55v.04c0 .567-.577.517-1.97.696-1.417.184-2.963.497-2.963 2.247 0 1.492 1.153 2.347 2.605 2.347zm.18-1.054c-.935 0-1.61-.418-1.61-1.233 0-.895.816-1.173 1.73-1.293.498-.06 1.83-.198 2.03-.437v1.074c0 .954-.756 1.89-2.148 1.89zm8.545 3.898c1.83 0 3.3-.835 3.3-2.804v-7.855h-1.133v1.213h-.12c-.258-.398-.736-1.313-2.227-1.313-1.93 0-3.26 1.53-3.26 3.878 0 2.386 1.392 3.74 3.24 3.74 1.492 0 1.97-.875 2.227-1.293h.1v1.55c0 1.273-.895 1.85-2.128 1.85-1.387 0-1.874-.73-2.188-1.154l-.934.656c.477.8 1.417 1.532 3.122 1.532zm-.04-4.196c-1.47 0-2.227-1.114-2.227-2.705 0-1.55.736-2.804 2.227-2.804 1.432 0 2.188 1.154 2.188 2.804 0 1.7-.776 2.705-2.188 2.705zm8.59 1.332c2.068 0 3.46-1.57 3.46-3.937 0-2.387-1.392-3.958-3.46-3.958s-3.46 1.57-3.46 3.958c0 2.366 1.392 3.937 3.46 3.937zm0-1.054c-1.57 0-2.287-1.352-2.287-2.883s.716-2.904 2.287-2.904 2.287 1.372 2.287 2.904-.716 2.883-2.287 2.883z" class="B"/><g class="F G H"><path d="M610.616 328.433l-3.05-3.05" class="I"/><use xlink:href="#C" y="216"/></g><path d="M81.076 324.818v7.22c-.005 1.173-.552 1.8-1.526 1.8-.9 0-1.526-.537-1.53-1.382h-1.526c0 1.72 1.293 2.684 3.018 2.684 1.87 0 3.092-1.143 3.097-3.102v-7.22h-1.53zm5.87 10.35c1.263 0 1.974-.64 2.257-1.213h.06V335h1.452v-5.07c0-2.222-1.75-2.665-2.963-2.665-1.382 0-2.655.557-3.152 1.95l1.397.318c.22-.542.776-1.064 1.775-1.064.96 0 1.452.502 1.452 1.368v.034c0 .542-.557.532-1.93.69-1.447.17-2.928.547-2.928 2.282 0 1.502 1.13 2.327 2.58 2.327zm.323-1.193c-.84 0-1.447-.378-1.447-1.114 0-.795.706-1.08 1.566-1.193.482-.065 1.626-.194 1.84-.408v.985c0 .905-.72 1.73-1.96 1.73zm8.642 1.178c1.805 0 2.973-1.084 3.137-2.57h-1.447c-.19.825-.83 1.312-1.68 1.312-1.258 0-2.068-1.05-2.068-2.714 0-1.636.825-2.665 2.068-2.665.945 0 1.52.597 1.68 1.313h1.447c-.16-1.542-1.417-2.566-3.152-2.566-2.153 0-3.545 1.62-3.545 3.953 0 2.3 1.342 3.937 3.56 3.937zm4.727-.154h1.486v-2.7l.74-.74 2.595 3.45h1.825l-3.3-4.36 3.092-3.276h-1.78l-3.042 3.23h-.13v-5.777h-1.486V335zm13.61 0h1.55l2.143-7.626h.08l2.143 7.626h1.546l2.83-10.182h-1.62l-1.978 7.9h-.095l-2.063-7.9h-1.6l-2.063 7.885h-.094l-1.984-7.885h-1.616L114.25 335zm13.043.17c1.263 0 1.974-.64 2.257-1.213h.06V335h1.45v-5.07c0-2.222-1.75-2.665-2.963-2.665-1.382 0-2.655.557-3.152 1.95l1.397.318c.22-.542.776-1.064 1.775-1.064.96 0 1.452.502 1.452 1.368v.034c0 .542-.557.532-1.93.69-1.447.17-2.928.547-2.928 2.282 0 1.502 1.128 2.327 2.58 2.327zm.323-1.193c-.84 0-1.447-.378-1.447-1.114 0-.795.706-1.08 1.566-1.193.483-.065 1.626-.194 1.84-.408v.985c0 .905-.72 1.73-1.96 1.73zm6.912-9.158h-1.487V335h1.487v-10.182zm7.722 4.4c-.308-1.188-1.238-1.964-2.89-1.964-1.725 0-2.948.9-2.948 2.262 0 1.084.657 1.805 2.088 2.123l1.293.284c.736.164 1.08.492 1.08.97 0 .592-.632 1.054-1.606 1.054-.9 0-1.462-.383-1.64-1.134l-1.436.22c.248 1.352 1.372 2.113 3.087 2.113 1.844 0 3.122-.98 3.122-2.36 0-1.08-.686-1.745-2.088-2.07l-1.213-.278c-.84-.2-1.203-.482-1.198-1-.005-.587.63-1.005 1.476-1.005.925 0 1.353.513 1.527 1.025l1.347-.24zm3.27 1.238c0-1.218.77-1.914 1.83-1.914 1.024 0 1.635.65 1.635 1.77V335h1.487v-4.857c0-1.904-1.044-2.88-2.615-2.88-1.19 0-1.904.517-2.262 1.343h-.095v-3.79h-1.467V335h1.487v-4.534z" class="B"/><circle cx="52" cy="330" r="12" fill="#14703c" class="K"/><path d="M47.783 327.182v4.125c-.003.67-.315 1.028-.872 1.028-.514 0-.872-.307-.875-.8h-.872c0 .983.74 1.535 1.724 1.535 1.068 0 1.767-.654 1.77-1.773v-4.125h-.875zM52.075 333h.886l1.225-4.358h.045L55.456 333h.883l1.617-5.818h-.926L55.9 331.7h-.054l-1.18-4.508h-.915l-1.18 4.506h-.054l-1.134-4.506h-.923L52.075 333z" fill="#0d316d"/><defs><clipPath id="A"><path fill="#fff" transform="translate(185 48)" d="M0 0h54v18H0z"/></clipPath><clipPath id="B"><path fill="#fff" transform="translate(283 48)" d="M0 0h35v18H0z"/></clipPath><path id="C" d="M601.21 121.5h-2.71v-2.71c0-.22.087-.434.244-.59l11.112-11.113a.83.83 0 0 1 1.178 0l1.876 1.876a.83.83 0 0 1 0 1.178l-11.112 11.113a.83.83 0 0 1-.589.244h0z"/><path id="D" d="M194 186c0-6.627 5.373-12 12-12h30c6.627 0 12 5.373 12 12h0c0 6.627-5.373 12-12 12h-30c-6.627 0-12-5.373-12-12h0z"/></defs></svg>