<svg width="24" height="24" viewBox="0 0 24 24" fill="none" xmlns="http://www.w3.org/2000/svg">
<path d="M19.5827 4.40599C20.2427 5.06499 20.2427 6.13399 19.5827 6.79299C18.9227 7.45199 17.8537 7.45199 17.1937 6.79299C16.5337 6.13399 16.5337 5.06499 17.1937 4.40599C17.8537 3.74699 18.9227 3.74699 19.5827 4.40599Z" stroke="#1757C2" stroke-width="1.5" stroke-linecap="round" stroke-linejoin="round"/>
<path d="M4.43104 19.594C3.77104 18.935 3.77104 17.866 4.43104 17.207C5.09104 16.548 6.16004 16.548 6.82004 17.207C7.48004 17.866 7.48004 18.935 6.82004 19.594C6.16004 20.253 5.09004 20.253 4.43104 19.594" stroke="#1757C2" stroke-width="1.5" stroke-linecap="round" stroke-linejoin="round"/>
<path d="M6.94092 19.448C10.4469 21.83 15.2589 21.472 18.3679 18.366C20.1269 16.608 21.0069 14.304 21.0069 12C21.0069 11.468 20.9749 10.937 20.8809 10.412" stroke="#1757C2" stroke-width="1.5" stroke-linecap="round" stroke-linejoin="round"/>
<path d="M3.13284 13.588C3.03884 13.063 3.00684 12.532 3.00684 12C3.00684 9.696 3.88684 7.392 5.64584 5.634C8.75384 2.528 13.5668 2.17 17.0728 4.552" stroke="#1757C2" stroke-width="1.5" stroke-linecap="round" stroke-linejoin="round"/>
<path d="M12 15.75C12 15.75 15 14.311 15 12.153V9.67899L12.812 8.89199C12.286 8.70299 11.712 8.70299 11.186 8.89199L9 9.67899V12.153C9 14.311 12 15.75 12 15.75Z" stroke="#1757C2" stroke-width="1.5" stroke-linecap="round" stroke-linejoin="round"/>
</svg>
