<svg xmlns="http://www.w3.org/2000/svg" xmlns:xlink="http://www.w3.org/1999/xlink" width="672" height="400" fill="none" xmlns:v="https://vecta.io/nano"><path fill="#fff" d="M0 0h672v400H0z"/><path d="M90.25 60c4.432 0 6.932-2.756 6.932-7.3 0-4.517-2.5-7.244-6.733-7.244H85.76V60h4.49zm-2.727-1.562v-11.42h2.813c3.41 0 5.142 2.16 5.142 5.682 0 3.55-1.733 5.74-5.34 5.74h-2.614zm15.596 1.818c1.904 0 2.898-1.023 3.24-1.733h.085V60h1.676v-7.187c0-3.466-2.642-3.864-4.034-3.864-1.647 0-3.523.568-4.375 2.557l1.59.568c.37-.796 1.243-1.648 2.84-1.648 1.54 0 2.3.817 2.3 2.216v.057c0 .8-.824.74-2.812.994-2.024.263-4.233.7-4.233 3.2 0 2.13 1.647 3.352 3.72 3.352zm.256-1.506c-1.335 0-2.3-.597-2.3-1.76 0-1.278 1.165-1.676 2.47-1.847.71-.085 2.614-.284 2.898-.625v1.534c0 1.364-1.08 2.7-3.068 2.7zm12.548-9.66h-2.33v-2.614h-1.676v2.614h-1.647v1.42h1.647v6.818c0 1.903 1.534 2.813 2.955 2.813.625 0 1.023-.114 1.25-.2l-.34-1.506c-.142.028-.37.085-.74.085-.738 0-1.45-.227-1.45-1.648V50.51h2.33v-1.42zm5.73 11.165c1.904 0 2.898-1.023 3.24-1.733h.085V60h1.676v-7.187c0-3.466-2.642-3.864-4.034-3.864-1.647 0-3.522.568-4.375 2.557l1.59.568c.37-.796 1.243-1.648 2.84-1.648 1.54 0 2.3.817 2.3 2.216v.057c0 .8-.824.74-2.812.994-2.024.263-4.233.7-4.233 3.2 0 2.13 1.648 3.352 3.72 3.352zm.256-1.506c-1.335 0-2.3-.597-2.3-1.76 0-1.278 1.165-1.676 2.472-1.847.7-.085 2.613-.284 2.897-.625v1.534c0 1.364-1.08 2.7-3.068 2.7zm15.105-13.295h-1.676V60h1.676V45.455zm7.644 14.773c2.216 0 3.835-1.108 4.346-2.756l-1.62-.455c-.426 1.136-1.413 1.705-2.727 1.705-1.968 0-3.324-1.27-3.402-3.608h7.92v-.7c0-4.062-2.415-5.454-4.688-5.454-2.954 0-4.914 2.33-4.914 5.682s1.93 5.597 5.085 5.597zm-3.402-6.562c.113-1.697 1.314-3.2 3.23-3.2 1.818 0 2.983 1.364 2.983 3.2h-6.214zm13.68 6.59c1.903 0 2.897-1.023 3.238-1.733h.086V60h1.676v-7.187c0-3.466-2.642-3.864-4.034-3.864-1.648 0-3.523.568-4.375 2.557l1.59.568c.37-.796 1.242-1.648 2.84-1.648 1.542 0 2.302.817 2.302 2.216v.057c0 .8-.824.74-2.813.994-2.024.263-4.233.7-4.233 3.2 0 2.13 1.648 3.352 3.722 3.352zm.255-1.506c-1.335 0-2.3-.597-2.3-1.76 0-1.278 1.165-1.676 2.472-1.847.7-.085 2.613-.284 2.898-.625v1.534c0 1.364-1.08 2.7-3.07 2.7zm7.804 1.25h1.676v-4.084l1.172-1.087 4.084 5.17h2.13l-4.95-6.25 4.6-4.66h-2.074l-4.773 4.858h-.2v-8.494h-1.676V60zm20.623.227c2.103 0 2.813-1.307 3.182-1.903h.2V60h1.62V45.455h-1.676v5.37h-.142c-.37-.568-1.023-1.875-3.153-1.875-2.756 0-4.66 2.188-4.66 5.625 0 3.466 1.903 5.653 4.63 5.653zm.228-1.506c-2.103 0-3.182-1.847-3.182-4.176 0-2.3 1.05-4.09 3.182-4.09 2.045 0 3.125 1.648 3.125 4.09 0 2.472-1.108 4.176-3.125 4.176zm12.65 1.506c2.216 0 3.835-1.108 4.346-2.756l-1.62-.455c-.426 1.136-1.413 1.705-2.727 1.705-1.968 0-3.324-1.27-3.402-3.608h7.92v-.7c0-4.062-2.415-5.454-4.688-5.454-2.954 0-4.915 2.33-4.915 5.682s1.932 5.597 5.086 5.597zm-3.402-6.562c.113-1.697 1.314-3.2 3.23-3.2 1.818 0 2.983 1.364 2.983 3.2h-6.214zm15.213-4.574h-2.33v-2.614H204.3v2.614h-1.648v1.42h1.648v6.818c0 1.903 1.534 2.813 2.955 2.813.625 0 1.022-.114 1.25-.2l-.34-1.506c-.142.028-.37.085-.74.085-.74 0-1.45-.227-1.45-1.648V50.51h2.33v-1.42zm6.978 11.136c2.216 0 3.835-1.108 4.346-2.756l-1.62-.455c-.426 1.136-1.413 1.705-2.727 1.705-1.968 0-3.324-1.27-3.402-3.608h7.92v-.7c0-4.062-2.415-5.454-4.688-5.454-2.954 0-4.914 2.33-4.914 5.682s1.93 5.597 5.085 5.597zm-3.402-6.562c.113-1.697 1.314-3.2 3.23-3.2 1.818 0 2.983 1.364 2.983 3.2h-6.214zm14.9 6.563c2.415 0 4.006-1.477 4.3-3.41h-1.676c-.313 1.193-1.307 1.903-2.614 1.903-1.988 0-3.267-1.648-3.267-4.176 0-2.472 1.307-4.09 3.267-4.09 1.478 0 2.358.91 2.614 1.903h1.676c-.284-2.045-2.017-3.41-4.318-3.41-2.955 0-4.915 2.33-4.915 5.653 0 3.267 1.875 5.625 4.943 5.625zm11.485-11.136h-2.33v-2.614h-1.676v2.614h-1.648v1.42h1.648v6.818c0 1.903 1.534 2.813 2.955 2.813.625 0 1.022-.114 1.25-.2l-.34-1.506c-.142.028-.37.085-.74.085-.74 0-1.45-.227-1.45-1.648V50.51h2.33v-1.42zm2.52 10.91h1.676V49.09h-1.676V60zm.852-12.727c.654 0 1.193-.51 1.193-1.136S242.294 45 241.64 45s-1.193.51-1.193 1.136.54 1.136 1.193 1.136zm8.326 12.955c2.954 0 4.943-2.244 4.943-5.625 0-3.41-1.99-5.653-4.943-5.653s-4.943 2.244-4.943 5.653c0 3.38 1.988 5.625 4.943 5.625zm0-1.506c-2.244 0-3.267-1.932-3.267-4.12s1.023-4.148 3.267-4.148 3.267 1.96 3.267 4.148-1.023 4.12-3.267 4.12zm9.178-5.284c0-1.903 1.18-2.983 2.784-2.983 1.555 0 2.5 1.016 2.5 2.727V60h1.676v-6.932c0-2.784-1.484-4.12-3.693-4.12-1.648 0-2.67.74-3.182 1.847h-.142V49.09h-1.62V60h1.676v-6.562z" fill="#131520"/><circle cx="56" cy="53" r="16" fill="#e02424"/><g fill="#fff"><use xlink:href="#B"/><use xlink:href="#B" x="5.3"/><use xlink:href="#B" x="10.6"/><use xlink:href="#B" x="15.9"/></g><path d="M49.575 115.13c-.348-2.177-2.053-3.45-4.206-3.45-2.635 0-4.58 1.974-4.58 5.23s1.934 5.23 4.58 5.23c2.237 0 3.873-1.402 4.206-3.415l-1.55-.005c-.263 1.302-1.357 2.018-2.645 2.018-1.745 0-3.062-1.337-3.062-3.828 0-2.47 1.313-3.828 3.067-3.828 1.298 0 2.386.73 2.64 2.048h1.55zm4.936 7.025c2.153 0 3.56-1.576 3.56-3.937 0-2.377-1.407-3.953-3.56-3.953s-3.56 1.576-3.56 3.953c0 2.36 1.407 3.937 3.56 3.937zm.005-1.248c-1.407 0-2.063-1.228-2.063-2.694s.656-2.705 2.063-2.705c1.397 0 2.053 1.243 2.053 2.705s-.656 2.694-2.053 2.694zM59.73 122h1.486v-4.663c0-1 .77-1.72 1.825-1.72.308 0 .656.055.776.1v-1.422c-.15-.02-.443-.035-.63-.035-.895 0-1.66.507-1.94 1.328h-.08v-1.213H59.73V122zm5.373 0h1.486v-4.663c0-1 .77-1.72 1.825-1.72.308 0 .656.055.776.1v-1.422c-.15-.02-.442-.035-.63-.035-.895 0-1.66.507-1.94 1.328h-.08v-1.213h-1.437V122zm8.39.154c1.665 0 2.844-.82 3.182-2.063l-1.407-.254c-.27.72-.915 1.09-1.76 1.09-1.273 0-2.128-.825-2.168-2.297h5.43v-.527c0-2.76-1.65-3.838-3.38-3.838-2.128 0-3.53 1.62-3.53 3.968 0 2.37 1.382 3.922 3.634 3.922zm-2.148-4.638c.06-1.084.845-2.024 2.053-2.024 1.153 0 1.91.855 1.914 2.024h-3.967zm12.796-1.288c-.308-1.188-1.238-1.964-2.888-1.964-1.725 0-2.948.9-2.948 2.262 0 1.084.656 1.805 2.088 2.123l1.293.284c.736.164 1.08.492 1.08.97 0 .592-.63 1.054-1.606 1.054-.9 0-1.462-.383-1.64-1.134l-1.437.22c.25 1.352 1.372 2.113 3.087 2.113 1.845 0 3.122-.98 3.122-2.36 0-1.08-.686-1.745-2.088-2.07L81 117.446c-.84-.2-1.203-.482-1.198-1-.005-.587.63-1.005 1.477-1.005.925 0 1.352.513 1.526 1.025l1.347-.24zm1.784 8.636h1.487v-4.052h.09c.268.487.815 1.337 2.207 1.337 1.85 0 3.192-1.48 3.192-3.952s-1.362-3.933-3.207-3.933c-1.417 0-1.93.865-2.192 1.338h-.124v-1.238h-1.452v10.5zm1.457-6.682c0-1.596.696-2.655 1.994-2.655 1.347 0 2.023 1.138 2.023 2.655 0 1.53-.696 2.7-2.023 2.7-1.278 0-1.994-1.093-1.994-2.7zm10.4 3.972c2.153 0 3.56-1.576 3.56-3.937 0-2.377-1.407-3.953-3.56-3.953s-3.56 1.576-3.56 3.953c0 2.36 1.407 3.937 3.56 3.937zm.005-1.248c-1.407 0-2.063-1.228-2.063-2.694s.656-2.705 2.063-2.705c1.397 0 2.053 1.243 2.053 2.705s-.656 2.694-2.053 2.694zm6.7-3.44c0-1.218.745-1.914 1.78-1.914 1.01 0 1.62.66 1.62 1.77V122h1.487v-4.857c0-1.89-1.04-2.88-2.6-2.88-1.15 0-1.9.532-2.252 1.343h-.095v-1.243H103V122h1.487v-4.534zm9.74 4.683c1.392 0 1.94-.85 2.207-1.337h.125V122H118v-10.182h-1.486v3.784h-.1c-.268-.473-.775-1.338-2.197-1.338-1.844 0-3.202 1.457-3.202 3.933s1.338 3.952 3.192 3.952zm.328-1.268c-1.327 0-2.018-1.168-2.018-2.7 0-1.517.676-2.655 2.018-2.655 1.298 0 1.994 1.06 1.994 2.655 0 1.606-.71 2.7-1.994 2.7zm7.8 1.288c1.263 0 1.974-.64 2.258-1.213h.06V122h1.452v-5.07c0-2.222-1.75-2.665-2.963-2.665-1.382 0-2.655.557-3.152 1.95l1.397.318c.22-.542.775-1.064 1.775-1.064.96 0 1.45.502 1.45 1.368v.034c0 .542-.556.532-1.93.69-1.446.17-2.928.547-2.928 2.282 0 1.502 1.13 2.327 2.58 2.327zm.324-1.193c-.84 0-1.447-.378-1.447-1.114 0-.795.706-1.08 1.566-1.193.482-.065 1.626-.194 1.84-.408v.985c0 .905-.72 1.73-1.958 1.73zm6.91-3.5c0-1.218.746-1.914 1.78-1.914 1.01 0 1.62.66 1.62 1.77V122h1.486v-4.857c0-1.89-1.04-2.88-2.6-2.88-1.148 0-1.9.532-2.252 1.343h-.094v-1.243h-1.427V122h1.486v-4.534zm10.098 4.688c1.804 0 2.973-1.084 3.137-2.57h-1.447c-.19.825-.83 1.312-1.68 1.312-1.258 0-2.07-1.05-2.07-2.714 0-1.636.826-2.665 2.07-2.665.944 0 1.52.597 1.68 1.313h1.447c-.16-1.542-1.417-2.566-3.152-2.566-2.153 0-3.545 1.62-3.545 3.953 0 2.3 1.342 3.937 3.56 3.937zm8.018 0c1.665 0 2.843-.82 3.18-2.063l-1.407-.254c-.268.72-.914 1.09-1.76 1.09-1.272 0-2.127-.825-2.167-2.297h5.43v-.527c0-2.76-1.65-3.838-3.38-3.838-2.128 0-3.53 1.62-3.53 3.968 0 2.37 1.382 3.922 3.635 3.922zm-2.148-4.638c.06-1.084.845-2.024 2.053-2.024 1.153 0 1.91.855 1.914 2.024h-3.967z" fill="#131520"/><path d="M60.8 159.364h1.193c-.055-1.537-1.472-2.685-3.44-2.685-1.95 0-3.48 1.133-3.48 2.844 0 1.372.994 2.187 2.585 2.645l1.253.358c1.074.298 2.028.676 2.028 1.7 0 1.114-1.074 1.85-2.486 1.85-1.213 0-2.287-.537-2.386-1.7h-1.273c.12 1.67 1.472 2.804 3.66 2.804 2.347 0 3.68-1.293 3.68-2.943 0-1.91-1.8-2.526-2.864-2.804l-1.034-.28c-.756-.198-1.97-.596-1.97-1.7 0-.974.895-1.7 2.247-1.7 1.233 0 2.168.586 2.287 1.59zm6.402 7.795c1.55 0 2.685-.775 3.043-1.93l-1.134-.318c-.298.795-.99 1.193-1.91 1.193-1.377 0-2.327-.9-2.38-2.525h5.543v-.498c0-2.843-1.7-3.818-3.28-3.818-2.068 0-3.44 1.63-3.44 3.977s1.352 3.918 3.56 3.918zm-2.38-4.594c.08-1.188.92-2.247 2.262-2.247 1.273 0 2.088.955 2.088 2.247h-4.35zm8.5-.16c0-1.332.825-2.088 1.95-2.088 1.09 0 1.75.71 1.75 1.91V167h1.173v-4.852c0-1.95-1.04-2.884-2.585-2.884-1.153 0-1.87.517-2.227 1.293h-.1v-1.193H72.15V167h1.173v-4.594zm9.9 4.753c1.472 0 1.97-.915 2.227-1.332h.14V167h1.133v-10.182H85.55v3.76h-.1c-.258-.398-.716-1.313-2.207-1.313-1.93 0-3.26 1.53-3.26 3.938 0 2.426 1.332 3.957 3.242 3.957zm.16-1.054c-1.472 0-2.227-1.293-2.227-2.923 0-1.61.736-2.864 2.227-2.864 1.432 0 2.188 1.154 2.188 2.864 0 1.73-.776 2.923-2.187 2.923zm11.837 1.074c1.332 0 2.028-.716 2.267-1.213h.06V167h1.173v-5.03c0-2.426-1.85-2.705-2.824-2.705-1.153 0-2.466.398-3.062 1.8l1.114.398c.26-.557.87-1.154 1.99-1.154 1.08 0 1.61.572 1.61 1.55v.04c0 .567-.577.517-1.97.696-1.417.184-2.963.497-2.963 2.247 0 1.492 1.153 2.347 2.605 2.347zm.18-1.054c-.935 0-1.61-.418-1.61-1.233 0-.895.815-1.173 1.73-1.293.497-.06 1.83-.198 2.028-.437v1.074c0 .954-.756 1.89-2.148 1.89zm9.4.875h1.174v-4.773c0-1.118.815-1.91 1.73-1.91.9 0 1.51.582 1.51 1.452V167h1.193v-4.972c0-.984.617-1.7 1.69-1.7.835 0 1.55.443 1.55 1.57V167h1.173v-5.11c0-1.795-.964-2.625-2.327-2.625-1.093 0-1.894.502-2.286 1.293h-.08c-.378-.816-1.044-1.293-2.048-1.293-.995 0-1.73.477-2.05 1.293h-.1v-1.193h-1.134V167zm15.37.16c1.55 0 2.685-.775 3.043-1.93l-1.134-.318c-.298.795-.99 1.193-1.91 1.193-1.377 0-2.327-.9-2.38-2.525h5.543v-.498c0-2.843-1.7-3.818-3.28-3.818-2.068 0-3.44 1.63-3.44 3.977s1.353 3.918 3.56 3.918zm-2.38-4.594c.08-1.188.92-2.247 2.262-2.247 1.273 0 2.088.955 2.088 2.247h-4.35zm12.737-1.49c-.368-1.084-1.193-1.8-2.705-1.8-1.6 0-2.804.915-2.804 2.208 0 1.054.627 1.76 2.03 2.088l1.273.298c.77.18 1.133.547 1.133 1.074 0 .656-.696 1.193-1.8 1.193-.96 0-1.56-.413-1.77-1.233l-1.113.278c.273 1.298 1.342 1.99 2.903 1.99 1.775 0 2.983-.97 2.983-2.287 0-1.064-.666-1.735-2.028-2.068l-1.134-.278c-.905-.224-1.312-.527-1.312-1.114 0-.656.696-1.134 1.63-1.134 1.025 0 1.447.567 1.65 1.094l1.054-.298zm7.314 0c-.367-1.084-1.193-1.8-2.704-1.8-1.61 0-2.804.915-2.804 2.208 0 1.054.626 1.76 2.028 2.088l1.273.298c.77.18 1.134.547 1.134 1.074 0 .656-.696 1.193-1.8 1.193-.96 0-1.56-.413-1.77-1.233l-1.114.278c.274 1.298 1.343 1.99 2.904 1.99 1.775 0 2.983-.97 2.983-2.287 0-1.064-.667-1.735-2.03-2.068l-1.133-.278c-.905-.224-1.313-.527-1.313-1.114 0-.656.696-1.134 1.63-1.134 1.024 0 1.447.567 1.65 1.094l1.054-.298zm4.153 6.105c1.332 0 2.028-.716 2.267-1.213h.06V167h1.173v-5.03c0-2.426-1.85-2.705-2.824-2.705-1.153 0-2.466.398-3.062 1.8l1.113.398c.26-.557.87-1.154 1.99-1.154 1.08 0 1.61.572 1.61 1.55v.04c0 .567-.577.517-1.97.696-1.417.184-2.963.497-2.963 2.247 0 1.492 1.153 2.347 2.605 2.347zm.18-1.054c-.935 0-1.61-.418-1.61-1.233 0-.895.815-1.173 1.73-1.293.497-.06 1.83-.198 2.03-.437v1.074c0 .954-.756 1.89-2.148 1.89zm8.545 3.898c1.83 0 3.3-.835 3.3-2.804v-7.855h-1.134v1.213h-.12c-.258-.398-.736-1.313-2.227-1.313-1.93 0-3.26 1.53-3.26 3.878 0 2.386 1.392 3.74 3.24 3.74 1.49 0 1.97-.875 2.227-1.293h.1v1.55c0 1.273-.895 1.85-2.128 1.85-1.387 0-1.874-.73-2.188-1.154l-.934.656c.477.8 1.417 1.532 3.122 1.532zm-.04-4.196c-1.472 0-2.227-1.114-2.227-2.705 0-1.55.736-2.804 2.227-2.804 1.432 0 2.188 1.154 2.188 2.804 0 1.7-.776 2.705-2.188 2.705zm8.7 1.332c1.552 0 2.685-.775 3.043-1.93l-1.133-.318c-.3.795-1 1.193-1.9 1.193-1.377 0-2.326-.9-2.38-2.525h5.543v-.498c0-2.843-1.7-3.818-3.28-3.818-2.068 0-3.44 1.63-3.44 3.977s1.352 3.918 3.56 3.918zm-2.38-4.594c.08-1.188.92-2.247 2.262-2.247 1.273 0 2.088.955 2.088 2.247h-4.35z" fill="#a6abc9"/><path d="M44 142h584v-2H44v2zm587 3v52h2v-52h-2zm-3 55H44v2h584v-2zm-587-3v-52h-2v52h2zm3 3a3 3 0 0 1-3-3h-2a5 5 0 0 0 5 5v-2zm587-3a3 3 0 0 1-3 3v2a5 5 0 0 0 5-5h-2zm-3-55a3 3 0 0 1 3 3h2a5 5 0 0 0-5-5v2zm-584-2a5 5 0 0 0-5 5h2a3 3 0 0 1 3-3v-2z" fill="#ecedf3"/><path d="M77.12 227.818V238h1.462v-7.373h.094l3.003 7.358h1.213l3.003-7.353h.094V238h1.462v-10.182h-1.864l-3.24 7.915h-.12l-3.24-7.915H77.12zm15.662 10.336c2.153 0 3.56-1.576 3.56-3.937 0-2.377-1.407-3.953-3.56-3.953s-3.56 1.576-3.56 3.953c0 2.36 1.407 3.937 3.56 3.937zm.005-1.248c-1.407 0-2.063-1.228-2.063-2.694s.656-2.705 2.063-2.705c1.397 0 2.053 1.243 2.053 2.705s-.656 2.694-2.053 2.694zm6.7-3.44c0-1.218.746-1.914 1.78-1.914 1.01 0 1.62.66 1.62 1.77V238h1.487v-4.857c0-1.89-1.04-2.88-2.6-2.88-1.15 0-1.9.532-2.252 1.343h-.094v-1.243H98V238h1.486v-4.534zm6.88 4.534h1.487v-7.636h-1.487V238zm.75-8.815c.512 0 .94-.397.94-.885s-.428-.89-.94-.89c-.517 0-.94.402-.94.89s.422.885.94.885zm5.952 8.97c1.805 0 2.973-1.084 3.137-2.57h-1.446c-.19.825-.83 1.312-1.68 1.312-1.257 0-2.068-1.05-2.068-2.714 0-1.636.825-2.665 2.068-2.665.945 0 1.522.597 1.68 1.313h1.446c-.16-1.542-1.416-2.566-3.15-2.566-2.153 0-3.545 1.62-3.545 3.953 0 2.3 1.342 3.937 3.56 3.937zm6.95.015c1.263 0 1.974-.64 2.258-1.213h.06V238h1.452v-5.07c0-2.222-1.75-2.665-2.963-2.665-1.382 0-2.655.557-3.152 1.95l1.397.318c.22-.542.775-1.064 1.775-1.064.96 0 1.45.502 1.45 1.368v.034c0 .542-.556.532-1.93.69-1.446.17-2.928.547-2.928 2.282 0 1.502 1.13 2.327 2.58 2.327zm.324-1.193c-.84 0-1.447-.378-1.447-1.114 0-.795.706-1.08 1.566-1.193.482-.065 1.626-.194 1.84-.408v.985c0 .905-.72 1.73-1.958 1.73zm9.25 1.024h1.536v-4.44h5.076V238h1.542v-10.182h-1.542v4.425h-5.076v-4.425h-1.536V238zm12.494.17c1.263 0 1.974-.64 2.257-1.213h.06V238h1.45v-5.07c0-2.222-1.75-2.665-2.963-2.665-1.382 0-2.655.557-3.152 1.95l1.397.318c.22-.542.776-1.064 1.775-1.064.96 0 1.452.502 1.452 1.368v.034c0 .542-.557.532-1.93.69-1.447.17-2.928.547-2.928 2.282 0 1.502 1.128 2.327 2.58 2.327zm.323-1.193c-.84 0-1.447-.378-1.447-1.114 0-.795.706-1.08 1.566-1.193.483-.065 1.626-.194 1.84-.408v.985c0 .905-.72 1.73-1.96 1.73zm6.912-9.158h-1.487V238h1.487v-10.182zm3.486 0h-1.486V238h1.486v-10.182z" fill="#131520"/><path d="M580.96 238h1.317v-3.303h1.875l1.772 3.303h1.5l-1.934-3.533c1.07-.396 1.602-1.287 1.602-2.458 0-1.607-.997-2.736-3.02-2.736h-3.11V238zm1.317-4.436v-3.162h1.653c1.3 0 1.837.618 1.837 1.607s-.537 1.555-1.82 1.555h-1.67zm10.054 4.568c1.427 0 2.437-.703 2.727-1.768l-1.206-.218c-.23.618-.784.934-1.508.934-1.09 0-1.824-.708-1.858-1.97h4.653v-.452c0-2.365-1.415-3.3-2.898-3.3-1.823 0-3.025 1.4-3.025 3.4 0 2.033 1.185 3.362 3.115 3.362zm-1.84-3.976c.05-.93.724-1.734 1.76-1.734.99 0 1.636.733 1.64 1.734h-3.4zm7.063 6.3h1.274v-3.473h.077c.23.417.7 1.146 1.892 1.146 1.585 0 2.736-1.27 2.736-3.388s-1.168-3.37-2.75-3.37c-1.215 0-1.653.742-1.88 1.147h-.107v-1.06h-1.244v9zm1.248-5.728c0-1.368.597-2.275 1.71-2.275 1.155 0 1.735.976 1.735 2.275 0 1.313-.597 2.314-1.735 2.314-1.095 0-1.71-.937-1.71-2.314zm8.432-5.454h-1.274V238h1.274v-8.727zm3.52 11.165c1.052 0 1.72-.55 2.096-1.564l2.706-7.407-1.376-.012-1.658 5.08h-.068l-1.658-5.08h-1.363l2.395 6.63-.158.435c-.324.848-.78.925-1.48.733l-.307 1.044c.154.072.486.14.87.14z" fill="#1757c2"/><g fill="#5d6598"><path d="M164.32 238.18c1.332 0 2.028-.716 2.267-1.213h.06V238h1.173v-5.03c0-2.426-1.85-2.705-2.824-2.705-1.153 0-2.466.398-3.062 1.8l1.113.398c.26-.557.87-1.154 1.99-1.154 1.08 0 1.61.572 1.61 1.55v.04c0 .567-.577.517-1.97.696-1.417.184-2.963.497-2.963 2.247 0 1.492 1.153 2.347 2.605 2.347zm.18-1.054c-.935 0-1.61-.418-1.61-1.233 0-.895.816-1.173 1.73-1.293.497-.06 1.83-.198 2.03-.437v1.074c0 .954-.756 1.89-2.148 1.89zm12.8-6.76h-1.71v-.776c0-.756.32-1.153 1.094-1.153.338 0 .537.08.656.12l.338-1.014c-.18-.08-.536-.2-1.113-.2-1.094 0-2.148.656-2.148 1.97v1.054h-1.233v.994h1.233V238h1.173v-6.642h1.71v-.994zm4.53 7.795c1.55 0 2.685-.775 3.043-1.93l-1.134-.318c-.298.795-.99 1.193-1.91 1.193-1.377 0-2.326-.9-2.38-2.525h5.543v-.498c0-2.843-1.7-3.818-3.28-3.818-2.068 0-3.44 1.63-3.44 3.977s1.352 3.918 3.56 3.918zm-2.38-4.594c.08-1.188.92-2.247 2.262-2.247 1.273 0 2.088.955 2.088 2.247h-4.35zM188.51 238h1.153l1.67-5.866h.12l1.67 5.866h1.153l2.327-7.636h-1.233l-1.65 5.826h-.08l-1.61-5.826h-1.253l-1.63 5.846h-.08l-1.65-5.846h-1.233L188.51 238zm18.992-5.926c-.368-1.084-1.194-1.8-2.705-1.8-1.61 0-2.804.915-2.804 2.208 0 1.054.626 1.76 2.028 2.088l1.273.298c.77.18 1.134.547 1.134 1.074 0 .656-.696 1.193-1.8 1.193-.96 0-1.56-.413-1.77-1.233l-1.114.278c.274 1.298 1.343 1.99 2.904 1.99 1.775 0 2.983-.97 2.983-2.287 0-1.064-.666-1.735-2.03-2.068l-1.133-.278c-.905-.224-1.313-.527-1.313-1.114 0-.656.696-1.134 1.63-1.134 1.024 0 1.447.567 1.65 1.094l1.054-.298zm5.107 6.085c1.55 0 2.684-.775 3.042-1.93l-1.133-.318c-.3.795-1 1.193-1.91 1.193-1.378 0-2.327-.9-2.382-2.525h5.544v-.498c0-2.843-1.69-3.818-3.282-3.818-2.068 0-3.44 1.63-3.44 3.977s1.352 3.918 3.56 3.918zm-2.382-4.594c.08-1.188.92-2.247 2.262-2.247 1.273 0 2.088.955 2.088 2.247h-4.35zm10.43 4.594c1.7 0 2.804-1.034 3.002-2.386h-1.173c-.22.835-.915 1.332-1.83 1.332-1.392 0-2.287-1.153-2.287-2.923 0-1.73.914-2.864 2.287-2.864 1.034 0 1.65.637 1.83 1.333h1.173c-.198-1.432-1.41-2.387-3.022-2.387-2.068 0-3.44 1.63-3.44 3.958 0 2.287 1.313 3.937 3.46 3.937zm7.82 0c2.068 0 3.46-1.57 3.46-3.937 0-2.387-1.392-3.958-3.46-3.958s-3.46 1.57-3.46 3.958c0 2.366 1.392 3.937 3.46 3.937zm0-1.054c-1.57 0-2.287-1.352-2.287-2.883s.716-2.904 2.287-2.904 2.287 1.372 2.287 2.904-.716 2.883-2.287 2.883zm6.424-3.7c0-1.332.826-2.088 1.95-2.088 1.09 0 1.75.71 1.75 1.91V238h1.174v-4.852c0-1.95-1.04-2.884-2.586-2.884-1.153 0-1.87.517-2.227 1.293h-.1v-1.193h-1.134V238h1.173v-4.594zm9.9 4.753c1.472 0 1.97-.915 2.227-1.332h.14V238h1.133v-10.182h-1.173v3.76h-.1c-.258-.398-.716-1.313-2.207-1.313-1.93 0-3.26 1.53-3.26 3.938 0 2.426 1.332 3.957 3.24 3.957zm.16-1.054c-1.47 0-2.227-1.293-2.227-2.923 0-1.61.736-2.864 2.227-2.864 1.432 0 2.188 1.154 2.188 2.864 0 1.73-.776 2.923-2.188 2.923zm11.062-5.03c-.368-1.084-1.193-1.8-2.705-1.8-1.6 0-2.804.915-2.804 2.208 0 1.054.627 1.76 2.03 2.088l1.273.298c.77.18 1.133.547 1.133 1.074 0 .656-.696 1.193-1.8 1.193-.96 0-1.56-.413-1.77-1.233l-1.113.278c.273 1.298 1.342 1.99 2.903 1.99 1.775 0 2.983-.97 2.983-2.287 0-1.064-.666-1.735-2.028-2.068l-1.134-.278c-.905-.224-1.312-.527-1.312-1.114 0-.656.696-1.134 1.63-1.134 1.025 0 1.447.567 1.65 1.094l1.054-.298zm8.1 6.105c1.332 0 2.028-.716 2.267-1.213h.06V238h1.173v-5.03c0-2.426-1.85-2.705-2.824-2.705-1.153 0-2.466.398-3.062 1.8l1.113.398c.26-.557.87-1.154 1.99-1.154 1.08 0 1.61.572 1.61 1.55v.04c0 .567-.577.517-1.97.696-1.417.184-2.963.497-2.963 2.247 0 1.492 1.153 2.347 2.605 2.347zm.18-1.054c-.935 0-1.61-.418-1.61-1.233 0-.895.816-1.173 1.73-1.293.497-.06 1.83-.198 2.03-.437v1.074c0 .954-.756 1.89-2.148 1.89zm8.545 3.898c1.83 0 3.3-.835 3.3-2.804v-7.855h-1.133v1.213h-.12c-.258-.398-.736-1.313-2.227-1.313-1.93 0-3.26 1.53-3.26 3.878 0 2.386 1.392 3.74 3.24 3.74 1.492 0 1.97-.875 2.227-1.293h.1v1.55c0 1.273-.895 1.85-2.128 1.85-1.387 0-1.874-.73-2.188-1.154l-.934.656c.477.8 1.417 1.532 3.122 1.532zm-.04-4.196c-1.47 0-2.227-1.114-2.227-2.705 0-1.55.736-2.804 2.227-2.804 1.432 0 2.188 1.154 2.188 2.804 0 1.7-.776 2.705-2.188 2.705zm8.59 1.332c2.068 0 3.46-1.57 3.46-3.937 0-2.387-1.392-3.958-3.46-3.958s-3.46 1.57-3.46 3.958c0 2.366 1.392 3.937 3.46 3.937zm0-1.054c-1.57 0-2.287-1.352-2.287-2.883s.716-2.904 2.287-2.904 2.287 1.372 2.287 2.904-.716 2.883-2.287 2.883z"/><path d="M78.466 256.818h-1.233V267h1.233v-10.182zm3.347 0H80.7v.915c0 .736-.358 1.372-.776 1.97l.636.517c.795-.637 1.253-1.69 1.253-2.506v-.895zM83.568 267h1.173v-4.773c0-1.118.815-1.91 1.73-1.91.9 0 1.51.582 1.51 1.452V267h1.193v-4.972c0-.984.616-1.7 1.7-1.7.835 0 1.55.443 1.55 1.57V267h1.173v-5.11c0-1.795-.965-2.625-2.327-2.625-1.094 0-1.894.502-2.287 1.293h-.08c-.378-.816-1.044-1.293-2.048-1.293-.994 0-1.73.477-2.048 1.293h-.1v-1.193h-1.133V267zm17.836 0h1.153l1.67-5.866h.12l1.67 5.866h1.154l2.326-7.636h-1.233l-1.65 5.826h-.08l-1.61-5.826h-1.252l-1.63 5.846h-.08l-1.65-5.846h-1.233l2.327 7.636zm12.487.16c2.068 0 3.46-1.57 3.46-3.937 0-2.387-1.392-3.958-3.46-3.958s-3.46 1.57-3.46 3.958c0 2.366 1.392 3.937 3.46 3.937zm0-1.054c-1.57 0-2.287-1.352-2.287-2.883s.716-2.904 2.287-2.904 2.287 1.372 2.287 2.904-.716 2.883-2.287 2.883zm5.25.895h1.174v-4.832c0-1.034.815-1.8 1.928-1.8a3.66 3.66 0 0 1 .716.079v-1.193l-.616-.02c-.915 0-1.7.517-1.99 1.273h-.08v-1.153h-1.134V267zm5.21 0h1.174v-2.86l.82-.76 2.858 3.62h1.492l-3.465-4.375 3.226-3.26h-1.45l-3.34 3.4h-.14v-5.946h-1.174V267zm7.615 0h1.174v-7.636h-1.174V267zm.597-8.91c.457 0 .835-.358.835-.796s-.378-.795-.835-.795-.835.358-.835.795.378.796.835.796zm3.9 4.315c0-1.332.825-2.088 1.95-2.088 1.09 0 1.75.71 1.75 1.91V267h1.173v-4.852c0-1.95-1.04-2.884-2.585-2.884-1.153 0-1.87.517-2.227 1.293h-.1v-1.193h-1.133V267h1.173v-4.594zm10.1 7.617c1.83 0 3.3-.835 3.3-2.804v-7.855h-1.134v1.213h-.12c-.26-.398-.736-1.313-2.227-1.313-1.93 0-3.262 1.53-3.262 3.878 0 2.386 1.392 3.74 3.242 3.74 1.49 0 1.968-.875 2.227-1.293h.1v1.55c0 1.273-.894 1.85-2.127 1.85-1.388 0-1.875-.73-2.188-1.154l-.935.656c.478.8 1.417 1.532 3.123 1.532zm-.04-4.196c-1.472 0-2.227-1.114-2.227-2.705 0-1.55.735-2.804 2.227-2.804 1.432 0 2.187 1.154 2.187 2.804 0 1.7-.775 2.705-2.187 2.705zm12.528 1.332c2.068 0 3.46-1.57 3.46-3.937 0-2.387-1.392-3.958-3.46-3.958s-3.46 1.57-3.46 3.958c0 2.366 1.392 3.937 3.46 3.937zm0-1.054c-1.57 0-2.287-1.352-2.287-2.883s.716-2.904 2.287-2.904 2.287 1.372 2.287 2.904-.716 2.883-2.287 2.883zm6.425-3.7c0-1.332.825-2.088 1.95-2.088 1.088 0 1.75.71 1.75 1.91V267h1.173v-4.852c0-1.95-1.04-2.884-2.585-2.884-1.154 0-1.87.517-2.228 1.293h-.1v-1.193H164.3V267h1.174v-4.594zm14.274-3.042h-1.63v-1.83h-1.174v1.83h-1.153v.994h1.153v4.773c0 1.332 1.074 1.968 2.07 1.968.437 0 .716-.08.875-.14l-.24-1.054c-.1.02-.26.06-.517.06-.517 0-1.014-.16-1.014-1.154v-4.454h1.63v-.994zm3.103 3.042c0-1.332.85-2.088 2.008-2.088 1.104 0 1.77.696 1.77 1.91V267h1.173v-4.852c0-1.964-1.044-2.884-2.605-2.884-1.203 0-1.89.502-2.247 1.293h-.1v-3.74h-1.174V267h1.174v-4.594zM189.95 267h1.173v-7.636h-1.173V267zm.596-8.91c.458 0 .836-.358.836-.796s-.378-.795-.836-.795-.835.358-.835.795.378.796.835.796zm8.135 2.983c-.368-1.084-1.193-1.8-2.704-1.8-1.61 0-2.804.915-2.804 2.208 0 1.054.626 1.76 2.028 2.088l1.273.298c.77.18 1.133.547 1.133 1.074 0 .656-.696 1.193-1.79 1.193-.96 0-1.56-.413-1.77-1.233l-1.114.278c.273 1.298 1.342 1.99 2.903 1.99 1.775 0 2.983-.97 2.983-2.287 0-1.064-.666-1.735-2.028-2.068l-1.134-.278c-.904-.224-1.312-.527-1.312-1.114 0-.656.696-1.134 1.63-1.134 1.024 0 1.446.567 1.65 1.094l1.054-.298zm7.016 1.332c0-1.332.826-2.088 1.95-2.088 1.09 0 1.75.71 1.75 1.91V267h1.174v-4.852c0-1.95-1.04-2.884-2.586-2.884-1.153 0-1.87.517-2.227 1.293h-.1v-1.193h-1.134V267h1.173v-4.594zm10.12 4.753c2.068 0 3.46-1.57 3.46-3.937 0-2.387-1.392-3.958-3.46-3.958s-3.46 1.57-3.46 3.958c0 2.366 1.392 3.937 3.46 3.937zm0-1.054c-1.57 0-2.287-1.352-2.287-2.883s.716-2.904 2.287-2.904 2.287 1.372 2.287 2.904-.716 2.883-2.287 2.883zm6.72.895h1.154l1.67-5.866h.12l1.67 5.866h1.153l2.327-7.636h-1.233l-1.65 5.826h-.08l-1.61-5.826h-1.253l-1.63 5.846h-.08l-1.65-5.846H220.2l2.326 7.636zm9.46.08a.9.9 0 0 0 .895-.895c0-.493-.402-.895-.895-.895a.9.9 0 0 0-.895.895.9.9 0 0 0 .895.895zm10.995-10.262v7.28c0 1.267-.607 1.948-1.67 1.948-.97 0-1.67-.566-1.67-1.43h-1.213c0 1.566 1.213 2.525 2.884 2.525 1.77 0 2.903-1.09 2.903-3.042v-7.28h-1.233zm5.792 10.36c1.332 0 2.028-.716 2.267-1.213h.06V267h1.173v-5.03c0-2.426-1.85-2.705-2.824-2.705-1.153 0-2.466.398-3.062 1.8l1.113.398c.26-.557.87-1.154 1.99-1.154 1.08 0 1.61.572 1.61 1.55v.04c0 .567-.577.517-1.97.696-1.417.184-2.963.497-2.963 2.247 0 1.492 1.153 2.347 2.605 2.347zm.18-1.054c-.935 0-1.61-.418-1.61-1.233 0-.895.815-1.173 1.73-1.293.497-.06 1.83-.198 2.03-.437v1.074c0 .954-.756 1.89-2.148 1.89zm8.565 1.034c1.7 0 2.804-1.034 3.003-2.386h-1.174c-.22.835-.915 1.332-1.83 1.332-1.392 0-2.287-1.153-2.287-2.923 0-1.73.915-2.864 2.287-2.864 1.034 0 1.65.637 1.83 1.333h1.174c-.2-1.432-1.412-2.387-3.023-2.387-2.068 0-3.44 1.63-3.44 3.958 0 2.287 1.313 3.937 3.46 3.937zm4.718-.16h1.173v-2.86l.82-.76 2.86 3.62h1.49l-3.465-4.375 3.227-3.26H266.9l-3.34 3.4h-.14v-5.946h-1.173V267zm11.552 0h1.174v-7.636h-1.174V267zm.597-8.91c.457 0 .835-.358.835-.796s-.378-.795-.835-.795-.835.358-.835.795.378.796.835.796zm8.135 2.983c-.368-1.084-1.193-1.8-2.705-1.8-1.61 0-2.804.915-2.804 2.208 0 1.054.627 1.76 2.03 2.088l1.272.298c.77.18 1.134.547 1.134 1.074 0 .656-.696 1.193-1.8 1.193-.96 0-1.56-.413-1.77-1.233l-1.113.278c.273 1.298 1.342 1.99 2.903 1.99 1.775 0 2.983-.97 2.983-2.287 0-1.064-.666-1.735-2.028-2.068l-1.134-.278c-.905-.224-1.312-.527-1.312-1.114 0-.656.696-1.134 1.63-1.134 1.024 0 1.447.567 1.65 1.094l1.054-.298zm8.945 6.085c1.7 0 2.804-1.034 3.003-2.386h-1.173c-.22.835-.915 1.332-1.83 1.332-1.392 0-2.287-1.153-2.287-2.923 0-1.73.915-2.864 2.287-2.864 1.034 0 1.65.637 1.83 1.333h1.173c-.2-1.432-1.412-2.387-3.023-2.387-2.068 0-3.44 1.63-3.44 3.958 0 2.287 1.312 3.937 3.46 3.937zm5.89-4.753c0-1.332.85-2.088 2.01-2.088 1.104 0 1.77.696 1.77 1.91V267h1.173v-4.852c0-1.964-1.044-2.884-2.605-2.884-1.203 0-1.89.502-2.247 1.293h-.1v-3.74h-1.173V267h1.173v-4.594zm9.346 4.773c1.332 0 2.028-.716 2.267-1.213h.06V267h1.174v-5.03c0-2.426-1.85-2.705-2.824-2.705-1.154 0-2.466.398-3.063 1.8l1.114.398c.258-.557.87-1.154 1.99-1.154 1.078 0 1.6.572 1.6 1.55v.04c0 .567-.576.517-1.968.696-1.417.184-2.963.497-2.963 2.247 0 1.492 1.153 2.347 2.605 2.347zm.18-1.054c-.935 0-1.61-.418-1.61-1.233 0-.895.815-1.173 1.73-1.293.497-.06 1.83-.198 2.028-.437v1.074c0 .954-.755 1.89-2.147 1.89zm10.87-5.05c-.368-1.084-1.193-1.8-2.704-1.8-1.61 0-2.804.915-2.804 2.208 0 1.054.626 1.76 2.028 2.088l1.273.298c.77.18 1.133.547 1.133 1.074 0 .656-.696 1.193-1.79 1.193-.96 0-1.56-.413-1.77-1.233l-1.114.278c.274 1.298 1.342 1.99 2.904 1.99 1.774 0 2.982-.97 2.982-2.287 0-1.064-.666-1.735-2.028-2.068l-1.133-.278c-.905-.224-1.313-.527-1.313-1.114 0-.656.696-1.134 1.63-1.134 1.024 0 1.446.567 1.65 1.094l1.054-.298zm1.906 5.926h1.173v-7.636h-1.173V267zm.596-8.91c.458 0 .835-.358.835-.796s-.377-.795-.835-.795-.835.358-.835.795.378.796.835.796zm3.9 4.315c0-1.332.825-2.088 1.95-2.088 1.09 0 1.75.71 1.75 1.91V267h1.173v-4.852c0-1.95-1.04-2.884-2.585-2.884-1.153 0-1.87.517-2.227 1.293h-.1v-1.193H323V267h1.173v-4.594zm10.1 7.617c1.83 0 3.3-.835 3.3-2.804v-7.855h-1.134v1.213h-.12c-.26-.398-.736-1.313-2.227-1.313-1.93 0-3.262 1.53-3.262 3.878 0 2.386 1.392 3.74 3.242 3.74 1.49 0 1.97-.875 2.227-1.293h.1v1.55c0 1.273-.895 1.85-2.128 1.85-1.387 0-1.875-.73-2.188-1.154l-.934.656c.477.8 1.416 1.532 3.122 1.532zm-.04-4.196c-1.472 0-2.227-1.114-2.227-2.705 0-1.55.735-2.804 2.227-2.804 1.432 0 2.187 1.154 2.187 2.804 0 1.7-.775 2.705-2.187 2.705zm12.747-6.463h-1.63v-1.83h-1.173v1.83h-1.153v.994h1.153v4.773c0 1.332 1.074 1.968 2.068 1.968.438 0 .716-.08.875-.14l-.238-1.054c-.1.02-.26.06-.517.06-.517 0-1.015-.16-1.015-1.154v-4.454h1.63v-.994zm3.102 3.042c0-1.332.85-2.088 2.01-2.088 1.104 0 1.77.696 1.77 1.91V267h1.173v-4.852c0-1.964-1.044-2.884-2.605-2.884-1.203 0-1.89.502-2.247 1.293h-.1v-3.74h-1.173V267h1.173v-4.594zm10.3 4.753c1.55 0 2.685-.775 3.043-1.93l-1.134-.318c-.298.795-.99 1.193-1.91 1.193-1.377 0-2.326-.9-2.38-2.525h5.543v-.498c0-2.843-1.7-3.818-3.28-3.818-2.068 0-3.44 1.63-3.44 3.977s1.352 3.918 3.56 3.918zm-2.38-4.594c.08-1.188.92-2.247 2.262-2.247 1.273 0 2.088.955 2.088 2.247H358zm17.5-3.2h-1.273l-2.108 6.085h-.08l-2.108-6.085h-1.273l2.824 7.636h1.193l2.824-7.636zm4.477 7.795c1.55 0 2.684-.775 3.042-1.93l-1.133-.318c-.298.795-1 1.193-1.91 1.193-1.377 0-2.327-.9-2.382-2.525h5.544v-.498c0-2.843-1.69-3.818-3.282-3.818-2.068 0-3.44 1.63-3.44 3.977s1.352 3.918 3.56 3.918zm-2.382-4.594c.08-1.188.92-2.247 2.262-2.247 1.273 0 2.088.955 2.088 2.247h-4.35zm8.502-.16c0-1.332.825-2.088 1.95-2.088 1.088 0 1.75.71 1.75 1.91V267h1.173v-4.852c0-1.95-1.04-2.884-2.585-2.884-1.154 0-1.87.517-2.228 1.293h-.1v-1.193h-1.134V267h1.174v-4.594zm9.9 4.753c1.472 0 1.97-.915 2.228-1.332h.14V267h1.133v-10.182h-1.173v3.76h-.1c-.26-.398-.716-1.313-2.208-1.313-1.93 0-3.26 1.53-3.26 3.938 0 2.426 1.332 3.957 3.24 3.957zm.16-1.054c-1.472 0-2.228-1.293-2.228-2.923 0-1.61.736-2.864 2.228-2.864 1.43 0 2.187 1.154 2.187 2.864 0 1.73-.776 2.923-2.187 2.923zm8.755 1.054c2.068 0 3.46-1.57 3.46-3.937 0-2.387-1.392-3.958-3.46-3.958s-3.46 1.57-3.46 3.958c0 2.366 1.392 3.937 3.46 3.937zm0-1.054c-1.572 0-2.287-1.352-2.287-2.883s.715-2.904 2.287-2.904 2.286 1.372 2.286 2.904-.715 2.883-2.286 2.883zm5.25.895h1.173v-4.832c0-1.034.815-1.8 1.93-1.8a3.68 3.68 0 0 1 .716.079v-1.193l-.617-.02c-.914 0-1.7.517-1.988 1.273h-.08v-1.153h-1.133V267zm5.19.08a.9.9 0 0 0 .895-.895.9.9 0 0 0-.895-.895.9.9 0 0 0-.895.895.9.9 0 0 0 .895.895z"/></g><circle cx="52" cy="233" r="12" fill="#f3f7fc"/><path d="M45.08 230.182V236h.835v-4.213h.054l1.716 4.204h.693l1.716-4.2h.054v4.2h.835v-5.818H49.92l-1.852 4.523h-.068l-1.852-4.523H45.08zM53.26 236h.878v-2.537h2.9V236h.88v-5.818h-.88v2.528h-2.9v-2.528h-.878V236z" fill="#1757c2"/><path d="M77.12 297.818V308h1.462v-7.373h.094l3.003 7.358h1.213l3.003-7.353h.094V308h1.462v-10.182h-1.864l-3.24 7.915h-.12l-3.24-7.915H77.12zm14.667 10.35c1.263 0 1.974-.64 2.257-1.213h.06V308h1.452v-5.07c0-2.222-1.75-2.665-2.963-2.665-1.382 0-2.655.557-3.152 1.95l1.397.318c.22-.542.775-1.064 1.775-1.064.96 0 1.452.502 1.452 1.368v.034c0 .542-.557.532-1.93.69-1.447.17-2.928.547-2.928 2.282 0 1.502 1.13 2.327 2.58 2.327zm.323-1.193c-.84 0-1.447-.378-1.447-1.114 0-.795.706-1.08 1.566-1.193.482-.065 1.626-.194 1.84-.408v.985c0 .905-.72 1.73-1.96 1.73zm8.627 4.032c1.944 0 3.445-.9 3.445-2.84v-7.805h-1.456v1.238h-.1c-.263-.473-.8-1.338-2.212-1.338-1.844 0-3.202 1.457-3.202 3.888 0 2.436 1.387 3.734 3.192 3.734 1.402 0 1.944-.79 2.212-1.278h.095v1.5c0 1.18-.82 1.7-1.95 1.7-1.238 0-1.72-.622-1.984-1.044l-1.278.527c.403.92 1.422 1.715 3.246 1.715zm-.015-4.355c-1.327 0-2.018-1.02-2.018-2.52 0-1.467.676-2.605 2.018-2.605 1.298 0 1.994 1.06 1.994 2.605 0 1.576-.71 2.52-1.994 2.52zm8.656 4.355c1.944 0 3.445-.9 3.445-2.84v-7.805h-1.457v1.238h-.11c-.263-.473-.8-1.338-2.212-1.338-1.845 0-3.202 1.457-3.202 3.888 0 2.436 1.387 3.734 3.192 3.734 1.402 0 1.944-.79 2.212-1.278h.095v1.5c0 1.18-.82 1.7-1.95 1.7-1.238 0-1.72-.622-1.984-1.044l-1.278.527c.403.92 1.422 1.715 3.247 1.715zm-.015-4.355c-1.328 0-2.02-1.02-2.02-2.52 0-1.467.677-2.605 2.02-2.605 1.297 0 1.993 1.06 1.993 2.605 0 1.576-.7 2.52-1.993 2.52zm5.454 1.347h1.486v-7.636h-1.486V308zm.75-8.815c.512 0 .94-.397.94-.885s-.428-.89-.94-.89-.94.402-.94.89.422.885.94.885zm6.027 8.97c1.666 0 2.844-.82 3.182-2.063l-1.407-.254c-.268.72-.915 1.09-1.76 1.09-1.273 0-2.128-.825-2.167-2.297h5.428v-.527c0-2.76-1.65-3.838-3.38-3.838-2.128 0-3.53 1.62-3.53 3.968 0 2.37 1.382 3.922 3.634 3.922zm-2.148-4.638c.06-1.084.846-2.024 2.054-2.024 1.153 0 1.91.855 1.914 2.024h-3.968zm19.743-.607c0-3.256-1.95-5.23-4.584-5.23-2.645 0-4.59 1.974-4.59 5.23s1.944 5.23 4.59 5.23c.656 0 1.268-.12 1.815-.353l.87 1.13h1.57l-1.373-1.8c1.054-.9 1.7-2.342 1.7-4.216zm-5.1 1.8l1.447 1.9c-.29.094-.602.14-.93.14-1.755 0-3.063-1.347-3.063-3.828s1.308-3.828 3.063-3.828c1.75 0 3.062 1.347 3.062 3.828 0 1.392-.412 2.43-1.088 3.068l-.98-1.278h-1.51zm11.734.134c.005 1.298-.96 1.914-1.795 1.914-.92 0-1.556-.666-1.556-1.705v-4.678h-1.486v4.857c0 1.894 1.04 2.878 2.505 2.878 1.15 0 1.93-.606 2.282-1.42h.08V308h1.46v-7.636h-1.49v4.47z" fill="#131520"/><path d="M580.96 308h1.317v-3.303h1.875l1.772 3.303h1.5l-1.934-3.533c1.07-.396 1.602-1.287 1.602-2.458 0-1.607-.997-2.736-3.02-2.736h-3.11V308zm1.317-4.436v-3.162h1.653c1.3 0 1.837.618 1.837 1.607 0 .984-.537 1.555-1.82 1.555h-1.67zm10.054 4.568c1.427 0 2.437-.703 2.727-1.768l-1.206-.218c-.23.618-.784.934-1.508.934-1.09 0-1.824-.708-1.858-1.97h4.653v-.452c0-2.365-1.415-3.3-2.898-3.3-1.823 0-3.025 1.4-3.025 3.4 0 2.033 1.185 3.362 3.115 3.362zm-1.84-3.976c.05-.93.724-1.734 1.76-1.734.99 0 1.636.733 1.64 1.734h-3.4zm7.063 6.3h1.274v-3.473h.077c.23.417.7 1.146 1.892 1.146 1.585 0 2.736-1.27 2.736-3.388s-1.168-3.37-2.75-3.37c-1.215 0-1.653.742-1.88 1.147h-.107v-1.06h-1.244v9zm1.248-5.728c0-1.368.597-2.275 1.71-2.275 1.155 0 1.735.976 1.735 2.275 0 1.313-.597 2.314-1.735 2.314-1.095 0-1.71-.937-1.71-2.314zm8.432-5.454h-1.274V308h1.274v-8.727zm3.52 11.165c1.052 0 1.72-.55 2.096-1.564l2.706-7.407-1.376-.012-1.658 5.08h-.068l-1.658-5.08h-1.363l2.395 6.63-.158.435c-.324.848-.78.925-1.48.733l-.307 1.044c.154.072.486.14.87.14z" fill="#1757c2"/><g fill="#5d6598"><path d="M159.634 297.818H158.4l-2.546 1.69v1.252l2.486-1.65h.06V308h1.233v-10.182zm6.25 10.32c2.247 0 3.54-1.904 3.54-5.23 0-3.3-1.313-5.23-3.54-5.23s-3.54 1.93-3.54 5.23c0 3.326 1.293 5.23 3.54 5.23zm0-1.094c-1.482 0-2.347-1.486-2.347-4.136 0-2.645.875-4.156 2.347-4.156s2.346 1.51 2.346 4.156c0 2.65-.865 4.136-2.346 4.136zm9.386.955h1.173v-4.773c0-1.118.816-1.91 1.73-1.91.89 0 1.51.582 1.51 1.452V308h1.193v-4.972c0-.984.617-1.7 1.7-1.7.836 0 1.552.443 1.552 1.57V308h1.173v-5.11c0-1.795-.965-2.625-2.327-2.625-1.094 0-1.894.502-2.287 1.293h-.08c-.378-.816-1.044-1.293-2.05-1.293-.994 0-1.73.477-2.048 1.293h-.1v-1.193h-1.134V308zm12.168 0h1.173v-7.636h-1.173V308zm.597-8.91c.457 0 .835-.358.835-.796s-.378-.795-.835-.795-.835.358-.835.795.377.796.835.796zm3.9 4.315c0-1.332.825-2.088 1.95-2.088 1.088 0 1.75.71 1.75 1.91V308h1.173v-4.852c0-1.95-1.04-2.884-2.585-2.884-1.154 0-1.87.517-2.228 1.293h-.1v-1.193h-1.134V308h1.174v-4.594zm11.828 1.472c0 1.432-1.093 2.088-1.968 2.088-.975 0-1.67-.716-1.67-1.83v-4.772h-1.173v4.852c0 1.95 1.034 2.883 2.466 2.883 1.153 0 1.91-.616 2.267-1.392h.08V308h1.174v-7.636h-1.174v4.514zm6.644-4.514h-1.63v-1.83H207.6v1.83h-1.154v.994h1.154v4.773c0 1.332 1.074 1.968 2.068 1.968.437 0 .716-.08.875-.14l-.24-1.054c-.1.02-.258.06-.517.06-.517 0-1.014-.16-1.014-1.154v-4.454h1.63v-.994zm4.884 7.795c1.55 0 2.685-.775 3.043-1.93l-1.134-.318c-.298.795-.99 1.193-1.91 1.193-1.377 0-2.326-.9-2.38-2.525h5.543v-.498c0-2.843-1.7-3.818-3.28-3.818-2.068 0-3.44 1.63-3.44 3.977s1.352 3.918 3.56 3.918zm-2.38-4.594c.08-1.188.92-2.247 2.262-2.247 1.273 0 2.088.955 2.088 2.247h-4.35zm12.737-1.49c-.368-1.084-1.193-1.8-2.704-1.8-1.61 0-2.804.915-2.804 2.208 0 1.054.626 1.76 2.028 2.088l1.273.298c.77.18 1.133.547 1.133 1.074 0 .656-.696 1.193-1.8 1.193-.96 0-1.56-.413-1.77-1.233l-1.114.278c.273 1.298 1.342 1.99 2.903 1.99 1.775 0 2.983-.97 2.983-2.287 0-1.064-.666-1.735-2.028-2.068l-1.134-.278c-.904-.224-1.312-.527-1.312-1.114 0-.656.696-1.134 1.63-1.134 1.024 0 1.446.567 1.65 1.094l1.054-.298zm8.1 6.105c1.332 0 2.028-.716 2.267-1.213h.06V308h1.173v-5.03c0-2.426-1.85-2.705-2.824-2.705-1.153 0-2.466.398-3.062 1.8l1.113.398c.26-.557.87-1.154 1.99-1.154 1.08 0 1.61.572 1.61 1.55v.04c0 .567-.577.517-1.97.696-1.417.184-2.963.497-2.963 2.247 0 1.492 1.153 2.347 2.605 2.347zm.18-1.054c-.935 0-1.61-.418-1.61-1.233 0-.895.816-1.173 1.73-1.293.498-.06 1.83-.198 2.03-.437v1.074c0 .954-.756 1.89-2.148 1.89zm8.545 3.898c1.83 0 3.3-.835 3.3-2.804v-7.855h-1.133v1.213h-.12c-.258-.398-.736-1.313-2.227-1.313-1.93 0-3.26 1.53-3.26 3.878 0 2.386 1.392 3.74 3.24 3.74 1.492 0 1.97-.875 2.227-1.293h.1v1.55c0 1.273-.895 1.85-2.128 1.85-1.387 0-1.874-.73-2.188-1.154l-.934.656c.477.8 1.417 1.532 3.122 1.532zm-.04-4.196c-1.47 0-2.227-1.114-2.227-2.705 0-1.55.736-2.804 2.227-2.804 1.432 0 2.188 1.154 2.188 2.804 0 1.7-.776 2.705-2.188 2.705zm8.59 1.332c2.068 0 3.46-1.57 3.46-3.937 0-2.387-1.392-3.958-3.46-3.958s-3.46 1.57-3.46 3.958c0 2.366 1.392 3.937 3.46 3.937zm0-1.054c-1.57 0-2.287-1.352-2.287-2.883s.716-2.904 2.287-2.904 2.287 1.372 2.287 2.904-.716 2.883-2.287 2.883z"/><path d="M84.193 330h1.273c-.378-1.97-2.028-3.32-4.176-3.32-2.6 0-4.455 2.01-4.455 5.23s1.83 5.23 4.534 5.23c2.426 0 4.156-1.616 4.156-4.136v-1.094h-3.878v1.094h2.685c-.035 1.83-1.238 2.983-2.963 2.983-1.89 0-3.34-1.432-3.34-4.077s1.452-4.077 3.26-4.077c1.472 0 2.47.83 2.903 2.168zm6.387 7.16c2.068 0 3.46-1.57 3.46-3.937 0-2.387-1.392-3.958-3.46-3.958s-3.46 1.57-3.46 3.958c0 2.366 1.392 3.937 3.46 3.937zm0-1.054c-1.57 0-2.287-1.352-2.287-2.883s.716-2.904 2.287-2.904 2.287 1.372 2.287 2.904-.716 2.883-2.287 2.883zm8.353 1.054c2.068 0 3.46-1.57 3.46-3.937 0-2.387-1.392-3.958-3.46-3.958s-3.46 1.57-3.46 3.958c0 2.366 1.392 3.937 3.46 3.937zm0-1.054c-1.57 0-2.287-1.352-2.287-2.883s.716-2.904 2.287-2.904 2.287 1.372 2.287 2.904-.716 2.883-2.287 2.883zm8.135 1.054c1.47 0 1.968-.915 2.227-1.332h.14V337h1.134v-10.182h-1.174v3.76h-.1c-.26-.398-.716-1.313-2.207-1.313-1.93 0-3.262 1.53-3.262 3.938 0 2.426 1.333 3.957 3.242 3.957zm.16-1.054c-1.472 0-2.227-1.293-2.227-2.923 0-1.61.735-2.864 2.227-2.864 1.432 0 2.187 1.154 2.187 2.864 0 1.73-.775 2.923-2.187 2.923zm10.763-3.7c0-1.332.826-2.088 1.95-2.088 1.09 0 1.75.71 1.75 1.91V337h1.173v-4.852c0-1.95-1.04-2.884-2.585-2.884-1.153 0-1.87.517-2.227 1.293h-.1v-1.193h-1.134V337h1.173v-4.594zm10.218 4.753c1.55 0 2.685-.775 3.043-1.93l-1.134-.318c-.298.795-.99 1.193-1.91 1.193-1.377 0-2.327-.9-2.38-2.525h5.543v-.498c0-2.843-1.7-3.818-3.28-3.818-2.068 0-3.44 1.63-3.44 3.977s1.352 3.918 3.56 3.918zm-2.38-4.594c.08-1.188.92-2.247 2.262-2.247 1.273 0 2.088.955 2.088 2.247h-4.35zm9.058 4.435h1.153l1.67-5.866h.12L139.5 337h1.153l2.327-7.636h-1.233l-1.65 5.826h-.08l-1.61-5.826h-1.253l-1.63 5.846h-.08l-1.65-5.846h-1.233l2.327 7.636zm15.054-5.926c-.368-1.084-1.193-1.8-2.705-1.8-1.6 0-2.804.915-2.804 2.208 0 1.054.627 1.76 2.03 2.088l1.273.298c.77.18 1.133.547 1.133 1.074 0 .656-.696 1.193-1.8 1.193-.96 0-1.56-.413-1.77-1.233l-1.113.278c.273 1.298 1.342 1.99 2.903 1.99 1.775 0 2.983-.97 2.983-2.287 0-1.064-.666-1.735-2.028-2.068l-1.134-.278c-.905-.224-1.312-.527-1.312-1.114 0-.656.696-1.134 1.63-1.134 1.025 0 1.447.567 1.65 1.094l1.054-.298zm5.843 5.926h1.173v-7.636h-1.173V337zm.596-8.91c.458 0 .836-.358.836-.796s-.378-.795-.836-.795-.835.358-.835.795.378.796.835.796zm8.135 2.983c-.368-1.084-1.193-1.8-2.704-1.8-1.61 0-2.804.915-2.804 2.208 0 1.054.626 1.76 2.028 2.088l1.273.298c.77.18 1.133.547 1.133 1.074 0 .656-.696 1.193-1.79 1.193-.96 0-1.562-.413-1.77-1.233l-1.114.278c.273 1.298 1.342 1.99 2.903 1.99 1.775 0 2.983-.97 2.983-2.287 0-1.064-.666-1.735-2.028-2.068l-1.134-.278c-.904-.224-1.312-.527-1.312-1.114 0-.656.696-1.134 1.63-1.134 1.024 0 1.446.567 1.65 1.094l1.054-.298zm9.164-1.7h-1.63v-1.83h-1.173v1.83h-1.153v.994h1.153v4.773c0 1.332 1.074 1.968 2.068 1.968.438 0 .716-.08.875-.14l-.238-1.054c-.1.02-.26.06-.517.06-.517 0-1.015-.16-1.015-1.154v-4.454h1.63v-.994zm3.102 3.042c0-1.332.85-2.088 2.01-2.088 1.104 0 1.77.696 1.77 1.91V337h1.173v-4.852c0-1.964-1.044-2.884-2.605-2.884-1.203 0-1.89.502-2.247 1.293h-.1v-3.74h-1.173V337h1.173v-4.594zm9.346 4.773c1.332 0 2.028-.716 2.267-1.213h.06V337h1.174v-5.03c0-2.426-1.85-2.705-2.824-2.705-1.154 0-2.466.398-3.063 1.8l1.114.398c.26-.557.87-1.154 1.99-1.154 1.078 0 1.6.572 1.6 1.55v.04c0 .567-.576.517-1.968.696-1.417.184-2.963.497-2.963 2.247 0 1.492 1.153 2.347 2.605 2.347zm.18-1.054c-.935 0-1.61-.418-1.61-1.233 0-.895.815-1.173 1.73-1.293.497-.06 1.83-.198 2.028-.437v1.074c0 .954-.755 1.89-2.147 1.89zm8.783-6.76h-1.63v-1.83h-1.174v1.83h-1.153v.994h1.153v4.773c0 1.332 1.074 1.968 2.068 1.968.438 0 .716-.08.875-.14l-.238-1.054c-.1.02-.26.06-.517.06-.517 0-1.014-.16-1.014-1.154v-4.454h1.63v-.994zm9.024 0h-1.63v-1.83h-1.173v1.83h-1.154v.994h1.154v4.773c0 1.332 1.074 1.968 2.068 1.968.437 0 .716-.08.875-.14l-.24-1.054c-.1.02-.258.06-.517.06-.517 0-1.014-.16-1.014-1.154v-4.454h1.63v-.994zm3.102 3.042c0-1.332.85-2.088 2.008-2.088 1.104 0 1.77.696 1.77 1.91V337h1.174v-4.852c0-1.964-1.044-2.884-2.605-2.884-1.204 0-1.9.502-2.248 1.293h-.1v-3.74h-1.173V337h1.173v-4.594zm10.3 4.753c1.55 0 2.685-.775 3.042-1.93l-1.133-.318c-.298.795-.99 1.193-1.91 1.193-1.377 0-2.327-.9-2.382-2.525h5.544v-.498c0-2.843-1.69-3.818-3.28-3.818-2.07 0-3.44 1.63-3.44 3.977s1.352 3.918 3.56 3.918zm-2.382-4.594c.08-1.188.92-2.247 2.263-2.247 1.272 0 2.088.955 2.088 2.247h-4.35zm7.33 4.435h1.173v-4.832c0-1.034.815-1.8 1.93-1.8a3.68 3.68 0 0 1 .716.079v-1.193l-.617-.02c-.914 0-1.7.517-1.988 1.273h-.08v-1.153h-1.133V337zm8.178.16c1.55 0 2.685-.775 3.042-1.93l-1.133-.318c-.298.795-.99 1.193-1.91 1.193-1.377 0-2.327-.9-2.382-2.525h5.544v-.498c0-2.843-1.69-3.818-3.28-3.818-2.07 0-3.44 1.63-3.44 3.977s1.352 3.918 3.56 3.918zm-2.382-4.594c.08-1.188.92-2.247 2.263-2.247 1.272 0 2.088.955 2.088 2.247h-4.35zm8.363-5.747h-1.114v.915c0 .736-.358 1.372-.776 1.97l.637.517c.795-.637 1.253-1.69 1.253-2.506v-.895zm6.29 4.256c-.368-1.084-1.193-1.8-2.705-1.8-1.61 0-2.804.915-2.804 2.208 0 1.054.627 1.76 2.03 2.088l1.272.298c.77.18 1.134.547 1.134 1.074 0 .656-.696 1.193-1.8 1.193-.96 0-1.56-.413-1.77-1.233l-1.113.278c.273 1.298 1.342 1.99 2.903 1.99 1.775 0 2.983-.97 2.983-2.287 0-1.064-.666-1.735-2.028-2.068l-1.134-.278c-.905-.224-1.312-.527-1.312-1.114 0-.656.696-1.134 1.63-1.134 1.024 0 1.447.567 1.65 1.094l1.054-.298zm7.016 1.332c0-1.332.825-2.088 1.95-2.088 1.09 0 1.75.71 1.75 1.91V337h1.173v-4.852c0-1.95-1.04-2.884-2.585-2.884-1.154 0-1.87.517-2.227 1.293h-.1v-1.193h-1.133V337h1.173v-4.594zm10.118 4.753c2.07 0 3.46-1.57 3.46-3.937 0-2.387-1.392-3.958-3.46-3.958s-3.46 1.57-3.46 3.958c0 2.366 1.392 3.937 3.46 3.937zm0-1.054c-1.57 0-2.287-1.352-2.287-2.883s.716-2.904 2.287-2.904 2.287 1.372 2.287 2.904-.716 2.883-2.287 2.883zm14.598-5.03c-.368-1.084-1.193-1.8-2.704-1.8-1.61 0-2.804.915-2.804 2.208 0 1.054.626 1.76 2.028 2.088l1.273.298c.77.18 1.133.547 1.133 1.074 0 .656-.696 1.193-1.79 1.193-.96 0-1.562-.413-1.77-1.233l-1.114.278c.273 1.298 1.342 1.99 2.903 1.99 1.775 0 2.983-.97 2.983-2.287 0-1.064-.666-1.735-2.028-2.068l-1.134-.278c-.904-.224-1.312-.527-1.312-1.114 0-.656.696-1.134 1.63-1.134 1.024 0 1.446.567 1.65 1.094l1.054-.298zm5.107 6.085c1.55 0 2.685-.775 3.043-1.93l-1.134-.318c-.298.795-.99 1.193-1.91 1.193-1.377 0-2.326-.9-2.38-2.525h5.543v-.498c0-2.843-1.7-3.818-3.28-3.818-2.068 0-3.44 1.63-3.44 3.977s1.352 3.918 3.56 3.918zm-2.38-4.594c.08-1.188.92-2.247 2.262-2.247 1.273 0 2.088.955 2.088 2.247h-4.35zm8.5-.16c0-1.332.826-2.088 1.95-2.088 1.09 0 1.75.71 1.75 1.91V337h1.173v-4.852c0-1.95-1.04-2.884-2.585-2.884-1.153 0-1.87.517-2.227 1.293h-.1v-1.193h-1.133V337h1.173v-4.594zm12.426-1.332c-.368-1.084-1.194-1.8-2.705-1.8-1.61 0-2.804.915-2.804 2.208 0 1.054.626 1.76 2.028 2.088l1.273.298c.77.18 1.134.547 1.134 1.074 0 .656-.696 1.193-1.8 1.193-.96 0-1.56-.413-1.77-1.233l-1.114.278c.274 1.298 1.343 1.99 2.904 1.99 1.775 0 2.983-.97 2.983-2.287 0-1.064-.666-1.735-2.03-2.068l-1.133-.278c-.905-.224-1.313-.527-1.313-1.114 0-.656.696-1.134 1.63-1.134 1.024 0 1.447.567 1.65 1.094l1.054-.298zM300.2 337h1.173v-7.636H300.2V337zm.596-8.91c.458 0 .836-.358.836-.796s-.378-.795-.836-.795-.835.358-.835.795.378.796.835.796zm6.047 1.273h-1.63v-1.83h-1.173v1.83h-1.153v.994h1.153v4.773c0 1.332 1.074 1.968 2.068 1.968.438 0 .716-.08.875-.14l-.238-1.054c-.1.02-.26.06-.517.06-.517 0-1.015-.16-1.015-1.154v-4.454h1.63v-.994zm1.765 7.636h1.173v-7.636h-1.173V337zm.597-8.91c.457 0 .835-.358.835-.796s-.378-.795-.835-.795-.836.358-.836.795.378.796.836.796zm8.97 1.273H316.9l-2.108 6.085h-.08l-2.108-6.085h-1.272l2.824 7.636h1.193l2.824-7.636zm4.477 7.795c1.55 0 2.684-.775 3.042-1.93l-1.133-.318c-.3.795-1 1.193-1.91 1.193-1.378 0-2.327-.9-2.382-2.525h5.543v-.498c0-2.843-1.7-3.818-3.28-3.818-2.068 0-3.44 1.63-3.44 3.977s1.352 3.918 3.56 3.918zm-2.382-4.594c.08-1.188.92-2.247 2.262-2.247 1.273 0 2.088.955 2.088 2.247h-4.35zm14.15 4.594c1.472 0 1.97-.915 2.228-1.332h.14V337h1.133v-10.182h-1.173v3.76h-.1c-.26-.398-.716-1.313-2.208-1.313-1.93 0-3.26 1.53-3.26 3.938 0 2.426 1.332 3.957 3.24 3.957zm.16-1.054c-1.47 0-2.227-1.293-2.227-2.923 0-1.61.736-2.864 2.227-2.864 1.432 0 2.188 1.154 2.188 2.864 0 1.73-.776 2.923-2.188 2.923zm7.9 1.074c1.333 0 2.03-.716 2.267-1.213h.06V337h1.173v-5.03c0-2.426-1.85-2.705-2.824-2.705-1.153 0-2.465.398-3.062 1.8l1.114.398c.258-.557.87-1.154 1.988-1.154 1.08 0 1.61.572 1.61 1.55v.04c0 .567-.577.517-1.97.696-1.417.184-2.963.497-2.963 2.247 0 1.492 1.154 2.347 2.605 2.347zm.18-1.054c-.934 0-1.61-.418-1.61-1.233 0-.895.816-1.173 1.73-1.293.497-.06 1.83-.198 2.028-.437v1.074c0 .954-.756 1.89-2.148 1.89zm8.784-6.76h-1.63v-1.83h-1.173v1.83h-1.154v.994h1.154v4.773c0 1.332 1.074 1.968 2.068 1.968.438 0 .716-.08.875-.14l-.24-1.054c-.1.02-.258.06-.517.06-.517 0-1.014-.16-1.014-1.154v-4.454h1.63v-.994zm4.012 7.815c1.332 0 2.028-.716 2.267-1.213h.06V337h1.173v-5.03c0-2.426-1.85-2.705-2.824-2.705-1.153 0-2.466.398-3.062 1.8l1.113.398c.26-.557.87-1.154 1.99-1.154 1.08 0 1.61.572 1.61 1.55v.04c0 .567-.577.517-1.97.696-1.417.184-2.963.497-2.963 2.247 0 1.492 1.153 2.347 2.605 2.347zm.18-1.054c-.935 0-1.61-.418-1.61-1.233 0-.895.815-1.173 1.73-1.293.497-.06 1.83-.198 2.03-.437v1.074c0 .954-.756 1.89-2.148 1.89zm6.318.955c.492 0 .894-.403.894-.895s-.402-.895-.894-.895-.895.402-.895.895a.9.9 0 0 0 .895.895zm7.096-10.262V337h1.154v-7.736h.1L373.48 337h1.114l3.182-7.736h.1V337h1.153v-10.182h-1.47l-3.46 8.452h-.12l-3.46-8.452h-1.472zm15.4 10.34c2.068 0 3.46-1.57 3.46-3.937 0-2.387-1.392-3.958-3.46-3.958s-3.46 1.57-3.46 3.958c0 2.366 1.393 3.937 3.46 3.937zm0-1.054c-1.57 0-2.287-1.352-2.287-2.883s.716-2.904 2.287-2.904 2.287 1.372 2.287 2.904-.716 2.883-2.287 2.883zm6.424-3.7c0-1.332.826-2.088 1.95-2.088 1.09 0 1.75.71 1.75 1.91V337h1.173v-4.852c0-1.95-1.04-2.884-2.585-2.884-1.153 0-1.87.517-2.227 1.293h-.1v-1.193h-1.133V337h1.173v-4.594zm7.016 4.594h1.174v-7.636h-1.174V337zm.597-8.91c.457 0 .835-.358.835-.796s-.378-.795-.835-.795-.835.358-.835.795.378.796.835.796zm5.828 9.068c1.7 0 2.804-1.034 3.003-2.386h-1.174c-.218.835-.914 1.332-1.83 1.332-1.392 0-2.287-1.153-2.287-2.923 0-1.73.915-2.864 2.287-2.864 1.034 0 1.65.637 1.83 1.333h1.174c-.2-1.432-1.412-2.387-3.023-2.387-2.068 0-3.44 1.63-3.44 3.958 0 2.287 1.312 3.937 3.46 3.937zm6.965.02c1.333 0 2.03-.716 2.267-1.213h.06V337h1.173v-5.03c0-2.426-1.85-2.705-2.824-2.705-1.153 0-2.466.398-3.062 1.8l1.113.398c.26-.557.87-1.154 1.99-1.154 1.08 0 1.61.572 1.61 1.55v.04c0 .567-.577.517-1.97.696-1.417.184-2.963.497-2.963 2.247 0 1.492 1.153 2.347 2.605 2.347zm.18-1.054c-.935 0-1.61-.418-1.61-1.233 0-.895.816-1.173 1.73-1.293.498-.06 1.83-.198 2.03-.437v1.074c0 .954-.756 1.89-2.148 1.89zm11.13.875h1.154l1.67-5.866h.12l1.67 5.866h1.153l2.327-7.636h-1.233l-1.65 5.826h-.08l-1.61-5.826h-1.253l-1.63 5.846h-.08l-1.65-5.846h-1.233l2.326 7.636zm9.645 0h1.173v-7.636h-1.173V337zm.597-8.91c.457 0 .835-.358.835-.796s-.378-.795-.835-.795-.835.358-.835.795.377.796.835.796zm3.9-1.273h-1.174V337h1.174v-10.182zm3.322 0h-1.173V337h1.173v-10.182zm9.487 2.546h-1.7v-.776c0-.756.318-1.153 1.094-1.153.338 0 .536.08.656.12l.338-1.014c-.18-.08-.537-.2-1.114-.2-1.094 0-2.147.656-2.147 1.97v1.054h-1.233v.994h1.233V337h1.173v-6.642h1.7v-.994zm4.432 7.795c2.068 0 3.46-1.57 3.46-3.937 0-2.387-1.392-3.958-3.46-3.958s-3.46 1.57-3.46 3.958c0 2.366 1.392 3.937 3.46 3.937zm0-1.054c-1.57 0-2.287-1.352-2.287-2.883s.716-2.904 2.287-2.904 2.287 1.372 2.287 2.904-.716 2.883-2.287 2.883zm6.425-9.287h-1.174V337h1.174v-10.182zm3.322 0h-1.173V337h1.173v-10.182zm5.25 10.34c2.068 0 3.46-1.57 3.46-3.937 0-2.387-1.392-3.958-3.46-3.958s-3.46 1.57-3.46 3.958c0 2.366 1.392 3.937 3.46 3.937zm0-1.054c-1.57 0-2.287-1.352-2.287-2.883s.716-2.904 2.287-2.904 2.287 1.372 2.287 2.904-.716 2.883-2.287 2.883zm6.722.895h1.153l1.67-5.866h.12l1.67 5.866h1.154l2.327-7.636h-1.233l-1.65 5.826h-.08l-1.61-5.826h-1.253l-1.63 5.846h-.08l-1.65-5.846h-1.233l2.327 7.636zm-393.8 13.878c0 1.432-1.094 2.088-1.97 2.088-.974 0-1.67-.716-1.67-1.83v-4.772h-1.173v4.852c0 1.95 1.034 2.883 2.466 2.883 1.153 0 1.91-.616 2.267-1.392h.08V354h1.173v-7.636h-1.173v4.514zm3.322 5.986h1.173v-4.037h.1c.26.417.756 1.332 2.227 1.332 1.91 0 3.242-1.53 3.242-3.957 0-2.407-1.332-3.938-3.26-3.938-1.49 0-1.95.915-2.207 1.313h-.14v-1.213H85.21v10.5zm1.153-6.682c0-1.7.756-2.864 2.188-2.864 1.492 0 2.227 1.253 2.227 2.864 0 1.63-.756 2.923-2.227 2.923-1.412 0-2.187-1.193-2.187-2.923zm8.233 3.898a.9.9 0 0 0 .895-.895c0-.493-.403-.895-.895-.895s-.895.402-.895.895a.9.9 0 0 0 .895.895zm8.33-10.262h-1.233V354h1.233v-10.182zm5.634 2.546h-1.63v-1.83h-1.173v1.83h-1.153v.994h1.153v4.773c0 1.332 1.074 1.968 2.068 1.968.438 0 .716-.08.875-.14l-.238-1.054c-.1.02-.26.06-.518.06-.517 0-1.014-.16-1.014-1.154v-4.454h1.63v-.994zm6.876-2.546h-1.174V354h1.174v-10.182zm5.25 10.34c2.068 0 3.46-1.57 3.46-3.937 0-2.387-1.392-3.958-3.46-3.958s-3.46 1.57-3.46 3.958c0 2.366 1.392 3.937 3.46 3.937zm0-1.054c-1.57 0-2.287-1.352-2.287-2.883s.716-2.904 2.287-2.904 2.287 1.372 2.287 2.904-.716 2.883-2.287 2.883zm8.353 1.054c2.07 0 3.46-1.57 3.46-3.937 0-2.387-1.392-3.958-3.46-3.958s-3.46 1.57-3.46 3.958c0 2.366 1.392 3.937 3.46 3.937zm0-1.054c-1.57 0-2.287-1.352-2.287-2.883s.716-2.904 2.287-2.904 2.287 1.372 2.287 2.904-.716 2.883-2.287 2.883zm5.252.895h1.173v-2.86l.82-.76 2.86 3.62h1.49l-3.465-4.375 3.227-3.26h-1.452l-3.34 3.4h-.14v-5.946h-1.173V354zm13.024-5.926c-.368-1.084-1.193-1.8-2.705-1.8-1.6 0-2.804.915-2.804 2.208 0 1.054.627 1.76 2.03 2.088l1.273.298c.77.18 1.133.547 1.133 1.074 0 .656-.696 1.193-1.8 1.193-.96 0-1.56-.413-1.77-1.233l-1.113.278c.273 1.298 1.342 1.99 2.903 1.99 1.775 0 2.983-.97 2.983-2.287 0-1.064-.666-1.735-2.028-2.068l-1.134-.278c-.905-.224-1.312-.527-1.312-1.114 0-.656.696-1.134 1.63-1.134 1.025 0 1.447.567 1.65 1.094l1.054-.298zm7.016-4.256h-1.173V354h1.173v-10.182zM156.48 354h1.173v-7.636h-1.173V354zm.597-8.91c.457 0 .835-.358.835-.796s-.378-.795-.835-.795-.836.358-.836.795.378.796.836.796zm2.725 8.91h1.174v-2.86l.82-.76 2.86 3.62h1.49l-3.465-4.375 3.226-3.26h-1.45l-3.34 3.4h-.14v-5.946h-1.174V354zm10.503.16c1.55 0 2.685-.775 3.042-1.93l-1.133-.318c-.298.795-.99 1.193-1.91 1.193-1.377 0-2.327-.9-2.382-2.525h5.544v-.498c0-2.843-1.69-3.818-3.28-3.818-2.07 0-3.44 1.63-3.44 3.977s1.352 3.918 3.56 3.918zm-2.382-4.594c.08-1.188.92-2.247 2.263-2.247 1.272 0 2.088.955 2.088 2.247h-4.35zm14.587-3.2h-1.63v-1.83h-1.173v1.83h-1.153v.994h1.153v4.773c0 1.332 1.074 1.968 2.068 1.968.438 0 .716-.08.875-.14l-.238-1.054c-.1.02-.26.06-.517.06-.517 0-1.015-.16-1.015-1.154v-4.454h1.63v-.994zm3.102 3.042c0-1.332.85-2.088 2.01-2.088 1.104 0 1.77.696 1.77 1.91V354h1.173v-4.852c0-1.964-1.044-2.884-2.605-2.884-1.203 0-1.89.502-2.247 1.293h-.1v-3.74h-1.173V354h1.173v-4.594zm10.3 4.753c1.55 0 2.685-.775 3.043-1.93l-1.134-.318c-.298.795-.99 1.193-1.91 1.193-1.377 0-2.326-.9-2.38-2.525h5.543v-.498c0-2.843-1.7-3.818-3.28-3.818-2.068 0-3.44 1.63-3.44 3.977s1.352 3.918 3.56 3.918zm-2.38-4.594c.08-1.188.92-2.247 2.262-2.247 1.273 0 2.088.955 2.088 2.247h-4.35zm16.675-1.49c-.368-1.084-1.194-1.8-2.705-1.8-1.61 0-2.804.915-2.804 2.208 0 1.054.627 1.76 2.028 2.088l1.273.298c.77.18 1.134.547 1.134 1.074 0 .656-.696 1.193-1.8 1.193-.96 0-1.56-.413-1.77-1.233l-1.114.278c.274 1.298 1.343 1.99 2.904 1.99 1.775 0 2.983-.97 2.983-2.287 0-1.064-.666-1.735-2.03-2.068l-1.133-.278c-.905-.224-1.313-.527-1.313-1.114 0-.656.696-1.134 1.63-1.134 1.024 0 1.447.567 1.65 1.094l1.054-.298zm4.152 6.105c1.333 0 2.03-.716 2.267-1.213h.06V354h1.173v-5.03c0-2.426-1.85-2.705-2.824-2.705-1.153 0-2.466.398-3.062 1.8l1.113.398c.26-.557.87-1.154 1.99-1.154 1.08 0 1.61.572 1.61 1.55v.04c0 .567-.577.517-1.97.696-1.417.184-2.963.497-2.963 2.247 0 1.492 1.153 2.347 2.605 2.347zm.18-1.054c-.935 0-1.61-.418-1.61-1.233 0-.895.816-1.173 1.73-1.293.498-.06 1.83-.198 2.03-.437v1.074c0 .954-.756 1.89-2.148 1.89zM220 354h1.173v-4.773c0-1.118.815-1.91 1.73-1.91.9 0 1.51.582 1.51 1.452V354h1.194v-4.972c0-.984.616-1.7 1.7-1.7.835 0 1.55.443 1.55 1.57V354h1.173v-5.11c0-1.795-.964-2.625-2.326-2.625-1.094 0-1.895.502-2.287 1.293h-.08c-.378-.816-1.044-1.293-2.048-1.293-.994 0-1.73.477-2.048 1.293h-.1v-1.193H220V354zm15.37.16c1.55 0 2.685-.775 3.043-1.93l-1.134-.318c-.298.795-.99 1.193-1.91 1.193-1.377 0-2.326-.9-2.38-2.525h5.543v-.498c0-2.843-1.7-3.818-3.28-3.818-2.068 0-3.44 1.63-3.44 3.977s1.352 3.918 3.56 3.918zm-2.38-4.594c.08-1.188.92-2.247 2.262-2.247 1.273 0 2.088.955 2.088 2.247h-4.35zm12.44-5.747h-1.173V354h1.173v-10.182zm5.35 10.34c1.55 0 2.684-.775 3.042-1.93l-1.133-.318c-.3.795-1 1.193-1.91 1.193-1.378 0-2.327-.9-2.382-2.525h5.543v-.498c0-2.843-1.7-3.818-3.28-3.818-2.068 0-3.44 1.63-3.44 3.977s1.352 3.918 3.56 3.918zm-2.382-4.594c.08-1.188.92-2.247 2.262-2.247 1.273 0 2.088.955 2.088 2.247h-4.35zm9.575 4.614c1.333 0 2.03-.716 2.267-1.213h.06V354h1.173v-5.03c0-2.426-1.85-2.705-2.823-2.705-1.154 0-2.466.398-3.063 1.8l1.114.398c.258-.557.87-1.154 1.988-1.154 1.08 0 1.61.572 1.61 1.55v.04c0 .567-.577.517-1.97.696-1.417.184-2.963.497-2.963 2.247 0 1.492 1.154 2.347 2.605 2.347zm.18-1.054c-.934 0-1.6-.418-1.6-1.233 0-.895.815-1.173 1.73-1.293.497-.06 1.83-.198 2.028-.437v1.074c0 .954-.756 1.89-2.148 1.89zm5.463.875h1.173v-2.86l.82-.76 2.858 3.62h1.492l-3.466-4.375 3.227-3.26h-1.452l-3.34 3.4h-.14v-5.946h-1.173V354zm14.953-7.636h-1.7v-.776c0-.756.318-1.153 1.094-1.153.338 0 .537.08.656.12l.338-1.014c-.18-.08-.537-.2-1.114-.2-1.093 0-2.147.656-2.147 1.97v1.054h-1.233v.994h1.233V354h1.173v-6.642h1.7v-.994zM280.21 354h1.173v-4.832c0-1.034.815-1.8 1.93-1.8a3.68 3.68 0 0 1 .716.079v-1.193l-.617-.02c-.914 0-1.7.517-1.988 1.273h-.08v-1.153h-1.133V354zm8.078.16c2.07 0 3.46-1.57 3.46-3.937 0-2.387-1.392-3.958-3.46-3.958s-3.46 1.57-3.46 3.958c0 2.366 1.392 3.937 3.46 3.937zm0-1.054c-1.57 0-2.287-1.352-2.287-2.883s.716-2.904 2.287-2.904 2.287 1.372 2.287 2.904-.716 2.883-2.287 2.883zm5.252.895h1.173v-4.773c0-1.118.815-1.91 1.73-1.91.9 0 1.51.582 1.51 1.452V354h1.194v-4.972c0-.984.616-1.7 1.7-1.7.835 0 1.55.443 1.55 1.57V354h1.173v-5.11c0-1.795-.964-2.625-2.326-2.625-1.094 0-1.894.502-2.287 1.293h-.08c-.378-.816-1.044-1.293-2.048-1.293-.994 0-1.73.477-2.048 1.293h-.1v-1.193h-1.133V354zm16.264 0h3.68c2.406 0 3.4-1.173 3.4-2.705 0-1.6-1.114-2.485-2.05-2.545v-.1c.875-.24 1.65-.816 1.65-2.128 0-1.492-.994-2.705-3.122-2.705h-3.56V354zm1.233-1.094v-3.54h2.506c1.332 0 2.167.895 2.167 1.93 0 .895-.616 1.61-2.227 1.61h-2.446zm0-4.613v-3.38h2.327c1.352 0 1.95.716 1.95 1.61 0 1.074-.875 1.77-1.99 1.77h-2.287zm9.96 5.886c1.332 0 2.028-.716 2.267-1.213h.06V354h1.174v-5.03c0-2.426-1.85-2.705-2.824-2.705-1.154 0-2.466.398-3.063 1.8l1.114.398c.26-.557.87-1.154 1.99-1.154 1.08 0 1.6.572 1.6 1.55v.04c0 .567-.576.517-1.968.696-1.417.184-2.963.497-2.963 2.247 0 1.492 1.153 2.347 2.605 2.347zm.18-1.054c-.935 0-1.61-.418-1.61-1.233 0-.895.815-1.173 1.73-1.293.497-.06 1.83-.198 2.028-.437v1.074c0 .954-.755 1.89-2.147 1.89zm6.636-3.72c0-1.332.825-2.088 1.948-2.088 1.09 0 1.75.71 1.75 1.91V354h1.174v-4.852c0-1.95-1.04-2.884-2.586-2.884-1.153 0-1.87.517-2.227 1.293h-.1v-1.193h-1.134V354h1.174v-4.594zM334.83 354h1.173v-2.86l.82-.76 2.86 3.62h1.49l-3.465-4.375 3.227-3.26h-1.452l-3.34 3.4h-.14v-5.946h-1.173V354zm6.424-9.088h3.202V354h1.233v-9.088h3.202v-1.094h-7.637v1.094zm11.475 9.247c1.55 0 2.684-.775 3.042-1.93l-1.133-.318c-.3.795-1 1.193-1.91 1.193-1.377 0-2.327-.9-2.382-2.525h5.544v-.498c0-2.843-1.69-3.818-3.282-3.818-2.068 0-3.44 1.63-3.44 3.977s1.352 3.918 3.56 3.918zm-2.382-4.594c.08-1.188.92-2.247 2.262-2.247 1.273 0 2.088.955 2.088 2.247h-4.35zm10.43 4.594c1.7 0 2.804-1.034 3.003-2.386h-1.174c-.22.835-.915 1.332-1.83 1.332-1.392 0-2.287-1.153-2.287-2.923 0-1.73.915-2.864 2.287-2.864 1.034 0 1.65.637 1.83 1.333h1.174c-.2-1.432-1.412-2.387-3.023-2.387-2.068 0-3.44 1.63-3.44 3.958 0 2.287 1.313 3.937 3.46 3.937zm5.89-4.753c0-1.332.85-2.088 2.01-2.088 1.103 0 1.77.696 1.77 1.91V354h1.174v-4.852c0-1.964-1.044-2.884-2.605-2.884-1.204 0-1.9.502-2.248 1.293h-.1v-3.74h-1.173V354h1.173v-4.594zm12.21-5.588h-1.173V354h1.173v-10.182zm4.396 10.36c1.333 0 2.03-.716 2.267-1.213h.06V354h1.173v-5.03c0-2.426-1.85-2.705-2.824-2.705-1.153 0-2.466.398-3.062 1.8l1.113.398c.26-.557.87-1.154 1.99-1.154 1.08 0 1.61.572 1.61 1.55v.04c0 .567-.577.517-1.97.696-1.417.184-2.963.497-2.963 2.247 0 1.492 1.153 2.347 2.605 2.347zm.18-1.054c-.935 0-1.61-.418-1.61-1.233 0-.895.816-1.173 1.73-1.293.498-.06 1.83-.198 2.03-.437v1.074c0 .954-.756 1.89-2.148 1.89zm10.872-5.05c-.368-1.084-1.193-1.8-2.705-1.8-1.61 0-2.804.915-2.804 2.208 0 1.054.627 1.76 2.03 2.088l1.272.298c.77.18 1.134.547 1.134 1.074 0 .656-.696 1.193-1.8 1.193-.96 0-1.56-.413-1.77-1.233l-1.113.278c.273 1.298 1.342 1.99 2.903 1.99 1.775 0 2.983-.97 2.983-2.287 0-1.064-.666-1.735-2.028-2.068l-1.134-.278c-.905-.224-1.312-.527-1.312-1.114 0-.656.696-1.134 1.63-1.134 1.024 0 1.447.567 1.65 1.094l1.054-.298zm5.226-1.7h-1.63v-1.83h-1.173v1.83h-1.153v.994h1.153v4.773c0 1.332 1.074 1.968 2.068 1.968.438 0 .716-.08.875-.14l-.238-1.054c-.1.02-.26.06-.517.06-.517 0-1.015-.16-1.015-1.154v-4.454h1.63v-.994zm7.433 7.636h1.153l1.67-5.866h.12l1.67 5.866h1.154l2.326-7.636h-1.233l-1.65 5.826h-.08l-1.6-5.826h-1.253l-1.63 5.846h-.08l-1.65-5.846h-1.233l2.327 7.636zm12.586.16c1.552 0 2.685-.775 3.043-1.93l-1.133-.318c-.3.795-1 1.193-1.9 1.193-1.377 0-2.326-.9-2.38-2.525h5.543v-.498c0-2.843-1.7-3.818-3.28-3.818-2.068 0-3.44 1.63-3.44 3.977s1.352 3.918 3.56 3.918zm-2.38-4.594c.08-1.188.92-2.247 2.262-2.247 1.273 0 2.088.955 2.088 2.247h-4.35zm10.53 4.594c1.55 0 2.685-.775 3.043-1.93l-1.134-.318c-.298.795-.99 1.193-1.91 1.193-1.377 0-2.327-.9-2.38-2.525h5.543v-.498c0-2.843-1.7-3.818-3.28-3.818-2.07 0-3.44 1.63-3.44 3.977s1.353 3.918 3.56 3.918zm-2.38-4.594c.08-1.188.92-2.247 2.262-2.247 1.272 0 2.088.955 2.088 2.247h-4.35zm7.328 4.435h1.173v-2.86l.82-.76 2.86 3.62h1.49l-3.465-4.375 3.227-3.26h-1.452l-3.34 3.4h-.14v-5.946h-1.173V354zm8.47.08a.9.9 0 0 0 .895-.895.9.9 0 0 0-.895-.895.9.9 0 0 0-.895.895.9.9 0 0 0 .895.895z"/></g><circle cx="52" cy="303" r="12" fill="#f3f7fc"/><path d="M45.08 300.182V306h.835v-4.213h.054l1.716 4.204h.693l1.716-4.2h.054v4.2h.835v-5.818H49.92l-1.852 4.523h-.068l-1.852-4.523H45.08zM53.26 306h.878v-2.537h2.9V306h.88v-5.818h-.88v2.528h-2.9v-2.528h-.878V306z" fill="#1757c2"/><defs ><path id="B" d="M48.984 47.432v4.576c0 .485-.024.963-.072 1.432l-.184 1.48h-1.344l-.184-1.48c-.048-.47-.072-.947-.072-1.432v-4.576h1.856zm-2.168 10.48a1.28 1.28 0 0 1 .088-.472c.064-.15.15-.277.256-.384a1.31 1.31 0 0 1 .392-.256c.15-.064.31-.096.48-.096.165 0 .323.032.472.096a1.21 1.21 0 0 1 .384.256 1.15 1.15 0 0 1 .264.384c.064.15.096.307.096.472 0 .17-.032.33-.096.48a1.17 1.17 0 0 1-.264.376c-.107.107-.235.19-.384.248-.15.064-.307.096-.472.096-.17 0-.33-.032-.48-.096-.15-.06-.28-.14-.392-.248-.107-.107-.192-.232-.256-.376a1.3 1.3 0 0 1-.088-.48z"/></defs></svg>