<svg xmlns="http://www.w3.org/2000/svg" xmlns:xlink="http://www.w3.org/1999/xlink" width="672" height="400" fill="none" xmlns:v="https://vecta.io/nano"><path fill="#fff" d="M0 0h672v400H0z"/><path d="M59.378 345v5.672c-.004.922-.434 1.414-1.2 1.414-.707 0-1.2-.422-1.203-1.086h-1.2c0 1.352 1.016 2.1 2.37 2.1 1.47 0 2.43-.898 2.434-2.437V345h-1.203zM64 353.133c.992 0 1.55-.504 1.774-.953h.047v.82h1.14v-3.984c0-1.746-1.375-2.094-2.328-2.094-1.086 0-2.086.437-2.476 1.53l1.098.25c.172-.426.6-.836 1.395-.836.754 0 1.14.395 1.14 1.074v.028c0 .426-.437.418-1.516.543-1.137.133-2.3.43-2.3 1.793 0 1.18.887 1.828 2.027 1.828zm.254-.938c-.66 0-1.137-.297-1.137-.875 0-.625.555-.847 1.23-.937.38-.05 1.277-.153 1.445-.32v.774c0 .7-.566 1.36-1.54 1.36zm5.43-2.758c0-.957.586-1.503 1.398-1.503.793 0 1.273.52 1.273 1.4V353h1.168v-3.816c0-1.485-.816-2.262-2.043-2.262-.902 0-1.492.418-1.77 1.055h-.074V347h-1.12v6h1.168v-3.563zm35.52 3.563h1.207v-3.488h3.4v-1.035h-3.4v-2.438h3.754V345h-4.96v8zm8.497.12c1.3 0 2.235-.644 2.5-1.62l-1.105-.2c-.2.566-.72.855-1.383.855-1 0-1.672-.648-1.703-1.804h4.266v-.415c0-2.167-1.297-3.015-2.657-3.015-1.67 0-2.773 1.273-2.773 3.117 0 1.863 1.086 3.082 2.855 3.082zm-1.687-3.644c.047-.852.664-1.6 1.613-1.6.906 0 1.5.672 1.504 1.6h-3.117zm5.65 3.523h1.14v-.934h.098c.2.383.64 1.05 1.734 1.05 1.453 0 2.508-1.164 2.508-3.105s-1.07-3.1-2.52-3.1c-1.113 0-1.515.68-1.722 1.05h-.07V345h-1.168v8zm1.145-3c0-1.254.547-2.086 1.566-2.086 1.06 0 1.6.895 1.6 2.086 0 1.203-.547 2.12-1.6 2.12-1.004 0-1.566-.86-1.566-2.12zm35.048-5v8h1.148v-5.793h.075l2.36 5.78h.953l2.36-5.777h.074v5.8h1.148v-8H160.5l-2.547 6.22h-.093l-2.547-6.22h-1.465zm11.524 8.133c.993 0 1.55-.504 1.774-.953h.047v.82h1.14v-3.984c0-1.746-1.375-2.094-2.328-2.094-1.086 0-2.086.437-2.476 1.53l1.097.25c.172-.426.6-.836 1.395-.836.754 0 1.14.395 1.14 1.074v.028c0 .426-.437.418-1.515.543-1.137.133-2.3.43-2.3 1.793 0 1.18.887 1.828 2.027 1.828zm.254-.938c-.66 0-1.136-.297-1.136-.875 0-.625.554-.847 1.23-.937.38-.05 1.277-.153 1.445-.32v.774c0 .7-.566 1.36-1.54 1.36zm4.263.805h1.168v-3.664c0-.785.605-1.352 1.434-1.352a2.71 2.71 0 0 1 .609.071v-1.118a4.93 4.93 0 0 0-.496-.027c-.703 0-1.305.4-1.524 1.043h-.062V347h-1.13v6zm35.14 0l.734-2.117h3.125l.73 2.117h1.28l-2.88-8h-1.394l-2.88 8h1.28zm1.086-3.133l1.18-3.414h.062l1.18 3.414h-2.422zm5.847 5.383h1.168v-3.184h.07c.2.383.64 1.05 1.734 1.05 1.453 0 2.508-1.164 2.508-3.105s-1.07-3.1-2.52-3.1c-1.114 0-1.516.68-1.723 1.05h-.098V347h-1.14v8.25zm1.144-5.25c0-1.254.547-2.086 1.567-2.086 1.058 0 1.6.895 1.6 2.086 0 1.203-.546 2.12-1.6 2.12-1.004 0-1.567-.86-1.567-2.12zm5.645 3h1.168v-3.664c0-.785.605-1.352 1.433-1.352a2.6 2.6 0 0 1 .6.07v-1.118a4.93 4.93 0 0 0-.496-.027c-.704 0-1.305.4-1.524 1.043h-.062V347h-1.13v6zm33.036-8v8h1.15v-5.793h.074l2.36 5.78h.953l2.36-5.777h.074v5.8h1.148v-8h-1.464l-2.547 6.22h-.094l-2.547-6.22H251.8zm11.525 8.133c.992 0 1.55-.504 1.773-.953h.047v.82h1.14v-3.984c0-1.746-1.375-2.094-2.33-2.094-1.086 0-2.086.437-2.476 1.53l1.097.25c.172-.426.6-.836 1.395-.836.754 0 1.14.395 1.14 1.074v.028c0 .426-.438.418-1.516.543-1.137.133-2.3.43-2.3 1.793 0 1.18.887 1.828 2.028 1.828zm.253-.938c-.66 0-1.136-.297-1.136-.875 0-.625.554-.847 1.23-.937.38-.05 1.278-.153 1.446-.32v.774c0 .7-.567 1.36-1.54 1.36zm4.787 3.04c.964 0 1.578-.504 1.922-1.433l2.48-6.8-1.262-.012-1.52 4.656h-.063L268.4 347h-1.25l2.195 6.078-.145.4c-.296.777-.714.847-1.355.67l-.28.957c.14.067.445.13.797.13zm37.2-10.235v5.672c-.004.922-.434 1.414-1.2 1.414-.707 0-1.2-.422-1.204-1.086h-1.2c0 1.352 1.016 2.1 2.37 2.1 1.47 0 2.43-.898 2.434-2.437V345h-1.203zm6.667 5.512c.004 1.02-.754 1.504-1.4 1.504-.723 0-1.223-.524-1.223-1.34V347h-1.168v3.816c0 1.5.816 2.262 1.97 2.262.902 0 1.515-.476 1.793-1.117h.062V353h1.15v-6h-1.172v3.512zm3.9-1.075c0-.957.586-1.503 1.398-1.503.793 0 1.274.52 1.274 1.4V353h1.168v-3.816c0-1.485-.817-2.262-2.043-2.262-.902 0-1.492.418-1.77 1.055h-.074V347h-1.12v6h1.168v-3.563zM357.156 345v5.672c-.004.922-.434 1.414-1.2 1.414-.707 0-1.2-.422-1.203-1.086h-1.2c0 1.352 1.016 2.1 2.37 2.1 1.47 0 2.43-.898 2.434-2.437V345h-1.203zm6.667 5.512c.004 1.02-.754 1.504-1.4 1.504-.723 0-1.223-.524-1.223-1.34V347h-1.168v3.816c0 1.5.816 2.262 1.97 2.262.902 0 1.515-.476 1.793-1.117h.062V353h1.15v-6h-1.172v3.512zm3.9-5.512h-1.168v8h1.168v-8zm33.305 8l.734-2.117h3.125l.73 2.117h1.28l-2.88-8h-1.394l-2.88 8h1.28zm1.086-3.133l1.18-3.414h.062l1.18 3.414h-2.422zm9.647.645c.004 1.02-.754 1.504-1.4 1.504-.722 0-1.222-.524-1.222-1.34V347h-1.168v3.816c0 1.5.816 2.262 1.968 2.262.903 0 1.516-.476 1.793-1.117h.063V353h1.148v-6h-1.172v3.512zm5.257 4.85c1.528 0 2.707-.7 2.707-2.23V347h-1.144v.973h-.086c-.207-.37-.62-1.05-1.74-1.05-1.45 0-2.515 1.144-2.515 3.055s1.1 2.933 2.508 2.933c1.1 0 1.527-.62 1.738-1.004h.074v1.18c0 .926-.644 1.336-1.53 1.336-.973 0-1.352-.488-1.56-.82l-1.004.414c.317.722 1.118 1.347 2.55 1.347zm-.012-3.422c-1.043 0-1.585-.8-1.585-1.98 0-1.152.53-2.047 1.585-2.047 1.02 0 1.567.832 1.567 2.047 0 1.238-.56 1.98-1.567 1.98zm37.22-4.838h1.164c-.035-1.282-1.168-2.2-2.793-2.2-1.605 0-2.835.918-2.835 2.296 0 1.114.796 1.766 2.082 2.114l.945.258c.855.226 1.516.507 1.516 1.218 0 .782-.747 1.297-1.774 1.297-.93 0-1.703-.414-1.773-1.285h-1.2c.078 1.45 1.2 2.344 2.992 2.344 1.88 0 2.96-.988 2.96-2.344 0-1.44-1.285-2-2.3-2.25l-.78-.203c-.625-.16-1.457-.453-1.453-1.22 0-.68.62-1.183 1.605-1.183.918 0 1.57.43 1.656 1.168zm5.208 6.02c1.3 0 2.235-.644 2.5-1.62l-1.105-.2c-.2.566-.72.855-1.383.855-1 0-1.672-.648-1.703-1.804h4.266v-.415c0-2.167-1.297-3.015-2.657-3.015-1.672 0-2.773 1.273-2.773 3.117 0 1.863 1.086 3.082 2.855 3.082zm-1.687-3.644c.047-.852.664-1.6 1.613-1.6.906 0 1.5.672 1.504 1.6h-3.117zm5.558 5.773h1.167v-3.184h.07c.2.383.64 1.05 1.734 1.05 1.453 0 2.508-1.164 2.508-3.105s-1.07-3.1-2.52-3.1c-1.113 0-1.515.68-1.722 1.05h-.098V347h-1.14v8.25zm1.144-5.25c0-1.254.547-2.086 1.566-2.086 1.06 0 1.6.895 1.6 2.086 0 1.203-.547 2.12-1.6 2.12-1.003 0-1.566-.86-1.566-2.12zm42.817-1c0-2.56-1.53-4.1-3.602-4.1-2.078 0-3.605 1.55-3.605 4.1s1.527 4.1 3.605 4.1c2.07 0 3.602-1.55 3.602-4.1zm-1.195 0c0 1.95-1.032 3.008-2.407 3.008s-2.406-1.06-2.406-3.008 1.027-3.008 2.406-3.008 2.407 1.06 2.407 3.008zm5.133 4.12c1.418 0 2.336-.85 2.465-2.02h-1.136c-.15.648-.653 1.03-1.32 1.03-.988 0-1.625-.824-1.625-2.133 0-1.285.65-2.094 1.625-2.094.742 0 1.196.47 1.32 1.03h1.136c-.125-1.2-1.113-2.015-2.476-2.015-1.692 0-2.785 1.273-2.785 3.105 0 1.8 1.054 3.094 2.796 3.094zm6.515-6.12h-1.23v-1.438h-1.168V347h-.88v.937h.88v3.543c-.004 1.1.828 1.618 1.75 1.598.37-.004.62-.074.757-.125l-.2-.965c-.08.016-.223.05-.4.05-.38 0-.718-.125-.718-.8v-3.3h1.23V347zm37.175-2H553.7v5.875h-.074l-4.07-5.875h-1.117v8h1.207v-5.867h.074l4.067 5.867h1.1v-8zm4.194 8.12c1.692 0 2.797-1.238 2.797-3.094 0-1.867-1.105-3.105-2.797-3.105s-2.796 1.238-2.796 3.105c0 1.856 1.105 3.094 2.796 3.094zm.004-.98c-1.105 0-1.62-.965-1.62-2.118s.516-2.125 1.62-2.125c1.098 0 1.614.977 1.614 2.125s-.516 2.118-1.614 2.118zm9.015-5.14h-1.254l-1.516 4.617h-.062l-1.52-4.617h-1.253l2.18 6h1.25l2.176-6zm32.2 6c2.438 0 3.848-1.512 3.848-4.012 0-2.488-1.4-3.988-3.766-3.988h-2.672v8h2.6zm-1.383-1.055v-5.9h1.4c1.75 0 2.652 1.047 2.652 2.933 0 1.895-.902 2.957-2.726 2.957h-1.317zm9.224 1.176c1.3 0 2.234-.644 2.5-1.62l-1.105-.2c-.2.566-.72.855-1.383.855-1 0-1.672-.648-1.703-1.804h4.265v-.415c0-2.167-1.297-3.015-2.656-3.015-1.672 0-2.773 1.273-2.773 3.117 0 1.863 1.085 3.082 2.855 3.082zm-1.687-3.644c.046-.852.664-1.6 1.613-1.6.906 0 1.5.672 1.504 1.6h-3.117zm8.084 3.644c1.418 0 2.336-.85 2.465-2.02h-1.136c-.15.648-.653 1.03-1.32 1.03-.988 0-1.625-.824-1.625-2.133 0-1.285.65-2.094 1.625-2.094.742 0 1.196.47 1.32 1.03h1.136c-.125-1.2-1.113-2.015-2.476-2.015-1.692 0-2.785 1.273-2.785 3.105 0 1.8 1.054 3.094 2.796 3.094z" fill="#5d6598"/><g clip-path="url(#B)"><path d="M43 307l650-24" stroke="#8babe1" stroke-width="2" stroke-linecap="round" stroke-dasharray="0.1 4"/><path d="M59.533 293.8l-.877.033.22 5.814.877-.033-.22-5.814zm6.97-.26l-.87.032.16 4.27-.054.002-3.12-4.16-.812.03.22 5.814.877-.033-.16-4.264.054-.002 3.116 4.154.806-.03-.22-5.814zm4.38 5.658c1.77-.066 2.755-1.203 2.686-3.02-.068-1.808-1.134-2.86-2.846-2.796l-1.942.072.22 5.814 1.882-.07zm-1.034-.73l-.162-4.28 1.01-.038c1.272-.047 1.956.69 2.008 2.06.052 1.377-.575 2.174-1.9 2.223l-.957.036zm9.442-5.408l.145 3.833c.03.815-.602 1.296-1.386 1.325-.778.03-1.448-.403-1.48-1.218l-.145-3.832-.877.032.145 3.847c.05 1.312 1.1 2.026 2.386 1.978s2.282-.84 2.233-2.15l-.145-3.846-.877.032zm6.38 1.29l.846-.03c-.06-.93-.9-1.575-2.09-1.53-1.167.043-2.036.744-1.998 1.746.03.81.628 1.262 1.57 1.48l.694.162c.628.142 1.115.328 1.135.845.02.567-.507.962-1.253 1-.676.026-1.25-.254-1.324-.885l-.88.032c.097 1.052.936 1.67 2.24 1.622 1.366-.05 2.125-.798 2.088-1.783-.04-1.048-.99-1.42-1.734-1.573l-.573-.126c-.46-.1-1.07-.3-1.1-.847-.02-.494.42-.877 1.134-.903.667-.025 1.153.27 1.236.803zm2.657-.872l1.81-.068.19 5.06.874-.033-.19-5.06 1.814-.067-.03-.756-4.5.17.03.755zm6.685 4.816l.877-.033-.083-2.2 1.25-.047 1.264 2.156 1-.037-1.378-2.305c.703-.29 1.035-.898 1.006-1.678-.04-1.07-.733-1.798-2.082-1.748l-2.072.078.22 5.814zm.766-2.988l-.08-2.107 1.102-.04c.866-.032 1.24.366 1.264 1.025s-.32 1.05-1.173 1.08l-1.113.042zm4.718-3.04l2.243 3.452.086 2.283.874-.033-.086-2.282 1.976-3.61-.997.037-1.418 2.7-.063.003-1.62-2.587-.996.038zm10.746 5.42l.476-1.558 2.27-.085.59 1.518.93-.034-2.312-5.736-1.013.038-1.873 5.892.93-.035zm.704-2.306l.763-2.513.046-.002.95 2.45-1.76.066zm5.09-3.733l-.948.036 2.312 5.736 1.014-.038 1.872-5.893-.948.036-1.44 4.796-.065.002-1.798-4.675zm6.31 5.587l3.68-.138-.028-.755-2.802.105-.068-1.78 2.578-.097-.028-.752-2.578.096-.067-1.77 2.768-.103-.03-.756-3.645.137.22 5.814zm5.816-.218l.877-.033-.083-2.2 1.25-.046 1.265 2.156 1-.038-1.378-2.305c.703-.29 1.035-.897 1.006-1.678-.04-1.07-.734-1.798-2.082-1.747l-2.072.077.22 5.814zm.766-2.988l-.08-2.106 1.102-.04c.866-.033 1.24.365 1.264 1.024s-.32 1.05-1.173 1.082l-1.113.04zm5.877 2.74l.476-1.56 2.27-.085.59 1.52.93-.035-2.312-5.735-1.013.037-1.873 5.893.93-.035zm.703-2.306l.764-2.514h.046l.95 2.45-1.76.066zm8.914-2.037l.9-.033c-.238-1.126-1.236-1.873-2.49-1.826-1.505.056-2.56 1.23-2.5 3.087.07 1.84 1.18 2.943 2.756 2.885 1.4-.053 2.383-1.016 2.328-2.484l-.025-.662-2.285.086.027.724 1.436-.054c.016.938-.58 1.554-1.512 1.59-1.025.038-1.8-.71-1.854-2.123-.053-1.408.67-2.21 1.655-2.248.772-.03 1.31.378 1.555 1.06zm3.203 3.864l3.68-.138-.028-.755-2.802.105-.067-1.78 2.577-.097-.028-.752-2.578.096-.067-1.77 2.768-.104-.028-.755-3.646.137.22 5.814z" fill="#8babe1"/><path d="M633.068 225.658l.932.064V344H39v-92.203h38.8c37.236 0 112.796-.001 187.782-6.424 29.932-2.563 59.95-6.15 90.007-9.74l22.796-2.707c37.66-4.42 75.35-8.44 112.907-10.048 51.1-2.19 102.448.09 141.777 2.78z" fill="url(#A)" fill-opacity=".05" stroke="#1757c2" stroke-width="2"/></g><use xlink:href="#C" fill="#5d6598"/><path d="M88 167c0 13.255-10.745 24-24 24s-24-10.745-24-24 10.745-24 24-24 24 10.745 24 24z" fill="#f4fbf7"/><g fill="#20af5d"><path fill-rule="evenodd" d="M64 144c-12.702 0-23 10.297-23 23s10.298 23 23 23 23-10.297 23-23-10.297-23-23-23zm-25 23c0-13.807 11.193-25 25-25s25 11.193 25 25-11.193 25-25 25-25-11.193-25-25z"/><path d="M67.665 169.133l-3.086-7.996-.288-.823-.288-1.015c-.192.74-.4 1.358-.6 1.852l-3.086 7.982h7.337zm5.54 7.296H71.15c-.238 0-.43-.06-.576-.18a1.12 1.12 0 0 1-.33-.452l-1.838-4.745h-8.818l-1.838 4.745c-.055.164-.16.3-.315.44s-.347.192-.576.192H54.8l7.858-19.653h2.688l7.858 19.653zm48.478 11.128c8.134 0 13.8-4.753 13.84-11.375-.04-5.15-3.48-9.526-7.875-10.34v-.24c3.818-.994 6.324-4.733 6.364-9.068-.04-6.204-5.25-10.818-12.33-10.818-7.16 0-12.37 4.614-12.33 10.818-.04 4.335 2.466 8.074 6.363 9.068v.24c-4.474.815-7.914 5.2-7.875 10.34-.04 6.622 5.628 11.375 13.84 11.375zm0-4.375c-5.588 0-9.028-2.864-8.988-7.24-.04-4.594 3.758-7.875 8.988-7.875 5.15 0 8.95 3.28 9 7.875-.04 4.375-3.48 7.24-9 7.24zm0-19.33c-4.454 0-7.596-2.784-7.557-7-.04-4.136 2.983-6.84 7.557-6.84 4.495 0 7.517 2.705 7.557 6.84-.04 4.216-3.182 7-7.557 7zm34.2 23.705c7.756 0 13.443-5.727 13.443-13.523 0-7.895-5.5-13.682-12.966-13.682-2.744 0-5.4.975-7.08 2.307h-.24l1.432-12h17.023v-4.375h-21.16l-2.465 20.045 4.613.557c1.7-1.213 4.574-2.088 7.08-2.068 5.2.04 8.988 3.977 8.988 9.307 0 5.23-3.66 9.068-8.67 9.068-4.176 0-7.497-2.685-7.875-6.364h-4.773c.298 6.205 5.648 10.74 12.648 10.74zm34.627 0c9 0 14.16-7.617 14.16-20.92 0-13.204-5.25-20.92-14.16-20.92s-14.16 7.716-14.16 20.92c0 13.304 5.17 20.92 14.16 20.92zm0-4.375c-5.926 0-9.386-5.946-9.386-16.546 0-10.58 3.5-16.625 9.386-16.625s9.386 6.046 9.386 16.625c0 10.6-3.46 16.546-9.386 16.546z"/></g><path d="M49.824 115.9c0-3.22-1.9-5.23-4.494-5.23s-4.494 2-4.494 5.23 1.9 5.23 4.494 5.23 4.494-2.008 4.494-5.23zm-1.193 0c0 2.645-1.452 4.077-3.3 4.077s-3.3-1.432-3.3-4.077 1.452-4.077 3.3-4.077 3.3 1.432 3.3 4.077zm9.352-2.545H56.7l-2.108 6.085h-.08l-2.108-6.085H51.14L53.965 121h1.193l2.824-7.636zm4.477 7.795c1.55 0 2.685-.775 3.043-1.93l-1.133-.318c-.298.795-1 1.193-1.9 1.193-1.377 0-2.327-.9-2.38-2.525h5.543v-.498c0-2.843-1.7-3.818-3.28-3.818-2.068 0-3.44 1.63-3.44 3.977s1.352 3.918 3.56 3.918zm-2.38-4.594c.08-1.188.92-2.247 2.262-2.247 1.273 0 2.088.955 2.088 2.247h-4.35zM67.406 121h1.173v-4.832c0-1.034.815-1.8 1.93-1.8a3.67 3.67 0 0 1 .716.079v-1.193l-.617-.02c-.915 0-1.7.517-2 1.273h-.08v-1.153h-1.133V121zm7.456.18c1.332 0 2.028-.716 2.267-1.213h.06V121h1.173v-5.03c0-2.426-1.85-2.705-2.824-2.705-1.153 0-2.466.398-3.062 1.8l1.114.398c.26-.557.87-1.154 2-1.154 1.08 0 1.6.572 1.6 1.55v.04c0 .567-.577.517-1.97.696-1.417.184-2.963.497-2.963 2.247 0 1.492 1.153 2.347 2.605 2.347zm.18-1.054c-.935 0-1.6-.418-1.6-1.233 0-.895.815-1.173 1.73-1.293.497-.06 1.83-.198 2.028-.437v1.074c0 .954-.756 1.9-2.148 1.9zm6.636-9.307h-1.173V121h1.173v-10.182zm3.322 0h-1.173V121H85v-10.182zM91.086 121h1.173v-4.832c0-1.034.815-1.8 1.93-1.8a3.67 3.67 0 0 1 .716.079v-1.193l-.617-.02c-.915 0-1.7.517-2 1.273h-.08v-1.153h-1.133V121zm5.2 0h1.173v-7.636h-1.173V121zm.597-8.9c.457 0 .835-.358.835-.796s-.378-.795-.835-.795-.835.358-.835.795.378.796.835.796zm8.135 2.983c-.368-1.084-1.193-1.8-2.705-1.8-1.6 0-2.804.915-2.804 2.208 0 1.054.627 1.76 2.03 2.088l1.273.298c.77.18 1.133.547 1.133 1.074 0 .656-.696 1.193-1.8 1.193-.96 0-1.56-.413-1.77-1.233l-1.113.278c.273 1.298 1.342 2 2.903 2 1.775 0 2.983-.97 2.983-2.287 0-1.064-.666-1.735-2.028-2.068l-1.134-.278c-.905-.224-1.312-.527-1.312-1.114 0-.656.696-1.134 1.63-1.134 1.025 0 1.447.567 1.65 1.094l1.054-.298zM106.93 121h1.174v-2.86l.82-.76 2.86 3.62h1.5l-3.465-4.375 3.226-3.26h-1.45l-3.34 3.4h-.14v-5.946h-1.174V121zm11.553 0h1.173v-4.832c0-1.034.816-1.8 1.93-1.8a3.66 3.66 0 0 1 .716.079v-1.193l-.616-.02c-.915 0-1.7.517-2 1.273h-.08v-1.153h-1.134V121zm7.456.18c1.333 0 2.03-.716 2.267-1.213h.06V121h1.173v-5.03c0-2.426-1.85-2.705-2.824-2.705-1.153 0-2.466.398-3.062 1.8l1.113.398c.26-.557.87-1.154 2-1.154 1.08 0 1.6.572 1.6 1.55v.04c0 .567-.577.517-1.97.696-1.417.184-2.963.497-2.963 2.247 0 1.492 1.153 2.347 2.605 2.347zm.18-1.054c-.935 0-1.6-.418-1.6-1.233 0-.895.816-1.173 1.73-1.293.498-.06 1.83-.198 2.03-.437v1.074c0 .954-.756 1.9-2.148 1.9zm8.784-6.76h-1.63v-1.83H132.1v1.83h-1.154v.994h1.154v4.773c0 1.332 1.074 1.968 2.068 1.968a2.43 2.43 0 0 0 .875-.14l-.24-1.054c-.1.02-.258.06-.517.06-.517 0-1.014-.16-1.014-1.154v-4.454h1.63v-.994zm1.765 7.636h1.173v-7.636h-1.173V121zm.596-8.9c.458 0 .835-.358.835-.796s-.377-.795-.835-.795-.835.358-.835.795.378.796.835.796zm3.9 4.315c0-1.332.825-2.088 1.95-2.088 1.1 0 1.75.7 1.75 1.9V121h1.173v-4.852c0-1.95-1.04-2.884-2.585-2.884-1.153 0-1.87.517-2.227 1.293h-.1v-1.193H140V121h1.173v-4.594zm10.1 7.617c1.83 0 3.3-.835 3.3-2.804v-7.855h-1.134v1.213h-.12c-.26-.398-.736-1.313-2.227-1.313-1.93 0-3.262 1.53-3.262 3.878 0 2.386 1.392 3.74 3.242 3.74 1.5 0 1.97-.875 2.227-1.293h.1v1.55c0 1.273-.895 1.85-2.128 1.85-1.387 0-1.875-.73-2.188-1.154l-.934.656c.477.8 1.416 1.532 3.122 1.532zm-.04-4.196c-1.472 0-2.227-1.114-2.227-2.705 0-1.55.735-2.804 2.227-2.804 1.432 0 2.187 1.154 2.187 2.804 0 1.7-.775 2.705-2.187 2.705zm157.242-9h-1.233V121h1.233v-10.182zm3.486 5.588c0-1.332.826-2.088 1.95-2.088 1.1 0 1.75.7 1.75 1.9V121h1.173v-4.852c0-1.95-1.04-2.884-2.585-2.884-1.153 0-1.87.517-2.227 1.293h-.1v-1.193h-1.133V121h1.173v-4.594zm9.9 4.753c1.472 0 1.97-.915 2.227-1.332h.14V121h1.134v-10.182h-1.173v3.76h-.1c-.258-.398-.716-1.313-2.207-1.313-1.93 0-3.262 1.53-3.262 3.938 0 2.426 1.333 3.957 3.242 3.957zm.16-1.054c-1.472 0-2.227-1.293-2.227-2.923 0-1.6.736-2.864 2.227-2.864 1.432 0 2.188 1.154 2.188 2.864 0 1.73-.776 2.923-2.188 2.923zm10.465-2.227c0 1.432-1.094 2.088-1.97 2.088-.974 0-1.67-.716-1.67-1.83v-4.772h-1.173v4.852c0 1.95 1.034 2.883 2.466 2.883 1.153 0 1.9-.616 2.267-1.392h.08V121h1.174v-7.636h-1.174v4.514zm8.732-2.804c-.368-1.084-1.194-1.8-2.705-1.8-1.6 0-2.804.915-2.804 2.208 0 1.054.626 1.76 2.028 2.088l1.273.298c.77.18 1.134.547 1.134 1.074 0 .656-.696 1.193-1.8 1.193-.96 0-1.56-.413-1.77-1.233l-1.114.278c.274 1.298 1.343 2 2.904 2 1.775 0 2.983-.97 2.983-2.287 0-1.064-.666-1.735-2.03-2.068l-1.133-.278c-.905-.224-1.313-.527-1.313-1.114 0-.656.696-1.134 1.63-1.134 1.024 0 1.447.567 1.65 1.094l1.054-.298zm5.226-1.7h-1.63v-1.83h-1.173v1.83h-1.153v.994h1.153v4.773c0 1.332 1.074 1.968 2.068 1.968.438 0 .716-.08.875-.14l-.238-1.054c-.1.02-.26.06-.518.06-.517 0-1.014-.16-1.014-1.154v-4.454h1.63v-.994zM348.2 121h1.173v-4.832c0-1.034.816-1.8 1.93-1.8a3.67 3.67 0 0 1 .716.079v-1.193l-.616-.02c-.915 0-1.7.517-2 1.273h-.08v-1.153H348.2V121zm6.197 2.844c1.06 0 1.8-.562 2.247-1.73l3.252-8.73-1.283-.02-2.108 6.085h-.08l-2.108-6.085h-1.272l2.824 7.676-.22.596c-.418 1.144-.955 1.253-1.8 1.034l-.298 1.035c.12.06.457.14.855.14zm13.236-2.665c1.332 0 2.028-.716 2.267-1.213h.06V121h1.174v-5.03c0-2.426-1.85-2.705-2.824-2.705-1.154 0-2.466.398-3.063 1.8l1.114.398c.258-.557.87-1.154 1.988-1.154 1.08 0 1.6.572 1.6 1.55v.04c0 .567-.576.517-1.968.696-1.417.184-2.964.497-2.964 2.247 0 1.492 1.154 2.347 2.606 2.347zm.18-1.054c-.935 0-1.6-.418-1.6-1.233 0-.895.815-1.173 1.73-1.293.497-.06 1.83-.198 2.028-.437v1.074c0 .954-.755 1.9-2.147 1.9zm11.433-6.76h-1.273l-2.108 6.085h-.08l-2.108-6.085h-1.273l2.824 7.636h1.193l2.824-7.636zm4.477 7.795c1.55 0 2.685-.775 3.042-1.93l-1.133-.318c-.298.795-1 1.193-1.9 1.193-1.377 0-2.327-.9-2.382-2.525h5.544v-.498c0-2.843-1.7-3.818-3.28-3.818-2.07 0-3.44 1.63-3.44 3.977s1.352 3.918 3.56 3.918zm-2.382-4.594c.08-1.188.92-2.247 2.263-2.247 1.272 0 2.088.955 2.088 2.247h-4.35zm7.33 4.435h1.173v-4.832c0-1.034.815-1.8 1.93-1.8a3.68 3.68 0 0 1 .716.079v-1.193l-.617-.02c-.914 0-1.7.517-1.988 1.273h-.08v-1.153h-1.133V121zm7.456.18c1.332 0 2.028-.716 2.267-1.213h.06V121h1.174v-5.03c0-2.426-1.85-2.705-2.824-2.705-1.154 0-2.466.398-3.063 1.8l1.114.398c.26-.557.87-1.154 2-1.154 1.08 0 1.6.572 1.6 1.55v.04c0 .567-.576.517-1.968.696-1.417.184-2.963.497-2.963 2.247 0 1.492 1.153 2.347 2.605 2.347zm.18-1.054c-.935 0-1.6-.418-1.6-1.233 0-.895.815-1.173 1.73-1.293.497-.06 1.83-.198 2.028-.437v1.074c0 .954-.755 1.9-2.147 1.9zm8.545 3.898c1.83 0 3.3-.835 3.3-2.804v-7.855h-1.134v1.213h-.12c-.26-.398-.736-1.313-2.227-1.313-1.93 0-3.262 1.53-3.262 3.878 0 2.386 1.392 3.74 3.242 3.74 1.5 0 1.97-.875 2.227-1.293h.1v1.55c0 1.273-.894 1.85-2.127 1.85-1.387 0-1.875-.73-2.188-1.154l-.935.656c.478.8 1.417 1.532 3.123 1.532zm-.04-4.196c-1.472 0-2.227-1.114-2.227-2.705 0-1.55.735-2.804 2.227-2.804 1.432 0 2.187 1.154 2.187 2.804 0 1.7-.775 2.705-2.187 2.705zm8.7 1.332c1.55 0 2.685-.775 3.043-1.93l-1.134-.318c-.298.795-1 1.193-1.9 1.193-1.377 0-2.326-.9-2.38-2.525h5.543v-.498c0-2.843-1.7-3.818-3.28-3.818-2.068 0-3.44 1.63-3.44 3.977s1.352 3.918 3.56 3.918zm-2.38-4.594c.08-1.188.92-2.247 2.262-2.247 1.273 0 2.088.955 2.088 2.247h-4.35z" fill="#131520"/><use xlink:href="#C" x="267" fill="#5d6598"/><path d="M355 167c0 13.255-10.745 24-24 24s-24-10.745-24-24 10.745-24 24-24 24 10.745 24 24z" fill="#f9fcf5"/><g fill="#90ca2f"><path fill-rule="evenodd" d="M331 144c-12.703 0-23 10.297-23 23s10.297 23 23 23 23-10.297 23-23-10.297-23-23-23zm-25 23c0-13.807 11.193-25 25-25s25 11.193 25 25-11.193 25-25 25-25-11.193-25-25z"/><path d="M331.542 174.317c.76 0 1.412-.087 1.96-.26s.997-.416 1.344-.727c.357-.32.617-.695.782-1.124.164-.44.247-.92.247-1.44 0-1.015-.362-1.815-1.084-2.4-.722-.595-1.806-.892-3.25-.892h-4.24v6.844h4.252zm-4.252-15.443v6.707h3.5c.75 0 1.4-.083 1.948-.247.557-.165 1.015-.393 1.37-.686.366-.293.636-.645.8-1.056.174-.42.26-.878.26-1.37 0-1.162-.348-2.007-1.042-2.538-.695-.54-1.774-.8-3.237-.8h-3.62zm3.62-2.098c1.207 0 2.245.12 3.113.357.878.237 1.596.576 2.153 1.014.567.44.983.98 1.248 1.62.265.63.398 1.344.398 2.14a4.26 4.26 0 0 1-.233 1.4 4.06 4.06 0 0 1-.672 1.234c-.302.384-.686.732-1.152 1.043-.457.3-.997.548-1.618.74 1.444.274 2.528.8 3.25 1.55.73.75 1.097 1.737 1.097 2.962 0 .832-.155 1.6-.466 2.277a4.79 4.79 0 0 1-1.344 1.769c-.585.494-1.308.878-2.167 1.152-.86.265-1.838.398-2.935.398h-6.94V156.78h6.267zm57.868 30.78c8.233.1 13.602-6.105 13.602-13.682 0-7.875-5.827-13.523-12.807-13.523-4.196 0-7.795 2.05-10.023 5.4h-.318c.02-10.002 3.878-15.75 10.182-15.75 4.296 0 6.88 2.705 7.796 6.444h4.852c-.995-6.404-5.807-10.82-12.648-10.82-9.168 0-14.795 8.114-14.795 22.6 0 15.054 7.477 19.25 14.16 19.33zm0-4.375c-5.1 0-8.85-4.355-8.83-9.227s3.938-9.228 9-9.228c5 0 8.67 4.097 8.67 9.148 0 5.17-3.838 9.307-8.83 9.307zm34.945 4.375c8.233.1 13.602-6.105 13.602-13.682 0-7.875-5.826-13.523-12.807-13.523-4.196 0-7.795 2.05-10.022 5.4h-.318c.02-10.002 3.877-15.75 10.18-15.75 4.296 0 6.88 2.705 7.796 6.444h4.852c-.994-6.404-5.807-10.82-12.648-10.82-9.167 0-14.795 8.114-14.795 22.6 0 15.054 7.477 19.25 14.16 19.33zm0-4.375c-5.1 0-8.85-4.355-8.83-9.227s3.938-9.228 9-9.228c4.992 0 8.67 4.097 8.67 9.148 0 5.17-3.84 9.307-8.83 9.307zm34.15 4.375c7.756 0 13.443-5.727 13.443-13.523 0-7.895-5.5-13.682-12.966-13.682-2.744 0-5.4.975-7.08 2.307h-.24l1.432-12h17.023v-4.375h-21.16l-2.465 20.045 4.613.557c1.7-1.213 4.574-2.088 7.08-2.068 5.2.04 8.988 3.977 8.988 9.307 0 5.23-3.66 9.068-8.67 9.068-4.176 0-7.497-2.685-7.875-6.364h-4.773c.298 6.205 5.648 10.74 12.648 10.74z"/></g><path d="M51.307 45.455v9.63c0 2.273-1.818 3.523-3.892 3.523s-3.892-1.25-3.892-3.523v-9.63h-1.76v9.63c0 3.267 2.585 5.17 5.653 5.17s5.653-1.903 5.653-5.17v-9.63h-1.76zm5.05 18.636h1.676v-5.767h.142c.37.597 1.08 1.903 3.182 1.903 2.727 0 4.63-2.187 4.63-5.653 0-3.437-1.903-5.625-4.66-5.625-2.13 0-2.784 1.307-3.153 1.875h-.2V49.09h-1.62v15zm1.648-9.545c0-2.443 1.08-4.09 3.125-4.09 2.13 0 3.182 1.8 3.182 4.09 0 2.33-1.08 4.176-3.182 4.176-2.017 0-3.125-1.705-3.125-4.176zM78.716 50h1.818c-.54-2.812-2.898-4.744-5.966-4.744-3.73 0-6.364 2.87-6.364 7.472S70.82 60.2 74.682 60.2c3.466 0 5.938-2.308 5.938-5.91v-1.562h-5.54V54.3h3.835c-.05 2.614-1.768 4.26-4.233 4.26-2.7 0-4.773-2.045-4.773-5.824s2.074-5.824 4.66-5.824c2.102 0 3.53 1.186 4.148 3.097zm11.568 5.54c0 2.045-1.562 2.983-2.812 2.983-1.392 0-2.386-1.023-2.386-2.614V49.09H83.41v6.932c0 2.784 1.477 4.12 3.523 4.12 1.648 0 2.727-.88 3.24-1.99h.114V60h1.676V49.09h-1.676v6.45zm7.956 4.716c1.904 0 2.898-1.023 3.24-1.733h.085V60h1.676v-7.187c0-3.466-2.642-3.864-4.034-3.864-1.648 0-3.523.568-4.375 2.557l1.59.568c.37-.796 1.243-1.648 2.84-1.648 1.54 0 2.3.817 2.3 2.216v.057c0 .8-.824.74-2.812.994-2.024.263-4.233.7-4.233 3.2 0 2.13 1.648 3.352 3.722 3.352zm.256-1.506c-1.335 0-2.3-.597-2.3-1.76 0-1.278 1.165-1.676 2.472-1.847.7-.085 2.614-.284 2.897-.625v1.534c0 1.364-1.08 2.7-3.068 2.7zM106.3 60h1.676v-6.903c0-1.477 1.165-2.557 2.756-2.557.447 0 .91.085 1.022.114V48.95l-.88-.028c-1.307 0-2.444.74-2.84 1.818h-.114V49.09h-1.62V60zm11.228.227c2.103 0 2.813-1.307 3.182-1.903h.2V60h1.62V45.455h-1.676v5.37h-.142c-.37-.568-1.022-1.875-3.153-1.875-2.756 0-4.66 2.188-4.66 5.625 0 3.466 1.903 5.653 4.63 5.653zm.228-1.506c-2.103 0-3.182-1.847-3.182-4.176 0-2.3 1.05-4.09 3.182-4.09 2.045 0 3.125 1.648 3.125 4.09 0 2.472-1.108 4.176-3.125 4.176zM143.388 50c-.54-2.983-2.926-4.744-5.852-4.744-3.722 0-6.42 2.87-6.42 7.472s2.7 7.472 6.42 7.472c2.926 0 5.312-1.76 5.852-4.744h-1.762c-.426 2.017-2.16 3.097-4.1 3.097-2.643 0-4.716-2.045-4.716-5.824s2.073-5.824 4.716-5.824c1.93 0 3.664 1.08 4.1 3.097h1.762zm3.698 14.063c1.513 0 2.586-.803 3.21-2.472l4.644-12.472-1.832-.028-3.01 8.693h-.114l-3.01-8.693h-1.82l4.035 10.966-.313.852c-.597 1.633-1.364 1.8-2.585 1.477l-.426 1.477c.17.085.653.2 1.22.2zm10.3-4.062h1.62v-1.676h.2c.37.597 1.08 1.903 3.18 1.903 2.728 0 4.63-2.187 4.63-5.653 0-3.437-1.903-5.625-4.66-5.625-2.13 0-2.784 1.307-3.153 1.875h-.143v-5.37h-1.676V60zm1.648-5.455c0-2.443 1.08-4.09 3.125-4.09 2.13 0 3.182 1.8 3.182 4.09 0 2.33-1.08 4.176-3.182 4.176-2.017 0-3.125-1.705-3.125-4.176zm15.12 5.682c2.216 0 3.835-1.108 4.346-2.756l-1.62-.455c-.426 1.136-1.413 1.705-2.727 1.705-1.967 0-3.324-1.27-3.402-3.608h7.92v-.7c0-4.062-2.415-5.454-4.688-5.454-2.954 0-4.914 2.33-4.914 5.682s1.93 5.597 5.085 5.597zm-3.402-6.562c.113-1.697 1.314-3.2 3.23-3.2 1.82 0 2.983 1.364 2.983 3.2h-6.214zM181.222 60h1.676v-6.903c0-1.477 1.164-2.557 2.755-2.557a5.13 5.13 0 0 1 1.023.114V48.95l-.88-.028c-1.306 0-2.443.74-2.84 1.818h-.114V49.09h-1.62V60zm7.668 0h1.762v-5.682h3.18l.37-.007L197.27 60h2.045l-3.288-6.008c1.854-.632 2.72-2.145 2.72-4.077 0-2.57-1.534-4.46-4.943-4.46H188.9V60zm1.762-7.273v-5.7h3.096c2.358 0 3.267 1.15 3.267 2.898s-.91 2.813-3.238 2.813h-3.125zM201.456 60h1.676V49.09h-1.676V60zm.852-12.727c.654 0 1.193-.51 1.193-1.136S202.962 45 202.308 45s-1.193.51-1.193 1.136.54 1.136 1.193 1.136zm11.62 4.26c-.525-1.548-1.704-2.585-3.863-2.585-2.3 0-4.006 1.307-4.006 3.153 0 1.506.895 2.514 2.898 2.983l1.818.426c1.1.256 1.62.78 1.62 1.534 0 .938-.994 1.705-2.557 1.705-1.37 0-2.23-.6-2.528-1.76l-1.59.398c.39 1.854 1.918 2.84 4.148 2.84 2.535 0 4.26-1.385 4.26-3.267 0-1.52-.952-2.48-2.898-2.955l-1.62-.398c-1.292-.32-1.875-.753-1.875-1.59 0-.937.994-1.62 2.33-1.62 1.463 0 2.066.8 2.358 1.563l1.505-.426zM216.65 60h1.676v-4.084l1.172-1.087 4.084 5.17h2.13l-4.95-6.25 4.6-4.66H223.3l-4.773 4.858h-.2v-8.494h-1.676V60zm16.504 0h1.676v-6.903c0-1.477 1.165-2.557 2.756-2.557a5.14 5.14 0 0 1 1.023.114V48.95l-.88-.028c-1.307 0-2.443.74-2.84 1.818h-.113V49.09h-1.62V60zm10.652.256c1.903 0 2.898-1.023 3.238-1.733h.086V60h1.676v-7.187c0-3.466-2.642-3.864-4.034-3.864-1.648 0-3.523.568-4.375 2.557l1.59.568c.37-.796 1.243-1.648 2.84-1.648 1.54 0 2.3.817 2.3 2.216v.057c0 .8-.824.74-2.813.994-2.024.263-4.233.7-4.233 3.2 0 2.13 1.648 3.352 3.722 3.352zm.255-1.506c-1.335 0-2.3-.597-2.3-1.76 0-1.278 1.165-1.676 2.472-1.847.7-.085 2.614-.284 2.898-.625v1.534c0 1.364-1.08 2.7-3.07 2.7zm12.548-9.66h-2.33v-2.614h-1.676v2.614h-1.648v1.42h1.648v6.818c0 1.903 1.534 2.813 2.954 2.813.625 0 1.023-.114 1.25-.2l-.34-1.506c-.142.028-.37.085-.738.085-.74 0-1.45-.227-1.45-1.648V50.51h2.33v-1.42zM259.132 60h1.676V49.09h-1.676V60zm.852-12.727c.653 0 1.193-.51 1.193-1.136S260.637 45 259.984 45s-1.193.51-1.193 1.136.54 1.136 1.193 1.136zm5.57 6.165c0-1.903 1.18-2.983 2.784-2.983 1.555 0 2.5 1.016 2.5 2.727V60h1.676v-6.932c0-2.784-1.484-4.12-3.693-4.12-1.648 0-2.67.74-3.182 1.847h-.142V49.09h-1.62V60h1.676v-6.562zm14.426 10.88c2.614 0 4.716-1.193 4.716-4.006V49.09h-1.62v1.733h-.17c-.37-.568-1.052-1.875-3.182-1.875-2.756 0-4.66 2.188-4.66 5.54 0 3.41 1.988 5.34 4.63 5.34 2.13 0 2.813-1.25 3.182-1.847h.142V60.2c0 1.818-1.278 2.642-3.04 2.642-1.98 0-2.677-1.044-3.125-1.648l-1.335.938c.682 1.143 2.024 2.188 4.46 2.188zm-.056-5.994c-2.103 0-3.182-1.59-3.182-3.864 0-2.216 1.05-4.006 3.182-4.006 2.045 0 3.125 1.648 3.125 4.006 0 2.415-1.108 3.864-3.125 3.864z" fill="#131520"/><path d="M494 44a4 4 0 0 1 4-4h130a4 4 0 0 1 4 4v24a4 4 0 0 1-4 4H498a4 4 0 0 1-4-4V44z" fill="#fff"/><path d="M521.315 57.66v3.526a.64.64 0 0 1-.648.648h-9.852a.64.64 0 0 1-.648-.648V57.66a.648.648 0 1 1 1.296 0v2.878h8.555V57.66a.649.649 0 1 1 1.297 0zm-6.04.804c.117.13.285.195.467.195a.63.63 0 0 0 .466-.195l2.58-2.644c.246-.26.246-.66-.013-.92-.26-.246-.66-.246-.92.013l-1.478 1.504v-5.6a.649.649 0 1 0-1.297 0v5.613l-1.477-1.504c-.247-.26-.66-.26-.92-.013s-.26.66-.013.92l2.606 2.63zM530.96 60v-8.727h5.47v1.133h-4.154v2.66h3.87v1.13h-3.87v2.672h4.206V60h-5.523zm9.134-6.545l1.444 2.548 1.458-2.548h1.393l-2.04 3.273L544.405 60h-1.393l-1.475-2.446-1.47 2.446h-1.398l2.037-3.273-2-3.273h1.398zm6.603 9v-9h1.245v1.06h.106a3.53 3.53 0 0 1 .32-.473c.14-.18.332-.335.58-.47s.574-.205.98-.205c.53 0 1 .133 1.415.4s.74.652.976 1.155.358 1.108.358 1.815-.118 1.314-.354 1.82-.56.9-.97 1.163-.882.405-1.4.405c-.397 0-.723-.067-.976-.2s-.446-.3-.588-.47a3.58 3.58 0 0 1-.328-.477h-.076v3.473H546.7zm1.25-5.727c0 .46.067.864.2 1.2s.327.618.58.814.562.3.93.3c.38 0 .7-.1.954-.303s.45-.48.58-.83.2-.743.2-1.18-.065-.82-.196-1.163-.32-.615-.58-.814-.576-.298-.96-.298c-.37 0-.682.095-.938.285s-.444.456-.575.797-.196.74-.196 1.193zm9.915 3.405c-.614 0-1.15-.14-1.607-.422s-.812-.675-1.065-1.18-.38-1.097-.38-1.773.126-1.273.38-1.78a2.84 2.84 0 0 1 1.065-1.185c.458-.28.993-.422 1.607-.422s1.15.14 1.606.422.813.676 1.066 1.185.38 1.102.38 1.78-.127 1.267-.38 1.773-.608.9-1.066 1.18-.993.422-1.606.422zm.004-1.07c.398 0 .727-.105 1-.315a1.85 1.85 0 0 0 .579-.84c.128-.35.192-.734.192-1.155s-.064-.8-.192-1.15-.318-.635-.58-.848-.6-.32-1-.32-.733.107-.997.32a1.9 1.9 0 0 0-.584.848c-.125.35-.187.733-.187 1.15s.062.805.187 1.155.322.63.584.84.596.315.997.315zm5.47.938v-6.545h1.232v1.04h.068a1.58 1.58 0 0 1 .63-.831c.304-.205.648-.307 1.032-.307l.28.01.26.02v1.22a2.26 2.26 0 0 0-.273-.047 3.03 3.03 0 0 0-.392-.03 1.66 1.66 0 0 0-.805.192 1.42 1.42 0 0 0-.554.524c-.137.222-.205.474-.205.758V60h-1.274zm9.048-6.545v1.023h-3.576v-1.023h3.576zm-2.617-1.568h1.274v6.192c0 .247.037.433.1.558s.17.206.286.25a1.14 1.14 0 0 0 .387.064c.103 0 .192-.007.27-.02l.18-.034.23 1.053c-.074.028-.18.057-.315.085a2.68 2.68 0 0 1-.512.05c-.335.006-.647-.054-.937-.18a1.61 1.61 0 0 1-.703-.58c-.18-.262-.27-.6-.27-.984v-6.456zm9.2 8.112v-6.545h1.23v1.04h.07a1.58 1.58 0 0 1 .63-.831c.304-.205.648-.307 1.032-.307l.28.01.26.02v1.22a2.26 2.26 0 0 0-.273-.047 3.03 3.03 0 0 0-.392-.03 1.66 1.66 0 0 0-.805.192 1.42 1.42 0 0 0-.554.524c-.137.222-.205.474-.205.758V60h-1.274zm8.192.132c-.645 0-1.2-.138-1.666-.413s-.82-.67-1.074-1.172-.375-1.098-.375-1.777c0-.67.125-1.26.375-1.773a2.91 2.91 0 0 1 1.057-1.197c.454-.287.986-.43 1.594-.43a3.2 3.2 0 0 1 1.073.183c.347.122.658.314.934.575s.493.6.652 1.018.238.92.238 1.513v.452h-5.203v-.955h3.955a1.87 1.87 0 0 0-.205-.89c-.137-.258-.328-.467-.575-.618s-.53-.226-.86-.226a1.66 1.66 0 0 0-.937.264 1.77 1.77 0 0 0-.614.682 1.97 1.97 0 0 0-.213.908v.746c0 .438.077.8.23 1.117s.374.54.652.703.604.24.976.24a2.04 2.04 0 0 0 .66-.102 1.43 1.43 0 0 0 .516-.315 1.36 1.36 0 0 0 .332-.516l1.206.217a2.18 2.18 0 0 1-.52.933c-.247.264-.558.47-.933.618s-.797.217-1.274.217zm5.222 2.322v-9h1.244v1.06h.107a3.59 3.59 0 0 1 .319-.473 1.82 1.82 0 0 1 .58-.469c.247-.136.574-.205.98-.205.528 0 1 .133 1.415.4s.74.652.976 1.155.358 1.108.358 1.815-.118 1.314-.354 1.82-.56.9-.972 1.163-.882.405-1.4.405c-.398 0-.723-.067-.976-.2s-.446-.3-.588-.47a3.58 3.58 0 0 1-.328-.477h-.077v3.473H592.4zm1.25-5.727c0 .46.066.864.2 1.2s.327.618.58.814.563.3.93.3c.38 0 .7-.1.955-.303s.45-.48.58-.83.2-.743.2-1.18a3.27 3.27 0 0 0-.196-1.163 1.78 1.78 0 0 0-.58-.814c-.256-.2-.575-.298-.96-.298-.37 0-.68.095-.937.285s-.445.456-.575.797-.196.74-.196 1.193zm9.914 3.405c-.613 0-1.15-.14-1.606-.422s-.813-.675-1.066-1.18-.38-1.097-.38-1.773.127-1.273.38-1.78.608-.904 1.066-1.185.993-.422 1.606-.422 1.15.14 1.607.422a2.84 2.84 0 0 1 1.065 1.185c.253.508.38 1.102.38 1.78s-.126 1.267-.38 1.773-.608.9-1.065 1.18-.993.422-1.607.422zm.005-1.07c.397 0 .727-.105.988-.315s.455-.5.58-.84.192-.734.192-1.155-.064-.8-.192-1.15a1.87 1.87 0 0 0-.58-.848c-.26-.213-.6-.32-.988-.32s-.733.107-.998.32-.456.496-.583.848-.188.733-.188 1.15.063.805.188 1.155.322.63.583.84.597.315.998.315zm5.47.938v-6.545h1.23v1.04h.068c.12-.352.33-.63.63-.83a1.83 1.83 0 0 1 1.03-.307l.282.01.26.02v1.22a2.38 2.38 0 0 0-.273-.047c-.13-.017-.262-.03-.392-.03-.3 0-.57.064-.806.192a1.43 1.43 0 0 0-.554.524 1.42 1.42 0 0 0-.204.758V60h-1.274zm9.047-6.545v1.023h-3.575v-1.023h3.575zm-2.616-1.568h1.274v6.192c0 .247.037.433.1.558a.58.58 0 0 0 .285.251 1.15 1.15 0 0 0 .388.064 1.5 1.5 0 0 0 .269-.021l.178-.034.23 1.053c-.074.028-.18.057-.316.085s-.307.048-.5.05c-.335.006-.648-.054-.938-.18a1.61 1.61 0 0 1-.703-.579c-.18-.26-.268-.6-.268-.984v-6.456z" fill="#1757c2"/><rect x="494.5" y="40.5" width="137" height="31" rx="3.5" stroke="#1757c2"/><defs><linearGradient id="A" x1="378.5" y1="223" x2="378.5" y2="352.114" gradientUnits="userSpaceOnUse"><stop stop-color="#1757c2"/><stop offset="1" stop-color="#1757c2" stop-opacity="0"/></linearGradient><clipPath id="B"><path fill="#fff" transform="translate(43 219)" d="M0 0h589v123H0z"/></clipPath><path id="C" d="M218.01 173.295h-1.38l-4.22 15.674h1.38l4.22-15.674zm10.992.4c-2.66-.026-4.372 1.968-4.372 4.397 0 2.532 1.867 4.347 4.117 4.347 1.355 0 2.505-.665 3.22-1.74h.102c0 3.222-1.252 5.063-3.272 5.063-1.38 0-2.225-.87-2.506-2.07h-1.56c.307 2.07 1.867 3.477 4.066 3.477 2.94 0 4.755-2.608 4.755-7.26 0-4.833-2.403-6.188-4.55-6.213zm0 1.406c1.637 0 2.838 1.406 2.838 2.966s-1.278 2.966-2.89 2.966-2.787-1.304-2.787-2.94c0-1.662 1.227-2.99 2.838-2.99zm11.156 12.068c2.493 0 4.32-1.84 4.32-4.347 0-2.537-1.764-4.397-4.168-4.397-.882 0-1.738.313-2.275.74h-.077l.46-3.86h5.472v-1.406h-6.8l-.793 6.443 1.483.18c.543-.4 1.47-.67 2.276-.665 1.668.013 2.89 1.28 2.89 2.992 0 1.68-1.176 2.915-2.787 2.915-1.342 0-2.4-.863-2.53-2.046h-1.534c.096 1.995 1.815 3.452 4.065 3.452zm11.13 0c2.89 0 4.55-2.448 4.55-6.724 0-4.245-1.687-6.725-4.55-6.725s-4.55 2.48-4.55 6.725c0 4.276 1.662 6.724 4.55 6.724zm0-1.406c-1.905 0-3.017-1.91-3.017-5.318 0-3.4 1.125-5.344 3.017-5.344s3.017 1.943 3.017 5.344c0 3.407-1.112 5.318-3.017 5.318z"/></defs></svg>