<svg xmlns="http://www.w3.org/2000/svg" width="672" height="400" fill="none" xmlns:v="https://vecta.io/nano"><style><![CDATA[.B{fill:#fff}.C{fill:#1757c2}.D{fill:#131520}.E{fill:#f3f7fc}.F{stroke:#ecedf3}.G{fill:#5d6598}]]></style><path d="M0 0h672v400H0z" class="B"/><path d="M49.716 49.09h1.705c-.078-2.195-2.102-3.835-4.915-3.835-2.784 0-4.972 1.62-4.972 4.063 0 1.96 1.42 3.125 3.693 3.778l1.8.51c1.534.426 2.898.966 2.898 2.415 0 1.59-1.534 2.642-3.55 2.642-1.733 0-3.267-.767-3.41-2.415h-1.818c.17 2.386 2.102 4.006 5.227 4.006 3.352 0 5.256-1.847 5.256-4.205 0-2.727-2.585-3.608-4.09-4.006l-1.477-.398c-1.08-.284-2.812-.852-2.812-2.415 0-1.392 1.278-2.415 3.2-2.415 1.76 0 3.097.838 3.267 2.273zm9.146 11.136c2.216 0 3.835-1.108 4.347-2.756l-1.62-.455c-.426 1.136-1.413 1.705-2.727 1.705-1.967 0-3.324-1.27-3.402-3.608h7.92v-.7c0-4.062-2.415-5.454-4.687-5.454-2.955 0-4.915 2.33-4.915 5.682s1.932 5.597 5.085 5.597zm-3.402-6.562c.114-1.697 1.314-3.2 3.232-3.2 1.818 0 2.983 1.364 2.983 3.2H55.46zm14.9 6.563c2.415 0 4.006-1.477 4.3-3.41h-1.676c-.312 1.193-1.307 1.903-2.614 1.903-1.99 0-3.267-1.648-3.267-4.176 0-2.472 1.307-4.09 3.267-4.09 1.477 0 2.358.91 2.614 1.903h1.676c-.284-2.045-2.017-3.41-4.318-3.41-2.954 0-4.915 2.33-4.915 5.653 0 3.267 1.875 5.625 4.943 5.625zm13.615-4.687c0 2.045-1.562 2.983-2.812 2.983-1.392 0-2.386-1.023-2.386-2.614V49.09H77.1v6.932c0 2.784 1.477 4.12 3.523 4.12 1.648 0 2.727-.88 3.24-1.99h.114V60h1.676V49.09h-1.676v6.45zM88.722 60h1.676v-6.903c0-1.477 1.165-2.557 2.756-2.557.447 0 .91.085 1.023.114V48.95l-.88-.028c-1.307 0-2.443.74-2.84 1.818h-.114V49.09h-1.62V60zm7.44 0h1.676V49.09h-1.676V60zm.852-12.727c.653 0 1.193-.51 1.193-1.136S97.67 45 97.015 45s-1.193.51-1.193 1.136.54 1.136 1.193 1.136zm8.638 1.818h-2.33v-2.614h-1.676v2.614H100v1.42h1.648v6.818c0 1.903 1.534 2.813 2.954 2.813.625 0 1.023-.114 1.25-.2l-.34-1.506c-.142.028-.37.085-.738.085-.74 0-1.45-.227-1.45-1.648V50.51h2.33v-1.42zm3.6 14.972c1.513 0 2.585-.803 3.2-2.472l4.645-12.472-1.832-.028-3.01 8.693h-.114l-3.01-8.693h-1.82l4.035 10.966-.313.852c-.597 1.633-1.364 1.8-2.585 1.477l-.426 1.477c.17.085.653.2 1.22.2zm24.817.028v-15h-1.62v1.733h-.2c-.37-.568-1.023-1.875-3.153-1.875-2.756 0-4.66 2.188-4.66 5.625 0 3.466 1.903 5.653 4.63 5.653 2.103 0 2.813-1.307 3.182-1.903h.142v5.767h1.676zm-1.647-9.545c0 2.472-1.108 4.176-3.125 4.176-2.103 0-3.182-1.847-3.182-4.176 0-2.3 1.05-4.09 3.182-4.09 2.045 0 3.125 1.648 3.125 4.09zm11.59.994c0 2.045-1.563 2.983-2.813 2.983-1.392 0-2.386-1.023-2.386-2.614V49.09h-1.676v6.932c0 2.784 1.477 4.12 3.522 4.12 1.648 0 2.728-.88 3.24-1.99h.114V60h1.676V49.09h-1.676v6.45zm9.32 4.688c2.215 0 3.835-1.108 4.346-2.756l-1.62-.455c-.426 1.136-1.414 1.705-2.727 1.705-1.968 0-3.324-1.27-3.402-3.608h7.92v-.7c0-4.062-2.415-5.454-4.688-5.454-2.954 0-4.915 2.33-4.915 5.682s1.932 5.597 5.086 5.597zm-3.402-6.562c.113-1.697 1.313-3.2 3.23-3.2 1.818 0 2.983 1.364 2.983 3.2h-6.214zm18.196-2.13c-.526-1.548-1.705-2.585-3.864-2.585-2.3 0-4.006 1.307-4.006 3.153 0 1.506.895 2.514 2.898 2.983l1.818.426c1.1.256 1.62.78 1.62 1.534 0 .938-.994 1.705-2.556 1.705-1.37 0-2.23-.6-2.53-1.76l-1.59.398c.39 1.854 1.918 2.84 4.148 2.84 2.536 0 4.26-1.385 4.26-3.267 0-1.52-.95-2.48-2.897-2.955l-1.62-.398c-1.292-.32-1.875-.753-1.875-1.59 0-.937.995-1.62 2.33-1.62 1.463 0 2.067.8 2.358 1.563l1.506-.426zm7.466-2.443h-2.33v-2.614h-1.676v2.614h-1.648v1.42h1.648v6.818c0 1.903 1.534 2.813 2.955 2.813.625 0 1.022-.114 1.25-.2l-.34-1.506c-.142.028-.37.085-.74.085-.74 0-1.45-.227-1.45-1.648V50.51h2.33v-1.42zm2.52 10.91h1.676V49.09h-1.676V60zm.852-12.727c.654 0 1.194-.51 1.194-1.136S179.622 45 178.968 45s-1.193.51-1.193 1.136.54 1.136 1.193 1.136zm8.326 12.955c2.955 0 4.943-2.244 4.943-5.625 0-3.41-1.988-5.653-4.943-5.653s-4.943 2.244-4.943 5.653c0 3.38 1.988 5.625 4.943 5.625zm0-1.506c-2.244 0-3.267-1.932-3.267-4.12s1.023-4.148 3.267-4.148 3.267 1.96 3.267 4.148-1.023 4.12-3.267 4.12zm9.178-5.284c0-1.903 1.18-2.983 2.784-2.983 1.555 0 2.5 1.016 2.5 2.727V60h1.676v-6.932c0-2.784-1.484-4.12-3.693-4.12-1.648 0-2.67.74-3.182 1.847h-.142V49.09h-1.62V60h1.676v-6.562zm11.7 0c0-1.903 1.18-2.983 2.784-2.983 1.556 0 2.5 1.016 2.5 2.727V60h1.676v-6.932c0-2.784-1.484-4.12-3.693-4.12-1.648 0-2.67.74-3.182 1.847h-.142V49.09h-1.62V60h1.676v-6.562zm13.233 6.818c1.904 0 2.898-1.023 3.24-1.733h.085V60h1.676v-7.187c0-3.466-2.642-3.864-4.034-3.864-1.647 0-3.522.568-4.375 2.557l1.59.568c.37-.796 1.243-1.648 2.84-1.648 1.54 0 2.3.817 2.3 2.216v.057c0 .8-.824.74-2.812.994-2.024.263-4.233.7-4.233 3.2 0 2.13 1.648 3.352 3.72 3.352zm.256-1.506c-1.335 0-2.3-.597-2.3-1.76 0-1.278 1.165-1.676 2.472-1.847.7-.085 2.613-.284 2.897-.625v1.534c0 1.364-1.08 2.7-3.068 2.7zm7.804 1.25h1.676V49.09h-1.676V60zm.852-12.727c.653 0 1.193-.51 1.193-1.136S230.97 45 230.316 45s-1.193.51-1.193 1.136.54 1.136 1.193 1.136zM234.2 60h1.676v-6.903c0-1.477 1.165-2.557 2.756-2.557.447 0 .91.085 1.022.114V48.95l-.88-.028c-1.307 0-2.443.74-2.84 1.818h-.114V49.09h-1.62V60zm11.683.227c2.216 0 3.835-1.108 4.347-2.756l-1.62-.455c-.426 1.136-1.413 1.705-2.727 1.705-1.967 0-3.324-1.27-3.402-3.608h7.92v-.7c0-4.062-2.415-5.454-4.687-5.454-2.955 0-4.915 2.33-4.915 5.682s1.932 5.597 5.085 5.597zm-3.402-6.562c.114-1.697 1.314-3.2 3.232-3.2 1.818 0 2.983 1.364 2.983 3.2h-6.215zm18.196-2.13c-.525-1.548-1.704-2.585-3.863-2.585-2.302 0-4.006 1.307-4.006 3.153 0 1.506.895 2.514 2.898 2.983l1.818.426c1.1.256 1.62.78 1.62 1.534 0 .938-.994 1.705-2.557 1.705-1.37 0-2.23-.6-2.528-1.76l-1.59.398c.39 1.854 1.918 2.84 4.148 2.84 2.535 0 4.26-1.385 4.26-3.267 0-1.52-.952-2.48-2.898-2.955l-1.62-.398c-1.293-.32-1.875-.753-1.875-1.59 0-.937.994-1.62 2.33-1.62 1.463 0 2.066.8 2.357 1.563l1.506-.426z" class="D"/><rect x="40.5" y="105.5" width="591" height="47" rx="7.5" stroke="#1757c2" class="E"/><path d="M67.465 134.56a.7.7 0 0 1-.44-.16c-.2-.16-.3-.42-.24-.68l.98-5-.54.3c-.34.18-.76.08-.96-.26-.18-.34-.08-.76.26-.96l1.86-1.06a.7.7 0 0 1 .76.04c.22.16.32.44.28.7l-1.02 5.18.84-.36c.36-.16.76 0 .92.36s0 .76-.36.92l-2.06.9a.46.46 0 0 1-.28.08zm1.98-9.56a1.02 1.02 0 0 0 .3-.7c0-.26-.1-.52-.3-.7a1.02 1.02 0 0 0-.7-.3c-.26 0-.52.1-.7.3a1.02 1.02 0 0 0-.3.7c0 .26.1.52.3.7a1.02 1.02 0 0 0 .7.3c.26 0 .52-.1.7-.3zm7.76 4c0-5.08-4.12-9.2-9.2-9.2s-9.2 4.12-9.2 9.2 4.12 9.2 9.2 9.2 9.2-4.12 9.2-9.2zm-1.6 0a7.6 7.6 0 1 1-15.2 0 7.6 7.6 0 1 1 15.2 0z" class="C"/><g clip-path="url(#A)" class="C"><path d="M92.98 134h6.702v-1.317h-4.584v-.075l2.023-2.118c1.864-1.884 2.396-2.784 2.396-3.923 0-1.635-1.332-2.888-3.25-2.888-1.904 0-3.296 1.233-3.296 3.092h1.467c-.005-1.093.7-1.81 1.8-1.81 1.034 0 1.82.636 1.82 1.65 0 .9-.537 1.546-1.63 2.705l-3.445 3.57V134zm18.953 2.864v-10.5h-1.45v1.238h-.125c-.263-.473-.775-1.338-2.192-1.338-1.845 0-3.207 1.457-3.207 3.933s1.343 3.952 3.192 3.952c1.392 0 1.94-.85 2.207-1.337h.1v4.052h1.486zm-1.456-6.682c0 1.606-.716 2.7-1.994 2.7-1.327 0-2.023-1.168-2.023-2.7 0-1.517.676-2.655 2.023-2.655 1.298 0 1.994 1.06 1.994 2.655zm8.292.65c.005 1.298-.96 1.914-1.794 1.914-.92 0-1.557-.666-1.557-1.705v-4.678h-1.486v4.857c0 1.894 1.04 2.878 2.506 2.878 1.148 0 1.93-.606 2.282-1.42h.08V134h1.462v-7.636h-1.492v4.47zm6.78 3.32c1.666 0 2.844-.82 3.182-2.063l-1.407-.254c-.268.72-.915 1.09-1.76 1.09-1.273 0-2.128-.825-2.167-2.297h5.43v-.527c0-2.76-1.65-3.838-3.38-3.838-2.128 0-3.53 1.62-3.53 3.968 0 2.37 1.382 3.922 3.634 3.922zm-2.147-4.638c.06-1.084.845-2.024 2.053-2.024 1.153 0 1.91.855 1.914 2.024H123.4zm12.795-1.288c-.308-1.188-1.238-1.964-2.888-1.964-1.725 0-2.948.9-2.948 2.262 0 1.084.656 1.805 2.088 2.123l1.292.284c.736.164 1.08.492 1.08.97 0 .592-.63 1.054-1.606 1.054-.9 0-1.46-.383-1.64-1.134l-1.437.22c.248 1.352 1.372 2.113 3.087 2.113 1.845 0 3.122-.98 3.122-2.36 0-1.08-.686-1.745-2.088-2.07l-1.213-.278c-.84-.2-1.203-.482-1.198-1-.005-.587.63-1.005 1.477-1.005.924 0 1.352.513 1.526 1.025l1.347-.24zm5.348-1.864h-1.566v-1.83h-1.486v1.83h-1.12v1.193h1.12v4.51c-.005 1.387 1.054 2.058 2.227 2.033.472-.005.79-.094.965-.16l-.27-1.228c-.1.02-.283.065-.522.065-.482 0-.915-.16-.915-1.02v-4.2h1.566v-1.193zM143.19 134h1.486v-7.636h-1.486V134zm.75-8.815c.513 0 .94-.397.94-.885s-.427-.89-.94-.89-.94.402-.94.89.422.885.94.885zm5.953 8.97c2.152 0 3.56-1.576 3.56-3.937 0-2.377-1.407-3.953-3.56-3.953s-3.56 1.576-3.56 3.953c0 2.36 1.407 3.937 3.56 3.937zm.005-1.248c-1.407 0-2.064-1.228-2.064-2.694s.657-2.705 2.064-2.705c1.397 0 2.053 1.243 2.053 2.705s-.656 2.694-2.053 2.694zm6.7-3.44c0-1.218.746-1.914 1.78-1.914 1.01 0 1.62.66 1.62 1.77V134h1.486v-4.857c0-1.89-1.04-2.88-2.6-2.88-1.148 0-1.9.532-2.252 1.343h-.095v-1.243h-1.426V134h1.486v-4.534zm8.367 0c0-1.218.746-1.914 1.78-1.914 1.01 0 1.62.66 1.62 1.77V134h1.486v-4.857c0-1.89-1.04-2.88-2.6-2.88-1.148 0-1.9.532-2.252 1.343h-.094v-1.243h-1.427V134h1.486v-4.534zm9.103 4.703c1.263 0 1.974-.64 2.257-1.213h.06V134h1.452v-5.07c0-2.222-1.75-2.665-2.963-2.665-1.382 0-2.655.557-3.152 1.95l1.397.318c.218-.542.775-1.064 1.775-1.064.96 0 1.45.502 1.45 1.368v.034c0 .542-.557.532-1.93.69-1.446.17-2.928.547-2.928 2.282 0 1.502 1.13 2.327 2.58 2.327zm.323-1.193c-.84 0-1.446-.378-1.446-1.114 0-.795.706-1.08 1.566-1.193.482-.065 1.625-.194 1.84-.408v.985c0 .905-.72 1.73-1.96 1.73zm5.426 1.024h1.486v-7.636h-1.486V134zm.75-8.815c.512 0 .94-.397.94-.885s-.428-.89-.94-.89-.94.402-.94.89.422.885.94.885zm2.736 8.815h1.487v-4.663c0-1 .77-1.72 1.824-1.72.308 0 .656.055.776.1v-1.422c-.15-.02-.443-.035-.632-.035-.895 0-1.66.507-1.94 1.328h-.08v-1.213h-1.437V134zm8.39.154c1.665 0 2.844-.82 3.182-2.063l-1.407-.254c-.27.72-.915 1.09-1.76 1.09-1.273 0-2.128-.825-2.168-2.297h5.43v-.527c0-2.76-1.65-3.838-3.38-3.838-2.127 0-3.53 1.62-3.53 3.968 0 2.37 1.382 3.922 3.634 3.922zm-2.148-4.638c.06-1.084.845-2.024 2.053-2.024 1.154 0 1.91.855 1.914 2.024h-3.967zm12.796-1.288c-.31-1.188-1.238-1.964-2.89-1.964-1.725 0-2.948.9-2.948 2.262 0 1.084.656 1.805 2.088 2.123l1.293.284c.736.164 1.08.492 1.08.97 0 .592-.632 1.054-1.606 1.054-.9 0-1.462-.383-1.64-1.134l-1.437.22c.25 1.352 1.373 2.113 3.088 2.113 1.844 0 3.122-.98 3.122-2.36 0-1.08-.686-1.745-2.088-2.07l-1.213-.278c-.84-.2-1.203-.482-1.198-1-.005-.587.63-1.005 1.476-1.005.925 0 1.352.513 1.526 1.025l1.348-.24zm7.71 5.94c1.262 0 1.973-.64 2.257-1.213h.06V134h1.452v-5.07c0-2.222-1.75-2.665-2.963-2.665-1.382 0-2.655.557-3.152 1.95l1.397.318c.22-.542.776-1.064 1.775-1.064.96 0 1.452.502 1.452 1.368v.034c0 .542-.557.532-1.93.69-1.447.17-2.93.547-2.93 2.282 0 1.502 1.13 2.327 2.58 2.327zm.323-1.193c-.84 0-1.447-.378-1.447-1.114 0-.795.706-1.08 1.566-1.193.482-.065 1.626-.194 1.84-.408v.985c0 .905-.72 1.73-1.96 1.73zM215.8 134h1.487v-4.663c0-1 .77-1.72 1.824-1.72.308 0 .656.055.776.1v-1.422c-.15-.02-.443-.035-.632-.035-.895 0-1.66.507-1.94 1.328h-.08v-1.213H215.8V134zm8.39.154c1.665 0 2.844-.82 3.182-2.063l-1.407-.254c-.27.72-.915 1.09-1.76 1.09-1.273 0-2.128-.825-2.168-2.297h5.43v-.527c0-2.76-1.65-3.838-3.38-3.838-2.127 0-3.53 1.62-3.53 3.968 0 2.37 1.382 3.922 3.634 3.922zm-2.148-4.638c.06-1.084.845-2.024 2.053-2.024 1.154 0 1.9.855 1.914 2.024h-3.967zm13.637 4.633c1.392 0 1.94-.85 2.208-1.337h.124V134h1.452v-10.182h-1.487v3.784h-.09c-.27-.473-.776-1.338-2.198-1.338-1.844 0-3.202 1.457-3.202 3.933s1.338 3.952 3.192 3.952zm.328-1.268c-1.327 0-2.018-1.168-2.018-2.7 0-1.517.676-2.655 2.018-2.655 1.298 0 1.994 1.06 1.994 2.655 0 1.606-.71 2.7-1.994 2.7zm10.415-2.048c.005 1.298-.96 1.914-1.795 1.914-.92 0-1.556-.666-1.556-1.705v-4.678h-1.487v4.857c0 1.894 1.04 2.878 2.506 2.878 1.148 0 1.93-.606 2.282-1.42h.08V134h1.462v-7.636h-1.49v4.47zm6.78 3.32c1.665 0 2.843-.82 3.18-2.063l-1.407-.254c-.268.72-.914 1.09-1.76 1.09-1.273 0-2.128-.825-2.168-2.297h5.43v-.527c0-2.76-1.65-3.838-3.38-3.838-2.128 0-3.53 1.62-3.53 3.968 0 2.37 1.382 3.922 3.635 3.922zm-2.148-4.638c.06-1.084.845-2.024 2.053-2.024 1.154 0 1.91.855 1.914 2.024h-3.967zm14.343-3.152h-1.566v-1.83h-1.487v1.83h-1.118v1.193h1.118v4.51c-.005 1.387 1.054 2.058 2.228 2.033.472-.005.8-.094.964-.16l-.268-1.228c-.1.02-.284.065-.522.065-.483 0-.915-.16-.915-1.02v-4.2h1.566v-1.193zm4.78 7.8c2.153 0 3.56-1.576 3.56-3.937 0-2.377-1.407-3.953-3.56-3.953s-3.56 1.576-3.56 3.953c0 2.36 1.407 3.937 3.56 3.937zm.005-1.248c-1.407 0-2.063-1.228-2.063-2.694s.656-2.705 2.063-2.705c1.397 0 2.053 1.243 2.053 2.705s-.656 2.694-2.053 2.694zM279.22 134h1.452v-1.188h.124c.27.487.816 1.337 2.208 1.337 1.85 0 3.19-1.48 3.19-3.952s-1.362-3.933-3.206-3.933c-1.417 0-1.93.865-2.193 1.338h-.09v-3.784h-1.487V134zm1.457-3.818c0-1.596.696-2.655 1.993-2.655 1.348 0 2.024 1.138 2.024 2.655 0 1.53-.696 2.7-2.024 2.7-1.277 0-1.993-1.093-1.993-2.7zm10.48 3.972c1.665 0 2.843-.82 3.182-2.063l-1.407-.254c-.27.72-.915 1.09-1.76 1.09-1.273 0-2.128-.825-2.168-2.297h5.43v-.527c0-2.76-1.65-3.838-3.38-3.838-2.128 0-3.53 1.62-3.53 3.968 0 2.37 1.383 3.922 3.635 3.922zm-2.148-4.638c.06-1.084.845-2.024 2.053-2.024 1.154 0 1.91.855 1.914 2.024h-3.967zM299.786 134h1.487v-4.663c0-1 .77-1.72 1.824-1.72a3.49 3.49 0 0 1 .776.09v-1.422c-.15-.02-.442-.035-.63-.035-.895 0-1.66.507-1.94 1.328h-.08v-1.213h-1.437V134zm8.39.154c1.666 0 2.844-.82 3.182-2.063l-1.407-.254c-.268.72-.915 1.09-1.76 1.09-1.273 0-2.128-.825-2.167-2.297h5.428v-.527c0-2.76-1.65-3.838-3.38-3.838-2.128 0-3.53 1.62-3.53 3.968 0 2.37 1.382 3.922 3.634 3.922zm-2.148-4.638c.06-1.084.846-2.024 2.054-2.024 1.153 0 1.91.855 1.914 2.024h-3.968zm12.796-1.288c-.308-1.188-1.238-1.964-2.888-1.964-1.726 0-2.95.9-2.95 2.262 0 1.084.657 1.805 2.09 2.123l1.292.284c.736.164 1.08.492 1.08.97 0 .592-.63 1.054-1.606 1.054-.9 0-1.46-.383-1.64-1.134l-1.437.22c.248 1.352 1.372 2.113 3.087 2.113 1.845 0 3.122-.98 3.122-2.36 0-1.08-.686-1.745-2.088-2.07l-1.213-.278c-.84-.2-1.203-.482-1.198-1-.005-.587.63-1.005 1.477-1.005.924 0 1.352.513 1.526 1.025l1.347-.24zm5.075 5.926c1.665 0 2.844-.82 3.182-2.063l-1.407-.254c-.27.72-.915 1.09-1.76 1.09-1.273 0-2.128-.825-2.168-2.297h5.43v-.527c0-2.76-1.65-3.838-3.38-3.838-2.127 0-3.53 1.62-3.53 3.968 0 2.37 1.382 3.922 3.634 3.922zm-2.148-4.638c.06-1.084.845-2.024 2.053-2.024 1.154 0 1.91.855 1.914 2.024h-3.967zm8.56-.05c0-1.218.746-1.914 1.78-1.914 1.01 0 1.62.66 1.62 1.77V134h1.486v-4.857c0-1.89-1.04-2.88-2.6-2.88-1.15 0-1.9.532-2.252 1.343h-.095v-1.243h-1.427V134h1.487v-4.534zm10.445-3.102h-1.566v-1.83h-1.486v1.83h-1.12v1.193h1.12v4.51c-.005 1.387 1.054 2.058 2.227 2.033.472-.005.8-.094.964-.16l-.268-1.228c-.1.02-.283.065-.522.065-.482 0-.915-.16-.915-1.02v-4.2h1.566v-1.193z"/></g><path d="M304.054 259v-.895l3.36-3.68.974-1.123c.255-.322.444-.624.567-.905a2.19 2.19 0 0 0 .189-.895c0-.358-.086-.668-.26-.93a1.67 1.67 0 0 0-.696-.606c-.295-.143-.626-.214-.994-.214-.4 0-.732.08-1.024.243a1.68 1.68 0 0 0-.671.672c-.156.288-.234.626-.234 1.014h-1.173c0-.597.137-1.12.412-1.57s.65-.802 1.124-1.054 1.013-.378 1.606-.378 1.125.126 1.586.378.822.6 1.084 1.02a2.68 2.68 0 0 1 .392 1.427c0 .374-.068.74-.204 1.1s-.364.75-.696 1.188-.783.964-1.367 1.6l-2.287 2.446v.08h4.733V259h-6.423zm11.798.14c-.75 0-1.388-.204-1.914-.6s-.93-1.006-1.2-1.785-.417-1.727-.417-2.834c0-1.1.14-2.04.417-2.82s.686-1.38 1.213-1.8 1.167-.62 1.9-.62 1.377.207 1.904.62.934 1.008 1.213 1.8.422 1.72.422 2.82c0 1.107-.14 2.052-.417 2.834s-.68 1.374-1.208 1.785-1.165.6-1.914.6zm0-1.094c.742 0 1.32-.358 1.73-1.073s.616-1.737.616-3.063c0-.882-.094-1.632-.283-2.252s-.454-1.092-.806-1.417a1.78 1.78 0 0 0-1.257-.487c-.736 0-1.3.363-1.726 1.1s-.62 1.745-.62 3.067c0 .882.093 1.63.278 2.247s.453 1.086.8 1.407.774.482 1.268.482zm9.963.955h-1.293l3.74-10.182h1.272l3.74 10.182h-1.293l-3.042-8.57h-.08l-3.042 8.57zm.477-3.977h5.2v1.093h-5.2v-1.093zm13.22.855v-4.514h1.174V259h-1.174v-1.293h-.08a2.62 2.62 0 0 1-.835 1c-.377.282-.856.402-1.432.402a2.55 2.55 0 0 1-1.273-.313c-.37-.212-.663-.53-.875-.954s-.318-.966-.318-1.616v-4.852h1.173v4.772c0 .557.156 1 .467 1.333s.716.497 1.204.497a2.08 2.08 0 0 0 .9-.224 1.94 1.94 0 0 0 .765-.686c.2-.308.313-.7.313-1.178zm6.405 6.145c-.567 0-1.054-.073-1.462-.22s-.747-.33-1.02-.567-.482-.48-.64-.746l.935-.656.402.477c.163.183.385.34.666.473s.658.204 1.12.204c.616 0 1.125-.15 1.526-.448s.602-.765.602-1.402v-1.55h-.1c-.086.14-.208.312-.367.517s-.382.383-.677.542-.686.234-1.183.234c-.616 0-1.17-.146-1.66-.438s-.874-.716-1.16-1.273-.422-1.233-.422-2.028c0-.782.137-1.463.412-2.043s.658-1.034 1.15-1.353 1.057-.482 1.7-.482c.497 0 .892.083 1.183.25s.52.348.676.557l.368.507h.12v-1.213h1.133v7.855c0 .656-.15 1.2-.447 1.6a2.66 2.66 0 0 1-1.193.91c-.5.193-1.05.294-1.66.294zm-.04-4.196c.47 0 .87-.108 1.193-.323s.572-.526.74-.93.254-.888.254-1.452c0-.55-.083-1.036-.25-1.457s-.4-.75-.736-1-.725-.358-1.203-.358c-.497 0-.9.126-1.243.378s-.575.6-.74 1.014-.244.895-.244 1.412c0 .53.083 1 .25 1.407s.417.723.745.955.743.343 1.233.343zm9.406 1.173v-.895l3.36-3.68.975-1.123c.255-.322.444-.624.566-.905a2.19 2.19 0 0 0 .189-.895c0-.358-.086-.668-.258-.93a1.67 1.67 0 0 0-.696-.606 2.25 2.25 0 0 0-.994-.214c-.392 0-.733.08-1.025.243a1.68 1.68 0 0 0-.671.672c-.156.288-.233.626-.233 1.014h-1.174c0-.597.138-1.12.413-1.57a2.87 2.87 0 0 1 1.123-1.054c.478-.252 1.013-.378 1.606-.378s1.126.126 1.586.378.822.6 1.084 1.02.393.903.393 1.427c0 .374-.068.74-.204 1.1s-.365.75-.696 1.188-.784.964-1.367 1.6l-2.287 2.446v.08h4.733V259h-6.424zm11.798.14c-.75 0-1.387-.204-1.914-.6s-.93-1.006-1.208-1.785-.418-1.727-.418-2.834c0-1.1.14-2.04.418-2.82s.686-1.38 1.213-1.8 1.167-.62 1.9-.62 1.377.207 1.904.62.935 1.008 1.213 1.8.423 1.72.423 2.82c0 1.107-.14 2.052-.418 2.834s-.68 1.374-1.208 1.785-1.165.6-1.914.6zm0-1.094c.743 0 1.32-.358 1.73-1.073s.617-1.737.617-3.063c0-.882-.095-1.632-.284-2.252s-.454-1.092-.805-1.417a1.78 1.78 0 0 0-1.258-.487c-.736 0-1.3.363-1.725 1.1s-.622 1.745-.622 3.067c0 .882.093 1.63.28 2.247s.452 1.086.8 1.407a1.81 1.81 0 0 0 1.268.482zm5.43.955v-.895l3.36-3.68.974-1.123c.255-.322.444-.624.567-.905a2.19 2.19 0 0 0 .189-.895c0-.358-.086-.668-.26-.93a1.67 1.67 0 0 0-.696-.606c-.295-.143-.626-.214-.994-.214-.4 0-.732.08-1.024.243a1.68 1.68 0 0 0-.671.672c-.156.288-.234.626-.234 1.014h-1.173c0-.597.137-1.12.412-1.57s.65-.802 1.124-1.054 1.013-.378 1.606-.378 1.125.126 1.586.378.822.6 1.084 1.02a2.68 2.68 0 0 1 .392 1.427c0 .374-.068.74-.203 1.1s-.365.75-.696 1.188-.784.964-1.368 1.6l-2.287 2.446v.08h4.733v1.1h-6.423zm11.798.14c-.75 0-1.387-.204-1.914-.6s-.93-1.006-1.2-1.785-.417-1.727-.417-2.834c0-1.1.14-2.04.417-2.82s.687-1.38 1.214-1.8 1.166-.62 1.9-.62 1.377.207 1.904.62.934 1.008 1.213 1.8.422 1.72.422 2.82c0 1.107-.14 2.052-.417 2.834s-.68 1.374-1.208 1.785-1.165.6-1.914.6zm0-1.094c.742 0 1.32-.358 1.73-1.073s.616-1.737.616-3.063c0-.882-.094-1.632-.283-2.252s-.454-1.092-.806-1.417a1.78 1.78 0 0 0-1.257-.487c-.736 0-1.3.363-1.726 1.1s-.62 1.745-.62 3.067c0 .882.093 1.63.278 2.247s.453 1.086.8 1.407.774.482 1.268.482zm170.325-9.23V259H553.4v-8.9h-.06l-2.486 1.65v-1.252l2.546-1.7h1.233zm6.25 10.32c-.75 0-1.387-.204-1.914-.6s-.93-1.006-1.208-1.785-.418-1.727-.418-2.834c0-1.1.14-2.04.418-2.82s.686-1.38 1.213-1.8 1.166-.62 1.9-.62 1.377.207 1.904.62.935 1.008 1.213 1.8.423 1.72.423 2.82c0 1.107-.14 2.052-.418 2.834s-.68 1.374-1.208 1.785-1.165.6-1.914.6zm0-1.094c.742 0 1.32-.358 1.73-1.073s.616-1.737.616-3.063c0-.882-.094-1.632-.283-2.252s-.454-1.092-.805-1.417-.768-.487-1.258-.487c-.736 0-1.3.363-1.725 1.1s-.622 1.745-.622 3.067c0 .882.093 1.63.28 2.247s.452 1.086.8 1.407.774.482 1.268.482zm9.386.955v-7.636h1.134v1.153h.08c.14-.378.4-.684.756-.92a2.22 2.22 0 0 1 1.233-.353l.323.005.293.015v1.193c-.04-.01-.13-.024-.273-.044a2.61 2.61 0 0 0-.443-.035c-.37 0-.702.078-.994.234a1.76 1.76 0 0 0-.686.636c-.166.268-.25.575-.25.92V259h-1.173zm5.2 0v-7.636h1.173V259h-1.173zm.597-8.9a.83.83 0 0 1-.592-.234.75.75 0 0 1-.243-.562.75.75 0 0 1 .243-.561c.166-.156.363-.234.592-.234s.424.078.586.234a.74.74 0 0 1 .249.561.74.74 0 0 1-.25.562c-.167.156-.358.234-.586.234zm8.135 2.983l-1.054.298c-.067-.176-.165-.346-.294-.512a1.43 1.43 0 0 0-.517-.418c-.22-.1-.5-.164-.84-.164-.467 0-.857.108-1.168.324s-.463.482-.463.8c0 .292.106.522.318.7s.544.3.995.423l1.133.278c.683.166 1.192.42 1.527.76s.502.774.502 1.307c0 .438-.126.83-.378 1.173s-.597.617-1.044.816-.968.298-1.56.298c-.78 0-1.424-.17-1.934-.507s-.834-.832-.97-1.482l1.114-.278c.106.4.307.72.602.925s.687.308 1.168.308c.547 0 .98-.116 1.302-.348s.488-.517.488-.845c0-.265-.093-.487-.28-.666s-.47-.32-.855-.408l-1.273-.298c-.7-.166-1.213-.423-1.54-.77s-.487-.8-.487-1.317a1.89 1.89 0 0 1 .363-1.144 2.47 2.47 0 0 1 .999-.78c.424-.2.905-.284 1.442-.284.756 0 1.35.166 1.78.497s.742.77.925 1.313zm3 3.142l-.02-1.452h.238l3.34-3.4h1.452l-3.56 3.6h-.1l-1.352 1.253zM586.115 259v-10.182h1.173V259h-1.173zm4.852 0l-2.983-3.778.835-.816 3.64 4.594h-1.492zm8.172-5.926l-1.054.298c-.066-.176-.164-.346-.293-.512a1.43 1.43 0 0 0-.517-.418c-.22-.1-.5-.164-.84-.164-.468 0-.857.108-1.17.324s-.462.482-.462.8c0 .292.106.522.318.7s.544.3.994.423l1.134.278c.683.166 1.192.42 1.526.76s.502.774.502 1.307a1.94 1.94 0 0 1-.377 1.173c-.25.345-.597.617-1.044.816s-.968.298-1.562.298c-.778 0-1.423-.17-1.933-.507s-.834-.832-.97-1.482l1.114-.278c.106.4.306.72.6.925s.688.308 1.17.308c.546 0 .98-.116 1.302-.348s.487-.517.487-.845c0-.265-.092-.487-.278-.666s-.47-.32-.855-.408l-1.273-.298c-.7-.166-1.213-.423-1.54-.77s-.487-.8-.487-1.317a1.89 1.89 0 0 1 .363-1.144 2.47 2.47 0 0 1 .999-.78c.424-.2.905-.284 1.442-.284.755 0 1.35.166 1.78.497s.743.77.925 1.313z" class="D"/><rect x="42.5" y="244.5" width="19" height="19" rx="5.5" class="B F"/><path d="M77.12 259v-10.182h3.63c.792 0 1.448.144 1.97.433s.9.682 1.168 1.183.388 1.057.388 1.68-.13 1.2-.393 1.69-.65.89-1.173 1.183-1.175.432-1.964.432h-2.496v-1.302h2.356c.5 0 .906-.086 1.218-.26s.54-.414.686-.716.22-.644.22-1.03-.073-.726-.22-1.024a1.57 1.57 0 0 0-.691-.701c-.312-.17-.723-.253-1.233-.253h-1.93V259H77.12zm8.836 0v-7.636h1.486V259h-1.486zm.75-8.815c-.258 0-.48-.086-.666-.258a.84.84 0 0 1-.273-.627.83.83 0 0 1 .273-.626c.186-.176.408-.263.666-.263s.48.087.66.263a.82.82 0 0 1 .278.626c0 .242-.093.45-.278.627a.93.93 0 0 1-.661.258zm6.027 8.97c-.752 0-1.4-.16-1.944-.482s-.958-.78-1.253-1.367-.437-1.28-.437-2.073c0-.783.146-1.472.438-2.07s.706-1.062 1.233-1.397 1.15-.502 1.86-.502a3.73 3.73 0 0 1 1.253.214 3.04 3.04 0 0 1 1.089.671c.322.305.575.7.76 1.188s.278 1.073.278 1.765v.527h-6.07v-1.113h4.614c0-.39-.08-.738-.24-1.04a1.8 1.8 0 0 0-.671-.721c-.285-.176-.62-.264-1.004-.264-.418 0-.782.103-1.094.308s-.547.468-.716.796-.25.678-.25 1.06v.87c0 .5.1.944.27 1.302s.436.632.76.82.704.278 1.138.278a2.38 2.38 0 0 0 .771-.119c.232-.083.433-.206.602-.368s.298-.363.388-.602l1.407.254c-.113.414-.315.777-.607 1.09s-.65.548-1.09.72-.93.253-1.487.253zm7.784-.005c-.616 0-1.166-.157-1.65-.472s-.858-.77-1.133-1.357-.408-1.298-.408-2.123.138-1.532.413-2.118.66-1.036 1.144-1.347a2.97 2.97 0 0 1 1.645-.468c.474 0 .855.08 1.144.24s.517.338.676.547a4.67 4.67 0 0 1 .378.552h.09v-3.784h1.487V259h-1.452v-1.188h-.124a4.02 4.02 0 0 1-.388.557c-.166.208-.395.39-.686.546s-.67.234-1.134.234zm.328-1.268c.428 0 .79-.112 1.084-.338s.524-.545.676-.95.234-.875.234-1.412c0-.53-.076-.995-.23-1.392a2.04 2.04 0 0 0-.671-.93c-.295-.222-.66-.333-1.094-.333-.447 0-.82.116-1.118.348s-.524.55-.676.95-.224.853-.224 1.357a3.91 3.91 0 0 0 .229 1.377c.152.408.378.73.676.97s.672.353 1.113.353zm9.402 1.12v-10.182h3.63c.792 0 1.448.144 1.97.433s.91.682 1.168 1.183.388 1.057.388 1.68-.13 1.2-.393 1.69-.65.89-1.173 1.183-1.175.432-1.964.432h-2.496v-1.302h2.357c.5 0 .906-.086 1.218-.26a1.62 1.62 0 0 0 .686-.716c.146-.3.22-.644.22-1.03a2.3 2.3 0 0 0-.219-1.024 1.57 1.57 0 0 0-.691-.701c-.312-.17-.723-.253-1.233-.253h-1.93V259h-1.536zm8.835 0v-7.636h1.487V259h-1.487zm.75-8.815c-.258 0-.48-.086-.666-.258s-.274-.385-.274-.627a.83.83 0 0 1 .274-.626c.185-.176.408-.263.666-.263s.48.087.66.263a.82.82 0 0 1 .279.626c0 .242-.093.45-.28.627s-.402.258-.66.258zm2.736 11.68v-10.5h1.45v1.238h.125a4.04 4.04 0 0 1 .373-.552c.162-.21.387-.39.676-.547s.67-.24 1.143-.24c.617 0 1.167.156 1.65.468s.863.76 1.138 1.347.418 1.292.418 2.118-.138 1.533-.413 2.123-.653 1.04-1.133 1.357-1.03.472-1.646.472c-.464 0-.843-.078-1.138-.234s-.52-.338-.687-.546-.293-.395-.382-.557h-.1v4.052h-1.486zm1.456-6.682c0 .537.078 1.007.234 1.412s.38.72.676.95.656.338 1.084.338c.444 0 .815-.117 1.114-.353a2.19 2.19 0 0 0 .676-.969c.155-.408.233-.867.233-1.377 0-.504-.076-.956-.228-1.357s-.375-.718-.676-.95-.672-.348-1.12-.348c-.43 0-.796.11-1.094.333a2.04 2.04 0 0 0-.671.93c-.152.397-.23.862-.23 1.392zm10.475 3.972c-.752 0-1.4-.16-1.943-.482a3.27 3.27 0 0 1-1.253-1.367c-.292-.6-.438-1.28-.438-2.073 0-.783.146-1.472.438-2.07s.706-1.062 1.233-1.397 1.15-.502 1.86-.502a3.73 3.73 0 0 1 1.253.214c.404.143.767.366 1.09.67s.575.7.76 1.188.28 1.073.28 1.765v.527h-6.07v-1.113h4.614c0-.39-.08-.738-.24-1.04s-.382-.546-.67-.72-.62-.264-1.004-.264c-.418 0-.782.103-1.094.308a2.08 2.08 0 0 0-.716.796c-.165.325-.248.678-.248 1.06v.87c0 .5.09.944.268 1.302s.436.632.76.82a2.26 2.26 0 0 0 1.138.278 2.38 2.38 0 0 0 .771-.119c.232-.083.433-.206.602-.368s.298-.363.387-.602l1.407.254a2.55 2.55 0 0 1-.606 1.089 2.96 2.96 0 0 1-1.089.721c-.434.17-.93.253-1.487.253zm4.926-.154v-7.636h1.437v1.213h.08c.14-.41.385-.734.736-.97a2.11 2.11 0 0 1 1.203-.358l.328.01.304.025v1.422a2.61 2.61 0 0 0-.318-.055 3.07 3.07 0 0 0-.458-.035 1.94 1.94 0 0 0-.939.224c-.272.146-.488.35-.647.612s-.238.553-.238.885V259h-1.487z" class="D"/><path d="M152 254c0-6.627 5.373-12 12-12h95c6.627 0 12 5.373 12 12h0c0 6.627-5.373 12-12 12h-95c-6.627 0-12-5.373-12-12h0z" class="E"/><path d="M164.857 260.455v-9h1.244v1.06h.106c.074-.137.18-.294.32-.473s.332-.336.58-.47.573-.205.98-.205c.528 0 1 .134 1.414.4s.74.652.976 1.155.358 1.108.358 1.815-.118 1.314-.353 1.82-.56.9-.972 1.163-.882.405-1.41.405c-.397 0-.723-.067-.975-.2s-.446-.3-.588-.47-.252-.338-.33-.477h-.076v3.473h-1.274zm1.248-5.728c0 .46.067.864.2 1.21s.327.617.58.813.562.3.93.3c.38 0 .7-.1.954-.302s.45-.482.58-.83a3.28 3.28 0 0 0 .2-1.181c0-.432-.065-.82-.196-1.163s-.32-.615-.58-.814-.576-.298-.96-.298a1.53 1.53 0 0 0-.938.285c-.252.19-.444.456-.575.797s-.196.74-.196 1.193zm7.158 3.273v-6.545h1.274V258h-1.274zm.643-7.555a.81.81 0 0 1-.571-.222c-.156-.15-.234-.33-.234-.537s.078-.39.234-.537.35-.226.57-.226a.79.79 0 0 1 .567.226c.16.148.24.327.24.537s-.08.386-.24.537-.345.222-.567.222zm6.166 7.687c-.645 0-1.2-.138-1.666-.413s-.82-.67-1.074-1.172-.375-1.098-.375-1.777c0-.67.125-1.26.375-1.773s.605-.9 1.057-1.197.986-.43 1.594-.43a3.18 3.18 0 0 1 1.073.184c.347.122.658.313.934.575s.493.6.652 1.018.238.92.238 1.513v.452h-5.203v-.955h3.955a1.87 1.87 0 0 0-.205-.89c-.136-.262-.328-.468-.575-.618s-.53-.226-.86-.226c-.358 0-.67.088-.937.264a1.77 1.77 0 0 0-.614.682c-.142.278-.213.58-.213.908v.745c0 .438.077.8.23 1.117s.374.54.652.703.604.24.976.24c.24 0 .462-.035.66-.103a1.43 1.43 0 0 0 .516-.315c.145-.14.256-.31.332-.516l1.206.218c-.096.355-.27.666-.52.933s-.558.47-.933.618a3.49 3.49 0 0 1-1.274.217zm7.672-.004c-.528 0-1-.135-1.414-.405s-.736-.66-.972-1.163-.35-1.113-.35-1.82.117-1.312.353-1.815.566-.888.98-1.155a2.55 2.55 0 0 1 1.411-.401c.406 0 .733.07.98.205s.443.3.58.47.248.336.324.473h.077v-3.243h1.274V258h-1.244v-1.018h-.107a3.31 3.31 0 0 1-.332.477c-.142.18-.338.335-.588.47s-.574.2-.972.2zm.282-1.087c.366 0 .676-.096.93-.3s.448-.467.58-.813.2-.75.2-1.21c0-.454-.065-.852-.196-1.193a1.75 1.75 0 0 0-.575-.797c-.253-.2-.565-.285-.937-.285-.384 0-.704.1-.96.298s-.45.47-.58.814-.192.73-.192 1.163a3.37 3.37 0 0 0 .196 1.181c.13.35.324.626.58.83s.577.302.955.302zm5.78 3.414v-9h1.244v1.06h.107a3.45 3.45 0 0 1 .319-.473c.14-.18.333-.336.58-.47s.574-.205.98-.205c.528 0 1 .134 1.415.4s.74.652.975 1.155.358 1.108.358 1.815-.117 1.314-.353 1.82-.56.9-.972 1.163-.882.405-1.4.405c-.398 0-.723-.067-.976-.2s-.446-.3-.588-.47a3.5 3.5 0 0 1-.328-.477h-.077v3.473h-1.274zm1.248-5.728c0 .46.067.864.2 1.21s.326.617.58.813.563.3.93.3c.38 0 .7-.1.955-.302s.45-.482.58-.83a3.28 3.28 0 0 0 .201-1.181c0-.432-.066-.82-.197-1.163s-.32-.615-.58-.814-.575-.298-.96-.298c-.37 0-.682.095-.937.285s-.445.456-.576.797-.196.74-.196 1.193zm7.158 3.273v-6.545h1.274V258h-1.274zm.643-7.555a.81.81 0 0 1-.571-.222c-.156-.15-.234-.33-.234-.537s.078-.39.234-.537.35-.226.57-.226a.79.79 0 0 1 .567.226c.16.148.24.327.24.537s-.08.386-.24.537-.345.222-.567.222zm3.345 10v-9h1.245v1.06h.106c.074-.137.18-.294.32-.473s.332-.336.58-.47.574-.205.98-.205c.53 0 1 .134 1.415.4s.74.652.976 1.155.358 1.108.358 1.815-.118 1.314-.354 1.82-.56.9-.97 1.163-.882.405-1.41.405c-.398 0-.723-.067-.976-.2s-.446-.3-.588-.47-.25-.338-.328-.477h-.077v3.473H206.2zm1.25-5.728c0 .46.067.864.2 1.21s.327.617.58.813.562.3.93.3c.38 0 .7-.1.954-.302s.45-.482.58-.83.2-.743.2-1.18c0-.432-.065-.82-.196-1.163s-.32-.615-.58-.814-.575-.298-.958-.298c-.37 0-.682.095-.938.285s-.444.456-.575.797-.196.74-.196 1.193zm9.98 3.405c-.645 0-1.2-.138-1.667-.413a2.8 2.8 0 0 1-1.073-1.172c-.25-.506-.376-1.098-.376-1.777 0-.67.126-1.26.376-1.773a2.91 2.91 0 0 1 1.056-1.197c.455-.287.986-.43 1.594-.43a3.19 3.19 0 0 1 1.074.184 2.58 2.58 0 0 1 .933.575c.276.26.493.6.652 1.018s.24.92.24 1.513v.452h-5.203v-.955h3.954c0-.335-.068-.632-.204-.9a1.54 1.54 0 0 0-.576-.618c-.244-.15-.53-.226-.86-.226-.358 0-.67.088-.938.264s-.47.4-.614.682-.213.58-.213.908v.745c0 .438.077.8.23 1.117a1.67 1.67 0 0 0 .652.703c.28.16.604.24.976.24.242 0 .462-.035.66-.103s.37-.176.515-.315a1.37 1.37 0 0 0 .333-.516l1.206.218a2.19 2.19 0 0 1-.52.933c-.247.264-.558.47-.933.618a3.49 3.49 0 0 1-1.274.217zm5.222-.132v-6.545h1.23v1.04h.068a1.59 1.59 0 0 1 .631-.831 1.81 1.81 0 0 1 1.031-.306l.28.008.26.02v1.22c-.05-.014-.142-.03-.272-.047s-.262-.03-.392-.03a1.66 1.66 0 0 0-.806.192 1.43 1.43 0 0 0-.554.524c-.136.222-.204.475-.204.76V258h-1.274zm5.694.08c-.232 0-.433-.082-.6-.247s-.252-.37-.252-.605.084-.432.252-.597.368-.25.6-.25.434.083.6.25.252.364.252.597a.81.81 0 0 1-.12.43.88.88 0 0 1-.306.307.81.81 0 0 1-.427.115zm6.317.05c-.634 0-1.18-.143-1.637-.43a2.85 2.85 0 0 1-1.048-1.198c-.244-.508-.367-1.09-.367-1.747 0-.665.125-1.25.375-1.76s.603-.9 1.057-1.197 1-.43 1.607-.43c.497 0 .94.093 1.33.277s.703.438.942.767a2.31 2.31 0 0 1 .43 1.155h-1.24a1.48 1.48 0 0 0-.468-.792c-.242-.222-.566-.333-.972-.333-.355 0-.666.094-.933.28s-.47.45-.618.793-.222.744-.222 1.2c0 .478.073.89.218 1.236s.35.615.613.805.58.286.942.286c.242 0 .46-.044.656-.132a1.34 1.34 0 0 0 .499-.388c.136-.168.23-.37.285-.605h1.24c-.045.423-.183.8-.413 1.133s-.538.594-.925.785-.833.285-1.35.285zm7.808 0c-.614 0-1.15-.14-1.606-.422s-.813-.674-1.066-1.18-.38-1.097-.38-1.773.126-1.273.38-1.78.608-.904 1.066-1.185.992-.422 1.606-.422 1.15.14 1.607.422.812.676 1.065 1.185.38 1.102.38 1.78-.126 1.267-.38 1.773-.608.9-1.065 1.18-.993.422-1.607.422zm.004-1.07c.398 0 .728-.105.99-.315a1.85 1.85 0 0 0 .58-.839c.127-.35.19-.735.19-1.155a3.35 3.35 0 0 0-.191-1.151c-.125-.352-.32-.635-.58-.848s-.59-.32-.99-.32-.733.106-.997.32a1.91 1.91 0 0 0-.584.848c-.125.35-.187.733-.187 1.15s.062.805.187 1.155a1.88 1.88 0 0 0 .584.839c.264.2.597.315.997.315zm5.47.938v-6.545h1.223v1.065h.08a1.7 1.7 0 0 1 .669-.844c.3-.204.68-.307 1.113-.307.437 0 .804.103 1.1.307s.52.486.66.844h.068c.156-.35.405-.628.746-.835s.747-.316 1.218-.316c.594 0 1.078.186 1.453.56s.567.933.567 1.683V258h-1.274v-4.27c0-.443-.12-.764-.362-.963s-.53-.298-.865-.298c-.415 0-.737.128-.968.383s-.345.578-.345.976V258h-1.27v-4.35c0-.355-.1-.64-.332-.856s-.5-.324-.865-.324c-.242 0-.465.064-.67.192a1.4 1.4 0 0 0-.49.524c-.122.224-.183.484-.183.78V258h-1.275z" class="C"/><path d="M420 254c0-6.627 5.373-12 12-12h76c6.627 0 12 5.373 12 12h0c0 6.627-5.373 12-12 12h-76c-6.627 0-12-5.373-12-12h0z" class="E"/><path d="M434.276 249.273V258h-1.317v-8.727h1.317zm4.09 4.84V258h-1.274v-6.545h1.223v1.065h.08c.15-.347.386-.625.707-.835s.732-.316 1.223-.316c.446 0 .837.094 1.172.282s.595.46.78.826.277.82.277 1.36V258h-1.274v-4c0-.474-.124-.845-.37-1.112s-.587-.405-1.018-.405c-.296 0-.56.064-.79.192s-.407.315-.54.562-.196.54-.196.887zm11.074 6.34v-9h1.244v1.06h.106c.074-.137.18-.294.32-.473s.332-.336.58-.47.573-.205.98-.205c.528 0 1 .134 1.414.4s.74.652.976 1.155.358 1.108.358 1.815-.118 1.314-.353 1.82-.56.9-.972 1.163-.882.405-1.41.405c-.397 0-.723-.067-.975-.2s-.446-.3-.588-.47-.252-.338-.33-.477h-.076v3.473h-1.274zm1.248-5.728c0 .46.067.864.2 1.21s.327.617.58.813.562.3.93.3c.38 0 .7-.1.954-.302s.45-.482.58-.83a3.28 3.28 0 0 0 .2-1.181c0-.432-.065-.82-.196-1.163s-.32-.615-.58-.814-.576-.298-.96-.298a1.53 1.53 0 0 0-.938.285c-.252.19-.444.456-.575.797s-.196.74-.196 1.193zm7.158 3.273v-6.545h1.23v1.04h.07a1.58 1.58 0 0 1 .63-.831 1.81 1.81 0 0 1 1.031-.306l.282.008.26.02v1.22a2.3 2.3 0 0 0-.273-.047c-.13-.02-.26-.03-.392-.03-.3 0-.57.064-.806.192a1.43 1.43 0 0 0-.553.524c-.137.222-.205.475-.205.76V258h-1.274zm8.128.132c-.614 0-1.15-.14-1.607-.422s-.812-.674-1.065-1.18-.38-1.097-.38-1.773.126-1.273.38-1.78.608-.904 1.065-1.185.993-.422 1.607-.422 1.15.14 1.607.422.812.676 1.065 1.185.38 1.102.38 1.78-.126 1.267-.38 1.773-.608.9-1.065 1.18-.993.422-1.607.422zm.004-1.07c.398 0 .728-.105.99-.315s.454-.5.58-.84a3.34 3.34 0 0 0 .192-1.155c0-.418-.064-.8-.192-1.15s-.318-.635-.58-.848-.59-.32-.99-.32-.733.106-.997.32a1.91 1.91 0 0 0-.584.848c-.125.35-.187.733-.187 1.15s.062.805.187 1.155a1.88 1.88 0 0 0 .584.839c.264.2.597.315.997.315zm8.214 3.516c-.52 0-.968-.068-1.343-.204s-.676-.317-.912-.542a2.27 2.27 0 0 1-.528-.724l1.095-.452c.077.12.18.25.307.388s.307.26.528.358.513.15.865.15c.483 0 .883-.116 1.198-.35s.473-.603.473-1.108v-1.287h-.08c-.077.14-.188.294-.332.464s-.338.318-.588.443-.576.188-.976.188c-.517 0-.983-.12-1.398-.362s-.74-.604-.98-1.078-.358-1.064-.358-1.76.118-1.293.354-1.8.565-.878.98-1.142.885-.4 1.4-.4c.406 0 .735.07.985.205s.444.3.583.47.252.336.328.473h.094v-1.06h1.25v6.7c0 .557-.13 1.014-.392 1.372s-.615.628-1.06.8-.943.26-1.5.26zm-.013-3.733c.366 0 .676-.085.93-.256s.45-.42.58-.74.2-.712.2-1.163c0-.44-.066-.828-.196-1.164s-.323-.596-.576-.784-.565-.285-.937-.285c-.384 0-.703.1-.96.298a1.79 1.79 0 0 0-.579.801c-.128.338-.192.716-.192 1.134 0 .43.065.805.196 1.13a1.67 1.67 0 0 0 .579.758c.26.182.577.273.955.273zm5.675 1.155v-6.545h1.23v1.04h.068a1.59 1.59 0 0 1 .631-.831 1.81 1.81 0 0 1 1.031-.306l.282.008.26.02v1.22c-.05-.014-.142-.03-.272-.047s-.262-.03-.392-.03c-.3 0-.57.064-.806.192a1.43 1.43 0 0 0-.554.524c-.136.222-.204.475-.204.76V258h-1.274zm8.192.132c-.645 0-1.2-.138-1.666-.413a2.8 2.8 0 0 1-1.074-1.172c-.25-.506-.375-1.098-.375-1.777 0-.67.125-1.26.375-1.773s.605-.9 1.057-1.197.985-.43 1.593-.43c.37 0 .728.06 1.074.184a2.58 2.58 0 0 1 .933.575c.276.26.493.6.652 1.018s.24.92.24 1.513v.452h-5.203v-.955h3.954c0-.335-.068-.632-.204-.9s-.328-.468-.575-.618-.532-.226-.86-.226c-.358 0-.67.088-.938.264s-.468.4-.613.682-.213.58-.213.908v.745c0 .438.076.8.23 1.117s.373.54.652.703.603.24.976.24a2.03 2.03 0 0 0 .66-.103 1.43 1.43 0 0 0 .516-.315c.145-.14.255-.31.332-.516l1.206.218a2.19 2.19 0 0 1-.52.933c-.247.264-.558.47-.933.618a3.49 3.49 0 0 1-1.274.217zm10.127-5.08l-1.155.204a1.39 1.39 0 0 0-.23-.422 1.15 1.15 0 0 0-.418-.328c-.176-.085-.396-.128-.66-.128-.36 0-.66.08-.903.243s-.362.365-.362.618a.65.65 0 0 0 .243.528c.162.134.423.243.784.33l1.04.238c.602.14 1.05.354 1.346.644s.443.666.443 1.13a1.71 1.71 0 0 1-.341 1.048c-.224.304-.538.543-.94.716s-.865.26-1.394.26c-.733 0-1.33-.156-1.794-.47s-.747-.762-.852-1.342l1.23-.187c.077.32.235.563.473.728s.55.243.934.243c.417 0 .75-.087 1-.26s.375-.4.375-.643a.67.67 0 0 0-.23-.516c-.15-.14-.382-.244-.695-.315l-1.108-.243c-.6-.14-1.062-.36-1.355-.665s-.434-.69-.434-1.155a1.65 1.65 0 0 1 .324-1.014c.215-.3.514-.516.894-.678s.817-.247 1.31-.247c.707 0 1.264.154 1.67.46s.675.71.806 1.223zm7.433 0l-1.155.204c-.048-.148-.125-.288-.23-.422s-.24-.243-.417-.328-.397-.128-.66-.128c-.36 0-.662.08-.903.243s-.363.365-.363.618a.65.65 0 0 0 .243.528c.162.134.424.243.784.33l1.04.238c.602.14 1.05.354 1.347.644s.443.666.443 1.13c0 .392-.114.74-.34 1.048s-.538.543-.942.716-.865.26-1.393.26c-.733 0-1.33-.156-1.794-.47s-.747-.762-.852-1.342l1.23-.187c.077.32.234.563.473.728s.55.243.933.243c.418 0 .752-.087 1.002-.26s.375-.4.375-.643a.67.67 0 0 0-.23-.516c-.15-.14-.383-.244-.695-.315l-1.108-.243c-.61-.14-1.062-.36-1.355-.665s-.435-.69-.435-1.155a1.65 1.65 0 0 1 .324-1.014c.216-.3.514-.516.895-.678s.817-.247 1.308-.247c.708 0 1.264.154 1.67.46a2.14 2.14 0 0 1 .805 1.223z" class="C"/><path stroke="#f9f9fb" d="M40 289.5h592"/><path d="M307.634 320.818V331H306.4v-8.9h-.06l-2.486 1.65v-1.252l2.546-1.7h1.233zM310.562 331v-.895l3.36-3.68.974-1.123c.255-.322.444-.624.567-.905a2.19 2.19 0 0 0 .189-.895c0-.358-.086-.668-.26-.93a1.67 1.67 0 0 0-.696-.606c-.295-.143-.626-.214-.994-.214-.4 0-.733.08-1.024.243s-.512.383-.67.672-.234.626-.234 1.014H310.6c0-.597.137-1.12.412-1.57s.65-.802 1.124-1.054 1.012-.378 1.606-.378 1.125.126 1.586.378.822.6 1.083 1.02a2.69 2.69 0 0 1 .393 1.427c0 .374-.068.74-.204 1.1s-.364.75-.696 1.188-.784.964-1.367 1.6l-2.287 2.446v.08h4.733V331h-6.423zm16.5-10.182h1.233v7.28c0 .65-.12 1.2-.358 1.655a2.43 2.43 0 0 1-1.01 1.034c-.434.236-.946.353-1.536.353-.557 0-1.052-.1-1.486-.303s-.776-.497-1.025-.875-.372-.827-.372-1.347h1.213a1.33 1.33 0 0 0 .213.755 1.47 1.47 0 0 0 .597.497 1.98 1.98 0 0 0 .86.18c.355 0 .656-.074.905-.223s.437-.368.567-.657.2-.647.2-1.068v-7.28zm8.357 7.06v-4.514h1.173V331H335.4v-1.293h-.08c-.18.388-.457.718-.835 1s-.855.402-1.432.402c-.477 0-.9-.104-1.273-.313s-.662-.53-.875-.954-.318-.966-.318-1.616v-4.852h1.174v4.772c0 .557.155 1 .467 1.333s.716.497 1.203.497a2 2 0 0 0 .89-.224 1.95 1.95 0 0 0 .766-.686c.206-.308.313-.7.313-1.178zm4.495-7.06V331h-1.173v-10.182h1.173zM345.972 331v-.895l3.36-3.68.974-1.123c.255-.322.444-.624.567-.905a2.19 2.19 0 0 0 .189-.895c0-.358-.086-.668-.26-.93a1.67 1.67 0 0 0-.696-.606c-.295-.143-.626-.214-.994-.214-.4 0-.732.08-1.024.243s-.512.383-.67.672-.234.626-.234 1.014h-1.173c0-.597.137-1.12.412-1.57s.65-.802 1.124-1.054 1.012-.378 1.606-.378 1.125.126 1.586.378.822.6 1.084 1.02a2.68 2.68 0 0 1 .392 1.427c0 .374-.068.74-.204 1.1s-.364.75-.696 1.188-.783.964-1.367 1.6l-2.287 2.446v.08h4.733V331h-6.423zm11.798.14c-.75 0-1.388-.204-1.915-.6s-.93-1.006-1.208-1.785-.417-1.727-.417-2.834c0-1.1.14-2.04.417-2.82s.686-1.38 1.213-1.8 1.167-.62 1.9-.62 1.377.207 1.904.62.934 1.008 1.213 1.8.422 1.72.422 2.82c0 1.107-.14 2.052-.417 2.834s-.68 1.374-1.208 1.785-1.165.6-1.914.6zm0-1.094c.742 0 1.32-.358 1.73-1.073s.616-1.737.616-3.063c0-.882-.094-1.632-.283-2.252s-.454-1.092-.806-1.417a1.78 1.78 0 0 0-1.257-.487c-.736 0-1.3.363-1.726 1.1s-.62 1.745-.62 3.067c0 .882.093 1.63.278 2.247s.453 1.086.8 1.407.774.482 1.268.482zm5.43.955v-.895l3.36-3.68.975-1.123c.255-.322.444-.624.566-.905a2.19 2.19 0 0 0 .189-.895c0-.358-.086-.668-.258-.93a1.67 1.67 0 0 0-.696-.606 2.25 2.25 0 0 0-.994-.214c-.392 0-.733.08-1.025.243a1.68 1.68 0 0 0-.671.672c-.156.288-.233.626-.233 1.014h-1.174c0-.597.138-1.12.413-1.57s.65-.802 1.124-1.054 1.012-.378 1.605-.378 1.126.126 1.586.378.822.6 1.084 1.02.393.903.393 1.427c0 .374-.068.74-.204 1.1s-.365.75-.696 1.188-.784.964-1.367 1.6l-2.287 2.446v.08h4.733V331H363.2zm11.797.14c-.75 0-1.387-.204-1.914-.6s-.93-1.006-1.208-1.785-.418-1.727-.418-2.834c0-1.1.14-2.04.418-2.82s.686-1.38 1.213-1.8 1.167-.62 1.9-.62 1.377.207 1.904.62.935 1.008 1.213 1.8.423 1.72.423 2.82c0 1.107-.14 2.052-.418 2.834s-.68 1.374-1.208 1.785-1.165.6-1.914.6zm0-1.094c.743 0 1.32-.358 1.73-1.073s.617-1.737.617-3.063c0-.882-.095-1.632-.284-2.252s-.454-1.092-.805-1.417a1.78 1.78 0 0 0-1.258-.487c-.736 0-1.3.363-1.725 1.1s-.62 1.745-.62 3.067c0 .882.092 1.63.278 2.247s.452 1.086.8 1.407a1.81 1.81 0 0 0 1.268.482zm175.818-1.135v-1.014l4.475-7.08h.736v1.57h-.498l-3.38 5.35v.08h6.025v1.094h-7.358zm4.793 2.088v-10.182h1.173V331h-1.173zm7.75.14c-.75 0-1.387-.204-1.914-.6s-.93-1.006-1.208-1.785-.417-1.727-.417-2.834c0-1.1.14-2.04.417-2.82s.686-1.38 1.213-1.8 1.167-.62 1.9-.62 1.378.207 1.905.62.934 1.008 1.213 1.8.422 1.72.422 2.82c0 1.107-.14 2.052-.417 2.834s-.682 1.374-1.2 1.785-1.165.6-1.914.6zm0-1.094c.743 0 1.32-.358 1.73-1.073s.616-1.737.616-3.063c0-.882-.094-1.632-.283-2.252s-.454-1.092-.806-1.417-.767-.487-1.258-.487c-.735 0-1.3.363-1.725 1.1s-.62 1.745-.62 3.067c0 .882.093 1.63.278 2.247s.453 1.086.8 1.407.774.482 1.267.482zm9.387.955v-7.636h1.133v1.153h.08c.14-.378.4-.684.756-.92a2.22 2.22 0 0 1 1.232-.353l.324.005.293.015v1.193c-.04-.01-.13-.024-.273-.044s-.287-.035-.443-.035c-.37 0-.703.078-.994.234a1.75 1.75 0 0 0-.686.636c-.166.268-.25.575-.25.92V331h-1.173zm5.2 0v-7.636h1.173V331h-1.173zm.596-8.9a.83.83 0 0 1-.591-.234.75.75 0 0 1-.244-.562.74.74 0 0 1 .244-.56.83.83 0 0 1 .591-.234c.23 0 .425.078.587.234a.74.74 0 0 1 .249.561.74.74 0 0 1-.25.562c-.167.156-.358.234-.587.234zm8.135 2.983l-1.054.298c-.066-.176-.164-.346-.293-.512a1.43 1.43 0 0 0-.517-.418c-.22-.1-.5-.164-.84-.164-.468 0-.857.108-1.17.324s-.462.482-.462.8c0 .292.106.522.318.7s.544.3.994.423l1.134.278c.683.166 1.2.42 1.526.76s.502.774.502 1.307c0 .438-.126.83-.378 1.173a2.54 2.54 0 0 1-1.044.816c-.448.2-.967.298-1.56.298-.78 0-1.423-.17-1.934-.507s-.833-.832-.97-1.482l1.114-.278c.106.4.306.72.6.925s.688.308 1.168.308c.547 0 .982-.116 1.303-.348s.487-.517.487-.845a.89.89 0 0 0-.278-.666c-.186-.183-.47-.32-.855-.408l-1.273-.298c-.7-.166-1.213-.423-1.54-.77s-.487-.8-.487-1.317a1.89 1.89 0 0 1 .363-1.144 2.47 2.47 0 0 1 .999-.78c.424-.2.905-.284 1.442-.284.755 0 1.35.166 1.78.497s.743.77.925 1.313zm3 3.142l-.02-1.452h.24l3.34-3.4h1.452l-3.56 3.6h-.1l-1.353 1.253zM588.6 331v-10.182h1.174V331H588.6zm4.853 0l-2.983-3.778.835-.816 3.64 4.594h-1.5zm8.172-5.926l-1.054.298c-.066-.176-.164-.346-.293-.512a1.5 1.5 0 0 0-.518-.418c-.218-.1-.498-.164-.84-.164-.467 0-.857.108-1.168.324s-.462.482-.462.8c0 .292.106.522.318.7s.543.3.994.423l1.134.278c.682.166 1.2.42 1.526.76s.502.774.502 1.307c0 .438-.126.83-.378 1.173a2.54 2.54 0 0 1-1.044.816c-.448.2-.968.298-1.56.298-.78 0-1.423-.17-1.934-.507s-.833-.832-.97-1.482l1.113-.278c.106.4.307.72.602.925s.688.308 1.168.308c.547 0 .98-.116 1.303-.348s.487-.517.487-.845a.89.89 0 0 0-.278-.666c-.186-.183-.47-.32-.856-.408l-1.272-.298c-.7-.166-1.213-.423-1.54-.77s-.488-.8-.488-1.317a1.89 1.89 0 0 1 .363-1.144c.245-.33.58-.6 1-.78s.904-.284 1.44-.284c.756 0 1.35.166 1.78.497a2.68 2.68 0 0 1 .925 1.313z" class="D"/><rect x="42.5" y="316.5" width="19" height="19" rx="5.5" class="B F"/><path d="M77.12 331v-10.182h1.536v4.425h5.076v-4.425h1.54V331h-1.54v-4.44h-5.076V331H77.12zm13.488.154c-.716 0-1.34-.164-1.874-.492s-.948-.787-1.243-1.377-.442-1.28-.442-2.068.148-1.485.442-2.08.71-1.053 1.243-1.382 1.158-.492 1.874-.492 1.34.164 1.874.492.948.79 1.243 1.382.443 1.286.443 2.08-.148 1.478-.443 2.068-.71 1.05-1.243 1.377-1.158.492-1.874.492zm.005-1.248c.464 0 .848-.122 1.153-.368s.53-.57.676-.98.224-.857.224-1.347-.075-.935-.224-1.343-.37-.74-.676-.99-.69-.373-1.153-.373-.855.124-1.163.373-.532.578-.68.99-.22.855-.22 1.343.073.94.22 1.347.376.734.68.98.696.368 1.163.368zm8.43 1.248c-.716 0-1.34-.164-1.874-.492s-.948-.787-1.243-1.377-.442-1.28-.442-2.068.148-1.485.442-2.08.71-1.053 1.243-1.382 1.158-.492 1.874-.492 1.34.164 1.874.492.948.79 1.243 1.382.443 1.286.443 2.08-.148 1.478-.443 2.068-.71 1.05-1.243 1.377-1.158.492-1.874.492zm.005-1.248c.464 0 .848-.122 1.153-.368s.53-.57.677-.98a3.9 3.9 0 0 0 .223-1.347c0-.488-.074-.935-.223-1.343a2.19 2.19 0 0 0-.677-.989c-.305-.25-.69-.373-1.153-.373s-.855.124-1.163.373-.532.578-.68.99-.22.855-.22 1.343.073.94.22 1.347.376.734.68.98.696.368 1.163.368zm6.7-9.088V331h-1.487v-10.182h1.487zm2 10.182v-7.636h1.487V331h-1.487zm.75-8.815c-.258 0-.48-.086-.666-.258s-.274-.385-.274-.627a.83.83 0 0 1 .274-.626c.185-.176.408-.263.666-.263s.48.087.66.263a.82.82 0 0 1 .279.626c0 .242-.093.45-.28.627s-.402.258-.66.258z" class="D"/><path d="M119 326c0-6.627 5.373-12 12-12h65c6.627 0 12 5.373 12 12h0c0 6.627-5.373 12-12 12h-65c-6.627 0-12-5.373-12-12h0z" class="E"/><path d="M133.13 326.114V330h-1.274v-8.727h1.257v3.247h.08a1.88 1.88 0 0 1 .703-.84c.315-.207.727-.31 1.236-.31.448 0 .84.093 1.176.277a1.88 1.88 0 0 1 .784.827c.187.364.28.818.28 1.364V330H136.1v-4c0-.48-.124-.852-.37-1.116s-.59-.4-1.03-.4c-.3 0-.57.064-.8.192a1.38 1.38 0 0 0-.558.562c-.134.245-.2.54-.2.887zm9.7 4.018c-.613 0-1.15-.14-1.606-.422a2.83 2.83 0 0 1-1.065-1.18c-.253-.506-.38-1.097-.38-1.773s.127-1.273.38-1.78.607-.904 1.065-1.185.993-.422 1.606-.422 1.15.14 1.607.422.812.676 1.065 1.185.38 1.102.38 1.78-.127 1.267-.38 1.773-.608.9-1.065 1.18-.993.422-1.607.422zm.005-1.07c.397 0 .727-.105.988-.315s.455-.5.58-.84a3.34 3.34 0 0 0 .192-1.155c0-.418-.064-.8-.192-1.15s-.318-.635-.58-.848-.59-.32-.988-.32-.733.106-.998.32-.455.496-.583.848-.188.733-.188 1.15.063.805.188 1.155a1.88 1.88 0 0 0 .583.839c.265.2.597.315.998.315zm8.226 1.07c-.614 0-1.15-.14-1.607-.422s-.812-.674-1.065-1.18-.38-1.097-.38-1.773.126-1.273.38-1.78.608-.904 1.065-1.185.993-.422 1.607-.422 1.15.14 1.606.422.813.676 1.066 1.185.38 1.102.38 1.78-.126 1.267-.38 1.773-.608.9-1.066 1.18-.993.422-1.606.422zm.004-1.07c.398 0 .727-.105.99-.315s.454-.5.58-.84a3.34 3.34 0 0 0 .192-1.155c0-.418-.064-.8-.192-1.15s-.318-.635-.58-.848-.59-.32-.99-.32-.733.106-.997.32a1.91 1.91 0 0 0-.584.848c-.125.35-.187.733-.187 1.15s.062.805.187 1.155a1.88 1.88 0 0 0 .584.839c.264.2.597.315.997.315zm6.743-7.79V330h-1.274v-8.727h1.274zm2.715 8.727v-6.545h1.274V330h-1.274zm.643-7.555a.81.81 0 0 1-.571-.222c-.156-.15-.234-.33-.234-.537s.078-.39.234-.537.35-.226.57-.226a.79.79 0 0 1 .567.226c.16.148.238.327.238.537s-.08.386-.238.537-.345.222-.567.222zm4.184 7.636c-.233 0-.433-.082-.6-.247a.83.83 0 0 1-.251-.605.81.81 0 0 1 .251-.597.82.82 0 0 1 .601-.251c.233 0 .434.083.6.25s.252.364.252.597a.81.81 0 0 1-.12.43c-.076.128-.18.23-.307.307s-.27.115-.426.115zm6.316.05c-.633 0-1.18-.143-1.636-.43s-.804-.69-1.048-1.198-.367-1.09-.367-1.747c0-.665.125-1.25.375-1.76a2.87 2.87 0 0 1 1.057-1.197c.455-.287 1-.43 1.607-.43.497 0 .94.093 1.33.277s.703.438.942.767a2.32 2.32 0 0 1 .43 1.155h-1.24c-.068-.307-.224-.57-.47-.792s-.565-.333-.97-.333c-.355 0-.666.094-.933.28s-.47.45-.618.793-.222.744-.222 1.2c0 .478.073.89.217 1.236s.35.615.614.805.58.286.942.286c.24 0 .46-.044.656-.132a1.34 1.34 0 0 0 .499-.388c.136-.168.23-.37.285-.605h1.24c-.045.423-.183.8-.413 1.133s-.538.594-.925.785-.834.285-1.35.285zm7.81 0c-.614 0-1.15-.14-1.607-.422s-.812-.674-1.065-1.18-.38-1.097-.38-1.773.126-1.273.38-1.78.608-.904 1.065-1.185.993-.422 1.607-.422 1.15.14 1.606.422.813.676 1.066 1.185.38 1.102.38 1.78-.126 1.267-.38 1.773-.608.9-1.066 1.18-.992.422-1.606.422zm.004-1.07c.398 0 .727-.105.99-.315s.454-.5.58-.84a3.34 3.34 0 0 0 .192-1.155c0-.418-.064-.8-.192-1.15s-.318-.635-.58-.848-.59-.32-.99-.32-.733.106-.997.32a1.91 1.91 0 0 0-.584.848c-.125.35-.187.733-.187 1.15s.062.805.187 1.155a1.88 1.88 0 0 0 .584.839c.264.2.597.315.997.315zm5.47.938v-6.545h1.223v1.065h.08a1.7 1.7 0 0 1 .669-.844c.3-.204.68-.307 1.113-.307.437 0 .803.103 1.1.307s.518.486.66.844h.07c.156-.35.404-.628.745-.835s.748-.316 1.22-.316c.594 0 1.078.186 1.453.56s.567.933.567 1.683V330h-1.274v-4.27c0-.443-.12-.764-.362-.963s-.53-.298-.865-.298c-.415 0-.738.128-.968.383s-.345.578-.345.976V330h-1.27v-4.35c0-.355-.11-.64-.332-.856s-.5-.324-.865-.324c-.242 0-.465.064-.67.192a1.4 1.4 0 0 0-.49.524c-.122.224-.184.484-.184.78V330h-1.274z" class="C"/><path d="M420 326c0-6.627 5.373-12 12-12h64c6.627 0 12 5.373 12 12h0c0 6.627-5.373 12-12 12h-64c-6.627 0-12-5.373-12-12h0z" fill="#f4fbf7"/><path d="M440.207 324.11h-1.33c-.05-.284-.146-.534-.286-.75s-.31-.4-.51-.55a2.23 2.23 0 0 0-.678-.341c-.247-.077-.5-.115-.788-.115-.503 0-.953.127-1.35.38s-.707.624-.937 1.113-.34 1.085-.34 1.79c0 .71.113 1.3.34 1.8s.544.858.94 1.108.846.375 1.343.375a2.72 2.72 0 0 0 .784-.111 2.25 2.25 0 0 0 .677-.337 2.06 2.06 0 0 0 .512-.541c.142-.216.24-.463.294-.74l1.33.004a3.54 3.54 0 0 1-.413 1.184 3.27 3.27 0 0 1-.78.929c-.315.26-.676.46-1.082.6s-.85.213-1.33.213c-.755 0-1.43-.18-2.02-.537s-1.056-.876-1.397-1.546-.507-1.47-.507-2.4.17-1.73.51-2.4.807-1.184 1.398-1.542 1.262-.542 2.015-.542c.463 0 .895.067 1.296.2a3.42 3.42 0 0 1 1.086.579c.32.253.587.563.797.93s.353.78.426 1.25zm5.23 6.02c-.614 0-1.15-.14-1.607-.422s-.812-.674-1.065-1.18-.38-1.097-.38-1.773.126-1.273.38-1.78.608-.904 1.065-1.185.993-.422 1.607-.422 1.15.14 1.606.422.813.676 1.066 1.185.38 1.102.38 1.78-.126 1.267-.38 1.773-.608.9-1.066 1.18-.993.422-1.606.422zm.004-1.07c.398 0 .727-.105.99-.315s.454-.5.58-.84a3.34 3.34 0 0 0 .192-1.155c0-.418-.064-.8-.192-1.15s-.318-.635-.58-.848-.59-.32-.99-.32-.733.106-.997.32a1.91 1.91 0 0 0-.584.848c-.125.35-.187.733-.187 1.15s.062.805.187 1.155a1.88 1.88 0 0 0 .584.839c.264.2.597.315.997.315zm5.47.938v-6.545h1.223v1.065h.08a1.7 1.7 0 0 1 .669-.844c.3-.204.68-.307 1.112-.307.438 0 .804.103 1.1.307s.518.486.66.844h.07c.156-.35.404-.628.745-.835s.747-.316 1.22-.316c.594 0 1.078.186 1.453.56s.567.933.567 1.683V330h-1.274v-4.27c0-.443-.12-.764-.362-.963s-.53-.298-.865-.298c-.415 0-.738.128-.968.383s-.345.578-.345.976V330h-1.27v-4.35c0-.355-.11-.64-.332-.856s-.5-.324-.865-.324c-.242 0-.465.064-.67.192a1.4 1.4 0 0 0-.49.524c-.123.224-.184.484-.184.78V330h-1.274zm11.606 2.455v-9h1.244v1.06h.107a3.45 3.45 0 0 1 .319-.473c.14-.18.333-.336.58-.47s.574-.205.98-.205c.528 0 1 .134 1.415.4s.74.652.975 1.155.358 1.108.358 1.815-.118 1.314-.353 1.82-.56.9-.972 1.163-.882.405-1.4.405c-.398 0-.723-.067-.976-.2s-.446-.3-.588-.47a3.5 3.5 0 0 1-.328-.477h-.077v3.473h-1.274zm1.248-5.728c0 .46.067.864.2 1.21s.326.617.58.813.563.3.93.3c.38 0 .7-.1.955-.302a1.89 1.89 0 0 0 .579-.831 3.28 3.28 0 0 0 .2-1.181c0-.432-.065-.82-.196-1.163s-.32-.615-.58-.814-.575-.298-.96-.298c-.37 0-.682.095-.937.285s-.445.456-.576.797-.196.74-.196 1.193zm8.432-5.454V330h-1.274v-8.727h1.274zm5.535 8.86c-.645 0-1.2-.138-1.666-.413s-.82-.67-1.074-1.172-.375-1.098-.375-1.777c0-.67.125-1.26.375-1.773s.605-.9 1.057-1.197.986-.43 1.594-.43a3.19 3.19 0 0 1 1.074.184c.346.122.657.313.933.575s.493.6.652 1.018.238.92.238 1.513v.452h-5.203v-.955h3.955a1.87 1.87 0 0 0-.205-.89c-.136-.262-.328-.468-.575-.618s-.53-.226-.86-.226c-.358 0-.67.088-.937.264s-.47.4-.614.682-.213.58-.213.908v.745c0 .438.077.8.23 1.117s.374.54.652.703.604.24.976.24c.242 0 .462-.035.66-.103s.37-.176.515-.315a1.37 1.37 0 0 0 .333-.516l1.206.218a2.19 2.19 0 0 1-.52.933c-.248.264-.56.47-.934.618s-.796.217-1.274.217zm8.278-6.677v1.022h-3.576v-1.022H486zm-2.617-1.57h1.274v6.192c0 .247.037.433.11.558s.17.206.286.252.248.064.387.064a1.42 1.42 0 0 0 .269-.022l.18-.034.23 1.053a2.16 2.16 0 0 1-.315.085c-.137.03-.307.048-.512.05-.335.006-.648-.054-.937-.18a1.61 1.61 0 0 1-.703-.579c-.18-.262-.27-.6-.27-.985v-6.456zm7.777 8.246c-.645 0-1.2-.138-1.666-.413a2.8 2.8 0 0 1-1.074-1.172c-.25-.506-.375-1.098-.375-1.777 0-.67.125-1.26.375-1.773s.605-.9 1.057-1.197.985-.43 1.593-.43c.37 0 .728.06 1.074.184a2.58 2.58 0 0 1 .933.575c.276.26.493.6.652 1.018s.24.92.24 1.513v.452h-5.203v-.955h3.954c0-.335-.068-.632-.204-.9s-.328-.468-.575-.618-.532-.226-.86-.226c-.358 0-.67.088-.938.264s-.468.4-.613.682-.213.58-.213.908v.745c0 .438.076.8.23 1.117s.373.54.652.703.603.24.976.24a2.03 2.03 0 0 0 .66-.103 1.43 1.43 0 0 0 .516-.315c.145-.14.255-.31.332-.516l1.206.218a2.19 2.19 0 0 1-.52.933c-.247.264-.558.47-.933.618a3.49 3.49 0 0 1-1.274.217z" fill="#20af5d"/><path stroke="#f9f9fb" d="M40 361.5h592"/><path d="M40 217.5h592" class="F"/><path d="M77.722 192.273H76.3L79.44 201h1.52l3.14-8.727h-1.423l-2.43 7.108h-.098l-2.43-7.108zm10.702 8.86c1.428 0 2.438-.703 2.727-1.768l-1.206-.218c-.23.618-.784.934-1.5.934-1.1 0-1.824-.708-1.858-1.97h4.653v-.452c0-2.365-1.415-3.3-2.898-3.3-1.824 0-3.026 1.4-3.026 3.4 0 2.033 1.185 3.362 3.115 3.362zm-1.84-3.976c.05-.93.724-1.734 1.76-1.734 1 0 1.636.733 1.64 1.734h-3.4zm8.337-.042c0-1.044.64-1.64 1.526-1.64.865 0 1.4.567 1.4 1.517v4h1.274v-4.163c0-1.62-.9-2.468-2.23-2.468-.984 0-1.628.456-1.93 1.15h-.08v-1.065h-1.223V201h1.274v-3.886zm9.348 4.014c1.193 0 1.662-.73 1.892-1.146h.106V201h1.245v-8.727h-1.274v3.243h-.077c-.23-.405-.665-1.147-1.884-1.147-1.58 0-2.744 1.25-2.744 3.37s1.146 3.388 2.736 3.388zm.28-1.087c-1.138 0-1.73-1-1.73-2.314 0-1.3.58-2.275 1.73-2.275 1.112 0 1.7.907 1.7 2.275 0 1.377-.6 2.314-1.7 2.314zm8.537 1.1c1.845 0 3.05-1.35 3.05-3.375 0-2.037-1.206-3.388-3.05-3.388s-3.05 1.35-3.05 3.388c0 2.024 1.206 3.375 3.05 3.375zm.005-1.07c-1.206 0-1.77-1.052-1.77-2.3s.563-2.318 1.77-2.318c1.197 0 1.76 1.065 1.76 2.318s-.562 2.3-1.76 2.3zm5.47.938h1.274v-3.997c0-.857.66-1.475 1.564-1.475.264 0 .562.047.664.077v-1.22a5.18 5.18 0 0 0-.54-.03c-.767 0-1.423.434-1.662 1.137h-.068v-1.04h-1.23V201zm18.14-2.413l-3.333 3.32a.53.53 0 0 1-.374.16.53.53 0 0 1-.373-.16l-3.333-3.32a.537.537 0 1 1 .76-.76l2.426 2.413v-7.773c0-.294.24-.534.534-.534s.533.24.533.534v7.786l2.427-2.413a.53.53 0 0 1 .76 0c.186.2.186.533-.027.747z" class="G"/><g clip-path="url(#B)" class="G"><path d="M306.784 201c2.66 0 4.198-1.65 4.198-4.376 0-2.715-1.54-4.35-4.108-4.35h-2.915V201h2.825zm-1.508-1.15v-6.426h1.517c1.91 0 2.893 1.142 2.893 3.2 0 2.066-.984 3.225-2.974 3.225h-1.436zm10.146 1.296c1.082 0 1.69-.55 1.934-1.04h.05V201h1.245v-4.347c0-1.904-1.5-2.284-2.54-2.284-1.185 0-2.276.478-2.702 1.67l1.198.272c.187-.464.664-.91 1.52-.91.822 0 1.244.43 1.244 1.17v.03c0 .465-.477.456-1.653.593-1.24.144-2.5.468-2.5 1.956 0 1.287.967 1.994 2.212 1.994zm.277-1.023c-.72 0-1.24-.324-1.24-.954 0-.682.606-.925 1.343-1.023.413-.056 1.393-.166 1.576-.35v.844c0 .776-.617 1.483-1.678 1.483zm8.705-5.667h-1.342v-1.57h-1.274v1.57h-.96v1.022h.96v3.865c-.005 1.19.903 1.765 1.91 1.743.405-.004.677-.08.826-.136l-.23-1.053c-.085.017-.243.056-.447.056-.413 0-.784-.137-.784-.874v-3.6h1.342v-1.022zm5.16 6.677c1.428 0 2.438-.703 2.728-1.768l-1.206-.218c-.23.618-.785.934-1.51.934-1.09 0-1.824-.708-1.858-1.97h4.654v-.452c0-2.365-1.415-3.3-2.898-3.3-1.824 0-3.026 1.4-3.026 3.4 0 2.033 1.185 3.362 3.115 3.362zm-1.84-3.976c.052-.93.725-1.734 1.76-1.734.99 0 1.637.733 1.64 1.734h-3.4zm16.144-1.103c-.264-1.02-1.06-1.684-2.476-1.684-1.48 0-2.527.78-2.527 1.94 0 .93.562 1.547 1.8 1.82l1.108.243c.63.14.924.422.924.83 0 .507-.54.903-1.376.903-.763 0-1.253-.328-1.406-.97l-1.232.187c.213 1.16 1.176 1.81 2.647 1.81 1.58 0 2.676-.84 2.676-2.024 0-.925-.588-1.496-1.8-1.773l-1.04-.238c-.72-.17-1.03-.414-1.027-.857-.004-.503.54-.86 1.266-.86.792 0 1.16.44 1.308.878l1.155-.204zm5.35 5.08c1.427 0 2.437-.703 2.727-1.768l-1.206-.218c-.23.618-.784.934-1.51.934-1.09 0-1.823-.708-1.858-1.97h4.654v-.452c0-2.365-1.415-3.3-2.898-3.3-1.824 0-3.025 1.4-3.025 3.4 0 2.033 1.184 3.362 3.115 3.362zm-1.84-3.976c.05-.93.724-1.734 1.76-1.734.988 0 1.636.733 1.64 1.734h-3.4zm8.337-.042c0-1.044.64-1.64 1.525-1.64.865 0 1.39.567 1.39 1.517v4h1.275v-4.163c0-1.62-.89-2.468-2.23-2.468-.984 0-1.628.456-1.93 1.15h-.08v-1.065h-1.223V201h1.274v-3.886zm9.953-2.66h-1.342v-1.57h-1.275v1.57h-.958v1.022h.958v3.865c-.004 1.19.904 1.765 1.91 1.743.405-.004.678-.08.827-.136l-.23-1.053c-.085.017-.243.056-.447.056-.414 0-.784-.137-.784-.874v-3.6h1.342v-1.022z"/></g><g clip-path="url(#C)" class="G"><path d="M425.72 194.565h1.27c-.04-1.397-1.275-2.412-3.047-2.412-1.752 0-3.094 1.002-3.094 2.506 0 1.215.87 1.926 2.27 2.305l1.032.282c.933.247 1.653.554 1.653 1.33 0 .853-.814 1.415-1.935 1.415-1.014 0-1.858-.452-1.934-1.402h-1.32c.085 1.58 1.308 2.557 3.264 2.557 2.05 0 3.23-1.078 3.23-2.557 0-1.572-1.402-2.182-2.5-2.454l-.852-.222c-.682-.175-1.6-.494-1.585-1.33 0-.74.677-1.29 1.75-1.29 1 0 1.713.47 1.807 1.274zm6.916-.1h-1.343v-1.57h-1.274v1.57h-.96v1.022h.96v3.865c-.004 1.19.904 1.765 1.91 1.743.405-.004.678-.08.827-.136l-.23-1.053c-.085.017-.243.056-.448.056-.413 0-.784-.137-.784-.874v-3.6h1.343v-1.022zm4.314 6.7c1.082 0 1.692-.55 1.935-1.04h.05V201h1.244v-4.347c0-1.904-1.5-2.284-2.54-2.284-1.184 0-2.275.478-2.7 1.67l1.197.272c.187-.464.665-.91 1.52-.91.823 0 1.245.43 1.245 1.17v.03c0 .465-.478.456-1.654.593-1.24.144-2.5.468-2.5 1.956 0 1.287.968 1.994 2.212 1.994zm.277-1.023c-.72 0-1.24-.324-1.24-.954 0-.682.605-.925 1.342-1.023.413-.056 1.394-.166 1.577-.35v.844c0 .776-.618 1.483-1.68 1.483zm8.705-5.667h-1.342v-1.57h-1.274v1.57h-.96v1.022h.96v3.865c-.004 1.19.903 1.765 1.91 1.743.405-.004.678-.08.827-.136l-.23-1.053c-.086.017-.243.056-.448.056-.413 0-.784-.137-.784-.874v-3.6h1.342v-1.022zm6.556 3.83c.004 1.112-.822 1.64-1.538 1.64-.788 0-1.334-.57-1.334-1.462v-4.01h-1.274v4.163c0 1.623.89 2.467 2.148 2.467.984 0 1.653-.52 1.956-1.22h.068V201h1.253v-6.545h-1.28v3.83zm8.895-2.233c-.264-1.02-1.06-1.684-2.475-1.684-1.48 0-2.527.78-2.527 1.94 0 .93.562 1.547 1.79 1.82l1.108.243c.63.14.925.422.925.83 0 .507-.54.903-1.376.903-.763 0-1.253-.328-1.407-.97l-1.23.187c.213 1.16 1.176 1.81 2.646 1.81 1.58 0 2.676-.84 2.676-2.024 0-.925-.588-1.496-1.79-1.773l-1.04-.238c-.72-.17-1.03-.414-1.027-.857-.004-.503.54-.86 1.265-.86.793 0 1.16.44 1.31.878l1.154-.204z"/></g><g clip-path="url(#D)" class="G"><path d="M550.96 201h1.317v-3.303h1.875l1.772 3.303h1.5l-1.934-3.533c1.07-.396 1.602-1.287 1.602-2.458 0-1.607-.997-2.736-3.02-2.736h-3.11V201zm1.317-4.436v-3.162h1.653c1.3 0 1.837.618 1.837 1.607s-.537 1.555-1.82 1.555h-1.67zM559.59 201h1.274v-6.545h-1.274V201zm.643-7.555c.44 0 .806-.34.806-.76s-.367-.763-.806-.763-.805.345-.805.763.362.76.805.76zm8.25 2.608c-.264-1.02-1.06-1.684-2.476-1.684-1.48 0-2.527.78-2.527 1.94 0 .93.563 1.547 1.8 1.82l1.108.243c.63.14.925.422.925.83 0 .507-.542.903-1.377.903-.763 0-1.253-.328-1.406-.97l-1.232.187c.213 1.16 1.177 1.81 2.647 1.81 1.58 0 2.676-.84 2.676-2.024 0-.925-.588-1.496-1.8-1.773l-1.04-.238c-.72-.17-1.03-.414-1.027-.857-.004-.503.542-.86 1.266-.86.793 0 1.16.44 1.308.878l1.155-.204zm2.53 4.947h1.274v-2.322l.635-.635 2.224 2.957h1.564l-2.83-3.737 2.65-2.808h-1.525l-2.608 2.77h-.11v-4.95h-1.274V201zm12.584-4.947c-.264-1.02-1.06-1.684-2.476-1.684-1.478 0-2.527.78-2.527 1.94 0 .93.563 1.547 1.8 1.82l1.108.243c.63.14.925.422.925.83 0 .507-.54.903-1.377.903-.762 0-1.252-.328-1.406-.97l-1.23.187c.213 1.16 1.176 1.81 2.646 1.81 1.58 0 2.676-.84 2.676-2.024 0-.925-.588-1.496-1.8-1.773l-1.04-.238c-.72-.17-1.032-.414-1.027-.857-.005-.503.54-.86 1.265-.86.793 0 1.16.44 1.308.878l1.155-.204z"/></g><rect x="42.5" y="187.5" width="19" height="19" rx="5.5" class="B F"/><path d="M532.72 127.565c-.046-.403-.233-.716-.563-.937s-.744-.337-1.244-.337a2.31 2.31 0 0 0-.929.171 1.42 1.42 0 0 0-.609.46c-.142.193-.213.413-.213.66 0 .208.048.387.144.537a1.29 1.29 0 0 0 .388.38 2.94 2.94 0 0 0 .52.251l.533.162.852.222a6.44 6.44 0 0 1 .857.277 3.4 3.4 0 0 1 .813.46c.25.2.452.426.606.707s.234.618.234 1a2.32 2.32 0 0 1-.384 1.317c-.252.383-.62.686-1.103.907s-1.06.333-1.743.333c-.654 0-1.22-.104-1.696-.3s-.85-.502-1.12-.882-.42-.838-.447-1.364h1.32a1.35 1.35 0 0 0 .306.788c.182.208.414.363.695.465a2.73 2.73 0 0 0 .933.15c.372 0 .703-.058.993-.175s.523-.284.7-.494.25-.462.25-.746c0-.258-.074-.47-.222-.635s-.342-.3-.592-.4-.527-.203-.84-.285l-1.032-.282c-.7-.2-1.253-.47-1.662-.84s-.6-.858-.6-1.466c0-.503.136-.942.4-1.317a2.69 2.69 0 0 1 1.108-.873c.466-.207.992-.316 1.577-.316s1.112.104 1.564.3.812.493 1.074.857.397.776.4 1.244h-1.27zm6.68 6.567c-.645 0-1.2-.138-1.666-.413s-.82-.67-1.074-1.172-.375-1.098-.375-1.777c0-.67.125-1.26.375-1.773a2.94 2.94 0 0 1 1.057-1.197c.452-.297.986-.43 1.594-.43a3.19 3.19 0 0 1 1.074.184c.346.122.657.313.933.575s.493.6.652 1.018.238.92.238 1.513v.452h-5.203v-.955h3.955a1.87 1.87 0 0 0-.205-.89c-.136-.262-.328-.468-.575-.618s-.53-.226-.86-.226c-.358 0-.67.088-.937.264a1.76 1.76 0 0 0-.614.682 1.95 1.95 0 0 0-.213.908v.745c0 .438.077.8.23 1.117s.374.54.652.703.604.24.976.24a2.03 2.03 0 0 0 .66-.103c.198-.068.37-.176.515-.315a1.37 1.37 0 0 0 .333-.516l1.205.218c-.096.355-.27.666-.52.933s-.56.47-.934.618a3.49 3.49 0 0 1-1.274.217zm6.496-4.018V134h-1.274v-6.545h1.223v1.065h.08a1.87 1.87 0 0 1 .708-.835c.323-.2.73-.316 1.223-.316.446 0 .836.094 1.17.282a1.87 1.87 0 0 1 .78.826c.185.367.277.82.277 1.36V134h-1.274v-4c0-.474-.123-.845-.37-1.112s-.586-.405-1.018-.405a1.59 1.59 0 0 0-.788.192 1.38 1.38 0 0 0-.542.562c-.13.245-.196.54-.196.887zm9.348 4.014c-.528 0-1-.135-1.414-.405s-.736-.66-.972-1.163-.35-1.113-.35-1.82.117-1.312.353-1.815.566-.888.98-1.155a2.55 2.55 0 0 1 1.411-.401c.406 0 .733.07.98.205s.443.3.58.47.248.336.324.473h.077v-3.243h1.274V134h-1.244v-1.018h-.107a3.31 3.31 0 0 1-.332.477c-.142.18-.338.335-.588.47s-.574.2-.972.2zm.282-1.087c.366 0 .676-.096.93-.3a1.86 1.86 0 0 0 .58-.813c.132-.346.2-.75.2-1.2 0-.454-.065-.852-.196-1.193a1.75 1.75 0 0 0-.575-.797c-.253-.2-.565-.285-.937-.285-.384 0-.704.1-.96.298a1.81 1.81 0 0 0-.58.814c-.13.344-.192.73-.192 1.163a3.37 3.37 0 0 0 .196 1.181c.13.35.324.626.58.83s.577.302.955.302zm11.23-2.927V134h-1.274v-6.545h1.223v1.065h.08c.15-.347.386-.625.707-.835s.73-.316 1.223-.316c.446 0 .837.094 1.172.282s.595.46.78.826.277.82.277 1.36V134h-1.275v-4c0-.474-.123-.845-.37-1.112s-.587-.405-1.02-.405c-.295 0-.558.064-.788.192a1.35 1.35 0 0 0-.54.562c-.132.247-.196.54-.196.887zm9.655 4.018c-.614 0-1.15-.14-1.607-.422s-.813-.674-1.065-1.18-.38-1.097-.38-1.773.127-1.273.38-1.78a2.85 2.85 0 0 1 1.065-1.185c.457-.28.993-.422 1.607-.422s1.15.14 1.606.422.813.676 1.065 1.185.38 1.102.38 1.78-.127 1.267-.38 1.773-.608.9-1.065 1.18-.993.422-1.606.422zm.004-1.07c.398 0 .727-.105.988-.315s.455-.5.58-.84a3.34 3.34 0 0 0 .192-1.155 3.32 3.32 0 0 0-.192-1.15c-.128-.35-.318-.635-.58-.848s-.6-.32-.988-.32-.733.106-.997.32-.456.496-.584.848-.188.733-.188 1.15.063.805.188 1.155.322.63.584.84.596.315.997.315zm6.7.938l-1.926-6.545h1.316l1.283 4.806h.064l1.287-4.806h1.317l1.278 4.785h.064l1.274-4.785h1.317L588.456 134h-1.3l-1.33-4.726h-.098L584.4 134h-1.295zm29.033-3.533l-4.15 4.166c-.134.134-.3.2-.467.2s-.333-.066-.467-.2c-.266-.266-.266-.683 0-.95l3.017-3.033h-9.733a.67.67 0 0 1-.667-.667.67.67 0 0 1 .667-.666h9.733l-3.017-3.034c-.266-.266-.266-.683 0-.95s.684-.266.95 0l4.15 4.167c.25.283.25.717-.016.967z" class="C"/><path d="M483 44a4 4 0 0 1 4-4h141a4 4 0 0 1 4 4v24a4 4 0 0 1-4 4H487a4 4 0 0 1-4-4V44z" class="B"/><path d="M503.003 51.273V60h-1.2l-4.436-6.4h-.08V60h-1.317v-8.727h1.22l4.44 6.41h.08v-6.41h1.304zm5.64 8.86c-.644 0-1.2-.138-1.666-.413s-.82-.67-1.074-1.172-.375-1.098-.375-1.777c0-.67.125-1.26.375-1.773a2.91 2.91 0 0 1 1.057-1.197c.455-.287.986-.43 1.594-.43a3.21 3.21 0 0 1 1.074.183 2.61 2.61 0 0 1 .933.575c.276.26.493.6.652 1.018s.24.92.24 1.513v.452h-5.203v-.955h3.954c0-.335-.068-.632-.204-.89s-.33-.467-.576-.618-.53-.226-.86-.226a1.66 1.66 0 0 0-.937.264c-.264.173-.47.4-.614.682a1.97 1.97 0 0 0-.213.908v.746c0 .438.077.8.23 1.117a1.67 1.67 0 0 0 .652.703c.28.16.604.24.976.24.242 0 .462-.034.66-.102s.37-.176.515-.315.256-.31.333-.516l1.206.217a2.19 2.19 0 0 1-.52.933c-.247.264-.558.47-.933.618s-.797.217-1.275.217zm6.63-.132l-1.926-6.545h1.316l1.283 4.807h.064l1.287-4.807h1.317l1.278 4.786h.064l1.274-4.786h1.317L520.624 60h-1.3l-1.33-4.726h-.098L516.567 60h-1.295zm19.352 2.455h-1.274v-3.473h-.077c-.077.14-.187.298-.332.477s-.338.335-.588.47-.574.2-.972.2c-.528 0-1-.135-1.415-.405s-.736-.66-.97-1.163-.35-1.112-.35-1.82.118-1.312.354-1.815.565-.888.98-1.155a2.55 2.55 0 0 1 1.411-.401c.406 0 .733.068.98.205s.443.3.58.47.247.337.324.473h.107v-1.06h1.244v9zm-1.253-5.727c0-.455-.065-.852-.196-1.193s-.322-.607-.575-.797-.566-.285-.938-.285c-.383 0-.703.1-.96.298a1.83 1.83 0 0 0-.579.814c-.128.344-.192.732-.192 1.163 0 .438.066.83.196 1.18s.324.626.58.83.576.303.954.303c.367 0 .676-.097.93-.3s.45-.467.58-.814.2-.75.2-1.2zm8.112.558v-3.83h1.28V60h-1.253v-1.133h-.068c-.15.35-.392.64-.725.874s-.74.345-1.23.345c-.42 0-.793-.092-1.117-.277a1.94 1.94 0 0 1-.758-.831c-.182-.367-.273-.82-.273-1.36v-4.163h1.274v4c0 .446.124.8.37 1.065s.568.396.963.396c.24 0 .476-.06.712-.18a1.5 1.5 0 0 0 .592-.541c.16-.242.237-.548.234-.92zm6.812 2.847c-.645 0-1.2-.138-1.666-.413a2.8 2.8 0 0 1-1.074-1.172c-.25-.506-.375-1.098-.375-1.777 0-.67.125-1.26.375-1.773a2.91 2.91 0 0 1 1.057-1.197c.454-.287.985-.43 1.593-.43a3.2 3.2 0 0 1 1.074.183 2.59 2.59 0 0 1 .933.575c.276.26.493.6.652 1.018s.24.92.24 1.513v.452H545.9v-.955h3.954c0-.335-.068-.632-.204-.89a1.55 1.55 0 0 0-.575-.618c-.245-.15-.532-.226-.86-.226-.358 0-.67.088-.938.264s-.468.4-.613.682a1.97 1.97 0 0 0-.213.908v.746c0 .438.076.8.23 1.117a1.66 1.66 0 0 0 .652.703 1.93 1.93 0 0 0 .976.239c.24 0 .46-.034.66-.102a1.43 1.43 0 0 0 .516-.315 1.37 1.37 0 0 0 .332-.516l1.206.217a2.19 2.19 0 0 1-.52.933c-.247.264-.558.47-.933.618s-.797.217-1.274.217zm10.127-5.08l-1.155.205c-.05-.148-.125-.288-.23-.422s-.242-.243-.418-.328-.396-.128-.66-.128c-.36 0-.66.08-.903.243s-.362.365-.362.618a.65.65 0 0 0 .243.528c.162.133.423.243.784.328l1.04.24c.602.14 1.05.354 1.346.644s.443.666.443 1.13a1.71 1.71 0 0 1-.341 1.048c-.224.304-.538.543-.94.716s-.865.26-1.394.26c-.733 0-1.33-.156-1.794-.47a1.98 1.98 0 0 1-.852-1.342l1.23-.187c.077.32.235.564.473.73s.55.243.934.243c.417 0 .75-.087 1-.26s.375-.39.375-.643a.67.67 0 0 0-.23-.516c-.15-.14-.382-.244-.695-.315l-1.108-.243c-.6-.14-1.062-.36-1.355-.665s-.434-.69-.434-1.155a1.65 1.65 0 0 1 .324-1.014c.215-.3.514-.516.894-.677s.817-.247 1.31-.247c.707 0 1.264.153 1.67.46s.675.712.806 1.223zm5.584-1.598v1.023h-3.576v-1.023h3.576zm-2.617-1.568h1.274v6.192c0 .247.037.433.11.558s.17.206.286.25a1.14 1.14 0 0 0 .387.064c.103 0 .192-.007.27-.02l.18-.034.23 1.053c-.074.028-.18.057-.315.085s-.307.048-.512.05c-.335.006-.647-.054-.937-.18s-.524-.318-.703-.58-.27-.6-.27-.984v-6.456zM566.415 60v-6.545h1.274V60h-1.274zm.644-7.555a.81.81 0 0 1-.571-.222c-.157-.15-.235-.33-.235-.537a.71.71 0 0 1 .235-.537.8.8 0 0 1 .571-.226c.22 0 .4.075.566.226s.24.327.24.537-.08.386-.24.537-.345.222-.566.222zm6.102 7.688c-.614 0-1.15-.14-1.607-.422a2.84 2.84 0 0 1-1.065-1.18c-.253-.506-.38-1.097-.38-1.773s.127-1.273.38-1.78.608-.904 1.065-1.185.993-.422 1.607-.422 1.15.14 1.606.422.813.676 1.065 1.185.38 1.102.38 1.78-.127 1.267-.38 1.773a2.84 2.84 0 0 1-1.065 1.18c-.457.28-.993.422-1.606.422zm.004-1.07c.398 0 .727-.105.988-.315s.455-.5.58-.84.192-.734.192-1.155-.064-.8-.192-1.15a1.87 1.87 0 0 0-.58-.848c-.26-.213-.6-.32-.988-.32s-.733.107-.997.32a1.9 1.9 0 0 0-.584.848c-.125.35-.188.733-.188 1.15s.063.805.188 1.155.322.63.584.84.596.315.997.315zm6.743-2.95V60h-1.274v-6.545h1.223v1.065h.08c.15-.347.386-.625.707-.835s.732-.315 1.223-.315c.446 0 .837.094 1.172.28s.595.46.78.827.277.82.277 1.36V60h-1.274v-4c0-.474-.124-.845-.37-1.112s-.587-.405-1.018-.405c-.296 0-.56.064-.79.192s-.407.315-.54.563-.196.54-.196.886zm8.172 0V60h-1.274v-6.545h1.223v1.065h.08c.15-.347.386-.625.707-.835s.732-.315 1.223-.315c.446 0 .837.094 1.172.28s.595.46.78.827.277.82.277 1.36V60h-1.274v-4c0-.474-.124-.845-.37-1.112s-.587-.405-1.02-.405c-.295 0-.558.064-.788.192s-.408.315-.54.563-.196.54-.196.886zm8.802 4.03c-.414 0-.79-.077-1.125-.23s-.6-.382-.796-.678-.3-.658-.3-1.087c0-.37.07-.673.213-.912s.334-.427.575-.567a3.02 3.02 0 0 1 .81-.315c.298-.07.602-.125.912-.162l.954-.11c.245-.03.422-.08.533-.15s.166-.18.166-.332v-.03c0-.372-.105-.66-.315-.865s-.517-.307-.93-.307c-.43 0-.767.095-1.014.286s-.414.396-.507.626l-1.198-.273c.142-.398.35-.72.622-.963a2.53 2.53 0 0 1 .951-.537 3.7 3.7 0 0 1 1.129-.17 3.99 3.99 0 0 1 .831.094c.295.06.57.17.826.332s.47.393.635.695.248.686.248 1.163V60h-1.245v-.895h-.05c-.082.165-.206.327-.37.486s-.376.29-.635.396-.568.158-.93.158zm.277-1.023c.353 0 .654-.07.904-.21s.444-.32.575-.546a1.41 1.41 0 0 0 .2-.729v-.844c-.045.045-.133.088-.264.128s-.274.07-.44.098l-.48.073-.392.05c-.247.03-.473.084-.678.158s-.363.18-.486.32-.18.318-.18.545c0 .315.117.554.35.716s.53.24.9.24zm5.65.878v-6.545h1.274V60H602.8zm.643-7.555a.81.81 0 0 1-.571-.222.72.72 0 0 1-.234-.537.71.71 0 0 1 .234-.537.8.8 0 0 1 .571-.226c.222 0 .41.075.567.226s.24.327.24.537-.08.386-.24.537-.345.222-.567.222zM606.798 60v-6.545h1.23v1.04h.07a1.58 1.58 0 0 1 .63-.831c.304-.205.648-.307 1.032-.307l.28.01.26.02v1.22c-.05-.014-.142-.03-.273-.047s-.26-.03-.392-.03c-.3 0-.57.064-.805.192a1.42 1.42 0 0 0-.554.524c-.137.222-.205.474-.205.758V60h-1.274zm8.192.132c-.645 0-1.2-.138-1.666-.413s-.82-.67-1.074-1.172-.375-1.098-.375-1.777c0-.67.125-1.26.375-1.773a2.91 2.91 0 0 1 1.057-1.197c.454-.287.986-.43 1.594-.43a3.2 3.2 0 0 1 1.073.183c.347.122.658.314.934.575s.493.6.652 1.018.238.92.238 1.513v.452h-5.203v-.955h3.955c0-.335-.068-.632-.205-.89s-.328-.467-.575-.618-.53-.226-.86-.226a1.66 1.66 0 0 0-.937.264 1.77 1.77 0 0 0-.614.682 1.97 1.97 0 0 0-.213.908v.746c0 .438.077.8.23 1.117s.374.54.652.703.604.24.976.24c.24 0 .46-.034.66-.102a1.43 1.43 0 0 0 .516-.315 1.36 1.36 0 0 0 .332-.516l1.206.217a2.18 2.18 0 0 1-.52.933c-.247.264-.558.47-.933.618s-.797.217-1.274.217z" class="C"/><rect x="483.5" y="40.5" width="148" height="31" rx="3.5" stroke="#1757c2"/><defs><clipPath id="A"><path transform="translate(92 121)" d="M0 0h250v16H0z" class="B"/></clipPath><clipPath id="B"><path transform="translate(303 188)" d="M0 0h64v18H0z" class="B"/></clipPath><clipPath id="C"><path transform="translate(420 188)" d="M0 0h43v18H0z" class="B"/></clipPath><clipPath id="D"><path transform="translate(550 188)" d="M0 0h35v18H0z" class="B"/></clipPath></defs></svg>