<svg width="672" height="400" viewBox="0 0 672 400" fill="none" xmlns="http://www.w3.org/2000/svg">
<rect width="672" height="400" fill="white"/>
<path d="M486 44C486 41.7909 487.791 40 490 40H628C630.209 40 632 41.7909 632 44V68C632 70.2091 630.209 72 628 72H490C487.791 72 486 70.2091 486 68V44Z" fill="white"/>
<path d="M506.207 54.1108H504.878C504.827 53.8267 504.732 53.5767 504.592 53.3608C504.453 53.1449 504.283 52.9616 504.081 52.8111C503.879 52.6605 503.653 52.5469 503.403 52.4702C503.156 52.3935 502.893 52.3551 502.615 52.3551C502.112 52.3551 501.662 52.4815 501.264 52.7344C500.869 52.9872 500.557 53.358 500.327 53.8466C500.099 54.3352 499.986 54.9318 499.986 55.6364C499.986 56.3466 500.099 56.946 500.327 57.4347C500.557 57.9233 500.871 58.2926 501.268 58.5426C501.666 58.7926 502.114 58.9176 502.611 58.9176C502.886 58.9176 503.148 58.8807 503.395 58.8068C503.645 58.7301 503.871 58.6179 504.072 58.4702C504.274 58.3224 504.445 58.142 504.584 57.929C504.726 57.7131 504.824 57.4659 504.878 57.1875L506.207 57.1918C506.136 57.6207 505.999 58.0156 505.794 58.3764C505.592 58.7344 505.332 59.044 505.014 59.3054C504.699 59.5639 504.338 59.7642 503.932 59.9062C503.526 60.0483 503.082 60.1193 502.602 60.1193C501.847 60.1193 501.173 59.9403 500.582 59.5824C499.991 59.2216 499.526 58.706 499.185 58.0355C498.847 57.3651 498.678 56.5653 498.678 55.6364C498.678 54.7045 498.848 53.9048 499.189 53.2372C499.53 52.5668 499.996 52.0526 500.587 51.6946C501.178 51.3338 501.849 51.1534 502.602 51.1534C503.065 51.1534 503.497 51.2202 503.898 51.3537C504.301 51.4844 504.663 51.6776 504.984 51.9332C505.305 52.1861 505.571 52.4957 505.781 52.8622C505.991 53.2259 506.134 53.642 506.207 54.1108ZM508.681 60V53.4545H509.912V54.4943H509.98C510.1 54.142 510.31 53.8651 510.611 53.6634C510.915 53.4588 511.259 53.3565 511.642 53.3565C511.722 53.3565 511.816 53.3594 511.924 53.3651C512.034 53.3707 512.121 53.3778 512.184 53.3864V54.6051C512.132 54.5909 512.042 54.5753 511.911 54.5582C511.78 54.5384 511.65 54.5284 511.519 54.5284C511.218 54.5284 510.949 54.5923 510.713 54.7202C510.48 54.8452 510.296 55.0199 510.159 55.2443C510.023 55.4659 509.955 55.7187 509.955 56.0028V60H508.681ZM516.873 60.1321C516.228 60.1321 515.673 59.9943 515.207 59.7188C514.744 59.4403 514.386 59.0497 514.133 58.5469C513.883 58.0412 513.758 57.4489 513.758 56.7699C513.758 56.0994 513.883 55.5085 514.133 54.9972C514.386 54.4858 514.738 54.0866 515.19 53.7997C515.644 53.5128 516.175 53.3693 516.783 53.3693C517.153 53.3693 517.511 53.4304 517.857 53.5526C518.204 53.6747 518.515 53.8665 518.79 54.1278C519.066 54.3892 519.283 54.7287 519.442 55.1463C519.602 55.5611 519.681 56.0653 519.681 56.6591V57.1108H514.478V56.1562H518.433C518.433 55.821 518.364 55.5241 518.228 55.2656C518.092 55.0043 517.9 54.7983 517.653 54.6477C517.408 54.4972 517.121 54.4219 516.792 54.4219C516.434 54.4219 516.121 54.5099 515.854 54.6861C515.59 54.8594 515.386 55.0866 515.241 55.3679C515.099 55.6463 515.028 55.9489 515.028 56.2756V57.0213C515.028 57.4588 515.104 57.831 515.258 58.1378C515.414 58.4446 515.631 58.679 515.91 58.8409C516.188 59 516.513 59.0795 516.886 59.0795C517.127 59.0795 517.347 59.0455 517.546 58.9773C517.745 58.9062 517.917 58.8011 518.062 58.6619C518.207 58.5227 518.317 58.3509 518.394 58.1463L519.6 58.3636C519.504 58.7187 519.33 59.0298 519.08 59.2969C518.833 59.5611 518.522 59.767 518.147 59.9148C517.775 60.0597 517.35 60.1321 516.873 60.1321ZM524 60.1449C523.585 60.1449 523.21 60.0682 522.875 59.9148C522.539 59.7585 522.274 59.5327 522.078 59.2372C521.885 58.9418 521.788 58.5795 521.788 58.1506C521.788 57.7812 521.859 57.4773 522.001 57.2386C522.143 57 522.335 56.8111 522.576 56.6719C522.818 56.5327 523.088 56.4276 523.386 56.3565C523.684 56.2855 523.988 56.2315 524.298 56.1946C524.69 56.1491 525.008 56.1122 525.252 56.0838C525.497 56.0526 525.674 56.0028 525.785 55.9347C525.896 55.8665 525.951 55.7557 525.951 55.6023V55.5724C525.951 55.2003 525.846 54.9119 525.636 54.7074C525.429 54.5028 525.119 54.4006 524.707 54.4006C524.278 54.4006 523.94 54.4957 523.693 54.6861C523.449 54.8736 523.279 55.0824 523.186 55.3125L521.988 55.0398C522.13 54.642 522.338 54.321 522.61 54.0767C522.886 53.8295 523.203 53.6506 523.561 53.5398C523.919 53.4261 524.295 53.3693 524.69 53.3693C524.951 53.3693 525.228 53.4006 525.521 53.4631C525.816 53.5227 526.092 53.6335 526.348 53.7955C526.606 53.9574 526.818 54.1889 526.983 54.4901C527.147 54.7884 527.23 55.1761 527.23 55.6534V60H525.985V59.1051H525.934C525.852 59.2699 525.728 59.4318 525.564 59.5909C525.399 59.75 525.187 59.8821 524.929 59.9872C524.67 60.0923 524.36 60.1449 524 60.1449ZM524.277 59.1222C524.629 59.1222 524.93 59.0526 525.18 58.9134C525.433 58.7741 525.625 58.5923 525.755 58.3679C525.889 58.1406 525.956 57.8977 525.956 57.6392V56.7955C525.91 56.8409 525.822 56.8835 525.691 56.9233C525.564 56.9602 525.417 56.9929 525.252 57.0213C525.088 57.0469 524.927 57.071 524.771 57.0938C524.615 57.1136 524.484 57.1307 524.379 57.1449C524.132 57.1761 523.906 57.2287 523.701 57.3026C523.5 57.3764 523.338 57.483 523.216 57.6222C523.096 57.7585 523.037 57.9403 523.037 58.1676C523.037 58.483 523.153 58.7216 523.386 58.8835C523.619 59.0426 523.916 59.1222 524.277 59.1222ZM532.982 53.4545V54.4773H529.407V53.4545H532.982ZM530.366 51.8864H531.64V58.0781C531.64 58.3253 531.677 58.5114 531.751 58.6364C531.825 58.7585 531.92 58.8423 532.036 58.8878C532.156 58.9304 532.285 58.9517 532.424 58.9517C532.526 58.9517 532.616 58.9446 532.692 58.9304C532.769 58.9162 532.829 58.9048 532.871 58.8963L533.102 59.9489C533.028 59.9773 532.923 60.0057 532.786 60.0341C532.65 60.0653 532.479 60.0824 532.275 60.0852C531.94 60.0909 531.627 60.0312 531.337 59.9062C531.048 59.7812 530.813 59.5881 530.634 59.3267C530.455 59.0653 530.366 58.7372 530.366 58.3423V51.8864ZM538.142 60.1321C537.498 60.1321 536.942 59.9943 536.476 59.7188C536.013 59.4403 535.655 59.0497 535.402 58.5469C535.152 58.0412 535.027 57.4489 535.027 56.7699C535.027 56.0994 535.152 55.5085 535.402 54.9972C535.655 54.4858 536.007 54.0866 536.459 53.7997C536.914 53.5128 537.445 53.3693 538.053 53.3693C538.422 53.3693 538.78 53.4304 539.127 53.5526C539.473 53.6747 539.784 53.8665 540.06 54.1278C540.336 54.3892 540.553 54.7287 540.712 55.1463C540.871 55.5611 540.951 56.0653 540.951 56.6591V57.1108H535.748V56.1562H539.702C539.702 55.821 539.634 55.5241 539.498 55.2656C539.361 55.0043 539.169 54.7983 538.922 54.6477C538.678 54.4972 538.391 54.4219 538.061 54.4219C537.703 54.4219 537.391 54.5099 537.124 54.6861C536.86 54.8594 536.655 55.0866 536.51 55.3679C536.368 55.6463 536.297 55.9489 536.297 56.2756V57.0213C536.297 57.4588 536.374 57.831 536.527 58.1378C536.684 58.4446 536.901 58.679 537.179 58.8409C537.458 59 537.783 59.0795 538.155 59.0795C538.397 59.0795 538.617 59.0455 538.816 58.9773C539.015 58.9062 539.186 58.8011 539.331 58.6619C539.476 58.5227 539.587 58.3509 539.664 58.1463L540.87 58.3636C540.773 58.7187 540.6 59.0298 540.35 59.2969C540.103 59.5611 539.792 59.767 539.417 59.9148C539.044 60.0597 538.62 60.1321 538.142 60.1321ZM547.54 60V53.4545H548.772V54.4943H548.84C548.959 54.142 549.169 53.8651 549.471 53.6634C549.775 53.4588 550.118 53.3565 550.502 53.3565C550.581 53.3565 550.675 53.3594 550.783 53.3651C550.894 53.3707 550.98 53.3778 551.043 53.3864V54.6051C550.992 54.5909 550.901 54.5753 550.77 54.5582C550.64 54.5384 550.509 54.5284 550.378 54.5284C550.077 54.5284 549.809 54.5923 549.573 54.7202C549.34 54.8452 549.155 55.0199 549.019 55.2443C548.882 55.4659 548.814 55.7187 548.814 56.0028V60H547.54ZM553.146 60V53.4545H554.42V60H553.146ZM553.789 52.4446C553.567 52.4446 553.377 52.3707 553.218 52.223C553.062 52.0724 552.984 51.8935 552.984 51.6861C552.984 51.4759 553.062 51.2969 553.218 51.1491C553.377 50.9986 553.567 50.9233 553.789 50.9233C554.011 50.9233 554.2 50.9986 554.356 51.1491C554.515 51.2969 554.594 51.4759 554.594 51.6861C554.594 51.8935 554.515 52.0724 554.356 52.223C554.2 52.3707 554.011 52.4446 553.789 52.4446ZM562.039 55.0526L560.884 55.2571C560.836 55.1094 560.759 54.9687 560.654 54.8352C560.551 54.7017 560.412 54.5923 560.236 54.5071C560.06 54.4219 559.84 54.3793 559.576 54.3793C559.215 54.3793 558.914 54.4602 558.672 54.6222C558.431 54.7812 558.31 54.9872 558.31 55.2401C558.31 55.4588 558.391 55.6349 558.553 55.7685C558.715 55.902 558.976 56.0114 559.337 56.0966L560.377 56.3352C560.979 56.4744 561.428 56.6889 561.723 56.9787C562.019 57.2685 562.167 57.6449 562.167 58.108C562.167 58.5 562.053 58.8494 561.826 59.1562C561.601 59.4602 561.287 59.6989 560.884 59.8722C560.483 60.0455 560.019 60.1321 559.49 60.1321C558.757 60.1321 558.159 59.9759 557.696 59.6634C557.233 59.348 556.949 58.9006 556.844 58.321L558.076 58.1335C558.152 58.4545 558.31 58.6974 558.549 58.8622C558.787 59.0241 559.098 59.1051 559.482 59.1051C559.9 59.1051 560.233 59.0185 560.483 58.8452C560.733 58.669 560.858 58.4545 560.858 58.2017C560.858 57.9972 560.782 57.8253 560.628 57.6861C560.478 57.5469 560.246 57.4418 559.934 57.3707L558.826 57.1278C558.215 56.9886 557.763 56.767 557.471 56.4631C557.181 56.1591 557.036 55.7741 557.036 55.3082C557.036 54.9219 557.144 54.5838 557.36 54.294C557.576 54.0043 557.874 53.7784 558.255 53.6165C558.635 53.4517 559.071 53.3693 559.563 53.3693C560.27 53.3693 560.827 53.5227 561.233 53.8295C561.64 54.1335 561.908 54.5412 562.039 55.0526ZM565.739 57.7798L565.731 56.2244H565.952L568.56 53.4545H570.086L567.112 56.608H566.911L565.739 57.7798ZM564.567 60V51.2727H565.842V60H564.567ZM568.701 60L566.357 56.8892L567.235 55.9986L570.265 60H568.701ZM577.842 60L575.916 53.4545H577.233L578.515 58.2614H578.579L579.866 53.4545H581.183L582.461 58.2401H582.525L583.799 53.4545H585.116L583.194 60H581.895L580.565 55.2741H580.467L579.137 60H577.842ZM589.23 60.1449C588.815 60.1449 588.44 60.0682 588.105 59.9148C587.77 59.7585 587.504 59.5327 587.308 59.2372C587.115 58.9418 587.018 58.5795 587.018 58.1506C587.018 57.7812 587.089 57.4773 587.232 57.2386C587.374 57 587.565 56.8111 587.807 56.6719C588.048 56.5327 588.318 56.4276 588.616 56.3565C588.915 56.2855 589.219 56.2315 589.528 56.1946C589.92 56.1491 590.239 56.1122 590.483 56.0838C590.727 56.0526 590.905 56.0028 591.016 55.9347C591.126 55.8665 591.182 55.7557 591.182 55.6023V55.5724C591.182 55.2003 591.077 54.9119 590.866 54.7074C590.659 54.5028 590.349 54.4006 589.938 54.4006C589.509 54.4006 589.17 54.4957 588.923 54.6861C588.679 54.8736 588.51 55.0824 588.416 55.3125L587.219 55.0398C587.361 54.642 587.568 54.321 587.841 54.0767C588.116 53.8295 588.433 53.6506 588.791 53.5398C589.149 53.4261 589.526 53.3693 589.92 53.3693C590.182 53.3693 590.459 53.4006 590.751 53.4631C591.047 53.5227 591.322 53.6335 591.578 53.7955C591.837 53.9574 592.048 54.1889 592.213 54.4901C592.378 54.7884 592.46 55.1761 592.46 55.6534V60H591.216V59.1051H591.165C591.082 59.2699 590.959 59.4318 590.794 59.5909C590.629 59.75 590.418 59.8821 590.159 59.9872C589.901 60.0923 589.591 60.1449 589.23 60.1449ZM589.507 59.1222C589.859 59.1222 590.161 59.0526 590.411 58.9134C590.663 58.7741 590.855 58.5923 590.986 58.3679C591.119 58.1406 591.186 57.8977 591.186 57.6392V56.7955C591.141 56.8409 591.053 56.8835 590.922 56.9233C590.794 56.9602 590.648 56.9929 590.483 57.0213C590.318 57.0469 590.158 57.071 590.001 57.0938C589.845 57.1136 589.714 57.1307 589.609 57.1449C589.362 57.1761 589.136 57.2287 588.932 57.3026C588.73 57.3764 588.568 57.483 588.446 57.6222C588.327 57.7585 588.267 57.9403 588.267 58.1676C588.267 58.483 588.384 58.7216 588.616 58.8835C588.849 59.0426 589.146 59.1222 589.507 59.1222ZM595.157 60V53.4545H596.431V60H595.157ZM595.801 52.4446C595.579 52.4446 595.389 52.3707 595.23 52.223C595.074 52.0724 594.995 51.8935 594.995 51.6861C594.995 51.4759 595.074 51.2969 595.23 51.1491C595.389 50.9986 595.579 50.9233 595.801 50.9233C596.022 50.9233 596.211 50.9986 596.368 51.1491C596.527 51.2969 596.606 51.4759 596.606 51.6861C596.606 51.8935 596.527 52.0724 596.368 52.223C596.211 52.3707 596.022 52.4446 595.801 52.4446ZM604.745 53.4545L602.371 60H601.008L598.63 53.4545H599.998L601.656 58.4915H601.724L603.377 53.4545H604.745ZM609.529 60.1321C608.884 60.1321 608.329 59.9943 607.863 59.7188C607.4 59.4403 607.042 59.0497 606.789 58.5469C606.539 58.0412 606.414 57.4489 606.414 56.7699C606.414 56.0994 606.539 55.5085 606.789 54.9972C607.042 54.4858 607.394 54.0866 607.846 53.7997C608.3 53.5128 608.832 53.3693 609.44 53.3693C609.809 53.3693 610.167 53.4304 610.513 53.5526C610.86 53.6747 611.171 53.8665 611.447 54.1278C611.722 54.3892 611.94 54.7287 612.099 55.1463C612.258 55.5611 612.337 56.0653 612.337 56.6591V57.1108H607.134V56.1562H611.089C611.089 55.821 611.021 55.5241 610.884 55.2656C610.748 55.0043 610.556 54.7983 610.309 54.6477C610.065 54.4972 609.778 54.4219 609.448 54.4219C609.09 54.4219 608.778 54.5099 608.511 54.6861C608.246 54.8594 608.042 55.0866 607.897 55.3679C607.755 55.6463 607.684 55.9489 607.684 56.2756V57.0213C607.684 57.4588 607.761 57.831 607.914 58.1378C608.07 58.4446 608.288 58.679 608.566 58.8409C608.844 59 609.17 59.0795 609.542 59.0795C609.783 59.0795 610.004 59.0455 610.202 58.9773C610.401 58.9062 610.573 58.8011 610.718 58.6619C610.863 58.5227 610.974 58.3509 611.05 58.1463L612.256 58.3636C612.16 58.7187 611.987 59.0298 611.737 59.2969C611.489 59.5611 611.178 59.767 610.803 59.9148C610.431 60.0597 610.006 60.1321 609.529 60.1321ZM614.751 60V53.4545H615.983V54.4943H616.051C616.17 54.142 616.38 53.8651 616.681 53.6634C616.985 53.4588 617.329 53.3565 617.713 53.3565C617.792 53.3565 617.886 53.3594 617.994 53.3651C618.105 53.3707 618.191 53.3778 618.254 53.3864V54.6051C618.203 54.5909 618.112 54.5753 617.981 54.5582C617.85 54.5384 617.72 54.5284 617.589 54.5284C617.288 54.5284 617.02 54.5923 616.784 54.7202C616.551 54.8452 616.366 55.0199 616.23 55.2443C616.093 55.4659 616.025 55.7187 616.025 56.0028V60H614.751Z" fill="#1757C2"/>
<rect x="486.5" y="40.5" width="145" height="31" rx="3.5" stroke="#1757C2"/>
<path d="M59.378 345V350.672C59.3741 351.594 58.9444 352.086 58.1788 352.086C57.4718 352.086 56.9796 351.664 56.9757 351H55.7765C55.7765 352.352 56.7921 353.109 58.1475 353.109C59.6163 353.109 60.5772 352.211 60.5811 350.672V345H59.378ZM63.9903 353.133C64.9825 353.133 65.5411 352.629 65.7638 352.18H65.8106V353H66.9513V349.016C66.9513 347.27 65.5763 346.922 64.6231 346.922C63.5372 346.922 62.5372 347.359 62.1466 348.453L63.2442 348.703C63.4161 348.277 63.8536 347.867 64.6388 347.867C65.3927 347.867 65.7794 348.262 65.7794 348.941V348.969C65.7794 349.395 65.3419 349.387 64.2638 349.512C63.127 349.645 61.963 349.941 61.963 351.305C61.963 352.484 62.8497 353.133 63.9903 353.133ZM64.2442 352.195C63.5841 352.195 63.1075 351.898 63.1075 351.32C63.1075 350.695 63.6622 350.473 64.338 350.383C64.7169 350.332 65.6153 350.23 65.7833 350.062V350.836C65.7833 351.547 65.2169 352.195 64.2442 352.195ZM69.6749 349.437C69.6749 348.48 70.2608 347.934 71.0733 347.934C71.8663 347.934 72.3468 348.453 72.3468 349.324V353H73.5147V349.184C73.5147 347.699 72.6983 346.922 71.4718 346.922C70.5694 346.922 69.9796 347.34 69.7022 347.977H69.628V347H68.5069V353H69.6749V349.437Z" fill="#5D6598"/>
<path d="M105.205 353H106.412V349.512H109.811V348.477H106.412V346.039H110.166V345H105.205V353ZM113.702 353.121C115.011 353.121 115.937 352.477 116.202 351.5L115.097 351.301C114.886 351.867 114.378 352.156 113.714 352.156C112.714 352.156 112.042 351.508 112.011 350.352H116.277V349.937C116.277 347.77 114.98 346.922 113.62 346.922C111.949 346.922 110.847 348.195 110.847 350.039C110.847 351.902 111.933 353.121 113.702 353.121ZM112.015 349.477C112.062 348.625 112.679 347.887 113.628 347.887C114.534 347.887 115.128 348.559 115.132 349.477H112.015ZM117.666 353H118.807V352.066H118.905C119.116 352.449 119.545 353.117 120.639 353.117C122.092 353.117 123.147 351.953 123.147 350.012C123.147 348.066 122.076 346.922 120.627 346.922C119.514 346.922 119.112 347.602 118.905 347.973H118.834V345H117.666V353ZM118.811 350C118.811 348.746 119.358 347.914 120.377 347.914C121.436 347.914 121.967 348.809 121.967 350C121.967 351.203 121.42 352.121 120.377 352.121C119.373 352.121 118.811 351.262 118.811 350Z" fill="#5D6598"/>
<path d="M153.858 345V353H155.006V347.207H155.081L157.44 352.988H158.393L160.753 347.211H160.827V353H161.975V345H160.51L157.963 351.219H157.87L155.323 345H153.858ZM165.382 353.133C166.375 353.133 166.933 352.629 167.156 352.18H167.203V353H168.343V349.016C168.343 347.27 166.968 346.922 166.015 346.922C164.929 346.922 163.929 347.359 163.539 348.453L164.636 348.703C164.808 348.277 165.246 347.867 166.031 347.867C166.785 347.867 167.171 348.262 167.171 348.941V348.969C167.171 349.395 166.734 349.387 165.656 349.512C164.519 349.645 163.355 349.941 163.355 351.305C163.355 352.484 164.242 353.133 165.382 353.133ZM165.636 352.195C164.976 352.195 164.5 351.898 164.5 351.32C164.5 350.695 165.054 350.473 165.73 350.383C166.109 350.332 167.007 350.23 167.175 350.062V350.836C167.175 351.547 166.609 352.195 165.636 352.195ZM169.899 353H171.067V349.336C171.067 348.551 171.672 347.984 172.501 347.984C172.743 347.984 173.016 348.027 173.11 348.055V346.937C172.993 346.922 172.762 346.91 172.614 346.91C171.911 346.91 171.309 347.309 171.09 347.953H171.028V347H169.899V353Z" fill="#5D6598"/>
<path d="M205.041 353L205.775 350.883H208.9L209.631 353H210.912L208.033 345H206.639L203.76 353H205.041ZM206.127 349.867L207.307 346.453H207.369L208.549 349.867H206.127ZM211.974 355.25H213.142V352.066H213.212C213.423 352.449 213.853 353.117 214.946 353.117C216.399 353.117 217.454 351.953 217.454 350.012C217.454 348.066 216.384 346.922 214.935 346.922C213.821 346.922 213.419 347.602 213.212 347.973H213.114V347H211.974V355.25ZM213.118 350C213.118 348.746 213.665 347.914 214.685 347.914C215.743 347.914 216.274 348.809 216.274 350C216.274 351.203 215.728 352.121 214.685 352.121C213.681 352.121 213.118 351.262 213.118 350ZM218.763 353H219.931V349.336C219.931 348.551 220.536 347.984 221.364 347.984C221.607 347.984 221.88 348.027 221.974 348.055V346.937C221.857 346.922 221.626 346.91 221.478 346.91C220.774 346.91 220.173 347.309 219.954 347.953H219.892V347H218.763V353Z" fill="#5D6598"/>
<path d="M251.798 345V353H252.947V347.207H253.021L255.38 352.988H256.333L258.693 347.211H258.767V353H259.915V345H258.451L255.904 351.219H255.81L253.263 345H251.798ZM263.323 353.133C264.315 353.133 264.873 352.629 265.096 352.18H265.143V353H266.284V349.016C266.284 347.27 264.909 346.922 263.955 346.922C262.869 346.922 261.869 347.359 261.479 348.453L262.576 348.703C262.748 348.277 263.186 347.867 263.971 347.867C264.725 347.867 265.112 348.262 265.112 348.941V348.969C265.112 349.395 264.674 349.387 263.596 349.512C262.459 349.645 261.295 349.941 261.295 351.305C261.295 352.484 262.182 353.133 263.323 353.133ZM263.576 352.195C262.916 352.195 262.44 351.898 262.44 351.32C262.44 350.695 262.994 350.473 263.67 350.383C264.049 350.332 264.948 350.23 265.116 350.062V350.836C265.116 351.547 264.549 352.195 263.576 352.195ZM268.363 355.234C269.327 355.234 269.941 354.73 270.285 353.801L272.765 347.012L271.503 347L269.984 351.656H269.921L268.402 347H267.152L269.347 353.078L269.202 353.477C268.906 354.254 268.488 354.324 267.847 354.148L267.566 355.105C267.706 355.172 268.011 355.234 268.363 355.234Z" fill="#5D6598"/>
<path d="M305.553 345V350.672C305.549 351.594 305.119 352.086 304.354 352.086C303.647 352.086 303.154 351.664 303.15 351H301.951C301.951 352.352 302.967 353.109 304.322 353.109C305.791 353.109 306.752 352.211 306.756 350.672V345H305.553ZM312.22 350.512C312.224 351.531 311.466 352.016 310.81 352.016C310.087 352.016 309.587 351.492 309.587 350.676V347H308.419V350.816C308.419 352.305 309.235 353.078 310.388 353.078C311.29 353.078 311.903 352.602 312.181 351.961H312.243V353H313.392V347H312.22V350.512ZM316.129 349.437C316.129 348.48 316.715 347.934 317.527 347.934C318.32 347.934 318.801 348.453 318.801 349.324V353H319.969V349.184C319.969 347.699 319.152 346.922 317.926 346.922C317.024 346.922 316.434 347.34 316.156 347.977H316.082V347H314.961V353H316.129V349.437Z" fill="#5D6598"/>
<path d="M357.156 345V350.672C357.152 351.594 356.722 352.086 355.957 352.086C355.25 352.086 354.757 351.664 354.754 351H353.554C353.554 352.352 354.57 353.109 355.925 353.109C357.394 353.109 358.355 352.211 358.359 350.672V345H357.156ZM363.823 350.512C363.827 351.531 363.069 352.016 362.413 352.016C361.69 352.016 361.19 351.492 361.19 350.676V347H360.022V350.816C360.022 352.305 360.838 353.078 361.991 353.078C362.893 353.078 363.506 352.602 363.784 351.961H363.846V353H364.995V347H363.823V350.512ZM367.732 345H366.564V353H367.732V345Z" fill="#5D6598"/>
<path d="M401.038 353L401.772 350.883H404.897L405.628 353H406.909L404.03 345H402.636L399.757 353H401.038ZM402.124 349.867L403.304 346.453H403.366L404.546 349.867H402.124ZM411.771 350.512C411.775 351.531 411.017 352.016 410.361 352.016C409.639 352.016 409.139 351.492 409.139 350.676V347H407.971V350.816C407.971 352.305 408.787 353.078 409.939 353.078C410.842 353.078 411.455 352.602 411.732 351.961H411.795V353H412.943V347H411.771V350.512ZM417.028 355.363C418.556 355.363 419.735 354.664 419.735 353.133V347H418.591V347.973H418.505C418.298 347.602 417.884 346.922 416.766 346.922C415.317 346.922 414.251 348.066 414.251 349.977C414.251 351.891 415.341 352.91 416.759 352.91C417.86 352.91 418.286 352.289 418.497 351.906H418.571V353.086C418.571 354.012 417.927 354.422 417.04 354.422C416.067 354.422 415.688 353.934 415.481 353.602L414.477 354.016C414.794 354.738 415.595 355.363 417.028 355.363ZM417.016 351.941C415.973 351.941 415.431 351.141 415.431 349.961C415.431 348.809 415.962 347.914 417.016 347.914C418.036 347.914 418.583 348.746 418.583 349.961C418.583 351.199 418.024 351.941 417.016 351.941Z" fill="#5D6598"/>
<path d="M454.237 347.102H455.401C455.366 345.82 454.233 344.891 452.608 344.891C451.003 344.891 449.773 345.809 449.773 347.187C449.773 348.301 450.569 348.953 451.855 349.301L452.8 349.559C453.655 349.785 454.316 350.066 454.316 350.777C454.316 351.559 453.569 352.074 452.542 352.074C451.612 352.074 450.839 351.66 450.769 350.789H449.558C449.636 352.238 450.757 353.133 452.55 353.133C454.429 353.133 455.511 352.145 455.511 350.789C455.511 349.348 454.226 348.789 453.21 348.539L452.429 348.336C451.804 348.176 450.972 347.883 450.976 347.117C450.976 346.437 451.597 345.934 452.581 345.934C453.499 345.934 454.151 346.363 454.237 347.102ZM459.445 353.121C460.754 353.121 461.68 352.477 461.945 351.5L460.84 351.301C460.629 351.867 460.121 352.156 459.457 352.156C458.457 352.156 457.785 351.508 457.754 350.352H462.02V349.937C462.02 347.77 460.723 346.922 459.363 346.922C457.691 346.922 456.59 348.195 456.59 350.039C456.59 351.902 457.676 353.121 459.445 353.121ZM457.758 349.477C457.805 348.625 458.422 347.887 459.371 347.887C460.277 347.887 460.871 348.559 460.875 349.477H457.758ZM463.316 355.25H464.483V352.066H464.554C464.765 352.449 465.194 353.117 466.288 353.117C467.741 353.117 468.796 351.953 468.796 350.012C468.796 348.066 467.726 346.922 466.276 346.922C465.163 346.922 464.761 347.602 464.554 347.973H464.456V347H463.316V355.25ZM464.46 350C464.46 348.746 465.007 347.914 466.026 347.914C467.085 347.914 467.616 348.809 467.616 350C467.616 351.203 467.069 352.121 466.026 352.121C465.023 352.121 464.46 351.262 464.46 350Z" fill="#5D6598"/>
<path d="M507.277 349C507.277 346.441 505.746 344.891 503.675 344.891C501.597 344.891 500.07 346.441 500.07 349C500.07 351.555 501.597 353.109 503.675 353.109C505.746 353.109 507.277 351.559 507.277 349ZM506.082 349C506.082 350.949 505.05 352.008 503.675 352.008C502.296 352.008 501.269 350.949 501.269 349C501.269 347.051 502.296 345.992 503.675 345.992C505.05 345.992 506.082 347.051 506.082 349ZM511.215 353.121C512.633 353.121 513.551 352.27 513.68 351.102H512.544C512.395 351.75 511.891 352.133 511.223 352.133C510.235 352.133 509.598 351.309 509.598 350C509.598 348.715 510.247 347.906 511.223 347.906C511.965 347.906 512.419 348.375 512.544 348.937H513.68C513.555 347.727 512.567 346.922 511.204 346.922C509.512 346.922 508.419 348.195 508.419 350.027C508.419 351.836 509.473 353.121 511.215 353.121ZM517.73 347H516.5V345.562H515.332V347H514.453V347.937H515.332V351.48C515.328 352.57 516.16 353.098 517.082 353.078C517.453 353.074 517.703 353.004 517.839 352.953L517.629 351.988C517.55 352.004 517.406 352.039 517.218 352.039C516.839 352.039 516.5 351.914 516.5 351.238V347.937H517.73V347Z" fill="#5D6598"/>
<path d="M554.905 345H553.71V350.875H553.636L549.565 345H548.448V353H549.655V347.133H549.729L553.796 353H554.905V345ZM559.099 353.121C560.791 353.121 561.896 351.883 561.896 350.027C561.896 348.16 560.791 346.922 559.099 346.922C557.408 346.922 556.303 348.16 556.303 350.027C556.303 351.883 557.408 353.121 559.099 353.121ZM559.103 352.141C557.998 352.141 557.482 351.176 557.482 350.023C557.482 348.875 557.998 347.898 559.103 347.898C560.201 347.898 560.717 348.875 560.717 350.023C560.717 351.176 560.201 352.141 559.103 352.141ZM568.118 347H566.864L565.348 351.617H565.286L563.766 347H562.513L564.692 353H565.942L568.118 347Z" fill="#5D6598"/>
<path d="M600.308 353C602.746 353 604.156 351.488 604.156 348.988C604.156 346.5 602.746 345 600.39 345H597.718V353H600.308ZM598.925 351.945V346.055H600.316C602.066 346.055 602.968 347.102 602.968 348.988C602.968 350.883 602.066 351.945 600.242 351.945H598.925ZM608.149 353.121C609.458 353.121 610.383 352.477 610.649 351.5L609.544 351.301C609.333 351.867 608.825 352.156 608.161 352.156C607.161 352.156 606.489 351.508 606.458 350.352H610.723V349.937C610.723 347.77 609.426 346.922 608.067 346.922C606.395 346.922 605.294 348.195 605.294 350.039C605.294 351.902 606.379 353.121 608.149 353.121ZM606.462 349.477C606.508 348.625 607.126 347.887 608.075 347.887C608.981 347.887 609.575 348.559 609.579 349.477H606.462ZM614.546 353.121C615.964 353.121 616.882 352.27 617.011 351.102H615.875C615.726 351.75 615.222 352.133 614.554 352.133C613.566 352.133 612.929 351.309 612.929 350C612.929 348.715 613.578 347.906 614.554 347.906C615.296 347.906 615.75 348.375 615.875 348.937H617.011C616.886 347.727 615.898 346.922 614.535 346.922C612.843 346.922 611.75 348.195 611.75 350.027C611.75 351.836 612.804 353.121 614.546 353.121Z" fill="#5D6598"/>
<g clip-path="url(#clip0)">
<path d="M43 307L693 283" stroke="#8BABE1" stroke-width="2" stroke-linecap="round" stroke-dasharray="0.1 4"/>
<path d="M59.5329 293.8L58.6557 293.833L58.8754 299.647L59.7526 299.614L59.5329 293.8ZM66.5025 293.54L65.6338 293.572L65.7951 297.842L65.7412 297.844L62.6217 293.685L61.8097 293.715L62.0294 299.529L62.9066 299.496L62.7455 295.232L62.7995 295.23L65.9159 299.384L66.7222 299.354L66.5025 293.54ZM70.8833 299.198C72.6548 299.132 73.6381 297.995 73.5695 296.178C73.5012 294.37 72.4351 293.318 70.7233 293.382L68.7814 293.454L69.0011 299.268L70.8833 299.198ZM69.8494 298.469L69.6876 294.188L70.6983 294.15C71.9701 294.103 72.6547 294.839 72.7065 296.21C72.7585 297.587 72.1319 298.384 70.8061 298.433L69.8494 298.469ZM79.2918 293.061L79.4366 296.894C79.4674 297.709 78.8346 298.19 78.051 298.219C77.2732 298.248 76.603 297.816 76.5722 297.001L76.4274 293.169L75.5501 293.201L75.6955 297.048C75.745 298.36 76.7955 299.074 78.0815 299.026C79.3675 298.978 80.364 298.187 80.3144 296.875L80.1691 293.029L79.2918 293.061ZM85.6725 294.352L86.5185 294.321C86.4578 293.391 85.609 292.746 84.428 292.79C83.2612 292.833 82.3921 293.534 82.43 294.536C82.4606 295.345 83.0576 295.798 84.0012 296.015L84.6953 296.177C85.3232 296.319 85.8107 296.505 85.8303 297.022C85.8517 297.589 85.3236 297.984 84.577 298.012C83.9013 298.038 83.3279 297.758 83.2528 297.127L82.3728 297.159C82.4693 298.211 83.3087 298.83 84.6117 298.781C85.9773 298.73 86.7365 297.983 86.6993 296.998C86.6597 295.95 85.7104 295.579 84.9654 295.425L84.392 295.299C83.9334 295.199 83.3207 295.009 83.3025 294.452C83.2838 293.958 83.7214 293.575 84.4368 293.549C85.1039 293.524 85.5898 293.818 85.6725 294.352ZM88.3297 293.48L90.1409 293.412L90.3321 298.471L91.2065 298.438L91.0153 293.379L92.8294 293.312L92.8009 292.556L88.3012 292.725L88.3297 293.48ZM95.0142 298.296L95.8914 298.263L95.8083 296.063L97.0006 296.018C97.0205 296.018 97.0375 296.017 97.0574 296.016L98.3215 298.172L99.3208 298.135L97.943 295.83C98.6456 295.539 98.9781 294.932 98.9486 294.152C98.9081 293.081 98.2154 292.354 96.8669 292.404L94.7945 292.482L95.0142 298.296ZM95.7797 295.308L95.7002 293.201L96.8017 293.16C97.6675 293.128 98.0408 293.526 98.0657 294.185C98.0905 294.84 97.7471 295.234 96.8926 295.266L95.7797 295.308ZM100.498 292.269L102.741 295.721L102.827 298.004L103.701 297.971L103.615 295.689L105.591 292.078L104.594 292.115L103.176 294.815L103.113 294.818L101.494 292.231L100.498 292.269ZM111.244 297.689L111.72 296.131L113.991 296.046L114.58 297.564L115.511 297.53L113.199 291.794L112.186 291.832L110.313 297.724L111.244 297.689ZM111.948 295.383L112.711 292.87L112.757 292.868L113.708 295.317L111.948 295.383ZM117.037 291.65L116.089 291.686L118.401 297.422L119.415 297.384L121.287 291.491L120.339 291.527L118.9 296.323L118.835 296.325L117.037 291.65ZM123.346 297.237L127.025 297.099L126.997 296.344L124.195 296.449L124.127 294.669L126.705 294.572L126.677 293.82L124.099 293.916L124.032 292.145L126.8 292.042L126.771 291.286L123.126 291.423L123.346 297.237ZM129.162 297.019L130.039 296.986L129.956 294.786L131.149 294.742C131.169 294.741 131.186 294.74 131.205 294.74L132.47 296.896L133.469 296.858L132.091 294.553C132.794 294.262 133.126 293.656 133.097 292.875C133.056 291.805 132.363 291.077 131.015 291.128L128.943 291.205L129.162 297.019ZM129.928 294.031L129.848 291.925L130.95 291.884C131.816 291.851 132.189 292.249 132.214 292.908C132.238 293.564 131.895 293.958 131.041 293.99L129.928 294.031ZM135.805 296.771L136.281 295.212L138.552 295.127L139.141 296.646L140.072 296.611L137.76 290.876L136.747 290.913L134.874 296.806L135.805 296.771ZM136.508 294.465L137.272 291.951L137.318 291.95L138.269 294.399L136.508 294.465ZM145.422 292.428L146.322 292.395C146.084 291.269 145.086 290.522 143.831 290.569C142.326 290.625 141.271 291.799 141.341 293.656C141.41 295.495 142.521 296.599 144.097 296.541C145.507 296.488 146.48 295.525 146.425 294.057L146.4 293.395L144.115 293.481L144.142 294.205L145.578 294.151C145.594 295.089 144.997 295.705 144.066 295.74C143.041 295.778 142.266 295.031 142.212 293.617C142.159 292.209 142.882 291.406 143.867 291.369C144.639 291.34 145.178 291.747 145.422 292.428ZM148.625 296.292L152.304 296.154L152.276 295.399L149.474 295.504L149.407 293.724L151.984 293.627L151.956 292.875L149.378 292.971L149.311 291.2L152.079 291.096L152.051 290.341L148.405 290.478L148.625 296.292Z" fill="#8BABE1"/>
<path d="M717.085 234.52C717.635 234.566 718.043 235.051 717.996 235.601C717.95 236.151 717.466 236.559 716.915 236.513L679.116 233.299L679.115 233.299C667.442 232.292 652.006 230.969 634 229.727V345V346H633H40H39V345V254.797V253.797H40H77.7992C115.035 253.797 190.595 253.796 265.581 247.373C295.513 244.81 325.532 241.223 355.588 237.632C363.185 236.724 370.783 235.816 378.384 234.925C416.045 230.506 453.734 226.485 491.291 224.877C542.39 222.688 593.739 224.966 633.068 227.658C633.068 227.658 633.069 227.658 633.069 227.658L634 227.722V227.722C652.083 228.968 667.583 230.296 679.287 231.306L717.085 234.52Z" fill="url(#paint0_linear)" fill-opacity="0.05" stroke="#1757C2" stroke-width="2" stroke-linecap="round"/>
</g>
<path d="M219.009 136.295H217.628L213.409 151.969H214.79L219.009 136.295ZM230.001 136.705C227.342 136.679 225.629 138.673 225.629 141.102C225.629 143.634 227.496 145.449 229.746 145.449C231.101 145.449 232.251 144.784 232.967 143.71H233.069C233.069 146.932 231.817 148.773 229.797 148.773C228.416 148.773 227.572 147.903 227.291 146.702H225.731C226.038 148.773 227.598 150.179 229.797 150.179C232.737 150.179 234.552 147.571 234.552 142.918C234.552 138.085 232.149 136.73 230.001 136.705ZM230.001 138.111C231.638 138.111 232.839 139.517 232.839 141.077C232.839 142.636 231.561 144.043 229.95 144.043C228.339 144.043 227.163 142.739 227.163 141.102C227.163 139.44 228.39 138.111 230.001 138.111ZM241.157 150.179C243.65 150.179 245.478 148.338 245.478 145.832C245.478 143.295 243.714 141.435 241.31 141.435C240.428 141.435 239.572 141.748 239.035 142.176H238.958L239.418 138.315H244.89V136.909H238.089L237.296 143.352L238.779 143.531C239.322 143.141 240.249 142.86 241.055 142.866C242.723 142.879 243.944 144.145 243.944 145.858C243.944 147.539 242.768 148.773 241.157 148.773C239.815 148.773 238.747 147.91 238.626 146.727H237.092C237.188 148.722 238.907 150.179 241.157 150.179ZM252.287 150.179C255.176 150.179 256.838 147.731 256.838 143.455C256.838 139.21 255.151 136.73 252.287 136.73C249.423 136.73 247.736 139.21 247.736 143.455C247.736 147.731 249.398 150.179 252.287 150.179ZM252.287 148.773C250.382 148.773 249.27 146.862 249.27 143.455C249.27 140.054 250.395 138.111 252.287 138.111C254.179 138.111 255.304 140.054 255.304 143.455C255.304 146.862 254.192 148.773 252.287 148.773Z" fill="#5D6598"/>
<path d="M88 130C88 143.255 77.2548 154 64 154C50.7452 154 40 143.255 40 130C40 116.745 50.7452 106 64 106C77.2548 106 88 116.745 88 130Z" fill="#F4FBF7"/>
<path fill-rule="evenodd" clip-rule="evenodd" d="M64 107C51.2975 107 41 117.297 41 130C41 142.703 51.2975 153 64 153C76.7025 153 87 142.703 87 130C87 117.297 76.7025 107 64 107ZM39 130C39 116.193 50.1929 105 64 105C77.8071 105 89 116.193 89 130C89 143.807 77.8071 155 64 155C50.1929 155 39 143.807 39 130Z" fill="#20AF5D"/>
<path d="M67.6653 132.133L64.5796 124.137C64.4881 123.899 64.3921 123.625 64.2916 123.314C64.191 122.994 64.095 122.656 64.0036 122.299C63.8116 123.04 63.615 123.657 63.4138 124.151L60.3281 132.133H67.6653ZM73.2058 139.429H71.1487C70.911 139.429 70.719 139.369 70.5727 139.25C70.4264 139.131 70.3167 138.981 70.2436 138.798L68.4058 134.053H59.5876L57.7498 138.798C57.695 138.962 57.5898 139.109 57.4344 139.237C57.279 139.365 57.087 139.429 56.8584 139.429H54.8013L62.6596 119.776H65.3476L73.2058 139.429Z" fill="#20AF5D"/>
<path d="M121.237 108.636C112.964 108.557 107.634 114.761 107.634 122.318C107.634 130.193 113.441 135.841 120.441 135.841C124.657 135.841 128.237 133.773 130.464 130.432H130.782C130.782 140.455 126.884 146.182 120.6 146.182C116.305 146.182 113.68 143.477 112.805 139.739H107.952C108.907 146.182 113.759 150.557 120.6 150.557C129.748 150.557 135.396 142.443 135.396 127.966C135.396 112.932 127.918 108.716 121.237 108.636ZM121.237 113.011C126.327 113.011 130.066 117.386 130.066 122.239C130.066 127.091 126.089 131.466 121.077 131.466C116.066 131.466 112.407 127.409 112.407 122.318C112.407 117.148 116.225 113.011 121.237 113.011ZM156.5 150.557C165.489 150.557 170.659 142.94 170.659 129.636C170.659 116.432 165.409 108.716 156.5 108.716C147.591 108.716 142.341 116.432 142.341 129.636C142.341 142.94 147.511 150.557 156.5 150.557ZM156.5 146.182C150.574 146.182 147.114 140.236 147.114 129.636C147.114 119.057 150.614 113.011 156.5 113.011C162.386 113.011 165.886 119.057 165.886 129.636C165.886 140.236 162.426 146.182 156.5 146.182ZM191.5 150.557C200.489 150.557 205.659 142.94 205.659 129.636C205.659 116.432 200.409 108.716 191.5 108.716C182.591 108.716 177.341 116.432 177.341 129.636C177.341 142.94 182.511 150.557 191.5 150.557ZM191.5 146.182C185.574 146.182 182.114 140.236 182.114 129.636C182.114 119.057 185.614 113.011 191.5 113.011C197.386 113.011 200.886 119.057 200.886 129.636C200.886 140.236 197.426 146.182 191.5 146.182Z" fill="#20AF5D"/>
<path d="M41.7614 60H47.017C50.4545 60 51.875 58.3239 51.875 56.1364C51.875 53.8352 50.2841 52.5852 48.9489 52.5V52.358C50.1989 52.017 51.3068 51.1932 51.3068 49.3182C51.3068 47.1875 49.8864 45.4545 46.8466 45.4545H41.7614V60ZM43.5227 58.4375V53.3807H47.1023C49.0057 53.3807 50.1989 54.6591 50.1989 56.1364C50.1989 57.4148 49.3182 58.4375 47.017 58.4375H43.5227ZM43.5227 51.8466V47.017H46.8466C48.7784 47.017 49.6307 48.0398 49.6307 49.3182C49.6307 50.8523 48.3807 51.8466 46.7898 51.8466H43.5227ZM54.5419 60H56.218V53.0966C56.218 51.6193 57.3828 50.5398 58.9737 50.5398C59.4212 50.5398 59.8828 50.625 59.9964 50.6534V48.9489C59.8047 48.9347 59.3643 48.9205 59.1158 48.9205C57.8089 48.9205 56.6726 49.6591 56.2749 50.7386H56.1612V49.0909H54.5419V60ZM66.2251 60.2273C68.4411 60.2273 70.0604 59.1193 70.5717 57.4716L68.9524 57.017C68.5263 58.1534 67.5391 58.7216 66.2251 58.7216C64.2578 58.7216 62.9013 57.4503 62.8232 55.1136H70.7422V54.4034C70.7422 50.3409 68.3274 48.9489 66.0547 48.9489C63.1001 48.9489 61.1399 51.2784 61.1399 54.6307C61.1399 57.983 63.0717 60.2273 66.2251 60.2273ZM62.8232 53.6648C62.9368 51.9673 64.1371 50.4545 66.0547 50.4545C67.8729 50.4545 69.0376 51.8182 69.0376 53.6648H62.8232ZM76.5021 60.2557C78.4055 60.2557 79.3999 59.233 79.7408 58.5227H79.826V60H81.5021V52.8125C81.5021 49.3466 78.8601 48.9489 77.468 48.9489C75.8203 48.9489 73.9453 49.517 73.093 51.5057L74.6839 52.0739C75.0533 51.2784 75.9268 50.4261 77.5249 50.4261C79.0661 50.4261 79.826 51.2429 79.826 52.642V52.6989C79.826 53.5085 79.0021 53.4375 77.0135 53.6932C74.9893 53.956 72.7805 54.4034 72.7805 56.9034C72.7805 59.0341 74.4283 60.2557 76.5021 60.2557ZM76.7578 58.75C75.4226 58.75 74.4567 58.1534 74.4567 56.9886C74.4567 55.7102 75.6214 55.3125 76.9283 55.142C77.6385 55.0568 79.5419 54.858 79.826 54.517V56.0511C79.826 57.4148 78.7464 58.75 76.7578 58.75ZM88.9933 60.2273C91.408 60.2273 92.9989 58.75 93.283 56.8182H91.6069C91.2944 58.0114 90.3001 58.7216 88.9933 58.7216C87.0046 58.7216 85.7262 57.0739 85.7262 54.5455C85.7262 52.0739 87.033 50.4545 88.9933 50.4545C90.4705 50.4545 91.3512 51.3636 91.6069 52.358H93.283C92.9989 50.3125 91.266 48.9489 88.9648 48.9489C86.0103 48.9489 84.0501 51.2784 84.0501 54.6023C84.0501 57.8693 85.9251 60.2273 88.9933 60.2273ZM97.4094 53.4375C97.4094 51.5341 98.6239 50.4545 100.279 50.4545C101.855 50.4545 102.807 51.4489 102.807 53.1818V60H104.483V53.0682C104.483 50.2628 102.992 48.9489 100.762 48.9489C99.043 48.9489 98.0629 49.6662 97.5515 50.7955H97.4094V45.4545H95.7333V60H97.4094V53.4375ZM115.732 49.0909H117.436C117.358 46.8963 115.334 45.2557 112.521 45.2557C109.737 45.2557 107.55 46.875 107.55 49.3182C107.55 51.2784 108.97 52.4432 111.243 53.0966L113.033 53.608C114.567 54.0341 115.93 54.5739 115.93 56.0227C115.93 57.6136 114.396 58.6648 112.379 58.6648C110.646 58.6648 109.112 57.8977 108.97 56.25H107.152C107.322 58.6364 109.254 60.2557 112.379 60.2557C115.732 60.2557 117.635 58.4091 117.635 56.0511C117.635 53.3239 115.05 52.4432 113.544 52.0455L112.067 51.6477C110.987 51.3636 109.254 50.7955 109.254 49.233C109.254 47.8409 110.533 46.8182 112.464 46.8182C114.226 46.8182 115.561 47.6562 115.732 49.0909ZM120.304 60H121.98V49.0909H120.304V60ZM121.156 47.2727C121.809 47.2727 122.349 46.7614 122.349 46.1364C122.349 45.5114 121.809 45 121.156 45C120.502 45 119.963 45.5114 119.963 46.1364C119.963 46.7614 120.502 47.2727 121.156 47.2727ZM129.453 64.3182C132.067 64.3182 134.169 63.125 134.169 60.3125V49.0909H132.55V50.8239H132.379C132.01 50.2557 131.328 48.9489 129.197 48.9489C126.442 48.9489 124.538 51.1364 124.538 54.4886C124.538 57.8977 126.527 59.8295 129.169 59.8295C131.3 59.8295 131.982 58.5795 132.351 57.983H132.493V60.1989C132.493 62.017 131.214 62.8409 129.453 62.8409C127.472 62.8409 126.776 61.7969 126.328 61.1932L124.993 62.1307C125.675 63.2741 127.017 64.3182 129.453 64.3182ZM129.396 58.3239C127.294 58.3239 126.214 56.733 126.214 54.4602C126.214 52.2443 127.266 50.4545 129.396 50.4545C131.442 50.4545 132.521 52.1023 132.521 54.4602C132.521 56.875 131.413 58.3239 129.396 58.3239ZM138.913 53.4375C138.913 51.5341 140.128 50.4545 141.783 50.4545C143.359 50.4545 144.311 51.4489 144.311 53.1818V60H145.987V53.0682C145.987 50.2628 144.496 48.9489 142.266 48.9489C140.547 48.9489 139.567 49.6662 139.055 50.7955H138.913V45.4545H137.237V60H138.913V53.4375ZM153.798 49.0909H151.468V46.4773H149.792V49.0909H148.145V50.5114H149.792V57.3295C149.792 59.233 151.326 60.142 152.747 60.142C153.372 60.142 153.77 60.0284 153.997 59.9432L153.656 58.4375C153.514 58.4659 153.287 58.5227 152.917 58.5227C152.179 58.5227 151.468 58.2955 151.468 56.875V50.5114H153.798V49.0909ZM162.172 60H171.064V58.4375H163.933V53.4943H170.495V51.9318H163.933V47.017H170.95V45.4545H162.172V60ZM175.147 49.0909H173.216L176.681 54.5455L173.216 60H175.147L177.761 55.767L180.375 60H182.306L178.784 54.5455L182.306 49.0909H180.375L177.761 53.5511L175.147 49.0909ZM188.823 60.2273C191.039 60.2273 192.658 59.1193 193.169 57.4716L191.55 57.017C191.124 58.1534 190.137 58.7216 188.823 58.7216C186.855 58.7216 185.499 57.4503 185.421 55.1136H193.34V54.4034C193.34 50.3409 190.925 48.9489 188.652 48.9489C185.698 48.9489 183.738 51.2784 183.738 54.6307C183.738 57.983 185.669 60.2273 188.823 60.2273ZM185.421 53.6648C185.534 51.9673 186.735 50.4545 188.652 50.4545C190.471 50.4545 191.635 51.8182 191.635 53.6648H185.421ZM200.321 60.2273C202.736 60.2273 204.327 58.75 204.611 56.8182H202.935C202.623 58.0114 201.628 58.7216 200.321 58.7216C198.333 58.7216 197.054 57.0739 197.054 54.5455C197.054 52.0739 198.361 50.4545 200.321 50.4545C201.799 50.4545 202.679 51.3636 202.935 52.358H204.611C204.327 50.3125 202.594 48.9489 200.293 48.9489C197.338 48.9489 195.378 51.2784 195.378 54.6023C195.378 57.8693 197.253 60.2273 200.321 60.2273ZM213.936 55.5398C213.936 57.5852 212.374 58.5227 211.124 58.5227C209.732 58.5227 208.738 57.5 208.738 55.9091V49.0909H207.061V56.0227C207.061 58.8068 208.539 60.142 210.584 60.142C212.232 60.142 213.311 59.2614 213.823 58.1534H213.936V60H215.613V49.0909H213.936V55.5398ZM223.427 49.0909H221.097V46.4773H219.421V49.0909H217.773V50.5114H219.421V57.3295C219.421 59.233 220.955 60.142 222.376 60.142C223.001 60.142 223.398 60.0284 223.626 59.9432L223.285 58.4375C223.143 58.4659 222.915 58.5227 222.546 58.5227C221.808 58.5227 221.097 58.2955 221.097 56.875V50.5114H223.427V49.0909ZM225.948 60H227.624V49.0909H225.948V60ZM226.8 47.2727C227.454 47.2727 227.994 46.7614 227.994 46.1364C227.994 45.5114 227.454 45 226.8 45C226.147 45 225.607 45.5114 225.607 46.1364C225.607 46.7614 226.147 47.2727 226.8 47.2727ZM239.615 49.0909H237.797L234.785 57.7841H234.672L231.66 49.0909H229.842L233.876 60H235.581L239.615 49.0909ZM246.01 60.2273C248.226 60.2273 249.846 59.1193 250.357 57.4716L248.738 57.017C248.311 58.1534 247.324 58.7216 246.01 58.7216C244.043 58.7216 242.686 57.4503 242.608 55.1136H250.527V54.4034C250.527 50.3409 248.113 48.9489 245.84 48.9489C242.885 48.9489 240.925 51.2784 240.925 54.6307C240.925 57.983 242.857 60.2273 246.01 60.2273ZM242.608 53.6648C242.722 51.9673 243.922 50.4545 245.84 50.4545C247.658 50.4545 248.823 51.8182 248.823 53.6648H242.608ZM266.884 49.0909H268.588C268.51 46.8963 266.486 45.2557 263.674 45.2557C260.89 45.2557 258.702 46.875 258.702 49.3182C258.702 51.2784 260.123 52.4432 262.395 53.0966L264.185 53.608C265.719 54.0341 267.083 54.5739 267.083 56.0227C267.083 57.6136 265.549 58.6648 263.532 58.6648C261.799 58.6648 260.265 57.8977 260.123 56.25H258.304C258.475 58.6364 260.407 60.2557 263.532 60.2557C266.884 60.2557 268.787 58.4091 268.787 56.0511C268.787 53.3239 266.202 52.4432 264.696 52.0455L263.219 51.6477C262.14 51.3636 260.407 50.7955 260.407 49.233C260.407 47.8409 261.685 46.8182 263.617 46.8182C265.378 46.8182 266.713 47.6562 266.884 49.0909ZM278.331 55.5398C278.331 57.5852 276.768 58.5227 275.518 58.5227C274.126 58.5227 273.132 57.5 273.132 55.9091V49.0909H271.456V56.0227C271.456 58.8068 272.933 60.142 274.979 60.142C276.626 60.142 277.706 59.2614 278.217 58.1534H278.331V60H280.007V49.0909H278.331V55.5398ZM283.077 60H284.753V53.1818C284.753 51.5838 285.918 50.4545 287.225 50.4545C288.496 50.4545 289.384 51.2855 289.384 52.5284V60H291.088V52.8977C291.088 51.4915 291.969 50.4545 293.503 50.4545C294.696 50.4545 295.719 51.0866 295.719 52.6989V60H297.395V52.6989C297.395 50.1349 296.017 48.9489 294.071 48.9489C292.509 48.9489 291.365 49.6662 290.804 50.7955H290.691C290.151 49.6307 289.199 48.9489 287.765 48.9489C286.344 48.9489 285.293 49.6307 284.838 50.7955H284.696V49.0909H283.077V60ZM300.46 60H302.136V53.1818C302.136 51.5838 303.301 50.4545 304.608 50.4545C305.879 50.4545 306.767 51.2855 306.767 52.5284V60H308.471V52.8977C308.471 51.4915 309.352 50.4545 310.886 50.4545C312.079 50.4545 313.102 51.0866 313.102 52.6989V60H314.778V52.6989C314.778 50.1349 313.4 48.9489 311.454 48.9489C309.892 48.9489 308.748 49.6662 308.187 50.7955H308.074C307.534 49.6307 306.582 48.9489 305.147 48.9489C303.727 48.9489 302.676 49.6307 302.221 50.7955H302.079V49.0909H300.46V60ZM321.053 60.2557C322.956 60.2557 323.951 59.233 324.292 58.5227H324.377V60H326.053V52.8125C326.053 49.3466 323.411 48.9489 322.019 48.9489C320.371 48.9489 318.496 49.517 317.644 51.5057L319.235 52.0739C319.604 51.2784 320.478 50.4261 322.076 50.4261C323.617 50.4261 324.377 51.2429 324.377 52.642V52.6989C324.377 53.5085 323.553 53.4375 321.564 53.6932C319.54 53.956 317.331 54.4034 317.331 56.9034C317.331 59.0341 318.979 60.2557 321.053 60.2557ZM321.309 58.75C319.973 58.75 319.007 58.1534 319.007 56.9886C319.007 55.7102 320.172 55.3125 321.479 55.142C322.189 55.0568 324.093 54.858 324.377 54.517V56.0511C324.377 57.4148 323.297 58.75 321.309 58.75ZM329.112 60H330.788V53.0966C330.788 51.6193 331.953 50.5398 333.544 50.5398C333.991 50.5398 334.453 50.625 334.567 50.6534V48.9489C334.375 48.9347 333.935 48.9205 333.686 48.9205C332.379 48.9205 331.243 49.6591 330.845 50.7386H330.732V49.0909H329.112V60ZM337.965 64.0625C339.478 64.0625 340.55 63.2599 341.175 61.5909L345.82 49.1193L343.988 49.0909L340.977 57.7841H340.863L337.852 49.0909H336.033L340.067 60.0568L339.755 60.9091C339.158 62.5426 338.391 62.6989 337.17 62.3864L336.744 63.8636C336.914 63.9489 337.397 64.0625 337.965 64.0625Z" fill="#131520"/>
<path d="M478.575 115.129H477.024C476.964 114.798 476.853 114.506 476.691 114.254C476.529 114.002 476.33 113.789 476.094 113.613C475.859 113.437 475.596 113.305 475.304 113.215C475.016 113.126 474.709 113.081 474.384 113.081C473.798 113.081 473.272 113.228 472.808 113.523C472.348 113.818 471.983 114.251 471.714 114.821C471.449 115.391 471.317 116.087 471.317 116.909C471.317 117.738 471.449 118.437 471.714 119.007C471.983 119.577 472.349 120.008 472.813 120.3C473.277 120.591 473.799 120.737 474.379 120.737C474.701 120.737 475.006 120.694 475.294 120.608C475.586 120.518 475.849 120.388 476.085 120.215C476.32 120.043 476.519 119.832 476.681 119.584C476.847 119.332 476.961 119.044 477.024 118.719L478.575 118.724C478.492 119.224 478.332 119.685 478.093 120.106C477.858 120.523 477.554 120.885 477.183 121.19C476.815 121.491 476.394 121.725 475.92 121.891C475.446 122.056 474.929 122.139 474.369 122.139C473.488 122.139 472.702 121.93 472.013 121.513C471.323 121.092 470.78 120.49 470.382 119.708C469.988 118.926 469.79 117.993 469.79 116.909C469.79 115.822 469.989 114.889 470.387 114.11C470.785 113.328 471.328 112.728 472.018 112.31C472.707 111.889 473.491 111.679 474.369 111.679C474.91 111.679 475.413 111.757 475.881 111.913C476.351 112.065 476.774 112.29 477.148 112.589C477.523 112.884 477.833 113.245 478.078 113.673C478.323 114.097 478.489 114.582 478.575 115.129ZM480.294 122V114.364H481.731V115.577H481.811C481.95 115.166 482.195 114.843 482.546 114.607C482.901 114.369 483.302 114.249 483.749 114.249C483.842 114.249 483.952 114.253 484.078 114.259C484.207 114.266 484.308 114.274 484.381 114.284V115.706C484.321 115.689 484.215 115.671 484.063 115.651C483.91 115.628 483.758 115.616 483.605 115.616C483.254 115.616 482.941 115.691 482.666 115.84C482.394 115.986 482.178 116.19 482.019 116.452C481.86 116.71 481.781 117.005 481.781 117.337V122H480.294ZM485.667 122V114.364H487.154V122H485.667ZM486.418 113.185C486.159 113.185 485.937 113.099 485.752 112.927C485.569 112.751 485.478 112.542 485.478 112.3C485.478 112.055 485.569 111.846 485.752 111.674C485.937 111.498 486.159 111.411 486.418 111.411C486.676 111.411 486.897 111.498 487.079 111.674C487.265 111.846 487.358 112.055 487.358 112.3C487.358 112.542 487.265 112.751 487.079 112.927C486.897 113.099 486.676 113.185 486.418 113.185ZM492.718 114.364V115.557H488.547V114.364H492.718ZM489.666 112.534H491.152V119.758C491.152 120.046 491.195 120.263 491.281 120.409C491.368 120.552 491.479 120.649 491.615 120.702C491.754 120.752 491.905 120.777 492.067 120.777C492.186 120.777 492.291 120.769 492.38 120.752C492.47 120.736 492.539 120.722 492.589 120.712L492.857 121.94C492.771 121.973 492.649 122.007 492.49 122.04C492.33 122.076 492.132 122.096 491.893 122.099C491.502 122.106 491.137 122.036 490.799 121.891C490.461 121.745 490.188 121.519 489.979 121.214C489.77 120.91 489.666 120.527 489.666 120.066V112.534ZM494.363 122V114.364H495.849V122H494.363ZM495.113 113.185C494.855 113.185 494.633 113.099 494.447 112.927C494.265 112.751 494.174 112.542 494.174 112.3C494.174 112.055 494.265 111.846 494.447 111.674C494.633 111.498 494.855 111.411 495.113 111.411C495.372 111.411 495.592 111.498 495.775 111.674C495.96 111.846 496.053 112.055 496.053 112.3C496.053 112.542 495.96 112.751 495.775 112.927C495.592 113.099 495.372 113.185 495.113 113.185ZM501.066 122.154C500.326 122.154 499.69 121.987 499.156 121.652C498.626 121.314 498.218 120.848 497.933 120.255C497.648 119.662 497.506 118.982 497.506 118.217C497.506 117.441 497.652 116.757 497.943 116.163C498.235 115.567 498.646 115.101 499.176 114.766C499.707 114.432 500.331 114.264 501.051 114.264C501.631 114.264 502.148 114.372 502.602 114.587C503.056 114.799 503.422 115.098 503.7 115.482C503.982 115.867 504.15 116.316 504.203 116.83H502.756C502.676 116.472 502.494 116.163 502.209 115.905C501.927 115.646 501.549 115.517 501.075 115.517C500.661 115.517 500.298 115.626 499.987 115.845C499.678 116.061 499.438 116.369 499.266 116.77C499.093 117.168 499.007 117.638 499.007 118.182C499.007 118.739 499.092 119.219 499.261 119.624C499.43 120.028 499.669 120.341 499.977 120.563C500.288 120.785 500.655 120.896 501.075 120.896C501.357 120.896 501.612 120.845 501.841 120.742C502.073 120.636 502.267 120.485 502.423 120.29C502.582 120.094 502.693 119.859 502.756 119.584H504.203C504.15 120.078 503.989 120.518 503.72 120.906C503.452 121.294 503.092 121.599 502.642 121.821C502.194 122.043 501.669 122.154 501.066 122.154ZM508.015 122.169C507.531 122.169 507.093 122.08 506.702 121.901C506.311 121.718 506.001 121.455 505.772 121.11C505.547 120.765 505.434 120.343 505.434 119.842C505.434 119.411 505.517 119.057 505.683 118.778C505.849 118.5 506.072 118.28 506.354 118.117C506.636 117.955 506.951 117.832 507.299 117.749C507.647 117.666 508.001 117.603 508.363 117.56C508.82 117.507 509.191 117.464 509.476 117.431C509.761 117.395 509.968 117.337 510.098 117.257C510.227 117.178 510.292 117.048 510.292 116.869V116.835C510.292 116.4 510.169 116.064 509.924 115.825C509.682 115.587 509.32 115.467 508.84 115.467C508.339 115.467 507.945 115.578 507.657 115.8C507.372 116.019 507.174 116.263 507.065 116.531L505.668 116.213C505.834 115.749 506.076 115.375 506.394 115.089C506.715 114.801 507.085 114.592 507.502 114.463C507.92 114.33 508.359 114.264 508.82 114.264C509.125 114.264 509.448 114.301 509.789 114.374C510.134 114.443 510.456 114.572 510.754 114.761C511.056 114.95 511.302 115.22 511.495 115.572C511.687 115.92 511.783 116.372 511.783 116.929V122H510.331V120.956H510.272C510.176 121.148 510.031 121.337 509.839 121.523C509.647 121.708 509.4 121.862 509.098 121.985C508.797 122.108 508.435 122.169 508.015 122.169ZM508.338 120.976C508.749 120.976 509.1 120.895 509.392 120.732C509.687 120.57 509.91 120.358 510.063 120.096C510.219 119.831 510.297 119.547 510.297 119.246V118.261C510.243 118.314 510.141 118.364 509.988 118.411C509.839 118.454 509.668 118.492 509.476 118.525C509.284 118.555 509.097 118.583 508.914 118.609C508.732 118.633 508.58 118.652 508.457 118.669C508.169 118.705 507.905 118.767 507.667 118.853C507.431 118.939 507.242 119.063 507.1 119.226C506.961 119.385 506.891 119.597 506.891 119.862C506.891 120.23 507.027 120.509 507.299 120.697C507.57 120.883 507.917 120.976 508.338 120.976ZM515.249 111.818V122H513.763V111.818H515.249Z" fill="#131520"/>
<path d="M557.979 122V120.886L561.425 117.317C561.793 116.929 562.096 116.589 562.335 116.298C562.576 116.003 562.757 115.723 562.876 115.457C562.996 115.192 563.055 114.911 563.055 114.612C563.055 114.274 562.976 113.982 562.817 113.737C562.658 113.489 562.441 113.298 562.165 113.165C561.89 113.03 561.58 112.962 561.236 112.962C560.871 112.962 560.553 113.036 560.281 113.185C560.009 113.335 559.801 113.545 559.655 113.817C559.509 114.089 559.436 114.407 559.436 114.771H557.969C557.969 114.152 558.112 113.61 558.397 113.146C558.682 112.682 559.073 112.322 559.57 112.067C560.067 111.808 560.633 111.679 561.266 111.679C561.905 111.679 562.469 111.807 562.956 112.062C563.446 112.314 563.829 112.658 564.104 113.096C564.379 113.53 564.517 114.021 564.517 114.567C564.517 114.945 564.446 115.315 564.303 115.676C564.164 116.037 563.92 116.44 563.572 116.884C563.224 117.325 562.741 117.86 562.121 118.49L560.097 120.608V120.683H564.681V122H557.979ZM570.29 122V114.364H571.727V115.577H571.807C571.946 115.166 572.191 114.843 572.542 114.607C572.897 114.369 573.298 114.249 573.746 114.249C573.838 114.249 573.948 114.253 574.074 114.259C574.203 114.266 574.304 114.274 574.377 114.284V115.706C574.317 115.689 574.211 115.671 574.059 115.651C573.906 115.628 573.754 115.616 573.601 115.616C573.25 115.616 572.937 115.691 572.662 115.84C572.39 115.986 572.175 116.19 572.015 116.452C571.856 116.71 571.777 117.005 571.777 117.337V122H570.29ZM575.663 122V114.364H577.15V122H575.663ZM576.414 113.185C576.156 113.185 575.933 113.099 575.748 112.927C575.566 112.751 575.474 112.542 575.474 112.3C575.474 112.055 575.566 111.846 575.748 111.674C575.933 111.498 576.156 111.411 576.414 111.411C576.673 111.411 576.893 111.498 577.075 111.674C577.261 111.846 577.354 112.055 577.354 112.3C577.354 112.542 577.261 112.751 577.075 112.927C576.893 113.099 576.673 113.185 576.414 113.185ZM584.872 116.228L583.525 116.467C583.468 116.294 583.379 116.13 583.256 115.974C583.137 115.819 582.974 115.691 582.769 115.592C582.564 115.492 582.307 115.442 581.998 115.442C581.577 115.442 581.226 115.537 580.944 115.726C580.663 115.911 580.522 116.152 580.522 116.447C580.522 116.702 580.616 116.907 580.805 117.063C580.994 117.219 581.299 117.347 581.72 117.446L582.933 117.724C583.636 117.887 584.159 118.137 584.504 118.475C584.849 118.813 585.021 119.252 585.021 119.793C585.021 120.25 584.889 120.658 584.623 121.016C584.362 121.37 583.995 121.649 583.525 121.851C583.057 122.053 582.515 122.154 581.899 122.154C581.044 122.154 580.346 121.972 579.806 121.607C579.266 121.239 578.934 120.717 578.812 120.041L580.248 119.822C580.338 120.197 580.522 120.48 580.8 120.673C581.079 120.862 581.442 120.956 581.889 120.956C582.376 120.956 582.766 120.855 583.057 120.653C583.349 120.447 583.495 120.197 583.495 119.902C583.495 119.663 583.405 119.463 583.226 119.3C583.051 119.138 582.781 119.015 582.416 118.933L581.123 118.649C580.411 118.487 579.884 118.228 579.542 117.874C579.204 117.519 579.035 117.07 579.035 116.526C579.035 116.076 579.161 115.681 579.413 115.343C579.665 115.005 580.013 114.741 580.457 114.553C580.901 114.36 581.41 114.264 581.983 114.264C582.809 114.264 583.458 114.443 583.932 114.801C584.406 115.156 584.72 115.631 584.872 116.228ZM588.023 119.41L588.013 117.595H588.271L591.314 114.364H593.094L589.624 118.043H589.39L588.023 119.41ZM586.656 122V111.818H588.142V122H586.656ZM591.478 122L588.744 118.371L589.768 117.332L593.303 122H591.478ZM600.171 116.228L598.824 116.467C598.767 116.294 598.678 116.13 598.555 115.974C598.436 115.819 598.273 115.691 598.068 115.592C597.862 115.492 597.605 115.442 597.297 115.442C596.876 115.442 596.525 115.537 596.243 115.726C595.962 115.911 595.821 116.152 595.821 116.447C595.821 116.702 595.915 116.907 596.104 117.063C596.293 117.219 596.598 117.347 597.019 117.446L598.232 117.724C598.935 117.887 599.458 118.137 599.803 118.475C600.148 118.813 600.32 119.252 600.32 119.793C600.32 120.25 600.187 120.658 599.922 121.016C599.66 121.37 599.294 121.649 598.824 121.851C598.356 122.053 597.814 122.154 597.198 122.154C596.343 122.154 595.645 121.972 595.105 121.607C594.565 121.239 594.233 120.717 594.11 120.041L595.547 119.822C595.637 120.197 595.821 120.48 596.099 120.673C596.377 120.862 596.74 120.956 597.188 120.956C597.675 120.956 598.065 120.855 598.356 120.653C598.648 120.447 598.794 120.197 598.794 119.902C598.794 119.663 598.704 119.463 598.525 119.3C598.35 119.138 598.079 119.015 597.715 118.933L596.422 118.649C595.71 118.487 595.183 118.228 594.841 117.874C594.503 117.519 594.334 117.07 594.334 116.526C594.334 116.076 594.46 115.681 594.712 115.343C594.964 115.005 595.312 114.741 595.756 114.553C596.2 114.36 596.709 114.264 597.282 114.264C598.108 114.264 598.757 114.443 599.231 114.801C599.705 115.156 600.018 115.631 600.171 116.228Z" fill="#5D6598"/>
<circle cx="445" cy="117" r="12" fill="#E02424"/>
<path d="M439.738 112.824V116.256C439.738 116.62 439.72 116.978 439.684 117.33C439.648 117.678 439.602 118.048 439.546 118.44H438.538C438.482 118.048 438.436 117.678 438.4 117.33C438.364 116.978 438.346 116.62 438.346 116.256V112.824H439.738ZM438.112 120.684C438.112 120.56 438.134 120.442 438.178 120.33C438.226 120.218 438.29 120.122 438.37 120.042C438.454 119.962 438.552 119.898 438.664 119.85C438.776 119.802 438.896 119.778 439.024 119.778C439.148 119.778 439.266 119.802 439.378 119.85C439.49 119.898 439.586 119.962 439.666 120.042C439.75 120.122 439.816 120.218 439.864 120.33C439.912 120.442 439.936 120.56 439.936 120.684C439.936 120.812 439.912 120.932 439.864 121.044C439.816 121.152 439.75 121.246 439.666 121.326C439.586 121.406 439.49 121.468 439.378 121.512C439.266 121.56 439.148 121.584 439.024 121.584C438.896 121.584 438.776 121.56 438.664 121.512C438.552 121.468 438.454 121.406 438.37 121.326C438.29 121.246 438.226 121.152 438.178 121.044C438.134 120.932 438.112 120.812 438.112 120.684Z" fill="white"/>
<path d="M443.713 112.824V116.256C443.713 116.62 443.695 116.978 443.659 117.33C443.623 117.678 443.577 118.048 443.521 118.44H442.513C442.457 118.048 442.411 117.678 442.375 117.33C442.339 116.978 442.321 116.62 442.321 116.256V112.824H443.713ZM442.087 120.684C442.087 120.56 442.109 120.442 442.153 120.33C442.201 120.218 442.265 120.122 442.345 120.042C442.429 119.962 442.527 119.898 442.639 119.85C442.751 119.802 442.871 119.778 442.999 119.778C443.123 119.778 443.241 119.802 443.353 119.85C443.465 119.898 443.561 119.962 443.641 120.042C443.725 120.122 443.791 120.218 443.839 120.33C443.887 120.442 443.911 120.56 443.911 120.684C443.911 120.812 443.887 120.932 443.839 121.044C443.791 121.152 443.725 121.246 443.641 121.326C443.561 121.406 443.465 121.468 443.353 121.512C443.241 121.56 443.123 121.584 442.999 121.584C442.871 121.584 442.751 121.56 442.639 121.512C442.527 121.468 442.429 121.406 442.345 121.326C442.265 121.246 442.201 121.152 442.153 121.044C442.109 120.932 442.087 120.812 442.087 120.684Z" fill="white"/>
<path d="M447.688 112.824V116.256C447.688 116.62 447.67 116.978 447.634 117.33C447.598 117.678 447.552 118.048 447.496 118.44H446.488C446.432 118.048 446.386 117.678 446.35 117.33C446.314 116.978 446.296 116.62 446.296 116.256V112.824H447.688ZM446.062 120.684C446.062 120.56 446.084 120.442 446.128 120.33C446.176 120.218 446.24 120.122 446.32 120.042C446.404 119.962 446.502 119.898 446.614 119.85C446.726 119.802 446.846 119.778 446.974 119.778C447.098 119.778 447.216 119.802 447.328 119.85C447.44 119.898 447.536 119.962 447.616 120.042C447.7 120.122 447.766 120.218 447.814 120.33C447.862 120.442 447.886 120.56 447.886 120.684C447.886 120.812 447.862 120.932 447.814 121.044C447.766 121.152 447.7 121.246 447.616 121.326C447.536 121.406 447.44 121.468 447.328 121.512C447.216 121.56 447.098 121.584 446.974 121.584C446.846 121.584 446.726 121.56 446.614 121.512C446.502 121.468 446.404 121.406 446.32 121.326C446.24 121.246 446.176 121.152 446.128 121.044C446.084 120.932 446.062 120.812 446.062 120.684Z" fill="white"/>
<path d="M451.663 112.824V116.256C451.663 116.62 451.645 116.978 451.609 117.33C451.573 117.678 451.527 118.048 451.471 118.44H450.463C450.407 118.048 450.361 117.678 450.325 117.33C450.289 116.978 450.271 116.62 450.271 116.256V112.824H451.663ZM450.037 120.684C450.037 120.56 450.059 120.442 450.103 120.33C450.151 120.218 450.215 120.122 450.295 120.042C450.379 119.962 450.477 119.898 450.589 119.85C450.701 119.802 450.821 119.778 450.949 119.778C451.073 119.778 451.191 119.802 451.303 119.85C451.415 119.898 451.511 119.962 451.591 120.042C451.675 120.122 451.741 120.218 451.789 120.33C451.837 120.442 451.861 120.56 451.861 120.684C451.861 120.812 451.837 120.932 451.789 121.044C451.741 121.152 451.675 121.246 451.591 121.326C451.511 121.406 451.415 121.468 451.303 121.512C451.191 121.56 451.073 121.584 450.949 121.584C450.821 121.584 450.701 121.56 450.589 121.512C450.477 121.468 450.379 121.406 450.295 121.326C450.215 121.246 450.151 121.152 450.103 121.044C450.059 120.932 450.037 120.812 450.037 120.684Z" fill="white"/>
<path d="M470.119 143.818H471.983L475.224 151.733H475.344L478.585 143.818H480.45V154H478.988V146.632H478.893L475.891 153.985H474.678L471.675 146.627H471.58V154H470.119V143.818ZM485.855 154.154C485.103 154.154 484.455 153.993 483.911 153.672C483.371 153.347 482.953 152.891 482.658 152.305C482.367 151.715 482.221 151.024 482.221 150.232C482.221 149.449 482.367 148.76 482.658 148.163C482.953 147.567 483.364 147.101 483.891 146.766C484.421 146.432 485.041 146.264 485.751 146.264C486.181 146.264 486.599 146.335 487.003 146.478C487.408 146.621 487.771 146.844 488.092 147.149C488.414 147.454 488.667 147.85 488.853 148.337C489.038 148.821 489.131 149.41 489.131 150.102V150.629H483.061V149.516H487.675C487.675 149.125 487.595 148.778 487.436 148.477C487.277 148.172 487.053 147.931 486.765 147.756C486.48 147.58 486.145 147.492 485.76 147.492C485.343 147.492 484.978 147.595 484.667 147.8C484.358 148.003 484.12 148.268 483.951 148.596C483.785 148.921 483.702 149.274 483.702 149.655V150.525C483.702 151.035 483.792 151.469 483.971 151.827C484.153 152.185 484.407 152.459 484.731 152.648C485.056 152.833 485.436 152.926 485.87 152.926C486.152 152.926 486.408 152.886 486.64 152.807C486.872 152.724 487.073 152.601 487.242 152.439C487.411 152.277 487.54 152.076 487.63 151.837L489.037 152.091C488.924 152.505 488.722 152.868 488.43 153.18C488.142 153.488 487.779 153.728 487.341 153.901C486.907 154.07 486.412 154.154 485.855 154.154ZM493.639 154.149C493.023 154.149 492.473 153.992 491.989 153.677C491.508 153.359 491.13 152.906 490.855 152.32C490.583 151.73 490.447 151.022 490.447 150.197C490.447 149.371 490.585 148.665 490.86 148.079C491.138 147.492 491.52 147.043 492.004 146.732C492.487 146.42 493.036 146.264 493.649 146.264C494.123 146.264 494.504 146.344 494.793 146.503C495.084 146.659 495.31 146.841 495.469 147.05C495.631 147.259 495.757 147.442 495.847 147.602H495.936V143.818H497.423V154H495.971V152.812H495.847C495.757 152.974 495.628 153.16 495.459 153.369C495.293 153.577 495.064 153.76 494.773 153.915C494.481 154.071 494.103 154.149 493.639 154.149ZM493.967 152.881C494.395 152.881 494.756 152.769 495.051 152.543C495.349 152.315 495.575 151.998 495.727 151.594C495.883 151.189 495.961 150.719 495.961 150.182C495.961 149.652 495.885 149.187 495.732 148.79C495.58 148.392 495.356 148.082 495.061 147.86C494.766 147.638 494.402 147.527 493.967 147.527C493.52 147.527 493.147 147.643 492.849 147.875C492.55 148.107 492.325 148.424 492.173 148.825C492.023 149.226 491.949 149.678 491.949 150.182C491.949 150.692 492.025 151.151 492.178 151.559C492.33 151.967 492.555 152.29 492.854 152.528C493.155 152.764 493.527 152.881 493.967 152.881ZM499.544 154V146.364H501.031V154H499.544ZM500.295 145.185C500.036 145.185 499.814 145.099 499.629 144.927C499.446 144.751 499.355 144.542 499.355 144.3C499.355 144.055 499.446 143.846 499.629 143.674C499.814 143.498 500.036 143.411 500.295 143.411C500.553 143.411 500.774 143.498 500.956 143.674C501.142 143.846 501.235 144.055 501.235 144.3C501.235 144.542 501.142 144.751 500.956 144.927C500.774 145.099 500.553 145.185 500.295 145.185ZM507.868 150.833V146.364H509.359V154H507.898V152.678H507.818C507.643 153.085 507.361 153.425 506.973 153.697C506.589 153.965 506.11 154.099 505.536 154.099C505.046 154.099 504.612 153.992 504.234 153.776C503.859 153.558 503.564 153.234 503.349 152.807C503.137 152.379 503.031 151.851 503.031 151.221V146.364H504.517V151.042C504.517 151.562 504.661 151.977 504.95 152.285C505.238 152.593 505.612 152.747 506.073 152.747C506.352 152.747 506.628 152.678 506.903 152.538C507.182 152.399 507.412 152.189 507.594 151.907C507.78 151.625 507.871 151.267 507.868 150.833ZM511.357 154V146.364H512.784V147.607H512.878C513.037 147.186 513.297 146.857 513.659 146.622C514.02 146.384 514.452 146.264 514.956 146.264C515.467 146.264 515.894 146.384 516.239 146.622C516.587 146.861 516.844 147.189 517.009 147.607H517.089C517.271 147.199 517.561 146.874 517.959 146.632C518.357 146.387 518.831 146.264 519.381 146.264C520.074 146.264 520.639 146.481 521.076 146.915C521.517 147.35 521.737 148.004 521.737 148.879V154H520.251V149.018C520.251 148.501 520.11 148.127 519.828 147.895C519.547 147.663 519.21 147.547 518.819 147.547C518.335 147.547 517.959 147.696 517.691 147.994C517.422 148.289 517.288 148.669 517.288 149.133V154H515.806V148.924C515.806 148.51 515.677 148.177 515.419 147.925C515.16 147.673 514.824 147.547 514.409 147.547C514.128 147.547 513.867 147.621 513.629 147.771C513.393 147.916 513.203 148.12 513.057 148.382C512.914 148.644 512.843 148.947 512.843 149.292V154H511.357Z" fill="#131520"/>
<path d="M561.42 154.139C560.707 154.139 560.077 154.017 559.531 153.771C558.987 153.526 558.561 153.188 558.253 152.757C557.945 152.326 557.792 151.836 557.795 151.286C557.792 150.855 557.88 150.459 558.059 150.097C558.241 149.733 558.488 149.429 558.8 149.188C559.111 148.942 559.459 148.786 559.844 148.72V148.661C559.337 148.538 558.931 148.266 558.626 147.845C558.321 147.424 558.17 146.94 558.173 146.393C558.17 145.873 558.308 145.409 558.586 145.001C558.868 144.59 559.254 144.267 559.744 144.032C560.235 143.797 560.793 143.679 561.42 143.679C562.04 143.679 562.593 143.798 563.08 144.037C563.571 144.272 563.957 144.595 564.239 145.006C564.52 145.414 564.663 145.876 564.666 146.393C564.663 146.94 564.507 147.424 564.199 147.845C563.891 148.266 563.49 148.538 562.996 148.661V148.72C563.377 148.786 563.72 148.942 564.025 149.188C564.333 149.429 564.578 149.733 564.761 150.097C564.946 150.459 565.041 150.855 565.044 151.286C565.041 151.836 564.885 152.326 564.577 152.757C564.268 153.188 563.841 153.526 563.294 153.771C562.75 154.017 562.126 154.139 561.42 154.139ZM561.42 152.881C561.841 152.881 562.205 152.812 562.513 152.673C562.822 152.53 563.06 152.333 563.229 152.081C563.398 151.826 563.485 151.527 563.488 151.186C563.485 150.831 563.392 150.518 563.21 150.246C563.031 149.975 562.787 149.761 562.479 149.605C562.17 149.449 561.817 149.371 561.42 149.371C561.019 149.371 560.662 149.449 560.351 149.605C560.039 149.761 559.794 149.975 559.615 150.246C559.436 150.518 559.348 150.831 559.352 151.186C559.348 151.527 559.429 151.826 559.595 152.081C559.764 152.333 560.004 152.53 560.316 152.673C560.628 152.812 560.996 152.881 561.42 152.881ZM561.42 148.143C561.758 148.143 562.058 148.076 562.32 147.94C562.581 147.804 562.787 147.615 562.936 147.373C563.089 147.131 563.166 146.848 563.17 146.523C563.166 146.205 563.09 145.926 562.941 145.688C562.795 145.449 562.591 145.265 562.33 145.136C562.068 145.003 561.764 144.937 561.42 144.937C561.068 144.937 560.76 145.003 560.495 145.136C560.233 145.265 560.029 145.449 559.884 145.688C559.738 145.926 559.666 146.205 559.67 146.523C559.666 146.848 559.739 147.131 559.888 147.373C560.038 147.615 560.243 147.804 560.505 147.94C560.77 148.076 561.075 148.143 561.42 148.143ZM570.55 154V146.364H571.987V147.577H572.066C572.206 147.166 572.451 146.843 572.802 146.607C573.157 146.369 573.558 146.249 574.005 146.249C574.098 146.249 574.208 146.253 574.333 146.259C574.463 146.266 574.564 146.274 574.637 146.284V147.706C574.577 147.689 574.471 147.671 574.319 147.651C574.166 147.628 574.014 147.616 573.861 147.616C573.51 147.616 573.197 147.691 572.922 147.84C572.65 147.986 572.434 148.19 572.275 148.452C572.116 148.71 572.037 149.005 572.037 149.337V154H570.55ZM575.923 154V146.364H577.41V154H575.923ZM576.674 145.185C576.415 145.185 576.193 145.099 576.008 144.927C575.825 144.751 575.734 144.542 575.734 144.3C575.734 144.055 575.825 143.846 576.008 143.674C576.193 143.498 576.415 143.411 576.674 143.411C576.932 143.411 577.153 143.498 577.335 143.674C577.521 143.846 577.613 144.055 577.613 144.3C577.613 144.542 577.521 144.751 577.335 144.927C577.153 145.099 576.932 145.185 576.674 145.185ZM585.132 148.228L583.784 148.467C583.728 148.294 583.639 148.13 583.516 147.974C583.397 147.819 583.234 147.691 583.029 147.592C582.823 147.492 582.566 147.442 582.258 147.442C581.837 147.442 581.486 147.537 581.204 147.726C580.922 147.911 580.782 148.152 580.782 148.447C580.782 148.702 580.876 148.907 581.065 149.063C581.254 149.219 581.559 149.347 581.98 149.446L583.193 149.724C583.895 149.887 584.419 150.137 584.764 150.475C585.109 150.813 585.281 151.252 585.281 151.793C585.281 152.25 585.148 152.658 584.883 153.016C584.621 153.37 584.255 153.649 583.784 153.851C583.317 154.053 582.775 154.154 582.159 154.154C581.304 154.154 580.606 153.972 580.066 153.607C579.525 153.239 579.194 152.717 579.071 152.041L580.508 151.822C580.598 152.197 580.782 152.48 581.06 152.673C581.338 152.862 581.701 152.956 582.149 152.956C582.636 152.956 583.025 152.855 583.317 152.653C583.609 152.447 583.755 152.197 583.755 151.902C583.755 151.663 583.665 151.463 583.486 151.3C583.31 151.138 583.04 151.015 582.676 150.933L581.383 150.649C580.671 150.487 580.144 150.228 579.802 149.874C579.464 149.519 579.295 149.07 579.295 148.526C579.295 148.076 579.421 147.681 579.673 147.343C579.925 147.005 580.273 146.741 580.717 146.553C581.161 146.36 581.67 146.264 582.243 146.264C583.069 146.264 583.718 146.443 584.192 146.801C584.666 147.156 584.979 147.631 585.132 148.228ZM588.282 151.41L588.273 149.595H588.531L591.574 146.364H593.354L589.883 150.043H589.65L588.282 151.41ZM586.915 154V143.818H588.402V154H586.915ZM591.738 154L589.003 150.371L590.028 149.332L593.562 154H591.738ZM600.431 148.228L599.083 148.467C599.027 148.294 598.937 148.13 598.815 147.974C598.695 147.819 598.533 147.691 598.328 147.592C598.122 147.492 597.865 147.442 597.557 147.442C597.136 147.442 596.785 147.537 596.503 147.726C596.221 147.911 596.08 148.152 596.08 148.447C596.08 148.702 596.175 148.907 596.364 149.063C596.553 149.219 596.858 149.347 597.279 149.446L598.492 149.724C599.194 149.887 599.718 150.137 600.063 150.475C600.407 150.813 600.58 151.252 600.58 151.793C600.58 152.25 600.447 152.658 600.182 153.016C599.92 153.37 599.554 153.649 599.083 153.851C598.616 154.053 598.074 154.154 597.458 154.154C596.602 154.154 595.905 153.972 595.365 153.607C594.824 153.239 594.493 152.717 594.37 152.041L595.807 151.822C595.896 152.197 596.08 152.48 596.359 152.673C596.637 152.862 597 152.956 597.448 152.956C597.935 152.956 598.324 152.855 598.616 152.653C598.908 152.447 599.053 152.197 599.053 151.902C599.053 151.663 598.964 151.463 598.785 151.3C598.609 151.138 598.339 151.015 597.975 150.933L596.682 150.649C595.969 150.487 595.442 150.228 595.101 149.874C594.763 149.519 594.594 149.07 594.594 148.526C594.594 148.076 594.72 147.681 594.972 147.343C595.224 147.005 595.572 146.741 596.016 146.553C596.46 146.36 596.969 146.264 597.542 146.264C598.367 146.264 599.017 146.443 599.491 146.801C599.965 147.156 600.278 147.631 600.431 148.228Z" fill="#5D6598"/>
<circle cx="445" cy="149" r="12" fill="#FF9901"/>
<path d="M443.713 144.824V148.256C443.713 148.62 443.695 148.978 443.659 149.33C443.623 149.678 443.577 150.048 443.521 150.44H442.513C442.457 150.048 442.411 149.678 442.375 149.33C442.339 148.978 442.321 148.62 442.321 148.256V144.824H443.713ZM442.087 152.684C442.087 152.56 442.109 152.442 442.153 152.33C442.201 152.218 442.265 152.122 442.345 152.042C442.429 151.962 442.527 151.898 442.639 151.85C442.751 151.802 442.871 151.778 442.999 151.778C443.123 151.778 443.241 151.802 443.353 151.85C443.465 151.898 443.561 151.962 443.641 152.042C443.725 152.122 443.791 152.218 443.839 152.33C443.887 152.442 443.911 152.56 443.911 152.684C443.911 152.812 443.887 152.932 443.839 153.044C443.791 153.152 443.725 153.246 443.641 153.326C443.561 153.406 443.465 153.468 443.353 153.512C443.241 153.56 443.123 153.584 442.999 153.584C442.871 153.584 442.751 153.56 442.639 153.512C442.527 153.468 442.429 153.406 442.345 153.326C442.265 153.246 442.201 153.152 442.153 153.044C442.109 152.932 442.087 152.812 442.087 152.684Z" fill="white"/>
<path d="M447.688 144.824V148.256C447.688 148.62 447.67 148.978 447.634 149.33C447.598 149.678 447.552 150.048 447.496 150.44H446.488C446.432 150.048 446.386 149.678 446.35 149.33C446.314 148.978 446.296 148.62 446.296 148.256V144.824H447.688ZM446.062 152.684C446.062 152.56 446.084 152.442 446.128 152.33C446.176 152.218 446.24 152.122 446.32 152.042C446.404 151.962 446.502 151.898 446.614 151.85C446.726 151.802 446.846 151.778 446.974 151.778C447.098 151.778 447.216 151.802 447.328 151.85C447.44 151.898 447.536 151.962 447.616 152.042C447.7 152.122 447.766 152.218 447.814 152.33C447.862 152.442 447.886 152.56 447.886 152.684C447.886 152.812 447.862 152.932 447.814 153.044C447.766 153.152 447.7 153.246 447.616 153.326C447.536 153.406 447.44 153.468 447.328 153.512C447.216 153.56 447.098 153.584 446.974 153.584C446.846 153.584 446.726 153.56 446.614 153.512C446.502 153.468 446.404 153.406 446.32 153.326C446.24 153.246 446.176 153.152 446.128 153.044C446.084 152.932 446.062 152.812 446.062 152.684Z" fill="white"/>
<path d="M470.119 186V175.818H471.655V184.678H476.268V186H470.119ZM481.118 186.154C480.402 186.154 479.778 185.99 479.244 185.662C478.71 185.334 478.296 184.875 478.001 184.285C477.706 183.695 477.559 183.005 477.559 182.217C477.559 181.424 477.706 180.732 478.001 180.138C478.296 179.545 478.71 179.085 479.244 178.756C479.778 178.428 480.402 178.264 481.118 178.264C481.834 178.264 482.459 178.428 482.993 178.756C483.526 179.085 483.94 179.545 484.235 180.138C484.53 180.732 484.678 181.424 484.678 182.217C484.678 183.005 484.53 183.695 484.235 184.285C483.94 184.875 483.526 185.334 482.993 185.662C482.459 185.99 481.834 186.154 481.118 186.154ZM481.123 184.906C481.587 184.906 481.972 184.784 482.277 184.538C482.582 184.293 482.807 183.967 482.953 183.559C483.102 183.151 483.176 182.702 483.176 182.212C483.176 181.724 483.102 181.277 482.953 180.869C482.807 180.458 482.582 180.129 482.277 179.88C481.972 179.631 481.587 179.507 481.123 179.507C480.656 179.507 480.268 179.631 479.96 179.88C479.655 180.129 479.428 180.458 479.279 180.869C479.133 181.277 479.06 181.724 479.06 182.212C479.06 182.702 479.133 183.151 479.279 183.559C479.428 183.967 479.655 184.293 479.96 184.538C480.268 184.784 480.656 184.906 481.123 184.906ZM487.76 186L485.513 178.364H487.049L488.546 183.972H488.62L490.122 178.364H491.658L493.15 183.947H493.224L494.711 178.364H496.247L494.005 186H492.488L490.937 180.487H490.823L489.272 186H487.76Z" fill="#131520"/>
<path d="M561.842 175.818V186H560.301V177.359H560.241L557.805 178.95V177.479L560.346 175.818H561.842ZM564.597 186V184.886L568.042 181.317C568.41 180.929 568.713 180.589 568.952 180.298C569.194 180.003 569.374 179.723 569.494 179.457C569.613 179.192 569.673 178.911 569.673 178.612C569.673 178.274 569.593 177.982 569.434 177.737C569.275 177.489 569.058 177.298 568.783 177.165C568.508 177.03 568.198 176.962 567.853 176.962C567.488 176.962 567.17 177.036 566.898 177.185C566.627 177.335 566.418 177.545 566.272 177.817C566.126 178.089 566.053 178.407 566.053 178.771H564.587C564.587 178.152 564.729 177.61 565.014 177.146C565.299 176.682 565.69 176.322 566.188 176.067C566.685 175.808 567.25 175.679 567.883 175.679C568.522 175.679 569.086 175.807 569.573 176.062C570.064 176.314 570.446 176.658 570.722 177.096C570.997 177.53 571.134 178.021 571.134 178.567C571.134 178.945 571.063 179.315 570.92 179.676C570.781 180.037 570.538 180.44 570.19 180.884C569.842 181.325 569.358 181.86 568.738 182.49L566.714 184.608V184.683H571.298V186H564.597ZM576.907 186V178.364H578.344V179.577H578.424C578.563 179.166 578.808 178.843 579.16 178.607C579.514 178.369 579.915 178.249 580.363 178.249C580.456 178.249 580.565 178.253 580.691 178.259C580.82 178.266 580.921 178.274 580.994 178.284V179.706C580.934 179.689 580.828 179.671 580.676 179.651C580.523 179.628 580.371 179.616 580.219 179.616C579.867 179.616 579.554 179.691 579.279 179.84C579.007 179.986 578.792 180.19 578.633 180.452C578.474 180.71 578.394 181.005 578.394 181.337V186H576.907ZM582.281 186V178.364H583.767V186H582.281ZM583.031 177.185C582.773 177.185 582.551 177.099 582.365 176.927C582.183 176.751 582.092 176.542 582.092 176.3C582.092 176.055 582.183 175.846 582.365 175.674C582.551 175.498 582.773 175.411 583.031 175.411C583.29 175.411 583.51 175.498 583.692 175.674C583.878 175.846 583.971 176.055 583.971 176.3C583.971 176.542 583.878 176.751 583.692 176.927C583.51 177.099 583.29 177.185 583.031 177.185ZM591.489 180.228L590.142 180.467C590.086 180.294 589.996 180.13 589.873 179.974C589.754 179.819 589.592 179.691 589.386 179.592C589.181 179.492 588.924 179.442 588.616 179.442C588.195 179.442 587.843 179.537 587.562 179.726C587.28 179.911 587.139 180.152 587.139 180.447C587.139 180.702 587.233 180.907 587.422 181.063C587.611 181.219 587.916 181.347 588.337 181.446L589.55 181.724C590.253 181.887 590.777 182.137 591.121 182.475C591.466 182.813 591.638 183.252 591.638 183.793C591.638 184.25 591.506 184.658 591.241 185.016C590.979 185.37 590.613 185.649 590.142 185.851C589.675 186.053 589.133 186.154 588.516 186.154C587.661 186.154 586.963 185.972 586.423 185.607C585.883 185.239 585.551 184.717 585.429 184.041L586.866 183.822C586.955 184.197 587.139 184.48 587.417 184.673C587.696 184.862 588.059 184.956 588.506 184.956C588.993 184.956 589.383 184.855 589.675 184.653C589.966 184.447 590.112 184.197 590.112 183.902C590.112 183.663 590.023 183.463 589.844 183.3C589.668 183.138 589.398 183.015 589.033 182.933L587.741 182.649C587.028 182.487 586.501 182.228 586.16 181.874C585.822 181.519 585.653 181.07 585.653 180.526C585.653 180.076 585.778 179.681 586.03 179.343C586.282 179.005 586.63 178.741 587.074 178.553C587.519 178.36 588.027 178.264 588.601 178.264C589.426 178.264 590.076 178.443 590.55 178.801C591.023 179.156 591.337 179.631 591.489 180.228ZM594.64 183.41L594.63 181.595H594.888L597.931 178.364H599.711L596.241 182.043H596.007L594.64 183.41ZM593.273 186V175.818H594.759V186H593.273ZM598.095 186L595.361 182.371L596.385 181.332L599.92 186H598.095ZM606.788 180.228L605.441 180.467C605.384 180.294 605.295 180.13 605.172 179.974C605.053 179.819 604.891 179.691 604.685 179.592C604.48 179.492 604.223 179.442 603.914 179.442C603.493 179.442 603.142 179.537 602.86 179.726C602.579 179.911 602.438 180.152 602.438 180.447C602.438 180.702 602.532 180.907 602.721 181.063C602.91 181.219 603.215 181.347 603.636 181.446L604.849 181.724C605.552 181.887 606.075 182.137 606.42 182.475C606.765 182.813 606.937 183.252 606.937 183.793C606.937 184.25 606.805 184.658 606.539 185.016C606.278 185.37 605.911 185.649 605.441 185.851C604.973 186.053 604.431 186.154 603.815 186.154C602.96 186.154 602.262 185.972 601.722 185.607C601.182 185.239 600.85 184.717 600.728 184.041L602.164 183.822C602.254 184.197 602.438 184.48 602.716 184.673C602.995 184.862 603.358 184.956 603.805 184.956C604.292 184.956 604.682 184.855 604.973 184.653C605.265 184.447 605.411 184.197 605.411 183.902C605.411 183.663 605.321 183.463 605.142 183.3C604.967 183.138 604.697 183.015 604.332 182.933L603.039 182.649C602.327 182.487 601.8 182.228 601.458 181.874C601.12 181.519 600.951 181.07 600.951 180.526C600.951 180.076 601.077 179.681 601.329 179.343C601.581 179.005 601.929 178.741 602.373 178.553C602.817 178.36 603.326 178.264 603.9 178.264C604.725 178.264 605.374 178.443 605.848 178.801C606.322 179.156 606.636 179.631 606.788 180.228Z" fill="#5D6598"/>
<circle cx="445" cy="181" r="12" fill="#FDC106"/>
<path d="M445.701 176.824V180.256C445.701 180.62 445.683 180.978 445.647 181.33C445.611 181.678 445.565 182.048 445.509 182.44H444.501C444.445 182.048 444.399 181.678 444.363 181.33C444.327 180.978 444.309 180.62 444.309 180.256V176.824H445.701ZM444.075 184.684C444.075 184.56 444.097 184.442 444.141 184.33C444.189 184.218 444.253 184.122 444.333 184.042C444.417 183.962 444.515 183.898 444.627 183.85C444.739 183.802 444.859 183.778 444.987 183.778C445.111 183.778 445.229 183.802 445.341 183.85C445.453 183.898 445.549 183.962 445.629 184.042C445.713 184.122 445.779 184.218 445.827 184.33C445.875 184.442 445.899 184.56 445.899 184.684C445.899 184.812 445.875 184.932 445.827 185.044C445.779 185.152 445.713 185.246 445.629 185.326C445.549 185.406 445.453 185.468 445.341 185.512C445.229 185.56 445.111 185.584 444.987 185.584C444.859 185.584 444.739 185.56 444.627 185.512C444.515 185.468 444.417 185.406 444.333 185.326C444.253 185.246 444.189 185.152 444.141 185.044C444.097 184.932 444.075 184.812 444.075 184.684Z" fill="white"/>
<defs>
<linearGradient id="paint0_linear" x1="378.5" y1="225" x2="378.5" y2="354.114" gradientUnits="userSpaceOnUse">
<stop stop-color="#1757C2"/>
<stop offset="1" stop-color="#1757C2" stop-opacity="0"/>
</linearGradient>
<clipPath id="clip0">
<rect width="589" height="119" fill="white" transform="translate(43 223)"/>
</clipPath>
</defs>
</svg>
