<svg xmlns="http://www.w3.org/2000/svg" xmlns:xlink="http://www.w3.org/1999/xlink" width="672" height="400" fill="none" xmlns:v="https://vecta.io/nano"><path fill="#fff" d="M0 0h672v400H0z"/><path d="M46.25 60c4.432 0 6.932-2.756 6.932-7.3 0-4.517-2.5-7.244-6.733-7.244H41.76V60h4.49zm-2.727-1.562v-11.42h2.813c3.41 0 5.142 2.16 5.142 5.682 0 3.55-1.733 5.74-5.34 5.74h-2.614zm15.597 1.818c1.903 0 2.898-1.023 3.24-1.733h.085V60h1.676v-7.187c0-3.466-2.642-3.864-4.034-3.864-1.648 0-3.523.568-4.375 2.557l1.59.568c.37-.796 1.243-1.648 2.84-1.648 1.54 0 2.3.817 2.3 2.216v.057c0 .8-.824.74-2.812.994-2.024.263-4.233.7-4.233 3.2 0 2.13 1.648 3.352 3.722 3.352zm.256-1.506c-1.335 0-2.3-.597-2.3-1.76 0-1.278 1.165-1.676 2.472-1.847.7-.085 2.614-.284 2.898-.625v1.534c0 1.364-1.08 2.7-3.068 2.7zm12.548-9.66h-2.33v-2.614h-1.676v2.614H66.27v1.42h1.648v6.818c0 1.903 1.534 2.813 2.954 2.813.625 0 1.023-.114 1.25-.2l-.34-1.506c-.142.028-.37.085-.74.085-.74 0-1.45-.227-1.45-1.648V50.51h2.33v-1.42zm5.732 11.165c1.903 0 2.898-1.023 3.24-1.733h.085V60h1.676v-7.187c0-3.466-2.642-3.864-4.034-3.864-1.648 0-3.523.568-4.375 2.557l1.59.568c.37-.796 1.243-1.648 2.84-1.648 1.54 0 2.3.817 2.3 2.216v.057c0 .8-.824.74-2.812.994-2.024.263-4.233.7-4.233 3.2 0 2.13 1.648 3.352 3.722 3.352zm.256-1.506c-1.335 0-2.3-.597-2.3-1.76 0-1.278 1.165-1.676 2.472-1.847.7-.085 2.614-.284 2.898-.625v1.534c0 1.364-1.08 2.7-3.068 2.7zm15.105-13.295H91.34V60h1.676V45.455zm7.644 14.773c2.216 0 3.835-1.108 4.346-2.756l-1.62-.455c-.426 1.136-1.413 1.705-2.727 1.705-1.968 0-3.324-1.27-3.402-3.608h7.92v-.7c0-4.062-2.415-5.454-4.688-5.454-2.954 0-4.915 2.33-4.915 5.682s1.932 5.597 5.086 5.597zm-3.402-6.562c.114-1.697 1.314-3.2 3.23-3.2 1.818 0 2.983 1.364 2.983 3.2h-6.214zm13.68 6.59c1.903 0 2.897-1.023 3.238-1.733h.086V60h1.676v-7.187c0-3.466-2.642-3.864-4.034-3.864-1.648 0-3.523.568-4.375 2.557l1.59.568c.37-.796 1.242-1.648 2.84-1.648 1.542 0 2.302.817 2.302 2.216v.057c0 .8-.824.74-2.813.994-2.024.263-4.233.7-4.233 3.2 0 2.13 1.648 3.352 3.722 3.352zm.255-1.506c-1.335 0-2.3-.597-2.3-1.76 0-1.278 1.165-1.676 2.472-1.847.7-.085 2.613-.284 2.898-.625v1.534c0 1.364-1.08 2.7-3.07 2.7zm7.804 1.25h1.676v-4.084l1.172-1.087 4.084 5.17h2.13l-4.95-6.25 4.6-4.66h-2.074l-4.773 4.858h-.2v-8.494h-1.676V60zm18.606-8.466c-.525-1.548-1.704-2.585-3.863-2.585-2.302 0-4.006 1.307-4.006 3.153 0 1.506.895 2.514 2.898 2.983l1.818.426c1.1.256 1.62.78 1.62 1.534 0 .938-.994 1.705-2.557 1.705-1.37 0-2.23-.6-2.528-1.76l-1.59.398c.39 1.854 1.918 2.84 4.148 2.84 2.535 0 4.26-1.385 4.26-3.267 0-1.52-.952-2.48-2.898-2.955l-1.62-.398c-1.293-.32-1.875-.753-1.875-1.59 0-.937.994-1.62 2.33-1.62 1.463 0 2.066.8 2.358 1.563l1.505-.426z" fill="#131520"/><rect x="40.5" y="105.5" width="591" height="47" rx="7.5" fill="#fdf2f2" stroke="#e02424"/><path d="M77.205 129c0-5.08-4.12-9.2-9.2-9.2s-9.2 4.12-9.2 9.2 4.12 9.2 9.2 9.2 9.2-4.12 9.2-9.2zm-1.6 0a7.6 7.6 0 0 1-15.2 0 7.6 7.6 0 0 1 15.2 0zm-6.822-5v3.763a11.57 11.57 0 0 1-.059 1.178l-.15 1.217H67.47l-.15-1.217a11.57 11.57 0 0 1-.059-1.178V124h1.526zM67 132.618a1.05 1.05 0 0 1 .072-.388 1.2 1.2 0 0 1 .2-.316 1.1 1.1 0 0 1 .322-.21c.123-.053.254-.08.395-.08a.97.97 0 0 1 .388.079 1.01 1.01 0 0 1 .316.21.95.95 0 0 1 .217.316.97.97 0 0 1 .08.388.99.99 0 0 1-.079.395.96.96 0 0 1-.217.31c-.092.088-.193.156-.316.204a.97.97 0 0 1-.388.079.97.97 0 0 1-.395-.08c-.123-.054-.23-.116-.322-.204a1 1 0 0 1-.21-.309 1.07 1.07 0 0 1-.072-.395z" fill="#e02424"/><g clip-path="url(#A)"><path d="M96.842 123.818V134H95.3v-8.64h-.06l-2.436 1.59v-1.47l2.54-1.66h1.496zm7.966 5.648V134h-1.486v-7.636h1.426v1.243h.095c.176-.405.45-.73.825-.975s.854-.368 1.427-.368c.52 0 .976.1 1.367.328s.695.537.9.965.323.956.323 1.586V134h-1.486v-4.678c0-.554-.145-.986-.433-1.298s-.684-.472-1.188-.472c-.345 0-.65.074-.92.224s-.475.367-.63.656-.23.63-.23 1.034zm10.172 4.688c-.752 0-1.4-.16-1.944-.482s-.958-.78-1.253-1.367-.437-1.28-.437-2.073c0-.783.146-1.472.437-2.07s.706-1.062 1.233-1.397 1.15-.502 1.86-.502c.43 0 .848.07 1.252.214a3.03 3.03 0 0 1 1.089.671c.322.305.575.7.76 1.188s.278 1.073.278 1.765v.527h-6.07v-1.113h4.614c0-.39-.08-.738-.24-1.04a1.8 1.8 0 0 0-.671-.721c-.285-.176-.62-.264-1.005-.264-.417 0-.782.103-1.093.308a2.07 2.07 0 0 0-.716.796c-.166.325-.25.678-.25 1.06v.87c0 .5.1.944.27 1.302s.436.632.76.82.705.278 1.14.278c.282 0 .538-.04.77-.12s.433-.206.602-.368a1.6 1.6 0 0 0 .388-.602l1.407.254c-.113.414-.315.777-.607 1.09s-.65.548-1.09.72-.93.253-1.486.253zm6.567-.154l-2.247-7.636h1.536l1.497 5.608h.074l1.502-5.608h1.536l1.492 5.583h.074l1.487-5.583h1.536L127.792 134h-1.517l-1.55-5.513h-.114L123.06 134h-1.512zm16.82.154c-.74 0-1.375-.167-1.91-.502s-.938-.804-1.223-1.397-.427-1.273-.427-2.038c0-.776.145-1.46.437-2.054a3.36 3.36 0 0 1 1.233-1.397c.53-.334 1.155-.502 1.874-.502.58 0 1.097.108 1.552.323a2.78 2.78 0 0 1 1.098.895c.282.385.45.834.502 1.348h-1.446c-.08-.358-.262-.667-.547-.925s-.66-.388-1.134-.388c-.414 0-.777.11-1.09.328s-.548.524-.72.925-.26.868-.26 1.412c0 .557.085 1.037.254 1.442s.407.717.716.94a1.84 1.84 0 0 0 1.098.333c.282 0 .537-.05.766-.154a1.57 1.57 0 0 0 .582-.452c.16-.196.27-.43.333-.706h1.446c-.053.494-.213.934-.482 1.322s-.628.693-1.08.915-.972.333-1.576.333zm4.727-.154v-7.636h1.437v1.213h.08c.14-.41.385-.734.736-.97a2.11 2.11 0 0 1 1.203-.358l.328.01.304.025v1.422a2.61 2.61 0 0 0-.318-.055 3.07 3.07 0 0 0-.458-.035c-.35 0-.664.075-.94.224-.27.146-.487.35-.646.612s-.238.553-.238.885V134h-1.487zm5.373 0v-7.636h1.487V134h-1.487zm.75-8.815c-.26 0-.48-.086-.666-.258a.84.84 0 0 1-.274-.627c0-.245.09-.454.274-.626a.93.93 0 0 1 .666-.263c.258 0 .48.087.66.263a.82.82 0 0 1 .278.626c0 .242-.092.45-.278.627a.93.93 0 0 1-.661.258zm6.3 1.18v1.193h-4.17v-1.193h4.17zm-3.053-1.83h1.487v7.224c0 .288.043.505.13.65a.67.67 0 0 0 .333.293c.14.05.3.075.453.075.12 0 .223-.008.313-.025l.21-.04.268 1.228c-.086.033-.21.067-.368.1s-.358.056-.596.06c-.39.007-.756-.063-1.094-.208a1.88 1.88 0 0 1-.82-.677c-.21-.304-.314-.687-.314-1.148v-7.532zM157.16 134v-7.636h1.487V134h-1.487zm.75-8.815c-.258 0-.48-.086-.666-.258s-.274-.385-.274-.627a.83.83 0 0 1 .274-.626c.186-.176.408-.263.666-.263s.48.087.66.263a.82.82 0 0 1 .279.626c0 .242-.093.45-.28.627s-.402.258-.66.258zm5.952 8.97c-.74 0-1.375-.167-1.91-.502s-.938-.804-1.223-1.397-.427-1.273-.427-2.038c0-.776.146-1.46.437-2.054a3.36 3.36 0 0 1 1.233-1.397c.53-.334 1.155-.502 1.874-.502.58 0 1.097.108 1.552.323a2.78 2.78 0 0 1 1.098.895c.282.385.45.834.502 1.348h-1.446c-.08-.358-.262-.667-.547-.925s-.66-.388-1.134-.388c-.414 0-.777.11-1.088.328s-.55.524-.72.925-.26.868-.26 1.412c0 .557.085 1.037.254 1.442s.407.717.716.94a1.84 1.84 0 0 0 1.098.333c.282 0 .537-.05.766-.154a1.57 1.57 0 0 0 .582-.452c.16-.196.27-.43.333-.706H167c-.053.494-.213.934-.482 1.322s-.628.693-1.08.915-.972.333-1.576.333zm6.95.015c-.484 0-.92-.09-1.312-.268s-.7-.446-.93-.79-.338-.767-.338-1.268c0-.43.083-.785.25-1.064s.39-.498.67-.66.596-.285.944-.368a9.35 9.35 0 0 1 1.064-.189l1.114-.13c.285-.036.492-.094.62-.174s.194-.21.194-.388v-.034c0-.435-.122-.77-.368-1s-.603-.358-1.083-.358c-.5 0-.895.11-1.184.333s-.482.463-.59.73l-1.397-.318c.166-.464.407-.838.726-1.124s.69-.497 1.108-.626a4.32 4.32 0 0 1 1.318-.199c.305 0 .628.037.97.1a2.83 2.83 0 0 1 .965.387c.3.19.548.46.74.81s.288.8.288 1.357V134h-1.452v-1.044h-.06c-.096.192-.24.38-.432.567s-.44.34-.74.462-.663.184-1.084.184zm.324-1.193c.41 0 .762-.08 1.054-.244a1.71 1.71 0 0 0 .671-.636 1.66 1.66 0 0 0 .233-.85v-.985c-.053.053-.155.103-.308.15a4.79 4.79 0 0 1-.512.114l-.562.084-.457.06c-.288.036-.552.098-.79.184s-.424.2-.566.373-.21.37-.21.636c0 .368.136.647.407.835s.62.28 1.04.28zm6.91-9.158V134h-1.486v-10.182h1.486zm8.564 10.33c-.617 0-1.167-.157-1.65-.472s-.858-.77-1.133-1.357-.408-1.298-.408-2.123.138-1.532.413-2.118.66-1.036 1.143-1.347 1.033-.468 1.646-.468c.474 0 .855.08 1.143.24s.517.338.676.547a4.44 4.44 0 0 1 .378.552h.1v-3.784h1.486V134h-1.45v-1.188h-.125c-.09.162-.22.348-.388.557s-.394.39-.686.546-.67.234-1.133.234zm.328-1.268c.428 0 .79-.112 1.084-.338s.523-.545.676-.95.234-.875.234-1.412c0-.53-.077-.995-.23-1.392s-.376-.708-.67-.93-.66-.333-1.094-.333c-.447 0-.82.116-1.12.348s-.523.55-.676.95-.223.853-.223 1.357c0 .5.076.97.228 1.377a2.19 2.19 0 0 0 .676.969c.302.236.673.353 1.114.353zm7.8 1.288c-.484 0-.92-.09-1.312-.268s-.7-.446-.93-.79-.338-.767-.338-1.268c0-.43.083-.785.248-1.064s.4-.498.672-.66a3.51 3.51 0 0 1 .944-.368 9.35 9.35 0 0 1 1.064-.189l1.114-.13c.285-.036.492-.094.62-.174s.194-.21.194-.388v-.034c0-.435-.122-.77-.368-1s-.603-.358-1.084-.358c-.5 0-.894.11-1.183.333s-.482.463-.59.73l-1.397-.318c.165-.464.407-.838.725-1.124s.69-.497 1.11-.626a4.32 4.32 0 0 1 1.318-.199c.304 0 .628.037.97.1a2.83 2.83 0 0 1 .965.387c.3.19.548.46.74.81s.29.8.29 1.357V134h-1.452v-1.044h-.06c-.096.192-.24.38-.432.567s-.44.34-.74.462-.663.184-1.084.184zm.323-1.193c.41 0 .763-.08 1.054-.244s.52-.374.67-.636a1.65 1.65 0 0 0 .234-.85v-.985c-.053.053-.156.103-.308.15a4.79 4.79 0 0 1-.512.114l-.562.084-.457.06a3.67 3.67 0 0 0-.791.184c-.235.086-.424.2-.567.373s-.208.37-.208.636c0 .368.135.647.407.835s.618.28 1.04.28zm9-6.612v1.193h-4.17v-1.193h4.17zm-3.052-1.83h1.486v7.224c0 .288.043.505.13.65s.198.24.334.293.3.075.452.075c.12 0 .224-.008.313-.025l.21-.04.268 1.228a2.47 2.47 0 0 1-.367.1c-.16.036-.358.056-.597.06-.39.007-.756-.063-1.094-.208a1.88 1.88 0 0 1-.82-.677c-.21-.304-.313-.687-.313-1.148v-7.532zm6.92 9.635c-.484 0-.922-.09-1.313-.268a2.21 2.21 0 0 1-.929-.791c-.226-.345-.338-.767-.338-1.268 0-.43.082-.785.248-1.064a1.85 1.85 0 0 1 .671-.661 3.53 3.53 0 0 1 .945-.368 9.35 9.35 0 0 1 1.064-.189l1.114-.13c.285-.036.492-.094.62-.174s.194-.21.194-.388v-.034c0-.435-.123-.77-.368-1s-.603-.358-1.084-.358c-.5 0-.895.11-1.183.333s-.482.463-.592.73l-1.397-.318c.166-.464.408-.838.726-1.124s.69-.497 1.11-.626.857-.2 1.317-.2c.305 0 .628.037.97.1s.666.198.964.387.55.46.74.81.288.8.288 1.357V134h-1.45v-1.044h-.06a2.11 2.11 0 0 1-.433.567c-.192.185-.44.34-.74.462s-.663.184-1.084.184zm.323-1.193c.41 0 .762-.08 1.054-.244s.52-.374.67-.636a1.65 1.65 0 0 0 .234-.85v-.985c-.053.053-.156.103-.308.15s-.32.08-.512.114l-.562.084-.458.06a3.66 3.66 0 0 0-.79.184c-.235.086-.424.2-.567.373s-.21.37-.21.636c0 .368.136.647.408.835s.618.28 1.04.28zm10.617-9.158V134h-1.487v-10.182h1.487zm5.29 10.336c-.753 0-1.4-.16-1.944-.482s-.958-.78-1.253-1.367-.437-1.28-.437-2.073c0-.783.145-1.472.437-2.07s.706-1.062 1.233-1.397 1.15-.502 1.86-.502a3.73 3.73 0 0 1 1.253.214 3.03 3.03 0 0 1 1.089.671c.322.305.575.7.76 1.188s.278 1.073.278 1.765v.527h-6.07v-1.113h4.613c0-.39-.08-.738-.238-1.04a1.8 1.8 0 0 0-.671-.721c-.285-.176-.62-.264-1.005-.264-.417 0-.782.103-1.093.308a2.07 2.07 0 0 0-.716.796c-.166.325-.25.678-.25 1.06v.87c0 .5.1.944.27 1.302a1.94 1.94 0 0 0 .76.821c.325.185.705.278 1.14.278.28 0 .538-.04.77-.12s.433-.206.602-.368a1.6 1.6 0 0 0 .388-.602l1.407.254c-.113.414-.315.777-.607 1.09s-.65.548-1.09.72-.93.253-1.486.253zm7.148.015c-.484 0-.922-.09-1.313-.268a2.21 2.21 0 0 1-.929-.791c-.226-.345-.338-.767-.338-1.268 0-.43.082-.785.248-1.064a1.85 1.85 0 0 1 .671-.661 3.53 3.53 0 0 1 .945-.368 9.35 9.35 0 0 1 1.064-.189l1.113-.13c.285-.036.493-.094.622-.174s.194-.21.194-.388v-.034c0-.435-.123-.77-.368-1s-.603-.358-1.084-.358c-.5 0-.895.11-1.183.333s-.482.463-.592.73l-1.397-.318c.166-.464.408-.838.726-1.124s.69-.497 1.11-.626.856-.2 1.317-.2c.305 0 .628.037.97.1s.666.198.964.387.55.46.74.81.288.8.288 1.357V134h-1.45v-1.044h-.06a2.11 2.11 0 0 1-.433.567c-.192.185-.44.34-.74.462s-.663.184-1.084.184zm.323-1.193c.41 0 .762-.08 1.054-.244s.52-.374.67-.636a1.65 1.65 0 0 0 .234-.85v-.985c-.053.053-.156.103-.31.15s-.32.08-.512.114l-.56.084-.458.06a3.66 3.66 0 0 0-.79.184 1.35 1.35 0 0 0-.567.373c-.14.16-.21.37-.21.636 0 .368.136.647.408.835s.618.28 1.04.28zm6.792-1.566l-.01-1.815h.26l3.043-3.23h1.78l-3.47 3.68h-.233l-1.368 1.367zm-1.367 2.6v-10.182h1.487V134h-1.487zm4.823 0l-2.735-3.63 1.024-1.04 3.535 4.668h-1.824zm9.534.15c-.617 0-1.167-.157-1.65-.472s-.858-.77-1.133-1.357-.408-1.298-.408-2.123.138-1.532.413-2.118.66-1.036 1.143-1.347 1.033-.468 1.646-.468c.474 0 .855.08 1.143.24s.517.338.676.547a4.44 4.44 0 0 1 .378.552h.1v-3.784h1.486V134h-1.45v-1.188h-.125c-.09.162-.218.348-.388.557s-.394.39-.686.546-.67.234-1.133.234zm.328-1.268c.428 0 .79-.112 1.084-.338s.523-.545.676-.95.234-.875.234-1.412c0-.53-.077-.995-.23-1.392s-.376-.708-.67-.93-.66-.333-1.094-.333c-.447 0-.82.116-1.12.348s-.523.55-.676.95-.223.853-.223 1.357c0 .5.076.97.228 1.377a2.19 2.19 0 0 0 .676.969c.302.236.673.353 1.114.353zm5.577 1.12v-7.636h1.486V134h-1.486zm.75-8.815c-.26 0-.48-.086-.667-.258s-.273-.385-.273-.627a.83.83 0 0 1 .273-.626c.186-.176.408-.263.667-.263s.48.087.66.263.278.38.278.626-.093.45-.278.627a.93.93 0 0 1-.661.258zm8.458 3.043l-1.348.24a1.6 1.6 0 0 0-.268-.493 1.34 1.34 0 0 0-.487-.382c-.206-.1-.463-.15-.77-.15-.42 0-.772.095-1.054.284s-.423.426-.423.72a.76.76 0 0 0 .284.616c.19.156.494.284.915.383l1.213.278c.702.163 1.226.413 1.57.75s.517.777.517 1.318c0 .457-.133.865-.398 1.223s-.628.633-1.1.835-1.01.303-1.625.303c-.856 0-1.553-.182-2.094-.547s-.87-.9-.994-1.566l1.437-.22c.09.375.273.658.552.85s.64.283 1.09.283c.487 0 .876-.1 1.168-.303s.437-.456.437-.75a.78.78 0 0 0-.268-.602c-.176-.162-.446-.285-.8-.367l-1.293-.284c-.713-.162-1.24-.42-1.58-.775s-.507-.804-.507-1.348c0-.45.126-.845.378-1.183s.6-.602 1.044-.8.953-.29 1.526-.29c.825 0 1.475.18 1.95.537a2.5 2.5 0 0 1 .94 1.427zm5 5.926c-.74 0-1.376-.167-1.91-.502a3.32 3.32 0 0 1-1.223-1.397c-.285-.593-.428-1.273-.428-2.038 0-.776.146-1.46.438-2.054s.702-1.062 1.232-1.397 1.156-.502 1.875-.502c.58 0 1.097.108 1.55.323a2.79 2.79 0 0 1 1.099.895c.28.385.45.834.502 1.348h-1.447c-.08-.358-.262-.667-.547-.925s-.66-.388-1.133-.388c-.415 0-.778.11-1.09.328s-.55.524-.72.925-.26.868-.26 1.412c0 .557.085 1.037.254 1.442s.408.717.716.94.678.333 1.1.333a1.84 1.84 0 0 0 .765-.154 1.57 1.57 0 0 0 .582-.452c.16-.196.27-.43.333-.706h1.447c-.053.494-.214.934-.482 1.322s-.63.693-1.08.915-.973.333-1.576.333zm6.213-10.336V134h-1.487v-10.182h1.487zm5.216 10.336c-.716 0-1.34-.164-1.874-.492s-.948-.787-1.243-1.377-.442-1.28-.442-2.068c0-.793.147-1.485.442-2.08s.71-1.053 1.243-1.382 1.158-.492 1.874-.492 1.34.164 1.875.492.948.79 1.243 1.382.442 1.286.442 2.08c0 .788-.147 1.478-.442 2.068s-.7 1.05-1.243 1.377-1.16.492-1.875.492zm.005-1.248c.464 0 .85-.122 1.154-.368s.53-.57.676-.98a3.9 3.9 0 0 0 .224-1.347c0-.488-.075-.935-.224-1.343s-.37-.74-.676-.99-.7-.373-1.154-.373-.855.124-1.163.373a2.22 2.22 0 0 0-.681.989c-.146.408-.22.855-.22 1.343s.073.94.22 1.347.376.734.68.98.696.368 1.163.368zm10.937-4.678l-1.348.24a1.6 1.6 0 0 0-.268-.493 1.33 1.33 0 0 0-.487-.382c-.206-.1-.463-.15-.77-.15-.42 0-.772.095-1.054.284s-.423.426-.423.72a.76.76 0 0 0 .284.616c.19.156.494.284.915.383l1.213.278c.702.163 1.226.413 1.57.75s.517.777.517 1.318c0 .457-.133.865-.398 1.223s-.628.633-1.1.835-1.01.303-1.625.303c-.856 0-1.553-.182-2.093-.547a2.31 2.31 0 0 1-.995-1.566l1.437-.22c.1.375.273.658.552.85s.64.283 1.09.283c.487 0 .876-.1 1.168-.303s.437-.456.437-.75a.78.78 0 0 0-.268-.602c-.176-.162-.446-.285-.8-.367l-1.293-.284c-.713-.162-1.24-.42-1.58-.775s-.507-.804-.507-1.348c0-.45.126-.845.378-1.183s.6-.602 1.044-.8.953-.29 1.526-.29c.825 0 1.475.18 1.95.537a2.5 2.5 0 0 1 .94 1.427zm6.62 2.605v-4.47H302V134h-1.462v-1.322h-.08c-.176.407-.458.747-.845 1.02s-.864.402-1.437.402c-.49 0-.925-.107-1.303-.323s-.67-.542-.885-.97-.318-.956-.318-1.586v-4.857h1.487v4.678c0 .52.144.935.432 1.243s.663.462 1.124.462c.278 0 .555-.07.83-.21s.51-.35.69-.63.277-.64.274-1.074zm3.488 3.167v-7.636h1.437v1.213h.08a1.85 1.85 0 0 1 .735-.97c.355-.238.756-.358 1.204-.358l.328.01.303.025v1.422a2.61 2.61 0 0 0-.318-.055 3.07 3.07 0 0 0-.458-.035 1.94 1.94 0 0 0-.939.224 1.67 1.67 0 0 0-.647.612c-.16.258-.238.553-.238.885V134h-1.487zm8.39.154c-.752 0-1.4-.16-1.944-.482s-.958-.78-1.253-1.367-.437-1.28-.437-2.073c0-.783.146-1.472.437-2.07s.706-1.062 1.233-1.397 1.15-.502 1.86-.502c.43 0 .848.07 1.253.214s.767.366 1.088.67.575.7.76 1.188.278 1.073.278 1.765v.527h-6.07v-1.113h4.614c0-.39-.08-.738-.24-1.04a1.8 1.8 0 0 0-.671-.721c-.285-.176-.62-.264-1.004-.264-.418 0-.783.103-1.094.308a2.08 2.08 0 0 0-.716.796c-.166.325-.25.678-.25 1.06v.87c0 .5.1.944.27 1.302a1.94 1.94 0 0 0 .761.821c.324.185.704.278 1.138.278a2.38 2.38 0 0 0 .771-.119 1.67 1.67 0 0 0 .601-.368 1.59 1.59 0 0 0 .388-.602l1.407.254c-.113.414-.315.777-.607 1.09s-.65.548-1.088.72-.93.253-1.487.253z" fill="#e02424"/></g><g fill="#131520"><path d="M77.12 259v-10.182h1.536v8.86h4.614V259h-6.15zm11.074.154c-.752 0-1.4-.16-1.944-.482s-.958-.78-1.253-1.367-.437-1.28-.437-2.073c0-.783.146-1.472.438-2.07s.706-1.062 1.233-1.397 1.15-.502 1.86-.502a3.73 3.73 0 0 1 1.253.214 3.04 3.04 0 0 1 1.089.671c.32.305.575.7.76 1.188s.278 1.073.278 1.765v.527H85.4v-1.113h4.614c0-.39-.08-.738-.24-1.04a1.8 1.8 0 0 0-.671-.721c-.285-.176-.62-.264-1.004-.264-.418 0-.782.103-1.094.308s-.547.468-.716.796-.25.678-.25 1.06v.87c0 .5.1.944.27 1.302s.436.632.76.82.704.278 1.14.278a2.38 2.38 0 0 0 .771-.119 1.67 1.67 0 0 0 .602-.368c.17-.162.298-.363.388-.602l1.407.254a2.55 2.55 0 0 1-.606 1.089 2.95 2.95 0 0 1-1.089.721c-.434.17-.93.253-1.486.253zm7.148.015c-.484 0-.92-.09-1.312-.268s-.7-.446-.93-.79-.338-.767-.338-1.268c0-.43.083-.785.25-1.064a1.84 1.84 0 0 1 .671-.661c.282-.162.597-.285.945-.368s.703-.146 1.064-.19l1.114-.13c.285-.036.492-.094.62-.174s.194-.21.194-.388v-.034c0-.435-.123-.77-.368-1s-.603-.358-1.084-.358c-.5 0-.895.11-1.183.333s-.482.463-.592.73l-1.397-.318c.166-.464.408-.838.726-1.124s.69-.497 1.11-.626.857-.2 1.317-.2c.305 0 .628.037.97.1a2.82 2.82 0 0 1 .965.387c.302.19.55.46.74.81s.288.8.288 1.357V259h-1.452v-1.044h-.06c-.096.192-.24.38-.433.567s-.44.34-.74.462-.663.184-1.084.184zm.323-1.193c.41 0 .762-.08 1.054-.244a1.7 1.7 0 0 0 .671-.636 1.65 1.65 0 0 0 .234-.85v-.985c-.053.053-.156.103-.308.15a4.79 4.79 0 0 1-.512.114l-.562.084-.457.06a3.67 3.67 0 0 0-.79.184 1.35 1.35 0 0 0-.567.373c-.14.16-.21.37-.21.636 0 .368.136.647.408.835s.618.28 1.04.28zm6.792-1.566l-.01-1.815h.26l3.043-3.23h1.78l-3.47 3.68h-.233l-1.368 1.367zm-1.367 2.6v-10.182h1.487V259h-1.487zm4.823 0l-2.735-3.63 1.024-1.04 3.535 4.668h-1.824zm5.947.154c-.753 0-1.4-.16-1.944-.482s-.958-.78-1.253-1.367-.437-1.28-.437-2.073c0-.783.145-1.472.437-2.07s.706-1.062 1.233-1.397 1.15-.502 1.86-.502a3.73 3.73 0 0 1 1.253.214 3.03 3.03 0 0 1 1.089.671c.322.305.575.7.76 1.188s.278 1.073.278 1.765v.527h-6.07v-1.113h4.613c0-.39-.08-.738-.238-1.04a1.8 1.8 0 0 0-.671-.721c-.285-.176-.62-.264-1.005-.264-.417 0-.782.103-1.093.308a2.07 2.07 0 0 0-.716.796c-.166.325-.25.678-.25 1.06v.87c0 .5.1.944.27 1.302a1.94 1.94 0 0 0 .76.821c.325.185.705.278 1.14.278.28 0 .538-.04.77-.12s.433-.206.602-.368a1.6 1.6 0 0 0 .388-.602l1.407.254c-.113.414-.315.777-.607 1.09s-.65.548-1.09.72-.93.253-1.486.253zm7.784-.005c-.616 0-1.167-.157-1.65-.472s-.86-.77-1.134-1.357-.408-1.298-.408-2.123.138-1.532.413-2.118.66-1.036 1.143-1.347 1.033-.468 1.646-.468c.474 0 .855.08 1.144.24s.517.338.676.547a4.53 4.53 0 0 1 .377.552h.1v-3.784h1.486V259h-1.45v-1.188h-.125c-.09.162-.218.348-.387.557s-.395.39-.686.546-.67.234-1.134.234zm.328-1.268c.428 0 .79-.112 1.084-.338s.524-.545.676-.95.234-.875.234-1.412c0-.53-.076-.995-.23-1.392a2.04 2.04 0 0 0-.671-.93c-.295-.222-.66-.333-1.094-.333-.447 0-.82.116-1.118.348s-.524.55-.677.95-.223.853-.223 1.357c0 .5.076.97.228 1.377s.378.73.677.97.672.353 1.113.353zm11.395 1.12l-2.824-10.182h1.616l1.984 7.885h.094l2.063-7.885h1.6l2.063 7.9h.095l1.98-7.9h1.62L138.828 259h-1.546l-2.142-7.626h-.08L132.917 259h-1.55zm14.037.154c-.715 0-1.34-.164-1.874-.492s-.948-.787-1.243-1.377-.442-1.28-.442-2.068c0-.793.147-1.485.442-2.08s.7-1.053 1.243-1.382 1.16-.492 1.874-.492 1.34.164 1.875.492.948.79 1.243 1.382.442 1.286.442 2.08c0 .788-.147 1.478-.442 2.068s-.7 1.05-1.243 1.377-1.16.492-1.875.492zm.005-1.248c.464 0 .85-.122 1.154-.368s.53-.57.676-.98a3.9 3.9 0 0 0 .224-1.347c0-.488-.075-.935-.224-1.343s-.37-.74-.676-.99-.7-.373-1.154-.373-.855.124-1.163.373a2.22 2.22 0 0 0-.681.989c-.146.408-.22.855-.22 1.343s.073.94.22 1.347.376.734.68.98.696.368 1.163.368zm5.214 1.094v-7.636h1.437v1.213h.08a1.85 1.85 0 0 1 .735-.97c.355-.238.756-.358 1.204-.358l.328.01.303.025v1.422a2.61 2.61 0 0 0-.318-.055 3.07 3.07 0 0 0-.458-.035 1.94 1.94 0 0 0-.939.224 1.67 1.67 0 0 0-.647.612c-.16.258-.238.553-.238.885V259h-1.487zm7.96.15c-.617 0-1.167-.157-1.65-.472s-.858-.77-1.133-1.357-.408-1.298-.408-2.123.137-1.532.412-2.118.66-1.036 1.144-1.347a2.97 2.97 0 0 1 1.646-.468c.474 0 .855.08 1.143.24s.517.338.676.547a4.44 4.44 0 0 1 .378.552h.09v-3.784h1.487V259h-1.452v-1.188h-.124c-.09.162-.22.348-.388.557s-.394.39-.686.546-.67.234-1.133.234zm.328-1.268c.427 0 .79-.112 1.084-.338s.523-.545.676-.95.233-.875.233-1.412c0-.53-.076-.995-.228-1.392s-.377-.708-.672-.93-.66-.333-1.093-.333c-.448 0-.82.116-1.12.348s-.524.55-.676.95-.224.853-.224 1.357c0 .5.077.97.23 1.377s.378.73.676.97.673.353 1.114.353zm5.696 1.12v-10.182h3.63c.792 0 1.45.144 1.97.433s.9.682 1.168 1.183a3.58 3.58 0 0 1 .388 1.68c0 .627-.13 1.2-.393 1.69s-.65.89-1.173 1.183-1.175.432-1.964.432h-2.496v-1.302h2.357c.5 0 .907-.086 1.218-.26s.54-.414.686-.716.22-.644.22-1.03a2.3 2.3 0 0 0-.219-1.024 1.57 1.57 0 0 0-.691-.701c-.31-.17-.722-.253-1.233-.253h-1.93V259h-1.536zm8.836 0v-7.636h1.436v1.213h.08a1.85 1.85 0 0 1 .736-.97 2.11 2.11 0 0 1 1.203-.358l.328.01.303.025v1.422c-.06-.017-.165-.035-.318-.055a3.06 3.06 0 0 0-.457-.035 1.94 1.94 0 0 0-.94.224 1.66 1.66 0 0 0-.646.612c-.16.258-.24.553-.24.885V259h-1.486zm8.4.154c-.752 0-1.4-.16-1.943-.482a3.27 3.27 0 0 1-1.253-1.367c-.292-.6-.438-1.28-.438-2.073 0-.783.146-1.472.438-2.07s.706-1.062 1.233-1.397 1.15-.502 1.86-.502a3.73 3.73 0 0 1 1.253.214c.404.143.767.366 1.09.67s.575.7.76 1.188.28 1.073.28 1.765v.527h-6.07v-1.113h4.614c0-.39-.08-.738-.24-1.04s-.382-.546-.67-.72a1.87 1.87 0 0 0-1.004-.264c-.418 0-.782.103-1.094.308a2.08 2.08 0 0 0-.716.796c-.165.325-.248.678-.248 1.06v.87c0 .5.09.944.268 1.302s.436.632.76.82a2.26 2.26 0 0 0 1.138.278 2.38 2.38 0 0 0 .771-.119c.232-.083.433-.206.602-.368s.298-.363.387-.602l1.407.254a2.55 2.55 0 0 1-.606 1.089c-.29.308-.65.548-1.09.72s-.93.253-1.487.253zm10.648-5.926l-1.347.24a1.6 1.6 0 0 0-.268-.493c-.12-.155-.282-.283-.488-.382s-.462-.15-.77-.15c-.42 0-.772.095-1.054.284s-.423.426-.423.72a.76.76 0 0 0 .284.616c.19.156.493.284.914.383l1.213.278c.703.163 1.227.413 1.572.75s.517.777.517 1.318c0 .457-.133.865-.398 1.223s-.628.633-1.1.835-1.01.303-1.626.303c-.855 0-1.552-.182-2.093-.547s-.87-.9-.994-1.566l1.437-.22c.09.375.273.658.552.85s.64.283 1.088.283c.488 0 .877-.1 1.17-.303s.437-.456.437-.75a.78.78 0 0 0-.268-.602c-.176-.162-.446-.285-.81-.367l-1.292-.284c-.713-.162-1.24-.42-1.58-.775s-.507-.804-.507-1.348c0-.45.126-.845.378-1.183s.6-.602 1.044-.8.953-.29 1.526-.29c.825 0 1.475.18 1.95.537s.787.83.94 1.427zm7.506 0l-1.347.24a1.58 1.58 0 0 0-.269-.493c-.12-.155-.28-.283-.487-.382s-.462-.15-.77-.15c-.42 0-.773.095-1.054.284s-.423.426-.423.72a.76.76 0 0 0 .284.616c.188.156.493.284.914.383l1.213.278c.703.163 1.227.413 1.57.75s.517.777.517 1.318c0 .457-.132.865-.397 1.223s-.628.633-1.1.835-1.01.303-1.626.303c-.855 0-1.553-.182-2.093-.547s-.87-.9-.994-1.566l1.437-.22c.09.375.273.658.552.85s.64.283 1.088.283c.488 0 .877-.1 1.17-.303s.437-.456.437-.75a.78.78 0 0 0-.268-.602c-.176-.162-.446-.285-.81-.367l-1.292-.284c-.713-.162-1.24-.42-1.58-.775s-.507-.804-.507-1.348c0-.45.126-.845.377-1.183s.6-.602 1.044-.8.953-.29 1.527-.29c.825 0 1.475.18 1.95.537s.787.83.94 1.427zm8.348 5.92c-.617 0-1.167-.157-1.65-.472s-.858-.77-1.134-1.357-.407-1.298-.407-2.123.137-1.532.412-2.118.66-1.036 1.144-1.347a2.97 2.97 0 0 1 1.646-.468c.473 0 .855.08 1.143.24s.517.338.676.547.288.392.378.552h.09v-3.784h1.487V259h-1.452v-1.188h-.124a4.02 4.02 0 0 1-.388.557c-.166.208-.394.39-.686.546s-.67.234-1.133.234zm.328-1.268c.427 0 .79-.112 1.083-.338s.524-.545.677-.95.233-.875.233-1.412c0-.53-.076-.995-.228-1.392s-.377-.708-.672-.93-.66-.333-1.093-.333c-.448 0-.82.116-1.12.348s-.524.55-.676.95-.224.853-.224 1.357c0 .5.076.97.23 1.377s.378.73.676.97.673.353 1.114.353zm8.868 1.273c-.753 0-1.4-.16-1.944-.482s-.958-.78-1.253-1.367-.437-1.28-.437-2.073c0-.783.145-1.472.437-2.07s.706-1.062 1.233-1.397 1.15-.502 1.86-.502a3.73 3.73 0 0 1 1.253.214 3.04 3.04 0 0 1 1.089.671c.32.305.575.7.76 1.188s.278 1.073.278 1.765v.527h-6.07v-1.113h4.613c0-.39-.08-.738-.238-1.04a1.8 1.8 0 0 0-.671-.721c-.285-.176-.62-.264-1.005-.264-.417 0-.782.103-1.093.308a2.07 2.07 0 0 0-.716.796c-.166.325-.25.678-.25 1.06v.87c0 .5.1.944.27 1.302a1.94 1.94 0 0 0 .76.821c.325.185.704.278 1.14.278.28 0 .538-.04.77-.12s.433-.206.602-.368a1.6 1.6 0 0 0 .388-.602l1.407.254c-.113.414-.315.777-.607 1.09s-.65.548-1.09.72-.93.253-1.486.253zm8.5-7.8v1.193h-4.17v-1.193h4.17zm-3.053-1.83h1.487v7.224c0 .288.043.505.13.65a.67.67 0 0 0 .333.293c.14.05.3.075.453.075.12 0 .223-.008.313-.025l.21-.04.268 1.228c-.086.033-.21.067-.368.1s-.358.056-.596.06c-.39.007-.756-.063-1.094-.208s-.612-.372-.82-.677-.314-.687-.314-1.148v-7.532zm6.92 9.635c-.484 0-.922-.09-1.313-.268s-.7-.446-.93-.79-.338-.767-.338-1.268c0-.43.083-.785.25-1.064a1.84 1.84 0 0 1 .671-.661 3.53 3.53 0 0 1 .945-.368c.348-.083.702-.146 1.064-.19l1.113-.13c.285-.036.492-.094.622-.174s.194-.21.194-.388v-.034c0-.435-.123-.77-.368-1s-.603-.358-1.084-.358c-.5 0-.895.11-1.183.333s-.483.463-.592.73l-1.397-.318c.166-.464.408-.838.726-1.124a2.94 2.94 0 0 1 1.109-.626c.417-.133.856-.2 1.317-.2.305 0 .628.037.97.1s.666.198.964.387.55.46.74.81.288.8.288 1.357V259h-1.452v-1.044h-.06a2.13 2.13 0 0 1-.433.567c-.192.185-.44.34-.74.462s-.662.184-1.083.184zm.323-1.193c.41 0 .762-.08 1.054-.244s.518-.374.67-.636a1.65 1.65 0 0 0 .234-.85v-.985c-.053.053-.156.103-.31.15s-.32.08-.512.114l-.56.084-.458.06a3.66 3.66 0 0 0-.79.184c-.236.086-.425.2-.567.373s-.21.37-.21.636c0 .368.136.647.408.835s.618.28 1.04.28zm5.425 1.024v-7.636h1.487V259h-1.487zm.75-8.815c-.26 0-.48-.086-.666-.258a.84.84 0 0 1-.274-.627c0-.245.09-.454.274-.626a.93.93 0 0 1 .666-.263c.258 0 .48.087.66.263a.82.82 0 0 1 .278.626c0 .242-.092.45-.278.627a.93.93 0 0 1-.661.258zm4.222-1.367V259h-1.487v-10.182h1.487zm7.722 4.4l-1.347.24c-.057-.173-.146-.337-.27-.493s-.28-.283-.487-.382-.462-.15-.77-.15c-.42 0-.772.095-1.054.284s-.422.426-.422.72c0 .255.094.46.283.616s.494.284.915.383l1.213.278c.703.163 1.226.413 1.57.75s.517.777.517 1.318c0 .457-.132.865-.398 1.223s-.628.633-1.098.835-1 .303-1.626.303c-.855 0-1.553-.182-2.093-.547s-.872-.9-.994-1.566l1.436-.22c.1.375.274.658.552.85s.642.283 1.09.283c.487 0 .877-.1 1.168-.303s.438-.456.438-.75a.78.78 0 0 0-.269-.602c-.175-.162-.445-.285-.8-.367l-1.293-.284c-.712-.162-1.24-.42-1.58-.775s-.507-.804-.507-1.348c0-.45.126-.845.378-1.183s.6-.602 1.044-.8.953-.29 1.527-.29c.825 0 1.474.18 1.948.537s.788.83.94 1.427z"/><path d="M439.65 259h-1.293l3.74-10.182h1.272l3.74 10.182h-1.293l-3.042-8.57h-.08L439.65 259zm.477-3.977h5.2v1.093h-5.2v-1.093zm13.22.855v-4.514h1.174V259h-1.174v-1.293h-.08c-.18.388-.458.718-.835 1s-.856.402-1.432.402c-.478 0-.902-.104-1.273-.313s-.663-.53-.875-.954-.318-.966-.318-1.616v-4.852h1.173v4.772c0 .557.156 1 .467 1.333s.716.497 1.204.497c.29 0 .588-.075.89-.224s.56-.378.766-.686.313-.7.313-1.178zm6.405 6.145c-.567 0-1.054-.073-1.462-.22s-.747-.33-1.02-.567-.482-.48-.64-.746l.934-.656.403.477c.163.183.385.34.666.473s.658.204 1.12.204c.616 0 1.125-.15 1.526-.448s.602-.765.602-1.402v-1.55h-.1c-.086.14-.208.312-.368.517-.155.202-.38.383-.676.542s-.686.234-1.183.234c-.616 0-1.17-.146-1.66-.438s-.874-.716-1.16-1.273-.422-1.233-.422-2.028c0-.782.137-1.463.412-2.043s.658-1.034 1.15-1.353 1.057-.482 1.7-.482c.497 0 .892.083 1.183.25s.52.348.676.557l.368.507h.12v-1.213h1.133v7.855c0 .656-.15 1.2-.447 1.6s-.693.717-1.194.91-1.05.294-1.66.294zm-.04-4.196c.47 0 .87-.108 1.193-.323s.572-.526.74-.93.254-.888.254-1.452c0-.55-.083-1.036-.25-1.457s-.41-.75-.736-.99-.726-.358-1.203-.358c-.497 0-.91.126-1.243.378s-.575.6-.74 1.014-.244.895-.244 1.412c0 .53.083 1 .248 1.407s.418.723.746.955.743.343 1.233.343zm9.406 1.173v-.895l3.36-3.68.975-1.123c.255-.322.444-.624.566-.905a2.19 2.19 0 0 0 .189-.895c0-.358-.086-.668-.258-.93a1.67 1.67 0 0 0-.696-.606c-.295-.143-.627-.214-.995-.214-.39 0-.732.08-1.024.243a1.68 1.68 0 0 0-.671.672c-.156.288-.234.626-.234 1.014h-1.173c0-.597.138-1.12.413-1.57s.65-.802 1.123-1.054 1.013-.378 1.606-.378 1.125.126 1.586.378.822.59 1.084 1.02.393.903.393 1.427c0 .374-.068.74-.204 1.1s-.365.75-.696 1.188-.784.964-1.367 1.59l-2.287 2.446v.08h4.733V259h-6.424zm11.798.14c-.75 0-1.387-.204-1.914-.61s-.93-1.006-1.208-1.785-.418-1.727-.418-2.834c0-1.1.14-2.04.418-2.82s.686-1.38 1.213-1.8 1.167-.62 1.91-.62 1.377.207 1.904.62.935 1.008 1.213 1.8.423 1.72.423 2.82c0 1.107-.14 2.052-.418 2.834s-.68 1.374-1.208 1.785-1.165.61-1.914.61zm0-1.094c.742 0 1.32-.358 1.73-1.073s.617-1.737.617-3.063c0-.882-.095-1.632-.284-2.252s-.454-1.092-.805-1.417-.767-.487-1.258-.487c-.736 0-1.31.363-1.725 1.09s-.622 1.745-.622 3.067c0 .882.093 1.63.28 2.247s.452 1.086.8 1.407a1.81 1.81 0 0 0 1.268.482zm6.843-.437l-.08.537c-.056.378-.143.782-.26 1.213l-.353 1.218-.303.9h-.895l.17-.84.21-1.17.18-1.312.06-.557h1.272zM493.85 259v-.895l3.36-3.68.974-1.123c.255-.322.444-.624.567-.905a2.19 2.19 0 0 0 .189-.895c0-.358-.086-.668-.26-.93a1.67 1.67 0 0 0-.696-.606c-.295-.143-.626-.214-.994-.214-.39 0-.733.08-1.024.243s-.512.383-.67.672-.234.626-.234 1.014h-1.173c0-.597.137-1.12.412-1.57s.65-.802 1.124-1.054 1.012-.378 1.606-.378 1.125.126 1.586.378.822.59 1.083 1.02.393.903.393 1.427c0 .374-.068.74-.204 1.1s-.364.75-.696 1.188-.784.964-1.367 1.59l-2.287 2.446v.08h4.733V259h-6.423zm11.797.14c-.75 0-1.387-.204-1.914-.61s-.93-1.006-1.208-1.785-.417-1.727-.417-2.834c0-1.1.14-2.04.417-2.82s.686-1.38 1.213-1.8 1.167-.62 1.91-.62 1.378.207 1.905.62.934 1.008 1.213 1.8.422 1.72.422 2.82c0 1.107-.14 2.052-.417 2.834s-.682 1.374-1.21 1.785-1.165.61-1.914.61zm0-1.094c.743 0 1.32-.358 1.73-1.073s.616-1.737.616-3.063c0-.882-.094-1.632-.283-2.252s-.454-1.092-.806-1.417-.767-.487-1.258-.487c-.735 0-1.3.363-1.725 1.09s-.62 1.745-.62 3.067c0 .882.093 1.63.278 2.247s.453 1.086.8 1.407.774.482 1.267.482zm5.43.955v-.895l3.36-3.68.975-1.123c.255-.322.444-.624.566-.905a2.19 2.19 0 0 0 .189-.895c0-.358-.086-.668-.258-.93a1.67 1.67 0 0 0-.696-.606c-.295-.143-.627-.214-.995-.214-.39 0-.732.08-1.024.243a1.68 1.68 0 0 0-.671.672c-.156.288-.234.626-.234 1.014h-1.173c0-.597.138-1.12.413-1.57s.65-.802 1.123-1.054 1.013-.378 1.606-.378 1.125.126 1.586.378.822.59 1.084 1.02.393.903.393 1.427c0 .374-.068.74-.204 1.1s-.365.75-.696 1.188-.784.964-1.367 1.59l-2.287 2.446v.08h4.733V259h-6.424zm11.798.14c-.75 0-1.387-.204-1.914-.61s-.93-1.006-1.208-1.785-.418-1.727-.418-2.834c0-1.1.14-2.04.418-2.82s.686-1.38 1.213-1.8 1.167-.62 1.91-.62 1.377.207 1.904.62.935 1.008 1.213 1.8.423 1.72.423 2.82c0 1.107-.14 2.052-.418 2.834s-.68 1.374-1.208 1.785-1.165.61-1.914.61zm0-1.094c.742 0 1.32-.358 1.73-1.073s.617-1.737.617-3.063c0-.882-.095-1.632-.284-2.252s-.454-1.092-.805-1.417-.767-.487-1.258-.487c-.736 0-1.31.363-1.725 1.09s-.622 1.745-.622 3.067c0 .882.093 1.63.28 2.247s.452 1.086.8 1.407a1.81 1.81 0 0 0 1.268.482z"/></g><path stroke="#f9f9fb" d="M568.5 230v48"/><use xlink:href="#C" fill="#131520"/><path stroke="#f9f9fb" d="M40 289.5h592"/><circle cx="52" cy="254" r="12" fill="#e02424"/><g fill="#fff"><use xlink:href="#D"/><use xlink:href="#D" x="3.975"/><use xlink:href="#D" x="7.95"/><use xlink:href="#D" x="11.925"/></g><path d="M308 254c0-6.627 5.373-12 12-12h66c6.627 0 12 5.373 12 12h0c0 6.627-5.373 12-12 12h-66c-6.627 0-12-5.373-12-12h0z" fill="#fdf2f2"/><path d="M323.784 258h-2.825v-8.727h2.915c.855 0 1.59.174 2.203.524s1.084.845 1.4 1.496.495 1.424.495 2.33-.167 1.7-.5 2.343-.807 1.157-1.432 1.51-1.38.524-2.267.524zm-1.508-1.15h1.436c.664 0 1.217-.125 1.657-.375s.77-.617.99-1.095.328-1.065.328-1.755-.11-1.266-.328-1.743-.538-.84-.967-1.087-.962-.37-1.598-.37h-1.517v6.426zm8.24 1.15v-6.545h1.274V258h-1.274zm.643-7.555a.81.81 0 0 1-.571-.222c-.156-.15-.234-.33-.234-.537s.078-.39.234-.537.35-.226.57-.226a.79.79 0 0 1 .567.226c.16.148.24.327.24.537s-.08.386-.24.537-.345.222-.567.222zm8.25 2.608l-1.155.204c-.048-.148-.125-.288-.23-.422a1.14 1.14 0 0 0-.418-.328c-.176-.085-.396-.128-.66-.128-.36 0-.662.08-.904.243s-.362.365-.362.618a.65.65 0 0 0 .243.528c.162.134.423.243.784.33l1.04.238c.602.14 1.05.354 1.346.644s.444.666.444 1.13c0 .392-.114.74-.34 1.048s-.54.543-.942.716-.865.26-1.393.26c-.733 0-1.33-.156-1.795-.47s-.747-.762-.852-1.342l1.232-.187c.076.32.234.563.473.728s.55.243.933.243c.418 0 .75-.087 1-.26s.375-.4.375-.643c0-.205-.076-.377-.23-.516s-.382-.244-.694-.315l-1.108-.243c-.61-.14-1.063-.36-1.355-.665s-.435-.69-.435-1.155a1.65 1.65 0 0 1 .324-1.014c.216-.3.514-.516.895-.678s.816-.247 1.308-.247c.707 0 1.264.154 1.67.46s.675.71.806 1.223zm5.286 5.08c-.634 0-1.18-.143-1.637-.43a2.85 2.85 0 0 1-1.048-1.198c-.244-.508-.366-1.09-.366-1.747 0-.665.125-1.25.375-1.76s.602-.9 1.056-1.197 1-.43 1.607-.43c.497 0 .94.093 1.33.277a2.38 2.38 0 0 1 .942.767c.242.33.385.715.43 1.155h-1.24a1.49 1.49 0 0 0-.469-.792c-.242-.222-.566-.333-.972-.333-.355 0-.666.094-.933.28s-.47.45-.618.793-.222.744-.222 1.2c0 .478.073.89.218 1.236s.35.615.613.805.58.286.942.286c.242 0 .46-.044.656-.132a1.34 1.34 0 0 0 .499-.388c.136-.168.232-.37.286-.605h1.24c-.046.423-.184.8-.414 1.133a2.38 2.38 0 0 1-.924.785c-.384.2-.834.285-1.35.285zm6.325-8.86V258h-1.274v-8.727h1.274zm5.472 8.86c-.614 0-1.15-.14-1.607-.422s-.812-.674-1.065-1.18-.38-1.097-.38-1.773.127-1.273.38-1.78.608-.904 1.065-1.185.993-.422 1.607-.422 1.15.14 1.606.422.813.676 1.065 1.185.38 1.102.38 1.78-.127 1.267-.38 1.773-.608.9-1.065 1.18-.993.422-1.606.422zm.004-1.07c.398 0 .727-.105.988-.315s.455-.5.58-.84a3.34 3.34 0 0 0 .192-1.155c0-.418-.064-.8-.192-1.15s-.318-.635-.58-.848-.6-.32-.988-.32-.733.106-.997.32-.456.496-.584.848-.188.733-.188 1.15.063.805.188 1.155.322.63.584.84.596.315.997.315zm10.374-4.01l-1.155.204c-.048-.148-.125-.288-.23-.422a1.14 1.14 0 0 0-.418-.328c-.176-.085-.396-.128-.66-.128-.36 0-.662.08-.904.243s-.362.365-.362.618a.65.65 0 0 0 .243.528c.162.134.423.243.784.33l1.04.238c.602.14 1.05.354 1.346.644s.444.666.444 1.13c0 .392-.114.74-.34 1.048s-.54.543-.942.716-.865.26-1.394.26c-.733 0-1.33-.156-1.794-.47s-.747-.762-.852-1.342l1.232-.187c.076.32.234.563.473.728s.55.243.933.243c.418 0 .75-.087 1-.26s.375-.4.375-.643c0-.205-.076-.377-.23-.516s-.382-.244-.694-.315l-1.108-.243c-.61-.14-1.063-.36-1.355-.665s-.435-.69-.435-1.155a1.65 1.65 0 0 1 .324-1.014c.216-.3.514-.516.895-.678s.816-.247 1.308-.247c.707 0 1.264.154 1.67.46s.675.71.806 1.223zm5.35 5.08c-.645 0-1.2-.138-1.667-.413s-.82-.67-1.074-1.172-.375-1.098-.375-1.777c0-.67.125-1.26.375-1.773a2.92 2.92 0 0 1 1.057-1.197c.455-.287.986-.43 1.594-.43a3.19 3.19 0 0 1 1.074.184 2.59 2.59 0 0 1 .933.575c.276.26.493.6.652 1.018s.24.92.24 1.513v.452h-5.203v-.955h3.954c0-.335-.068-.632-.204-.9a1.54 1.54 0 0 0-.576-.618c-.244-.15-.53-.226-.86-.226-.358 0-.67.088-.938.264s-.47.4-.614.682-.213.58-.213.908v.745c0 .438.077.8.23 1.117a1.67 1.67 0 0 0 .652.703c.28.16.604.24.976.24.242 0 .462-.035.66-.103s.37-.176.515-.315a1.37 1.37 0 0 0 .333-.516l1.206.218a2.19 2.19 0 0 1-.52.933c-.247.264-.558.47-.933.618a3.49 3.49 0 0 1-1.274.217zm7.672-.004c-.53 0-1-.135-1.415-.405s-.736-.66-.972-1.163-.35-1.113-.35-1.82.118-1.312.354-1.815.565-.888.98-1.155a2.55 2.55 0 0 1 1.41-.401c.407 0 .733.07.98.205a1.74 1.74 0 0 1 .58.469 3.97 3.97 0 0 1 .324.473h.077v-3.243h1.274V258h-1.245v-1.018h-.106a3.41 3.41 0 0 1-.333.477c-.142.18-.338.335-.588.47s-.574.2-.97.2zm.28-1.087c.366 0 .676-.096.93-.3s.45-.467.58-.813.2-.75.2-1.21c0-.454-.066-.852-.196-1.193s-.323-.606-.575-.797-.566-.285-.938-.285c-.384 0-.703.1-.96.298s-.45.47-.58.814-.192.73-.192 1.163c0 .438.065.83.196 1.18a1.89 1.89 0 0 0 .579.831c.26.2.577.302.955.302z" fill="#ef1700"/><g fill="#131520"><path d="M82.672 323.493c-.053-.47-.272-.835-.656-1.094s-.868-.393-1.452-.393c-.418 0-.78.067-1.084.2s-.542.308-.71.537a1.27 1.27 0 0 0-.249.771c0 .242.056.45.17.626s.267.323.452.443a3.45 3.45 0 0 0 .607.293l.62.19.994.258c.325.08.658.188 1 .324s.658.314.95.537a2.57 2.57 0 0 1 .706.825c.182.328.273.72.273 1.178 0 .577-.15 1.09-.447 1.536s-.724.8-1.288 1.06-1.238.388-2.033.388c-.762 0-1.422-.12-1.98-.363s-.993-.585-1.308-1.03-.49-.978-.522-1.59h1.54c.03.368.15.675.358.92a1.94 1.94 0 0 0 .81.542c.332.116.694.174 1.09.174.434 0 .82-.068 1.158-.204s.6-.332.805-.577.293-.538.293-.87c0-.3-.086-.548-.258-.74s-.4-.35-.69-.477a6.73 6.73 0 0 0-.979-.333l-1.203-.328c-.815-.222-1.462-.55-1.94-.98s-.71-1-.71-1.7c0-.586.16-1.098.477-1.536s.75-.777 1.293-1.02 1.157-.368 1.84-.368c.69 0 1.298.12 1.825.363s.948.575 1.253 1 .464.905.477 1.452h-1.482zM89.425 331h-3.296v-10.182h3.4c.998 0 1.854.204 2.57.612s1.264.986 1.646 1.745.577 1.662.577 2.72-.194 1.972-.582 2.735-.94 1.35-1.67 1.76-1.61.612-2.645.612zm-1.76-1.342h1.675c.776 0 1.42-.146 1.934-.438s.898-.72 1.153-1.278.383-1.242.383-2.048c0-.8-.128-1.476-.383-2.033s-.628-.98-1.13-1.268-1.122-.432-1.864-.432h-1.77v7.497zm8.567-8.84h1.864l3.242 7.915h.12l3.242-7.915h1.864V331H105.1v-7.368h-.094l-3.003 7.353h-1.213l-3.003-7.358h-.094V331h-1.462v-10.182zm13.633 0l2.436 3.982h.08l2.436-3.982h1.78l-3.172 5.09 3.192 5.09h-1.8l-2.446-3.928h-.08L109.855 331h-1.79l3.246-5.09-3.227-5.09h1.78zm15.476 2.546v1.193h-4.316v-1.193h4.316zM122.208 331v-8.52c0-.478.105-.874.314-1.19s.485-.555.83-.7.72-.24 1.123-.24c.3 0 .554.025.766.074s.37.1.472.13l-.348 1.203-.268-.07c-.11-.03-.242-.044-.398-.044-.36 0-.62.09-.775.268s-.23.437-.23.776V331h-1.487zm4.666 0v-7.636h1.437v1.213h.08a1.85 1.85 0 0 1 .735-.97c.355-.238.756-.358 1.204-.358l.328.01.303.025v1.422a2.61 2.61 0 0 0-.318-.055 3.07 3.07 0 0 0-.458-.035 1.94 1.94 0 0 0-.939.224 1.67 1.67 0 0 0-.647.612c-.16.258-.238.553-.238.885V331h-1.487zm8.317.154c-.716 0-1.34-.164-1.875-.492s-.948-.787-1.243-1.377-.442-1.28-.442-2.068.147-1.485.442-2.08.7-1.053 1.243-1.382 1.16-.492 1.875-.492 1.34.164 1.874.492.948.79 1.243 1.382.442 1.286.442 2.08-.147 1.478-.442 2.068-.7 1.05-1.243 1.377-1.16.492-1.874.492zm.004-1.248c.465 0 .85-.122 1.154-.368s.53-.57.676-.98a3.9 3.9 0 0 0 .224-1.347c0-.488-.075-.935-.224-1.343s-.37-.74-.676-.99-.69-.373-1.154-.373-.855.124-1.163.373a2.22 2.22 0 0 0-.681.989c-.146.408-.22.855-.22 1.343s.073.94.22 1.347.376.734.68.98.696.368 1.163.368zm6.7-3.44V331h-1.487v-7.636h1.427v1.243h.095c.175-.405.45-.73.825-.975s.853-.368 1.427-.368c.52 0 .976.1 1.367.328a2.2 2.2 0 0 1 .91.965c.215.427.323.956.323 1.586V331h-1.486v-4.678c0-.554-.145-.986-.433-1.298s-.684-.472-1.188-.472c-.345 0-.65.074-.92.224s-.476.367-.63.656-.23.63-.23 1.034zm10.445-3.102v1.193h-4.17v-1.193h4.17zm-3.052-1.83h1.486v7.224c0 .288.043.505.13.65s.198.24.334.293.3.075.452.075c.12 0 .224-.008.313-.025l.21-.04.268 1.228a2.47 2.47 0 0 1-.367.1c-.16.036-.358.056-.597.06-.39.007-.756-.063-1.094-.208a1.88 1.88 0 0 1-.82-.677c-.21-.304-.313-.687-.313-1.148v-7.532zm7.906 9.62c-.753 0-1.4-.16-1.944-.482s-.958-.78-1.253-1.367-.437-1.28-.437-2.073c0-.783.145-1.472.437-2.07s.706-1.062 1.233-1.397 1.15-.502 1.86-.502a3.73 3.73 0 0 1 1.253.214 3.04 3.04 0 0 1 1.089.671c.32.305.575.7.76 1.188s.278 1.073.278 1.765v.527h-6.07v-1.113h4.613c0-.39-.08-.738-.238-1.04a1.8 1.8 0 0 0-.671-.721c-.285-.176-.62-.264-1.005-.264-.417 0-.782.103-1.093.308a2.07 2.07 0 0 0-.716.796c-.166.325-.25.678-.25 1.06v.87c0 .5.1.944.27 1.302a1.94 1.94 0 0 0 .76.821c.325.185.705.278 1.14.278.28 0 .538-.04.77-.12s.433-.206.602-.368a1.6 1.6 0 0 0 .388-.602l1.407.254c-.113.414-.315.777-.607 1.09s-.65.548-1.09.72-.93.253-1.486.253zm6.412-4.688V331h-1.487v-7.636h1.427v1.243h.095a2.17 2.17 0 0 1 .825-.975c.378-.245.853-.368 1.427-.368.52 0 .976.1 1.367.328a2.2 2.2 0 0 1 .91.965c.215.427.323.956.323 1.586V331h-1.487v-4.678c0-.554-.144-.986-.432-1.298s-.684-.472-1.188-.472c-.345 0-.652.074-.92.224s-.476.367-.63.656-.23.63-.23 1.034zm9.74 4.683c-.616 0-1.166-.157-1.65-.472s-.86-.77-1.134-1.357-.408-1.298-.408-2.123.138-1.532.413-2.118.66-1.036 1.144-1.347 1.032-.468 1.645-.468c.474 0 .855.08 1.144.24s.517.338.676.547a4.67 4.67 0 0 1 .378.552h.09v-3.784h1.487V331h-1.452v-1.188h-.124a4.02 4.02 0 0 1-.388.557c-.166.208-.395.39-.686.546s-.67.234-1.134.234zm.328-1.268c.428 0 .79-.112 1.084-.338s.524-.545.676-.95.234-.875.234-1.412c0-.53-.076-.995-.23-1.392a2.04 2.04 0 0 0-.671-.93c-.295-.222-.66-.333-1.094-.333-.447 0-.82.116-1.118.348s-.524.55-.676.95-.224.853-.224 1.357c0 .5.076.97.23 1.377s.377.73.676.97.673.353 1.113.353zm12.5 1.273c-.74 0-1.376-.167-1.91-.502s-.938-.804-1.223-1.397-.428-1.273-.428-2.038c0-.776.146-1.46.438-2.054s.702-1.062 1.233-1.397 1.155-.502 1.874-.502c.58 0 1.097.108 1.55.323a2.79 2.79 0 0 1 1.099.895c.282.385.45.834.502 1.348h-1.447a1.73 1.73 0 0 0-.547-.925c-.28-.26-.66-.388-1.133-.388-.414 0-.777.11-1.09.328s-.548.524-.72.925-.258.868-.258 1.412c0 .557.084 1.037.253 1.442s.408.717.716.94.678.333 1.1.333c.282 0 .537-.05.766-.154s.425-.257.58-.452.27-.43.333-.706h1.447c-.053.494-.214.934-.482 1.322s-.628.693-1.08.915-.973.333-1.576.333zm7.943 0c-.716 0-1.34-.164-1.874-.492s-.948-.787-1.243-1.377-.442-1.28-.442-2.068.147-1.485.442-2.08.71-1.053 1.243-1.382 1.158-.492 1.874-.492 1.34.164 1.875.492.948.79 1.242 1.382.443 1.286.443 2.08-.148 1.478-.443 2.068-.71 1.05-1.242 1.377-1.16.492-1.875.492zm.005-1.248c.464 0 .85-.122 1.154-.368s.53-.57.676-.98a3.9 3.9 0 0 0 .224-1.347c0-.488-.075-.935-.224-1.343s-.37-.74-.676-.99-.7-.373-1.154-.373-.855.124-1.163.373a2.22 2.22 0 0 0-.681.989c-.146.408-.22.855-.22 1.343s.073.94.22 1.347.376.734.68.98.696.368 1.163.368zm6.7-3.44V331h-1.487v-7.636h1.427v1.243h.095a2.17 2.17 0 0 1 .825-.975c.378-.245.853-.368 1.427-.368.52 0 .976.1 1.367.328a2.2 2.2 0 0 1 .91.965c.215.427.323.956.323 1.586V331h-1.487v-4.678c0-.554-.144-.986-.432-1.298s-.685-.472-1.188-.472c-.345 0-.652.074-.92.224s-.476.367-.632.656-.228.63-.228 1.034zm10.515-3.102v1.193h-4.316v-1.193h4.316zM208.205 331v-8.52c0-.478.104-.874.313-1.19s.485-.555.83-.7.72-.24 1.124-.24a3.44 3.44 0 0 1 .765.074 3.53 3.53 0 0 1 .473.13l-.348 1.203-.27-.07c-.11-.03-.242-.044-.398-.044-.36 0-.62.09-.775.268s-.23.437-.23.776V331h-1.486zm4.665 0v-7.636h1.487V331h-1.487zm.75-8.815c-.258 0-.48-.086-.666-.258s-.274-.385-.274-.627a.83.83 0 0 1 .274-.626c.186-.176.408-.263.666-.263s.48.087.66.263a.82.82 0 0 1 .279.626c0 .242-.093.45-.28.627s-.402.258-.66.258zm5.937 11.823c-.606 0-1.128-.08-1.566-.24s-.788-.37-1.064-.63-.48-.54-.616-.845l1.278-.527c.09.14.208.3.358.452s.358.302.616.418.598.174 1.01.174c.564 0 1.03-.136 1.397-.408s.552-.703.552-1.293v-1.5h-.094a3.45 3.45 0 0 1-.388.542c-.166.2-.394.37-.686.517s-.67.22-1.14.22c-.603 0-1.146-.14-1.63-.423s-.862-.704-1.144-1.258-.417-1.24-.417-2.053.137-1.508.412-2.088.66-1.024 1.144-1.332 1.032-.468 1.645-.468c.474 0 .857.08 1.15.24a2.11 2.11 0 0 1 .681.547 4.33 4.33 0 0 1 .383.552h.11v-1.238h1.457v7.805c0 .65-.153 1.183-.458 1.6s-.717.732-1.238.935-1.1.303-1.75.303zm-.014-4.355c.427 0 .788-.1 1.083-.3s.524-.5.676-.865.234-.83.234-1.357c0-.514-.076-.966-.23-1.357s-.376-.696-.67-.915-.66-.333-1.093-.333c-.448 0-.82.116-1.12.348s-.524.54-.676.935-.224.835-.224 1.322c0 .5.076.94.23 1.318s.378.672.676.885.673.318 1.114.318zm10.29-1.82v-4.47h1.49V331h-1.46v-1.322h-.08c-.176.407-.457.747-.845 1.02s-.864.402-1.437.402c-.49 0-.925-.107-1.303-.323s-.67-.542-.884-.97-.32-.956-.32-1.586v-4.857h1.487v4.678c0 .52.144.935.432 1.243s.663.462 1.124.462c.278 0 .555-.07.83-.21s.51-.35.69-.63.277-.64.274-1.074zm3.49 3.167v-7.636h1.436v1.213h.08c.14-.41.384-.734.736-.97s.755-.358 1.203-.358l.328.01.303.025v1.422a2.61 2.61 0 0 0-.318-.055 3.06 3.06 0 0 0-.457-.035 1.94 1.94 0 0 0-.94.224 1.66 1.66 0 0 0-.646.612c-.16.258-.24.553-.24.885V331h-1.486zm7.526.17c-.483 0-.92-.09-1.312-.268s-.7-.446-.93-.79-.338-.767-.338-1.268c0-.43.083-.785.25-1.064a1.84 1.84 0 0 1 .671-.661 3.53 3.53 0 0 1 .945-.368c.348-.083.702-.146 1.064-.19l1.113-.13c.285-.036.492-.094.622-.174s.193-.21.193-.388v-.034c0-.435-.122-.77-.367-1s-.604-.358-1.084-.358c-.5 0-.895.11-1.183.333s-.483.463-.592.73l-1.397-.318c.166-.464.408-.838.726-1.124s.69-.497 1.108-.626a4.32 4.32 0 0 1 1.318-.199c.305 0 .628.037.97.1a2.82 2.82 0 0 1 .965.387c.3.19.548.46.74.81s.288.8.288 1.357V331h-1.452v-1.044h-.06c-.097.192-.24.38-.433.567s-.44.34-.74.462-.663.184-1.084.184zm.324-1.193c.41 0 .762-.08 1.054-.244s.518-.374.67-.636a1.65 1.65 0 0 0 .233-.85v-.985c-.053.053-.155.103-.308.15a4.79 4.79 0 0 1-.512.114l-.562.084-.457.06c-.288.036-.552.098-.79.184s-.424.2-.566.373-.21.37-.21.636c0 .368.136.647.408.835s.618.28 1.04.28zm9-6.612v1.193h-4.172v-1.193h4.172zm-3.053-1.83h1.486v7.224c0 .288.044.505.13.65a.67.67 0 0 0 .333.293c.14.05.3.075.452.075a1.69 1.69 0 0 0 .313-.025l.21-.04.27 1.228c-.086.033-.21.067-.368.1s-.358.056-.597.06a2.63 2.63 0 0 1-1.094-.208 1.88 1.88 0 0 1-.82-.677c-.21-.304-.313-.687-.313-1.148v-7.532zm4.697 9.466v-7.636h1.486V331h-1.486zm.75-8.815c-.26 0-.48-.086-.667-.258s-.273-.385-.273-.627a.83.83 0 0 1 .273-.626c.186-.176.408-.263.667-.263s.48.087.66.263.278.38.278.626-.093.45-.278.627a.93.93 0 0 1-.661.258zm5.952 8.97c-.716 0-1.34-.164-1.874-.492s-.948-.787-1.243-1.377-.443-1.28-.443-2.068.148-1.485.443-2.08.71-1.053 1.243-1.382 1.158-.492 1.874-.492 1.34.164 1.874.492.948.79 1.243 1.382.442 1.286.442 2.08-.147 1.478-.442 2.068-.71 1.05-1.243 1.377-1.158.492-1.874.492zm.005-1.248c.464 0 .848-.122 1.153-.368s.53-.57.676-.98a3.9 3.9 0 0 0 .224-1.347c0-.488-.075-.935-.224-1.343a2.18 2.18 0 0 0-.676-.989c-.305-.25-.69-.373-1.153-.373s-.855.124-1.164.373c-.304.25-.532.578-.68.99s-.218.855-.218 1.343.073.94.218 1.347.377.734.68.98c.31.246.696.368 1.164.368zm6.7-3.44V331h-1.486v-7.636h1.427v1.243h.094c.176-.405.45-.73.825-.975s.854-.368 1.427-.368c.52 0 .976.1 1.367.328s.695.537.9.965.323.956.323 1.586V331h-1.486v-4.678c0-.554-.144-.986-.433-1.298s-.684-.472-1.188-.472c-.345 0-.65.074-.92.224s-.475.367-.63.656-.23.63-.23 1.034z"/><path d="M439.65 331h-1.293l3.74-10.182h1.272l3.74 10.182h-1.293l-3.042-8.57h-.08L439.65 331zm.477-3.977h5.2v1.093h-5.2v-1.093zm13.22.855v-4.514h1.174V331h-1.174v-1.293h-.08c-.18.388-.458.718-.835 1s-.856.402-1.432.402c-.478 0-.902-.104-1.273-.313s-.663-.53-.875-.954-.318-.966-.318-1.616v-4.852h1.173v4.772c0 .557.156 1 .467 1.333s.716.497 1.204.497c.29 0 .588-.075.89-.224s.56-.378.766-.686.313-.7.313-1.178zm6.405 6.145c-.567 0-1.054-.073-1.462-.22s-.747-.33-1.02-.567-.482-.48-.64-.746l.934-.656.403.477c.163.183.385.34.666.473s.658.204 1.12.204c.616 0 1.125-.15 1.526-.448s.602-.765.602-1.402v-1.55h-.1c-.086.14-.208.312-.368.517-.155.202-.38.383-.676.542s-.686.234-1.183.234c-.616 0-1.17-.146-1.66-.438s-.874-.716-1.16-1.273-.422-1.233-.422-2.028c0-.782.137-1.463.412-2.043s.658-1.034 1.15-1.353 1.057-.482 1.7-.482c.497 0 .892.083 1.183.25s.52.348.676.557l.368.507h.12v-1.213h1.133v7.855c0 .656-.15 1.2-.447 1.6s-.693.717-1.194.91-1.05.294-1.66.294zm-.04-4.196c.47 0 .87-.108 1.193-.323s.572-.526.74-.93.254-.888.254-1.452c0-.55-.083-1.036-.25-1.457s-.41-.75-.736-.99-.726-.358-1.203-.358c-.497 0-.91.126-1.243.378s-.575.6-.74 1.014-.244.895-.244 1.412c0 .53.083 1 .248 1.407s.418.723.746.955.743.343 1.233.343zm9.406 1.173v-.895l3.36-3.68.975-1.123c.255-.322.444-.624.566-.905a2.19 2.19 0 0 0 .189-.895c0-.358-.086-.668-.258-.93a1.67 1.67 0 0 0-.696-.606c-.295-.143-.627-.214-.995-.214-.39 0-.732.08-1.024.243a1.68 1.68 0 0 0-.671.672c-.156.288-.234.626-.234 1.014h-1.173c0-.597.138-1.12.413-1.57s.65-.802 1.123-1.054 1.013-.378 1.606-.378 1.125.126 1.586.378.822.59 1.084 1.02.393.903.393 1.427c0 .374-.068.74-.204 1.1s-.365.75-.696 1.188-.784.964-1.367 1.59l-2.287 2.446v.08h4.733V331h-6.424zm11.798.14c-.75 0-1.387-.204-1.914-.61s-.93-1.006-1.208-1.785-.418-1.727-.418-2.834c0-1.1.14-2.04.418-2.82s.686-1.38 1.213-1.8 1.167-.62 1.91-.62 1.377.207 1.904.62.935 1.008 1.213 1.8.423 1.72.423 2.82c0 1.107-.14 2.052-.418 2.834s-.68 1.374-1.208 1.785-1.165.61-1.914.61zm0-1.094c.742 0 1.32-.358 1.73-1.073s.617-1.737.617-3.063c0-.882-.095-1.632-.284-2.252s-.454-1.092-.805-1.417-.767-.487-1.258-.487c-.736 0-1.31.363-1.725 1.09s-.622 1.745-.622 3.067c0 .882.093 1.63.28 2.247s.452 1.086.8 1.407a1.81 1.81 0 0 0 1.268.482zm6.843-.437l-.08.537c-.056.378-.143.782-.26 1.213l-.353 1.218-.303.9h-.895l.17-.84.21-1.17.18-1.312.06-.557h1.272zM493.85 331v-.895l3.36-3.68.974-1.123c.255-.322.444-.624.567-.905a2.19 2.19 0 0 0 .189-.895c0-.358-.086-.668-.26-.93a1.67 1.67 0 0 0-.696-.606c-.295-.143-.626-.214-.994-.214-.39 0-.733.08-1.024.243s-.512.383-.67.672-.234.626-.234 1.014h-1.173c0-.597.137-1.12.412-1.57s.65-.802 1.124-1.054 1.012-.378 1.606-.378 1.125.126 1.586.378.822.59 1.083 1.02.393.903.393 1.427c0 .374-.068.74-.204 1.1s-.364.75-.696 1.188-.784.964-1.367 1.59l-2.287 2.446v.08h4.733V331h-6.423zm11.797.14c-.75 0-1.387-.204-1.914-.61s-.93-1.006-1.208-1.785-.417-1.727-.417-2.834c0-1.1.14-2.04.417-2.82s.686-1.38 1.213-1.8 1.167-.62 1.91-.62 1.378.207 1.905.62.934 1.008 1.213 1.8.422 1.72.422 2.82c0 1.107-.14 2.052-.417 2.834s-.682 1.374-1.21 1.785-1.165.61-1.914.61zm0-1.094c.743 0 1.32-.358 1.73-1.073s.616-1.737.616-3.063c0-.882-.094-1.632-.283-2.252s-.454-1.092-.806-1.417-.767-.487-1.258-.487c-.735 0-1.3.363-1.725 1.09s-.62 1.745-.62 3.067c0 .882.093 1.63.278 2.247s.453 1.086.8 1.407.774.482 1.267.482zm5.43.955v-.895l3.36-3.68.975-1.123c.255-.322.444-.624.566-.905a2.19 2.19 0 0 0 .189-.895c0-.358-.086-.668-.258-.93a1.67 1.67 0 0 0-.696-.606c-.295-.143-.627-.214-.995-.214-.39 0-.732.08-1.024.243a1.68 1.68 0 0 0-.671.672c-.156.288-.234.626-.234 1.014h-1.173c0-.597.138-1.12.413-1.57s.65-.802 1.123-1.054 1.013-.378 1.606-.378 1.125.126 1.586.378.822.59 1.084 1.02.393.903.393 1.427c0 .374-.068.74-.204 1.1s-.365.75-.696 1.188-.784.964-1.367 1.59l-2.287 2.446v.08h4.733V331h-6.424zm11.798.14c-.75 0-1.387-.204-1.914-.61s-.93-1.006-1.208-1.785-.418-1.727-.418-2.834c0-1.1.14-2.04.418-2.82s.686-1.38 1.213-1.8 1.167-.62 1.91-.62 1.377.207 1.904.62.935 1.008 1.213 1.8.423 1.72.423 2.82c0 1.107-.14 2.052-.418 2.834s-.68 1.374-1.208 1.785-1.165.61-1.914.61zm0-1.094c.742 0 1.32-.358 1.73-1.073s.617-1.737.617-3.063c0-.882-.095-1.632-.284-2.252s-.454-1.092-.805-1.417-.767-.487-1.258-.487c-.736 0-1.31.363-1.725 1.09s-.622 1.745-.622 3.067c0 .882.093 1.63.28 2.247s.452 1.086.8 1.407a1.81 1.81 0 0 0 1.268.482z"/></g><path stroke="#f9f9fb" d="M568.5 302v48"/><use xlink:href="#C" y="72" fill="#131520"/><path stroke="#f9f9fb" d="M40 361.5h592"/><circle cx="52" cy="326" r="12" fill="#ff6b01"/><g fill="#fff"><use xlink:href="#D" x="1.988" y="72"/><path d="M52.7 321.824v3.432a10.55 10.55 0 0 1-.054 1.074l-.138 1.1H51.5l-.138-1.1a10.55 10.55 0 0 1-.054-1.074v-3.432H52.7zm-1.626 7.86a.96.96 0 0 1 .066-.354.91.91 0 0 1 .192-.288c.084-.08.182-.144.294-.192s.232-.072.36-.072a.89.89 0 0 1 .354.072.91.91 0 0 1 .288.192.86.86 0 0 1 .198.288.89.89 0 0 1 .072.354c0 .128-.024.248-.072.36s-.114.202-.198.282a.83.83 0 0 1-.288.186.89.89 0 0 1-.354.072c-.128 0-.248-.024-.36-.072s-.2-.106-.294-.186-.144-.174-.192-.282-.066-.232-.066-.36z"/><use xlink:href="#D" x="9.938" y="72"/></g><path d="M308 326c0-6.627 5.373-12 12-12h83c6.627 0 12 5.373 12 12h0c0 6.627-5.373 12-12 12h-83c-6.627 0-12-5.373-12-12h0z" fill="#f3f7fc"/><path d="M320.96 330v-8.727h3.11c.676 0 1.237.116 1.683.35s.784.556 1.006.967.332.883.332 1.42-.112 1.004-.337 1.4a2.27 2.27 0 0 1-1.005.942c-.446.224-1.008.336-1.684.336h-2.356v-1.133h2.237c.426 0 .773-.06 1.04-.183a1.21 1.21 0 0 0 .592-.533c.125-.233.188-.513.188-.84s-.064-.616-.192-.857-.323-.426-.592-.554-.618-.196-1.053-.196h-1.653V330h-1.317zm4.308-3.938l2.156 3.938h-1.5l-2.113-3.938h1.457zm7.063 4.07c-.645 0-1.2-.138-1.666-.413s-.82-.67-1.074-1.172-.375-1.098-.375-1.777c0-.67.125-1.26.375-1.773s.605-.9 1.057-1.197.985-.43 1.593-.43c.37 0 .728.06 1.074.184s.658.313.934.575.492.6.652 1.018.238.92.238 1.513v.452h-5.203v-.955h3.955c0-.335-.07-.632-.205-.9s-.328-.468-.575-.618-.532-.226-.86-.226c-.358 0-.67.088-.938.264s-.468.4-.613.682-.213.58-.213.908v.745c0 .438.076.8.23 1.117s.373.54.652.703.604.24.976.24a2.03 2.03 0 0 0 .66-.103 1.43 1.43 0 0 0 .516-.315c.145-.14.256-.31.332-.516l1.206.218c-.096.355-.27.666-.52.933s-.558.47-.933.618a3.49 3.49 0 0 1-1.274.217zm5.222-.132v-6.545h1.223v1.065h.08c.136-.36.36-.642.67-.844s.68-.307 1.112-.307c.438 0 .804.103 1.1.307s.518.486.66.844h.068c.156-.35.405-.628.746-.835s.747-.316 1.22-.316c.593 0 1.078.186 1.453.56s.567.933.567 1.683V330h-1.275v-4.27c0-.443-.12-.764-.362-.963s-.53-.298-.865-.298c-.415 0-.737.128-.967.383s-.345.578-.345.976V330h-1.27v-4.35c0-.355-.11-.64-.333-.856s-.5-.324-.865-.324a1.24 1.24 0 0 0-.669.192c-.2.125-.365.3-.5.524s-.183.484-.183.78V330h-1.274zm14.426.132c-.645 0-1.2-.138-1.666-.413s-.82-.67-1.074-1.172-.375-1.098-.375-1.777c0-.67.125-1.26.375-1.773s.605-.9 1.057-1.197.986-.43 1.594-.43a3.19 3.19 0 0 1 1.074.184c.346.122.657.313.933.575s.493.6.652 1.018.24.92.24 1.513v.452h-5.204v-.955h3.955a1.87 1.87 0 0 0-.205-.89c-.136-.262-.328-.468-.575-.618s-.53-.226-.86-.226c-.358 0-.67.088-.937.264s-.47.4-.614.682-.213.58-.213.908v.745c0 .438.077.8.23 1.117a1.67 1.67 0 0 0 .652.703c.28.16.604.24.976.24.242 0 .462-.035.66-.103s.37-.176.515-.315a1.37 1.37 0 0 0 .333-.516l1.206.218a2.19 2.19 0 0 1-.52.933c-.247.264-.56.47-.934.618s-.796.217-1.274.217zm7.673-.004c-.53 0-1-.135-1.415-.405s-.736-.66-.972-1.163-.35-1.113-.35-1.82.118-1.312.353-1.815.566-.888.98-1.155.885-.4 1.4-.4c.406 0 .733.07.98.205a1.75 1.75 0 0 1 .58.469 3.97 3.97 0 0 1 .324.473h.076v-3.243h1.274V330h-1.244v-1.018h-.106a3.41 3.41 0 0 1-.333.477c-.142.18-.338.335-.588.47s-.574.2-.97.2zm.28-1.087c.366 0 .676-.096.93-.3s.45-.467.58-.813.2-.75.2-1.21c0-.454-.066-.852-.196-1.193s-.323-.606-.576-.797-.565-.285-.937-.285c-.384 0-.703.1-.96.298s-.45.47-.58.814-.19.73-.19 1.163c0 .438.065.83.196 1.18s.324.626.58.83.577.302.955.302zm5.78.96v-6.545h1.274V330h-1.274zm.643-7.555a.81.81 0 0 1-.571-.222c-.156-.15-.234-.33-.234-.537s.078-.39.234-.537.35-.226.57-.226a.79.79 0 0 1 .567.226c.16.148.24.327.24.537s-.08.386-.24.537-.345.222-.567.222zm5.25 7.7c-.415 0-.8-.077-1.125-.23a1.89 1.89 0 0 1-.797-.678c-.193-.295-.3-.657-.3-1.086 0-.37.07-.674.214-.912s.333-.428.575-.567.51-.244.81-.315.603-.125.912-.162l.955-.11c.244-.03.422-.08.533-.15s.166-.18.166-.333v-.03c0-.372-.105-.66-.316-.865s-.517-.306-.93-.306c-.428 0-.767.095-1.014.285s-.413.396-.507.626l-1.197-.272c.142-.398.35-.72.622-.963s.592-.426.95-.537a3.7 3.7 0 0 1 1.129-.171 4.01 4.01 0 0 1 .831.094c.296.06.57.17.827.332a1.84 1.84 0 0 1 .635.695c.165.298.247.686.247 1.163V330h-1.244v-.895h-.05c-.083.165-.206.327-.37.486s-.376.29-.635.396-.568.158-.93.158zm.277-1.023c.352 0 .654-.07.904-.21a1.47 1.47 0 0 0 .575-.545 1.42 1.42 0 0 0 .2-.729v-.844c-.045.046-.133.09-.264.128s-.274.07-.44.098l-.482.073-.392.05c-.247.03-.473.084-.677.158s-.364.18-.486.32-.18.318-.18.546c0 .315.117.554.35.716s.53.238.89.238zm8.706-5.667v1.022h-3.576v-1.022h3.576zm-2.617-1.57h1.274v6.192c0 .247.037.433.11.558s.17.206.286.252.248.064.387.064a1.42 1.42 0 0 0 .269-.022l.18-.034.23 1.053a2.16 2.16 0 0 1-.315.085c-.137.03-.307.048-.512.05-.335.006-.647-.054-.937-.18a1.61 1.61 0 0 1-.703-.579c-.18-.262-.27-.6-.27-.985v-6.456zm5.026 8.114v-6.545h1.274V330h-1.274zm.644-7.555a.81.81 0 0 1-.571-.222.72.72 0 0 1-.235-.537.71.71 0 0 1 .235-.537c.16-.15.35-.226.57-.226a.79.79 0 0 1 .566.226c.16.148.24.327.24.537s-.08.386-.24.537-.345.222-.566.222zm4.62 3.67V330h-1.275v-6.545h1.223v1.065h.08a1.87 1.87 0 0 1 .708-.835c.324-.21.73-.316 1.223-.316.446 0 .836.094 1.172.282s.595.46.78.826.277.82.277 1.36V330h-1.275v-4c0-.474-.123-.845-.37-1.112s-.587-.405-1.02-.405c-.295 0-.558.064-.788.192s-.408.315-.54.562-.196.54-.196.887zm9.642 6.464c-.52 0-.968-.068-1.343-.204s-.676-.317-.912-.542-.412-.463-.528-.724l1.095-.452c.077.12.18.25.307.388s.307.26.528.358.513.15.865.15c.483 0 .883-.116 1.198-.35s.473-.603.473-1.108v-1.287h-.08c-.077.14-.188.294-.332.464s-.34.318-.59.443-.575.188-.975.188c-.517 0-.983-.12-1.398-.362s-.74-.604-.98-1.078-.358-1.064-.358-1.76.118-1.293.353-1.8.566-.878.98-1.142.885-.4 1.4-.4c.406 0 .734.07.984.205s.445.3.584.47.252.336.328.473h.094v-1.06h1.25v6.7c0 .557-.13 1.014-.392 1.372s-.615.628-1.06.8-.944.26-1.5.26zm-.013-3.733c.366 0 .676-.085.93-.256s.45-.42.58-.74.2-.712.2-1.163c0-.44-.066-.828-.196-1.164s-.323-.596-.576-.784-.565-.285-.937-.285c-.384 0-.703.1-.96.298a1.8 1.8 0 0 0-.58.801c-.127.338-.19.716-.19 1.134 0 .43.065.805.196 1.13s.324.577.58.758.577.273.955.273z" fill="#1757c2"/><path stroke="#ecedf3" d="M40 217.5h592"/><path d="M45.72 194.565c-.046-.403-.233-.716-.563-.937s-.744-.337-1.244-.337c-.358 0-.668.057-.93.17s-.464.264-.6.46-.213.413-.213.66a.97.97 0 0 0 .145.537 1.34 1.34 0 0 0 .388.38 2.52 2.52 0 0 0 .52.25l.533.162.852.222a6.44 6.44 0 0 1 .857.277c.293.117.564.27.814.46s.452.426.605.707.234.618.234 1a2.32 2.32 0 0 1-.384 1.317c-.253.383-.62.686-1.104.907s-1.06.333-1.743.333c-.653 0-1.22-.104-1.696-.3s-.85-.502-1.12-.882-.42-.838-.448-1.364h1.32c.026.315.128.578.307.788a1.65 1.65 0 0 0 .695.465 2.82 2.82 0 0 0 .933.149c.372 0 .703-.058.993-.175s.523-.284.7-.494a1.17 1.17 0 0 0 .251-.746c0-.258-.074-.47-.222-.635s-.342-.3-.592-.4a5.74 5.74 0 0 0-.84-.285l-1.03-.282c-.7-.2-1.253-.47-1.662-.84s-.6-.858-.6-1.466c0-.503.136-.942.4-1.317a2.69 2.69 0 0 1 1.108-.873 3.84 3.84 0 0 1 1.577-.316c.6 0 1.112.104 1.564.3s.813.493 1.074.857a2.16 2.16 0 0 1 .409 1.244h-1.27zm6.68 6.567c-.645 0-1.2-.138-1.666-.413s-.82-.67-1.074-1.172-.375-1.098-.375-1.777c0-.67.125-1.26.375-1.773a2.94 2.94 0 0 1 1.057-1.197c.452-.297.986-.43 1.594-.43a3.16 3.16 0 0 1 1.074.184 2.59 2.59 0 0 1 .933.575c.276.26.493.6.652 1.018s.24.92.24 1.513v.452h-5.203v-.955h3.955a1.94 1.94 0 0 0-.205-.9 1.54 1.54 0 0 0-.575-.618c-.244-.15-.53-.226-.86-.226-.358 0-.67.088-.937.264a1.76 1.76 0 0 0-.614.682 1.95 1.95 0 0 0-.213.908v.745c0 .438.077.8.23 1.117a1.59 1.59 0 0 0 .652.703c.28.163.604.24.976.24a2.03 2.03 0 0 0 .661-.103 1.43 1.43 0 0 0 .516-.315c.145-.14.256-.3.332-.516l1.206.218a2.19 2.19 0 0 1-.52.933 2.51 2.51 0 0 1-.933.618c-.375.148-.797.217-1.274.217zm10.622-6.677L60.65 201h-1.364l-2.378-6.545h1.368l1.658 5.036H60l1.653-5.036h1.368zm4.784 6.677c-.645 0-1.2-.138-1.666-.413s-.82-.67-1.074-1.172-.375-1.098-.375-1.777c0-.67.125-1.26.375-1.773a2.94 2.94 0 0 1 1.057-1.197c.452-.297.986-.43 1.594-.43a3.16 3.16 0 0 1 1.074.184 2.59 2.59 0 0 1 .933.575c.275.26.493.6.652 1.018s.24.92.24 1.513v.452h-5.203v-.955h3.954a1.95 1.95 0 0 0-.204-.9 1.54 1.54 0 0 0-.575-.618c-.244-.15-.53-.226-.86-.226-.358 0-.67.088-.937.264a1.76 1.76 0 0 0-.614.682 1.95 1.95 0 0 0-.213.908v.745c0 .438.077.8.23 1.117s.374.54.652.703.604.24.976.24a2.03 2.03 0 0 0 .661-.103 1.43 1.43 0 0 0 .516-.315c.145-.14.256-.3.332-.516l1.206.218a2.19 2.19 0 0 1-.52.933 2.51 2.51 0 0 1-.933.618 3.49 3.49 0 0 1-1.274.217zm5.222-.132v-6.545h1.23v1.04h.068c.12-.352.33-.63.63-.83a1.83 1.83 0 0 1 1.03-.306l.28.008.26.02v1.22a2.26 2.26 0 0 0-.273-.047 3.03 3.03 0 0 0-.392-.03 1.66 1.66 0 0 0-.805.192c-.233.125-.418.3-.554.524a1.42 1.42 0 0 0-.204.759V201h-1.274zm5.605 0v-6.545h1.274V201h-1.274zm.643-7.555a.81.81 0 0 1-.571-.222.72.72 0 0 1-.234-.537c0-.2.078-.4.234-.537a.81.81 0 0 1 .57-.226.79.79 0 0 1 .567.226c.16.148.24.327.24.537a.71.71 0 0 1-.24.537c-.16.15-.345.222-.567.222zm6.4 1v1.022H82.1v-1.022h3.575zm-2.617-1.57h1.274v6.192c0 .247.037.433.1.558a.57.57 0 0 0 .285.252 1.16 1.16 0 0 0 .388.064c.102 0 .192-.007.27-.022l.18-.034.23 1.053a2.15 2.15 0 0 1-.315.085 2.53 2.53 0 0 1-.51.05 2.22 2.22 0 0 1-.937-.18 1.61 1.61 0 0 1-.703-.579c-.18-.262-.268-.6-.268-.985v-6.456zm5.83 10.552c-.2 0-.364-.016-.52-.047a1.83 1.83 0 0 1-.35-.094l.307-1.044c.35.096.642.104.878.02s.44-.33.6-.754l.158-.435-2.395-6.63h1.364l1.658 5.08h.068l1.658-5.08 1.376.012-2.706 7.407c-.125.338-.284.623-.477.856a1.9 1.9 0 0 1-.69.529 2.25 2.25 0 0 1-.93.18zm19.81-4.84l-3.333 3.32a.53.53 0 0 1-.374.16.53.53 0 0 1-.373-.16l-3.333-3.32a.537.537 0 1 1 .76-.76l2.426 2.413v-7.773c0-.294.24-.534.534-.534s.533.24.533.534v7.786l2.427-2.413a.53.53 0 0 1 .76 0c.186.2.186.533-.027.747z" fill="#5d6598"/><g clip-path="url(#B)"><path d="M313.72 194.565c-.046-.403-.233-.716-.563-.937s-.744-.337-1.244-.337a2.31 2.31 0 0 0-.929.171 1.42 1.42 0 0 0-.609.46c-.142.193-.213.413-.213.66 0 .208.048.387.144.537s.23.277.388.38a2.94 2.94 0 0 0 .52.251l.533.162.852.222a6.44 6.44 0 0 1 .857.277 3.4 3.4 0 0 1 .813.46c.25.2.452.426.606.707s.234.618.234 1a2.32 2.32 0 0 1-.384 1.317c-.252.383-.62.686-1.103.907s-1.06.333-1.743.333c-.654 0-1.22-.104-1.696-.31s-.85-.502-1.12-.882-.42-.838-.447-1.364h1.32a1.35 1.35 0 0 0 .306.788c.182.208.414.363.695.465s.595.15.933.15c.372 0 .703-.058.993-.175s.523-.284.69-.494.25-.462.25-.746c0-.258-.074-.47-.222-.635s-.342-.3-.592-.41-.527-.203-.84-.285l-1.032-.282c-.7-.2-1.253-.47-1.662-.84s-.61-.858-.61-1.466c0-.503.136-.942.41-1.317s.642-.666 1.108-.873.992-.316 1.577-.316c.59 0 1.112.104 1.564.31s.812.493 1.074.857.397.776.41 1.244h-1.27zm6.916-.1v1.022h-3.576v-1.022h3.576zm-2.617-1.57h1.274v6.192c0 .247.037.433.11.558s.17.206.286.252.248.064.387.064a1.42 1.42 0 0 0 .269-.022l.18-.034.23 1.053a2.16 2.16 0 0 1-.315.085c-.137.03-.307.048-.512.05-.335.006-.648-.054-.937-.18a1.61 1.61 0 0 1-.703-.579c-.18-.262-.27-.6-.27-.985v-6.456zm6.93 8.26c-.415 0-.8-.077-1.125-.23a1.89 1.89 0 0 1-.797-.678c-.193-.295-.3-.657-.3-1.086 0-.37.07-.674.213-.912s.334-.428.576-.567.51-.244.81-.315.603-.125.912-.162l.955-.11c.244-.03.422-.08.532-.15s.167-.18.167-.333v-.03c0-.372-.106-.66-.316-.865s-.517-.306-.93-.306c-.43 0-.767.095-1.014.285s-.413.396-.507.626l-1.197-.272c.142-.398.35-.72.622-.963s.592-.426.95-.537.734-.17 1.13-.17a4.01 4.01 0 0 1 .831.094c.296.06.57.17.827.332s.47.394.635.695.247.686.247 1.163V201h-1.244v-.895h-.05c-.083.165-.206.327-.37.486s-.377.29-.635.396-.568.158-.93.158zm.277-1.023c.352 0 .653-.07.903-.21s.445-.32.576-.545a1.42 1.42 0 0 0 .2-.729v-.844c-.046.046-.134.09-.264.128s-.275.07-.44.098l-.482.073-.392.05c-.247.03-.473.084-.677.158s-.364.18-.486.32-.18.318-.18.546c0 .315.116.554.35.716s.53.238.89.238zm8.705-5.667v1.022h-3.575v-1.022h3.575zm-2.616-1.57h1.274v6.192c0 .247.037.433.11.558a.58.58 0 0 0 .285.252c.12.042.25.064.388.064.102 0 .192-.007.27-.022l.18-.034.23 1.053a2.14 2.14 0 0 1-.316.085c-.136.03-.306.048-.51.05-.335.006-.648-.054-.937-.18a1.61 1.61 0 0 1-.704-.579c-.18-.262-.268-.6-.268-.985v-6.456zm9.172 5.4v-3.83h1.28V201h-1.253v-1.134h-.068a2.04 2.04 0 0 1-.725.874c-.33.23-.74.345-1.23.345-.42 0-.793-.092-1.117-.277s-.574-.464-.758-.83-.273-.82-.273-1.36v-4.163h1.274v4.01c0 .447.124.802.37 1.066s.568.396.963.396c.24 0 .476-.06.712-.18a1.5 1.5 0 0 0 .592-.541c.16-.242.237-.548.234-.92zm8.895-2.233l-1.154.204a1.39 1.39 0 0 0-.23-.422 1.15 1.15 0 0 0-.418-.328c-.176-.085-.396-.128-.66-.128-.36 0-.662.08-.903.243s-.362.365-.362.618a.65.65 0 0 0 .243.528c.162.134.423.243.784.33l1.04.238c.602.14 1.05.354 1.346.644s.443.666.443 1.13a1.71 1.71 0 0 1-.341 1.048c-.224.304-.538.543-.94.716s-.865.26-1.394.26c-.733 0-1.33-.156-1.794-.47s-.747-.762-.852-1.342l1.23-.187c.077.32.235.563.473.728s.55.243.934.243c.417 0 .75-.087 1-.26s.375-.4.375-.643a.67.67 0 0 0-.23-.516c-.15-.14-.382-.244-.695-.315l-1.108-.243c-.6-.14-1.062-.36-1.355-.665s-.434-.69-.434-1.155c0-.386.108-.724.323-1.014s.515-.516.895-.678.817-.247 1.31-.247c.707 0 1.264.154 1.67.46s.675.71.805 1.223z" fill="#5d6598"/></g><path d="M441.784 201h-2.825v-8.727h2.915c.855 0 1.59.174 2.203.524s1.084.845 1.4 1.496.495 1.424.495 2.33-.167 1.7-.5 2.343-.807 1.157-1.432 1.51-1.38.524-2.267.524zm-1.508-1.15h1.436c.664 0 1.217-.125 1.657-.375s.77-.617.99-1.095.328-1.065.328-1.755-.11-1.266-.328-1.743-.538-.84-.967-1.087-.962-.37-1.598-.37h-1.517v6.426zm10.146 1.296c-.415 0-.8-.077-1.125-.23s-.6-.382-.797-.678-.3-.657-.3-1.086c0-.37.07-.674.213-.912a1.57 1.57 0 0 1 .575-.567c.242-.14.512-.244.8-.315s.602-.125.912-.162l.954-.11c.245-.03.422-.08.533-.15s.166-.18.166-.333v-.03c0-.372-.105-.66-.315-.865s-.517-.306-.93-.306c-.43 0-.767.095-1.014.285s-.414.396-.507.626l-1.198-.272c.142-.398.35-.72.622-.963s.593-.426.95-.537.734-.17 1.13-.17c.26 0 .538.032.83.094s.57.17.827.332.47.394.634.695.248.686.248 1.163V201h-1.245v-.895h-.05c-.082.165-.206.327-.37.486s-.376.29-.635.396-.568.158-.928.158zm.277-1.023c.352 0 .653-.07.903-.21s.445-.32.575-.545a1.41 1.41 0 0 0 .2-.729v-.844c-.045.046-.133.09-.264.128s-.274.07-.44.098l-.48.073-.392.05a3.15 3.15 0 0 0-.678.158c-.2.073-.363.18-.486.32s-.18.318-.18.546c0 .315.117.554.35.716s.53.238.89.238zm8.705-5.667v1.022h-3.575v-1.022h3.575zm-2.616-1.57h1.274v6.192c0 .247.037.433.11.558s.17.206.285.252a1.16 1.16 0 0 0 .388.064 1.41 1.41 0 0 0 .268-.022l.18-.034.23 1.053c-.073.028-.18.057-.315.085s-.307.048-.51.05c-.335.006-.648-.054-.938-.18a1.61 1.61 0 0 1-.703-.579c-.18-.262-.268-.6-.268-.985v-6.456zm6.93 8.26c-.414 0-.79-.077-1.125-.23a1.89 1.89 0 0 1-.796-.678c-.194-.295-.3-.657-.3-1.086 0-.37.07-.674.213-.912a1.57 1.57 0 0 1 .575-.567 3.01 3.01 0 0 1 .81-.315c.298-.07.602-.125.912-.162l.954-.11c.245-.03.422-.08.533-.15s.166-.18.166-.333v-.03c0-.372-.105-.66-.315-.865s-.517-.306-.93-.306c-.43 0-.767.095-1.014.285s-.414.396-.508.626l-1.197-.272c.142-.398.35-.72.622-.963a2.54 2.54 0 0 1 .95-.537c.358-.114.735-.17 1.13-.17.26 0 .538.032.83.094a2.45 2.45 0 0 1 .826.332c.26.162.47.394.635.695s.248.686.248 1.163V201h-1.245v-.895h-.05c-.082.165-.206.327-.37.486s-.376.29-.635.396-.568.158-.93.158zm.277-1.023c.353 0 .654-.07.904-.21s.444-.32.575-.545a1.41 1.41 0 0 0 .2-.729v-.844c-.045.046-.133.09-.264.128s-.274.07-.44.098l-.48.073-.392.05c-.248.03-.473.084-.678.158s-.364.18-.486.32-.18.318-.18.546c0 .315.117.554.35.716s.53.238.9.238zm12.277 1.006c-.53 0-1-.135-1.415-.405s-.736-.66-.972-1.163-.35-1.113-.35-1.82.118-1.312.354-1.815.565-.888.98-1.155.885-.4 1.4-.4c.406 0 .733.07.98.205a1.75 1.75 0 0 1 .58.469 3.97 3.97 0 0 1 .324.473h.076v-3.243h1.275V201h-1.245v-1.018h-.106a3.41 3.41 0 0 1-.333.477c-.142.18-.338.335-.588.47s-.574.2-.97.2zm.28-1.087c.366 0 .676-.096.93-.3s.45-.467.58-.813.2-.75.2-1.21c0-.454-.066-.852-.196-1.193s-.323-.606-.576-.797-.565-.285-.937-.285c-.384 0-.703.1-.96.298s-.45.47-.58.814-.192.73-.192 1.163c0 .438.065.83.196 1.18a1.89 1.89 0 0 0 .579.831c.26.2.577.302.955.302zm8.6 1.09c-.645 0-1.2-.138-1.666-.413s-.82-.67-1.074-1.172-.375-1.098-.375-1.777c0-.67.125-1.26.375-1.773s.605-.9 1.057-1.197.986-.43 1.594-.43a3.18 3.18 0 0 1 1.073.184c.347.122.658.313.934.575s.493.6.652 1.018.238.92.238 1.513v.452h-5.203v-.955h3.955a1.87 1.87 0 0 0-.205-.89c-.136-.262-.328-.468-.575-.618s-.53-.226-.86-.226c-.358 0-.67.088-.937.264a1.77 1.77 0 0 0-.614.682c-.142.278-.213.58-.213.908v.745c0 .438.077.8.23 1.117s.374.54.652.703.604.24.976.24c.24 0 .462-.035.66-.103a1.43 1.43 0 0 0 .516-.315c.145-.14.256-.31.332-.516l1.206.218c-.096.355-.27.666-.52.933s-.56.47-.934.618a3.49 3.49 0 0 1-1.274.217zm8.277-6.677v1.022h-3.575v-1.022h3.575zm-2.616-1.57h1.274v6.192c0 .247.037.433.11.558a.58.58 0 0 0 .285.252c.12.042.25.064.388.064.102 0 .192-.007.27-.022l.18-.034.23 1.053a2.14 2.14 0 0 1-.316.085c-.136.03-.306.048-.51.05-.335.006-.648-.054-.937-.18a1.61 1.61 0 0 1-.704-.579c-.18-.262-.268-.6-.268-.985v-6.456zm7.777 8.246c-.645 0-1.2-.138-1.667-.413a2.8 2.8 0 0 1-1.073-1.172c-.25-.506-.375-1.098-.375-1.777 0-.67.125-1.26.375-1.773a2.91 2.91 0 0 1 1.056-1.197c.455-.287.986-.43 1.594-.43a3.19 3.19 0 0 1 1.074.184 2.58 2.58 0 0 1 .933.575c.276.26.493.6.652 1.018s.24.92.24 1.513v.452h-5.203v-.955h3.954c0-.335-.068-.632-.204-.9a1.54 1.54 0 0 0-.576-.618c-.244-.15-.53-.226-.86-.226-.358 0-.67.088-.938.264s-.47.4-.613.682-.214.58-.214.908v.745c0 .438.077.8.23 1.117s.373.54.652.703a1.93 1.93 0 0 0 .975.239c.242 0 .462-.035.66-.103a1.43 1.43 0 0 0 .516-.315 1.38 1.38 0 0 0 .332-.516l1.206.218a2.19 2.19 0 0 1-.52.933c-.247.264-.558.47-.933.618a3.49 3.49 0 0 1-1.274.217zm7.98 0c-.634 0-1.18-.143-1.637-.43a2.85 2.85 0 0 1-1.048-1.198c-.244-.508-.366-1.09-.366-1.747 0-.665.125-1.25.375-1.76s.602-.9 1.056-1.197 1-.43 1.607-.43c.497 0 .94.093 1.33.277a2.38 2.38 0 0 1 .942.767c.242.33.385.715.43 1.155h-1.24a1.49 1.49 0 0 0-.469-.792c-.242-.222-.566-.333-.972-.333-.355 0-.666.094-.933.28s-.47.45-.618.793-.222.744-.222 1.2c0 .478.073.89.218 1.236s.35.615.613.805.58.286.942.286c.242 0 .46-.044.656-.132a1.34 1.34 0 0 0 .499-.388c.136-.168.232-.37.286-.605h1.24c-.046.423-.184.8-.414 1.133a2.38 2.38 0 0 1-.924.785c-.384.2-.834.285-1.35.285zm8.107-6.677v1.022h-3.576v-1.022h3.576zm-2.617-1.57h1.274v6.192c0 .247.037.433.11.558s.17.206.286.252.248.064.387.064a1.42 1.42 0 0 0 .269-.022l.18-.034.23 1.053a2.16 2.16 0 0 1-.315.085c-.137.03-.307.048-.512.05-.335.006-.648-.054-.937-.18a1.61 1.61 0 0 1-.703-.579c-.18-.262-.27-.6-.27-.985v-6.456zm7.777 8.246c-.645 0-1.2-.138-1.666-.413s-.822-.67-1.074-1.172-.375-1.098-.375-1.777c0-.67.125-1.26.375-1.773a2.91 2.91 0 0 1 1.056-1.197c.455-.287.986-.43 1.594-.43.37 0 .727.06 1.074.184a2.58 2.58 0 0 1 .933.575c.276.26.493.6.652 1.018s.24.92.24 1.513v.452h-5.203v-.955h3.954c0-.335-.068-.632-.204-.9s-.328-.468-.575-.618-.532-.226-.86-.226c-.358 0-.67.088-.938.264s-.47.4-.613.682-.213.58-.213.908v.745c0 .438.076.8.23 1.117s.373.54.652.703a1.93 1.93 0 0 0 .975.239c.242 0 .462-.035.66-.103a1.43 1.43 0 0 0 .516-.315c.145-.14.255-.31.332-.516l1.206.218a2.19 2.19 0 0 1-.52.933c-.247.264-.558.47-.933.618a3.49 3.49 0 0 1-1.274.217zm7.672-.004c-.528 0-1-.135-1.415-.405s-.736-.66-.97-1.163-.35-1.113-.35-1.82.118-1.312.354-1.815.565-.888.98-1.155a2.55 2.55 0 0 1 1.41-.401c.407 0 .733.07.98.205s.443.3.58.47a3.97 3.97 0 0 1 .324.473h.077v-3.243h1.274V201h-1.244v-1.018h-.107a3.48 3.48 0 0 1-.332.477c-.142.18-.338.335-.588.47s-.574.2-.972.2zm.28-1.087c.367 0 .676-.096.93-.3s.45-.467.58-.813.2-.75.2-1.21c0-.454-.065-.852-.196-1.193s-.322-.606-.575-.797-.566-.285-.938-.285c-.383 0-.703.1-.96.298a1.83 1.83 0 0 0-.579.814c-.128.344-.192.73-.192 1.163 0 .438.065.83.196 1.18s.324.626.58.83.576.302.954.302z" fill="#5d6598"/><path d="M513.96 133v-8.727h3.1c.676 0 1.237.116 1.683.35s.784.556 1.006.967.332.883.332 1.42-.112 1.004-.337 1.4a2.27 2.27 0 0 1-1.005.942c-.446.224-1.008.336-1.684.336h-2.356v-1.133h2.237c.426 0 .773-.06 1.04-.183a1.21 1.21 0 0 0 .592-.533c.125-.233.188-.513.188-.84s-.064-.616-.192-.857-.323-.426-.592-.554-.618-.196-1.053-.196h-1.653V133h-1.317zm4.308-3.938l2.156 3.938h-1.5l-2.113-3.938h1.457zm7.063 4.07c-.645 0-1.2-.138-1.666-.413s-.82-.67-1.074-1.172-.375-1.098-.375-1.777c0-.67.125-1.26.375-1.773a2.94 2.94 0 0 1 1.057-1.197c.452-.297.985-.43 1.593-.43a3.16 3.16 0 0 1 1.074.184 2.63 2.63 0 0 1 .934.575c.276.262.492.6.652 1.018s.238.92.238 1.513v.452h-5.203v-.955h3.955c0-.335-.07-.632-.205-.9s-.328-.468-.575-.618a1.62 1.62 0 0 0-.86-.226c-.358 0-.67.088-.938.264s-.468.4-.613.682a1.94 1.94 0 0 0-.213.908v.745c0 .438.076.8.23 1.117s.373.54.652.703.604.24.976.24a2.03 2.03 0 0 0 .66-.103 1.43 1.43 0 0 0 .516-.315c.145-.14.256-.3.332-.516l1.206.218c-.096.355-.27.666-.52.933a2.51 2.51 0 0 1-.933.618 3.49 3.49 0 0 1-1.274.217zm10.622-6.677L533.578 133h-1.363l-2.378-6.545h1.368l1.658 5.036h.068l1.653-5.036h1.368zM538.15 133v-6.545h1.274V133h-1.274zm.643-7.555a.81.81 0 0 1-.571-.222.72.72 0 0 1-.234-.537c0-.207.078-.4.234-.537a.81.81 0 0 1 .57-.226.79.79 0 0 1 .567.226c.16.148.238.327.238.537s-.08.386-.238.537-.345.222-.567.222zm6.166 7.687c-.645 0-1.2-.138-1.666-.413s-.82-.67-1.074-1.172-.375-1.098-.375-1.777c0-.67.125-1.26.375-1.773a2.94 2.94 0 0 1 1.057-1.197c.452-.297.985-.43 1.593-.43a3.16 3.16 0 0 1 1.074.184 2.58 2.58 0 0 1 .933.575c.276.26.493.6.652 1.018s.24.92.24 1.513v.452h-5.203v-.955h3.954a1.95 1.95 0 0 0-.204-.9 1.5 1.5 0 0 0-.575-.618 1.62 1.62 0 0 0-.86-.226c-.358 0-.67.088-.938.264s-.468.4-.613.682a1.94 1.94 0 0 0-.213.908v.745c0 .438.076.8.23 1.117s.373.54.652.703.603.24.976.24a2.03 2.03 0 0 0 .66-.103 1.43 1.43 0 0 0 .516-.315c.145-.14.255-.3.332-.516l1.206.218a2.19 2.19 0 0 1-.52.933c-.247.264-.558.47-.933.618a3.49 3.49 0 0 1-1.274.217zm6.63-.132l-1.926-6.545h1.317l1.282 4.806h.064l1.287-4.806h1.317l1.278 4.785h.064l1.274-4.785h1.317L556.94 133h-1.3l-1.33-4.726h-.098l-1.33 4.726h-1.296zm14.933-3.886V133h-1.274v-6.545h1.223v1.065h.08a1.87 1.87 0 0 1 .708-.835c.323-.2.73-.316 1.223-.316.446 0 .836.094 1.17.282a1.87 1.87 0 0 1 .78.826c.185.367.277.82.277 1.36V133h-1.274v-4c0-.474-.123-.845-.37-1.112s-.586-.405-1.018-.405a1.59 1.59 0 0 0-.788.192 1.38 1.38 0 0 0-.542.562c-.13.245-.196.54-.196.887zm9.655 4.018c-.613 0-1.15-.14-1.606-.422s-.813-.674-1.066-1.18-.38-1.097-.38-1.773.126-1.273.38-1.78.608-.904 1.066-1.185.993-.422 1.606-.422 1.15.14 1.607.422.812.676 1.065 1.185.38 1.102.38 1.78-.126 1.267-.38 1.773-.608.9-1.065 1.18-.993.422-1.607.422zm.004-1.07c.398 0 .728-.105 1-.315a1.85 1.85 0 0 0 .58-.839c.127-.35.2-.735.2-1.155a3.35 3.35 0 0 0-.191-1.151c-.125-.352-.32-.635-.58-.848s-.6-.32-1-.32-.733.106-.997.32a1.91 1.91 0 0 0-.584.848c-.125.35-.187.733-.187 1.15s.062.805.187 1.155a1.88 1.88 0 0 0 .584.839c.264.2.597.315.997.315zm6.7.938l-1.926-6.545h1.317l1.283 4.806h.064l1.286-4.806h1.317l1.28 4.785h.064l1.274-4.785h1.316l-1.92 6.545h-1.3l-1.33-4.726h-.098l-1.33 4.726h-1.296zm29.267-3.533l-4.15 4.166c-.134.134-.3.2-.467.2s-.333-.066-.467-.2c-.266-.266-.266-.683 0-.95l3.017-3.033h-9.733a.67.67 0 0 1-.667-.667.67.67 0 0 1 .667-.666h9.733l-3.017-3.034c-.266-.266-.266-.683 0-.95s.684-.266.95 0l4.15 4.167c.25.283.25.717-.016.967z" fill="#e02424"/><path d="M494 44a4 4 0 0 1 4-4h130a4 4 0 0 1 4 4v24a4 4 0 0 1-4 4H498a4 4 0 0 1-4-4V44z" fill="#fff"/><path d="M521.315 57.66v3.526a.64.64 0 0 1-.648.648h-9.852a.64.64 0 0 1-.648-.648V57.66a.648.648 0 1 1 1.296 0v2.878h8.555V57.66a.649.649 0 1 1 1.297 0zm-6.04.804c.117.13.285.195.467.195a.63.63 0 0 0 .466-.195l2.58-2.644c.246-.26.246-.66-.013-.92-.26-.246-.66-.246-.92.013l-1.478 1.504v-5.6a.649.649 0 1 0-1.297 0v5.613l-1.477-1.504c-.247-.26-.66-.26-.92-.013s-.26.66-.013.92l2.606 2.63zM530.96 60v-8.727h5.47v1.133h-4.154v2.66h3.87v1.13h-3.87v2.672h4.206V60h-5.523zm9.134-6.545l1.444 2.548 1.458-2.548h1.393l-2.04 3.273L544.405 60h-1.393l-1.475-2.446-1.47 2.446h-1.398l2.037-3.273-2-3.273h1.398zm6.603 9v-9h1.245v1.06h.106a3.53 3.53 0 0 1 .32-.473c.14-.18.332-.335.58-.47s.574-.205.98-.205c.53 0 1 .133 1.415.4s.74.652.976 1.155.358 1.108.358 1.815-.118 1.314-.354 1.82-.56.9-.97 1.163-.882.405-1.4.405c-.397 0-.723-.067-.976-.2s-.446-.3-.588-.47a3.58 3.58 0 0 1-.328-.477h-.076v3.473H546.7zm1.25-5.727c0 .46.067.864.2 1.2s.327.618.58.814.562.3.93.3c.38 0 .7-.1.954-.303s.45-.48.58-.83.2-.743.2-1.18-.065-.82-.196-1.163-.32-.615-.58-.814-.576-.298-.96-.298c-.37 0-.682.095-.938.285s-.444.456-.575.797-.196.74-.196 1.193zm9.915 3.405c-.614 0-1.15-.14-1.607-.422s-.812-.675-1.065-1.18-.38-1.097-.38-1.773.126-1.273.38-1.78a2.84 2.84 0 0 1 1.065-1.185c.458-.28.993-.422 1.607-.422s1.15.14 1.606.422.813.676 1.066 1.185.38 1.102.38 1.78-.127 1.267-.38 1.773-.608.9-1.066 1.18-.993.422-1.606.422zm.004-1.07c.398 0 .727-.105 1-.315a1.85 1.85 0 0 0 .579-.84c.128-.35.192-.734.192-1.155s-.064-.8-.192-1.15-.318-.635-.58-.848-.6-.32-1-.32-.733.107-.997.32a1.9 1.9 0 0 0-.584.848c-.125.35-.187.733-.187 1.15s.062.805.187 1.155.322.63.584.84.596.315.997.315zm5.47.938v-6.545h1.232v1.04h.068a1.58 1.58 0 0 1 .63-.831c.304-.205.648-.307 1.032-.307l.28.01.26.02v1.22a2.26 2.26 0 0 0-.273-.047 3.03 3.03 0 0 0-.392-.03 1.66 1.66 0 0 0-.805.192 1.42 1.42 0 0 0-.554.524c-.137.222-.205.474-.205.758V60h-1.274zm9.048-6.545v1.023h-3.576v-1.023h3.576zm-2.617-1.568h1.274v6.192c0 .247.037.433.1.558s.17.206.286.25a1.14 1.14 0 0 0 .387.064c.103 0 .192-.007.27-.02l.18-.034.23 1.053c-.074.028-.18.057-.315.085a2.68 2.68 0 0 1-.512.05c-.335.006-.647-.054-.937-.18a1.61 1.61 0 0 1-.703-.58c-.18-.262-.27-.6-.27-.984v-6.456zm9.2 8.112v-6.545h1.23v1.04h.07a1.58 1.58 0 0 1 .63-.831c.304-.205.648-.307 1.032-.307l.28.01.26.02v1.22a2.26 2.26 0 0 0-.273-.047 3.03 3.03 0 0 0-.392-.03 1.66 1.66 0 0 0-.805.192 1.42 1.42 0 0 0-.554.524c-.137.222-.205.474-.205.758V60h-1.274zm8.192.132c-.645 0-1.2-.138-1.666-.413s-.82-.67-1.074-1.172-.375-1.098-.375-1.777c0-.67.125-1.26.375-1.773a2.91 2.91 0 0 1 1.057-1.197c.454-.287.986-.43 1.594-.43a3.2 3.2 0 0 1 1.073.183c.347.122.658.314.934.575s.493.6.652 1.018.238.92.238 1.513v.452h-5.203v-.955h3.955a1.87 1.87 0 0 0-.205-.89c-.137-.258-.328-.467-.575-.618s-.53-.226-.86-.226a1.66 1.66 0 0 0-.937.264 1.77 1.77 0 0 0-.614.682 1.97 1.97 0 0 0-.213.908v.746c0 .438.077.8.23 1.117s.374.54.652.703.604.24.976.24a2.04 2.04 0 0 0 .66-.102 1.43 1.43 0 0 0 .516-.315 1.36 1.36 0 0 0 .332-.516l1.206.217a2.18 2.18 0 0 1-.52.933c-.247.264-.558.47-.933.618s-.797.217-1.274.217zm5.222 2.322v-9h1.244v1.06h.107a3.59 3.59 0 0 1 .319-.473 1.82 1.82 0 0 1 .58-.469c.247-.136.574-.205.98-.205.528 0 1 .133 1.415.4s.74.652.976 1.155.358 1.108.358 1.815-.118 1.314-.354 1.82-.56.9-.972 1.163-.882.405-1.4.405c-.398 0-.723-.067-.976-.2s-.446-.3-.588-.47a3.58 3.58 0 0 1-.328-.477h-.077v3.473H592.4zm1.25-5.727c0 .46.066.864.2 1.2s.327.618.58.814.563.3.93.3c.38 0 .7-.1.955-.303s.45-.48.58-.83.2-.743.2-1.18a3.27 3.27 0 0 0-.196-1.163 1.78 1.78 0 0 0-.58-.814c-.256-.2-.575-.298-.96-.298-.37 0-.68.095-.937.285s-.445.456-.575.797-.196.74-.196 1.193zm9.914 3.405c-.613 0-1.15-.14-1.606-.422s-.813-.675-1.066-1.18-.38-1.097-.38-1.773.127-1.273.38-1.78.608-.904 1.066-1.185.993-.422 1.606-.422 1.15.14 1.607.422a2.84 2.84 0 0 1 1.065 1.185c.253.508.38 1.102.38 1.78s-.126 1.267-.38 1.773-.608.9-1.065 1.18-.993.422-1.607.422zm.005-1.07c.397 0 .727-.105.988-.315s.455-.5.58-.84.192-.734.192-1.155-.064-.8-.192-1.15a1.87 1.87 0 0 0-.58-.848c-.26-.213-.6-.32-.988-.32s-.733.107-.998.32-.456.496-.583.848-.188.733-.188 1.15.063.805.188 1.155.322.63.583.84.597.315.998.315zm5.47.938v-6.545h1.23v1.04h.068c.12-.352.33-.63.63-.83a1.83 1.83 0 0 1 1.03-.307l.282.01.26.02v1.22a2.38 2.38 0 0 0-.273-.047c-.13-.017-.262-.03-.392-.03-.3 0-.57.064-.806.192a1.43 1.43 0 0 0-.554.524 1.42 1.42 0 0 0-.204.758V60h-1.274zm9.047-6.545v1.023h-3.575v-1.023h3.575zm-2.616-1.568h1.274v6.192c0 .247.037.433.1.558a.58.58 0 0 0 .285.251 1.15 1.15 0 0 0 .388.064 1.5 1.5 0 0 0 .269-.021l.178-.034.23 1.053c-.074.028-.18.057-.316.085s-.307.048-.5.05c-.335.006-.648-.054-.938-.18a1.61 1.61 0 0 1-.703-.579c-.18-.26-.268-.6-.268-.984v-6.456z" fill="#1757c2"/><rect x="494.5" y="40.5" width="137" height="31" rx="3.5" stroke="#1757c2"/><defs><clipPath id="A"><path fill="#fff" transform="translate(92 121)" d="M0 0h225v16H0z"/></clipPath><clipPath id="B"><path fill="#fff" transform="translate(308 188)" d="M0 0h43v18H0z"/></clipPath><path id="C" d="M604.005 257.4a.8.8 0 0 1-.58-.24l-5-5.2c-.3-.32-.3-.82.02-1.14.32-.3.82-.3 1.14.02l4.42 4.6 4.42-4.6c.3-.32.82-.32 1.14-.02s.32.82.02 1.14l-5 5.2a.8.8 0 0 1-.58.24z"/><path id="D" d="M46.738 249.824v3.432a10.55 10.55 0 0 1-.054 1.074l-.138 1.1h-1.008l-.138-1.1a10.55 10.55 0 0 1-.054-1.074v-3.432h1.392zm-1.626 7.86a.96.96 0 0 1 .066-.354.91.91 0 0 1 .192-.288c.084-.08.182-.144.294-.192s.232-.072.36-.072a.89.89 0 0 1 .354.072.91.91 0 0 1 .288.192.86.86 0 0 1 .198.288.89.89 0 0 1 .072.354c0 .128-.024.248-.072.36s-.114.202-.198.282a.83.83 0 0 1-.288.186.89.89 0 0 1-.354.072c-.128 0-.248-.024-.36-.072s-.2-.106-.294-.186-.144-.174-.192-.282-.066-.232-.066-.36z"/></defs></svg>