<svg xmlns="http://www.w3.org/2000/svg" width="672" height="400" fill="none" xmlns:v="https://vecta.io/nano"><g fill="#fff"><path d="M0 0h672v400H0z"/><path d="M0 0h672v400H0z"/></g><path d="M59.378 345v5.672c-.004.922-.434 1.414-1.2 1.414-.707 0-1.2-.422-1.203-1.086h-1.2c0 1.352 1.016 2.1 2.37 2.1 1.47 0 2.43-.898 2.434-2.437V345h-1.203zM64 353.133c.992 0 1.55-.504 1.774-.953h.047v.82h1.14v-3.984c0-1.746-1.375-2.094-2.328-2.094-1.086 0-2.086.437-2.476 1.53l1.098.25c.172-.426.6-.836 1.395-.836.754 0 1.14.395 1.14 1.074v.028c0 .426-.437.418-1.516.543-1.137.133-2.3.43-2.3 1.793 0 1.18.887 1.828 2.027 1.828zm.254-.938c-.66 0-1.137-.297-1.137-.875 0-.625.555-.847 1.23-.937.38-.05 1.277-.153 1.445-.32v.774c0 .7-.566 1.36-1.54 1.36zm5.43-2.758c0-.957.586-1.503 1.398-1.503.793 0 1.273.52 1.273 1.4V353h1.168v-3.816c0-1.485-.816-2.262-2.043-2.262-.902 0-1.492.418-1.77 1.055h-.074V347h-1.12v6h1.168v-3.563zM105.206 353h1.207v-3.488h3.398v-1.035h-3.398v-2.438h3.754V345h-4.96v8zm8.497.12c1.308 0 2.234-.644 2.5-1.62l-1.106-.2c-.2.566-.72.855-1.383.855-1 0-1.67-.648-1.703-1.804h4.266v-.415c0-2.167-1.297-3.015-2.656-3.015-1.672 0-2.774 1.273-2.774 3.117 0 1.863 1.086 3.082 2.856 3.082zm-1.688-3.644c.047-.852.664-1.6 1.613-1.6.907 0 1.5.672 1.504 1.6h-3.117zm5.652 3.523h1.14v-.934h.098c.2.383.64 1.05 1.734 1.05 1.453 0 2.508-1.164 2.508-3.105s-1.07-3.1-2.52-3.1c-1.114 0-1.516.68-1.723 1.05h-.07V345h-1.168v8zm1.144-3c0-1.254.547-2.086 1.567-2.086 1.058 0 1.6.895 1.6 2.086 0 1.203-.547 2.12-1.6 2.12-1.004 0-1.567-.86-1.567-2.12zm35.047-5v8h1.148v-5.793h.074l2.36 5.78h.953l2.36-5.777h.075v5.8h1.148v-8H160.5l-2.547 6.22h-.094l-2.546-6.22h-1.465zm11.524 8.133c.992 0 1.55-.504 1.774-.953h.046v.82h1.14v-3.984c0-1.746-1.375-2.094-2.328-2.094-1.086 0-2.086.437-2.477 1.53l1.098.25c.172-.426.6-.836 1.395-.836.754 0 1.14.395 1.14 1.074v.028c0 .426-.437.418-1.515.543-1.137.133-2.3.43-2.3 1.793 0 1.18.887 1.828 2.027 1.828zm.254-.938c-.66 0-1.137-.297-1.137-.875 0-.625.555-.847 1.23-.937.38-.05 1.277-.153 1.445-.32v.774c0 .7-.566 1.36-1.54 1.36zm4.263.805h1.168v-3.664c0-.785.605-1.352 1.433-1.352a2.6 2.6 0 0 1 .6.07v-1.118a4.93 4.93 0 0 0-.496-.027c-.704 0-1.305.4-1.524 1.043h-.062V347h-1.13v6zm35.14 0l.734-2.117h3.125l.73 2.117h1.28l-2.88-8h-1.394l-2.88 8h1.28zm1.086-3.133l1.18-3.414h.062l1.18 3.414h-2.422zm5.847 5.383h1.168v-3.184h.07c.2.383.64 1.05 1.734 1.05 1.453 0 2.508-1.164 2.508-3.105s-1.07-3.1-2.52-3.1c-1.114 0-1.516.68-1.723 1.05h-.098V347h-1.14v8.25zm1.144-5.25c0-1.254.547-2.086 1.567-2.086 1.058 0 1.6.895 1.6 2.086 0 1.203-.546 2.12-1.6 2.12-1.004 0-1.567-.86-1.567-2.12zm5.645 3h1.168v-3.664c0-.785.605-1.352 1.433-1.352a2.6 2.6 0 0 1 .6.07v-1.118a4.93 4.93 0 0 0-.496-.027c-.704 0-1.305.4-1.524 1.043h-.062V347h-1.13v6zm33.036-8v8h1.15v-5.793h.074l2.36 5.78h.954l2.36-5.777h.074v5.8h1.15v-8h-1.465l-2.547 6.22h-.094l-2.547-6.22h-1.465zm11.525 8.133c.992 0 1.55-.504 1.773-.953h.047v.82h1.14v-3.984c0-1.746-1.375-2.094-2.328-2.094-1.086 0-2.086.437-2.477 1.53l1.098.25c.172-.426.6-.836 1.394-.836.754 0 1.14.395 1.14 1.074v.028c0 .426-.438.418-1.516.543-1.136.133-2.3.43-2.3 1.793 0 1.18.887 1.828 2.028 1.828zm.254-.938c-.66 0-1.137-.297-1.137-.875 0-.625.555-.847 1.23-.937.38-.05 1.278-.153 1.446-.32v.774c0 .7-.567 1.36-1.54 1.36zm4.786 3.04c.965 0 1.578-.504 1.922-1.433l2.48-6.8-1.262-.012-1.52 4.656h-.063L268.4 347h-1.25l2.195 6.078-.144.4c-.297.777-.715.847-1.356.67l-.28.957c.14.067.445.13.797.13zm37.2-10.235v5.672c-.004.922-.434 1.414-1.2 1.414-.707 0-1.2-.422-1.203-1.086h-1.2c0 1.352 1.016 2.1 2.37 2.1 1.47 0 2.43-.898 2.434-2.437V345h-1.203zm6.667 5.512c.003 1.02-.754 1.504-1.4 1.504-.722 0-1.222-.524-1.222-1.34V347h-1.168v3.816c0 1.5.816 2.262 1.97 2.262.902 0 1.515-.476 1.793-1.117h.062V353h1.148v-6h-1.17v3.512zm3.9-1.075c0-.957.586-1.503 1.398-1.503.793 0 1.274.52 1.274 1.4V353h1.168v-3.816c0-1.485-.817-2.262-2.043-2.262-.903 0-1.493.418-1.77 1.055h-.074V347h-1.12v6h1.168v-3.563zM357.156 345v5.672c-.004.922-.434 1.414-1.2 1.414-.707 0-1.2-.422-1.203-1.086h-1.2c0 1.352 1.016 2.1 2.37 2.1 1.47 0 2.43-.898 2.434-2.437V345h-1.203zm6.667 5.512c.004 1.02-.754 1.504-1.4 1.504-.723 0-1.223-.524-1.223-1.34V347h-1.168v3.816c0 1.5.816 2.262 1.97 2.262.902 0 1.515-.476 1.793-1.117h.062V353h1.15v-6h-1.172v3.512zm3.9-5.512h-1.168v8h1.168v-8zm33.305 8l.734-2.117h3.125l.73 2.117h1.28l-2.88-8h-1.394l-2.88 8h1.28zm1.086-3.133l1.18-3.414h.062l1.18 3.414h-2.422zm9.647.645c.004 1.02-.754 1.504-1.4 1.504-.722 0-1.222-.524-1.222-1.34V347h-1.168v3.816c0 1.5.816 2.262 1.968 2.262.903 0 1.516-.476 1.793-1.117h.063V353h1.148v-6h-1.172v3.512zm5.257 4.85c1.528 0 2.707-.7 2.707-2.23V347h-1.144v.973h-.086c-.207-.37-.62-1.05-1.74-1.05-1.45 0-2.515 1.144-2.515 3.055s1.1 2.933 2.508 2.933c1.1 0 1.527-.62 1.738-1.004h.074v1.18c0 .926-.644 1.336-1.53 1.336-.973 0-1.352-.488-1.56-.82l-1.004.414c.317.722 1.118 1.347 2.55 1.347zm-.012-3.422c-1.043 0-1.585-.8-1.585-1.98 0-1.152.53-2.047 1.585-2.047 1.02 0 1.567.832 1.567 2.047 0 1.238-.56 1.98-1.567 1.98zm37.22-4.838h1.164c-.035-1.282-1.168-2.2-2.793-2.2-1.605 0-2.835.918-2.835 2.296 0 1.114.796 1.766 2.082 2.114l.945.258c.855.226 1.516.507 1.516 1.218 0 .782-.747 1.297-1.774 1.297-.93 0-1.703-.414-1.773-1.285h-1.2c.078 1.45 1.2 2.344 2.992 2.344 1.88 0 2.96-.988 2.96-2.344 0-1.44-1.285-2-2.3-2.25l-.78-.203c-.625-.16-1.457-.453-1.453-1.22 0-.68.62-1.183 1.605-1.183.918 0 1.57.43 1.656 1.168zm5.208 6.02c1.3 0 2.235-.644 2.5-1.62l-1.105-.2c-.2.566-.72.855-1.383.855-1 0-1.672-.648-1.703-1.804h4.266v-.415c0-2.167-1.297-3.015-2.657-3.015-1.672 0-2.773 1.273-2.773 3.117 0 1.863 1.086 3.082 2.855 3.082zm-1.687-3.644c.047-.852.664-1.6 1.613-1.6.906 0 1.5.672 1.504 1.6h-3.117zm5.558 5.773h1.167v-3.184h.07c.2.383.64 1.05 1.734 1.05 1.453 0 2.508-1.164 2.508-3.105s-1.07-3.1-2.52-3.1c-1.113 0-1.515.68-1.722 1.05h-.098V347h-1.14v8.25zm1.144-5.25c0-1.254.547-2.086 1.566-2.086 1.06 0 1.6.895 1.6 2.086 0 1.203-.547 2.12-1.6 2.12-1.003 0-1.566-.86-1.566-2.12zm42.817-1c0-2.56-1.53-4.1-3.602-4.1-2.078 0-3.605 1.55-3.605 4.1s1.527 4.1 3.605 4.1c2.07 0 3.602-1.55 3.602-4.1zm-1.195 0c0 1.95-1.032 3.008-2.407 3.008s-2.406-1.06-2.406-3.008 1.027-3.008 2.406-3.008 2.407 1.06 2.407 3.008zm5.133 4.12c1.418 0 2.336-.85 2.465-2.02h-1.136c-.15.648-.653 1.03-1.32 1.03-.988 0-1.625-.824-1.625-2.133 0-1.285.65-2.094 1.625-2.094.742 0 1.196.47 1.32 1.03h1.136c-.125-1.2-1.113-2.015-2.476-2.015-1.692 0-2.785 1.273-2.785 3.105 0 1.8 1.054 3.094 2.796 3.094zm6.515-6.12h-1.23v-1.438h-1.168V347h-.88v.937h.88v3.543c-.004 1.1.828 1.618 1.75 1.598.37-.004.62-.074.757-.125l-.2-.965c-.08.016-.223.05-.4.05-.38 0-.718-.125-.718-.8v-3.3h1.23V347zm37.175-2H553.7v5.875h-.074l-4.07-5.875h-1.117v8h1.207v-5.867h.074l4.067 5.867h1.1v-8zm4.194 8.12c1.692 0 2.797-1.238 2.797-3.094 0-1.867-1.105-3.105-2.797-3.105s-2.796 1.238-2.796 3.105c0 1.856 1.105 3.094 2.796 3.094zm.004-.98c-1.105 0-1.62-.965-1.62-2.118s.516-2.125 1.62-2.125c1.098 0 1.614.977 1.614 2.125s-.516 2.118-1.614 2.118zm9.015-5.14h-1.254l-1.516 4.617h-.062l-1.52-4.617h-1.253l2.18 6h1.25l2.176-6zm32.2 6c2.438 0 3.848-1.512 3.848-4.012 0-2.488-1.4-3.988-3.766-3.988h-2.672v8h2.6zm-1.383-1.055v-5.9h1.4c1.75 0 2.652 1.047 2.652 2.933 0 1.895-.902 2.957-2.726 2.957h-1.317zm9.224 1.176c1.3 0 2.234-.644 2.5-1.62l-1.105-.2c-.2.566-.72.855-1.383.855-1 0-1.672-.648-1.703-1.804h4.265v-.415c0-2.167-1.297-3.015-2.656-3.015-1.672 0-2.773 1.273-2.773 3.117 0 1.863 1.085 3.082 2.855 3.082zm-1.687-3.644c.046-.852.664-1.6 1.613-1.6.906 0 1.5.672 1.504 1.6h-3.117zm8.084 3.644c1.418 0 2.336-.85 2.465-2.02h-1.136c-.15.648-.653 1.03-1.32 1.03-.988 0-1.625-.824-1.625-2.133 0-1.285.65-2.094 1.625-2.094.742 0 1.196.47 1.32 1.03h1.136c-.125-1.2-1.113-2.015-2.476-2.015-1.692 0-2.785 1.273-2.785 3.105 0 1.8 1.054 3.094 2.796 3.094z" fill="#5d6598"/><g clip-path="url(#B)"><path d="M43 307l650-24" stroke="#8babe1" stroke-width="2" stroke-linecap="round" stroke-dasharray="0.1 4"/><path d="M59.533 293.8l-.877.033.22 5.814.877-.033-.22-5.814zm6.97-.26l-.87.032.16 4.27-.054.002-3.12-4.16-.812.03.22 5.814.877-.033-.16-4.264.054-.002 3.116 4.154.806-.03-.22-5.814zm4.38 5.658c1.77-.066 2.755-1.203 2.686-3.02-.068-1.808-1.134-2.86-2.846-2.796l-1.942.072.22 5.814 1.882-.07zm-1.034-.73l-.162-4.28 1.01-.038c1.272-.047 1.956.69 2.008 2.06.052 1.377-.575 2.174-1.9 2.223l-.957.036zm9.442-5.408l.145 3.833c.03.815-.602 1.296-1.386 1.325-.778.03-1.448-.403-1.48-1.218l-.145-3.832-.877.032.145 3.847c.05 1.312 1.1 2.026 2.386 1.978s2.282-.84 2.233-2.15l-.145-3.846-.877.032zm6.38 1.29l.846-.03c-.06-.93-.9-1.575-2.09-1.53-1.167.043-2.036.744-1.998 1.746.03.81.628 1.262 1.57 1.48l.694.162c.628.142 1.115.328 1.135.845.02.567-.507.962-1.253 1-.676.026-1.25-.254-1.324-.885l-.88.032c.097 1.052.936 1.67 2.24 1.622 1.366-.05 2.125-.798 2.088-1.783-.04-1.048-.99-1.42-1.734-1.573l-.573-.126c-.46-.1-1.07-.3-1.1-.847-.02-.494.42-.877 1.134-.903.667-.025 1.153.27 1.236.803zm2.657-.872l1.81-.068.19 5.06.874-.033-.19-5.06 1.814-.067-.03-.756-4.5.17.03.755zm6.685 4.816l.877-.033-.083-2.2 1.25-.047 1.264 2.156 1-.037-1.378-2.305c.703-.29 1.035-.898 1.006-1.678-.04-1.07-.733-1.798-2.082-1.748l-2.072.078.22 5.814zm.766-2.988l-.08-2.107 1.102-.04c.866-.032 1.24.366 1.264 1.025s-.32 1.05-1.173 1.08l-1.113.042zm4.718-3.04l2.243 3.452.086 2.283.874-.033-.086-2.282 1.976-3.61-.997.037-1.418 2.7-.063.003-1.62-2.587-.996.038zm10.746 5.42l.476-1.558 2.27-.085.59 1.518.93-.034-2.312-5.736-1.013.038-1.873 5.892.93-.035zm.704-2.306l.763-2.513.046-.002.95 2.45-1.76.066zm5.09-3.733l-.948.036 2.312 5.736 1.014-.038 1.872-5.893-.948.036-1.44 4.796-.065.002-1.798-4.675zm6.31 5.587l3.68-.138-.028-.755-2.802.105-.068-1.78 2.578-.097-.028-.752-2.578.096-.067-1.77 2.768-.103-.03-.756-3.645.137.22 5.814zm5.816-.218l.877-.033-.083-2.2 1.25-.046 1.265 2.156 1-.038-1.378-2.305c.703-.29 1.035-.897 1.006-1.678-.04-1.07-.734-1.798-2.082-1.747l-2.072.077.22 5.814zm.766-2.988l-.08-2.106 1.102-.04c.866-.033 1.24.365 1.264 1.024s-.32 1.05-1.173 1.082l-1.113.04zm5.877 2.74l.476-1.56 2.27-.085.59 1.52.93-.035-2.312-5.735-1.013.037-1.873 5.893.93-.035zm.703-2.306l.764-2.514h.046l.95 2.45-1.76.066zm8.914-2.037l.9-.033c-.238-1.126-1.236-1.873-2.49-1.826-1.505.056-2.56 1.23-2.5 3.087.07 1.84 1.18 2.943 2.756 2.885 1.4-.053 2.383-1.016 2.328-2.484l-.025-.662-2.285.086.027.724 1.436-.054c.016.938-.58 1.554-1.512 1.59-1.025.038-1.8-.71-1.854-2.123-.053-1.408.67-2.21 1.655-2.248.772-.03 1.31.378 1.555 1.06zm3.203 3.864l3.68-.138-.028-.755-2.802.105-.067-1.78 2.577-.097-.028-.752-2.578.096-.067-1.77 2.768-.104-.028-.755-3.646.137.22 5.814z" fill="#8babe1"/><path d="M40.224 231.906l-1.224-.28V343h647V221.835l-1.15.177-21.5 3.293c-21.503 3.294-64.434 9.87-107.35 9.87-21.455 0-42.917-1.643-64.424-3.3l-.02-.002c-21.487-1.646-43.02-3.295-64.557-3.295-43.076 0-86.14 6.597-129.113 13.18l-.038.006c-43.017 6.59-85.922 13.16-128.81 11.516-42.894-1.642-85.81-11.5-107.314-16.443l-21.5-4.94z" fill="url(#A)" fill-opacity=".05" stroke="#1757c2" stroke-width="2"/></g><path d="M216.01 170.295h-1.38l-4.22 15.674h1.38l4.22-15.674zm10.992.4c-2.66-.026-4.372 1.968-4.372 4.397 0 2.532 1.867 4.347 4.117 4.347 1.355 0 2.505-.665 3.22-1.74h.102c0 3.222-1.252 5.063-3.272 5.063-1.38 0-2.225-.87-2.506-2.07h-1.56c.307 2.07 1.867 3.477 4.066 3.477 2.94 0 4.755-2.608 4.755-7.26 0-4.833-2.403-6.188-4.55-6.213zm0 1.406c1.637 0 2.838 1.406 2.838 2.966s-1.278 2.966-2.89 2.966-2.787-1.304-2.787-2.94c0-1.662 1.227-2.99 2.838-2.99zm11.156 12.068c2.493 0 4.32-1.84 4.32-4.347 0-2.537-1.764-4.397-4.168-4.397-.882 0-1.738.313-2.275.74h-.077l.46-3.86h5.472v-1.406h-6.8l-.793 6.443 1.483.18c.543-.4 1.47-.67 2.276-.665 1.668.013 2.89 1.28 2.89 2.992 0 1.68-1.176 2.915-2.787 2.915-1.342 0-2.4-.863-2.53-2.046h-1.534c.096 1.995 1.815 3.452 4.065 3.452zm11.13 0c2.89 0 4.55-2.448 4.55-6.724 0-4.245-1.687-6.725-4.55-6.725s-4.55 2.48-4.55 6.725c0 4.276 1.662 6.724 4.55 6.724zm0-1.406c-1.905 0-3.017-1.91-3.017-5.318 0-3.4 1.125-5.344 3.017-5.344s3.017 1.943 3.017 5.344c0 3.407-1.112 5.318-3.017 5.318z" fill="#5d6598"/><path d="M88 164c0 13.255-10.745 24-24 24s-24-10.745-24-24 10.745-24 24-24 24 10.745 24 24z" fill="#f9fcf5"/><g fill="#90ca2f"><path fill-rule="evenodd" d="M64 141c-12.702 0-23 10.297-23 23s10.298 23 23 23 23-10.297 23-23-10.297-23-23-23zm-25 23c0-13.807 11.193-25 25-25s25 11.193 25 25-11.193 25-25 25-25-11.193-25-25z"/><path d="M64.542 171.317c.76 0 1.413-.087 1.96-.26s.997-.416 1.344-.727a2.88 2.88 0 0 0 .782-1.124 4.07 4.07 0 0 0 .247-1.44c0-1.015-.36-1.815-1.083-2.4-.722-.595-1.806-.892-3.25-.892h-4.25v6.844h4.25zm-4.25-15.443v6.707h3.5c.75 0 1.4-.083 1.947-.247.558-.165 1.015-.393 1.37-.686.366-.293.635-.645.8-1.056a3.56 3.56 0 0 0 .261-1.371c0-1.162-.347-2.007-1.042-2.538-.695-.54-1.774-.8-3.237-.8h-3.62zm3.62-2.098c1.207 0 2.245.12 3.113.357.878.237 1.595.576 2.153 1.014.567.44.983.98 1.248 1.62.265.63.398 1.344.398 2.14a4.26 4.26 0 0 1-.233 1.4c-.146.44-.37.85-.672 1.234s-.686.732-1.152 1.043c-.457.3-.997.548-1.618.74 1.445.274 2.528.8 3.25 1.55.73.75 1.097 1.737 1.097 2.962 0 .832-.155 1.6-.466 2.277-.302.685-.75 1.275-1.344 1.77-.585.494-1.307.878-2.167 1.152-.86.265-1.838.398-2.935.398h-6.94V153.78h6.267zM110.098 184h5.17l18.137-36.114v-4.613h-26.1v4.375h21v.318L110.098 184zm43.14-41.364c-8.273-.08-13.603 6.125-13.603 13.682 0 7.875 5.807 13.523 12.807 13.523 4.216 0 7.796-2.068 10.023-5.4h.318c0 10.023-3.898 15.75-10.182 15.75-4.295 0-6.92-2.705-7.795-6.443h-4.853c.955 6.443 5.807 10.818 12.648 10.818 9.148 0 14.796-8.114 14.796-22.6 0-15.034-7.478-19.25-14.16-19.33zm0 4.375c5.1 0 8.83 4.375 8.83 9.228s-3.977 9.227-9 9.227-8.67-4.057-8.67-9.148c0-5.17 3.818-9.307 8.83-9.307zm35.263 37.546c9 0 14.16-7.617 14.16-20.92 0-13.204-5.25-20.92-14.16-20.92s-14.16 7.716-14.16 20.92c0 13.304 5.17 20.92 14.16 20.92zm0-4.375c-5.926 0-9.386-5.946-9.386-16.546 0-10.58 3.5-16.625 9.386-16.625s9.386 6.046 9.386 16.625c0 10.6-3.46 16.546-9.386 16.546z"/></g><path d="M42.358 45.455H40.51L45.852 60h1.818l5.34-14.545h-1.847L46.847 57.7h-.17l-4.318-12.244zm16.25 14.773c2.216 0 3.835-1.108 4.347-2.756l-1.62-.455c-.426 1.136-1.413 1.705-2.727 1.705-1.967 0-3.324-1.27-3.402-3.608h7.92v-.7c0-4.062-2.415-5.454-4.687-5.454-2.955 0-4.915 2.33-4.915 5.682s1.932 5.597 5.085 5.597zm-3.402-6.562c.114-1.697 1.314-3.2 3.23-3.2 1.818 0 2.983 1.364 2.983 3.2h-6.214zm12.145-.227c0-1.903 1.18-2.983 2.784-2.983 1.555 0 2.5 1.016 2.5 2.727V60h1.676v-6.932c0-2.784-1.484-4.12-3.693-4.12-1.648 0-2.67.74-3.182 1.847h-.142V49.09h-1.62V60h1.676v-6.562zm14.142 6.8c2.102 0 2.813-1.307 3.182-1.903h.2V60h1.62V45.455h-1.676v5.37h-.142c-.37-.568-1.023-1.875-3.153-1.875-2.756 0-4.66 2.188-4.66 5.625 0 3.466 1.903 5.653 4.63 5.653zm.227-1.506c-2.102 0-3.182-1.847-3.182-4.176 0-2.3 1.05-4.09 3.182-4.09 2.046 0 3.125 1.648 3.125 4.09 0 2.472-1.108 4.176-3.125 4.176zm12.507 1.506c2.955 0 4.943-2.244 4.943-5.625 0-3.41-1.99-5.653-4.943-5.653s-4.943 2.244-4.943 5.653c0 3.38 1.99 5.625 4.943 5.625zm0-1.506c-2.244 0-3.267-1.932-3.267-4.12s1.023-4.148 3.267-4.148 3.267 1.96 3.267 4.148-1.023 4.12-3.267 4.12zm7.5 1.278h1.677v-6.903c0-1.477 1.164-2.557 2.755-2.557a5.13 5.13 0 0 1 1.023.114V48.95l-.88-.028c-1.307 0-2.443.74-2.84 1.818h-.113V49.09h-1.62V60zm13.294 0h1.76v-5.682h3.182l.37-.007 3.068 5.69h2.045l-3.288-6.008c1.854-.632 2.72-2.145 2.72-4.077 0-2.57-1.534-4.46-4.943-4.46h-4.915V60zm1.76-7.273v-5.7h3.097c2.358 0 3.267 1.15 3.267 2.898s-.91 2.813-3.24 2.813h-3.125zM127.59 60h1.676V49.09h-1.676V60zm.852-12.727c.653 0 1.193-.51 1.193-1.136S129.094 45 128.44 45s-1.193.51-1.193 1.136.54 1.136 1.193 1.136zm11.62 4.26c-.525-1.548-1.704-2.585-3.863-2.585-2.302 0-4.006 1.307-4.006 3.153 0 1.506.895 2.514 2.898 2.983l1.818.426c1.1.256 1.62.78 1.62 1.534 0 .938-.994 1.705-2.557 1.705-1.37 0-2.23-.6-2.528-1.76l-1.59.398c.39 1.854 1.918 2.84 4.148 2.84 2.535 0 4.26-1.385 4.26-3.267 0-1.52-.952-2.48-2.898-2.955l-1.62-.398c-1.293-.32-1.875-.753-1.875-1.59 0-.937.994-1.62 2.33-1.62 1.463 0 2.066.8 2.357 1.563l1.506-.426zM142.784 60h1.676v-4.084l1.172-1.087 4.084 5.17h2.13l-4.95-6.25 4.6-4.66h-2.074l-4.773 4.858h-.2v-8.494h-1.676V60zm16.73 0h8.892v-1.562h-7.13v-4.943h6.562v-1.562h-6.562v-4.915h7.017v-1.562h-8.78V60zm12.976-10.91h-1.932l3.466 5.455L170.56 60h1.932l2.614-4.233L177.718 60h1.932l-3.523-5.455 3.523-5.455h-1.932l-2.613 4.46-2.614-4.46zm13.676 11.136c2.215 0 3.835-1.108 4.346-2.756l-1.62-.455c-.426 1.136-1.414 1.705-2.727 1.705-1.968 0-3.324-1.27-3.402-3.608h7.92v-.7c0-4.062-2.415-5.454-4.688-5.454-2.954 0-4.915 2.33-4.915 5.682s1.932 5.597 5.086 5.597zm-3.402-6.562c.113-1.697 1.313-3.2 3.23-3.2 1.818 0 2.983 1.364 2.983 3.2h-6.214zm14.9 6.563c2.415 0 4.006-1.477 4.3-3.41h-1.676c-.313 1.193-1.307 1.903-2.614 1.903-1.99 0-3.267-1.648-3.267-4.176 0-2.472 1.307-4.09 3.267-4.09 1.477 0 2.358.91 2.614 1.903h1.676c-.284-2.045-2.017-3.41-4.318-3.41-2.955 0-4.915 2.33-4.915 5.653 0 3.267 1.875 5.625 4.943 5.625zm13.615-4.687c0 2.045-1.562 2.983-2.812 2.983-1.392 0-2.387-1.023-2.387-2.614V49.09h-1.676v6.932c0 2.784 1.477 4.12 3.523 4.12 1.648 0 2.727-.88 3.24-1.99h.113V60h1.676V49.09h-1.676v6.45zm9.49-6.45h-2.33v-2.614h-1.676v2.614h-1.648v1.42h1.648v6.818c0 1.903 1.534 2.813 2.954 2.813.625 0 1.023-.114 1.25-.2l-.34-1.506c-.142.028-.37.085-.74.085-.74 0-1.45-.227-1.45-1.648V50.51h2.33v-1.42zm2.52 10.91h1.676V49.09h-1.676V60zm.852-12.727c.654 0 1.193-.51 1.193-1.136S224.798 45 224.144 45s-1.193.51-1.193 1.136.54 1.136 1.193 1.136zm12.814 1.818h-1.818l-3.01 8.693h-.114l-3.01-8.693h-1.818L231.22 60h1.704l4.034-10.91zm6.396 11.136c2.216 0 3.835-1.108 4.347-2.756l-1.62-.455c-.426 1.136-1.413 1.705-2.727 1.705-1.967 0-3.324-1.27-3.402-3.608h7.92v-.7c0-4.062-2.415-5.454-4.687-5.454-2.955 0-4.915 2.33-4.915 5.682s1.932 5.597 5.085 5.597zm-3.402-6.562c.114-1.697 1.314-3.2 3.232-3.2 1.818 0 2.983 1.364 2.983 3.2h-6.215zm24.276-4.574h1.704c-.078-2.195-2.102-3.835-4.915-3.835-2.784 0-4.97 1.62-4.97 4.063 0 1.96 1.42 3.125 3.693 3.778l1.8.51c1.534.426 2.897.966 2.897 2.415 0 1.59-1.534 2.642-3.55 2.642-1.733 0-3.267-.767-3.41-2.415h-1.818c.17 2.386 2.102 4.006 5.227 4.006 3.353 0 5.256-1.847 5.256-4.205 0-2.727-2.585-3.608-4.09-4.006l-1.477-.398c-1.08-.284-2.813-.852-2.813-2.415 0-1.392 1.28-2.415 3.21-2.415 1.76 0 3.096.838 3.267 2.273zm11.447 6.45c0 2.045-1.563 2.983-2.813 2.983-1.392 0-2.386-1.023-2.386-2.614V49.09H268.8v6.932c0 2.784 1.477 4.12 3.522 4.12 1.648 0 2.728-.88 3.24-1.99h.114V60h1.676V49.09h-1.676v6.45zM280.42 60h1.676v-6.818c0-1.598 1.165-2.727 2.472-2.727 1.27 0 2.16.83 2.16 2.074V60h1.704v-7.102c0-1.406.88-2.443 2.415-2.443 1.193 0 2.216.632 2.216 2.244V60h1.676v-7.3c0-2.564-1.378-3.75-3.324-3.75-1.562 0-2.706.717-3.267 1.847h-.114c-.54-1.165-1.49-1.847-2.926-1.847-1.42 0-2.47.682-2.926 1.847h-.142V49.09h-1.62V60zm17.383 0h1.676v-6.818c0-1.598 1.165-2.727 2.47-2.727 1.272 0 2.16.83 2.16 2.074V60h1.705v-7.102c0-1.406.88-2.443 2.415-2.443 1.193 0 2.216.632 2.216 2.244V60h1.676v-7.3c0-2.564-1.378-3.75-3.324-3.75-1.563 0-2.706.717-3.267 1.847h-.114c-.54-1.165-1.49-1.847-2.926-1.847-1.42 0-2.47.682-2.926 1.847h-.142V49.09h-1.62V60zm20.593.256c1.903 0 2.897-1.023 3.238-1.733h.086V60h1.676v-7.187c0-3.466-2.642-3.864-4.034-3.864-1.648 0-3.523.568-4.375 2.557l1.6.568c.37-.796 1.243-1.648 2.84-1.648 1.542 0 2.302.817 2.302 2.216v.057c0 .8-.824.74-2.813.994-2.024.263-4.233.7-4.233 3.2 0 2.13 1.648 3.352 3.722 3.352zm.255-1.506c-1.335 0-2.3-.597-2.3-1.76 0-1.278 1.165-1.676 2.472-1.847.7-.085 2.613-.284 2.898-.625v1.534c0 1.364-1.08 2.7-3.07 2.7zm7.804 1.25h1.676v-6.903c0-1.477 1.165-2.557 2.756-2.557a5.14 5.14 0 0 1 1.023.114V48.95l-.88-.028c-1.307 0-2.443.74-2.84 1.818h-.114V49.09h-1.62V60zm8.853 4.063c1.513 0 2.585-.803 3.2-2.472l4.645-12.472-1.832-.028-3.012 8.693h-.113l-3.012-8.693h-1.818l4.034 10.966-.312.852c-.597 1.633-1.364 1.8-2.586 1.477l-.426 1.477c.17.085.654.2 1.222.2z" fill="#131520"/><path d="M44.596 118.144c-.832 0-1.552-.18-2.16-.54-.6-.368-1.064-.876-1.392-1.524-.328-.656-.492-1.412-.492-2.268 0-.864.164-1.62.492-2.268a3.7 3.7 0 0 1 1.392-1.536c.608-.368 1.328-.552 2.16-.552.984 0 1.788.24 2.412.72s1.02 1.152 1.188 2.016H46.78c-.112-.488-.352-.876-.72-1.164s-.86-.432-1.476-.432c-.84 0-1.504.288-1.992.864-.488.568-.732 1.352-.732 2.352 0 .992.244 1.772.732 2.34s1.152.852 1.992.852c.616 0 1.108-.136 1.476-.408s.608-.644.72-1.116h1.416c-.168.832-.564 1.484-1.188 1.956s-1.428.708-2.412.708zm11.422-6.096V118H54.9l-.096-1.044a2.1 2.1 0 0 1-.816.876 2.36 2.36 0 0 1-1.224.312c-.72 0-1.288-.224-1.704-.672-.408-.448-.612-1.116-.612-2.004v-3.42h1.26v3.288c0 1.152.472 1.728 1.416 1.728.472 0 .86-.168 1.164-.504.312-.336.468-.816.468-1.44v-3.072h1.272zM58.624 118v-5.952h1.14l.108 1.128c.208-.392.496-.7.864-.924.376-.232.828-.348 1.356-.348v1.332h-.348c-.352 0-.668.06-.948.18-.272.112-.492.308-.66.588-.16.272-.24.652-.24 1.14V118h-1.272zm5.56 0v-5.952h1.14l.108 1.128c.208-.392.496-.7.864-.924.376-.232.828-.348 1.356-.348v1.332h-.348c-.352 0-.668.06-.948.18-.272.112-.492.308-.66.588-.16.272-.24.652-.24 1.14V118h-1.272zm8.18.144c-.584 0-1.104-.128-1.56-.384a2.83 2.83 0 0 1-1.056-1.092c-.256-.464-.384-1.004-.384-1.62 0-.624.124-1.172.372-1.644.256-.472.608-.84 1.056-1.104.456-.264.984-.396 1.584-.396.584 0 1.092.132 1.524.396.432.256.768.6 1.008 1.032a2.89 2.89 0 0 1 .36 1.428l-.012.264-.012.3H70.61c.04.576.228 1.016.564 1.32.344.296.74.444 1.188.444.36 0 .66-.08.9-.24.248-.168.432-.392.552-.672h1.272c-.16.56-.48 1.028-.96 1.404-.472.376-1.06.564-1.764.564zm0-5.196c-.424 0-.8.128-1.128.384-.328.248-.528.624-.6 1.128h3.36c-.024-.464-.188-.832-.492-1.104s-.684-.408-1.14-.408zM77.585 118v-5.952h1.128l.096 1.044c.184-.368.452-.656.804-.864.36-.216.772-.324 1.236-.324.72 0 1.284.224 1.692.672.416.448.624 1.116.624 2.004V118h-1.26v-3.288c0-1.152-.472-1.728-1.416-1.728-.472 0-.864.168-1.176.504-.304.336-.456.816-.456 1.44V118h-1.272zm10.574 0c-.584 0-1.048-.14-1.392-.42-.344-.288-.516-.796-.516-1.524v-2.94h-1.02v-1.068h1.02l.156-1.512h1.116v1.512h1.68v1.068h-1.68v2.94c0 .328.068.556.204.684.144.12.388.18.732.18h.684V118h-.984zm9.047 0l-2.232-5.952h1.332l1.656 4.74 1.656-4.74h1.32L98.718 118h-1.512zm8.257.144c-.584 0-1.104-.128-1.56-.384a2.83 2.83 0 0 1-1.056-1.092c-.256-.464-.384-1.004-.384-1.62 0-.624.124-1.172.372-1.644.256-.472.608-.84 1.056-1.104.456-.264.984-.396 1.584-.396.584 0 1.092.132 1.524.396.432.256.768.6 1.008 1.032a2.89 2.89 0 0 1 .36 1.428l-.012.264-.012.3h-4.632c.04.576.228 1.016.564 1.32.344.296.74.444 1.188.444.36 0 .66-.08.9-.24.248-.168.432-.392.552-.672h1.272c-.16.56-.48 1.028-.96 1.404-.472.376-1.06.564-1.764.564zm0-5.196c-.424 0-.8.128-1.128.384-.328.248-.528.624-.6 1.128h3.36c-.024-.464-.188-.832-.492-1.104s-.684-.408-1.14-.408zm5.224 5.052v-5.952h1.128l.096 1.044c.184-.368.452-.656.804-.864.36-.216.772-.324 1.236-.324.72 0 1.284.224 1.692.672.416.448.624 1.116.624 2.004V118h-1.26v-3.288c0-1.152-.472-1.728-1.416-1.728-.472 0-.864.168-1.176.504-.304.336-.456.816-.456 1.44V118h-1.272zm10.8.144c-.576 0-1.084-.136-1.524-.408s-.784-.644-1.032-1.116-.372-1.008-.372-1.608.124-1.132.372-1.596a2.75 2.75 0 0 1 1.032-1.104 2.9 2.9 0 0 1 1.536-.408c.472 0 .884.092 1.236.276a2.03 2.03 0 0 1 .84.78v-3.6h1.272V118h-1.14l-.132-.924c-.192.28-.456.528-.792.744s-.768.324-1.296.324zm.228-1.104c.544 0 .988-.188 1.332-.564.352-.376.528-.86.528-1.452 0-.6-.176-1.084-.528-1.452-.344-.376-.788-.564-1.332-.564s-.992.188-1.344.564c-.352.368-.528.852-.528 1.452 0 .392.08.74.24 1.044a1.85 1.85 0 0 0 .66.72c.288.168.612.252.972.252zm8.52 1.104c-.568 0-1.08-.128-1.536-.384-.448-.264-.804-.628-1.068-1.092-.264-.472-.396-1.02-.396-1.644s.132-1.168.396-1.632c.272-.472.636-.836 1.092-1.092.456-.264.964-.396 1.524-.396.568 0 1.076.132 1.524.396a2.78 2.78 0 0 1 1.08 1.092c.272.464.408 1.008.408 1.632s-.136 1.172-.408 1.644a2.89 2.89 0 0 1-1.08 1.092c-.456.256-.968.384-1.536.384zm0-1.092c.304 0 .584-.076.84-.228.264-.152.476-.376.636-.672.16-.304.24-.68.24-1.128s-.08-.82-.24-1.116c-.152-.304-.36-.532-.624-.684-.256-.152-.536-.228-.84-.228a1.68 1.68 0 0 0-.852.228c-.256.152-.464.38-.624.684-.16.296-.24.668-.24 1.116s.08.824.24 1.128c.16.296.368.52.624.672s.536.228.84.228zm5.4.948v-5.952h1.14l.108 1.128c.208-.392.496-.7.864-.924.376-.232.828-.348 1.356-.348v1.332h-.348c-.352 0-.668.06-.948.18-.272.112-.492.308-.66.588-.16.272-.24.652-.24 1.14V118h-1.272zm11.598.144c-.504 0-.92-.084-1.248-.252s-.572-.388-.732-.66c-.16-.28-.24-.584-.24-.912 0-.576.224-1.032.672-1.368s1.088-.504 1.92-.504h1.56v-.108c0-.464-.128-.812-.384-1.044-.248-.232-.572-.348-.972-.348-.352 0-.66.088-.924.264-.256.168-.412.42-.468.756h-1.272c.04-.432.184-.8.432-1.104a2.43 2.43 0 0 1 .96-.708c.392-.168.82-.252 1.284-.252.832 0 1.476.22 1.932.66.456.432.684 1.024.684 1.776V118h-1.104l-.108-1.02a2.26 2.26 0 0 1-.732.828c-.32.224-.74.336-1.26.336zm.252-1.032c.344 0 .632-.08.864-.24.24-.168.424-.388.552-.66.136-.272.22-.572.252-.9h-1.416c-.504 0-.864.088-1.08.264a.83.83 0 0 0-.312.66c0 .272.1.488.3.648.208.152.488.228.84.228zm6.904.888l-2.232-5.952h1.332l1.656 4.74 1.656-4.74h1.32L155.9 118h-1.512zm8.257.144c-.584 0-1.104-.128-1.56-.384a2.83 2.83 0 0 1-1.056-1.092c-.256-.464-.384-1.004-.384-1.62 0-.624.124-1.172.372-1.644.256-.472.608-.84 1.056-1.104.456-.264.984-.396 1.584-.396.584 0 1.092.132 1.524.396.432.256.768.6 1.008 1.032a2.89 2.89 0 0 1 .36 1.428l-.012.264-.012.3h-4.632c.04.576.228 1.016.564 1.32.344.296.74.444 1.188.444.36 0 .66-.08.9-.24.248-.168.432-.392.552-.672h1.272c-.16.56-.48 1.028-.96 1.404-.472.376-1.06.564-1.764.564zm0-5.196c-.424 0-.8.128-1.128.384-.328.248-.528.624-.6 1.128h3.36c-.024-.464-.188-.832-.492-1.104s-.684-.408-1.14-.408zM167.86 118v-5.952H169l.108 1.128c.208-.392.496-.7.864-.924.376-.232.828-.348 1.356-.348v1.332h-.348c-.352 0-.668.06-.948.18-.272.112-.492.308-.66.588-.16.272-.24.652-.24 1.14V118h-1.272zm7.574.144c-.504 0-.92-.084-1.248-.252s-.572-.388-.732-.66c-.16-.28-.24-.584-.24-.912 0-.576.224-1.032.672-1.368s1.088-.504 1.92-.504h1.56v-.108c0-.464-.128-.812-.384-1.044-.248-.232-.572-.348-.972-.348-.352 0-.66.088-.924.264-.256.168-.412.42-.468.756h-1.272c.04-.432.184-.8.432-1.104a2.43 2.43 0 0 1 .96-.708c.392-.168.82-.252 1.284-.252.832 0 1.476.22 1.932.66.456.432.684 1.024.684 1.776V118h-1.104l-.108-1.02a2.26 2.26 0 0 1-.732.828c-.32.224-.74.336-1.26.336zm.252-1.032c.344 0 .632-.08.864-.24.24-.168.424-.388.552-.66.136-.272.22-.572.252-.9h-1.416c-.504 0-.864.088-1.08.264a.83.83 0 0 0-.312.66c0 .272.1.488.3.648.208.152.488.228.84.228zm7.87-.936c-.312 0-.6-.036-.864-.108l-.516.504c.088.056.196.104.324.144s.308.076.54.108l.948.096c.792.072 1.364.264 1.716.576.352.304.528.712.528 1.224a1.87 1.87 0 0 1-.288.996c-.184.32-.476.576-.876.768-.392.2-.896.3-1.512.3-.832 0-1.508-.16-2.028-.48-.512-.312-.768-.788-.768-1.428a1.61 1.61 0 0 1 .192-.744c.136-.24.348-.468.636-.684a3.27 3.27 0 0 1-.444-.228 3.84 3.84 0 0 1-.324-.264v-.288l1.032-1.056c-.464-.4-.696-.924-.696-1.572 0-.392.092-.748.276-1.068.192-.328.468-.588.828-.78s.792-.288 1.296-.288c.336 0 .648.048.936.144h2.22v.84l-1.056.06a2.12 2.12 0 0 1 .288 1.092c0 .4-.096.76-.288 1.08-.184.32-.456.576-.816.768-.352.192-.78.288-1.284.288zm0-.996c.368 0 .664-.096.888-.288.232-.2.348-.48.348-.84 0-.368-.116-.648-.348-.84-.224-.192-.52-.288-.888-.288-.376 0-.68.096-.912.288-.224.192-.336.472-.336.84 0 .36.112.64.336.84.232.192.536.288.912.288zm-1.596 3.576a.82.82 0 0 0 .456.768c.304.176.684.264 1.14.264.44 0 .796-.096 1.068-.288.272-.184.408-.432.408-.744 0-.232-.092-.432-.276-.6-.184-.16-.532-.26-1.044-.3l-1.02-.108c-.28.152-.472.316-.576.492s-.156.348-.156.516zm9.437-.612c-.584 0-1.104-.128-1.56-.384a2.83 2.83 0 0 1-1.056-1.092c-.256-.464-.384-1.004-.384-1.62 0-.624.124-1.172.372-1.644.256-.472.608-.84 1.056-1.104.456-.264.984-.396 1.584-.396.584 0 1.092.132 1.524.396.432.256.768.6 1.008 1.032a2.89 2.89 0 0 1 .36 1.428l-.012.264-.012.3h-4.632c.04.576.228 1.016.564 1.32.344.296.74.444 1.188.444.36 0 .66-.08.9-.24.248-.168.432-.392.552-.672h1.272c-.16.56-.48 1.028-.96 1.404-.472.376-1.06.564-1.764.564zm0-5.196c-.424 0-.8.128-1.128.384-.328.248-.528.624-.6 1.128h3.36c-.024-.464-.188-.832-.492-1.104s-.684-.408-1.14-.408zm9.247 5.052v-5.952h1.14l.108 1.128c.208-.392.496-.7.864-.924.376-.232.828-.348 1.356-.348v1.332h-.348c-.352 0-.668.06-.948.18-.272.112-.492.308-.66.588-.16.272-.24.652-.24 1.14V118h-1.272zm7.574.144c-.504 0-.92-.084-1.248-.252s-.572-.388-.732-.66c-.16-.28-.24-.584-.24-.912 0-.576.224-1.032.672-1.368s1.088-.504 1.92-.504h1.56v-.108c0-.464-.128-.812-.384-1.044-.248-.232-.572-.348-.972-.348-.352 0-.66.088-.924.264-.256.168-.412.42-.468.756h-1.272c.04-.432.184-.8.432-1.104a2.43 2.43 0 0 1 .96-.708c.392-.168.82-.252 1.284-.252.832 0 1.476.22 1.932.66.456.432.684 1.024.684 1.776V118h-1.104l-.108-1.02a2.26 2.26 0 0 1-.732.828c-.32.224-.74.336-1.26.336zm.252-1.032c.344 0 .632-.08.864-.24.24-.168.424-.388.552-.66.136-.272.22-.572.252-.9h-1.416c-.504 0-.864.088-1.08.264a.83.83 0 0 0-.312.66c0 .272.1.488.3.648.208.152.488.228.84.228zm7.814.888c-.584 0-1.048-.14-1.392-.42-.344-.288-.516-.796-.516-1.524v-2.94h-1.02v-1.068h1.02l.156-1.512h1.116v1.512h1.68v1.068h-1.68v2.94c0 .328.068.556.204.684.144.12.388.18.732.18h.684V118h-.984zm4.076-7.08c-.24 0-.44-.072-.6-.216-.152-.152-.228-.34-.228-.564s.076-.408.228-.552c.16-.152.36-.228.6-.228s.436.076.588.228a.71.71 0 0 1 .24.552c0 .224-.08.412-.24.564a.82.82 0 0 1-.588.216zm-.636 7.08v-5.952h1.272V118h-1.272zm3.95 0v-5.952h1.128l.096 1.044c.184-.368.452-.656.804-.864.36-.216.772-.324 1.236-.324.72 0 1.284.224 1.692.672.416.448.624 1.116.624 2.004V118h-1.26v-3.288c0-1.152-.472-1.728-1.416-1.728-.472 0-.864.168-1.176.504-.304.336-.456.816-.456 1.44V118h-1.272zm10.514-1.824c-.312 0-.6-.036-.864-.108l-.516.504c.088.056.196.104.324.144s.308.076.54.108l.948.096c.792.072 1.364.264 1.716.576.352.304.528.712.528 1.224a1.87 1.87 0 0 1-.288.996c-.184.32-.476.576-.876.768-.392.2-.896.3-1.512.3-.832 0-1.508-.16-2.028-.48-.512-.312-.768-.788-.768-1.428a1.61 1.61 0 0 1 .192-.744c.136-.24.348-.468.636-.684a3.27 3.27 0 0 1-.444-.228 3.84 3.84 0 0 1-.324-.264v-.288l1.032-1.056c-.464-.4-.696-.924-.696-1.572 0-.392.092-.748.276-1.068.192-.328.468-.588.828-.78s.792-.288 1.296-.288c.336 0 .648.048.936.144h2.22v.84l-1.056.06a2.12 2.12 0 0 1 .288 1.092c0 .4-.096.76-.288 1.08-.184.32-.456.576-.816.768-.352.192-.78.288-1.284.288zm0-.996c.368 0 .664-.096.888-.288.232-.2.348-.48.348-.84 0-.368-.116-.648-.348-.84-.224-.192-.52-.288-.888-.288-.376 0-.68.096-.912.288-.224.192-.336.472-.336.84 0 .36.112.64.336.84.232.192.536.288.912.288zm-1.596 3.576a.82.82 0 0 0 .456.768c.304.176.684.264 1.14.264.44 0 .796-.096 1.068-.288.272-.184.408-.432.408-.744 0-.232-.092-.432-.276-.6-.184-.16-.532-.26-1.044-.3l-1.02-.108c-.28.152-.472.316-.576.492s-.156.348-.156.516z" fill="#5d6598"/><path d="M335 109a4 4 0 0 1 4-4h95v32h-95a4 4 0 0 1-4-4v-24z" fill="#fff"/><path d="M339 105.5h94.5v31H339a3.5 3.5 0 0 1-3.5-3.5v-24a3.5 3.5 0 0 1 3.5-3.5z" stroke="#ecedf3"/><path d="M362.81 116.273V125h-1.32v-7.406h-.05l-2.09 1.363v-1.26l2.178-1.423h1.283zm7.553 8.727v-6.545h1.223v1.065h.08a1.7 1.7 0 0 1 .669-.844c.3-.204.68-.307 1.113-.307s.804.103 1.1.307a1.81 1.81 0 0 1 .661.844h.068a1.84 1.84 0 0 1 .745-.835c.34-.21.748-.316 1.22-.316.594 0 1.078.186 1.453.56s.567.933.567 1.683V125h-1.274v-4.27c0-.443-.12-.764-.362-.963s-.53-.298-.865-.298c-.415 0-.738.128-.968.383s-.345.578-.345.976V125h-1.27v-4.35c0-.355-.11-.64-.332-.856s-.5-.324-.865-.324c-.242 0-.465.064-.67.192a1.4 1.4 0 0 0-.49.524c-.122.224-.184.484-.184.78V125h-1.274zm14.363.132c-.614 0-1.15-.14-1.607-.422s-.812-.674-1.065-1.18-.38-1.097-.38-1.773.126-1.273.38-1.78.608-.904 1.065-1.185.993-.422 1.607-.422 1.15.14 1.606.422.813.676 1.066 1.185.38 1.102.38 1.78-.126 1.267-.38 1.773-.608.9-1.066 1.18-.992.422-1.606.422zm.004-1.07c.398 0 .727-.105.99-.315s.454-.5.58-.84a3.34 3.34 0 0 0 .192-1.155c0-.418-.064-.8-.192-1.15s-.318-.635-.58-.848-.59-.32-.99-.32-.733.106-.997.32a1.91 1.91 0 0 0-.584.848c-.125.35-.187.733-.187 1.15s.062.805.187 1.155a1.88 1.88 0 0 0 .584.839c.264.2.597.315.997.315zm6.743-2.948V125H390.2v-6.545h1.223v1.065h.08a1.87 1.87 0 0 1 .708-.835c.324-.21.73-.316 1.223-.316.446 0 .836.094 1.172.282s.595.46.78.826.277.82.277 1.36V125h-1.274v-4c0-.474-.123-.845-.37-1.112s-.586-.405-1.018-.405c-.295 0-.558.064-.788.192a1.38 1.38 0 0 0-.542.562c-.13.245-.196.54-.196.887zm9.954-2.66v1.022h-3.576v-1.022h3.576zm-2.617-1.57h1.274v6.192c0 .247.037.433.11.558s.17.206.286.252.248.064.387.064a1.42 1.42 0 0 0 .269-.022l.18-.034.23 1.053a2.16 2.16 0 0 1-.315.085c-.137.03-.307.048-.512.05-.335.006-.648-.054-.937-.18a1.61 1.61 0 0 1-.703-.579c-.18-.262-.27-.6-.27-.985v-6.456zm6.44 4.228V125h-1.274v-8.727h1.257v3.247h.08a1.88 1.88 0 0 1 .703-.84c.315-.207.727-.31 1.236-.31.448 0 .84.093 1.176.277a1.88 1.88 0 0 1 .784.827c.187.364.28.818.28 1.364V125h-1.274v-4c0-.48-.124-.852-.37-1.116s-.59-.4-1.03-.4c-.3 0-.57.064-.8.192s-.422.315-.558.562-.2.54-.2.887z" fill="#a6abc9"/><g clip-path="url(#C)"><path fill="#fff" d="M434 105h99v32h-99z"/><path stroke="#ecedf3" d="M433.5 105.5h100v31h-100z"/><path d="M456.8 125.12c-.585 0-1.108-.1-1.568-.302s-.82-.482-1.087-.84a2.23 2.23 0 0 1-.426-1.253h1.338c.017.26.104.483.26.674s.366.332.622.434.54.154.852.154c.344 0 .648-.06.912-.18s.476-.286.627-.5.226-.464.226-.746c0-.292-.076-.55-.226-.77s-.365-.4-.652-.528-.628-.192-1.03-.192h-.738v-1.074h.738c.323 0 .607-.058.852-.175s.44-.278.58-.485a1.3 1.3 0 0 0 .209-.738 1.32 1.32 0 0 0-.183-.703 1.24 1.24 0 0 0-.511-.473c-.22-.113-.478-.17-.776-.17a2 2 0 0 0-.797.158c-.244.102-.443.25-.596.443a1.14 1.14 0 0 0-.248.686h-1.274c.014-.472.154-.887.418-1.245s.62-.637 1.057-.84.923-.303 1.457-.303c.56 0 1.043.1 1.45.33s.724.504.946.865a2.17 2.17 0 0 1 .332 1.184c.003.49-.133.904-.41 1.245a1.99 1.99 0 0 1-1.091.686v.068c.58.088 1.03.318 1.347.7s.48.834.477 1.385c.003.48-.13.91-.4 1.29s-.632.68-1.096.9-.992.324-1.59.324zm9.89-.12v-6.545h1.223v1.065h.08c.136-.36.36-.642.67-.844s.68-.307 1.112-.307c.438 0 .804.103 1.1.307s.52.486.66.844h.068c.156-.35.405-.628.746-.835s.747-.316 1.22-.316c.593 0 1.078.186 1.453.56s.567.933.567 1.683V125h-1.275v-4.27c0-.443-.12-.764-.362-.963s-.53-.298-.865-.298c-.415 0-.737.128-.967.383s-.345.578-.345.976V125h-1.27v-4.35c0-.355-.11-.64-.333-.856s-.5-.324-.865-.324a1.24 1.24 0 0 0-.669.192c-.2.125-.365.3-.5.524s-.183.484-.183.78V125h-1.274zm14.362.132c-.613 0-1.15-.14-1.606-.422s-.813-.674-1.066-1.18-.38-1.097-.38-1.773.127-1.273.38-1.78.608-.904 1.066-1.185.993-.422 1.606-.422 1.15.14 1.607.422.812.676 1.065 1.185.38 1.102.38 1.78-.127 1.267-.38 1.773-.608.9-1.065 1.18-.993.422-1.607.422zm.005-1.07c.397 0 .727-.105.988-.315s.455-.5.58-.84a3.34 3.34 0 0 0 .192-1.155c0-.418-.064-.8-.192-1.15s-.318-.635-.58-.848-.59-.32-.988-.32-.733.106-.998.32-.455.496-.583.848-.188.733-.188 1.15.063.805.188 1.155a1.88 1.88 0 0 0 .583.839c.265.2.597.315.998.315zm6.743-2.948V125h-1.274v-6.545h1.223v1.065h.08c.15-.347.386-.625.707-.835s.732-.316 1.223-.316c.446 0 .837.094 1.172.282s.595.46.78.826.277.82.277 1.36V125h-1.274v-4c0-.474-.124-.845-.37-1.112s-.587-.405-1.02-.405c-.295 0-.558.064-.788.192s-.408.315-.54.562-.196.54-.196.887zm9.953-2.66v1.022h-3.575v-1.022h3.575zm-2.616-1.57h1.274v6.192c0 .247.037.433.1.558a.58.58 0 0 0 .286.252 1.16 1.16 0 0 0 .388.064 1.41 1.41 0 0 0 .268-.022l.18-.034.23 1.053a2.16 2.16 0 0 1-.315.085c-.136.03-.307.048-.51.05a2.24 2.24 0 0 1-.938-.179 1.61 1.61 0 0 1-.703-.579c-.18-.262-.268-.6-.268-.985v-6.456zm6.44 4.228V125h-1.274v-8.727h1.257v3.247h.08c.154-.352.388-.632.703-.84s.728-.31 1.236-.31c.45 0 .84.093 1.176.277s.6.46.784.827.282.818.282 1.364V125h-1.275v-4c0-.48-.123-.852-.37-1.116s-.59-.4-1.032-.4c-.3 0-.57.064-.81.192a1.38 1.38 0 0 0-.558.562c-.134.245-.2.54-.2.887zm11.85-1.06l-1.155.204c-.048-.148-.125-.288-.23-.422a1.15 1.15 0 0 0-.418-.328c-.176-.085-.396-.128-.66-.128-.36 0-.662.08-.904.243s-.362.365-.362.618a.65.65 0 0 0 .243.528c.162.134.423.243.784.33l1.04.238c.602.14 1.05.354 1.346.644s.444.666.444 1.13c0 .392-.114.74-.34 1.048s-.54.543-.942.716-.865.26-1.394.26c-.733 0-1.33-.156-1.794-.47s-.747-.762-.852-1.342l1.232-.187c.076.32.234.563.473.728s.55.243.933.243c.417 0 .75-.087 1-.26s.375-.4.375-.643c0-.205-.076-.377-.23-.516s-.382-.244-.694-.315l-1.108-.243c-.61-.14-1.063-.36-1.356-.665s-.434-.69-.434-1.155a1.65 1.65 0 0 1 .324-1.014c.216-.3.514-.516.895-.678s.816-.247 1.308-.247c.707 0 1.264.154 1.67.46s.675.71.806 1.223z" fill="#a6abc9"/></g><path fill="#fff" d="M533 105h99v32h-99z"/><path d="M533.5 105.5H628a3.5 3.5 0 0 1 3.5 3.5v24a3.5 3.5 0 0 1-3.5 3.5h-94.5v-31z" fill="#f3f7fc" stroke="#1757c2"/><path d="M567.2 116.273V125h-1.32v-7.406h-.05l-2.088 1.363v-1.26l2.178-1.423h1.282zm8.36 11.165a2.67 2.67 0 0 1-.519-.047c-.157-.03-.273-.06-.35-.094l.307-1.044c.35.096.642.104.878.02s.44-.33.6-.754l.157-.435-2.395-6.63h1.364l1.658 5.08h.068l1.658-5.08 1.376.012-2.706 7.407c-.125.338-.284.623-.477.856a1.9 1.9 0 0 1-.691.529c-.267.12-.576.18-.93.18zm9.6-2.306c-.645 0-1.2-.138-1.666-.413s-.82-.67-1.074-1.172-.375-1.098-.375-1.777c0-.67.125-1.26.375-1.773s.605-.9 1.057-1.197.986-.43 1.594-.43a3.19 3.19 0 0 1 1.074.184c.346.122.657.313.933.575s.493.6.652 1.018.238.92.238 1.513v.452h-5.203v-.955h3.955a1.87 1.87 0 0 0-.205-.89c-.136-.262-.328-.468-.575-.618s-.53-.226-.86-.226c-.358 0-.67.088-.937.264s-.47.4-.614.682-.213.58-.213.908v.745c0 .438.077.8.23 1.117s.374.54.652.703.604.24.976.24c.242 0 .462-.035.66-.103s.37-.176.515-.315a1.37 1.37 0 0 0 .333-.516l1.206.218a2.19 2.19 0 0 1-.52.933c-.248.264-.56.47-.934.618s-.796.217-1.274.217zm7.127.013c-.415 0-.8-.077-1.125-.23a1.89 1.89 0 0 1-.797-.678c-.193-.295-.3-.657-.3-1.086 0-.37.07-.674.213-.912s.334-.428.576-.567.51-.244.81-.315.603-.125.912-.162l.955-.11c.244-.03.422-.08.533-.15s.166-.18.166-.333v-.03c0-.372-.105-.66-.316-.865s-.517-.306-.93-.306c-.43 0-.767.095-1.014.285s-.413.396-.507.626l-1.197-.272c.142-.398.35-.72.622-.963s.592-.426.95-.537.734-.17 1.13-.17a4.01 4.01 0 0 1 .831.094c.296.06.57.17.827.332a1.84 1.84 0 0 1 .635.695c.165.298.247.686.247 1.163V125h-1.244v-.895h-.05c-.083.165-.206.327-.37.486s-.376.29-.635.396-.568.158-.93.158zm.277-1.023c.352 0 .653-.07.903-.21s.445-.32.576-.545a1.42 1.42 0 0 0 .2-.729v-.844c-.045.046-.134.09-.264.128s-.274.07-.44.098l-.482.073-.392.05c-.247.03-.473.084-.677.158s-.364.18-.486.32-.18.318-.18.546c0 .315.116.554.35.716s.53.238.89.238zm5.65.878v-6.545h1.232v1.04h.068a1.58 1.58 0 0 1 .631-.831c.304-.204.647-.306 1.03-.306l.28.008.26.02v1.22a2.3 2.3 0 0 0-.273-.047c-.13-.02-.26-.03-.392-.03a1.66 1.66 0 0 0-.805.192c-.233.125-.418.3-.554.524s-.205.475-.205.76V125h-1.274z" fill="#1757c2"/><path d="M494 44a4 4 0 0 1 4-4h130a4 4 0 0 1 4 4v24a4 4 0 0 1-4 4H498a4 4 0 0 1-4-4V44z" fill="#fff"/><path d="M521.315 57.66v3.526a.64.64 0 0 1-.648.648h-9.852a.64.64 0 0 1-.648-.648V57.66a.648.648 0 1 1 1.296 0v2.878h8.555V57.66a.649.649 0 1 1 1.297 0zm-6.04.804c.117.13.285.195.467.195a.63.63 0 0 0 .466-.195l2.58-2.644c.246-.26.246-.66-.013-.92-.26-.246-.66-.246-.92.013l-1.478 1.504v-5.6a.649.649 0 1 0-1.297 0v5.613l-1.477-1.504c-.247-.26-.66-.26-.92-.013s-.26.66-.013.92l2.606 2.63zM530.96 60v-8.727h5.47v1.133h-4.154v2.66h3.87v1.13h-3.87v2.672h4.206V60h-5.523zm9.134-6.545l1.444 2.548 1.458-2.548h1.393l-2.04 3.273L544.405 60h-1.393l-1.475-2.446-1.47 2.446h-1.398l2.037-3.273-2-3.273h1.398zm6.603 9v-9h1.245v1.06h.106a3.53 3.53 0 0 1 .32-.473c.14-.18.332-.335.58-.47s.574-.205.98-.205c.53 0 1 .133 1.415.4s.74.652.976 1.155.358 1.108.358 1.815-.118 1.314-.354 1.82-.56.9-.97 1.163-.882.405-1.4.405c-.397 0-.723-.067-.976-.2s-.446-.3-.588-.47a3.58 3.58 0 0 1-.328-.477h-.076v3.473H546.7zm1.25-5.727c0 .46.067.864.2 1.2s.327.618.58.814.562.3.93.3c.38 0 .7-.1.954-.303s.45-.48.58-.83.2-.743.2-1.18-.065-.82-.196-1.163-.32-.615-.58-.814-.576-.298-.96-.298c-.37 0-.682.095-.938.285s-.444.456-.575.797-.196.74-.196 1.193zm9.915 3.405c-.614 0-1.15-.14-1.607-.422s-.812-.675-1.065-1.18-.38-1.097-.38-1.773.126-1.273.38-1.78a2.84 2.84 0 0 1 1.065-1.185c.458-.28.993-.422 1.607-.422s1.15.14 1.606.422.813.676 1.066 1.185.38 1.102.38 1.78-.127 1.267-.38 1.773-.608.9-1.066 1.18-.993.422-1.606.422zm.004-1.07c.398 0 .727-.105 1-.315a1.85 1.85 0 0 0 .579-.84c.128-.35.192-.734.192-1.155s-.064-.8-.192-1.15-.318-.635-.58-.848-.6-.32-1-.32-.733.107-.997.32a1.9 1.9 0 0 0-.584.848c-.125.35-.187.733-.187 1.15s.062.805.187 1.155.322.63.584.84.596.315.997.315zm5.47.938v-6.545h1.232v1.04h.068a1.58 1.58 0 0 1 .63-.831c.304-.205.648-.307 1.032-.307l.28.01.26.02v1.22a2.26 2.26 0 0 0-.273-.047 3.03 3.03 0 0 0-.392-.03 1.66 1.66 0 0 0-.805.192 1.42 1.42 0 0 0-.554.524c-.137.222-.205.474-.205.758V60h-1.274zm9.048-6.545v1.023h-3.576v-1.023h3.576zm-2.617-1.568h1.274v6.192c0 .247.037.433.1.558s.17.206.286.25a1.14 1.14 0 0 0 .387.064c.103 0 .192-.007.27-.02l.18-.034.23 1.053c-.074.028-.18.057-.315.085a2.68 2.68 0 0 1-.512.05c-.335.006-.647-.054-.937-.18a1.61 1.61 0 0 1-.703-.58c-.18-.262-.27-.6-.27-.984v-6.456zm9.2 8.112v-6.545h1.23v1.04h.07a1.58 1.58 0 0 1 .63-.831c.304-.205.648-.307 1.032-.307l.28.01.26.02v1.22a2.26 2.26 0 0 0-.273-.047 3.03 3.03 0 0 0-.392-.03 1.66 1.66 0 0 0-.805.192 1.42 1.42 0 0 0-.554.524c-.137.222-.205.474-.205.758V60h-1.274zm8.192.132c-.645 0-1.2-.138-1.666-.413s-.82-.67-1.074-1.172-.375-1.098-.375-1.777c0-.67.125-1.26.375-1.773a2.91 2.91 0 0 1 1.057-1.197c.454-.287.986-.43 1.594-.43a3.2 3.2 0 0 1 1.073.183c.347.122.658.314.934.575s.493.6.652 1.018.238.92.238 1.513v.452h-5.203v-.955h3.955a1.87 1.87 0 0 0-.205-.89c-.137-.258-.328-.467-.575-.618s-.53-.226-.86-.226a1.66 1.66 0 0 0-.937.264 1.77 1.77 0 0 0-.614.682 1.97 1.97 0 0 0-.213.908v.746c0 .438.077.8.23 1.117s.374.54.652.703.604.24.976.24a2.04 2.04 0 0 0 .66-.102 1.43 1.43 0 0 0 .516-.315 1.36 1.36 0 0 0 .332-.516l1.206.217a2.18 2.18 0 0 1-.52.933c-.247.264-.558.47-.933.618s-.797.217-1.274.217zm5.222 2.322v-9h1.244v1.06h.107a3.59 3.59 0 0 1 .319-.473 1.82 1.82 0 0 1 .58-.469c.247-.136.574-.205.98-.205.528 0 1 .133 1.415.4s.74.652.976 1.155.358 1.108.358 1.815-.118 1.314-.354 1.82-.56.9-.972 1.163-.882.405-1.4.405c-.398 0-.723-.067-.976-.2s-.446-.3-.588-.47a3.58 3.58 0 0 1-.328-.477h-.077v3.473H592.4zm1.25-5.727c0 .46.066.864.2 1.2s.327.618.58.814.563.3.93.3c.38 0 .7-.1.955-.303s.45-.48.58-.83.2-.743.2-1.18a3.27 3.27 0 0 0-.196-1.163 1.78 1.78 0 0 0-.58-.814c-.256-.2-.575-.298-.96-.298-.37 0-.68.095-.937.285s-.445.456-.575.797-.196.74-.196 1.193zm9.914 3.405c-.613 0-1.15-.14-1.606-.422s-.813-.675-1.066-1.18-.38-1.097-.38-1.773.127-1.273.38-1.78.608-.904 1.066-1.185.993-.422 1.606-.422 1.15.14 1.607.422a2.84 2.84 0 0 1 1.065 1.185c.253.508.38 1.102.38 1.78s-.126 1.267-.38 1.773-.608.9-1.065 1.18-.993.422-1.607.422zm.005-1.07c.397 0 .727-.105.988-.315s.455-.5.58-.84.192-.734.192-1.155-.064-.8-.192-1.15a1.87 1.87 0 0 0-.58-.848c-.26-.213-.6-.32-.988-.32s-.733.107-.998.32-.456.496-.583.848-.188.733-.188 1.15.063.805.188 1.155.322.63.583.84.597.315.998.315zm5.47.938v-6.545h1.23v1.04h.068c.12-.352.33-.63.63-.83a1.83 1.83 0 0 1 1.03-.307l.282.01.26.02v1.22a2.38 2.38 0 0 0-.273-.047c-.13-.017-.262-.03-.392-.03-.3 0-.57.064-.806.192a1.43 1.43 0 0 0-.554.524 1.42 1.42 0 0 0-.204.758V60h-1.274zm9.047-6.545v1.023h-3.575v-1.023h3.575zm-2.616-1.568h1.274v6.192c0 .247.037.433.1.558a.58.58 0 0 0 .285.251 1.15 1.15 0 0 0 .388.064 1.5 1.5 0 0 0 .269-.021l.178-.034.23 1.053c-.074.028-.18.057-.316.085s-.307.048-.5.05c-.335.006-.648-.054-.938-.18a1.61 1.61 0 0 1-.703-.579c-.18-.26-.268-.6-.268-.984v-6.456z" fill="#1757c2"/><rect x="494.5" y="40.5" width="137" height="31" rx="3.5" stroke="#1757c2"/><defs><linearGradient id="A" x1="362.5" y1="223" x2="362.5" y2="351.038" gradientUnits="userSpaceOnUse"><stop stop-color="#1757c2"/><stop offset="1" stop-color="#1757c2" stop-opacity="0"/></linearGradient><clipPath id="B"><path fill="#fff" transform="translate(43 223)" d="M0 0h589v119H0z"/></clipPath><clipPath id="C"><path fill="#fff" transform="translate(434 105)" d="M0 0h99v32H0z"/></clipPath></defs></svg>