<svg xmlns="http://www.w3.org/2000/svg" xmlns:xlink="http://www.w3.org/1999/xlink" width="672" height="400" fill="none" xmlns:v="https://vecta.io/nano"><g fill="#fff"><path d="M0 0h672v400H0z"/><path d="M447 44a4 4 0 0 1 4-4h177a4 4 0 0 1 4 4v24a4 4 0 0 1-4 4H451a4 4 0 0 1-4-4V44z"/></g><path d="M459.96 60v-8.727h3.11c.676 0 1.237.117 1.683.35a2.32 2.32 0 0 1 1.006.967c.22.41.332.882.332 1.42s-.112 1.004-.337 1.4-.557.717-1.005.942-1.008.337-1.684.337h-2.356v-1.134h2.237c.426 0 .773-.06 1.04-.183a1.21 1.21 0 0 0 .592-.533c.125-.233.188-.513.188-.84s-.064-.615-.192-.856-.323-.426-.592-.554-.618-.196-1.053-.196h-1.653V60h-1.317zm4.308-3.937L466.423 60h-1.5l-2.113-3.937h1.457zM468.59 60v-6.545h1.274V60h-1.274zm.643-7.555a.81.81 0 0 1-.571-.222.72.72 0 0 1-.234-.537.71.71 0 0 1 .234-.537.8.8 0 0 1 .571-.226c.222 0 .41.075.567.226s.24.327.24.537-.08.386-.24.537-.345.222-.567.222zm8.25 2.608l-1.155.205c-.048-.148-.125-.288-.23-.422a1.13 1.13 0 0 0-.418-.328c-.176-.085-.396-.128-.66-.128-.36 0-.662.08-.903.243s-.363.365-.363.618a.65.65 0 0 0 .243.528c.162.133.424.243.784.328l1.04.24c.602.14 1.05.354 1.347.644s.443.666.443 1.13c0 .392-.114.74-.34 1.048s-.538.543-.942.716-.865.26-1.393.26c-.733 0-1.33-.156-1.794-.47s-.747-.763-.853-1.342l1.232-.187c.077.32.234.564.473.73s.55.243.933.243c.418 0 .752-.087 1.002-.26s.375-.39.375-.643a.67.67 0 0 0-.23-.516c-.15-.14-.383-.244-.695-.315l-1.108-.243c-.61-.14-1.063-.36-1.355-.665s-.435-.69-.435-1.155a1.65 1.65 0 0 1 .324-1.014c.216-.3.514-.516.895-.677s.817-.247 1.308-.247c.708 0 1.264.153 1.67.46s.674.712.805 1.223zm3.7 2.727l-.01-1.555h.222l2.608-2.77h1.525l-2.974 3.153h-.2l-1.172 1.172zM480.013 60v-8.727h1.274V60h-1.274zm4.133 0l-2.343-3.11.877-.89 3.03 4h-1.564zm9.627.145c-.415 0-.8-.077-1.125-.23s-.6-.382-.797-.678-.3-.658-.3-1.087c0-.37.07-.673.214-.912s.333-.427.575-.567a3 3 0 0 1 .809-.315c.3-.07.603-.125.912-.162l.955-.11c.244-.03.422-.08.533-.15s.166-.18.166-.332v-.03c0-.372-.105-.66-.316-.865s-.517-.307-.93-.307c-.43 0-.767.095-1.014.286s-.413.396-.507.626l-1.197-.273c.142-.398.35-.72.622-.963s.592-.426.95-.537a3.71 3.71 0 0 1 1.129-.17c.262 0 .54.03.83.094a2.43 2.43 0 0 1 .827.332c.26.162.47.393.635.695s.247.686.247 1.163V60h-1.244v-.895h-.05c-.083.165-.206.327-.37.486s-.376.29-.635.396-.568.158-.93.158zm.277-1.023c.352 0 .653-.07.903-.21s.445-.32.576-.546a1.42 1.42 0 0 0 .2-.729v-.844c-.045.045-.133.088-.264.128s-.274.07-.44.098l-.482.073-.392.05c-.247.03-.473.084-.677.158a1.16 1.16 0 0 0-.486.32c-.12.136-.18.318-.18.545 0 .315.116.554.35.716s.53.24.89.24zm10.555-4.07l-1.155.205c-.048-.148-.125-.288-.23-.422s-.24-.243-.417-.328-.397-.128-.66-.128c-.36 0-.662.08-.903.243s-.363.365-.363.618a.65.65 0 0 0 .243.528c.162.133.424.243.784.328l1.04.24c.602.14 1.05.354 1.347.644s.443.666.443 1.13c0 .392-.114.74-.34 1.048s-.538.543-.942.716-.865.26-1.393.26c-.733 0-1.33-.156-1.794-.47a1.98 1.98 0 0 1-.852-1.342l1.23-.187c.077.32.234.564.473.73s.55.243.933.243c.418 0 .752-.087 1.002-.26s.375-.39.375-.643a.67.67 0 0 0-.23-.516c-.15-.14-.383-.244-.695-.315l-1.108-.243c-.61-.14-1.062-.36-1.355-.665s-.435-.69-.435-1.155a1.65 1.65 0 0 1 .324-1.014c.216-.3.514-.516.895-.677s.817-.247 1.308-.247c.708 0 1.264.153 1.67.46s.674.712.805 1.223zm7.434 0l-1.155.205c-.048-.148-.125-.288-.23-.422s-.242-.243-.418-.328-.396-.128-.66-.128c-.36 0-.662.08-.904.243s-.362.365-.362.618a.65.65 0 0 0 .243.528c.162.133.423.243.784.328l1.04.24c.602.14 1.05.354 1.346.644s.444.666.444 1.13c0 .392-.114.74-.34 1.048s-.54.543-.942.716-.865.26-1.394.26c-.733 0-1.33-.156-1.794-.47a1.98 1.98 0 0 1-.852-1.342l1.232-.187c.076.32.234.564.473.73s.55.243.933.243c.418 0 .75-.087 1-.26s.375-.39.375-.643c0-.205-.076-.376-.23-.516s-.382-.244-.694-.315l-1.108-.243c-.61-.14-1.063-.36-1.355-.665s-.435-.69-.435-1.155a1.65 1.65 0 0 1 .324-1.014c.216-.3.514-.516.895-.677a3.26 3.26 0 0 1 1.308-.247c.707 0 1.264.153 1.67.46a2.14 2.14 0 0 1 .806 1.223zm5.35 5.08c-.644 0-1.2-.138-1.666-.413s-.82-.67-1.074-1.172-.375-1.098-.375-1.777c0-.67.125-1.26.375-1.773s.606-.91 1.057-1.197.986-.43 1.594-.43a3.21 3.21 0 0 1 1.074.183 2.6 2.6 0 0 1 .933.575c.276.26.493.6.652 1.018s.24.92.24 1.513v.452h-5.203v-.955h3.954c0-.335-.068-.632-.204-.89s-.33-.467-.576-.618-.53-.226-.86-.226c-.358 0-.67.088-.938.264s-.47.4-.614.682a1.97 1.97 0 0 0-.213.908v.746c0 .438.077.8.23 1.117a1.67 1.67 0 0 0 .652.703c.28.16.604.24.976.24.242 0 .462-.034.66-.102s.37-.176.515-.315.256-.31.333-.516l1.206.217a2.19 2.19 0 0 1-.52.933c-.247.264-.558.47-.933.618s-.797.217-1.275.217zm10.127-5.08l-1.155.205c-.048-.148-.125-.288-.23-.422s-.24-.243-.417-.328-.397-.128-.66-.128c-.36 0-.662.08-.903.243s-.362.365-.362.618c0 .22.08.395.242.528s.424.243.785.328l1.04.24c.603.14 1.05.354 1.347.644s.443.666.443 1.13c0 .392-.114.74-.34 1.048s-.538.543-.942.716-.865.26-1.393.26c-.733 0-1.33-.156-1.794-.47a1.98 1.98 0 0 1-.852-1.342l1.23-.187c.077.32.235.564.473.73s.55.243.933.243c.418 0 .752-.087 1.002-.26s.375-.39.375-.643a.67.67 0 0 0-.23-.516c-.15-.14-.382-.244-.695-.315l-1.108-.243c-.61-.14-1.062-.36-1.355-.665s-.435-.69-.435-1.155a1.65 1.65 0 0 1 .324-1.014c.216-.3.514-.516.895-.677s.817-.247 1.308-.247c.708 0 1.265.153 1.67.46s.675.712.805 1.223zm7.434 0l-1.155.205c-.048-.148-.125-.288-.23-.422a1.14 1.14 0 0 0-.418-.328c-.176-.085-.396-.128-.66-.128-.36 0-.662.08-.904.243s-.362.365-.362.618a.65.65 0 0 0 .243.528c.162.133.423.243.784.328l1.04.24c.602.14 1.05.354 1.347.644s.443.666.443 1.13c0 .392-.114.74-.34 1.048s-.54.543-.942.716-.865.26-1.393.26c-.733 0-1.33-.156-1.794-.47s-.748-.763-.853-1.342l1.232-.187c.077.32.234.564.473.73s.55.243.933.243c.418 0 .75-.087 1-.26s.375-.39.375-.643c0-.205-.076-.376-.23-.516s-.382-.244-.694-.315l-1.108-.243c-.61-.14-1.063-.36-1.355-.665s-.435-.69-.435-1.155a1.65 1.65 0 0 1 .324-1.014c.216-.3.514-.516.895-.677s.817-.247 1.308-.247c.707 0 1.264.153 1.67.46a2.14 2.14 0 0 1 .806 1.223zm2.53 4.947v-6.545h1.223v1.065h.08c.136-.36.36-.642.67-.844s.68-.307 1.112-.307.804.102 1.1.307.52.486.66.844h.068a1.84 1.84 0 0 1 .746-.835c.34-.2.747-.315 1.218-.315.594 0 1.08.186 1.454.558s.566.933.566 1.683V60H545.1v-4.27c0-.443-.12-.764-.362-.963s-.53-.298-.865-.298c-.415 0-.737.128-.967.383s-.346.578-.346.976V60h-1.27v-4.35c0-.355-.11-.64-.333-.856s-.5-.324-.865-.324a1.24 1.24 0 0 0-.669.192c-.202.125-.365.3-.5.524s-.183.484-.183.78V60h-1.274zm14.426.132c-.645 0-1.2-.138-1.666-.413s-.82-.67-1.074-1.172-.375-1.098-.375-1.777c0-.67.125-1.26.375-1.773a2.91 2.91 0 0 1 1.057-1.197c.454-.287.986-.43 1.594-.43a3.2 3.2 0 0 1 1.073.183c.347.122.658.314.934.575s.493.6.652 1.018.238.92.238 1.513v.452h-5.203v-.955h3.955c0-.335-.068-.632-.205-.89s-.328-.467-.575-.618-.53-.226-.86-.226a1.66 1.66 0 0 0-.937.264 1.77 1.77 0 0 0-.614.682 1.97 1.97 0 0 0-.213.908v.746c0 .438.077.8.23 1.117s.374.54.652.703.604.24.976.24a2.02 2.02 0 0 0 .66-.102 1.43 1.43 0 0 0 .516-.315 1.36 1.36 0 0 0 .332-.516l1.206.217c-.096.355-.27.666-.52.933a2.53 2.53 0 0 1-.934.618c-.372.145-.797.217-1.274.217zm6.496-4.02V60h-1.274v-6.545h1.223v1.065h.08c.15-.347.386-.625.707-.835s.732-.315 1.223-.315c.446 0 .837.094 1.172.28s.595.46.78.827.277.82.277 1.36V60h-1.274v-4c0-.474-.124-.845-.37-1.112s-.586-.405-1.018-.405c-.296 0-.558.064-.79.192s-.407.315-.54.563-.196.54-.196.886zm9.953-2.66v1.023h-3.575v-1.023h3.575zm-2.616-1.568h1.274v6.192c0 .247.037.433.11.558a.58.58 0 0 0 .285.251 1.15 1.15 0 0 0 .388.064 1.5 1.5 0 0 0 .269-.021l.18-.034.23 1.053c-.074.028-.18.057-.316.085s-.307.048-.51.05c-.335.006-.648-.054-.938-.18a1.61 1.61 0 0 1-.703-.579c-.18-.26-.268-.6-.268-.984v-6.456zm11.652 8.24c-.53 0-1-.135-1.415-.405s-.736-.66-.972-1.163-.35-1.112-.35-1.82.118-1.312.354-1.815.565-.888.98-1.155.885-.4 1.4-.4c.407 0 .733.068.98.205s.444.3.58.47.247.337.324.473h.077v-3.243h1.274V60h-1.245v-1.02h-.106c-.077.14-.188.298-.332.477s-.34.335-.59.47-.573.2-.97.2zm.28-1.087c.367 0 .676-.097.93-.3s.45-.467.58-.814.2-.75.2-1.2c0-.455-.065-.852-.196-1.193s-.323-.607-.575-.797-.566-.285-.938-.285c-.383 0-.703.1-.96.298s-.45.47-.58.814-.192.732-.192 1.163c0 .438.065.83.196 1.18s.324.626.58.83.576.303.954.303zm8.6 1.09c-.645 0-1.2-.138-1.666-.413s-.82-.67-1.074-1.172-.375-1.098-.375-1.777c0-.67.125-1.26.375-1.773a2.91 2.91 0 0 1 1.057-1.197c.455-.287.986-.43 1.594-.43a3.21 3.21 0 0 1 1.074.183 2.61 2.61 0 0 1 .933.575c.275.26.493.6.652 1.018s.24.92.24 1.513v.452h-5.204v-.955h3.955c0-.335-.068-.632-.205-.89s-.328-.467-.575-.618-.53-.226-.86-.226a1.66 1.66 0 0 0-.937.264c-.264.173-.47.4-.614.682a1.97 1.97 0 0 0-.213.908v.746c0 .438.077.8.23 1.117s.374.54.652.703.604.24.976.24c.242 0 .462-.034.66-.102s.37-.176.515-.315.256-.31.333-.516l1.206.217a2.19 2.19 0 0 1-.52.933c-.247.264-.56.47-.934.618s-.796.217-1.274.217zm8.278-6.678v1.023h-3.576v-1.023h3.576zm-2.617-1.568h1.274v6.192c0 .247.037.433.11.558s.17.206.286.25a1.14 1.14 0 0 0 .387.064c.103 0 .192-.007.27-.02l.18-.034.23 1.053c-.074.028-.18.057-.315.085s-.307.048-.512.05c-.335.006-.647-.054-.937-.18s-.524-.318-.703-.58-.27-.6-.27-.984v-6.456zm6.93 8.258c-.415 0-.8-.077-1.125-.23s-.6-.382-.797-.678-.3-.658-.3-1.087c0-.37.07-.673.213-.912a1.57 1.57 0 0 1 .576-.567 3 3 0 0 1 .809-.315c.3-.07.603-.125.912-.162l.955-.11c.244-.03.422-.08.532-.15s.167-.18.167-.332v-.03c0-.372-.105-.66-.316-.865s-.517-.307-.93-.307c-.43 0-.767.095-1.014.286s-.413.396-.507.626l-1.197-.273c.142-.398.35-.72.622-.963s.592-.426.95-.537.734-.17 1.13-.17c.262 0 .54.03.83.094a2.43 2.43 0 0 1 .827.332c.258.162.47.393.635.695s.247.686.247 1.163V60h-1.244v-.895h-.05c-.083.165-.206.327-.37.486s-.377.29-.635.396-.568.158-.93.158zm.277-1.023c.352 0 .653-.07.903-.21s.445-.32.576-.546a1.42 1.42 0 0 0 .2-.729v-.844c-.046.045-.134.088-.264.128s-.274.07-.44.098l-.482.073-.392.05c-.247.03-.473.084-.677.158a1.16 1.16 0 0 0-.486.32c-.12.136-.18.318-.18.545 0 .315.116.554.35.716s.53.24.89.24zm5.65.878v-6.545h1.274V60H604.8zm.644-7.555a.81.81 0 0 1-.571-.222c-.157-.15-.235-.33-.235-.537a.71.71 0 0 1 .235-.537.8.8 0 0 1 .571-.226c.22 0 .4.075.566.226s.24.327.24.537-.08.386-.24.537-.345.222-.566.222zm4.62-1.172V60h-1.275v-8.727h1.275zm7.62 3.78l-1.155.205c-.05-.148-.125-.288-.23-.422s-.242-.243-.418-.328-.396-.128-.66-.128c-.36 0-.66.08-.903.243s-.362.365-.362.618a.65.65 0 0 0 .243.528c.162.133.423.243.784.328l1.04.24c.602.14 1.05.354 1.346.644s.443.666.443 1.13a1.71 1.71 0 0 1-.341 1.048c-.224.304-.538.543-.94.716s-.865.26-1.394.26c-.733 0-1.33-.156-1.794-.47a1.98 1.98 0 0 1-.852-1.342l1.23-.187c.077.32.235.564.473.73s.55.243.934.243c.417 0 .75-.087 1-.26s.375-.39.375-.643a.67.67 0 0 0-.23-.516c-.15-.14-.382-.244-.695-.315l-1.108-.243c-.6-.14-1.062-.36-1.355-.665s-.434-.69-.434-1.155a1.65 1.65 0 0 1 .324-1.014c.215-.3.514-.516.894-.677s.817-.247 1.31-.247c.707 0 1.264.153 1.67.46s.675.712.806 1.223z" fill="#1757c2"/><rect x="447.5" y="40.5" width="184" height="31" rx="3.5" stroke="#1757c2"/><path d="M59.378 345v5.672c-.004.922-.434 1.414-1.2 1.414-.707 0-1.2-.422-1.203-1.086h-1.2c0 1.352 1.016 2.1 2.37 2.1 1.47 0 2.43-.898 2.434-2.437V345h-1.203zM64 353.133c.992 0 1.55-.504 1.774-.953h.047v.82h1.14v-3.984c0-1.746-1.375-2.094-2.328-2.094-1.086 0-2.086.437-2.476 1.53l1.098.25c.172-.426.6-.836 1.395-.836.754 0 1.14.395 1.14 1.074v.028c0 .426-.437.418-1.516.543-1.137.133-2.3.43-2.3 1.793 0 1.18.887 1.828 2.027 1.828zm.254-.938c-.66 0-1.137-.297-1.137-.875 0-.625.555-.847 1.23-.937.38-.05 1.277-.153 1.445-.32v.774c0 .7-.566 1.36-1.54 1.36zm5.43-2.758c0-.957.586-1.503 1.398-1.503.793 0 1.273.52 1.273 1.4V353h1.168v-3.816c0-1.485-.816-2.262-2.043-2.262-.902 0-1.492.418-1.77 1.055h-.074V347h-1.12v6h1.168v-3.563zM105.206 353h1.207v-3.488h3.398v-1.035h-3.398v-2.438h3.754V345h-4.96v8zm8.497.12c1.308 0 2.234-.644 2.5-1.62l-1.106-.2c-.2.566-.72.855-1.383.855-1 0-1.67-.648-1.703-1.804h4.266v-.415c0-2.167-1.297-3.015-2.656-3.015-1.672 0-2.774 1.273-2.774 3.117 0 1.863 1.086 3.082 2.856 3.082zm-1.688-3.644c.047-.852.664-1.6 1.613-1.6.907 0 1.5.672 1.504 1.6h-3.117zm5.652 3.523h1.14v-.934h.098c.2.383.64 1.05 1.734 1.05 1.453 0 2.508-1.164 2.508-3.105s-1.07-3.1-2.52-3.1c-1.114 0-1.516.68-1.723 1.05h-.07V345h-1.168v8zm1.144-3c0-1.254.547-2.086 1.567-2.086 1.058 0 1.6.895 1.6 2.086 0 1.203-.547 2.12-1.6 2.12-1.004 0-1.567-.86-1.567-2.12zm35.047-5v8h1.148v-5.793h.074l2.36 5.78h.953l2.36-5.777h.075v5.8h1.148v-8H160.5l-2.547 6.22h-.094l-2.546-6.22h-1.465zm11.524 8.133c.992 0 1.55-.504 1.774-.953h.046v.82h1.14v-3.984c0-1.746-1.375-2.094-2.328-2.094-1.086 0-2.086.437-2.477 1.53l1.098.25c.172-.426.6-.836 1.395-.836.754 0 1.14.395 1.14 1.074v.028c0 .426-.437.418-1.515.543-1.137.133-2.3.43-2.3 1.793 0 1.18.887 1.828 2.027 1.828zm.254-.938c-.66 0-1.137-.297-1.137-.875 0-.625.555-.847 1.23-.937.38-.05 1.277-.153 1.445-.32v.774c0 .7-.566 1.36-1.54 1.36zm4.263.805h1.168v-3.664c0-.785.605-1.352 1.433-1.352a2.6 2.6 0 0 1 .6.07v-1.118a4.93 4.93 0 0 0-.496-.027c-.704 0-1.305.4-1.524 1.043h-.062V347h-1.13v6zm35.14 0l.734-2.117h3.125l.73 2.117h1.28l-2.88-8h-1.394l-2.88 8h1.28zm1.086-3.133l1.18-3.414h.062l1.18 3.414h-2.422zm5.847 5.383h1.168v-3.184h.07c.2.383.64 1.05 1.734 1.05 1.453 0 2.508-1.164 2.508-3.105s-1.07-3.1-2.52-3.1c-1.114 0-1.516.68-1.723 1.05h-.098V347h-1.14v8.25zm1.144-5.25c0-1.254.547-2.086 1.567-2.086 1.058 0 1.6.895 1.6 2.086 0 1.203-.546 2.12-1.6 2.12-1.004 0-1.567-.86-1.567-2.12zm5.645 3h1.168v-3.664c0-.785.605-1.352 1.433-1.352a2.6 2.6 0 0 1 .6.07v-1.118a4.93 4.93 0 0 0-.496-.027c-.704 0-1.305.4-1.524 1.043h-.062V347h-1.13v6zm33.036-8v8h1.15v-5.793h.074l2.36 5.78h.954l2.36-5.777h.074v5.8h1.15v-8h-1.465l-2.547 6.22h-.094l-2.547-6.22h-1.465zm11.525 8.133c.992 0 1.55-.504 1.773-.953h.047v.82h1.14v-3.984c0-1.746-1.375-2.094-2.328-2.094-1.086 0-2.086.437-2.477 1.53l1.098.25c.172-.426.6-.836 1.394-.836.754 0 1.14.395 1.14 1.074v.028c0 .426-.438.418-1.516.543-1.136.133-2.3.43-2.3 1.793 0 1.18.887 1.828 2.028 1.828zm.254-.938c-.66 0-1.137-.297-1.137-.875 0-.625.555-.847 1.23-.937.38-.05 1.278-.153 1.446-.32v.774c0 .7-.567 1.36-1.54 1.36zm4.786 3.04c.965 0 1.578-.504 1.922-1.433l2.48-6.8-1.262-.012-1.52 4.656h-.063L268.4 347h-1.25l2.195 6.078-.144.4c-.297.777-.715.847-1.356.67l-.28.957c.14.067.445.13.797.13zm37.2-10.235v5.672c-.004.922-.434 1.414-1.2 1.414-.707 0-1.2-.422-1.203-1.086h-1.2c0 1.352 1.016 2.1 2.37 2.1 1.47 0 2.43-.898 2.434-2.437V345h-1.203zm6.667 5.512c.003 1.02-.754 1.504-1.4 1.504-.722 0-1.222-.524-1.222-1.34V347h-1.168v3.816c0 1.5.816 2.262 1.97 2.262.902 0 1.515-.476 1.793-1.117h.062V353h1.148v-6h-1.17v3.512zm3.9-1.075c0-.957.586-1.503 1.398-1.503.793 0 1.274.52 1.274 1.4V353h1.168v-3.816c0-1.485-.817-2.262-2.043-2.262-.903 0-1.493.418-1.77 1.055h-.074V347h-1.12v6h1.168v-3.563zM357.156 345v5.672c-.004.922-.434 1.414-1.2 1.414-.707 0-1.2-.422-1.203-1.086h-1.2c0 1.352 1.016 2.1 2.37 2.1 1.47 0 2.43-.898 2.434-2.437V345h-1.203zm6.667 5.512c.004 1.02-.754 1.504-1.4 1.504-.723 0-1.223-.524-1.223-1.34V347h-1.168v3.816c0 1.5.816 2.262 1.97 2.262.902 0 1.515-.476 1.793-1.117h.062V353h1.15v-6h-1.172v3.512zm3.9-5.512h-1.168v8h1.168v-8zm33.305 8l.734-2.117h3.125l.73 2.117h1.28l-2.88-8h-1.394l-2.88 8h1.28zm1.086-3.133l1.18-3.414h.062l1.18 3.414h-2.422zm9.647.645c.004 1.02-.754 1.504-1.4 1.504-.722 0-1.222-.524-1.222-1.34V347h-1.168v3.816c0 1.5.816 2.262 1.968 2.262.903 0 1.516-.476 1.793-1.117h.063V353h1.148v-6h-1.172v3.512zm5.257 4.85c1.528 0 2.707-.7 2.707-2.23V347h-1.144v.973h-.086c-.207-.37-.62-1.05-1.74-1.05-1.45 0-2.515 1.144-2.515 3.055s1.1 2.933 2.508 2.933c1.1 0 1.527-.62 1.738-1.004h.074v1.18c0 .926-.644 1.336-1.53 1.336-.973 0-1.352-.488-1.56-.82l-1.004.414c.317.722 1.118 1.347 2.55 1.347zm-.012-3.422c-1.043 0-1.585-.8-1.585-1.98 0-1.152.53-2.047 1.585-2.047 1.02 0 1.567.832 1.567 2.047 0 1.238-.56 1.98-1.567 1.98zm37.22-4.838h1.164c-.035-1.282-1.168-2.2-2.793-2.2-1.605 0-2.835.918-2.835 2.296 0 1.114.796 1.766 2.082 2.114l.945.258c.855.226 1.516.507 1.516 1.218 0 .782-.747 1.297-1.774 1.297-.93 0-1.703-.414-1.773-1.285h-1.2c.078 1.45 1.2 2.344 2.992 2.344 1.88 0 2.96-.988 2.96-2.344 0-1.44-1.285-2-2.3-2.25l-.78-.203c-.625-.16-1.457-.453-1.453-1.22 0-.68.62-1.183 1.605-1.183.918 0 1.57.43 1.656 1.168zm5.208 6.02c1.3 0 2.235-.644 2.5-1.62l-1.105-.2c-.2.566-.72.855-1.383.855-1 0-1.672-.648-1.703-1.804h4.266v-.415c0-2.167-1.297-3.015-2.657-3.015-1.672 0-2.773 1.273-2.773 3.117 0 1.863 1.086 3.082 2.855 3.082zm-1.687-3.644c.047-.852.664-1.6 1.613-1.6.906 0 1.5.672 1.504 1.6h-3.117zm5.558 5.773h1.167v-3.184h.07c.2.383.64 1.05 1.734 1.05 1.453 0 2.508-1.164 2.508-3.105s-1.07-3.1-2.52-3.1c-1.113 0-1.515.68-1.722 1.05h-.098V347h-1.14v8.25zm1.144-5.25c0-1.254.547-2.086 1.566-2.086 1.06 0 1.6.895 1.6 2.086 0 1.203-.547 2.12-1.6 2.12-1.003 0-1.566-.86-1.566-2.12zm42.817-1c0-2.56-1.53-4.1-3.602-4.1-2.078 0-3.605 1.55-3.605 4.1s1.527 4.1 3.605 4.1c2.07 0 3.602-1.55 3.602-4.1zm-1.195 0c0 1.95-1.032 3.008-2.407 3.008s-2.406-1.06-2.406-3.008 1.027-3.008 2.406-3.008 2.407 1.06 2.407 3.008zm5.133 4.12c1.418 0 2.336-.85 2.465-2.02h-1.136c-.15.648-.653 1.03-1.32 1.03-.988 0-1.625-.824-1.625-2.133 0-1.285.65-2.094 1.625-2.094.742 0 1.196.47 1.32 1.03h1.136c-.125-1.2-1.113-2.015-2.476-2.015-1.692 0-2.785 1.273-2.785 3.105 0 1.8 1.054 3.094 2.796 3.094zm6.515-6.12h-1.23v-1.438h-1.168V347h-.88v.937h.88v3.543c-.004 1.1.828 1.618 1.75 1.598.37-.004.62-.074.757-.125l-.2-.965c-.08.016-.223.05-.4.05-.38 0-.718-.125-.718-.8v-3.3h1.23V347zm37.175-2H553.7v5.875h-.074l-4.07-5.875h-1.117v8h1.207v-5.867h.074l4.067 5.867h1.1v-8zm4.194 8.12c1.692 0 2.797-1.238 2.797-3.094 0-1.867-1.105-3.105-2.797-3.105s-2.796 1.238-2.796 3.105c0 1.856 1.105 3.094 2.796 3.094zm.004-.98c-1.105 0-1.62-.965-1.62-2.118s.516-2.125 1.62-2.125c1.098 0 1.614.977 1.614 2.125s-.516 2.118-1.614 2.118zm9.015-5.14h-1.254l-1.516 4.617h-.062l-1.52-4.617h-1.253l2.18 6h1.25l2.176-6zm32.2 6c2.438 0 3.848-1.512 3.848-4.012 0-2.488-1.4-3.988-3.766-3.988h-2.672v8h2.6zm-1.383-1.055v-5.9h1.4c1.75 0 2.652 1.047 2.652 2.933 0 1.895-.902 2.957-2.726 2.957h-1.317zm9.224 1.176c1.3 0 2.234-.644 2.5-1.62l-1.105-.2c-.2.566-.72.855-1.383.855-1 0-1.672-.648-1.703-1.804h4.265v-.415c0-2.167-1.297-3.015-2.656-3.015-1.672 0-2.773 1.273-2.773 3.117 0 1.863 1.085 3.082 2.855 3.082zm-1.687-3.644c.046-.852.664-1.6 1.613-1.6.906 0 1.5.672 1.504 1.6h-3.117zm8.084 3.644c1.418 0 2.336-.85 2.465-2.02h-1.136c-.15.648-.653 1.03-1.32 1.03-.988 0-1.625-.824-1.625-2.133 0-1.285.65-2.094 1.625-2.094.742 0 1.196.47 1.32 1.03h1.136c-.125-1.2-1.113-2.015-2.476-2.015-1.692 0-2.785 1.273-2.785 3.105 0 1.8 1.054 3.094 2.796 3.094z" fill="#5d6598"/><g clip-path="url(#B)"><path d="M43 307l650-24" stroke="#8babe1" stroke-width="2" stroke-linecap="round" stroke-dasharray="0.1 4"/><path d="M59.533 293.8l-.877.033.22 5.814.877-.033-.22-5.814zm6.97-.26l-.87.032.16 4.27-.054.002-3.12-4.16-.812.03.22 5.814.877-.033-.16-4.264.054-.002 3.116 4.154.806-.03-.22-5.814zm4.38 5.658c1.77-.066 2.755-1.203 2.686-3.02-.068-1.808-1.134-2.86-2.846-2.796l-1.942.072.22 5.814 1.882-.07zm-1.034-.73l-.162-4.28 1.01-.038c1.272-.047 1.956.69 2.008 2.06.052 1.377-.575 2.174-1.9 2.223l-.957.036zm9.442-5.408l.145 3.833c.03.815-.602 1.296-1.386 1.325-.778.03-1.448-.403-1.48-1.218l-.145-3.832-.877.032.145 3.847c.05 1.312 1.1 2.026 2.386 1.978s2.282-.84 2.233-2.15l-.145-3.846-.877.032zm6.38 1.29l.846-.03c-.06-.93-.9-1.575-2.09-1.53-1.167.043-2.036.744-1.998 1.746.03.81.628 1.262 1.57 1.48l.694.162c.628.142 1.115.328 1.135.845.02.567-.507.962-1.253 1-.676.026-1.25-.254-1.324-.885l-.88.032c.097 1.052.936 1.67 2.24 1.622 1.366-.05 2.125-.798 2.088-1.783-.04-1.048-.99-1.42-1.734-1.573l-.573-.126c-.46-.1-1.07-.3-1.1-.847-.02-.494.42-.877 1.134-.903.667-.025 1.153.27 1.236.803zm2.657-.872l1.81-.068.19 5.06.874-.033-.19-5.06 1.814-.067-.03-.756-4.5.17.03.755zm6.685 4.816l.877-.033-.083-2.2 1.25-.047 1.264 2.156 1-.037-1.378-2.305c.703-.29 1.035-.898 1.006-1.678-.04-1.07-.733-1.798-2.082-1.748l-2.072.078.22 5.814zm.766-2.988l-.08-2.107 1.102-.04c.866-.032 1.24.366 1.264 1.025s-.32 1.05-1.173 1.08l-1.113.042zm4.718-3.04l2.243 3.452.086 2.283.874-.033-.086-2.282 1.976-3.61-.997.037-1.418 2.7-.063.003-1.62-2.587-.996.038zm10.746 5.42l.476-1.558 2.27-.085.59 1.518.93-.034-2.312-5.736-1.013.038-1.873 5.892.93-.035zm.704-2.306l.763-2.513.046-.002.95 2.45-1.76.066zm5.09-3.733l-.948.036 2.312 5.736 1.014-.038 1.872-5.893-.948.036-1.44 4.796-.065.002-1.798-4.675zm6.31 5.587l3.68-.138-.028-.755-2.802.105-.068-1.78 2.578-.097-.028-.752-2.578.096-.067-1.77 2.768-.103-.03-.756-3.645.137.22 5.814zm5.816-.218l.877-.033-.083-2.2 1.25-.046 1.265 2.156 1-.038-1.378-2.305c.703-.29 1.035-.897 1.006-1.678-.04-1.07-.734-1.798-2.082-1.747l-2.072.077.22 5.814zm.766-2.988l-.08-2.106 1.102-.04c.866-.033 1.24.365 1.264 1.024s-.32 1.05-1.173 1.082l-1.113.04zm5.877 2.74l.476-1.56 2.27-.085.59 1.52.93-.035-2.312-5.735-1.013.037-1.873 5.893.93-.035zm.703-2.306l.764-2.514h.046l.95 2.45-1.76.066zm8.914-2.037l.9-.033c-.238-1.126-1.236-1.873-2.49-1.826-1.505.056-2.56 1.23-2.5 3.087.07 1.84 1.18 2.943 2.756 2.885 1.4-.053 2.383-1.016 2.328-2.484l-.025-.662-2.285.086.027.724 1.436-.054c.016.938-.58 1.554-1.512 1.59-1.025.038-1.8-.71-1.854-2.123-.053-1.408.67-2.21 1.655-2.248.772-.03 1.31.378 1.555 1.06zm3.203 3.864l3.68-.138-.028-.755-2.802.105-.067-1.78 2.577-.097-.028-.752-2.578.096-.067-1.77 2.768-.104-.028-.755-3.646.137.22 5.814z" fill="#8babe1"/><path d="M40.224 231.906l-1.224-.28V343h647V221.835l-1.15.177-21.5 3.293c-21.503 3.294-64.434 9.87-107.35 9.87-21.455 0-42.917-1.643-64.424-3.3l-.02-.002c-21.487-1.646-43.02-3.295-64.557-3.295-43.076 0-86.14 6.597-129.113 13.18l-.038.006c-43.017 6.59-85.922 13.16-128.81 11.516-42.894-1.642-85.81-11.5-107.314-16.443l-21.5-4.94z" fill="url(#A)" fill-opacity=".05" stroke="#1757c2" stroke-width="2"/></g><path d="M218.01 136.295h-1.38l-4.22 15.674h1.38l4.22-15.674zm10.992.4c-2.66-.026-4.372 1.968-4.372 4.397 0 2.532 1.867 4.347 4.117 4.347 1.355 0 2.505-.665 3.22-1.74h.102c0 3.222-1.252 5.063-3.272 5.063-1.38 0-2.225-.87-2.506-2.07h-1.56c.307 2.07 1.867 3.477 4.066 3.477 2.94 0 4.755-2.608 4.755-7.26 0-4.833-2.403-6.188-4.55-6.213zm0 1.406c1.637 0 2.838 1.406 2.838 2.966s-1.278 2.966-2.89 2.966-2.787-1.304-2.787-2.94c0-1.662 1.227-2.99 2.838-2.99zm11.156 12.068c2.493 0 4.32-1.84 4.32-4.347 0-2.537-1.764-4.397-4.168-4.397-.882 0-1.738.313-2.275.74h-.077l.46-3.86h5.472v-1.406h-6.8l-.793 6.443 1.483.18c.543-.4 1.47-.67 2.276-.665 1.668.013 2.89 1.28 2.89 2.992 0 1.68-1.176 2.915-2.787 2.915-1.342 0-2.4-.863-2.53-2.046h-1.534c.096 1.995 1.815 3.452 4.065 3.452zm11.13 0c2.89 0 4.55-2.448 4.55-6.724 0-4.245-1.687-6.725-4.55-6.725s-4.55 2.48-4.55 6.725c0 4.276 1.662 6.724 4.55 6.724zm0-1.406c-1.905 0-3.017-1.91-3.017-5.318 0-3.4 1.125-5.344 3.017-5.344s3.017 1.943 3.017 5.344c0 3.407-1.112 5.318-3.017 5.318z" fill="#5d6598"/><path d="M88 130c0 13.255-10.745 24-24 24s-24-10.745-24-24 10.745-24 24-24 24 10.745 24 24z" fill="#f4fbf7"/><g fill="#20af5d"><path fill-rule="evenodd" d="M64 107c-12.702 0-23 10.297-23 23s10.298 23 23 23 23-10.297 23-23-10.297-23-23-23zm-25 23c0-13.807 11.193-25 25-25s25 11.193 25 25-11.193 25-25 25-25-11.193-25-25z"/><path d="M67.665 132.133l-3.086-7.996-.288-.823-.288-1.015c-.192.74-.4 1.358-.6 1.852l-3.086 7.982h7.337zm5.54 7.296H71.15c-.238 0-.43-.06-.576-.18a1.12 1.12 0 0 1-.33-.452l-1.838-4.745h-8.818l-1.838 4.745c-.055.164-.16.3-.315.44s-.347.192-.576.192H54.8l7.858-19.653h2.688l7.858 19.653zm48.478 11.128c8.134 0 13.8-4.753 13.84-11.375-.04-5.15-3.48-9.526-7.875-10.34v-.24c3.818-.994 6.324-4.733 6.364-9.068-.04-6.204-5.25-10.818-12.33-10.818-7.16 0-12.37 4.614-12.33 10.818-.04 4.335 2.466 8.074 6.363 9.068v.24c-4.474.815-7.914 5.2-7.875 10.34-.04 6.622 5.628 11.375 13.84 11.375zm0-4.375c-5.588 0-9.028-2.864-8.988-7.24-.04-4.594 3.758-7.875 8.988-7.875 5.15 0 8.95 3.28 9 7.875-.04 4.375-3.48 7.24-9 7.24zm0-19.33c-4.454 0-7.596-2.784-7.557-7-.04-4.136 2.983-6.84 7.557-6.84 4.495 0 7.517 2.705 7.557 6.84-.04 4.216-3.182 7-7.557 7zm34.2 23.705c7.756 0 13.443-5.727 13.443-13.523 0-7.895-5.5-13.682-12.966-13.682-2.744 0-5.4.975-7.08 2.307h-.24l1.432-12h17.023v-4.375h-21.16l-2.465 20.045 4.613.557c1.7-1.213 4.574-2.088 7.08-2.068 5.2.04 8.988 3.977 8.988 9.307 0 5.23-3.66 9.068-8.67 9.068-4.176 0-7.497-2.685-7.875-6.364h-4.773c.298 6.205 5.648 10.74 12.648 10.74zm34.627 0c9 0 14.16-7.617 14.16-20.92 0-13.204-5.25-20.92-14.16-20.92s-14.16 7.716-14.16 20.92c0 13.304 5.17 20.92 14.16 20.92zm0-4.375c-5.926 0-9.386-5.946-9.386-16.546 0-10.58 3.5-16.625 9.386-16.625s9.386 6.046 9.386 16.625c0 10.6-3.46 16.546-9.386 16.546z"/></g><path d="M42.358 45.455H40.5L45.852 60h1.818L53 45.455h-1.847L46.847 57.7h-.17L42.36 45.456zm16.25 14.773c2.216 0 3.835-1.108 4.347-2.756l-1.62-.455c-.426 1.136-1.413 1.705-2.727 1.705-1.967 0-3.324-1.27-3.402-3.608h7.92v-.7c0-4.062-2.415-5.454-4.687-5.454-2.955 0-4.915 2.33-4.915 5.682s1.932 5.597 5.085 5.597zm-3.402-6.562c.114-1.697 1.314-3.2 3.23-3.2 1.818 0 2.983 1.364 2.983 3.2h-6.214zm12.145-.227c0-1.903 1.18-2.983 2.784-2.983 1.555 0 2.5 1.016 2.5 2.727V60h1.676v-6.932c0-2.784-1.484-4.12-3.693-4.12-1.648 0-2.67.74-3.182 1.847h-.142V49.1h-1.62V60h1.676v-6.562zm14.142 6.8c2.102 0 2.813-1.307 3.182-1.903h.2V60h1.62V45.455H84.82v5.37h-.142c-.37-.568-1.023-1.875-3.153-1.875-2.756 0-4.66 2.188-4.66 5.625 0 3.466 1.903 5.653 4.63 5.653zm.227-1.506c-2.102 0-3.182-1.847-3.182-4.176 0-2.3 1.05-4.1 3.182-4.1 2.046 0 3.125 1.648 3.125 4.1 0 2.472-1.108 4.176-3.125 4.176zm12.507 1.506c2.955 0 4.943-2.244 4.943-5.625 0-3.4-2-5.653-4.943-5.653s-4.943 2.244-4.943 5.653c0 3.38 2 5.625 4.943 5.625zm0-1.506c-2.244 0-3.267-1.932-3.267-4.12s1.023-4.148 3.267-4.148 3.267 1.96 3.267 4.148-1.023 4.12-3.267 4.12zm7.5 1.278h1.677v-6.903c0-1.477 1.164-2.557 2.755-2.557a5.13 5.13 0 0 1 1.023.114V48.95l-.88-.028c-1.307 0-2.443.74-2.84 1.818h-.113V49.1h-1.62V60zm20.794-8.466c-.525-1.548-1.704-2.585-3.864-2.585-2.3 0-4.005 1.307-4.005 3.153 0 1.506.895 2.514 2.897 2.983l1.82.426c1.1.256 1.62.78 1.62 1.534 0 .938-.994 1.705-2.557 1.705-1.37 0-2.23-.6-2.528-1.76l-1.6.398c.4 1.854 1.917 2.84 4.148 2.84 2.535 0 4.26-1.385 4.26-3.267 0-1.52-.952-2.48-2.898-2.955l-1.62-.398c-1.293-.32-1.875-.753-1.875-1.6 0-.937.994-1.62 2.33-1.62 1.464 0 2.067.8 2.358 1.563l1.506-.426zm9.597 4.006c0 2.045-1.562 2.983-2.812 2.983-1.393 0-2.387-1.023-2.387-2.614V49.1h-1.676v6.932c0 2.784 1.477 4.12 3.523 4.12 1.647 0 2.727-.88 3.238-2h.114V60h1.676V49.1h-1.676v6.45zm4.746 4.46h1.676v-6.818c0-1.598 1.165-2.727 2.472-2.727 1.27 0 2.16.83 2.16 2.074V60h1.704v-7.102c0-1.406.88-2.443 2.415-2.443 1.193 0 2.216.632 2.216 2.244V60h1.676v-7.3c0-2.564-1.378-3.75-3.324-3.75-1.562 0-2.706.717-3.267 1.847h-.113c-.54-1.165-1.492-1.847-2.926-1.847-1.42 0-2.472.682-2.927 1.847h-.142V49.1h-1.62V60zm17.383 0h1.676v-6.818c0-1.598 1.165-2.727 2.472-2.727 1.27 0 2.16.83 2.16 2.074V60h1.704v-7.102c0-1.406.88-2.443 2.415-2.443 1.193 0 2.216.632 2.216 2.244V60h1.676v-7.3c0-2.564-1.378-3.75-3.324-3.75-1.562 0-2.706.717-3.267 1.847h-.113c-.54-1.165-1.492-1.847-2.927-1.847-1.42 0-2.47.682-2.926 1.847h-.142V49.1h-1.62V60zm20.593.256c1.903 0 2.898-1.023 3.24-1.733h.085V60h1.676v-7.187c0-3.466-2.642-3.864-4.034-3.864-1.648 0-3.523.568-4.375 2.557l1.6.568c.37-.796 1.243-1.648 2.84-1.648 1.54 0 2.3.817 2.3 2.216v.057c0 .8-.824.74-2.813.994-2.024.263-4.233.7-4.233 3.2 0 2.13 1.648 3.352 3.722 3.352zm.256-1.506c-1.336 0-2.3-.597-2.3-1.76 0-1.278 1.164-1.676 2.47-1.847.7-.085 2.614-.284 2.898-.625v1.534c0 1.364-1.08 2.7-3.068 2.7zM182.9 60h1.676v-6.903c0-1.477 1.165-2.557 2.756-2.557a5.13 5.13 0 0 1 1.023.114V48.95l-.88-.028c-1.307 0-2.443.74-2.84 1.818h-.113V49.1h-1.62V60zm8.853 4.063c1.513 0 2.585-.803 3.2-2.472l4.645-12.472-1.832-.028-3 8.693h-.114l-3-8.693h-1.82l4.035 10.966-.313.852c-.597 1.633-1.364 1.8-2.585 1.477l-.426 1.477c.17.085.653.2 1.22.2zm286.822 51.067h-1.55c-.06-.33-.17-.623-.333-.875s-.36-.465-.597-.64a2.55 2.55 0 0 0-.8-.398 3.1 3.1 0 0 0-.92-.134c-.586 0-1.112.147-1.576.442s-.825.728-1.094 1.298-.397 1.266-.397 2.088c0 .83.132 1.528.397 2.098s.635 1 1.1 1.293.986.437 1.566.437a3.18 3.18 0 0 0 .915-.129 2.64 2.64 0 0 0 .791-.393c.235-.172.434-.383.596-.63a2.41 2.41 0 0 0 .343-.865l1.55.005a4.16 4.16 0 0 1-.482 1.382 3.96 3.96 0 0 1-.9 1.084c-.36.304-.8.535-1.263.7s-1 .248-1.55.248c-.88 0-1.667-.2-2.356-.626s-1.233-1.023-1.63-1.805-.592-1.715-.592-2.8.2-2.02.597-2.8.94-1.382 1.63-1.8 1.473-.63 2.35-.63c.54 0 1.044.078 1.512.234s.893.377 1.267.676a3.77 3.77 0 0 1 .93 1.084 4.18 4.18 0 0 1 .497 1.456zm1.72 6.87v-7.636h1.437v1.213h.08a1.85 1.85 0 0 1 .735-.97 2.11 2.11 0 0 1 1.203-.358l.33.01.303.025v1.422a2.61 2.61 0 0 0-.318-.055 3.07 3.07 0 0 0-.458-.035 1.94 1.94 0 0 0-.939.224c-.272.146-.488.35-.647.612a1.66 1.66 0 0 0-.238.885V122h-1.487zm5.373 0v-7.636h1.487V122h-1.487zm.75-8.815c-.26 0-.48-.086-.666-.258a.84.84 0 0 1-.274-.627c0-.245.1-.454.274-.626a.93.93 0 0 1 .666-.263.91.91 0 0 1 .66.263.82.82 0 0 1 .279.626c0 .242-.093.45-.28.627a.93.93 0 0 1-.661.258zm6.3 1.18v1.193h-4.17v-1.193h4.17zm-3.052-1.83h1.486v7.224c0 .288.043.505.13.65s.198.24.334.293.3.075.452.075a1.69 1.69 0 0 0 .313-.025l.2-.04.268 1.228a2.47 2.47 0 0 1-.367.1 3 3 0 0 1-.597.06 2.63 2.63 0 0 1-1.094-.208 1.88 1.88 0 0 1-.82-.677c-.2-.304-.313-.687-.313-1.148v-7.532zm4.697 9.466v-7.636h1.486V122h-1.486zm.75-8.815c-.258 0-.48-.086-.666-.258a.82.82 0 0 1-.273-.627.83.83 0 0 1 .273-.626c.186-.176.408-.263.666-.263a.92.92 0 0 1 .662.263c.185.172.278.38.278.626s-.093.45-.278.627a.93.93 0 0 1-.662.258zm5.953 8.97c-.74 0-1.376-.167-1.9-.502a3.35 3.35 0 0 1-1.223-1.397c-.285-.593-.427-1.273-.427-2.038 0-.776.146-1.46.437-2.054a3.36 3.36 0 0 1 1.233-1.397c.53-.334 1.155-.502 1.875-.502.58 0 1.097.108 1.55.323a2.78 2.78 0 0 1 1.098.895c.282.385.45.834.503 1.348h-1.447c-.08-.358-.262-.667-.547-.925s-.66-.388-1.134-.388c-.414 0-.777.1-1.088.328s-.55.524-.72.925-.26.868-.26 1.412c0 .557.085 1.037.254 1.442s.408.717.716.94.678.333 1.098.333a1.83 1.83 0 0 0 .766-.154 1.57 1.57 0 0 0 .582-.452c.16-.196.27-.43.333-.706h1.447c-.053.494-.214.934-.483 1.322a2.78 2.78 0 0 1-1.078.915c-.45.222-.973.333-1.576.333zm6.95.015c-.484 0-.922-.1-1.313-.268s-.7-.446-.93-.8-.338-.767-.338-1.268c0-.43.083-.785.25-1.064a1.84 1.84 0 0 1 .671-.661 3.53 3.53 0 0 1 .945-.368 9.54 9.54 0 0 1 1.064-.19l1.113-.13c.285-.036.492-.094.622-.174s.194-.2.194-.388v-.034c0-.435-.123-.77-.368-1s-.604-.358-1.084-.358c-.5 0-.895.1-1.183.333s-.483.463-.592.73l-1.397-.318c.166-.464.408-.838.726-1.124a2.94 2.94 0 0 1 1.108-.626 4.32 4.32 0 0 1 1.318-.199 5.39 5.39 0 0 1 .97.1 2.82 2.82 0 0 1 .965.387c.302.2.548.46.74.8s.288.8.288 1.357V122h-1.452v-1.044h-.06a2.13 2.13 0 0 1-.433.567c-.192.185-.44.34-.74.462s-.663.184-1.083.184zm.323-1.193c.4 0 .762-.08 1.054-.244s.518-.374.67-.636a1.65 1.65 0 0 0 .234-.85v-.985c-.054.053-.156.103-.3.15a4.79 4.79 0 0 1-.512.114l-.562.084-.457.06a3.66 3.66 0 0 0-.79.184c-.236.086-.425.2-.567.373a.94.94 0 0 0-.21.636c0 .368.136.647.408.835s.618.28 1.04.28zm6.9-9.158V122h-1.486v-10.182h1.486z" fill="#131520"/><path d="M557.98 122v-1.114l3.446-3.57.9-1.02c.24-.295.422-.575.54-.84a2.02 2.02 0 0 0 .179-.845c0-.338-.08-.63-.238-.875s-.376-.44-.652-.572a2.08 2.08 0 0 0-.929-.203c-.365 0-.683.074-.955.223s-.48.36-.626.632-.22.6-.22.954h-1.467c0-.62.143-1.16.428-1.625s.676-.824 1.173-1.08 1.063-.388 1.696-.388c.64 0 1.203.128 1.7.383s.873.596 1.148 1.034.413.925.413 1.47c0 .378-.07.748-.214 1.11s-.383.764-.73 1.208-.83.976-1.45 1.606l-2.024 2.118v.075h4.584V122h-6.702zm12.31 0v-7.636h1.437v1.213h.08a1.85 1.85 0 0 1 .735-.97c.355-.238.756-.358 1.204-.358l.328.01.303.025v1.422a2.61 2.61 0 0 0-.318-.055 3.07 3.07 0 0 0-.458-.035 1.94 1.94 0 0 0-.939.224 1.67 1.67 0 0 0-.647.612c-.16.258-.238.553-.238.885V122H570.3zm5.373 0v-7.636h1.487V122h-1.487zm.75-8.815c-.258 0-.48-.086-.666-.258s-.274-.385-.274-.627a.83.83 0 0 1 .274-.626c.185-.176.408-.263.666-.263s.48.087.66.263a.82.82 0 0 1 .279.626c0 .242-.093.45-.28.627s-.402.258-.66.258zm8.458 3.043l-1.347.24c-.057-.173-.146-.337-.27-.493a1.33 1.33 0 0 0-.487-.382c-.205-.1-.462-.15-.77-.15-.42 0-.772.095-1.054.284s-.422.426-.422.72c0 .255.094.46.283.616s.494.284.915.383l1.213.278c.703.163 1.226.413 1.57.75s.517.777.517 1.318c0 .457-.132.865-.398 1.223s-.628.633-1.098.835-1 .303-1.626.303c-.855 0-1.553-.182-2.093-.547s-.872-.9-.994-1.566l1.436-.22c.1.375.274.658.552.85s.642.283 1.09.283c.487 0 .877-.1 1.168-.303s.438-.456.438-.75a.78.78 0 0 0-.269-.602c-.175-.162-.445-.285-.8-.367l-1.293-.284c-.712-.162-1.24-.42-1.58-.775s-.507-.804-.507-1.348c0-.45.126-.845.378-1.183s.6-.602 1.044-.8.953-.29 1.526-.29c.826 0 1.475.18 1.95.537s.788.83.94 1.427zm3.15 3.182l-.01-1.815h.258l3.043-3.23h1.78l-3.47 3.68h-.234l-1.367 1.367zm-1.367 2.6v-10.182h1.486V122h-1.486zm4.822 0l-2.734-3.63 1.024-1.04 3.535 4.668h-1.825zm8.693-5.772l-1.347.24c-.057-.173-.146-.337-.27-.493a1.33 1.33 0 0 0-.487-.382c-.206-.1-.463-.15-.77-.15-.42 0-.772.095-1.054.284s-.422.426-.422.72c0 .255.094.46.283.616s.494.284.915.383l1.213.278c.703.163 1.226.413 1.57.75s.517.777.517 1.318c0 .457-.133.865-.398 1.223s-.628.633-1.098.835-1 .303-1.626.303c-.855 0-1.553-.182-2.093-.547s-.872-.9-.995-1.566l1.437-.22c.1.375.274.658.552.85s.64.283 1.09.283c.487 0 .877-.1 1.168-.303s.438-.456.438-.75a.78.78 0 0 0-.269-.602c-.175-.162-.446-.285-.8-.367l-1.293-.284c-.712-.162-1.24-.42-1.58-.775s-.507-.804-.507-1.348c0-.45.126-.845.378-1.183s.6-.602 1.044-.8.953-.29 1.526-.29c.826 0 1.475.18 1.95.537a2.5 2.5 0 0 1 .94 1.427z" fill="#5d6598"/><circle cx="445" cy="117" r="12" fill="#e02424"/><g fill="#fff"><use xlink:href="#C"/><use xlink:href="#C" x="3.975"/><use xlink:href="#C" x="7.95"/><use xlink:href="#C" x="11.925"/></g><path d="M470.12 143.818h1.864l3.24 7.915h.12l3.24-7.915h1.865V154h-1.462v-7.368h-.095l-3.002 7.353h-1.213l-3.003-7.358h-.095V154h-1.46v-10.182zm15.736 10.336c-.752 0-1.4-.16-1.944-.482s-.958-.78-1.253-1.367-.437-1.28-.437-2.073c0-.783.146-1.472.437-2.07s.706-1.062 1.233-1.397 1.15-.502 1.86-.502c.43 0 .848.07 1.252.214a3.03 3.03 0 0 1 1.089.671c.322.305.575.7.76 1.188s.278 1.073.278 1.765v.527h-6.07v-1.113h4.614c0-.39-.08-.738-.24-1.04a1.8 1.8 0 0 0-.671-.721c-.285-.176-.62-.264-1.005-.264-.417 0-.782.103-1.093.308a2.07 2.07 0 0 0-.716.796c-.166.325-.25.678-.25 1.06v.87c0 .5.1.944.27 1.302s.436.632.76.82.705.278 1.14.278c.282 0 .538-.04.77-.12s.433-.206.602-.368a1.6 1.6 0 0 0 .388-.602l1.407.254c-.113.414-.315.777-.607 1.09s-.65.548-1.09.72-.93.253-1.486.253zm7.784-.005c-.616 0-1.166-.157-1.65-.472s-.86-.77-1.134-1.357-.408-1.298-.408-2.123.138-1.532.413-2.118.66-1.036 1.144-1.347 1.032-.468 1.645-.468c.474 0 .855.08 1.144.24s.517.338.676.547a4.67 4.67 0 0 1 .378.552h.09v-3.784h1.487V154h-1.452v-1.188h-.124a4.02 4.02 0 0 1-.388.557c-.166.208-.395.39-.686.546s-.67.234-1.134.234zm.328-1.268c.428 0 .79-.112 1.084-.338s.524-.545.676-.95.234-.875.234-1.412c0-.53-.076-.995-.23-1.392a2.04 2.04 0 0 0-.671-.93c-.295-.222-.66-.333-1.094-.333-.447 0-.82.116-1.118.348s-.524.55-.676.95-.224.853-.224 1.357c0 .5.076.97.23 1.377s.377.73.676.97.673.353 1.113.353zm5.577 1.12v-7.636h1.487V154h-1.487zm.75-8.815c-.26 0-.48-.086-.666-.258a.84.84 0 0 1-.274-.627c0-.245.09-.454.274-.626a.93.93 0 0 1 .666-.263c.258 0 .48.087.66.263a.82.82 0 0 1 .279.626c0 .242-.093.45-.28.627a.93.93 0 0 1-.661.258zm7.573 5.648v-4.47h1.49V154h-1.46v-1.322h-.08a2.38 2.38 0 0 1-.845 1.019c-.384.268-.863.402-1.437.402-.5 0-.924-.107-1.302-.323s-.67-.542-.885-.97-.318-.956-.318-1.586v-4.857h1.486v4.678c0 .52.144.935.433 1.243s.662.462 1.123.462a1.81 1.81 0 0 0 .83-.209c.28-.14.51-.35.69-.63s.277-.64.274-1.074zm3.49 3.167v-7.636h1.427v1.243h.094a1.97 1.97 0 0 1 .781-.985c.36-.238.793-.358 1.297-.358.51 0 .938.12 1.283.358s.605.567.77.985h.08c.182-.408.472-.733.87-.975s.872-.368 1.422-.368c.693 0 1.258.217 1.695.65s.66 1.09.66 1.964V154h-1.486v-4.982c0-.517-.14-.89-.423-1.123s-.618-.348-1.01-.348c-.484 0-.86.15-1.128.447s-.403.675-.403 1.14V154h-1.482v-5.076c0-.414-.13-.747-.387-1s-.595-.378-1-.378c-.28 0-.542.074-.78.224a1.63 1.63 0 0 0-.572.611c-.143.262-.214.565-.214.9V154h-1.486z" fill="#131520"/><path d="M561.42 154.14c-.713 0-1.343-.122-1.89-.368s-.97-.583-1.278-1.014-.46-.92-.458-1.47c-.003-.43.085-.827.264-1.19a2.6 2.6 0 0 1 .741-.909 2.28 2.28 0 0 1 1.044-.468v-.06c-.507-.123-.913-.395-1.218-.816s-.456-.905-.453-1.452c-.003-.52.135-.984.413-1.392a2.88 2.88 0 0 1 1.158-.969c.49-.235 1.05-.353 1.676-.353.62 0 1.173.12 1.66.358s.877.558 1.16.97.424.87.427 1.387c-.003.547-.16 1.03-.467 1.452a2.07 2.07 0 0 1-1.203.816v.06c.38.066.724.222 1.03.468s.553.545.736.91.28.758.283 1.19a2.49 2.49 0 0 1-.467 1.471c-.31.43-.736.77-1.283 1.014s-1.168.368-1.874.368zm0-1.258c.42 0 .785-.07 1.093-.208s.547-.34.716-.592a1.61 1.61 0 0 0 .259-.895c-.003-.355-.096-.668-.278-.94a1.87 1.87 0 0 0-.731-.641c-.31-.156-.662-.234-1.06-.234s-.758.078-1.07.234-.557.37-.736.64-.267.585-.263.94a1.57 1.57 0 0 0 .243.895c.17.252.41.45.72.592s.68.208 1.104.208zm0-4.738c.338 0 .638-.067.9-.203s.467-.325.616-.567.23-.525.234-.85a1.58 1.58 0 0 0-.229-.835c-.146-.24-.35-.423-.61-.552s-.566-.2-.9-.2c-.352 0-.66.066-.925.2a1.44 1.44 0 0 0-.611.552c-.146.238-.218.517-.214.835a1.55 1.55 0 0 0 .835 1.417c.265.136.57.203.915.203zm9.13 5.857v-7.636h1.437v1.213h.08c.14-.41.385-.734.736-.97a2.11 2.11 0 0 1 1.203-.358l.328.01.304.025v1.422a2.61 2.61 0 0 0-.318-.055 3.07 3.07 0 0 0-.458-.035 1.94 1.94 0 0 0-.939.224c-.272.146-.488.35-.647.612s-.238.553-.238.885V154h-1.487zm5.373 0v-7.636h1.487V154h-1.487zm.75-8.815c-.26 0-.48-.086-.666-.258a.84.84 0 0 1-.274-.627c0-.245.09-.454.274-.626a.93.93 0 0 1 .666-.263c.258 0 .48.087.66.263a.82.82 0 0 1 .278.626c0 .242-.092.45-.278.627a.93.93 0 0 1-.661.258zm8.458 3.043l-1.348.24a1.58 1.58 0 0 0-.268-.493 1.33 1.33 0 0 0-.487-.382c-.206-.1-.463-.15-.77-.15-.42 0-.772.095-1.054.284s-.422.426-.422.72c0 .255.094.46.283.616s.494.284.915.383l1.213.278c.702.163 1.226.413 1.57.75s.517.777.517 1.318c0 .457-.133.865-.398 1.223s-.628.633-1.1.835-1.01.303-1.625.303c-.855 0-1.553-.182-2.093-.547a2.31 2.31 0 0 1-.995-1.566l1.437-.22c.1.375.274.658.552.85s.64.283 1.09.283c.487 0 .876-.1 1.168-.303s.438-.456.438-.75a.78.78 0 0 0-.269-.602c-.176-.162-.446-.285-.8-.367l-1.293-.284c-.712-.162-1.24-.42-1.58-.775s-.507-.804-.507-1.348c0-.45.126-.845.378-1.183s.6-.602 1.044-.8.953-.29 1.526-.29c.826 0 1.475.18 1.95.537a2.5 2.5 0 0 1 .94 1.427zm3.15 3.182l-.01-1.815h.258l3.043-3.23h1.78l-3.47 3.68h-.233l-1.368 1.367zm-1.367 2.6v-10.182h1.487V154h-1.487zm4.823 0l-2.735-3.63 1.025-1.04 3.534 4.668h-1.824zm8.693-5.772l-1.348.24a1.6 1.6 0 0 0-.268-.493 1.34 1.34 0 0 0-.487-.382c-.206-.1-.463-.15-.77-.15-.42 0-.772.095-1.054.284s-.423.426-.423.72a.76.76 0 0 0 .284.616c.19.156.494.284.915.383l1.213.278c.702.163 1.226.413 1.57.75s.517.777.517 1.318c0 .457-.133.865-.398 1.223s-.628.633-1.1.835-1.01.303-1.625.303c-.856 0-1.553-.182-2.093-.547a2.31 2.31 0 0 1-.995-1.566l1.437-.22c.09.375.273.658.552.85s.64.283 1.09.283c.487 0 .876-.1 1.168-.303s.437-.456.437-.75a.78.78 0 0 0-.268-.602c-.176-.162-.446-.285-.8-.367l-1.293-.284c-.713-.162-1.24-.42-1.58-.775s-.507-.804-.507-1.348c0-.45.126-.845.378-1.183s.6-.602 1.044-.8.953-.29 1.526-.29c.825 0 1.475.18 1.95.537a2.5 2.5 0 0 1 .94 1.427z" fill="#5d6598"/><circle cx="445" cy="149" r="12" fill="#ff9901"/><g fill="#fff"><use xlink:href="#C" x="3.975" y="32"/><use xlink:href="#C" x="7.95" y="32"/></g><path d="M470.12 186v-10.182h1.536v8.86h4.613V186h-6.15zm11 .154c-.716 0-1.34-.164-1.874-.492s-.948-.787-1.243-1.377-.442-1.28-.442-2.068c0-.793.147-1.485.442-2.08s.71-1.053 1.243-1.382 1.158-.492 1.874-.492 1.34.164 1.875.492a3.32 3.32 0 0 1 1.242 1.382c.295.594.443 1.286.443 2.08 0 .788-.148 1.478-.443 2.068a3.32 3.32 0 0 1-1.242 1.377c-.534.328-1.16.492-1.875.492zm.005-1.248c.464 0 .85-.122 1.154-.368s.53-.57.676-.98a3.9 3.9 0 0 0 .223-1.347c0-.488-.074-.935-.223-1.343s-.37-.74-.676-.99-.7-.373-1.154-.373-.855.124-1.163.373a2.22 2.22 0 0 0-.681.989c-.146.408-.22.855-.22 1.343s.073.94.22 1.347.376.734.68.98.696.368 1.163.368zM487.76 186l-2.247-7.636h1.536l1.497 5.608h.074l1.502-5.608h1.536l1.492 5.583h.074l1.487-5.583h1.536L494.005 186h-1.517l-1.55-5.513h-.114l-1.55 5.513h-1.512z" fill="#131520"/><path d="M561.842 175.818V186h-1.54v-8.64h-.06l-2.436 1.59v-1.47l2.54-1.66h1.496zM564.597 186v-1.114l3.445-3.57.9-1.02c.242-.295.422-.575.542-.84s.18-.546.18-.845c0-.338-.08-.63-.24-.875s-.376-.44-.65-.572-.585-.203-.93-.203c-.365 0-.683.074-.955.223s-.48.36-.626.632-.22.6-.22.954h-1.466c0-.62.142-1.16.427-1.625a2.9 2.9 0 0 1 1.174-1.079c.497-.26 1.062-.388 1.695-.388.64 0 1.203.128 1.7.383s.873.596 1.15 1.034a2.69 2.69 0 0 1 .412 1.471c0 .378-.07.748-.214 1.11s-.382.764-.73 1.208-.832.976-1.452 1.606l-2.024 2.118v.075h4.584V186h-6.7zm12.3 0v-7.636h1.437v1.213h.08c.14-.41.384-.734.736-.97s.755-.358 1.203-.358l.328.01.303.025v1.422a2.61 2.61 0 0 0-.318-.055 3.07 3.07 0 0 0-.457-.035 1.94 1.94 0 0 0-.94.224 1.66 1.66 0 0 0-.646.612c-.16.258-.24.553-.24.885V186h-1.487zm5.374 0v-7.636h1.486V186h-1.486zm.75-8.815c-.258 0-.48-.086-.666-.258s-.273-.385-.273-.627a.83.83 0 0 1 .273-.626c.186-.176.408-.263.666-.263s.48.087.66.263a.82.82 0 0 1 .279.626c0 .242-.093.45-.28.627s-.402.258-.66.258zm8.458 3.043l-1.347.24a1.58 1.58 0 0 0-.269-.493c-.12-.155-.28-.283-.487-.382s-.462-.15-.77-.15c-.42 0-.773.095-1.054.284s-.423.426-.423.72c0 .255.094.46.283.616s.494.284.915.383l1.213.278c.703.163 1.227.413 1.57.75s.517.777.517 1.318c0 .457-.132.865-.397 1.223s-.628.633-1.1.835-1.01.303-1.626.303c-.855 0-1.553-.182-2.093-.547s-.872-.9-.994-1.566l1.437-.22c.09.375.273.658.55.85s.642.283 1.09.283c.487 0 .877-.1 1.17-.303s.437-.456.437-.75a.78.78 0 0 0-.268-.602c-.176-.162-.446-.285-.81-.367l-1.292-.284c-.713-.162-1.24-.42-1.58-.775s-.507-.804-.507-1.348c0-.45.125-.845.377-1.183s.6-.602 1.044-.8.953-.29 1.527-.29c.825 0 1.475.18 1.95.537a2.5 2.5 0 0 1 .939 1.427zm3.15 3.182l-.01-1.815h.258l3.043-3.23h1.78l-3.47 3.68h-.234l-1.367 1.367zm-1.367 2.6v-10.182h1.486V186h-1.486zm4.822 0l-2.734-3.63 1.024-1.04L599.92 186h-1.825zm8.693-5.772l-1.347.24c-.057-.173-.146-.337-.27-.493s-.28-.283-.487-.382-.462-.15-.77-.15c-.42 0-.772.095-1.054.284s-.422.426-.422.72c0 .255.094.46.283.616s.494.284.915.383l1.213.278c.703.163 1.226.413 1.57.75s.517.777.517 1.318c0 .457-.132.865-.398 1.223s-.628.633-1.098.835-1 .303-1.626.303c-.855 0-1.553-.182-2.093-.547s-.872-.9-.994-1.566l1.436-.22c.1.375.274.658.552.85s.642.283 1.09.283c.487 0 .877-.1 1.168-.303s.438-.456.438-.75a.78.78 0 0 0-.269-.602c-.175-.162-.445-.285-.8-.367l-1.293-.284c-.712-.162-1.24-.42-1.58-.775s-.507-.804-.507-1.348c0-.45.126-.845.378-1.183s.6-.602 1.044-.8.953-.29 1.527-.29c.825 0 1.474.18 1.948.537s.788.83.94 1.427z" fill="#5d6598"/><circle cx="445" cy="181" r="12" fill="#fdc106"/><path d="M445.7 176.824v3.432a10.55 10.55 0 0 1-.054 1.074l-.138 1.1H444.5l-.138-1.1a10.55 10.55 0 0 1-.054-1.074v-3.432h1.392zm-1.626 7.86a.96.96 0 0 1 .066-.354.91.91 0 0 1 .192-.288c.084-.08.182-.144.294-.192s.232-.072.36-.072a.89.89 0 0 1 .354.072.91.91 0 0 1 .288.192.86.86 0 0 1 .198.288.89.89 0 0 1 .072.354c0 .128-.024.248-.072.36s-.114.202-.198.282a.83.83 0 0 1-.288.186.89.89 0 0 1-.354.072c-.128 0-.248-.024-.36-.072s-.2-.106-.294-.186-.144-.174-.192-.282-.066-.232-.066-.36z" fill="#fff"/><defs><linearGradient id="A" x1="362.5" y1="223" x2="362.5" y2="351.038" gradientUnits="userSpaceOnUse"><stop stop-color="#1757c2"/><stop offset="1" stop-color="#1757c2" stop-opacity="0"/></linearGradient><clipPath id="B"><path fill="#fff" transform="translate(43 223)" d="M0 0h589v119H0z"/></clipPath><path id="C" d="M439.738 112.824v3.432a10.55 10.55 0 0 1-.054 1.074l-.138 1.1h-1.008l-.138-1.1a10.55 10.55 0 0 1-.054-1.074v-3.432h1.392zm-1.626 7.86a.96.96 0 0 1 .066-.354.91.91 0 0 1 .192-.288c.084-.08.182-.144.294-.192s.232-.072.36-.072a.89.89 0 0 1 .354.072.91.91 0 0 1 .288.192.86.86 0 0 1 .198.288.89.89 0 0 1 .072.354c0 .128-.024.248-.072.36s-.114.202-.198.282a.83.83 0 0 1-.288.186.89.89 0 0 1-.354.072c-.128 0-.248-.024-.36-.072s-.2-.106-.294-.186-.144-.174-.192-.282-.066-.232-.066-.36z"/></defs></svg>