<svg xmlns="http://www.w3.org/2000/svg" xmlns:xlink="http://www.w3.org/1999/xlink" width="672" height="432" fill="none" xmlns:v="https://vecta.io/nano"><path fill="#fff" d="M0 0h672v432H0z"/><g fill="#131520"><path d="M53.466 50c-.54-2.983-2.926-4.744-5.852-4.744-3.722 0-6.42 2.87-6.42 7.472s2.7 7.472 6.42 7.472c2.926 0 5.313-1.76 5.852-4.744h-1.76c-.426 2.017-2.16 3.097-4.09 3.097-2.642 0-4.716-2.045-4.716-5.824s2.074-5.824 4.716-5.824c1.932 0 3.665 1.08 4.09 3.097h1.76zm9.494 5.54c0 2.045-1.562 2.983-2.812 2.983-1.392 0-2.386-1.023-2.386-2.614V49.09h-1.676v6.932c0 2.784 1.477 4.12 3.523 4.12 1.648 0 2.727-.88 3.24-1.99h.114V60h1.676V49.09H62.96v6.45zM67.706 60h1.676v-6.903c0-1.477 1.165-2.557 2.756-2.557.447 0 .91.085 1.023.114V48.95l-.88-.028c-1.307 0-2.443.74-2.84 1.818h-.114V49.09h-1.62V60zm7.44 0h1.676v-6.903c0-1.477 1.165-2.557 2.756-2.557.447 0 .91.085 1.023.114V48.95l-.88-.028c-1.307 0-2.443.74-2.84 1.818h-.114V49.09h-1.62V60zm11.683.227c2.216 0 3.835-1.108 4.347-2.756l-1.62-.455c-.426 1.136-1.413 1.705-2.727 1.705-1.967 0-3.324-1.27-3.402-3.608h7.92v-.7c0-4.062-2.415-5.454-4.687-5.454-2.955 0-4.915 2.33-4.915 5.682s1.932 5.597 5.085 5.597zm-3.402-6.562c.114-1.697 1.314-3.2 3.232-3.2 1.818 0 2.983 1.364 2.983 3.2H83.43zm12.145-.227c0-1.903 1.18-2.983 2.784-2.983 1.555 0 2.5 1.016 2.5 2.727V60h1.676v-6.932c0-2.784-1.485-4.12-3.693-4.12-1.648 0-2.67.74-3.182 1.847h-.142V49.09h-1.62V60h1.676v-6.562zm14.767-4.347h-2.33v-2.614h-1.676v2.614h-1.647v1.42h1.647v6.818c0 1.903 1.534 2.813 2.955 2.813.625 0 1.022-.114 1.25-.2l-.34-1.506c-.142.028-.37.085-.74.085-.738 0-1.45-.227-1.45-1.648V50.51h2.33v-1.42zM118.487 60h1.676v-6.903c0-1.477 1.165-2.557 2.756-2.557a5.14 5.14 0 0 1 1.023.114V48.95l-.88-.028c-1.307 0-2.443.74-2.84 1.818h-.113V49.09h-1.62V60zm7.442 0h1.676V49.09h-1.676V60zm.852-12.727c.653 0 1.193-.51 1.193-1.136S127.434 45 126.78 45s-1.193.51-1.193 1.136.54 1.136 1.193 1.136zm11.62 4.26c-.526-1.548-1.705-2.585-3.864-2.585-2.3 0-4.005 1.307-4.005 3.153 0 1.506.895 2.514 2.897 2.983l1.82.426c1.1.256 1.62.78 1.62 1.534 0 .938-.994 1.705-2.557 1.705-1.37 0-2.23-.6-2.528-1.76l-1.59.398c.4 1.854 1.917 2.84 4.147 2.84 2.536 0 4.262-1.385 4.262-3.267 0-1.52-.952-2.48-2.898-2.955l-1.62-.398c-1.293-.32-1.875-.753-1.875-1.59 0-.937.994-1.62 2.33-1.62 1.463 0 2.067.8 2.358 1.563l1.506-.426zM141.124 60h1.676v-4.084l1.172-1.087 4.084 5.17h2.13l-4.95-6.25 4.6-4.66h-2.074L143 53.95h-.2v-8.494h-1.676V60zm16.73 0h1.62v-1.676h.2c.37.597 1.08 1.903 3.182 1.903 2.727 0 4.63-2.187 4.63-5.653 0-3.437-1.904-5.625-4.66-5.625-2.13 0-2.784 1.307-3.154 1.875h-.142v-5.37h-1.676V60zm1.648-5.455c0-2.443 1.08-4.09 3.125-4.09 2.13 0 3.182 1.8 3.182 4.09 0 2.33-1.08 4.176-3.182 4.176-2.017 0-3.125-1.705-3.125-4.176zM170.05 60h1.676v-6.903c0-1.477 1.165-2.557 2.756-2.557.447 0 .91.085 1.022.114V48.95l-.88-.028c-1.307 0-2.444.74-2.84 1.818h-.114V49.09h-1.62V60zm11.683.227c2.216 0 3.835-1.108 4.347-2.756l-1.62-.455c-.426 1.136-1.413 1.705-2.727 1.705-1.967 0-3.324-1.27-3.402-3.608h7.92v-.7c0-4.062-2.415-5.454-4.688-5.454-2.954 0-4.914 2.33-4.914 5.682s1.932 5.597 5.085 5.597zm-3.402-6.562c.114-1.697 1.314-3.2 3.23-3.2 1.82 0 2.983 1.364 2.983 3.2h-6.214zm13.68 6.59c1.903 0 2.898-1.023 3.24-1.733h.085V60H197v-7.187c0-3.466-2.642-3.864-4.034-3.864-1.648 0-3.523.568-4.375 2.557l1.59.568c.37-.796 1.243-1.648 2.84-1.648 1.54 0 2.3.817 2.3 2.216v.057c0 .8-.824.74-2.813.994-2.024.263-4.233.7-4.233 3.2 0 2.13 1.648 3.352 3.722 3.352zm.256-1.506c-1.336 0-2.302-.597-2.302-1.76 0-1.278 1.165-1.676 2.472-1.847.7-.085 2.614-.284 2.898-.625v1.534c0 1.364-1.08 2.7-3.068 2.7zM200.07 60h1.676v-4.084l1.172-1.087L207 60h2.13l-4.95-6.25 4.6-4.66h-2.074l-4.773 4.858h-.2v-8.494h-1.676V60zm14.55.227c2.103 0 2.813-1.307 3.182-1.903h.2V60h1.62V45.455h-1.676v5.37h-.142c-.37-.568-1.023-1.875-3.153-1.875-2.756 0-4.66 2.188-4.66 5.625 0 3.466 1.903 5.653 4.63 5.653zm.228-1.506c-2.103 0-3.182-1.847-3.182-4.176 0-2.3 1.05-4.09 3.182-4.09 2.045 0 3.125 1.648 3.125 4.09 0 2.472-1.108 4.176-3.125 4.176zm12.507 1.506c2.954 0 4.943-2.244 4.943-5.625 0-3.41-1.99-5.653-4.943-5.653s-4.944 2.244-4.944 5.653c0 3.38 1.99 5.625 4.944 5.625zm0-1.506c-2.245 0-3.267-1.932-3.267-4.12s1.022-4.148 3.267-4.148 3.267 1.96 3.267 4.148-1.023 4.12-3.267 4.12zM236.955 60h1.648l2.386-8.38h.17l2.387 8.38h1.648l3.323-10.91h-1.76l-2.358 8.324h-.114l-2.3-8.324h-1.79l-2.33 8.352h-.114l-2.358-8.352h-1.76L236.955 60zm15.454-6.562c0-1.903 1.18-2.983 2.785-2.983 1.555 0 2.5 1.016 2.5 2.727V60h1.676v-6.932c0-2.784-1.485-4.12-3.694-4.12-1.647 0-2.67.74-3.18 1.847h-.142V49.09h-1.62V60h1.676v-6.562z"/><path d="M203.054 146v-.895l3.36-3.68.974-1.123c.255-.322.444-.624.567-.905a2.19 2.19 0 0 0 .189-.895c0-.358-.086-.668-.26-.93a1.67 1.67 0 0 0-.696-.606c-.295-.143-.626-.214-.994-.214-.39 0-.732.08-1.024.243a1.68 1.68 0 0 0-.671.672c-.156.288-.234.626-.234 1.014h-1.173c0-.597.137-1.12.412-1.57s.65-.802 1.124-1.054 1.013-.378 1.606-.378 1.125.126 1.586.378.822.59 1.084 1.02.392.903.392 1.427c0 .374-.068.74-.204 1.1s-.364.75-.696 1.188-.783.964-1.367 1.59l-2.287 2.446v.08h4.733V146h-6.423zm12.434 0v-7.636h1.133v1.153h.08c.14-.378.39-.684.756-.92s.775-.353 1.233-.353l.323.005.293.015v1.193c-.04-.01-.13-.024-.273-.044s-.287-.035-.443-.035c-.37 0-.702.078-.994.234a1.76 1.76 0 0 0-.686.636c-.166.268-.25.575-.25.92V146h-1.173zm5.21 0v-7.636h1.173V146h-1.173zm.597-8.91c-.23 0-.426-.078-.592-.234a.75.75 0 0 1-.244-.562c0-.218.08-.406.244-.56s.363-.234.592-.234.424.078.586.234a.74.74 0 0 1 .249.561c0 .22-.083.406-.25.562s-.358.234-.586.234zm8.134 2.983l-1.054.298c-.066-.176-.164-.346-.293-.512a1.43 1.43 0 0 0-.517-.418c-.22-.11-.5-.164-.84-.164-.468 0-.857.108-1.17.324s-.462.482-.462.8c0 .292.106.522.318.69s.544.3.995.423l1.133.278c.683.166 1.192.42 1.526.76s.502.774.502 1.307c0 .438-.125.83-.377 1.173s-.597.617-1.044.816-.968.298-1.56.298c-.78 0-1.424-.17-1.934-.507s-.834-.832-.97-1.482l1.114-.278c.106.41.306.72.6.925s.688.308 1.17.308c.547 0 .98-.116 1.302-.348s.487-.517.487-.845c0-.265-.092-.487-.278-.666s-.47-.32-.855-.408l-1.273-.298c-.7-.166-1.213-.423-1.54-.77s-.487-.8-.487-1.317a1.89 1.89 0 0 1 .363-1.144 2.47 2.47 0 0 1 .999-.78c.424-.19.905-.284 1.442-.284.755 0 1.35.166 1.78.497a2.68 2.68 0 0 1 .924 1.313zm3 3.142l-.02-1.452h.24l3.34-3.4h1.452l-3.56 3.6h-.1l-1.353 1.253zM231.334 146v-10.182h1.173V146h-1.173zm4.852 0l-2.983-3.778.835-.816 3.64 4.594h-1.49zm8.172-5.926l-1.054.298c-.066-.176-.164-.346-.293-.512s-.3-.308-.517-.418-.5-.164-.84-.164c-.467 0-.856.108-1.168.324s-.462.482-.462.8c0 .292.106.522.318.69s.543.3.994.423l1.134.278c.683.166 1.19.42 1.526.76s.502.774.502 1.307c0 .438-.126.83-.378 1.173s-.596.617-1.044.816-.968.298-1.56.298c-.78 0-1.423-.17-1.934-.507s-.833-.832-.97-1.482l1.113-.278c.106.41.307.72.602.925s.688.308 1.168.308c.547 0 .98-.116 1.303-.348s.487-.517.487-.845a.89.89 0 0 0-.278-.666c-.186-.183-.47-.32-.855-.408l-1.273-.298c-.7-.166-1.213-.423-1.54-.77s-.488-.8-.488-1.317a1.89 1.89 0 0 1 .363-1.144 2.48 2.48 0 0 1 1-.78c.424-.19.904-.284 1.44-.284.756 0 1.35.166 1.78.497a2.68 2.68 0 0 1 .925 1.313zM250.2 146v-7.636h1.173V146H250.2zm.596-8.91c-.228 0-.425-.078-.59-.234a.75.75 0 0 1-.244-.562c0-.218.08-.406.244-.56s.363-.234.59-.234.425.078.587.234a.74.74 0 0 1 .249.561c0 .22-.083.406-.25.562s-.358.234-.587.234zm5.6 9.068c-.637 0-1.2-.16-1.686-.482s-.868-.782-1.143-1.372-.413-1.295-.413-2.103c0-.802.138-1.498.413-2.088s.658-1.046 1.148-1.368 1.057-.482 1.7-.482c.498 0 .9.083 1.18.25s.513.348.666.557l.363.507h.1v-3.76h1.174V146h-1.134v-1.173h-.14c-.086.14-.21.315-.368.527s-.386.396-.68.56-.688.244-1.178.244zm.16-1.054c.47 0 .868-.123 1.193-.368s.572-.59.74-1.03.253-.95.253-1.526c0-.57-.083-1.07-.248-1.497s-.41-.765-.736-1.004-.726-.363-1.203-.363c-.497 0-.912.128-1.243.383s-.575.595-.74 1.03-.244.915-.244 1.452c0 .543.083 1.037.25 1.48s.418.792.746 1.054.742.388 1.233.388zm8.854 1.054c-.736 0-1.37-.162-1.904-.487s-.94-.786-1.228-1.372-.428-1.276-.428-2.06.143-1.47.428-2.068.69-1.067 1.203-1.402 1.12-.507 1.8-.507c.398 0 .8.066 1.178.2s.74.348 1.06.646.572.686.76 1.174.283 1.087.283 1.8v.498h-5.886v-1.015h4.693c0-.43-.086-.815-.26-1.153s-.41-.605-.726-.8-.68-.294-1.103-.294c-.468 0-.872.116-1.213.348a2.29 2.29 0 0 0-.781.895 2.63 2.63 0 0 0-.273 1.183v.676c0 .577.1 1.066.298 1.467a2.15 2.15 0 0 0 .84.91c.358.205.774.308 1.248.308a2.54 2.54 0 0 0 .835-.129 1.8 1.8 0 0 0 .652-.398c.182-.18.323-.4.422-.666l1.134.318a2.51 2.51 0 0 1-.602 1.014c-.282.29-.63.514-1.044.676s-.88.24-1.397.24zm6.12-4.753V146h-1.173v-7.636h1.133v1.193h.1a2.18 2.18 0 0 1 .815-.935c.365-.238.835-.358 1.412-.358.517 0 .97.106 1.357.318a2.14 2.14 0 0 1 .905.955c.216.424.323.96.323 1.61V146h-1.173v-4.773c0-.6-.156-1.067-.467-1.402s-.74-.507-1.283-.507c-.375 0-.71.08-1.004.244s-.522.4-.69.71-.254.69-.254 1.133zm10.337-3.042v.994h-3.957v-.994h3.957zm-2.804-1.83h1.174v7.278c0 .332.048.58.144.746s.225.272.378.328a1.51 1.51 0 0 0 .492.08c.13 0 .235-.007.318-.02l.2-.04.24 1.054c-.08.03-.19.06-.334.1a2.46 2.46 0 0 1-.541.049 2.37 2.37 0 0 1-.975-.213 1.93 1.93 0 0 1-.785-.652c-.206-.29-.31-.66-.31-1.103v-7.597zm4.57 9.466v-7.636h1.174V146h-1.174zm.597-8.91c-.23 0-.426-.078-.592-.234a.75.75 0 0 1-.243-.562.75.75 0 0 1 .243-.561c.166-.156.363-.234.592-.234s.424.078.586.234a.74.74 0 0 1 .249.561c0 .22-.083.406-.25.562s-.357.234-.586.234zm6.126 1.273v.994h-4.116v-.994h4.116zM287.482 146v-8.7c0-.438.102-.802.308-1.094s.472-.51.8-.656a2.53 2.53 0 0 1 1.039-.219c.29 0 .524.023.706.07a2.67 2.67 0 0 1 .408.129l-.338 1.014-.25-.075c-.102-.03-.238-.044-.407-.044-.388 0-.668.097-.84.293s-.253.482-.253.86V146h-1.173zm4.527 0v-7.636h1.174V146h-1.174zm.597-8.91c-.23 0-.426-.078-.592-.234a.75.75 0 0 1-.243-.562.75.75 0 0 1 .243-.561c.166-.156.363-.234.592-.234s.424.078.587.234.248.343.248.56-.083.406-.248.562-.358.234-.587.234zm5.927 9.068c-.735 0-1.37-.162-1.904-.487s-.94-.786-1.228-1.372-.427-1.276-.427-2.06.142-1.47.427-2.068.7-1.067 1.203-1.402 1.12-.507 1.8-.507c.398 0 .79.066 1.178.2s.74.348 1.06.646.572.686.76 1.174.283 1.087.283 1.8v.498h-5.886v-1.015h4.693c0-.43-.086-.815-.258-1.153s-.41-.605-.726-.8-.68-.294-1.104-.294c-.467 0-.872.116-1.213.348a2.3 2.3 0 0 0-.781.895 2.63 2.63 0 0 0-.273 1.183v.676c0 .577.1 1.066.298 1.467s.483.7.84.9.773.308 1.247.308c.31 0 .587-.043.836-.13s.47-.222.65-.398.323-.4.422-.666l1.134.318a2.5 2.5 0 0 1-.602 1.014c-.28.29-.63.514-1.044.676s-.88.24-1.397.24zm7.83 0c-.637 0-1.2-.16-1.686-.482s-.868-.782-1.143-1.372-.413-1.295-.413-2.103c0-.802.138-1.498.413-2.088s.658-1.046 1.148-1.368 1.058-.482 1.7-.482c.497 0 .89.083 1.178.25s.514.348.666.557l.363.507h.1v-3.76h1.174V146h-1.134v-1.173h-.14c-.086.14-.21.315-.368.527s-.386.396-.68.56-.688.244-1.178.244zm.16-1.054c.47 0 .868-.123 1.193-.368s.572-.59.74-1.03.253-.95.253-1.526c0-.57-.083-1.07-.248-1.497s-.41-.765-.736-1.004-.726-.363-1.203-.363c-.497 0-.912.128-1.243.383s-.575.595-.74 1.03-.244.915-.244 1.452c0 .543.083 1.037.25 1.48s.418.792.746 1.054.742.388 1.233.388z"/><path d="M353.054 146v-.895l3.36-3.68.974-1.123c.255-.322.444-.624.567-.905a2.19 2.19 0 0 0 .189-.895c0-.358-.086-.668-.26-.93a1.67 1.67 0 0 0-.696-.606c-.295-.143-.626-.214-.994-.214-.39 0-.732.08-1.024.243a1.68 1.68 0 0 0-.671.672c-.156.288-.234.626-.234 1.014h-1.173c0-.597.137-1.12.412-1.57s.65-.802 1.124-1.054 1.013-.378 1.606-.378 1.125.126 1.586.378.822.59 1.084 1.02.392.903.392 1.427c0 .374-.068.74-.204 1.1s-.364.75-.696 1.188-.783.964-1.367 1.59l-2.287 2.446v.08h4.733V146h-6.423zm8.02-2.088v-1.014l4.475-7.08h.735v1.57h-.497l-3.38 5.35v.08h6.025v1.094h-7.358zm4.793 2.088v-10.182h1.173V146h-1.173zm8.048-10.66l-3.282 12.2h-1.074l3.282-12.2h1.074zm1.132 8.57v-1.014l4.474-7.08h.736v1.57h-.497l-3.38 5.35v.08h6.026v1.094h-7.358zm4.792 2.088v-10.182h1.174V146h-1.174zm7.75.14c-.75 0-1.387-.204-1.914-.61s-.93-1.006-1.208-1.785-.418-1.727-.418-2.834c0-1.1.14-2.04.418-2.82s.686-1.38 1.213-1.8 1.166-.62 1.91-.62 1.377.207 1.904.62.935 1.008 1.213 1.8.423 1.72.423 2.82c0 1.107-.14 2.052-.418 2.834s-.68 1.374-1.208 1.785-1.165.61-1.914.61zm0-1.094c.742 0 1.32-.358 1.73-1.073s.616-1.737.616-3.063c0-.882-.094-1.632-.283-2.252s-.454-1.092-.805-1.417-.768-.487-1.258-.487c-.736 0-1.31.363-1.725 1.09s-.622 1.745-.622 3.067c0 .882.093 1.63.28 2.247s.452 1.086.8 1.407.774.482 1.268.482zm12.27 1.114c-.637 0-1.198-.16-1.686-.482s-.868-.782-1.143-1.372-.413-1.295-.413-2.103c0-.802.138-1.498.413-2.088s.658-1.046 1.148-1.368 1.058-.482 1.7-.482c.497 0 .9.083 1.178.25s.514.348.666.557l.363.507h.1v-3.76h1.174V146h-1.134v-1.173h-.14c-.086.14-.21.315-.368.527s-.386.396-.68.56-.688.244-1.178.244zm.16-1.054c.47 0 .868-.123 1.193-.368s.572-.59.74-1.03.253-.95.253-1.526c0-.57-.082-1.07-.248-1.497s-.41-.765-.736-1.004-.726-.363-1.203-.363c-.497 0-.912.128-1.243.383s-.575.595-.74 1.03-.243.915-.243 1.452c0 .543.082 1.037.248 1.48s.418.792.746 1.054.742.388 1.233.388zm8.755 1.054c-.7 0-1.294-.164-1.815-.492s-.92-.787-1.213-1.377-.432-1.28-.432-2.068c0-.796.144-1.5.432-2.084s.696-1.053 1.213-1.382 1.125-.492 1.815-.492 1.292.164 1.81.492a3.3 3.3 0 0 1 1.214 1.382c.29.594.437 1.288.437 2.084 0 .788-.146 1.478-.437 2.068s-.693 1.05-1.214 1.377-1.12.492-1.81.492zm0-1.054c.524 0 .954-.134 1.292-.403s.59-.62.75-1.06.244-.91.244-1.42a4.08 4.08 0 0 0-.244-1.427c-.162-.44-.412-.797-.75-1.07s-.768-.408-1.292-.408-.955.136-1.293.408a2.4 2.4 0 0 0-.75 1.069 4.08 4.08 0 0 0-.244 1.427c0 .5.08.984.244 1.42s.412.79.75 1.06.77.403 1.293.403zm5.25.895v-7.636h1.134v1.193h.1a1.92 1.92 0 0 1 .771-.95c.354-.228.78-.343 1.277-.343.504 0 .923.115 1.258.343s.602.542.79.95h.08c.196-.395.49-.708.88-.94s.86-.353 1.407-.353c.683 0 1.24.214 1.676.642s.65 1.085.65 1.983V146h-1.173v-5.11c0-.563-.155-.966-.463-1.208a1.71 1.71 0 0 0-1.089-.363c-.537 0-.953.163-1.247.487s-.443.73-.443 1.223V146h-1.193v-5.23c0-.434-.14-.784-.423-1.05s-.644-.403-1.09-.403c-.304 0-.59.08-.855.244a1.84 1.84 0 0 0-.636.676c-.16.285-.24.615-.24.99V146h-1.173zm14.415.18c-.484 0-.923-.09-1.317-.273s-.708-.453-.94-.8-.348-.775-.348-1.273c0-.437.086-.792.26-1.064a1.82 1.82 0 0 1 .691-.646c.288-.156.606-.272.954-.348l1.06-.19 1.13-.134c.29-.033.504-.088.636-.164s.204-.21.204-.398v-.04c0-.5-.134-.87-.403-1.143s-.668-.408-1.208-.408c-.56 0-1 .123-1.317.368s-.542.507-.672.786l-1.113-.398c.2-.464.464-.825.795-1.084a2.99 2.99 0 0 1 1.094-.547c.398-.106.79-.16 1.173-.16.246 0 .527.03.846.1s.63.174.93.353.552.45.75.8.298.845.298 1.452V146h-1.173v-1.034h-.06c-.08.166-.212.343-.397.532s-.433.35-.74.482-.685.2-1.13.2zm.18-1.054c.464 0 .855-.09 1.173-.273s.564-.418.726-.706a1.8 1.8 0 0 0 .249-.91v-1.074c-.05.06-.16.114-.328.164s-.358.088-.577.124l-.63.1-.492.06a4.56 4.56 0 0 0-.856.194 1.47 1.47 0 0 0-.636.393c-.16.172-.24.408-.24.706 0 .408.15.716.453.925s.69.308 1.158.308zm5.463.875v-7.636h1.173V146h-1.173zm.596-8.91a.83.83 0 0 1-.591-.234.75.75 0 0 1-.244-.562c0-.218.08-.406.244-.56a.83.83 0 0 1 .591-.234c.23 0 .425.078.587.234a.74.74 0 0 1 .249.561c0 .22-.083.406-.25.562s-.358.234-.587.234zm3.9 4.315V146h-1.173v-7.636h1.134v1.193h.1a2.18 2.18 0 0 1 .815-.935c.365-.238.836-.358 1.412-.358.517 0 .97.106 1.357.318a2.14 2.14 0 0 1 .905.955c.216.424.323.96.323 1.61V146h-1.173v-4.773c0-.6-.156-1.067-.467-1.402s-.74-.507-1.283-.507c-.374 0-.71.08-1.004.244s-.522.4-.69.71-.254.69-.254 1.133zM451 140.074l-1.054.298c-.067-.176-.165-.346-.294-.512a1.43 1.43 0 0 0-.517-.418c-.22-.11-.5-.164-.84-.164-.467 0-.857.108-1.168.324s-.463.482-.463.8c0 .292.106.522.318.69s.544.3.995.423l1.133.278c.683.166 1.192.42 1.527.76s.502.774.502 1.307c0 .438-.126.83-.378 1.173s-.597.617-1.044.816-.968.298-1.56.298c-.78 0-1.424-.17-1.934-.507s-.834-.832-.97-1.482l1.114-.278c.106.41.307.72.602.925s.687.308 1.168.308c.547 0 .98-.116 1.302-.348s.488-.517.488-.845c0-.265-.093-.487-.28-.666s-.47-.32-.855-.408l-1.273-.298c-.7-.166-1.213-.423-1.54-.77s-.487-.8-.487-1.317a1.89 1.89 0 0 1 .363-1.144 2.47 2.47 0 0 1 .999-.78c.424-.19.905-.284 1.442-.284.756 0 1.35.166 1.78.497s.742.77.925 1.313zm8.1 6.105c-.484 0-.924-.09-1.318-.273a2.27 2.27 0 0 1-.94-.801c-.232-.35-.348-.775-.348-1.273 0-.437.087-.792.26-1.064s.403-.5.69-.646.607-.272.955-.348l1.06-.19 1.128-.134c.292-.033.504-.088.636-.164s.204-.21.204-.398v-.04c0-.5-.134-.87-.402-1.143s-.668-.408-1.21-.408c-.56 0-1 .123-1.317.368s-.542.507-.67.786l-1.114-.398c.2-.464.464-.825.796-1.084s.7-.444 1.093-.547.79-.16 1.174-.16c.245 0 .527.03.845.1s.63.174.93.353.55.45.75.8.3.845.3 1.452V146h-1.174v-1.034h-.06c-.08.166-.213.343-.398.532s-.433.35-.74.482-.684.2-1.128.2zm.18-1.054c.464 0 .855-.09 1.173-.273s.563-.418.726-.706a1.81 1.81 0 0 0 .248-.91v-1.074c-.05.06-.16.114-.328.164s-.358.088-.577.124l-.63.1-.492.06a4.53 4.53 0 0 0-.855.194c-.262.086-.474.217-.637.393s-.238.408-.238.706c0 .408.15.716.452.925s.69.308 1.16.308zm8.783-6.76v.994h-3.957v-.994h3.957zm-2.804-1.83h1.173v7.278c0 .332.048.58.145.746a.74.74 0 0 0 .377.328 1.52 1.52 0 0 0 .493.08c.13 0 .235-.007.318-.02l.2-.04.238 1.054c-.08.03-.2.06-.333.1s-.323.05-.542.05c-.33 0-.656-.07-.974-.213a1.94 1.94 0 0 1-.786-.652c-.205-.29-.308-.66-.308-1.103v-7.597zm8.507 9.466v-7.636h1.133v1.153h.08c.14-.378.39-.684.755-.92a2.23 2.23 0 0 1 1.233-.353l.323.005.294.015v1.193c-.04-.01-.13-.024-.274-.044s-.286-.035-.442-.035a2.08 2.08 0 0 0-.995.234 1.76 1.76 0 0 0-.686.636 1.72 1.72 0 0 0-.248.92V146h-1.173zm5.208 0v-7.636h1.174V146h-1.174zm.597-8.91c-.23 0-.426-.078-.592-.234a.75.75 0 0 1-.243-.562.75.75 0 0 1 .243-.561c.166-.156.363-.234.592-.234s.424.078.587.234.248.343.248.56-.083.406-.248.562-.358.234-.587.234zm8.135 2.983l-1.054.298c-.066-.176-.164-.346-.293-.512s-.3-.308-.518-.418-.498-.164-.84-.164c-.467 0-.856.108-1.168.324s-.462.482-.462.8c0 .292.106.522.318.69s.543.3.994.423l1.134.278c.682.166 1.19.42 1.526.76s.502.774.502 1.307c0 .438-.126.83-.378 1.173s-.596.617-1.044.816-.968.298-1.56.298c-.78 0-1.423-.17-1.934-.507s-.833-.832-.97-1.482l1.113-.278c.106.41.307.72.602.925s.688.308 1.168.308c.547 0 .98-.116 1.303-.348s.487-.517.487-.845a.89.89 0 0 0-.278-.666c-.186-.183-.47-.32-.856-.408l-1.272-.298c-.7-.166-1.213-.423-1.54-.77s-.488-.8-.488-1.317a1.89 1.89 0 0 1 .363-1.144 2.48 2.48 0 0 1 1-.78c.424-.19.904-.284 1.44-.284.756 0 1.35.166 1.78.497a2.68 2.68 0 0 1 .925 1.313zm3 3.142l-.02-1.452h.24l3.34-3.4h1.45l-3.56 3.6h-.1l-1.352 1.253zM489.6 146v-10.182h1.174V146H489.6zm4.852 0l-2.982-3.778.835-.816 3.64 4.594h-1.492z"/></g><g fill="#5d6598"><path d="M537.96 145v-8.727h3.11c.676 0 1.237.116 1.683.35s.784.556 1.006.967.332.883.332 1.42-.112 1.004-.337 1.4a2.27 2.27 0 0 1-1.005.942c-.446.224-1.008.336-1.684.336h-2.356v-1.133h2.237c.426 0 .773-.06 1.04-.183a1.21 1.21 0 0 0 .592-.533c.125-.233.188-.513.188-.84s-.064-.616-.192-.857-.323-.426-.592-.554-.618-.196-1.053-.196h-1.653V145h-1.317zm4.308-3.938l2.156 3.938h-1.5l-2.113-3.938h1.457zm7.063 4.07c-.645 0-1.2-.138-1.666-.413s-.82-.67-1.074-1.172-.375-1.098-.375-1.777c0-.67.125-1.26.375-1.773s.605-.9 1.057-1.197.985-.43 1.593-.43c.37 0 .728.06 1.074.184s.658.313.934.575.492.6.652 1.018.238.92.238 1.513v.452h-5.203v-.955h3.955c0-.335-.07-.632-.205-.9s-.328-.468-.575-.618-.532-.226-.86-.226c-.358 0-.67.088-.938.264s-.468.4-.613.682-.213.58-.213.908v.745c0 .438.076.8.23 1.117s.373.54.652.703.604.24.976.24a2.03 2.03 0 0 0 .66-.103 1.43 1.43 0 0 0 .516-.315c.145-.14.256-.31.332-.516l1.206.218c-.096.355-.27.666-.52.933s-.558.47-.933.618a3.49 3.49 0 0 1-1.274.217zm5.222-.132v-6.545h1.223v1.065h.08c.136-.36.36-.642.67-.844s.68-.307 1.112-.307c.438 0 .804.103 1.1.307s.518.486.66.844h.068c.156-.35.405-.628.746-.835s.747-.316 1.22-.316c.593 0 1.078.186 1.453.56s.567.933.567 1.683V145h-1.275v-4.27c0-.443-.12-.764-.362-.963s-.53-.298-.865-.298c-.415 0-.737.128-.967.383s-.345.578-.345.976V145h-1.27v-4.35c0-.355-.11-.64-.333-.856s-.5-.324-.865-.324a1.24 1.24 0 0 0-.669.192c-.2.125-.365.3-.5.524s-.183.484-.183.78V145h-1.274zm14.426.132c-.645 0-1.2-.138-1.666-.413s-.82-.67-1.074-1.172-.375-1.098-.375-1.777c0-.67.125-1.26.375-1.773s.605-.9 1.057-1.197.986-.43 1.594-.43a3.19 3.19 0 0 1 1.074.184c.346.122.657.313.933.575s.493.6.652 1.018.24.92.24 1.513v.452h-5.204v-.955h3.955a1.87 1.87 0 0 0-.205-.89c-.136-.262-.328-.468-.575-.618s-.53-.226-.86-.226c-.358 0-.67.088-.937.264s-.47.4-.614.682-.213.58-.213.908v.745c0 .438.077.8.23 1.117a1.67 1.67 0 0 0 .652.703c.28.16.604.24.976.24.242 0 .462-.035.66-.103s.37-.176.515-.315a1.37 1.37 0 0 0 .333-.516l1.206.218a2.19 2.19 0 0 1-.52.933c-.247.264-.56.47-.934.618s-.796.217-1.274.217zm7.673-.004c-.53 0-1-.135-1.415-.405s-.736-.66-.972-1.163-.35-1.113-.35-1.82.118-1.312.353-1.815.566-.888.98-1.155.885-.4 1.4-.4c.406 0 .733.07.98.205a1.75 1.75 0 0 1 .58.469 3.97 3.97 0 0 1 .324.473h.076v-3.243h1.274V145h-1.244v-1.018h-.106a3.41 3.41 0 0 1-.333.477c-.142.18-.338.335-.588.47s-.574.2-.97.2zm.28-1.087c.366 0 .676-.096.93-.3s.45-.467.58-.813.2-.75.2-1.21c0-.454-.066-.852-.196-1.193s-.323-.606-.576-.797-.565-.285-.937-.285c-.384 0-.703.1-.96.298s-.45.47-.58.814-.19.73-.19 1.163c0 .438.065.83.196 1.18s.324.626.58.83.577.302.955.302zm5.78.96v-6.545h1.274V145h-1.274zm.643-7.555a.81.81 0 0 1-.571-.222c-.156-.15-.234-.33-.234-.537s.078-.39.234-.537.35-.226.57-.226a.79.79 0 0 1 .567.226c.16.148.24.327.24.537s-.08.386-.24.537-.345.222-.567.222zm5.25 7.7c-.415 0-.8-.077-1.125-.23a1.89 1.89 0 0 1-.797-.678c-.193-.295-.3-.657-.3-1.086 0-.37.07-.674.214-.912s.333-.428.575-.567.51-.244.81-.315.603-.125.912-.162l.955-.11c.244-.03.422-.08.533-.15s.166-.18.166-.333v-.03c0-.372-.105-.66-.316-.865s-.517-.306-.93-.306c-.428 0-.767.095-1.014.285s-.413.396-.507.626l-1.197-.272c.142-.398.35-.72.622-.963s.592-.426.95-.537a3.7 3.7 0 0 1 1.129-.171 4.01 4.01 0 0 1 .831.094c.296.06.57.17.827.332a1.84 1.84 0 0 1 .635.695c.165.298.247.686.247 1.163V145h-1.244v-.895h-.05c-.083.165-.206.327-.37.486s-.376.29-.635.396-.568.158-.93.158zm.277-1.023c.352 0 .654-.07.904-.21a1.47 1.47 0 0 0 .575-.545 1.42 1.42 0 0 0 .2-.729v-.844c-.045.046-.133.09-.264.128s-.274.07-.44.098l-.482.073-.392.05c-.247.03-.473.084-.677.158s-.364.18-.486.32-.18.318-.18.546c0 .315.117.554.35.716s.53.238.89.238zm8.706-5.667v1.022h-3.576v-1.022h3.576zm-2.617-1.57h1.274v6.192c0 .247.037.433.11.558s.17.206.286.252.248.064.387.064a1.42 1.42 0 0 0 .269-.022l.18-.034.23 1.053a2.16 2.16 0 0 1-.315.085c-.137.03-.307.048-.512.05-.335.006-.647-.054-.937-.18a1.61 1.61 0 0 1-.703-.579c-.18-.262-.27-.6-.27-.985v-6.456zm7.777 8.246c-.645 0-1.2-.138-1.666-.413s-.82-.67-1.074-1.172-.375-1.098-.375-1.777c0-.67.125-1.26.375-1.773s.605-.9 1.057-1.197.985-.43 1.593-.43c.37 0 .728.06 1.074.184a2.58 2.58 0 0 1 .933.575c.276.26.493.6.652 1.018s.24.92.24 1.513v.452h-5.203v-.955h3.955c0-.335-.07-.632-.205-.9s-.328-.468-.575-.618-.532-.226-.86-.226c-.358 0-.67.088-.938.264s-.468.4-.613.682-.213.58-.213.908v.745c0 .438.076.8.23 1.117s.373.54.652.703.603.24.976.24a2.03 2.03 0 0 0 .66-.103 1.43 1.43 0 0 0 .516-.315c.145-.14.255-.31.332-.516l1.206.218c-.096.355-.27.666-.52.933s-.558.47-.933.618a3.49 3.49 0 0 1-1.274.217z"/><use xlink:href="#B"/></g><path d="M40 176.5h592m-592-72h592" stroke="#f9f9fb"/><path d="M81.575 139.13h-1.55c-.06-.33-.17-.623-.333-.875a2.45 2.45 0 0 0-.597-.641c-.235-.176-.5-.308-.8-.398s-.595-.134-.92-.134c-.587 0-1.112.147-1.576.442s-.825.728-1.094 1.298-.398 1.266-.398 2.088c0 .83.132 1.528.398 2.098s.635 1 1.1 1.293.986.437 1.566.437c.322 0 .626-.043.915-.13a2.63 2.63 0 0 0 .791-.393 2.41 2.41 0 0 0 .597-.631c.166-.252.28-.54.343-.865l1.55.005c-.083.5-.244.96-.482 1.382a3.82 3.82 0 0 1-.91 1.084c-.368.3-.79.535-1.263.7s-.99.248-1.55.248c-.882 0-1.667-.21-2.356-.626s-1.233-1.023-1.63-1.805-.592-1.715-.592-2.8.2-2.02.597-2.8.94-1.382 1.63-1.8 1.473-.63 2.352-.63c.54 0 1.044.078 1.51.234s.893.377 1.268.676.684.656.93 1.084.41.91.497 1.456zm1.72 6.87v-7.636h1.437v1.213h.08a1.85 1.85 0 0 1 .736-.97 2.11 2.11 0 0 1 1.203-.358l.328.01.303.025v1.422c-.06-.017-.166-.035-.318-.055s-.305-.035-.457-.035c-.35 0-.665.075-.94.224a1.66 1.66 0 0 0-.646.612 1.65 1.65 0 0 0-.239.885V146h-1.486zm5.373 0v-7.636h1.487V146h-1.487zm.75-8.815c-.26 0-.48-.086-.666-.258a.84.84 0 0 1-.273-.627.83.83 0 0 1 .273-.626c.186-.176.408-.263.666-.263s.48.087.66.263a.82.82 0 0 1 .278.626c0 .242-.093.45-.278.627a.93.93 0 0 1-.661.258zm6.3 1.18v1.193h-4.17v-1.193h4.17zm-3.052-1.83h1.486v7.224c0 .288.043.505.13.65a.67.67 0 0 0 .333.293 1.33 1.33 0 0 0 .452.075c.12 0 .224-.008.313-.025l.21-.04.268 1.228a2.49 2.49 0 0 1-.368.1c-.16.036-.358.056-.597.06-.39.007-.756-.063-1.094-.208a1.88 1.88 0 0 1-.82-.677c-.21-.304-.313-.687-.313-1.148v-7.532zM97.363 146v-7.636h1.487V146h-1.487zm.75-8.815c-.258 0-.48-.086-.666-.258a.84.84 0 0 1-.273-.627.83.83 0 0 1 .273-.626c.186-.176.408-.263.666-.263s.48.087.66.263a.82.82 0 0 1 .278.626c0 .242-.093.45-.278.627a.93.93 0 0 1-.661.258zm5.953 8.97c-.74 0-1.376-.167-1.9-.502s-.938-.804-1.223-1.397-.427-1.273-.427-2.038c0-.776.146-1.46.437-2.054a3.36 3.36 0 0 1 1.233-1.397c.53-.334 1.155-.502 1.875-.502.58 0 1.097.108 1.55.323a2.78 2.78 0 0 1 1.098.895c.282.385.45.834.503 1.348h-1.447c-.08-.358-.262-.667-.547-.925s-.66-.388-1.134-.388c-.414 0-.777.11-1.088.328s-.55.524-.72.925-.26.868-.26 1.412c0 .557.085 1.037.254 1.442s.408.717.716.94.678.333 1.098.333c.282 0 .537-.05.766-.154a1.57 1.57 0 0 0 .582-.452c.16-.196.27-.43.333-.706h1.447c-.053.494-.214.934-.483 1.322s-.628.693-1.078.915-.973.333-1.576.333zm6.95.015c-.484 0-.922-.09-1.313-.268s-.7-.446-.93-.79-.338-.767-.338-1.268c0-.43.083-.785.25-1.064a1.84 1.84 0 0 1 .671-.661 3.53 3.53 0 0 1 .945-.368c.348-.083.702-.146 1.064-.19l1.113-.13c.285-.036.492-.094.622-.174s.194-.21.194-.388v-.034c0-.435-.123-.77-.368-1s-.604-.358-1.084-.358c-.5 0-.895.11-1.183.333s-.483.463-.592.73l-1.397-.318c.166-.464.408-.838.726-1.124s.69-.497 1.108-.626a4.32 4.32 0 0 1 1.318-.199c.305 0 .628.037.97.1a2.82 2.82 0 0 1 .965.387c.302.19.548.46.74.81s.288.8.288 1.357V146h-1.452v-1.044h-.06a2.13 2.13 0 0 1-.433.567c-.192.185-.44.34-.74.462s-.663.184-1.083.184zm.323-1.193c.41 0 .762-.08 1.054-.244s.518-.374.67-.636a1.65 1.65 0 0 0 .234-.85v-.985c-.054.053-.156.103-.31.15a4.79 4.79 0 0 1-.512.114l-.562.084-.457.06a3.66 3.66 0 0 0-.79.184c-.236.086-.425.2-.567.373s-.21.37-.21.636c0 .368.136.647.408.835s.618.28 1.04.28zm6.91-9.158V146h-1.486v-10.182h1.486z" fill="#131520"/><circle cx="52" cy="141" r="12" fill="#e02424"/><g fill="#fff"><use xlink:href="#C"/><use xlink:href="#C" x="3.975"/><use xlink:href="#C" x="7.95"/><use xlink:href="#C" x="11.925"/></g><g fill="#131520"><path d="M206.315 218.14c-.682 0-1.286-.12-1.81-.363a2.95 2.95 0 0 1-1.218-1.009c-.292-.43-.436-.92-.433-1.472-.003-.43.08-.828.254-1.193a2.58 2.58 0 0 1 .706-.919c.3-.25.638-.406 1.01-.473v-.06c-.487-.126-.875-.4-1.163-.82a2.48 2.48 0 0 1-.428-1.446c-.003-.518.128-.98.393-1.388s.63-.73 1.093-.964 1-.353 1.596-.353c.6 0 1.117.118 1.58.353s.83.557 1.094.964.404.87.408 1.388c-.004.54-.15 1.022-.443 1.446s-.67.695-1.148.82v.06a2.1 2.1 0 0 1 .994.473c.295.245.53.55.706.92a2.77 2.77 0 0 1 .269 1.193c-.004.55-.153 1.04-.448 1.472s-.698.764-1.218 1.01-1.115.363-1.795.363zm0-1.094c.46 0 .86-.074 1.194-.223s.593-.36.775-.632.275-.6.278-.954c-.003-.385-.102-.724-.298-1.02a2.02 2.02 0 0 0-.8-.696c-.335-.17-.718-.254-1.15-.254s-.822.085-1.163.254a2.02 2.02 0 0 0-.8.696 1.79 1.79 0 0 0-.284 1.019c-.003.364.085.683.264.954s.442.483.78.632.74.223 1.203.223zm0-4.832c.365 0 .688-.073.97-.22a1.66 1.66 0 0 0 .671-.611c.162-.262.245-.57.25-.92-.004-.345-.085-.645-.244-.9s-.38-.457-.66-.596-.6-.214-.985-.214c-.38 0-.714.07-1 .214s-.505.338-.66.596-.232.555-.23.9a1.71 1.71 0 0 0 .234.92 1.66 1.66 0 0 0 .671.611c.285.146.613.22.984.22zm9.323 5.787v-7.636h1.134v1.153h.08c.14-.378.39-.684.756-.92a2.23 2.23 0 0 1 1.233-.353l.323.005.293.015v1.193c-.04-.01-.13-.024-.273-.044s-.287-.035-.442-.035c-.372 0-.703.078-.995.234a1.76 1.76 0 0 0-.686.636 1.71 1.71 0 0 0-.248.92V218h-1.174zm5.21 0v-7.636h1.174V218h-1.174zm.597-8.91c-.23 0-.426-.078-.592-.234a.75.75 0 0 1-.243-.562.75.75 0 0 1 .243-.561c.166-.156.363-.234.592-.234s.424.078.587.234.248.343.248.56-.083.406-.248.562-.358.234-.587.234zm8.135 2.983l-1.054.298a1.96 1.96 0 0 0-.294-.512 1.43 1.43 0 0 0-.517-.418c-.218-.11-.5-.164-.84-.164-.467 0-.857.108-1.168.324s-.463.482-.463.8c0 .292.106.522.32.69s.543.3.994.423l1.133.278c.683.166 1.192.42 1.527.76s.502.774.502 1.307c0 .438-.126.83-.378 1.173s-.597.617-1.044.816-.968.298-1.56.298c-.78 0-1.424-.17-1.934-.507s-.834-.832-.97-1.482l1.114-.278c.106.41.307.72.602.925s.687.308 1.168.308c.547 0 .98-.116 1.303-.348s.487-.517.487-.845c0-.265-.093-.487-.28-.666s-.47-.32-.855-.408l-1.272-.298c-.7-.166-1.214-.423-1.542-.77s-.487-.8-.487-1.317a1.89 1.89 0 0 1 .363-1.144 2.47 2.47 0 0 1 .999-.78c.425-.19.905-.284 1.442-.284.756 0 1.35.166 1.78.497s.742.77.925 1.313zm3 3.142l-.02-1.452h.24l3.34-3.4h1.452l-3.56 3.6h-.1l-1.352 1.253zM231.484 218v-10.182h1.173V218h-1.173zm4.852 0l-2.983-3.778.836-.816 3.64 4.594h-1.492zm8.172-5.926l-1.054.298c-.066-.176-.164-.346-.293-.512a1.43 1.43 0 0 0-.517-.418c-.22-.11-.5-.164-.84-.164-.468 0-.857.108-1.17.324s-.462.482-.462.8c0 .292.106.522.318.69s.544.3.995.423l1.133.278c.683.166 1.192.42 1.526.76s.503.774.503 1.307c0 .438-.126.83-.378 1.173s-.597.617-1.044.816-.968.298-1.56.298c-.78 0-1.424-.17-1.934-.507s-.834-.832-.97-1.482l1.114-.278c.106.41.306.72.6.925s.688.308 1.17.308c.547 0 .98-.116 1.302-.348s.487-.517.487-.845c0-.265-.092-.487-.278-.666s-.47-.32-.855-.408l-1.273-.298c-.7-.166-1.213-.423-1.54-.77s-.487-.8-.487-1.317a1.89 1.89 0 0 1 .363-1.144 2.47 2.47 0 0 1 .999-.78c.424-.19.905-.284 1.442-.284.755 0 1.35.166 1.78.497a2.68 2.68 0 0 1 .924 1.313zM250.35 218v-7.636h1.174V218h-1.174zm.597-8.91c-.23 0-.426-.078-.592-.234a.75.75 0 0 1-.243-.562.75.75 0 0 1 .243-.561c.166-.156.363-.234.592-.234s.424.078.586.234a.74.74 0 0 1 .249.561c0 .22-.083.406-.25.562s-.358.234-.586.234zm5.61 9.068c-.636 0-1.198-.16-1.685-.482s-.87-.782-1.144-1.372-.412-1.295-.412-2.103c0-.802.137-1.498.412-2.088s.658-1.046 1.15-1.368 1.057-.482 1.7-.482c.497 0 .9.083 1.178.25s.514.348.666.557l.363.507h.1v-3.76h1.173V218h-1.134v-1.173h-.14c-.086.14-.21.315-.368.527s-.386.396-.68.56-.687.244-1.178.244zm.16-1.054c.47 0 .868-.123 1.193-.368s.572-.59.74-1.03.254-.95.254-1.526c0-.57-.083-1.07-.25-1.497s-.41-.765-.736-1.004-.726-.363-1.203-.363c-.497 0-.91.128-1.243.383s-.575.595-.74 1.03-.243.915-.243 1.452c0 .543.083 1.037.248 1.48s.418.792.746 1.054.743.388 1.233.388zm8.854 1.054c-.735 0-1.37-.162-1.904-.487s-.94-.786-1.228-1.372-.427-1.276-.427-2.06.142-1.47.427-2.068.7-1.067 1.204-1.402 1.12-.507 1.81-.507c.398 0 .79.066 1.178.2s.74.348 1.06.646.572.686.76 1.174.283 1.087.283 1.8v.498h-5.886v-1.015h4.693c0-.43-.086-.815-.258-1.153s-.41-.605-.726-.8-.68-.294-1.104-.294c-.467 0-.872.116-1.213.348a2.29 2.29 0 0 0-.78.895 2.62 2.62 0 0 0-.274 1.183v.676c0 .577.1 1.066.298 1.467s.483.7.84.9.774.308 1.247.308c.31 0 .587-.043.836-.13s.47-.222.65-.398a1.82 1.82 0 0 0 .423-.666l1.133.318a2.51 2.51 0 0 1-.601 1.014c-.282.29-.63.514-1.044.676s-.88.24-1.398.24zm6.12-4.753V218h-1.174v-7.636h1.134v1.193h.1c.18-.388.45-.7.816-.935s.835-.358 1.41-.358c.517 0 .97.106 1.358.318a2.15 2.15 0 0 1 .905.955c.215.424.323.96.323 1.61V218h-1.174v-4.773c0-.6-.155-1.067-.467-1.402s-.74-.507-1.283-.507c-.374 0-.71.08-1.004.244s-.522.4-.69.71-.253.69-.253 1.133zm10.337-3.042v.994h-3.958v-.994h3.958zm-2.804-1.83h1.173v7.278c0 .332.048.58.144.746s.226.272.378.328a1.52 1.52 0 0 0 .492.08c.13 0 .236-.007.318-.02l.2-.04.24 1.054c-.08.03-.19.06-.333.1a2.47 2.47 0 0 1-.542.049c-.332 0-.656-.07-.975-.213s-.576-.36-.785-.652-.308-.66-.308-1.103v-7.597zm4.57 9.466v-7.636h1.173V218h-1.173zm.596-8.91a.83.83 0 0 1-.591-.234.75.75 0 0 1-.244-.562c0-.218.08-.406.244-.56a.83.83 0 0 1 .591-.234c.23 0 .424.078.587.234a.74.74 0 0 1 .248.561.74.74 0 0 1-.248.562c-.163.156-.358.234-.587.234zm6.126 1.273v.994H286.4v-.994h4.116zM287.632 218v-8.7c0-.438.103-.802.308-1.094a1.9 1.9 0 0 1 .801-.656c.328-.146.674-.22 1.04-.22.288 0 .523.023.706.07a2.65 2.65 0 0 1 .407.129l-.338 1.014-.248-.075a1.55 1.55 0 0 0-.408-.044c-.388 0-.668.097-.84.293s-.254.482-.254.86V218h-1.173zm4.528 0v-7.636h1.173V218h-1.173zm.596-8.91a.83.83 0 0 1-.591-.234.75.75 0 0 1-.244-.562c0-.218.08-.406.244-.56a.83.83 0 0 1 .591-.234c.23 0 .425.078.587.234a.74.74 0 0 1 .249.561c0 .22-.083.406-.25.562s-.358.234-.587.234zm5.928 9.068c-.736 0-1.37-.162-1.904-.487s-.94-.786-1.228-1.372-.428-1.276-.428-2.06.143-1.47.428-2.068.69-1.067 1.203-1.402 1.12-.507 1.81-.507c.398 0 .79.066 1.18.2s.74.348 1.06.646.57.686.76 1.174.284 1.087.284 1.8v.498h-5.887v-1.015h4.694c0-.43-.087-.815-.26-1.153s-.41-.605-.726-.8-.68-.294-1.104-.294c-.467 0-.87.116-1.213.348a2.29 2.29 0 0 0-.78.895 2.63 2.63 0 0 0-.274 1.183v.676c0 .577.1 1.066.3 1.467a2.15 2.15 0 0 0 .84.91c.358.205.774.308 1.248.308.308 0 .586-.043.835-.13s.47-.222.65-.398.323-.4.423-.666l1.133.318c-.12.385-.32.723-.6 1.014s-.63.514-1.044.676-.88.24-1.397.24zm7.83 0c-.636 0-1.198-.16-1.685-.482s-.87-.782-1.144-1.372-.412-1.295-.412-2.103c0-.802.137-1.498.412-2.088s.658-1.046 1.15-1.368 1.057-.482 1.7-.482c.497 0 .9.083 1.178.25s.514.348.666.557l.363.507h.1v-3.76h1.173V218h-1.133v-1.173h-.14c-.086.14-.21.315-.368.527s-.386.396-.68.56-.687.244-1.178.244zm.16-1.054c.47 0 .868-.123 1.193-.368s.572-.59.74-1.03.254-.95.254-1.526c0-.57-.083-1.07-.25-1.497s-.41-.765-.736-1.004-.726-.363-1.203-.363c-.497 0-.91.128-1.243.383s-.575.595-.74 1.03-.243.915-.243 1.452c0 .543.083 1.037.248 1.48s.418.792.746 1.054.743.388 1.233.388z"/><path d="M356.494 218.14c-.656 0-1.24-.112-1.755-.338s-.916-.538-1.218-.94-.46-.874-.487-1.407h1.253c.026.328.14.61.338.85s.46.417.78.547a2.84 2.84 0 0 0 1.068.193c.438 0 .826-.076 1.164-.228s.603-.365.795-.637.29-.586.29-.944a1.77 1.77 0 0 0-.279-.99c-.185-.288-.457-.513-.815-.676s-.796-.243-1.313-.243h-.815v-1.094h.815c.405 0 .76-.073 1.064-.22s.55-.35.72-.616.264-.577.264-.935c0-.345-.077-.645-.23-.9s-.368-.454-.646-.596-.6-.214-.975-.214c-.35 0-.683.064-.994.194s-.56.3-.756.552-.3.527-.318.865h-1.193a2.42 2.42 0 0 1 .482-1.402 3.03 3.03 0 0 1 1.183-.945 3.83 3.83 0 0 1 1.616-.338c.63 0 1.17.128 1.62.383s.797.585 1.04 1 .363.862.363 1.342c0 .574-.15 1.063-.453 1.467s-.704.684-1.218.84v.08c.643.106 1.145.38 1.507.82s.542.98.542 1.626c0 .553-.15 1.05-.453 1.49s-.706.782-1.223 1.034-1.105.378-1.765.378zm5.474-.14v-.895l3.36-3.68.974-1.123c.255-.322.444-.624.567-.905a2.19 2.19 0 0 0 .189-.895c0-.358-.086-.668-.26-.93a1.67 1.67 0 0 0-.696-.606c-.295-.143-.626-.214-.994-.214-.39 0-.732.08-1.024.243a1.68 1.68 0 0 0-.671.672c-.156.288-.234.626-.234 1.014h-1.173c0-.597.137-1.12.412-1.57s.65-.802 1.124-1.054 1.013-.378 1.606-.378 1.125.126 1.586.378.822.59 1.084 1.02.392.903.392 1.427c0 .374-.068.74-.203 1.1s-.365.75-.697 1.188-.783.964-1.367 1.59l-2.287 2.446v.08h4.733V218h-6.423zm12.096-10.66l-3.28 12.2h-1.074l3.28-12.2h1.074zm1.132 8.57v-1.014l4.475-7.08h.735v1.57h-.497l-3.38 5.35v.08h6.025v1.094h-7.358zM379.99 218v-10.182h1.173V218h-1.173zm7.75.14c-.75 0-1.387-.204-1.914-.61s-.93-1.006-1.208-1.785-.417-1.727-.417-2.834c0-1.1.14-2.04.417-2.82s.686-1.38 1.213-1.8 1.167-.62 1.91-.62 1.377.207 1.904.62.935 1.008 1.213 1.8.423 1.72.423 2.82c0 1.107-.14 2.052-.418 2.834s-.68 1.374-1.208 1.785-1.165.61-1.914.61zm0-1.094c.743 0 1.32-.358 1.73-1.073s.617-1.737.617-3.063c0-.882-.095-1.632-.284-2.252s-.454-1.092-.805-1.417-.767-.487-1.258-.487c-.736 0-1.31.363-1.725 1.09s-.62 1.745-.62 3.067c0 .882.092 1.63.278 2.247s.453 1.086.8 1.407.773.482 1.267.482zm12.27 1.114c-.636 0-1.198-.16-1.685-.482s-.87-.782-1.144-1.372-.412-1.295-.412-2.103c0-.802.137-1.498.412-2.088s.658-1.046 1.15-1.368 1.057-.482 1.7-.482c.497 0 .9.083 1.178.25s.514.348.667.557l.362.507h.1v-3.76h1.173V218h-1.133v-1.173h-.14c-.086.14-.208.315-.367.527s-.387.396-.682.56-.687.244-1.178.244zm.16-1.054c.47 0 .87-.123 1.193-.368s.572-.59.74-1.03.254-.95.254-1.526c0-.57-.083-1.07-.25-1.497s-.41-.765-.736-1.004-.725-.363-1.203-.363c-.497 0-.91.128-1.243.383s-.575.595-.74 1.03a4.08 4.08 0 0 0-.244 1.452c0 .543.083 1.037.25 1.48s.417.792.745 1.054.743.388 1.233.388zm8.755 1.054c-.69 0-1.294-.164-1.814-.492s-.922-.787-1.213-1.377-.433-1.28-.433-2.068c0-.796.144-1.5.433-2.084s.696-1.053 1.213-1.382 1.125-.492 1.814-.492 1.293.164 1.8.492.925.79 1.213 1.382.437 1.288.437 2.084c0 .788-.145 1.478-.437 2.068s-.693 1.05-1.213 1.377-1.12.492-1.8.492zm0-1.054c.524 0 .955-.134 1.293-.403s.588-.62.75-1.06.243-.91.243-1.42-.08-.986-.243-1.427a2.41 2.41 0 0 0-.751-1.069c-.338-.272-.77-.408-1.293-.408s-.954.136-1.292.408-.59.628-.75 1.07-.244.916-.244 1.427.082.984.244 1.42.413.79.75 1.06.77.403 1.292.403zm5.25.895v-7.636h1.134v1.193h.1c.16-.408.416-.724.77-.95s.78-.343 1.278-.343c.504 0 .923.115 1.258.343s.6.542.8.95h.08c.195-.395.488-.708.88-.94s.86-.353 1.406-.353c.683 0 1.242.214 1.676.642s.65 1.085.65 1.983V218h-1.173v-5.11c0-.563-.154-.966-.462-1.208s-.672-.363-1.09-.363c-.537 0-.953.163-1.248.487s-.443.73-.443 1.223V218h-1.193v-5.23c0-.434-.14-.784-.422-1.05s-.645-.403-1.09-.403c-.305 0-.6.08-.855.244s-.474.388-.637.676-.238.615-.238.99V218h-1.174zm14.416.18c-.484 0-.923-.09-1.318-.273s-.707-.453-.94-.8-.348-.775-.348-1.273c0-.437.087-.792.26-1.064s.403-.5.69-.646.607-.272.955-.348l1.06-.19 1.128-.134c.292-.033.504-.088.636-.164s.204-.21.204-.398v-.04c0-.5-.134-.87-.402-1.143s-.668-.408-1.208-.408c-.56 0-1 .123-1.318.368s-.542.507-.67.786l-1.114-.398c.2-.464.464-.825.796-1.084s.7-.444 1.093-.547.79-.16 1.174-.16c.245 0 .527.03.845.1s.63.174.93.353.55.45.75.8.3.845.3 1.452V218h-1.174v-1.034h-.06c-.08.166-.212.343-.398.532s-.433.35-.74.482-.684.2-1.128.2zm.18-1.054c.464 0 .855-.09 1.173-.273s.563-.418.726-.706a1.81 1.81 0 0 0 .248-.91v-1.074c-.05.06-.16.114-.328.164s-.358.088-.577.124l-.63.1-.492.06a4.53 4.53 0 0 0-.855.194c-.262.086-.474.217-.637.393s-.238.408-.238.706c0 .408.15.716.452.925s.69.308 1.16.308zm5.462.875v-7.636h1.173V218h-1.173zm.597-8.91c-.23 0-.426-.078-.592-.234s-.244-.343-.244-.562a.75.75 0 0 1 .244-.561c.166-.156.363-.234.592-.234s.424.078.586.234a.74.74 0 0 1 .249.561c0 .22-.083.406-.25.562s-.358.234-.586.234zm3.9 4.315V218h-1.174v-7.636h1.134v1.193h.1c.18-.388.45-.7.816-.935s.835-.358 1.412-.358c.517 0 .97.106 1.357.318s.69.527.905.955.323.96.323 1.61V218h-1.173v-4.773c0-.6-.156-1.067-.468-1.402s-.74-.507-1.282-.507c-.375 0-.7.08-1.005.244a1.74 1.74 0 0 0-.691.711c-.17.31-.253.69-.253 1.133zm12.425-1.332l-1.054.298c-.066-.176-.164-.346-.293-.512s-.3-.308-.517-.418-.5-.164-.84-.164c-.467 0-.856.108-1.168.324s-.462.482-.462.8c0 .292.106.522.318.69s.543.3.994.423l1.134.278c.682.166 1.19.42 1.526.76s.502.774.502 1.307c0 .438-.126.83-.378 1.173s-.596.617-1.044.816-.968.298-1.56.298c-.78 0-1.423-.17-1.934-.507s-.833-.832-.97-1.482l1.113-.278c.106.41.307.72.602.925s.688.308 1.168.308c.547 0 .98-.116 1.303-.348s.487-.517.487-.845a.89.89 0 0 0-.278-.666c-.186-.183-.47-.32-.855-.408l-1.273-.298c-.7-.166-1.213-.423-1.54-.77s-.488-.8-.488-1.317a1.89 1.89 0 0 1 .363-1.144 2.48 2.48 0 0 1 1-.78c.424-.19.904-.284 1.44-.284.756 0 1.35.166 1.78.497a2.68 2.68 0 0 1 .925 1.313zm8.1 6.105c-.484 0-.923-.09-1.318-.273s-.707-.453-.94-.8-.348-.775-.348-1.273c0-.437.086-.792.258-1.064s.403-.5.69-.646.607-.272.955-.348l1.06-.19 1.128-.134c.292-.033.504-.088.637-.164s.204-.21.204-.398v-.04c0-.5-.135-.87-.403-1.143s-.668-.408-1.208-.408c-.56 0-1 .123-1.318.368s-.542.507-.67.786l-1.113-.398c.198-.464.464-.825.795-1.084a2.98 2.98 0 0 1 1.094-.547c.398-.106.79-.16 1.173-.16.245 0 .527.03.845.1s.632.174.93.353.552.45.75.8.298.845.298 1.452V218h-1.173v-1.034h-.06c-.08.166-.212.343-.398.532a2.27 2.27 0 0 1-.741.482c-.308.133-.684.2-1.128.2zm.18-1.054c.464 0 .855-.09 1.173-.273s.564-.418.726-.706a1.8 1.8 0 0 0 .249-.91v-1.074c-.05.06-.16.114-.328.164s-.358.088-.577.124l-.632.1-.492.06a4.53 4.53 0 0 0-.855.194c-.262.086-.474.217-.636.393s-.24.408-.24.706c0 .408.15.716.453.925s.69.308 1.158.308zm8.783-6.76v.994h-3.957v-.994h3.957zm-2.803-1.83h1.173v7.278c0 .332.048.58.144.746s.225.272.378.328a1.52 1.52 0 0 0 .492.08c.13 0 .235-.007.318-.02l.2-.04.24 1.054c-.08.03-.19.06-.333.1s-.324.05-.542.05a2.37 2.37 0 0 1-.975-.213c-.315-.143-.576-.36-.785-.652s-.308-.66-.308-1.103v-7.597zm8.506 9.466v-7.636h1.133v1.153h.08c.14-.378.39-.684.756-.92s.775-.353 1.233-.353l.323.005.293.015v1.193c-.04-.01-.13-.024-.273-.044s-.287-.035-.443-.035c-.37 0-.702.078-.994.234a1.75 1.75 0 0 0-.686.636c-.166.268-.25.575-.25.92V218h-1.173zm5.21 0v-7.636h1.173V218h-1.173zm.596-8.91c-.228 0-.425-.078-.59-.234a.75.75 0 0 1-.244-.562c0-.218.08-.406.244-.56s.363-.234.59-.234.425.078.587.234a.74.74 0 0 1 .249.561c0 .22-.083.406-.25.562s-.358.234-.587.234zm8.135 2.983l-1.054.298c-.066-.176-.164-.346-.293-.512a1.43 1.43 0 0 0-.517-.418c-.22-.11-.5-.164-.84-.164-.468 0-.857.108-1.17.324s-.462.482-.462.8c0 .292.106.522.318.69s.544.3.995.423l1.133.278c.683.166 1.192.42 1.526.76s.502.774.502 1.307a1.94 1.94 0 0 1-.377 1.173c-.25.345-.597.617-1.044.816s-.968.298-1.562.298c-.778 0-1.423-.17-1.933-.507s-.834-.832-.97-1.482l1.114-.278c.106.41.306.72.6.925s.688.308 1.17.308c.546 0 .98-.116 1.302-.348s.487-.517.487-.845c0-.265-.092-.487-.278-.666s-.47-.32-.855-.408l-1.273-.298c-.7-.166-1.213-.423-1.54-.77s-.487-.8-.487-1.317a1.89 1.89 0 0 1 .363-1.144 2.47 2.47 0 0 1 .999-.78c.424-.19.905-.284 1.442-.284.755 0 1.35.166 1.78.497a2.68 2.68 0 0 1 .924 1.313zm3 3.142l-.02-1.452h.24l3.34-3.4h1.452l-3.56 3.6h-.1l-1.353 1.253zM489.752 218v-10.182h1.173V218h-1.173zm4.852 0l-2.983-3.778.835-.816 3.64 4.594h-1.49z"/></g><g fill="#5d6598"><path d="M537.96 217v-8.727h3.11c.676 0 1.237.116 1.683.35s.784.556 1.006.967.332.883.332 1.42-.112 1.004-.337 1.4a2.27 2.27 0 0 1-1.005.942c-.446.224-1.008.336-1.684.336h-2.356v-1.133h2.237c.426 0 .773-.06 1.04-.183a1.21 1.21 0 0 0 .592-.533c.125-.233.188-.513.188-.84s-.064-.616-.192-.857-.323-.426-.592-.554-.618-.196-1.053-.196h-1.653V217h-1.317zm4.308-3.938l2.156 3.938h-1.5l-2.113-3.938h1.457zm7.063 4.07c-.645 0-1.2-.138-1.666-.413s-.82-.67-1.074-1.172-.375-1.098-.375-1.777c0-.67.125-1.26.375-1.773s.605-.9 1.057-1.197.985-.43 1.593-.43c.37 0 .728.06 1.074.184s.658.313.934.575.492.6.652 1.018.238.92.238 1.513v.452h-5.203v-.955h3.955c0-.335-.07-.632-.205-.9s-.328-.468-.575-.618-.532-.226-.86-.226c-.358 0-.67.088-.938.264s-.468.4-.613.682-.213.58-.213.908v.745c0 .438.076.8.23 1.117s.373.54.652.703.604.24.976.24a2.03 2.03 0 0 0 .66-.103 1.43 1.43 0 0 0 .516-.315c.145-.14.256-.31.332-.516l1.206.218c-.096.355-.27.666-.52.933s-.558.47-.933.618a3.49 3.49 0 0 1-1.274.217zm5.222-.132v-6.545h1.223v1.065h.08c.136-.36.36-.642.67-.844s.68-.307 1.112-.307c.438 0 .804.103 1.1.307s.518.486.66.844h.068c.156-.35.405-.628.746-.835s.747-.316 1.22-.316c.593 0 1.078.186 1.453.56s.567.933.567 1.683V217h-1.275v-4.27c0-.443-.12-.764-.362-.963s-.53-.298-.865-.298c-.415 0-.737.128-.967.383s-.345.578-.345.976V217h-1.27v-4.35c0-.355-.11-.64-.333-.856s-.5-.324-.865-.324a1.24 1.24 0 0 0-.669.192c-.2.125-.365.3-.5.524s-.183.484-.183.78V217h-1.274zm14.426.132c-.645 0-1.2-.138-1.666-.413s-.82-.67-1.074-1.172-.375-1.098-.375-1.777c0-.67.125-1.26.375-1.773s.605-.9 1.057-1.197.986-.43 1.594-.43a3.19 3.19 0 0 1 1.074.184c.346.122.657.313.933.575s.493.6.652 1.018.24.92.24 1.513v.452h-5.204v-.955h3.955a1.87 1.87 0 0 0-.205-.89c-.136-.262-.328-.468-.575-.618s-.53-.226-.86-.226c-.358 0-.67.088-.937.264s-.47.4-.614.682-.213.58-.213.908v.745c0 .438.077.8.23 1.117a1.67 1.67 0 0 0 .652.703c.28.16.604.24.976.24.242 0 .462-.035.66-.103s.37-.176.515-.315a1.37 1.37 0 0 0 .333-.516l1.206.218a2.19 2.19 0 0 1-.52.933c-.247.264-.56.47-.934.618s-.796.217-1.274.217zm7.673-.004c-.53 0-1-.135-1.415-.405s-.736-.66-.972-1.163-.35-1.113-.35-1.82.118-1.312.353-1.815.566-.888.98-1.155.885-.4 1.4-.4c.406 0 .733.07.98.205a1.75 1.75 0 0 1 .58.469 3.97 3.97 0 0 1 .324.473h.076v-3.243h1.274V217h-1.244v-1.018h-.106a3.41 3.41 0 0 1-.333.477c-.142.18-.338.335-.588.47s-.574.2-.97.2zm.28-1.087c.366 0 .676-.096.93-.3s.45-.467.58-.813.2-.75.2-1.21c0-.454-.066-.852-.196-1.193s-.323-.606-.576-.797-.565-.285-.937-.285c-.384 0-.703.1-.96.298s-.45.47-.58.814-.19.73-.19 1.163c0 .438.065.83.196 1.18s.324.626.58.83.577.302.955.302zm5.78.96v-6.545h1.274V217h-1.274zm.643-7.555a.81.81 0 0 1-.571-.222c-.156-.15-.234-.33-.234-.537s.078-.39.234-.537.35-.226.57-.226a.79.79 0 0 1 .567.226c.16.148.24.327.24.537s-.08.386-.24.537-.345.222-.567.222zm5.25 7.7c-.415 0-.8-.077-1.125-.23a1.89 1.89 0 0 1-.797-.678c-.193-.295-.3-.657-.3-1.086 0-.37.07-.674.214-.912s.333-.428.575-.567.51-.244.81-.315.603-.125.912-.162l.955-.11c.244-.03.422-.08.533-.15s.166-.18.166-.333v-.03c0-.372-.105-.66-.316-.865s-.517-.306-.93-.306c-.428 0-.767.095-1.014.285s-.413.396-.507.626l-1.197-.272c.142-.398.35-.72.622-.963s.592-.426.95-.537a3.7 3.7 0 0 1 1.129-.171 4.01 4.01 0 0 1 .831.094c.296.06.57.17.827.332a1.84 1.84 0 0 1 .635.695c.165.298.247.686.247 1.163V217h-1.244v-.895h-.05c-.083.165-.206.327-.37.486s-.376.29-.635.396-.568.158-.93.158zm.277-1.023c.352 0 .654-.07.904-.21a1.47 1.47 0 0 0 .575-.545 1.42 1.42 0 0 0 .2-.729v-.844c-.045.046-.133.09-.264.128s-.274.07-.44.098l-.482.073-.392.05c-.247.03-.473.084-.677.158s-.364.18-.486.32-.18.318-.18.546c0 .315.117.554.35.716s.53.238.89.238zm8.706-5.667v1.022h-3.576v-1.022h3.576zm-2.617-1.57h1.274v6.192c0 .247.037.433.11.558s.17.206.286.252.248.064.387.064a1.42 1.42 0 0 0 .269-.022l.18-.034.23 1.053a2.16 2.16 0 0 1-.315.085c-.137.03-.307.048-.512.05-.335.006-.647-.054-.937-.18a1.61 1.61 0 0 1-.703-.579c-.18-.262-.27-.6-.27-.985v-6.456zm7.777 8.246c-.645 0-1.2-.138-1.666-.413s-.82-.67-1.074-1.172-.375-1.098-.375-1.777c0-.67.125-1.26.375-1.773s.605-.9 1.057-1.197.985-.43 1.593-.43c.37 0 .728.06 1.074.184a2.58 2.58 0 0 1 .933.575c.276.26.493.6.652 1.018s.24.92.24 1.513v.452h-5.203v-.955h3.955c0-.335-.07-.632-.205-.9s-.328-.468-.575-.618-.532-.226-.86-.226c-.358 0-.67.088-.938.264s-.468.4-.613.682-.213.58-.213.908v.745c0 .438.076.8.23 1.117s.373.54.652.703.603.24.976.24a2.03 2.03 0 0 0 .66-.103 1.43 1.43 0 0 0 .516-.315c.145-.14.255-.31.332-.516l1.206.218c-.096.355-.27.666-.52.933s-.558.47-.933.618a3.49 3.49 0 0 1-1.274.217z"/><use xlink:href="#B" y="72"/></g><path stroke="#f9f9fb" d="M40 248.5h592"/><path d="M73.12 218v-10.182h1.536v4.425h5.076v-4.425h1.54V218h-1.54v-4.44h-5.076V218H73.12zm10.27 0v-7.636h1.487V218H83.4zm.75-8.815c-.26 0-.48-.086-.666-.258a.84.84 0 0 1-.273-.627.83.83 0 0 1 .273-.626c.186-.176.408-.263.666-.263s.48.087.66.263a.82.82 0 0 1 .278.626c0 .242-.093.45-.278.627a.93.93 0 0 1-.661.258zm5.937 11.823c-.606 0-1.13-.08-1.566-.24s-.79-.37-1.064-.63-.48-.54-.616-.845l1.278-.527c.1.14.21.3.358.452s.358.302.616.418.598.174 1.01.174c.563 0 1.03-.136 1.397-.408s.552-.703.552-1.293v-1.5h-.094c-.1.162-.22.343-.388.542s-.394.37-.686.517-.67.22-1.14.22c-.603 0-1.147-.14-1.63-.423s-.862-.704-1.143-1.258-.418-1.24-.418-2.053.138-1.508.413-2.088.66-1.024 1.144-1.332a2.97 2.97 0 0 1 1.646-.468c.474 0 .857.08 1.148.24s.52.338.68.547.293.392.383.552h.11v-1.238h1.457v7.805c0 .65-.153 1.183-.457 1.6s-.718.732-1.238.935-1.1.303-1.75.303zm-.015-4.355c.428 0 .79-.1 1.084-.3s.524-.5.676-.865.234-.83.234-1.357c0-.514-.076-.966-.23-1.357s-.376-.696-.67-.915-.66-.333-1.094-.333c-.447 0-.82.116-1.12.348s-.524.54-.676.935a3.71 3.71 0 0 0-.224 1.322c0 .5.076.94.23 1.318s.378.672.676.885.673.318 1.114.318zm6.94-3.187V218h-1.486v-10.182h1.467v3.79h.094c.18-.41.453-.738.82-.98s.848-.363 1.442-.363c.524 0 .98.108 1.372.323s.7.537.915.965.328.954.328 1.59V218h-1.486v-4.678c0-.56-.145-.995-.433-1.303s-.69-.467-1.203-.467c-.35 0-.666.074-.945.224s-.492.367-.65.656-.234.63-.234 1.034z" fill="#131520"/><circle cx="52" cy="213" r="12" fill="#ff6b01"/><g fill="#fff"><use xlink:href="#C" x="1.988" y="72"/><path d="M52.7 208.824v3.432a10.55 10.55 0 0 1-.054 1.074l-.138 1.1H51.5l-.138-1.1a10.55 10.55 0 0 1-.054-1.074v-3.432H52.7zm-1.626 7.86a.96.96 0 0 1 .066-.354.91.91 0 0 1 .192-.288c.084-.08.182-.144.294-.192s.232-.072.36-.072a.89.89 0 0 1 .354.072.91.91 0 0 1 .288.192.86.86 0 0 1 .198.288.89.89 0 0 1 .072.354c0 .128-.024.248-.072.36s-.114.202-.198.282a.83.83 0 0 1-.288.186.89.89 0 0 1-.354.072c-.128 0-.248-.024-.36-.072s-.2-.106-.294-.186-.144-.174-.192-.282-.066-.232-.066-.36z"/><use xlink:href="#C" x="9.938" y="72"/></g><g fill="#131520"><path d="M206.634 279.818V290H205.4v-8.89h-.06l-2.486 1.65v-1.252l2.546-1.69h1.233zM209.562 290v-.895l3.36-3.68.974-1.123c.255-.322.444-.624.567-.905a2.19 2.19 0 0 0 .189-.895c0-.358-.086-.668-.26-.93a1.67 1.67 0 0 0-.696-.606c-.295-.143-.626-.214-.994-.214-.39 0-.733.08-1.024.243s-.512.383-.67.672-.234.626-.234 1.014h-1.173c0-.597.137-1.12.412-1.57s.65-.802 1.124-1.054 1.012-.378 1.606-.378 1.125.126 1.586.378.822.59 1.083 1.02.393.903.393 1.427c0 .374-.068.74-.204 1.1s-.364.75-.696 1.188-.784.964-1.367 1.59l-2.287 2.446v.08h4.733V290h-6.423zm12.434 0v-7.636h1.133v1.153h.08c.14-.378.39-.684.755-.92a2.23 2.23 0 0 1 1.233-.353l.324.005.293.015v1.193c-.04-.01-.13-.024-.274-.044s-.286-.035-.442-.035c-.37 0-.703.078-.994.234a1.75 1.75 0 0 0-.686.636c-.166.268-.25.575-.25.92V290h-1.173zm5.21 0v-7.636h1.173V290h-1.173zm.596-8.91a.83.83 0 0 1-.591-.234.75.75 0 0 1-.244-.562c0-.218.08-.406.244-.56a.83.83 0 0 1 .591-.234c.23 0 .425.078.587.234a.74.74 0 0 1 .249.561c0 .22-.083.406-.25.562s-.358.234-.587.234zm8.135 2.983l-1.054.298c-.066-.176-.164-.346-.293-.512s-.3-.308-.517-.418-.5-.164-.84-.164c-.468 0-.857.108-1.17.324s-.462.482-.462.8c0 .292.106.522.318.69s.544.3.994.423l1.134.278c.683.166 1.19.42 1.526.76s.502.774.502 1.307c0 .438-.126.83-.378 1.173s-.596.617-1.044.816-.967.298-1.56.298c-.78 0-1.423-.17-1.934-.507s-.833-.832-.97-1.482l1.114-.278c.106.41.306.72.6.925s.688.308 1.168.308c.547 0 .982-.116 1.303-.348s.487-.517.487-.845a.89.89 0 0 0-.278-.666c-.186-.183-.47-.32-.855-.408l-1.273-.298c-.7-.166-1.213-.423-1.54-.77s-.487-.8-.487-1.317c0-.43.12-.812.362-1.144a2.48 2.48 0 0 1 1-.78c.424-.19.905-.284 1.442-.284.755 0 1.348.166 1.78.497s.743.77.925 1.313zm3 3.142l-.02-1.452h.24l3.34-3.4h1.452l-3.56 3.6h-.1l-1.352 1.253zM237.84 290v-10.182h1.174V290h-1.174zm4.853 0l-2.983-3.778.835-.816 3.64 4.594h-1.49zm8.172-5.926l-1.054.298a1.93 1.93 0 0 0-.294-.512 1.42 1.42 0 0 0-.517-.418c-.218-.11-.498-.164-.84-.164-.467 0-.857.108-1.168.324s-.462.482-.462.8c0 .292.106.522.318.69s.543.3.994.423l1.134.278c.682.166 1.19.42 1.526.76s.502.774.502 1.307c0 .438-.126.83-.378 1.173s-.596.617-1.044.816-.968.298-1.56.298c-.78 0-1.424-.17-1.934-.507s-.834-.832-.97-1.482l1.113-.278c.106.41.307.72.602.925s.688.308 1.168.308c.547 0 .98-.116 1.303-.348s.487-.517.487-.845c0-.265-.093-.487-.28-.666s-.47-.32-.855-.408l-1.272-.298c-.7-.166-1.213-.423-1.542-.77-.324-.35-.487-.8-.487-1.317a1.89 1.89 0 0 1 .363-1.144c.245-.33.58-.59 1-.78.425-.19.905-.284 1.442-.284.756 0 1.35.166 1.78.497s.742.77.925 1.313zM256.71 290v-7.636h1.173V290h-1.173zm.596-8.91a.83.83 0 0 1-.591-.234.75.75 0 0 1-.244-.562c0-.218.08-.406.244-.56a.83.83 0 0 1 .591-.234c.23 0 .424.078.587.234a.74.74 0 0 1 .248.561.74.74 0 0 1-.248.562c-.163.156-.358.234-.587.234zm5.61 9.068c-.636 0-1.198-.16-1.685-.482s-.868-.782-1.143-1.372-.413-1.295-.413-2.103c0-.802.137-1.498.413-2.088s.657-1.046 1.148-1.368 1.057-.482 1.7-.482c.497 0 .9.083 1.18.25s.513.348.666.557l.363.507h.1v-3.76h1.173V290h-1.133v-1.173h-.14c-.086.14-.21.315-.368.527s-.386.396-.68.56-.688.244-1.18.244zm.16-1.054c.47 0 .868-.123 1.193-.368s.57-.59.74-1.03.254-.95.254-1.526c0-.57-.083-1.07-.25-1.497s-.41-.765-.735-1.004-.726-.363-1.203-.363c-.498 0-.912.128-1.243.383s-.575.595-.74 1.03a4.08 4.08 0 0 0-.244 1.452c0 .543.083 1.037.25 1.48s.417.792.746 1.054.742.388 1.233.388zm8.854 1.054c-.736 0-1.37-.162-1.904-.487s-.94-.786-1.228-1.372-.428-1.276-.428-2.06.143-1.47.428-2.068.69-1.067 1.203-1.402 1.12-.507 1.8-.507a3.61 3.61 0 0 1 1.178.199c.388.133.74.348 1.06.646s.572.686.76 1.174.284 1.087.284 1.8v.498h-5.887v-1.015h4.694c0-.43-.087-.815-.26-1.153s-.41-.605-.726-.8-.68-.294-1.103-.294c-.468 0-.872.116-1.213.348a2.28 2.28 0 0 0-.781.895 2.63 2.63 0 0 0-.273 1.183v.676c0 .577.1 1.066.298 1.467a2.15 2.15 0 0 0 .84.91c.358.205.774.308 1.248.308a2.54 2.54 0 0 0 .835-.129c.252-.1.47-.222.65-.398s.324-.4.423-.666l1.134.318a2.51 2.51 0 0 1-.602 1.014c-.282.29-.63.514-1.044.676s-.88.24-1.397.24zm6.12-4.753V290h-1.173v-7.636h1.133v1.193h.1c.18-.388.45-.7.815-.935s.835-.358 1.412-.358c.517 0 .97.106 1.357.318a2.14 2.14 0 0 1 .905.955c.215.424.323.96.323 1.61V290h-1.173v-4.773c0-.6-.156-1.067-.468-1.402s-.74-.507-1.282-.507c-.375 0-.71.08-1.004.244s-.522.4-.692.71-.253.69-.253 1.133zm10.337-3.042v.994h-3.957v-.994h3.957zm-2.804-1.83h1.173v7.278c0 .332.048.58.145.746a.74.74 0 0 0 .377.328 1.52 1.52 0 0 0 .493.08c.13 0 .235-.007.318-.02l.2-.04.238 1.054c-.08.03-.2.06-.333.1s-.323.05-.542.05c-.33 0-.656-.07-.974-.213a1.94 1.94 0 0 1-.786-.652c-.205-.29-.308-.66-.308-1.103v-7.597zm4.57 9.466v-7.636h1.173V290h-1.173zm.597-8.91c-.23 0-.426-.078-.592-.234s-.244-.343-.244-.562a.75.75 0 0 1 .244-.561c.166-.156.363-.234.592-.234s.424.078.586.234a.74.74 0 0 1 .249.561c0 .22-.083.406-.25.562s-.358.234-.586.234zm6.126 1.273v.994h-4.117v-.994h4.117zM293.99 290v-8.7c0-.438.103-.802.31-1.094s.472-.51.8-.656.674-.22 1.04-.22a2.91 2.91 0 0 1 .706.07 2.71 2.71 0 0 1 .408.129l-.338 1.014-.25-.075a1.55 1.55 0 0 0-.408-.044c-.387 0-.667.097-.84.293s-.253.482-.253.86V290h-1.174zm4.528 0v-7.636h1.174V290h-1.174zm.597-8.91c-.23 0-.426-.078-.592-.234a.75.75 0 0 1-.243-.562.75.75 0 0 1 .243-.561c.166-.156.363-.234.592-.234s.424.078.586.234a.74.74 0 0 1 .249.561c0 .22-.083.406-.25.562s-.357.234-.586.234zm5.927 9.068c-.736 0-1.37-.162-1.904-.487s-.94-.786-1.228-1.372-.427-1.276-.427-2.06.142-1.47.427-2.068.69-1.067 1.203-1.402 1.12-.507 1.8-.507c.398 0 .8.066 1.178.2s.74.348 1.06.646.572.686.76 1.174.283 1.087.283 1.8v.498h-5.886v-1.015H307c0-.43-.086-.815-.26-1.153s-.41-.605-.725-.8-.68-.294-1.104-.294c-.467 0-.872.116-1.213.348a2.3 2.3 0 0 0-.781.895 2.63 2.63 0 0 0-.273 1.183v.676c0 .577.1 1.066.298 1.467a2.15 2.15 0 0 0 .84.91c.358.205.774.308 1.248.308a2.54 2.54 0 0 0 .835-.129 1.8 1.8 0 0 0 .652-.398c.182-.18.323-.4.422-.666l1.134.318a2.51 2.51 0 0 1-.602 1.014c-.28.29-.63.514-1.044.676s-.88.24-1.397.24zm7.83 0c-.636 0-1.198-.16-1.685-.482s-.868-.782-1.143-1.372-.413-1.295-.413-2.103c0-.802.138-1.498.413-2.088s.658-1.046 1.148-1.368 1.057-.482 1.7-.482c.497 0 .9.083 1.18.25s.513.348.666.557l.363.507h.1v-3.76h1.173V290h-1.133v-1.173h-.14c-.086.14-.21.315-.368.527s-.386.396-.68.56-.688.244-1.18.244zm.16-1.054c.47 0 .868-.123 1.193-.368s.57-.59.74-1.03.254-.95.254-1.526c0-.57-.083-1.07-.25-1.497s-.41-.765-.735-1.004-.726-.363-1.203-.363c-.498 0-.912.128-1.243.383s-.575.595-.74 1.03a4.08 4.08 0 0 0-.244 1.452c0 .543.083 1.037.25 1.48s.417.792.746 1.054.742.388 1.233.388z"/><path d="M353.054 290v-.895l3.36-3.68.974-1.123c.255-.322.444-.624.567-.905a2.19 2.19 0 0 0 .189-.895c0-.358-.086-.668-.26-.93a1.67 1.67 0 0 0-.696-.606c-.295-.143-.626-.214-.994-.214-.39 0-.732.08-1.024.243a1.68 1.68 0 0 0-.671.672c-.156.288-.234.626-.234 1.014h-1.173c0-.597.137-1.12.412-1.57s.65-.802 1.124-1.054 1.013-.378 1.606-.378 1.125.126 1.586.378.822.59 1.084 1.02.392.903.392 1.427c0 .374-.068.74-.204 1.1s-.364.75-.696 1.188-.783.964-1.367 1.59l-2.287 2.446v.08h4.733V290h-6.423zm11.798.14c-.75 0-1.388-.204-1.914-.61s-.93-1.006-1.21-1.785-.417-1.727-.417-2.834c0-1.1.14-2.04.417-2.82s.686-1.38 1.213-1.8 1.167-.62 1.9-.62 1.377.207 1.904.62.934 1.008 1.213 1.8.422 1.72.422 2.82c0 1.107-.14 2.052-.417 2.834s-.68 1.374-1.208 1.785-1.165.61-1.914.61zm0-1.094c.742 0 1.32-.358 1.73-1.073s.616-1.737.616-3.063c0-.882-.094-1.632-.283-2.252s-.454-1.092-.806-1.417-.767-.487-1.257-.487c-.736 0-1.31.363-1.726 1.09s-.62 1.745-.62 3.067c0 .882.093 1.63.278 2.247s.453 1.086.8 1.407.774.482 1.268.482zm9.048-9.704l-3.28 12.2h-1.074l3.28-12.2h1.074zm1.132 8.57v-1.014l4.475-7.08h.735v1.57h-.497l-3.38 5.35v.08h6.025v1.094h-7.358zm4.793 2.088v-10.182h1.173V290h-1.173zm7.75.14c-.75 0-1.387-.204-1.914-.61s-.93-1.006-1.208-1.785-.418-1.727-.418-2.834c0-1.1.14-2.04.418-2.82s.686-1.38 1.213-1.8 1.167-.62 1.91-.62 1.377.207 1.904.62.935 1.008 1.213 1.8.423 1.72.423 2.82c0 1.107-.14 2.052-.418 2.834s-.68 1.374-1.208 1.785-1.165.61-1.914.61zm0-1.094c.743 0 1.32-.358 1.73-1.073s.617-1.737.617-3.063c0-.882-.095-1.632-.284-2.252s-.454-1.092-.805-1.417-.767-.487-1.258-.487c-.736 0-1.31.363-1.725 1.09s-.62 1.745-.62 3.067c0 .882.092 1.63.278 2.247s.452 1.086.8 1.407a1.81 1.81 0 0 0 1.268.482zm12.27 1.114c-.636 0-1.198-.16-1.685-.482s-.87-.782-1.144-1.372-.412-1.295-.412-2.103c0-.802.137-1.498.412-2.088s.658-1.046 1.15-1.368 1.057-.482 1.7-.482c.497 0 .9.083 1.178.25s.514.348.666.557l.363.507h.1v-3.76h1.173V290h-1.133v-1.173h-.14c-.086.14-.208.315-.368.527s-.386.396-.68.56-.687.244-1.178.244zm.16-1.054c.47 0 .87-.123 1.193-.368s.572-.59.74-1.03.254-.95.254-1.526c0-.57-.083-1.07-.25-1.497s-.41-.765-.736-1.004-.726-.363-1.203-.363c-.497 0-.91.128-1.243.383s-.575.595-.74 1.03a4.08 4.08 0 0 0-.244 1.452c0 .543.083 1.037.25 1.48s.417.792.745 1.054.743.388 1.233.388zm8.755 1.054c-.69 0-1.294-.164-1.814-.492a3.34 3.34 0 0 1-1.214-1.377c-.288-.6-.432-1.28-.432-2.068 0-.796.144-1.5.432-2.084s.696-1.053 1.214-1.382 1.125-.492 1.814-.492 1.293.164 1.8.492.925.79 1.213 1.382.437 1.288.437 2.084c0 .788-.145 1.478-.437 2.068s-.693 1.05-1.213 1.377-1.12.492-1.8.492zm0-1.054c.524 0 .955-.134 1.293-.403s.588-.62.75-1.06.244-.91.244-1.42a4.08 4.08 0 0 0-.244-1.427 2.4 2.4 0 0 0-.75-1.069c-.338-.272-.77-.408-1.293-.408s-.954.136-1.292.408-.59.628-.75 1.07a4.08 4.08 0 0 0-.244 1.427c0 .5.08.984.244 1.42s.412.79.75 1.06.768.403 1.292.403zm5.25.895v-7.636h1.134v1.193h.1a1.92 1.92 0 0 1 .771-.95c.355-.228.78-.343 1.278-.343.503 0 .923.115 1.257.343a2.24 2.24 0 0 1 .791.95h.08c.195-.395.488-.708.88-.94s.86-.353 1.407-.353c.683 0 1.242.214 1.676.642s.65 1.085.65 1.983V290h-1.173v-5.11c0-.563-.154-.966-.463-1.208a1.71 1.71 0 0 0-1.088-.363c-.537 0-.953.163-1.248.487s-.443.73-.443 1.223V290h-1.193v-5.23c0-.434-.14-.784-.422-1.05s-.645-.403-1.09-.403c-.305 0-.6.08-.855.244s-.474.388-.637.676-.238.615-.238.99V290h-1.174zm14.416.18c-.484 0-.924-.09-1.318-.273a2.27 2.27 0 0 1-.94-.801c-.232-.35-.348-.775-.348-1.273 0-.437.087-.792.26-1.064s.403-.5.69-.646.607-.272.955-.348l1.058-.19 1.13-.134c.292-.033.504-.088.636-.164s.204-.21.204-.398v-.04c0-.5-.134-.87-.402-1.143s-.668-.408-1.21-.408c-.56 0-1 .123-1.317.368s-.542.507-.67.786l-1.114-.398c.2-.464.464-.825.796-1.084s.7-.444 1.093-.547.79-.16 1.174-.16c.245 0 .527.03.845.1s.63.174.93.353.55.45.75.8.3.845.3 1.452V290h-1.174v-1.034h-.06c-.08.166-.213.343-.398.532s-.433.35-.74.482-.684.2-1.128.2zm.18-1.054c.464 0 .855-.09 1.173-.273s.563-.418.726-.706a1.81 1.81 0 0 0 .248-.91v-1.074c-.05.06-.16.114-.328.164s-.358.088-.577.124l-.63.1-.492.06a4.53 4.53 0 0 0-.855.194c-.262.086-.474.217-.637.393s-.238.408-.238.706c0 .408.15.716.452.925s.69.308 1.16.308zm5.462.875v-7.636h1.173V290h-1.173zm.597-8.91c-.23 0-.426-.078-.592-.234s-.244-.343-.244-.562a.75.75 0 0 1 .244-.561c.166-.156.363-.234.592-.234s.424.078.586.234a.74.74 0 0 1 .249.561c0 .22-.083.406-.25.562s-.358.234-.586.234zm3.9 4.315V290h-1.174v-7.636h1.134v1.193h.1c.18-.388.45-.7.816-.935s.835-.358 1.412-.358c.517 0 .97.106 1.357.318s.69.527.905.955.323.96.323 1.61V290h-1.174v-4.773c0-.6-.155-1.067-.467-1.402s-.74-.507-1.283-.507c-.374 0-.71.08-1.004.244a1.74 1.74 0 0 0-.691.711c-.17.31-.253.69-.253 1.133zm12.425-1.332l-1.054.298c-.066-.176-.164-.346-.293-.512s-.3-.308-.517-.418-.5-.164-.84-.164c-.467 0-.856.108-1.168.324s-.462.482-.462.8c0 .292.106.522.318.69s.543.3.994.423l1.134.278c.682.166 1.19.42 1.526.76s.502.774.502 1.307c0 .438-.126.83-.378 1.173s-.596.617-1.044.816-.968.298-1.56.298c-.78 0-1.423-.17-1.934-.507s-.833-.832-.97-1.482l1.113-.278c.106.41.307.72.602.925s.688.308 1.168.308c.547 0 .98-.116 1.303-.348s.487-.517.487-.845a.89.89 0 0 0-.278-.666c-.186-.183-.47-.32-.856-.408l-1.272-.298c-.7-.166-1.213-.423-1.54-.77s-.488-.8-.488-1.317a1.89 1.89 0 0 1 .363-1.144 2.48 2.48 0 0 1 1-.78c.424-.19.904-.284 1.44-.284.756 0 1.35.166 1.78.497a2.68 2.68 0 0 1 .925 1.313zm8.1 6.105c-.484 0-.923-.09-1.318-.273s-.707-.453-.94-.8-.348-.775-.348-1.273c0-.437.086-.792.258-1.064s.403-.5.69-.646.607-.272.955-.348l1.06-.19 1.128-.134c.292-.033.504-.088.637-.164s.204-.21.204-.398v-.04c0-.5-.135-.87-.403-1.143s-.668-.408-1.208-.408c-.56 0-1 .123-1.318.368s-.542.507-.67.786l-1.113-.398c.198-.464.464-.825.795-1.084a2.98 2.98 0 0 1 1.094-.547 4.54 4.54 0 0 1 1.173-.159c.245 0 .527.03.845.1s.632.174.93.353.552.45.75.8.298.845.298 1.452V290h-1.173v-1.034h-.06c-.08.166-.212.343-.398.532a2.27 2.27 0 0 1-.741.482c-.308.133-.684.2-1.128.2zm.18-1.054c.464 0 .855-.09 1.173-.273s.564-.418.726-.706a1.8 1.8 0 0 0 .249-.91v-1.074c-.05.06-.16.114-.33.164s-.357.088-.576.124l-.632.1-.492.06a4.53 4.53 0 0 0-.855.194c-.262.086-.474.217-.636.393s-.24.408-.24.706c0 .408.15.716.452.925s.692.308 1.16.308zm8.783-6.76v.994h-3.957v-.994h3.957zm-2.804-1.83h1.174v7.278c0 .332.048.58.144.746s.225.272.378.328a1.52 1.52 0 0 0 .492.08c.13 0 .235-.007.318-.02l.2-.04.24 1.054c-.08.03-.19.06-.333.1s-.324.05-.542.05a2.37 2.37 0 0 1-.975-.213 1.93 1.93 0 0 1-.785-.652c-.206-.29-.31-.66-.31-1.103v-7.597zm8.507 9.466v-7.636h1.133v1.153h.08c.14-.378.39-.684.756-.92s.775-.353 1.233-.353l.323.005.293.015v1.193c-.04-.01-.13-.024-.273-.044s-.287-.035-.443-.035c-.37 0-.703.078-.994.234a1.75 1.75 0 0 0-.686.636c-.166.268-.25.575-.25.92V290h-1.173zm5.21 0v-7.636h1.173V290h-1.173zm.596-8.91c-.228 0-.425-.078-.59-.234a.75.75 0 0 1-.244-.562c0-.218.08-.406.244-.56s.363-.234.59-.234.425.078.587.234a.74.74 0 0 1 .249.561c0 .22-.083.406-.25.562s-.358.234-.587.234zm8.135 2.983l-1.054.298c-.066-.176-.164-.346-.293-.512a1.43 1.43 0 0 0-.517-.418c-.22-.11-.5-.164-.84-.164-.468 0-.857.108-1.17.324s-.462.482-.462.8c0 .292.106.522.318.69s.544.3.994.423l1.134.278c.683.166 1.19.42 1.526.76s.502.774.502 1.307a1.94 1.94 0 0 1-.377 1.173c-.25.345-.597.617-1.044.816s-.968.298-1.562.298c-.778 0-1.423-.17-1.934-.507s-.833-.832-.97-1.482l1.114-.278c.106.41.306.72.6.925s.688.308 1.17.308c.546 0 .98-.116 1.302-.348s.487-.517.487-.845c0-.265-.092-.487-.278-.666s-.47-.32-.855-.408l-1.273-.298c-.7-.166-1.213-.423-1.54-.77s-.487-.8-.487-1.317a1.89 1.89 0 0 1 .363-1.144 2.47 2.47 0 0 1 .999-.78c.424-.19.905-.284 1.442-.284.755 0 1.35.166 1.78.497s.743.77.925 1.313zm3 3.142l-.02-1.452h.24l3.34-3.4h1.452l-3.56 3.6h-.1l-1.353 1.253zM489.588 290v-10.182h1.173V290h-1.173zm4.852 0l-2.983-3.778.835-.816 3.64 4.594h-1.49z"/></g><g fill="#5d6598"><path d="M537.96 289v-8.727h3.11c.676 0 1.237.116 1.683.35s.784.556 1.006.967.332.883.332 1.42-.112 1.004-.337 1.4a2.27 2.27 0 0 1-1.005.942c-.446.224-1.008.336-1.684.336h-2.356v-1.133h2.237c.426 0 .773-.06 1.04-.183a1.21 1.21 0 0 0 .592-.533c.125-.233.188-.513.188-.84s-.064-.616-.192-.857-.323-.426-.592-.554-.618-.196-1.053-.196h-1.653V289h-1.317zm4.308-3.938l2.156 3.938h-1.5l-2.113-3.938h1.457zm7.063 4.07c-.645 0-1.2-.138-1.666-.413s-.82-.67-1.074-1.172-.375-1.098-.375-1.777c0-.67.125-1.26.375-1.773s.605-.9 1.057-1.197.985-.43 1.593-.43c.37 0 .728.06 1.074.184s.658.313.934.575.492.6.652 1.018.238.92.238 1.513v.452h-5.203v-.955h3.955c0-.335-.07-.632-.205-.9s-.328-.468-.575-.618-.532-.226-.86-.226c-.358 0-.67.088-.938.264s-.468.4-.613.682-.213.58-.213.908v.745c0 .438.076.8.23 1.117s.373.54.652.703.604.24.976.24a2.03 2.03 0 0 0 .66-.103 1.43 1.43 0 0 0 .516-.315c.145-.14.256-.31.332-.516l1.206.218c-.096.355-.27.666-.52.933s-.558.47-.933.618a3.49 3.49 0 0 1-1.274.217zm5.222-.132v-6.545h1.223v1.065h.08c.136-.36.36-.642.67-.844s.68-.307 1.112-.307c.438 0 .804.103 1.1.307s.518.486.66.844h.068c.156-.35.405-.628.746-.835s.747-.316 1.22-.316c.593 0 1.078.186 1.453.56s.567.933.567 1.683V289h-1.275v-4.27c0-.443-.12-.764-.362-.963s-.53-.298-.865-.298c-.415 0-.737.128-.967.383s-.345.578-.345.976V289h-1.27v-4.35c0-.355-.11-.64-.333-.856s-.5-.324-.865-.324a1.24 1.24 0 0 0-.669.192c-.2.125-.365.3-.5.524s-.183.484-.183.78V289h-1.274zm14.426.132c-.645 0-1.2-.138-1.666-.413s-.82-.67-1.074-1.172-.375-1.098-.375-1.777c0-.67.125-1.26.375-1.773s.605-.9 1.057-1.197.986-.43 1.594-.43a3.19 3.19 0 0 1 1.074.184c.346.122.657.313.933.575s.493.6.652 1.018.24.92.24 1.513v.452h-5.204v-.955h3.955a1.87 1.87 0 0 0-.205-.89c-.136-.262-.328-.468-.575-.618s-.53-.226-.86-.226c-.358 0-.67.088-.937.264s-.47.4-.614.682-.213.58-.213.908v.745c0 .438.077.8.23 1.117a1.67 1.67 0 0 0 .652.703c.28.16.604.24.976.24.242 0 .462-.035.66-.103s.37-.176.515-.315a1.37 1.37 0 0 0 .333-.516l1.206.218a2.19 2.19 0 0 1-.52.933c-.247.264-.56.47-.934.618s-.796.217-1.274.217zm7.673-.004c-.53 0-1-.135-1.415-.405s-.736-.66-.972-1.163-.35-1.113-.35-1.82.118-1.312.353-1.815.566-.888.98-1.155.885-.4 1.4-.4c.406 0 .733.07.98.205a1.75 1.75 0 0 1 .58.469 3.97 3.97 0 0 1 .324.473h.076v-3.243h1.274V289h-1.244v-1.018h-.106a3.41 3.41 0 0 1-.333.477c-.142.18-.338.335-.588.47s-.574.2-.97.2zm.28-1.087c.366 0 .676-.096.93-.3s.45-.467.58-.813.2-.75.2-1.21c0-.454-.066-.852-.196-1.193s-.323-.606-.576-.797-.565-.285-.937-.285c-.384 0-.703.1-.96.298s-.45.47-.58.814-.19.73-.19 1.163c0 .438.065.83.196 1.18s.324.626.58.83.577.302.955.302zm5.78.96v-6.545h1.274V289h-1.274zm.643-7.555a.81.81 0 0 1-.571-.222c-.156-.15-.234-.33-.234-.537s.078-.39.234-.537.35-.226.57-.226a.79.79 0 0 1 .567.226c.16.148.24.327.24.537s-.08.386-.24.537-.345.222-.567.222zm5.25 7.7c-.415 0-.8-.077-1.125-.23a1.89 1.89 0 0 1-.797-.678c-.193-.295-.3-.657-.3-1.086 0-.37.07-.674.214-.912s.333-.428.575-.567.51-.244.81-.315.603-.125.912-.162l.955-.11c.244-.03.422-.08.533-.15s.166-.18.166-.333v-.03c0-.372-.105-.66-.316-.865s-.517-.306-.93-.306c-.428 0-.767.095-1.014.285s-.413.396-.507.626l-1.197-.272c.142-.398.35-.72.622-.963s.592-.426.95-.537a3.7 3.7 0 0 1 1.129-.171 4.01 4.01 0 0 1 .831.094c.296.06.57.17.827.332a1.84 1.84 0 0 1 .635.695c.165.298.247.686.247 1.163V289h-1.244v-.895h-.05c-.083.165-.206.327-.37.486s-.376.29-.635.396-.568.158-.93.158zm.277-1.023c.352 0 .654-.07.904-.21a1.47 1.47 0 0 0 .575-.545 1.42 1.42 0 0 0 .2-.729v-.844c-.045.046-.133.09-.264.128s-.274.07-.44.098l-.482.073-.392.05c-.247.03-.473.084-.677.158s-.364.18-.486.32-.18.318-.18.546c0 .315.117.554.35.716s.53.238.89.238zm8.706-5.667v1.022h-3.576v-1.022h3.576zm-2.617-1.57h1.274v6.192c0 .247.037.433.11.558s.17.206.286.252.248.064.387.064a1.42 1.42 0 0 0 .269-.022l.18-.034.23 1.053a2.16 2.16 0 0 1-.315.085c-.137.03-.307.048-.512.05-.335.006-.647-.054-.937-.18a1.61 1.61 0 0 1-.703-.579c-.18-.262-.27-.6-.27-.985v-6.456zm7.777 8.246c-.645 0-1.2-.138-1.666-.413s-.82-.67-1.074-1.172-.375-1.098-.375-1.777c0-.67.125-1.26.375-1.773s.605-.9 1.057-1.197.985-.43 1.593-.43c.37 0 .728.06 1.074.184a2.58 2.58 0 0 1 .933.575c.276.26.493.6.652 1.018s.24.92.24 1.513v.452h-5.203v-.955h3.955c0-.335-.07-.632-.205-.9s-.328-.468-.575-.618-.532-.226-.86-.226c-.358 0-.67.088-.938.264s-.468.4-.613.682-.213.58-.213.908v.745c0 .438.076.8.23 1.117s.373.54.652.703.603.24.976.24a2.03 2.03 0 0 0 .66-.103 1.43 1.43 0 0 0 .516-.315c.145-.14.255-.31.332-.516l1.206.218c-.096.355-.27.666-.52.933s-.558.47-.933.618a3.49 3.49 0 0 1-1.274.217z"/><use xlink:href="#B" y="144"/></g><path stroke="#f9f9fb" d="M40 320.5h592"/><path d="M73.12 279.818h1.864l3.24 7.915h.12l3.24-7.915h1.864V290h-1.462v-7.368h-.094l-3.003 7.353h-1.213l-3.003-7.358h-.094V290H73.12v-10.182zm15.736 10.336c-.752 0-1.4-.16-1.944-.482s-.958-.78-1.253-1.367-.437-1.28-.437-2.073c0-.783.146-1.472.438-2.07s.706-1.062 1.233-1.397 1.15-.502 1.86-.502a3.73 3.73 0 0 1 1.253.214 3.04 3.04 0 0 1 1.089.671c.32.305.575.7.76 1.188s.278 1.073.278 1.765v.527h-6.07v-1.113h4.614c0-.39-.08-.738-.24-1.04a1.8 1.8 0 0 0-.671-.721c-.285-.176-.62-.264-1.004-.264-.418 0-.782.103-1.094.308a2.08 2.08 0 0 0-.716.796c-.166.325-.25.678-.25 1.06v.87c0 .5.1.944.268 1.302s.436.632.76.82.704.278 1.14.278a2.38 2.38 0 0 0 .77-.119 1.67 1.67 0 0 0 .602-.368c.17-.162.298-.363.388-.602l1.407.254c-.113.414-.315.777-.607 1.09a2.95 2.95 0 0 1-1.089.721c-.434.17-.93.253-1.486.253zm7.784-.005c-.617 0-1.167-.157-1.65-.472s-.858-.77-1.134-1.357-.408-1.298-.408-2.123.138-1.532.413-2.118.66-1.036 1.144-1.347a2.97 2.97 0 0 1 1.645-.468c.474 0 .855.08 1.143.24a2.04 2.04 0 0 1 .676.547 4.56 4.56 0 0 1 .378.552h.1v-3.784h1.487V290H98.97v-1.188h-.124c-.1.162-.22.348-.388.557s-.394.39-.686.546-.67.234-1.133.234zm.328-1.268c.428 0 .79-.112 1.084-.338s.524-.545.676-.95.234-.875.234-1.412c0-.53-.076-.995-.23-1.392s-.376-.708-.67-.93-.66-.333-1.094-.333c-.447 0-.82.116-1.12.348s-.524.55-.676.95-.224.853-.224 1.357a3.91 3.91 0 0 0 .229 1.377c.152.408.378.73.676.97s.673.353 1.114.353zm5.577 1.12v-7.636h1.487V290h-1.487zm.75-8.815c-.26 0-.48-.086-.666-.258a.84.84 0 0 1-.274-.627c0-.245.09-.454.274-.626a.93.93 0 0 1 .666-.263c.258 0 .48.087.66.263a.82.82 0 0 1 .279.626c0 .242-.093.45-.28.627a.93.93 0 0 1-.661.258zm7.573 5.648v-4.47h1.49V290h-1.46v-1.322h-.08a2.38 2.38 0 0 1-.845 1.019c-.384.268-.863.402-1.437.402-.5 0-.924-.107-1.302-.323s-.67-.542-.885-.97-.318-.956-.318-1.586v-4.857h1.486v4.678c0 .52.144.935.433 1.243s.662.462 1.123.462a1.81 1.81 0 0 0 .83-.209c.28-.14.51-.35.69-.63s.277-.64.274-1.074zm3.49 3.167v-7.636h1.427v1.243h.094a1.97 1.97 0 0 1 .781-.985c.36-.238.793-.358 1.297-.358.51 0 .938.12 1.283.358s.605.567.77.985h.08c.182-.408.472-.733.87-.975s.872-.368 1.422-.368c.693 0 1.258.217 1.695.65s.66 1.09.66 1.964V290h-1.486v-4.982c0-.517-.14-.89-.423-1.123s-.618-.348-1.01-.348c-.484 0-.86.15-1.128.447s-.403.675-.403 1.14V290h-1.482v-5.076c0-.414-.13-.747-.387-1s-.595-.378-1-.378c-.28 0-.542.074-.78.224a1.63 1.63 0 0 0-.572.611c-.143.262-.214.565-.214.9V290h-1.486z" fill="#131520"/><circle cx="52" cy="285" r="12" fill="#ff9901"/><g fill="#fff"><use xlink:href="#C" x="3.975" y="144"/><use xlink:href="#C" x="7.95" y="144"/><path d="M470 44a4 4 0 0 1 4-4h154a4 4 0 0 1 4 4v24a4 4 0 0 1-4 4H474a4 4 0 0 1-4-4V44z"/></g><path d="M482.96 60v-8.727h3.11c.676 0 1.237.117 1.683.35a2.32 2.32 0 0 1 1.006.967c.22.41.332.882.332 1.42s-.112 1.004-.337 1.4-.557.717-1.005.942-1.008.337-1.684.337h-2.356v-1.134h2.237c.426 0 .773-.06 1.04-.183a1.21 1.21 0 0 0 .592-.533c.125-.233.188-.513.188-.84s-.064-.615-.192-.856-.323-.426-.592-.554-.618-.196-1.053-.196h-1.653V60h-1.317zm4.308-3.937L489.423 60h-1.5l-2.113-3.937h1.457zm7.063 4.07c-.645 0-1.2-.138-1.666-.413s-.82-.67-1.074-1.172-.375-1.098-.375-1.777c0-.67.125-1.26.375-1.773a2.91 2.91 0 0 1 1.057-1.197c.454-.287.985-.43 1.593-.43a3.2 3.2 0 0 1 1.074.183c.347.122.658.314.934.575s.492.6.652 1.018.238.92.238 1.513v.452h-5.203v-.955h3.955c0-.335-.07-.632-.205-.89s-.328-.467-.575-.618-.532-.226-.86-.226c-.358 0-.67.088-.938.264s-.468.4-.613.682a1.97 1.97 0 0 0-.213.908v.746c0 .438.076.8.23 1.117a1.66 1.66 0 0 0 .652.703c.278.16.604.24.976.24.24 0 .46-.034.66-.102a1.43 1.43 0 0 0 .516-.315 1.36 1.36 0 0 0 .332-.516l1.206.217a2.18 2.18 0 0 1-.52.933c-.247.264-.558.47-.933.618s-.797.217-1.274.217zm10.915 2.322h-1.274v-3.473h-.077c-.077.14-.187.298-.332.477s-.338.335-.588.47-.574.2-.972.2c-.528 0-1-.135-1.415-.405s-.735-.66-.97-1.163-.35-1.112-.35-1.82.118-1.312.354-1.815.565-.888.98-1.155a2.55 2.55 0 0 1 1.411-.401c.406 0 .733.068.98.205s.443.3.58.47.247.337.324.473H504v-1.06h1.244v9zm-1.253-5.727c0-.455-.065-.852-.196-1.193s-.322-.607-.575-.797-.565-.285-.938-.285c-.383 0-.703.1-.958.298s-.45.47-.58.814-.192.732-.192 1.163c0 .438.066.83.196 1.18s.324.626.58.83.577.303.954.303c.367 0 .677-.097.93-.3s.45-.467.58-.814.2-.75.2-1.2zm8.112.558v-3.83h1.28V60h-1.253v-1.133h-.068c-.15.35-.392.64-.725.874s-.74.345-1.23.345c-.42 0-.793-.092-1.117-.277a1.94 1.94 0 0 1-.758-.831c-.182-.367-.273-.82-.273-1.36v-4.163h1.274v4c0 .446.124.8.37 1.065s.568.396.963.396c.24 0 .476-.06.712-.18a1.5 1.5 0 0 0 .592-.541c.16-.242.237-.548.234-.92zm6.812 2.847c-.645 0-1.2-.138-1.666-.413s-.82-.67-1.074-1.172-.375-1.098-.375-1.777c0-.67.125-1.26.375-1.773a2.91 2.91 0 0 1 1.057-1.197c.454-.287.985-.43 1.593-.43a3.2 3.2 0 0 1 1.074.183 2.59 2.59 0 0 1 .933.575c.276.26.493.6.652 1.018s.24.92.24 1.513v.452h-5.203v-.955h3.954c0-.335-.068-.632-.204-.89s-.328-.467-.575-.618-.532-.226-.86-.226c-.358 0-.67.088-.938.264s-.468.4-.613.682a1.97 1.97 0 0 0-.213.908v.746c0 .438.076.8.23 1.117a1.66 1.66 0 0 0 .652.703 1.93 1.93 0 0 0 .976.239c.24 0 .46-.034.66-.102a1.43 1.43 0 0 0 .516-.315 1.37 1.37 0 0 0 .332-.516l1.206.217a2.18 2.18 0 0 1-.52.933c-.247.264-.558.47-.933.618s-.797.217-1.274.217zm10.127-5.08l-1.155.205c-.05-.148-.125-.288-.23-.422s-.242-.243-.418-.328-.396-.128-.66-.128c-.36 0-.662.08-.904.243s-.362.365-.362.618a.65.65 0 0 0 .243.528c.162.133.423.243.784.328l1.04.24c.602.14 1.05.354 1.346.644s.443.666.443 1.13c0 .392-.113.74-.34 1.048s-.54.543-.942.716-.865.26-1.394.26c-.733 0-1.33-.156-1.794-.47a1.98 1.98 0 0 1-.852-1.342l1.232-.187c.076.32.234.564.473.73s.55.243.933.243c.417 0 .75-.087 1-.26s.375-.39.375-.643c0-.205-.076-.376-.23-.516s-.382-.244-.694-.315l-1.108-.243c-.61-.14-1.063-.36-1.356-.665s-.434-.69-.434-1.155a1.65 1.65 0 0 1 .324-1.014c.216-.3.514-.516.895-.677a3.26 3.26 0 0 1 1.308-.247c.707 0 1.264.153 1.67.46s.675.712.806 1.223zm5.584-1.598v1.023h-3.576v-1.023h3.576zM532 51.886h1.274v6.192c0 .247.037.433.11.558s.17.206.286.25a1.14 1.14 0 0 0 .388.064 1.49 1.49 0 0 0 .268-.021l.18-.034.23 1.053c-.074.028-.18.057-.315.085s-.307.048-.512.05c-.335.006-.647-.054-.937-.18s-.524-.318-.703-.58-.27-.6-.27-.984v-6.456zM541.212 60v-6.545h1.232v1.04h.068a1.58 1.58 0 0 1 .63-.831c.304-.205.648-.307 1.032-.307l.28.01.26.02v1.22c-.05-.014-.142-.03-.273-.047s-.26-.03-.392-.03c-.3 0-.57.064-.805.192a1.42 1.42 0 0 0-.554.524c-.137.222-.205.474-.205.758V60h-1.274zm8.192.132c-.645 0-1.2-.138-1.666-.413s-.82-.67-1.074-1.172-.375-1.098-.375-1.777c0-.67.125-1.26.375-1.773a2.91 2.91 0 0 1 1.057-1.197c.454-.287.986-.43 1.594-.43a3.2 3.2 0 0 1 1.073.183c.347.122.658.314.934.575s.493.6.652 1.018.238.92.238 1.513v.452h-5.203v-.955h3.955c0-.335-.068-.632-.205-.89s-.328-.467-.575-.618-.53-.226-.86-.226a1.66 1.66 0 0 0-.937.264 1.77 1.77 0 0 0-.614.682 1.97 1.97 0 0 0-.213.908v.746c0 .438.077.8.23 1.117s.374.54.652.703.604.24.976.24a2.02 2.02 0 0 0 .66-.102 1.43 1.43 0 0 0 .516-.315 1.36 1.36 0 0 0 .332-.516l1.206.217c-.096.355-.27.666-.52.933a2.53 2.53 0 0 1-.934.618c-.372.145-.797.217-1.274.217zm5.222-.132v-6.545h1.223v1.065h.08c.136-.36.36-.642.67-.844s.68-.307 1.112-.307c.438 0 .804.102 1.1.307a1.8 1.8 0 0 1 .66.844h.068c.157-.35.405-.628.746-.835s.747-.315 1.22-.315c.594 0 1.078.186 1.453.558s.567.933.567 1.683V60h-1.274v-4.27c0-.443-.12-.764-.363-.963s-.53-.298-.865-.298c-.414 0-.737.128-.967.383s-.345.578-.345.976V60h-1.27v-4.35c0-.355-.11-.64-.332-.856s-.5-.324-.865-.324c-.242 0-.465.064-.67.192s-.366.3-.49.524-.183.484-.183.78V60h-1.274zm14.427.132c-.645 0-1.2-.138-1.667-.413s-.82-.67-1.074-1.172-.374-1.098-.374-1.777c0-.67.124-1.26.374-1.773s.606-.91 1.057-1.197.986-.43 1.594-.43a3.21 3.21 0 0 1 1.074.183 2.59 2.59 0 0 1 .933.575c.276.26.493.6.652 1.018s.24.92.24 1.513v.452h-5.203v-.955h3.954c0-.335-.068-.632-.204-.89s-.328-.467-.576-.618-.53-.226-.86-.226c-.358 0-.67.088-.938.264s-.47.4-.614.682a1.97 1.97 0 0 0-.213.908v.746c0 .438.077.8.23 1.117s.373.54.65.703.604.24.976.24c.242 0 .462-.034.66-.102s.37-.176.515-.315.256-.31.333-.516l1.206.217a2.19 2.19 0 0 1-.52.933c-.247.264-.558.47-.933.618s-.797.217-1.274.217zm7.672-.004c-.53 0-1-.135-1.415-.405s-.736-.66-.972-1.163-.35-1.112-.35-1.82.118-1.312.354-1.815.565-.888.98-1.155.885-.4 1.4-.4c.407 0 .733.068.98.205s.444.3.58.47.247.337.324.473h.077v-3.243h1.274V60h-1.245v-1.02h-.106a3.4 3.4 0 0 1-.333.477c-.142.18-.338.335-.588.47s-.573.2-.97.2zm.28-1.087c.367 0 .676-.097.93-.3s.45-.467.58-.814.2-.75.2-1.2c0-.455-.065-.852-.196-1.193s-.323-.607-.575-.797-.566-.285-.938-.285c-.383 0-.703.1-.96.298s-.45.47-.58.814-.192.732-.192 1.163c0 .438.065.83.196 1.18s.324.626.58.83.577.303.955.303zm5.78.96v-6.545h1.274V60h-1.274zm.644-7.555a.81.81 0 0 1-.571-.222c-.157-.15-.235-.33-.235-.537a.71.71 0 0 1 .235-.537.8.8 0 0 1 .571-.226c.22 0 .4.075.566.226s.24.327.24.537a.71.71 0 0 1-.239.537c-.156.148-.345.222-.566.222zm5.25 7.7c-.414 0-.79-.077-1.125-.23s-.6-.382-.797-.678-.29-.658-.29-1.087c0-.37.07-.673.213-.912s.334-.427.575-.567.51-.244.8-.315.602-.125.912-.162l.954-.11c.244-.03.422-.08.533-.15s.166-.18.166-.332v-.03c0-.372-.105-.66-.315-.865s-.517-.307-.93-.307c-.43 0-.767.095-1.014.286s-.414.396-.508.626l-1.197-.273c.142-.398.35-.72.622-.963s.592-.426.95-.537.735-.17 1.13-.17a3.99 3.99 0 0 1 .831.094c.295.06.57.17.826.332s.47.393.635.695.247.686.247 1.163V60h-1.244v-.895h-.05c-.082.165-.206.327-.37.486s-.376.29-.635.396-.568.158-.93.158zm.277-1.023c.353 0 .654-.07.904-.21s.444-.32.575-.546a1.41 1.41 0 0 0 .2-.729v-.844c-.045.045-.133.088-.264.128s-.274.07-.44.098l-.48.073-.392.05c-.248.03-.473.084-.678.158a1.16 1.16 0 0 0-.486.32c-.12.136-.18.318-.18.545 0 .315.117.554.35.716s.53.24.9.24zm8.706-5.668v1.023h-3.575v-1.023h3.575zm-2.617-1.568h1.275v6.192c0 .247.037.433.1.558s.17.206.286.25a1.14 1.14 0 0 0 .388.064 1.49 1.49 0 0 0 .268-.021l.18-.034.23 1.053c-.074.028-.18.057-.315.085s-.307.048-.51.05c-.336.006-.648-.054-.938-.18s-.524-.318-.703-.58-.27-.6-.27-.984v-6.456zM600.07 60v-6.545h1.275V60h-1.275zm.644-7.555a.81.81 0 0 1-.571-.222.72.72 0 0 1-.235-.537c0-.2.08-.39.235-.537a.8.8 0 0 1 .571-.226.79.79 0 0 1 .567.226c.16.148.238.327.238.537s-.08.386-.238.537-.346.222-.567.222zm6.102 7.688c-.614 0-1.15-.14-1.607-.422s-.812-.675-1.065-1.18-.38-1.097-.38-1.773.126-1.273.38-1.78a2.84 2.84 0 0 1 1.065-1.185c.458-.28.993-.422 1.607-.422s1.15.14 1.606.422.813.676 1.066 1.185.38 1.102.38 1.78-.127 1.267-.38 1.773-.608.9-1.066 1.18-.993.422-1.606.422zm.004-1.07c.398 0 .727-.105.99-.315a1.85 1.85 0 0 0 .579-.84c.128-.35.192-.734.192-1.155s-.064-.8-.192-1.15-.318-.635-.58-.848-.59-.32-.99-.32-.733.107-.997.32-.456.496-.584.848-.187.733-.187 1.15.062.805.187 1.155.323.63.584.84.596.315.997.315zm6.743-2.95V60H612.3v-6.545h1.223v1.065h.08c.15-.347.386-.625.707-.835s.732-.315 1.224-.315c.446 0 .836.094 1.17.28s.596.46.78.827.277.82.277 1.36V60h-1.274v-4c0-.474-.124-.845-.37-1.112s-.586-.405-1.018-.405c-.296 0-.558.064-.79.192s-.407.315-.54.563-.196.54-.196.886z" fill="#1757c2"/><rect x="470.5" y="40.5" width="161" height="31" rx="3.5" stroke="#1757c2"/><path d="M40 321h592v64a8 8 0 0 1-8 8H48a8 8 0 0 1-8-8v-64z" fill="#f3f7fc"/><g fill="#1757c2"><path d="M281.722 352.273l2.43 7.108h.098l2.43-7.108h1.423L284.96 361h-1.52l-3.14-8.727h1.424zM290.26 361v-6.545h1.274V361h-1.274zm.643-7.555a.81.81 0 0 1-.571-.222c-.156-.15-.234-.33-.234-.537s.078-.39.234-.537.35-.226.57-.226a.79.79 0 0 1 .567.226c.16.148.24.327.24.537s-.08.386-.24.537-.345.222-.567.222zm6.166 7.687c-.645 0-1.2-.138-1.666-.413s-.82-.67-1.074-1.172-.375-1.098-.375-1.777c0-.67.125-1.26.375-1.773s.605-.9 1.057-1.197.986-.43 1.594-.43a3.19 3.19 0 0 1 1.074.184c.346.122.657.313.933.575s.493.6.652 1.018.238.92.238 1.513v.452h-5.203v-.955h3.955a1.87 1.87 0 0 0-.205-.89c-.136-.262-.328-.468-.575-.618s-.53-.226-.86-.226c-.358 0-.67.088-.937.264s-.47.4-.614.682-.213.58-.213.908v.745c0 .438.077.8.23 1.117s.374.54.652.703.604.24.976.24c.24 0 .462-.035.66-.103a1.43 1.43 0 0 0 .516-.315c.145-.14.256-.31.332-.516l1.206.218c-.096.355-.27.666-.52.933s-.56.47-.934.618a3.49 3.49 0 0 1-1.274.217zm6.63-.132l-1.926-6.545h1.317l1.283 4.806h.064l1.287-4.806h1.316l1.28 4.785h.064l1.274-4.785h1.317L309.05 361h-1.3l-1.33-4.726h-.098l-1.33 4.726h-1.296zm15.564.145c-.414 0-.79-.077-1.125-.23s-.6-.382-.797-.678-.29-.657-.29-1.086c0-.37.07-.674.213-.912a1.57 1.57 0 0 1 .575-.567 3.01 3.01 0 0 1 .81-.315c.298-.07.602-.125.912-.162l.954-.11c.245-.03.422-.08.533-.15s.166-.18.166-.333v-.03c0-.372-.105-.66-.315-.865s-.517-.306-.93-.306c-.43 0-.767.095-1.014.285s-.414.396-.508.626l-1.197-.272c.142-.398.35-.72.622-.963a2.53 2.53 0 0 1 .95-.537c.358-.114.735-.17 1.13-.17.26 0 .538.032.83.094a2.45 2.45 0 0 1 .826.332c.26.162.47.394.635.695s.247.686.247 1.163V361h-1.244v-.895h-.05c-.082.165-.206.327-.37.486s-.376.29-.635.396-.568.158-.93.158zm.277-1.023c.353 0 .654-.07.904-.21s.444-.32.575-.545a1.41 1.41 0 0 0 .2-.729v-.844c-.045.046-.133.09-.264.128s-.274.07-.44.098l-.48.073-.392.05c-.248.03-.473.084-.678.158s-.364.18-.486.32-.18.318-.18.546c0 .315.117.554.35.716s.53.238.9.238zm6.925-7.85V361h-1.274v-8.727h1.274zm3.988 0V361h-1.274v-8.727h1.274zm6.9 8.727v-6.545h1.23v1.04h.07a1.58 1.58 0 0 1 .63-.831 1.81 1.81 0 0 1 1.032-.306l.28.008.26.02v1.22a2.3 2.3 0 0 0-.273-.047c-.13-.02-.26-.03-.392-.03-.3 0-.57.064-.805.192s-.418.3-.554.524-.205.475-.205.76V361h-1.274zm5.605 0v-6.545h1.275V361h-1.275zm.644-7.555a.81.81 0 0 1-.571-.222c-.156-.15-.235-.33-.235-.537s.08-.39.235-.537.35-.226.57-.226a.79.79 0 0 1 .567.226c.16.148.238.327.238.537s-.08.386-.238.537-.346.222-.567.222zm8.25 2.608l-1.154.204a1.39 1.39 0 0 0-.23-.422 1.15 1.15 0 0 0-.418-.328c-.176-.085-.396-.128-.66-.128-.36 0-.662.08-.903.243s-.362.365-.362.618a.65.65 0 0 0 .243.528c.162.134.423.243.784.33l1.04.238c.602.14 1.05.354 1.346.644s.443.666.443 1.13a1.71 1.71 0 0 1-.341 1.048c-.224.304-.538.543-.94.716s-.865.26-1.394.26c-.733 0-1.33-.156-1.794-.47s-.747-.762-.852-1.342l1.23-.187c.077.32.235.563.473.728s.55.243.934.243c.417 0 .75-.087 1-.26s.375-.4.375-.643a.67.67 0 0 0-.23-.516c-.15-.14-.382-.244-.695-.315l-1.108-.243c-.6-.14-1.062-.36-1.355-.665s-.434-.69-.434-1.155a1.65 1.65 0 0 1 .324-1.014c.215-.3.514-.516.894-.678s.817-.247 1.31-.247c.707 0 1.264.154 1.67.46s.675.71.805 1.223zm3.7 2.727l-.008-1.556h.22l2.608-2.77h1.526l-2.975 3.153h-.2l-1.172 1.172zm-1.172 2.22v-8.727h1.274V361h-1.274zm4.134 0l-2.344-3.11.878-.9 3.03 4h-1.564zm8.45-4.947l-1.155.204c-.048-.148-.125-.288-.23-.422a1.14 1.14 0 0 0-.418-.328c-.176-.085-.396-.128-.66-.128-.36 0-.662.08-.904.243s-.362.365-.362.618a.65.65 0 0 0 .243.528c.162.134.423.243.784.33l1.04.238c.602.14 1.05.354 1.346.644s.444.666.444 1.13c0 .392-.114.74-.34 1.048s-.54.543-.942.716-.865.26-1.394.26c-.732 0-1.33-.156-1.794-.47s-.747-.762-.852-1.342l1.232-.187c.076.32.234.563.473.728s.55.243.933.243c.418 0 .75-.087 1-.26s.375-.4.375-.643c0-.205-.076-.377-.23-.516s-.382-.244-.694-.315l-1.108-.243c-.61-.14-1.063-.36-1.355-.665s-.435-.69-.435-1.155a1.65 1.65 0 0 1 .324-1.014c.216-.3.514-.516.895-.678s.816-.247 1.308-.247c.707 0 1.264.154 1.67.46s.675.71.806 1.223z"/><use xlink:href="#B" x="-239" y="216"/></g><defs ><path id="B" d="M628.138 141.467l-4.15 4.166c-.134.134-.3.2-.467.2s-.333-.066-.467-.2c-.266-.266-.266-.683 0-.95l3.017-3.033h-9.733a.67.67 0 0 1-.667-.667.67.67 0 0 1 .667-.666h9.733l-3.017-3.034c-.266-.266-.266-.683 0-.95s.684-.266.95 0l4.15 4.167c.25.283.25.717-.016.967z"/><path id="C" d="M46.738 136.824v3.432a10.55 10.55 0 0 1-.054 1.074l-.138 1.1h-1.008l-.138-1.1a10.55 10.55 0 0 1-.054-1.074v-3.432h1.392zm-1.626 7.86a.96.96 0 0 1 .066-.354.91.91 0 0 1 .192-.288c.084-.08.182-.144.294-.192s.232-.072.36-.072a.89.89 0 0 1 .354.072.91.91 0 0 1 .288.192.86.86 0 0 1 .198.288.89.89 0 0 1 .072.354c0 .128-.024.248-.072.36s-.114.202-.198.282a.83.83 0 0 1-.288.186.89.89 0 0 1-.354.072c-.128 0-.248-.024-.36-.072s-.2-.106-.294-.186-.144-.174-.192-.282-.066-.232-.066-.36z"/></defs></svg>