<svg xmlns="http://www.w3.org/2000/svg" width="672" height="400" fill="none" xmlns:v="https://vecta.io/nano"><style><![CDATA[.B{fill:#131520}.C{fill-rule:evenodd}.D{fill-opacity:.05}.E{stroke-linecap:round}]]></style><g fill="#fff"><path d="M0 0h672v400H0z"/><path d="M494 44a4 4 0 0 1 4-4h130a4 4 0 0 1 4 4v24a4 4 0 0 1-4 4H498a4 4 0 0 1-4-4V44z"/></g><path d="M521.315 57.66v3.526a.64.64 0 0 1-.648.648h-9.852a.64.64 0 0 1-.648-.648V57.66a.648.648 0 1 1 1.296 0v2.878h8.555V57.66a.649.649 0 1 1 1.297 0zm-6.04.804c.117.13.285.194.467.194s.337-.065.466-.194l2.58-2.644c.246-.26.246-.66-.013-.92-.26-.246-.66-.246-.92.013l-1.478 1.504v-5.6a.649.649 0 1 0-1.297 0v5.613l-1.477-1.504c-.247-.26-.66-.26-.92-.013s-.26.66-.013.92l2.606 2.63zM530.96 60v-8.727h5.47v1.133h-4.154v2.66h3.87v1.13h-3.87v2.672h4.206V60h-5.523zm9.134-6.545l1.444 2.548 1.458-2.548h1.393l-2.04 3.273L544.405 60h-1.393l-1.475-2.446-1.47 2.446h-1.398l2.037-3.273-2-3.273h1.398zm6.603 9v-9h1.245v1.06h.106a3.53 3.53 0 0 1 .32-.473c.14-.18.332-.335.58-.47s.574-.205.98-.205c.53 0 1 .133 1.415.4s.74.652.976 1.155.358 1.108.358 1.815-.118 1.314-.354 1.82-.56.9-.97 1.163-.882.405-1.4.405c-.397 0-.723-.067-.976-.2s-.446-.3-.588-.47a3.58 3.58 0 0 1-.328-.477h-.076v3.473H546.7zm1.25-5.727c0 .46.067.864.2 1.2s.327.618.58.814.562.3.93.3c.38 0 .7-.1.954-.303s.45-.48.58-.83.2-.743.2-1.18-.065-.82-.196-1.163-.32-.615-.58-.814-.576-.298-.96-.298c-.37 0-.682.095-.938.285s-.444.456-.575.797-.196.74-.196 1.193zm9.915 3.405c-.614 0-1.15-.14-1.607-.422s-.812-.675-1.065-1.18-.38-1.097-.38-1.773.126-1.273.38-1.78a2.84 2.84 0 0 1 1.065-1.185c.458-.28.993-.422 1.607-.422s1.15.14 1.606.422.813.676 1.066 1.185.38 1.102.38 1.78-.127 1.267-.38 1.773-.608.9-1.066 1.18-.993.422-1.606.422zm.004-1.07c.398 0 .727-.105 1-.315a1.85 1.85 0 0 0 .579-.84c.128-.35.192-.734.192-1.155s-.064-.8-.192-1.15-.318-.635-.58-.848-.6-.32-1-.32-.733.107-.997.32a1.9 1.9 0 0 0-.584.848c-.125.35-.187.733-.187 1.15s.062.805.187 1.155.322.63.584.84.596.315.997.315zm5.47.938v-6.545h1.232v1.04h.068a1.58 1.58 0 0 1 .63-.831c.304-.205.648-.307 1.032-.307l.28.01.26.02v1.22a2.26 2.26 0 0 0-.273-.047 3.03 3.03 0 0 0-.392-.03 1.66 1.66 0 0 0-.805.192 1.42 1.42 0 0 0-.554.524c-.137.222-.205.474-.205.758V60h-1.274zm9.048-6.545v1.023h-3.576v-1.023h3.576zm-2.617-1.568h1.274v6.192c0 .247.037.433.1.558s.17.206.286.25a1.14 1.14 0 0 0 .387.064c.103 0 .192-.007.27-.02l.18-.034.23 1.053c-.074.028-.18.057-.315.085a2.68 2.68 0 0 1-.512.05c-.335.006-.647-.054-.937-.18a1.61 1.61 0 0 1-.703-.58c-.18-.262-.27-.6-.27-.984v-6.456zm9.2 8.112v-6.545h1.23v1.04h.07a1.58 1.58 0 0 1 .63-.831c.304-.205.648-.307 1.032-.307l.28.01.26.02v1.22a2.26 2.26 0 0 0-.273-.047 3.03 3.03 0 0 0-.392-.03 1.66 1.66 0 0 0-.805.192 1.42 1.42 0 0 0-.554.524c-.137.222-.205.474-.205.758V60h-1.274zm8.192.132c-.645 0-1.2-.138-1.666-.413s-.82-.67-1.074-1.172-.375-1.098-.375-1.777c0-.67.125-1.26.375-1.773a2.91 2.91 0 0 1 1.057-1.197c.454-.287.986-.43 1.594-.43a3.2 3.2 0 0 1 1.073.183c.347.122.658.314.934.575s.493.6.652 1.018.238.92.238 1.513v.452h-5.203v-.955h3.955a1.87 1.87 0 0 0-.205-.89c-.137-.258-.328-.467-.575-.618s-.53-.226-.86-.226a1.66 1.66 0 0 0-.937.264 1.77 1.77 0 0 0-.614.682 1.97 1.97 0 0 0-.213.908v.746c0 .438.077.8.23 1.117s.374.54.652.703.604.24.976.24a2.04 2.04 0 0 0 .66-.102 1.43 1.43 0 0 0 .516-.315 1.36 1.36 0 0 0 .332-.516l1.206.217a2.18 2.18 0 0 1-.52.933c-.247.264-.558.47-.933.618s-.797.217-1.274.217zm5.222 2.322v-9h1.244v1.06h.107a3.59 3.59 0 0 1 .319-.473 1.82 1.82 0 0 1 .58-.469c.247-.136.574-.205.98-.205.528 0 1 .133 1.415.4s.74.652.976 1.155.358 1.108.358 1.815-.118 1.314-.354 1.82-.56.9-.972 1.163-.882.405-1.4.405c-.398 0-.723-.067-.976-.2s-.446-.3-.588-.47a3.58 3.58 0 0 1-.328-.477h-.077v3.473H592.4zm1.25-5.727c0 .46.066.864.2 1.2s.327.618.58.814.563.3.93.3c.38 0 .7-.1.955-.303s.45-.48.58-.83.2-.743.2-1.18a3.27 3.27 0 0 0-.196-1.163 1.78 1.78 0 0 0-.58-.814c-.256-.2-.575-.298-.96-.298-.37 0-.68.095-.937.285s-.445.456-.575.797-.196.74-.196 1.193zm9.914 3.405c-.613 0-1.15-.14-1.606-.422s-.813-.675-1.066-1.18-.38-1.097-.38-1.773.127-1.273.38-1.78.608-.904 1.066-1.185.993-.422 1.606-.422 1.15.14 1.607.422a2.84 2.84 0 0 1 1.065 1.185c.253.508.38 1.102.38 1.78s-.126 1.267-.38 1.773-.608.9-1.065 1.18-.993.422-1.607.422zm.005-1.07c.397 0 .727-.105.988-.315s.455-.5.58-.84.192-.734.192-1.155-.064-.8-.192-1.15a1.87 1.87 0 0 0-.58-.848c-.26-.213-.6-.32-.988-.32s-.733.107-.998.32-.456.496-.583.848-.188.733-.188 1.15.063.805.188 1.155.322.63.583.84.597.315.998.315zm5.47.938v-6.545h1.23v1.04h.068c.12-.352.33-.63.63-.83a1.83 1.83 0 0 1 1.03-.307l.282.01.26.02v1.22a2.38 2.38 0 0 0-.273-.047c-.13-.017-.262-.03-.392-.03-.3 0-.57.064-.806.192a1.43 1.43 0 0 0-.554.524 1.42 1.42 0 0 0-.204.758V60h-1.274zm9.047-6.545v1.023h-3.575v-1.023h3.575zm-2.616-1.568h1.274v6.192c0 .247.037.433.1.558a.58.58 0 0 0 .285.251 1.15 1.15 0 0 0 .388.064 1.5 1.5 0 0 0 .269-.021l.178-.034.23 1.053c-.074.028-.18.057-.316.085s-.307.048-.5.05c-.335.006-.648-.054-.938-.18a1.61 1.61 0 0 1-.703-.579c-.18-.26-.268-.6-.268-.984v-6.456z" fill="#1757c2"/><rect x="494.5" y="40.5" width="137" height="31" rx="3.5" stroke="#1757c2"/><path d="M59.378 345v5.672c-.004.922-.434 1.414-1.2 1.414-.707 0-1.2-.422-1.203-1.086h-1.2c0 1.352 1.016 2.1 2.37 2.1 1.47 0 2.43-.898 2.434-2.437V345h-1.203zM64 353.133c.992 0 1.55-.504 1.774-.953h.047v.82h1.14v-3.984c0-1.746-1.375-2.094-2.328-2.094-1.086 0-2.086.437-2.476 1.53l1.098.25c.172-.426.6-.836 1.395-.836.754 0 1.14.395 1.14 1.074v.028c0 .426-.437.418-1.516.543-1.137.133-2.3.43-2.3 1.793 0 1.18.887 1.828 2.027 1.828zm.254-.938c-.66 0-1.137-.297-1.137-.875 0-.625.555-.847 1.23-.937.38-.05 1.277-.153 1.445-.32v.774c0 .7-.566 1.36-1.54 1.36zm5.43-2.758c0-.957.586-1.503 1.398-1.503.793 0 1.273.52 1.273 1.4V353h1.168v-3.816c0-1.485-.816-2.262-2.043-2.262-.902 0-1.492.418-1.77 1.055h-.074V347h-1.12v6h1.168v-3.563zM105.206 353h1.207v-3.488h3.398v-1.035h-3.398v-2.438h3.754V345h-4.96v8zm8.497.12c1.308 0 2.234-.644 2.5-1.62l-1.106-.2c-.2.566-.72.855-1.383.855-1 0-1.67-.648-1.703-1.804h4.266v-.415c0-2.167-1.297-3.015-2.656-3.015-1.672 0-2.774 1.273-2.774 3.117 0 1.863 1.086 3.082 2.856 3.082zm-1.688-3.644c.047-.852.664-1.6 1.613-1.6.907 0 1.5.672 1.504 1.6h-3.117zm5.652 3.523h1.14v-.934h.098c.2.383.64 1.05 1.734 1.05 1.453 0 2.508-1.164 2.508-3.105s-1.07-3.1-2.52-3.1c-1.114 0-1.516.68-1.723 1.05h-.07V345h-1.168v8zm1.144-3c0-1.254.547-2.086 1.567-2.086 1.058 0 1.6.895 1.6 2.086 0 1.203-.547 2.12-1.6 2.12-1.004 0-1.567-.86-1.567-2.12zm35.047-5v8h1.148v-5.793h.074l2.36 5.78h.953l2.36-5.777h.075v5.8h1.148v-8H160.5l-2.547 6.22h-.094l-2.546-6.22h-1.465zm11.524 8.133c.992 0 1.55-.504 1.774-.953h.046v.82h1.14v-3.984c0-1.746-1.375-2.094-2.328-2.094-1.086 0-2.086.437-2.477 1.53l1.098.25c.172-.426.6-.836 1.395-.836.754 0 1.14.395 1.14 1.074v.028c0 .426-.437.418-1.515.543-1.137.133-2.3.43-2.3 1.793 0 1.18.887 1.828 2.027 1.828zm.254-.938c-.66 0-1.137-.297-1.137-.875 0-.625.555-.847 1.23-.937.38-.05 1.277-.153 1.445-.32v.774c0 .7-.566 1.36-1.54 1.36zm4.263.805h1.168v-3.664c0-.785.605-1.352 1.433-1.352a2.6 2.6 0 0 1 .6.07v-1.118a4.93 4.93 0 0 0-.496-.027c-.704 0-1.305.4-1.524 1.043h-.062V347h-1.13v6zm35.14 0l.734-2.117h3.125l.73 2.117h1.28l-2.88-8h-1.394l-2.88 8h1.28zm1.086-3.133l1.18-3.414h.062l1.18 3.414h-2.422zm5.847 5.383h1.168v-3.184h.07c.2.383.64 1.05 1.734 1.05 1.453 0 2.508-1.164 2.508-3.105s-1.07-3.1-2.52-3.1c-1.114 0-1.516.68-1.723 1.05h-.098V347h-1.14v8.25zm1.144-5.25c0-1.254.547-2.086 1.567-2.086 1.058 0 1.6.895 1.6 2.086 0 1.203-.546 2.12-1.6 2.12-1.004 0-1.567-.86-1.567-2.12zm5.645 3h1.168v-3.664c0-.785.605-1.352 1.433-1.352a2.6 2.6 0 0 1 .6.07v-1.118a4.93 4.93 0 0 0-.496-.027c-.704 0-1.305.4-1.524 1.043h-.062V347h-1.13v6zm33.036-8v8h1.15v-5.793h.074l2.36 5.78h.954l2.36-5.777h.074v5.8h1.15v-8h-1.465l-2.547 6.22h-.094l-2.547-6.22h-1.465zm11.525 8.133c.992 0 1.55-.504 1.773-.953h.047v.82h1.14v-3.984c0-1.746-1.375-2.094-2.328-2.094-1.086 0-2.086.437-2.477 1.53l1.098.25c.172-.426.6-.836 1.394-.836.754 0 1.14.395 1.14 1.074v.028c0 .426-.438.418-1.516.543-1.136.133-2.3.43-2.3 1.793 0 1.18.887 1.828 2.028 1.828zm.254-.938c-.66 0-1.137-.297-1.137-.875 0-.625.555-.847 1.23-.937.38-.05 1.278-.153 1.446-.32v.774c0 .7-.567 1.36-1.54 1.36zm4.786 3.04c.965 0 1.578-.504 1.922-1.433l2.48-6.8-1.262-.012-1.52 4.656h-.063L268.4 347h-1.25l2.195 6.078-.144.4c-.297.777-.715.847-1.356.67l-.28.957c.14.067.445.13.797.13zm37.2-10.235v5.672c-.004.922-.434 1.414-1.2 1.414-.707 0-1.2-.422-1.203-1.086h-1.2c0 1.352 1.016 2.1 2.37 2.1 1.47 0 2.43-.898 2.434-2.437V345h-1.203zm6.667 5.512c.003 1.02-.754 1.504-1.4 1.504-.722 0-1.222-.524-1.222-1.34V347h-1.168v3.816c0 1.5.816 2.262 1.97 2.262.902 0 1.515-.476 1.793-1.117h.062V353h1.148v-6h-1.17v3.512zm3.9-1.075c0-.957.586-1.503 1.398-1.503.793 0 1.274.52 1.274 1.4V353h1.168v-3.816c0-1.485-.817-2.262-2.043-2.262-.903 0-1.493.418-1.77 1.055h-.074V347h-1.12v6h1.168v-3.563zM357.156 345v5.672c-.004.922-.434 1.414-1.2 1.414-.707 0-1.2-.422-1.203-1.086h-1.2c0 1.352 1.016 2.1 2.37 2.1 1.47 0 2.43-.898 2.434-2.437V345h-1.203zm6.667 5.512c.004 1.02-.754 1.504-1.4 1.504-.723 0-1.223-.524-1.223-1.34V347h-1.168v3.816c0 1.5.816 2.262 1.97 2.262.902 0 1.515-.476 1.793-1.117h.062V353h1.15v-6h-1.172v3.512zm3.9-5.512h-1.168v8h1.168v-8zm33.305 8l.734-2.117h3.125l.73 2.117h1.28l-2.88-8h-1.394l-2.88 8h1.28zm1.086-3.133l1.18-3.414h.062l1.18 3.414h-2.422zm9.647.645c.004 1.02-.754 1.504-1.4 1.504-.722 0-1.222-.524-1.222-1.34V347h-1.168v3.816c0 1.5.816 2.262 1.968 2.262.903 0 1.516-.476 1.793-1.117h.063V353h1.148v-6h-1.172v3.512zm5.257 4.85c1.528 0 2.707-.7 2.707-2.23V347h-1.144v.973h-.086c-.207-.37-.62-1.05-1.74-1.05-1.45 0-2.515 1.144-2.515 3.055s1.1 2.933 2.508 2.933c1.1 0 1.527-.62 1.738-1.004h.074v1.18c0 .926-.644 1.336-1.53 1.336-.973 0-1.352-.488-1.56-.82l-1.004.414c.317.722 1.118 1.347 2.55 1.347zm-.012-3.422c-1.043 0-1.585-.8-1.585-1.98 0-1.152.53-2.047 1.585-2.047 1.02 0 1.567.832 1.567 2.047 0 1.238-.56 1.98-1.567 1.98zm37.22-4.838h1.164c-.035-1.282-1.168-2.2-2.793-2.2-1.605 0-2.835.918-2.835 2.296 0 1.114.796 1.766 2.082 2.114l.945.258c.855.226 1.516.507 1.516 1.218 0 .782-.747 1.297-1.774 1.297-.93 0-1.703-.414-1.773-1.285h-1.2c.078 1.45 1.2 2.344 2.992 2.344 1.88 0 2.96-.988 2.96-2.344 0-1.44-1.285-2-2.3-2.25l-.78-.203c-.625-.16-1.457-.453-1.453-1.22 0-.68.62-1.183 1.605-1.183.918 0 1.57.43 1.656 1.168zm5.208 6.02c1.3 0 2.235-.644 2.5-1.62l-1.105-.2c-.2.566-.72.855-1.383.855-1 0-1.672-.648-1.703-1.804h4.266v-.415c0-2.167-1.297-3.015-2.657-3.015-1.672 0-2.773 1.273-2.773 3.117 0 1.863 1.086 3.082 2.855 3.082zm-1.687-3.644c.047-.852.664-1.6 1.613-1.6.906 0 1.5.672 1.504 1.6h-3.117zm5.558 5.773h1.167v-3.184h.07c.2.383.64 1.05 1.734 1.05 1.453 0 2.508-1.164 2.508-3.105s-1.07-3.1-2.52-3.1c-1.113 0-1.515.68-1.722 1.05h-.098V347h-1.14v8.25zm1.144-5.25c0-1.254.547-2.086 1.566-2.086 1.06 0 1.6.895 1.6 2.086 0 1.203-.547 2.12-1.6 2.12-1.003 0-1.566-.86-1.566-2.12zm42.817-1c0-2.56-1.53-4.1-3.602-4.1-2.078 0-3.605 1.55-3.605 4.1s1.527 4.1 3.605 4.1c2.07 0 3.602-1.55 3.602-4.1zm-1.195 0c0 1.95-1.032 3.008-2.407 3.008s-2.406-1.06-2.406-3.008 1.027-3.008 2.406-3.008 2.407 1.06 2.407 3.008zm5.133 4.12c1.418 0 2.336-.85 2.465-2.02h-1.136c-.15.648-.653 1.03-1.32 1.03-.988 0-1.625-.824-1.625-2.133 0-1.285.65-2.094 1.625-2.094.742 0 1.196.47 1.32 1.03h1.136c-.125-1.2-1.113-2.015-2.476-2.015-1.692 0-2.785 1.273-2.785 3.105 0 1.8 1.054 3.094 2.796 3.094zm6.515-6.12h-1.23v-1.438h-1.168V347h-.88v.937h.88v3.543c-.004 1.1.828 1.618 1.75 1.598.37-.004.62-.074.757-.125l-.2-.965c-.08.016-.223.05-.4.05-.38 0-.718-.125-.718-.8v-3.3h1.23V347zm37.175-2H553.7v5.875h-.074l-4.07-5.875h-1.117v8h1.207v-5.867h.074l4.067 5.867h1.1v-8zm4.194 8.12c1.692 0 2.797-1.238 2.797-3.094 0-1.867-1.105-3.105-2.797-3.105s-2.796 1.238-2.796 3.105c0 1.856 1.105 3.094 2.796 3.094zm.004-.98c-1.105 0-1.62-.965-1.62-2.118s.516-2.125 1.62-2.125c1.098 0 1.614.977 1.614 2.125s-.516 2.118-1.614 2.118zm9.015-5.14h-1.254l-1.516 4.617h-.062l-1.52-4.617h-1.253l2.18 6h1.25l2.176-6zm32.2 6c2.438 0 3.848-1.512 3.848-4.012 0-2.488-1.4-3.988-3.766-3.988h-2.672v8h2.6zm-1.383-1.055v-5.9h1.4c1.75 0 2.652 1.047 2.652 2.933 0 1.895-.902 2.957-2.726 2.957h-1.317zm9.224 1.176c1.3 0 2.234-.644 2.5-1.62l-1.105-.2c-.2.566-.72.855-1.383.855-1 0-1.672-.648-1.703-1.804h4.265v-.415c0-2.167-1.297-3.015-2.656-3.015-1.672 0-2.773 1.273-2.773 3.117 0 1.863 1.085 3.082 2.855 3.082zm-1.687-3.644c.046-.852.664-1.6 1.613-1.6.906 0 1.5.672 1.504 1.6h-3.117zm8.084 3.644c1.418 0 2.336-.85 2.465-2.02h-1.136c-.15.648-.653 1.03-1.32 1.03-.988 0-1.625-.824-1.625-2.133 0-1.285.65-2.094 1.625-2.094.742 0 1.196.47 1.32 1.03h1.136c-.125-1.2-1.113-2.015-2.476-2.015-1.692 0-2.785 1.273-2.785 3.105 0 1.8 1.054 3.094 2.796 3.094z" fill="#5d6598"/><g clip-path="url(#E)"><path d="M43 195l650-24" stroke="#8babe1" stroke-width="2" stroke-dasharray="0.1 4" class="E"/><path d="M58.78 187.65l-.21-5.596 1.023-.04.21 5.596-1.023.04zm3.107-.117l-.21-5.596 1.023-.038 2.78 3.843-.15-3.94 1.023-.038.212 5.596-1.023.038-2.78-3.835.15 3.933-1.023.038zm6.76-.252l-.21-5.596 1.91-.072c.656-.024 1.198.073 1.628.292.435.213.762.526.98.94.224.408.346.894.367 1.46s-.064 1.062-.256 1.5-.49.76-.907 1.01c-.412.245-.946.38-1.602.404l-1.91.072zm1-.918l.84-.03c.47-.018.837-.106 1.103-.266s.452-.4.56-.677.152-.64.137-1.046-.087-.74-.215-1.025-.33-.497-.61-.64-.65-.208-1.12-.19l-.84.032.145 3.845zm7.855.683c-.4.015-.784-.05-1.12-.198a1.9 1.9 0 0 1-.82-.714c-.204-.323-.316-.738-.335-1.245l-.13-3.453 1.023-.038.13 3.46c.017.437.133.758.35.964.22.205.518.3.89.287.368-.014.654-.13.86-.353s.3-.55.283-.987l-.13-3.46 1.023-.04.13 3.454c.02.506-.066.928-.256 1.266s-.453.596-.787.774c-.33.173-.7.267-1.1.282zm6.193-.232c-.4.016-.775-.04-1.095-.167a1.79 1.79 0 0 1-.766-.579c-.19-.26-.297-.58-.316-.957l1.08-.04c.02.26.122.48.305.653.188.17.44.248.753.236.272-.01.485-.082.64-.216a.65.65 0 0 0 .22-.536c-.01-.23-.087-.405-.236-.528-.143-.123-.334-.22-.57-.29l-.76-.227c-.437-.133-.775-.313-1.013-.54-.233-.226-.356-.534-.37-.923-.018-.33.05-.615.2-.856a1.59 1.59 0 0 1 .651-.576c.277-.144.6-.223.968-.237.373-.014.703.04.99.163a1.59 1.59 0 0 1 .693.535 1.56 1.56 0 0 1 .296.845l-1.095.04c-.013-.197-.097-.367-.252-.51-.15-.15-.355-.22-.616-.21-.224.003-.41.066-.56.19-.145.118-.213.286-.205.504.007.187.07.334.193.44s.285.187.5.254l.705.214c.28.086.538.188.772.307a1.55 1.55 0 0 1 .571.491c.146.203.226.47.238.8.01.293-.053.568-.193.824s-.353.467-.64.632-.644.25-1.07.264zm5.088-.286l-.18-4.772-1.63.06-.03-.824 4.293-.16.03.823-1.64.06.18 4.773-1.023.038zm4.42-.165l-.212-5.596 2.055-.077c.448-.017.818.047 1.112.19a1.5 1.5 0 0 1 .679.591c.154.25.236.533.248.847a1.7 1.7 0 0 1-.237.946c-.165.29-.435.504-.808.646l1.248 2.3-1.175.044-1.123-2.167-.847.03.083 2.207-1.023.038zm.91-2.996l.967-.036c.34-.013.588-.105.742-.276s.225-.393.215-.665c-.01-.266-.098-.476-.264-.63-.16-.154-.417-.225-.768-.212l-.96.036.067 1.783zm6.32 2.726l-.076-1.99-2.014-3.535 1.16-.044 1.336 2.536 1.134-2.628 1.143-.043-1.734 3.676.075 2-1.023.04zm7.093-.266l1.835-5.672 1.15-.043 2.258 5.52-1.087.04-.497-1.278-2.182.08-.407 1.312-1.07.04zm1.728-2.162l1.622-.06-.903-2.296-.72 2.356zm6.15 1.868l-2.258-5.52 1.095-.04 1.755 4.5 1.42-4.608 1.08-.04-1.835 5.673-1.255.047zm4.966-.186l-.21-5.596 3.653-.136.03.823-2.63.098.058 1.535 2.4-.09.03.8-2.39.1.06 1.615 2.63-.1.03.824-3.654.136zm5.62-.2l-.21-5.596 2.054-.077c.448-.016.82.047 1.112.19a1.5 1.5 0 0 1 .679.591 1.71 1.71 0 0 1 .248.847c.013.34-.066.656-.236.946-.165.29-.435.504-.808.646l1.247 2.3-1.175.044-1.122-2.167-.848.03.084 2.207-1.024.038zm.912-2.996l.967-.036c.34-.013.59-.105.742-.276s.226-.393.215-.665c-.01-.266-.098-.476-.264-.63-.16-.154-.416-.225-.768-.212l-.96.036.068 1.783zm4.71 2.786l1.835-5.673 1.15-.043 2.258 5.52-1.087.04-.497-1.28-2.182.082-.407 1.312-1.07.04zm1.727-2.162l1.623-.06-.903-2.296-.72 2.357zm7.367 1.918c-.528.02-.993-.083-1.397-.308a2.46 2.46 0 0 1-.957-.965c-.235-.423-.363-.92-.384-1.49s.07-1.086.278-1.53a2.51 2.51 0 0 1 .928-1.067c.412-.267.906-.41 1.48-.432.656-.025 1.205.112 1.65.41a2.15 2.15 0 0 1 .889 1.271l-1.144.043c-.095-.258-.257-.455-.486-.6-.23-.14-.52-.205-.872-.192-.56.02-.985.216-1.275.584s-.424.854-.4 1.472.19 1.093.502 1.422c.317.325.734.477 1.25.458.506-.02.882-.17 1.127-.45.25-.287.395-.656.43-1.105l-1.415.053-.03-.768 2.446-.09.117 3.078-.944.035-.108-.733a1.86 1.86 0 0 1-.656.641c-.266.154-.6.24-1.03.255zm4.733-.273l-.212-5.596 3.654-.137.03.824-2.63.098.058 1.535 2.4-.09.03.8-2.4.1.06 1.614 2.63-.098.03.823-3.653.137z" fill="#8babe1"/><path d="M40 208.602l21.5 8.802c21.5 8.8 64.5 26.403 107.5 29.337s86-8.8 129-20.536 86-23.47 129-23.47 86 11.735 129 11.735 86-11.735 107.5-17.603L685 191v212H40V208.602z" fill="url(#B)" class="C D"/><g stroke-width="2"><path d="M685 403V191l-21.5 5.867C642 202.735 599 214.47 556 214.47s-86-11.735-129-11.735-86 11.735-129 23.47-86 23.47-129 20.536-86-20.536-107.5-29.337L40 208.602V403m645 0H40m645 0H40" stroke="#1ea7ff" class="E"/><path d="M40 245.516l36.013-3.213c35.476-3.214 107.5-9.64 178.988-6.427s143.512 16.067 215 22.494 143.513 6.427 178.987 6.427H685V431H40V245.516z" fill="url(#C)" stroke="#0d0a6e" class="C D"/><path d="M134.75 142.91c-34.53 6.717-77.555 2.8-94.75 0V350h645V113c-31.583 0-199.325 40.406-271.616 40.93s-93.346-33.584-142.124-33.584-93.347 14.168-136.5 22.564z" fill="url(#D)" stroke="#1757c2" class="D"/></g></g><g filter="url(#A)" class="C"><path d="M381 121a6 6 0 0 0-6 6v14.22l-6 7.723 6 7.724V235a6 6 0 0 0 6 6h185a6 6 0 0 0 6-6V127a6 6 0 0 0-6-6H381z" fill="#fff"/></g><path d="M527.365 145.654c-2.138-.015-3.535 1.516-3.535 3.465s1.412 3.35 3.177 3.35c1.08 0 2.004-.527 2.526-1.382h.08c-.005 2.342-.885 3.71-2.376 3.71-.975 0-1.6-.597-1.8-1.467h-1.516c.223 1.646 1.496 2.81 3.316 2.81 2.366 0 3.843-2.033 3.848-5.598-.005-3.743-1.904-4.872-3.72-4.887zm.005 1.293c1.178 0 2.048 1 2.048 2.138s-.914 2.132-2.078 2.132-2.018-.934-2.018-2.118c0-1.203.88-2.152 2.048-2.152zm9.055 9.222c2.35 0 3.728-1.92 3.728-5.255 0-3.31-1.397-5.235-3.728-5.235-2.337 0-3.73 1.92-3.734 5.235 0 3.33 1.377 5.25 3.734 5.255zm0-1.327c-1.378 0-2.208-1.382-2.208-3.928.005-2.535.835-3.932 2.208-3.932 1.367 0 2.202 1.397 2.202 3.932 0 2.546-.83 3.928-2.202 3.928zm9.037 1.297c2.078 0 3.604-1.243 3.6-2.933.005-1.288-.775-2.212-2.128-2.42v-.08c1.064-.273 1.755-1.108 1.75-2.252.005-1.496-1.223-2.774-3.182-2.774-1.87 0-3.37 1.13-3.42 2.784h1.486c.035-.935.915-1.5 1.915-1.5 1.04 0 1.72.63 1.715 1.57.005.984-.786 1.63-1.914 1.63h-.86v1.253h.86c1.412 0 2.227.716 2.227 1.74 0 1-.86 1.66-2.058 1.66-1.104 0-1.964-.567-2.024-1.472h-1.56c.065 1.66 1.536 2.794 3.595 2.794z" class="B"/><path d="M515 150a10 10 0 1 1-20 0 10 10 0 1 1 20 0z" fill="#f4fbf7"/><g fill="#20af5d"><path d="M505 140.417c-5.293 0-9.583 4.3-9.583 9.583s4.3 9.583 9.583 9.583 9.583-4.3 9.583-9.583-4.3-9.583-9.583-9.583zM494.583 150A10.42 10.42 0 0 1 505 139.583 10.42 10.42 0 0 1 515.417 150 10.42 10.42 0 0 1 505 160.417 10.42 10.42 0 0 1 494.583 150z" class="C"/><path d="M506.527 150.89l-1.286-3.332-.12-.343-.12-.423c-.08.31-.162.566-.245.772l-1.286 3.326h3.057zm2.31 3.04h-.858c-.1 0-.18-.025-.24-.075s-.106-.112-.137-.188l-.765-1.977h-3.675l-.765 1.977a.41.41 0 0 1-.132.183c-.065.053-.145.08-.24.08h-.857l3.274-8.19h1.12l3.275 8.19z"/></g><path d="M407.88 155v-8h2.85c.623 0 1.138.113 1.547.34a2.2 2.2 0 0 1 .918.93c.203.4.305.83.305 1.32s-.103.935-.31 1.328-.5.7-.92.93-.924.34-1.543.34h-1.96v-1.024h1.85c.393 0 .712-.068.957-.203a1.27 1.27 0 0 0 .539-.563c.115-.237.172-.506.172-.808s-.057-.57-.172-.805a1.23 1.23 0 0 0-.543-.551c-.244-.132-.567-.2-.968-.2h-1.516V155h-1.207zm6.942 0v-6h1.168v6h-1.168zm.6-6.926a.74.74 0 0 1-.523-.203c-.144-.138-.215-.302-.215-.492a.65.65 0 0 1 .215-.492c.146-.138.32-.207.523-.207s.376.07.52.207.218.3.218.492-.073.354-.218.492a.73.73 0 0 1-.52.203zm4.735 7.047c-.59 0-1.1-.126-1.527-.38a2.57 2.57 0 0 1-.984-1.074c-.23-.464-.344-1.007-.344-1.63 0-.615.115-1.156.344-1.625s.554-.835.97-1.098.903-.394 1.46-.394a2.94 2.94 0 0 1 .985.168 2.38 2.38 0 0 1 .855.527c.253.24.452.55.598.934s.22.842.22 1.386v.415h-4.77v-.875h3.625c0-.308-.062-.58-.187-.817a1.42 1.42 0 0 0-.528-.566c-.224-.138-.487-.207-.79-.207a1.52 1.52 0 0 0-.859.242 1.63 1.63 0 0 0-.563.625c-.13.255-.195.532-.195.832v.684c0 .4.07.742.21 1.023s.342.496.598.644.553.22.894.22c.222 0 .423-.03.606-.094s.34-.16.472-.29.235-.285.305-.472l1.105.2a1.99 1.99 0 0 1-.476.855c-.227.243-.512.43-.856.567s-.73.2-1.168.2zm6.117-.004c-.485 0-.917-.124-1.297-.37s-.675-.605-.89-1.066-.32-1.02-.32-1.668.108-1.203.324-1.664.518-.814.9-1.06.81-.367 1.293-.367c.372 0 .67.062.898.187s.406.266.53.43.227.31.297.434h.07V147h1.168v8h-1.14v-.934h-.098a3.03 3.03 0 0 1-.305.438c-.13.164-.3.307-.54.43s-.526.183-.9.183zm.258-.996c.335 0 .62-.088.85-.266s.412-.428.53-.746.184-.687.184-1.11-.06-.78-.18-1.094-.295-.556-.527-.73-.518-.262-.86-.262c-.352 0-.645.09-.88.274s-.412.43-.532.746-.175.67-.175 1.066c0 .4.06.762.18 1.082s.297.574.532.762.528.277.875.277zm7.386.88v-8h2.852c.622 0 1.138.113 1.547.34a2.2 2.2 0 0 1 .918.93c.203.4.304.83.304 1.32s-.103.935-.308 1.328-.51.7-.922.93-.923.34-1.543.34h-1.96v-1.024h1.852c.393 0 .712-.068.957-.203s.424-.326.54-.563a1.84 1.84 0 0 0 .171-.808 1.82 1.82 0 0 0-.171-.805 1.24 1.24 0 0 0-.543-.551c-.245-.132-.568-.2-.97-.2h-1.516V155h-1.207zm6.943 0v-6h1.168v6h-1.168zm.59-6.926a.74.74 0 0 1-.523-.203.66.66 0 0 1-.215-.492.65.65 0 0 1 .215-.492c.146-.138.32-.207.523-.207a.72.72 0 0 1 .52.207c.146.135.22.3.22.492s-.073.354-.22.492-.316.203-.52.203zm2.15 9.176V149h1.14v.973h.098a3.35 3.35 0 0 1 .293-.434c.128-.164.305-.307.53-.43s.526-.187.9-.187c.484 0 .916.122 1.297.367s.678.598.894 1.06.328 1.015.328 1.664-.108 1.204-.324 1.668-.513.816-.89 1.066-.808.37-1.292.37c-.365 0-.663-.06-.895-.183s-.41-.266-.54-.43a3.22 3.22 0 0 1-.301-.438h-.07v3.184h-1.168zm1.144-5.25c0 .422.062.792.184 1.11s.3.567.53.746.516.266.852.266c.35 0 .64-.092.875-.277a1.73 1.73 0 0 0 .531-.762 3.02 3.02 0 0 0 .184-1.082c0-.396-.06-.75-.18-1.066s-.294-.564-.53-.746-.528-.274-.88-.274c-.34 0-.625.087-.86.262s-.407.418-.527.73-.18.677-.18 1.094zm8.23 3.12c-.59 0-1.1-.126-1.527-.38s-.753-.613-.985-1.074-.344-1.007-.344-1.63c0-.615.115-1.156.344-1.625a2.67 2.67 0 0 1 .969-1.098c.417-.263.904-.394 1.46-.394.338 0 .667.056.984.168s.603.288.856.527.452.55.597.934.22.842.22 1.386v.415h-4.77v-.875h3.625c0-.308-.063-.58-.188-.817s-.3-.428-.527-.566-.487-.207-.79-.207c-.328 0-.615.08-.86.242s-.43.367-.562.625-.196.532-.196.832v.684c0 .4.07.742.21 1.023a1.53 1.53 0 0 0 .598.644c.255.146.553.22.895.22a1.84 1.84 0 0 0 .605-.094c.182-.065.34-.16.473-.29s.234-.285.304-.472l1.106.2a2 2 0 0 1-.477.855 2.3 2.3 0 0 1-.855.567c-.34.133-.73.2-1.168.2zm3.87-.12v-6h1.13v.953h.062a1.45 1.45 0 0 1 .579-.762c.278-.187.593-.28.945-.28l.258.008.238.02v1.118a1.97 1.97 0 0 0-.25-.043c-.12-.02-.24-.028-.36-.028a1.53 1.53 0 0 0-.739.176c-.213.115-.383.275-.508.48a1.3 1.3 0 0 0-.187.695V155h-1.168z" class="B"/><circle cx="395" cy="151" r="4" fill="#1757c2"/><path d="M524.322 188h1.606l4.43-8.82v-1.362h-6.732v1.318h5.14v.074l-4.445 8.8zm7.765 0h6.702v-1.317h-4.584v-.075l2.023-2.118c1.865-1.884 2.396-2.784 2.396-3.923 0-1.635-1.332-2.888-3.25-2.888-1.904 0-3.296 1.233-3.296 3.092h1.467c-.005-1.093.7-1.81 1.8-1.81 1.034 0 1.82.636 1.82 1.65 0 .9-.537 1.546-1.63 2.705l-3.445 3.57V188zm12.45-10.182h-1.497l-2.54 1.66v1.47l2.436-1.59h.06V188h1.542v-10.182z" class="B"/><path d="M515 182a10 10 0 1 1-20 0 10 10 0 1 1 20 0z" fill="#f9fcf5"/><g fill="#90ca2f"><path d="M505 172.417c-5.293 0-9.583 4.3-9.583 9.583s4.3 9.583 9.583 9.583 9.583-4.3 9.583-9.583-4.3-9.583-9.583-9.583zM494.583 182A10.42 10.42 0 0 1 505 171.583 10.42 10.42 0 0 1 515.417 182 10.42 10.42 0 0 1 505 192.417 10.42 10.42 0 0 1 494.583 182z" class="C"/><path d="M505.226 185.05c.316 0 .588-.037.817-.11s.415-.173.56-.303.257-.29.326-.468a1.71 1.71 0 0 0 .103-.6c0-.423-.15-.757-.452-1s-.752-.372-1.354-.372h-1.772v2.852h1.772zm-1.772-6.435v2.795h1.463c.313 0 .583-.035.812-.103a1.61 1.61 0 0 0 .571-.286c.153-.122.265-.27.337-.44a1.47 1.47 0 0 0 .109-.571c0-.484-.145-.837-.434-1.058s-.74-.337-1.35-.337h-1.51zm1.51-.874c.503 0 .935.05 1.297.15s.665.24.897.422a1.63 1.63 0 0 1 .52.675c.11.263.166.56.166.89a1.76 1.76 0 0 1-.097.583 1.69 1.69 0 0 1-.28.514 2.07 2.07 0 0 1-.48.435c-.19.125-.415.228-.674.308.6.114 1.053.33 1.354.646s.457.724.457 1.234a2.28 2.28 0 0 1-.194.949 2.01 2.01 0 0 1-.56.737c-.244.206-.545.366-.903.48s-.766.166-1.223.166h-2.89v-8.19h2.61z"/></g><path d="M407.88 187h1.207v-2.812h1.64c1.855 0 2.773-1.122 2.773-2.598s-.9-2.6-2.77-2.6h-2.85v8zm1.207-3.836v-3.13h1.516c1.195 0 1.683.65 1.683 1.555s-.488 1.574-1.668 1.574h-1.53zM414.82 187h1.168v-6h-1.168v6zm.6-6.926c.402 0 .738-.312.738-.695s-.336-.7-.738-.7-.738.316-.738.7.332.695.738.695zm2.15 9.176h1.168v-3.184h.07c.21.383.64 1.05 1.734 1.05 1.453 0 2.508-1.164 2.508-3.105s-1.07-3.1-2.52-3.1c-1.113 0-1.515.68-1.722 1.05h-.098V181h-1.14v8.25zm1.144-5.25c0-1.254.547-2.086 1.566-2.086 1.06 0 1.6.895 1.6 2.086 0 1.203-.547 2.12-1.6 2.12-1.003 0-1.566-.86-1.566-2.12zm8.23 3.12c1.308 0 2.234-.644 2.5-1.62l-1.106-.2c-.21.566-.72.855-1.383.855-1 0-1.672-.648-1.703-1.804h4.266v-.415c0-2.167-1.297-3.015-2.656-3.015-1.672 0-2.774 1.273-2.774 3.117 0 1.863 1.086 3.082 2.856 3.082zm-1.688-3.644c.047-.852.664-1.6 1.613-1.6.907 0 1.5.672 1.504 1.6h-3.117zm5.558 3.523h1.168v-3.664c0-.785.605-1.352 1.433-1.352a2.72 2.72 0 0 1 .61.071v-1.118c-.118-.015-.348-.027-.496-.027-.704 0-1.305.4-1.524 1.043h-.062V181h-1.13v6zm10.96-5.398c-.274-1.71-1.614-2.71-3.305-2.71-2.07 0-3.598 1.55-3.598 4.11s1.52 4.11 3.598 4.11c1.758 0 3.043-1.1 3.305-2.683l-1.22-.004c-.207 1.023-1.067 1.586-2.078 1.586-1.37 0-2.407-1.05-2.407-3.008 0-1.94 1.032-3.008 2.41-3.008 1.02 0 1.875.574 2.074 1.6h1.22zm2.518 1.835c0-.957.606-1.503 1.438-1.503.804 0 1.285.51 1.285 1.4V187h1.168v-3.816c0-1.497-.82-2.262-2.055-2.262-.933 0-1.496.406-1.777 1.055h-.074V179h-1.153v8h1.168v-3.563zm7.195 3.696c.993 0 1.55-.504 1.774-.953h.047v.82h1.14v-3.984c0-1.746-1.375-2.094-2.328-2.094-1.086 0-2.086.437-2.476 1.53l1.097.25c.172-.426.6-.836 1.395-.836.754 0 1.14.395 1.14 1.074v.028c0 .426-.438.418-1.516.543-1.137.133-2.3.43-2.3 1.793 0 1.18.887 1.828 2.027 1.828zm.254-.938c-.66 0-1.136-.297-1.136-.875 0-.625.554-.847 1.23-.937.38-.05 1.277-.153 1.445-.32v.774c0 .71-.566 1.36-1.54 1.36zm7.064-5.195h-1.23v-1.438h-1.168V181h-.878v.937h.878v3.543c-.003 1.1.83 1.618 1.75 1.598.372-.004.622-.074.758-.125l-.21-.965c-.078.016-.222.05-.4.05-.38 0-.72-.125-.72-.8v-3.3h1.23V181z" class="B"/><circle cx="395" cy="183" r="4" fill="#1ea7ff"/><path d="M527.34 220.14c2.048 0 3.5-1.447 3.505-3.43.005-1.97-1.367-3.4-3.22-3.4-.756 0-1.457.29-1.855.676h-.06l.323-2.848h4.32v-1.318h-5.598l-.572 5.13 1.407.21c.383-.343 1.07-.577 1.686-.577 1.208.01 2.083.915 2.083 2.158 0 1.223-.85 2.108-2.02 2.108-.984 0-1.765-.627-1.844-1.502h-1.492c.06 1.62 1.467 2.794 3.336 2.794zm5.32-.14h6.702v-1.317h-4.584v-.075l2.023-2.118c1.865-1.884 2.397-2.784 2.397-3.923 0-1.635-1.333-2.888-3.252-2.888-1.904 0-3.296 1.233-3.296 3.092h1.467c-.005-1.093.7-1.81 1.8-1.81 1.035 0 1.82.636 1.82 1.65 0 .9-.537 1.546-1.63 2.705l-3.445 3.57V220zm8.153-1.99h4.828V220h1.466v-1.99h1.348v-1.302h-1.348v-6.89h-1.894l-4.4 6.95v1.243zm4.838-1.302h-3.227v-.08l3.147-4.98h.08v5.06z" class="B"/><path d="M515 214a10 10 0 1 1-20 0 10 10 0 1 1 20 0z" fill="#fffcf3"/><g fill="#fdc106"><path d="M505 204.417c-5.293 0-9.583 4.3-9.583 9.583s4.3 9.583 9.583 9.583 9.583-4.3 9.583-9.583-4.3-9.583-9.583-9.583zM494.583 214A10.42 10.42 0 0 1 505 203.583 10.42 10.42 0 0 1 515.417 214 10.42 10.42 0 0 1 505 224.417 10.42 10.42 0 0 1 494.583 214z" class="C"/><path d="M507.978 216.237c.06 0 .114.025.16.075l.44.474c-.336.388-.743.69-1.223.908s-1.054.326-1.732.326c-.586 0-1.12-.1-1.6-.303s-.89-.49-1.228-.857-.602-.81-.79-1.326-.28-1.08-.28-1.697a4.75 4.75 0 0 1 .292-1.697c.194-.514.466-.956.817-1.326a3.67 3.67 0 0 1 1.268-.857c.492-.205 1.035-.308 1.63-.308.583 0 1.097.093 1.543.28a3.88 3.88 0 0 1 1.177.76l-.366.508a.31.31 0 0 1-.091.097c-.035.023-.082.035-.143.035-.07 0-.153-.037-.252-.11s-.228-.16-.388-.25-.36-.174-.6-.246-.535-.114-.886-.114c-.423 0-.81.074-1.16.223a2.52 2.52 0 0 0-.908.634c-.252.278-.448.617-.59 1.017s-.21.85-.21 1.354c0 .51.072.966.217 1.366s.348.74.6 1.017a2.59 2.59 0 0 0 .897.629 2.89 2.89 0 0 0 1.12.217 4.97 4.97 0 0 0 .657-.04 2.8 2.8 0 0 0 .543-.137 2.27 2.27 0 0 0 .463-.229c.144-.095.287-.208.428-.337.065-.057.13-.086.195-.086z"/></g><path d="M407.88 219h1.207v-3.488h3.988V219h1.21v-8h-1.21v3.477h-3.988V211h-1.207v8zm10.598.12c1.69 0 2.796-1.238 2.796-3.094 0-1.867-1.105-3.105-2.796-3.105s-2.797 1.238-2.797 3.105c0 1.856 1.105 3.094 2.797 3.094zm.003-.98c-1.105 0-1.62-.965-1.62-2.118s.516-2.125 1.62-2.125c1.098 0 1.614.977 1.614 2.125s-.516 2.118-1.614 2.118zm6.624.98c1.692 0 2.797-1.238 2.797-3.094 0-1.867-1.105-3.105-2.797-3.105s-2.796 1.238-2.796 3.105c0 1.856 1.105 3.094 2.796 3.094zm.004-.98c-1.105 0-1.62-.965-1.62-2.118s.516-2.125 1.62-2.125c1.098 0 1.614.977 1.614 2.125s-.516 2.118-1.614 2.118zm5.265-7.14h-1.168v8h1.168v-8zm1.57 8h1.168v-6h-1.168v6zm.6-6.926c.403 0 .738-.312.738-.695s-.335-.7-.738-.7-.738.316-.738.7.332.695.738.695z" class="B"/><circle cx="395" cy="215" r="4" fill="#0d0a6e"/><path d="M42.358 45.455H40.51L45.852 60h1.818l5.34-14.545h-1.847L46.847 57.7h-.17l-4.318-12.244zm16.25 14.773c2.216 0 3.835-1.108 4.347-2.756l-1.62-.455c-.426 1.136-1.413 1.705-2.727 1.705-1.967 0-3.324-1.27-3.402-3.608h7.92v-.7c0-4.062-2.415-5.454-4.687-5.454-2.955 0-4.915 2.33-4.915 5.682s1.932 5.597 5.085 5.597zm-3.402-6.562c.114-1.697 1.314-3.2 3.23-3.2 1.818 0 2.983 1.364 2.983 3.2h-6.214zm12.145-.227c0-1.903 1.18-2.983 2.784-2.983 1.555 0 2.5 1.016 2.5 2.727V60h1.676v-6.932c0-2.784-1.484-4.12-3.693-4.12-1.648 0-2.67.74-3.182 1.847h-.142V49.09h-1.62V60h1.676v-6.562zm14.142 6.8c2.102 0 2.813-1.307 3.182-1.903h.2V60h1.62V45.455h-1.676v5.37h-.142c-.37-.568-1.023-1.875-3.153-1.875-2.756 0-4.66 2.188-4.66 5.625 0 3.466 1.903 5.653 4.63 5.653zm.227-1.506c-2.102 0-3.182-1.847-3.182-4.176 0-2.3 1.05-4.09 3.182-4.09 2.046 0 3.125 1.648 3.125 4.09 0 2.472-1.108 4.176-3.125 4.176zm12.507 1.506c2.955 0 4.943-2.244 4.943-5.625 0-3.41-1.99-5.653-4.943-5.653s-4.943 2.244-4.943 5.653c0 3.38 1.99 5.625 4.943 5.625zm0-1.506c-2.244 0-3.267-1.932-3.267-4.12s1.023-4.148 3.267-4.148 3.267 1.96 3.267 4.148-1.023 4.12-3.267 4.12zm7.5 1.278h1.677v-6.903c0-1.477 1.164-2.557 2.755-2.557a5.13 5.13 0 0 1 1.023.114V48.95l-.88-.028c-1.307 0-2.443.74-2.84 1.818h-.113V49.09h-1.62V60zm20.794-8.466c-.525-1.548-1.704-2.585-3.864-2.585-2.3 0-4.005 1.307-4.005 3.153 0 1.506.895 2.514 2.897 2.983l1.82.426c1.1.256 1.62.78 1.62 1.534 0 .938-.994 1.705-2.557 1.705-1.37 0-2.23-.6-2.528-1.76l-1.59.398c.4 1.854 1.917 2.84 4.148 2.84 2.535 0 4.26-1.385 4.26-3.267 0-1.52-.952-2.48-2.898-2.955l-1.62-.398c-1.293-.32-1.875-.753-1.875-1.59 0-.937.994-1.62 2.33-1.62 1.464 0 2.067.8 2.358 1.563l1.506-.426zm7.296 8.693c2.216 0 3.835-1.108 4.346-2.756l-1.62-.455c-.426 1.136-1.413 1.705-2.727 1.705-1.967 0-3.324-1.27-3.402-3.608h7.92v-.7c0-4.062-2.415-5.454-4.688-5.454-2.954 0-4.914 2.33-4.914 5.682s1.93 5.597 5.085 5.597zm-3.402-6.562c.114-1.697 1.314-3.2 3.23-3.2 1.82 0 2.983 1.364 2.983 3.2h-6.214zm14.9 6.563c2.415 0 4.006-1.477 4.3-3.41h-1.676c-.312 1.193-1.307 1.903-2.614 1.903-1.988 0-3.267-1.648-3.267-4.176 0-2.472 1.307-4.09 3.267-4.09 1.478 0 2.358.91 2.614 1.903h1.676c-.284-2.045-2.017-3.41-4.318-3.41-2.954 0-4.915 2.33-4.915 5.653 0 3.267 1.875 5.625 4.943 5.625zm13.616-4.687c0 2.045-1.563 2.983-2.813 2.983-1.392 0-2.386-1.023-2.386-2.614V49.09h-1.676v6.932c0 2.784 1.477 4.12 3.522 4.12 1.648 0 2.728-.88 3.24-1.99h.114V60h1.676V49.09h-1.676v6.45zM159.68 60h1.676v-6.903c0-1.477 1.165-2.557 2.755-2.557a5.12 5.12 0 0 1 1.023.114V48.95l-.88-.028c-1.306 0-2.443.74-2.84 1.818h-.114V49.09h-1.62V60zm7.44 0h1.676V49.09h-1.676V60zm.852-12.727c.654 0 1.193-.51 1.193-1.136S168.626 45 167.972 45s-1.193.51-1.193 1.136.54 1.136 1.193 1.136zm8.638 1.818h-2.33v-2.614h-1.676v2.614h-1.648v1.42h1.648v6.818c0 1.903 1.534 2.813 2.954 2.813.625 0 1.023-.114 1.25-.2l-.34-1.506c-.142.028-.37.085-.738.085-.74 0-1.45-.227-1.45-1.648V50.51h2.33v-1.42zm3.6 14.972c1.513 0 2.586-.803 3.21-2.472l4.644-12.472-1.832-.028-3.01 8.693h-.114l-3.01-8.693h-1.82l4.035 10.966-.313.852c-.597 1.633-1.364 1.8-2.585 1.477L179 63.864c.17.085.653.2 1.22.2zM195.91 60h1.676v-6.903c0-1.477 1.165-2.557 2.756-2.557a5.14 5.14 0 0 1 1.023.114V48.95l-.88-.028c-1.307 0-2.443.74-2.84 1.818h-.114V49.09h-1.62V60zm10.652.256c1.903 0 2.897-1.023 3.238-1.733h.086V60h1.676v-7.187c0-3.466-2.642-3.864-4.034-3.864-1.648 0-3.523.568-4.375 2.557l1.59.568c.37-.796 1.242-1.648 2.84-1.648 1.542 0 2.302.817 2.302 2.216v.057c0 .8-.824.74-2.813.994-2.024.263-4.233.7-4.233 3.2 0 2.13 1.648 3.352 3.722 3.352zm.255-1.506c-1.335 0-2.3-.597-2.3-1.76 0-1.278 1.165-1.676 2.472-1.847.7-.085 2.613-.284 2.898-.625v1.534c0 1.364-1.08 2.7-3.07 2.7zm12.548-9.66h-2.33v-2.614h-1.676v2.614h-1.648v1.42h1.648v6.818c0 1.903 1.534 2.813 2.954 2.813.625 0 1.023-.114 1.25-.2l-.34-1.506c-.142.028-.37.085-.738.085-.74 0-1.45-.227-1.45-1.648V50.51h2.33v-1.42zM221.886 60h1.676V49.09h-1.676V60zm.852-12.727c.653 0 1.193-.51 1.193-1.136S223.39 45 222.738 45s-1.193.51-1.193 1.136.54 1.136 1.193 1.136zm5.57 6.165c0-1.903 1.18-2.983 2.784-2.983 1.555 0 2.5 1.016 2.5 2.727V60h1.676v-6.932c0-2.784-1.484-4.12-3.693-4.12-1.648 0-2.67.74-3.182 1.847h-.142V49.09h-1.62V60h1.676v-6.562zm14.426 10.88c2.614 0 4.716-1.193 4.716-4.006V49.09h-1.62v1.733h-.17c-.37-.568-1.052-1.875-3.182-1.875-2.756 0-4.66 2.188-4.66 5.54 0 3.41 1.988 5.34 4.63 5.34 2.13 0 2.813-1.25 3.182-1.847h.142V60.2c0 1.818-1.278 2.642-3.04 2.642-1.98 0-2.677-1.044-3.125-1.648l-1.335.938c.682 1.143 2.024 2.188 4.46 2.188zm-.056-5.994c-2.103 0-3.182-1.59-3.182-3.864 0-2.216 1.05-4.006 3.182-4.006 2.045 0 3.125 1.648 3.125 4.006 0 2.415-1.108 3.864-3.125 3.864zm15.568-6.8c-.526-1.548-1.705-2.585-3.864-2.585-2.3 0-4.006 1.307-4.006 3.153 0 1.506.895 2.514 2.898 2.983l1.818.426c1.1.256 1.62.78 1.62 1.534 0 .938-.995 1.705-2.557 1.705-1.37 0-2.23-.6-2.53-1.76l-1.6.398c.4 1.854 1.917 2.84 4.147 2.84 2.536 0 4.262-1.385 4.262-3.267 0-1.52-.952-2.48-2.898-2.955l-1.62-.398c-1.293-.32-1.875-.753-1.875-1.59 0-.937.994-1.62 2.33-1.62 1.463 0 2.067.8 2.358 1.563l1.506-.426zm12.78 8.693c2.954 0 4.943-2.244 4.943-5.625 0-3.41-1.99-5.653-4.943-5.653s-4.944 2.244-4.944 5.653c0 3.38 1.99 5.625 4.944 5.625zm0-1.506c-2.245 0-3.268-1.932-3.268-4.12s1.023-4.148 3.268-4.148 3.267 1.96 3.267 4.148-1.023 4.12-3.267 4.12zm16.03-9.63h-1.818l-3.01 8.693h-.114l-3.01-8.693h-1.82L281.317 60h1.705l4.034-10.91zm6.396 11.136c2.216 0 3.835-1.108 4.346-2.756l-1.62-.455c-.426 1.136-1.413 1.705-2.727 1.705-1.968 0-3.324-1.27-3.402-3.608h7.92v-.7c0-4.062-2.415-5.454-4.688-5.454-2.954 0-4.915 2.33-4.915 5.682s1.932 5.597 5.086 5.597zm-3.402-6.562c.113-1.697 1.314-3.2 3.23-3.2 1.818 0 2.983 1.364 2.983 3.2h-6.214zM300.518 60h1.677v-6.903c0-1.477 1.164-2.557 2.755-2.557a5.13 5.13 0 0 1 1.023.114V48.95l-.88-.028c-1.306 0-2.443.74-2.84 1.818h-.113V49.09h-1.62V60zm17.81-10.91H316v-2.614h-1.676v2.614h-1.648v1.42h1.648v6.818c0 1.903 1.534 2.813 2.954 2.813.625 0 1.023-.114 1.25-.2l-.34-1.506c-.142.028-.37.085-.738.085-.74 0-1.45-.227-1.45-1.648V50.51h2.33v-1.42zM320.85 60h1.677V49.09h-1.677V60zm.853-12.727c.653 0 1.193-.51 1.193-1.136S322.356 45 321.703 45s-1.193.51-1.193 1.136.54 1.136 1.193 1.136zM325.597 60h1.676v-6.818c0-1.598 1.165-2.727 2.47-2.727 1.272 0 2.16.83 2.16 2.074V60h1.705v-7.102c0-1.406.88-2.443 2.415-2.443 1.193 0 2.216.632 2.216 2.244V60h1.676v-7.3c0-2.564-1.378-3.75-3.324-3.75-1.563 0-2.706.717-3.267 1.847h-.114c-.54-1.165-1.49-1.847-2.926-1.847-1.42 0-2.472.682-2.926 1.847h-.142V49.09h-1.62V60zm21.956.227c2.216 0 3.835-1.108 4.347-2.756l-1.62-.455c-.427 1.136-1.414 1.705-2.728 1.705-1.967 0-3.324-1.27-3.402-3.608h7.92v-.7c0-4.062-2.414-5.454-4.687-5.454-2.955 0-4.915 2.33-4.915 5.682s1.932 5.597 5.085 5.597zm-3.402-6.562c.114-1.697 1.314-3.2 3.232-3.2 1.818 0 2.983 1.364 2.983 3.2h-6.215z" class="B"/><defs><filter id="A" x="354" y="116" width="233" height="150" filterUnits="userSpaceOnUse" color-interpolation-filters="sRGB"><feFlood flood-opacity="0" result="A"/><feColorMatrix in="SourceAlpha" values="0 0 0 0 0 0 0 0 0 0 0 0 0 0 0 0 0 0 127 0"/><feOffset dy="4"/><feGaussianBlur stdDeviation="3"/><feColorMatrix values="0 0 0 0 0.25098 0 0 0 0 0.27451 0 0 0 0 0.407843 0 0 0 0.05 0"/><feBlend in2="A" result="B"/><feColorMatrix in="SourceAlpha" values="0 0 0 0 0 0 0 0 0 0 0 0 0 0 0 0 0 0 127 0"/><feOffset dy="10"/><feGaussianBlur stdDeviation="7.5"/><feColorMatrix values="0 0 0 0 0.25098 0 0 0 0 0.27451 0 0 0 0 0.407843 0 0 0 0.1 0"/><feBlend in2="B"/><feBlend in="SourceGraphic"/></filter><linearGradient id="B" x1="362.5" y1="191" x2="362.5" y2="395" gradientUnits="userSpaceOnUse"><stop stop-color="#1ea7ff"/><stop offset="1" stop-color="#1ea7ff" stop-opacity="0"/></linearGradient><linearGradient id="C" x1="362.5" y1="235" x2="362.468" y2="373" gradientUnits="userSpaceOnUse"><stop stop-color="#0d0a6e"/><stop offset="1" stop-color="#0d0a6e" stop-opacity="0"/></linearGradient><linearGradient id="D" x1="362.5" y1="113" x2="362.5" y2="368" gradientUnits="userSpaceOnUse"><stop stop-color="#1757c2"/><stop offset="1" stop-color="#1757c2" stop-opacity="0"/></linearGradient><clipPath id="E"><path fill="#fff" transform="translate(43 96)" d="M0 0h592v237H0z"/></clipPath></defs></svg>