<svg xmlns="http://www.w3.org/2000/svg" xmlns:xlink="http://www.w3.org/1999/xlink" width="672" height="414" fill="none" xmlns:v="https://vecta.io/nano"><path fill="#fff" d="M0 0h672v414H0z"/><path stroke="#ecedf3" d="M40 229.5h592"/><path d="M40.96 213v-8.727h5.412v1.133h-4.095v2.66h3.707v1.13h-3.707V213H40.96zm7.93 0v-6.545h1.274V213H48.9zm.643-7.555a.81.81 0 0 1-.571-.222.72.72 0 0 1-.234-.537c0-.2.078-.4.234-.537a.81.81 0 0 1 .57-.226.79.79 0 0 1 .567.226c.16.148.24.327.24.537a.71.71 0 0 1-.24.537c-.16.15-.345.222-.567.222zm4.62 3.67V213H52.88v-6.545h1.22v1.065h.08c.15-.347.386-.625.707-.835s.732-.316 1.223-.316c.446 0 .837.094 1.172.282s.595.46.78.826.277.82.277 1.36V213h-1.274v-4c0-.474-.124-.845-.37-1.112s-.587-.405-1.018-.405a1.59 1.59 0 0 0-.788.192 1.38 1.38 0 0 0-.541.562c-.13.245-.196.54-.196.887zm9.348 4.014c-.528 0-1-.135-1.415-.405s-.736-.66-.972-1.163-.35-1.113-.35-1.82.118-1.312.354-1.815.565-.888.98-1.155a2.55 2.55 0 0 1 1.41-.401c.406 0 .733.07.98.205s.443.3.58.47.247.336.324.473h.077v-3.243h1.274V213H65.5v-1.018h-.1c-.077.14-.187.298-.332.477s-.338.335-.588.47-.574.2-.972.2zm.28-1.087c.367 0 .676-.096.93-.3s.45-.467.58-.813.2-.75.2-1.2c0-.454-.065-.852-.196-1.193s-.322-.606-.575-.797-.565-.285-.937-.285c-.383 0-.703.1-.96.298s-.45.47-.58.814-.192.73-.192 1.163.065.83.196 1.18.324.626.58.83.577.302.955.302zm5.78.96v-6.545h1.274V213H69.56zm.643-7.555a.81.81 0 0 1-.571-.222.72.72 0 0 1-.234-.537c0-.2.078-.4.234-.537a.81.81 0 0 1 .57-.226.79.79 0 0 1 .567.226c.16.148.24.327.24.537a.71.71 0 0 1-.24.537c-.16.15-.345.222-.567.222zm4.62 3.67V213H73.55v-6.545h1.223v1.065h.08c.15-.347.386-.625.707-.835s.732-.316 1.223-.316c.446 0 .837.094 1.172.282s.595.46.78.826.277.82.277 1.36V213h-1.274v-4c0-.474-.124-.845-.37-1.112s-.587-.405-1.018-.405a1.59 1.59 0 0 0-.788.192 1.38 1.38 0 0 0-.541.562 1.86 1.86 0 0 0-.196.887zm9.642 6.464c-.52 0-.967-.068-1.342-.204s-.676-.317-.912-.542a2.25 2.25 0 0 1-.528-.724l1.095-.452a2.9 2.9 0 0 0 .307.388 1.59 1.59 0 0 0 .528.358c.22.098.513.15.865.15.483 0 .882-.116 1.198-.35s.473-.603.473-1.108V211.8h-.08a2.89 2.89 0 0 1-.332.464c-.142.17-.338.318-.588.443s-.575.188-.976.188a2.73 2.73 0 0 1-1.398-.362c-.412-.245-.74-.604-.98-1.078s-.358-1.064-.358-1.76.118-1.293.354-1.8.565-.878.98-1.142a2.55 2.55 0 0 1 1.41-.401c.406 0 .734.07.984.205a1.79 1.79 0 0 1 .584.469 3.69 3.69 0 0 1 .328.473h.094v-1.06h1.25v6.7c0 .557-.13 1.014-.392 1.372a2.32 2.32 0 0 1-1.06.8c-.445.172-.943.26-1.5.26zm-.013-3.733c.367 0 .676-.085.93-.256a1.59 1.59 0 0 0 .58-.741c.133-.324.2-.712.2-1.163 0-.44-.065-.828-.196-1.164s-.322-.596-.575-.784-.565-.285-.937-.285c-.383 0-.703.1-.96.298a1.8 1.8 0 0 0-.58.801c-.128.338-.192.716-.192 1.134 0 .43.065.805.196 1.13a1.66 1.66 0 0 0 .58.758c.256.18.577.273.955.273zm18.247-1.26l-3.333 3.32a.53.53 0 0 1-.373.16.53.53 0 0 1-.373-.16l-3.333-3.32a.537.537 0 1 1 .76-.76l2.427 2.413v-7.773c0-.294.24-.534.533-.534s.533.24.533.534v7.786l2.427-2.413a.53.53 0 0 1 .76 0c.186.2.186.533-.027.747z" fill="#5d6598"/><g clip-path="url(#A)"><path d="M322.207 207.11h-1.33c-.05-.284-.146-.534-.286-.75s-.31-.4-.51-.55a2.23 2.23 0 0 0-.678-.341c-.247-.077-.5-.115-.788-.115-.503 0-.953.127-1.35.38s-.707.624-.937 1.113-.34 1.085-.34 1.79c0 .71.113 1.3.34 1.8s.544.858.94 1.108.846.375 1.343.375a2.72 2.72 0 0 0 .784-.111 2.25 2.25 0 0 0 .677-.337 2.06 2.06 0 0 0 .512-.541c.142-.216.24-.463.294-.74l1.33.004a3.54 3.54 0 0 1-.413 1.184 3.27 3.27 0 0 1-.78.929c-.315.26-.676.46-1.082.6s-.85.213-1.33.213c-.755 0-1.43-.18-2.02-.537s-1.056-.876-1.397-1.546-.507-1.47-.507-2.4.17-1.73.51-2.4.807-1.184 1.398-1.542 1.262-.542 2.015-.542c.463 0 .895.067 1.296.2a3.42 3.42 0 0 1 1.086.579c.32.253.587.563.797.93s.353.78.426 1.25zm4.38 6.034c-.415 0-.8-.077-1.125-.23s-.6-.382-.797-.678-.3-.657-.3-1.086c0-.37.07-.674.213-.912a1.57 1.57 0 0 1 .575-.567c.242-.14.512-.244.8-.315s.602-.125.912-.162l.954-.11c.245-.03.422-.08.533-.15s.166-.18.166-.333v-.03c0-.372-.105-.66-.315-.865s-.517-.306-.93-.306c-.43 0-.767.095-1.014.285s-.414.396-.507.626l-1.198-.272c.142-.398.35-.72.622-.963s.593-.426.95-.537.734-.17 1.13-.17c.26 0 .538.032.83.094s.57.17.827.332.47.394.635.695.247.686.247 1.163V213h-1.245v-.895h-.05c-.082.165-.206.327-.37.486s-.377.29-.635.396a2.47 2.47 0 0 1-.929.158zm.277-1.023c.352 0 .653-.07.903-.21s.445-.32.575-.545a1.41 1.41 0 0 0 .201-.729v-.844c-.046.046-.134.09-.265.128a3.94 3.94 0 0 1-.439.098l-.48.073-.392.05a3.15 3.15 0 0 0-.678.158c-.2.073-.363.18-.486.32s-.178.318-.178.546c0 .315.116.554.35.716s.53.238.89.238zm8.705-5.667v1.022h-3.575v-1.022h3.575zm-2.616-1.57h1.274v6.192c0 .247.037.433.11.558a.58.58 0 0 0 .285.252 1.16 1.16 0 0 0 .388.064 1.41 1.41 0 0 0 .268-.022l.18-.034.23 1.053a2.14 2.14 0 0 1-.316.085c-.136.03-.307.048-.51.05-.335.006-.648-.054-.938-.18s-.524-.318-.703-.58-.268-.6-.268-.985v-6.456zm7.776 8.246c-.645 0-1.2-.138-1.666-.413s-.82-.67-1.074-1.172-.375-1.098-.375-1.777c0-.67.125-1.26.375-1.773s.605-.9 1.057-1.197.986-.43 1.594-.43a3.19 3.19 0 0 1 1.074.184c.346.122.657.313.933.575s.493.6.652 1.018.24.92.24 1.513v.452h-5.204v-.955h3.955a1.87 1.87 0 0 0-.205-.89c-.136-.262-.328-.468-.575-.618s-.53-.226-.86-.226c-.358 0-.67.088-.937.264s-.47.4-.614.682-.213.58-.213.908v.745c0 .438.077.8.23 1.117a1.67 1.67 0 0 0 .652.703c.28.16.604.24.976.24.242 0 .462-.035.66-.103s.37-.176.515-.315a1.37 1.37 0 0 0 .333-.516l1.206.218a2.19 2.19 0 0 1-.52.933c-.247.264-.56.47-.934.618s-.796.217-1.274.217zm7.967 2.446c-.52 0-.968-.068-1.343-.204s-.676-.317-.912-.542-.412-.463-.528-.724l1.095-.452c.077.12.18.25.307.388s.307.26.528.358.513.15.865.15c.483 0 .882-.116 1.198-.35s.473-.603.473-1.108v-1.287h-.08a2.91 2.91 0 0 1-.333.464c-.142.17-.338.318-.588.443s-.575.188-.975.188c-.517 0-.983-.12-1.398-.362s-.74-.604-.98-1.078-.358-1.064-.358-1.76.118-1.293.353-1.8.566-.878.98-1.142.885-.4 1.4-.4c.406 0 .734.07.984.205s.445.3.584.47.252.336.328.473h.094v-1.06h1.25v6.7c0 .557-.13 1.014-.392 1.372s-.615.628-1.06.8-.944.26-1.5.26zm-.013-3.733c.366 0 .676-.085.93-.256s.45-.42.58-.74.2-.712.2-1.163c0-.44-.066-.828-.196-1.164s-.323-.596-.576-.784-.565-.285-.937-.285c-.384 0-.703.1-.96.298a1.8 1.8 0 0 0-.58.801c-.127.338-.19.716-.19 1.134 0 .43.065.805.196 1.13s.324.577.58.758.577.273.955.273zm8.432 1.287c-.614 0-1.15-.14-1.607-.422s-.812-.674-1.065-1.18-.38-1.097-.38-1.773.127-1.273.38-1.78.608-.904 1.065-1.185.993-.422 1.607-.422 1.15.14 1.606.422.813.676 1.066 1.185.38 1.102.38 1.78-.127 1.267-.38 1.773-.608.9-1.066 1.18-.993.422-1.606.422zm.004-1.07c.398 0 .727-.105.99-.315s.454-.5.58-.84a3.34 3.34 0 0 0 .192-1.155c0-.418-.064-.8-.192-1.15s-.318-.635-.58-.848-.59-.32-.99-.32-.733.106-.997.32-.456.496-.584.848-.188.733-.188 1.15.063.805.188 1.155.322.63.584.84.596.315.997.315zm5.47.938v-6.545h1.232v1.04h.068a1.58 1.58 0 0 1 .63-.831 1.81 1.81 0 0 1 1.032-.306l.28.008.26.02v1.22a2.3 2.3 0 0 0-.273-.047c-.13-.02-.26-.03-.392-.03-.3 0-.57.064-.805.192s-.418.3-.554.524-.205.475-.205.76V213h-1.274zm6.6 2.438a2.68 2.68 0 0 1-.52-.047c-.156-.03-.273-.06-.35-.094l.307-1.044c.35.096.642.104.877.02s.44-.33.6-.754l.158-.435-2.395-6.63h1.364l1.657 5.08h.07l1.657-5.08 1.377.012-2.706 7.407a2.89 2.89 0 0 1-.478.856c-.193.233-.423.41-.7.53s-.577.18-.93.18z" fill="#5d6598"/></g><g clip-path="url(#B)"><path d="M236.96 213v-8.727h3.11c.676 0 1.237.116 1.683.35s.784.556 1.006.967.332.883.332 1.42-.112 1.004-.337 1.4a2.27 2.27 0 0 1-1.005.942c-.446.224-1.008.336-1.684.336h-2.356v-1.133h2.237c.426 0 .773-.06 1.04-.183a1.21 1.21 0 0 0 .592-.533c.125-.233.188-.513.188-.84s-.064-.616-.192-.857-.323-.426-.592-.554-.618-.196-1.053-.196h-1.653V213h-1.317zm4.308-3.938l2.156 3.938h-1.5l-2.113-3.938h1.457zM245.59 213v-6.545h1.274V213h-1.274zm.643-7.555a.81.81 0 0 1-.571-.222c-.156-.15-.234-.33-.234-.537s.078-.39.234-.537.35-.226.57-.226a.79.79 0 0 1 .567.226c.16.148.24.327.24.537s-.08.386-.24.537-.345.222-.567.222zm8.25 2.608l-1.155.204c-.048-.148-.125-.288-.23-.422s-.24-.243-.418-.328-.396-.128-.66-.128c-.36 0-.662.08-.903.243s-.363.365-.363.618a.65.65 0 0 0 .243.528c.162.134.424.243.784.33l1.04.238c.602.14 1.05.354 1.347.644s.443.666.443 1.13c0 .392-.114.74-.34 1.048s-.538.543-.942.716-.865.26-1.393.26c-.733 0-1.33-.156-1.794-.47s-.747-.762-.853-1.342l1.232-.187c.077.32.234.563.473.728s.55.243.933.243c.418 0 .752-.087 1.002-.26s.375-.4.375-.643a.67.67 0 0 0-.23-.516c-.15-.14-.383-.244-.695-.315l-1.108-.243c-.61-.14-1.063-.36-1.355-.665s-.435-.69-.435-1.155a1.65 1.65 0 0 1 .324-1.014c.216-.3.514-.516.895-.678s.817-.247 1.308-.247c.708 0 1.264.154 1.67.46a2.14 2.14 0 0 1 .805 1.223zm3.7 2.727l-.01-1.556h.222l2.608-2.77h1.525l-2.974 3.153h-.2l-1.172 1.172zm-1.172 2.22v-8.727h1.274V213h-1.274zm4.133 0l-2.343-3.11.877-.9 3.03 4h-1.564z" fill="#5d6598"/></g><path d="M486.722 204.273l2.43 7.108h.098l2.43-7.108h1.423L489.96 213h-1.52l-3.14-8.727h1.424zm10.702 8.86c-.645 0-1.2-.138-1.667-.413a2.8 2.8 0 0 1-1.073-1.172c-.25-.506-.375-1.098-.375-1.777 0-.67.125-1.26.375-1.773a2.91 2.91 0 0 1 1.056-1.197c.455-.287.986-.43 1.594-.43a3.19 3.19 0 0 1 1.074.184 2.58 2.58 0 0 1 .933.575c.276.26.493.6.652 1.018s.24.92.24 1.513v.452h-5.203v-.955h3.954c0-.335-.068-.632-.204-.9a1.54 1.54 0 0 0-.576-.618c-.244-.15-.53-.226-.86-.226-.358 0-.67.088-.938.264s-.47.4-.613.682a1.97 1.97 0 0 0-.214.908v.745c0 .438.077.8.23 1.117s.373.54.652.703a1.93 1.93 0 0 0 .975.239c.242 0 .462-.035.66-.103a1.43 1.43 0 0 0 .516-.315 1.38 1.38 0 0 0 .332-.516l1.206.218a2.19 2.19 0 0 1-.52.933c-.247.264-.558.47-.933.618a3.49 3.49 0 0 1-1.274.217zm6.496-4.018V213h-1.274v-6.545h1.223v1.065h.08c.15-.347.386-.625.707-.835s.73-.316 1.223-.316c.446 0 .837.094 1.172.282s.595.46.78.826.277.82.277 1.36V213h-1.274v-4c0-.474-.124-.845-.37-1.112s-.587-.405-1.02-.405c-.295 0-.558.064-.788.192s-.408.315-.54.562-.196.54-.196.887zm9.348 4.014c-.53 0-1-.135-1.415-.405s-.736-.66-.972-1.163-.35-1.113-.35-1.82.118-1.312.354-1.815.565-.888.98-1.155a2.55 2.55 0 0 1 1.41-.401c.407 0 .733.07.98.205a1.74 1.74 0 0 1 .58.469 3.97 3.97 0 0 1 .324.473h.077v-3.243h1.274V213h-1.245v-1.018h-.106a3.41 3.41 0 0 1-.333.477c-.142.18-.338.335-.588.47s-.574.2-.97.2zm.28-1.087c.366 0 .676-.096.93-.3s.45-.467.58-.813.2-.75.2-1.21c0-.454-.066-.852-.196-1.193s-.323-.606-.575-.797-.566-.285-.938-.285c-.384 0-.703.1-.96.298s-.45.47-.58.814-.192.73-.192 1.163c0 .438.065.83.196 1.18a1.89 1.89 0 0 0 .579.831c.26.2.577.302.955.302zm8.537 1.09c-.613 0-1.15-.14-1.606-.422s-.813-.674-1.066-1.18-.38-1.097-.38-1.773.127-1.273.38-1.78.608-.904 1.066-1.185.993-.422 1.606-.422 1.15.14 1.607.422.812.676 1.065 1.185.38 1.102.38 1.78-.126 1.267-.38 1.773-.608.9-1.065 1.18-.993.422-1.607.422zm.005-1.07c.397 0 .727-.105.988-.315s.455-.5.58-.84a3.34 3.34 0 0 0 .191-1.155c0-.418-.063-.8-.19-1.15s-.318-.635-.58-.848-.59-.32-.988-.32-.733.106-.998.32a1.9 1.9 0 0 0-.583.848c-.125.35-.188.733-.188 1.15s.063.805.188 1.155.322.63.583.84.597.315.998.315zm5.47.938v-6.545h1.23v1.04h.068a1.59 1.59 0 0 1 .631-.831 1.81 1.81 0 0 1 1.031-.306l.282.008.26.02v1.22c-.05-.014-.142-.03-.272-.047s-.262-.03-.392-.03c-.3 0-.57.064-.806.192a1.43 1.43 0 0 0-.554.524c-.136.222-.204.475-.204.76V213h-1.274zm10.5-4.947l-1.155.204c-.048-.148-.125-.288-.23-.422s-.24-.243-.418-.328-.396-.128-.66-.128c-.36 0-.662.08-.904.243s-.362.365-.362.618a.65.65 0 0 0 .243.528c.162.134.423.243.784.33l1.04.238c.602.14 1.05.354 1.347.644s.443.666.443 1.13c0 .392-.114.74-.34 1.048s-.538.543-.942.716-.865.26-1.393.26c-.733 0-1.33-.156-1.794-.47s-.748-.762-.853-1.342l1.232-.187c.077.32.234.563.473.728s.55.243.933.243c.418 0 .752-.087 1.002-.26s.375-.4.375-.643c0-.205-.077-.377-.23-.516s-.382-.244-.694-.315l-1.108-.243c-.61-.14-1.063-.36-1.355-.665s-.435-.69-.435-1.155a1.65 1.65 0 0 1 .324-1.014c.216-.3.514-.516.895-.678s.817-.247 1.308-.247c.707 0 1.264.154 1.67.46a2.14 2.14 0 0 1 .805 1.223zm8.61 5.092c-.414 0-.79-.077-1.125-.23a1.89 1.89 0 0 1-.797-.678c-.193-.295-.29-.657-.29-1.086 0-.37.07-.674.213-.912a1.57 1.57 0 0 1 .575-.567 3.01 3.01 0 0 1 .81-.315c.298-.07.602-.125.912-.162l.954-.11c.244-.03.422-.08.533-.15s.166-.18.166-.333v-.03c0-.372-.105-.66-.315-.865s-.517-.306-.93-.306c-.43 0-.767.095-1.014.285s-.414.396-.508.626l-1.197-.272c.142-.398.35-.72.622-.963a2.53 2.53 0 0 1 .95-.537c.358-.114.735-.17 1.13-.17.26 0 .538.032.83.094a2.45 2.45 0 0 1 .826.332c.26.162.47.394.635.695s.247.686.247 1.163V213h-1.244v-.895h-.05c-.082.165-.206.327-.37.486s-.376.29-.635.396-.568.158-.93.158zm.277-1.023c.353 0 .654-.07.904-.21s.444-.32.575-.545a1.41 1.41 0 0 0 .2-.729v-.844c-.045.046-.133.09-.264.128s-.274.07-.44.098l-.48.073-.392.05c-.248.03-.473.084-.678.158s-.364.18-.486.32-.18.318-.18.546c0 .315.117.554.35.716s.53.238.9.238zm8.706-5.667v1.022h-3.575v-1.022h3.575zm-2.617-1.57h1.275v6.192c0 .247.037.433.1.558s.17.206.286.252.248.064.388.064c.102 0 .19-.007.268-.022l.18-.034.23 1.053a2.16 2.16 0 0 1-.315.085c-.136.03-.307.048-.51.05a2.24 2.24 0 0 1-.938-.179 1.61 1.61 0 0 1-.703-.579c-.18-.262-.27-.6-.27-.985v-6.456zm9.202 8.114v-6.545h1.232v1.04h.068a1.58 1.58 0 0 1 .631-.831c.304-.204.647-.306 1.03-.306l.28.008.26.02v1.22a2.3 2.3 0 0 0-.273-.047c-.13-.02-.26-.03-.392-.03a1.66 1.66 0 0 0-.805.192c-.233.125-.418.3-.554.524s-.205.475-.205.76V213h-1.274zm5.606 0v-6.545h1.274V213h-1.274zm.643-7.555a.81.81 0 0 1-.571-.222c-.156-.15-.234-.33-.234-.537s.078-.39.234-.537.35-.226.57-.226a.79.79 0 0 1 .567.226c.16.148.238.327.238.537s-.08.386-.238.537-.345.222-.567.222zm8.25 2.608l-1.155.204c-.048-.148-.125-.288-.23-.422a1.14 1.14 0 0 0-.418-.328c-.176-.085-.396-.128-.66-.128-.36 0-.662.08-.904.243s-.362.365-.362.618a.65.65 0 0 0 .243.528c.162.134.423.243.784.33l1.04.238c.602.14 1.05.354 1.346.644s.444.666.444 1.13c0 .392-.114.74-.34 1.048s-.54.543-.942.716-.865.26-1.394.26c-.733 0-1.33-.156-1.794-.47s-.747-.762-.852-1.342l1.232-.187c.076.32.234.563.473.728s.55.243.933.243c.418 0 .75-.087 1-.26s.375-.4.375-.643c0-.205-.076-.377-.23-.516s-.382-.244-.694-.315l-1.108-.243c-.61-.14-1.063-.36-1.355-.665s-.435-.69-.435-1.155a1.65 1.65 0 0 1 .324-1.014c.216-.3.514-.516.895-.678s.816-.247 1.308-.247c.707 0 1.264.154 1.67.46s.675.71.806 1.223zm3.7 2.727l-.008-1.556h.22l2.608-2.77h1.526l-2.974 3.153h-.2l-1.172 1.172zm-1.17 2.22v-8.727h1.274V213h-1.274zm4.133 0l-2.344-3.11.878-.9 3.03 4h-1.564z" fill="#5d6598"/><g fill="#131520"><path d="M80.706 264v-.955a2.75 2.75 0 0 1 .16-.89c.107-.312.254-.6.442-.895a2.87 2.87 0 0 1 .666-.73l.736.527c-.202.295-.375.603-.517.925s-.214.67-.214 1.05v.97h-1.273zm3.407-3.182h1.864l3.242 7.915h.12l3.242-7.915h1.864V271h-1.462v-7.368h-.094l-3.003 7.353h-1.213l-3.003-7.358h-.094V271h-1.462v-10.182zm13.385 13.026a3.06 3.06 0 0 1-.606-.055c-.182-.033-.318-.07-.408-.1l.358-1.218c.408.112.75.12 1.024.025s.512-.387.7-.88l.184-.508-2.794-7.735h1.6l1.934 5.926h.08l1.934-5.926 1.605.015-3.156 8.64c-.146.395-.33.728-.557 1a2.2 2.2 0 0 1-.805.617c-.3.14-.673.2-1.084.2zm12.677-10.35c-.053-.47-.272-.835-.656-1.094s-.87-.393-1.452-.393c-.418 0-.78.067-1.084.2s-.542.308-.7.537a1.26 1.26 0 0 0-.248.77 1.13 1.13 0 0 0 .169.626c.116.176.266.323.452.443s.4.213.607.293l.62.2.994.258c.325.08.658.188 1 .324s.657.314.95.537a2.57 2.57 0 0 1 .706.825c.182.328.274.72.274 1.178 0 .577-.15 1.1-.448 1.536s-.724.8-1.288 1.06-1.237.388-2.033.388c-.762 0-1.422-.12-1.98-.363s-.992-.585-1.307-1.03-.5-.978-.522-1.6h1.54a1.58 1.58 0 0 0 .358.92c.208.245.482.422.8.542a3.28 3.28 0 0 0 1.089.174 3.1 3.1 0 0 0 1.16-.204c.34-.136.6-.332.805-.577a1.36 1.36 0 0 0 .293-.87c0-.3-.086-.548-.258-.74s-.4-.35-.7-.477-.615-.237-.98-.333l-1.203-.328c-.815-.222-1.46-.55-1.94-.98s-.7-1-.7-1.7c0-.586.16-1.098.478-1.536s.75-.777 1.292-1.02 1.157-.368 1.84-.368c.7 0 1.297.12 1.824.363s.948.575 1.253 1 .464.905.477 1.452h-1.48zm7.2 4.206h1.5l1.064 1.387.502.616 1.696 2.213h-1.57l-1.134-1.477-.388-.537-1.68-2.202zm5.1-1.8c0 1.087-.2 2.022-.597 2.804s-.943 1.38-1.635 1.8-1.474.626-2.352.626-1.67-.2-2.362-.626-1.232-1.023-1.63-1.805-.597-1.715-.597-2.8.2-2.02.597-2.8.94-1.382 1.63-1.8 1.48-.63 2.362-.63 1.662.2 2.352.63 1.237 1.018 1.635 1.8.597 1.712.597 2.8zm-1.522 0c0-.83-.134-1.526-.402-2.093s-.63-1-1.094-1.293-.983-.442-1.566-.442-1.1.147-1.57.442-.825.723-1.094 1.293-.398 1.264-.398 2.093.133 1.528.398 2.098.633.998 1.094 1.293.984.437 1.57.437 1.105-.146 1.566-.437.83-.726 1.094-1.293.402-1.27.402-2.098zm3.447 5.1v-10.182h1.536v8.86h4.614V271h-6.15zm8.5-10.182v.955a2.77 2.77 0 0 1-.159.89 3.77 3.77 0 0 1-.437.89c-.2.285-.4.53-.667.735l-.735-.527a5.75 5.75 0 0 0 .507-.909c.146-.322.22-.677.22-1.064v-.97h1.272zm5.217 13.046v-10.5h1.45v1.238h.125a4.04 4.04 0 0 1 .373-.552c.162-.2.387-.4.676-.547s.67-.24 1.143-.24c.617 0 1.167.156 1.65.468s.863.76 1.138 1.347.418 1.292.418 2.118-.138 1.533-.413 2.123-.653 1.04-1.133 1.357-1.03.472-1.646.472c-.464 0-.843-.078-1.138-.234s-.52-.338-.686-.546a4.11 4.11 0 0 1-.383-.557h-.1v4.052h-1.486zm1.456-6.682c0 .537.078 1.007.234 1.412s.38.72.676.95.656.338 1.084.338c.444 0 .815-.117 1.114-.353a2.19 2.19 0 0 0 .676-.969c.156-.408.233-.867.233-1.377 0-.504-.076-.956-.228-1.357s-.375-.718-.676-.95-.672-.348-1.12-.348c-.43 0-.795.1-1.094.333s-.518.532-.67.93-.23.862-.23 1.392zm10.4 3.972c-.716 0-1.34-.164-1.874-.492s-.948-.787-1.243-1.377-.443-1.28-.443-2.068.148-1.485.443-2.08a3.31 3.31 0 0 1 1.243-1.382c.533-.33 1.158-.492 1.874-.492s1.34.164 1.874.492.948.8 1.243 1.382.443 1.286.443 2.08-.148 1.478-.443 2.068-.7 1.05-1.243 1.377-1.158.492-1.874.492zm.005-1.248c.464 0 .848-.122 1.153-.368a2.15 2.15 0 0 0 .676-.98 3.98 3.98 0 0 0 .224-1.347c0-.5-.074-.935-.224-1.343a2.18 2.18 0 0 0-.676-.989c-.305-.25-.7-.373-1.153-.373s-.855.124-1.163.373a2.23 2.23 0 0 0-.682.989c-.145.408-.218.855-.218 1.343s.073.94.218 1.347c.15.408.377.734.682.98s.696.368 1.163.368zm5.214 1.094v-7.636h1.437v1.213h.08a1.85 1.85 0 0 1 .736-.97 2.11 2.11 0 0 1 1.203-.358l.328.01.304.025v1.422c-.06-.017-.166-.035-.32-.055a3.06 3.06 0 0 0-.457-.035c-.35 0-.665.075-.94.224a1.66 1.66 0 0 0-.646.612c-.16.262-.24.553-.24.885V271h-1.486zm9.4-7.636v1.193h-4.17v-1.193h4.17zm-3.053-1.83h1.487v7.224c0 .288.043.505.13.65a.67.67 0 0 0 .333.293c.14.05.3.075.452.075.12 0 .224-.008.314-.025l.208-.04.27 1.228c-.086.033-.2.067-.368.1s-.358.056-.597.06a2.62 2.62 0 0 1-1.093-.208 1.88 1.88 0 0 1-.821-.677c-.208-.304-.313-.687-.313-1.148v-7.532zm11.62 9.62c-.716 0-1.34-.164-1.875-.492a3.32 3.32 0 0 1-1.242-1.377c-.295-.6-.443-1.28-.443-2.068s.148-1.485.443-2.08a3.32 3.32 0 0 1 1.242-1.382c.534-.328 1.16-.492 1.875-.492s1.34.164 1.874.492.948.8 1.243 1.382.442 1.286.442 2.08-.147 1.478-.442 2.068-.7 1.05-1.243 1.377-1.158.492-1.874.492zm.005-1.248c.464 0 .848-.122 1.153-.368a2.15 2.15 0 0 0 .676-.98 3.9 3.9 0 0 0 .224-1.347c0-.488-.075-.935-.224-1.343s-.37-.74-.676-1-.7-.373-1.153-.373-.855.124-1.164.373a2.22 2.22 0 0 0-.681.989c-.146.408-.218.855-.218 1.343s.072.94.218 1.347a2.18 2.18 0 0 0 .68.98c.304.246.696.368 1.164.368zm5.214 3.958v-10.5h1.45v1.238h.125a4.04 4.04 0 0 1 .373-.552c.162-.2.387-.4.676-.547s.67-.24 1.143-.24c.617 0 1.167.156 1.65.468s.863.76 1.138 1.347.418 1.292.418 2.118-.138 1.533-.413 2.123-.653 1.04-1.133 1.357-1.03.472-1.646.472c-.464 0-.843-.078-1.138-.234s-.52-.338-.686-.546a4.11 4.11 0 0 1-.383-.557h-.1v4.052h-1.486zm1.456-6.682c0 .537.078 1.007.234 1.412s.38.72.676.95.656.338 1.084.338c.444 0 .815-.117 1.114-.353a2.19 2.19 0 0 0 .676-.969c.156-.408.233-.867.233-1.377 0-.504-.076-.956-.228-1.357s-.375-.718-.676-.95-.672-.348-1.12-.348c-.43 0-.795.1-1.094.333s-.518.532-.67.93-.23.862-.23 1.392zm10.476 3.972c-.753 0-1.4-.16-1.944-.482a3.27 3.27 0 0 1-1.253-1.367c-.292-.6-.438-1.28-.438-2.073 0-.783.146-1.472.438-2.07a3.37 3.37 0 0 1 1.233-1.397c.527-.335 1.15-.502 1.86-.502a3.73 3.73 0 0 1 1.253.214 3.07 3.07 0 0 1 1.09.67c.323.304.575.7.76 1.188s.28 1.073.28 1.765v.527h-6.07v-1.113h4.614c0-.4-.08-.738-.24-1.04s-.382-.546-.67-.72a1.87 1.87 0 0 0-1.004-.264c-.418 0-.782.103-1.094.308a2.08 2.08 0 0 0-.716.796c-.165.325-.248.678-.248 1.06v.87c0 .5.1.944.268 1.302s.436.632.76.82a2.26 2.26 0 0 0 1.138.278 2.38 2.38 0 0 0 .771-.119c.232-.083.433-.206.602-.368s.298-.363.387-.602l1.407.254a2.55 2.55 0 0 1-.606 1.089c-.3.308-.65.548-1.1.72s-.93.253-1.486.253zm6.412-4.688V271h-1.487v-7.636h1.427v1.243h.094a2.18 2.18 0 0 1 .826-.975c.378-.245.853-.368 1.427-.368.52 0 .976.1 1.367.328a2.2 2.2 0 0 1 .91.965c.215.427.323.956.323 1.586V271h-1.5v-4.678c0-.554-.144-.986-.432-1.298s-.685-.472-1.2-.472a1.85 1.85 0 0 0-.919.224c-.265.15-.476.367-.632.656s-.228.63-.228 1.034zM245.426 264c-.378-2.088-2.048-3.32-4.096-3.32-2.606 0-4.495 2-4.495 5.23s1.9 5.23 4.495 5.23c2.048 0 3.718-1.233 4.096-3.32h-1.233c-.298 1.412-1.5 2.168-2.863 2.168-1.85 0-3.302-1.432-3.302-4.077s1.452-4.077 3.302-4.077c1.352 0 2.565.756 2.863 2.168h1.233zm1.833 7h1.174v-4.832c0-1.034.815-1.8 1.93-1.8a3.68 3.68 0 0 1 .716.079v-1.193l-.617-.02c-.915 0-1.7.517-2 1.273h-.08v-1.153h-1.134V271zm5.2 0h1.174v-7.636h-1.174V271zm.597-8.9c.457 0 .835-.358.835-.796s-.378-.795-.835-.795-.835.358-.835.795.378.796.835.796zm6.047 1.273h-1.63v-1.83H256.3v1.83h-1.154v.994h1.154v4.773c0 1.332 1.074 1.968 2.068 1.968a2.43 2.43 0 0 0 .875-.14l-.24-1.054c-.1.02-.258.06-.517.06-.517 0-1.014-.16-1.014-1.154v-4.454h1.63v-.994zm1.765 7.636h1.173v-7.636h-1.173V271zm.596-8.9c.458 0 .835-.358.835-.796s-.377-.795-.835-.795-.835.358-.835.795.378.796.835.796zm5.828 9.068c1.7 0 2.804-1.034 3.003-2.386h-1.173c-.22.835-.915 1.332-1.83 1.332-1.392 0-2.287-1.153-2.287-2.923 0-1.73.915-2.864 2.287-2.864 1.034 0 1.65.637 1.83 1.333h1.173c-.2-1.432-1.412-2.387-3.023-2.387-2.068 0-3.44 1.63-3.44 3.958 0 2.287 1.312 3.937 3.46 3.937zm6.965.02c1.333 0 2.03-.716 2.267-1.213h.06V271h1.173v-5.03c0-2.426-1.85-2.705-2.824-2.705-1.153 0-2.465.398-3.062 1.8l1.114.398c.258-.557.87-1.154 1.988-1.154 1.08 0 1.6.572 1.6 1.55v.04c0 .567-.577.517-1.97.696-1.417.184-2.963.497-2.963 2.247 0 1.492 1.154 2.347 2.605 2.347zm.18-1.054c-.934 0-1.6-.418-1.6-1.233 0-.895.815-1.173 1.73-1.293.497-.06 1.83-.198 2.028-.437v1.074c0 .954-.756 1.9-2.148 1.9zm6.636-9.307H279.9V271h1.173v-10.182z"/><path d="M486.054 271v-.895l3.36-3.68.974-1.123c.255-.322.444-.624.567-.905a2.19 2.19 0 0 0 .189-.895c0-.358-.086-.668-.26-.93a1.67 1.67 0 0 0-.696-.606c-.295-.143-.626-.214-.994-.214-.39 0-.732.08-1.024.243a1.68 1.68 0 0 0-.671.672c-.156.288-.234.626-.234 1.014h-1.173c0-.597.137-1.12.412-1.57s.65-.802 1.124-1.054 1.013-.378 1.606-.378 1.125.126 1.586.378.822.59 1.084 1.02.392.903.392 1.427c0 .374-.068.74-.204 1.1s-.364.75-.696 1.188-.783.964-1.367 1.59l-2.287 2.446v.08h4.733V271h-6.423zm11.798.14c-.75 0-1.388-.204-1.914-.61s-.93-1.006-1.21-1.785-.417-1.727-.417-2.834c0-1.1.14-2.04.417-2.82s.686-1.38 1.213-1.8 1.167-.62 1.9-.62 1.377.207 1.904.62.934 1.008 1.213 1.8.422 1.72.422 2.82c0 1.107-.14 2.052-.417 2.834s-.68 1.374-1.208 1.785-1.165.61-1.914.61zm0-1.094c.742 0 1.32-.358 1.73-1.073s.616-1.737.616-3.063c0-.882-.094-1.632-.283-2.252s-.454-1.092-.806-1.417-.767-.487-1.257-.487c-.736 0-1.31.363-1.726 1.09s-.62 1.745-.62 3.067c0 .882.093 1.63.278 2.247s.453 1.086.8 1.407.774.482 1.268.482zm12.985-9.704l-3.28 12.2h-1.074l3.28-12.2h1.074zm5.07 8.57v-1.014l4.475-7.08h.735v1.57h-.497l-3.38 5.35v.08h6.025v1.094h-7.358zM520.7 271v-10.182h1.173V271H520.7zm7.75.14c-.75 0-1.387-.204-1.914-.61s-.93-1.006-1.208-1.785-.418-1.727-.418-2.834c0-1.1.14-2.04.418-2.82s.686-1.38 1.213-1.8 1.167-.62 1.91-.62 1.377.207 1.904.62.935 1.008 1.213 1.8.423 1.72.423 2.82c0 1.107-.14 2.052-.418 2.834s-.68 1.374-1.208 1.785-1.165.61-1.914.61zm0-1.094c.743 0 1.32-.358 1.73-1.073s.617-1.737.617-3.063c0-.882-.095-1.632-.284-2.252s-.454-1.092-.805-1.417-.767-.487-1.258-.487c-.736 0-1.31.363-1.725 1.09s-.62 1.745-.62 3.067c0 .882.092 1.63.278 2.247s.452 1.086.8 1.407a1.81 1.81 0 0 0 1.268.482zm8.75 1.094c-.75 0-1.387-.204-1.914-.61s-.93-1.006-1.208-1.785-.418-1.727-.418-2.834c0-1.1.14-2.04.418-2.82s.686-1.38 1.213-1.8 1.167-.62 1.91-.62 1.377.207 1.904.62.935 1.008 1.213 1.8.423 1.72.423 2.82c0 1.107-.14 2.052-.418 2.834s-.68 1.374-1.208 1.785-1.165.61-1.914.61zm0-1.094c.743 0 1.32-.358 1.73-1.073s.617-1.737.617-3.063c0-.882-.095-1.632-.284-2.252s-.454-1.092-.805-1.417-.767-.487-1.258-.487c-.736 0-1.31.363-1.725 1.09s-.62 1.745-.62 3.067c0 .882.092 1.63.278 2.247s.452 1.086.8 1.407a1.81 1.81 0 0 0 1.268.482zm15.63-6.68L550.006 271h-1.193l-2.824-7.636h1.273l2.108 6.085h.08l2.108-6.085h1.273zm4.477 7.795c-.736 0-1.37-.162-1.904-.487s-.94-.786-1.228-1.372-.428-1.276-.428-2.06.143-1.47.428-2.068.69-1.067 1.203-1.402 1.12-.507 1.8-.507a3.61 3.61 0 0 1 1.178.199c.388.133.74.348 1.06.646s.57.686.76 1.174.284 1.087.284 1.8v.498h-5.887v-1.015h4.694c0-.43-.087-.815-.26-1.153s-.41-.605-.726-.8-.68-.294-1.103-.294c-.468 0-.872.116-1.214.348a2.29 2.29 0 0 0-.78.895 2.63 2.63 0 0 0-.274 1.183v.676c0 .577.1 1.066.3 1.467a2.15 2.15 0 0 0 .84.91c.358.205.774.308 1.248.308.308 0 .586-.043.835-.13s.47-.222.65-.398.323-.4.423-.666l1.133.318c-.12.385-.32.723-.6 1.014s-.63.514-1.044.676-.88.24-1.397.24zm6.12-4.753V271h-1.173v-7.636h1.133v1.193h.1a2.17 2.17 0 0 1 .815-.935c.364-.238.835-.358 1.412-.358.517 0 .97.106 1.357.318s.69.527.905.955.323.96.323 1.61V271h-1.173v-4.773c0-.6-.156-1.067-.468-1.402s-.74-.507-1.282-.507c-.375 0-.7.08-1.005.244a1.74 1.74 0 0 0-.691.711c-.17.31-.253.69-.253 1.133zm9.9 4.753c-.637 0-1.2-.16-1.686-.482s-.868-.782-1.143-1.372-.413-1.295-.413-2.103c0-.802.138-1.498.413-2.088s.658-1.046 1.148-1.368 1.057-.482 1.7-.482c.498 0 .9.083 1.18.25s.513.348.666.557l.363.507h.1v-3.76h1.174V271h-1.134v-1.173h-.14c-.086.14-.21.315-.368.527s-.386.396-.68.56-.688.244-1.178.244zm.16-1.054c.47 0 .868-.123 1.193-.368s.572-.59.74-1.03.253-.95.253-1.526c0-.57-.083-1.07-.248-1.497s-.41-.765-.736-1.004-.726-.363-1.203-.363c-.498 0-.912.128-1.243.383s-.575.595-.74 1.03-.244.915-.244 1.452c0 .543.083 1.037.25 1.48s.418.792.746 1.054.742.388 1.233.388zm8.755 1.054c-.7 0-1.295-.164-1.815-.492s-.92-.787-1.213-1.377-.433-1.28-.433-2.068c0-.796.145-1.5.433-2.084s.696-1.053 1.213-1.382 1.125-.492 1.815-.492 1.292.164 1.81.492.925.79 1.213 1.382.438 1.288.438 2.084c0 .788-.146 1.478-.438 2.068s-.692 1.05-1.213 1.377-1.12.492-1.81.492zm0-1.054c.523 0 .954-.134 1.292-.403s.59-.62.75-1.06.244-.91.244-1.42-.082-.986-.244-1.427-.413-.797-.75-1.07-.77-.408-1.292-.408-.955.136-1.293.408a2.41 2.41 0 0 0-.751 1.069c-.162.44-.243.916-.243 1.427s.08.984.243 1.42.413.79.75 1.06.77.403 1.293.403zm5.25.895v-7.636h1.133v1.153h.08c.14-.378.39-.684.756-.92s.775-.353 1.233-.353l.323.005.293.015v1.193c-.04-.01-.13-.024-.273-.044s-.287-.035-.443-.035c-.37 0-.703.078-.994.234a1.75 1.75 0 0 0-.686.636c-.166.268-.25.575-.25.92V271h-1.173zm10.618-5.926l-1.054.298c-.066-.176-.164-.346-.293-.512s-.3-.308-.517-.418-.5-.164-.84-.164c-.467 0-.856.108-1.168.324s-.462.482-.462.8c0 .292.106.522.318.69s.543.3.994.423l1.134.278c.682.166 1.19.42 1.526.76s.502.774.502 1.307c0 .438-.126.83-.378 1.173s-.596.617-1.044.816-.968.298-1.56.298c-.78 0-1.423-.17-1.934-.507s-.833-.832-.97-1.482l1.113-.278c.106.41.307.72.602.925s.688.308 1.168.308c.547 0 .98-.116 1.303-.348s.487-.517.487-.845a.89.89 0 0 0-.278-.666c-.186-.183-.47-.32-.855-.408l-1.273-.298c-.7-.166-1.213-.423-1.54-.77s-.488-.8-.488-1.317a1.89 1.89 0 0 1 .363-1.144 2.48 2.48 0 0 1 1-.78c.424-.19.904-.284 1.44-.284.756 0 1.35.166 1.78.497a2.68 2.68 0 0 1 .925 1.313z"/></g><path d="M314 266c0-6.627 5.373-12 12-12h116c6.627 0 12 5.373 12 12h0c0 6.627-5.373 12-12 12H326c-6.627 0-12-5.373-12-12h0z" fill="#f3f7fc"/><path d="M334.003 261.273V270h-1.2l-4.436-6.4h-.08v6.4h-1.317v-8.727h1.22l4.44 6.41h.08v-6.41h1.304zm5.64 8.86c-.644 0-1.2-.138-1.666-.413s-.82-.67-1.074-1.172-.375-1.098-.375-1.777c0-.67.125-1.26.375-1.773s.605-.9 1.057-1.197.986-.43 1.594-.43a3.19 3.19 0 0 1 1.074.184c.346.122.657.313.933.575s.493.6.652 1.018.24.92.24 1.513v.452h-5.203v-.955h3.954c0-.335-.068-.632-.204-.9s-.33-.468-.576-.618-.53-.226-.86-.226c-.358 0-.67.088-.937.264s-.47.4-.614.682-.213.58-.213.908v.745c0 .438.077.8.23 1.117a1.67 1.67 0 0 0 .652.703c.28.16.604.24.976.24.242 0 .462-.035.66-.103s.37-.176.515-.315a1.37 1.37 0 0 0 .333-.516l1.206.218a2.19 2.19 0 0 1-.52.933c-.247.264-.558.47-.933.618s-.797.217-1.275.217zm8.278-6.677v1.022h-3.576v-1.022h3.576zm-2.617-1.57h1.274v6.192c0 .247.037.433.11.558s.17.206.286.252.248.064.388.064c.102 0 .19-.007.268-.022l.18-.034.23 1.053a2.16 2.16 0 0 1-.315.085c-.137.03-.307.048-.512.05-.335.006-.647-.054-.937-.18a1.61 1.61 0 0 1-.703-.579c-.18-.262-.27-.6-.27-.985v-6.456zm6.445 8.114l-1.926-6.545h1.317l1.283 4.806h.063l1.287-4.806h1.317l1.28 4.785h.063l1.275-4.785h1.316L357.1 270h-1.3l-1.33-4.726h-.098l-1.33 4.726h-1.296zm12.04.132c-.613 0-1.15-.14-1.606-.422a2.83 2.83 0 0 1-1.065-1.18c-.253-.506-.38-1.097-.38-1.773s.127-1.273.38-1.78.607-.904 1.065-1.185.993-.422 1.606-.422 1.15.14 1.607.422.812.676 1.065 1.185.38 1.102.38 1.78-.127 1.267-.38 1.773-.608.9-1.065 1.18-.993.422-1.607.422zm.005-1.07c.397 0 .727-.105.988-.315s.455-.5.58-.84a3.34 3.34 0 0 0 .192-1.155c0-.418-.064-.8-.192-1.15s-.318-.635-.58-.848-.59-.32-.988-.32-.733.106-.997.32-.456.496-.584.848-.188.733-.188 1.15.063.805.188 1.155.322.63.584.84.596.315.997.315zm5.47.938v-6.545h1.23v1.04h.068a1.59 1.59 0 0 1 .631-.831 1.81 1.81 0 0 1 1.031-.306l.282.008.26.02v1.22a2.34 2.34 0 0 0-.273-.047c-.13-.02-.26-.03-.392-.03-.3 0-.57.064-.806.192a1.44 1.44 0 0 0-.554.524c-.136.222-.204.475-.204.76V270h-1.274zm6.777-2.22l-.008-1.556h.22l2.608-2.77h1.526l-2.975 3.153h-.2l-1.172 1.172zm-1.172 2.22v-8.727h1.274V270h-1.274zm4.134 0l-2.344-3.11.878-.9 3.03 4h-1.564zm12.584-6.435c-.046-.403-.233-.716-.563-.937s-.744-.337-1.244-.337c-.358 0-.667.057-.93.17s-.464.264-.61.46-.213.413-.213.66c0 .208.048.387.145.537a1.3 1.3 0 0 0 .387.38 2.97 2.97 0 0 0 .52.251l.533.162.852.222c.28.068.564.16.857.277s.564.27.814.46a2.21 2.21 0 0 1 .605.707c.156.28.234.618.234 1 0 .494-.128.933-.383 1.317s-.62.686-1.104.907-1.06.333-1.743.333c-.653 0-1.22-.104-1.696-.31s-.85-.502-1.12-.882-.42-.838-.447-1.364h1.32c.025.315.128.578.307.788s.413.363.694.465a2.82 2.82 0 0 0 .934.149c.372 0 .703-.058.992-.175s.523-.284.69-.494.25-.462.25-.746c0-.258-.074-.47-.22-.635a1.65 1.65 0 0 0-.593-.409c-.247-.108-.527-.203-.84-.285l-1.03-.282c-.7-.2-1.253-.47-1.662-.84s-.6-.858-.6-1.466c0-.503.137-.942.41-1.317s.642-.666 1.108-.873.992-.316 1.577-.316c.59 0 1.112.104 1.564.31s.812.493 1.074.857.397.776.41 1.244h-1.27zm6.68 6.567c-.644 0-1.2-.138-1.666-.413s-.82-.67-1.074-1.172-.375-1.098-.375-1.777c0-.67.125-1.26.375-1.773s.605-.9 1.057-1.197.986-.43 1.594-.43a3.19 3.19 0 0 1 1.074.184c.346.122.657.313.933.575s.493.6.652 1.018.24.92.24 1.513v.452h-5.203v-.955h3.954c0-.335-.068-.632-.204-.9s-.33-.468-.576-.618-.53-.226-.86-.226c-.358 0-.67.088-.937.264s-.47.4-.614.682-.213.58-.213.908v.745c0 .438.077.8.23 1.117a1.67 1.67 0 0 0 .652.703c.28.16.604.24.976.24.242 0 .462-.035.66-.103s.37-.176.515-.315a1.37 1.37 0 0 0 .333-.516l1.206.218a2.19 2.19 0 0 1-.52.933c-.247.264-.558.47-.933.618s-.797.217-1.275.217zm7.98 0c-.633 0-1.18-.143-1.636-.43a2.85 2.85 0 0 1-1.048-1.198c-.245-.508-.367-1.09-.367-1.747 0-.665.125-1.25.375-1.76s.603-.9 1.057-1.197 1-.43 1.607-.43c.497 0 .94.093 1.33.277s.703.438.942.767a2.32 2.32 0 0 1 .43 1.155h-1.24a1.48 1.48 0 0 0-.468-.792c-.242-.222-.566-.333-.972-.333-.355 0-.666.094-.933.28s-.47.45-.618.793-.222.744-.222 1.2c0 .478.073.89.218 1.236s.35.615.613.805.58.286.942.286c.24 0 .46-.044.656-.132a1.34 1.34 0 0 0 .499-.388c.136-.168.23-.37.285-.605h1.24c-.045.423-.183.8-.413 1.133s-.538.594-.925.785-.834.285-1.35.285zm9.198-2.846v-3.83h1.28V270h-1.253v-1.134h-.068a2.04 2.04 0 0 1-.725.874c-.33.23-.74.345-1.23.345-.42 0-.793-.092-1.117-.277s-.574-.464-.758-.83-.273-.82-.273-1.36v-4.163h1.274v4.01c0 .447.124.802.37 1.066s.568.396.963.396c.24 0 .476-.06.712-.18a1.5 1.5 0 0 0 .592-.541c.16-.242.237-.548.234-.92zm3.99 2.714v-6.545h1.23v1.04h.068a1.59 1.59 0 0 1 .631-.831 1.81 1.81 0 0 1 1.031-.306l.282.008.26.02v1.22a2.38 2.38 0 0 0-.273-.047c-.13-.02-.262-.03-.392-.03-.3 0-.57.064-.806.192a1.43 1.43 0 0 0-.554.524c-.136.222-.204.475-.204.76V270h-1.274zm5.605 0v-6.545h1.274V270h-1.274zm.644-7.555a.81.81 0 0 1-.571-.222.72.72 0 0 1-.235-.537.71.71 0 0 1 .235-.537c.16-.15.35-.226.57-.226a.79.79 0 0 1 .566.226c.16.148.24.327.24.537s-.08.386-.24.537-.345.222-.566.222zm6.4 1v1.022h-3.575v-1.022h3.575zm-2.617-1.57h1.274v6.192c0 .247.037.433.11.558s.17.206.286.252.248.064.388.064c.102 0 .19-.007.268-.022l.18-.034.23 1.053a2.16 2.16 0 0 1-.315.085c-.137.03-.307.048-.512.05-.335.006-.647-.054-.937-.18a1.61 1.61 0 0 1-.703-.579c-.18-.262-.27-.6-.27-.985v-6.456zm5.832 10.552a2.67 2.67 0 0 1-.52-.047c-.156-.03-.273-.06-.35-.094l.307-1.044c.35.096.642.104.878.02s.44-.33.6-.754l.158-.435-2.395-6.63h1.363l1.658 5.08h.068l1.658-5.08 1.376.012-2.706 7.407c-.125.338-.284.623-.477.856s-.423.41-.7.53-.577.18-.93.18z" fill="#1757c2"/><path stroke="#f9f9fb" d="M40 301.5h592"/><circle cx="56" cy="266" r="12" fill="#e02424"/><g fill="#fff"><use xlink:href="#C"/><use xlink:href="#C" x="3.975"/><use xlink:href="#C" x="7.95"/><use xlink:href="#C" x="11.925"/></g><path d="M86.672 335.493c-.053-.47-.272-.835-.656-1.094s-.868-.393-1.452-.393c-.418 0-.78.067-1.084.2s-.542.308-.7.537a1.27 1.27 0 0 0-.249.771c0 .242.056.45.17.626s.267.323.452.443a3.45 3.45 0 0 0 .607.293l.62.2.994.258c.325.08.658.188 1 .324s.658.314.95.537a2.57 2.57 0 0 1 .706.825c.182.328.273.72.273 1.178a2.71 2.71 0 0 1-.447 1.536c-.297.446-.724.8-1.288 1.06s-1.238.388-2.033.388c-.762 0-1.422-.12-1.98-.363s-.993-.585-1.308-1.03-.5-.978-.522-1.6h1.54a1.58 1.58 0 0 0 .358.92 1.94 1.94 0 0 0 .81.542 3.28 3.28 0 0 0 1.09.174c.434 0 .82-.068 1.158-.204s.6-.332.805-.577.293-.538.293-.87c0-.3-.086-.548-.258-.74s-.4-.35-.7-.477a6.73 6.73 0 0 0-.979-.333l-1.203-.328c-.815-.222-1.462-.55-1.94-.98s-.7-1-.7-1.7c0-.586.16-1.098.477-1.536s.75-.777 1.293-1.02 1.157-.368 1.84-.368c.7 0 1.298.12 1.825.363s.948.575 1.253 1 .464.905.477 1.452h-1.482zm9 0a1.45 1.45 0 0 0-.656-1.094c-.385-.262-.868-.393-1.452-.393-.418 0-.78.067-1.084.2s-.542.308-.7.537a1.27 1.27 0 0 0-.248.771c0 .242.056.45.17.626s.267.323.452.443a3.45 3.45 0 0 0 .607.293l.62.2.994.258c.325.08.658.188 1 .324s.658.314.95.537a2.57 2.57 0 0 1 .706.825c.182.328.274.72.274 1.178 0 .577-.15 1.1-.448 1.536s-.724.8-1.288 1.06-1.238.388-2.033.388c-.762 0-1.422-.12-1.98-.363s-.993-.585-1.308-1.03-.5-.978-.522-1.6h1.54a1.58 1.58 0 0 0 .358.92 1.94 1.94 0 0 0 .81.542 3.27 3.27 0 0 0 1.09.174c.434 0 .82-.068 1.158-.204s.6-.332.805-.577.293-.538.293-.87a1.07 1.07 0 0 0-.259-.741c-.17-.192-.4-.35-.7-.477s-.615-.237-.98-.333l-1.203-.328c-.815-.222-1.462-.55-1.94-.98s-.7-1-.7-1.7c0-.586.16-1.098.477-1.536s.75-.777 1.293-1.02 1.157-.368 1.84-.368c.7 0 1.298.12 1.825.363s.948.575 1.253 1a2.52 2.52 0 0 1 .477 1.452H95.67zM99.138 343v-10.182h1.536v8.86h4.614V343h-6.15zm14.78.154c-.752 0-1.4-.16-1.943-.482a3.27 3.27 0 0 1-1.253-1.367c-.292-.6-.438-1.28-.438-2.073 0-.783.146-1.472.438-2.07a3.37 3.37 0 0 1 1.233-1.397c.527-.335 1.15-.502 1.86-.502a3.73 3.73 0 0 1 1.253.214 3.07 3.07 0 0 1 1.09.67c.323.304.575.7.76 1.188s.28 1.073.28 1.765v.527h-6.07v-1.113h4.614c0-.4-.08-.738-.24-1.04s-.382-.546-.67-.72-.62-.264-1.004-.264c-.418 0-.782.103-1.094.308a2.08 2.08 0 0 0-.716.796c-.165.325-.248.678-.248 1.06v.87c0 .5.1.944.268 1.302a1.94 1.94 0 0 0 .761.821 2.26 2.26 0 0 0 1.138.278 2.38 2.38 0 0 0 .771-.119 1.68 1.68 0 0 0 .602-.368c.17-.162.298-.363.387-.602l1.407.254a2.55 2.55 0 0 1-.606 1.089 2.96 2.96 0 0 1-1.089.721c-.434.17-.93.253-1.487.253zm5.922-7.8l1.685 2.973 1.7-2.973h1.626l-2.38 3.818 2.4 3.818h-1.626l-1.72-2.854L119.8 343h-1.63l2.377-3.818-2.347-3.818h1.63zm6.537 10.5v-10.5h1.452v1.238h.124a4.04 4.04 0 0 1 .373-.552 2.12 2.12 0 0 1 .676-.547c.3-.16.67-.24 1.144-.24.616 0 1.166.156 1.65.468s.864.76 1.14 1.347.417 1.292.417 2.118-.137 1.533-.412 2.123-.653 1.04-1.134 1.357a2.92 2.92 0 0 1-1.645.472c-.464 0-.844-.078-1.14-.234s-.52-.338-.686-.546a4.14 4.14 0 0 1-.383-.557h-.1v4.052h-1.487zm1.457-6.682c0 .537.078 1.007.234 1.412s.38.72.676.95.656.338 1.084.338c.444 0 .815-.117 1.113-.353s.524-.56.676-.97.234-.867.234-1.377c0-.504-.076-.956-.23-1.357s-.374-.718-.676-.95-.67-.348-1.118-.348c-.43 0-.796.1-1.094.333a2.04 2.04 0 0 0-.671.93c-.153.397-.23.862-.23 1.392zm7.184 3.818v-7.636h1.486V343h-1.486zm.75-8.815c-.26 0-.48-.086-.667-.258a.82.82 0 0 1-.273-.627.83.83 0 0 1 .273-.626c.186-.176.408-.263.667-.263a.91.91 0 0 1 .66.263c.18.176.278.38.278.626s-.093.45-.278.627a.93.93 0 0 1-.661.258zm2.735 8.815v-7.636h1.437v1.213h.08a1.85 1.85 0 0 1 .735-.97 2.11 2.11 0 0 1 1.203-.358l.33.01.303.025v1.422a2.61 2.61 0 0 0-.318-.055 3.07 3.07 0 0 0-.458-.035 1.94 1.94 0 0 0-.939.224c-.272.146-.488.35-.647.612a1.66 1.66 0 0 0-.238.885V343h-1.487zm8.4.154c-.752 0-1.4-.16-1.944-.482s-.958-.78-1.253-1.367-.437-1.28-.437-2.073c0-.783.146-1.472.437-2.07s.706-1.062 1.233-1.397 1.15-.502 1.86-.502c.43 0 .848.07 1.252.214a3.03 3.03 0 0 1 1.089.671c.322.305.575.7.76 1.188s.278 1.073.278 1.765v.527h-6.07v-1.113h4.614c0-.4-.08-.738-.24-1.04a1.8 1.8 0 0 0-.671-.721c-.285-.176-.62-.264-1.004-.264-.418 0-.783.103-1.094.308a2.08 2.08 0 0 0-.716.796c-.166.325-.25.678-.25 1.06v.87c0 .5.1.944.27 1.302s.436.632.76.82.705.278 1.14.278a2.38 2.38 0 0 0 .771-.119 1.67 1.67 0 0 0 .601-.368 1.6 1.6 0 0 0 .388-.602l1.407.254c-.113.414-.315.777-.607 1.1s-.65.548-1.088.72-.93.253-1.487.253zm7.784-.005c-.616 0-1.166-.157-1.65-.472s-.86-.77-1.134-1.357-.407-1.298-.407-2.123.137-1.532.412-2.118.66-1.036 1.144-1.347 1.032-.468 1.645-.468c.474 0 .855.08 1.144.24s.517.338.676.547a4.67 4.67 0 0 1 .378.552h.1v-3.784h1.487V343H157v-1.188h-.124a4.02 4.02 0 0 1-.388.557c-.166.208-.395.4-.686.546s-.67.234-1.134.234zm.328-1.268c.428 0 .8-.112 1.084-.338s.524-.545.676-.95.234-.875.234-1.412c0-.53-.076-.995-.23-1.392a2.04 2.04 0 0 0-.671-.93c-.295-.222-.66-.333-1.094-.333-.447 0-.82.116-1.118.348s-.524.55-.676.95-.224.853-.224 1.357.076.97.23 1.377.377.73.676.97.673.353 1.113.353zm82.228 1.13v-10.182h1.233v4.534h5.43v-4.534h1.233V343h-1.233v-4.554h-5.43V343h-1.233zm10.204 0v-7.636h1.173V343h-1.173zm.597-8.9a.83.83 0 0 1-.592-.234.75.75 0 0 1-.243-.562.75.75 0 0 1 .243-.561c.166-.156.363-.234.592-.234s.424.078.586.234a.74.74 0 0 1 .249.561.74.74 0 0 1-.25.562c-.167.156-.358.234-.586.234zm5.808 11.932c-.567 0-1.054-.073-1.462-.22s-.747-.33-1.02-.567-.482-.48-.64-.746l.934-.656a7.34 7.34 0 0 0 .403.477 2.03 2.03 0 0 0 .666.473c.285.136.658.204 1.12.204.616 0 1.125-.15 1.526-.448s.602-.765.602-1.402v-1.55h-.1c-.086.14-.2.312-.368.517s-.38.383-.676.542-.686.234-1.183.234c-.617 0-1.17-.146-1.66-.438s-.873-.716-1.158-1.273-.423-1.233-.423-2.028c0-.782.138-1.463.413-2.043s.658-1.034 1.15-1.353 1.057-.482 1.7-.482c.497 0 .9.083 1.183.25s.52.348.676.557l.368.507h.12v-1.213h1.134v7.855c0 .656-.15 1.2-.448 1.6-.294.414-.692.717-1.193.9s-1.05.294-1.66.294zm-.04-4.196c.47 0 .868-.108 1.193-.323a2 2 0 0 0 .74-.93c.168-.404.254-.888.254-1.452 0-.55-.083-1.036-.25-1.457s-.4-.75-.736-1-.726-.358-1.203-.358c-.497 0-.9.126-1.243.378s-.575.6-.74 1.014-.243.895-.243 1.412c0 .53.083 1 .248 1.407a2.16 2.16 0 0 0 .746.955c.332.228.742.343 1.233.343zm6.662-3.42V343h-1.173v-10.182h1.173v3.74h.1c.18-.395.448-.708.806-.94s.842-.353 1.442-.353c.52 0 .976.105 1.367.313a2.05 2.05 0 0 1 .9.95c.206.428.328.964.328 1.62V343h-1.174v-4.773c0-.606-.157-1.075-.472-1.407s-.744-.502-1.298-.502a2.16 2.16 0 0 0-1.034.244 1.78 1.78 0 0 0-.716.711c-.172.3-.258.7-.258 1.133zm225.35 2.506v-1.014l4.475-7.08h.736v1.57h-.498l-3.38 5.35v.08h6.025v1.094h-7.358zm4.793 2.088v-10.182h1.173V343h-1.173zm7.75.14c-.75 0-1.387-.204-1.914-.6s-.93-1.006-1.208-1.785-.417-1.727-.417-2.834c0-1.1.14-2.04.417-2.82s.686-1.38 1.213-1.8 1.167-.62 1.9-.62 1.378.207 1.905.62.934 1.008 1.213 1.8.422 1.72.422 2.82c0 1.107-.14 2.052-.417 2.834s-.682 1.374-1.2 1.785-1.165.6-1.914.6zm0-1.094c.743 0 1.32-.358 1.73-1.073s.616-1.737.616-3.063c0-.882-.094-1.632-.283-2.252s-.454-1.092-.806-1.417-.767-.487-1.258-.487c-.735 0-1.3.363-1.725 1.1s-.62 1.745-.62 3.067c0 .882.093 1.63.278 2.247s.453 1.086.8 1.407.774.482 1.267.482zm12.986-9.704l-3.28 12.2H507l3.28-12.2h1.074zm5.07 8.57v-1.014l4.474-7.08h.736v1.57h-.497l-3.38 5.35v.08h6.026v1.094h-7.358zm4.793 2.088v-10.182h1.173V343h-1.173zm7.75.14c-.75 0-1.387-.204-1.914-.6s-.93-1.006-1.208-1.785-.418-1.727-.418-2.834c0-1.1.14-2.04.418-2.82s.686-1.38 1.213-1.8 1.167-.62 1.9-.62 1.377.207 1.904.62.935 1.008 1.213 1.8.423 1.72.423 2.82c0 1.107-.14 2.052-.418 2.834s-.68 1.374-1.208 1.785-1.165.6-1.914.6zm0-1.094c.743 0 1.32-.358 1.73-1.073s.617-1.737.617-3.063c0-.882-.095-1.632-.284-2.252s-.454-1.092-.805-1.417a1.78 1.78 0 0 0-1.258-.487c-.736 0-1.3.363-1.725 1.1s-.622 1.745-.622 3.067c0 .882.093 1.63.28 2.247s.452 1.086.8 1.407a1.81 1.81 0 0 0 1.268.482zm8.75 1.094c-.75 0-1.387-.204-1.914-.6s-.93-1.006-1.208-1.785-.418-1.727-.418-2.834c0-1.1.14-2.04.418-2.82s.686-1.38 1.213-1.8 1.167-.62 1.9-.62 1.377.207 1.904.62.935 1.008 1.213 1.8.423 1.72.423 2.82c0 1.107-.14 2.052-.418 2.834s-.68 1.374-1.208 1.785-1.165.6-1.914.6zm0-1.094c.743 0 1.32-.358 1.73-1.073s.617-1.737.617-3.063c0-.882-.095-1.632-.284-2.252s-.454-1.092-.805-1.417a1.78 1.78 0 0 0-1.258-.487c-.736 0-1.3.363-1.725 1.1s-.622 1.745-.622 3.067c0 .882.093 1.63.28 2.247s.452 1.086.8 1.407a1.81 1.81 0 0 0 1.268.482zm15.63-6.68L550.512 343h-1.193l-2.824-7.636h1.273l2.108 6.085h.08l2.108-6.085h1.273zm4.477 7.795c-.736 0-1.37-.162-1.904-.487s-.94-.786-1.228-1.372-.428-1.276-.428-2.06.143-1.47.428-2.068.7-1.067 1.203-1.402 1.12-.507 1.8-.507c.398 0 .8.066 1.18.2s.74.348 1.06.646.57.686.76 1.174.284 1.087.284 1.8v.498h-5.887v-1.015h4.693c0-.43-.086-.815-.258-1.153s-.4-.605-.726-.8a2.05 2.05 0 0 0-1.104-.294c-.467 0-.87.116-1.213.348a2.29 2.29 0 0 0-.78.895 2.62 2.62 0 0 0-.274 1.183v.676c0 .577.1 1.066.3 1.467a2.15 2.15 0 0 0 .84.91c.358.205.774.308 1.248.308.308 0 .586-.043.835-.13a1.75 1.75 0 0 0 .65-.398 1.82 1.82 0 0 0 .423-.666l1.133.318a2.51 2.51 0 0 1-.601 1.014 2.91 2.91 0 0 1-1.044.676c-.414.162-.88.24-1.397.24zm6.12-4.753V343h-1.174v-7.636h1.134v1.193h.1c.18-.388.45-.7.816-.935s.835-.358 1.412-.358c.517 0 .97.106 1.357.318a2.16 2.16 0 0 1 .905.955c.215.428.323.96.323 1.6V343h-1.173v-4.773c0-.6-.156-1.067-.468-1.402s-.74-.507-1.282-.507a2.06 2.06 0 0 0-1.005.244 1.74 1.74 0 0 0-.691.711c-.17.3-.253.7-.253 1.133zm9.9 4.753c-.636 0-1.198-.16-1.685-.482s-.868-.782-1.143-1.372-.413-1.295-.413-2.103c0-.802.137-1.498.413-2.088s.657-1.046 1.148-1.368 1.057-.482 1.7-.482c.497 0 .9.083 1.18.25s.513.348.666.557l.363.507h.1v-3.76h1.173V343H576.2v-1.173h-.14a7.88 7.88 0 0 1-.368.527c-.16.208-.386.396-.68.56s-.688.244-1.18.244zm.16-1.054c.47 0 .87-.123 1.194-.368s.57-.6.74-1.03.254-.95.254-1.526c0-.57-.083-1.07-.25-1.497s-.4-.765-.735-1.004-.726-.363-1.204-.363c-.497 0-.9.128-1.242.383s-.575.595-.74 1.03a4.08 4.08 0 0 0-.244 1.452 4.17 4.17 0 0 0 .25 1.48c.167.443.417.792.746 1.054s.742.388 1.232.388zm8.755 1.054c-.7 0-1.294-.164-1.814-.492s-.922-.787-1.213-1.377-.433-1.28-.433-2.068c0-.796.144-1.5.433-2.084s.696-1.053 1.213-1.382 1.125-.492 1.814-.492 1.293.164 1.8.492a3.39 3.39 0 0 1 1.213 1.382c.288.592.438 1.288.438 2.084 0 .788-.146 1.478-.438 2.068s-.693 1.05-1.213 1.377-1.12.492-1.8.492zm0-1.054c.524 0 .955-.134 1.293-.403s.588-.62.75-1.06.243-.9.243-1.42-.08-.986-.243-1.427a2.41 2.41 0 0 0-.751-1.069c-.338-.272-.77-.408-1.293-.408s-.954.136-1.292.408a2.41 2.41 0 0 0-.751 1.069 4.1 4.1 0 0 0-.243 1.427c0 .51.08.984.243 1.42s.413.8.75 1.06.77.403 1.292.403zm5.252.895v-7.636h1.133v1.153h.08c.14-.378.4-.684.755-.92a2.23 2.23 0 0 1 1.233-.353l.324.005.293.015v1.193c-.04-.01-.13-.024-.274-.044a3.14 3.14 0 0 0-.442-.035c-.37 0-.703.078-.994.234a1.75 1.75 0 0 0-.686.636c-.166.268-.25.575-.25.92V343H588zm10.618-5.926l-1.054.298a1.93 1.93 0 0 0-.294-.512 1.42 1.42 0 0 0-.517-.418c-.218-.1-.498-.164-.84-.164-.467 0-.857.108-1.168.324s-.462.482-.462.8c0 .292.106.522.318.7s.543.3.994.423l1.134.278c.682.166 1.2.42 1.526.76s.502.774.502 1.307c0 .438-.126.83-.378 1.173a2.54 2.54 0 0 1-1.044.816c-.448.2-.968.298-1.56.298-.78 0-1.424-.17-1.934-.507s-.834-.832-.97-1.482l1.113-.278c.106.4.307.72.602.925s.688.308 1.168.308c.547 0 .98-.116 1.303-.348s.487-.517.487-.845c0-.265-.093-.487-.28-.666s-.47-.32-.855-.408l-1.272-.298c-.7-.166-1.213-.423-1.542-.77s-.487-.8-.487-1.317a1.89 1.89 0 0 1 .363-1.144c.245-.33.58-.6 1-.78s.905-.284 1.442-.284c.756 0 1.35.166 1.78.497s.742.77.925 1.313z" fill="#131520"/><path d="M314 338c0-6.627 5.373-12 12-12h93c6.627 0 12 5.373 12 12h0c0 6.627-5.373 12-12 12h-93c-6.627 0-12-5.373-12-12h0z" fill="#f3f7fc"/><path d="M328.668 342l-2.42-8.727h1.385l1.7 6.758h.08l1.77-6.758h1.372l1.768 6.763h.08l1.696-6.763h1.4L335.064 342h-1.325l-1.837-6.537h-.068L329.997 342h-1.33zm13.095.132c-.644 0-1.2-.138-1.666-.413s-.82-.67-1.074-1.172-.375-1.098-.375-1.777c0-.67.125-1.26.375-1.773a2.92 2.92 0 0 1 1.057-1.197c.455-.287.986-.43 1.594-.43a3.19 3.19 0 0 1 1.074.184 2.59 2.59 0 0 1 .933.575c.276.26.493.6.652 1.018s.24.92.24 1.513v.452h-5.203v-.955h3.954c0-.335-.068-.632-.204-.9s-.33-.468-.576-.618-.53-.226-.86-.226c-.358 0-.67.088-.938.264s-.47.4-.614.682-.213.58-.213.908v.745c0 .438.077.8.23 1.117a1.67 1.67 0 0 0 .652.703c.28.16.604.24.976.24.242 0 .462-.035.66-.103s.37-.176.515-.315a1.37 1.37 0 0 0 .333-.516l1.206.218a2.19 2.19 0 0 1-.52.933c-.247.264-.558.47-.933.618s-.797.217-1.275.217zm5.325-.132v-8.727h1.274v3.243h.077a3.45 3.45 0 0 1 .319-.473c.14-.18.333-.336.58-.47s.574-.205.98-.205c.528 0 1 .134 1.415.4s.74.652.975 1.155.358 1.108.358 1.815-.117 1.314-.353 1.82-.56.9-.972 1.163-.882.405-1.4.405c-.398 0-.723-.067-.976-.2s-.446-.3-.588-.47a3.5 3.5 0 0 1-.328-.477h-.107V342h-1.244zm1.248-3.273c0 .46.067.864.2 1.21s.326.617.58.813.563.3.93.3c.38 0 .7-.1.955-.302s.45-.482.58-.83a3.28 3.28 0 0 0 .2-1.181c0-.432-.065-.82-.196-1.163s-.32-.615-.58-.814-.575-.298-.96-.298c-.37 0-.682.095-.937.285s-.445.456-.576.797-.196.74-.196 1.193zm12.066-1.674l-1.155.204c-.048-.148-.125-.288-.23-.422s-.24-.243-.418-.328-.396-.128-.66-.128c-.36 0-.662.08-.903.243s-.363.365-.363.618a.65.65 0 0 0 .243.528c.162.134.423.243.784.33l1.04.238c.602.14 1.05.354 1.347.644s.443.666.443 1.13c0 .392-.114.74-.34 1.048s-.538.543-.942.716-.865.26-1.393.26c-.733 0-1.33-.156-1.794-.47s-.747-.762-.853-1.342l1.232-.187c.077.32.234.563.473.728s.55.243.933.243c.418 0 .752-.087 1.002-.26s.375-.4.375-.643c0-.205-.077-.377-.23-.516s-.382-.244-.694-.315l-1.108-.243c-.61-.14-1.063-.36-1.355-.665s-.435-.69-.435-1.155a1.65 1.65 0 0 1 .324-1.014c.216-.3.514-.516.895-.678s.817-.247 1.308-.247c.708 0 1.264.154 1.67.46a2.14 2.14 0 0 1 .805 1.223zm2.53 4.947v-6.545h1.274V342h-1.274zm.643-7.555a.81.81 0 0 1-.571-.222c-.156-.15-.234-.33-.234-.537s.078-.39.234-.537.35-.226.57-.226a.79.79 0 0 1 .567.226c.16.148.24.327.24.537s-.08.386-.24.537-.345.222-.567.222zm6.4 1v1.022H366.4v-1.022h3.575zm-2.616-1.57h1.274v6.192c0 .247.037.433.11.558a.58.58 0 0 0 .285.252c.12.042.25.064.388.064.102 0 .192-.007.27-.022l.18-.034.23 1.053a2.14 2.14 0 0 1-.316.085c-.136.03-.306.048-.51.05-.335.006-.648-.054-.937-.18a1.61 1.61 0 0 1-.704-.579c-.18-.262-.268-.6-.268-.985v-6.456zm7.777 8.246c-.645 0-1.2-.138-1.667-.413a2.8 2.8 0 0 1-1.073-1.172c-.25-.506-.375-1.098-.375-1.777 0-.67.125-1.26.375-1.773a2.91 2.91 0 0 1 1.056-1.197c.455-.287.986-.43 1.594-.43a3.19 3.19 0 0 1 1.074.184 2.58 2.58 0 0 1 .933.575c.276.26.493.6.652 1.018s.24.92.24 1.513v.452h-5.203v-.955h3.954c0-.335-.068-.632-.204-.9a1.54 1.54 0 0 0-.576-.618c-.244-.15-.53-.226-.86-.226-.358 0-.67.088-.938.264s-.47.4-.614.682-.213.58-.213.908v.745c0 .438.077.8.23 1.117s.373.54.652.703a1.93 1.93 0 0 0 .975.239c.242 0 .462-.035.66-.103a1.43 1.43 0 0 0 .516-.315 1.38 1.38 0 0 0 .332-.516l1.206.218a2.19 2.19 0 0 1-.52.933c-.247.264-.558.47-.933.618a3.49 3.49 0 0 1-1.274.217zm9.5-.132v-8.727h3.1c.677 0 1.238.116 1.684.35s.784.556 1.005.967.333.883.333 1.42-.113 1.004-.337 1.4-.557.717-1.006.942-1.007.336-1.683.336h-2.356v-1.133h2.237c.426 0 .773-.06 1.04-.183s.467-.3.592-.533.187-.513.187-.84-.064-.616-.19-.857-.323-.426-.593-.554-.618-.196-1.052-.196h-1.654V342h-1.316zm4.308-3.938L391.1 342h-1.5l-2.114-3.938h1.458zm4.324 3.938v-6.545h1.274V342h-1.274zm.643-7.555a.81.81 0 0 1-.571-.222c-.156-.15-.234-.33-.234-.537s.078-.39.234-.537.35-.226.57-.226a.79.79 0 0 1 .567.226c.16.148.24.327.24.537s-.08.386-.24.537-.345.222-.567.222zm8.25 2.608l-1.155.204c-.048-.148-.125-.288-.23-.422a1.14 1.14 0 0 0-.418-.328c-.176-.085-.396-.128-.66-.128-.36 0-.662.08-.904.243s-.362.365-.362.618a.65.65 0 0 0 .243.528c.162.134.423.243.784.33l1.04.238c.602.14 1.05.354 1.346.644s.444.666.444 1.13c0 .392-.114.74-.34 1.048s-.54.543-.942.716-.865.26-1.393.26c-.733 0-1.33-.156-1.795-.47s-.747-.762-.852-1.342l1.232-.187c.076.32.234.563.473.728s.55.243.933.243c.418 0 .75-.087 1-.26s.375-.4.375-.643c0-.205-.076-.377-.23-.516s-.382-.244-.694-.315l-1.108-.243c-.61-.14-1.063-.36-1.355-.665s-.435-.69-.435-1.155a1.65 1.65 0 0 1 .324-1.014c.216-.3.514-.516.895-.678s.816-.247 1.308-.247c.707 0 1.264.154 1.67.46s.675.71.806 1.223zm3.7 2.727l-.008-1.556h.222l2.607-2.77h1.526l-2.974 3.153h-.2l-1.172 1.172zm-1.17 2.22v-8.727h1.274V342h-1.274zm4.133 0l-2.344-3.11.878-.9 3.03 4h-1.564zm8.45-4.947l-1.155.204c-.048-.148-.125-.288-.23-.422s-.24-.243-.417-.328-.397-.128-.66-.128c-.36 0-.662.08-.903.243s-.363.365-.363.618a.65.65 0 0 0 .243.528c.162.134.424.243.784.33l1.04.238c.602.14 1.05.354 1.347.644s.443.666.443 1.13c0 .392-.114.74-.34 1.048s-.538.543-.942.716-.865.26-1.393.26c-.733 0-1.33-.156-1.794-.47s-.747-.762-.853-1.342l1.232-.187c.077.32.234.563.473.728s.55.243.933.243c.418 0 .752-.087 1.002-.26s.375-.4.375-.643a.67.67 0 0 0-.23-.516c-.15-.14-.383-.244-.695-.315l-1.108-.243c-.61-.14-1.062-.36-1.355-.665s-.435-.69-.435-1.155a1.65 1.65 0 0 1 .324-1.014c.216-.3.514-.516.895-.678s.817-.247 1.308-.247c.708 0 1.264.154 1.67.46a2.14 2.14 0 0 1 .805 1.223z" fill="#1757c2"/><circle cx="56" cy="338" r="12" fill="#ff6b01"/><g fill="#fff"><use xlink:href="#C" x="1.988" y="72"/><path d="M56.7 333.824v3.432a10.55 10.55 0 0 1-.054 1.074l-.138 1.1H55.5l-.138-1.1a10.55 10.55 0 0 1-.054-1.074v-3.432H56.7zm-1.626 7.86a.96.96 0 0 1 .066-.354.91.91 0 0 1 .192-.288c.084-.08.182-.144.294-.192s.232-.072.36-.072a.89.89 0 0 1 .354.072.91.91 0 0 1 .288.192.86.86 0 0 1 .198.288.89.89 0 0 1 .072.354c0 .128-.024.248-.072.36s-.114.202-.198.282a.83.83 0 0 1-.288.186.89.89 0 0 1-.354.072c-.128 0-.248-.024-.36-.072s-.2-.106-.294-.186-.144-.174-.192-.282-.066-.232-.066-.36z"/><use xlink:href="#C" x="9.938" y="72"/></g><path d="M42.358 149.455l4.318 12.244h.17l4.318-12.244h1.847L47.67 164h-1.818l-5.34-14.545h1.847zm16.25 14.772c-1.05 0-1.958-.232-2.72-.696s-1.342-1.122-1.754-1.96-.61-1.823-.61-2.94.204-2.103.61-2.955.985-1.524 1.72-2.003 1.6-.724 2.585-.724a5.18 5.18 0 0 1 1.683.284c.554.19 1.058.497 1.513.923s.817.98 1.087 1.676.405 1.553.405 2.57v.71h-8.41v-1.45h6.705c0-.616-.123-1.165-.37-1.648a2.78 2.78 0 0 0-1.037-1.143c-.445-.28-.97-.42-1.577-.42-.668 0-1.245.165-1.733.497a3.27 3.27 0 0 0-1.115 1.278c-.26.526-.39 1.09-.39 1.7v.966c0 .824.142 1.523.426 2.096s.69 1 1.2 1.3 1.106.44 1.783.44a3.63 3.63 0 0 0 1.193-.185c.36-.128.67-.317.93-.568s.462-.573.604-.952l1.62.455c-.17.55-.457 1.032-.86 1.448s-.9.734-1.49.966-1.257.34-1.996.34zm8.743-6.79V164h-1.676v-10.91h1.62v1.704h.142c.256-.554.644-1 1.165-1.335.52-.34 1.193-.51 2.017-.51.74 0 1.385.15 1.94.454s.985.753 1.293 1.364.462 1.373.462 2.3V164h-1.676v-6.818c0-.857-.222-1.525-.668-2.003s-1.056-.724-1.832-.724c-.535 0-1.013.116-1.435.348s-.746.57-.987 1.015-.362.985-.362 1.62zm14.142 6.79c-.91 0-1.712-.23-2.408-.69s-1.24-1.117-1.633-1.96-.6-1.85-.6-3.004c0-1.146.197-2.14.6-2.983s.94-1.494 1.64-1.953 1.5-.69 2.43-.69c.7 0 1.27.118 1.683.355s.734.497.952.795l.52.725h.142v-5.37h1.676V164h-1.62v-1.676h-.2a10.7 10.7 0 0 1-.526.753c-.227.298-.552.566-.973.802s-.983.348-1.683.348zm.227-1.505c.672 0 1.24-.176 1.705-.526s.817-.845 1.058-1.47.362-1.357.362-2.18c0-.814-.118-1.527-.355-2.137-.237-.616-.587-1.094-1.05-1.435-.464-.346-1.037-.518-1.72-.518-.7 0-1.302.182-1.776.546s-.82.85-1.058 1.47c-.232.615-.348 1.306-.348 2.073 0 .777.118 1.482.355 2.117.242.63.597 1.132 1.065 1.506s1.06.554 1.76.554zm12.507 1.505c-.985 0-1.85-.234-2.592-.703s-1.316-1.124-1.733-1.967-.618-1.828-.618-2.955c0-1.136.206-2.128.618-2.976s.994-1.505 1.733-1.974 1.608-.703 2.592-.703 1.847.234 2.585.703 1.32 1.127 1.733 1.974.625 1.84.625 2.976c0 1.127-.208 2.112-.625 2.955s-1 1.498-1.733 1.967-1.6.703-2.585.703zm0-1.505c.748 0 1.364-.192 1.847-.576s.84-.887 1.072-1.512.348-1.303.348-2.032a5.85 5.85 0 0 0-.348-2.038c-.232-.63-.6-1.14-1.072-1.527s-1.1-.582-1.847-.582-1.364.194-1.847.582-.84.897-1.072 1.527a5.85 5.85 0 0 0-.348 2.038c0 .73.116 1.407.348 2.032s.6 1.13 1.072 1.512 1.1.576 1.847.576zm7.5 1.278v-10.91h1.62v1.648h.113c.2-.54.56-.978 1.08-1.314a3.18 3.18 0 0 1 1.761-.505l.462.008.42.02v1.704c-.057-.014-.187-.035-.39-.064s-.41-.05-.632-.05c-.53 0-1.004.11-1.42.334a2.5 2.5 0 0 0-.98.909c-.237.383-.355.82-.355 1.314V164h-1.677zm13.067 4.09v-15h1.62v1.733h.2l.51-.725c.223-.298.54-.563.952-.795.417-.237.98-.355 1.7-.355.92 0 1.73.23 2.43.69s1.248 1.1 1.64 1.953.59 1.837.59 2.983c0 1.155-.196 2.157-.59 3.004s-.937 1.496-1.634 1.96-1.498.69-2.407.69c-.7 0-1.262-.116-1.683-.348s-.746-.504-.973-.802l-.526-.753h-.142v5.767h-1.676zm1.648-9.546c0 .824.12 1.55.362 2.18s.594 1.115 1.058 1.47 1.032.526 1.705.526c.7 0 1.285-.185 1.754-.554s.828-.876 1.065-1.506c.242-.635.362-1.34.362-2.117 0-.767-.118-1.458-.355-2.073-.232-.62-.585-1.11-1.058-1.47s-1.058-.546-1.768-.546c-.682 0-1.255.172-1.72.518-.464.34-.815.82-1.05 1.435-.237.6-.355 1.323-.355 2.137zm14.97 5.682c-.985 0-1.85-.234-2.592-.703s-1.316-1.124-1.733-1.967-.618-1.828-.618-2.955c0-1.136.206-2.128.618-2.976s.994-1.505 1.733-1.974 1.607-.703 2.592-.703 1.847.234 2.585.703c.744.47 1.32 1.127 1.733 1.974s.625 1.84.625 2.976c0 1.127-.208 2.112-.625 2.955s-.99 1.498-1.733 1.967c-.738.47-1.6.703-2.585.703zm0-1.505c.748 0 1.364-.192 1.847-.576s.84-.887 1.072-1.512.348-1.303.348-2.032a5.85 5.85 0 0 0-.348-2.038c-.232-.63-.59-1.14-1.072-1.527s-1.1-.582-1.847-.582-1.364.194-1.846.582-.84.897-1.073 1.527a5.85 5.85 0 0 0-.348 2.038c0 .73.116 1.407.348 2.032s.6 1.13 1.073 1.512 1.098.576 1.846.576zm7.502 1.278v-10.91h1.62v1.648h.114c.2-.54.56-.978 1.08-1.314a3.18 3.18 0 0 1 1.762-.505l.46.008.42.02v1.704c-.056-.014-.187-.035-.4-.064s-.4-.05-.632-.05c-.53 0-1.004.11-1.42.334a2.51 2.51 0 0 0-.98.909c-.237.383-.355.82-.355 1.314V164h-1.676zm12.87-10.91v1.42h-5.653v-1.42h5.653zm-4.005-2.614h1.676v10.398c0 .473.068.83.206 1.065s.322.39.54.47c.223.076.457.114.704.114.184 0 .336-.01.454-.03l.284-.056.34 1.505a3.41 3.41 0 0 1-.476.128c-.203.047-.46.07-.774.07-.473 0-.937-.102-1.392-.305-.45-.204-.824-.514-1.122-.93s-.44-.942-.44-1.576v-10.853zm11.384 2.614v1.42h-5.88v-1.42h5.88zm-4.12 10.91v-12.415c0-.625.147-1.146.44-1.562s.674-.73 1.143-.938a3.62 3.62 0 0 1 1.484-.312c.412 0 .748.033 1.01.1s.454.128.582.185l-.483 1.45-.355-.107c-.147-.042-.34-.064-.582-.064-.554 0-.954.14-1.2.42s-.363.69-.363 1.23V164h-1.676zm10.45.227c-.985 0-1.85-.234-2.592-.703s-1.316-1.124-1.733-1.967-.618-1.828-.618-2.955c0-1.136.206-2.128.618-2.976s.994-1.505 1.733-1.974 1.607-.703 2.592-.703 1.847.234 2.585.703c.744.47 1.32 1.127 1.733 1.974s.625 1.84.625 2.976c0 1.127-.208 2.112-.625 2.955s-.99 1.498-1.733 1.967c-.738.47-1.6.703-2.585.703zm0-1.505c.748 0 1.364-.192 1.847-.576s.84-.887 1.072-1.512.348-1.303.348-2.032a5.85 5.85 0 0 0-.348-2.038c-.232-.63-.59-1.14-1.072-1.527s-1.1-.582-1.847-.582-1.363.194-1.846.582-.84.897-1.073 1.527a5.85 5.85 0 0 0-.348 2.038c0 .73.116 1.407.348 2.032s.6 1.13 1.073 1.512 1.098.576 1.846.576zm9.178-13.267V164H173v-14.545h1.676zm3.07 14.545v-10.91h1.676V164h-1.676zm.852-12.727c-.326 0-.608-.112-.845-.334s-.348-.5-.348-.803a1.07 1.07 0 0 1 .348-.802 1.19 1.19 0 0 1 .845-.334c.327 0 .606.11.838.334a1.06 1.06 0 0 1 .355.802 1.06 1.06 0 0 1-.355.803 1.17 1.17 0 0 1-.838.334zm8.326 12.954c-.985 0-1.85-.234-2.592-.703s-1.317-1.124-1.733-1.967-.618-1.828-.618-2.955c0-1.136.206-2.128.618-2.976s.994-1.505 1.733-1.974 1.607-.703 2.592-.703 1.847.234 2.585.703c.744.47 1.32 1.127 1.733 1.974s.625 1.84.625 2.976c0 1.127-.208 2.112-.625 2.955s-.99 1.498-1.733 1.967c-.738.47-1.6.703-2.585.703zm0-1.505c.748 0 1.364-.192 1.847-.576s.84-.887 1.072-1.512.348-1.303.348-2.032a5.85 5.85 0 0 0-.348-2.038c-.232-.63-.6-1.14-1.072-1.527s-1.1-.582-1.847-.582-1.364.194-1.847.582-.84.897-1.072 1.527a5.85 5.85 0 0 0-.348 2.038c0 .73.116 1.407.348 2.032s.59 1.13 1.072 1.512 1.1.576 1.847.576zM200.05 164v-10.91h1.62v1.648h.114c.2-.54.558-.978 1.08-1.314a3.18 3.18 0 0 1 1.762-.505l.46.008.42.02v1.704c-.057-.014-.187-.035-.4-.064s-.4-.05-.632-.05c-.53 0-1.004.11-1.42.334a2.5 2.5 0 0 0-.98.909c-.237.383-.355.82-.355 1.314V164h-1.676zm7.44 0v-10.91h1.676V164h-1.676zm.852-12.727c-.326 0-.608-.112-.845-.334-.232-.223-.348-.5-.348-.803a1.07 1.07 0 0 1 .348-.802 1.19 1.19 0 0 1 .845-.334c.327 0 .606.11.838.334a1.06 1.06 0 0 1 .356.802c0 .313-.12.58-.356.803a1.17 1.17 0 0 1-.838.334zm11.62 4.26l-1.505.426a2.81 2.81 0 0 0-.419-.731c-.18-.242-.426-.44-.74-.597s-.712-.234-1.2-.234c-.668 0-1.224.154-1.67.46s-.66.69-.66 1.158c0 .417.152.746.455.987s.776.443 1.42.604l1.62.398c.975.236 1.702.6 2.18 1.086s.717 1.106.717 1.868c0 .625-.18 1.184-.54 1.676s-.853.88-1.492 1.165-1.382.426-2.23.426c-1.113 0-2.034-.24-2.763-.724s-1.19-1.19-1.385-2.117l1.59-.397c.152.587.438 1.027.86 1.32s.982.44 1.67.44c.78 0 1.4-.166 1.86-.497s.696-.74.696-1.208c0-.378-.132-.696-.397-.95-.265-.26-.673-.455-1.222-.583l-1.818-.426c-1-.237-1.733-.603-2.202-1.1s-.696-1.13-.696-1.882c0-.615.173-1.16.52-1.633s.826-.845 1.427-1.115 1.293-.405 2.06-.405c1.08 0 1.927.237 2.542.7.62.474 1.06 1.1 1.32 1.875zm4.285 4.49l-.028-2.074h.34l4.773-4.858h2.074l-5.085 5.142h-.142l-1.932 1.8zM222.686 164v-14.545h1.677V164h-1.677zm6.932 0l-4.26-5.398 1.193-1.164 5.2 6.562h-2.13zm11.675-8.466l-1.506.426a2.78 2.78 0 0 0-.419-.731c-.18-.242-.426-.44-.74-.597s-.712-.234-1.2-.234c-.668 0-1.224.154-1.67.46-.44.303-.66.69-.66 1.158 0 .417.152.746.455.987s.776.443 1.42.604l1.62.398c.975.236 1.702.6 2.18 1.086s.717 1.106.717 1.868c0 .625-.18 1.184-.54 1.676-.355.493-.853.88-1.492 1.165s-1.382.426-2.23.426c-1.113 0-2.034-.24-2.763-.724s-1.2-1.19-1.385-2.117l1.59-.397c.152.587.438 1.027.86 1.32s.982.44 1.67.44c.78 0 1.4-.166 1.86-.497.465-.336.697-.74.697-1.208 0-.378-.133-.696-.398-.95-.265-.26-.673-.455-1.222-.583l-1.818-.426c-1-.237-1.733-.603-2.202-1.1s-.696-1.13-.696-1.882c0-.615.173-1.16.52-1.633s.826-.845 1.427-1.115 1.293-.405 2.06-.405c1.08 0 1.927.237 2.543.7s1.06 1.1 1.32 1.875z" fill="#131520"/><path d="M255 157c0-6.627 5.373-12 12-12h82c6.627 0 12 5.373 12 12h0c0 6.627-5.373 12-12 12h-82c-6.627 0-12-5.373-12-12h0z" fill="#f3f7fc"/><path d="M275.003 152.273V161h-1.2l-4.436-6.4h-.08v6.4h-1.317v-8.727h1.22l4.44 6.41h.08v-6.41h1.304zm5.64 8.86c-.644 0-1.2-.138-1.666-.413s-.82-.67-1.074-1.172-.375-1.098-.375-1.777c0-.67.125-1.26.375-1.773s.605-.9 1.057-1.197.986-.43 1.594-.43a3.19 3.19 0 0 1 1.074.184c.346.122.657.313.933.575s.493.6.652 1.018.24.92.24 1.513v.452h-5.203v-.955h3.954c0-.335-.068-.632-.204-.9s-.33-.468-.576-.618-.53-.226-.86-.226c-.358 0-.67.088-.937.264s-.47.4-.614.682-.213.58-.213.908v.745c0 .438.077.8.23 1.117a1.67 1.67 0 0 0 .652.703c.28.16.604.24.976.24.242 0 .462-.035.66-.103s.37-.176.515-.315a1.37 1.37 0 0 0 .333-.516l1.206.218a2.19 2.19 0 0 1-.52.933c-.247.264-.558.47-.933.618s-.797.217-1.275.217zm6.63-.132l-1.926-6.545h1.316l1.283 4.806h.064l1.287-4.806h1.317l1.278 4.785h.064l1.274-4.785h1.317L292.624 161h-1.3l-1.33-4.726h-.098l-1.33 4.726h-1.295zm16.774-6.545v1.022h-3.7v-1.022h3.7zM301.36 161v-7.304c0-.41.1-.75.27-1.018a1.65 1.65 0 0 1 .711-.61 2.28 2.28 0 0 1 .963-.204c.256 0 .475.02.657.064s.316.076.404.1l-.298 1.032-.23-.06c-.094-.026-.207-.038-.34-.038-.3 0-.53.076-.665.23s-.196.375-.196.664V161h-1.274zm7.563.132c-.645 0-1.2-.138-1.667-.413a2.8 2.8 0 0 1-1.073-1.172c-.25-.506-.375-1.098-.375-1.777 0-.67.125-1.26.375-1.773a2.91 2.91 0 0 1 1.056-1.197c.455-.287.986-.43 1.594-.43a3.19 3.19 0 0 1 1.074.184 2.58 2.58 0 0 1 .933.575c.276.26.493.6.652 1.018s.24.92.24 1.513v.452h-5.203v-.955h3.954c0-.335-.068-.632-.204-.9a1.54 1.54 0 0 0-.576-.618c-.244-.15-.53-.226-.86-.226-.358 0-.67.088-.938.264s-.47.4-.613.682a1.97 1.97 0 0 0-.214.908v.745c0 .438.077.8.23 1.117s.373.54.652.703a1.93 1.93 0 0 0 .975.239c.242 0 .462-.035.66-.103a1.43 1.43 0 0 0 .516-.315 1.38 1.38 0 0 0 .332-.516l1.206.218a2.19 2.19 0 0 1-.52.933c-.247.264-.558.47-.933.618a3.49 3.49 0 0 1-1.274.217zm7.126.013c-.414 0-.79-.077-1.125-.23a1.89 1.89 0 0 1-.796-.678c-.194-.295-.3-.657-.3-1.086 0-.37.07-.674.213-.912a1.57 1.57 0 0 1 .575-.567 3.01 3.01 0 0 1 .81-.315c.298-.07.602-.125.912-.162l.954-.11c.245-.03.422-.08.533-.15s.166-.18.166-.333v-.03c0-.372-.105-.66-.315-.865s-.517-.306-.93-.306c-.43 0-.767.095-1.014.285s-.414.396-.507.626l-1.198-.272c.142-.398.35-.72.622-.963s.593-.426.95-.537.734-.17 1.13-.17c.26 0 .538.032.83.094a2.45 2.45 0 0 1 .826.332c.26.162.47.394.635.695s.248.686.248 1.163V161h-1.245v-.895h-.05c-.082.165-.206.327-.37.486s-.376.29-.635.396-.568.158-.93.158zm.277-1.023c.353 0 .654-.07.904-.21s.444-.32.575-.545a1.41 1.41 0 0 0 .2-.729v-.844c-.045.046-.133.09-.264.128s-.274.07-.44.098l-.48.073-.392.05a3.15 3.15 0 0 0-.678.158c-.202.073-.364.18-.486.32s-.18.318-.18.546c0 .315.117.554.35.716s.53.238.9.238zm8.706-5.667v1.022h-3.575v-1.022h3.575zm-2.616-1.57h1.274v6.192c0 .247.037.433.1.558a.58.58 0 0 0 .286.252 1.16 1.16 0 0 0 .388.064 1.41 1.41 0 0 0 .268-.022l.18-.034.23 1.053a2.16 2.16 0 0 1-.315.085c-.136.03-.307.048-.51.05a2.24 2.24 0 0 1-.938-.179 1.61 1.61 0 0 1-.703-.579c-.18-.262-.268-.6-.268-.985v-6.456zm9.172 5.4v-3.83h1.278V161h-1.253v-1.134h-.068c-.15.35-.392.64-.724.874s-.74.345-1.232.345a2.21 2.21 0 0 1-1.116-.277c-.32-.187-.574-.464-.76-.83s-.273-.82-.273-1.36v-4.163h1.275v4.01c0 .447.123.802.37 1.066a1.26 1.26 0 0 0 .963.396c.24 0 .476-.06.712-.18s.436-.3.592-.54.238-.548.235-.92zm4 2.714v-6.545h1.232v1.04h.068a1.58 1.58 0 0 1 .631-.831c.304-.204.647-.306 1.03-.306l.28.008.26.02v1.22a2.3 2.3 0 0 0-.273-.047c-.13-.02-.26-.03-.392-.03a1.66 1.66 0 0 0-.805.192c-.233.125-.418.3-.554.524s-.205.475-.205.76V161h-1.274zm8.192.132c-.645 0-1.2-.138-1.666-.413s-.82-.67-1.074-1.172-.375-1.098-.375-1.777c0-.67.125-1.26.375-1.773s.605-.9 1.057-1.197.986-.43 1.594-.43a3.19 3.19 0 0 1 1.074.184c.346.122.657.313.933.575s.493.6.652 1.018.24.92.24 1.513v.452h-5.204v-.955h3.955a1.87 1.87 0 0 0-.205-.89c-.136-.262-.328-.468-.575-.618s-.53-.226-.86-.226c-.358 0-.67.088-.937.264s-.47.4-.614.682-.213.58-.213.908v.745c0 .438.077.8.23 1.117s.374.54.652.703.604.24.976.24c.242 0 .462-.035.66-.103s.37-.176.515-.315a1.37 1.37 0 0 0 .333-.516l1.206.218a2.19 2.19 0 0 1-.52.933c-.247.264-.56.47-.934.618s-.796.217-1.274.217z" fill="#1757c2"/><rect x="40.5" y="40.5" width="591" height="71" rx="7.5" fill="#f3f7fc" stroke="#1757c2"/><g fill="#1757c2"><path d="M75.465 70.56a.7.7 0 0 1-.44-.16c-.2-.16-.3-.42-.24-.68l.98-5-.54.3c-.34.18-.76.08-.96-.26-.18-.34-.08-.76.26-.96l1.86-1.06a.7.7 0 0 1 .76.04c.22.16.32.44.28.7l-1.02 5.18.84-.36c.36-.16.76 0 .92.36s0 .76-.36.92l-2.06.9a.46.46 0 0 1-.28.08zm1.98-9.56a1.02 1.02 0 0 0 .3-.7c0-.26-.1-.52-.3-.7a1.02 1.02 0 0 0-.7-.3c-.26 0-.52.1-.7.3a1.02 1.02 0 0 0-.3.7c0 .26.1.52.3.7a1.02 1.02 0 0 0 .7.3c.26 0 .52-.1.7-.3zm7.76 4c0-5.08-4.12-9.2-9.2-9.2s-9.2 4.12-9.2 9.2 4.12 9.2 9.2 9.2 9.2-4.12 9.2-9.2zm-1.6 0a7.6 7.6 0 1 1-15.2 0 7.6 7.6 0 1 1 15.2 0zm23.507 4h1.55l2.143-7.626h.08L113.028 69h1.547l2.828-10.182h-1.62l-1.98 7.9h-.094l-2.064-7.9h-1.6l-2.063 7.885h-.094l-1.984-7.885h-1.616L107.112 69zm14.112.154c1.666 0 2.844-.82 3.182-2.063L123 66.837c-.27.72-.915 1.1-1.76 1.1-1.273 0-2.128-.825-2.168-2.297h5.43v-.527c0-2.76-1.65-3.838-3.38-3.838-2.128 0-3.53 1.62-3.53 3.967 0 2.37 1.382 3.923 3.634 3.923zm-2.148-4.638c.06-1.084.846-2.023 2.054-2.023 1.153 0 1.9.855 1.914 2.023h-3.968zm8.56-5.697h-1.486V69h1.486V58.818zm5.217 10.336c1.804 0 2.973-1.084 3.137-2.57h-1.447c-.2.825-.83 1.313-1.68 1.313-1.258 0-2.07-1.05-2.07-2.715 0-1.636.826-2.665 2.07-2.665.944 0 1.52.597 1.68 1.313H136c-.16-1.54-1.417-2.565-3.152-2.565-2.153 0-3.545 1.62-3.545 3.952 0 2.302 1.342 3.938 3.56 3.938zm7.943 0c2.153 0 3.56-1.576 3.56-3.937 0-2.376-1.407-3.952-3.56-3.952s-3.56 1.576-3.56 3.952c0 2.362 1.407 3.938 3.56 3.938zm.005-1.248c-1.407 0-2.063-1.228-2.063-2.695s.656-2.705 2.063-2.705c1.397 0 2.053 1.243 2.053 2.705 0 1.467-.656 2.695-2.053 2.695zM146.015 69h1.486v-4.708c0-1.03.72-1.745 1.566-1.745.826 0 1.397.547 1.397 1.377V69h1.482v-4.867c0-.92.562-1.586 1.53-1.586.786 0 1.432.438 1.432 1.472V69h1.487v-5.12c0-1.745-.975-2.615-2.357-2.615-1.1 0-1.924.527-2.292 1.342h-.08c-.333-.835-1.034-1.342-2.054-1.342-1 0-1.76.502-2.078 1.342h-.094v-1.243h-1.427V69zm15.664.154c1.666 0 2.844-.82 3.182-2.063l-1.407-.254c-.268.72-.915 1.1-1.76 1.1-1.273 0-2.128-.825-2.168-2.297h5.43v-.527c0-2.76-1.65-3.838-3.38-3.838-2.128 0-3.53 1.62-3.53 3.967 0 2.37 1.382 3.923 3.634 3.923zm-2.148-4.638c.06-1.084.846-2.023 2.054-2.023 1.153 0 1.9.855 1.914 2.023h-3.968zM170.43 69h1.452v-1.188h.124c.27.487.815 1.337 2.208 1.337 1.85 0 3.2-1.482 3.2-3.952s-1.362-3.933-3.206-3.933c-1.417 0-1.93.865-2.193 1.337h-.1v-3.783h-1.487V69zm1.457-3.818c0-1.596.696-2.655 1.993-2.655 1.348 0 2.024 1.14 2.024 2.655 0 1.53-.696 2.7-2.024 2.7-1.277 0-1.993-1.094-1.993-2.7zm9.4 3.987c1.263 0 1.974-.64 2.257-1.213h.06V69h1.45v-5.07c0-2.222-1.75-2.665-2.963-2.665-1.382 0-2.655.557-3.152 1.95l1.397.318c.22-.542.776-1.064 1.775-1.064.96 0 1.452.502 1.452 1.367v.035c0 .542-.557.532-1.93.7-1.447.17-2.928.547-2.928 2.282 0 1.502 1.128 2.327 2.58 2.327zm.323-1.193c-.84 0-1.447-.378-1.447-1.114 0-.795.706-1.08 1.566-1.193.483-.065 1.626-.194 1.84-.408v.984c0 .905-.72 1.73-1.96 1.73zm8.642 1.178c1.805 0 2.973-1.084 3.137-2.57h-1.447c-.2.825-.83 1.313-1.68 1.313-1.258 0-2.068-1.05-2.068-2.715 0-1.636.825-2.665 2.068-2.665.944 0 1.52.597 1.68 1.313h1.447c-.16-1.54-1.417-2.565-3.152-2.565-2.153 0-3.545 1.62-3.545 3.952 0 2.302 1.343 3.938 3.56 3.938zM194.98 69h1.486v-2.7l.74-.74L199.8 69h1.825l-3.302-4.36 3.093-3.276h-1.78l-3.043 3.232h-.13V58.82h-1.486V69zm8.772.094c.542 0 .994-.442.994-.994a1 1 0 0 0-.994-.989c-.547 0-.994.447-.994 1 0 .552.447.994.994.994zM212.4 69h1.55l2.143-7.626h.08L218.316 69h1.546l2.83-10.182h-1.62l-1.98 7.9h-.094l-2.064-7.9h-1.6l-2.064 7.885h-.094l-1.984-7.885h-1.616L212.4 69zm14.112.154c1.666 0 2.844-.82 3.182-2.063l-1.407-.254c-.268.72-.915 1.1-1.76 1.1-1.273 0-2.128-.825-2.168-2.297h5.43v-.527c0-2.76-1.65-3.838-3.38-3.838-2.128 0-3.53 1.62-3.53 3.967 0 2.37 1.382 3.923 3.634 3.923zm-2.148-4.638c.06-1.084.846-2.023 2.054-2.023 1.153 0 1.9.855 1.914 2.023h-3.968zm8.35-5.697h-1.272v.97c0 .77-.338 1.402-.726 1.974l.736.527c.765-.617 1.262-1.67 1.262-2.516v-.955zm8.25 2.545h-1.596l-1.93 5.877h-.08l-1.934-5.876h-1.596L236.604 69h1.6l2.77-7.636zm4.414 7.8c1.666 0 2.844-.82 3.182-2.063l-1.407-.254c-.268.72-.915 1.1-1.76 1.1-1.272 0-2.128-.825-2.167-2.297h5.43v-.527c0-2.76-1.65-3.838-3.38-3.838-2.128 0-3.53 1.62-3.53 3.967 0 2.37 1.382 3.923 3.634 3.923zm-2.147-4.638c.06-1.084.845-2.023 2.053-2.023 1.153 0 1.9.855 1.914 2.023h-3.967zM254 69h1.487v-4.708c0-1.03.72-1.745 1.566-1.745.825 0 1.397.547 1.397 1.377V69h1.48v-4.867c0-.92.562-1.586 1.53-1.586.786 0 1.432.438 1.432 1.472V69h1.487v-5.12c0-1.745-.975-2.615-2.357-2.615-1.1 0-1.924.527-2.292 1.342h-.08c-.333-.835-1.034-1.342-2.054-1.342-1 0-1.76.502-2.078 1.342h-.094v-1.243h-1.427V69zm14.595.17c1.263 0 1.974-.64 2.258-1.213h.06V69h1.452v-5.07c0-2.222-1.75-2.665-2.963-2.665-1.382 0-2.655.557-3.152 1.95l1.397.318c.22-.542.775-1.064 1.775-1.064.96 0 1.45.502 1.45 1.367v.035c0 .542-.556.532-1.93.7-1.446.17-2.928.547-2.928 2.282 0 1.502 1.13 2.327 2.58 2.327zm.324-1.193c-.84 0-1.447-.378-1.447-1.114 0-.795.706-1.08 1.566-1.193.482-.065 1.626-.194 1.84-.408v.984c0 .905-.72 1.73-1.958 1.73zm8.283 1.173c1.393 0 1.94-.85 2.208-1.337h.124V69h1.452V58.818h-1.487V62.6h-.1c-.27-.472-.776-1.337-2.198-1.337-1.844 0-3.2 1.457-3.2 3.933s1.337 3.952 3.2 3.952zm.33-1.268c-1.328 0-2.02-1.168-2.02-2.7 0-1.516.676-2.655 2.02-2.655 1.297 0 1.993 1.06 1.993 2.655 0 1.606-.7 2.7-1.993 2.7zm8.868 1.273c1.665 0 2.843-.82 3.18-2.063l-1.406-.254c-.27.72-.915 1.1-1.76 1.1-1.273 0-2.128-.825-2.168-2.297h5.43v-.527c0-2.76-1.65-3.838-3.38-3.838-2.128 0-3.53 1.62-3.53 3.967 0 2.37 1.383 3.923 3.635 3.923zm-2.148-4.638c.06-1.084.845-2.023 2.053-2.023 1.154 0 1.9.855 1.914 2.023h-3.967zm16.5-1.288c-.3-1.188-1.238-1.964-2.9-1.964-1.725 0-2.948.9-2.948 2.262 0 1.084.656 1.805 2.088 2.123l1.293.283c.735.164 1.08.492 1.08.97 0 .592-.632 1.054-1.606 1.054-.9 0-1.462-.383-1.64-1.134l-1.437.22c.25 1.352 1.372 2.113 3.088 2.113 1.844 0 3.122-.98 3.122-2.362 0-1.08-.686-1.745-2.088-2.068l-1.213-.278c-.84-.2-1.203-.482-1.198-1-.005-.587.63-1.004 1.476-1.004.925 0 1.352.512 1.526 1.024l1.348-.24zm5 5.926c2.153 0 3.56-1.576 3.56-3.937 0-2.376-1.406-3.952-3.56-3.952s-3.56 1.576-3.56 3.952c0 2.362 1.407 3.938 3.56 3.938zm.005-1.248c-1.407 0-2.063-1.228-2.063-2.695s.656-2.705 2.063-2.705c1.397 0 2.053 1.243 2.053 2.705 0 1.467-.656 2.695-2.053 2.695zM310.98 69h1.486v-4.708c0-1.03.72-1.745 1.566-1.745.826 0 1.397.547 1.397 1.377V69h1.482v-4.867c0-.92.562-1.586 1.53-1.586.786 0 1.432.438 1.432 1.472V69h1.486v-5.12c0-1.745-.974-2.615-2.356-2.615-1.1 0-1.924.527-2.292 1.342h-.08c-.333-.835-1.034-1.342-2.053-1.342-1 0-1.76.502-2.078 1.342h-.094v-1.243h-1.427V69zm15.664.154c1.665 0 2.844-.82 3.182-2.063l-1.407-.254c-.27.72-.915 1.1-1.76 1.1-1.273 0-2.128-.825-2.168-2.297h5.43v-.527c0-2.76-1.65-3.838-3.38-3.838-2.128 0-3.53 1.62-3.53 3.967 0 2.37 1.382 3.923 3.634 3.923zm-2.148-4.638c.06-1.084.845-2.023 2.054-2.023 1.153 0 1.9.855 1.914 2.023h-3.968zM335.275 69h1.486v-7.636h-1.486V69zm.75-8.815c.512 0 .94-.398.94-.885s-.428-.9-.94-.9-.94.403-.94.9.422.885.94.885zM338.76 69h1.487v-4.708c0-1.03.72-1.745 1.566-1.745.825 0 1.397.547 1.397 1.377V69h1.48v-4.867c0-.92.562-1.586 1.53-1.586.786 0 1.432.438 1.432 1.472V69h1.487v-5.12c0-1.745-.975-2.615-2.357-2.615-1.1 0-1.924.527-2.292 1.342h-.08c-.333-.835-1.034-1.342-2.054-1.342-1 0-1.76.502-2.078 1.342h-.094v-1.243h-1.427V69zm12.373 2.864h1.487v-4.052h.1c.27.487.815 1.337 2.207 1.337 1.85 0 3.192-1.482 3.192-3.952s-1.362-3.933-3.206-3.933c-1.417 0-1.93.865-2.193 1.337h-.124v-1.238h-1.452v10.5zm1.457-6.682c0-1.596.696-2.655 1.993-2.655 1.348 0 2.024 1.14 2.024 2.655 0 1.53-.696 2.7-2.024 2.7-1.277 0-1.993-1.094-1.993-2.7zM359.775 69h1.486v-4.663c0-1 .77-1.72 1.825-1.72.308 0 .656.055.775.1v-1.422c-.15-.02-.442-.035-.63-.035-.895 0-1.66.507-1.94 1.327h-.08v-1.213h-1.436V69zm8.316.154c2.153 0 3.56-1.576 3.56-3.937 0-2.376-1.407-3.952-3.56-3.952s-3.56 1.576-3.56 3.952c0 2.362 1.407 3.938 3.56 3.938zm.005-1.248c-1.407 0-2.063-1.228-2.063-2.695s.656-2.705 2.063-2.705c1.397 0 2.053 1.243 2.053 2.705 0 1.467-.656 2.695-2.053 2.695zm11.473-6.543h-1.596l-1.93 5.877h-.08l-1.934-5.876h-1.596L375.2 69h1.6l2.77-7.636zm4.415 7.8c1.665 0 2.844-.82 3.182-2.063l-1.407-.254c-.27.72-.915 1.1-1.76 1.1-1.273 0-2.128-.825-2.168-2.297h5.43v-.527c0-2.76-1.65-3.838-3.38-3.838-2.127 0-3.53 1.62-3.53 3.967 0 2.37 1.382 3.923 3.634 3.923zm-2.148-4.638c.06-1.084.845-2.023 2.053-2.023 1.154 0 1.9.855 1.914 2.023h-3.967zM388.9 69h1.487v-4.708c0-1.03.72-1.745 1.566-1.745.825 0 1.397.547 1.397 1.377V69h1.482v-4.867c0-.92.56-1.586 1.53-1.586.785 0 1.432.438 1.432 1.472V69h1.486v-5.12c0-1.745-.974-2.615-2.356-2.615-1.1 0-1.924.527-2.292 1.342h-.08c-.333-.835-1.034-1.342-2.053-1.342-1 0-1.76.502-2.078 1.342h-.095v-1.243h-1.427V69zm15.665.154c1.665 0 2.843-.82 3.182-2.063l-1.407-.254c-.27.72-.915 1.1-1.76 1.1-1.273 0-2.128-.825-2.168-2.297h5.43v-.527c0-2.76-1.65-3.838-3.38-3.838-2.128 0-3.53 1.62-3.53 3.967 0 2.37 1.383 3.923 3.635 3.923zm-2.148-4.638c.06-1.084.845-2.023 2.053-2.023 1.154 0 1.9.855 1.914 2.023h-3.967zm8.56-.05c0-1.218.746-1.914 1.78-1.914 1 0 1.62.66 1.62 1.77V69h1.487v-4.857c0-1.9-1.04-2.88-2.6-2.88-1.15 0-1.9.532-2.252 1.342h-.095v-1.243H409.5V69h1.487v-4.534zm10.445-3.102h-1.566v-1.83h-1.486v1.83h-1.12v1.193h1.12v4.5c-.005 1.387 1.054 2.058 2.227 2.033a2.84 2.84 0 0 0 .964-.159l-.268-1.228c-.1.02-.284.065-.522.065-.482 0-.915-.16-.915-1.02v-4.2h1.566v-1.193zm7.244 1.864c-.3-1.188-1.238-1.964-2.9-1.964-1.725 0-2.948.9-2.948 2.262 0 1.084.656 1.805 2.088 2.123l1.293.283c.736.164 1.08.492 1.08.97 0 .592-.632 1.054-1.606 1.054-.9 0-1.462-.383-1.64-1.134l-1.437.22c.25 1.352 1.373 2.113 3.088 2.113 1.844 0 3.122-.98 3.122-2.362 0-1.08-.686-1.745-2.088-2.068l-1.213-.278c-.84-.2-1.203-.482-1.198-1-.005-.587.63-1.004 1.476-1.004.925 0 1.352.512 1.526 1.024l1.348-.24zm3.658-4.4h-1.636l.13 7.254h1.377l.13-7.254zm-.82 10.276a1 1 0 0 0 .995-.994 1 1 0 0 0-.995-.989c-.547 0-.994.447-.994 1 0 .552.447.994.994.994z"/><path d="M104.358 81.818l3.68 5.986V92h1.233v-4.196l3.68-5.986h-1.412l-2.824 4.753h-.12l-2.824-4.753h-1.412zm12.05 10.34c2.068 0 3.46-1.57 3.46-3.937 0-2.386-1.392-3.957-3.46-3.957s-3.46 1.57-3.46 3.957c0 2.367 1.392 3.938 3.46 3.938zm0-1.054c-1.57 0-2.287-1.352-2.287-2.883s.716-2.903 2.287-2.903 2.287 1.372 2.287 2.903-.716 2.883-2.287 2.883zm10.063-2.227c0 1.432-1.093 2.088-1.968 2.088-.975 0-1.67-.716-1.67-1.83v-4.773h-1.173v4.852c0 1.95 1.034 2.883 2.466 2.883 1.153 0 1.91-.616 2.267-1.392h.08V92h1.174v-7.636h-1.174v4.514zm10.362 3.28c1.69 0 2.804-1.034 3.003-2.386h-1.173c-.22.835-.915 1.332-1.83 1.332-1.392 0-2.287-1.153-2.287-2.923 0-1.73.915-2.864 2.287-2.864 1.034 0 1.65.636 1.83 1.332h1.173c-.2-1.432-1.412-2.386-3.023-2.386-2.068 0-3.44 1.63-3.44 3.957 0 2.287 1.313 3.938 3.46 3.938zm6.966.02c1.332 0 2.028-.716 2.267-1.213h.06V92h1.174v-5.03c0-2.426-1.85-2.705-2.824-2.705-1.154 0-2.466.398-3.063 1.8l1.114.398c.258-.557.87-1.153 1.988-1.153 1.08 0 1.61.572 1.61 1.55v.04c0 .567-.576.517-1.968.696-1.417.184-2.964.497-2.964 2.247 0 1.49 1.154 2.347 2.606 2.347zm.18-1.054c-.935 0-1.61-.418-1.61-1.233 0-.895.815-1.173 1.73-1.293.497-.06 1.83-.2 2.028-.437v1.074c0 .954-.755 1.89-2.147 1.89zm6.635-3.72c0-1.332.826-2.088 1.95-2.088 1.09 0 1.75.71 1.75 1.91V92h1.174v-4.852c0-1.95-1.04-2.883-2.586-2.883-1.153 0-1.87.517-2.227 1.293h-.1v-1.193h-1.134V92h1.173v-4.594zm12.127 0c0-1.332.826-2.088 1.95-2.088 1.09 0 1.75.71 1.75 1.91V92h1.174v-4.852c0-1.95-1.04-2.883-2.586-2.883-1.153 0-1.87.517-2.227 1.293h-.1v-1.193h-1.134V92h1.173v-4.594zm10.12 4.753c2.068 0 3.46-1.57 3.46-3.937 0-2.386-1.392-3.957-3.46-3.957s-3.46 1.57-3.46 3.957c0 2.367 1.392 3.938 3.46 3.938zm0-1.054c-1.57 0-2.287-1.352-2.287-2.883s.716-2.903 2.287-2.903 2.287 1.372 2.287 2.903-.716 2.883-2.287 2.883zm6.72.895h1.154l1.67-5.867h.12l1.67 5.867h1.153l2.327-7.636h-1.233L184.8 90.2h-.08l-1.61-5.827h-1.253l-1.63 5.847h-.08l-1.65-5.847h-1.233L179.58 92zm19.827-7.636h-1.273l-2.108 6.085h-.08l-2.108-6.085h-1.273L195.39 92h1.193l2.824-7.636zm1.55 7.636h1.173v-7.636h-1.173V92zm.596-8.91c.458 0 .836-.358.836-.795s-.378-.796-.836-.796-.835.358-.835.796.378.795.835.795zm5.928 9.068c1.55 0 2.684-.776 3.042-1.93l-1.133-.318c-.3.796-1 1.193-1.91 1.193-1.377 0-2.327-.9-2.382-2.526h5.544v-.497c0-2.844-1.69-3.818-3.282-3.818-2.068 0-3.44 1.63-3.44 3.977s1.352 3.918 3.56 3.918zm-2.382-4.594c.08-1.188.92-2.247 2.262-2.247 1.273 0 2.088.954 2.088 2.247h-4.35zm9.06 4.435h1.153l1.67-5.867h.12L218.77 92h1.154l2.326-7.636h-1.233l-1.65 5.827h-.08l-1.61-5.827h-1.252l-1.63 5.847h-.08l-1.65-5.847h-1.233L214.156 92zm14.338 2.844c1.06 0 1.81-.562 2.247-1.73l3.25-8.73-1.282-.02-2.108 6.085h-.08l-2.108-6.085h-1.273l2.824 7.676-.22.597c-.417 1.143-.954 1.253-1.81 1.034l-.3 1.034c.12.06.458.14.856.14zm9.88-2.685c2.07 0 3.46-1.57 3.46-3.937 0-2.386-1.392-3.957-3.46-3.957s-3.46 1.57-3.46 3.957c0 2.367 1.392 3.938 3.46 3.938zm0-1.054c-1.57 0-2.287-1.352-2.287-2.883s.716-2.903 2.287-2.903 2.287 1.372 2.287 2.903-.716 2.883-2.287 2.883zm10.064-2.227c0 1.432-1.094 2.088-1.97 2.088-.974 0-1.67-.716-1.67-1.83v-4.773h-1.173v4.852c0 1.95 1.034 2.883 2.466 2.883 1.153 0 1.91-.616 2.267-1.392h.08V92h1.173v-7.636h-1.173v4.514zM251.76 92h1.174v-4.832c0-1.034.815-1.8 1.93-1.8.313 0 .636.06.716.08v-1.193l-.617-.02c-.915 0-1.7.517-1.99 1.273h-.08v-1.153h-1.134V92zm12.35.16c1.55 0 2.684-.776 3.042-1.93l-1.133-.318c-.3.796-1 1.193-1.91 1.193-1.378 0-2.327-.9-2.382-2.526h5.544v-.497c0-2.844-1.69-3.818-3.282-3.818-2.068 0-3.44 1.63-3.44 3.977s1.352 3.918 3.56 3.918zm-2.382-4.594c.08-1.188.92-2.247 2.262-2.247 1.273 0 2.088.954 2.088 2.247h-4.35zm8.502-.16c0-1.332.825-2.088 1.948-2.088 1.09 0 1.75.71 1.75 1.91V92h1.174v-4.852c0-1.95-1.04-2.883-2.585-2.883-1.154 0-1.87.517-2.228 1.293h-.1v-1.193h-1.134V92h1.174v-4.594zm10.337-3.043h-1.63v-1.83h-1.173v1.83h-1.154v.994h1.154v4.773c0 1.332 1.074 1.97 2.068 1.97.438 0 .716-.08.875-.14l-.24-1.054c-.1.02-.258.06-.517.06-.517 0-1.014-.16-1.014-1.153v-4.454h1.63v-.994zM282.33 92h1.173v-7.636h-1.173V92zm.596-8.91c.458 0 .836-.358.836-.795s-.378-.796-.836-.796-.835.358-.835.796.378.795.835.795zm2.726 8.91h1.173v-4.832c0-1.034.816-1.8 1.93-1.8.313 0 .637.06.716.08v-1.193l-.616-.02c-.915 0-1.71.517-1.99 1.273h-.08v-1.153h-1.134V92zm8.178.16c1.55 0 2.685-.776 3.043-1.93l-1.134-.318c-.298.796-.99 1.193-1.91 1.193-1.377 0-2.326-.9-2.38-2.526h5.543v-.497c0-2.844-1.7-3.818-3.28-3.818-2.068 0-3.44 1.63-3.44 3.977s1.352 3.918 3.56 3.918zm-2.38-4.594c.08-1.188.92-2.247 2.262-2.247 1.273 0 2.088.954 2.088 2.247h-4.35zm17.5-3.202h-1.273l-2.108 6.085h-.08l-2.108-6.085h-1.273L304.942 92h1.193l2.824-7.636zm4.477 7.795c1.55 0 2.684-.776 3.042-1.93l-1.133-.318c-.298.796-1 1.193-1.91 1.193-1.377 0-2.327-.9-2.382-2.526h5.544v-.497c0-2.844-1.69-3.818-3.282-3.818-2.068 0-3.44 1.63-3.44 3.977s1.352 3.918 3.56 3.918zm-2.382-4.594c.08-1.188.92-2.247 2.262-2.247 1.273 0 2.088.954 2.088 2.247h-4.35zm8.502-.16c0-1.332.825-2.088 1.95-2.088 1.088 0 1.75.71 1.75 1.91V92h1.173v-4.852c0-1.95-1.04-2.883-2.585-2.883-1.154 0-1.87.517-2.228 1.293h-.1v-1.193h-1.134V92h1.174v-4.594zm9.9 4.753c1.472 0 1.97-.915 2.228-1.332h.14V92h1.133V81.818h-1.173v3.758h-.1c-.26-.398-.716-1.312-2.208-1.312-1.93 0-3.26 1.53-3.26 3.938 0 2.426 1.332 3.957 3.24 3.957zm.16-1.054c-1.472 0-2.228-1.293-2.228-2.923 0-1.61.736-2.864 2.228-2.864 1.43 0 2.187 1.153 2.187 2.864 0 1.73-.776 2.923-2.187 2.923zm8.754 1.054c2.07 0 3.46-1.57 3.46-3.937 0-2.386-1.392-3.957-3.46-3.957s-3.46 1.57-3.46 3.957c0 2.367 1.392 3.938 3.46 3.938zm0-1.054c-1.57 0-2.286-1.352-2.286-2.883s.715-2.903 2.286-2.903 2.287 1.372 2.287 2.903-.715 2.883-2.287 2.883zm5.252.895h1.173v-4.832c0-1.034.815-1.8 1.93-1.8.313 0 .636.06.716.08v-1.193l-.617-.02c-.914 0-1.7.517-1.988 1.273h-.08v-1.153h-1.133V92zm9.146 0h1.174v-4.832c0-1.034.815-1.8 1.928-1.8.314 0 .637.06.716.08v-1.193l-.616-.02c-.915 0-1.7.517-1.99 1.273h-.08v-1.153h-1.134V92zm5.21 0h1.174v-7.636h-1.174V92zm.597-8.91c.457 0 .835-.358.835-.795s-.378-.796-.835-.796-.835.358-.835.796.377.795.835.795zm8.135 2.983c-.368-1.084-1.194-1.8-2.705-1.8-1.61 0-2.804.915-2.804 2.207 0 1.054.626 1.76 2.028 2.088l1.273.298c.77.18 1.134.547 1.134 1.074 0 .656-.696 1.193-1.8 1.193-.96 0-1.56-.413-1.77-1.233l-1.114.28c.274 1.297 1.343 1.99 2.904 1.99 1.775 0 2.983-.97 2.983-2.287 0-1.064-.666-1.735-2.03-2.068l-1.133-.278c-.905-.224-1.313-.527-1.313-1.114 0-.656.696-1.133 1.63-1.133 1.024 0 1.447.567 1.65 1.094l1.054-.298zM368.613 92h1.173v-2.86l.82-.76 2.858 3.62h1.492l-3.466-4.375 3.227-3.26h-1.452l-3.34 3.4h-.14v-5.946h-1.173V92zm11.553 2.864h1.173v-4.037h.1c.26.418.756 1.332 2.228 1.332 1.91 0 3.24-1.53 3.24-3.957 0-2.406-1.332-3.937-3.26-3.937-1.492 0-1.95.915-2.208 1.313h-.14v-1.213h-1.133v10.5zm1.153-6.682c0-1.7.756-2.864 2.188-2.864 1.49 0 2.227 1.253 2.227 2.864 0 1.63-.756 2.923-2.227 2.923-1.412 0-2.188-1.193-2.188-2.923zM388.697 92h1.173v-4.832c0-1.034.816-1.8 1.93-1.8.313 0 .637.06.716.08v-1.193l-.616-.02c-.915 0-1.71.517-1.99 1.273h-.08v-1.153h-1.133V92zm8.08.16c2.068 0 3.46-1.57 3.46-3.937 0-2.386-1.392-3.957-3.46-3.957s-3.46 1.57-3.46 3.957c0 2.367 1.392 3.938 3.46 3.938zm0-1.054c-1.57 0-2.287-1.352-2.287-2.883s.716-2.903 2.287-2.903 2.287 1.372 2.287 2.903-.716 2.883-2.287 2.883zm8.652-6.74h-1.71v-.776c0-.756.32-1.153 1.094-1.153.338 0 .537.08.656.12l.338-1.014c-.18-.08-.537-.2-1.113-.2-1.094 0-2.148.656-2.148 1.97v1.054h-1.233v.994h1.233V92h1.173v-6.642h1.71v-.994zM407.072 92h1.173v-7.636h-1.173V92zm.597-8.91c.457 0 .835-.358.835-.795s-.378-.796-.835-.796-.836.358-.836.796.378.795.836.795zm3.898-1.273h-1.173V92h1.173V81.818zm5.35 10.34c1.55 0 2.685-.776 3.043-1.93l-1.134-.318c-.298.796-.99 1.193-1.91 1.193-1.377 0-2.327-.9-2.38-2.526h5.543v-.497c0-2.844-1.7-3.818-3.28-3.818-2.068 0-3.44 1.63-3.44 3.977s1.353 3.918 3.56 3.918zm-2.38-4.594c.08-1.188.92-2.247 2.262-2.247 1.273 0 2.088.954 2.088 2.247h-4.35zm13.513 4.614c1.332 0 2.028-.716 2.267-1.213h.06V92h1.174v-5.03c0-2.426-1.85-2.705-2.824-2.705-1.154 0-2.466.398-3.063 1.8l1.114.398c.258-.557.87-1.153 1.988-1.153 1.08 0 1.61.572 1.61 1.55v.04c0 .567-.576.517-1.97.696-1.416.184-2.963.497-2.963 2.247 0 1.49 1.154 2.347 2.606 2.347zm.18-1.054c-.935 0-1.61-.418-1.61-1.233 0-.895.815-1.173 1.73-1.293.497-.06 1.83-.2 2.028-.437v1.074c0 .954-.755 1.89-2.147 1.89zm6.635-3.72c0-1.332.826-2.088 1.95-2.088 1.09 0 1.75.71 1.75 1.91V92h1.174v-4.852c0-1.95-1.04-2.883-2.586-2.883-1.153 0-1.87.517-2.227 1.293h-.1v-1.193h-1.134V92h1.173v-4.594zm9.9 4.753c1.472 0 1.97-.915 2.227-1.332h.14V92h1.133V81.818h-1.173v3.758h-.1c-.258-.398-.716-1.312-2.207-1.312-1.93 0-3.26 1.53-3.26 3.938 0 2.426 1.332 3.957 3.24 3.957zm.16-1.054c-1.47 0-2.227-1.293-2.227-2.923 0-1.61.736-2.864 2.227-2.864 1.432 0 2.188 1.153 2.188 2.864 0 1.73-.776 2.923-2.188 2.923zm9.6.895h1.174v-4.832c0-1.034.815-1.8 1.93-1.8a3.57 3.57 0 0 1 .715.08v-1.193l-.616-.02c-.915 0-1.7.517-1.99 1.273h-.08v-1.153h-1.134V92zm5.21 0h1.174v-7.636h-1.174V92zm.597-8.91c.457 0 .835-.358.835-.795s-.378-.796-.835-.796-.835.358-.835.796.378.795.835.795zm8.135 2.983c-.368-1.084-1.194-1.8-2.705-1.8-1.61 0-2.804.915-2.804 2.207 0 1.054.627 1.76 2.03 2.088l1.272.298c.77.18 1.134.547 1.134 1.074 0 .656-.696 1.193-1.8 1.193-.96 0-1.56-.413-1.77-1.233l-1.114.28c.274 1.297 1.343 1.99 2.904 1.99 1.775 0 2.983-.97 2.983-2.287 0-1.064-.666-1.735-2.03-2.068l-1.133-.278c-.905-.224-1.313-.527-1.313-1.114 0-.656.696-1.133 1.63-1.133 1.024 0 1.447.567 1.65 1.094l1.054-.298zM470.36 92h1.173v-2.86l.82-.76L475.21 92h1.492l-3.465-4.375 3.226-3.26h-1.452l-3.34 3.4h-.14v-5.946h-1.173V92zm13.024-5.926c-.368-1.084-1.193-1.8-2.704-1.8-1.61 0-2.804.915-2.804 2.207 0 1.054.626 1.76 2.028 2.088l1.273.298c.77.18 1.133.547 1.133 1.074 0 .656-.696 1.193-1.79 1.193-.96 0-1.56-.413-1.77-1.233l-1.114.28c.274 1.297 1.343 1.99 2.904 1.99 1.774 0 2.983-.97 2.983-2.287 0-1.064-.667-1.735-2.03-2.068l-1.133-.278c-.905-.224-1.313-.527-1.313-1.114 0-.656.696-1.133 1.63-1.133 1.024 0 1.447.567 1.65 1.094l1.054-.298zM489.226 92h1.174v-7.636h-1.174V92zm.597-8.91c.457 0 .835-.358.835-.795s-.378-.796-.835-.796-.835.358-.835.796.377.795.835.795zm3.9 4.315c0-1.332.825-2.088 1.95-2.088 1.088 0 1.75.71 1.75 1.91V92h1.173v-4.852c0-1.95-1.04-2.883-2.585-2.883-1.154 0-1.87.517-2.228 1.293h-.1v-1.193h-1.134V92h1.174v-4.594zm14.056 4.753c2.068 0 3.46-1.57 3.46-3.937 0-2.386-1.392-3.957-3.46-3.957s-3.46 1.57-3.46 3.957c0 2.367 1.393 3.938 3.46 3.938zm0-1.054c-1.57 0-2.287-1.352-2.287-2.883s.716-2.903 2.287-2.903 2.287 1.372 2.287 2.903-.716 2.883-2.287 2.883zm6.424-3.7c0-1.332.826-2.088 1.95-2.088 1.09 0 1.75.71 1.75 1.91V92h1.173v-4.852c0-1.95-1.04-2.883-2.585-2.883-1.153 0-1.87.517-2.227 1.293h-.1v-1.193h-1.133V92h1.173v-4.594zm10.218 4.753c1.55 0 2.685-.776 3.043-1.93l-1.134-.318c-.298.796-.99 1.193-1.91 1.193-1.377 0-2.327-.9-2.38-2.526h5.543v-.497c0-2.844-1.7-3.818-3.28-3.818-2.068 0-3.44 1.63-3.44 3.977s1.353 3.918 3.56 3.918zm-2.38-4.594c.08-1.188.92-2.247 2.262-2.247 1.273 0 2.088.954 2.088 2.247h-4.35zm11.265 7.298h1.174v-4.037h.1c.26.418.756 1.332 2.227 1.332 1.91 0 3.242-1.53 3.242-3.957 0-2.406-1.333-3.937-3.262-3.937-1.49 0-1.948.915-2.207 1.313h-.14v-1.213h-1.134v10.5zm1.154-6.682c0-1.7.755-2.864 2.187-2.864 1.492 0 2.228 1.253 2.228 2.864 0 1.63-.756 2.923-2.228 2.923-1.412 0-2.187-1.193-2.187-2.923zm8.55-6.364h-1.173V92h1.173V81.818zm4.396 10.36c1.332 0 2.028-.716 2.267-1.213h.06V92h1.173v-5.03c0-2.426-1.85-2.705-2.824-2.705-1.153 0-2.466.398-3.062 1.8l1.113.398c.26-.557.87-1.153 1.99-1.153 1.08 0 1.61.572 1.61 1.55v.04c0 .567-.577.517-1.97.696-1.417.184-2.963.497-2.963 2.247 0 1.49 1.153 2.347 2.605 2.347zm.18-1.054c-.935 0-1.61-.418-1.61-1.233 0-.895.816-1.173 1.73-1.293.497-.06 1.83-.2 2.03-.437v1.074c0 .954-.756 1.89-2.148 1.89zm8.565 1.034c1.7 0 2.804-1.034 3.003-2.386h-1.174c-.218.835-.914 1.332-1.83 1.332-1.392 0-2.287-1.153-2.287-2.923 0-1.73.915-2.864 2.287-2.864 1.034 0 1.65.636 1.83 1.332h1.174c-.2-1.432-1.412-2.386-3.023-2.386-2.068 0-3.44 1.63-3.44 3.957 0 2.287 1.312 3.938 3.46 3.938zm7.92 0c1.55 0 2.684-.776 3.042-1.93l-1.133-.318c-.3.796-1 1.193-1.91 1.193-1.378 0-2.327-.9-2.382-2.526h5.543v-.497c0-2.844-1.7-3.818-3.28-3.818-2.068 0-3.44 1.63-3.44 3.977s1.352 3.918 3.56 3.918zm-2.382-4.594c.08-1.188.92-2.247 2.262-2.247 1.273 0 2.088.954 2.088 2.247h-4.35zm8.183 4.514c.493 0 .895-.403.895-.895s-.402-.895-.895-.895a.9.9 0 0 0-.895.895.9.9 0 0 0 .895.895z"/></g><defs><clipPath id="A"><path fill="#fff" transform="translate(314 200)" d="M0 0h61v18H0z"/></clipPath><clipPath id="B"><path fill="#fff" transform="translate(236 200)" d="M0 0h27v18H0z"/></clipPath><path id="C" d="M50.738 261.824v3.432a10.55 10.55 0 0 1-.054 1.074l-.138 1.1h-1.008l-.138-1.1a10.55 10.55 0 0 1-.054-1.074v-3.432h1.392zm-1.626 7.86a.96.96 0 0 1 .066-.354.91.91 0 0 1 .192-.288c.084-.08.182-.144.294-.192s.232-.072.36-.072a.89.89 0 0 1 .354.072.91.91 0 0 1 .288.192.86.86 0 0 1 .198.288.89.89 0 0 1 .072.354c0 .128-.024.248-.072.36s-.114.202-.198.282a.83.83 0 0 1-.288.186.89.89 0 0 1-.354.072c-.128 0-.248-.024-.36-.072s-.2-.106-.294-.186-.144-.174-.192-.282-.066-.232-.066-.36z"/></defs></svg>