<svg width="32" height="32" viewBox="0 0 32 32" fill="none" xmlns="http://www.w3.org/2000/svg">
<circle cx="16" cy="16" r="16" fill="#FF6B01"/>
<path d="M11.6338 10.432V15.008C11.6338 15.4933 11.6098 15.9707 11.5618 16.44C11.5138 16.904 11.4525 17.3973 11.3778 17.92H10.0338C9.95915 17.3973 9.89782 16.904 9.84982 16.44C9.80182 15.9707 9.77782 15.4933 9.77782 15.008V10.432H11.6338ZM9.46582 20.912C9.46582 20.7467 9.49515 20.5893 9.55382 20.44C9.61782 20.2907 9.70315 20.1627 9.80982 20.056C9.92182 19.9493 10.0525 19.864 10.2018 19.8C10.3512 19.736 10.5112 19.704 10.6818 19.704C10.8472 19.704 11.0045 19.736 11.1538 19.8C11.3032 19.864 11.4312 19.9493 11.5378 20.056C11.6498 20.1627 11.7378 20.2907 11.8018 20.44C11.8658 20.5893 11.8978 20.7467 11.8978 20.912C11.8978 21.0827 11.8658 21.2427 11.8018 21.392C11.7378 21.536 11.6498 21.6613 11.5378 21.768C11.4312 21.8747 11.3032 21.9573 11.1538 22.016C11.0045 22.08 10.8472 22.112 10.6818 22.112C10.5112 22.112 10.3512 22.08 10.2018 22.016C10.0525 21.9573 9.92182 21.8747 9.80982 21.768C9.70315 21.6613 9.61782 21.536 9.55382 21.392C9.49515 21.2427 9.46582 21.0827 9.46582 20.912Z" fill="white"/>
<path d="M16.9338 10.432V15.008C16.9338 15.4933 16.9098 15.9707 16.8618 16.44C16.8138 16.904 16.7525 17.3973 16.6778 17.92H15.3338C15.2592 17.3973 15.1978 16.904 15.1498 16.44C15.1018 15.9707 15.0778 15.4933 15.0778 15.008V10.432H16.9338ZM14.7658 20.912C14.7658 20.7467 14.7952 20.5893 14.8538 20.44C14.9178 20.2907 15.0032 20.1627 15.1098 20.056C15.2218 19.9493 15.3525 19.864 15.5018 19.8C15.6512 19.736 15.8112 19.704 15.9818 19.704C16.1472 19.704 16.3045 19.736 16.4538 19.8C16.6032 19.864 16.7312 19.9493 16.8378 20.056C16.9498 20.1627 17.0378 20.2907 17.1018 20.44C17.1658 20.5893 17.1978 20.7467 17.1978 20.912C17.1978 21.0827 17.1658 21.2427 17.1018 21.392C17.0378 21.536 16.9498 21.6613 16.8378 21.768C16.7312 21.8747 16.6032 21.9573 16.4538 22.016C16.3045 22.08 16.1472 22.112 15.9818 22.112C15.8112 22.112 15.6512 22.08 15.5018 22.016C15.3525 21.9573 15.2218 21.8747 15.1098 21.768C15.0032 21.6613 14.9178 21.536 14.8538 21.392C14.7952 21.2427 14.7658 21.0827 14.7658 20.912Z" fill="white"/>
<path d="M22.2338 10.432V15.008C22.2338 15.4933 22.2098 15.9707 22.1618 16.44C22.1138 16.904 22.0525 17.3973 21.9778 17.92H20.6338C20.5592 17.3973 20.4978 16.904 20.4498 16.44C20.4018 15.9707 20.3778 15.4933 20.3778 15.008V10.432H22.2338ZM20.0658 20.912C20.0658 20.7467 20.0952 20.5893 20.1538 20.44C20.2178 20.2907 20.3032 20.1627 20.4098 20.056C20.5218 19.9493 20.6525 19.864 20.8018 19.8C20.9512 19.736 21.1112 19.704 21.2818 19.704C21.4472 19.704 21.6045 19.736 21.7538 19.8C21.9032 19.864 22.0312 19.9493 22.1378 20.056C22.2498 20.1627 22.3378 20.2907 22.4018 20.44C22.4658 20.5893 22.4978 20.7467 22.4978 20.912C22.4978 21.0827 22.4658 21.2427 22.4018 21.392C22.3378 21.536 22.2498 21.6613 22.1378 21.768C22.0312 21.8747 21.9032 21.9573 21.7538 22.016C21.6045 22.08 21.4472 22.112 21.2818 22.112C21.1112 22.112 20.9512 22.08 20.8018 22.016C20.6525 21.9573 20.5218 21.8747 20.4098 21.768C20.3032 21.6613 20.2178 21.536 20.1538 21.392C20.0952 21.2427 20.0658 21.0827 20.0658 20.912Z" fill="white"/>
</svg>
