<svg width="32" height="32" viewBox="0 0 32 32" fill="none" xmlns="http://www.w3.org/2000/svg">
<circle cx="16" cy="16" r="16" fill="#FF9901"/>
<path d="M14.2842 10.432V15.008C14.2842 15.4933 14.2602 15.9707 14.2122 16.44C14.1642 16.904 14.1029 17.3973 14.0282 17.92H12.6842C12.6095 17.3973 12.5482 16.904 12.5002 16.44C12.4522 15.9707 12.4282 15.4933 12.4282 15.008V10.432H14.2842ZM12.1162 20.912C12.1162 20.7467 12.1455 20.5893 12.2042 20.44C12.2682 20.2907 12.3535 20.1627 12.4602 20.056C12.5722 19.9493 12.7029 19.864 12.8522 19.8C13.0015 19.736 13.1615 19.704 13.3322 19.704C13.4975 19.704 13.6549 19.736 13.8042 19.8C13.9535 19.864 14.0815 19.9493 14.1882 20.056C14.3002 20.1627 14.3882 20.2907 14.4522 20.44C14.5162 20.5893 14.5482 20.7467 14.5482 20.912C14.5482 21.0827 14.5162 21.2427 14.4522 21.392C14.3882 21.536 14.3002 21.6613 14.1882 21.768C14.0815 21.8747 13.9535 21.9573 13.8042 22.016C13.6549 22.08 13.4975 22.112 13.3322 22.112C13.1615 22.112 13.0015 22.08 12.8522 22.016C12.7029 21.9573 12.5722 21.8747 12.4602 21.768C12.3535 21.6613 12.2682 21.536 12.2042 21.392C12.1455 21.2427 12.1162 21.0827 12.1162 20.912Z" fill="white"/>
<path d="M19.5842 10.432V15.008C19.5842 15.4933 19.5602 15.9707 19.5122 16.44C19.4642 16.904 19.4029 17.3973 19.3282 17.92H17.9842C17.9095 17.3973 17.8482 16.904 17.8002 16.44C17.7522 15.9707 17.7282 15.4933 17.7282 15.008V10.432H19.5842ZM17.4162 20.912C17.4162 20.7467 17.4455 20.5893 17.5042 20.44C17.5682 20.2907 17.6535 20.1627 17.7602 20.056C17.8722 19.9493 18.0029 19.864 18.1522 19.8C18.3015 19.736 18.4615 19.704 18.6322 19.704C18.7975 19.704 18.9549 19.736 19.1042 19.8C19.2535 19.864 19.3815 19.9493 19.4882 20.056C19.6002 20.1627 19.6882 20.2907 19.7522 20.44C19.8162 20.5893 19.8482 20.7467 19.8482 20.912C19.8482 21.0827 19.8162 21.2427 19.7522 21.392C19.6882 21.536 19.6002 21.6613 19.4882 21.768C19.3815 21.8747 19.2535 21.9573 19.1042 22.016C18.9549 22.08 18.7975 22.112 18.6322 22.112C18.4615 22.112 18.3015 22.08 18.1522 22.016C18.0029 21.9573 17.8722 21.8747 17.7602 21.768C17.6535 21.6613 17.5682 21.536 17.5042 21.392C17.4455 21.2427 17.4162 21.0827 17.4162 20.912Z" fill="white"/>
</svg>
