<svg width="32" height="32" viewBox="0 0 32 32" fill="none" xmlns="http://www.w3.org/2000/svg">
<circle cx="16" cy="16" r="16" fill="#E02424"/>
<path d="M8.98392 10.432V15.008C8.98392 15.4933 8.95992 15.9707 8.91192 16.44C8.86392 16.904 8.80259 17.3973 8.72792 17.92H7.38392C7.30925 17.3973 7.24792 16.904 7.19992 16.44C7.15192 15.9707 7.12792 15.4933 7.12792 15.008V10.432H8.98392ZM6.81592 20.912C6.81592 20.7467 6.84525 20.5893 6.90392 20.44C6.96792 20.2907 7.05325 20.1627 7.15992 20.056C7.27192 19.9493 7.40258 19.864 7.55192 19.8C7.70125 19.736 7.86125 19.704 8.03192 19.704C8.19725 19.704 8.35459 19.736 8.50392 19.8C8.65325 19.864 8.78125 19.9493 8.88792 20.056C8.99992 20.1627 9.08792 20.2907 9.15192 20.44C9.21592 20.5893 9.24792 20.7467 9.24792 20.912C9.24792 21.0827 9.21592 21.2427 9.15192 21.392C9.08792 21.536 8.99992 21.6613 8.88792 21.768C8.78125 21.8747 8.65325 21.9573 8.50392 22.016C8.35459 22.08 8.19725 22.112 8.03192 22.112C7.86125 22.112 7.70125 22.08 7.55192 22.016C7.40258 21.9573 7.27192 21.8747 7.15992 21.768C7.05325 21.6613 6.96792 21.536 6.90392 21.392C6.84525 21.2427 6.81592 21.0827 6.81592 20.912Z" fill="white"/>
<path d="M14.2839 10.432V15.008C14.2839 15.4933 14.2599 15.9707 14.2119 16.44C14.1639 16.904 14.1026 17.3973 14.0279 17.92H12.6839C12.6093 17.3973 12.5479 16.904 12.4999 16.44C12.4519 15.9707 12.4279 15.4933 12.4279 15.008V10.432H14.2839ZM12.1159 20.912C12.1159 20.7467 12.1453 20.5893 12.2039 20.44C12.2679 20.2907 12.3533 20.1627 12.4599 20.056C12.5719 19.9493 12.7026 19.864 12.8519 19.8C13.0013 19.736 13.1613 19.704 13.3319 19.704C13.4973 19.704 13.6546 19.736 13.8039 19.8C13.9533 19.864 14.0813 19.9493 14.1879 20.056C14.2999 20.1627 14.3879 20.2907 14.4519 20.44C14.5159 20.5893 14.5479 20.7467 14.5479 20.912C14.5479 21.0827 14.5159 21.2427 14.4519 21.392C14.3879 21.536 14.2999 21.6613 14.1879 21.768C14.0813 21.8747 13.9533 21.9573 13.8039 22.016C13.6546 22.08 13.4973 22.112 13.3319 22.112C13.1613 22.112 13.0013 22.08 12.8519 22.016C12.7026 21.9573 12.5719 21.8747 12.4599 21.768C12.3533 21.6613 12.2679 21.536 12.2039 21.392C12.1453 21.2427 12.1159 21.0827 12.1159 20.912Z" fill="white"/>
<path d="M19.5839 10.432V15.008C19.5839 15.4933 19.5599 15.9707 19.5119 16.44C19.4639 16.904 19.4026 17.3973 19.3279 17.92H17.9839C17.9093 17.3973 17.8479 16.904 17.7999 16.44C17.7519 15.9707 17.7279 15.4933 17.7279 15.008V10.432H19.5839ZM17.4159 20.912C17.4159 20.7467 17.4453 20.5893 17.5039 20.44C17.5679 20.2907 17.6533 20.1627 17.7599 20.056C17.8719 19.9493 18.0026 19.864 18.1519 19.8C18.3013 19.736 18.4613 19.704 18.6319 19.704C18.7973 19.704 18.9546 19.736 19.1039 19.8C19.2533 19.864 19.3813 19.9493 19.4879 20.056C19.5999 20.1627 19.6879 20.2907 19.7519 20.44C19.8159 20.5893 19.8479 20.7467 19.8479 20.912C19.8479 21.0827 19.8159 21.2427 19.7519 21.392C19.6879 21.536 19.5999 21.6613 19.4879 21.768C19.3813 21.8747 19.2533 21.9573 19.1039 22.016C18.9546 22.08 18.7973 22.112 18.6319 22.112C18.4613 22.112 18.3013 22.08 18.1519 22.016C18.0026 21.9573 17.8719 21.8747 17.7599 21.768C17.6533 21.6613 17.5679 21.536 17.5039 21.392C17.4453 21.2427 17.4159 21.0827 17.4159 20.912Z" fill="white"/>
<path d="M24.8839 10.432V15.008C24.8839 15.4933 24.8599 15.9707 24.8119 16.44C24.7639 16.904 24.7026 17.3973 24.6279 17.92H23.2839C23.2093 17.3973 23.1479 16.904 23.0999 16.44C23.0519 15.9707 23.0279 15.4933 23.0279 15.008V10.432H24.8839ZM22.7159 20.912C22.7159 20.7467 22.7453 20.5893 22.8039 20.44C22.8679 20.2907 22.9533 20.1627 23.0599 20.056C23.1719 19.9493 23.3026 19.864 23.4519 19.8C23.6013 19.736 23.7613 19.704 23.9319 19.704C24.0973 19.704 24.2546 19.736 24.4039 19.8C24.5533 19.864 24.6813 19.9493 24.7879 20.056C24.8999 20.1627 24.9879 20.2907 25.0519 20.44C25.1159 20.5893 25.1479 20.7467 25.1479 20.912C25.1479 21.0827 25.1159 21.2427 25.0519 21.392C24.9879 21.536 24.8999 21.6613 24.7879 21.768C24.6813 21.8747 24.5533 21.9573 24.4039 22.016C24.2546 22.08 24.0973 22.112 23.9319 22.112C23.7613 22.112 23.6013 22.08 23.4519 22.016C23.3026 21.9573 23.1719 21.8747 23.0599 21.768C22.9533 21.6613 22.8679 21.536 22.8039 21.392C22.7453 21.2427 22.7159 21.0827 22.7159 20.912Z" fill="white"/>
</svg>
