<svg width="94" height="56" viewBox="0 0 94 56" fill="none" xmlns="http://www.w3.org/2000/svg">
<path fill-rule="evenodd" clip-rule="evenodd" d="M87.2437 40.4378H92.5312L86.3037 50.9894V55.9999H81.6625V50.9894L75.5525 40.4378H81.1338L84.0713 46.3325L87.2437 40.4378ZM70.6175 45.6252C70.6175 44.741 69.9712 44.2694 68.9725 44.2694H65.7412V47.1578H68.9725C69.9712 47.1578 70.6175 46.5683 70.6175 45.7431V45.6252ZM71.6162 55.9999L69.09 50.9894H65.7412V55.9999H61.1587V40.4378H69.9125C73.6137 40.4378 75.4937 43.0315 75.4937 45.3894V45.6841C75.4937 46.981 74.8475 48.6315 73.3787 49.6336L76.9037 55.9999H71.6162ZM45.825 40.4378H59.5137V44.9767H50.3487V46.7452H55.9887V50.6357H50.3487V55.9999H45.825V40.4378ZM87.7137 27.8231C87.7137 26.9388 87.0675 26.4673 86.0687 26.4673H82.8375V29.3557H86.0687C87.0675 29.3557 87.7137 28.7662 87.7137 27.9409V27.8231ZM88.7125 38.1388L86.1862 33.1283H82.8375V38.1388H78.255V22.6357H87.0088C90.71 22.6357 92.59 25.2294 92.59 27.5283V27.8231C92.59 29.1199 91.9437 30.7704 90.475 31.7725L94 38.1388H88.7125ZM71.5575 29.7094C71.5575 27.8231 71.0287 26.0546 68.3262 26.0546C65.6237 26.0546 65.095 27.7641 65.095 29.7094V31.0652C65.095 32.9515 65.6237 34.6609 68.3262 34.6609C71.0287 34.6609 71.5575 32.9515 71.5575 31.0652V29.7094ZM68.3262 38.4336C62.275 38.4336 60.4537 35.0736 60.4537 31.3009V29.5325C60.4537 25.7009 62.275 22.3999 68.3262 22.3999C74.3187 22.3999 76.1987 25.7599 76.1987 29.5325V31.3009C76.1987 35.1325 74.3187 38.4336 68.3262 38.4336ZM45.8837 38.1978V22.6946H50.4662V33.6588H59.5137V38.1978H45.8837ZM38.7162 33.1873V38.1978H34.075V33.1873L27.965 22.6357H33.4875L36.425 28.5304L39.6562 22.6357H44.9437L38.7162 33.1873ZM18.3887 38.1388H13.7475L18.4475 22.6357H25.5562L30.1975 38.1388H25.3212L24.3225 34.7788H19.3288L18.3887 38.1388ZM21.5612 26.4673L20.3275 31.1241H23.3237L22.1487 26.4673H21.5612ZM0 22.6357H14.7462V27.1746H9.69375V38.1978H5.0525V27.1746H0V22.6357Z" fill="white"/>
<path fill-rule="evenodd" clip-rule="evenodd" d="M45.8828 0H59.5128V4.5389H50.4066V18.1558H45.8828V0Z" fill="white"/>
<path fill-rule="evenodd" clip-rule="evenodd" d="M36.8945 4.5389V0H41.4183V4.5389H36.8945ZM54.9895 13.6168V9.0779H59.5133V13.6168H54.9895Z" fill="white"/>
</svg>
