<svg width="24" height="24" viewBox="0 0 24 24" fill="none" xmlns="http://www.w3.org/2000/svg">
<g clip-path="url(#clip0)">
<path d="M12 24C18.6274 24 24 18.6274 24 12C24 5.37258 18.6274 0 12 0C5.37258 0 0 5.37258 0 12C0 18.6274 5.37258 24 12 24Z" fill="#F0F0F0"/>
<path d="M11.9997 0C7.24218 0 3.13143 2.76867 1.19043 6.78262H22.8089C20.868 2.76867 16.7572 0 11.9997 0Z" fill="#FF9811"/>
<path d="M11.9997 23.9999C16.7572 23.9999 20.868 21.2312 22.809 17.2173H1.19043C3.13143 21.2312 7.24218 23.9999 11.9997 23.9999Z" fill="#6DA544"/>
<path d="M12.0001 16.174C14.3052 16.174 16.174 14.3052 16.174 12.0001C16.174 9.69489 14.3052 7.82617 12.0001 7.82617C9.69489 7.82617 7.82617 9.69489 7.82617 12.0001C7.82617 14.3052 9.69489 16.174 12.0001 16.174Z" fill="#0052B4"/>
<path d="M12.0003 14.6087C13.441 14.6087 14.609 13.4408 14.609 12C14.609 10.5593 13.441 9.39136 12.0003 9.39136C10.5595 9.39136 9.3916 10.5593 9.3916 12C9.3916 13.4408 10.5595 14.6087 12.0003 14.6087Z" fill="#F0F0F0"/>
<path d="M11.9997 8.78101L12.8045 10.6062L14.7875 10.3905L13.6093 12.0001L14.7875 13.6096L12.8045 13.394L11.9997 15.2192L11.1949 13.394L9.21191 13.6096L10.3902 12.0001L9.21191 10.3905L11.1949 10.6062L11.9997 8.78101Z" fill="#0052B4"/>
</g>
<defs>
<clipPath id="clip0">
<rect width="24" height="24" fill="white"/>
</clipPath>
</defs>
</svg>
