<svg width="400" height="240" viewBox="0 0 400 240" fill="none" xmlns="http://www.w3.org/2000/svg">
<g clip-path="url(#clip0)">
<path d="M138.679 125.581C138.679 130.552 141.277 133.099 146.536 133.099C151.796 133.099 154.394 130.614 154.394 125.581V99.3594H160.643V125.456C160.643 129.992 159.468 133.286 157.055 135.398C154.704 137.511 151.177 138.505 146.475 138.505C141.772 138.505 138.246 137.449 135.895 135.398C133.543 133.286 132.368 129.992 132.368 125.456V99.3594H138.617V125.581H138.679Z" fill="#131520"/>
<path d="M168.253 150V109.736H174.317V111.476C176.915 109.923 179.328 109.115 181.556 109.115C185.268 109.115 187.99 110.233 189.661 112.532C191.393 114.831 192.26 118.622 192.26 123.965C192.26 129.309 191.27 133.099 189.29 135.274C187.31 137.449 184.093 138.567 179.7 138.567C178.153 138.567 176.42 138.381 174.379 138.07V150H168.253ZM180.442 114.583C178.71 114.583 176.915 114.956 175.183 115.763L174.317 116.136V132.726C175.802 133.037 177.472 133.161 179.267 133.161C181.803 133.161 183.536 132.416 184.526 130.987C185.516 129.495 186.011 127.01 186.011 123.468C186.011 117.565 184.154 114.583 180.442 114.583Z" fill="#131520"/>
<path d="M214.719 123.157V117.627H225.67V137.2C224.68 137.449 222.638 137.759 219.545 138.07C216.451 138.381 214.224 138.505 212.863 138.505C207.047 138.505 203.025 136.889 200.798 133.658C198.57 130.427 197.519 125.394 197.519 118.497C197.519 111.6 198.632 106.567 200.921 103.46C203.211 100.291 207.109 98.738 212.677 98.738C215.956 98.738 219.669 99.1109 223.752 99.8565L225.732 100.229L225.484 105.2C220.968 104.579 216.884 104.33 213.296 104.33C209.707 104.33 207.232 105.324 205.933 107.375C204.634 109.425 203.953 113.154 203.953 118.622C203.953 124.089 204.572 127.88 205.809 129.992C207.047 132.105 209.583 133.099 213.42 133.099C216.142 133.099 218.184 132.913 219.545 132.602V123.157H214.719Z" fill="#131520"/>
<path d="M249.676 109.736H255.74V137.884H249.676V136.144C246.954 137.697 244.417 138.505 242.128 138.505C238.292 138.505 235.693 137.449 234.394 135.398C233.095 133.286 232.414 129.682 232.414 124.462V109.736H238.539V124.524C238.539 127.88 238.849 130.179 239.406 131.359C239.962 132.54 241.262 133.099 243.303 133.099C245.345 133.099 247.201 132.726 248.872 131.981L249.738 131.67V109.736H249.676Z" fill="#131520"/>
<path d="M283.891 118.435V131.297C283.953 132.105 284.139 132.726 284.51 133.099C284.881 133.472 285.5 133.721 286.304 133.845L286.118 138.505C282.901 138.505 280.426 137.822 278.632 136.392C275.662 137.759 272.63 138.505 269.599 138.505C264.03 138.505 261.246 135.523 261.246 129.557C261.246 126.699 261.989 124.649 263.535 123.344C265.02 122.039 267.371 121.293 270.527 121.045L277.766 120.423V118.373C277.766 116.882 277.456 115.825 276.776 115.204C276.095 114.583 275.167 114.272 273.868 114.272C271.455 114.272 268.485 114.396 264.897 114.707L263.102 114.831L262.855 110.482C266.938 109.488 270.651 108.99 274.115 108.99C277.518 108.99 279.993 109.736 281.54 111.227C283.149 112.843 283.891 115.204 283.891 118.435ZM271.331 125.394C268.733 125.643 267.433 127.01 267.433 129.62C267.433 132.229 268.547 133.534 270.836 133.534C272.692 133.534 274.672 133.223 276.776 132.664L277.766 132.354V124.773L271.331 125.394Z" fill="#131520"/>
<path d="M291.563 137.884V109.736H297.627V113.091C300.782 111.041 303.999 109.674 307.155 109.115V115.266C303.938 115.888 301.215 116.757 298.926 117.752L297.689 118.249V137.884H291.563Z" fill="#131520"/>
<path d="M334.378 98.0544V137.884H328.315V136.392C325.592 137.759 323.056 138.505 320.828 138.505C317.178 138.505 314.456 137.386 312.785 135.212C311.114 132.975 310.248 129.309 310.248 124.089C310.248 118.87 311.176 115.08 313.094 112.719C314.951 110.357 317.92 109.177 321.942 109.177C323.303 109.177 325.407 109.425 328.315 109.922V98.1166H334.378V98.0544ZM327.325 132.043L328.253 131.67V114.955C326.026 114.583 323.922 114.396 322.004 114.396C318.23 114.396 316.312 117.565 316.312 123.841C316.312 127.32 316.745 129.682 317.611 131.049C318.477 132.353 319.9 133.037 321.818 133.037C323.736 133.037 325.592 132.726 327.325 132.043Z" fill="#131520"/>
<path d="M115.692 117.787C113.96 121.577 111.98 125.056 110.186 128.039C108.33 131.27 106.536 134.19 104.246 137.422C103.38 138.664 102.39 140.031 101.276 141.46C98.4303 145.002 94.0993 148.233 89.3352 146.928C84.5093 145.561 81.9107 141.15 79.1883 137.297C74.9811 131.456 71.0213 125.056 67.804 117.973C64.7104 111.138 61.8643 102.501 66.2572 95.5419C67.4328 93.6778 68.9795 92.1866 70.7119 90.9439C71.8875 90.1361 73.1868 89.5147 74.4861 88.9555C83.5193 85.2274 94.7799 85.3516 104.123 87.5264C107.03 88.2099 109.753 89.2041 112.166 90.6953C113.774 91.6895 115.198 92.9943 116.373 94.5477C118.167 96.9089 119.034 99.3943 119.281 101.942C119.962 107.223 117.982 112.816 115.692 117.787Z" fill="#131520"/>
</g>
<defs>
<clipPath id="clip0">
<rect width="271" height="64" fill="white" transform="translate(64 86)"/>
</clipPath>
</defs>
</svg>
