<svg width="286" height="74" viewBox="0 0 286 74" fill="none" xmlns="http://www.w3.org/2000/svg">
<circle cx="37" cy="37" r="36" fill="#F4FBF7" stroke="#20AF5D" stroke-width="2"/>
<path d="M42.4977 40.1989L37.8691 28.2058C37.7319 27.8492 37.5879 27.4378 37.4371 26.9715C37.2862 26.4915 37.1422 25.9841 37.0051 25.4492C36.7171 26.5601 36.4222 27.4858 36.1205 28.2263L31.4919 40.1989H42.4977ZM50.8085 51.1429H47.7228C47.3662 51.1429 47.0782 51.0538 46.8588 50.8755C46.6394 50.6972 46.4748 50.4709 46.3651 50.1966L43.6085 43.0789H30.3811L27.6245 50.1966C27.5422 50.4435 27.3845 50.6629 27.1514 50.8549C26.9182 51.0469 26.6302 51.1429 26.2874 51.1429H23.2017L34.9891 21.6641H39.0211L50.8085 51.1429Z" fill="#20AF5D"/>
<path d="M113.4 68.96C109.88 68.96 106.867 68.2667 104.36 66.88C101.853 65.4933 99.8533 63.6533 98.36 61.36C96.92 59.0133 96.04 56.4267 95.72 53.6H101.96C102.493 56.64 103.773 58.9867 105.8 60.64C107.827 62.2933 110.387 63.12 113.48 63.12C117.747 63.12 121.293 61.1467 124.12 57.2C126.947 53.2 128.467 46.9867 128.68 38.56C127.4 41.0667 125.347 43.2533 122.52 45.12C119.747 46.9333 116.387 47.84 112.44 47.84C109.293 47.84 106.307 47.0933 103.48 45.6C100.653 44.1067 98.36 42.0267 96.6 39.36C94.84 36.64 93.96 33.4667 93.96 29.84C93.96 26.6933 94.7333 23.68 96.28 20.8C97.88 17.92 100.12 15.5733 103 13.76C105.88 11.9467 109.32 11.04 113.32 11.04C117.373 11.04 120.787 11.8133 123.56 13.36C126.333 14.8533 128.547 16.88 130.2 19.44C131.907 22 133.133 24.88 133.88 28.08C134.68 31.2267 135.08 34.4533 135.08 37.76C135.08 43.9467 134.227 49.3867 132.52 54.08C130.813 58.72 128.333 62.3733 125.08 65.04C121.88 67.6533 117.987 68.96 113.4 68.96ZM113.8 42C116.307 42 118.547 41.44 120.52 40.32C122.493 39.1467 124.067 37.6 125.24 35.68C126.413 33.76 127 31.68 127 29.44C127 27.04 126.413 24.9067 125.24 23.04C124.067 21.12 122.493 19.6267 120.52 18.56C118.547 17.4933 116.307 16.96 113.8 16.96C111.293 16.96 109.053 17.4933 107.08 18.56C105.107 19.6267 103.56 21.12 102.44 23.04C101.32 24.9067 100.76 27.0667 100.76 29.52C100.76 33.3067 101.987 36.3467 104.44 38.64C106.947 40.88 110.067 42 113.8 42ZM161.423 68.96C157.849 68.96 154.623 68.32 151.743 67.04C148.863 65.7067 146.543 63.7333 144.783 61.12C143.076 58.5067 142.169 55.2533 142.063 51.36H148.863C148.916 54.56 150.036 57.3333 152.223 59.68C154.409 61.9733 157.476 63.12 161.423 63.12C165.369 63.12 168.329 62.0267 170.303 59.84C172.329 57.6533 173.343 55.0133 173.343 51.92C173.343 49.3067 172.703 47.1733 171.423 45.52C170.196 43.8667 168.516 42.64 166.383 41.84C164.303 41.04 162.009 40.64 159.503 40.64H155.343V34.96H159.503C163.129 34.96 165.956 34.1333 167.983 32.48C170.063 30.8267 171.103 28.5067 171.103 25.52C171.103 23.0133 170.276 20.96 168.623 19.36C167.023 17.7067 164.623 16.88 161.423 16.88C158.329 16.88 155.849 17.8133 153.983 19.68C152.116 21.4933 151.076 23.7867 150.863 26.56H144.063C144.223 23.52 145.023 20.8267 146.463 18.48C147.956 16.1333 149.983 14.32 152.543 13.04C155.103 11.7067 158.063 11.04 161.423 11.04C165.049 11.04 168.063 11.68 170.463 12.96C172.916 14.24 174.756 15.9467 175.983 18.08C177.263 20.2133 177.903 22.56 177.903 25.12C177.903 27.9467 177.129 30.5333 175.583 32.88C174.036 35.1733 171.716 36.72 168.623 37.52C171.929 38.2133 174.676 39.7867 176.863 42.24C179.049 44.6933 180.143 47.92 180.143 51.92C180.143 55.0133 179.423 57.8667 177.983 60.48C176.596 63.04 174.516 65.0933 171.743 66.64C168.969 68.1867 165.529 68.96 161.423 68.96ZM207.15 68.96C203.63 68.96 200.617 68.2667 198.11 66.88C195.603 65.4933 193.603 63.6533 192.11 61.36C190.67 59.0133 189.79 56.4267 189.47 53.6H195.71C196.243 56.64 197.523 58.9867 199.55 60.64C201.577 62.2933 204.137 63.12 207.23 63.12C211.497 63.12 215.043 61.1467 217.87 57.2C220.697 53.2 222.217 46.9867 222.43 38.56C221.15 41.0667 219.097 43.2533 216.27 45.12C213.497 46.9333 210.137 47.84 206.19 47.84C203.043 47.84 200.057 47.0933 197.23 45.6C194.403 44.1067 192.11 42.0267 190.35 39.36C188.59 36.64 187.71 33.4667 187.71 29.84C187.71 26.6933 188.483 23.68 190.03 20.8C191.63 17.92 193.87 15.5733 196.75 13.76C199.63 11.9467 203.07 11.04 207.07 11.04C211.123 11.04 214.537 11.8133 217.31 13.36C220.083 14.8533 222.297 16.88 223.95 19.44C225.657 22 226.883 24.88 227.63 28.08C228.43 31.2267 228.83 34.4533 228.83 37.76C228.83 43.9467 227.977 49.3867 226.27 54.08C224.563 58.72 222.083 62.3733 218.83 65.04C215.63 67.6533 211.737 68.96 207.15 68.96ZM207.55 42C210.057 42 212.297 41.44 214.27 40.32C216.243 39.1467 217.817 37.6 218.99 35.68C220.163 33.76 220.75 31.68 220.75 29.44C220.75 27.04 220.163 24.9067 218.99 23.04C217.817 21.12 216.243 19.6267 214.27 18.56C212.297 17.4933 210.057 16.96 207.55 16.96C205.043 16.96 202.803 17.4933 200.83 18.56C198.857 19.6267 197.31 21.12 196.19 23.04C195.07 24.9067 194.51 27.0667 194.51 29.52C194.51 33.3067 195.737 36.3467 198.19 38.64C200.697 40.88 203.817 42 207.55 42Z" fill="#20AF5D"/>
<path d="M239.504 68.71L244.022 53.248H245.516L240.998 68.71H239.504ZM256.285 67.216C255.493 67.216 254.815 67.06 254.251 66.748C253.687 66.436 253.237 66.022 252.901 65.506C252.577 64.978 252.379 64.396 252.307 63.76H253.711C253.831 64.444 254.119 64.972 254.575 65.344C255.031 65.716 255.607 65.902 256.303 65.902C257.263 65.902 258.061 65.458 258.697 64.57C259.333 63.67 259.675 62.272 259.723 60.376C259.435 60.94 258.973 61.432 258.337 61.852C257.713 62.26 256.957 62.464 256.069 62.464C255.361 62.464 254.689 62.296 254.053 61.96C253.417 61.624 252.901 61.156 252.505 60.556C252.109 59.944 251.911 59.23 251.911 58.414C251.911 57.706 252.085 57.028 252.433 56.38C252.793 55.732 253.297 55.204 253.945 54.796C254.593 54.388 255.367 54.184 256.267 54.184C257.179 54.184 257.947 54.358 258.571 54.706C259.195 55.042 259.693 55.498 260.065 56.074C260.449 56.65 260.725 57.298 260.893 58.018C261.073 58.726 261.163 59.452 261.163 60.196C261.163 61.588 260.971 62.812 260.587 63.868C260.203 64.912 259.645 65.734 258.913 66.334C258.193 66.922 257.317 67.216 256.285 67.216ZM256.375 61.15C256.939 61.15 257.443 61.024 257.887 60.772C258.331 60.508 258.685 60.16 258.949 59.728C259.213 59.296 259.345 58.828 259.345 58.324C259.345 57.784 259.213 57.304 258.949 56.884C258.685 56.452 258.331 56.116 257.887 55.876C257.443 55.636 256.939 55.516 256.375 55.516C255.811 55.516 255.307 55.636 254.863 55.876C254.419 56.116 254.071 56.452 253.819 56.884C253.567 57.304 253.441 57.79 253.441 58.342C253.441 59.194 253.717 59.878 254.269 60.394C254.833 60.898 255.535 61.15 256.375 61.15ZM267.749 67.216C266.885 67.216 266.135 67.06 265.499 66.748C264.863 66.436 264.353 66.01 263.969 65.47C263.597 64.918 263.369 64.294 263.285 63.598H264.761C264.905 64.294 265.241 64.858 265.769 65.29C266.297 65.71 266.963 65.92 267.767 65.92C268.367 65.92 268.883 65.782 269.315 65.506C269.747 65.218 270.077 64.834 270.305 64.354C270.545 63.874 270.665 63.34 270.665 62.752C270.665 61.816 270.401 61.06 269.873 60.484C269.345 59.908 268.661 59.62 267.821 59.62C267.125 59.62 266.531 59.776 266.039 60.088C265.547 60.4 265.187 60.808 264.959 61.312H263.519L264.599 54.4H271.205V55.714H265.769L265.031 59.548C265.319 59.2 265.715 58.912 266.219 58.684C266.735 58.456 267.323 58.342 267.983 58.342C268.811 58.342 269.531 58.534 270.143 58.918C270.767 59.302 271.253 59.824 271.601 60.484C271.949 61.144 272.123 61.894 272.123 62.734C272.123 63.538 271.949 64.282 271.601 64.966C271.265 65.65 270.767 66.196 270.107 66.604C269.459 67.012 268.673 67.216 267.749 67.216ZM279.4 67.216C278.284 67.216 277.318 66.946 276.502 66.406C275.698 65.854 275.08 65.092 274.648 64.12C274.216 63.136 274 61.996 274 60.7C274 59.404 274.216 58.27 274.648 57.298C275.08 56.314 275.698 55.552 276.502 55.012C277.318 54.46 278.284 54.184 279.4 54.184C280.516 54.184 281.476 54.46 282.28 55.012C283.084 55.552 283.702 56.314 284.134 57.298C284.566 58.27 284.782 59.404 284.782 60.7C284.782 61.996 284.566 63.136 284.134 64.12C283.702 65.092 283.084 65.854 282.28 66.406C281.476 66.946 280.516 67.216 279.4 67.216ZM279.4 65.884C280.132 65.884 280.786 65.68 281.362 65.272C281.95 64.852 282.406 64.258 282.73 63.49C283.066 62.71 283.234 61.78 283.234 60.7C283.234 59.62 283.066 58.696 282.73 57.928C282.406 57.16 281.95 56.572 281.362 56.164C280.786 55.744 280.132 55.534 279.4 55.534C278.656 55.534 277.996 55.744 277.42 56.164C276.844 56.572 276.388 57.16 276.052 57.928C275.716 58.696 275.548 59.62 275.548 60.7C275.548 61.78 275.716 62.71 276.052 63.49C276.388 64.258 276.844 64.852 277.42 65.272C277.996 65.68 278.656 65.884 279.4 65.884Z" fill="#4A5078"/>
</svg>
