<svg width="281" height="75" viewBox="0 0 281 75" fill="none" xmlns="http://www.w3.org/2000/svg">
<path d="M74 37.5C74 57.3823 57.8823 73.5 38 73.5C18.1177 73.5 2 57.3823 2 37.5C2 17.6177 18.1177 1.5 38 1.5C57.8823 1.5 74 17.6177 74 37.5Z" fill="#F4FBF7"/>
<path fill-rule="evenodd" clip-rule="evenodd" d="M38 3C18.9462 3 3.5 18.4462 3.5 37.5C3.5 56.5538 18.9462 72 38 72C57.0538 72 72.5 56.5538 72.5 37.5C72.5 18.4462 57.0538 3 38 3ZM0.5 37.5C0.5 16.7893 17.2893 0 38 0C58.7107 0 75.5 16.7893 75.5 37.5C75.5 58.2107 58.7107 75 38 75C17.2893 75 0.5 58.2107 0.5 37.5Z" fill="#20AF5D"/>
<path d="M28.3778 52.5005H24.5L35.7159 21.9551H39.5341L50.75 52.5005H46.8722L37.7443 26.7875H37.5057L28.3778 52.5005ZM29.8097 40.5687H45.4403V43.85H29.8097V40.5687Z" fill="#20AF5D"/>
<path d="M114.545 8.02273C102.727 7.88068 95.1136 16.7727 95.1136 27.4545C95.1136 38.7045 103.409 46.7727 113.409 46.7727C119.432 46.7727 124.545 43.8182 127.727 39.0455H128.182C128.182 53.3636 122.614 61.5455 113.636 61.5455C107.5 61.5455 103.75 57.6818 102.5 52.3409H95.5682C96.9318 61.5455 103.864 67.7955 113.636 67.7955C126.705 67.7955 134.773 56.2045 134.773 35.5227C134.773 14.1591 124.091 8.13636 114.545 8.02273ZM114.545 14.2727C121.818 14.2727 127.159 20.5227 127.159 27.3409C127.159 34.2727 121.477 40.5227 114.318 40.5227C107.159 40.5227 101.932 34.7273 101.932 27.4545C101.932 20.1818 107.386 14.2727 114.545 14.2727ZM144.581 55.0682H171.967V67H178.672V55.0682H186.626V48.8182H178.672V8.81818H170.149L144.581 49.2727V55.0682ZM171.967 48.8182H152.195V48.3636L171.513 17.7955H171.967V48.8182ZM216.946 8.81818H209.901L195.355 18.4773V25.6364L209.56 16.2045H209.901V67H216.946V8.81818Z" fill="#20AF5D"/>
<path d="M234.504 68.544L239.022 53.082H240.516L235.998 68.544H234.504ZM251.285 67.05C250.493 67.05 249.815 66.894 249.251 66.582C248.687 66.27 248.237 65.856 247.901 65.34C247.577 64.812 247.379 64.23 247.307 63.594H248.711C248.831 64.278 249.119 64.806 249.575 65.178C250.031 65.55 250.607 65.736 251.303 65.736C252.263 65.736 253.061 65.292 253.697 64.404C254.333 63.504 254.675 62.106 254.723 60.21C254.435 60.774 253.973 61.266 253.337 61.686C252.713 62.094 251.957 62.298 251.069 62.298C250.361 62.298 249.689 62.13 249.053 61.794C248.417 61.458 247.901 60.99 247.505 60.39C247.109 59.778 246.911 59.064 246.911 58.248C246.911 57.54 247.085 56.862 247.433 56.214C247.793 55.566 248.297 55.038 248.945 54.63C249.593 54.222 250.367 54.018 251.267 54.018C252.179 54.018 252.947 54.192 253.571 54.54C254.195 54.876 254.693 55.332 255.065 55.908C255.449 56.484 255.725 57.132 255.893 57.852C256.073 58.56 256.163 59.286 256.163 60.03C256.163 61.422 255.971 62.646 255.587 63.702C255.203 64.746 254.645 65.568 253.913 66.168C253.193 66.756 252.317 67.05 251.285 67.05ZM251.375 60.984C251.939 60.984 252.443 60.858 252.887 60.606C253.331 60.342 253.685 59.994 253.949 59.562C254.213 59.13 254.345 58.662 254.345 58.158C254.345 57.618 254.213 57.138 253.949 56.718C253.685 56.286 253.331 55.95 252.887 55.71C252.443 55.47 251.939 55.35 251.375 55.35C250.811 55.35 250.307 55.47 249.863 55.71C249.419 55.95 249.071 56.286 248.819 56.718C248.567 57.138 248.441 57.624 248.441 58.176C248.441 59.028 248.717 59.712 249.269 60.228C249.833 60.732 250.535 60.984 251.375 60.984ZM262.749 67.05C261.885 67.05 261.135 66.894 260.499 66.582C259.863 66.27 259.353 65.844 258.969 65.304C258.597 64.752 258.369 64.128 258.285 63.432H259.761C259.905 64.128 260.241 64.692 260.769 65.124C261.297 65.544 261.963 65.754 262.767 65.754C263.367 65.754 263.883 65.616 264.315 65.34C264.747 65.052 265.077 64.668 265.305 64.188C265.545 63.708 265.665 63.174 265.665 62.586C265.665 61.65 265.401 60.894 264.873 60.318C264.345 59.742 263.661 59.454 262.821 59.454C262.125 59.454 261.531 59.61 261.039 59.922C260.547 60.234 260.187 60.642 259.959 61.146H258.519L259.599 54.234H266.205V55.548H260.769L260.031 59.382C260.319 59.034 260.715 58.746 261.219 58.518C261.735 58.29 262.323 58.176 262.983 58.176C263.811 58.176 264.531 58.368 265.143 58.752C265.767 59.136 266.253 59.658 266.601 60.318C266.949 60.978 267.123 61.728 267.123 62.568C267.123 63.372 266.949 64.116 266.601 64.8C266.265 65.484 265.767 66.03 265.107 66.438C264.459 66.846 263.673 67.05 262.749 67.05ZM274.4 67.05C273.284 67.05 272.318 66.78 271.502 66.24C270.698 65.688 270.08 64.926 269.648 63.954C269.216 62.97 269 61.83 269 60.534C269 59.238 269.216 58.104 269.648 57.132C270.08 56.148 270.698 55.386 271.502 54.846C272.318 54.294 273.284 54.018 274.4 54.018C275.516 54.018 276.476 54.294 277.28 54.846C278.084 55.386 278.702 56.148 279.134 57.132C279.566 58.104 279.782 59.238 279.782 60.534C279.782 61.83 279.566 62.97 279.134 63.954C278.702 64.926 278.084 65.688 277.28 66.24C276.476 66.78 275.516 67.05 274.4 67.05ZM274.4 65.718C275.132 65.718 275.786 65.514 276.362 65.106C276.95 64.686 277.406 64.092 277.73 63.324C278.066 62.544 278.234 61.614 278.234 60.534C278.234 59.454 278.066 58.53 277.73 57.762C277.406 56.994 276.95 56.406 276.362 55.998C275.786 55.578 275.132 55.368 274.4 55.368C273.656 55.368 272.996 55.578 272.42 55.998C271.844 56.406 271.388 56.994 271.052 57.762C270.716 58.53 270.548 59.454 270.548 60.534C270.548 61.614 270.716 62.544 271.052 63.324C271.388 64.092 271.844 64.686 272.42 65.106C272.996 65.514 273.656 65.718 274.4 65.718Z" fill="#4A5078"/>
</svg>
