<svg width="416" height="48" viewBox="0 0 416 48" fill="none" xmlns="http://www.w3.org/2000/svg">
<path fill-rule="evenodd" clip-rule="evenodd" d="M7.82222 18.3359L7.82222 30.1892L8.88239 30.7835L8.84758 30.7982L22.0058 38.1538L35.164 30.7982L35.1603 30.7973L36.1778 30.2293L36.1778 18.3318L22 26.6667L7.82222 18.3359ZM43.9783 13.7207L22 1L0.0280383 13.7234L1.48812e-05 13.7111L0 34.2281L2.31209e-05 35.0351L22.0058 47.3725L44 35.0933V34.2281V25.8621V13.7333L44 13.7111L43.9783 13.7207ZM21.9457 9.69512L14.7773 13.816L22 17.7554L29.2228 13.8288L21.9457 9.69512Z" fill="url(#paint0_linear)"/>
<path d="M76.4275 13.1818H79.7301V27.532C79.7301 29.059 79.3714 30.412 78.6541 31.5909C77.9367 32.7628 76.9282 33.6861 75.6285 34.3608C74.3288 35.0284 72.8054 35.3622 71.0582 35.3622C69.3181 35.3622 67.7983 35.0284 66.4985 34.3608C65.1988 33.6861 64.1903 32.7628 63.473 31.5909C62.7556 30.412 62.397 29.059 62.397 27.532V13.1818H65.6889V27.2656C65.6889 28.2529 65.9055 29.13 66.3387 29.897C66.7791 30.6641 67.4005 31.2678 68.2031 31.7081C69.0056 32.1414 69.9573 32.358 71.0582 32.358C72.1661 32.358 73.1214 32.1414 73.924 31.7081C74.7336 31.2678 75.3515 30.6641 75.7777 29.897C76.2109 29.13 76.4275 28.2529 76.4275 27.2656V13.1818Z" fill="#131520"/>
<path d="M84.2604 41.1364V18.6364H87.3712V21.2891H87.6376C87.8222 20.9482 88.0886 20.554 88.4366 20.1066C88.7846 19.6591 89.2675 19.2685 89.8854 18.9347C90.5033 18.5938 91.3201 18.4233 92.3357 18.4233C93.6567 18.4233 94.8357 18.7571 95.8726 19.4247C96.9096 20.0924 97.7228 21.0547 98.3123 22.3118C98.9089 23.5689 99.2072 25.0817 99.2072 26.8502C99.2072 28.6186 98.9124 30.135 98.3229 31.3992C97.7334 32.6563 96.9238 33.6257 95.894 34.3076C94.8641 34.9823 93.6887 35.3196 92.3677 35.3196C91.3734 35.3196 90.5601 35.1527 89.928 34.8189C89.303 34.4851 88.813 34.0945 88.4579 33.647C88.1028 33.1996 87.8293 32.8019 87.6376 32.4539H87.4458V41.1364H84.2604ZM87.3819 26.8182C87.3819 27.9688 87.5488 28.9773 87.8826 29.8438C88.2164 30.7103 88.6994 31.3885 89.3315 31.8786C89.9636 32.3615 90.7377 32.603 91.6539 32.603C92.6056 32.603 93.4011 32.3509 94.0403 31.8466C94.6795 31.3352 95.1624 30.6428 95.4891 29.7692C95.8229 28.8956 95.9898 27.912 95.9898 26.8182C95.9898 25.7387 95.8265 24.7692 95.4998 23.9098C95.1802 23.0504 94.6972 22.3722 94.0509 21.875C93.4117 21.3779 92.6127 21.1293 91.6539 21.1293C90.7306 21.1293 89.9494 21.3672 89.3101 21.8431C88.678 22.3189 88.1986 22.983 87.8719 23.8352C87.5452 24.6875 87.3819 25.6818 87.3819 26.8182Z" fill="#131520"/>
<path d="M117.797 20.0746C117.591 19.4283 117.314 18.8495 116.966 18.3381C116.625 17.8196 116.217 17.3793 115.741 17.0171C115.265 16.6477 114.722 16.3672 114.111 16.1754C113.508 15.9837 112.844 15.8878 112.119 15.8878C110.89 15.8878 109.782 16.2039 108.795 16.836C107.808 17.4681 107.027 18.3949 106.451 19.6165C105.883 20.831 105.599 22.3189 105.599 24.0803C105.599 25.8487 105.887 27.3438 106.462 28.5654C107.037 29.787 107.826 30.7138 108.827 31.3459C109.829 31.978 110.969 32.2941 112.247 32.2941C113.433 32.2941 114.466 32.0526 115.347 31.5696C116.235 31.0867 116.92 30.4049 117.403 29.5242C117.893 28.6364 118.138 27.5924 118.138 26.3921L118.991 26.5519H112.748V23.8352H121.324V26.3175C121.324 28.1499 120.933 29.7408 120.152 31.0902C119.378 32.4326 118.305 33.4695 116.934 34.201C115.571 34.9326 114.008 35.2983 112.247 35.2983C110.273 35.2983 108.54 34.8438 107.048 33.9347C105.564 33.0256 104.406 31.7365 103.575 30.0675C102.744 28.3914 102.329 26.4027 102.329 24.1016C102.329 22.3615 102.57 20.799 103.053 19.4141C103.536 18.0291 104.214 16.8537 105.088 15.8878C105.969 14.9148 107.002 14.1726 108.188 13.6612C109.381 13.1428 110.684 12.8835 112.098 12.8835C113.277 12.8835 114.374 13.0576 115.39 13.4056C116.412 13.7536 117.322 14.2472 118.117 14.8864C118.92 15.5256 119.584 16.2855 120.109 17.1662C120.635 18.0398 120.99 19.0093 121.174 20.0746H117.797Z" fill="#131520"/>
<path d="M135.613 28.2138V18.6364H138.809V35H135.676V32.1662H135.506C135.13 33.0398 134.526 33.7678 133.695 34.3502C132.871 34.9254 131.845 35.2131 130.616 35.2131C129.565 35.2131 128.635 34.9823 127.825 34.5206C127.022 34.0519 126.39 33.3594 125.929 32.4432C125.474 31.527 125.247 30.3942 125.247 29.0448V18.6364H128.432V28.6612C128.432 29.7763 128.741 30.6641 129.359 31.3246C129.977 31.9851 130.779 32.3154 131.767 32.3154C132.363 32.3154 132.956 32.1662 133.546 31.8679C134.142 31.5696 134.636 31.1186 135.027 30.5149C135.424 29.9112 135.62 29.1442 135.613 28.2138Z" fill="#131520"/>
<path d="M147.851 35.3622C146.814 35.3622 145.876 35.1705 145.038 34.787C144.2 34.3963 143.536 33.8317 143.046 33.0931C142.563 32.3544 142.322 31.4489 142.322 30.3764C142.322 29.4531 142.499 28.6932 142.854 28.0966C143.209 27.5 143.689 27.0277 144.292 26.6797C144.896 26.3317 145.571 26.0689 146.317 25.8914C147.062 25.7138 147.822 25.5789 148.596 25.4865C149.576 25.3729 150.372 25.2806 150.983 25.2095C151.594 25.1314 152.037 25.0071 152.314 24.8367C152.591 24.6662 152.73 24.3892 152.73 24.0057V23.9311C152.73 23.0007 152.467 22.2799 151.942 21.7685C151.423 21.2571 150.649 21.0014 149.619 21.0014C148.547 21.0014 147.701 21.2394 147.084 21.7152C146.473 22.184 146.05 22.706 145.816 23.2813L142.822 22.5995C143.177 21.6051 143.696 20.8026 144.378 20.1918C145.067 19.5739 145.858 19.1264 146.753 18.8495C147.648 18.5654 148.589 18.4233 149.576 18.4233C150.23 18.4233 150.922 18.5014 151.654 18.6577C152.393 18.8068 153.081 19.0838 153.721 19.4887C154.367 19.8935 154.896 20.4723 155.308 21.2252C155.72 21.9709 155.926 22.9404 155.926 24.1335V35H152.815V32.7628H152.687C152.481 33.1747 152.172 33.5796 151.76 33.9773C151.348 34.375 150.819 34.7053 150.173 34.9681C149.527 35.2308 148.753 35.3622 147.851 35.3622ZM148.543 32.8054C149.424 32.8054 150.177 32.6314 150.802 32.2834C151.434 31.9354 151.913 31.4808 152.24 30.9198C152.574 30.3516 152.741 29.7443 152.741 29.098V26.9887C152.627 27.1023 152.407 27.2088 152.08 27.3083C151.76 27.4006 151.395 27.4823 150.983 27.5533C150.571 27.6172 150.17 27.6776 149.779 27.7344C149.388 27.7841 149.062 27.8267 148.799 27.8622C148.181 27.9404 147.616 28.0718 147.105 28.2564C146.601 28.4411 146.196 28.7074 145.89 29.0554C145.592 29.3963 145.443 29.8509 145.443 30.4191C145.443 31.2074 145.734 31.804 146.317 32.2088C146.899 32.6066 147.641 32.8054 148.543 32.8054Z" fill="#131520"/>
<path d="M160.169 35V18.6364H163.247V21.2358H163.418C163.716 20.3551 164.242 19.6627 164.995 19.1584C165.755 18.647 166.614 18.3914 167.573 18.3914C167.772 18.3914 168.006 18.3985 168.276 18.4127C168.553 18.4269 168.769 18.4446 168.926 18.4659V21.5128C168.798 21.4773 168.571 21.4382 168.244 21.3956C167.917 21.3459 167.591 21.321 167.264 21.321C166.511 21.321 165.84 21.4808 165.25 21.8004C164.668 22.1129 164.206 22.5497 163.865 23.1108C163.524 23.6648 163.354 24.2969 163.354 25.0071V35H160.169Z" fill="#131520"/>
<path d="M177.222 35.3196C175.901 35.3196 174.722 34.9823 173.685 34.3076C172.655 33.6257 171.846 32.6563 171.256 31.3992C170.674 30.135 170.383 28.6186 170.383 26.8502C170.383 25.0817 170.677 23.5689 171.267 22.3118C171.863 21.0547 172.68 20.0924 173.717 19.4247C174.754 18.7571 175.929 18.4233 177.243 18.4233C178.259 18.4233 179.076 18.5938 179.694 18.9347C180.319 19.2685 180.802 19.6591 181.143 20.1066C181.491 20.554 181.76 20.9482 181.952 21.2891H182.144V13.1818H185.329V35H182.219V32.4539H181.952C181.76 32.8019 181.483 33.1996 181.121 33.647C180.766 34.0945 180.276 34.4851 179.651 34.8189C179.026 35.1527 178.216 35.3196 177.222 35.3196ZM177.925 32.603C178.841 32.603 179.616 32.3615 180.248 31.8786C180.887 31.3885 181.37 30.7103 181.697 29.8438C182.03 28.9773 182.197 27.9688 182.197 26.8182C182.197 25.6818 182.034 24.6875 181.707 23.8352C181.38 22.983 180.901 22.3189 180.269 21.8431C179.637 21.3672 178.856 21.1293 177.925 21.1293C176.966 21.1293 176.167 21.3779 175.528 21.875C174.889 22.3722 174.406 23.0504 174.079 23.9098C173.76 24.7692 173.6 25.7387 173.6 26.8182C173.6 27.912 173.763 28.8956 174.09 29.7692C174.417 30.6428 174.9 31.3352 175.539 31.8466C176.185 32.3509 176.981 32.603 177.925 32.603Z" fill="#131520"/>
<path d="M216.192 20.277H212.868C212.741 19.5668 212.503 18.9418 212.155 18.402C211.807 17.8622 211.38 17.4041 210.876 17.0277C210.372 16.6513 209.807 16.3672 209.182 16.1754C208.564 15.9837 207.907 15.8878 207.211 15.8878C205.954 15.8878 204.829 16.2039 203.834 16.836C202.847 17.4681 202.066 18.3949 201.491 19.6165C200.922 20.8381 200.638 22.3296 200.638 24.0909C200.638 25.8665 200.922 27.3651 201.491 28.5867C202.066 29.8083 202.851 30.7316 203.845 31.3566C204.839 31.9816 205.958 32.2941 207.201 32.2941C207.89 32.2941 208.543 32.2017 209.161 32.0171C209.786 31.8253 210.351 31.5448 210.855 31.1754C211.359 30.8061 211.785 30.3551 212.133 29.8225C212.488 29.2827 212.733 28.6648 212.868 27.9688L216.192 27.9794C216.015 29.0519 215.67 30.0391 215.159 30.9411C214.655 31.836 214.005 32.6101 213.209 33.2635C212.421 33.9098 211.519 34.4105 210.503 34.7656C209.488 35.1208 208.38 35.2983 207.179 35.2983C205.29 35.2983 203.607 34.8509 202.13 33.956C200.652 33.054 199.488 31.7649 198.635 30.0888C197.79 28.4127 197.368 26.4134 197.368 24.0909C197.368 21.7614 197.794 19.7621 198.646 18.0931C199.498 16.4169 200.663 15.1314 202.14 14.2365C203.618 13.3345 205.297 12.8835 207.179 12.8835C208.337 12.8835 209.417 13.0504 210.418 13.3843C211.427 13.711 212.332 14.1939 213.135 14.8331C213.937 15.4652 214.601 16.2394 215.127 17.1556C215.652 18.0647 216.008 19.1051 216.192 20.277Z" fill="#131520"/>
<path d="M221.948 41.0938C221.472 41.0938 221.039 41.0547 220.648 40.9766C220.257 40.9056 219.966 40.8274 219.774 40.7422L220.542 38.1321C221.415 38.3736 222.147 38.3914 222.736 38.1854C223.333 37.9865 223.833 37.358 224.238 36.2997L224.632 35.2131L218.645 18.6364H222.054L226.198 31.3353H226.369L230.513 18.6364L233.954 18.6683L227.189 37.184C226.877 38.0291 226.479 38.7429 225.996 39.3253C225.513 39.9077 224.938 40.348 224.27 40.6463C223.603 40.9446 222.828 41.0938 221.948 41.0938Z" fill="#131520"/>
<path d="M237.211 35V13.1818H240.397V21.2891H240.589C240.773 20.9482 241.04 20.554 241.388 20.1066C241.736 19.6591 242.219 19.2685 242.836 18.9347C243.454 18.5938 244.271 18.4233 245.287 18.4233C246.608 18.4233 247.787 18.7571 248.824 19.4247C249.861 20.0924 250.674 21.0547 251.263 22.3118C251.86 23.5689 252.158 25.0817 252.158 26.8502C252.158 28.6186 251.863 30.135 251.274 31.3992C250.684 32.6563 249.875 33.6257 248.845 34.3076C247.815 34.9823 246.64 35.3196 245.319 35.3196C244.324 35.3196 243.511 35.1527 242.879 34.8189C242.254 34.4851 241.764 34.0945 241.409 33.647C241.054 33.1996 240.78 32.8019 240.589 32.4539H240.322V35H237.211ZM240.333 26.8182C240.333 27.9688 240.5 28.9773 240.834 29.8438C241.167 30.7103 241.65 31.3885 242.282 31.8786C242.915 32.3615 243.689 32.603 244.605 32.603C245.557 32.603 246.352 32.3509 246.991 31.8466C247.63 31.3352 248.113 30.6428 248.44 29.7692C248.774 28.8956 248.941 27.912 248.941 26.8182C248.941 25.7387 248.777 24.7692 248.451 23.9098C248.131 23.0504 247.648 22.3722 247.002 21.875C246.363 21.3779 245.564 21.1293 244.605 21.1293C243.682 21.1293 242.9 21.3672 242.261 21.8431C241.629 22.3189 241.15 22.983 240.823 23.8352C240.496 24.6875 240.333 25.6818 240.333 26.8182Z" fill="#131520"/>
<path d="M262.788 35.3303C261.175 35.3303 259.787 34.9858 258.622 34.2969C257.464 33.6009 256.57 32.6243 255.937 31.3672C255.312 30.103 255 28.6222 255 26.9247C255 25.2486 255.312 23.7713 255.937 22.4929C256.57 21.2145 257.45 20.2166 258.579 19.4993C259.716 18.782 261.044 18.4233 262.564 18.4233C263.487 18.4233 264.382 18.576 265.249 18.8814C266.115 19.1868 266.893 19.6662 267.582 20.3196C268.271 20.973 268.814 21.8218 269.212 22.8658C269.609 23.9027 269.808 25.1634 269.808 26.6477V27.777H256.8V25.3906H266.687C266.687 24.5526 266.516 23.8104 266.175 23.1641C265.834 22.5107 265.355 21.9958 264.737 21.6193C264.126 21.2429 263.409 21.0547 262.585 21.0547C261.69 21.0547 260.909 21.2749 260.241 21.7152C259.581 22.1485 259.07 22.7166 258.707 23.4198C258.352 24.1158 258.175 24.8722 258.175 25.6889V27.5533C258.175 28.647 258.366 29.5774 258.75 30.3445C259.141 31.1115 259.684 31.6975 260.38 32.1023C261.076 32.5 261.889 32.6989 262.82 32.6989C263.423 32.6989 263.974 32.6137 264.471 32.4432C264.968 32.2656 265.398 32.0029 265.76 31.6549C266.122 31.3068 266.399 30.8772 266.591 30.3658L269.606 30.9091C269.364 31.7969 268.931 32.5746 268.306 33.2422C267.688 33.9027 266.91 34.4176 265.973 34.787C265.043 35.1492 263.981 35.3303 262.788 35.3303Z" fill="#131520"/>
<path d="M273.342 35V18.6364H276.421V21.2358H276.592C276.89 20.3551 277.416 19.6627 278.168 19.1584C278.928 18.647 279.788 18.3914 280.747 18.3914C280.945 18.3914 281.18 18.3985 281.45 18.4127C281.727 18.4269 281.943 18.4446 282.1 18.4659V21.5128C281.972 21.4773 281.744 21.4382 281.418 21.3956C281.091 21.3459 280.764 21.321 280.438 21.321C279.685 21.321 279.014 21.4808 278.424 21.8004C277.842 22.1129 277.38 22.5497 277.039 23.1108C276.698 23.6648 276.528 24.2969 276.528 25.0071V35H273.342Z" fill="#131520"/>
<path d="M285.112 35V13.1818H292.889C294.579 13.1818 295.982 13.473 297.097 14.0554C298.219 14.6378 299.057 15.4439 299.611 16.4737C300.165 17.4965 300.442 18.679 300.442 20.0213C300.442 21.3566 300.162 22.532 299.6 23.5476C299.046 24.5561 298.208 25.3409 297.086 25.902C295.971 26.4631 294.568 26.7436 292.878 26.7436H286.987V23.9098H292.58C293.645 23.9098 294.512 23.7571 295.179 23.4517C295.854 23.1463 296.348 22.7024 296.66 22.1201C296.973 21.5377 297.129 20.8381 297.129 20.0213C297.129 19.1975 296.969 18.4837 296.649 17.88C296.337 17.2763 295.843 16.8147 295.169 16.4951C294.501 16.1683 293.624 16.005 292.537 16.005H288.404V35H285.112ZM295.882 25.1563L301.273 35H297.523L292.239 25.1563H295.882Z" fill="#131520"/>
<path d="M311.04 35.3303C309.427 35.3303 308.039 34.9858 306.874 34.2969C305.716 33.6009 304.822 32.6243 304.189 31.3672C303.564 30.103 303.252 28.6222 303.252 26.9247C303.252 25.2486 303.564 23.7713 304.189 22.4929C304.822 21.2145 305.702 20.2166 306.831 19.4993C307.968 18.782 309.296 18.4233 310.816 18.4233C311.739 18.4233 312.634 18.576 313.5 18.8814C314.367 19.1868 315.145 19.6662 315.834 20.3196C316.523 20.973 317.066 21.8218 317.464 22.8658C317.861 23.9027 318.06 25.1634 318.06 26.6477V27.777H305.052V25.3906H314.939C314.939 24.5526 314.768 23.8104 314.427 23.1641C314.086 22.5107 313.607 21.9958 312.989 21.6193C312.378 21.2429 311.661 21.0547 310.837 21.0547C309.942 21.0547 309.161 21.2749 308.493 21.7152C307.833 22.1485 307.322 22.7166 306.959 23.4198C306.604 24.1158 306.427 24.8722 306.427 25.6889V27.5533C306.427 28.647 306.618 29.5774 307.002 30.3445C307.393 31.1115 307.936 31.6975 308.632 32.1023C309.328 32.5 310.141 32.6989 311.072 32.6989C311.675 32.6989 312.226 32.6137 312.723 32.4432C313.22 32.2656 313.65 32.0029 314.012 31.6549C314.374 31.3068 314.651 30.8772 314.843 30.3658L317.858 30.9091C317.616 31.7969 317.183 32.5746 316.558 33.2422C315.94 33.9027 315.162 34.4176 314.225 34.787C313.295 35.1492 312.233 35.3303 311.04 35.3303Z" fill="#131520"/>
<path d="M333.857 22.6314L330.969 23.1428C330.849 22.7735 330.657 22.4219 330.394 22.0881C330.138 21.7543 329.79 21.4808 329.35 21.2678C328.91 21.0547 328.359 20.9482 327.699 20.9482C326.797 20.9482 326.044 21.1506 325.44 21.5554C324.837 21.9531 324.535 22.4681 324.535 23.1002C324.535 23.647 324.737 24.0874 325.142 24.4212C325.547 24.755 326.2 25.0284 327.102 25.2415L329.702 25.8381C331.207 26.1861 332.329 26.7223 333.068 27.4468C333.807 28.1712 334.176 29.1122 334.176 30.2699C334.176 31.25 333.892 32.1236 333.324 32.8906C332.763 33.6506 331.978 34.2472 330.969 34.6804C329.968 35.1137 328.807 35.3303 327.486 35.3303C325.653 35.3303 324.158 34.9397 323.001 34.1584C321.843 33.3701 321.133 32.2514 320.87 30.8026L323.949 30.3338C324.141 31.1364 324.535 31.7436 325.131 32.1556C325.728 32.5604 326.506 32.7628 327.464 32.7628C328.508 32.7628 329.343 32.5462 329.968 32.1129C330.593 31.6726 330.906 31.1364 330.906 30.5043C330.906 29.9929 330.714 29.5632 330.33 29.2152C329.954 28.8672 329.375 28.6044 328.594 28.4269L325.824 27.8196C324.297 27.4716 323.168 26.9176 322.436 26.1577C321.712 25.3977 321.349 24.4354 321.349 23.2706C321.349 22.3047 321.619 21.4595 322.159 20.7351C322.699 20.0107 323.445 19.446 324.396 19.0412C325.348 18.6293 326.438 18.4233 327.667 18.4233C329.435 18.4233 330.827 18.8068 331.843 19.5739C332.859 20.3338 333.53 21.353 333.857 22.6314Z" fill="#131520"/>
<path d="M344.731 35.3303C343.119 35.3303 341.73 34.9858 340.565 34.2969C339.408 33.6009 338.513 32.6243 337.881 31.3672C337.256 30.103 336.943 28.6222 336.943 26.9247C336.943 25.2486 337.256 23.7713 337.881 22.4929C338.513 21.2145 339.394 20.2166 340.523 19.4993C341.659 18.782 342.987 18.4233 344.507 18.4233C345.431 18.4233 346.325 18.576 347.192 18.8814C348.058 19.1868 348.836 19.6662 349.525 20.3196C350.214 20.973 350.757 21.8218 351.155 22.8658C351.553 23.9027 351.752 25.1634 351.752 26.6477V27.777H338.744V25.3906H348.63C348.63 24.5526 348.46 23.8104 348.119 23.1641C347.778 22.5107 347.298 21.9958 346.681 21.6193C346.07 21.2429 345.352 21.0547 344.529 21.0547C343.634 21.0547 342.852 21.2749 342.185 21.7152C341.524 22.1485 341.013 22.7166 340.651 23.4198C340.296 24.1158 340.118 24.8722 340.118 25.6889V27.5533C340.118 28.647 340.31 29.5774 340.693 30.3445C341.084 31.1115 341.627 31.6975 342.323 32.1023C343.019 32.5 343.833 32.6989 344.763 32.6989C345.367 32.6989 345.917 32.6137 346.414 32.4432C346.911 32.2656 347.341 32.0029 347.703 31.6549C348.065 31.3068 348.342 30.8772 348.534 30.3658L351.549 30.9091C351.308 31.7969 350.874 32.5746 350.249 33.2422C349.632 33.9027 348.854 34.4176 347.916 34.787C346.986 35.1492 345.924 35.3303 344.731 35.3303Z" fill="#131520"/>
<path d="M360.048 35.3622C359.011 35.3622 358.073 35.1705 357.235 34.787C356.397 34.3963 355.733 33.8317 355.243 33.0931C354.76 32.3544 354.519 31.4489 354.519 30.3764C354.519 29.4531 354.696 28.6932 355.051 28.0966C355.407 27.5 355.886 27.0277 356.49 26.6797C357.093 26.3317 357.768 26.0689 358.514 25.8914C359.26 25.7138 360.02 25.5789 360.794 25.4865C361.774 25.3729 362.569 25.2806 363.18 25.2095C363.791 25.1314 364.235 25.0071 364.512 24.8367C364.789 24.6662 364.927 24.3892 364.927 24.0057V23.9311C364.927 23.0007 364.664 22.2799 364.139 21.7685C363.62 21.2571 362.846 21.0014 361.816 21.0014C360.744 21.0014 359.899 21.2394 359.281 21.7152C358.67 22.184 358.247 22.706 358.013 23.2813L355.02 22.5995C355.375 21.6051 355.893 20.8026 356.575 20.1918C357.264 19.5739 358.056 19.1264 358.951 18.8495C359.846 18.5654 360.787 18.4233 361.774 18.4233C362.427 18.4233 363.12 18.5014 363.851 18.6577C364.59 18.8068 365.279 19.0838 365.918 19.4887C366.564 19.8935 367.093 20.4723 367.505 21.2252C367.917 21.9709 368.123 22.9404 368.123 24.1335V35H365.012V32.7628H364.885C364.679 33.1747 364.37 33.5796 363.958 33.9773C363.546 34.375 363.017 34.7053 362.37 34.9681C361.724 35.2308 360.95 35.3622 360.048 35.3622ZM360.74 32.8054C361.621 32.8054 362.374 32.6314 362.999 32.2834C363.631 31.9354 364.11 31.4808 364.437 30.9198C364.771 30.3516 364.938 29.7443 364.938 29.098V26.9887C364.824 27.1023 364.604 27.2088 364.277 27.3083C363.958 27.4006 363.592 27.4823 363.18 27.5533C362.768 27.6172 362.367 27.6776 361.976 27.7344C361.586 27.7841 361.259 27.8267 360.996 27.8622C360.378 27.9404 359.814 28.0718 359.302 28.2564C358.798 28.4411 358.393 28.7074 358.088 29.0554C357.789 29.3963 357.64 29.8509 357.64 30.4191C357.64 31.2074 357.931 31.804 358.514 32.2088C359.096 32.6066 359.838 32.8054 360.74 32.8054Z" fill="#131520"/>
<path d="M372.366 35V18.6364H375.445V21.2358H375.615C375.914 20.3551 376.439 19.6627 377.192 19.1584C377.952 18.647 378.811 18.3914 379.77 18.3914C379.969 18.3914 380.203 18.3985 380.473 18.4127C380.75 18.4269 380.967 18.4446 381.123 18.4659V21.5128C380.995 21.4773 380.768 21.4382 380.441 21.3956C380.115 21.3459 379.788 21.321 379.461 21.321C378.708 21.321 378.037 21.4808 377.448 21.8004C376.865 22.1129 376.404 22.5497 376.063 23.1108C375.722 23.6648 375.551 24.2969 375.551 25.0071V35H372.366Z" fill="#131520"/>
<path d="M390.186 35.3303C388.603 35.3303 387.239 34.9716 386.095 34.2543C384.959 33.5299 384.086 32.532 383.475 31.2607C382.864 29.9894 382.559 28.5334 382.559 26.8928C382.559 25.2308 382.871 23.7642 383.496 22.4929C384.121 21.2145 385.002 20.2166 386.138 19.4993C387.274 18.782 388.613 18.4233 390.154 18.4233C391.397 18.4233 392.505 18.6541 393.478 19.1158C394.451 19.5703 395.236 20.2095 395.833 21.0334C396.436 21.8573 396.795 22.8196 396.909 23.9205H393.809C393.638 23.1534 393.247 22.4929 392.637 21.9389C392.033 21.385 391.223 21.108 390.208 21.108C389.32 21.108 388.542 21.3424 387.875 21.8111C387.214 22.2728 386.699 22.9333 386.33 23.7926C385.961 24.6449 385.776 25.6534 385.776 26.8182C385.776 28.0114 385.957 29.0412 386.319 29.9077C386.681 30.7742 387.193 31.4453 387.853 31.9212C388.521 32.397 389.306 32.635 390.208 32.635C390.811 32.635 391.358 32.5249 391.848 32.3047C392.345 32.0774 392.761 31.7543 393.095 31.3353C393.436 30.9162 393.674 30.412 393.809 29.8225H396.909C396.795 30.8807 396.451 31.8253 395.875 32.6563C395.3 33.4872 394.529 34.1406 393.564 34.6165C392.605 35.0924 391.479 35.3303 390.186 35.3303Z" fill="#131520"/>
<path d="M403.5 25.2841V35H400.315V13.1818H403.458V21.2997H403.66C404.044 20.4191 404.63 19.7195 405.418 19.201C406.206 18.6826 407.236 18.4233 408.508 18.4233C409.63 18.4233 410.61 18.6541 411.448 19.1158C412.293 19.5774 412.947 20.2664 413.408 21.1826C413.877 22.0916 414.111 23.228 414.111 24.5916V35H410.926V24.9752C410.926 23.7749 410.617 22.8445 409.999 22.184C409.381 21.5164 408.522 21.1826 407.421 21.1826C406.668 21.1826 405.993 21.3424 405.397 21.662C404.807 21.9816 404.342 22.4503 404.001 23.0682C403.667 23.679 403.5 24.4176 403.5 25.2841Z" fill="#131520"/>
<defs>
<linearGradient id="paint0_linear" x1="0" y1="47.3725" x2="46.3087" y2="3.43316" gradientUnits="userSpaceOnUse">
<stop stop-color="#0C2F69"/>
<stop offset="1" stop-color="#1757C2"/>
</linearGradient>
</defs>
</svg>
