<svg xmlns="http://www.w3.org/2000/svg" xmlns:xlink="http://www.w3.org/1999/xlink" width="672" height="400" fill="none" xmlns:v="https://vecta.io/nano"><g fill="#fff"><path d="M0 0h672v400H0z"/><path d="M463 44a4 4 0 0 1 4-4h161a4 4 0 0 1 4 4v24a4 4 0 0 1-4 4H467a4 4 0 0 1-4-4V44z"/></g><path d="M476.722 51.273l2.429 7.108h.098l2.429-7.108h1.423L479.96 60h-1.521l-3.141-8.727h1.424zM485.259 60v-6.545h1.274V60h-1.274zm.643-7.555a.81.81 0 0 1-.571-.222.72.72 0 0 1-.234-.537.71.71 0 0 1 .234-.537.8.8 0 0 1 .571-.226c.222 0 .411.075.567.226s.239.327.239.537-.08.386-.239.537-.345.222-.567.222zm6.166 7.688c-.645 0-1.2-.138-1.666-.413s-.821-.669-1.074-1.172-.375-1.098-.375-1.777c0-.67.125-1.261.375-1.773a2.91 2.91 0 0 1 1.057-1.197c.454-.287.986-.43 1.594-.43a3.21 3.21 0 0 1 1.074.183 2.61 2.61 0 0 1 .933.575c.275.261.493.601.652 1.018s.238.919.238 1.513v.452h-5.203v-.955h3.955c0-.335-.068-.632-.205-.891s-.328-.467-.575-.618-.531-.226-.861-.226a1.66 1.66 0 0 0-.937.264c-.264.173-.469.4-.614.682a1.97 1.97 0 0 0-.213.908v.746c0 .438.077.81.23 1.117s.374.541.652.703.604.239.976.239a2.02 2.02 0 0 0 .66-.102 1.43 1.43 0 0 0 .516-.315 1.36 1.36 0 0 0 .332-.516l1.206.217c-.096.355-.269.666-.519.933a2.53 2.53 0 0 1-.934.618c-.372.145-.797.217-1.274.217zm6.629-.132l-1.926-6.545h1.317l1.283 4.807h.064l1.287-4.807h1.316l1.279 4.786h.064l1.274-4.786h1.317L504.05 60h-1.3l-1.33-4.726h-.098L499.993 60h-1.296zm13.66 0v-6.545h1.231v1.04h.068c.12-.352.33-.629.631-.831s.648-.307 1.031-.307l.281.009.26.021v1.219c-.051-.014-.142-.03-.272-.047s-.262-.03-.392-.03c-.302 0-.57.064-.806.192a1.43 1.43 0 0 0-.554.524 1.42 1.42 0 0 0-.204.758V60h-1.274zm5.605 0v-6.545h1.274V60h-1.274zm.643-7.555a.81.81 0 0 1-.571-.222.72.72 0 0 1-.234-.537.71.71 0 0 1 .234-.537c.16-.15.35-.226.571-.226s.411.075.567.226.239.327.239.537-.08.386-.239.537-.345.222-.567.222zm8.25 2.608l-1.155.205c-.048-.148-.125-.288-.23-.422s-.241-.243-.417-.328-.397-.128-.661-.128c-.361 0-.662.081-.903.243s-.363.365-.363.618a.65.65 0 0 0 .243.528c.162.133.424.243.784.328l1.04.239c.602.139 1.051.354 1.347.644s.443.666.443 1.129c0 .392-.114.741-.341 1.048s-.538.543-.942.716-.865.26-1.393.26c-.733 0-1.331-.156-1.794-.469a1.98 1.98 0 0 1-.852-1.342l1.231-.187c.077.321.234.564.473.729s.55.243.933.243c.418 0 .752-.087 1.002-.26s.375-.391.375-.643a.67.67 0 0 0-.23-.516c-.151-.139-.383-.244-.695-.315l-1.108-.243c-.611-.139-1.062-.361-1.355-.665s-.435-.689-.435-1.155a1.65 1.65 0 0 1 .324-1.014c.216-.29.514-.516.895-.677s.817-.247 1.308-.247c.708 0 1.264.153 1.671.46s.674.712.805 1.223zm3.701 2.727l-.009-1.555h.222l2.608-2.77h1.525l-2.974 3.153h-.2l-1.172 1.172zM529.384 60v-8.727h1.274V60h-1.274zm4.133 0l-2.343-3.111.877-.891 3.03 4.001h-1.564zm9.627.145c-.415 0-.79-.077-1.125-.23s-.601-.382-.797-.678-.289-.658-.289-1.087c0-.369.071-.673.213-.912s.333-.427.575-.567.511-.244.81-.315.602-.125.911-.162l.955-.111c.244-.031.422-.081.533-.149s.166-.179.166-.332v-.03c0-.372-.105-.66-.315-.865s-.518-.307-.929-.307c-.429 0-.767.095-1.015.286s-.413.396-.507.626l-1.197-.273c.142-.398.349-.719.622-.963s.592-.426.95-.537.735-.17 1.13-.17c.261 0 .538.031.83.094a2.42 2.42 0 0 1 .827.332c.259.162.47.393.635.695s.247.686.247 1.163V60h-1.244v-.895h-.051c-.083.165-.206.327-.371.486s-.376.291-.635.396-.568.158-.929.158zm.277-1.023c.352 0 .654-.07.904-.209a1.47 1.47 0 0 0 .575-.546 1.42 1.42 0 0 0 .2-.729v-.844c-.045.045-.133.088-.264.128s-.274.07-.439.098l-.482.073-.392.051c-.247.031-.473.084-.677.158a1.16 1.16 0 0 0-.486.32c-.119.136-.179.318-.179.545 0 .315.117.554.35.716s.529.239.89.239zm10.555-4.07l-1.155.205c-.048-.148-.125-.288-.23-.422s-.241-.243-.417-.328-.397-.128-.661-.128c-.361 0-.662.081-.903.243s-.362.365-.362.618a.65.65 0 0 0 .242.528c.162.133.424.243.785.328l1.039.239c.603.139 1.051.354 1.347.644s.443.666.443 1.129c0 .392-.114.741-.341 1.048s-.538.543-.942.716-.865.26-1.393.26c-.733 0-1.331-.156-1.794-.469a1.98 1.98 0 0 1-.852-1.342l1.231-.187c.077.321.235.564.473.729s.55.243.933.243c.418 0 .752-.087 1.002-.26s.375-.391.375-.643a.67.67 0 0 0-.23-.516c-.151-.139-.382-.244-.695-.315l-1.108-.243c-.611-.139-1.062-.361-1.355-.665s-.435-.689-.435-1.155a1.65 1.65 0 0 1 .324-1.014c.216-.29.514-.516.895-.677s.817-.247 1.308-.247c.708 0 1.265.153 1.671.46s.675.712.805 1.223zm7.434 0l-1.155.205c-.048-.148-.125-.288-.23-.422a1.14 1.14 0 0 0-.418-.328c-.176-.085-.396-.128-.66-.128-.361 0-.662.081-.904.243s-.362.365-.362.618a.65.65 0 0 0 .243.528c.162.133.423.243.784.328l1.04.239c.602.139 1.051.354 1.346.644s.444.666.444 1.129c0 .392-.114.741-.341 1.048s-.539.543-.942.716-.865.26-1.393.26c-.733 0-1.331-.156-1.795-.469a1.98 1.98 0 0 1-.852-1.342l1.232-.187c.076.321.234.564.473.729s.549.243.933.243c.418 0 .751-.087 1.001-.26s.375-.391.375-.643c0-.205-.076-.376-.23-.516s-.382-.244-.694-.315l-1.108-.243c-.611-.139-1.063-.361-1.355-.665s-.435-.689-.435-1.155a1.65 1.65 0 0 1 .324-1.014c.216-.29.514-.516.895-.677a3.26 3.26 0 0 1 1.308-.247c.707 0 1.264.153 1.67.46a2.14 2.14 0 0 1 .806 1.223zm5.35 5.08c-.645 0-1.201-.138-1.667-.413s-.821-.669-1.073-1.172-.375-1.098-.375-1.777c0-.67.125-1.261.375-1.773s.605-.911 1.056-1.197.986-.43 1.594-.43a3.21 3.21 0 0 1 1.074.183 2.59 2.59 0 0 1 .933.575c.276.261.493.601.652 1.018s.239.919.239 1.513v.452h-5.203v-.955h3.954c0-.335-.068-.632-.204-.891s-.328-.467-.576-.618-.531-.226-.86-.226c-.358 0-.671.088-.938.264s-.469.4-.614.682a1.97 1.97 0 0 0-.213.908v.746c0 .438.077.81.231 1.117a1.66 1.66 0 0 0 .652.703c.278.159.603.239.975.239.242 0 .462-.034.661-.102a1.43 1.43 0 0 0 .516-.315c.144-.139.255-.311.332-.516l1.206.217a2.19 2.19 0 0 1-.52.933c-.247.264-.558.47-.933.618s-.797.217-1.274.217zm10.126-5.08l-1.154.205c-.049-.148-.125-.288-.231-.422s-.241-.243-.417-.328-.396-.128-.661-.128c-.36 0-.662.081-.903.243s-.362.365-.362.618a.65.65 0 0 0 .243.528c.162.133.423.243.784.328l1.039.239c.603.139 1.052.354 1.347.644s.443.666.443 1.129a1.71 1.71 0 0 1-.341 1.048c-.224.304-.538.543-.941.716s-.866.26-1.394.26c-.733 0-1.331-.156-1.794-.469a1.98 1.98 0 0 1-.852-1.342l1.231-.187c.077.321.235.564.473.729s.55.243.934.243c.417 0 .751-.087 1.001-.26s.375-.391.375-.643a.67.67 0 0 0-.23-.516c-.151-.139-.382-.244-.695-.315l-1.108-.243c-.61-.139-1.062-.361-1.355-.665s-.434-.689-.434-1.155a1.65 1.65 0 0 1 .323-1.014c.216-.29.515-.516.895-.677s.817-.247 1.309-.247c.707 0 1.264.153 1.67.46s.675.712.805 1.223zm7.434 0l-1.155.205c-.048-.148-.125-.288-.23-.422a1.13 1.13 0 0 0-.418-.328c-.176-.085-.396-.128-.66-.128-.361 0-.662.081-.904.243s-.362.365-.362.618a.65.65 0 0 0 .243.528c.162.133.423.243.784.328l1.04.239c.602.139 1.051.354 1.347.644s.443.666.443 1.129c0 .392-.114.741-.341 1.048s-.538.543-.942.716-.865.26-1.393.26c-.733 0-1.331-.156-1.794-.469s-.748-.763-.853-1.342l1.232-.187c.077.321.234.564.473.729s.55.243.933.243c.418 0 .752-.087 1.002-.26s.375-.391.375-.643c0-.205-.077-.376-.231-.516s-.382-.244-.694-.315l-1.108-.243c-.611-.139-1.063-.361-1.355-.665s-.435-.689-.435-1.155a1.65 1.65 0 0 1 .324-1.014c.216-.29.514-.516.895-.677s.817-.247 1.308-.247c.707 0 1.264.153 1.671.46s.674.712.805 1.223zM586.849 60v-6.545h1.223v1.065h.081c.136-.361.359-.642.669-.844s.68-.307 1.112-.307.804.102 1.099.307.519.486.661.844h.068a1.84 1.84 0 0 1 .746-.835c.341-.21.747-.315 1.219-.315.593 0 1.078.186 1.453.558s.566.933.566 1.683V60h-1.274v-4.27c0-.443-.12-.764-.362-.963s-.53-.298-.865-.298c-.415 0-.737.128-.967.383s-.345.578-.345.976V60h-1.27v-4.351c0-.355-.111-.641-.333-.856s-.51-.324-.865-.324a1.24 1.24 0 0 0-.669.192c-.202.125-.365.3-.49.524s-.183.484-.183.78V60h-1.274zm14.426.132c-.645 0-1.2-.138-1.666-.413s-.821-.669-1.074-1.172-.375-1.098-.375-1.777c0-.67.125-1.261.375-1.773a2.91 2.91 0 0 1 1.057-1.197c.455-.287.986-.43 1.594-.43a3.21 3.21 0 0 1 1.074.183 2.61 2.61 0 0 1 .933.575c.275.261.493.601.652 1.018s.238.919.238 1.513v.452h-5.203v-.955h3.955c0-.335-.068-.632-.205-.891s-.328-.467-.575-.618-.531-.226-.861-.226a1.66 1.66 0 0 0-.937.264c-.264.173-.469.4-.614.682a1.97 1.97 0 0 0-.213.908v.746c0 .438.077.81.23 1.117s.374.541.652.703.604.239.976.239a2.03 2.03 0 0 0 .661-.102c.198-.071.37-.176.515-.315s.256-.311.333-.516l1.205.217c-.096.355-.269.666-.519.933a2.53 2.53 0 0 1-.934.618c-.372.145-.797.217-1.274.217zm6.496-4.019V60h-1.274v-6.545h1.223v1.065h.081c.151-.347.387-.625.708-.835s.731-.315 1.223-.315c.446 0 .836.094 1.171.281s.596.46.78.827.277.82.277 1.359V60h-1.274v-4.01c0-.474-.123-.845-.371-1.112s-.586-.405-1.018-.405c-.296 0-.558.064-.788.192a1.38 1.38 0 0 0-.542.563c-.13.244-.196.54-.196.886zm9.953-2.659v1.023h-3.575v-1.023h3.575zm-2.616-1.568h1.274v6.192c0 .247.037.433.111.558a.58.58 0 0 0 .285.251 1.15 1.15 0 0 0 .388.064 1.5 1.5 0 0 0 .269-.021l.179-.034.23 1.053c-.074.028-.179.057-.316.085s-.306.048-.511.051a2.24 2.24 0 0 1-.937-.179 1.61 1.61 0 0 1-.704-.579c-.179-.261-.268-.59-.268-.984v-6.456z" fill="#1757c2"/><rect x="463.5" y="40.5" width="168" height="31" rx="3.5" stroke="#1757c2"/><g fill="#5d6598"><path d="M59.378 345h1.203v5.672c0 .513-.102.952-.305 1.316s-.483.644-.848.836-.792.285-1.281.285c-.45 0-.855-.082-1.215-.246a1.98 1.98 0 0 1-.848-.715c-.209-.313-.309-.697-.309-1.148h1.199a1.06 1.06 0 0 0 .152.574 1.07 1.07 0 0 0 .426.379c.182.089.391.133.625.133.255 0 .471-.053.648-.16a1.04 1.04 0 0 0 .41-.481c.094-.211.141-.468.141-.773V345zm4.612 8.133c-.38 0-.724-.07-1.031-.211s-.551-.35-.73-.621-.266-.603-.266-.996c0-.339.065-.618.195-.836a1.45 1.45 0 0 1 .527-.52 2.77 2.77 0 0 1 .742-.289 7.45 7.45 0 0 1 .836-.148l.875-.102c.224-.028.387-.074.488-.137s.152-.164.152-.304v-.028c0-.341-.096-.605-.289-.793s-.474-.281-.852-.281c-.393 0-.703.087-.93.262a1.4 1.4 0 0 0-.465.574l-1.098-.25c.13-.364.32-.659.57-.883s.543-.39.871-.492.673-.156 1.035-.156a3.67 3.67 0 0 1 .762.086 2.23 2.23 0 0 1 .758.304 1.69 1.69 0 0 1 .582.637c.151.274.227.629.227 1.067V353h-1.141v-.82h-.047c-.076.151-.189.299-.34.445s-.345.267-.582.363-.521.145-.852.145zm.254-.938c.323 0 .599-.063.828-.191a1.34 1.34 0 0 0 .527-.5 1.3 1.3 0 0 0 .184-.668v-.774a.61.61 0 0 1-.242.118c-.12.037-.251.063-.402.09l-.442.066-.359.047a2.9 2.9 0 0 0-.621.144c-.185.068-.333.166-.445.293s-.164.292-.164.5a.75.75 0 0 0 .32.657c.213.149.486.218.816.218zm5.431-2.758V353h-1.168v-6h1.121v.977h.074c.138-.318.354-.573.648-.766s.67-.289 1.121-.289c.409 0 .767.086 1.074.258a1.74 1.74 0 0 1 .715.757c.169.335.254.752.254 1.247V353h-1.168v-3.676c0-.435-.113-.775-.34-1.019s-.538-.371-.934-.371c-.271 0-.512.058-.723.175s-.374.289-.496.516-.18.495-.18.812zm35.53 3.563v-8h4.961v1.039h-3.754v2.438h3.399v1.035h-3.399V353h-1.207zm8.497.121c-.591 0-1.1-.126-1.527-.379a2.57 2.57 0 0 1-.984-1.074c-.229-.464-.344-1.007-.344-1.629 0-.615.115-1.156.344-1.625s.554-.835.968-1.098.904-.394 1.461-.394a2.94 2.94 0 0 1 .985.168 2.38 2.38 0 0 1 .855.527c.253.24.452.551.598.934s.219.842.219 1.386v.415h-4.77v-.875h3.625c0-.308-.062-.58-.187-.817a1.42 1.42 0 0 0-.528-.566c-.224-.138-.487-.207-.789-.207a1.52 1.52 0 0 0-.859.242 1.63 1.63 0 0 0-.563.625c-.13.255-.195.532-.195.832v.684c0 .401.07.742.211 1.023s.342.496.598.644a1.75 1.75 0 0 0 .894.219c.222 0 .423-.031.606-.094a1.3 1.3 0 0 0 .472-.289c.133-.127.235-.285.305-.472l1.105.199a1.99 1.99 0 0 1-.476.855c-.227.243-.512.431-.856.567s-.73.199-1.168.199zm3.964-.121v-8h1.168v2.973h.071c.067-.125.165-.27.293-.434s.304-.307.531-.43.526-.187.898-.187a2.34 2.34 0 0 1 1.297.367c.38.245.679.598.895 1.059s.328 1.015.328 1.664-.108 1.204-.324 1.668-.513.816-.891 1.066a2.31 2.31 0 0 1-1.293.371c-.365 0-.663-.061-.895-.183s-.408-.266-.539-.43a3.2 3.2 0 0 1-.3-.438h-.098V353h-1.141zm1.145-3a3.08 3.08 0 0 0 .183 1.109 1.68 1.68 0 0 0 .532.746c.231.178.515.266.851.266.349 0 .641-.092.875-.277s.412-.442.532-.762a3.02 3.02 0 0 0 .183-1.082c0-.396-.06-.751-.18-1.066s-.294-.564-.531-.746-.527-.274-.879-.274c-.338 0-.625.087-.859.262s-.408.418-.527.73-.18.677-.18 1.094zm35.047-5h1.465l2.547 6.219h.093L160.51 345h1.465v8h-1.148v-5.789h-.074l-2.36 5.777h-.953l-2.359-5.781h-.075V353h-1.148v-8zm11.524 8.133c-.38 0-.724-.07-1.031-.211a1.73 1.73 0 0 1-.73-.621c-.177-.271-.266-.603-.266-.996 0-.339.065-.618.195-.836s.306-.392.528-.52.468-.224.742-.289a7.41 7.41 0 0 1 .836-.148l.875-.102c.224-.028.387-.074.488-.137s.152-.164.152-.304v-.028c0-.341-.096-.605-.289-.793s-.474-.281-.851-.281c-.393 0-.703.087-.93.262s-.379.363-.465.574l-1.097-.25c.13-.364.32-.659.57-.883a2.33 2.33 0 0 1 .871-.492c.328-.104.673-.156 1.035-.156a3.67 3.67 0 0 1 .762.086 2.23 2.23 0 0 1 .758.304 1.69 1.69 0 0 1 .582.637c.151.274.226.629.226 1.067V353h-1.14v-.82h-.047c-.076.151-.189.299-.34.445s-.345.267-.582.363-.521.145-.852.145zm.254-.938c.323 0 .599-.063.828-.191s.408-.294.528-.5a1.3 1.3 0 0 0 .183-.668v-.774c-.041.042-.122.081-.242.118s-.251.063-.402.09l-.442.066-.359.047a2.9 2.9 0 0 0-.621.144c-.185.068-.333.166-.445.293s-.164.292-.164.5c0 .289.106.508.32.657s.486.218.816.218zm4.263.805v-6h1.129v.953h.062c.11-.323.303-.577.579-.762s.593-.281.945-.281l.258.008.238.019v1.118a1.97 1.97 0 0 0-.25-.043c-.12-.019-.24-.028-.359-.028a1.53 1.53 0 0 0-.739.176c-.213.115-.383.275-.508.481a1.3 1.3 0 0 0-.187.695V353h-1.168zm35.142 0h-1.281l2.879-8h1.394l2.879 8h-1.281l-2.262-6.547h-.062L205.041 353zm.215-3.133h4.156v1.016h-4.156v-1.016zm6.718 5.383V347h1.14v.973h.098a3.25 3.25 0 0 1 .293-.434c.128-.164.305-.307.531-.43s.526-.187.899-.187c.484 0 .916.122 1.297.367s.678.598.894 1.059.328 1.015.328 1.664-.108 1.204-.324 1.668-.513.816-.891 1.066-.808.371-1.293.371c-.364 0-.662-.061-.894-.183s-.409-.266-.539-.43a3.22 3.22 0 0 1-.301-.438h-.07v3.184h-1.168zm1.144-5.25c0 .422.061.792.184 1.109s.299.567.531.746.516.266.852.266c.349 0 .64-.092.875-.277a1.73 1.73 0 0 0 .531-.762 3.02 3.02 0 0 0 .183-1.082c0-.396-.059-.751-.179-1.066s-.294-.564-.531-.746-.528-.274-.879-.274c-.339 0-.625.087-.86.262s-.407.418-.527.73-.18.677-.18 1.094zm5.645 3v-6h1.129v.953h.062c.11-.323.302-.577.578-.762a1.66 1.66 0 0 1 .946-.281l.257.008.239.019v1.118a1.97 1.97 0 0 0-.25-.043 2.3 2.3 0 0 0-.36-.028c-.276 0-.522.059-.738.176s-.383.275-.508.481a1.3 1.3 0 0 0-.187.695V353h-1.168zm33.035-8h1.465l2.547 6.219h.094l2.547-6.219h1.464v8h-1.148v-5.789h-.074l-2.36 5.777h-.953l-2.359-5.781h-.074V353h-1.149v-8zm11.525 8.133c-.381 0-.724-.07-1.032-.211s-.55-.35-.73-.621-.266-.603-.266-.996c0-.339.065-.618.196-.836a1.46 1.46 0 0 1 .527-.52 2.77 2.77 0 0 1 .742-.289 7.45 7.45 0 0 1 .836-.148l.875-.102c.224-.028.387-.074.488-.137s.153-.164.153-.304v-.028c0-.341-.097-.605-.289-.793s-.474-.281-.852-.281c-.393 0-.703.087-.93.262s-.379.363-.465.574l-1.097-.25c.13-.364.32-.659.57-.883a2.33 2.33 0 0 1 .871-.492c.328-.104.673-.156 1.035-.156a3.67 3.67 0 0 1 .762.086 2.22 2.22 0 0 1 .758.304 1.69 1.69 0 0 1 .582.637c.151.274.227.629.227 1.067V353h-1.141v-.82h-.047c-.075.151-.189.299-.34.445s-.345.267-.582.363-.521.145-.851.145zm.253-.938c.323 0 .599-.063.829-.191s.407-.294.527-.5a1.3 1.3 0 0 0 .184-.668v-.774c-.042.042-.123.081-.243.118s-.251.063-.402.09l-.441.066-.36.047c-.226.028-.433.077-.621.144s-.333.166-.445.293-.164.292-.164.5a.75.75 0 0 0 .32.657c.214.145.486.218.816.218zm4.787 3.039a2.41 2.41 0 0 1-.477-.043c-.143-.026-.25-.054-.32-.086l.281-.957c.32.089.589.095.805.02s.402-.303.55-.691l.145-.399-2.195-6.078h1.25l1.519 4.656h.063l1.519-4.656 1.262.012-2.48 6.789c-.115.31-.261.571-.438.785a1.73 1.73 0 0 1-.633.484c-.245.11-.528.164-.851.164zM305.553 345h1.203v5.672c0 .513-.102.952-.305 1.316a2.05 2.05 0 0 1-.847.836c-.364.192-.792.285-1.282.285a2.89 2.89 0 0 1-1.214-.246c-.357-.164-.64-.402-.848-.715s-.309-.697-.309-1.148h1.199c0 .221.051.413.153.574a1.06 1.06 0 0 0 .426.379c.18.091.39.133.625.133.255 0 .471-.053.648-.16a1.04 1.04 0 0 0 .41-.481c.094-.211.141-.468.141-.773V345zm6.667 5.512V347h1.172v6h-1.149v-1.039h-.062c-.138.32-.36.587-.664.801s-.679.316-1.129.316c-.386 0-.727-.085-1.024-.254s-.526-.426-.695-.762-.25-.751-.25-1.246V347h1.168v3.676c0 .409.113.734.34.976a1.15 1.15 0 0 0 .883.364c.218 0 .436-.055.652-.164s.4-.275.543-.497.217-.502.215-.843zm3.909-1.075V353h-1.168v-6h1.121v.977h.074a1.72 1.72 0 0 1 .649-.766c.297-.193.67-.289 1.121-.289.409 0 .767.086 1.074.258a1.74 1.74 0 0 1 .715.757c.169.335.254.752.254 1.247V353h-1.168v-3.676c0-.435-.113-.775-.34-1.019s-.538-.371-.934-.371c-.27 0-.511.058-.722.175a1.26 1.26 0 0 0-.496.516c-.12.224-.18.495-.18.812zM357.156 345h1.203v5.672c0 .513-.102.952-.305 1.316a2.05 2.05 0 0 1-.847.836c-.364.192-.792.285-1.282.285a2.89 2.89 0 0 1-1.214-.246c-.357-.164-.64-.402-.848-.715s-.309-.697-.309-1.148h1.2a1.05 1.05 0 0 0 .152.574c.104.162.246.288.426.379s.39.133.625.133c.255 0 .471-.053.648-.16a1.04 1.04 0 0 0 .41-.481c.094-.211.141-.468.141-.773V345zm6.667 5.512V347h1.172v6h-1.149v-1.039h-.062c-.138.32-.36.587-.664.801s-.679.316-1.129.316c-.386 0-.727-.085-1.024-.254s-.526-.426-.695-.762-.25-.751-.25-1.246V347h1.168v3.676c0 .409.113.734.34.976a1.15 1.15 0 0 0 .883.364c.218 0 .436-.055.652-.164s.4-.275.543-.497.217-.502.215-.843zm3.909-5.512v8h-1.168v-8h1.168zm33.306 8h-1.281l2.879-8h1.394l2.879 8h-1.281l-2.262-6.547h-.062L401.038 353zm.215-3.133h4.156v1.016h-4.156v-1.016zm10.518.645V347h1.172v6h-1.148v-1.039h-.063c-.138.32-.359.587-.664.801s-.678.316-1.129.316c-.385 0-.726-.085-1.023-.254s-.526-.426-.695-.762-.25-.751-.25-1.246V347h1.168v3.676c0 .409.113.734.339.976s.521.364.883.364a1.44 1.44 0 0 0 .653-.164c.218-.11.399-.275.543-.497s.217-.502.214-.843zm5.257 4.851c-.476 0-.887-.062-1.23-.187s-.62-.291-.836-.496a2.08 2.08 0 0 1-.485-.664l1.004-.414c.071.109.164.227.282.355s.281.237.484.328.47.137.793.137c.443 0 .808-.107 1.098-.32s.433-.553.433-1.016v-1.18h-.074c-.07.128-.172.27-.305.426s-.31.292-.539.406-.527.172-.894.172c-.474 0-.901-.111-1.282-.332s-.677-.553-.898-.988-.328-.975-.328-1.613.108-1.185.324-1.641.518-.805.898-1.047a2.36 2.36 0 0 1 1.293-.367c.373 0 .674.062.903.187s.407.266.535.43a3.75 3.75 0 0 1 .301.434h.086V347h1.144v6.133c0 .51-.12.93-.359 1.258a2.13 2.13 0 0 1-.973.734c-.409.159-.864.238-1.375.238zm-.012-3.422c.336 0 .62-.078.852-.234a1.46 1.46 0 0 0 .531-.68c.123-.297.184-.652.184-1.066 0-.404-.06-.759-.18-1.066s-.295-.547-.527-.719-.518-.262-.86-.262c-.351 0-.644.091-.878.274a1.67 1.67 0 0 0-.532.734c-.12.31-.175.656-.175 1.039a2.75 2.75 0 0 0 .179 1.035 1.53 1.53 0 0 0 .531.695c.237.167.529.25.875.25z"/><path d="M454.237 347.102a1.14 1.14 0 0 0-.515-.86c-.302-.206-.683-.308-1.141-.308-.328 0-.612.052-.851.156s-.426.242-.559.422-.195.379-.195.605c0 .19.044.354.132.492a1.16 1.16 0 0 0 .356.348c.146.094.307.168.477.231l.488.148.781.203c.255.063.517.147.785.254a3.14 3.14 0 0 1 .746.422 2.02 2.02 0 0 1 .555.648c.143.258.215.567.215.926a2.12 2.12 0 0 1-.352 1.207c-.232.352-.569.629-1.011.832s-.973.305-1.598.305c-.599 0-1.117-.095-1.555-.285s-.78-.46-1.027-.809-.384-.768-.41-1.25h1.211c.023.289.117.53.281.723s.379.332.637.425.545.137.855.137c.341 0 .645-.053.91-.16s.479-.26.633-.453a1.07 1.07 0 0 0 .231-.684c0-.237-.068-.431-.204-.582s-.313-.276-.543-.375a5.23 5.23 0 0 0-.769-.261l-.945-.258c-.641-.175-1.149-.431-1.524-.77s-.558-.786-.558-1.344a2 2 0 0 1 .375-1.207c.25-.343.588-.61 1.015-.8a3.52 3.52 0 0 1 1.445-.289c.542 0 1.02.095 1.434.285a2.41 2.41 0 0 1 .984.785c.24.331.365.711.375 1.141h-1.164zm5.208 6.019c-.591 0-1.1-.126-1.527-.379s-.753-.613-.984-1.074-.344-1.007-.344-1.629c0-.615.115-1.156.344-1.625s.554-.835.968-1.098.904-.394 1.461-.394a2.94 2.94 0 0 1 .985.168 2.39 2.39 0 0 1 .855.527c.253.24.452.551.598.934s.219.842.219 1.386v.415h-4.77v-.875h3.625c0-.308-.062-.58-.187-.817a1.42 1.42 0 0 0-.528-.566c-.224-.138-.487-.207-.789-.207a1.52 1.52 0 0 0-.859.242 1.63 1.63 0 0 0-.563.625c-.13.255-.195.532-.195.832v.684c0 .401.07.742.211 1.023s.342.496.598.644a1.75 1.75 0 0 0 .894.219c.221 0 .423-.031.606-.094a1.3 1.3 0 0 0 .472-.289c.133-.127.235-.285.305-.472l1.105.199a1.99 1.99 0 0 1-.476.855c-.227.243-.512.431-.856.567s-.73.199-1.168.199zm3.871 2.129V347h1.14v.973h.098c.067-.125.165-.27.293-.434s.304-.307.531-.43.526-.187.898-.187a2.34 2.34 0 0 1 1.297.367c.381.245.679.598.895 1.059s.328 1.015.328 1.664-.108 1.204-.324 1.668-.513.816-.891 1.066-.808.371-1.293.371c-.364 0-.663-.061-.894-.183a1.69 1.69 0 0 1-.539-.43 3.13 3.13 0 0 1-.301-.438h-.071v3.184h-1.167zm1.144-5.25c0 .422.061.792.184 1.109s.299.567.531.746a1.35 1.35 0 0 0 .851.266c.349 0 .641-.092.875-.277s.412-.442.532-.762a3.02 3.02 0 0 0 .183-1.082c0-.396-.06-.751-.179-1.066s-.295-.564-.532-.746-.527-.274-.879-.274c-.338 0-.625.087-.859.262s-.407.418-.527.73-.18.677-.18 1.094zm42.817-1c0 .854-.156 1.589-.469 2.203a3.44 3.44 0 0 1-1.285 1.414c-.542.328-1.158.492-1.848.492s-1.311-.164-1.855-.492-.969-.803-1.281-1.418-.469-1.347-.469-2.199.156-1.587.469-2.199.739-1.086 1.281-1.414a3.52 3.52 0 0 1 1.855-.496c.692 0 1.306.165 1.848.496s.973.799 1.285 1.414.469 1.345.469 2.199zm-1.195 0c0-.651-.106-1.199-.317-1.645s-.495-.786-.859-1.015a2.23 2.23 0 0 0-1.231-.348c-.461 0-.872.116-1.234.348s-.648.568-.859 1.015-.313.994-.313 1.645.104 1.201.313 1.648.497.784.859 1.016.773.344 1.234.344.869-.115 1.231-.344.651-.57.859-1.016.317-.997.317-1.648zm5.133 4.121c-.58 0-1.08-.131-1.5-.394a2.62 2.62 0 0 1-.961-1.098c-.223-.466-.335-1-.335-1.602 0-.609.114-1.147.343-1.613a2.63 2.63 0 0 1 .969-1.098c.417-.263.908-.394 1.473-.394a2.81 2.81 0 0 1 1.218.254c.357.166.645.401.864.703a2.12 2.12 0 0 1 .394 1.058h-1.136c-.063-.281-.206-.523-.43-.726s-.518-.305-.891-.305a1.45 1.45 0 0 0-.855.258c-.242.169-.431.412-.567.727s-.203.682-.203 1.109c0 .437.067.815.199 1.133a1.68 1.68 0 0 0 .563.738c.245.175.533.262.863.262.222 0 .422-.041.602-.121a1.24 1.24 0 0 0 .457-.356c.125-.153.212-.338.262-.554h1.136a2.2 2.2 0 0 1-.379 1.039 2.18 2.18 0 0 1-.847.718c-.352.175-.765.262-1.239.262zM517.73 347v.937h-3.277V347h3.277zm-2.398-1.438h1.168v5.676c0 .227.033.397.101.512s.155.189.262.23.228.059.355.059c.094 0 .176-.006.246-.019l.165-.032.21.965a1.94 1.94 0 0 1-.289.078c-.125.029-.281.045-.468.047-.308.005-.594-.049-.86-.164a1.48 1.48 0 0 1-.644-.531c-.164-.24-.246-.541-.246-.903v-5.918zm39.573-.562v8h-1.109l-4.067-5.867h-.074V353h-1.207v-8h1.117l4.071 5.875h.074V345h1.195zm4.194 8.121c-.562 0-1.053-.129-1.472-.387a2.61 2.61 0 0 1-.977-1.082c-.232-.464-.347-1.005-.347-1.625s.115-1.166.347-1.632.558-.829.977-1.086.91-.387 1.472-.387 1.054.129 1.473.387.745.619.977 1.086.347 1.01.347 1.632-.116 1.162-.347 1.625-.558.825-.977 1.082-.91.387-1.473.387zm.004-.98c.365 0 .667-.097.907-.289s.416-.45.531-.77a3.11 3.11 0 0 0 .176-1.059 3.05 3.05 0 0 0-.176-1.054 1.73 1.73 0 0 0-.531-.778c-.24-.195-.542-.293-.907-.293s-.671.098-.914.293-.418.455-.535.778-.172.672-.172 1.054.058.739.172 1.059.296.577.535.77.547.289.914.289zm9.015-5.141l-2.176 6h-1.25l-2.179-6h1.253l1.52 4.617h.062l1.516-4.617h1.254zm32.19 6h-2.59v-8h2.672c.784 0 1.457.16 2.02.48s.993.775 1.293 1.372.453 1.306.453 2.136-.152 1.55-.457 2.149-.74 1.06-1.313 1.383-1.265.48-2.078.48zm-1.383-1.055h1.317c.609 0 1.116-.114 1.519-.343s.706-.567.907-1.004.3-.977.3-1.61c0-.627-.1-1.16-.3-1.597s-.494-.77-.887-.996-.882-.34-1.465-.34h-1.391v5.89zm9.224 1.176c-.591 0-1.1-.126-1.527-.379s-.753-.613-.985-1.074-.343-1.007-.343-1.629c0-.615.114-1.156.343-1.625a2.67 2.67 0 0 1 .969-1.098c.417-.263.904-.394 1.461-.394a2.93 2.93 0 0 1 .984.168c.318.112.603.288.856.527s.452.551.597.934.219.842.219 1.386v.415h-4.769v-.875h3.625c0-.308-.063-.58-.188-.817s-.301-.428-.527-.566-.487-.207-.789-.207c-.328 0-.615.08-.86.242s-.429.367-.562.625-.195.532-.195.832v.684c0 .401.07.742.211 1.023a1.52 1.52 0 0 0 .597.644c.255.146.554.219.895.219a1.84 1.84 0 0 0 .605-.094c.182-.065.34-.161.473-.289a1.26 1.26 0 0 0 .305-.472l1.105.199a1.99 1.99 0 0 1-.477.855 2.3 2.3 0 0 1-.855.567c-.341.133-.73.199-1.168.199zm6.397 0c-.58 0-1.08-.131-1.5-.394a2.61 2.61 0 0 1-.96-1.098c-.224-.466-.336-1-.336-1.602 0-.609.114-1.147.343-1.613s.552-.835.969-1.098.908-.394 1.473-.394c.455 0 .862.085 1.219.254s.644.401.863.703a2.12 2.12 0 0 1 .394 1.058h-1.136c-.063-.281-.206-.523-.43-.726s-.518-.305-.891-.305a1.45 1.45 0 0 0-.855.258c-.242.169-.431.412-.567.727s-.203.682-.203 1.109c0 .437.067.815.2 1.133s.32.564.562.738.533.262.863.262c.222 0 .422-.041.602-.121a1.24 1.24 0 0 0 .457-.356c.125-.153.212-.338.262-.554h1.136a2.2 2.2 0 0 1-.379 1.039 2.18 2.18 0 0 1-.847.718c-.352.175-.765.262-1.239.262z"/></g><g clip-path="url(#B)"><path d="M43 307l650-24" stroke="#8babe1" stroke-width="2" stroke-linecap="round" stroke-dasharray="0.1 4"/><path d="M59.533 293.8l.22 5.814-.877.033-.22-5.814.877-.033zm6.97-.26l.22 5.814-.806.03-3.116-4.154-.054.002.161 4.264-.877.033-.22-5.814.812-.03 3.12 4.159.054-.002-.161-4.27.869-.032zm4.381 5.658l-1.882.07-.22-5.814 1.942-.072c.57-.022 1.063.077 1.481.294s.743.536.977.961.365.937.388 1.541-.068 1.13-.273 1.574a2.33 2.33 0 0 1-.916 1.04c-.408.249-.907.384-1.497.406zm-1.034-.729l.957-.036c.443-.016.808-.113 1.095-.291s.497-.431.631-.754.192-.718.174-1.178-.105-.84-.263-1.153a1.55 1.55 0 0 0-.672-.7c-.292-.153-.65-.223-1.074-.207l-1.011.038.162 4.281zm9.44-5.407l.88-.033.144 3.824c.015.407-.067.771-.246 1.092s-.439.575-.778.768-.742.295-1.208.313-.872-.057-1.225-.222a2.01 2.01 0 0 1-.834-.708c-.203-.307-.312-.664-.328-1.071l-.144-3.824.877-.032.142 3.753a1.4 1.4 0 0 0 .2.694c.125.2.297.355.515.464s.474.156.767.145a1.58 1.58 0 0 0 .757-.202 1.21 1.21 0 0 0 .476-.501c.108-.208.157-.444.147-.707l-.142-3.753zm6.383 1.29a.83.83 0 0 0-.398-.61c-.225-.141-.504-.206-.837-.193-.239.008-.443.054-.615.136a.96.96 0 0 0-.394.322c-.09.132-.132.281-.125.445.005.139.042.257.11.354s.159.179.268.243.228.114.353.155l.359.095.573.126c.187.038.38.093.578.163s.382.166.554.287a1.46 1.46 0 0 1 .421.456c.111.183.172.406.182.667.012.329-.062.625-.222.886s-.396.473-.712.633-.698.247-1.153.264c-.435.017-.814-.038-1.138-.165s-.579-.312-.769-.559-.3-.548-.332-.898l.88-.032a.9.9 0 0 0 .224.517 1.1 1.1 0 0 0 .474.292 1.86 1.86 0 0 0 .626.076c.248-.009.467-.056.657-.141a1.11 1.11 0 0 0 .447-.346.78.78 0 0 0 .149-.503.61.61 0 0 0-.164-.418c-.101-.106-.236-.192-.405-.258s-.356-.122-.566-.169l-.694-.162c-.47-.109-.846-.282-1.128-.517s-.428-.557-.443-.962a1.45 1.45 0 0 1 .239-.887 1.79 1.79 0 0 1 .716-.61 2.53 2.53 0 0 1 1.043-.249c.394-.015.744.041 1.05.168s.554.308.737.544a1.44 1.44 0 0 1 .304.819l-.846.031zm2.657-.872l-.029-.755 4.5-.169.029.756-1.814.067.191 5.059-.874.033-.191-5.059-1.811.068zm6.685 4.816l-.22-5.814 2.072-.078c.451-.016.827.047 1.13.191s.536.351.694.62.244.579.257.937-.049.672-.189.948-.353.492-.646.652-.662.25-1.113.266l-1.57.059-.029-.755 1.49-.056c.284-.01.513-.06.688-.148s.304-.211.381-.369.112-.347.104-.564-.058-.408-.149-.566-.226-.276-.409-.354-.417-.116-.706-.105l-1.102.041.191 5.062-.877.033zm2.771-2.731l1.536 2.57-.999.037-1.507-2.57.971-.037zm2.713-3.296l.996-.038 1.619 2.587.063-.003 1.418-2.7.997-.037-1.976 3.611.086 2.282-.874.033-.086-2.283-2.243-3.452zm10.746 5.42l-.931.035 1.873-5.892 1.013-.038 2.312 5.736-.931.034-1.823-4.696-.046.002-1.467 4.819zm.07-2.282l3.021-.113.028.738-3.021.113-.028-.738zm5.723-3.757l1.798 4.675.065-.002 1.439-4.796.948-.036-1.872 5.893-1.014.038-2.312-5.736.948-.036zm6.309 5.587l-.22-5.814 3.645-.137.029.756-2.768.103.067 1.771 2.578-.096.028.752-2.578.097.068 1.78 2.802-.105.028.755-3.679.138zm5.816-.218l-.219-5.814 2.072-.077c.45-.017.827.047 1.13.191s.536.35.694.619a1.96 1.96 0 0 1 .258.937c.013.356-.05.672-.189.948s-.353.492-.646.653-.663.249-1.113.266l-1.57.058-.029-.755 1.491-.055c.284-.011.513-.06.688-.148s.303-.212.381-.37.112-.346.104-.564-.058-.408-.15-.566a.82.82 0 0 0-.408-.354c-.181-.08-.417-.115-.706-.104l-1.102.041.191 5.061-.877.033zm2.771-2.73l1.536 2.569-.999.038-1.508-2.571.971-.036zm3.872 2.482l-.931.035 1.873-5.893 1.013-.037 2.312 5.735-.931.035-1.823-4.696-.046.001-1.467 4.82zm.07-2.283l3.021-.113.028.738-3.021.113-.028-.738zm9.547-2.06c-.061-.17-.141-.321-.239-.454a1.42 1.42 0 0 0-.339-.34 1.39 1.39 0 0 0-.443-.208 1.76 1.76 0 0 0-.534-.057c-.327.013-.619.108-.876.286a1.72 1.72 0 0 0-.597.764c-.139.33-.2.729-.182 1.198s.11.867.275 1.187.385.559.658.717a1.67 1.67 0 0 0 .921.219c.316-.012.589-.087.819-.224a1.34 1.34 0 0 0 .527-.566c.122-.241.177-.522.165-.841l.229.034-1.664.062-.027-.724 2.285-.086.025.662c.018.488-.07.916-.264 1.283a2.12 2.12 0 0 1-.826.861c-.356.209-.769.322-1.238.34-.527.019-.993-.085-1.4-.312s-.726-.559-.964-.996-.369-.964-.392-1.577c-.018-.464.031-.883.146-1.257a2.7 2.7 0 0 1 .506-.96 2.37 2.37 0 0 1 .804-.624c.313-.15.657-.232 1.034-.246.314-.012.608.024.883.106a2.36 2.36 0 0 1 .741.368c.221.162.405.358.554.587s.253.483.313.765l-.9.033zm3.203 3.864l-.22-5.814 3.646-.137.028.755-2.768.104.067 1.771 2.578-.096.028.752-2.577.097.067 1.78 2.802-.105.028.755-3.679.138z" fill="#8babe1"/><path d="M686 343V221.835l-1.151.177-21.5 3.293c-21.503 3.294-64.434 9.869-107.349 9.869-21.455 0-42.917-1.643-64.424-3.29l-.019-.002c-21.487-1.646-43.019-3.295-64.557-3.295-43.076 0-86.139 6.597-129.113 13.18l-.038.006c-43.017 6.589-85.922 13.159-128.811 11.516-42.894-1.642-85.809-11.501-107.314-16.443L39 231.625V343h647z" fill="url(#A)" fill-opacity=".05" stroke="#1757c2" stroke-width="2"/></g><path d="M218.009 136.295l-4.219 15.674h-1.381l4.219-15.674h1.381zm10.992.41a4.69 4.69 0 0 1 1.611.306c.537.201 1.027.533 1.47.998s.799 1.097 1.068 1.898.402 1.8.402 3.011c0 1.163-.11 2.196-.332 3.1s-.533 1.657-.946 2.275-.908 1.087-1.496 1.407-1.244.479-1.981.479-1.387-.145-1.963-.435-1.039-.701-1.406-1.221-.594-1.131-.697-1.821h1.56c.141.601.42 1.097.837 1.489.422.388.978.582 1.669.582 1.01 0 1.807-.441 2.39-1.323s.882-2.129.882-3.74h-.102a4 4 0 0 1-.85.927c-.328.26-.692.46-1.093.601s-.827.211-1.278.211c-.75 0-1.439-.186-2.065-.556s-1.121-.889-1.496-1.541-.556-1.406-.556-2.25c0-.809.179-1.549.537-2.218s.869-1.201 1.521-1.598 1.428-.59 2.314-.581zm0 1.406a2.69 2.69 0 0 0-1.451.402 2.95 2.95 0 0 0-1.016 1.081c-.247.451-.371.954-.371 1.508 0 .546.119 1.042.358 1.49.243.443.573.796.991 1.061s.901.39 1.438.39a2.71 2.71 0 0 0 1.131-.237 2.93 2.93 0 0 0 .915-.658 3.22 3.22 0 0 0 .62-.953 2.88 2.88 0 0 0 .223-1.118c0-.52-.123-1.006-.37-1.458a2.94 2.94 0 0 0-1.01-1.093c-.427-.277-.912-.415-1.458-.415zm11.156 12.068c-.75 0-1.425-.149-2.026-.447s-1.083-.708-1.445-1.228-.56-1.112-.594-1.777h1.534c.059.593.328 1.083.805 1.47s1.057.576 1.726.576c.537 0 1.014-.126 1.432-.377a2.67 2.67 0 0 0 .991-1.036c.242-.443.364-.944.364-1.502 0-.571-.126-1.08-.377-1.528a2.77 2.77 0 0 0-1.023-1.067c-.435-.26-.931-.392-1.489-.397-.401-.004-.812.058-1.234.186s-.769.283-1.042.479l-1.483-.179.793-6.443h6.801v1.406h-5.472l-.46 3.861h.077c.268-.213.605-.39 1.01-.53s.826-.211 1.265-.211c.802 0 1.515.191 2.142.575s1.125.899 1.483 1.56.543 1.414.543 2.262c0 .836-.188 1.581-.563 2.238a4.1 4.1 0 0 1-1.534 1.546c-.652.375-1.393.563-2.224.563zm11.13 0c-.963 0-1.783-.262-2.461-.786s-1.195-1.294-1.553-2.295c-.358-1.006-.537-2.22-.537-3.643 0-1.415.179-2.623.537-3.625s.882-1.772 1.56-2.301 1.5-.799 2.454-.799 1.771.266 2.448.799 1.202 1.296 1.56 2.301.543 2.21.543 3.625c0 1.423-.179 2.637-.537 3.643-.358 1.001-.875 1.766-1.553 2.295s-1.498.786-2.461.786zm0-1.406c.955 0 1.696-.461 2.225-1.381s.792-2.233.792-3.937c0-1.134-.121-2.099-.364-2.896s-.584-1.404-1.036-1.822-.986-.626-1.617-.626c-.946 0-1.685.466-2.218 1.4s-.799 2.243-.799 3.944c0 1.133.119 2.096.358 2.889s.582 1.395 1.029 1.809a2.33 2.33 0 0 0 1.63.62z" fill="#5d6598"/><path d="M88 130c0 13.255-10.745 24-24 24s-24-10.745-24-24 10.745-24 24-24 24 10.745 24 24z" fill="#f4fbf7"/><g fill="#20af5d"><path fill-rule="evenodd" d="M64 107c-12.702 0-23 10.297-23 23s10.298 23 23 23 23-10.297 23-23-10.297-23-23-23zm-25 23c0-13.807 11.193-25 25-25s25 11.193 25 25-11.193 25-25 25-25-11.193-25-25z"/><path d="M57.585 140H55l7.477-20.364h2.545L72.5 140h-2.585l-6.085-17.142h-.159L57.585 140zm.955-7.954h10.42v2.187H58.54v-2.187zm63.143 18.511c-2.731 0-5.144-.484-7.238-1.452-2.082-.981-3.706-2.327-4.873-4.037-1.166-1.723-1.743-3.685-1.73-5.886-.013-1.724.325-3.315 1.015-4.773.689-1.472 1.63-2.698 2.823-3.679 1.207-.994 2.552-1.624 4.037-1.889v-.239c-1.949-.504-3.5-1.597-4.653-3.281-1.153-1.697-1.724-3.626-1.71-5.787-.014-2.068.51-3.918 1.571-5.548s2.519-2.917 4.375-3.858c1.869-.941 3.997-1.412 6.383-1.412 2.36 0 4.468.471 6.324 1.412s3.314 2.227 4.375 3.858c1.074 1.63 1.618 3.48 1.631 5.548-.013 2.161-.603 4.09-1.77 5.787-1.154 1.684-2.685 2.777-4.594 3.281v.239a8.39 8.39 0 0 1 3.977 1.889c1.18.981 2.122 2.207 2.824 3.679.703 1.458 1.061 3.049 1.074 4.773-.013 2.201-.61 4.163-1.79 5.886-1.166 1.71-2.79 3.056-4.872 4.037-2.068.968-4.461 1.452-7.179 1.452zm0-4.375c1.843 0 3.434-.298 4.773-.895s2.373-1.439 3.102-2.526 1.101-2.359 1.114-3.818c-.013-1.538-.411-2.897-1.193-4.077s-1.85-2.107-3.202-2.784c-1.339-.676-2.87-1.014-4.594-1.014-1.737 0-3.288.338-4.653 1.014-1.352.677-2.42 1.605-3.202 2.784-.769 1.18-1.147 2.539-1.133 4.077-.014 1.459.338 2.731 1.054 3.818.729 1.087 1.769 1.929 3.122 2.526s2.956.895 4.812.895zm0-19.33c1.459 0 2.751-.291 3.878-.875 1.14-.583 2.035-1.398 2.685-2.446s.981-2.273.994-3.679c-.013-1.379-.338-2.578-.974-3.599-.637-1.034-1.518-1.83-2.645-2.387-1.127-.57-2.44-.855-3.938-.855-1.524 0-2.857.285-3.997.855-1.14.557-2.022 1.353-2.645 2.387-.623 1.021-.928 2.22-.915 3.599-.013 1.406.299 2.632.935 3.679.65 1.048 1.545 1.863 2.685 2.446s2.452.875 3.937.875zm34.19 23.705c-2.333 0-4.435-.464-6.304-1.392s-3.368-2.201-4.494-3.818-1.744-3.461-1.85-5.529h4.773c.185 1.843 1.021 3.368 2.506 4.574 1.498 1.193 3.287 1.79 5.369 1.79 1.67 0 3.155-.391 4.454-1.173 1.313-.783 2.34-1.857 3.083-3.222.755-1.379 1.133-2.937 1.133-4.673 0-1.777-.391-3.361-1.173-4.753-.769-1.406-1.83-2.513-3.182-3.321s-2.897-1.22-4.633-1.233c-1.247-.013-2.526.179-3.838.577-1.313.384-2.393.881-3.242 1.491l-4.613-.557 2.465-20.045h21.16v4.375h-17.023l-1.432 12.011h.239c.835-.663 1.882-1.213 3.142-1.65a11.9 11.9 0 0 1 3.937-.657c2.493 0 4.713.597 6.662 1.79a12.5 12.5 0 0 1 4.614 4.852c1.127 2.055 1.69 4.402 1.69 7.04 0 2.599-.583 4.919-1.75 6.96-1.153 2.029-2.744 3.633-4.773 4.813-2.028 1.166-4.335 1.75-6.92 1.75zm34.627 0c-2.996 0-5.548-.816-7.656-2.446-2.108-1.644-3.719-4.024-4.833-7.139-1.113-3.129-1.67-6.908-1.67-11.336 0-4.401.557-8.16 1.67-11.275 1.127-3.129 2.745-5.515 4.853-7.159 2.121-1.657 4.666-2.486 7.636-2.486s5.509.829 7.616 2.486c2.122 1.644 3.739 4.03 4.853 7.159 1.127 3.115 1.69 6.874 1.69 11.275 0 4.428-.557 8.207-1.67 11.336-1.114 3.115-2.725 5.495-4.833 7.139-2.108 1.63-4.66 2.446-7.656 2.446zm0-4.375c2.97 0 5.277-1.432 6.92-4.296s2.466-6.947 2.466-12.25c0-3.526-.377-6.529-1.133-9.008-.743-2.479-1.816-4.369-3.222-5.668-1.392-1.299-3.069-1.949-5.031-1.949-2.943 0-5.243 1.452-6.901 4.355-1.657 2.891-2.485 6.981-2.485 12.27 0 3.527.371 6.523 1.113 8.989s1.81 4.342 3.202 5.628c1.405 1.286 3.096 1.929 5.071 1.929z"/></g><path d="M41.761 45.455h2.102l4.943 12.074h.17l4.943-12.074h2.102V60h-1.648V48.949h-.142L49.688 60h-1.591l-4.546-11.051h-.142V60h-1.648V45.455zm20.776 14.801c-.691 0-1.319-.13-1.882-.391a3.23 3.23 0 0 1-1.342-1.143c-.331-.502-.497-1.108-.497-1.818 0-.625.123-1.132.369-1.52a2.64 2.64 0 0 1 .987-.923 5.19 5.19 0 0 1 1.364-.497l1.513-.27 1.612-.192c.417-.047.72-.125.909-.234s.291-.298.291-.568v-.057c0-.701-.192-1.245-.575-1.634s-.954-.582-1.726-.582c-.8 0-1.428.175-1.882.526s-.774.724-.959 1.122l-1.591-.568c.284-.663.663-1.179 1.136-1.548s.999-.635 1.563-.781 1.127-.227 1.676-.227c.35 0 .753.043 1.207.128s.902.249 1.328.504.788.641 1.072 1.158.426 1.207.426 2.074V60H65.86v-1.477h-.085c-.114.237-.303.49-.568.76s-.618.5-1.058.689-.978.284-1.612.284zm.256-1.506c.663 0 1.222-.13 1.676-.391s.805-.597 1.037-1.008a2.57 2.57 0 0 0 .355-1.3v-1.534c-.071.085-.227.163-.469.234a7.04 7.04 0 0 1-.824.178l-.902.128-.703.085c-.436.057-.843.149-1.222.277s-.677.31-.909.561-.341.582-.341 1.008c0 .582.215 1.023.646 1.321s.987.44 1.655.44zm9.48-5.312V60h-1.676V49.091h1.619v1.705h.142c.256-.554.644-.999 1.165-1.335s1.193-.511 2.017-.511c.739 0 1.385.151 1.939.454s.985.753 1.293 1.364.462 1.373.462 2.301V60h-1.676v-6.818c0-.857-.222-1.525-.668-2.003s-1.056-.724-1.832-.724c-.535 0-1.013.116-1.435.348a2.49 2.49 0 0 0-.987 1.016c-.241.445-.362.985-.362 1.619zm13.233 6.818c-.691 0-1.319-.13-1.882-.391a3.23 3.23 0 0 1-1.342-1.143c-.331-.502-.497-1.108-.497-1.818 0-.625.123-1.132.369-1.52a2.64 2.64 0 0 1 .987-.923 5.19 5.19 0 0 1 1.364-.497l1.513-.27 1.612-.192c.417-.047.72-.125.909-.234s.291-.298.291-.568v-.057c0-.701-.192-1.245-.575-1.634s-.954-.582-1.726-.582c-.8 0-1.428.175-1.882.526s-.774.724-.959 1.122l-1.591-.568c.284-.663.663-1.179 1.136-1.548a4.26 4.26 0 0 1 1.563-.781 6.51 6.51 0 0 1 1.676-.227c.35 0 .753.043 1.207.128s.902.249 1.328.504.788.641 1.072 1.158.426 1.207.426 2.074V60H88.83v-1.477h-.085c-.114.237-.303.49-.568.76s-.618.5-1.058.689-.978.284-1.612.284zm.256-1.506c.663 0 1.222-.13 1.676-.391s.805-.597 1.037-1.008a2.57 2.57 0 0 0 .355-1.3v-1.534c-.071.085-.227.163-.469.234a7.91 7.91 0 0 1-.824.178l-.902.128-.703.085c-.436.057-.843.149-1.222.277s-.677.31-.909.561-.341.582-.341 1.008c0 .582.215 1.023.646 1.321s.987.44 1.655.44zm12.207 5.568c-.81 0-1.506-.104-2.088-.312s-1.068-.474-1.456-.81a4.43 4.43 0 0 1-.916-1.065l1.335-.937a10.47 10.47 0 0 0 .575.682c.232.256.549.485.952.675s.94.291 1.598.291c.881 0 1.607-.213 2.18-.639s.86-1.094.86-2.003v-2.216h-.143a9.09 9.09 0 0 1-.525.739c-.227.294-.545.547-.966.774s-.98.334-1.69.334c-.881 0-1.671-.208-2.372-.625s-1.248-1.023-1.655-1.818-.604-1.761-.604-2.898c0-1.117.197-2.09.59-2.919s.94-1.477 1.641-1.932 1.51-.689 2.429-.689c.71 0 1.274.118 1.69.355s.744.497.966.795l.526.724h.17v-1.733h1.62v11.222c0 .938-.213 1.7-.64 2.287-.421.592-.989 1.025-1.704 1.3a6.54 6.54 0 0 1-2.372.419zm-.057-5.994c.672 0 1.241-.154 1.705-.462s.817-.751 1.058-1.328.362-1.269.362-2.074c0-.786-.118-1.48-.355-2.081s-.587-1.072-1.051-1.413-1.037-.511-1.719-.511c-.71 0-1.302.18-1.776.54s-.822.843-1.058 1.449-.348 1.278-.348 2.017c0 .758.118 1.428.355 2.01s.597 1.032 1.065 1.364 1.061.49 1.761.49zm12.415 1.903c-1.051 0-1.958-.232-2.72-.696a4.67 4.67 0 0 1-1.755-1.96c-.407-.843-.611-1.823-.611-2.94s.204-2.102.611-2.955.985-1.525 1.719-2.003c.739-.483 1.6-.724 2.585-.724.568 0 1.13.095 1.683.284a4.17 4.17 0 0 1 1.513.923c.454.426.817.98 1.087 1.676s.405 1.553.405 2.571v.71h-8.409v-1.449h6.704c0-.616-.123-1.165-.369-1.648a2.81 2.81 0 0 0-1.037-1.143c-.45-.279-.971-.419-1.577-.419-.667 0-1.245.166-1.733.497s-.854.753-1.115 1.278a3.76 3.76 0 0 0-.39 1.69v.966c0 .824.142 1.522.426 2.095.289.568.689 1.002 1.2 1.3s1.106.44 1.783.44a3.63 3.63 0 0 0 1.193-.185 2.55 2.55 0 0 0 .93-.568c.26-.251.462-.573.604-.952l1.619.455a3.59 3.59 0 0 1-.859 1.449c-.403.412-.9.734-1.492.966s-1.257.341-1.995.341zm11.186 0c-.909 0-1.712-.23-2.408-.689s-1.24-1.117-1.633-1.96-.59-1.849-.59-3.004c0-1.146.197-2.14.59-2.983s.939-1.494 1.64-1.953 1.511-.689 2.429-.689c.71 0 1.272.118 1.683.355.417.232.734.497.952.795l.519.724h.142v-5.369h1.676V60h-1.62v-1.676h-.198a11.15 11.15 0 0 1-.526.753c-.227.303-.552.566-.973.803s-.982.348-1.683.348zm.227-1.506c.672 0 1.241-.175 1.705-.526s.816-.845 1.058-1.47.362-1.357.362-2.18c0-.814-.118-1.527-.355-2.138s-.587-1.094-1.051-1.435-1.037-.518-1.719-.518c-.71 0-1.302.182-1.776.547-.468.36-.821.85-1.058 1.47s-.348 1.307-.348 2.074c0 .777.119 1.482.355 2.116.242.63.597 1.132 1.066 1.506s1.06.554 1.761.554zm22.621-9.631L140.327 60h-1.705l-4.034-10.909h1.818l3.012 8.693h.113l3.012-8.693h1.818zm6.395 11.136c-1.051 0-1.957-.232-2.72-.696-.757-.469-1.342-1.122-1.754-1.96s-.611-1.823-.611-2.94.204-2.102.611-2.955.985-1.525 1.719-2.003 1.6-.724 2.585-.724a5.17 5.17 0 0 1 1.683.284 4.17 4.17 0 0 1 1.513.923c.455.426.817.98 1.087 1.676s.404 1.553.404 2.571v.71h-8.409v-1.449h6.705c0-.616-.123-1.165-.369-1.648a2.79 2.79 0 0 0-1.037-1.143c-.445-.279-.971-.419-1.577-.419-.668 0-1.245.166-1.733.497a3.26 3.26 0 0 0-1.115 1.278 3.76 3.76 0 0 0-.391 1.69v.966c0 .824.142 1.522.426 2.095.289.568.689 1.002 1.201 1.3s1.105.44 1.782.44c.441 0 .838-.062 1.194-.185s.67-.317.93-.568.462-.573.604-.952l1.619.455a3.59 3.59 0 0 1-.859 1.449c-.403.412-.9.734-1.492.966s-1.257.341-1.996.341zm8.743-6.79V60h-1.676V49.091h1.619v1.705h.143c.255-.554.643-.999 1.164-1.335s1.193-.511 2.017-.511c.739 0 1.385.151 1.939.454s.985.753 1.293 1.364.462 1.373.462 2.301V60h-1.677v-6.818c0-.857-.222-1.525-.667-2.003s-1.056-.724-1.833-.724a2.92 2.92 0 0 0-1.434.348c-.417.232-.746.571-.987 1.016s-.363.985-.363 1.619zm14.143 6.79c-.909 0-1.712-.23-2.408-.689s-1.241-1.117-1.634-1.96-.589-1.849-.589-3.004c0-1.146.197-2.14.589-2.983s.94-1.494 1.641-1.953 1.511-.689 2.429-.689c.71 0 1.271.118 1.683.355s.734.497.952.795l.519.724h.142v-5.369h1.676V60h-1.62v-1.676h-.198a11.15 11.15 0 0 1-.526.753c-.227.303-.552.566-.973.803s-.983.348-1.683.348zm.227-1.506c.672 0 1.24-.175 1.705-.526s.816-.845 1.058-1.47.362-1.357.362-2.18c0-.814-.118-1.527-.355-2.138s-.587-1.094-1.051-1.435-1.037-.518-1.719-.518c-.71 0-1.302.182-1.776.547-.468.36-.821.85-1.058 1.47s-.348 1.307-.348 2.074c0 .777.119 1.482.355 2.116.242.63.597 1.132 1.066 1.506s1.06.554 1.761.554zm12.507 1.506c-.985 0-1.849-.234-2.592-.703s-1.317-1.124-1.733-1.967-.618-1.828-.618-2.955c0-1.136.206-2.128.618-2.976s.994-1.506 1.733-1.974 1.607-.703 2.592-.703 1.847.234 2.585.703c.744.469 1.321 1.127 1.733 1.974s.625 1.84.625 2.976c0 1.127-.208 2.112-.625 2.955s-.989 1.499-1.733 1.967c-.738.469-1.6.703-2.585.703zm0-1.506c.748 0 1.364-.192 1.847-.575a3.39 3.39 0 0 0 1.072-1.513c.232-.625.348-1.302.348-2.031s-.116-1.409-.348-2.038-.589-1.139-1.072-1.527-1.099-.582-1.847-.582-1.364.194-1.847.582-.84.897-1.072 1.527a5.85 5.85 0 0 0-.348 2.038c0 .729.116 1.406.348 2.031s.59 1.129 1.072 1.513 1.099.575 1.847.575zm7.502 1.28V49.091h1.619v1.648h.114c.199-.54.559-.978 1.079-1.314s1.108-.504 1.762-.504l.461.007.419.021v1.704a4.92 4.92 0 0 0-.39-.064c-.199-.033-.41-.05-.632-.05-.531 0-1.004.111-1.421.334a2.52 2.52 0 0 0-.98.909 2.45 2.45 0 0 0-.355 1.314V60h-1.676zm284.697 55.129h-1.551c-.06-.331-.171-.623-.333-.875s-.361-.465-.597-.641-.498-.308-.79-.398a3.1 3.1 0 0 0-.92-.134c-.586 0-1.112.147-1.576.442s-.825.728-1.094 1.298-.397 1.266-.397 2.088c0 .829.132 1.528.397 2.098s.635 1.001 1.099 1.293.986.437 1.566.437a3.18 3.18 0 0 0 .915-.129 2.64 2.64 0 0 0 .791-.393c.235-.172.434-.383.596-.631s.28-.54.343-.865l1.551.005c-.083.5-.243.961-.482 1.382s-.539.779-.91 1.084-.789.535-1.263.701-.991.248-1.551.248c-.881 0-1.667-.209-2.356-.626s-1.233-1.023-1.631-1.805-.592-1.715-.592-2.799.199-2.02.597-2.799.941-1.382 1.631-1.8 1.473-.631 2.351-.631c.541 0 1.044.078 1.512.234s.893.377 1.267.676a3.77 3.77 0 0 1 .93 1.084 4.18 4.18 0 0 1 .497 1.456zm1.719 6.871v-7.636h1.437v1.213h.08a1.85 1.85 0 0 1 .735-.97 2.11 2.11 0 0 1 1.203-.358l.329.01.303.025v1.422a2.61 2.61 0 0 0-.318-.055 3.07 3.07 0 0 0-.458-.035 1.94 1.94 0 0 0-.939.224c-.272.146-.488.35-.647.612a1.66 1.66 0 0 0-.238.885V122h-1.487zm5.373 0v-7.636h1.487V122h-1.487zm.751-8.815c-.259 0-.481-.086-.666-.258a.84.84 0 0 1-.274-.627c0-.245.091-.454.274-.626a.93.93 0 0 1 .666-.263c.258 0 .479.087.661.263a.82.82 0 0 1 .279.626c0 .242-.093.451-.279.627a.93.93 0 0 1-.661.258zm6.3 1.179v1.193h-4.171v-1.193h4.171zm-3.052-1.83h1.486v7.224c0 .288.043.505.129.651s.198.24.334.293.29.075.452.075c.119 0 .224-.008.313-.025l.209-.04.268 1.228a2.47 2.47 0 0 1-.367.1c-.16.036-.358.056-.597.059-.391.007-.756-.063-1.094-.208a1.88 1.88 0 0 1-.82-.677c-.209-.304-.313-.687-.313-1.148v-7.532zm4.697 9.466v-7.636h1.486V122h-1.486zm.75-8.815c-.258 0-.48-.086-.666-.258a.82.82 0 0 1-.273-.627.83.83 0 0 1 .273-.626c.186-.176.408-.263.666-.263a.92.92 0 0 1 .662.263c.185.172.278.381.278.626s-.093.451-.278.627a.93.93 0 0 1-.662.258zm5.953 8.969c-.74 0-1.376-.167-1.91-.502s-.938-.804-1.223-1.397-.427-1.273-.427-2.038c0-.776.146-1.46.437-2.054a3.36 3.36 0 0 1 1.233-1.397c.531-.334 1.155-.502 1.875-.502.58 0 1.097.108 1.551.323a2.78 2.78 0 0 1 1.098.895c.282.385.45.834.503 1.348h-1.447c-.08-.358-.262-.667-.547-.925s-.66-.388-1.134-.388c-.414 0-.777.109-1.088.328s-.549.524-.721.925-.259.868-.259 1.412c0 .557.085 1.037.254 1.442s.408.717.716.939.678.333 1.098.333c.282 0 .537-.051.766-.154a1.57 1.57 0 0 0 .582-.452c.159-.196.27-.431.333-.706h1.447c-.053.494-.214.934-.483 1.322a2.78 2.78 0 0 1-1.078.915c-.45.222-.973.333-1.576.333zm6.949.015c-.484 0-.922-.089-1.313-.268a2.19 2.19 0 0 1-.93-.791c-.229-.345-.338-.767-.338-1.268 0-.431.083-.785.249-1.064a1.84 1.84 0 0 1 .671-.661 3.53 3.53 0 0 1 .945-.368c.348-.083.702-.146 1.064-.189l1.113-.129c.285-.036.492-.094.622-.174s.194-.209.194-.388v-.034c0-.435-.123-.771-.368-1.01s-.604-.358-1.084-.358c-.501 0-.895.111-1.183.333s-.483.463-.592.731l-1.397-.318c.166-.464.408-.838.726-1.124s.691-.497 1.108-.626a4.32 4.32 0 0 1 1.318-.199c.305 0 .628.037.969.11a2.82 2.82 0 0 1 .965.387c.302.189.548.459.741.811s.288.8.288 1.357V122h-1.452v-1.044h-.059a2.13 2.13 0 0 1-.433.567c-.192.185-.439.339-.741.462s-.663.184-1.083.184zm.323-1.193c.411 0 .762-.081 1.054-.244s.518-.374.671-.636a1.65 1.65 0 0 0 .234-.85v-.985c-.054.053-.156.103-.309.15a4.79 4.79 0 0 1-.512.114l-.562.084-.457.06a3.66 3.66 0 0 0-.79.184c-.236.086-.425.21-.567.373s-.209.371-.209.636c0 .368.136.647.408.835s.618.279 1.039.279zm6.911-9.158V122h-1.486v-10.182h1.486z" fill="#131520"/><path d="M557.979 122v-1.114l3.446-3.569.91-1.019c.241-.295.422-.575.541-.841a2.02 2.02 0 0 0 .179-.845c0-.338-.079-.63-.238-.875s-.376-.439-.652-.572a2.08 2.08 0 0 0-.929-.203c-.365 0-.683.074-.955.223s-.48.36-.626.632-.219.59-.219.954h-1.467c0-.619.143-1.161.428-1.625s.676-.824 1.173-1.079 1.063-.388 1.696-.388c.639 0 1.203.128 1.69.383s.873.596 1.148 1.034.413.925.413 1.471c0 .378-.071.748-.214 1.109s-.383.764-.731 1.208-.831.976-1.451 1.606l-2.024 2.118v.075h4.584V122h-6.702zm12.311 0v-7.636h1.437v1.213h.08a1.85 1.85 0 0 1 .735-.97c.355-.238.756-.358 1.204-.358l.328.01.303.025v1.422a2.61 2.61 0 0 0-.318-.055 3.07 3.07 0 0 0-.458-.035 1.94 1.94 0 0 0-.939.224 1.67 1.67 0 0 0-.647.612c-.159.258-.238.553-.238.885V122h-1.487zm5.373 0v-7.636h1.487V122h-1.487zm.751-8.815c-.258 0-.481-.086-.666-.258s-.274-.385-.274-.627a.83.83 0 0 1 .274-.626c.185-.176.408-.263.666-.263s.479.087.661.263a.82.82 0 0 1 .279.626c0 .242-.093.451-.279.627s-.402.258-.661.258zm8.458 3.043l-1.347.239c-.057-.173-.146-.337-.269-.493a1.33 1.33 0 0 0-.487-.382c-.205-.1-.462-.15-.771-.15-.421 0-.772.095-1.054.284s-.422.426-.422.721c0 .255.094.46.283.616s.494.284.915.383l1.213.278c.703.163 1.226.413 1.571.751s.517.777.517 1.318c0 .457-.132.865-.398 1.223s-.628.633-1.098.835-1.01.303-1.626.303c-.855 0-1.553-.182-2.093-.547s-.872-.89-.994-1.566l1.436-.219c.09.375.274.658.552.851s.642.283 1.089.283c.487 0 .877-.101 1.168-.303s.438-.456.438-.751a.78.78 0 0 0-.269-.602c-.175-.162-.445-.285-.81-.367l-1.293-.284c-.712-.162-1.239-.421-1.581-.775s-.507-.804-.507-1.348c0-.45.126-.845.378-1.183s.6-.602 1.044-.79.953-.289 1.526-.289c.826 0 1.475.179 1.949.537s.788.83.94 1.427zm3.151 3.182l-.01-1.815h.258l3.043-3.231h1.78l-3.47 3.679h-.234l-1.367 1.367zm-1.367 2.59v-10.182h1.486V122h-1.486zm4.822 0l-2.734-3.629 1.024-1.039 3.535 4.668h-1.825zm8.693-5.772l-1.347.239c-.057-.173-.146-.337-.269-.493a1.33 1.33 0 0 0-.487-.382c-.206-.1-.463-.15-.771-.15-.421 0-.772.095-1.054.284s-.422.426-.422.721c0 .255.094.46.283.616s.494.284.915.383l1.213.278c.703.163 1.226.413 1.571.751s.517.777.517 1.318c0 .457-.133.865-.398 1.223s-.628.633-1.098.835-1.01.303-1.626.303c-.855 0-1.553-.182-2.093-.547s-.872-.89-.995-1.566l1.437-.219c.09.375.274.658.552.851s.641.283 1.089.283c.487 0 .877-.101 1.168-.303s.438-.456.438-.751a.78.78 0 0 0-.269-.602c-.175-.162-.446-.285-.81-.367l-1.293-.284c-.712-.162-1.239-.421-1.581-.775s-.507-.804-.507-1.348c0-.45.126-.845.378-1.183s.6-.602 1.044-.79.953-.289 1.526-.289c.826 0 1.475.179 1.949.537a2.5 2.5 0 0 1 .94 1.427z" fill="#5d6598"/><circle cx="445" cy="117" r="12" fill="#e02424"/><g fill="#fff"><use xlink:href="#C"/><use xlink:href="#C" x="3.975"/><use xlink:href="#C" x="7.95"/><use xlink:href="#C" x="11.925"/></g><path d="M470.119 143.818h1.864l3.241 7.915h.12l3.241-7.915h1.865V154h-1.462v-7.368h-.095l-3.002 7.353h-1.213l-3.003-7.358h-.095V154h-1.461v-10.182zm15.736 10.336c-.752 0-1.4-.161-1.944-.482s-.958-.781-1.253-1.367-.437-1.281-.437-2.073c0-.783.146-1.472.437-2.069s.706-1.062 1.233-1.397 1.15-.502 1.86-.502c.43 0 .848.071 1.252.214a3.03 3.03 0 0 1 1.089.671c.322.305.575.701.761 1.188s.278 1.073.278 1.765v.527h-6.07v-1.113h4.614c0-.391-.08-.738-.239-1.039a1.8 1.8 0 0 0-.671-.721c-.285-.176-.62-.264-1.005-.264-.417 0-.782.103-1.093.308a2.07 2.07 0 0 0-.716.796c-.166.325-.249.678-.249 1.059v.87c0 .51.09.944.269 1.302s.436.632.76.821.705.278 1.139.278c.282 0 .538-.04.77-.119s.433-.206.602-.368a1.6 1.6 0 0 0 .388-.602l1.407.254c-.113.414-.315.777-.607 1.089s-.651.548-1.089.721-.929.253-1.486.253zm7.784-.005c-.616 0-1.166-.157-1.65-.472s-.859-.771-1.134-1.357-.408-1.298-.408-2.123.138-1.532.413-2.118.66-1.036 1.144-1.347 1.032-.468 1.645-.468c.474 0 .855.08 1.144.239s.517.338.676.547a4.67 4.67 0 0 1 .378.552h.089v-3.784h1.487V154h-1.452v-1.188h-.124a4.02 4.02 0 0 1-.388.557c-.166.208-.395.391-.686.546s-.67.234-1.134.234zm.328-1.268c.428 0 .789-.112 1.084-.338s.524-.545.676-.949.234-.875.234-1.412c0-.53-.076-.995-.229-1.392a2.04 2.04 0 0 0-.671-.93c-.295-.222-.659-.333-1.094-.333-.447 0-.82.116-1.118.348s-.524.549-.676.95-.224.853-.224 1.357c0 .51.076.969.229 1.377s.377.731.676.969.673.353 1.113.353zm5.577 1.119v-7.636h1.487V154h-1.487zm.751-8.815c-.259 0-.481-.086-.666-.258a.84.84 0 0 1-.274-.627c0-.245.091-.454.274-.626a.93.93 0 0 1 .666-.263c.258 0 .479.087.661.263a.82.82 0 0 1 .279.626c0 .242-.093.451-.279.627a.93.93 0 0 1-.661.258zm7.573 5.648v-4.469h1.491V154h-1.461v-1.322h-.08a2.38 2.38 0 0 1-.845 1.019c-.384.268-.863.402-1.437.402-.49 0-.924-.107-1.302-.323s-.67-.542-.885-.969-.318-.956-.318-1.586v-4.857h1.486v4.678c0 .52.144.935.433 1.243s.662.462 1.123.462a1.81 1.81 0 0 0 .83-.209c.279-.139.509-.349.691-.631s.277-.64.274-1.074zm3.489 3.167v-7.636h1.427v1.243h.094a1.97 1.97 0 0 1 .781-.985c.361-.238.793-.358 1.297-.358.511 0 .938.12 1.283.358s.605.567.77.985h.08c.182-.408.472-.733.87-.975s.872-.368 1.422-.368c.693 0 1.258.217 1.695.651s.661 1.089.661 1.964V154h-1.486v-4.982c0-.517-.141-.891-.423-1.123s-.618-.348-1.009-.348c-.484 0-.86.149-1.128.447s-.403.675-.403 1.139V154h-1.482v-5.076c0-.414-.129-.747-.387-.999s-.595-.378-1.01-.378c-.281 0-.542.074-.78.224a1.63 1.63 0 0 0-.572.611c-.143.262-.214.565-.214.91V154h-1.486z" fill="#131520"/><path d="M561.42 154.139c-.713 0-1.343-.122-1.889-.368s-.97-.583-1.278-1.014-.461-.921-.458-1.471c-.003-.431.085-.827.264-1.189a2.6 2.6 0 0 1 .741-.909 2.28 2.28 0 0 1 1.044-.468v-.059c-.507-.123-.913-.395-1.218-.816s-.456-.905-.453-1.452c-.003-.52.135-.984.413-1.392a2.88 2.88 0 0 1 1.158-.969c.491-.235 1.049-.353 1.676-.353.62 0 1.173.119 1.66.358s.877.558 1.159.969.424.87.427 1.387c-.003.547-.159 1.031-.467 1.452a2.07 2.07 0 0 1-1.203.816v.059c.381.066.724.222 1.029.468s.553.545.736.909.28.758.283 1.189a2.49 2.49 0 0 1-.467 1.471c-.309.431-.736.769-1.283 1.014s-1.168.368-1.874.368zm0-1.258c.421 0 .785-.069 1.093-.208s.547-.34.716-.592a1.61 1.61 0 0 0 .259-.895c-.003-.355-.096-.668-.278-.94a1.87 1.87 0 0 0-.731-.641c-.309-.156-.662-.234-1.059-.234s-.758.078-1.069.234-.557.37-.736.641-.267.585-.263.94a1.57 1.57 0 0 0 .243.895c.169.252.409.449.721.592s.68.208 1.104.208zm0-4.738c.338 0 .638-.067.9-.203s.467-.325.616-.567.23-.525.234-.85a1.58 1.58 0 0 0-.229-.835c-.146-.239-.35-.423-.611-.552s-.566-.199-.91-.199c-.352 0-.66.066-.925.199a1.44 1.44 0 0 0-.611.552c-.146.238-.218.517-.214.835a1.55 1.55 0 0 0 .835 1.417c.265.136.57.203.915.203zm9.13 5.857v-7.636h1.437v1.213h.079c.14-.411.385-.734.736-.97a2.11 2.11 0 0 1 1.203-.358l.328.01.304.025v1.422a2.61 2.61 0 0 0-.318-.055 3.07 3.07 0 0 0-.458-.035 1.94 1.94 0 0 0-.939.224c-.272.146-.488.35-.647.612s-.238.553-.238.885V154h-1.487zm5.373 0v-7.636h1.487V154h-1.487zm.751-8.815c-.259 0-.481-.086-.666-.258a.84.84 0 0 1-.274-.627c0-.245.091-.454.274-.626a.93.93 0 0 1 .666-.263c.258 0 .479.087.661.263a.82.82 0 0 1 .278.626c0 .242-.092.451-.278.627a.93.93 0 0 1-.661.258zm8.458 3.043l-1.348.239a1.58 1.58 0 0 0-.268-.493 1.33 1.33 0 0 0-.487-.382c-.206-.1-.463-.15-.771-.15-.421 0-.772.095-1.054.284s-.422.426-.422.721c0 .255.094.46.283.616s.494.284.915.383l1.213.278c.702.163 1.226.413 1.571.751s.517.777.517 1.318c0 .457-.133.865-.398 1.223s-.628.633-1.099.835-1.009.303-1.625.303c-.855 0-1.553-.182-2.093-.547a2.31 2.31 0 0 1-.995-1.566l1.437-.219c.09.375.274.658.552.851s.641.283 1.089.283c.487 0 .876-.101 1.168-.303s.438-.456.438-.751a.78.78 0 0 0-.269-.602c-.176-.162-.446-.285-.81-.367l-1.293-.284c-.712-.162-1.239-.421-1.581-.775s-.507-.804-.507-1.348c0-.45.126-.845.378-1.183s.6-.602 1.044-.79.953-.289 1.526-.289c.826 0 1.475.179 1.949.537a2.5 2.5 0 0 1 .94 1.427zm3.15 3.182l-.009-1.815h.258l3.043-3.231h1.78l-3.471 3.679h-.233l-1.368 1.367zm-1.367 2.59v-10.182h1.487V154h-1.487zm4.823 0l-2.735-3.629 1.025-1.039 3.534 4.668h-1.824zm8.693-5.772l-1.348.239a1.6 1.6 0 0 0-.268-.493 1.34 1.34 0 0 0-.487-.382c-.206-.1-.463-.15-.771-.15-.421 0-.772.095-1.054.284s-.423.426-.423.721a.76.76 0 0 0 .284.616c.189.156.494.284.915.383l1.213.278c.702.163 1.226.413 1.571.751s.517.777.517 1.318c0 .457-.133.865-.398 1.223s-.628.633-1.099.835-1.009.303-1.625.303c-.856 0-1.553-.182-2.093-.547a2.31 2.31 0 0 1-.995-1.566l1.437-.219c.089.375.273.658.552.851s.641.283 1.089.283c.487 0 .876-.101 1.168-.303s.437-.456.437-.751a.78.78 0 0 0-.268-.602c-.176-.162-.446-.285-.81-.367l-1.293-.284c-.713-.162-1.24-.421-1.581-.775s-.507-.804-.507-1.348c0-.45.126-.845.378-1.183s.6-.602 1.044-.79.953-.289 1.526-.289c.825 0 1.475.179 1.949.537a2.5 2.5 0 0 1 .94 1.427z" fill="#5d6598"/><circle cx="445" cy="149" r="12" fill="#ff9901"/><g fill="#fff"><use xlink:href="#C" x="3.975" y="32"/><use xlink:href="#C" x="7.95" y="32"/></g><path d="M470.119 186v-10.182h1.536v8.86h4.613V186h-6.149zm10.999.154c-.716 0-1.34-.164-1.874-.492s-.948-.787-1.243-1.377-.442-1.28-.442-2.068c0-.793.147-1.485.442-2.079s.709-1.053 1.243-1.382 1.158-.492 1.874-.492 1.341.164 1.875.492a3.32 3.32 0 0 1 1.242 1.382c.295.594.443 1.286.443 2.079 0 .788-.148 1.478-.443 2.068a3.32 3.32 0 0 1-1.242 1.377c-.534.328-1.159.492-1.875.492zm.005-1.248c.464 0 .849-.122 1.154-.368s.53-.571.676-.979a3.9 3.9 0 0 0 .223-1.347c0-.488-.074-.935-.223-1.343s-.371-.74-.676-.989-.69-.373-1.154-.373-.855.124-1.163.373a2.22 2.22 0 0 0-.681.989c-.146.408-.219.855-.219 1.343s.073.939.219 1.347.376.734.681.979.696.368 1.163.368zM487.76 186l-2.247-7.636h1.536l1.497 5.608h.074l1.502-5.608h1.536l1.492 5.583h.074l1.487-5.583h1.536L494.005 186h-1.517l-1.551-5.513h-.114L489.272 186h-1.512z" fill="#131520"/><path d="M561.842 175.818V186h-1.541v-8.641h-.06l-2.436 1.591v-1.471l2.541-1.661h1.496zM564.597 186v-1.114l3.445-3.569.91-1.019c.242-.295.422-.575.542-.841s.179-.546.179-.845c0-.338-.08-.63-.239-.875s-.376-.439-.651-.572-.585-.203-.93-.203c-.365 0-.683.074-.955.223s-.48.36-.626.632-.219.59-.219.954h-1.466c0-.619.142-1.161.427-1.625a2.9 2.9 0 0 1 1.174-1.079c.497-.259 1.062-.388 1.695-.388.639 0 1.203.128 1.69.383s.873.596 1.149 1.034a2.69 2.69 0 0 1 .412 1.471c0 .378-.071.748-.214 1.109s-.382.764-.73 1.208-.832.976-1.452 1.606l-2.024 2.118v.075h4.584V186h-6.701zm12.31 0v-7.636h1.437v1.213h.08c.139-.411.384-.734.736-.97s.755-.358 1.203-.358l.328.01.303.025v1.422a2.61 2.61 0 0 0-.318-.055 3.07 3.07 0 0 0-.457-.035 1.94 1.94 0 0 0-.94.224 1.66 1.66 0 0 0-.646.612c-.159.258-.239.553-.239.885V186h-1.487zm5.374 0v-7.636h1.486V186h-1.486zm.75-8.815c-.258 0-.48-.086-.666-.258s-.273-.385-.273-.627a.83.83 0 0 1 .273-.626c.186-.176.408-.263.666-.263s.479.087.661.263a.82.82 0 0 1 .279.626c0 .242-.093.451-.279.627s-.402.258-.661.258zm8.458 3.043l-1.347.239a1.58 1.58 0 0 0-.269-.493c-.119-.155-.281-.283-.487-.382s-.462-.15-.77-.15c-.421 0-.773.095-1.054.284s-.423.426-.423.721c0 .255.094.46.283.616s.494.284.915.383l1.213.278c.703.163 1.227.413 1.571.751s.517.777.517 1.318c0 .457-.132.865-.397 1.223s-.628.633-1.099.835-1.009.303-1.626.303c-.855 0-1.553-.182-2.093-.547s-.872-.89-.994-1.566l1.437-.219c.089.375.273.658.551.851s.642.283 1.089.283c.487 0 .877-.101 1.169-.303s.437-.456.437-.751a.78.78 0 0 0-.268-.602c-.176-.162-.446-.285-.811-.367l-1.292-.284c-.713-.162-1.24-.421-1.581-.775s-.507-.804-.507-1.348c0-.45.125-.845.377-1.183s.6-.602 1.044-.79.953-.289 1.527-.289c.825 0 1.475.179 1.949.537a2.5 2.5 0 0 1 .939 1.427zm3.151 3.182l-.01-1.815h.258l3.043-3.231h1.78l-3.47 3.679h-.234l-1.367 1.367zm-1.367 2.59v-10.182h1.486V186h-1.486zm4.822 0l-2.734-3.629 1.024-1.039L599.92 186h-1.825zm8.693-5.772l-1.347.239c-.057-.173-.146-.337-.269-.493s-.281-.283-.487-.382-.462-.15-.771-.15c-.421 0-.772.095-1.054.284s-.422.426-.422.721c0 .255.094.46.283.616s.494.284.915.383l1.213.278c.703.163 1.226.413 1.571.751s.517.777.517 1.318c0 .457-.132.865-.398 1.223s-.628.633-1.098.835-1.01.303-1.626.303c-.855 0-1.553-.182-2.093-.547s-.872-.89-.994-1.566l1.436-.219c.09.375.274.658.552.851s.642.283 1.089.283c.487 0 .877-.101 1.168-.303s.438-.456.438-.751a.78.78 0 0 0-.269-.602c-.175-.162-.445-.285-.81-.367l-1.293-.284c-.712-.162-1.239-.421-1.581-.775s-.507-.804-.507-1.348c0-.45.126-.845.378-1.183s.6-.602 1.044-.79.953-.289 1.527-.289c.825 0 1.474.179 1.948.537s.788.83.94 1.427z" fill="#5d6598"/><circle cx="445" cy="181" r="12" fill="#fdc106"/><use xlink:href="#C" x="5.963" y="64" fill="#fff"/><defs><linearGradient id="A" x1="362.5" y1="223" x2="362.5" y2="351.038" gradientUnits="userSpaceOnUse"><stop stop-color="#1757c2"/><stop offset="1" stop-color="#1757c2" stop-opacity="0"/></linearGradient><clipPath id="B"><path fill="#fff" transform="translate(43 223)" d="M0 0h589v119H0z"/></clipPath><path id="C" d="M439.738 112.824v3.432a10.55 10.55 0 0 1-.054 1.074l-.138 1.11h-1.008l-.138-1.11a10.55 10.55 0 0 1-.054-1.074v-3.432h1.392zm-1.626 7.86a.96.96 0 0 1 .066-.354.91.91 0 0 1 .192-.288c.084-.08.182-.144.294-.192s.232-.072.36-.072a.89.89 0 0 1 .354.072.91.91 0 0 1 .288.192.86.86 0 0 1 .198.288.89.89 0 0 1 .072.354c0 .128-.024.248-.072.36s-.114.202-.198.282a.83.83 0 0 1-.288.186.89.89 0 0 1-.354.072c-.128 0-.248-.024-.36-.072s-.21-.106-.294-.186-.144-.174-.192-.282-.066-.232-.066-.36z"/></defs></svg>