<svg width="24" height="24" viewBox="0 0 24 24" fill="none" xmlns="http://www.w3.org/2000/svg">
<path d="M12.0003 7C13.2273 7 14.2223 7.995 14.2223 9.222C14.2223 10.449 13.2273 11.444 12.0003 11.444C10.7733 11.444 9.77832 10.45 9.77832 9.222C9.77832 7.994 10.7733 7 12.0003 7Z" stroke="#1757C2" stroke-width="1.5" stroke-linecap="round" stroke-linejoin="round"/>
<path d="M20 11.242C20 15.61 16.843 19.704 12.52 20.928C12.182 21.024 11.818 21.024 11.48 20.928C7.157 19.705 4 15.61 4 11.242V7.21399C4 6.40199 4.491 5.66999 5.243 5.36299L10.107 3.37299C11.321 2.87599 12.681 2.87599 13.894 3.37299L18.758 5.36299C19.509 5.66999 20 6.40199 20 7.21399V11.242Z" stroke="#1757C2" stroke-width="1.5" stroke-linecap="round" stroke-linejoin="round"/>
<path d="M16 15C15.884 14.707 15.703 14.445 15.472 14.231C15.081 13.869 14.571 13.667 14.038 13.667C13.149 13.667 10.852 13.667 9.963 13.667C9.43 13.667 8.919 13.869 8.528 14.231C8.297 14.445 8.117 14.707 8 15" stroke="#1757C2" stroke-width="1.5" stroke-linecap="round" stroke-linejoin="round"/>
</svg>
