<svg width="24" height="24" viewBox="0 0 24 24" fill="none" xmlns="http://www.w3.org/2000/svg">
<path fill-rule="evenodd" clip-rule="evenodd" d="M6 15.75C4.21421 15.75 2.75 17.2142 2.75 19C2.75 19.4142 2.41421 19.75 2 19.75C1.58579 19.75 1.25 19.4142 1.25 19C1.25 16.3858 3.38579 14.25 6 14.25H10C12.6142 14.25 14.75 16.3858 14.75 19C14.75 19.4142 14.4142 19.75 14 19.75C13.5858 19.75 13.25 19.4142 13.25 19C13.25 17.2142 11.7858 15.75 10 15.75H6Z" fill="#1757C2"/>
<path fill-rule="evenodd" clip-rule="evenodd" d="M9.97944 6.5402C8.82858 5.48136 7.0173 5.46818 6.04957 6.51036C5.04288 7.59448 5.08984 9.24845 6.14957 10.3897C7.11981 11.4346 8.83888 11.419 9.98963 10.3504C11.0556 9.36058 11.0879 7.6588 9.97944 6.5402ZM4.95038 5.48968C6.57978 3.73495 9.36065 3.9186 11.0103 5.45043C11.0171 5.45673 11.0238 5.46315 11.0303 5.46969C12.7119 7.15125 12.7412 9.84237 11.0103 11.4496C9.36107 12.9811 6.68013 13.1655 5.05038 11.4104C3.5101 9.7516 3.35706 7.20557 4.95038 5.48968Z" fill="#1757C2"/>
<path fill-rule="evenodd" clip-rule="evenodd" d="M15.25 14C15.25 13.5858 15.5858 13.25 16 13.25H19C21.1142 13.25 22.75 14.8858 22.75 17C22.75 17.4142 22.4142 17.75 22 17.75C21.5858 17.75 21.25 17.4142 21.25 17C21.25 15.7142 20.2858 14.75 19 14.75H16C15.5858 14.75 15.25 14.4142 15.25 14Z" fill="#1757C2"/>
<path fill-rule="evenodd" clip-rule="evenodd" d="M18.7836 7.24444C18.0523 6.6003 16.9191 6.64164 16.3304 7.23036C16.3211 7.23966 16.3115 7.24871 16.3017 7.2575C15.6827 7.81463 15.6639 8.92763 16.3575 9.69831C16.9146 10.3173 18.0276 10.3362 18.7983 9.64256C19.4467 9.05904 19.4926 7.96808 18.7836 7.24444ZM15.2837 6.15576C16.4929 4.96268 18.5375 5.0047 19.8017 6.14256C19.8115 6.15135 19.8211 6.1604 19.8304 6.1697C21.1069 7.4462 21.1492 9.54481 19.8017 10.7575C18.5724 11.8639 16.4854 12.0827 15.2426 10.7018C14.1401 9.47677 13.9189 7.40016 15.2837 6.15576Z" fill="#1757C2"/>
</svg>
