<svg width="148" height="354" viewBox="0 0 148 354" fill="none" xmlns="http://www.w3.org/2000/svg">
<path d="M70.4423 220.098C70.3728 220.08 70.3142 220.15 70.3411 220.215C72.0035 224.338 75.1781 229.029 78.075 232.777C81.6898 237.455 85.4325 242.049 89.6263 246.225C96.6804 253.251 105.237 261.703 111.752 270.428C119.231 280.446 122.37 288.948 125.999 300.874C129.884 313.641 129.376 327.323 129.954 340.649L143.964 333.579C144.625 333.246 145.443 333.259 146.027 333.715C146.901 334.396 146.558 335.506 145.807 336.456C145.387 336.987 144.842 337.468 144.309 337.797C138.905 341.133 133.501 344.468 128.099 347.803C127.316 348.286 126.449 348.788 125.537 348.66C124.456 348.508 123.706 347.536 123.078 346.641C119.071 340.916 115.122 335.148 111.235 329.342C111.009 329.004 110.875 328.596 110.937 328.195C111.166 326.722 113.717 326.77 114.877 327.695C118.417 330.515 120.44 335.051 123.171 338.241C123.5 338.624 123.836 339.146 124.162 339.562C124.488 339.978 124.89 340.463 124.885 340.35C124.787 337.692 125.244 331.618 125.319 329.661C125.477 325.595 125.358 321.516 124.974 317.463C124.23 309.588 122.487 301.807 119.828 294.354C114.388 279.103 104.955 266.272 93.7456 254.791C84.1217 244.932 74.7668 235.057 67.2671 223.471C66.1288 221.713 65.4774 219.588 63.9992 218.104C62.7105 216.81 60.8146 215.971 59.2303 214.887C47.1576 206.623 36.8388 196.002 28.4737 184.03C-2.83643 139.22 -7.45598 82.7919 13.0454 32.6072C17.3912 21.9698 22.7903 11.7458 29.2992 2.27041C30.1564 1.02361 31.8513 0.560915 33.1608 1.32357C35.3169 2.5775 33.9265 5.5748 32.4798 7.41389C18.553 25.1172 9.97134 46.3268 6.56137 68.537C-0.62874 115.373 12.8906 172.646 50.4543 204.366C53.7484 207.148 57.5481 209.959 61.2636 212.188C61.3136 212.218 61.3692 212.154 61.3307 212.109C58.8356 209.119 56.9458 197.997 56.2736 195.044C54.8467 188.773 53.8417 182.406 53.2609 176.003C52.1223 163.452 52.6151 150.753 54.768 138.341C57.6115 121.946 71.4847 96.5741 91.8121 104.578C106.018 110.172 115.642 127.45 119.387 141.469C123.33 156.224 124.562 168.7 121.602 183.598C119.421 194.577 114.008 207.79 105.011 214.917C96.3978 221.741 85.1404 224.171 74.5173 221.293C73.4679 221.011 71.7662 220.434 70.4423 220.098ZM69.3781 114.402C61.8955 122.775 58.6915 134.558 57.4074 145.445C55.6119 160.659 56.3579 176.466 59.2086 191.504C61.0003 200.957 62.6863 215.778 74.0929 218.186C82.5487 219.97 91.3113 218.831 98.8426 214.475C110.698 207.617 116.32 194.235 118.343 181.23C119.472 173.966 119.541 166.534 118.769 159.226C117.205 144.43 112.76 127.574 102.156 116.524C93.3222 107.32 79.8163 103.4 70.0958 113.622C69.8529 113.879 69.6132 114.139 69.3781 114.402Z" fill="currentColor"/>
</svg>
