<svg width="3200" height="144" viewBox="0 0 3200 144" fill="none" xmlns="http://www.w3.org/2000/svg">
<g clip-path="url(#clip0)">
<path d="M0 23.4849C17.0463 27.4271 104.191 42.997 261.433 70.1946C320.249 73.3583 380.943 67.4951 416.196 55.2464L538.918 12.602C551.312 8.29369 571.189 5.74451 592.337 5.74451H732.549C815.686 5.74451 892.088 17.2341 931.406 35.6467L970.584 53.9978C983.843 60.2098 1007.73 64.5432 1035.36 65.7514L1166.87 71.5029C1203.39 73.0999 1238.33 67.0982 1245.69 57.967L1265.71 33.0976C1273.61 23.2921 1301.12 15.211 1338.44 11.7369L1449.21 1.42266C1469.98 -0.508009 1493.26 1.67508 1503.9 6.55956L1646.72 72.1079C1661.7 78.9808 1690.39 83.2566 1721.58 83.2566H1881.03C1892.51 83.2566 1903.19 81.7899 1909.42 79.3679L1995.23 45.8859C2022.08 35.4117 2068.25 29.084 2117.81 29.084H2303.64" stroke="#E8EEF9" stroke-width="0.599902"/>
<path d="M0 26.1693C12.5662 29.2722 100.756 44.6652 264.569 72.3482C323.829 75.5003 384.852 69.4908 419.791 57.0705L539.769 14.7113C552.117 10.3086 572.246 7.69579 593.694 7.71699L730.788 7.77479C814.419 7.84223 891.006 19.5361 929.786 38.1414L969.194 57.2535C982.262 63.5195 1006.11 67.9185 1033.83 69.1708L1167.33 75.2478C1203.64 76.8817 1238.57 70.9821 1246.26 61.9203L1268.81 36.3283C1277.27 26.49 1305.5 18.4802 1343.24 15.1891L1450.14 5.4183C1470.44 3.58589 1493.09 5.72081 1503.62 10.4569L1646.03 74.3447C1661.43 81.1597 1690.39 85.314 1721.55 85.1773L1881.79 84.4045C1892.8 84.3929 1903.06 82.9883 1909.07 80.6699L1998.19 47.6868C2025.72 37.4246 2072.08 31.3667 2121.35 31.6037L2303.64 32.2396" stroke="#E8EEF9" stroke-width="0.599902"/>
<path d="M-0.00732422 28.9066C10.1566 31.2076 99.396 46.4049 267.711 74.4984C327.409 77.6403 388.762 71.4825 423.386 58.8908L540.612 16.8169C552.914 12.3216 573.312 9.64723 595.051 9.68768L729.028 9.80324C813.145 9.94008 889.918 21.8362 928.179 40.6342L967.805 60.5074C980.687 66.8255 1004.5 71.2898 1032.29 72.5866L1167.78 78.9913C1203.9 80.6621 1238.79 74.8623 1246.82 65.8697L1271.93 39.5572C1280.93 29.6861 1309.89 21.7476 1348.05 18.6377L1451.07 9.41017C1470.91 7.68185 1492.93 9.76091 1503.32 14.3525L1645.34 76.5788C1661.15 83.3366 1690.39 87.3694 1721.53 87.0973L1882.55 85.5502C1893.1 85.5249 1902.92 84.1825 1908.73 81.9741L2001.13 49.486C2029.36 39.4358 2075.92 33.6496 2124.9 34.1235L2303.64 35.3972" stroke="#E8EEF9" stroke-width="0.599902"/>
<path d="M0 31.6649L270.846 76.6493C330.988 79.7825 392.663 73.4776 426.981 60.7145L541.455 18.9237C553.711 14.3379 574.385 11.6018 596.415 11.6596L727.261 11.8369C811.87 12.0372 888.842 24.1377 926.56 43.1284L966.428 63.7626C979.105 70.1347 1002.88 74.6608 1030.75 76.006L1168.23 82.7342C1204.15 84.4433 1239.03 78.7456 1247.4 69.8244L1275.03 42.7873C1284.59 32.8835 1314.27 25.0163 1352.87 22.0895L1452.01 13.4053C1471.36 11.7772 1492.75 13.8042 1503.04 18.2494L1644.65 78.8129C1660.88 85.5107 1690.39 89.4262 1721.51 89.0173L1883.3 86.696C1893.38 86.6612 1902.78 85.3797 1908.39 83.2754L2004.08 51.2885C2032.99 41.4482 2079.75 35.9336 2128.44 36.6427L2303.64 38.5541" stroke="#E8EEF9" stroke-width="0.599902"/>
<path d="M0 34.3421L273.989 78.8C334.568 81.9253 396.573 75.4728 430.576 62.5379L542.306 21.0304C554.509 16.3521 575.451 13.5544 597.772 13.6314L725.5 13.8665C810.596 14.1382 887.754 26.439 924.952 45.6243L965.039 67.0177C977.524 73.4416 1001.26 78.0351 1029.22 79.4223L1168.69 86.4783C1204.41 88.2244 1239.26 82.6286 1247.97 73.7752L1278.14 46.0174C1288.25 36.0808 1318.64 28.2849 1357.68 25.5411L1452.93 17.3984C1471.83 15.8723 1492.59 17.8473 1502.75 22.146L1643.97 81.0468C1660.61 87.6889 1690.4 91.4828 1721.48 90.9372L1884.06 87.843C1893.68 87.7945 1902.66 86.5753 1908.06 84.5788L2007.03 53.0907C2036.63 43.4624 2083.59 38.2176 2131.98 39.1637L2303.64 41.7109" stroke="#E8EEF9" stroke-width="0.599902"/>
<path d="M0 37.279L277.124 80.9511C338.155 84.0685 400.482 77.4655 434.171 64.3612L543.149 23.1369C555.306 18.3661 576.508 15.5048 599.129 15.603L723.739 15.8998C809.329 16.235 886.665 28.74 923.339 48.1161L963.65 70.2726C975.949 76.7505 999.658 81.4077 1027.68 82.839L1169.14 90.2207C1204.65 92.0073 1239.49 86.51 1248.53 77.7252L1281.24 49.2472C1291.92 39.2759 1323.03 31.5532 1362.48 28.9925L1453.86 21.3931C1472.28 19.9692 1492.42 21.8903 1502.47 26.0425L1643.28 83.2826C1660.34 89.8625 1690.4 93.5406 1721.46 92.859L1884.82 88.9876C1893.97 88.9297 1902.51 87.7683 1907.72 85.884L2009.98 54.8908C2040.26 45.4726 2087.43 40.5014 2135.54 41.6825L2303.64 44.8675" stroke="#E8EEF9" stroke-width="0.599902"/>
<path d="M-0.00732422 40.0705L280.259 83.102C341.735 86.21 404.384 79.4608 437.766 66.1848L543.993 25.2457C556.104 20.3806 577.582 17.4595 600.486 17.5751L721.979 17.9297C808.055 18.3342 885.583 31.0416 921.726 50.6123L962.273 73.5278C974.368 80.0599 998.038 84.7787 1026.15 86.2563L1169.59 93.9657C1204.91 95.7863 1239.72 90.3932 1249.11 81.6787L1284.35 52.4774C1295.58 42.4734 1327.4 34.822 1367.29 32.4424L1454.78 25.3864C1472.74 24.0646 1492.25 25.9317 1502.18 29.9395L1642.58 85.5182C1660.06 92.0409 1690.4 95.5975 1721.44 94.7791L1885.57 90.1371C1894.27 90.064 1902.39 88.9655 1907.37 87.1854L2012.93 56.6933C2043.9 47.485 2091.27 42.7836 2139.08 44.2037L2303.64 48.0246" stroke="#E8EEF9" stroke-width="0.599902"/>
<path d="M0 42.919L283.402 85.2546C345.314 88.3509 408.293 81.4534 441.361 68.0079L544.843 27.352C556.901 22.3944 578.647 19.4116 601.85 19.5485L720.218 19.9608C806.78 20.4329 884.495 33.3425 920.112 53.1059L960.884 76.7846C972.792 83.3681 996.424 88.1527 1024.61 89.673L1170.04 97.708C1205.17 99.5692 1239.95 94.2759 1249.68 85.6309L1287.46 55.7071C1299.24 45.6703 1331.78 38.0902 1372.09 35.8936L1455.71 29.381C1473.2 28.1594 1492.08 29.9764 1501.89 33.8377L1641.89 87.7518C1659.79 94.2144 1690.4 97.6538 1721.41 96.7L1886.34 91.2816C1894.56 91.1991 1902.25 90.1607 1907.04 88.4899L2015.88 58.4932C2047.54 49.497 2095.1 45.0691 2142.62 46.7223L2303.64 51.181" stroke="#E8EEF9" stroke-width="0.599902"/>
<path d="M-0.00732422 45.8789L286.537 87.4059C348.895 90.4929 412.195 83.4463 444.956 69.8313L545.686 29.4606C557.706 24.4104 579.712 21.366 603.199 21.5202L718.457 21.9923C805.513 22.5318 883.413 35.6437 918.499 55.5998L959.501 80.0395C971.211 86.6758 994.805 91.5255 1023.07 93.0899L1170.49 101.452C1205.42 103.348 1240.18 98.1574 1250.25 89.5833L1290.56 58.939C1302.9 48.8675 1336.16 41.3568 1376.9 39.3452L1456.65 33.374C1473.67 32.2545 1491.93 34.0194 1501.61 37.7325L1641.21 89.9878C1659.52 96.3925 1690.4 99.7103 1721.39 98.6176L1887.1 92.4271C1894.86 92.3345 1902.12 91.3576 1906.7 89.7909L2018.83 60.2955C2051.18 51.5091 2098.94 47.3511 2146.16 49.2432L2303.64 54.3397" stroke="#E8EEF9" stroke-width="0.599902"/>
<path d="M0 48.6577L289.68 89.5564C352.474 92.634 416.104 85.4412 448.551 71.6546L546.529 31.5672C558.502 26.4226 580.778 23.3165 604.563 23.4919L716.69 24.0237C804.239 24.6306 882.324 37.945 916.879 58.0937L958.118 83.2943C969.63 89.9841 993.185 94.896 1021.54 96.5068L1170.95 105.197C1205.67 107.131 1240.41 102.04 1250.82 93.5334L1293.68 62.1669C1306.56 52.0646 1340.54 44.6252 1381.7 42.7947L1457.58 37.3688C1474.13 36.3515 1491.75 38.0605 1501.32 41.629L1640.52 92.2237C1659.25 98.5684 1690.41 101.767 1721.36 100.54L1887.85 93.574C1895.15 93.4683 1901.98 92.5529 1906.36 91.0963L2021.78 62.0976C2054.81 53.5232 2102.77 49.6349 2149.7 51.764L2303.64 57.4944" stroke="#E8EEF9" stroke-width="0.599902"/>
<path d="M-0.00732422 51.6338L292.815 91.7101C356.062 94.7754 420.006 87.4364 452.146 73.4786L547.38 33.6761C559.3 28.4391 581.844 25.2694 605.92 25.464L714.929 26.0555C802.965 26.728 881.236 40.2465 915.272 60.588L956.729 86.55C968.055 93.2919 991.571 98.2704 1020 99.9239L1171.4 108.939C1205.92 110.914 1240.64 105.924 1251.39 97.4882L1296.78 65.3973C1310.23 55.2622 1344.93 47.8941 1386.51 46.2466L1458.5 41.3621C1474.57 40.4469 1491.59 42.106 1501.03 45.5261L1639.82 94.4591C1658.98 100.744 1690.41 103.823 1721.34 102.459L1888.61 94.7218C1895.44 94.6039 1901.84 93.7485 1906.02 92.3976L2024.73 63.8982C2058.45 55.5339 2106.62 51.9173 2153.24 54.2834L2303.64 60.6534" stroke="#E8EEF9" stroke-width="0.599902"/>
<path d="M0 54.8193L295.95 93.8604C359.641 96.9184 423.915 89.4304 455.741 75.2996L548.223 35.7823C560.097 30.4527 582.909 27.2234 607.277 27.4373L713.175 28.0847C801.69 28.8265 880.154 42.5473 913.652 63.0815L955.345 89.8045C966.473 96.6 989.958 101.643 1018.47 103.342L1171.85 112.683C1206.18 114.693 1240.87 109.805 1251.96 101.439L1299.89 68.6268C1313.88 58.4571 1349.3 51.1602 1391.32 49.6997L1459.44 45.3566C1475.04 44.5416 1491.42 46.1466 1500.75 49.4222L1639.13 96.6927C1658.71 102.92 1690.41 105.88 1721.32 104.381L1889.37 95.8685C1895.74 95.7375 1901.71 94.943 1905.69 93.7027L2027.67 65.6981C2062.09 57.5457 2110.44 54.2027 2156.79 56.802L2303.64 63.8098" stroke="#E8EEF9" stroke-width="0.599902"/>
<path d="M-0.00732422 57.6043L299.093 96.0111C363.221 99.0597 427.824 91.4234 459.337 77.1225L549.067 37.8909C560.894 32.4669 583.975 29.1759 608.634 29.4091L711.408 30.1162C800.423 30.9255 879.065 44.8486 912.045 65.5773L953.963 93.0595C964.892 99.9092 988.344 105.014 1016.93 106.759L1172.3 116.426C1206.43 118.476 1241.1 113.688 1252.53 105.391L1302.99 71.8568C1317.55 61.6543 1353.69 54.4288 1396.12 53.1493L1460.37 49.3497C1475.5 48.6387 1491.25 50.1898 1500.46 53.3189L1638.45 98.9266C1658.43 105.096 1690.41 107.936 1721.3 106.299L1890.13 97.0133C1896.04 96.8729 1901.57 96.1385 1905.34 95.0053L2030.62 67.5022C2065.72 59.5599 2114.28 56.4866 2160.33 59.3248L2303.64 66.9646" stroke="#E8EEF9" stroke-width="0.599902"/>
<path d="M-0.00732422 60.6462L302.228 98.1623C366.801 101.201 431.726 93.4182 462.932 78.9459L549.917 39.9974C561.691 34.4828 585.04 31.1263 609.998 31.3807L709.647 32.1475C799.149 33.0242 877.977 47.1497 910.425 68.0692L952.58 96.3142C963.317 103.216 986.725 108.386 1015.4 110.176L1172.76 120.17C1206.68 122.255 1241.33 117.571 1253.1 109.344L1306.1 75.0868C1321.21 64.8495 1358.07 57.6971 1400.93 56.6007L1461.3 53.3445C1475.96 52.7317 1491.08 54.2327 1500.17 57.2154L1637.76 101.162C1658.16 107.272 1690.41 109.993 1721.28 108.22L1890.89 98.1587C1896.33 98.006 1901.45 97.3359 1905.01 96.3084L2033.58 69.3023C2069.37 61.57 2118.12 58.7684 2163.87 61.8436L2303.64 70.1231" stroke="#E8EEF9" stroke-width="0.599902"/>
<path d="M0 63.7316L305.363 100.313C370.381 103.342 435.635 95.4111 466.519 80.7694L550.761 42.1041C562.489 36.4952 586.105 33.0808 611.355 33.3525L707.886 34.1791C797.874 35.1213 876.888 49.451 908.818 70.5651L951.19 99.5712C961.735 106.525 985.117 111.761 1013.86 113.595L1173.21 123.913C1206.93 126.038 1241.57 121.452 1253.67 113.296L1309.2 78.3164C1324.88 68.0467 1362.44 60.9657 1405.74 60.0524L1462.23 57.3375C1476.42 56.8288 1490.92 58.2758 1499.89 61.1121L1637.06 103.398C1657.89 109.45 1690.42 112.049 1721.25 110.14L1891.64 99.3071C1896.62 99.1414 1901.3 98.5306 1904.67 97.6116L2036.53 71.1027C2073 63.5842 2121.95 61.0524 2167.42 64.3627L2303.64 73.28" stroke="#E8EEF9" stroke-width="0.599902"/>
<path d="M0 66.8817L308.506 102.464C373.968 105.483 439.537 97.4041 470.122 82.593L551.604 44.2127C563.286 38.5112 587.171 35.0333 612.712 35.3262L706.119 36.2087C796.6 37.2203 875.806 51.7523 907.205 73.0591L949.807 102.826C960.16 109.832 983.497 115.131 1012.32 117.012L1173.66 127.657C1207.19 129.819 1241.8 125.336 1254.24 117.246L1312.31 81.5467C1328.53 71.244 1366.82 64.2343 1410.55 63.504L1463.16 61.3324C1476.88 60.9259 1490.74 62.3171 1499.6 65.0088L1636.39 105.634C1657.62 111.625 1690.42 114.106 1721.23 112.062L1892.41 100.453C1896.92 100.275 1901.16 99.7262 1904.34 98.9128L2039.47 72.9049C2076.64 65.5946 2125.79 63.3363 2170.96 66.8817L2303.64 76.4365" stroke="#E8EEF9" stroke-width="0.599902"/>
<path d="M0 70.2808L311.641 104.617C377.548 107.627 443.446 99.3993 473.709 84.4168L552.455 46.3195C564.091 40.5236 588.236 36.988 614.068 37.2982L704.359 38.2423C795.333 39.3194 874.718 54.0538 905.591 75.5532L948.424 106.082C958.579 113.142 981.884 118.504 1010.79 120.428L1174.11 131.402C1207.44 133.6 1242.03 129.219 1254.81 121.2L1315.41 84.7771C1332.19 74.4417 1371.2 67.501 1415.36 66.9538L1464.08 65.3256C1477.33 65.0193 1490.58 66.3622 1499.32 68.9057L1635.69 107.868C1657.35 113.802 1690.42 116.163 1721.2 113.979L1893.17 101.6C1897.21 101.411 1901.04 100.922 1904 100.218L2042.42 74.7073C2080.28 67.607 2129.63 65.6204 2174.5 69.4047L2303.64 79.5939" stroke="#E8EEF9" stroke-width="0.599902"/>
<path d="M0 73.3103L314.776 106.768C381.127 109.768 447.348 101.394 477.304 86.2393L553.298 48.4258C564.888 42.5394 589.302 38.9382 615.433 39.2696L702.598 40.2715C794.059 41.418 873.636 56.3547 903.978 78.0465L947.035 109.336C956.997 116.448 980.264 121.878 1009.25 123.845L1174.56 135.146C1207.7 137.381 1242.26 133.1 1255.38 125.152L1318.52 88.0085C1335.85 77.6384 1375.58 70.7692 1420.16 70.405L1465.01 69.3183C1477.79 69.116 1490.42 70.405 1499.03 72.802L1635 110.101C1657.07 115.976 1690.42 118.219 1721.18 115.901L1893.92 102.746C1897.5 102.546 1900.9 102.117 1903.67 101.519L2045.38 76.5073C2083.92 69.6208 2133.46 67.9021 2178.06 71.9234L2303.64 82.75" stroke="#E8EEF9" stroke-width="0.599902"/>
<path d="M-0.00732422 76.6986L317.919 108.919C384.707 111.909 451.257 103.387 480.899 88.063L554.141 50.5325C565.685 44.5555 590.368 40.8907 616.79 41.2414L700.831 42.305C792.784 43.5169 872.548 58.656 902.358 80.5388L945.652 112.592C955.422 119.759 978.644 125.25 1007.71 127.262L1175.02 138.891C1207.95 141.162 1242.49 136.983 1255.95 129.104L1321.63 91.2368C1339.51 80.8355 1379.96 74.0378 1424.96 73.8569L1465.94 73.3113C1478.26 73.2115 1490.25 74.446 1498.74 76.6986L1634.31 112.337C1656.8 118.154 1690.42 120.276 1721.16 117.821L1894.68 103.894C1897.8 103.68 1900.77 103.314 1903.32 102.824L2048.33 78.3079C2087.56 71.6312 2137.3 70.186 2181.59 74.4423L2303.64 85.9088" stroke="#E8EEF9" stroke-width="0.599902"/>
<path d="M0 80.1098L321.054 111.072C388.287 114.051 455.166 105.382 484.494 89.8866L554.984 52.6414C566.482 46.568 591.433 42.8454 618.146 43.2135L699.07 44.3349C791.51 45.6142 871.459 60.9575 900.751 83.0347L944.269 115.846C953.841 123.067 977.031 128.621 1006.18 130.681L1175.47 142.633C1208.2 144.944 1242.72 140.866 1256.52 133.055L1324.73 94.4686C1343.19 84.0333 1384.35 77.3065 1429.76 77.3065H1466.87C1478.72 77.3065 1490.08 78.4918 1498.46 80.5954L1633.63 114.573C1656.53 120.329 1690.42 122.334 1721.13 119.742L1895.43 105.039C1898.09 104.816 1900.63 104.51 1902.98 104.128L2051.27 80.1098C2091.19 73.6458 2141.14 72.4722 2185.14 76.9635L2303.64 89.0661" stroke="#E8EEF9" stroke-width="0.599902"/>
<path d="M2303.64 29.0823L2565.08 70.1947C2623.89 73.3583 2684.59 67.4952 2719.84 55.2465L2842.56 12.6021C2854.95 8.29379 2874.83 5.74463 2895.98 5.74463H3036.19C3099.01 5.74463 3157.97 12.3026 3200 23.4492" stroke="#E8EEF9" stroke-width="0.599902"/>
<path d="M2303.64 32.2369L2568.21 72.3478C2627.47 75.4999 2688.49 69.4903 2723.43 57.07L2843.41 14.7109C2855.76 10.3081 2875.89 7.69537 2897.34 7.71644L3034.43 7.77437C3098.29 7.82587 3158.05 14.6572 3200 26.1688" stroke="#E8EEF9" stroke-width="0.599902"/>
<path d="M2303.64 35.3994L2571.35 74.4986C2631.05 77.6413 2692.4 71.4829 2727.03 58.8911L2844.25 16.8171C2856.55 12.3219 2876.95 9.64746 2898.69 9.68745L3032.67 9.80354C3097.6 9.90912 3158.16 17.0216 3200 28.9068" stroke="#E8EEF9" stroke-width="0.599902"/>
<path d="M2303.64 38.5544L2574.49 76.6493C2634.63 79.7825 2696.3 73.4776 2730.62 60.7145L2845.09 18.9237C2857.35 14.3379 2878.03 11.6018 2900.06 11.6596L3030.9 11.8369C3096.93 11.9932 3158.3 19.3962 3200 31.6649" stroke="#E8EEF9" stroke-width="0.599902"/>
<path d="M2303.64 41.7095L2577.63 78.8C2638.21 81.9253 2700.22 75.4728 2734.22 62.5379L2845.94 21.0304C2858.15 16.3521 2879.09 13.5544 2901.41 13.6314L3029.14 13.8665C3096.28 14.0809 3158.47 21.7825 3200 34.4451" stroke="#E8EEF9" stroke-width="0.599902"/>
<path d="M2303.64 44.8643L2580.76 80.9511C2641.8 84.0685 2704.12 77.4655 2737.81 64.3612L2846.79 23.1369C2858.95 18.3661 2880.15 15.5048 2902.77 15.603L3027.38 15.8998C3095.65 16.1672 3158.68 24.1788 3200 37.2447" stroke="#E8EEF9" stroke-width="0.599902"/>
<path d="M2303.64 48.0268L2583.9 83.1021C2645.38 86.21 2708.03 79.4608 2741.41 66.1848L2847.64 25.2457C2859.74 20.3806 2881.22 17.4595 2904.12 17.5751L3025.62 17.9297C3095.06 18.256 3158.93 26.588 3200 40.0705" stroke="#E8EEF9" stroke-width="0.599902"/>
<path d="M2303.64 51.1816L2587.04 85.2546C2648.96 88.3509 2711.93 81.4534 2745 68.0078L2848.49 27.352C2860.54 22.3944 2882.29 19.4116 2905.49 19.5485L3023.86 19.9608C3094.48 20.3459 3159.21 29.0094 3200 42.919" stroke="#E8EEF9" stroke-width="0.599902"/>
<path d="M2303.64 54.3365L2590.18 87.4059C2652.54 90.4928 2715.84 83.4463 2748.6 69.8313L2849.33 29.4606C2861.35 24.4104 2883.36 21.366 2906.84 21.5202L3022.1 21.9923C3093.94 22.4375 3159.54 31.4448 3200 45.7948" stroke="#E8EEF9" stroke-width="0.599902"/>
<path d="M2303.64 57.4915L2593.32 89.5564C2656.12 92.634 2719.74 85.4412 2752.19 71.6546L2850.17 31.5672C2862.14 26.4226 2884.42 23.3165 2908.2 23.4919L3020.33 24.0237C3093.42 24.5305 3159.93 33.8951 3200 48.6997" stroke="#E8EEF9" stroke-width="0.599902"/>
<path d="M2303.64 60.6539L2596.46 91.7101C2659.7 94.7754 2723.65 87.4364 2755.79 73.4786L2851.02 33.6761C2862.94 28.4391 2885.49 25.2694 2909.56 25.464L3018.57 26.0555C3092.94 26.6236 3160.35 36.3604 3200 51.6338" stroke="#E8EEF9" stroke-width="0.599902"/>
<path d="M2303.64 63.8086L2599.59 93.8604C2663.28 96.9184 2727.56 89.4304 2759.38 75.2996L2851.87 35.7823C2863.74 30.4527 2886.55 27.2234 2910.92 27.4373L3016.82 28.0847C3092.5 28.719 3160.84 38.8426 3200 54.6008" stroke="#E8EEF9" stroke-width="0.599902"/>
<path d="M2303.64 66.9636L2602.74 96.0111C2666.87 99.0597 2731.47 91.4234 2762.98 77.1225L2852.71 37.8909C2864.54 32.4669 2887.61 29.1759 2912.28 29.4091L3015.05 30.1162C3092.1 30.8167 3161.38 41.3433 3200 57.6043" stroke="#E8EEF9" stroke-width="0.599902"/>
<path d="M2303.64 70.1257L2605.87 98.1623C2670.44 101.201 2735.37 93.4182 2766.57 78.9458L2853.56 39.9974C2865.33 34.4828 2888.68 31.1263 2913.64 31.3807L3013.29 32.1475C3091.75 32.9161 3162 43.8648 3200 60.6462" stroke="#E8EEF9" stroke-width="0.599902"/>
<path d="M2303.64 73.2807L2609.01 100.313C2674.02 103.342 2739.28 95.4111 2770.16 80.7694L2854.4 42.1041C2866.13 36.4952 2889.74 33.0808 2915 33.3525L3011.53 34.1791C3091.43 35.0157 3162.69 46.4075 3200 63.7316" stroke="#E8EEF9" stroke-width="0.599902"/>
<path d="M2303.64 76.4358L2612.15 102.464C2677.61 105.483 2743.18 97.404 2773.76 82.593L2855.25 44.2127C2866.93 38.5112 2890.81 35.0333 2916.35 35.3262L3009.76 36.2087C3091.18 37.1189 3163.45 48.9746 3200 66.8624" stroke="#E8EEF9" stroke-width="0.599902"/>
<path d="M2303.64 79.591L2615.28 104.617C2681.19 107.627 2747.09 99.3993 2777.35 84.4168L2856.09 46.3195C2867.73 40.5236 2891.88 36.988 2917.71 37.2982L3008 38.2423C3090.98 39.2248 3164.33 51.5713 3200 70.0505" stroke="#E8EEF9" stroke-width="0.599902"/>
<path d="M2303.64 82.7529L2618.42 106.768C2684.77 109.768 2750.99 101.394 2780.95 86.2393L2856.94 48.4258C2868.53 42.5394 2892.95 38.9382 2919.07 39.2696L3006.24 40.2715C3090.86 41.3323 3165.3 54.1971 3200 73.2952" stroke="#E8EEF9" stroke-width="0.599902"/>
<path d="M2303.64 85.9081L2621.56 108.919C2688.35 111.909 2754.9 103.387 2784.54 88.063L2857.78 50.5325C2869.33 44.5555 2894.01 40.8907 2920.43 41.2414L3004.47 42.305C3090.82 43.4431 3166.42 56.8614 3200 76.6125" stroke="#E8EEF9" stroke-width="0.599902"/>
<path d="M2303.64 89.0631L2624.7 111.072C2691.92 114.051 2758.81 105.382 2788.14 89.8866L2858.63 52.6413C2870.12 46.568 2895.07 42.8454 2921.79 43.2135L3002.71 44.3349C3090.87 45.555 3167.67 59.5662 3200 80.0107" stroke="#E8EEF9" stroke-width="0.599902"/>
</g>
<defs>
<clipPath id="clip0">
<rect width="3200" height="144" fill="white"/>
</clipPath>
</defs>
</svg>
