<svg width="823" height="534" viewBox="0 0 823 534" fill="none" xmlns="http://www.w3.org/2000/svg">
<rect y="0.249984" width="130.137" height="130.137" rx="11.75" transform="matrix(0.866044 0.499967 -0.866044 0.499967 409.516 160.43)" fill="white" fill-opacity="0.8"/>
<rect y="0.249984" width="130.137" height="130.137" rx="11.75" transform="matrix(0.866044 0.499967 -0.866044 0.499967 409.516 160.43)" stroke="white" stroke-width="0.5"/>
<rect y="0.249984" width="95.5" height="95.5" rx="9.75" transform="matrix(0.866044 0.499967 -0.866044 0.499967 739.614 192.748)" fill="white" fill-opacity="0.8"/>
<rect y="0.249984" width="95.5" height="95.5" rx="9.75" transform="matrix(0.866044 0.499967 -0.866044 0.499967 739.614 192.748)" stroke="white" stroke-width="0.5"/>
<rect y="0.249984" width="95.5" height="95.5" rx="9.75" transform="matrix(0.866044 0.499967 -0.866044 0.499967 574.858 97.6339)" fill="white" fill-opacity="0.8"/>
<rect y="0.249984" width="95.5" height="95.5" rx="9.75" transform="matrix(0.866044 0.499967 -0.866044 0.499967 574.858 97.6339)" stroke="white" stroke-width="0.5"/>
<rect y="0.249984" width="95.5" height="95.5" rx="9.75" transform="matrix(0.866044 0.499967 -0.866044 0.499967 246.761 287.045)" fill="white" fill-opacity="0.8"/>
<rect y="0.249984" width="95.5" height="95.5" rx="9.75" transform="matrix(0.866044 0.499967 -0.866044 0.499967 246.761 287.045)" stroke="white" stroke-width="0.5"/>
<rect y="0.249984" width="95.5" height="95.5" rx="9.75" transform="matrix(0.866044 0.499967 -0.866044 0.499967 412.931 4.1532)" fill="white" fill-opacity="0.8"/>
<rect y="0.249984" width="95.5" height="95.5" rx="9.75" transform="matrix(0.866044 0.499967 -0.866044 0.499967 412.931 4.1532)" stroke="white" stroke-width="0.5"/>
<rect y="0.249984" width="95.5" height="95.5" rx="9.75" transform="matrix(0.866044 0.499967 -0.866044 0.499967 411.517 382.158)" fill="white" fill-opacity="0.8"/>
<rect y="0.249984" width="95.5" height="95.5" rx="9.75" transform="matrix(0.866044 0.499967 -0.866044 0.499967 411.517 382.158)" stroke="white" stroke-width="0.5"/>
<rect y="0.249984" width="95.5" height="95.5" rx="9.75" transform="matrix(0.866044 0.499967 -0.866044 0.499967 575.565 287.453)" fill="white" fill-opacity="0.8"/>
<rect y="0.249984" width="95.5" height="95.5" rx="9.75" transform="matrix(0.866044 0.499967 -0.866044 0.499967 575.565 287.453)" stroke="white" stroke-width="0.5"/>
<rect y="0.249984" width="95.5" height="95.5" rx="9.75" transform="matrix(0.866044 0.499967 -0.866044 0.499967 247.468 98.0421)" fill="white" fill-opacity="0.8"/>
<rect y="0.249984" width="95.5" height="95.5" rx="9.75" transform="matrix(0.866044 0.499967 -0.866044 0.499967 247.468 98.0421)" stroke="white" stroke-width="0.5"/>
<rect y="0.249984" width="95.5" height="95.5" rx="9.75" transform="matrix(0.866044 0.499967 -0.866044 0.499967 83.4191 192.748)" fill="white" fill-opacity="0.8"/>
<rect y="0.249984" width="95.5" height="95.5" rx="9.75" transform="matrix(0.866044 0.499967 -0.866044 0.499967 83.4191 192.748)" stroke="white" stroke-width="0.5"/>
</svg>
