<svg width="814" height="539" viewBox="0 0 814 539" fill="none" xmlns="http://www.w3.org/2000/svg">
<rect width="91.4456" height="91.4456" rx="8" transform="matrix(0.866044 0.499967 -0.866044 0.499967 408 150.804)" fill="white"/>
<path d="M426.992 208.615C422.397 209.602 417.855 210.321 413.881 210.891C409.649 211.549 405.727 212.089 401.134 212.54C399.379 212.72 397.419 212.901 395.303 213.051C389.988 213.384 383.695 212.853 380.814 209.937C377.933 206.961 379.438 203.594 380.375 200.436C381.729 195.61 383.754 190.634 386.966 185.688C390.074 180.919 394.887 175.405 404.331 174.176C406.86 173.846 409.388 173.873 411.864 174.11C413.514 174.287 415.112 174.613 416.659 174.969C427.28 177.521 436.552 182.993 442.522 188.528C444.375 190.253 445.815 192.039 446.584 193.915C447.096 195.165 447.196 196.476 446.883 197.786C446.413 199.782 445.068 201.392 443.155 202.734C439.33 205.596 433.031 207.329 426.992 208.615Z" fill="#131520"/>
<rect width="72" height="72" rx="8" transform="matrix(0.866044 0.499967 -0.866044 0.499967 571.049 287.327)" fill="white"/>
<path d="M588.479 331.637C590.571 332.845 593.963 332.845 596.056 331.637V331.637C598.148 330.429 598.148 328.47 596.056 327.262V327.262C593.963 326.054 590.57 326.054 588.478 327.262L584.689 329.449L588.479 331.637ZM577.869 325.512C579.962 326.72 583.355 326.72 585.447 325.512L596.056 319.388C598.148 318.18 598.148 316.221 596.056 315.013V315.013C593.963 313.805 590.57 313.805 588.478 315.013L577.869 321.137C575.777 322.345 575.777 324.304 577.869 325.512V325.512Z" fill="#2EB67D"/>
<path d="M553.619 315.013C551.527 313.805 548.134 313.805 546.042 315.013V315.013C543.949 316.221 543.95 318.179 546.042 319.387V319.387C548.135 320.595 551.527 320.595 553.62 319.387L557.408 317.2L553.619 315.013ZM564.228 321.138C562.136 319.93 558.743 319.93 556.651 321.138L546.042 327.262C543.95 328.47 543.95 330.429 546.042 331.637V331.637C548.135 332.845 551.527 332.845 553.62 331.637L564.228 325.512C566.321 324.304 566.321 322.346 564.228 321.138V321.138Z" fill="#E01E5A"/>
<path d="M556.651 333.387C554.558 334.595 554.558 336.553 556.651 337.761V337.761C558.743 338.969 562.136 338.969 564.228 337.761V337.761C566.321 336.553 566.321 334.595 564.228 333.386L560.44 331.2L556.651 333.387ZM567.26 327.262C565.168 328.47 565.168 330.429 567.26 331.637L577.869 337.761C579.961 338.969 583.354 338.969 585.446 337.761V337.761C587.539 336.553 587.539 334.595 585.446 333.386L574.838 327.262C572.745 326.054 569.353 326.054 567.26 327.262V327.262Z" fill="#ECB22E"/>
<path d="M585.447 313.263C587.539 312.055 587.539 310.096 585.447 308.888V308.888C583.354 307.68 579.962 307.68 577.869 308.888V308.888C575.777 310.096 575.777 312.055 577.869 313.263L581.657 315.45L585.447 313.263ZM574.837 319.387C576.93 318.179 576.93 316.221 574.837 315.013L564.229 308.888C562.136 307.68 558.744 307.68 556.651 308.888V308.888C554.558 310.096 554.558 312.055 556.651 313.263L567.259 319.387C569.352 320.595 572.745 320.595 574.837 319.387V319.387Z" fill="#36C5F0"/>
<rect width="72" height="72" rx="8" transform="matrix(0.866044 0.499967 -0.866044 0.499967 407 382.032)" fill="white"/>
<path d="M428.897 429.3L428.278 407.859L428.218 405.781L400.26 405.512L387.478 405.389C386.144 405.376 385.081 405.99 385.103 406.76L385.528 421.506L385.782 430.279L413.74 430.548L414.173 430.553L426.522 430.672C427.856 430.684 428.919 430.07 428.897 429.3ZM400.726 421.652L400.514 414.286L413.274 414.408L413.486 421.775L400.726 421.652Z" fill="#2684FF"/>
<path fill-rule="evenodd" clip-rule="evenodd" d="M413.274 414.408C413.135 409.585 419.768 405.732 428.121 405.783L400.203 405.511L400.457 414.285L413.274 414.408Z" fill="url(#paint0_linear)"/>
<path fill-rule="evenodd" clip-rule="evenodd" d="M413.521 421.775L400.726 421.652C400.795 423.979 399.259 426.196 396.456 427.814C393.653 429.432 389.813 430.319 385.782 430.279L413.774 430.549L413.521 421.775Z" fill="url(#paint1_linear)"/>
<rect width="72" height="72" rx="8" transform="matrix(0.866044 0.499967 -0.866044 0.499967 408.414 4.02747)" fill="white"/>
<g clip-path="url(#clip0)" filter="url(#filter0_d)">
<path d="M393.326 24.2373C398.607 21.1883 401.248 19.6638 404.293 19.0926C406.972 18.5902 409.857 18.5902 412.535 19.0926C415.581 19.6638 418.221 21.1883 423.503 24.2373L435.762 31.3146C441.043 34.3636 443.684 35.8881 444.674 37.646C445.544 39.1923 445.544 40.858 444.674 42.4043C443.684 44.1622 441.043 45.6867 435.762 48.7357L423.503 55.813C418.221 58.862 415.581 60.3865 412.535 60.9576C409.857 61.4601 406.972 61.4601 404.293 60.9576C401.248 60.3865 398.607 58.862 393.326 55.813L381.067 48.7357C375.785 45.6867 373.144 44.1622 372.155 42.4043C371.285 40.858 371.285 39.1923 372.155 37.646C373.144 35.8881 375.785 34.3636 381.067 31.3146L393.326 24.2373Z" fill="white"/>
<path d="M413.796 36.9218L417.808 28.5498C418.159 28.548 418.476 28.5965 418.754 28.667C416.698 28.068 414.252 28.661 414.252 28.661L387.763 32.8891C387.099 33.1172 386.582 33.3719 386.178 33.6248L396.637 39.6626L413.796 36.9218Z" fill="#34A853"/>
<path d="M413.796 36.9216L409.048 46.8278L419.507 52.8655C419.945 52.632 420.386 52.3341 420.782 51.9503L428.105 36.6585C428.105 36.6585 429.131 35.245 428.095 34.0592C428.215 34.2189 428.301 34.4028 428.298 34.6058L413.796 36.9216Z" fill="#FBBC05"/>
<path d="M413.796 36.9219L428.298 34.606C428.301 34.4031 428.215 34.2192 428.094 34.0595C427.94 33.8847 427.745 33.7144 427.492 33.5532L427.215 33.3932L419.908 29.1749L419.631 29.0149C419.355 28.8691 419.059 28.755 418.754 28.6671C418.477 28.5977 418.159 28.548 417.807 28.5499L413.796 36.9219Z" fill="#188038"/>
<path d="M396.638 39.6636L382.301 41.9535C382.301 41.9535 382.213 41.8056 382.152 41.5703C382.322 42.3221 382.917 42.8044 382.917 42.8044L403.282 54.561C404.406 55.2097 405.069 55.0972 405.069 55.0972C405.074 55.0982 405.078 55.0982 405.084 55.0993L409.048 46.8279L396.638 39.6636Z" fill="#4285F4"/>
<path d="M396.639 39.6639L386.18 33.6261C384.989 34.374 384.802 35.1047 384.802 35.1047L384.513 35.7258C384.501 35.7651 384.495 35.7881 384.495 35.7881L383.848 37.1495L382.426 40.1893C382.346 40.2999 382.288 40.4093 382.239 40.5175C382.225 40.5558 382.206 40.5951 382.196 40.6334C382.192 40.6443 382.188 40.6552 382.184 40.6661C382.086 40.9972 382.093 41.3004 382.155 41.5717C382.213 41.8081 382.304 41.9548 382.304 41.9548L396.639 39.6639Z" fill="#1967D2"/>
<path d="M409.048 46.8279L419.507 52.8657C418.211 53.553 416.946 53.6611 416.946 53.6611L415.87 53.8281C415.802 53.835 415.762 53.8385 415.762 53.8385L413.404 54.2118L408.138 55.0332C407.947 55.0789 407.757 55.1126 407.57 55.1409C407.503 55.1489 407.435 55.1601 407.369 55.1659C407.35 55.1682 407.331 55.1705 407.312 55.1728C406.739 55.2292 406.214 55.2254 405.744 55.1896C405.334 55.1558 405.08 55.1036 405.08 55.1036L409.048 46.8279Z" fill="#EA4335"/>
</g>
<rect width="72" height="72" rx="8" transform="matrix(0.866044 0.499967 -0.866044 0.499967 242.951 97.9164)" fill="white"/>
<g clip-path="url(#clip1)">
<path d="M242.941 139.091C238.979 138.055 235.75 136.193 233.956 133.905C235.747 131.618 238.972 129.756 242.932 128.721C246.896 129.756 250.125 131.62 251.918 133.909C250.127 136.195 246.9 138.057 242.941 139.091ZM267.411 143.952L255.017 136.797L272.538 136.8C273.093 134.891 273.091 132.932 272.534 131.023L255.013 131.02L267.398 123.87C265.452 122.293 263.053 120.908 260.321 119.785L247.936 126.935L247.93 116.82C244.626 116.498 241.229 116.497 237.924 116.817L237.931 126.933L225.537 119.778C222.824 120.991 220.462 122.24 218.465 123.861L230.858 131.016L213.336 131.012C212.781 132.924 212.782 134.877 213.339 136.789L230.861 136.792L218.475 143.942C220.423 145.519 222.821 146.903 225.552 148.028L237.938 140.877L237.944 150.993C241.252 151.315 244.642 151.315 247.95 150.995L247.943 140.879L260.338 148.035C263.067 146.913 265.468 145.527 267.411 143.952Z" fill="#FF4A00"/>
</g>
<rect width="72" height="72" rx="8" transform="matrix(0.866044 0.499967 -0.866044 0.499967 78.9026 192.622)" fill="white"/>
<g clip-path="url(#clip2)">
<path d="M100.121 216.37C88.4176 209.614 69.3876 209.614 57.6845 216.37C45.9814 223.126 45.9814 234.112 57.6845 240.869C69.3876 247.625 88.4176 247.625 100.121 240.869C111.824 234.112 111.824 223.126 100.121 216.37Z" fill="url(#paint2_radial)"/>
<path d="M85.8428 232.523C82.9299 230.841 78.1742 230.861 75.22 232.566C72.2656 234.272 72.2316 237.017 75.1445 238.699C78.057 240.381 82.8131 240.361 85.7675 238.655C88.7217 236.95 88.7553 234.204 85.8428 232.523ZM72.1406 224.613C69.2281 222.932 64.4725 222.951 61.518 224.656C58.5639 226.362 58.5302 229.108 61.4427 230.789C64.3554 232.471 69.1117 232.451 72.0658 230.746C75.0203 229.04 75.0533 226.295 72.1406 224.613ZM90.9519 227.752C87.9977 229.458 83.2414 229.478 80.3289 227.796C77.4161 226.115 77.4503 223.369 80.4045 221.663C83.3586 219.958 88.1145 219.938 91.0273 221.62C93.9399 223.301 93.9059 226.047 90.9519 227.752Z" fill="white"/>
</g>
<rect width="72" height="72" rx="8" transform="matrix(0.866044 0.499967 -0.866044 0.499967 242.244 286.919)" fill="white"/>
<g clip-path="url(#clip3)">
<path d="M227.695 306.818C232.787 303.877 235.334 302.407 238.27 301.857C240.853 301.372 243.635 301.372 246.218 301.857C249.154 302.407 251.701 303.877 256.794 306.818L270.131 314.517C275.224 317.457 277.77 318.927 278.724 320.622C279.563 322.113 279.563 323.72 278.724 325.211C277.77 326.906 275.224 328.376 270.131 331.316L256.794 339.015C251.701 341.956 249.154 343.426 246.218 343.976C243.635 344.461 240.853 344.461 238.27 343.976C235.334 343.426 232.787 341.956 227.695 339.015L214.358 331.316C209.265 328.376 206.718 326.906 205.764 325.211C204.925 323.72 204.925 322.113 205.764 320.622C206.718 318.927 209.265 317.457 214.358 314.517L227.695 306.818Z" fill="#0C1724"/>
<path d="M256.282 328.085L251.762 330.695L218.632 324.299L223.496 321.491L249.084 326.498L240.298 311.791L245.275 308.917L256.282 328.085Z" fill="white"/>
</g>
<rect width="72" height="72" rx="8" transform="matrix(0.866044 0.499967 -0.866044 0.499967 570.342 97.5082)" fill="white"/>
<g clip-path="url(#clip4)">
<path d="M588.528 124.756L564.712 138.506L608.231 136.131L588.528 124.756Z" fill="#07363D"/>
<path d="M565.037 123.444C570.427 126.556 580.32 125.995 585.497 123.007L565.795 111.632C560.618 114.621 559.647 120.333 565.037 123.444Z" fill="#07363D"/>
<path d="M555.186 144.005C560.363 141.017 570.256 140.456 575.646 143.568C581.036 146.679 580.065 152.391 574.888 155.379L555.186 144.005Z" fill="#07363D"/>
<path d="M552.155 142.255L575.971 128.506L532.452 130.881L552.155 142.255Z" fill="#07363D"/>
</g>
<rect width="72" height="72" rx="8" transform="matrix(0.866044 0.499967 -0.866044 0.499967 735.097 192.622)" fill="white"/>
<g clip-path="url(#clip5)">
<path d="M742.822 229.41C743.578 228.973 744.804 228.973 745.56 229.41L762.525 239.203C763.281 239.64 763.281 240.347 762.525 240.784L752.527 246.556C747.086 249.697 738.265 249.697 732.824 246.556V246.556C727.383 243.415 727.383 238.322 732.824 235.181L742.822 229.41Z" fill="url(#paint3_linear)"/>
<path d="M730.208 219.193C731.234 218.6 732.898 218.6 733.924 219.193L754.458 231.047C755.484 231.639 755.484 232.599 754.458 233.192L739.644 241.744C732.948 245.609 722.091 245.609 715.395 241.744V241.744C708.699 237.878 708.699 231.61 715.395 227.744L730.208 219.193Z" fill="url(#paint4_linear)"/>
<circle r="5.25" transform="matrix(0.866044 0.499967 -0.866044 0.499967 763.893 231.244)" fill="#34439E"/>
<circle r="5.25" transform="matrix(0.866044 0.499967 -0.866044 0.499967 763.893 231.244)" fill="url(#paint5_linear)"/>
<circle r="7" transform="matrix(0.866044 0.499967 -0.866044 0.499967 753.284 221.62)" fill="url(#paint6_linear)"/>
<mask id="mask0" mask-type="alpha" maskUnits="userSpaceOnUse" x="710" y="213" width="55" height="32">
<path d="M745.706 224.245C749.892 226.661 756.677 226.661 760.862 224.245C765.047 221.829 765.047 217.911 760.862 215.495C756.677 213.079 749.892 213.079 745.706 215.495C741.521 217.911 741.521 221.829 745.706 224.245Z" fill="url(#paint7_linear)"/>
<path d="M733.924 219.193C732.898 218.6 731.234 218.6 730.208 219.193L715.395 227.744C708.699 231.61 708.699 237.878 715.395 241.744C722.091 245.609 732.948 245.609 739.644 241.744L754.458 233.192C755.484 232.599 755.484 231.639 754.458 231.047L733.924 219.193Z" fill="url(#paint8_linear)"/>
</mask>
<g mask="url(#mask0)">
<path d="M727.52 217.245C730.031 215.796 734.102 215.796 736.613 217.245L747.222 223.37C749.734 224.819 749.734 227.17 747.222 228.619L729.035 239.119C726.524 240.568 722.453 240.568 719.942 239.119L704.786 230.369L727.52 217.245Z" fill="black" fill-opacity="0.3"/>
</g>
<rect width="31.5" height="31.5" rx="3.5" transform="matrix(0.866044 0.499967 -0.866044 0.499967 724.489 206.746)" fill="url(#paint9_linear)"/>
<path d="M738.129 221.62L726.004 214.62L723.223 216.226L727.762 218.846L715.387 225.99L718.434 227.749L730.809 220.605L735.348 223.225L738.129 221.62Z" fill="white"/>
</g>
<defs>
<filter id="filter0_d" x="357.916" y="11.027" width="100.997" height="59.9963" filterUnits="userSpaceOnUse" color-interpolation-filters="sRGB">
<feFlood flood-opacity="0" result="BackgroundImageFix"/>
<feColorMatrix in="SourceAlpha" type="matrix" values="0 0 0 0 0 0 0 0 0 0 0 0 0 0 0 0 0 0 127 0" result="hardAlpha"/>
<feOffset dy="1"/>
<feGaussianBlur stdDeviation="1"/>
<feColorMatrix type="matrix" values="0 0 0 0 0.0627451 0 0 0 0 0.0941176 0 0 0 0 0.156863 0 0 0 0.05 0"/>
<feBlend mode="normal" in2="BackgroundImageFix" result="effect1_dropShadow"/>
<feBlend mode="normal" in="SourceGraphic" in2="effect1_dropShadow" result="shape"/>
</filter>
<linearGradient id="paint0_linear" x1="418.462" y1="410.076" x2="406.19" y2="401.74" gradientUnits="userSpaceOnUse">
<stop offset="0.18" stop-color="#0052CC"/>
<stop offset="1" stop-color="#2684FF"/>
</linearGradient>
<linearGradient id="paint1_linear" x1="395.692" y1="425.989" x2="407.897" y2="434.327" gradientUnits="userSpaceOnUse">
<stop offset="0.18" stop-color="#0052CC"/>
<stop offset="1" stop-color="#2684FF"/>
</linearGradient>
<radialGradient id="paint2_radial" cx="0" cy="0" r="1" gradientUnits="userSpaceOnUse" gradientTransform="translate(76.9284 229.759) rotate(29.9978) scale(32.469 28.1178)">
<stop stop-color="#FFB900"/>
<stop offset="0.6" stop-color="#F95D8F"/>
<stop offset="0.9991" stop-color="#F95353"/>
</radialGradient>
<linearGradient id="paint3_linear" x1="743.074" y1="229.264" x2="745.444" y2="248.85" gradientUnits="userSpaceOnUse">
<stop stop-color="#364088"/>
<stop offset="1" stop-color="#6E7EE1"/>
</linearGradient>
<linearGradient id="paint4_linear" x1="719.329" y1="225.473" x2="731.453" y2="246.473" gradientUnits="userSpaceOnUse">
<stop stop-color="#515FC4"/>
<stop offset="1" stop-color="#7084EA"/>
</linearGradient>
<linearGradient id="paint5_linear" x1="1.46223e-07" y1="0.552631" x2="10.1436" y2="7.6907" gradientUnits="userSpaceOnUse">
<stop stop-color="#364088"/>
<stop offset="1" stop-color="#6E7EE1"/>
</linearGradient>
<linearGradient id="paint6_linear" x1="2" y1="2" x2="11" y2="12.5" gradientUnits="userSpaceOnUse">
<stop stop-color="#4858AE"/>
<stop offset="1" stop-color="#4E60CE"/>
</linearGradient>
<linearGradient id="paint7_linear" x1="753.284" y1="213.62" x2="752.741" y2="225.855" gradientUnits="userSpaceOnUse">
<stop stop-color="#4858AE"/>
<stop offset="1" stop-color="#4E60CE"/>
</linearGradient>
<linearGradient id="paint8_linear" x1="753.284" y1="213.62" x2="752.741" y2="225.855" gradientUnits="userSpaceOnUse">
<stop stop-color="#4858AE"/>
<stop offset="1" stop-color="#4E60CE"/>
</linearGradient>
<linearGradient id="paint9_linear" x1="-9.12694e-08" y1="15.75" x2="31.5" y2="15.75" gradientUnits="userSpaceOnUse">
<stop stop-color="#2A3887"/>
<stop offset="1" stop-color="#4C56B9"/>
</linearGradient>
<clipPath id="clip0">
<rect width="56" height="56" fill="white" transform="matrix(0.866044 0.499967 -0.866044 0.499967 408.414 12.027)"/>
</clipPath>
<clipPath id="clip1">
<rect width="56" height="56" fill="white" transform="matrix(0.866044 0.499967 -0.866044 0.499967 242.951 105.916)"/>
</clipPath>
<clipPath id="clip2">
<rect width="56" height="56" fill="white" transform="matrix(0.866044 0.499967 -0.866044 0.499967 78.9026 200.621)"/>
</clipPath>
<clipPath id="clip3">
<rect width="56" height="56" fill="white" transform="matrix(0.866044 0.499967 -0.866044 0.499967 242.244 294.918)"/>
</clipPath>
<clipPath id="clip4">
<rect width="56" height="56" fill="white" transform="matrix(0.866044 0.499967 -0.866044 0.499967 570.342 105.508)"/>
</clipPath>
<clipPath id="clip5">
<rect width="56" height="56" fill="white" transform="matrix(0.866044 0.499967 -0.866044 0.499967 735.097 200.621)"/>
</clipPath>
</defs>
</svg>
