<svg width="815" height="535" viewBox="0 0 815 535" fill="none" xmlns="http://www.w3.org/2000/svg">
<path d="M87.8008 339.594L153.62 301.597C155.951 300.251 157.146 298.498 157.205 296.735L157.205 256.6L1.07323 256.6L1.07324 296.6C1.07462 298.409 2.27038 300.217 4.66051 301.597L70.4799 339.594C75.2629 342.355 83.0177 342.355 87.8008 339.594Z" fill="#E90743"/>
<path d="M4.66052 301.597L70.4799 339.594C72.8357 340.954 75.9125 341.644 79.0001 341.665L79.1392 256.6L1.07324 256.6L1.07324 296.6C1.07463 298.409 2.27038 300.217 4.66052 301.597Z" fill="#FC8DAB"/>
<path d="M70.4797 213.6C75.2627 210.839 83.0175 210.839 87.8006 213.6L153.62 251.597C158.403 254.359 158.403 258.835 153.62 261.597L87.8006 299.594C83.0175 302.355 75.2627 302.355 70.4797 299.594L4.66034 261.597C-0.122695 258.835 -0.122696 254.359 4.66033 251.597L70.4797 213.6Z" fill="#FDBFCF"/>
<path d="M744.101 339.594L809.92 301.597C812.251 300.251 813.446 298.498 813.505 296.735L813.505 256.6L657.373 256.6L657.373 296.6C657.375 298.409 658.57 300.217 660.961 301.597L726.78 339.594C731.563 342.355 739.318 342.355 744.101 339.594Z" fill="#233DC7"/>
<path d="M660.961 301.597L726.78 339.594C729.136 340.954 732.213 341.644 735.3 341.665L735.439 256.6L657.373 256.6L657.373 296.6C657.375 298.409 658.57 300.217 660.961 301.597Z" fill="#97A4ED"/>
<path d="M726.78 213.6C731.563 210.839 739.318 210.839 744.101 213.6L809.92 251.597C814.703 254.359 814.703 258.835 809.92 261.597L744.101 299.594C739.318 302.355 731.563 302.355 726.78 299.594L660.961 261.597C656.178 258.835 656.178 254.359 660.961 251.597L726.78 213.6Z" fill="#C2CAF4"/>
<path d="M417.301 151.194L483.12 113.197C485.451 111.851 486.646 110.098 486.705 108.334L486.705 68.2L330.573 68.2L330.573 108.2C330.575 110.009 331.77 111.817 334.161 113.197L399.98 151.194C404.763 153.955 412.518 153.955 417.301 151.194Z" fill="#318C4C"/>
<path d="M334.161 113.197L399.98 151.194C402.336 152.554 405.413 153.244 408.5 153.265L408.639 68.2L330.573 68.2L330.573 108.2C330.575 110.008 331.77 111.817 334.161 113.197Z" fill="#51C273"/>
<path d="M399.98 25.1996C404.763 22.4384 412.518 22.4384 417.301 25.1996L483.12 63.1971C487.903 65.9584 487.903 70.4352 483.12 73.1965L417.301 111.194C412.518 113.955 404.763 113.955 399.98 111.194L334.16 73.1965C329.377 70.4352 329.377 65.9584 334.16 63.1971L399.98 25.1996Z" fill="#78CF92"/>
<path d="M251.901 244.994L317.72 206.997C320.051 205.651 321.246 203.898 321.305 202.134L321.305 162L165.173 162L165.173 202C165.175 203.809 166.37 205.617 168.761 206.997L234.58 244.994C239.363 247.755 247.118 247.755 251.901 244.994Z" fill="#233DC7"/>
<path d="M168.761 206.997L234.58 244.994C236.936 246.354 240.013 247.044 243.1 247.065L243.239 162L165.173 162L165.173 202C165.175 203.809 166.37 205.617 168.761 206.997Z" fill="#97A4ED"/>
<path d="M234.58 119C239.363 116.238 247.118 116.238 251.901 119L317.72 156.997C322.503 159.758 322.503 164.235 317.72 166.997L251.901 204.994C247.118 207.755 239.363 207.755 234.58 204.994L168.76 166.997C163.977 164.235 163.977 159.758 168.76 156.997L234.58 119Z" fill="#C2CAF4"/>
<path d="M251.201 433.994L317.02 395.997C319.351 394.651 320.546 392.898 320.605 391.134L320.605 351L164.473 351L164.473 391C164.475 392.809 165.67 394.617 168.06 395.997L233.88 433.994C238.663 436.755 246.418 436.755 251.201 433.994Z" fill="#1F3B5C"/>
<path d="M168.06 395.997L233.88 433.994C236.236 435.354 239.312 436.044 242.4 436.065L242.539 351L164.473 351L164.473 391C164.475 392.809 165.67 394.617 168.06 395.997Z" fill="#3E75B7"/>
<path d="M233.88 308C238.663 305.238 246.417 305.238 251.2 308L317.02 345.997C321.803 348.758 321.803 353.235 317.02 355.997L251.2 393.994C246.417 396.755 238.663 396.755 233.88 393.994L168.06 355.997C163.277 353.235 163.277 348.758 168.06 345.997L233.88 308Z" fill="#A7C2E1"/>
<path d="M416.101 529.194L481.92 491.197C484.251 489.851 485.446 488.098 485.505 486.334L485.505 446.2L329.373 446.2L329.373 486.2C329.375 488.009 330.57 489.817 332.961 491.197L398.78 529.194C403.563 531.955 411.318 531.955 416.101 529.194Z" fill="#0056C7"/>
<path d="M332.961 491.197L398.78 529.194C401.136 530.554 404.213 531.244 407.3 531.265L407.439 446.2L329.373 446.2L329.373 486.2C329.375 488.008 330.57 489.817 332.961 491.197Z" fill="#61A5FF"/>
<path d="M398.78 403.2C403.563 400.438 411.318 400.438 416.101 403.2L481.92 441.197C486.703 443.958 486.703 448.435 481.92 451.196L416.101 489.194C411.318 491.955 403.563 491.955 398.78 489.194L332.961 451.196C328.178 448.435 328.178 443.958 332.961 441.197L398.78 403.2Z" fill="#B8D7FF"/>
<path d="M579.301 244.594L645.12 206.597C647.451 205.251 648.646 203.498 648.705 201.735L648.705 161.6L492.573 161.6L492.573 201.6C492.575 203.409 493.77 205.217 496.161 206.597L561.98 244.594C566.763 247.355 574.518 247.355 579.301 244.594Z" fill="#0E6977"/>
<path d="M496.161 206.597L561.98 244.594C564.336 245.954 567.413 246.644 570.5 246.665L570.639 161.6L492.573 161.6L492.573 201.6C492.575 203.409 493.77 205.217 496.161 206.597Z" fill="#1396A9"/>
<path d="M561.98 118.6C566.763 115.839 574.518 115.839 579.301 118.6L645.12 156.597C649.903 159.359 649.903 163.835 645.12 166.597L579.301 204.594C574.518 207.355 566.763 207.355 561.98 204.594L496.16 166.597C491.377 163.835 491.377 159.359 496.16 156.597L561.98 118.6Z" fill="#18BFD7"/>
<path d="M580.001 434.394L645.82 396.397C648.151 395.051 649.346 393.298 649.405 391.534L649.405 351.4L493.273 351.4L493.273 391.4C493.275 393.208 494.47 395.017 496.86 396.397L562.68 434.394C567.463 437.155 575.218 437.155 580.001 434.394Z" fill="#692C6D"/>
<path d="M496.86 396.396L562.68 434.394C565.036 435.754 568.112 436.444 571.2 436.464L571.339 351.4L493.273 351.4L493.273 391.4C493.275 393.208 494.47 395.017 496.86 396.396Z" fill="#A94DB2"/>
<path d="M562.68 308.4C567.463 305.638 575.218 305.638 580.001 308.4L645.82 346.397C650.603 349.158 650.603 353.635 645.82 356.396L580.001 394.394C575.218 397.155 567.463 397.155 562.68 394.394L496.861 356.396C492.078 353.635 492.077 349.158 496.861 346.397L562.68 308.4Z" fill="#C17FC7"/>
<path d="M415.692 356.929L508.044 303.614C511.053 301.877 512.484 299.575 512.339 297.3L512.339 241.3H298.251L298.251 297.623C298.254 299.791 299.689 301.959 302.555 303.614L394.907 356.929C400.647 360.242 409.953 360.242 415.692 356.929Z" fill="#131520"/>
<path d="M302.555 303.614L394.907 356.928C397.777 358.585 401.539 359.414 405.3 359.414L405.295 241.3H298.251L298.251 297.623C298.254 299.791 299.689 301.959 302.555 303.614Z" fill="#404668"/>
<path d="M394.907 182.3C400.647 178.986 409.953 178.986 415.692 182.3L508.044 235.614C513.784 238.928 513.784 244.3 508.044 247.614L415.692 300.929C409.953 304.242 400.647 304.242 394.907 300.929L302.555 247.614C296.816 244.3 296.816 238.928 302.555 235.614L394.907 182.3Z" fill="white"/>
<rect width="130.637" height="130.637" rx="12" transform="matrix(0.866044 0.499967 -0.866044 0.499967 405.3 176.305)" fill="#A6ABC9"/>
<path d="M408.3 177L408.3 132" stroke="#1E9F46" stroke-width="4" stroke-linecap="round" stroke-dasharray="0.1 8"/>
<path d="M405.876 398.995L404.724 333.005" stroke="#61A5FF" stroke-width="4" stroke-linecap="round" stroke-dasharray="0.1 8"/>
<path d="M160.3 274L295.3 274" stroke="#E80743" stroke-width="4" stroke-linecap="round" stroke-dasharray="0.1 8"/>
<path d="M516.3 274L653.3 274" stroke="#233DC7" stroke-width="4" stroke-linecap="round" stroke-dasharray="0.1 8"/>
<path d="M510.845 333.605L461.3 305" stroke="#AB51B3" stroke-width="4" stroke-linecap="round" stroke-dasharray="0.1 8"/>
<path d="M528.123 204L493.3 224.105" stroke="#0E6977" stroke-width="4" stroke-linecap="round" stroke-dasharray="0.1 8"/>
<path d="M285.032 204.268L316.988 222.718" stroke="#97A4ED" stroke-width="4" stroke-linecap="round" stroke-dasharray="0.1 8"/>
<path d="M301.3 334.588L351.443 305.638" stroke="#5B8CC8" stroke-width="4" stroke-linecap="round" stroke-dasharray="0.1 8"/>
</svg>
