<svg width="149" height="40" viewBox="0 0 149 40" fill="none" xmlns="http://www.w3.org/2000/svg">
<path d="M47.7244 30.7717L49.5795 26.463C51.5842 27.9591 54.2472 28.737 56.8803 28.737C58.8252 28.737 60.052 27.989 60.052 26.852C60.022 23.6803 48.4126 26.1638 48.3228 18.2047C48.2929 14.1654 51.8834 11.0536 56.9701 11.0536C59.9921 11.0536 63.0142 11.8016 65.1685 13.5071L63.4331 17.9055C61.4583 16.6488 59.0047 15.7512 56.6709 15.7512C55.085 15.7512 54.0378 16.4992 54.0378 17.4567C54.0677 20.5685 65.7669 18.863 65.8866 26.463C65.8866 30.5921 62.3858 33.4945 57.359 33.4945C53.6787 33.4945 50.2976 32.6268 47.7244 30.7717ZM118.907 24.9071C117.98 26.5229 116.244 27.6299 114.239 27.6299C111.277 27.6299 108.883 25.2362 108.883 22.274C108.883 19.3118 111.277 16.9181 114.239 16.9181C116.244 16.9181 117.98 18.0252 118.907 19.641L124.024 16.7984C122.109 13.3874 118.428 11.0536 114.239 11.0536C108.046 11.0536 103.019 16.0803 103.019 22.274C103.019 28.4677 108.046 33.4945 114.239 33.4945C118.458 33.4945 122.109 31.1906 124.024 27.7496L118.907 24.9071V24.9071ZM68.4598 1.74805H74.863V33.0756H68.4598V1.74805ZM126.537 1.74805V33.0756H132.94V23.6803L140.54 33.0756H148.739L139.074 21.915L148.02 11.5024H140.181L132.94 20.1496V1.74805H126.537ZM93.8929 24.9669C92.9653 26.4929 91.0504 27.6299 88.8961 27.6299C85.9338 27.6299 83.5401 25.2362 83.5401 22.274C83.5401 19.3118 85.9338 16.9181 88.8961 16.9181C91.0504 16.9181 92.9653 18.115 93.8929 19.6709V24.9669ZM93.8929 11.5024V14.0457C92.8457 12.2803 90.2425 11.0536 87.5197 11.0536C81.8945 11.0536 77.4661 16.0205 77.4661 22.2441C77.4661 28.4677 81.8945 33.4945 87.5197 33.4945C90.2425 33.4945 92.8457 32.2677 93.8929 30.5024V33.0457H100.296V11.5024H93.8929Z" fill="black"/>
<path d="M8.13856 24.937C8.13856 27.1213 6.37321 28.8866 4.18895 28.8866C2.0047 28.8866 0.239349 27.1213 0.239349 24.937C0.239349 22.7528 2.0047 20.9874 4.18895 20.9874H8.13856V24.937ZM10.1134 24.937C10.1134 22.7528 11.8787 20.9874 14.063 20.9874C16.2472 20.9874 18.0126 22.7528 18.0126 24.937V34.811C18.0126 36.9953 16.2472 38.7606 14.063 38.7606C11.8787 38.7606 10.1134 36.9953 10.1134 34.811V24.937Z" fill="#E01E5A"/>
<path d="M14.063 9.07875C11.8787 9.07875 10.1134 7.31339 10.1134 5.12914C10.1134 2.94489 11.8787 1.17953 14.063 1.17953C16.2472 1.17953 18.0126 2.94489 18.0126 5.12914V9.07875H14.063ZM14.063 11.0835C16.2472 11.0835 18.0126 12.8488 18.0126 15.0331C18.0126 17.2173 16.2472 18.9827 14.063 18.9827H4.15905C1.9748 18.9827 0.209442 17.2173 0.209442 15.0331C0.209442 12.8488 1.9748 11.0835 4.15905 11.0835H14.063Z" fill="#36C5F0"/>
<path d="M29.8913 15.0331C29.8913 12.8488 31.6567 11.0835 33.8409 11.0835C36.0252 11.0835 37.7905 12.8488 37.7905 15.0331C37.7905 17.2173 36.0252 18.9827 33.8409 18.9827H29.8913V15.0331ZM27.9165 15.0331C27.9165 17.2173 26.1512 18.9827 23.9669 18.9827C21.7827 18.9827 20.0173 17.2173 20.0173 15.0331V5.12914C20.0173 2.94489 21.7827 1.17953 23.9669 1.17953C26.1512 1.17953 27.9165 2.94489 27.9165 5.12914V15.0331V15.0331Z" fill="#2EB67D"/>
<path d="M23.9669 30.8614C26.1512 30.8614 27.9165 32.6268 27.9165 34.811C27.9165 36.9953 26.1512 38.7606 23.9669 38.7606C21.7827 38.7606 20.0173 36.9953 20.0173 34.811V30.8614H23.9669ZM23.9669 28.8866C21.7827 28.8866 20.0173 27.1213 20.0173 24.937C20.0173 22.7528 21.7827 20.9874 23.9669 20.9874H33.8708C36.0551 20.9874 37.8204 22.7528 37.8204 24.937C37.8204 27.1213 36.0551 28.8866 33.8708 28.8866H23.9669Z" fill="#ECB22E"/>
</svg>
