<svg width="24" height="24" viewBox="0 0 24 24" fill="none" xmlns="http://www.w3.org/2000/svg">
<path d="M19.3051 12.1C19.3051 12.6 18.9051 13 18.4051 13H12.8051V18.4C12.8051 18.9 12.4051 19.3 11.9051 19.3C11.4051 19.3 11.0051 18.9 11.0051 18.4V13H5.60508C5.10508 13 4.70508 12.6 4.70508 12.1C4.70508 11.6 5.10508 11.2 5.60508 11.2H11.0051V5.59995C11.0051 5.09995 11.4051 4.69995 11.9051 4.69995C12.4051 4.69995 12.8051 5.09995 12.8051 5.59995V11.2H18.4051C18.9051 11.2 19.3051 11.6 19.3051 12.1Z" fill="#A6ABC9"/>
</svg>
