<svg width="1155" height="658" viewBox="0 0 1155 658" fill="none" xmlns="http://www.w3.org/2000/svg">
<rect x="153" y="2" width="1000" height="592" rx="14" stroke="#ECEDF3" stroke-width="4"/>
<path d="M153.418 631.028H156.305L163.092 647.606H163.326L170.113 631.028H173V651H170.738V635.826H170.543L164.301 651H162.117L155.876 635.826H155.681V651H153.418V631.028ZM177.537 651V636.021H179.838V651H177.537ZM178.707 633.525C178.259 633.525 177.872 633.372 177.547 633.066C177.228 632.761 177.069 632.394 177.069 631.965C177.069 631.535 177.228 631.168 177.547 630.863C177.872 630.557 178.259 630.404 178.707 630.404C179.156 630.404 179.539 630.557 179.858 630.863C180.183 631.168 180.346 631.535 180.346 631.965C180.346 632.394 180.183 632.761 179.858 633.066C179.539 633.372 179.156 633.525 178.707 633.525ZM186.355 641.989V651H184.054V636.021H186.277V638.362H186.472C186.823 637.601 187.356 636.99 188.071 636.528C188.786 636.06 189.71 635.826 190.841 635.826C191.855 635.826 192.742 636.034 193.503 636.45C194.264 636.86 194.855 637.484 195.278 638.323C195.701 639.155 195.912 640.208 195.912 641.482V651H193.61V641.638C193.61 640.462 193.305 639.545 192.694 638.888C192.083 638.225 191.244 637.894 190.178 637.894C189.443 637.894 188.786 638.053 188.208 638.371C187.636 638.69 187.184 639.155 186.852 639.766C186.521 640.377 186.355 641.118 186.355 641.989ZM200.117 651V636.021H202.419V651H200.117ZM201.287 633.525C200.839 633.525 200.452 633.372 200.127 633.066C199.808 632.761 199.649 632.394 199.649 631.965C199.649 631.535 199.808 631.168 200.127 630.863C200.452 630.557 200.839 630.404 201.287 630.404C201.736 630.404 202.12 630.557 202.438 630.863C202.763 631.168 202.926 631.535 202.926 631.965C202.926 632.394 202.763 632.761 202.438 633.066C202.12 633.372 201.736 633.525 201.287 633.525ZM206.634 651V636.021H208.857V638.362H209.052C209.364 637.562 209.868 636.941 210.564 636.499C211.259 636.051 212.095 635.826 213.07 635.826C214.058 635.826 214.881 636.051 215.537 636.499C216.2 636.941 216.717 637.562 217.088 638.362H217.244C217.627 637.588 218.203 636.974 218.97 636.519C219.737 636.057 220.657 635.826 221.73 635.826C223.069 635.826 224.164 636.246 225.016 637.084C225.868 637.916 226.293 639.213 226.293 640.975V651H223.992V640.975C223.992 639.87 223.69 639.08 223.085 638.605C222.48 638.131 221.769 637.894 220.949 637.894C219.896 637.894 219.08 638.212 218.502 638.849C217.923 639.48 217.634 640.28 217.634 641.248V651H215.293V640.741C215.293 639.889 215.017 639.204 214.465 638.684C213.912 638.157 213.2 637.894 212.329 637.894C211.731 637.894 211.172 638.053 210.652 638.371C210.138 638.69 209.722 639.132 209.403 639.698C209.091 640.257 208.935 640.904 208.935 641.638V651H206.634ZM239.941 644.876V636.021H242.242V651H239.941V648.465H239.785C239.434 649.225 238.888 649.872 238.147 650.405C237.406 650.932 236.469 651.195 235.338 651.195C234.402 651.195 233.57 650.99 232.842 650.581C232.114 650.165 231.542 649.54 231.125 648.708C230.709 647.87 230.501 646.813 230.501 645.539V636.021H232.803V645.383C232.803 646.475 233.108 647.346 233.719 647.996C234.337 648.647 235.124 648.972 236.079 648.972C236.651 648.972 237.233 648.825 237.825 648.533C238.423 648.24 238.924 647.792 239.327 647.187C239.736 646.582 239.941 645.812 239.941 644.876ZM246.458 651V636.021H248.681V638.362H248.876C249.188 637.562 249.692 636.941 250.388 636.499C251.083 636.051 251.919 635.826 252.894 635.826C253.882 635.826 254.704 636.051 255.361 636.499C256.024 636.941 256.541 637.562 256.912 638.362H257.068C257.451 637.588 258.027 636.974 258.794 636.519C259.561 636.057 260.481 635.826 261.553 635.826C262.893 635.826 263.988 636.246 264.84 637.084C265.691 637.916 266.117 639.213 266.117 640.975V651H263.816V640.975C263.816 639.87 263.514 639.08 262.909 638.605C262.304 638.131 261.592 637.894 260.773 637.894C259.72 637.894 258.904 638.212 258.326 638.849C257.747 639.48 257.458 640.28 257.458 641.248V651H255.117V640.741C255.117 639.889 254.841 639.204 254.288 638.684C253.736 638.157 253.024 637.894 252.153 637.894C251.555 637.894 250.995 638.053 250.475 638.371C249.962 638.69 249.546 639.132 249.227 639.698C248.915 640.257 248.759 640.904 248.759 641.638V651H246.458ZM288.658 639.376L286.591 639.961C286.461 639.616 286.269 639.282 286.016 638.957C285.769 638.625 285.431 638.352 285.002 638.137C284.572 637.923 284.023 637.816 283.354 637.816C282.437 637.816 281.673 638.027 281.062 638.449C280.457 638.866 280.155 639.395 280.155 640.039C280.155 640.611 280.363 641.063 280.779 641.395C281.195 641.726 281.845 642.002 282.729 642.223L284.953 642.77C286.292 643.095 287.29 643.592 287.947 644.262C288.603 644.925 288.932 645.78 288.932 646.826C288.932 647.684 288.684 648.452 288.19 649.128C287.703 649.804 287.02 650.337 286.143 650.727C285.265 651.117 284.244 651.312 283.08 651.312C281.553 651.312 280.288 650.98 279.287 650.317C278.286 649.654 277.652 648.686 277.385 647.411L279.57 646.865C279.778 647.671 280.171 648.276 280.75 648.679C281.335 649.082 282.099 649.284 283.041 649.284C284.114 649.284 284.966 649.056 285.596 648.601C286.234 648.139 286.552 647.587 286.552 646.943C286.552 646.423 286.37 645.988 286.006 645.637C285.642 645.279 285.083 645.012 284.329 644.837L281.832 644.252C280.46 643.927 279.453 643.423 278.809 642.74C278.172 642.051 277.854 641.19 277.854 640.156C277.854 639.311 278.091 638.563 278.565 637.913C279.046 637.263 279.7 636.753 280.525 636.382C281.358 636.012 282.3 635.826 283.354 635.826C284.836 635.826 285.999 636.151 286.845 636.801C287.696 637.452 288.301 638.31 288.658 639.376ZM298.481 651.312C297.077 651.312 295.867 650.98 294.853 650.317C293.839 649.654 293.059 648.741 292.513 647.577C291.967 646.413 291.694 645.084 291.694 643.589C291.694 642.067 291.973 640.725 292.532 639.561C293.098 638.391 293.885 637.478 294.892 636.821C295.906 636.158 297.09 635.826 298.442 635.826C299.495 635.826 300.444 636.021 301.289 636.411C302.135 636.801 302.827 637.348 303.367 638.05C303.906 638.752 304.241 639.571 304.371 640.507H302.07C301.894 639.824 301.504 639.22 300.899 638.693C300.301 638.16 299.495 637.894 298.481 637.894C297.584 637.894 296.797 638.128 296.121 638.596C295.451 639.057 294.928 639.711 294.551 640.556C294.18 641.395 293.995 642.379 293.995 643.511C293.995 644.668 294.177 645.676 294.541 646.534C294.912 647.392 295.432 648.058 296.102 648.533C296.778 649.007 297.571 649.245 298.481 649.245C299.079 649.245 299.622 649.141 300.109 648.933C300.597 648.725 301.01 648.426 301.348 648.035C301.686 647.645 301.927 647.177 302.07 646.631H304.371C304.241 647.515 303.919 648.312 303.406 649.02C302.898 649.723 302.226 650.282 301.387 650.698C300.555 651.107 299.586 651.312 298.481 651.312ZM313.82 651.312C312.468 651.312 311.282 650.99 310.261 650.347C309.247 649.703 308.454 648.803 307.882 647.645C307.316 646.488 307.033 645.136 307.033 643.589C307.033 642.028 307.316 640.666 307.882 639.503C308.454 638.339 309.247 637.435 310.261 636.792C311.282 636.148 312.468 635.826 313.82 635.826C315.173 635.826 316.356 636.148 317.37 636.792C318.391 637.435 319.184 638.339 319.75 639.503C320.322 640.666 320.608 642.028 320.608 643.589C320.608 645.136 320.322 646.488 319.75 647.645C319.184 648.803 318.391 649.703 317.37 650.347C316.356 650.99 315.173 651.312 313.82 651.312ZM313.82 649.245C314.848 649.245 315.693 648.981 316.356 648.455C317.019 647.928 317.51 647.236 317.828 646.378C318.147 645.52 318.306 644.59 318.306 643.589C318.306 642.587 318.147 641.655 317.828 640.79C317.51 639.925 317.019 639.226 316.356 638.693C315.693 638.16 314.848 637.894 313.82 637.894C312.793 637.894 311.948 638.16 311.285 638.693C310.622 639.226 310.131 639.925 309.812 640.79C309.494 641.655 309.335 642.587 309.335 643.589C309.335 644.59 309.494 645.52 309.812 646.378C310.131 647.236 310.622 647.928 311.285 648.455C311.948 648.981 312.793 649.245 313.82 649.245ZM324.121 651V636.021H326.344V638.284H326.5C326.773 637.543 327.267 636.941 327.982 636.48C328.698 636.018 329.504 635.787 330.401 635.787C330.57 635.787 330.781 635.79 331.035 635.797C331.288 635.803 331.48 635.813 331.61 635.826V638.167C331.532 638.147 331.353 638.118 331.074 638.079C330.801 638.033 330.511 638.011 330.206 638.011C329.478 638.011 328.828 638.163 328.256 638.469C327.69 638.768 327.241 639.184 326.91 639.717C326.585 640.244 326.422 640.845 326.422 641.521V651H324.121ZM340.162 651.312C338.719 651.312 337.474 650.993 336.428 650.356C335.387 649.713 334.584 648.816 334.019 647.665C333.46 646.508 333.18 645.162 333.18 643.628C333.18 642.093 333.46 640.741 334.019 639.571C334.584 638.394 335.371 637.478 336.379 636.821C337.393 636.158 338.576 635.826 339.928 635.826C340.709 635.826 341.479 635.956 342.24 636.216C343 636.476 343.693 636.899 344.317 637.484C344.941 638.063 345.438 638.83 345.809 639.785C346.179 640.741 346.365 641.918 346.365 643.316V644.291H334.818V642.301H344.024C344.024 641.456 343.855 640.702 343.517 640.039C343.185 639.376 342.711 638.853 342.093 638.469C341.482 638.085 340.761 637.894 339.928 637.894C339.012 637.894 338.219 638.121 337.549 638.576C336.886 639.025 336.376 639.61 336.018 640.332C335.66 641.053 335.482 641.827 335.482 642.652V643.979C335.482 645.11 335.677 646.069 336.067 646.855C336.463 647.636 337.013 648.23 337.715 648.64C338.417 649.043 339.233 649.245 340.162 649.245C340.767 649.245 341.313 649.16 341.801 648.991C342.295 648.816 342.721 648.556 343.078 648.211C343.436 647.86 343.712 647.424 343.907 646.904L346.131 647.528C345.896 648.283 345.503 648.946 344.951 649.518C344.398 650.083 343.715 650.525 342.903 650.844C342.09 651.156 341.177 651.312 340.162 651.312Z" fill="#131520"/>
<path d="M78.5816 554.273C77.1123 554.273 75.8608 553.873 74.8271 553.074C73.7934 552.267 73.0035 551.1 72.4574 549.573C71.9113 548.038 71.6383 546.186 71.6383 544.014C71.6383 541.856 71.9113 540.013 72.4574 538.485C73.01 536.951 73.8032 535.78 74.8369 534.974C75.8771 534.162 77.1253 533.755 78.5816 533.755C80.0378 533.755 81.2828 534.162 82.3165 534.974C83.3567 535.78 84.1498 536.951 84.6959 538.485C85.2485 540.013 85.5248 541.856 85.5248 544.014C85.5248 546.186 85.2518 548.038 84.7057 549.573C84.1596 551.1 83.3697 552.267 82.336 553.074C81.3023 553.873 80.0508 554.273 78.5816 554.273ZM78.5816 552.128C80.0378 552.128 81.169 551.426 81.9752 550.021C82.7813 548.617 83.1844 546.615 83.1844 544.014C83.1844 542.285 82.9991 540.812 82.6285 539.597C82.2645 538.381 81.7379 537.454 81.0488 536.817C80.3661 536.18 79.5437 535.862 78.5816 535.862C77.1383 535.862 76.0103 536.574 75.1977 537.997C74.385 539.415 73.9787 541.42 73.9787 544.014C73.9787 545.743 74.1608 547.213 74.5248 548.422C74.8889 549.631 75.4122 550.551 76.0949 551.182C76.784 551.812 77.6129 552.128 78.5816 552.128ZM90.2496 554.156C89.7685 554.156 89.3556 553.984 89.0111 553.639C88.6665 553.295 88.4942 552.882 88.4942 552.401C88.4942 551.92 88.6665 551.507 89.0111 551.162C89.3556 550.818 89.7685 550.645 90.2496 550.645C90.7306 550.645 91.1435 550.818 91.488 551.162C91.8326 551.507 92.0049 551.92 92.0049 552.401C92.0049 552.719 91.9236 553.012 91.7611 553.278C91.6051 553.545 91.3938 553.759 91.1272 553.922C90.8672 554.078 90.5746 554.156 90.2496 554.156ZM101.913 554.273C100.443 554.273 99.1919 553.873 98.1582 553.074C97.1246 552.267 96.3347 551.1 95.7886 549.573C95.2425 548.038 94.9694 546.186 94.9694 544.014C94.9694 541.856 95.2425 540.013 95.7886 538.485C96.3412 536.951 97.1343 535.78 98.168 534.974C99.2082 534.162 100.456 533.755 101.913 533.755C103.369 533.755 104.614 534.162 105.648 534.974C106.688 535.78 107.481 536.951 108.027 538.485C108.58 540.013 108.856 541.856 108.856 544.014C108.856 546.186 108.583 548.038 108.037 549.573C107.491 551.1 106.701 552.267 105.667 553.074C104.633 553.873 103.382 554.273 101.913 554.273ZM101.913 552.128C103.369 552.128 104.5 551.426 105.306 550.021C106.112 548.617 106.516 546.615 106.516 544.014C106.516 542.285 106.33 540.812 105.96 539.597C105.596 538.381 105.069 537.454 104.38 536.817C103.697 536.18 102.875 535.862 101.913 535.862C100.469 535.862 99.3415 536.574 98.5288 537.997C97.7162 539.415 97.3098 541.42 97.3098 544.014C97.3098 545.743 97.4919 547.213 97.8559 548.422C98.22 549.631 98.7433 550.551 99.426 551.182C100.115 551.812 100.944 552.128 101.913 552.128ZM122.742 550.255V549.202C122.742 548.474 122.892 547.808 123.191 547.203C123.497 546.592 123.939 546.104 124.517 545.74C125.102 545.37 125.811 545.184 126.643 545.184C127.488 545.184 128.197 545.37 128.769 545.74C129.341 546.104 129.773 546.592 130.066 547.203C130.359 547.808 130.505 548.474 130.505 549.202V550.255C130.505 550.983 130.355 551.653 130.056 552.264C129.764 552.869 129.328 553.356 128.75 553.727C128.177 554.091 127.475 554.273 126.643 554.273C125.798 554.273 125.086 554.091 124.508 553.727C123.929 553.356 123.49 552.869 123.191 552.264C122.892 551.653 122.742 550.983 122.742 550.255ZM124.732 549.202V550.255C124.732 550.86 124.875 551.403 125.161 551.884C125.447 552.358 125.941 552.596 126.643 552.596C127.326 552.596 127.807 552.358 128.086 551.884C128.372 551.403 128.516 550.86 128.516 550.255V549.202C128.516 548.598 128.379 548.058 128.106 547.583C127.833 547.102 127.345 546.862 126.643 546.862C125.961 546.862 125.47 547.102 125.171 547.583C124.878 548.058 124.732 548.598 124.732 549.202ZM112.796 538.826V537.773C112.796 537.045 112.945 536.379 113.244 535.774C113.55 535.163 113.992 534.675 114.57 534.311C115.156 533.941 115.864 533.755 116.696 533.755C117.542 533.755 118.25 533.941 118.822 534.311C119.394 534.675 119.827 535.163 120.119 535.774C120.412 536.379 120.558 537.045 120.558 537.773V538.826C120.558 539.554 120.409 540.224 120.109 540.835C119.817 541.44 119.381 541.927 118.803 542.298C118.231 542.662 117.529 542.844 116.696 542.844C115.851 542.844 115.139 542.662 114.561 542.298C113.982 541.927 113.543 541.44 113.244 540.835C112.945 540.224 112.796 539.554 112.796 538.826ZM114.785 537.773V538.826C114.785 539.431 114.928 539.974 115.214 540.455C115.5 540.929 115.994 541.167 116.696 541.167C117.379 541.167 117.86 540.929 118.14 540.455C118.426 539.974 118.569 539.431 118.569 538.826V537.773C118.569 537.168 118.432 536.629 118.159 536.154C117.886 535.673 117.398 535.433 116.696 535.433C116.014 535.433 115.523 535.673 115.224 536.154C114.931 536.629 114.785 537.168 114.785 537.773ZM113.537 554L127.267 534.028H129.491L115.76 554H113.537Z" fill="#A6ABC9"/>
<path d="M79.0887 338.028V358H76.6702V340.564H76.5532L71.6773 343.801V341.344L76.6702 338.028H79.0887ZM85.3688 358.156C84.8877 358.156 84.4749 357.984 84.1303 357.639C83.7858 357.295 83.6135 356.882 83.6135 356.401C83.6135 355.92 83.7858 355.507 84.1303 355.162C84.4749 354.818 84.8877 354.645 85.3688 354.645C85.8499 354.645 86.2627 354.818 86.6073 355.162C86.9518 355.507 87.1241 355.92 87.1241 356.401C87.1241 356.719 87.0428 357.012 86.8803 357.278C86.7243 357.545 86.513 357.759 86.2465 357.922C85.9864 358.078 85.6939 358.156 85.3688 358.156ZM97.0319 358.273C95.5626 358.273 94.3112 357.873 93.2775 357.074C92.2438 356.267 91.4539 355.1 90.9078 353.573C90.3617 352.038 90.0887 350.186 90.0887 348.014C90.0887 345.856 90.3617 344.013 90.9078 342.485C91.4604 340.951 92.2535 339.78 93.2872 338.974C94.3274 338.162 95.5756 337.755 97.0319 337.755C98.4882 337.755 99.7332 338.162 100.767 338.974C101.807 339.78 102.6 340.951 103.146 342.485C103.699 344.013 103.975 345.856 103.975 348.014C103.975 350.186 103.702 352.038 103.156 353.573C102.61 355.1 101.82 356.267 100.786 357.074C99.7527 357.873 98.5012 358.273 97.0319 358.273ZM97.0319 356.128C98.4882 356.128 99.6194 355.426 100.426 354.021C101.232 352.617 101.635 350.615 101.635 348.014C101.635 346.285 101.449 344.812 101.079 343.597C100.715 342.381 100.188 341.454 99.4991 340.817C98.8165 340.18 97.9941 339.862 97.0319 339.862C95.5887 339.862 94.4607 340.574 93.648 341.997C92.8354 343.415 92.4291 345.42 92.4291 348.014C92.4291 349.743 92.6111 351.213 92.9752 352.422C93.3392 353.631 93.8626 354.551 94.5452 355.182C95.2343 355.812 96.0632 356.128 97.0319 356.128ZM117.862 354.255V353.202C117.862 352.474 118.011 351.808 118.31 351.203C118.616 350.592 119.058 350.104 119.637 349.74C120.222 349.37 120.93 349.184 121.762 349.184C122.608 349.184 123.316 349.37 123.888 349.74C124.46 350.104 124.893 350.592 125.185 351.203C125.478 351.808 125.624 352.474 125.624 353.202V354.255C125.624 354.983 125.475 355.653 125.176 356.264C124.883 356.869 124.447 357.356 123.869 357.727C123.297 358.091 122.595 358.273 121.762 358.273C120.917 358.273 120.205 358.091 119.627 357.727C119.048 357.356 118.609 356.869 118.31 356.264C118.011 355.653 117.862 354.983 117.862 354.255ZM119.851 353.202V354.255C119.851 354.86 119.994 355.403 120.28 355.884C120.566 356.358 121.06 356.596 121.762 356.596C122.445 356.596 122.926 356.358 123.206 355.884C123.492 355.403 123.635 354.86 123.635 354.255V353.202C123.635 352.598 123.498 352.058 123.225 351.583C122.952 351.102 122.465 350.862 121.762 350.862C121.08 350.862 120.589 351.102 120.29 351.583C119.997 352.058 119.851 352.598 119.851 353.202ZM107.915 342.826V341.773C107.915 341.045 108.064 340.379 108.363 339.774C108.669 339.163 109.111 338.675 109.69 338.311C110.275 337.941 110.983 337.755 111.816 337.755C112.661 337.755 113.369 337.941 113.941 338.311C114.514 338.675 114.946 339.163 115.238 339.774C115.531 340.379 115.677 341.045 115.677 341.773V342.826C115.677 343.554 115.528 344.224 115.229 344.835C114.936 345.44 114.501 345.927 113.922 346.298C113.35 346.662 112.648 346.844 111.816 346.844C110.97 346.844 110.259 346.662 109.68 346.298C109.101 345.927 108.663 345.44 108.363 344.835C108.064 344.224 107.915 343.554 107.915 342.826ZM109.904 341.773V342.826C109.904 343.431 110.047 343.974 110.333 344.455C110.619 344.929 111.113 345.167 111.816 345.167C112.498 345.167 112.979 344.929 113.259 344.455C113.545 343.974 113.688 343.431 113.688 342.826V341.773C113.688 341.168 113.551 340.629 113.278 340.154C113.005 339.673 112.518 339.433 111.816 339.433C111.133 339.433 110.642 339.673 110.343 340.154C110.051 340.629 109.904 341.168 109.904 341.773ZM108.656 358L122.387 338.028H124.61L110.879 358H108.656Z" fill="#A6ABC9"/>
<path d="M72.0674 162V160.245L78.6596 153.028C79.4332 152.183 80.0703 151.449 80.5709 150.824C81.0715 150.194 81.4421 149.602 81.6826 149.05C81.9297 148.491 82.0532 147.905 82.0532 147.294C82.0532 146.592 81.8842 145.984 81.5461 145.471C81.2145 144.957 80.7595 144.561 80.1809 144.281C79.6022 144.001 78.9521 143.862 78.2305 143.862C77.4634 143.862 76.7937 144.021 76.2216 144.34C75.656 144.652 75.2172 145.09 74.9051 145.656C74.5996 146.222 74.4468 146.885 74.4468 147.645H72.1454C72.1454 146.475 72.4152 145.448 72.9548 144.564C73.4944 143.68 74.229 142.991 75.1587 142.496C76.0949 142.002 77.1448 141.755 78.3085 141.755C79.4787 141.755 80.5157 142.002 81.4193 142.496C82.323 142.991 83.0316 143.657 83.5452 144.496C84.0588 145.334 84.3156 146.267 84.3156 147.294C84.3156 148.029 84.1823 148.747 83.9158 149.449C83.6557 150.145 83.2007 150.922 82.5505 151.78C81.9069 152.632 81.013 153.672 79.8688 154.901L75.383 159.699V159.855H84.6667V162H72.0674ZM90.4105 162.156C89.9294 162.156 89.5165 161.984 89.172 161.639C88.8274 161.295 88.6551 160.882 88.6551 160.401C88.6551 159.92 88.8274 159.507 89.172 159.162C89.5165 158.818 89.9294 158.645 90.4105 158.645C90.8915 158.645 91.3044 158.818 91.6489 159.162C91.9935 159.507 92.1658 159.92 92.1658 160.401C92.1658 160.719 92.0845 161.012 91.922 161.278C91.766 161.545 91.5547 161.759 91.2881 161.922C91.0281 162.078 90.7355 162.156 90.4105 162.156ZM102.074 162.273C100.604 162.273 99.3528 161.873 98.3191 161.074C97.2855 160.267 96.4956 159.1 95.9495 157.573C95.4034 156.038 95.1303 154.186 95.1303 152.014C95.1303 149.856 95.4034 148.013 95.9495 146.485C96.5021 144.951 97.2952 143.78 98.3289 142.974C99.3691 142.162 100.617 141.755 102.074 141.755C103.53 141.755 104.775 142.162 105.809 142.974C106.849 143.78 107.642 144.951 108.188 146.485C108.741 148.013 109.017 149.856 109.017 152.014C109.017 154.186 108.744 156.038 108.198 157.573C107.652 159.1 106.862 160.267 105.828 161.074C104.794 161.873 103.543 162.273 102.074 162.273ZM102.074 160.128C103.53 160.128 104.661 159.426 105.467 158.021C106.273 156.617 106.676 154.615 106.676 152.014C106.676 150.285 106.491 148.812 106.121 147.597C105.757 146.381 105.23 145.454 104.541 144.817C103.858 144.18 103.036 143.862 102.074 143.862C100.63 143.862 99.5024 144.574 98.6897 145.997C97.8771 147.415 97.4707 149.42 97.4707 152.014C97.4707 153.743 97.6528 155.213 98.0168 156.422C98.3809 157.631 98.9043 158.551 99.5869 159.182C100.276 159.812 101.105 160.128 102.074 160.128ZM122.903 158.255V157.202C122.903 156.474 123.053 155.808 123.352 155.203C123.658 154.592 124.1 154.104 124.678 153.74C125.263 153.37 125.972 153.184 126.804 153.184C127.649 153.184 128.358 153.37 128.93 153.74C129.502 154.104 129.934 154.592 130.227 155.203C130.52 155.808 130.666 156.474 130.666 157.202V158.255C130.666 158.983 130.516 159.653 130.217 160.264C129.925 160.869 129.489 161.356 128.91 161.727C128.338 162.091 127.636 162.273 126.804 162.273C125.959 162.273 125.247 162.091 124.668 161.727C124.09 161.356 123.651 160.869 123.352 160.264C123.053 159.653 122.903 158.983 122.903 158.255ZM124.893 157.202V158.255C124.893 158.86 125.036 159.403 125.322 159.884C125.608 160.358 126.102 160.596 126.804 160.596C127.487 160.596 127.968 160.358 128.247 159.884C128.533 159.403 128.676 158.86 128.676 158.255V157.202C128.676 156.598 128.54 156.058 128.267 155.583C127.994 155.102 127.506 154.862 126.804 154.862C126.121 154.862 125.631 155.102 125.332 155.583C125.039 156.058 124.893 156.598 124.893 157.202ZM112.957 146.826V145.773C112.957 145.045 113.106 144.379 113.405 143.774C113.711 143.163 114.153 142.675 114.731 142.311C115.316 141.941 116.025 141.755 116.857 141.755C117.702 141.755 118.411 141.941 118.983 142.311C119.555 142.675 119.988 143.163 120.28 143.774C120.573 144.379 120.719 145.045 120.719 145.773V146.826C120.719 147.554 120.569 148.224 120.27 148.835C119.978 149.44 119.542 149.927 118.964 150.298C118.392 150.662 117.689 150.844 116.857 150.844C116.012 150.844 115.3 150.662 114.722 150.298C114.143 149.927 113.704 149.44 113.405 148.835C113.106 148.224 112.957 147.554 112.957 146.826ZM114.946 145.773V146.826C114.946 147.431 115.089 147.974 115.375 148.455C115.661 148.929 116.155 149.167 116.857 149.167C117.54 149.167 118.021 148.929 118.301 148.455C118.587 147.974 118.73 147.431 118.73 146.826V145.773C118.73 145.168 118.593 144.629 118.32 144.154C118.047 143.673 117.559 143.433 116.857 143.433C116.175 143.433 115.684 143.673 115.385 144.154C115.092 144.629 114.946 145.168 114.946 145.773ZM113.698 162L127.428 142.028H129.652L115.921 162H113.698Z" fill="#A6ABC9"/>
<path d="M947.771 631.028H950.658L957.445 647.606H957.679L964.467 631.028H967.353V651H965.091V635.826H964.896L958.654 651H956.47L950.229 635.826H950.034V651H947.771V631.028ZM976.298 651.351C975.349 651.351 974.487 651.172 973.714 650.815C972.94 650.451 972.326 649.927 971.871 649.245C971.415 648.556 971.188 647.723 971.188 646.748C971.188 645.89 971.357 645.194 971.695 644.661C972.033 644.122 972.485 643.699 973.051 643.394C973.616 643.088 974.24 642.861 974.923 642.711C975.612 642.555 976.304 642.431 977 642.34C977.91 642.223 978.648 642.136 979.214 642.077C979.786 642.012 980.202 641.905 980.462 641.755C980.728 641.606 980.862 641.346 980.862 640.975V640.897C980.862 639.935 980.598 639.187 980.072 638.654C979.552 638.121 978.762 637.855 977.702 637.855C976.603 637.855 975.742 638.095 975.118 638.576C974.494 639.057 974.055 639.571 973.801 640.117L971.617 639.337C972.007 638.427 972.527 637.718 973.177 637.211C973.834 636.697 974.549 636.34 975.323 636.138C976.103 635.93 976.87 635.826 977.624 635.826C978.105 635.826 978.658 635.885 979.282 636.002C979.913 636.112 980.52 636.343 981.105 636.694C981.697 637.045 982.188 637.575 982.578 638.284C982.968 638.992 983.163 639.941 983.163 641.131V651H980.862V648.972H980.745C980.589 649.297 980.329 649.645 979.965 650.015C979.6 650.386 979.116 650.701 978.512 650.961C977.907 651.221 977.169 651.351 976.298 651.351ZM976.649 649.284C977.559 649.284 978.326 649.105 978.95 648.747C979.581 648.39 980.056 647.928 980.374 647.363C980.699 646.797 980.862 646.202 980.862 645.578V643.472C980.764 643.589 980.55 643.696 980.218 643.793C979.893 643.884 979.516 643.966 979.087 644.037C978.664 644.102 978.251 644.161 977.848 644.213C977.452 644.258 977.13 644.297 976.883 644.33C976.285 644.408 975.726 644.535 975.206 644.71C974.692 644.879 974.276 645.136 973.957 645.48C973.645 645.819 973.489 646.28 973.489 646.865C973.489 647.665 973.785 648.27 974.377 648.679C974.975 649.082 975.732 649.284 976.649 649.284ZM989.08 636.021L992.669 642.145L996.257 636.021H998.91L994.073 643.511L998.91 651H996.257L992.669 645.188L989.08 651H986.428L991.186 643.511L986.428 636.021H989.08ZM1002.19 651V636.021H1004.5V651H1002.19ZM1003.36 633.525C1002.92 633.525 1002.53 633.372 1002.2 633.066C1001.88 632.761 1001.73 632.394 1001.73 631.965C1001.73 631.535 1001.88 631.168 1002.2 630.863C1002.53 630.557 1002.92 630.404 1003.36 630.404C1003.81 630.404 1004.2 630.557 1004.51 630.863C1004.84 631.168 1005 631.535 1005 631.965C1005 632.394 1004.84 632.761 1004.51 633.066C1004.2 633.372 1003.81 633.525 1003.36 633.525ZM1008.71 651V636.021H1010.93V638.362H1011.13C1011.44 637.562 1011.94 636.941 1012.64 636.499C1013.34 636.051 1014.17 635.826 1015.15 635.826C1016.13 635.826 1016.96 636.051 1017.61 636.499C1018.28 636.941 1018.79 637.562 1019.16 638.362H1019.32C1019.7 637.588 1020.28 636.974 1021.05 636.519C1021.81 636.057 1022.73 635.826 1023.81 635.826C1025.15 635.826 1026.24 636.246 1027.09 637.084C1027.94 637.916 1028.37 639.213 1028.37 640.975V651H1026.07V640.975C1026.07 639.87 1025.77 639.08 1025.16 638.605C1024.56 638.131 1023.85 637.894 1023.03 637.894C1021.97 637.894 1021.16 638.212 1020.58 638.849C1020 639.48 1019.71 640.28 1019.71 641.248V651H1017.37V640.741C1017.37 639.889 1017.09 639.204 1016.54 638.684C1015.99 638.157 1015.28 637.894 1014.41 637.894C1013.81 637.894 1013.25 638.053 1012.73 638.371C1012.21 638.69 1011.8 639.132 1011.48 639.698C1011.17 640.257 1011.01 640.904 1011.01 641.638V651H1008.71ZM1042.02 644.876V636.021H1044.32V651H1042.02V648.465H1041.86C1041.51 649.225 1040.96 649.872 1040.22 650.405C1039.48 650.932 1038.55 651.195 1037.41 651.195C1036.48 651.195 1035.65 650.99 1034.92 650.581C1034.19 650.165 1033.62 649.54 1033.2 648.708C1032.79 647.87 1032.58 646.813 1032.58 645.539V636.021H1034.88V645.383C1034.88 646.475 1035.18 647.346 1035.8 647.996C1036.41 648.647 1037.2 648.972 1038.16 648.972C1038.73 648.972 1039.31 648.825 1039.9 648.533C1040.5 648.24 1041 647.792 1041.4 647.187C1041.81 646.582 1042.02 645.812 1042.02 644.876ZM1048.53 651V636.021H1050.76V638.362H1050.95C1051.26 637.562 1051.77 636.941 1052.46 636.499C1053.16 636.051 1054 635.826 1054.97 635.826C1055.96 635.826 1056.78 636.051 1057.44 636.499C1058.1 636.941 1058.62 637.562 1058.99 638.362H1059.14C1059.53 637.588 1060.1 636.974 1060.87 636.519C1061.64 636.057 1062.56 635.826 1063.63 635.826C1064.97 635.826 1066.06 636.246 1066.92 637.084C1067.77 637.916 1068.19 639.213 1068.19 640.975V651H1065.89V640.975C1065.89 639.87 1065.59 639.08 1064.99 638.605C1064.38 638.131 1063.67 637.894 1062.85 637.894C1061.8 637.894 1060.98 638.212 1060.4 638.849C1059.82 639.48 1059.53 640.28 1059.53 641.248V651H1057.19V640.741C1057.19 639.889 1056.92 639.204 1056.36 638.684C1055.81 638.157 1055.1 637.894 1054.23 637.894C1053.63 637.894 1053.07 638.053 1052.55 638.371C1052.04 638.69 1051.62 639.132 1051.3 639.698C1050.99 640.257 1050.84 640.904 1050.84 641.638V651H1048.53ZM1091.36 636.021C1091.24 635.033 1090.77 634.266 1089.94 633.72C1089.1 633.174 1088.08 632.901 1086.87 632.901C1085.99 632.901 1085.22 633.044 1084.55 633.33C1083.9 633.616 1083.38 634.009 1083.01 634.51C1082.65 635.01 1082.47 635.579 1082.47 636.216C1082.47 636.749 1082.59 637.208 1082.85 637.591C1083.11 637.968 1083.44 638.284 1083.84 638.537C1084.24 638.784 1084.67 638.989 1085.11 639.152C1085.55 639.308 1085.96 639.434 1086.33 639.532L1088.36 640.078C1088.88 640.215 1089.45 640.403 1090.09 640.644C1090.73 640.884 1091.35 641.212 1091.93 641.629C1092.53 642.038 1093.01 642.565 1093.4 643.208C1093.78 643.852 1093.97 644.642 1093.97 645.578C1093.97 646.657 1093.69 647.632 1093.12 648.504C1092.57 649.375 1091.75 650.067 1090.67 650.581C1089.59 651.094 1088.29 651.351 1086.76 651.351C1085.33 651.351 1084.09 651.12 1083.04 650.659C1082 650.197 1081.18 649.553 1080.58 648.728C1079.99 647.902 1079.66 646.943 1079.58 645.851H1082.08C1082.14 646.605 1082.39 647.229 1082.84 647.723C1083.28 648.211 1083.85 648.575 1084.53 648.816C1085.22 649.05 1085.96 649.167 1086.76 649.167C1087.68 649.167 1088.51 649.017 1089.24 648.718C1089.98 648.413 1090.56 647.99 1090.99 647.45C1091.42 646.904 1091.63 646.267 1091.63 645.539C1091.63 644.876 1091.45 644.336 1091.08 643.92C1090.71 643.504 1090.22 643.166 1089.61 642.906C1089.01 642.646 1088.36 642.418 1087.65 642.223L1085.2 641.521C1083.64 641.073 1082.4 640.432 1081.49 639.6C1080.58 638.768 1080.12 637.679 1080.12 636.333C1080.12 635.215 1080.43 634.24 1081.03 633.408C1081.64 632.569 1082.46 631.919 1083.49 631.457C1084.52 630.989 1085.68 630.755 1086.95 630.755C1088.24 630.755 1089.38 630.986 1090.38 631.448C1091.39 631.903 1092.18 632.527 1092.76 633.32C1093.35 634.113 1093.67 635.014 1093.7 636.021H1091.36ZM1103.72 651.312C1102.32 651.312 1101.11 650.98 1100.09 650.317C1099.08 649.654 1098.3 648.741 1097.75 647.577C1097.21 646.413 1096.93 645.084 1096.93 643.589C1096.93 642.067 1097.21 640.725 1097.77 639.561C1098.34 638.391 1099.13 637.478 1100.13 636.821C1101.15 636.158 1102.33 635.826 1103.68 635.826C1104.74 635.826 1105.69 636.021 1106.53 636.411C1107.38 636.801 1108.07 637.348 1108.61 638.05C1109.15 638.752 1109.48 639.571 1109.61 640.507H1107.31C1107.13 639.824 1106.74 639.22 1106.14 638.693C1105.54 638.16 1104.74 637.894 1103.72 637.894C1102.82 637.894 1102.04 638.128 1101.36 638.596C1100.69 639.057 1100.17 639.711 1099.79 640.556C1099.42 641.395 1099.24 642.379 1099.24 643.511C1099.24 644.668 1099.42 645.676 1099.78 646.534C1100.15 647.392 1100.67 648.058 1101.34 648.533C1102.02 649.007 1102.81 649.245 1103.72 649.245C1104.32 649.245 1104.86 649.141 1105.35 648.933C1105.84 648.725 1106.25 648.426 1106.59 648.035C1106.93 647.645 1107.17 647.177 1107.31 646.631H1109.61C1109.48 647.515 1109.16 648.312 1108.65 649.02C1108.14 649.723 1107.47 650.282 1106.63 650.698C1105.8 651.107 1104.83 651.312 1103.72 651.312ZM1119.06 651.312C1117.71 651.312 1116.52 650.99 1115.5 650.347C1114.49 649.703 1113.69 648.803 1113.12 647.645C1112.56 646.488 1112.27 645.136 1112.27 643.589C1112.27 642.028 1112.56 640.666 1113.12 639.503C1113.69 638.339 1114.49 637.435 1115.5 636.792C1116.52 636.148 1117.71 635.826 1119.06 635.826C1120.41 635.826 1121.6 636.148 1122.61 636.792C1123.63 637.435 1124.42 638.339 1124.99 639.503C1125.56 640.666 1125.85 642.028 1125.85 643.589C1125.85 645.136 1125.56 646.488 1124.99 647.645C1124.42 648.803 1123.63 649.703 1122.61 650.347C1121.6 650.99 1120.41 651.312 1119.06 651.312ZM1119.06 649.245C1120.09 649.245 1120.93 648.981 1121.6 648.455C1122.26 647.928 1122.75 647.236 1123.07 646.378C1123.39 645.52 1123.55 644.59 1123.55 643.589C1123.55 642.587 1123.39 641.655 1123.07 640.79C1122.75 639.925 1122.26 639.226 1121.6 638.693C1120.93 638.16 1120.09 637.894 1119.06 637.894C1118.03 637.894 1117.19 638.16 1116.53 638.693C1115.86 639.226 1115.37 639.925 1115.05 640.79C1114.73 641.655 1114.58 642.587 1114.58 643.589C1114.58 644.59 1114.73 645.52 1115.05 646.378C1115.37 647.236 1115.86 647.928 1116.53 648.455C1117.19 648.981 1118.03 649.245 1119.06 649.245ZM1129.36 651V636.021H1131.59V638.284H1131.74C1132.01 637.543 1132.51 636.941 1133.22 636.48C1133.94 636.018 1134.74 635.787 1135.64 635.787C1135.81 635.787 1136.02 635.79 1136.28 635.797C1136.53 635.803 1136.72 635.813 1136.85 635.826V638.167C1136.77 638.147 1136.59 638.118 1136.31 638.079C1136.04 638.033 1135.75 638.011 1135.45 638.011C1134.72 638.011 1134.07 638.163 1133.5 638.469C1132.93 638.768 1132.48 639.184 1132.15 639.717C1131.83 640.244 1131.66 640.845 1131.66 641.521V651H1129.36ZM1145.4 651.312C1143.96 651.312 1142.72 650.993 1141.67 650.356C1140.63 649.713 1139.83 648.816 1139.26 647.665C1138.7 646.508 1138.42 645.162 1138.42 643.628C1138.42 642.093 1138.7 640.741 1139.26 639.571C1139.83 638.394 1140.61 637.478 1141.62 636.821C1142.63 636.158 1143.82 635.826 1145.17 635.826C1145.95 635.826 1146.72 635.956 1147.48 636.216C1148.24 636.476 1148.93 636.899 1149.56 637.484C1150.18 638.063 1150.68 638.83 1151.05 639.785C1151.42 640.741 1151.61 641.918 1151.61 643.316V644.291H1140.06V642.301H1149.27C1149.27 641.456 1149.1 640.702 1148.76 640.039C1148.43 639.376 1147.95 638.853 1147.33 638.469C1146.72 638.085 1146 637.894 1145.17 637.894C1144.25 637.894 1143.46 638.121 1142.79 638.576C1142.13 639.025 1141.62 639.61 1141.26 640.332C1140.9 641.053 1140.72 641.827 1140.72 642.652V643.979C1140.72 645.11 1140.92 646.069 1141.31 646.855C1141.7 647.636 1142.25 648.23 1142.96 648.64C1143.66 649.043 1144.47 649.245 1145.4 649.245C1146.01 649.245 1146.55 649.16 1147.04 648.991C1147.54 648.816 1147.96 648.556 1148.32 648.211C1148.68 647.86 1148.95 647.424 1149.15 646.904L1151.37 647.528C1151.14 648.283 1150.74 648.946 1150.19 649.518C1149.64 650.083 1148.96 650.525 1148.14 650.844C1147.33 651.156 1146.42 651.312 1145.4 651.312Z" fill="#131520"/>
<path d="M27 337.507L7.02837 342.968L7.02837 340.511L23.2943 336.337L23.2943 336.142L7.02837 331.89L7.02837 329.16L23.2943 324.908L23.2943 324.713L7.02837 320.539L7.02837 318.082L27 323.543L27 326.039L11.0851 330.447L11.0851 330.603L27 335.011L27 337.507ZM27.3121 310.495C27.3121 311.938 26.9935 313.183 26.3564 314.23C25.7128 315.27 24.8156 316.073 23.6649 316.638C22.5077 317.197 21.1619 317.477 19.6277 317.477C18.0934 317.477 16.7411 317.197 15.5709 316.638C14.3942 316.073 13.4775 315.286 12.8209 314.278C12.1578 313.264 11.8262 312.081 11.8262 310.729C11.8262 309.949 11.9563 309.178 12.2163 308.418C12.4764 307.657 12.8989 306.965 13.484 306.34C14.0626 305.716 14.8298 305.219 15.7855 304.848C16.7411 304.478 17.9178 304.293 19.3156 304.293L20.2908 304.293L20.2908 315.839L18.3014 315.839L18.3014 306.633C17.4563 306.633 16.7021 306.802 16.039 307.14C15.3759 307.472 14.8525 307.946 14.469 308.564C14.0854 309.175 13.8936 309.897 13.8936 310.729C13.8936 311.645 14.1212 312.439 14.5762 313.108C15.0248 313.771 15.6099 314.282 16.3316 314.639C17.0532 314.997 17.8268 315.176 18.6525 315.176L19.9787 315.176C21.1099 315.176 22.0689 314.981 22.8555 314.59C23.6356 314.194 24.2305 313.645 24.6401 312.942C25.0431 312.24 25.2447 311.424 25.2447 310.495C25.2447 309.89 25.1602 309.344 24.9911 308.856C24.8156 308.362 24.5556 307.936 24.211 307.579C23.8599 307.221 23.4243 306.945 22.9043 306.75L23.5284 304.527C24.2825 304.761 24.9456 305.154 25.5177 305.707C26.0833 306.259 26.5254 306.942 26.844 307.754C27.156 308.567 27.3121 309.48 27.3121 310.495ZM27 300.792L12.0213 300.792L12.0213 298.49L27 298.49L27 300.792ZM9.52482 299.621C9.52482 300.07 9.37204 300.457 9.06648 300.782C8.76093 301.1 8.39361 301.26 7.96454 301.26C7.53546 301.26 7.16814 301.1 6.86258 300.782C6.55703 300.457 6.40425 300.07 6.40425 299.621C6.40425 299.173 6.55703 298.789 6.86258 298.471C7.16814 298.146 7.53546 297.983 7.96454 297.983C8.39361 297.983 8.76093 298.146 9.06648 298.471C9.37204 298.789 9.52482 299.173 9.52482 299.621ZM32.9291 288.229C32.9291 289.341 32.786 290.296 32.5 291.096C32.2204 291.896 31.8499 292.562 31.3883 293.095C30.9332 293.622 30.4456 294.041 29.9255 294.353L28.6383 292.52C28.9113 292.312 29.2234 292.048 29.5745 291.73C29.932 291.411 30.2408 290.976 30.5009 290.423C30.7674 289.864 30.9007 289.133 30.9007 288.229C30.9007 287.02 30.6082 286.022 30.023 285.235C29.4379 284.449 28.5213 284.055 27.273 284.055L24.2305 284.055L24.2305 284.25C24.5035 284.419 24.8416 284.66 25.2447 284.972C25.6412 285.277 25.9956 285.719 26.3076 286.298C26.6132 286.87 26.766 287.644 26.766 288.619C26.766 289.828 26.4799 290.914 25.9078 291.876C25.3357 292.832 24.5035 293.589 23.4113 294.148C22.3191 294.701 20.9929 294.977 19.4326 294.977C17.8983 294.977 16.5623 294.707 15.4246 294.168C14.2804 293.628 13.3963 292.877 12.7722 291.915C12.1415 290.953 11.8262 289.841 11.8262 288.58C11.8262 287.605 11.9888 286.831 12.3138 286.259C12.6324 285.68 12.9964 285.238 13.406 284.933C13.8091 284.621 14.1407 284.38 14.4007 284.211L14.4007 283.977L12.0213 283.977L12.0213 281.754L27.4291 281.754C28.7163 281.754 29.763 282.046 30.5691 282.631C31.3818 283.21 31.9767 283.99 32.3537 284.972C32.7373 285.947 32.9291 287.033 32.9291 288.229ZM24.6986 288.307C24.6986 287.384 24.4873 286.604 24.0647 285.967C23.6421 285.329 23.0343 284.845 22.2411 284.514C21.448 284.182 20.4988 284.016 19.3936 284.016C18.3144 284.016 17.362 284.179 16.5363 284.504C15.7107 284.829 15.0638 285.31 14.5957 285.947C14.1277 286.584 13.8936 287.371 13.8936 288.307C13.8936 289.282 14.1407 290.095 14.6347 290.745C15.1288 291.389 15.792 291.873 16.6241 292.198C17.4563 292.516 18.3794 292.676 19.3936 292.676C20.4338 292.676 21.3537 292.513 22.1534 292.188C22.9465 291.857 23.5706 291.369 24.0257 290.725C24.4743 290.075 24.6986 289.269 24.6986 288.307ZM17.9894 275.24L27 275.24L27 277.541L7.02836 277.541L7.02836 275.24L14.3617 275.24L14.3617 275.045C13.5881 274.693 12.9737 274.167 12.5186 273.465C12.057 272.756 11.8262 271.813 11.8262 270.637C11.8262 269.616 12.031 268.722 12.4406 267.955C12.8437 267.188 13.4645 266.593 14.3032 266.17C15.1353 265.741 16.195 265.527 17.4823 265.527L27 265.527L27 267.828L17.6383 267.828C16.4486 267.828 15.5287 268.137 14.8785 268.755C14.2219 269.366 13.8936 270.214 13.8936 271.3C13.8936 272.054 14.0529 272.73 14.3714 273.328C14.69 273.92 15.1548 274.388 15.766 274.732C16.3771 275.071 17.1182 275.24 17.9894 275.24ZM12.0213 254.802L13.9716 254.802L13.9716 262.565L12.0213 262.565L12.0213 254.802ZM8.43262 260.302L8.43262 258.001L22.7092 258.001C23.3593 258.001 23.8469 257.907 24.172 257.718C24.4905 257.523 24.7051 257.276 24.8156 256.977C24.9196 256.671 24.9716 256.35 24.9716 256.012C24.9716 255.758 24.9586 255.55 24.9326 255.387C24.9001 255.225 24.8741 255.095 24.8546 254.997L26.922 254.529C26.9805 254.685 27.039 254.903 27.0975 255.183C27.1625 255.462 27.195 255.816 27.195 256.246C27.195 256.896 27.0553 257.533 26.7757 258.157C26.4962 258.775 26.0703 259.288 25.4982 259.698C24.9261 260.101 24.2045 260.302 23.3333 260.302L8.43262 260.302Z" fill="#131520"/>
<path d="M153 54H1153" stroke="#ECEDF3" stroke-width="2" stroke-linecap="round"/>
<path d="M202 596L202 -1.57356e-05" stroke="#ECEDF3" stroke-width="2"/>
<path d="M1105 596L1105 -1.57356e-05" stroke="#ECEDF3" stroke-width="2"/>
<path d="M976 596L976 -1.57356e-05" stroke="#ECEDF3" stroke-width="2"/>
<path d="M847 596L847 -1.57356e-05" stroke="#ECEDF3" stroke-width="2"/>
<path d="M718 596L718 -1.57356e-05" stroke="#ECEDF3" stroke-width="2"/>
<path d="M589 596L589 -1.57356e-05" stroke="#ECEDF3" stroke-width="2"/>
<path d="M460 596L460 -1.57356e-05" stroke="#ECEDF3" stroke-width="2"/>
<path d="M331 596L331 -1.57356e-05" stroke="#ECEDF3" stroke-width="2"/>
<path d="M153 152H1153" stroke="#ECEDF3" stroke-width="2" stroke-linecap="round"/>
<path d="M153 250H1153" stroke="#ECEDF3" stroke-width="2" stroke-linecap="round"/>
<path d="M153 348H1153" stroke="#ECEDF3" stroke-width="2" stroke-linecap="round"/>
<path d="M153 446H1153" stroke="#ECEDF3" stroke-width="2" stroke-linecap="round"/>
<path d="M153 544H1153" stroke="#ECEDF3" stroke-width="2" stroke-linecap="round"/>
<path d="M203 32C291 32 440.5 103.5 555.5 269.5C702.418 481.573 882.5 531.5 979 538.5C1075.5 545.5 1094.83 544 1105.5 544" stroke="#1757C2" stroke-width="6" stroke-linecap="round" stroke-dasharray="10 10"/>
<path d="M394.939 640.939C394.354 641.525 394.354 642.475 394.939 643.061L404.485 652.607C405.071 653.192 406.021 653.192 406.607 652.607C407.192 652.021 407.192 651.071 406.607 650.485L398.121 642L406.607 633.515C407.192 632.929 407.192 631.979 406.607 631.393C406.021 630.808 405.071 630.808 404.485 631.393L394.939 640.939ZM899.061 643.061C899.646 642.475 899.646 641.525 899.061 640.939L889.515 631.393C888.929 630.808 887.979 630.808 887.393 631.393C886.808 631.979 886.808 632.929 887.393 633.515L895.879 642L887.393 650.485C886.808 651.071 886.808 652.021 887.393 652.607C887.979 653.192 888.929 653.192 889.515 652.607L899.061 643.061ZM401.02 643.5C401.848 643.5 402.52 642.828 402.52 642C402.52 641.172 401.848 640.5 401.02 640.5V643.5ZM411.06 640.5C410.232 640.5 409.56 641.172 409.56 642C409.56 642.828 410.232 643.5 411.06 643.5V640.5ZM421.1 643.5C421.928 643.5 422.6 642.828 422.6 642C422.6 641.172 421.928 640.5 421.1 640.5V643.5ZM431.14 640.5C430.312 640.5 429.64 641.172 429.64 642C429.64 642.828 430.312 643.5 431.14 643.5V640.5ZM441.18 643.5C442.008 643.5 442.68 642.828 442.68 642C442.68 641.172 442.008 640.5 441.18 640.5V643.5ZM451.22 640.5C450.392 640.5 449.72 641.172 449.72 642C449.72 642.828 450.392 643.5 451.22 643.5V640.5ZM461.26 643.5C462.088 643.5 462.76 642.828 462.76 642C462.76 641.172 462.088 640.5 461.26 640.5V643.5ZM471.3 640.5C470.472 640.5 469.8 641.172 469.8 642C469.8 642.828 470.472 643.5 471.3 643.5V640.5ZM481.34 643.5C482.168 643.5 482.84 642.828 482.84 642C482.84 641.172 482.168 640.5 481.34 640.5V643.5ZM491.38 640.5C490.552 640.5 489.88 641.172 489.88 642C489.88 642.828 490.552 643.5 491.38 643.5V640.5ZM501.42 643.5C502.248 643.5 502.92 642.828 502.92 642C502.92 641.172 502.248 640.5 501.42 640.5V643.5ZM511.46 640.5C510.632 640.5 509.96 641.172 509.96 642C509.96 642.828 510.632 643.5 511.46 643.5V640.5ZM521.5 643.5C522.328 643.5 523 642.828 523 642C523 641.172 522.328 640.5 521.5 640.5V643.5ZM531.54 640.5C530.712 640.5 530.04 641.172 530.04 642C530.04 642.828 530.712 643.5 531.54 643.5V640.5ZM541.58 643.5C542.408 643.5 543.08 642.828 543.08 642C543.08 641.172 542.408 640.5 541.58 640.5V643.5ZM551.62 640.5C550.792 640.5 550.12 641.172 550.12 642C550.12 642.828 550.792 643.5 551.62 643.5V640.5ZM561.66 643.5C562.488 643.5 563.16 642.828 563.16 642C563.16 641.172 562.488 640.5 561.66 640.5V643.5ZM571.7 640.5C570.872 640.5 570.2 641.172 570.2 642C570.2 642.828 570.872 643.5 571.7 643.5V640.5ZM581.74 643.5C582.568 643.5 583.24 642.828 583.24 642C583.24 641.172 582.568 640.5 581.74 640.5V643.5ZM591.78 640.5C590.952 640.5 590.28 641.172 590.28 642C590.28 642.828 590.952 643.5 591.78 643.5V640.5ZM601.82 643.5C602.648 643.5 603.32 642.828 603.32 642C603.32 641.172 602.648 640.5 601.82 640.5V643.5ZM611.86 640.5C611.032 640.5 610.36 641.172 610.36 642C610.36 642.828 611.032 643.5 611.86 643.5V640.5ZM621.9 643.5C622.728 643.5 623.4 642.828 623.4 642C623.4 641.172 622.728 640.5 621.9 640.5V643.5ZM631.94 640.5C631.112 640.5 630.44 641.172 630.44 642C630.44 642.828 631.112 643.5 631.94 643.5V640.5ZM641.98 643.5C642.808 643.5 643.48 642.828 643.48 642C643.48 641.172 642.808 640.5 641.98 640.5V643.5ZM652.02 640.5C651.192 640.5 650.52 641.172 650.52 642C650.52 642.828 651.192 643.5 652.02 643.5V640.5ZM662.06 643.5C662.888 643.5 663.56 642.828 663.56 642C663.56 641.172 662.888 640.5 662.06 640.5V643.5ZM672.1 640.5C671.272 640.5 670.6 641.172 670.6 642C670.6 642.828 671.272 643.5 672.1 643.5V640.5ZM682.14 643.5C682.968 643.5 683.64 642.828 683.64 642C683.64 641.172 682.968 640.5 682.14 640.5V643.5ZM692.18 640.5C691.352 640.5 690.68 641.172 690.68 642C690.68 642.828 691.352 643.5 692.18 643.5V640.5ZM702.22 643.5C703.048 643.5 703.72 642.828 703.72 642C703.72 641.172 703.048 640.5 702.22 640.5V643.5ZM712.26 640.5C711.432 640.5 710.76 641.172 710.76 642C710.76 642.828 711.432 643.5 712.26 643.5V640.5ZM722.3 643.5C723.128 643.5 723.8 642.828 723.8 642C723.8 641.172 723.128 640.5 722.3 640.5V643.5ZM732.34 640.5C731.512 640.5 730.84 641.172 730.84 642C730.84 642.828 731.512 643.5 732.34 643.5V640.5ZM742.38 643.5C743.208 643.5 743.88 642.828 743.88 642C743.88 641.172 743.208 640.5 742.38 640.5V643.5ZM752.42 640.5C751.592 640.5 750.92 641.172 750.92 642C750.92 642.828 751.592 643.5 752.42 643.5V640.5ZM762.46 643.5C763.288 643.5 763.96 642.828 763.96 642C763.96 641.172 763.288 640.5 762.46 640.5V643.5ZM772.5 640.5C771.672 640.5 771 641.172 771 642C771 642.828 771.672 643.5 772.5 643.5V640.5ZM782.54 643.5C783.368 643.5 784.04 642.828 784.04 642C784.04 641.172 783.368 640.5 782.54 640.5V643.5ZM792.58 640.5C791.752 640.5 791.08 641.172 791.08 642C791.08 642.828 791.752 643.5 792.58 643.5V640.5ZM802.62 643.5C803.448 643.5 804.12 642.828 804.12 642C804.12 641.172 803.448 640.5 802.62 640.5V643.5ZM812.66 640.5C811.832 640.5 811.16 641.172 811.16 642C811.16 642.828 811.832 643.5 812.66 643.5V640.5ZM822.7 643.5C823.529 643.5 824.2 642.828 824.2 642C824.2 641.172 823.529 640.5 822.7 640.5V643.5ZM832.74 640.5C831.912 640.5 831.24 641.172 831.24 642C831.24 642.828 831.912 643.5 832.74 643.5V640.5ZM842.78 643.5C843.609 643.5 844.28 642.828 844.28 642C844.28 641.172 843.609 640.5 842.78 640.5V643.5ZM852.82 640.5C851.992 640.5 851.32 641.172 851.32 642C851.32 642.828 851.992 643.5 852.82 643.5V640.5ZM862.86 643.5C863.689 643.5 864.36 642.828 864.36 642C864.36 641.172 863.689 640.5 862.86 640.5V643.5ZM872.9 640.5C872.072 640.5 871.4 641.172 871.4 642C871.4 642.828 872.072 643.5 872.9 643.5V640.5ZM882.94 643.5C883.769 643.5 884.44 642.828 884.44 642C884.44 641.172 883.769 640.5 882.94 640.5V643.5ZM892.98 640.5C892.152 640.5 891.48 641.172 891.48 642C891.48 642.828 892.152 643.5 892.98 643.5V640.5ZM396 643.5H401.02V640.5H396V643.5ZM411.06 643.5H421.1V640.5H411.06V643.5ZM431.14 643.5H441.18V640.5H431.14V643.5ZM451.22 643.5H461.26V640.5H451.22V643.5ZM471.3 643.5H481.34V640.5H471.3V643.5ZM491.38 643.5H501.42V640.5H491.38V643.5ZM511.46 643.5H521.5V640.5H511.46V643.5ZM531.54 643.5H541.58V640.5H531.54V643.5ZM551.62 643.5H561.66V640.5H551.62V643.5ZM571.7 643.5H581.74V640.5H571.7V643.5ZM591.78 643.5H601.82V640.5H591.78V643.5ZM611.86 643.5H621.9V640.5H611.86V643.5ZM631.94 643.5H641.98V640.5H631.94V643.5ZM652.02 643.5H662.06V640.5H652.02V643.5ZM672.1 643.5H682.14V640.5H672.1V643.5ZM692.18 643.5H702.22V640.5H692.18V643.5ZM712.26 643.5H722.3V640.5H712.26V643.5ZM732.34 643.5H742.38V640.5H732.34V643.5ZM752.42 643.5H762.46V640.5H752.42V643.5ZM772.5 643.5H782.54V640.5H772.5V643.5ZM792.58 643.5H802.62V640.5H792.58V643.5ZM812.66 643.5H822.7V640.5H812.66V643.5ZM832.74 643.5H842.78V640.5H832.74V643.5ZM852.82 643.5H862.86V640.5H852.82V643.5ZM872.9 643.5H882.94V640.5H872.9V643.5ZM892.98 643.5H898V640.5H892.98V643.5Z" fill="#131520"/>
</svg>
