<svg width="142" height="88" viewBox="0 0 142 88" fill="none" xmlns="http://www.w3.org/2000/svg">
<path d="M64.6581 14.8927C41.3752 19.7487 20.7351 43.6063 14.0432 65.4809C13.7777 66.2891 15.0645 66.9919 15.8574 66.8306C15.9723 66.8671 16.0922 66.8855 16.2128 66.8851C19.6457 66.4996 23.0543 65.9227 26.4229 65.1572C21.0709 67.6306 13.8805 69.1751 11.2568 64.1437C8.39595 58.5503 8.52688 51.3746 7.19695 45.2884C6.86523 43.762 3.26219 43.7953 3.40406 45.3734C4.09042 52.7555 3.05884 64.2197 10.7238 68.4077C17.0061 71.858 27.5115 67.8104 32.8448 64.1415C33.9063 63.4151 32.6011 62.568 31.7779 62.664C26.811 63.155 22.048 64.6879 17.0993 65.3233C26.9545 45.2277 39.4625 26.8127 61.3024 18.3193C72.362 13.9525 85.8253 15.1292 97.4035 16.0771C104.429 16.7138 111.387 17.9573 118.198 19.7938C121.909 20.8123 125.542 22.0926 129.071 23.6251C127.417 22.9467 137.583 28.4887 136.843 28.4358C135.397 28.3756 136.625 29.8577 137.446 29.9029C139.186 30.0284 139.086 30.1545 140.224 29.0558C140.607 28.6698 140.095 28.187 139.783 27.9775C119.363 14.05 88.6016 9.81465 64.6581 14.8927Z" fill="#1757C2"/>
</svg>
