<svg width="24" height="24" viewBox="0 0 24 24" fill="none" xmlns="http://www.w3.org/2000/svg">
<path fill-rule="evenodd" clip-rule="evenodd" d="M9.65002 20C9.65002 19.5858 9.98581 19.25 10.4 19.25H13.6C14.0142 19.25 14.35 19.5858 14.35 20C14.35 20.4142 14.0142 20.75 13.6 20.75H10.4C9.98581 20.75 9.65002 20.4142 9.65002 20Z" fill="#1757C2"/>
<path fill-rule="evenodd" clip-rule="evenodd" d="M6.25 10C6.25 6.82479 8.82479 4.25 12 4.25C15.1752 4.25 17.75 6.82479 17.75 10V12.504C17.75 12.5424 17.7713 12.5795 17.8093 12.5991C17.8096 12.5993 17.809 12.599 17.8093 12.5991L18.3099 12.8489C19.1918 13.2899 19.75 14.1917 19.75 15.178C19.75 16.6162 18.5842 17.782 17.146 17.782H6.854C5.41579 17.782 4.25 16.6162 4.25 15.178C4.25 14.1916 4.80775 13.2905 5.68874 12.8486L6.19166 12.5976C6.1918 12.5976 6.19153 12.5977 6.19166 12.5976C6.22793 12.5793 6.25 12.5429 6.25 12.504V10ZM12 5.75C9.65321 5.75 7.75 7.65321 7.75 10V12.504C7.75 13.1129 7.40583 13.6667 6.86434 13.9384L6.36126 14.1894C6.36112 14.1895 6.36141 14.1893 6.36126 14.1894C5.9865 14.3776 5.75 14.7606 5.75 15.178C5.75 15.7878 6.24421 16.282 6.854 16.282H17.146C17.7558 16.282 18.25 15.7878 18.25 15.178C18.25 14.7605 18.0139 14.3782 17.6401 14.1911M17.6401 14.1911L17.1371 13.9401L17.1338 13.9384C16.5943 13.6659 16.25 13.1133 16.25 12.504V10C16.25 7.65321 14.3468 5.75 12 5.75" fill="#1757C2"/>
</svg>
