<svg width="178" height="23" viewBox="0 0 178 23" fill="none" xmlns="http://www.w3.org/2000/svg">
<path d="M33.1754 2.73242H35.5799V14.9368C35.5799 18.17 34.1651 20.4014 30.8499 20.4014C29.8695 20.4162 28.8939 20.2622 27.9658 19.946V17.6083C28.7575 17.9153 29.6001 18.0698 30.4492 18.0637C32.4802 18.0637 33.1815 16.8494 33.1815 15.0977L33.1754 2.73242Z" fill="#253858"/>
<path d="M39.9613 1.79386C40.1757 1.77852 40.391 1.80946 40.5924 1.88459C40.7938 1.95972 40.9768 2.07728 41.1288 2.2293C41.2808 2.38133 41.3984 2.56426 41.4735 2.7657C41.5486 2.96714 41.5796 3.18238 41.5642 3.39682C41.5642 3.82195 41.3953 4.22967 41.0947 4.53028C40.7941 4.8309 40.3864 4.99978 39.9613 4.99978C39.5361 4.99978 39.1284 4.8309 38.8278 4.53028C38.5272 4.22967 38.3583 3.82195 38.3583 3.39682C38.343 3.18238 38.3739 2.96714 38.449 2.7657C38.5242 2.56426 38.6417 2.38133 38.7938 2.2293C38.9458 2.07728 39.1287 1.95972 39.3302 1.88459C39.5316 1.80946 39.7468 1.77852 39.9613 1.79386ZM38.7864 6.92454H41.0846V20.2825H38.7864V6.92454Z" fill="#253858"/>
<path d="M44.5537 6.92133H46.7972V9.27112C47.5714 7.69549 48.9224 6.5722 51.5272 6.7331V8.97664C48.5884 8.67305 46.7972 9.5656 46.7972 12.3951V20.2884H44.5537V6.92133Z" fill="#253858"/>
<path d="M62.2931 17.876C61.437 19.6398 59.834 20.5476 57.7787 20.5476C54.2267 20.5476 52.4355 17.5299 52.4355 13.6014C52.4355 9.83386 54.3057 6.65527 58.0459 6.65527C59.9949 6.65527 61.4916 7.53569 62.2962 9.27222V6.92243H64.5943V20.2804H62.2962L62.2931 17.876ZM58.392 18.4103C60.4503 18.4103 62.2931 17.1018 62.2931 14.1357V13.055C62.2931 10.0889 60.6112 8.78041 58.65 8.78041C56.0574 8.78041 54.7216 10.4896 54.7216 13.5893C54.7337 16.8073 56.0149 18.4103 58.395 18.4103H58.392Z" fill="#253858"/>
<path d="M78.1884 20.5468C74.7942 20.5468 73.2186 19.8789 71.8555 19.1837V16.7276C73.4857 17.5837 75.9964 18.197 78.3189 18.197C80.9632 18.197 81.962 17.1557 81.962 15.6043C81.962 14.053 80.9996 13.2272 77.6601 12.4257C73.7134 11.4634 71.9435 10.1002 71.9435 7.21614C71.9435 4.48383 74.0261 2.46191 78.1155 2.46191C80.6535 2.46191 82.2838 3.06909 83.486 3.74307V6.1475C81.8147 5.22658 79.929 4.76563 78.0214 4.8117C75.7232 4.8117 74.3601 5.61318 74.3601 7.21614C74.3601 8.65819 75.4834 9.38074 78.58 10.1549C82.2929 11.09 84.3786 12.28 84.3786 15.4434C84.3604 18.4884 82.5449 20.5468 78.1884 20.5468Z" fill="#253858"/>
<path d="M86.3916 13.5741C86.3916 9.5667 88.7414 6.65527 92.7488 6.65527C96.7562 6.65527 99.0544 9.5667 99.0544 13.5741C99.0544 17.5815 96.7289 20.5567 92.7488 20.5567C88.7687 20.5567 86.3916 17.5815 86.3916 13.5741ZM88.6351 13.5741C88.6351 16.1121 89.892 18.4103 92.7488 18.4103C95.6056 18.4103 96.8108 16.1121 96.8108 13.5741C96.8108 11.0361 95.5813 8.80469 92.7488 8.80469C89.9163 8.80469 88.6473 11.0361 88.6473 13.5741H88.6351Z" fill="#253858"/>
<path d="M104.906 6.92151H108.351V9.04664H104.906V20.2795H102.662V9.04664H100.488V6.92151H102.653V5.46428C102.653 2.98091 104.043 1.29598 106.903 1.29598C107.427 1.29307 107.948 1.36462 108.451 1.5085V3.63363C107.976 3.54324 107.493 3.49851 107.009 3.50005C105.595 3.50005 104.884 4.32885 104.884 5.53107L104.906 6.92151Z" fill="#253858"/>
<path d="M116.126 18.0358C116.612 18.0213 117.095 17.9583 117.568 17.8476V20.0638C117.065 20.2078 116.543 20.2794 116.02 20.2763C113.16 20.2763 111.769 18.5944 111.769 16.108V9.05864H109.596V6.93351H111.76V4.08887H114.004V6.92136H117.556V9.0465H114.004V16.0594C114.016 17.2343 114.711 18.0358 116.126 18.0358Z" fill="#253858"/>
<path d="M118.211 6.92285H120.749L124.595 18.2498L128.494 6.92285H130.685L134.587 18.2498L138.436 6.92285H140.974L136.059 20.2808H133.12L130.822 13.8174L129.608 9.70374L128.393 13.8174L126.065 20.2808H123.126L118.211 6.92285Z" fill="#253858"/>
<path d="M151.469 17.876C150.613 19.6398 149.01 20.5476 146.955 20.5476C143.403 20.5476 141.611 17.5299 141.611 13.6014C141.611 9.83386 143.481 6.65527 147.222 6.65527C149.171 6.65527 150.667 7.53569 151.472 9.27222V6.92243H153.77V20.2804H151.472L151.469 17.876ZM147.568 18.4103C149.626 18.4103 151.469 17.1018 151.469 14.1357V13.055C151.469 10.0889 149.787 8.78041 147.826 8.78041C145.245 8.80469 143.9 10.5018 143.9 13.6014C143.9 16.8073 145.191 18.4103 147.571 18.4103H147.568Z" fill="#253858"/>
<path d="M157.24 6.92133H159.484V9.27112C160.258 7.69549 161.609 6.5722 164.214 6.7331V8.97664C161.275 8.67305 159.484 9.5656 159.484 12.3951V20.2884H157.24V6.92133Z" fill="#253858"/>
<path d="M172.307 20.5479C167.31 20.5479 165.121 17.6638 165.121 13.5653C165.121 9.53059 167.365 6.64648 171.427 6.64648C175.54 6.64648 177.195 9.50631 177.195 13.5653V14.6066H167.447C167.768 16.8775 169.238 18.3469 172.389 18.3469C173.775 18.3456 175.15 18.101 176.451 17.6243V19.7494C175.355 20.3414 173.67 20.5479 172.307 20.5479ZM167.419 12.6545H174.866C174.733 10.1712 173.609 8.7534 171.314 8.7534C168.889 8.74126 167.659 10.323 167.419 12.6394V12.6545Z" fill="#253858"/>
<path d="M21.9791 10.8564L12.0821 0.959345L11.1227 0L3.67264 7.45011L0.266358 10.8564C0.0958004 11.0272 0 11.2586 0 11.5C0 11.7414 0.0958004 11.9728 0.266358 12.1436L7.07285 18.9501L11.1227 23L18.5729 15.5499L18.6882 15.4345L21.9791 12.1436C22.1497 11.9728 22.2455 11.7414 22.2455 11.5C22.2455 11.2586 22.1497 11.0272 21.9791 10.8564V10.8564ZM11.1227 14.9002L7.72254 11.5L11.1227 8.09979L14.523 11.5L11.1227 14.9002Z" fill="#2684FF"/>
<path d="M11.1215 8.09981C10.0521 7.03027 9.44933 5.58105 9.44478 4.06858C9.44023 2.55612 10.0343 1.1033 11.0972 0.0273438L3.65625 7.46531L7.70614 11.5152L11.1215 8.09981Z" fill="url(#paint0_linear_812_22889)"/>
<path d="M14.5324 11.4912L11.123 14.9005C11.6551 15.4323 12.0771 16.0636 12.3651 16.7585C12.6531 17.4534 12.8013 18.1982 12.8013 18.9504C12.8013 19.7026 12.6531 20.4474 12.3651 21.1423C12.0771 21.8372 11.6551 22.4686 11.123 23.0003V23.0003L18.5823 15.5411L14.5324 11.4912Z" fill="url(#paint1_linear_812_22889)"/>
<defs>
<linearGradient id="paint0_linear_812_22889" x1="10.5144" y1="4.66013" x2="5.7662" y2="9.40828" gradientUnits="userSpaceOnUse">
<stop offset="0.18" stop-color="#0052CC"/>
<stop offset="1" stop-color="#2684FF"/>
</linearGradient>
<linearGradient id="paint1_linear_812_22889" x1="11.7727" y1="18.3007" x2="16.5118" y2="13.5617" gradientUnits="userSpaceOnUse">
<stop offset="0.18" stop-color="#0052CC"/>
<stop offset="1" stop-color="#2684FF"/>
</linearGradient>
</defs>
</svg>
