<svg width="1756" height="946" viewBox="0 0 1756 946" fill="none" xmlns="http://www.w3.org/2000/svg">
<g filter="url(#filter0_dd_623_13769)">
<g clip-path="url(#clip0_623_13769)">
<rect x="148" y="117" width="614" height="180" rx="16" fill="white"/>
<g clip-path="url(#clip1_623_13769)">
<path d="M249.536 193.733V218.772C252.919 216.945 255.288 213.764 256.438 210.177L256.709 210.313C255.964 219.246 249.874 228.178 240.4 228.178C230.858 228.178 223.82 221.073 223.82 209.703C223.82 201.177 229.369 195.83 236.475 191.025C235.46 190.754 234.377 190.619 233.294 190.619C228.421 190.619 225.579 193.935 225.579 197.319H225.173C225.105 196.845 225.105 196.372 225.105 195.898C225.105 189.875 228.286 182.566 236.001 182.566C240.941 182.566 244.731 187.1 250.483 187.1C252.784 187.1 255.626 186.017 256.776 183.513H256.979C256.912 187.913 255.559 192.447 249.536 193.733ZM253.19 219.381C249.806 222.967 246.152 226.013 241.415 226.013C232.618 226.013 225.851 219.11 225.851 209.094C225.851 203.207 228.287 200.027 230.994 196.304H230.723C229.031 197.996 224.565 202.259 224.565 209.5C224.565 220.599 231.535 227.434 240.671 227.434C247.032 227.434 251.363 223.036 253.326 219.449L253.19 219.381ZM255.896 186.56C254.746 188.725 252.31 191.499 247.37 191.499C242.43 191.499 237.896 188.115 233.903 188.115C230.248 188.115 227.745 190.552 226.797 192.379L226.865 192.515C228.151 191.229 230.113 189.943 233.294 189.943C238.572 189.943 241.956 193.192 247.302 193.192C252.987 193.192 255.558 189.469 256.032 186.628L255.896 186.56ZM237.083 191.229C233.632 194.816 230.451 198.741 230.451 206.388C230.451 210.583 231.872 214.914 235.053 217.621L237.015 216.605V198.47L235.188 199.417L234.85 198.74L244.324 193.596C241.753 193.056 239.452 191.906 237.083 191.229ZM248.791 193.868C248.317 193.935 247.844 193.935 247.302 193.935C246.355 193.935 245.475 193.868 244.595 193.664V213.424L235.73 218.231C237.557 219.584 239.79 220.396 242.632 220.396C244.933 220.396 246.963 219.922 248.79 219.11V193.868H248.791ZM239.046 197.32L237.76 198.064V216.201L239.046 215.524V197.32ZM277.958 199.891V223.306C277.958 229.802 272.206 234.202 265.777 235.487L265.642 235.216C268.823 233.659 270.65 230.479 270.65 227.095V202.868L266.996 199.553L265.575 201.109V219.99L267.605 221.817V221.953L262.124 227.908L255.831 222.156V221.885L258.267 219.313V189.402L265.44 181.756L265.575 181.823V199.959L271.463 193.598L277.621 199.148L278.771 197.929L279.313 198.404L277.958 199.891ZM259.01 222.02V221.885L260.431 220.463V188.251L259.01 189.741V219.787L256.844 221.953V222.088L262.122 226.825L263.069 225.742L259.01 222.02ZM272.815 201.785L268.416 197.996L267.469 199.011L271.394 202.531V226.893C271.394 228.517 271.056 230.208 270.447 231.156L270.515 231.224C272.207 230.005 272.816 228.178 272.816 225.81V201.785H272.815ZM288.718 213.493V216.944L295.282 222.087L299.072 218.027L299.614 218.568L290.817 227.974L281.884 220.801L280.531 222.222L279.989 221.681L281.546 220.057V202.936L294.336 193.597L301.036 204.425L288.718 213.493ZM283.71 219.449V202.259L282.289 203.275V220.126L290.681 226.961L291.764 225.811L283.71 219.449ZM288.854 198.605L288.718 198.673V212.546L294.741 208.147L288.854 198.605ZM290.613 197.252L289.395 198.131L295.351 207.673L296.569 206.793L290.613 197.252Z" fill="#231F20"/>
<path d="M345.147 227.906L335.74 219.785L328.567 227.906L318.822 219.514V206.251H316.927C315.235 206.251 314.356 207.334 313.949 208.619H313.746C313.611 208.078 313.408 207.131 313.408 206.048C313.408 204.288 313.882 199.687 318.822 199.687V188.047C318.822 185.814 316.183 184.934 316.183 181.956C316.183 178.1 319.837 174.31 326.537 171.94L326.808 172.143C324.372 173.565 323.086 174.918 323.086 177.828C323.086 182.295 327.417 181.144 327.417 188.182V190.889L335.335 182.565L343.659 190.753L351.509 182.565L359.088 190.009V215.048L345.147 227.906ZM320.988 218.432V204.154H317.198C315.235 204.154 314.356 205.439 314.22 206.59L314.287 206.658C314.964 205.914 315.641 205.508 317.197 205.508H319.565V219.178L328.498 226.893L329.513 225.674L320.988 218.432ZM320.988 187.37C320.988 184.596 318.552 183.648 318.552 181.889C318.552 179.452 319.499 177.423 320.988 175.528L320.853 175.461C318.823 177.018 316.928 179.522 316.928 181.957C316.928 184.394 319.567 185.544 319.567 187.71V199.688H320.988V187.37ZM335.267 194.138L330.124 189.13L327.417 191.904V215.86L333.575 221.071L335.267 219.176V194.138ZM337.432 218.297V193.191L331.68 187.506L330.597 188.589L336.011 193.799V219.041L345.147 226.959L346.23 225.943L337.432 218.297ZM350.561 193.258L346.298 189.197L343.862 191.701V215.793L350.494 221.612L350.561 221.545V193.258ZM352.726 192.311L347.786 187.506L346.771 188.589L351.305 192.92V221.207L352.726 219.853V192.311Z" fill="#231F20"/>
<path d="M381.481 227.907L375.052 222.087L369.3 227.907L362.262 221.681L361.314 222.696L360.773 222.155L361.991 220.869V202.734L374.714 193.53L382.023 199.215L383.309 197.861L383.851 198.403L382.362 199.959V218.705L385.948 222.02L387.099 220.802L387.64 221.276L381.481 227.907ZM364.157 220.396V202.124L362.736 203.139V221.073L369.233 226.893L370.316 225.81L364.157 220.396ZM375.052 202.598L369.503 198.267L369.3 198.403V218.095L373.902 222.087L375.052 220.937V202.598ZM377.218 221.005V201.583L371.466 196.913L370.113 197.86L375.797 202.327V221.681L381.482 226.824L382.497 225.741L377.218 221.005ZM401.174 205.846H408.144V220.328L397.384 227.907C395.963 226.283 393.932 225.133 391.429 225.133C389.399 225.133 387.774 225.81 385.609 227.637L385.271 227.501L394.475 214.102H388.79V201.515L400.092 193.665C401.445 194.748 402.46 195.356 404.22 195.356C405.574 195.356 407.536 195.085 409.025 193.868L409.296 194.003L401.174 205.846ZM393.595 223.17C391.632 223.17 390.076 223.847 388.722 224.794V224.93C389.805 224.456 390.888 224.321 391.903 224.321C393.459 224.321 395.896 225.066 397.52 226.961L399.077 225.811C397.79 224.321 396.234 223.17 393.595 223.17ZM400.835 211.801H397.045L389.127 223.239L389.195 223.374C391.157 221.953 393.052 221.006 395.353 221.006C397.383 221.006 399.481 221.953 400.767 223.577L400.835 223.51V211.801ZM390.955 211.801V200.907L389.534 201.922V213.291H395.015L396.098 211.802H390.955V211.801ZM405.099 198.537C403.678 199.553 402.866 200.094 400.497 200.094C399.143 200.094 397.519 199.485 396.234 198.131L396.099 198.199V208.079H398.67L405.167 198.604L405.099 198.537ZM401.851 197.928C400.633 197.928 399.077 197.32 398.061 195.966L396.369 197.116C397.655 198.673 398.873 199.349 400.767 199.349C401.985 199.349 403.745 199.01 405.572 197.453L405.639 197.251C404.49 197.726 403.069 197.928 401.851 197.928ZM403.001 209.569H398.602L397.587 210.99H401.58V224.118L403.001 223.103V209.569ZM431.491 199.891V223.306C431.491 229.802 425.739 234.202 419.31 235.487L419.175 235.216C422.356 233.659 424.183 230.479 424.183 227.095V202.868L420.529 199.553L419.108 201.109V219.99L421.138 221.817V221.953L415.657 227.908L409.364 222.156V221.885L411.8 219.313V189.402L418.973 181.756L419.108 181.823V199.959L424.996 193.598L431.154 199.148L432.304 197.929L432.846 198.404L431.491 199.891ZM412.543 222.02V221.885L413.964 220.463V188.251L412.543 189.74V219.786L410.377 221.952V222.087L415.655 226.824L416.602 225.741L412.543 222.02ZM426.348 201.785L421.949 197.996L421.002 199.011L424.927 202.531V226.893C424.927 228.517 424.589 230.208 423.98 231.156L424.048 231.224C425.74 230.005 426.349 228.178 426.349 225.81V201.785H426.348ZM443.808 227.907L437.988 222.561L436.634 223.982L436.092 223.44L437.649 221.749V202.192L434.807 199.485L433.724 200.704L433.182 200.162L439.272 193.53L444.686 198.403L446.04 196.914L446.649 197.388L444.957 199.215V218.976L448.206 222.021L449.695 220.464L450.236 221.006L443.808 227.907ZM439.815 221.276V201.109L436.296 197.861L435.349 198.944L438.394 201.854V221.953L443.808 226.825L444.823 225.742L439.815 221.276ZM441.845 192.989L436.296 187.914L441.372 182.5L446.921 187.575L441.845 192.989ZM438.394 186.83L437.379 187.845L441.777 191.973L442.792 190.823L438.394 186.83Z" fill="#231F20"/>
<path d="M472.424 227.907L466.536 222.561V202.801L462.949 199.553L461.054 201.583V219.854L463.152 221.816V222.087L457.603 227.907L451.309 222.155V221.952L453.746 219.381V202.327L450.565 199.417L449.279 200.838L448.738 200.297L454.896 193.597L461.054 199.079V200.432L467.483 193.597L473.505 199.011L474.859 197.59L475.468 198.131L473.844 199.823V219.177L476.889 222.019L478.378 220.395L478.919 220.936L472.424 227.907ZM454.558 222.02V221.885C454.558 222.02 455.912 220.531 455.912 220.531V201.311L452.054 197.792L451.106 198.807L454.49 201.92V219.785L452.392 221.951V222.086L457.603 226.823L458.685 225.673L454.558 222.02ZM468.701 221.479V201.651L464.506 197.861L463.423 199.011L467.28 202.462V222.155L472.355 226.892L473.438 225.741L468.701 221.479ZM491.507 240.088C489.275 237.652 487.718 236.637 485.62 236.637C483.387 236.637 480.815 237.517 478.176 238.938L477.973 238.736L487.312 227.908L480.68 222.63L479.394 223.984L478.853 223.51L480.341 221.886V202.734L493.199 193.53L500.372 199.215L501.591 197.861L502.132 198.403L500.711 199.959V223.104C500.711 226.623 502.673 226.488 502.673 229.126C502.673 232.171 498.274 235.013 491.507 240.088ZM482.507 221.343V202.192L481.086 203.208V221.953L487.785 227.367L488.801 226.148L482.507 221.343ZM487.244 234.878C485.011 234.878 482.98 235.555 481.086 236.84V236.976C482.304 236.502 483.657 235.893 485.958 235.893C488.056 235.893 489.815 237.043 491.575 239.074L492.929 237.991C491.236 236.029 489.206 234.878 487.244 234.878ZM495.5 228.381C493.809 227.298 493.402 226.148 493.402 223.238V222.019L482.168 235.012L482.236 235.079C484.401 233.794 486.364 232.847 489.545 232.847C492.252 232.847 494.079 233.929 496.177 235.689C497.463 234.606 498.342 233.524 498.342 231.832C498.342 230.479 497.191 229.464 495.5 228.381ZM493.402 202.598L487.785 198.2L487.649 198.335V219.11L491.981 222.494L493.402 220.87V202.598ZM497.53 227.434C495.77 226.08 495.567 224.93 495.567 222.02V201.448L489.882 196.846L488.597 197.726L494.146 202.124V222.967C494.146 225.877 494.282 226.69 496.109 227.907C497.733 228.99 499.018 230.14 499.018 231.697C499.018 232.102 498.951 232.779 498.951 232.779L499.018 232.847C499.357 232.508 499.763 231.967 499.763 231.087C499.764 229.599 499.019 228.584 497.53 227.434ZM513.772 227.907L507.546 223.035L506.26 224.456L505.719 223.914L507.207 222.29V198.605H503.282L503.146 198.47L505.515 194.95H507.206V190.417L514.38 182.77L514.515 182.906V194.951H519.929L520.065 195.087L517.696 198.606H514.515V219.111L518.238 221.954L519.659 220.397L520.2 220.938L513.772 227.907ZM509.373 189.266L507.952 190.823V194.951H509.373V189.266ZM509.373 221.614V198.605H507.952V222.426L513.704 226.893L514.719 225.81L509.373 221.614ZM542.329 200.568V219.516L530.892 227.975L522.297 221.479L521.282 222.629L520.741 222.087L521.959 220.734V202.192L533.938 193.597L541.923 199.824L543.208 198.47L543.75 199.011L542.329 200.568ZM524.126 220.058V201.583L522.704 202.598V220.802L530.825 227.028L532.111 226.081L524.126 220.058ZM535.021 202.801L529.336 198.334L529.269 198.402V218.568L535.021 222.899V202.801ZM537.187 201.583L530.893 196.71L529.608 197.657L535.766 202.394V223.441L537.187 222.359V201.583ZM568.181 227.907L562.293 222.561V202.801L558.706 199.553L556.811 201.583V219.854L558.909 221.816V222.087L553.36 227.907L547.066 222.155V221.952L549.503 219.381V202.327L546.322 199.417L545.036 200.838L544.495 200.297L550.653 193.597L556.811 199.079V200.432L563.24 193.597L569.263 199.011L570.616 197.59L571.225 198.131L569.601 199.823V219.177L572.646 222.019L574.135 220.395L574.676 220.936L568.181 227.907ZM550.314 222.02V221.885C550.314 222.02 551.668 220.531 551.668 220.531V201.311L547.811 197.792L546.864 198.807L550.248 201.92V219.785L548.15 221.951V222.086L553.361 226.823L554.444 225.673L550.314 222.02ZM564.458 221.479V201.651L560.263 197.861L559.18 199.011L563.037 202.462V222.155L568.112 226.892L569.195 225.741L564.458 221.479Z" fill="#231F20"/>
<path d="M609.986 227.906C608.091 225.876 607.415 225.199 605.181 224.59V226.079V237.854L605.045 237.921L602.338 235.484L594.488 242.725L594.352 242.658V224.455C591.984 224.996 589.48 226.215 587.043 228.65L586.908 228.583C587.382 223.372 589.953 219.515 594.351 218.026V204.83H592.93C590.968 204.83 589.885 205.845 588.938 207.672H588.735C588.532 207.064 588.396 206.115 588.396 204.56C588.396 201.717 590.494 198.74 593.946 198.74H594.351V191.431L591.577 188.927L590.223 190.281L589.749 189.807L596.584 182.566L602.945 188.386V194.544L604.434 192.92V185.137H605.178V192.243L614.178 182.565L621.825 189.536V218.974L609.986 227.906ZM594.354 221.951C591.58 222.492 589.618 224.184 588.332 226.417L588.399 226.553C590.295 224.929 592.053 224.185 594.354 223.643V221.951ZM596.52 202.53H592.798C590.226 202.53 589.211 204.154 589.144 206.049L589.211 206.116C590.023 204.762 590.835 204.289 592.459 204.087H595.099V240.968L596.52 239.614V202.53ZM596.52 190.348L593.136 187.236L592.053 188.386L595.099 191.092V198.739H596.52V190.348ZM604.438 194.205L602.949 195.762V234.945L604.438 236.299V194.205ZM613.303 192.649L609.31 188.995L605.182 193.462V217.282C608.701 217.621 611.137 218.636 613.235 220.936L613.303 220.869V192.649ZM605.182 221.951V223.711C607.483 224.252 608.43 224.929 610.054 226.823L611.611 225.605C609.986 223.575 608.362 222.358 605.182 221.951ZM615.468 191.567L610.866 187.303L609.783 188.453L614.047 192.378V223.846L615.468 222.763V191.567ZM645.447 200.567V219.515L634.009 227.974L625.415 221.478L624.399 222.628L623.858 222.086L625.076 220.733V202.191L637.055 193.596L645.04 199.823L646.325 198.469L646.867 199.01L645.447 200.567ZM627.243 220.057V201.582L625.821 202.597V220.801L633.942 227.027L635.228 226.08L627.243 220.057ZM638.138 202.8L632.454 198.333L632.386 198.401V218.567L638.138 222.898V202.8ZM640.304 201.582L634.01 196.709L632.725 197.656L638.883 202.393V223.44L640.304 222.358V201.582ZM661.146 205.845H668.117V220.327L657.357 227.906C655.936 226.282 653.906 225.132 651.402 225.132C649.372 225.132 647.748 225.809 645.582 227.636L645.244 227.5L654.447 214.101H648.762V201.514L660.064 193.664C661.418 194.747 662.432 195.355 664.192 195.355C665.546 195.355 667.507 195.084 668.997 193.867L669.268 194.002L661.146 205.845ZM653.567 223.169C651.605 223.169 650.048 223.846 648.695 224.793V224.929C649.778 224.455 650.86 224.32 651.876 224.32C653.433 224.32 655.868 225.065 657.492 226.96L659.049 225.81C657.764 224.32 656.207 223.169 653.567 223.169ZM660.809 211.8H657.019L649.102 223.238L649.169 223.373C651.131 221.952 653.026 221.005 655.327 221.005C657.357 221.005 659.455 221.952 660.741 223.576L660.808 223.509V211.8H660.809ZM650.929 211.8V200.906L649.507 201.921V213.29H654.988L656.071 211.801H650.929V211.8ZM665.072 198.536C663.65 199.552 662.839 200.093 660.469 200.093C659.115 200.093 657.491 199.484 656.206 198.13L656.07 198.198V208.078H658.641L665.138 198.603L665.072 198.536ZM661.823 197.927C660.605 197.927 659.049 197.319 658.034 195.965L656.342 197.115C657.628 198.672 658.846 199.348 660.741 199.348C661.959 199.348 663.719 199.009 665.546 197.452L665.613 197.25C664.463 197.725 663.042 197.927 661.823 197.927ZM662.974 209.568H658.576L657.561 210.989H661.553V224.117L662.974 223.102V209.568ZM679.351 227.906L673.125 223.034L671.839 224.455L671.298 223.913L672.786 222.289V198.604H668.861L668.726 198.469L671.094 194.949H672.785V190.416L679.959 182.769L680.095 182.905V194.95H685.508L685.644 195.086L683.275 198.605H680.095V219.11L683.817 221.953L685.238 220.396L685.779 220.937L679.351 227.906ZM674.952 189.265L673.531 190.822V194.95H674.952V189.265ZM674.952 221.613V198.604H673.531V222.425L679.283 226.892L680.298 225.809L674.952 221.613Z" fill="#231F20"/>
</g>
</g>
</g>
<g filter="url(#filter1_dd_623_13769)">
<g clip-path="url(#clip2_623_13769)">
<rect x="844" y="117" width="440" height="180" rx="16" fill="#0052B4"/>
<g clip-path="url(#clip3_623_13769)">
<path d="M921.897 184.813H928.417C934.376 184.813 937.002 186.696 937.002 190.521C937.002 193.845 934.376 196.102 929.105 196.102H921.897V184.813ZM914 222.423H929.98C938.378 222.423 946.776 219.423 946.776 209.766C946.776 204.058 942.774 199.676 937.197 199.042V198.91C941.76 197.543 944.907 194.22 944.907 189.204C944.907 181.116 938.004 178.047 931.297 178.047H914V222.423ZM921.897 202.868H929.479C935.871 202.868 938.89 204.5 938.89 209.142C938.89 214.963 933.236 215.657 929.164 215.657H921.897V202.868Z" fill="white"/>
<path d="M955.705 222.423V177" stroke="white" stroke-width="7.5" stroke-miterlimit="10"/>
<path d="M972.011 207.382C972.011 202.681 975.335 198.36 980.852 198.36C986.369 198.36 989.683 202.682 989.683 207.382C989.683 212.082 986.369 216.405 980.852 216.405C975.334 216.405 972.011 212.083 972.011 207.382ZM964.488 207.382C964.488 216.847 971.755 223.171 980.852 223.171C989.938 223.171 997.216 216.848 997.216 207.382C997.216 197.916 989.939 191.584 980.852 191.584C971.755 191.583 964.488 197.917 964.488 207.382Z" fill="white"/>
<path d="M1008.13 207.382C1008.13 202.681 1011.45 198.36 1016.97 198.36C1022.49 198.36 1025.8 202.682 1025.8 207.382C1025.8 212.082 1022.49 216.405 1016.97 216.405C1011.45 216.405 1008.13 212.083 1008.13 207.382ZM1000.61 207.382C1000.61 216.847 1007.88 223.171 1016.97 223.171C1026.06 223.171 1033.34 216.848 1033.34 207.382C1033.34 197.916 1026.06 191.584 1016.97 191.584C1007.87 191.583 1000.61 197.917 1000.61 207.382Z" fill="white"/>
<path d="M1037.92 192.336H1045.07V197.042H1045.18C1046.5 194.22 1049.38 191.579 1054.4 191.579C1059.04 191.579 1062.25 193.393 1063.81 197.16C1066 193.344 1069.2 191.579 1073.7 191.579C1081.73 191.579 1084.55 197.292 1084.55 204.501V222.424H1077.03V205.376C1077.03 201.619 1075.91 198.359 1071.45 198.359C1066.75 198.359 1064.99 202.243 1064.99 206.123V222.423H1057.48V204.5C1057.48 200.792 1055.97 198.359 1052.33 198.359C1047.39 198.359 1045.44 201.983 1045.44 206V222.423H1037.92V192.336Z" fill="white"/>
<path d="M1115.6 207.382C1115.6 212.088 1112.28 216.405 1106.76 216.405C1101.24 216.405 1097.91 212.088 1097.91 207.382C1097.91 202.681 1101.24 198.349 1106.76 198.349C1112.28 198.349 1115.6 202.681 1115.6 207.382ZM1090.65 222.423H1097.8V217.913H1097.91C1100.12 221.537 1104.06 223.17 1108.27 223.17C1117.53 223.17 1123.12 216.276 1123.12 207.381C1123.12 198.481 1117.16 191.583 1108.57 191.583C1102.94 191.583 1099.92 194.209 1098.36 196.166H1098.17V177H1090.65V222.423H1090.65Z" fill="white"/>
<path d="M1134.04 204.373C1134.61 200.041 1137.37 197.224 1141.81 197.224C1146.51 197.224 1149.4 199.983 1149.46 204.373H1134.04ZM1156.99 210.013V207.948C1156.99 197.475 1151.28 191.584 1142.89 191.584C1133.78 191.584 1126.52 197.917 1126.52 207.382C1126.52 216.847 1133.78 223.171 1142.89 223.171C1147.64 223.171 1152.1 221.48 1155.6 217.162L1150.21 213.096C1148.33 215.403 1145.88 217.162 1142.13 217.162C1137.93 217.162 1134.54 214.463 1134.04 210.013H1156.99Z" fill="white"/>
<path d="M1161.89 192.336H1169.41V197.101H1169.54C1171.17 193.654 1174.48 191.579 1178.44 191.579C1179.38 191.579 1180.25 191.771 1181.13 192.026V199.294C1179.88 198.984 1178.68 198.733 1177.49 198.733C1170.41 198.733 1169.41 204.692 1169.41 206.325V222.424H1161.88V192.336H1161.89Z" fill="white"/>
<path d="M1197.96 198.359C1203.4 198.359 1206.86 201.983 1206.86 207.199C1206.86 212.205 1203.47 216.03 1197.9 216.03C1192.82 216.03 1189.06 212.082 1189.06 207.317C1189.06 201.983 1192.68 198.359 1197.96 198.359ZM1206.86 192.336V196.85H1206.74C1204.54 193.211 1200.58 191.579 1196.38 191.579C1187.11 191.579 1181.53 198.477 1181.53 207.382C1181.53 215.898 1187.49 222.797 1196.51 222.797C1200.28 222.797 1204.16 221.361 1206.37 218.416H1206.47V220.614C1206.47 226.563 1204.23 230.704 1196.95 230.704C1192.75 230.704 1189.62 229.13 1186.61 226.357L1182.1 232.512C1186.35 236.288 1191.44 237.469 1197.02 237.469C1208.74 237.469 1214 230.566 1214 219.728V192.336H1206.86Z" fill="white"/>
</g>
</g>
</g>
<g filter="url(#filter2_dd_623_13769)">
<g clip-path="url(#clip4_623_13769)">
<rect x="850" y="640" width="535" height="180" rx="16" fill="black"/>
<g clip-path="url(#clip5_623_13769)">
<path d="M943.167 702.058C942.793 702.076 942.43 702.171 942.08 702.395C943.522 702.683 945.211 702.877 946.121 704.19C946.577 704.675 946.435 705.419 945.979 705.844C945.116 706.872 943.636 707.195 942.37 706.866C938.076 705.853 934.016 703.882 929.605 703.369C927.242 703.057 924.933 704.194 923.302 705.838C921.797 707.348 921.25 709.64 921.548 711.71C921.881 713.347 923.094 715.048 924.85 715.289C923.81 714.16 923.613 712.199 924.69 711.025C925.3 710.269 926.383 710.165 927.283 710.304C930.702 710.94 934.034 711.969 937.443 712.661C939.352 713.181 941.239 713.801 943.191 714.155C943.226 716.487 943.226 718.817 943.191 721.149C941.931 722.089 940.729 723.102 939.493 724.073C940.696 724.973 941.936 725.817 943.179 726.66C943.259 729.958 943.167 733.256 943.226 736.554C941.192 738.125 938.466 738.38 935.99 738.09C933.36 737.944 931.026 736.377 929.304 734.475C932.191 732.934 935.134 731.481 938.087 730.069C938.191 724.868 938.106 719.665 938.134 714.462C934.444 716.01 930.791 717.64 927.112 719.212C928.175 716.492 930.338 714.289 932.919 712.98C932.245 713.02 931.539 712.97 930.91 713.263C926.081 715.17 922.101 719.268 920.603 724.268C919.601 727.443 919.924 730.915 921.011 734.02C922.357 737.474 924.849 740.532 928.152 742.278C930.007 743.237 932.003 744.136 934.13 744.162C938.532 744.528 943.162 742.868 946.133 739.555C947.43 738.163 948.083 736.349 948.726 734.593C949.321 732.864 949.591 731.023 949.529 729.194C948.104 732.02 946.209 734.674 943.622 736.548C943.639 733.262 943.616 729.976 943.628 726.69C944.753 725.832 945.882 724.975 946.971 724.073C945.854 723.083 944.743 722.094 943.628 721.102C943.633 718.791 943.623 716.475 943.628 714.167C946.144 714.035 949.04 712.707 949.718 710.068C950.19 708.345 950.437 706.305 949.381 704.746C948.41 703.64 947.151 702.679 945.672 702.412C944.853 702.341 943.989 702.019 943.167 702.058ZM931.395 717.906C931.385 722.915 931.424 727.924 931.377 732.933C930.54 733.262 929.718 733.621 928.896 733.985C927.379 731.79 926.436 729.206 926.002 726.583C925.884 724.369 926.295 722.127 927.065 720.05C928.52 719.358 929.944 718.61 931.395 717.906ZM1219.99 702.058C1219.59 702.046 1219.19 702.125 1218.82 702.395C1219.67 702.591 1220.57 702.675 1221.36 703.074C1222.07 703.414 1222.54 704.118 1222.79 704.846C1222.92 705.633 1222.34 706.358 1221.65 706.654C1220.41 707.225 1219.01 706.961 1217.75 706.618C1214.72 705.692 1211.78 704.494 1208.69 703.771C1207.11 703.433 1205.44 703.114 1203.84 703.535C1202.11 704.024 1200.34 704.855 1199.32 706.405C1197.99 708.114 1197.83 710.463 1198.47 712.472C1199.01 713.811 1200.08 715.129 1201.6 715.301C1201.11 714.663 1200.25 714.019 1200.5 713.11C1200.64 712.207 1201.01 711.292 1201.73 710.706C1202.46 710.16 1203.45 710.167 1204.29 710.41C1207.36 710.982 1210.37 711.846 1213.41 712.566C1215.47 713.003 1217.45 713.772 1219.52 714.155C1219.56 716.478 1219.53 718.8 1219.54 721.125C1218.42 722.111 1217.31 723.095 1216.21 724.096C1217.32 724.954 1218.41 725.833 1219.53 726.672C1219.55 729.978 1219.53 733.288 1219.55 736.595C1217.6 738.058 1215.03 738.418 1212.66 738.09C1210.05 737.934 1207.76 736.36 1206.02 734.498C1206.73 734.002 1207.55 733.683 1208.31 733.282C1210.47 732.218 1212.61 731.106 1214.78 730.08C1214.85 724.875 1214.79 719.668 1214.81 714.462C1211.14 716.024 1207.51 717.659 1203.83 719.188C1204.67 717.191 1206.01 715.365 1207.82 714.143C1208.36 713.65 1208.91 713.132 1209.65 712.962C1208.91 713.014 1208.14 712.989 1207.46 713.334C1202.28 715.432 1197.85 720.009 1196.88 725.632C1196.51 728.486 1196.77 731.451 1197.77 734.156C1199.05 737.331 1201.3 740.152 1204.23 741.953C1205.63 742.806 1207.13 743.492 1208.7 743.967C1212.47 744.593 1216.5 744.052 1219.79 742.053C1221.96 740.539 1223.98 738.575 1224.89 736.028C1225.86 733.866 1226.26 731.505 1226.31 729.147C1225.85 729.74 1225.59 730.445 1225.2 731.078C1223.95 733.176 1222.33 735.077 1220.36 736.53C1220.39 733.234 1220.33 729.938 1220.39 726.642C1221.51 725.836 1222.55 724.939 1223.68 724.138C1222.64 723.065 1221.47 722.139 1220.37 721.137C1220.35 718.826 1220.4 716.513 1220.35 714.202C1222.51 714.063 1224.69 713.093 1225.86 711.196C1227.07 709.246 1227.06 706.591 1225.89 704.627C1224.97 703.413 1223.53 702.631 1222.04 702.406C1221.37 702.352 1220.67 702.079 1219.99 702.058ZM1208.13 717.9C1208.15 722.9 1208.13 727.898 1208.14 732.898C1207.28 733.254 1206.44 733.631 1205.59 733.99C1204.36 732.256 1203.4 730.306 1202.9 728.231C1202.36 725.514 1202.5 722.569 1203.77 720.062C1205.23 719.363 1206.67 718.63 1208.13 717.9ZM1032.41 703.724C1033.81 706.19 1032.93 709.534 1030.81 711.31C1029.51 712.159 1028.01 712.627 1026.55 713.101C1026.58 723.19 1026.55 733.282 1026.56 743.371C1026.66 743.831 1026.24 744.193 1025.8 744.008C1024.94 743.968 1024.72 743.063 1024.35 742.454C1019.07 732.748 1013.85 723.008 1008.53 713.324C1008.43 720.447 1008.53 727.578 1008.48 734.704C1011 735.179 1013.44 736.391 1015.09 738.39C1015.85 737.799 1016.35 736.76 1017.32 736.521C1017.08 736.972 1016.71 737.343 1016.37 737.721C1014.47 739.826 1012.57 741.941 1010.67 744.051C1009.79 742.941 1008.62 741.887 1007.15 741.736C1006.18 741.698 1005.06 741.747 1004.36 742.511C1003.55 743.234 1003 744.453 1003.58 745.485C1004.26 746.967 1005.97 747.368 1007.4 747.723C1005.61 748.077 1003.6 747.869 1002.15 746.667C1001 745.681 999.948 744.431 999.649 742.905C999.245 740.802 999.873 738.465 1001.44 736.974C1003.16 735.276 1005.68 734.642 1008.04 734.777C1008.1 731.672 1008.07 728.568 1008.05 725.463C1006.91 725.281 1005.35 725.444 1004.81 726.642C1004.5 727.613 1005.23 728.431 1005.95 728.962C1005.06 728.806 1004.06 728.636 1003.42 727.944C1002.66 727.006 1002.07 725.898 1001.85 724.702C1001.63 723.164 1002.03 721.411 1003.31 720.421C1004.65 719.384 1006.44 719.242 1008.07 719.28V712.716C1007.48 711.825 1006.91 710.805 1005.89 710.344C1005.22 710.067 1004.36 709.968 1003.78 710.488C1002.99 711.161 1002.8 712.232 1002.48 713.17C1002.18 710.88 1002.41 708.284 1004.01 706.488C1005.95 703.979 1010.05 703.887 1012.17 706.207C1013.08 707.149 1013.71 708.312 1014.34 709.458C1018.26 716.442 1022.1 723.471 1026.06 730.432C1026.09 724.66 1026.1 718.883 1026.06 713.111C1025.38 712.846 1024.62 712.853 1023.93 712.612C1022.64 712.272 1021.56 711.44 1020.61 710.54C1020.01 711.239 1019.41 711.936 1018.86 712.666C1018.73 712.596 1018.47 712.456 1018.34 712.385C1020.37 709.824 1022.55 707.379 1024.67 704.884C1025.77 706.051 1027.22 707.005 1028.87 707.112C1030.59 706.913 1032.28 705.536 1032.41 703.724ZM1164.3 709.312C1167.13 707.464 1169.96 705.6 1172.81 703.766C1172.83 714.668 1172.79 725.572 1172.83 736.474C1173.45 737.31 1174.29 737.998 1175.03 738.733C1175.5 738.232 1175.98 737.752 1176.47 737.268C1176.58 737.381 1176.81 737.608 1176.92 737.719C1174.65 739.687 1172.45 741.731 1170.17 743.678C1168.73 742.201 1167.24 740.776 1165.81 739.292C1165.17 739.862 1164.59 740.486 1163.98 741.093C1163.86 740.999 1163.62 740.807 1163.49 740.713C1164.58 739.671 1165.75 738.716 1166.85 737.684C1166.84 729.421 1166.86 721.159 1166.84 712.898C1166.81 711.353 1166.03 709.503 1164.3 709.312ZM952.59 709.633C955.03 707.814 957.424 705.928 959.867 704.116C959.879 710.122 959.864 716.13 959.874 722.139C961.941 720.433 964.025 718.748 966.071 717.019C967.713 718.722 969.247 720.532 970.938 722.181C971.652 721.669 972.384 721.182 973.133 720.724C972.999 721.676 971.86 722.002 971.269 722.666C971.276 725.95 971.269 729.232 971.272 732.516C971.319 734.971 970.964 737.409 970.891 739.862C970.78 742.522 969.748 745.242 967.673 746.988C965.986 748.496 963.68 749.039 961.481 749.221C961.443 749.273 961.362 749.379 961.322 749.433L961.381 749.24C960.623 749.24 959.867 749.211 959.111 749.155C960.061 748.663 961.136 748.349 961.885 747.536C962.745 746.577 963.746 745.662 964.169 744.408C964.862 742.494 964.883 740.431 964.951 738.423C964.933 733.922 964.973 729.419 964.93 724.92C963.928 723.613 962.728 722.46 961.665 721.199C961.084 721.82 960.387 722.342 959.888 723.032C959.848 727.677 959.883 732.325 959.872 736.97C960.474 737.57 961.074 738.175 961.681 738.77C962.168 738.281 962.655 737.79 963.142 737.298C963.251 737.405 963.465 737.617 963.574 737.724C961.211 739.571 958.872 741.448 956.51 743.293C955.014 741.965 953.554 740.599 952.082 739.245C951.588 739.614 951.094 739.987 950.598 740.353C950.492 740.242 950.284 740.02 950.178 739.909C951.312 739.179 952.425 738.416 953.547 737.671C953.545 729.411 953.545 721.153 953.547 712.893C953.523 712.262 953.554 711.582 953.221 711.02C953.001 710.59 952.505 710.453 952.134 710.193C952.051 709.919 952.443 709.803 952.59 709.633ZM1115.32 705.248C1113.1 707.046 1110.93 708.899 1108.73 710.723C1108.71 709.003 1108.76 707.287 1108.7 705.567C1108.36 705.55 1108.21 705.704 1108.26 706.027C1108.25 718.186 1108.26 730.344 1108.25 742.502C1107.05 742.273 1105.85 742.033 1104.66 741.764C1104.64 731.51 1104.66 721.257 1104.66 711.001C1104.63 709.704 1104.21 708.4 1103.36 707.41C1102.29 706.15 1100.63 705.565 1099.03 705.454C1097.12 705.4 1095.38 706.4 1094.05 707.687C1092.83 708.847 1092.18 710.641 1092.52 712.306C1092.67 711.274 1093.01 710.11 1093.96 709.536C1095 709.092 1096.39 709.45 1097.01 710.428C1097.55 711.217 1097.6 712.204 1097.62 713.127C1097.62 715.899 1097.62 718.67 1097.62 721.444C1095.79 721.473 1093.63 721.768 1092.58 723.464C1091.51 724.792 1091.18 726.675 1091.91 728.237C1092.39 729.782 1094 730.579 1095.49 730.824C1094.66 730.284 1093.81 729.331 1094.3 728.273C1094.96 727.209 1096.47 727.053 1097.6 727.363C1097.64 732.282 1097.62 737.199 1097.61 742.118C1095.93 742.704 1094.3 743.721 1093.4 745.302C1092.75 746.429 1092.73 747.777 1092.79 749.041C1092.99 751.257 1094.45 753.281 1096.41 754.292C1097.9 754.987 1099.57 755.008 1101.18 754.954C1105.74 754.682 1110.07 752.872 1114.64 752.721C1116 752.62 1116.8 754.124 1116.44 755.303C1116.17 756.368 1115.27 757.089 1114.43 757.713C1116.03 757.372 1117.63 756.77 1118.88 755.68C1120.3 754.483 1120.95 752.551 1120.86 750.736C1120.75 748.941 1119.3 747.605 1117.8 746.832C1115.82 745.67 1113.42 745.928 1111.24 746.165C1107.14 746.637 1103.15 747.938 1099.01 748.049C1097.61 748.144 1096.3 747.15 1096.02 745.775C1095.7 744.45 1096.78 743.29 1097.87 742.721C1100.23 741.608 1102.94 742.02 1105.4 742.538C1108.25 742.836 1110.93 743.999 1113.78 744.292C1115.4 744.477 1117.12 744.165 1118.45 743.182C1119.82 742.336 1120.44 740.688 1120.48 739.136C1120.5 729.458 1120.46 719.781 1120.5 710.104C1121.38 709.336 1122.36 708.647 1123.13 707.759C1122.05 708.026 1121.37 709.036 1120.49 709.655C1118.75 708.206 1117.05 706.72 1115.32 705.248ZM1110.49 710.139C1111.48 710.989 1112.46 711.856 1113.45 712.714C1113.45 715.762 1113.44 718.81 1113.45 721.858C1112.98 722.321 1112.47 722.81 1111.78 722.897C1110.66 723.134 1109.57 722.58 1108.72 721.887C1108.73 718.329 1108.73 714.772 1108.72 711.214C1109.32 710.859 1109.9 710.505 1110.49 710.139ZM1108.72 722.732C1110.18 723.469 1112.04 723.692 1113.45 722.738C1113.45 724.12 1113.45 725.508 1113.45 726.89C1112.88 726.333 1112.14 725.89 1111.32 725.892C1110.36 725.871 1109.47 726.326 1108.72 726.89C1108.73 725.506 1108.72 724.119 1108.72 722.732ZM1111.31 726.329C1112.25 726.353 1112.97 727.051 1113.45 727.788C1113.44 731.647 1113.45 735.507 1113.45 739.366C1113.53 740.549 1112.71 741.562 1111.82 742.242C1110.96 742.925 1109.79 742.949 1108.75 742.892C1108.69 737.852 1108.75 732.805 1108.72 727.765C1109.4 727.03 1110.26 726.315 1111.31 726.329ZM1227.63 711.537C1229.16 710.195 1230.6 708.754 1232.17 707.45C1233.49 708.846 1234.89 710.174 1236.23 711.549C1234.62 713.059 1232.99 714.557 1231.36 716.043C1230.12 714.533 1228.85 713.059 1227.63 711.537ZM1050.92 712.974C1051.88 712.317 1053.09 712.357 1054.19 712.215C1053.36 712.875 1052.43 713.64 1052.32 714.777C1052.13 715.793 1052.78 716.707 1053.53 717.317C1054.89 718.408 1056.64 719.018 1057.75 720.417C1058.28 721.092 1058.61 721.948 1058.58 722.815C1058.58 727.398 1058.59 731.98 1058.58 736.561C1059.8 737.546 1061.02 738.52 1062.24 739.505C1062.59 739.276 1062.95 739.047 1063.3 738.818C1063.29 733.816 1063.33 728.811 1063.28 723.812C1062.66 723.072 1061.79 722.543 1061.07 721.884C1062.83 720.265 1064.55 718.604 1066.35 717.026C1067.91 718.557 1069.55 720.005 1071.14 721.494C1070.54 722.136 1069.91 722.762 1069.27 723.37C1069.26 727.767 1069.27 732.164 1069.26 736.561C1070.86 737.799 1072.46 739.04 1074.07 740.259C1074.3 740.126 1074.53 739.997 1074.76 739.867C1074.74 734.496 1074.76 729.128 1074.75 723.757C1074.01 723.127 1073.24 722.524 1072.51 721.881C1074.24 720.251 1075.98 718.649 1077.72 717.031C1079.45 718.382 1081.17 719.734 1082.89 721.097C1083.49 720.44 1084.1 719.788 1084.78 719.214C1084.87 719.339 1085.04 719.592 1085.13 719.717C1083.66 721.026 1082.2 722.352 1080.78 723.71C1080.65 727.991 1080.78 732.287 1080.72 736.571C1076.98 739.028 1073.07 741.27 1069.28 743.661C1067.28 742.227 1065.33 740.715 1063.36 739.248C1061.58 740.672 1059.81 742.099 1058.03 743.51C1057.77 743.793 1057.51 743.38 1057.3 743.262C1055.63 741.922 1053.97 740.57 1052.28 739.262C1051.57 739.881 1050.83 740.459 1050.12 741.078C1050.01 740.97 1049.78 740.755 1049.67 740.648C1050.54 740.049 1051.39 739.417 1052.25 738.817C1052.26 734.666 1052.26 730.517 1052.25 726.366C1052.25 725.255 1051.86 724.13 1051.1 723.308C1050.27 722.403 1049.15 721.768 1048.48 720.707C1047.75 719.474 1047.68 717.945 1047.96 716.567C1048.37 715.011 1049.61 713.824 1050.92 712.974ZM1313.88 715.939C1314.05 716.374 1314.11 716.859 1313.89 717.292C1313.37 718.485 1311.95 718.943 1310.74 718.922C1309.47 718.809 1308.48 717.898 1307.63 717.038C1306.2 717.997 1304.76 718.949 1303.33 719.909C1301.68 721.019 1299.86 721.839 1298.03 722.602C1298.03 724.951 1298.04 727.294 1298.03 729.643C1299.36 730.756 1300.74 731.819 1302.04 732.963C1301.04 734.026 1300.05 735.104 1299.1 736.217C1298.13 737.389 1297.21 738.743 1297.15 740.317C1297.1 742.105 1297.86 744.042 1299.45 744.989C1300.14 745.4 1301 745.766 1301.81 745.45C1300.8 745.088 1299.55 744.356 1299.64 743.122C1299.92 741.955 1301.31 741.174 1302.46 741.51C1303.65 741.85 1304.64 742.703 1305.4 743.66C1308.47 741.451 1311.7 739.477 1315.05 737.735C1315.03 734.756 1315.09 731.769 1315.02 728.792C1313.54 727.753 1312.13 726.62 1310.66 725.561C1312.21 723.598 1313.77 721.521 1314.42 719.064C1314.66 718.027 1314.74 716.719 1313.88 715.939ZM1304.01 720.405C1305 721.834 1306.32 723.225 1308.12 723.518C1309.92 723.941 1311.66 722.966 1312.84 721.669C1311.23 724.653 1308.72 727.049 1306.14 729.194C1305.44 728.452 1304.69 727.761 1303.99 727.014C1304.02 724.812 1304 722.607 1304.01 720.405ZM1306.54 729.312C1307.31 729.964 1308.08 730.628 1308.85 731.285C1309.21 731.498 1309.04 731.942 1309.09 732.277C1309.06 734.836 1309.12 737.403 1309.06 739.962C1308.48 738.653 1307.61 737.435 1306.39 736.66C1304.61 735.5 1302.17 735.433 1300.37 736.56C1299.54 737.018 1298.88 737.702 1298.25 738.397C1299.15 736.648 1300.59 735.268 1301.96 733.884C1303.51 732.386 1305.06 730.891 1306.54 729.312ZM987.486 717.032C985.445 718.213 983.472 719.502 981.473 720.747C979.779 721.631 978.058 722.465 976.352 723.323C976.359 728.107 976.345 732.892 976.364 737.676C975.636 738.241 974.786 738.647 974.125 739.295C974.252 739.37 974.505 739.524 974.633 739.602C975.205 739.108 975.77 738.605 976.399 738.185C978.514 739.942 980.509 741.846 982.619 743.613C982.723 743.559 982.932 743.449 983.038 743.394C986.611 740.625 990.22 737.897 993.794 735.131L993.351 734.741C991.362 736.291 989.427 737.923 987.456 739.496C985.828 738.031 984.254 736.508 982.63 735.036C982.078 734.632 982.387 733.865 982.347 733.294C985.681 730.853 989.016 728.411 992.3 725.904C990.66 722.965 989.074 719.999 987.486 717.032ZM982.335 720.558C984.022 723.33 985.718 726.092 987.386 728.875C985.689 730.068 984.007 731.276 982.33 732.49C982.313 728.514 982.305 724.535 982.335 720.558ZM1042.74 717.026C1041.3 717.973 1039.85 718.909 1038.38 719.802C1036.23 721.149 1033.89 722.163 1031.64 723.323C1031.65 728.105 1031.63 732.888 1031.65 737.67C1030.95 738.188 1030.18 738.598 1029.51 739.141C1029.58 739.266 1029.73 739.518 1029.8 739.643C1030.55 739.14 1031.29 738.624 1032.05 738.149C1033.99 739.999 1035.95 741.821 1037.9 743.654C1041.55 740.946 1045.12 738.142 1048.73 735.385C1049.2 735.29 1048.82 734.539 1048.52 734.829C1046.57 736.346 1044.67 737.941 1042.74 739.496C1041.23 737.995 1039.73 736.488 1038.22 734.983C1037.73 734.555 1038.02 733.842 1038 733.282C1041.2 730.9 1044.31 728.382 1047.53 726.01C1046.05 722.962 1044.31 720.029 1042.74 717.026ZM1037.95 720.653C1039.61 723.346 1041.12 726.13 1042.65 728.899C1041.07 730.054 1039.55 731.28 1037.99 732.455C1037.92 728.523 1037.99 724.587 1037.95 720.653ZM1135.94 717.038C1134.36 717.957 1132.8 718.904 1131.27 719.897C1129.47 720.993 1127.51 721.772 1125.59 722.632C1125.64 727.65 1125.61 732.67 1125.61 737.688C1124.97 738.326 1124.33 738.962 1123.7 739.614C1123.83 739.607 1124.09 739.588 1124.22 739.579C1124.68 739.094 1125.15 738.621 1125.62 738.149C1127.77 739.907 1129.88 741.703 1132.02 743.477C1132.37 743.817 1132.77 743.311 1133.11 743.187C1136.54 741.311 1139.78 739.101 1143.31 737.416C1143.37 732.741 1143.33 728.066 1143.34 723.388C1143.98 722.75 1144.62 722.114 1145.25 721.462C1145.12 721.464 1144.87 721.475 1144.74 721.48C1144.15 721.969 1143.55 722.445 1142.95 722.927C1140.61 720.966 1138.28 718.989 1135.94 717.038ZM1131.94 720.505C1133.63 722.091 1135.34 723.652 1137.03 725.242C1137.01 730.221 1137.02 735.197 1137.02 740.175C1135.29 738.658 1133.65 737.049 1131.94 735.509L1131.94 720.505Z" fill="white"/>
<path d="M1173.1 728.189C1175.54 724.454 1178.02 720.751 1180.52 717.054C1181.6 717.972 1182.93 718.54 1184.34 718.684C1185.72 718.686 1186.9 717.866 1187.94 717.047C1187.68 719.062 1187.01 721.155 1185.46 722.557C1184.11 723.795 1182.06 724.092 1180.37 723.487C1179.36 723.147 1178.44 722.613 1177.61 721.959C1177.46 722.304 1177.34 722.66 1177.25 723.024C1180.71 728.227 1184.1 733.477 1187.49 738.722C1188.27 738.217 1188.96 737.579 1189.64 736.957C1189.78 737.042 1190.05 737.213 1190.18 737.297C1187.74 739.474 1185.22 741.562 1182.72 743.67C1179.5 738.517 1176.36 733.319 1173.1 728.189ZM1289.97 717.031C1288.46 717.946 1286.95 718.859 1285.47 719.802C1283.42 721.229 1281.06 722.117 1278.88 723.322C1278.91 728.104 1278.88 732.89 1278.9 737.67C1278.14 738.166 1277.4 738.671 1276.65 739.158C1276.75 739.276 1276.94 739.519 1277.04 739.637C1277.69 739.157 1278.27 738.588 1278.97 738.172C1280.92 739.984 1282.96 741.698 1284.94 743.482C1285.13 743.785 1285.4 743.475 1285.59 743.352C1289.16 740.607 1292.73 737.878 1296.3 735.142C1295.88 734.409 1295.4 735.119 1294.99 735.419C1293.31 736.783 1291.64 738.145 1289.96 739.501C1288.24 737.934 1286.58 736.31 1284.83 734.781C1284.81 734.289 1284.8 733.796 1284.83 733.304C1288.17 730.883 1291.47 728.404 1294.79 725.945C1293.19 722.965 1291.59 719.992 1289.97 717.031ZM1284.81 720.64C1286.62 723.313 1288.2 726.136 1289.9 728.886C1288.18 730.066 1286.51 731.313 1284.8 732.501C1284.82 728.548 1284.8 724.593 1284.81 720.64ZM1152.08 717.425C1153.43 718.656 1154.57 720.106 1155.82 721.437C1157.19 720.128 1158.52 718.781 1159.84 717.422C1160.8 718.037 1161.8 718.899 1163.03 718.651C1163.9 718.592 1164.35 717.741 1165.09 717.394C1165.09 719.201 1164.67 721.101 1163.48 722.505C1162.11 724.144 1159.52 724.624 1157.68 723.499C1156.98 723.157 1156.51 722.5 1155.85 722.096C1155.87 727.039 1155.86 731.979 1155.86 736.922C1156.83 737.671 1157.81 738.418 1158.81 739.131C1159.54 738.654 1160.1 737.775 1161.02 737.692C1158.86 739.748 1156.59 741.704 1154.34 743.663C1152.65 742.068 1150.92 740.513 1149.25 738.9C1148.6 739.486 1147.99 740.124 1147.37 740.74C1147.27 740.625 1147.07 740.395 1146.98 740.28C1147.8 739.368 1148.71 738.545 1149.55 737.65C1149.52 733.421 1149.57 729.191 1149.53 724.964C1149.08 723.896 1148.3 722.97 1147.73 721.95C1146.96 722.406 1146.4 723.355 1145.44 723.388C1147.62 721.368 1149.91 719.457 1152.08 717.425ZM1239.76 722.712C1241.77 720.952 1243.73 719.147 1245.76 717.401C1247.21 719.001 1248.71 720.555 1250.13 722.178C1252.27 720.636 1254.32 718.977 1256.43 717.401C1257.92 718.989 1259.37 720.603 1260.86 722.178C1262.96 720.591 1265.03 718.97 1267.14 717.403C1268.58 719.01 1270.07 720.577 1271.53 722.169C1272.42 721.6 1273.24 720.917 1274.15 720.371C1274.22 720.9 1273.73 721.141 1273.4 721.434C1272.91 721.826 1272.44 722.238 1271.95 722.627C1271.91 727.027 1271.96 731.426 1271.93 735.825C1272.77 736.696 1273.62 737.55 1274.49 738.387C1274.95 737.907 1275.43 737.437 1275.88 736.945C1276.01 737.03 1276.28 737.198 1276.42 737.283C1274.21 739.455 1271.94 741.56 1269.68 743.67C1268.08 741.787 1266.41 739.965 1264.85 738.049C1265.23 737.701 1265.6 737.34 1265.96 736.976C1265.97 733.182 1265.96 729.387 1265.96 725.595C1264.76 724.251 1263.56 722.901 1262.31 721.593C1261.95 721.959 1261.59 722.323 1261.24 722.691C1261.24 727.435 1261.26 732.18 1261.23 736.924C1261.83 737.595 1262.5 738.195 1263.11 738.864C1261.47 740.312 1259.9 741.829 1258.28 743.292C1256.76 741.697 1255.27 740.08 1253.8 738.441C1254.22 737.926 1255.06 737.553 1254.93 736.768C1254.91 733.068 1254.94 729.366 1254.91 725.668C1253.89 724.26 1252.76 722.897 1251.59 721.611C1251.25 721.975 1250.9 722.332 1250.55 722.689C1250.56 727.284 1250.52 731.882 1250.57 736.478C1251.06 737.323 1251.8 738.016 1252.42 738.779C1250.83 740.445 1249.2 742.063 1247.54 743.663C1245.97 741.782 1244.33 739.951 1242.74 738.082C1243.24 737.697 1243.74 737.317 1244.24 736.931C1244.22 733.049 1244.21 729.165 1244.24 725.283C1243.31 724.13 1242.29 723.053 1241.31 721.94C1240.62 722.455 1240.01 723.102 1239.21 723.466C1239.17 723.105 1239.53 722.932 1239.76 722.712Z" fill="white"/>
<path d="M1225.77 723.018C1227.85 721.113 1230 719.282 1232.1 717.399C1233.6 719.1 1235.05 720.839 1236.54 722.547C1237.31 721.942 1238 721.224 1238.86 720.726C1238.8 720.997 1238.72 721.279 1238.47 721.432C1237.83 721.964 1237.19 722.498 1236.55 723.015C1236.56 727.422 1236.53 731.826 1236.56 736.232C1237.4 737.182 1238.27 738.113 1239.06 739.115C1239.71 738.716 1240.26 738.17 1240.88 737.726C1241.01 737.796 1241.28 737.936 1241.41 738.004C1239.34 739.951 1237.18 741.818 1235.02 743.663C1233.58 741.934 1232.1 740.232 1230.63 738.529C1229.99 739.11 1229.46 739.814 1228.75 740.32C1228.65 740.228 1228.46 740.039 1228.36 739.944C1228.98 739.354 1229.57 738.725 1230.2 738.139C1230.25 734.137 1230.2 730.129 1230.23 726.127C1230.19 725.569 1230.37 724.91 1229.93 724.466C1229.16 723.509 1228.45 722.502 1227.63 721.588C1227.02 722.082 1226.45 722.618 1225.77 723.018Z" fill="white"/>
</g>
</g>
</g>
<g filter="url(#filter3_dd_623_13769)">
<rect x="636" y="379" width="416" height="180" rx="16" fill="#58AD75"/>
<g clip-path="url(#clip6_623_13769)">
<path d="M844.133 435V458H821.133V504H798.133V458H775.133V435H844.133Z" fill="white"/>
<path d="M913.133 435H867.133V458H913.133V435Z" fill="white"/>
<path d="M913.133 481V504H844.133V458H867.133V481H913.133Z" fill="white"/>
</g>
</g>
<g filter="url(#filter4_dd_623_13769)">
<rect x="349" y="641" width="416" height="180" rx="16" fill="#338AF3"/>
<g clip-path="url(#clip7_623_13769)">
<path d="M464.23 745.874V715.702C464.23 714.135 464.588 712.959 465.303 712.176C466.017 711.392 466.942 711 468.074 711C469.242 711 470.187 711.388 470.911 712.163C471.634 712.938 471.997 714.117 471.997 715.702V745.874C471.997 747.459 471.634 748.643 470.911 749.427C470.187 750.211 469.242 750.603 468.074 750.603C466.958 750.603 466.039 750.206 465.315 749.414C464.592 748.621 464.23 747.441 464.23 745.874Z" fill="white"/>
<path d="M675.209 719.035C668.715 719.035 663.431 724.32 663.431 730.814C663.431 737.308 668.715 742.592 675.209 742.592C681.703 742.592 686.987 737.308 686.987 730.814C686.987 724.32 681.703 719.035 675.209 719.035ZM675.209 750.603C664.298 750.603 655.42 741.725 655.42 730.814C655.42 719.902 664.298 711.025 675.209 711.025C686.122 711.025 694.998 719.902 694.998 730.814C694.998 741.725 686.122 750.603 675.209 750.603Z" fill="white"/>
<path d="M586.373 719.035C579.879 719.035 574.595 724.32 574.595 730.814C574.595 737.308 579.879 742.592 586.373 742.592C592.868 742.592 598.15 737.308 598.15 730.814C598.15 724.32 592.868 719.035 586.373 719.035ZM586.373 750.603C575.461 750.603 566.584 741.725 566.584 730.814C566.584 719.902 575.461 711.025 586.373 711.025C597.285 711.025 606.162 719.902 606.162 730.814C606.162 741.725 597.285 750.603 586.373 750.603Z" fill="white"/>
<path d="M630.693 742.495C629.735 742.558 628.705 742.568 627.597 742.568H622.401V719.035H627.597C628.705 719.035 629.735 719.047 630.693 719.108C634.127 719.518 637.111 721.409 638.986 724.128C640.292 726.021 641.062 728.31 641.067 730.778C641.067 730.784 641.068 730.791 641.068 730.797V730.806C641.068 730.812 641.067 730.819 641.067 730.825C641.062 733.293 640.292 735.582 638.986 737.476C637.111 740.194 634.127 742.084 630.693 742.495ZM649.079 730.802V730.796C649.077 726.429 647.653 722.39 645.25 719.113C641.754 714.347 636.182 711.201 629.878 711.016C629.682 711.01 629.487 711 629.289 711C629.278 711 619.352 711.013 619.352 711.013C617.656 711.013 616.427 711.399 615.668 712.172C614.907 712.945 614.527 714.193 614.527 715.919V745.684C614.527 747.41 614.907 748.658 615.668 749.432C616.427 750.205 617.656 750.591 619.352 750.591C619.352 750.591 629.278 750.603 629.289 750.603C629.487 750.603 629.682 750.593 629.878 750.588C636.182 750.402 641.754 747.256 645.25 742.49C647.653 739.213 649.077 735.174 649.079 730.807V730.802Z" fill="white"/>
<path d="M555.376 711.177C553.93 710.727 552.368 711.296 551.525 712.579L539.594 730.754L527.662 712.579C526.821 711.296 525.258 710.727 523.812 711.177C522.366 711.626 521.379 712.989 521.379 714.534V746.837C521.379 748.776 522.916 750.347 524.811 750.347C526.707 750.347 528.244 748.776 528.244 746.837V726.063L536.716 738.966C536.722 738.975 536.727 738.983 536.733 738.992L536.743 739.008C536.753 739.024 536.766 739.038 536.776 739.054C536.829 739.131 536.883 739.208 536.943 739.281C536.97 739.314 536.997 739.343 537.024 739.374C537.072 739.428 537.118 739.483 537.168 739.534C537.213 739.581 537.262 739.624 537.31 739.668C537.344 739.7 537.379 739.733 537.415 739.764C537.483 739.821 537.552 739.872 537.623 739.922C537.643 739.936 537.661 739.953 537.681 739.967C537.684 739.969 537.686 739.97 537.69 739.972C537.766 740.023 537.844 740.07 537.924 740.115C537.945 740.128 537.967 740.143 537.989 740.154C538.049 740.187 538.11 740.214 538.172 740.243C538.519 740.405 538.883 740.507 539.25 740.545C539.253 740.545 539.255 740.545 539.257 740.546C539.33 740.552 539.402 740.554 539.474 740.557C539.514 740.558 539.554 740.562 539.594 740.562C539.634 740.562 539.673 740.558 539.713 740.557C539.786 740.554 539.859 740.552 539.931 740.546C539.933 740.545 539.936 740.545 539.938 740.545C540.305 740.507 540.669 740.405 541.016 740.243C541.078 740.214 541.14 740.187 541.199 740.154C541.222 740.143 541.242 740.128 541.265 740.115C541.345 740.07 541.423 740.023 541.498 739.972C541.502 739.97 541.505 739.969 541.508 739.967C541.528 739.953 541.546 739.936 541.565 739.922C541.636 739.872 541.706 739.821 541.773 739.764C541.81 739.733 541.844 739.7 541.88 739.667C541.927 739.624 541.975 739.581 542.02 739.535C542.071 739.483 542.117 739.428 542.164 739.374C542.192 739.343 542.22 739.313 542.245 739.281C542.305 739.208 542.359 739.131 542.412 739.054C542.423 739.038 542.435 739.024 542.445 739.008L542.455 738.992C542.461 738.983 542.466 738.975 542.473 738.966L550.943 726.063V746.837C550.943 748.776 552.479 750.347 554.378 750.347C556.272 750.347 557.81 748.776 557.81 746.837V714.534C557.81 712.989 556.822 711.626 555.376 711.177Z" fill="white"/>
<path d="M509.696 749.399H484.035C482.685 749.399 481.185 748.555 480.63 747.24C480.074 745.928 479.96 744.14 481.155 742.715L502.146 718.36H484.805C482.909 718.36 481.371 716.718 481.371 714.692C481.371 712.666 482.909 711.429 484.805 711.429H508.19C509.539 711.429 510.937 711.644 512.158 712.981C513.273 714.204 513.224 716.842 511.975 718.415L491.693 742.064H509.696C511.592 742.064 512.973 743.706 512.973 745.731C512.973 747.756 511.592 749.399 509.696 749.399Z" fill="white"/>
<path d="M438.646 750.603C432.952 750.603 427.788 748.345 424.105 744.246C420.86 740.634 419 735.874 419 731.188C419 716.481 431.225 711 438.932 711C446.509 711 452.071 714.716 452.304 714.873C454.01 716.032 454.467 718.372 453.324 720.1C452.183 721.823 449.884 722.288 448.179 721.143C448.08 721.079 444.134 718.534 438.932 718.534C434.101 718.534 427.44 721.722 427.44 731.188C427.44 736.573 431.446 742.924 438.79 742.924C442.922 742.924 445.827 741.823 447.516 740.749V735.148H441.793C439.739 735.148 438.074 733.462 438.074 731.381C438.074 729.301 439.739 727.614 441.793 727.614H451.235C453.289 727.614 454.955 729.301 454.955 731.381V742.585C454.955 743.604 454.547 744.579 453.826 745.289C451.332 747.74 445.86 750.603 438.646 750.603Z" fill="white"/>
</g>
</g>
<g filter="url(#filter5_dd_623_13769)">
<rect x="1134" y="379" width="497" height="180" rx="16" fill="white"/>
<rect width="497" height="40.2609" transform="translate(1134 449)" fill="white"/>
<g clip-path="url(#clip8_623_13769)">
<path d="M1236.04 450.069H1241.38V465.233H1255.05V450.069H1259.1V487.445H1255.05V467.369H1241.38V487.445H1236.04V450.069ZM1295.31 487.552H1298.3V457.544L1321.9 488.086V450.176H1319.01V474.524L1299.9 450.176H1295.31V487.552ZM1326.92 487.552H1348.91L1351.69 481.892C1351.69 481.892 1347.85 484.989 1340.37 484.989C1338.88 484.989 1332.68 484.989 1332.68 484.989V467.689C1332.68 467.689 1335.14 467.689 1338.24 467.689C1341.33 467.689 1342.61 469.611 1342.61 469.611V464.058C1341.55 465.126 1341.12 465.447 1338.24 465.447C1335.46 465.447 1332.68 465.447 1332.68 465.447V452.311C1332.68 452.311 1333 452.311 1335.99 452.311C1340.26 452.311 1342.51 454.554 1342.51 454.554L1340.58 450.176H1326.92V487.552ZM1516.47 487.552H1531.21L1534.52 483.067C1534.52 483.067 1531.95 485.096 1525.44 485.096C1523.94 485.096 1521.81 485.096 1521.81 485.096V467.476C1521.81 467.476 1524.69 467.476 1527.9 467.476C1530.99 467.476 1531.63 468.757 1531.63 468.757V464.379C1530.78 465.233 1530.14 465.447 1527.9 465.447C1525.12 465.447 1521.81 465.447 1521.81 465.447V452.311C1521.81 452.311 1523.73 452.311 1526.83 452.311C1531.53 452.311 1533.66 454.554 1533.66 454.554L1531.74 450.176H1516.58L1516.47 487.552ZM1264.12 487.445H1278.86L1282.17 482.96C1282.17 482.96 1279.61 484.989 1273.09 484.989C1271.6 484.989 1269.46 484.989 1269.46 484.989V467.476C1269.46 467.476 1272.35 467.476 1275.55 467.476C1278.65 467.476 1279.29 468.757 1279.29 468.757V464.272C1278.43 465.126 1277.79 465.34 1275.55 465.34C1272.77 465.34 1269.46 465.34 1269.46 465.34V452.205C1269.46 452.205 1271.38 452.205 1274.48 452.205C1279.18 452.205 1281.32 454.447 1281.32 454.447L1279.39 450.069H1264.23L1264.12 487.445ZM1220.87 452.525C1220.87 452.525 1222.37 452.525 1225.57 452.525C1230.59 452.525 1232.83 454.768 1232.83 454.768L1230.8 450.176H1220.98H1206.03L1204 454.768C1204 454.768 1206.24 452.525 1211.26 452.525C1214.57 452.525 1214.68 452.525 1215.75 452.525V487.445H1221.09L1220.87 452.525ZM1360.98 487.873L1366.64 475.592L1372.41 487.766L1389.07 450.069H1385.76L1373.69 477.514L1369.63 468.65L1377.53 450.069H1374.76L1368.14 464.699L1361.2 450.069H1355.64L1365.15 471.747L1362.58 477.514L1350.2 450.069H1344.43L1360.98 487.873ZM1419.93 469.184C1419.93 479.223 1427.83 489.261 1441.18 489.261C1454.53 489.261 1461.58 481.038 1461.58 468.116C1461.58 458.078 1453.78 449.001 1440.86 449.001C1428.37 448.894 1419.93 457.865 1419.93 469.184ZM1440.65 451.03C1450.79 451.03 1456.03 460.855 1456.03 468.544C1456.03 478.155 1451.86 486.591 1441.61 486.591C1430.4 486.591 1425.48 476.98 1425.48 468.223C1425.48 456.69 1433.6 451.03 1440.65 451.03ZM1465.96 487.552H1471.4V452.205C1471.4 452.205 1473.54 452.205 1473.86 452.205C1475.25 452.205 1478.66 453.059 1478.66 458.719C1478.66 464.699 1473.75 465.767 1473.75 465.767V466.515C1476.1 466.515 1478.99 466.728 1478.99 477.407C1478.99 484.776 1481.55 487.979 1484.97 487.979C1488.38 487.979 1489.88 485.63 1490.09 485.31L1489.34 484.776C1489.02 485.31 1488.06 486.164 1486.78 486.164C1485.18 486.164 1483.36 483.494 1483.36 476.446C1483.36 469.291 1481.44 466.728 1476.1 465.874C1478.99 464.913 1483.36 463.418 1483.36 457.651C1483.36 452.739 1479.52 450.069 1474.93 450.069C1471.51 450.069 1466.17 450.069 1466.17 450.069L1465.96 487.552ZM1536.87 487.552H1542.31V452.205C1542.31 452.205 1544.45 452.205 1544.77 452.205C1546.16 452.205 1549.57 453.059 1549.57 458.719C1549.57 464.699 1544.66 465.767 1544.66 465.767V466.515C1547.01 466.515 1549.89 466.728 1549.89 477.407C1549.89 484.776 1552.46 487.979 1555.87 487.979C1559.29 487.979 1560.79 485.63 1561 485.31L1560.25 484.776C1559.93 485.31 1558.97 486.164 1557.69 486.164C1556.09 486.164 1554.27 483.494 1554.27 476.446C1554.27 469.291 1552.35 466.728 1547.01 465.874C1549.89 464.913 1554.27 463.418 1554.27 457.651C1554.27 452.739 1550.43 450.069 1545.84 450.069C1542.42 450.069 1537.08 450.069 1537.08 450.069L1536.87 487.552ZM1507.71 475.165C1507.71 466.621 1505.9 462.67 1500.56 461.709L1510.92 450.176H1507.39L1497.57 461.175V450.176H1492.23L1492.12 487.552H1497.57V462.884H1498.74C1499.7 462.884 1501.84 464.165 1502.37 465.981C1503.12 468.223 1503.33 471.64 1503.33 476.126V477.621C1503.33 484.989 1505.9 488.193 1509.31 488.193C1512.73 488.193 1514.23 485.844 1514.44 485.523L1513.69 484.989C1513.37 485.523 1512.41 486.378 1511.13 486.378C1509.53 486.378 1507.71 483.708 1507.71 476.66V475.165ZM1412.24 487.552V468.223L1422.6 450.176H1419.18L1409.25 467.369L1399.32 450.176H1395.9L1406.26 468.223V487.552H1412.24Z" fill="black"/>
</g>
</g>
<g filter="url(#filter6_dd_623_13769)">
<rect x="138" y="379" width="416" height="180" rx="16" fill="black"/>
<g clip-path="url(#clip9_623_13769)">
<path d="M263.81 446.963H268.265C270.978 446.563 273.748 446.915 276.276 447.979C279.446 449.887 281.746 452.958 282.685 456.537C283.349 458.413 283.349 458.413 284.951 457.748H286.202V442.899H244.271V445.517H245.99C246.737 445.512 247.476 445.674 248.152 445.992C248.829 446.31 249.425 446.775 249.898 447.354C251.5 449.933 251.774 452.825 251.774 467.87C251.774 483.853 251.422 487.76 249.898 489.753C249.522 490.266 249.035 490.687 248.473 490.984C247.911 491.282 247.29 491.449 246.655 491.473C244.271 491.903 244.271 491.864 244.271 492.919C244.139 493.272 244.139 493.66 244.271 494.013H270.727C270.902 493.668 270.993 493.286 270.993 492.899C270.993 492.512 270.902 492.131 270.727 491.785C270.086 491.607 269.433 491.477 268.773 491.395C268.059 491.31 267.353 491.166 266.662 490.965C265.674 490.243 264.891 489.276 264.39 488.159C263.89 487.042 263.69 485.813 263.81 484.595C263.419 482.016 263.224 477.288 263.224 473.38V470.293H264.787C266.734 470.233 268.681 470.443 270.57 470.918C271.476 471.477 272.246 472.23 272.827 473.121C273.408 474.013 273.785 475.022 273.931 476.076L274.283 477.288H276.666V459.976H274.478L274.126 461.656C273.978 462.734 273.58 463.763 272.962 464.658C272.344 465.554 271.525 466.293 270.57 466.815C269.646 467.09 268.671 467.157 267.718 467.01H263.224V462.79C263.224 458.413 263.458 449.19 263.614 447.744L263.81 446.963ZM446.695 477.952C444.848 474.979 441.967 472.794 438.606 471.817C436.03 471.011 433.648 469.681 431.611 467.909C431.153 467.466 430.81 466.917 430.612 466.311C430.415 465.704 430.369 465.059 430.478 464.431C430.481 463.199 430.973 462.018 431.846 461.148C432.437 460.529 433.186 460.081 434.012 459.854C434.838 459.627 435.71 459.629 436.535 459.859C438.243 460.346 439.788 461.285 441.006 462.579C442.224 463.872 443.069 465.471 443.452 467.205C444.077 468.964 444.155 468.964 445.288 468.495L445.992 468.221V458.491L445.484 458.256C441.637 456.905 437.556 456.347 433.487 456.615C429.983 456.704 426.638 458.098 424.108 460.523C422.961 461.597 422.062 462.909 421.474 464.367C420.887 465.825 420.626 467.394 420.708 468.964C420.73 471.364 421.683 473.661 423.366 475.373C425.225 477.202 427.507 478.544 430.009 479.281C436.066 481.664 437.825 483.188 437.825 485.963C437.851 487.133 437.478 488.277 436.768 489.207C436.058 490.138 435.052 490.799 433.917 491.082C432.552 491.382 431.139 491.382 429.774 491.082C427.988 490.389 426.393 489.279 425.122 487.845C423.851 486.41 422.941 484.693 422.467 482.837L421.959 481.586H421.255C420.919 481.611 420.589 481.69 420.279 481.821H419.888V492.919H420.552C423.192 493.797 425.916 494.399 428.68 494.716H432.588C434.283 494.841 435.986 494.682 437.629 494.247C439.715 493.863 441.663 492.939 443.281 491.568C444.899 490.197 446.13 488.426 446.852 486.432C447.318 485.318 447.557 484.122 447.555 482.915C447.709 481.214 447.412 479.502 446.695 477.952ZM409.884 457.748C407.542 456.765 405.019 456.288 402.48 456.349C399.941 456.41 397.443 457.006 395.151 458.1C392.997 459.154 391.087 460.648 389.546 462.486C388.004 464.323 386.865 466.463 386.202 468.769C385.357 471.283 384.999 473.936 385.147 476.584C385.119 478.025 385.237 479.465 385.499 480.883C386.13 484.368 387.813 487.576 390.32 490.077C392.828 492.578 396.041 494.251 399.528 494.873C401.799 495.159 404.096 495.159 406.367 494.873C408.723 494.457 410.978 493.595 413.01 492.333C414.691 491.39 416.114 490.048 417.152 488.425C417.086 488.17 416.968 487.931 416.807 487.723C416.646 487.515 416.444 487.342 416.214 487.213C415.768 487.375 415.347 487.599 414.964 487.878C413.02 489.159 410.725 489.801 408.399 489.714C406.855 489.819 405.307 489.578 403.867 489.011C402.428 488.443 401.132 487.562 400.075 486.432C399.257 485.672 398.582 484.772 398.082 483.774C396.868 481.345 396.213 478.674 396.167 475.959V474.435H417.817V473.653C417.864 472.872 417.864 472.089 417.817 471.309C417.809 468.549 417.071 465.841 415.677 463.46C414.284 461.078 412.285 459.107 409.884 457.748ZM398.981 471.269H396.245V468.964C397.144 463.063 399.372 459.546 402.107 459.546C404.843 459.546 406.015 463.024 406.523 469.394V471.191H404.178L398.981 471.269ZM342.787 456.459C341.436 456.407 340.094 456.688 338.879 457.28C336.238 458.562 334.104 460.695 332.822 463.337L332.314 464.275V456.459H332.118C331.649 456.459 317.19 459.351 316.722 459.546C316.253 459.741 316.409 459.781 316.409 460.484C316.409 461.187 316.409 461.305 316.722 461.344L318.246 461.656C318.672 461.667 319.091 461.774 319.47 461.971C319.85 462.167 320.179 462.447 320.434 462.79C321.411 464.079 321.606 466.346 321.606 475.998C321.799 480.343 321.616 484.697 321.059 489.011C320.928 489.661 320.598 490.255 320.115 490.71C319.632 491.165 319.02 491.459 318.363 491.551L317.034 491.825H316.526V492.919C316.384 493.283 316.384 493.688 316.526 494.052H338.371V492.919C338.447 492.545 338.447 492.159 338.371 491.785C337.056 491.734 335.748 491.564 334.463 491.277C333.763 490.912 333.191 490.342 332.821 489.645C332.452 488.947 332.302 488.154 332.392 487.37C332.079 485.103 331.923 478.46 332.001 473.38C332.079 468.3 332.001 467.987 332.431 467.635C333.739 466.633 335.357 466.121 337.003 466.189C338.555 466.223 340.079 466.611 341.458 467.323C341.936 467.588 342.449 467.785 342.982 467.909C342.982 467.909 346.89 458.452 346.89 458.022C346.39 457.441 345.753 456.994 345.036 456.721C344.32 456.448 343.547 456.358 342.787 456.459ZM316.448 472.872C316.312 470.079 315.51 467.36 314.11 464.94C312.709 462.52 310.751 460.47 308.398 458.96C305.601 457.451 302.49 456.619 299.314 456.531C296.138 456.443 292.985 457.101 290.109 458.452C286.043 460.596 282.973 464.241 281.551 468.612C280.083 473.506 280.083 478.724 281.551 483.618C282.321 486.293 283.76 488.727 285.733 490.691C288.189 493.088 291.356 494.624 294.76 495.068C296.944 495.251 299.14 495.251 301.325 495.068C302.129 494.946 302.925 494.776 303.709 494.56C306.889 493.67 309.751 491.893 311.959 489.436C314.166 486.979 315.629 483.945 316.174 480.687C316.565 478.101 316.656 475.479 316.448 472.872ZM300.192 492.411C296.284 493.583 293.353 489.793 292.376 481.821C292.017 477.647 292.017 473.45 292.376 469.277C293.157 462.868 295.15 459.624 298.238 459.624C298.86 459.586 299.483 459.697 300.055 459.948C300.626 460.2 301.128 460.585 301.52 461.07C304.138 463.688 305.428 468.886 305.428 476.701C305.753 481.125 305.058 485.563 303.396 489.675C302.662 490.875 301.527 491.775 300.192 492.215V492.411ZM370.532 457.24C369.429 457.099 368.313 457.099 367.21 457.24C365.094 457.239 363.001 457.692 361.075 458.569L359.864 459.077V450.597C360.075 447.735 360.075 444.862 359.864 442C359.395 442 344.467 444.853 344.233 444.97C344.117 445.258 344.117 445.58 344.233 445.869C344.233 446.689 344.233 446.65 345.991 447.041C346.485 447.152 346.959 447.336 347.398 447.588C348.161 448.305 348.668 449.252 348.844 450.285C349.289 453.258 349.433 456.27 349.274 459.273V493.583L350.329 493.818C351.892 494.169 356.308 494.912 357.754 495.068C360.641 495.298 363.542 495.298 366.429 495.068C369.634 494.741 372.688 493.545 375.264 491.61C377.839 489.675 379.838 487.074 381.044 484.087C381.763 482.17 382.262 480.177 382.529 478.147C382.762 475.398 382.67 472.63 382.256 469.902C381.836 466.844 380.487 463.988 378.389 461.723C376.292 459.458 373.549 457.893 370.532 457.24ZM360.294 491.746C360.294 491.238 359.903 474.122 359.981 467.284V461.93L361.114 461.656C361.879 461.547 362.655 461.547 363.42 461.656C364.265 461.57 365.116 461.762 365.843 462.203C367.302 463.211 368.514 464.536 369.387 466.079C370.26 467.622 370.772 469.344 370.884 471.113C371.168 473.959 371.168 476.826 370.884 479.671C370.65 483.807 369.056 487.75 366.351 490.887C365.583 491.616 364.618 492.105 363.576 492.294C362.788 492.431 361.981 492.431 361.192 492.294C360.45 492.294 360.45 492.059 360.45 491.746H360.294Z" fill="white"/>
</g>
</g>
<defs>
<filter id="filter0_dd_623_13769" x="123" y="112" width="664" height="230" filterUnits="userSpaceOnUse" color-interpolation-filters="sRGB">
<feFlood flood-opacity="0" result="BackgroundImageFix"/>
<feColorMatrix in="SourceAlpha" type="matrix" values="0 0 0 0 0 0 0 0 0 0 0 0 0 0 0 0 0 0 127 0" result="hardAlpha"/>
<feOffset dy="10"/>
<feGaussianBlur stdDeviation="5"/>
<feColorMatrix type="matrix" values="0 0 0 0 0.25098 0 0 0 0 0.27451 0 0 0 0 0.407843 0 0 0 0.04 0"/>
<feBlend mode="normal" in2="BackgroundImageFix" result="effect1_dropShadow_623_13769"/>
<feColorMatrix in="SourceAlpha" type="matrix" values="0 0 0 0 0 0 0 0 0 0 0 0 0 0 0 0 0 0 127 0" result="hardAlpha"/>
<feOffset dy="20"/>
<feGaussianBlur stdDeviation="12.5"/>
<feColorMatrix type="matrix" values="0 0 0 0 0.25098 0 0 0 0 0.27451 0 0 0 0 0.407843 0 0 0 0.1 0"/>
<feBlend mode="normal" in2="effect1_dropShadow_623_13769" result="effect2_dropShadow_623_13769"/>
<feBlend mode="normal" in="SourceGraphic" in2="effect2_dropShadow_623_13769" result="shape"/>
</filter>
<filter id="filter1_dd_623_13769" x="819" y="112" width="490" height="230" filterUnits="userSpaceOnUse" color-interpolation-filters="sRGB">
<feFlood flood-opacity="0" result="BackgroundImageFix"/>
<feColorMatrix in="SourceAlpha" type="matrix" values="0 0 0 0 0 0 0 0 0 0 0 0 0 0 0 0 0 0 127 0" result="hardAlpha"/>
<feOffset dy="10"/>
<feGaussianBlur stdDeviation="5"/>
<feColorMatrix type="matrix" values="0 0 0 0 0.25098 0 0 0 0 0.27451 0 0 0 0 0.407843 0 0 0 0.04 0"/>
<feBlend mode="normal" in2="BackgroundImageFix" result="effect1_dropShadow_623_13769"/>
<feColorMatrix in="SourceAlpha" type="matrix" values="0 0 0 0 0 0 0 0 0 0 0 0 0 0 0 0 0 0 127 0" result="hardAlpha"/>
<feOffset dy="20"/>
<feGaussianBlur stdDeviation="12.5"/>
<feColorMatrix type="matrix" values="0 0 0 0 0.25098 0 0 0 0 0.27451 0 0 0 0 0.407843 0 0 0 0.1 0"/>
<feBlend mode="normal" in2="effect1_dropShadow_623_13769" result="effect2_dropShadow_623_13769"/>
<feBlend mode="normal" in="SourceGraphic" in2="effect2_dropShadow_623_13769" result="shape"/>
</filter>
<filter id="filter2_dd_623_13769" x="825" y="635" width="585" height="230" filterUnits="userSpaceOnUse" color-interpolation-filters="sRGB">
<feFlood flood-opacity="0" result="BackgroundImageFix"/>
<feColorMatrix in="SourceAlpha" type="matrix" values="0 0 0 0 0 0 0 0 0 0 0 0 0 0 0 0 0 0 127 0" result="hardAlpha"/>
<feOffset dy="10"/>
<feGaussianBlur stdDeviation="5"/>
<feColorMatrix type="matrix" values="0 0 0 0 0.25098 0 0 0 0 0.27451 0 0 0 0 0.407843 0 0 0 0.04 0"/>
<feBlend mode="normal" in2="BackgroundImageFix" result="effect1_dropShadow_623_13769"/>
<feColorMatrix in="SourceAlpha" type="matrix" values="0 0 0 0 0 0 0 0 0 0 0 0 0 0 0 0 0 0 127 0" result="hardAlpha"/>
<feOffset dy="20"/>
<feGaussianBlur stdDeviation="12.5"/>
<feColorMatrix type="matrix" values="0 0 0 0 0.25098 0 0 0 0 0.27451 0 0 0 0 0.407843 0 0 0 0.1 0"/>
<feBlend mode="normal" in2="effect1_dropShadow_623_13769" result="effect2_dropShadow_623_13769"/>
<feBlend mode="normal" in="SourceGraphic" in2="effect2_dropShadow_623_13769" result="shape"/>
</filter>
<filter id="filter3_dd_623_13769" x="611" y="374" width="466" height="230" filterUnits="userSpaceOnUse" color-interpolation-filters="sRGB">
<feFlood flood-opacity="0" result="BackgroundImageFix"/>
<feColorMatrix in="SourceAlpha" type="matrix" values="0 0 0 0 0 0 0 0 0 0 0 0 0 0 0 0 0 0 127 0" result="hardAlpha"/>
<feOffset dy="10"/>
<feGaussianBlur stdDeviation="5"/>
<feColorMatrix type="matrix" values="0 0 0 0 0.25098 0 0 0 0 0.27451 0 0 0 0 0.407843 0 0 0 0.04 0"/>
<feBlend mode="normal" in2="BackgroundImageFix" result="effect1_dropShadow_623_13769"/>
<feColorMatrix in="SourceAlpha" type="matrix" values="0 0 0 0 0 0 0 0 0 0 0 0 0 0 0 0 0 0 127 0" result="hardAlpha"/>
<feOffset dy="20"/>
<feGaussianBlur stdDeviation="12.5"/>
<feColorMatrix type="matrix" values="0 0 0 0 0.25098 0 0 0 0 0.27451 0 0 0 0 0.407843 0 0 0 0.1 0"/>
<feBlend mode="normal" in2="effect1_dropShadow_623_13769" result="effect2_dropShadow_623_13769"/>
<feBlend mode="normal" in="SourceGraphic" in2="effect2_dropShadow_623_13769" result="shape"/>
</filter>
<filter id="filter4_dd_623_13769" x="324" y="636" width="466" height="230" filterUnits="userSpaceOnUse" color-interpolation-filters="sRGB">
<feFlood flood-opacity="0" result="BackgroundImageFix"/>
<feColorMatrix in="SourceAlpha" type="matrix" values="0 0 0 0 0 0 0 0 0 0 0 0 0 0 0 0 0 0 127 0" result="hardAlpha"/>
<feOffset dy="10"/>
<feGaussianBlur stdDeviation="5"/>
<feColorMatrix type="matrix" values="0 0 0 0 0.25098 0 0 0 0 0.27451 0 0 0 0 0.407843 0 0 0 0.04 0"/>
<feBlend mode="normal" in2="BackgroundImageFix" result="effect1_dropShadow_623_13769"/>
<feColorMatrix in="SourceAlpha" type="matrix" values="0 0 0 0 0 0 0 0 0 0 0 0 0 0 0 0 0 0 127 0" result="hardAlpha"/>
<feOffset dy="20"/>
<feGaussianBlur stdDeviation="12.5"/>
<feColorMatrix type="matrix" values="0 0 0 0 0.25098 0 0 0 0 0.27451 0 0 0 0 0.407843 0 0 0 0.1 0"/>
<feBlend mode="normal" in2="effect1_dropShadow_623_13769" result="effect2_dropShadow_623_13769"/>
<feBlend mode="normal" in="SourceGraphic" in2="effect2_dropShadow_623_13769" result="shape"/>
</filter>
<filter id="filter5_dd_623_13769" x="1109" y="374" width="547" height="230" filterUnits="userSpaceOnUse" color-interpolation-filters="sRGB">
<feFlood flood-opacity="0" result="BackgroundImageFix"/>
<feColorMatrix in="SourceAlpha" type="matrix" values="0 0 0 0 0 0 0 0 0 0 0 0 0 0 0 0 0 0 127 0" result="hardAlpha"/>
<feOffset dy="10"/>
<feGaussianBlur stdDeviation="5"/>
<feColorMatrix type="matrix" values="0 0 0 0 0.25098 0 0 0 0 0.27451 0 0 0 0 0.407843 0 0 0 0.04 0"/>
<feBlend mode="normal" in2="BackgroundImageFix" result="effect1_dropShadow_623_13769"/>
<feColorMatrix in="SourceAlpha" type="matrix" values="0 0 0 0 0 0 0 0 0 0 0 0 0 0 0 0 0 0 127 0" result="hardAlpha"/>
<feOffset dy="20"/>
<feGaussianBlur stdDeviation="12.5"/>
<feColorMatrix type="matrix" values="0 0 0 0 0.25098 0 0 0 0 0.27451 0 0 0 0 0.407843 0 0 0 0.1 0"/>
<feBlend mode="normal" in2="effect1_dropShadow_623_13769" result="effect2_dropShadow_623_13769"/>
<feBlend mode="normal" in="SourceGraphic" in2="effect2_dropShadow_623_13769" result="shape"/>
</filter>
<filter id="filter6_dd_623_13769" x="113" y="374" width="466" height="230" filterUnits="userSpaceOnUse" color-interpolation-filters="sRGB">
<feFlood flood-opacity="0" result="BackgroundImageFix"/>
<feColorMatrix in="SourceAlpha" type="matrix" values="0 0 0 0 0 0 0 0 0 0 0 0 0 0 0 0 0 0 127 0" result="hardAlpha"/>
<feOffset dy="10"/>
<feGaussianBlur stdDeviation="5"/>
<feColorMatrix type="matrix" values="0 0 0 0 0.25098 0 0 0 0 0.27451 0 0 0 0 0.407843 0 0 0 0.04 0"/>
<feBlend mode="normal" in2="BackgroundImageFix" result="effect1_dropShadow_623_13769"/>
<feColorMatrix in="SourceAlpha" type="matrix" values="0 0 0 0 0 0 0 0 0 0 0 0 0 0 0 0 0 0 127 0" result="hardAlpha"/>
<feOffset dy="20"/>
<feGaussianBlur stdDeviation="12.5"/>
<feColorMatrix type="matrix" values="0 0 0 0 0.25098 0 0 0 0 0.27451 0 0 0 0 0.407843 0 0 0 0.1 0"/>
<feBlend mode="normal" in2="effect1_dropShadow_623_13769" result="effect2_dropShadow_623_13769"/>
<feBlend mode="normal" in="SourceGraphic" in2="effect2_dropShadow_623_13769" result="shape"/>
</filter>
<clipPath id="clip0_623_13769">
<rect x="148" y="117" width="614" height="180" rx="16" fill="white"/>
</clipPath>
<clipPath id="clip1_623_13769">
<rect width="474.061" height="71.725" fill="white" transform="translate(218 171)"/>
</clipPath>
<clipPath id="clip2_623_13769">
<rect x="844" y="117" width="440" height="180" rx="16" fill="white"/>
</clipPath>
<clipPath id="clip3_623_13769">
<rect width="300.005" height="60.469" fill="white" transform="translate(914 177)"/>
</clipPath>
<clipPath id="clip4_623_13769">
<rect x="850" y="640" width="535" height="180" rx="16" fill="white"/>
</clipPath>
<clipPath id="clip5_623_13769">
<rect width="395.051" height="55.7607" fill="white" transform="translate(920 702)"/>
</clipPath>
<clipPath id="clip6_623_13769">
<rect width="138" height="69" fill="white" transform="translate(775.133 435)"/>
</clipPath>
<clipPath id="clip7_623_13769">
<rect width="276" height="39.6032" fill="white" transform="translate(419 711)"/>
</clipPath>
<clipPath id="clip8_623_13769">
<rect width="357" height="40.2609" fill="white" transform="translate(1204 449)"/>
</clipPath>
<clipPath id="clip9_623_13769">
<rect width="203.362" height="53.2635" fill="white" transform="translate(244.232 442)"/>
</clipPath>
</defs>
</svg>
