<svg id="Layer_1" data-name="Layer 1" xmlns="http://www.w3.org/2000/svg" viewBox="0 0 3584.28 2048.16"><defs><style>.cls-1{fill:none;stroke:#444547;stroke-miterlimit:10;}</style></defs><rect class="cls-1" width="512.04" height="512.04"/><rect class="cls-1" x="512.04" width="512.04" height="512.04"/><rect class="cls-1" x="1024.08" width="512.04" height="512.04"/><rect class="cls-1" x="1536.12" width="512.04" height="512.04"/><rect class="cls-1" x="2048.16" width="512.04" height="512.04"/><rect class="cls-1" x="2560.2" width="512.04" height="512.04"/><rect class="cls-1" x="3072.24" width="512.04" height="512.04"/><rect class="cls-1" y="512.04" width="512.04" height="512.04"/><rect class="cls-1" x="512.04" y="512.04" width="512.04" height="512.04"/><rect class="cls-1" x="1024.08" y="512.04" width="512.04" height="512.04"/><rect class="cls-1" x="1536.12" y="512.04" width="512.04" height="512.04"/><rect class="cls-1" x="2048.16" y="512.04" width="512.04" height="512.04"/><rect class="cls-1" x="2560.2" y="512.04" width="512.04" height="512.04"/><rect class="cls-1" x="3072.24" y="512.04" width="512.04" height="512.04"/><rect class="cls-1" y="1024.08" width="512.04" height="512.04"/><rect class="cls-1" x="512.04" y="1024.08" width="512.04" height="512.04"/><rect class="cls-1" x="1024.08" y="1024.08" width="512.04" height="512.04"/><rect class="cls-1" x="1536.12" y="1024.08" width="512.04" height="512.04"/><rect class="cls-1" x="2048.16" y="1024.08" width="512.04" height="512.04"/><rect class="cls-1" x="2560.2" y="1024.08" width="512.04" height="512.04"/><rect class="cls-1" x="3072.24" y="1024.08" width="512.04" height="512.04"/><rect class="cls-1" y="1536.12" width="512.04" height="512.04"/><rect class="cls-1" x="512.04" y="1536.12" width="512.04" height="512.04"/><rect class="cls-1" x="1024.08" y="1536.12" width="512.04" height="512.04"/><rect class="cls-1" x="1536.12" y="1536.12" width="512.04" height="512.04"/><rect class="cls-1" x="2048.16" y="1536.12" width="512.04" height="512.04"/><rect class="cls-1" x="2560.2" y="1536.12" width="512.04" height="512.04"/><rect class="cls-1" x="3072.24" y="1536.12" width="512.04" height="512.04"/><circle class="cls-1" cx="512.04" cy="512.04" r="512.04"/><circle class="cls-1" cx="2560.2" cy="1536.12" r="512.04"/><rect class="cls-1" x="2560.2" y="1024.08" width="256.02" height="256.02"/><rect class="cls-1" x="2560.2" y="1280.1" width="256.02" height="256.02"/><rect class="cls-1" x="2816.22" y="1280.1" width="256.02" height="256.02"/><rect class="cls-1" x="2816.22" y="1024.08" width="256.02" height="256.02"/><rect class="cls-1" x="3072.24" y="1280.1" width="256.02" height="256.02"/><rect class="cls-1" x="3072.24" y="1024.08" width="256.02" height="256.02"/><rect class="cls-1" x="3328.26" y="1280.1" width="256.02" height="256.02"/><rect class="cls-1" x="3328.26" y="1024.08" width="256.02" height="256.02"/><rect class="cls-1" x="2048.16" y="1536.12" width="512.04" height="512.04"/><rect class="cls-1" x="2560.2" y="1536.12" width="512.04" height="512.04"/><rect class="cls-1" x="3072.24" y="1536.12" width="512.04" height="512.04"/><rect class="cls-1" x="2048.16" y="1536.12" width="256.02" height="256.02"/><rect class="cls-1" x="2304.18" y="1536.12" width="256.02" height="256.02"/><rect class="cls-1" x="2560.2" y="1536.12" width="256.02" height="256.02"/><rect class="cls-1" x="2560.2" y="1792.14" width="256.02" height="256.02"/><rect class="cls-1" x="2816.22" y="1792.14" width="256.02" height="256.02"/><rect class="cls-1" x="2816.22" y="1536.12" width="256.02" height="256.02"/><rect class="cls-1" x="3072.24" y="1792.14" width="256.02" height="256.02"/><rect class="cls-1" x="3072.24" y="1536.12" width="256.02" height="256.02"/><rect class="cls-1" x="3328.26" y="1792.14" width="256.02" height="256.02"/><rect class="cls-1" x="3328.26" y="1536.12" width="256.02" height="256.02"/><rect class="cls-1" x="2048.16" y="1792.14" width="256.02" height="256.02"/><rect class="cls-1" x="2304.18" y="1792.14" width="256.02" height="256.02"/></svg>