<svg width="364" height="302" viewBox="0 0 364 302" fill="none" xmlns="http://www.w3.org/2000/svg">
<mask id="mask0_4138_55603" style="mask-type:alpha" maskUnits="userSpaceOnUse" x="0" y="0" width="364" height="302">
<line x1="9.57997" y1="70.6416" x2="0.968103" y2="67.5071" stroke="#1757C2" stroke-width="1.83943"/>
<line x1="9.14854" y1="51.0401" x2="1.2118" y2="46.4579" stroke="#1757C2" stroke-width="1.83943"/>
<line x1="8.73108" y1="31.309" x2="1.71063" y2="25.4182" stroke="#1757C2" stroke-width="1.83943"/>
<line x1="8.04448" y1="11.4222" x2="2.15362" y2="4.40178" stroke="#1757C2" stroke-width="1.83943"/>
<line x1="8.68615" y1="226.897" x2="4.10387" y2="234.834" stroke="#1757C2" stroke-width="1.83943"/>
<line x1="9.45357" y1="207.096" x2="3.5627" y2="214.116" stroke="#1757C2" stroke-width="1.83943"/>
<line x1="9.91345" y1="187.435" x2="2.89299" y2="193.326" stroke="#1757C2" stroke-width="1.83943"/>
<line x1="10.0683" y1="167.888" x2="2.13152" y2="172.471" stroke="#1757C2" stroke-width="1.83943"/>
<line x1="10.2091" y1="148.422" x2="1.59723" y2="151.556" stroke="#1757C2" stroke-width="1.83943"/>
<line x1="10.3413" y1="129" x2="1.31602" y2="130.591" stroke="#1757C2" stroke-width="1.83943"/>
<line x1="10.1816" y1="109.587" x2="1.01708" y2="109.587" stroke="#1757C2" stroke-width="1.83943"/>
<line x1="10.0219" y1="90.147" x2="0.996607" y2="88.5555" stroke="#1757C2" stroke-width="1.83943"/>
<line x1="6.51835" y1="287.377" x2="6.51835" y2="296.542" stroke="#1757C2" stroke-width="1.83943"/>
<line x1="7.36375" y1="267.021" x2="5.77234" y2="276.046" stroke="#1757C2" stroke-width="1.83943"/>
<line x1="8.18163" y1="246.866" x2="5.04717" y2="255.478" stroke="#1757C2" stroke-width="1.83943"/>
<line x1="25.6181" y1="91.2622" x2="17.0062" y2="88.1277" stroke="#1757C2" stroke-width="1.83943"/>
<line x1="25.1866" y1="71.6603" x2="17.2499" y2="67.078" stroke="#1757C2" stroke-width="1.83943"/>
<line x1="24.7692" y1="51.9292" x2="17.7487" y2="46.0383" stroke="#1757C2" stroke-width="1.83943"/>
<line x1="24.0826" y1="32.0424" x2="18.1917" y2="25.0219" stroke="#1757C2" stroke-width="1.83943"/>
<line x1="23.1312" y1="11.9779" x2="18.549" y2="4.04118" stroke="#1757C2" stroke-width="1.83943"/>
<line x1="24.7242" y1="247.517" x2="20.142" y2="255.454" stroke="#1757C2" stroke-width="1.83943"/>
<line x1="25.4917" y1="227.716" x2="19.6008" y2="234.736" stroke="#1757C2" stroke-width="1.83943"/>
<line x1="25.9515" y1="208.056" x2="18.9311" y2="213.946" stroke="#1757C2" stroke-width="1.83943"/>
<line x1="26.1063" y1="188.508" x2="18.1696" y2="193.091" stroke="#1757C2" stroke-width="1.83943"/>
<line x1="26.2472" y1="169.042" x2="17.6353" y2="172.177" stroke="#1757C2" stroke-width="1.83943"/>
<line x1="26.3785" y1="149.62" x2="17.3531" y2="151.212" stroke="#1757C2" stroke-width="1.83943"/>
<line x1="26.2188" y1="130.208" x2="17.0542" y2="130.208" stroke="#1757C2" stroke-width="1.83943"/>
<line x1="26.059" y1="110.767" x2="17.0337" y2="109.176" stroke="#1757C2" stroke-width="1.83943"/>
<line x1="23.4018" y1="287.641" x2="21.8104" y2="296.666" stroke="#1757C2" stroke-width="1.83943"/>
<line x1="24.2197" y1="267.486" x2="21.0853" y2="276.098" stroke="#1757C2" stroke-width="1.83943"/>
<line x1="41.6561" y1="111.882" x2="33.0443" y2="108.748" stroke="#1757C2" stroke-width="1.83943"/>
<line x1="41.2247" y1="92.2804" x2="33.288" y2="87.6981" stroke="#1757C2" stroke-width="1.83943"/>
<line x1="40.8063" y1="72.5498" x2="33.7858" y2="66.6589" stroke="#1757C2" stroke-width="1.83943"/>
<line x1="40.1207" y1="52.663" x2="34.2298" y2="45.6425" stroke="#1757C2" stroke-width="1.83943"/>
<line x1="39.1693" y1="32.598" x2="34.587" y2="24.6613" stroke="#1757C2" stroke-width="1.83943"/>
<line x1="38.5293" y1="12.3395" x2="35.3948" y2="3.7276" stroke="#1757C2" stroke-width="1.83943"/>
<line x1="40.7623" y1="268.138" x2="36.18" y2="276.075" stroke="#1757C2" stroke-width="1.83943"/>
<line x1="41.5297" y1="248.336" x2="35.6389" y2="255.356" stroke="#1757C2" stroke-width="1.83943"/>
<line x1="41.9886" y1="228.676" x2="34.9682" y2="234.567" stroke="#1757C2" stroke-width="1.83943"/>
<line x1="42.1444" y1="209.129" x2="34.2077" y2="213.711" stroke="#1757C2" stroke-width="1.83943"/>
<line x1="42.2853" y1="189.663" x2="33.6734" y2="192.797" stroke="#1757C2" stroke-width="1.83943"/>
<line x1="42.4165" y1="170.241" x2="33.3912" y2="171.832" stroke="#1757C2" stroke-width="1.83943"/>
<line x1="42.2568" y1="150.828" x2="33.0923" y2="150.828" stroke="#1757C2" stroke-width="1.83943"/>
<line x1="42.0971" y1="131.387" x2="33.0718" y2="129.796" stroke="#1757C2" stroke-width="1.83943"/>
<line x1="40.2578" y1="288.106" x2="37.1233" y2="296.718" stroke="#1757C2" stroke-width="1.83943"/>
<line x1="57.6942" y1="132.502" x2="49.0824" y2="129.368" stroke="#1757C2" stroke-width="1.83943"/>
<line x1="57.2628" y1="112.901" x2="49.3261" y2="108.319" stroke="#1757C2" stroke-width="1.83943"/>
<line x1="56.8444" y1="93.1699" x2="49.8239" y2="87.279" stroke="#1757C2" stroke-width="1.83943"/>
<line x1="56.1587" y1="73.2831" x2="50.2679" y2="66.2626" stroke="#1757C2" stroke-width="1.83943"/>
<line x1="55.2074" y1="53.2182" x2="50.6251" y2="45.2814" stroke="#1757C2" stroke-width="1.83943"/>
<line x1="54.5674" y1="32.9596" x2="51.4329" y2="24.3477" stroke="#1757C2" stroke-width="1.83943"/>
<line x1="53.6665" y1="12.4932" x2="52.0751" y2="3.46788" stroke="#1757C2" stroke-width="1.83943"/>
<line x1="56.8004" y1="288.758" x2="52.2181" y2="296.695" stroke="#1757C2" stroke-width="1.83943"/>
<line x1="57.5678" y1="268.956" x2="51.677" y2="275.976" stroke="#1757C2" stroke-width="1.83943"/>
<line x1="58.0267" y1="249.296" x2="51.0063" y2="255.187" stroke="#1757C2" stroke-width="1.83943"/>
<line x1="58.1825" y1="229.749" x2="50.2458" y2="234.331" stroke="#1757C2" stroke-width="1.83943"/>
<line x1="58.3234" y1="210.283" x2="49.7115" y2="213.417" stroke="#1757C2" stroke-width="1.83943"/>
<line x1="58.4546" y1="190.861" x2="49.4293" y2="192.452" stroke="#1757C2" stroke-width="1.83943"/>
<line x1="58.2949" y1="171.448" x2="49.1304" y2="171.448" stroke="#1757C2" stroke-width="1.83943"/>
<line x1="58.1352" y1="152.008" x2="49.1099" y2="150.416" stroke="#1757C2" stroke-width="1.83943"/>
<line x1="73.7323" y1="153.123" x2="65.1204" y2="149.989" stroke="#1757C2" stroke-width="1.83943"/>
<line x1="73.3009" y1="133.521" x2="65.3641" y2="128.939" stroke="#1757C2" stroke-width="1.83943"/>
<line x1="72.8825" y1="113.79" x2="65.862" y2="107.899" stroke="#1757C2" stroke-width="1.83943"/>
<line x1="72.1968" y1="93.9032" x2="66.306" y2="86.8827" stroke="#1757C2" stroke-width="1.83943"/>
<line x1="71.2455" y1="73.8388" x2="66.6632" y2="65.902" stroke="#1757C2" stroke-width="1.83943"/>
<line x1="70.6045" y1="53.5797" x2="67.47" y2="44.9678" stroke="#1757C2" stroke-width="1.83943"/>
<line x1="69.7046" y1="33.1133" x2="68.1132" y2="24.088" stroke="#1757C2" stroke-width="1.83943"/>
<line x1="73.6059" y1="289.577" x2="67.715" y2="296.597" stroke="#1757C2" stroke-width="1.83943"/>
<line x1="74.0648" y1="269.916" x2="67.0444" y2="275.807" stroke="#1757C2" stroke-width="1.83943"/>
<line x1="74.2206" y1="250.369" x2="66.2839" y2="254.952" stroke="#1757C2" stroke-width="1.83943"/>
<line x1="74.3614" y1="230.903" x2="65.7496" y2="234.037" stroke="#1757C2" stroke-width="1.83943"/>
<line x1="74.4927" y1="211.481" x2="65.4674" y2="213.072" stroke="#1757C2" stroke-width="1.83943"/>
<line x1="74.333" y1="192.068" x2="65.1684" y2="192.068" stroke="#1757C2" stroke-width="1.83943"/>
<line x1="74.1733" y1="172.628" x2="65.148" y2="171.036" stroke="#1757C2" stroke-width="1.83943"/>
<line x1="70.6707" y1="0.98291" x2="70.6707" y2="10.1475" stroke="#1757C2" stroke-width="1.83943"/>
<line x1="89.7704" y1="173.743" x2="81.1585" y2="170.609" stroke="#1757C2" stroke-width="1.83943"/>
<line x1="89.338" y1="154.141" x2="81.4013" y2="149.559" stroke="#1757C2" stroke-width="1.83943"/>
<line x1="88.9205" y1="134.41" x2="81.9001" y2="128.519" stroke="#1757C2" stroke-width="1.83943"/>
<line x1="88.2349" y1="114.523" x2="82.344" y2="107.503" stroke="#1757C2" stroke-width="1.83943"/>
<line x1="87.2836" y1="94.4589" x2="82.7013" y2="86.5221" stroke="#1757C2" stroke-width="1.83943"/>
<line x1="86.6426" y1="74.2003" x2="83.5081" y2="65.5884" stroke="#1757C2" stroke-width="1.83943"/>
<line x1="85.7417" y1="53.7339" x2="84.1503" y2="44.7086" stroke="#1757C2" stroke-width="1.83943"/>
<line x1="90.1029" y1="290.537" x2="83.0824" y2="296.427" stroke="#1757C2" stroke-width="1.83943"/>
<line x1="90.2577" y1="270.989" x2="82.321" y2="275.572" stroke="#1757C2" stroke-width="1.83943"/>
<line x1="90.3995" y1="251.523" x2="81.7877" y2="254.658" stroke="#1757C2" stroke-width="1.83943"/>
<line x1="90.5308" y1="232.101" x2="81.5055" y2="233.692" stroke="#1757C2" stroke-width="1.83943"/>
<line x1="90.3711" y1="212.689" x2="81.2065" y2="212.689" stroke="#1757C2" stroke-width="1.83943"/>
<line x1="90.2114" y1="193.248" x2="81.1861" y2="191.657" stroke="#1757C2" stroke-width="1.83943"/>
<line x1="86.7088" y1="21.603" x2="86.7088" y2="30.7676" stroke="#1757C2" stroke-width="1.83943"/>
<line x1="87.5532" y1="1.24662" x2="85.9618" y2="10.2719" stroke="#1757C2" stroke-width="1.83943"/>
<line x1="105.808" y1="194.363" x2="97.1966" y2="191.229" stroke="#1757C2" stroke-width="1.83943"/>
<line x1="105.376" y1="174.762" x2="97.4393" y2="170.18" stroke="#1757C2" stroke-width="1.83943"/>
<line x1="104.959" y1="155.031" x2="97.9382" y2="149.14" stroke="#1757C2" stroke-width="1.83943"/>
<line x1="104.272" y1="135.144" x2="98.3812" y2="128.123" stroke="#1757C2" stroke-width="1.83943"/>
<line x1="103.322" y1="115.079" x2="98.7394" y2="107.142" stroke="#1757C2" stroke-width="1.83943"/>
<line x1="102.681" y1="94.8204" x2="99.5462" y2="86.2086" stroke="#1757C2" stroke-width="1.83943"/>
<line x1="101.78" y1="74.354" x2="100.188" y2="65.3287" stroke="#1757C2" stroke-width="1.83943"/>
<line x1="106.296" y1="291.609" x2="98.3591" y2="296.192" stroke="#1757C2" stroke-width="1.83943"/>
<line x1="106.438" y1="272.144" x2="97.8257" y2="275.278" stroke="#1757C2" stroke-width="1.83943"/>
<line x1="106.569" y1="252.722" x2="97.5436" y2="254.313" stroke="#1757C2" stroke-width="1.83943"/>
<line x1="106.409" y1="233.309" x2="97.2446" y2="233.309" stroke="#1757C2" stroke-width="1.83943"/>
<line x1="106.249" y1="213.868" x2="97.2241" y2="212.277" stroke="#1757C2" stroke-width="1.83943"/>
<line x1="102.747" y1="42.2236" x2="102.747" y2="51.3882" stroke="#1757C2" stroke-width="1.83943"/>
<line x1="103.591" y1="21.8672" x2="102" y2="30.8926" stroke="#1757C2" stroke-width="1.83943"/>
<line x1="104.409" y1="1.71153" x2="101.275" y2="10.3234" stroke="#1757C2" stroke-width="1.83943"/>
<line x1="121.846" y1="214.983" x2="113.234" y2="211.849" stroke="#1757C2" stroke-width="1.83943"/>
<line x1="121.414" y1="195.382" x2="113.477" y2="190.8" stroke="#1757C2" stroke-width="1.83943"/>
<line x1="120.997" y1="175.651" x2="113.976" y2="169.76" stroke="#1757C2" stroke-width="1.83943"/>
<line x1="120.31" y1="155.764" x2="114.419" y2="148.744" stroke="#1757C2" stroke-width="1.83943"/>
<line x1="119.36" y1="135.699" x2="114.777" y2="127.762" stroke="#1757C2" stroke-width="1.83943"/>
<line x1="118.719" y1="115.441" x2="115.584" y2="106.829" stroke="#1757C2" stroke-width="1.83943"/>
<line x1="117.818" y1="94.9742" x2="116.226" y2="85.9488" stroke="#1757C2" stroke-width="1.83943"/>
<line x1="122.475" y1="292.764" x2="113.863" y2="295.898" stroke="#1757C2" stroke-width="1.83943"/>
<line x1="122.607" y1="273.342" x2="113.582" y2="274.933" stroke="#1757C2" stroke-width="1.83943"/>
<line x1="122.447" y1="253.929" x2="113.283" y2="253.929" stroke="#1757C2" stroke-width="1.83943"/>
<line x1="122.288" y1="234.489" x2="113.262" y2="232.897" stroke="#1757C2" stroke-width="1.83943"/>
<line x1="120.953" y1="2.36367" x2="116.37" y2="10.3004" stroke="#1757C2" stroke-width="1.83943"/>
<line x1="118.784" y1="62.8437" x2="118.784" y2="72.0083" stroke="#1757C2" stroke-width="1.83943"/>
<line x1="119.629" y1="42.4873" x2="118.038" y2="51.5127" stroke="#1757C2" stroke-width="1.83943"/>
<line x1="120.447" y1="22.3317" x2="117.313" y2="30.9435" stroke="#1757C2" stroke-width="1.83943"/>
<line x1="137.883" y1="235.604" x2="129.271" y2="232.47" stroke="#1757C2" stroke-width="1.83943"/>
<line x1="137.452" y1="216.002" x2="129.516" y2="211.42" stroke="#1757C2" stroke-width="1.83943"/>
<line x1="137.034" y1="196.271" x2="130.013" y2="190.38" stroke="#1757C2" stroke-width="1.83943"/>
<line x1="136.348" y1="176.384" x2="130.457" y2="169.364" stroke="#1757C2" stroke-width="1.83943"/>
<line x1="135.397" y1="156.32" x2="130.815" y2="148.383" stroke="#1757C2" stroke-width="1.83943"/>
<line x1="134.757" y1="136.061" x2="131.622" y2="127.449" stroke="#1757C2" stroke-width="1.83943"/>
<line x1="133.856" y1="115.594" x2="132.265" y2="106.569" stroke="#1757C2" stroke-width="1.83943"/>
<line x1="138.644" y1="293.962" x2="129.619" y2="295.553" stroke="#1757C2" stroke-width="1.83943"/>
<line x1="138.484" y1="274.55" x2="129.32" y2="274.55" stroke="#1757C2" stroke-width="1.83943"/>
<line x1="138.325" y1="255.109" x2="129.299" y2="253.517" stroke="#1757C2" stroke-width="1.83943"/>
<line x1="136.99" y1="22.9838" x2="132.408" y2="30.9205" stroke="#1757C2" stroke-width="1.83943"/>
<line x1="137.757" y1="3.182" x2="131.866" y2="10.2025" stroke="#1757C2" stroke-width="1.83943"/>
<line x1="134.822" y1="83.4639" x2="134.822" y2="92.6284" stroke="#1757C2" stroke-width="1.83943"/>
<line x1="135.667" y1="63.1075" x2="134.076" y2="72.1328" stroke="#1757C2" stroke-width="1.83943"/>
<line x1="136.485" y1="42.9518" x2="133.351" y2="51.5636" stroke="#1757C2" stroke-width="1.83943"/>
<line x1="153.922" y1="256.224" x2="145.31" y2="253.09" stroke="#1757C2" stroke-width="1.83943"/>
<line x1="153.489" y1="236.622" x2="145.553" y2="232.04" stroke="#1757C2" stroke-width="1.83943"/>
<line x1="153.073" y1="216.891" x2="146.052" y2="211" stroke="#1757C2" stroke-width="1.83943"/>
<line x1="152.385" y1="197.005" x2="146.494" y2="189.984" stroke="#1757C2" stroke-width="1.83943"/>
<line x1="151.434" y1="176.94" x2="146.852" y2="169.003" stroke="#1757C2" stroke-width="1.83943"/>
<line x1="150.794" y1="156.681" x2="147.659" y2="148.069" stroke="#1757C2" stroke-width="1.83943"/>
<line x1="149.893" y1="136.215" x2="148.302" y2="127.19" stroke="#1757C2" stroke-width="1.83943"/>
<line x1="154.521" y1="295.17" x2="145.357" y2="295.17" stroke="#1757C2" stroke-width="1.83943"/>
<line x1="154.362" y1="275.729" x2="145.336" y2="274.138" stroke="#1757C2" stroke-width="1.83943"/>
<line x1="153.027" y1="43.6039" x2="148.445" y2="51.5406" stroke="#1757C2" stroke-width="1.83943"/>
<line x1="153.794" y1="23.8021" x2="147.904" y2="30.8226" stroke="#1757C2" stroke-width="1.83943"/>
<line x1="154.255" y1="4.14204" x2="147.235" y2="10.0329" stroke="#1757C2" stroke-width="1.83943"/>
<line x1="150.859" y1="104.084" x2="150.859" y2="113.249" stroke="#1757C2" stroke-width="1.83943"/>
<line x1="151.705" y1="83.7276" x2="150.113" y2="92.7529" stroke="#1757C2" stroke-width="1.83943"/>
<line x1="152.522" y1="63.5724" x2="149.388" y2="72.1842" stroke="#1757C2" stroke-width="1.83943"/>
<line x1="169.959" y1="276.844" x2="161.347" y2="273.71" stroke="#1757C2" stroke-width="1.83943"/>
<line x1="169.528" y1="257.243" x2="161.592" y2="252.661" stroke="#1757C2" stroke-width="1.83943"/>
<line x1="169.11" y1="237.512" x2="162.09" y2="231.621" stroke="#1757C2" stroke-width="1.83943"/>
<line x1="168.424" y1="217.625" x2="162.533" y2="210.604" stroke="#1757C2" stroke-width="1.83943"/>
<line x1="167.473" y1="197.56" x2="162.891" y2="189.623" stroke="#1757C2" stroke-width="1.83943"/>
<line x1="166.833" y1="177.301" x2="163.699" y2="168.69" stroke="#1757C2" stroke-width="1.83943"/>
<line x1="165.932" y1="156.835" x2="164.341" y2="147.81" stroke="#1757C2" stroke-width="1.83943"/>
<line x1="170.401" y1="296.349" x2="161.376" y2="294.758" stroke="#1757C2" stroke-width="1.83943"/>
<line x1="169.066" y1="64.2245" x2="164.484" y2="72.1612" stroke="#1757C2" stroke-width="1.83943"/>
<line x1="169.833" y1="44.4222" x2="163.943" y2="51.4427" stroke="#1757C2" stroke-width="1.83943"/>
<line x1="170.292" y1="24.7622" x2="163.272" y2="30.653" stroke="#1757C2" stroke-width="1.83943"/>
<line x1="170.448" y1="5.21495" x2="162.511" y2="9.79723" stroke="#1757C2" stroke-width="1.83943"/>
<line x1="166.898" y1="124.705" x2="166.898" y2="133.869" stroke="#1757C2" stroke-width="1.83943"/>
<line x1="167.744" y1="104.348" x2="166.152" y2="113.374" stroke="#1757C2" stroke-width="1.83943"/>
<line x1="168.562" y1="84.1925" x2="165.427" y2="92.8044" stroke="#1757C2" stroke-width="1.83943"/>
<line x1="185.998" y1="297.465" x2="177.386" y2="294.33" stroke="#1757C2" stroke-width="1.83943"/>
<line x1="185.566" y1="277.863" x2="177.629" y2="273.281" stroke="#1757C2" stroke-width="1.83943"/>
<line x1="185.147" y1="258.132" x2="178.127" y2="252.241" stroke="#1757C2" stroke-width="1.83943"/>
<line x1="184.461" y1="238.245" x2="178.571" y2="231.225" stroke="#1757C2" stroke-width="1.83943"/>
<line x1="183.51" y1="218.181" x2="178.928" y2="210.244" stroke="#1757C2" stroke-width="1.83943"/>
<line x1="182.87" y1="197.921" x2="179.736" y2="189.31" stroke="#1757C2" stroke-width="1.83943"/>
<line x1="181.969" y1="177.455" x2="180.378" y2="168.43" stroke="#1757C2" stroke-width="1.83943"/>
<line x1="185.103" y1="84.8446" x2="180.521" y2="92.7814" stroke="#1757C2" stroke-width="1.83943"/>
<line x1="185.871" y1="65.0424" x2="179.98" y2="72.0628" stroke="#1757C2" stroke-width="1.83943"/>
<line x1="186.329" y1="45.3823" x2="179.309" y2="51.2731" stroke="#1757C2" stroke-width="1.83943"/>
<line x1="186.485" y1="25.8356" x2="178.549" y2="30.4178" stroke="#1757C2" stroke-width="1.83943"/>
<line x1="186.627" y1="6.36913" x2="178.015" y2="9.5036" stroke="#1757C2" stroke-width="1.83943"/>
<line x1="182.935" y1="145.325" x2="182.935" y2="154.489" stroke="#1757C2" stroke-width="1.83943"/>
<line x1="183.781" y1="124.968" x2="182.189" y2="133.994" stroke="#1757C2" stroke-width="1.83943"/>
<line x1="184.599" y1="104.813" x2="181.464" y2="113.424" stroke="#1757C2" stroke-width="1.83943"/>
<line x1="201.605" y1="298.483" x2="193.668" y2="293.901" stroke="#1757C2" stroke-width="1.83943"/>
<line x1="201.186" y1="278.752" x2="194.166" y2="272.861" stroke="#1757C2" stroke-width="1.83943"/>
<line x1="200.501" y1="258.865" x2="194.61" y2="251.845" stroke="#1757C2" stroke-width="1.83943"/>
<line x1="199.549" y1="238.801" x2="194.967" y2="230.864" stroke="#1757C2" stroke-width="1.83943"/>
<line x1="198.907" y1="218.542" x2="195.773" y2="209.93" stroke="#1757C2" stroke-width="1.83943"/>
<line x1="198.008" y1="198.076" x2="196.417" y2="189.05" stroke="#1757C2" stroke-width="1.83943"/>
<line x1="201.142" y1="105.465" x2="196.56" y2="113.401" stroke="#1757C2" stroke-width="1.83943"/>
<line x1="201.91" y1="85.663" x2="196.019" y2="92.6834" stroke="#1757C2" stroke-width="1.83943"/>
<line x1="202.369" y1="66.0029" x2="195.348" y2="71.8937" stroke="#1757C2" stroke-width="1.83943"/>
<line x1="202.524" y1="46.4557" x2="194.588" y2="51.038" stroke="#1757C2" stroke-width="1.83943"/>
<line x1="202.664" y1="26.9892" x2="194.052" y2="30.1237" stroke="#1757C2" stroke-width="1.83943"/>
<line x1="202.796" y1="7.56736" x2="193.771" y2="9.15877" stroke="#1757C2" stroke-width="1.83943"/>
<line x1="198.974" y1="165.945" x2="198.974" y2="175.109" stroke="#1757C2" stroke-width="1.83943"/>
<line x1="199.82" y1="145.588" x2="198.228" y2="154.614" stroke="#1757C2" stroke-width="1.83943"/>
<line x1="200.636" y1="125.433" x2="197.501" y2="134.045" stroke="#1757C2" stroke-width="1.83943"/>
<line x1="217.223" y1="299.373" x2="210.203" y2="293.482" stroke="#1757C2" stroke-width="1.83943"/>
<line x1="216.538" y1="279.486" x2="210.647" y2="272.465" stroke="#1757C2" stroke-width="1.83943"/>
<line x1="215.586" y1="259.421" x2="211.004" y2="251.484" stroke="#1757C2" stroke-width="1.83943"/>
<line x1="214.946" y1="239.162" x2="211.812" y2="230.55" stroke="#1757C2" stroke-width="1.83943"/>
<line x1="214.045" y1="218.696" x2="212.454" y2="209.671" stroke="#1757C2" stroke-width="1.83943"/>
<line x1="217.179" y1="126.085" x2="212.597" y2="134.022" stroke="#1757C2" stroke-width="1.83943"/>
<line x1="217.947" y1="106.283" x2="212.056" y2="113.304" stroke="#1757C2" stroke-width="1.83943"/>
<line x1="218.406" y1="86.623" x2="211.385" y2="92.5139" stroke="#1757C2" stroke-width="1.83943"/>
<line x1="218.561" y1="67.0758" x2="210.625" y2="71.6581" stroke="#1757C2" stroke-width="1.83943"/>
<line x1="218.703" y1="47.6099" x2="210.091" y2="50.7443" stroke="#1757C2" stroke-width="1.83943"/>
<line x1="218.834" y1="28.1875" x2="209.808" y2="29.7789" stroke="#1757C2" stroke-width="1.83943"/>
<line x1="218.674" y1="8.77518" x2="209.509" y2="8.77518" stroke="#1757C2" stroke-width="1.83943"/>
<line x1="215.012" y1="186.565" x2="215.012" y2="195.73" stroke="#1757C2" stroke-width="1.83943"/>
<line x1="215.857" y1="166.209" x2="214.266" y2="175.234" stroke="#1757C2" stroke-width="1.83943"/>
<line x1="216.675" y1="146.053" x2="213.54" y2="154.665" stroke="#1757C2" stroke-width="1.83943"/>
<line x1="232.577" y1="300.106" x2="226.686" y2="293.085" stroke="#1757C2" stroke-width="1.83943"/>
<line x1="231.625" y1="280.041" x2="227.043" y2="272.104" stroke="#1757C2" stroke-width="1.83943"/>
<line x1="230.983" y1="259.782" x2="227.849" y2="251.17" stroke="#1757C2" stroke-width="1.83943"/>
<line x1="230.083" y1="239.316" x2="228.491" y2="230.291" stroke="#1757C2" stroke-width="1.83943"/>
<line x1="233.218" y1="146.705" x2="228.636" y2="154.642" stroke="#1757C2" stroke-width="1.83943"/>
<line x1="233.986" y1="126.903" x2="228.095" y2="133.924" stroke="#1757C2" stroke-width="1.83943"/>
<line x1="234.445" y1="107.243" x2="227.424" y2="113.134" stroke="#1757C2" stroke-width="1.83943"/>
<line x1="234.599" y1="87.6959" x2="226.662" y2="92.2782" stroke="#1757C2" stroke-width="1.83943"/>
<line x1="234.74" y1="68.23" x2="226.128" y2="71.3644" stroke="#1757C2" stroke-width="1.83943"/>
<line x1="234.873" y1="48.8081" x2="225.847" y2="50.3995" stroke="#1757C2" stroke-width="1.83943"/>
<line x1="234.713" y1="29.3953" x2="225.548" y2="29.3953" stroke="#1757C2" stroke-width="1.83943"/>
<line x1="234.553" y1="9.95457" x2="225.528" y2="8.36316" stroke="#1757C2" stroke-width="1.83943"/>
<line x1="231.051" y1="207.186" x2="231.051" y2="216.35" stroke="#1757C2" stroke-width="1.83943"/>
<line x1="231.894" y1="186.829" x2="230.303" y2="195.854" stroke="#1757C2" stroke-width="1.83943"/>
<line x1="232.712" y1="166.673" x2="229.577" y2="175.285" stroke="#1757C2" stroke-width="1.83943"/>
<line x1="247.662" y1="300.662" x2="243.08" y2="292.725" stroke="#1757C2" stroke-width="1.83943"/>
<line x1="247.022" y1="280.402" x2="243.888" y2="271.791" stroke="#1757C2" stroke-width="1.83943"/>
<line x1="246.122" y1="259.936" x2="244.53" y2="250.911" stroke="#1757C2" stroke-width="1.83943"/>
<line x1="250.15" y1="11.0698" x2="241.538" y2="7.93535" stroke="#1757C2" stroke-width="1.83943"/>
<line x1="249.255" y1="167.326" x2="244.673" y2="175.262" stroke="#1757C2" stroke-width="1.83943"/>
<line x1="250.023" y1="147.523" x2="244.132" y2="154.544" stroke="#1757C2" stroke-width="1.83943"/>
<line x1="250.482" y1="127.864" x2="243.461" y2="133.755" stroke="#1757C2" stroke-width="1.83943"/>
<line x1="250.638" y1="108.317" x2="242.701" y2="112.899" stroke="#1757C2" stroke-width="1.83943"/>
<line x1="250.779" y1="88.8501" x2="242.168" y2="91.9846" stroke="#1757C2" stroke-width="1.83943"/>
<line x1="250.91" y1="69.4282" x2="241.884" y2="71.0196" stroke="#1757C2" stroke-width="1.83943"/>
<line x1="250.75" y1="50.0154" x2="241.585" y2="50.0154" stroke="#1757C2" stroke-width="1.83943"/>
<line x1="250.59" y1="30.5752" x2="241.565" y2="28.9838" stroke="#1757C2" stroke-width="1.83943"/>
<line x1="247.088" y1="227.806" x2="247.088" y2="236.97" stroke="#1757C2" stroke-width="1.83943"/>
<line x1="247.933" y1="207.449" x2="246.342" y2="216.475" stroke="#1757C2" stroke-width="1.83943"/>
<line x1="248.751" y1="187.294" x2="245.617" y2="195.905" stroke="#1757C2" stroke-width="1.83943"/>
<line x1="263.06" y1="301.023" x2="259.925" y2="292.411" stroke="#1757C2" stroke-width="1.83943"/>
<line x1="262.159" y1="280.557" x2="260.567" y2="271.531" stroke="#1757C2" stroke-width="1.83943"/>
<line x1="266.187" y1="31.6904" x2="257.576" y2="28.556" stroke="#1757C2" stroke-width="1.83943"/>
<line x1="265.755" y1="12.0885" x2="257.818" y2="7.50621" stroke="#1757C2" stroke-width="1.83943"/>
<line x1="265.295" y1="187.946" x2="260.712" y2="195.882" stroke="#1757C2" stroke-width="1.83943"/>
<line x1="266.06" y1="168.144" x2="260.169" y2="175.164" stroke="#1757C2" stroke-width="1.83943"/>
<line x1="266.521" y1="148.484" x2="259.5" y2="154.375" stroke="#1757C2" stroke-width="1.83943"/>
<line x1="266.675" y1="128.937" x2="258.738" y2="133.519" stroke="#1757C2" stroke-width="1.83943"/>
<line x1="266.817" y1="109.47" x2="258.205" y2="112.605" stroke="#1757C2" stroke-width="1.83943"/>
<line x1="266.949" y1="90.0483" x2="257.923" y2="91.6397" stroke="#1757C2" stroke-width="1.83943"/>
<line x1="266.789" y1="70.6355" x2="257.625" y2="70.6355" stroke="#1757C2" stroke-width="1.83943"/>
<line x1="266.629" y1="51.1953" x2="257.604" y2="49.6039" stroke="#1757C2" stroke-width="1.83943"/>
<line x1="263.125" y1="248.426" x2="263.125" y2="257.591" stroke="#1757C2" stroke-width="1.83943"/>
<line x1="263.97" y1="228.069" x2="262.379" y2="237.095" stroke="#1757C2" stroke-width="1.83943"/>
<line x1="264.788" y1="207.914" x2="261.654" y2="216.526" stroke="#1757C2" stroke-width="1.83943"/>
<line x1="278.198" y1="301.177" x2="276.606" y2="292.151" stroke="#1757C2" stroke-width="1.83943"/>
<line x1="282.225" y1="52.3105" x2="273.613" y2="49.1761" stroke="#1757C2" stroke-width="1.83943"/>
<line x1="281.794" y1="32.7086" x2="273.857" y2="28.1263" stroke="#1757C2" stroke-width="1.83943"/>
<line x1="281.376" y1="12.9775" x2="274.355" y2="7.08663" stroke="#1757C2" stroke-width="1.83943"/>
<line x1="281.332" y1="208.566" x2="276.749" y2="216.503" stroke="#1757C2" stroke-width="1.83943"/>
<line x1="282.099" y1="188.764" x2="276.208" y2="195.784" stroke="#1757C2" stroke-width="1.83943"/>
<line x1="282.558" y1="169.104" x2="275.538" y2="174.995" stroke="#1757C2" stroke-width="1.83943"/>
<line x1="282.714" y1="149.557" x2="274.777" y2="154.139" stroke="#1757C2" stroke-width="1.83943"/>
<line x1="282.854" y1="130.091" x2="274.242" y2="133.225" stroke="#1757C2" stroke-width="1.83943"/>
<line x1="282.986" y1="110.668" x2="273.961" y2="112.26" stroke="#1757C2" stroke-width="1.83943"/>
<line x1="282.826" y1="91.2561" x2="273.662" y2="91.2561" stroke="#1757C2" stroke-width="1.83943"/>
<line x1="282.666" y1="71.8154" x2="273.641" y2="70.224" stroke="#1757C2" stroke-width="1.83943"/>
<line x1="279.164" y1="269.046" x2="279.164" y2="278.211" stroke="#1757C2" stroke-width="1.83943"/>
<line x1="280.009" y1="248.69" x2="278.418" y2="257.715" stroke="#1757C2" stroke-width="1.83943"/>
<line x1="280.827" y1="228.534" x2="277.693" y2="237.146" stroke="#1757C2" stroke-width="1.83943"/>
<line x1="298.264" y1="72.9307" x2="289.652" y2="69.7962" stroke="#1757C2" stroke-width="1.83943"/>
<line x1="297.831" y1="53.3292" x2="289.894" y2="48.7469" stroke="#1757C2" stroke-width="1.83943"/>
<line x1="297.415" y1="33.5981" x2="290.394" y2="27.7072" stroke="#1757C2" stroke-width="1.83943"/>
<line x1="296.727" y1="13.7113" x2="290.836" y2="6.69084" stroke="#1757C2" stroke-width="1.83943"/>
<line x1="297.369" y1="229.186" x2="292.786" y2="237.123" stroke="#1757C2" stroke-width="1.83943"/>
<line x1="298.136" y1="209.384" x2="292.245" y2="216.405" stroke="#1757C2" stroke-width="1.83943"/>
<line x1="298.597" y1="189.724" x2="291.577" y2="195.615" stroke="#1757C2" stroke-width="1.83943"/>
<line x1="298.751" y1="170.177" x2="290.814" y2="174.759" stroke="#1757C2" stroke-width="1.83943"/>
<line x1="298.893" y1="150.711" x2="290.281" y2="153.845" stroke="#1757C2" stroke-width="1.83943"/>
<line x1="299.023" y1="131.289" x2="289.998" y2="132.88" stroke="#1757C2" stroke-width="1.83943"/>
<line x1="298.863" y1="111.876" x2="289.699" y2="111.876" stroke="#1757C2" stroke-width="1.83943"/>
<line x1="298.704" y1="92.4355" x2="289.678" y2="90.8441" stroke="#1757C2" stroke-width="1.83943"/>
<line x1="295.201" y1="289.667" x2="295.201" y2="298.831" stroke="#1757C2" stroke-width="1.83943"/>
<line x1="296.046" y1="269.31" x2="294.455" y2="278.335" stroke="#1757C2" stroke-width="1.83943"/>
<line x1="296.864" y1="249.154" x2="293.73" y2="257.766" stroke="#1757C2" stroke-width="1.83943"/>
<line x1="314.301" y1="93.5508" x2="305.689" y2="90.4163" stroke="#1757C2" stroke-width="1.83943"/>
<line x1="313.87" y1="73.9493" x2="305.933" y2="69.3671" stroke="#1757C2" stroke-width="1.83943"/>
<line x1="313.452" y1="54.2182" x2="306.431" y2="48.3274" stroke="#1757C2" stroke-width="1.83943"/>
<line x1="312.766" y1="34.3314" x2="306.875" y2="27.311" stroke="#1757C2" stroke-width="1.83943"/>
<line x1="311.815" y1="14.267" x2="307.233" y2="6.33025" stroke="#1757C2" stroke-width="1.83943"/>
<line x1="313.408" y1="249.807" x2="308.826" y2="257.743" stroke="#1757C2" stroke-width="1.83943"/>
<line x1="314.175" y1="230.005" x2="308.284" y2="237.025" stroke="#1757C2" stroke-width="1.83943"/>
<line x1="314.634" y1="210.345" x2="307.614" y2="216.236" stroke="#1757C2" stroke-width="1.83943"/>
<line x1="314.79" y1="190.797" x2="306.853" y2="195.38" stroke="#1757C2" stroke-width="1.83943"/>
<line x1="314.93" y1="171.331" x2="306.318" y2="174.466" stroke="#1757C2" stroke-width="1.83943"/>
<line x1="315.062" y1="151.909" x2="306.037" y2="153.501" stroke="#1757C2" stroke-width="1.83943"/>
<line x1="314.902" y1="132.496" x2="305.738" y2="132.496" stroke="#1757C2" stroke-width="1.83943"/>
<line x1="314.743" y1="113.056" x2="305.717" y2="111.465" stroke="#1757C2" stroke-width="1.83943"/>
<line x1="312.085" y1="289.93" x2="310.494" y2="298.956" stroke="#1757C2" stroke-width="1.83943"/>
<line x1="312.903" y1="269.775" x2="309.769" y2="278.386" stroke="#1757C2" stroke-width="1.83943"/>
<line x1="330.34" y1="114.171" x2="321.728" y2="111.037" stroke="#1757C2" stroke-width="1.83943"/>
<line x1="329.907" y1="94.5694" x2="321.971" y2="89.9872" stroke="#1757C2" stroke-width="1.83943"/>
<line x1="329.489" y1="74.8383" x2="322.468" y2="68.9475" stroke="#1757C2" stroke-width="1.83943"/>
<line x1="328.803" y1="54.9515" x2="322.912" y2="47.9311" stroke="#1757C2" stroke-width="1.83943"/>
<line x1="327.852" y1="34.8871" x2="323.27" y2="26.9504" stroke="#1757C2" stroke-width="1.83943"/>
<line x1="327.212" y1="14.628" x2="324.077" y2="6.01617" stroke="#1757C2" stroke-width="1.83943"/>
<line x1="329.445" y1="270.427" x2="324.863" y2="278.363" stroke="#1757C2" stroke-width="1.83943"/>
<line x1="330.212" y1="250.625" x2="324.322" y2="257.645" stroke="#1757C2" stroke-width="1.83943"/>
<line x1="330.671" y1="230.965" x2="323.651" y2="236.856" stroke="#1757C2" stroke-width="1.83943"/>
<line x1="330.827" y1="211.418" x2="322.89" y2="216" stroke="#1757C2" stroke-width="1.83943"/>
<line x1="330.969" y1="191.951" x2="322.357" y2="195.086" stroke="#1757C2" stroke-width="1.83943"/>
<line x1="331.099" y1="172.529" x2="322.074" y2="174.121" stroke="#1757C2" stroke-width="1.83943"/>
<line x1="330.939" y1="153.117" x2="321.775" y2="153.117" stroke="#1757C2" stroke-width="1.83943"/>
<line x1="330.78" y1="133.676" x2="321.754" y2="132.085" stroke="#1757C2" stroke-width="1.83943"/>
<line x1="328.94" y1="290.395" x2="325.806" y2="299.007" stroke="#1757C2" stroke-width="1.83943"/>
<line x1="346.377" y1="134.791" x2="337.765" y2="131.657" stroke="#1757C2" stroke-width="1.83943"/>
<line x1="345.946" y1="115.19" x2="338.01" y2="110.607" stroke="#1757C2" stroke-width="1.83943"/>
<line x1="345.528" y1="95.4584" x2="338.508" y2="89.5676" stroke="#1757C2" stroke-width="1.83943"/>
<line x1="344.842" y1="75.5721" x2="338.951" y2="68.5517" stroke="#1757C2" stroke-width="1.83943"/>
<line x1="343.891" y1="55.5072" x2="339.309" y2="47.5705" stroke="#1757C2" stroke-width="1.83943"/>
<line x1="343.249" y1="35.2486" x2="340.115" y2="26.6368" stroke="#1757C2" stroke-width="1.83943"/>
<line x1="342.35" y1="14.7823" x2="340.759" y2="5.75694" stroke="#1757C2" stroke-width="1.83943"/>
<line x1="345.484" y1="291.047" x2="340.902" y2="298.984" stroke="#1757C2" stroke-width="1.83943"/>
<line x1="346.251" y1="271.245" x2="340.361" y2="278.265" stroke="#1757C2" stroke-width="1.83943"/>
<line x1="346.71" y1="251.585" x2="339.69" y2="257.476" stroke="#1757C2" stroke-width="1.83943"/>
<line x1="346.866" y1="232.038" x2="338.929" y2="236.62" stroke="#1757C2" stroke-width="1.83943"/>
<line x1="347.006" y1="212.572" x2="338.394" y2="215.706" stroke="#1757C2" stroke-width="1.83943"/>
<line x1="347.138" y1="193.149" x2="338.113" y2="194.741" stroke="#1757C2" stroke-width="1.83943"/>
<line x1="346.979" y1="173.737" x2="337.814" y2="173.737" stroke="#1757C2" stroke-width="1.83943"/>
<line x1="346.819" y1="154.296" x2="337.793" y2="152.705" stroke="#1757C2" stroke-width="1.83943"/>
<line x1="362.416" y1="155.412" x2="353.804" y2="152.277" stroke="#1757C2" stroke-width="1.83943"/>
<line x1="361.984" y1="135.81" x2="354.047" y2="131.228" stroke="#1757C2" stroke-width="1.83943"/>
<line x1="361.565" y1="116.079" x2="354.545" y2="110.188" stroke="#1757C2" stroke-width="1.83943"/>
<line x1="360.879" y1="96.1923" x2="354.989" y2="89.1718" stroke="#1757C2" stroke-width="1.83943"/>
<line x1="359.928" y1="76.1273" x2="355.346" y2="68.1906" stroke="#1757C2" stroke-width="1.83943"/>
<line x1="359.288" y1="55.8688" x2="356.154" y2="47.2569" stroke="#1757C2" stroke-width="1.83943"/>
<line x1="358.387" y1="35.4024" x2="356.796" y2="26.3771" stroke="#1757C2" stroke-width="1.83943"/>
<line x1="357.514" y1="14.7275" x2="357.514" y2="5.56298" stroke="#1757C2" stroke-width="1.83943"/>
<line x1="362.289" y1="291.865" x2="356.398" y2="298.886" stroke="#1757C2" stroke-width="1.83943"/>
<line x1="362.747" y1="272.206" x2="355.727" y2="278.096" stroke="#1757C2" stroke-width="1.83943"/>
<line x1="362.903" y1="252.658" x2="354.966" y2="257.241" stroke="#1757C2" stroke-width="1.83943"/>
<line x1="363.045" y1="233.192" x2="354.433" y2="236.326" stroke="#1757C2" stroke-width="1.83943"/>
<line x1="363.175" y1="213.77" x2="354.15" y2="215.361" stroke="#1757C2" stroke-width="1.83943"/>
<line x1="363.016" y1="194.357" x2="353.851" y2="194.357" stroke="#1757C2" stroke-width="1.83943"/>
<line x1="362.856" y1="174.917" x2="353.831" y2="173.326" stroke="#1757C2" stroke-width="1.83943"/>
</mask>
<g mask="url(#mask0_4138_55603)">
<rect x="-25" y="-19" width="422" height="365" fill="url(#paint0_linear_4138_55603)"/>
</g>
<defs>
<linearGradient id="paint0_linear_4138_55603" x1="11" y1="11" x2="120" y2="263" gradientUnits="userSpaceOnUse">
<stop stop-color="#8BABE1"/>
<stop offset="1" stop-color="#E8EEF9"/>
</linearGradient>
</defs>
</svg>
