<svg width="364" height="302" viewBox="0 0 364 302" fill="none" xmlns="http://www.w3.org/2000/svg">
<mask id="mask0_4139_55604" style="mask-type:alpha" maskUnits="userSpaceOnUse" x="0" y="0" width="364" height="302">
<line x1="9.56337" y1="70.6416" x2="0.951502" y2="67.5071" stroke="#1757C2" stroke-width="1.83943"/>
<line x1="9.13194" y1="51.0401" x2="1.1952" y2="46.4579" stroke="#1757C2" stroke-width="1.83943"/>
<line x1="8.71448" y1="31.309" x2="1.69402" y2="25.4182" stroke="#1757C2" stroke-width="1.83943"/>
<line x1="8.02788" y1="11.4222" x2="2.13701" y2="4.40178" stroke="#1757C2" stroke-width="1.83943"/>
<line x1="8.66954" y1="226.897" x2="4.08727" y2="234.834" stroke="#1757C2" stroke-width="1.83943"/>
<line x1="9.43696" y1="207.096" x2="3.5461" y2="214.116" stroke="#1757C2" stroke-width="1.83943"/>
<line x1="9.89685" y1="187.435" x2="2.87639" y2="193.326" stroke="#1757C2" stroke-width="1.83943"/>
<line x1="10.0517" y1="167.888" x2="2.11492" y2="172.471" stroke="#1757C2" stroke-width="1.83943"/>
<line x1="10.1925" y1="148.422" x2="1.58062" y2="151.556" stroke="#1757C2" stroke-width="1.83943"/>
<line x1="10.3247" y1="129" x2="1.29942" y2="130.591" stroke="#1757C2" stroke-width="1.83943"/>
<line x1="10.165" y1="109.587" x2="1.00048" y2="109.587" stroke="#1757C2" stroke-width="1.83943"/>
<line x1="10.0053" y1="90.147" x2="0.980005" y2="88.5555" stroke="#1757C2" stroke-width="1.83943"/>
<line x1="6.50175" y1="287.377" x2="6.50175" y2="296.542" stroke="#1757C2" stroke-width="1.83943"/>
<line x1="7.34715" y1="267.021" x2="5.75574" y2="276.046" stroke="#1757C2" stroke-width="1.83943"/>
<line x1="8.16503" y1="246.866" x2="5.03057" y2="255.478" stroke="#1757C2" stroke-width="1.83943"/>
<line x1="25.6015" y1="91.2622" x2="16.9896" y2="88.1277" stroke="#1757C2" stroke-width="1.83943"/>
<line x1="25.17" y1="71.6603" x2="17.2333" y2="67.078" stroke="#1757C2" stroke-width="1.83943"/>
<line x1="24.7526" y1="51.9292" x2="17.7321" y2="46.0383" stroke="#1757C2" stroke-width="1.83943"/>
<line x1="24.066" y1="32.0424" x2="18.1751" y2="25.0219" stroke="#1757C2" stroke-width="1.83943"/>
<line x1="23.1146" y1="11.9779" x2="18.5324" y2="4.04118" stroke="#1757C2" stroke-width="1.83943"/>
<line x1="24.7076" y1="247.517" x2="20.1254" y2="255.454" stroke="#1757C2" stroke-width="1.83943"/>
<line x1="25.4751" y1="227.716" x2="19.5842" y2="234.736" stroke="#1757C2" stroke-width="1.83943"/>
<line x1="25.9349" y1="208.056" x2="18.9145" y2="213.946" stroke="#1757C2" stroke-width="1.83943"/>
<line x1="26.0897" y1="188.508" x2="18.153" y2="193.091" stroke="#1757C2" stroke-width="1.83943"/>
<line x1="26.2306" y1="169.042" x2="17.6187" y2="172.177" stroke="#1757C2" stroke-width="1.83943"/>
<line x1="26.3619" y1="149.62" x2="17.3365" y2="151.212" stroke="#1757C2" stroke-width="1.83943"/>
<line x1="26.2021" y1="130.208" x2="17.0376" y2="130.208" stroke="#1757C2" stroke-width="1.83943"/>
<line x1="26.0424" y1="110.767" x2="17.0171" y2="109.176" stroke="#1757C2" stroke-width="1.83943"/>
<line x1="23.3852" y1="287.641" x2="21.7938" y2="296.666" stroke="#1757C2" stroke-width="1.83943"/>
<line x1="24.2031" y1="267.486" x2="21.0687" y2="276.098" stroke="#1757C2" stroke-width="1.83943"/>
<line x1="41.6395" y1="111.882" x2="33.0277" y2="108.748" stroke="#1757C2" stroke-width="1.83943"/>
<line x1="41.2081" y1="92.2804" x2="33.2714" y2="87.6981" stroke="#1757C2" stroke-width="1.83943"/>
<line x1="40.7897" y1="72.5498" x2="33.7692" y2="66.6589" stroke="#1757C2" stroke-width="1.83943"/>
<line x1="40.1041" y1="52.663" x2="34.2132" y2="45.6425" stroke="#1757C2" stroke-width="1.83943"/>
<line x1="39.1527" y1="32.598" x2="34.5704" y2="24.6613" stroke="#1757C2" stroke-width="1.83943"/>
<line x1="38.5127" y1="12.3395" x2="35.3782" y2="3.7276" stroke="#1757C2" stroke-width="1.83943"/>
<line x1="40.7457" y1="268.138" x2="36.1634" y2="276.075" stroke="#1757C2" stroke-width="1.83943"/>
<line x1="41.5131" y1="248.336" x2="35.6223" y2="255.356" stroke="#1757C2" stroke-width="1.83943"/>
<line x1="41.972" y1="228.676" x2="34.9516" y2="234.567" stroke="#1757C2" stroke-width="1.83943"/>
<line x1="42.1278" y1="209.129" x2="34.1911" y2="213.711" stroke="#1757C2" stroke-width="1.83943"/>
<line x1="42.2687" y1="189.663" x2="33.6568" y2="192.797" stroke="#1757C2" stroke-width="1.83943"/>
<line x1="42.3999" y1="170.241" x2="33.3746" y2="171.832" stroke="#1757C2" stroke-width="1.83943"/>
<line x1="42.2402" y1="150.828" x2="33.0757" y2="150.828" stroke="#1757C2" stroke-width="1.83943"/>
<line x1="42.0805" y1="131.387" x2="33.0552" y2="129.796" stroke="#1757C2" stroke-width="1.83943"/>
<line x1="40.2412" y1="288.106" x2="37.1067" y2="296.718" stroke="#1757C2" stroke-width="1.83943"/>
<line x1="57.6776" y1="132.502" x2="49.0658" y2="129.368" stroke="#1757C2" stroke-width="1.83943"/>
<line x1="57.2462" y1="112.901" x2="49.3095" y2="108.319" stroke="#1757C2" stroke-width="1.83943"/>
<line x1="56.8278" y1="93.1699" x2="49.8073" y2="87.279" stroke="#1757C2" stroke-width="1.83943"/>
<line x1="56.1421" y1="73.2831" x2="50.2513" y2="66.2626" stroke="#1757C2" stroke-width="1.83943"/>
<line x1="55.1908" y1="53.2182" x2="50.6085" y2="45.2814" stroke="#1757C2" stroke-width="1.83943"/>
<line x1="54.5508" y1="32.9596" x2="51.4163" y2="24.3477" stroke="#1757C2" stroke-width="1.83943"/>
<line x1="53.6499" y1="12.4932" x2="52.0585" y2="3.46788" stroke="#1757C2" stroke-width="1.83943"/>
<line x1="56.7838" y1="288.758" x2="52.2015" y2="296.695" stroke="#1757C2" stroke-width="1.83943"/>
<line x1="57.5512" y1="268.956" x2="51.6604" y2="275.976" stroke="#1757C2" stroke-width="1.83943"/>
<line x1="58.0101" y1="249.296" x2="50.9897" y2="255.187" stroke="#1757C2" stroke-width="1.83943"/>
<line x1="58.1659" y1="229.749" x2="50.2292" y2="234.331" stroke="#1757C2" stroke-width="1.83943"/>
<line x1="58.3067" y1="210.283" x2="49.6949" y2="213.417" stroke="#1757C2" stroke-width="1.83943"/>
<line x1="58.438" y1="190.861" x2="49.4127" y2="192.452" stroke="#1757C2" stroke-width="1.83943"/>
<line x1="58.2783" y1="171.448" x2="49.1138" y2="171.448" stroke="#1757C2" stroke-width="1.83943"/>
<line x1="58.1186" y1="152.008" x2="49.0933" y2="150.416" stroke="#1757C2" stroke-width="1.83943"/>
<line x1="73.7157" y1="153.123" x2="65.1038" y2="149.989" stroke="#1757C2" stroke-width="1.83943"/>
<line x1="73.2843" y1="133.521" x2="65.3475" y2="128.939" stroke="#1757C2" stroke-width="1.83943"/>
<line x1="72.8658" y1="113.79" x2="65.8454" y2="107.899" stroke="#1757C2" stroke-width="1.83943"/>
<line x1="72.1802" y1="93.9032" x2="66.2894" y2="86.8827" stroke="#1757C2" stroke-width="1.83943"/>
<line x1="71.2289" y1="73.8388" x2="66.6466" y2="65.902" stroke="#1757C2" stroke-width="1.83943"/>
<line x1="70.5879" y1="53.5797" x2="67.4534" y2="44.9678" stroke="#1757C2" stroke-width="1.83943"/>
<line x1="69.688" y1="33.1133" x2="68.0966" y2="24.088" stroke="#1757C2" stroke-width="1.83943"/>
<line x1="73.5893" y1="289.577" x2="67.6984" y2="296.597" stroke="#1757C2" stroke-width="1.83943"/>
<line x1="74.0482" y1="269.916" x2="67.0278" y2="275.807" stroke="#1757C2" stroke-width="1.83943"/>
<line x1="74.204" y1="250.369" x2="66.2673" y2="254.952" stroke="#1757C2" stroke-width="1.83943"/>
<line x1="74.3448" y1="230.903" x2="65.733" y2="234.037" stroke="#1757C2" stroke-width="1.83943"/>
<line x1="74.4761" y1="211.481" x2="65.4508" y2="213.072" stroke="#1757C2" stroke-width="1.83943"/>
<line x1="74.3164" y1="192.068" x2="65.1518" y2="192.068" stroke="#1757C2" stroke-width="1.83943"/>
<line x1="74.1567" y1="172.628" x2="65.1314" y2="171.036" stroke="#1757C2" stroke-width="1.83943"/>
<line x1="70.6541" y1="0.98291" x2="70.6541" y2="10.1475" stroke="#1757C2" stroke-width="1.83943"/>
<line x1="89.7538" y1="173.743" x2="81.1419" y2="170.609" stroke="#1757C2" stroke-width="1.83943"/>
<line x1="89.3214" y1="154.141" x2="81.3847" y2="149.559" stroke="#1757C2" stroke-width="1.83943"/>
<line x1="88.9039" y1="134.41" x2="81.8835" y2="128.519" stroke="#1757C2" stroke-width="1.83943"/>
<line x1="88.2183" y1="114.523" x2="82.3274" y2="107.503" stroke="#1757C2" stroke-width="1.83943"/>
<line x1="87.267" y1="94.4589" x2="82.6847" y2="86.5221" stroke="#1757C2" stroke-width="1.83943"/>
<line x1="86.626" y1="74.2003" x2="83.4915" y2="65.5884" stroke="#1757C2" stroke-width="1.83943"/>
<line x1="85.7251" y1="53.7339" x2="84.1337" y2="44.7086" stroke="#1757C2" stroke-width="1.83943"/>
<line x1="90.0863" y1="290.537" x2="83.0658" y2="296.427" stroke="#1757C2" stroke-width="1.83943"/>
<line x1="90.2411" y1="270.989" x2="82.3044" y2="275.572" stroke="#1757C2" stroke-width="1.83943"/>
<line x1="90.3829" y1="251.523" x2="81.7711" y2="254.658" stroke="#1757C2" stroke-width="1.83943"/>
<line x1="90.5142" y1="232.101" x2="81.4889" y2="233.692" stroke="#1757C2" stroke-width="1.83943"/>
<line x1="90.3545" y1="212.689" x2="81.1899" y2="212.689" stroke="#1757C2" stroke-width="1.83943"/>
<line x1="90.1948" y1="193.248" x2="81.1695" y2="191.657" stroke="#1757C2" stroke-width="1.83943"/>
<line x1="86.6922" y1="21.603" x2="86.6922" y2="30.7676" stroke="#1757C2" stroke-width="1.83943"/>
<line x1="87.5366" y1="1.24662" x2="85.9452" y2="10.2719" stroke="#1757C2" stroke-width="1.83943"/>
<line x1="105.792" y1="194.363" x2="97.18" y2="191.229" stroke="#1757C2" stroke-width="1.83943"/>
<line x1="105.359" y1="174.762" x2="97.4227" y2="170.18" stroke="#1757C2" stroke-width="1.83943"/>
<line x1="104.942" y1="155.031" x2="97.9216" y2="149.14" stroke="#1757C2" stroke-width="1.83943"/>
<line x1="104.255" y1="135.144" x2="98.3646" y2="128.123" stroke="#1757C2" stroke-width="1.83943"/>
<line x1="103.305" y1="115.079" x2="98.7228" y2="107.142" stroke="#1757C2" stroke-width="1.83943"/>
<line x1="102.664" y1="94.8204" x2="99.5296" y2="86.2086" stroke="#1757C2" stroke-width="1.83943"/>
<line x1="101.763" y1="74.354" x2="100.172" y2="65.3287" stroke="#1757C2" stroke-width="1.83943"/>
<line x1="106.279" y1="291.609" x2="98.3425" y2="296.192" stroke="#1757C2" stroke-width="1.83943"/>
<line x1="106.421" y1="272.144" x2="97.8091" y2="275.278" stroke="#1757C2" stroke-width="1.83943"/>
<line x1="106.552" y1="252.722" x2="97.527" y2="254.313" stroke="#1757C2" stroke-width="1.83943"/>
<line x1="106.393" y1="233.309" x2="97.228" y2="233.309" stroke="#1757C2" stroke-width="1.83943"/>
<line x1="106.233" y1="213.868" x2="97.2075" y2="212.277" stroke="#1757C2" stroke-width="1.83943"/>
<line x1="102.73" y1="42.2236" x2="102.73" y2="51.3882" stroke="#1757C2" stroke-width="1.83943"/>
<line x1="103.575" y1="21.8672" x2="101.983" y2="30.8926" stroke="#1757C2" stroke-width="1.83943"/>
<line x1="104.393" y1="1.71153" x2="101.258" y2="10.3234" stroke="#1757C2" stroke-width="1.83943"/>
<line x1="121.829" y1="214.983" x2="113.217" y2="211.849" stroke="#1757C2" stroke-width="1.83943"/>
<line x1="121.398" y1="195.382" x2="113.461" y2="190.8" stroke="#1757C2" stroke-width="1.83943"/>
<line x1="120.98" y1="175.651" x2="113.96" y2="169.76" stroke="#1757C2" stroke-width="1.83943"/>
<line x1="120.294" y1="155.764" x2="114.403" y2="148.744" stroke="#1757C2" stroke-width="1.83943"/>
<line x1="119.343" y1="135.699" x2="114.761" y2="127.762" stroke="#1757C2" stroke-width="1.83943"/>
<line x1="118.702" y1="115.441" x2="115.568" y2="106.829" stroke="#1757C2" stroke-width="1.83943"/>
<line x1="117.801" y1="94.9742" x2="116.21" y2="85.9488" stroke="#1757C2" stroke-width="1.83943"/>
<line x1="122.458" y1="292.764" x2="113.846" y2="295.898" stroke="#1757C2" stroke-width="1.83943"/>
<line x1="122.59" y1="273.342" x2="113.565" y2="274.933" stroke="#1757C2" stroke-width="1.83943"/>
<line x1="122.431" y1="253.929" x2="113.266" y2="253.929" stroke="#1757C2" stroke-width="1.83943"/>
<line x1="122.271" y1="234.489" x2="113.246" y2="232.897" stroke="#1757C2" stroke-width="1.83943"/>
<line x1="120.936" y1="2.36367" x2="116.354" y2="10.3004" stroke="#1757C2" stroke-width="1.83943"/>
<line x1="118.767" y1="62.8437" x2="118.767" y2="72.0083" stroke="#1757C2" stroke-width="1.83943"/>
<line x1="119.613" y1="42.4873" x2="118.021" y2="51.5127" stroke="#1757C2" stroke-width="1.83943"/>
<line x1="120.431" y1="22.3317" x2="117.296" y2="30.9435" stroke="#1757C2" stroke-width="1.83943"/>
<line x1="137.867" y1="235.604" x2="129.255" y2="232.47" stroke="#1757C2" stroke-width="1.83943"/>
<line x1="137.435" y1="216.002" x2="129.498" y2="211.42" stroke="#1757C2" stroke-width="1.83943"/>
<line x1="137.018" y1="196.271" x2="129.998" y2="190.38" stroke="#1757C2" stroke-width="1.83943"/>
<line x1="136.331" y1="176.384" x2="130.44" y2="169.364" stroke="#1757C2" stroke-width="1.83943"/>
<line x1="135.379" y1="156.32" x2="130.797" y2="148.383" stroke="#1757C2" stroke-width="1.83943"/>
<line x1="134.739" y1="136.061" x2="131.605" y2="127.449" stroke="#1757C2" stroke-width="1.83943"/>
<line x1="133.838" y1="115.594" x2="132.247" y2="106.569" stroke="#1757C2" stroke-width="1.83943"/>
<line x1="138.628" y1="293.962" x2="129.603" y2="295.553" stroke="#1757C2" stroke-width="1.83943"/>
<line x1="138.469" y1="274.55" x2="129.304" y2="274.55" stroke="#1757C2" stroke-width="1.83943"/>
<line x1="138.309" y1="255.109" x2="129.284" y2="253.517" stroke="#1757C2" stroke-width="1.83943"/>
<line x1="136.972" y1="22.9838" x2="132.39" y2="30.9205" stroke="#1757C2" stroke-width="1.83943"/>
<line x1="137.74" y1="3.182" x2="131.849" y2="10.2025" stroke="#1757C2" stroke-width="1.83943"/>
<line x1="134.804" y1="83.4639" x2="134.804" y2="92.6284" stroke="#1757C2" stroke-width="1.83943"/>
<line x1="135.65" y1="63.1075" x2="134.058" y2="72.1328" stroke="#1757C2" stroke-width="1.83943"/>
<line x1="136.468" y1="42.9518" x2="133.333" y2="51.5636" stroke="#1757C2" stroke-width="1.83943"/>
<line x1="153.904" y1="256.224" x2="145.292" y2="253.09" stroke="#1757C2" stroke-width="1.83943"/>
<line x1="153.474" y1="236.622" x2="145.537" y2="232.04" stroke="#1757C2" stroke-width="1.83943"/>
<line x1="153.055" y1="216.891" x2="146.035" y2="211" stroke="#1757C2" stroke-width="1.83943"/>
<line x1="152.37" y1="197.005" x2="146.479" y2="189.984" stroke="#1757C2" stroke-width="1.83943"/>
<line x1="151.418" y1="176.94" x2="146.836" y2="169.003" stroke="#1757C2" stroke-width="1.83943"/>
<line x1="150.778" y1="156.681" x2="147.644" y2="148.069" stroke="#1757C2" stroke-width="1.83943"/>
<line x1="149.877" y1="136.215" x2="148.286" y2="127.19" stroke="#1757C2" stroke-width="1.83943"/>
<line x1="154.506" y1="295.17" x2="145.341" y2="295.17" stroke="#1757C2" stroke-width="1.83943"/>
<line x1="154.346" y1="275.729" x2="145.321" y2="274.138" stroke="#1757C2" stroke-width="1.83943"/>
<line x1="153.011" y1="43.6039" x2="148.429" y2="51.5406" stroke="#1757C2" stroke-width="1.83943"/>
<line x1="153.779" y1="23.8021" x2="147.888" y2="30.8226" stroke="#1757C2" stroke-width="1.83943"/>
<line x1="154.238" y1="4.14204" x2="147.217" y2="10.0329" stroke="#1757C2" stroke-width="1.83943"/>
<line x1="150.844" y1="104.084" x2="150.844" y2="113.249" stroke="#1757C2" stroke-width="1.83943"/>
<line x1="151.689" y1="83.7276" x2="150.098" y2="92.7529" stroke="#1757C2" stroke-width="1.83943"/>
<line x1="152.507" y1="63.5724" x2="149.372" y2="72.1842" stroke="#1757C2" stroke-width="1.83943"/>
<line x1="169.943" y1="276.844" x2="161.331" y2="273.71" stroke="#1757C2" stroke-width="1.83943"/>
<line x1="169.511" y1="257.243" x2="161.574" y2="252.661" stroke="#1757C2" stroke-width="1.83943"/>
<line x1="169.094" y1="237.512" x2="162.074" y2="231.621" stroke="#1757C2" stroke-width="1.83943"/>
<line x1="168.407" y1="217.625" x2="162.516" y2="210.604" stroke="#1757C2" stroke-width="1.83943"/>
<line x1="167.455" y1="197.56" x2="162.873" y2="189.623" stroke="#1757C2" stroke-width="1.83943"/>
<line x1="166.815" y1="177.301" x2="163.681" y2="168.69" stroke="#1757C2" stroke-width="1.83943"/>
<line x1="165.915" y1="156.835" x2="164.323" y2="147.81" stroke="#1757C2" stroke-width="1.83943"/>
<line x1="170.383" y1="296.349" x2="161.358" y2="294.758" stroke="#1757C2" stroke-width="1.83943"/>
<line x1="169.048" y1="64.2245" x2="164.466" y2="72.1612" stroke="#1757C2" stroke-width="1.83943"/>
<line x1="169.816" y1="44.4222" x2="163.925" y2="51.4427" stroke="#1757C2" stroke-width="1.83943"/>
<line x1="170.277" y1="24.7622" x2="163.256" y2="30.653" stroke="#1757C2" stroke-width="1.83943"/>
<line x1="170.431" y1="5.21495" x2="162.494" y2="9.79723" stroke="#1757C2" stroke-width="1.83943"/>
<line x1="166.881" y1="124.705" x2="166.881" y2="133.869" stroke="#1757C2" stroke-width="1.83943"/>
<line x1="167.726" y1="104.348" x2="166.135" y2="113.374" stroke="#1757C2" stroke-width="1.83943"/>
<line x1="168.544" y1="84.1925" x2="165.409" y2="92.8044" stroke="#1757C2" stroke-width="1.83943"/>
<line x1="185.98" y1="297.465" x2="177.368" y2="294.33" stroke="#1757C2" stroke-width="1.83943"/>
<line x1="185.55" y1="277.863" x2="177.613" y2="273.281" stroke="#1757C2" stroke-width="1.83943"/>
<line x1="185.131" y1="258.132" x2="178.111" y2="252.241" stroke="#1757C2" stroke-width="1.83943"/>
<line x1="184.446" y1="238.245" x2="178.555" y2="231.225" stroke="#1757C2" stroke-width="1.83943"/>
<line x1="183.495" y1="218.181" x2="178.912" y2="210.244" stroke="#1757C2" stroke-width="1.83943"/>
<line x1="182.855" y1="197.921" x2="179.72" y2="189.31" stroke="#1757C2" stroke-width="1.83943"/>
<line x1="181.954" y1="177.455" x2="180.362" y2="168.43" stroke="#1757C2" stroke-width="1.83943"/>
<line x1="185.088" y1="84.8446" x2="180.505" y2="92.7814" stroke="#1757C2" stroke-width="1.83943"/>
<line x1="185.855" y1="65.0424" x2="179.964" y2="72.0628" stroke="#1757C2" stroke-width="1.83943"/>
<line x1="186.314" y1="45.3823" x2="179.293" y2="51.2731" stroke="#1757C2" stroke-width="1.83943"/>
<line x1="186.47" y1="25.8356" x2="178.533" y2="30.4178" stroke="#1757C2" stroke-width="1.83943"/>
<line x1="186.609" y1="6.36913" x2="177.998" y2="9.5036" stroke="#1757C2" stroke-width="1.83943"/>
<line x1="182.92" y1="145.325" x2="182.92" y2="154.489" stroke="#1757C2" stroke-width="1.83943"/>
<line x1="183.765" y1="124.968" x2="182.174" y2="133.994" stroke="#1757C2" stroke-width="1.83943"/>
<line x1="184.583" y1="104.813" x2="181.449" y2="113.424" stroke="#1757C2" stroke-width="1.83943"/>
<line x1="201.587" y1="298.483" x2="193.65" y2="293.901" stroke="#1757C2" stroke-width="1.83943"/>
<line x1="201.169" y1="278.752" x2="194.148" y2="272.861" stroke="#1757C2" stroke-width="1.83943"/>
<line x1="200.483" y1="258.865" x2="194.592" y2="251.845" stroke="#1757C2" stroke-width="1.83943"/>
<line x1="199.532" y1="238.801" x2="194.949" y2="230.864" stroke="#1757C2" stroke-width="1.83943"/>
<line x1="198.892" y1="218.542" x2="195.757" y2="209.93" stroke="#1757C2" stroke-width="1.83943"/>
<line x1="197.991" y1="198.076" x2="196.399" y2="189.05" stroke="#1757C2" stroke-width="1.83943"/>
<line x1="201.125" y1="105.465" x2="196.542" y2="113.401" stroke="#1757C2" stroke-width="1.83943"/>
<line x1="201.892" y1="85.663" x2="196.001" y2="92.6834" stroke="#1757C2" stroke-width="1.83943"/>
<line x1="202.351" y1="66.0029" x2="195.33" y2="71.8937" stroke="#1757C2" stroke-width="1.83943"/>
<line x1="202.507" y1="46.4557" x2="194.57" y2="51.038" stroke="#1757C2" stroke-width="1.83943"/>
<line x1="202.649" y1="26.9892" x2="194.037" y2="30.1237" stroke="#1757C2" stroke-width="1.83943"/>
<line x1="202.779" y1="7.56736" x2="193.754" y2="9.15877" stroke="#1757C2" stroke-width="1.83943"/>
<line x1="198.957" y1="165.945" x2="198.957" y2="175.109" stroke="#1757C2" stroke-width="1.83943"/>
<line x1="199.802" y1="145.588" x2="198.211" y2="154.614" stroke="#1757C2" stroke-width="1.83943"/>
<line x1="200.62" y1="125.433" x2="197.486" y2="134.045" stroke="#1757C2" stroke-width="1.83943"/>
<line x1="217.208" y1="299.373" x2="210.187" y2="293.482" stroke="#1757C2" stroke-width="1.83943"/>
<line x1="216.522" y1="279.486" x2="210.631" y2="272.465" stroke="#1757C2" stroke-width="1.83943"/>
<line x1="215.571" y1="259.421" x2="210.988" y2="251.484" stroke="#1757C2" stroke-width="1.83943"/>
<line x1="214.929" y1="239.162" x2="211.794" y2="230.55" stroke="#1757C2" stroke-width="1.83943"/>
<line x1="214.03" y1="218.696" x2="212.438" y2="209.671" stroke="#1757C2" stroke-width="1.83943"/>
<line x1="217.164" y1="126.085" x2="212.581" y2="134.022" stroke="#1757C2" stroke-width="1.83943"/>
<line x1="217.931" y1="106.283" x2="212.04" y2="113.304" stroke="#1757C2" stroke-width="1.83943"/>
<line x1="218.39" y1="86.623" x2="211.37" y2="92.5139" stroke="#1757C2" stroke-width="1.83943"/>
<line x1="218.546" y1="67.0758" x2="210.609" y2="71.6581" stroke="#1757C2" stroke-width="1.83943"/>
<line x1="218.686" y1="47.6099" x2="210.074" y2="50.7443" stroke="#1757C2" stroke-width="1.83943"/>
<line x1="218.818" y1="28.1875" x2="209.793" y2="29.7789" stroke="#1757C2" stroke-width="1.83943"/>
<line x1="218.658" y1="8.77518" x2="209.494" y2="8.77518" stroke="#1757C2" stroke-width="1.83943"/>
<line x1="214.996" y1="186.565" x2="214.996" y2="195.73" stroke="#1757C2" stroke-width="1.83943"/>
<line x1="215.841" y1="166.209" x2="214.25" y2="175.234" stroke="#1757C2" stroke-width="1.83943"/>
<line x1="216.657" y1="146.053" x2="213.523" y2="154.665" stroke="#1757C2" stroke-width="1.83943"/>
<line x1="232.559" y1="300.106" x2="226.668" y2="293.085" stroke="#1757C2" stroke-width="1.83943"/>
<line x1="231.608" y1="280.041" x2="227.026" y2="272.104" stroke="#1757C2" stroke-width="1.83943"/>
<line x1="230.968" y1="259.782" x2="227.833" y2="251.17" stroke="#1757C2" stroke-width="1.83943"/>
<line x1="230.067" y1="239.316" x2="228.476" y2="230.291" stroke="#1757C2" stroke-width="1.83943"/>
<line x1="233.201" y1="146.705" x2="228.619" y2="154.642" stroke="#1757C2" stroke-width="1.83943"/>
<line x1="233.968" y1="126.903" x2="228.077" y2="133.924" stroke="#1757C2" stroke-width="1.83943"/>
<line x1="234.427" y1="107.243" x2="227.407" y2="113.134" stroke="#1757C2" stroke-width="1.83943"/>
<line x1="234.583" y1="87.6959" x2="226.646" y2="92.2782" stroke="#1757C2" stroke-width="1.83943"/>
<line x1="234.725" y1="68.23" x2="226.113" y2="71.3644" stroke="#1757C2" stroke-width="1.83943"/>
<line x1="234.855" y1="48.8081" x2="225.83" y2="50.3995" stroke="#1757C2" stroke-width="1.83943"/>
<line x1="234.695" y1="29.3953" x2="225.531" y2="29.3953" stroke="#1757C2" stroke-width="1.83943"/>
<line x1="234.536" y1="9.95457" x2="225.51" y2="8.36316" stroke="#1757C2" stroke-width="1.83943"/>
<line x1="231.033" y1="207.186" x2="231.033" y2="216.35" stroke="#1757C2" stroke-width="1.83943"/>
<line x1="231.878" y1="186.829" x2="230.287" y2="195.854" stroke="#1757C2" stroke-width="1.83943"/>
<line x1="232.696" y1="166.673" x2="229.562" y2="175.285" stroke="#1757C2" stroke-width="1.83943"/>
<line x1="247.646" y1="300.662" x2="243.064" y2="292.725" stroke="#1757C2" stroke-width="1.83943"/>
<line x1="247.005" y1="280.402" x2="243.871" y2="271.791" stroke="#1757C2" stroke-width="1.83943"/>
<line x1="246.105" y1="259.936" x2="244.513" y2="250.911" stroke="#1757C2" stroke-width="1.83943"/>
<line x1="250.133" y1="11.0698" x2="241.521" y2="7.93535" stroke="#1757C2" stroke-width="1.83943"/>
<line x1="249.239" y1="167.326" x2="244.657" y2="175.262" stroke="#1757C2" stroke-width="1.83943"/>
<line x1="250.006" y1="147.523" x2="244.115" y2="154.544" stroke="#1757C2" stroke-width="1.83943"/>
<line x1="250.466" y1="127.864" x2="243.445" y2="133.755" stroke="#1757C2" stroke-width="1.83943"/>
<line x1="250.621" y1="108.317" x2="242.684" y2="112.899" stroke="#1757C2" stroke-width="1.83943"/>
<line x1="250.762" y1="88.8501" x2="242.15" y2="91.9846" stroke="#1757C2" stroke-width="1.83943"/>
<line x1="250.894" y1="69.4282" x2="241.868" y2="71.0196" stroke="#1757C2" stroke-width="1.83943"/>
<line x1="250.734" y1="50.0154" x2="241.569" y2="50.0154" stroke="#1757C2" stroke-width="1.83943"/>
<line x1="250.574" y1="30.5752" x2="241.549" y2="28.9838" stroke="#1757C2" stroke-width="1.83943"/>
<line x1="247.072" y1="227.806" x2="247.072" y2="236.97" stroke="#1757C2" stroke-width="1.83943"/>
<line x1="247.916" y1="207.449" x2="246.325" y2="216.475" stroke="#1757C2" stroke-width="1.83943"/>
<line x1="248.734" y1="187.294" x2="245.599" y2="195.905" stroke="#1757C2" stroke-width="1.83943"/>
<line x1="263.043" y1="301.023" x2="259.909" y2="292.411" stroke="#1757C2" stroke-width="1.83943"/>
<line x1="262.143" y1="280.557" x2="260.551" y2="271.531" stroke="#1757C2" stroke-width="1.83943"/>
<line x1="266.17" y1="31.6904" x2="257.558" y2="28.556" stroke="#1757C2" stroke-width="1.83943"/>
<line x1="265.739" y1="12.0885" x2="257.802" y2="7.50621" stroke="#1757C2" stroke-width="1.83943"/>
<line x1="265.277" y1="187.946" x2="260.695" y2="195.882" stroke="#1757C2" stroke-width="1.83943"/>
<line x1="266.044" y1="168.144" x2="260.153" y2="175.164" stroke="#1757C2" stroke-width="1.83943"/>
<line x1="266.504" y1="148.484" x2="259.483" y2="154.375" stroke="#1757C2" stroke-width="1.83943"/>
<line x1="266.659" y1="128.937" x2="258.722" y2="133.519" stroke="#1757C2" stroke-width="1.83943"/>
<line x1="266.799" y1="109.47" x2="258.188" y2="112.605" stroke="#1757C2" stroke-width="1.83943"/>
<line x1="266.932" y1="90.0483" x2="257.906" y2="91.6397" stroke="#1757C2" stroke-width="1.83943"/>
<line x1="266.772" y1="70.6355" x2="257.607" y2="70.6355" stroke="#1757C2" stroke-width="1.83943"/>
<line x1="266.612" y1="51.1953" x2="257.587" y2="49.6039" stroke="#1757C2" stroke-width="1.83943"/>
<line x1="263.109" y1="248.426" x2="263.109" y2="257.591" stroke="#1757C2" stroke-width="1.83943"/>
<line x1="263.954" y1="228.069" x2="262.363" y2="237.095" stroke="#1757C2" stroke-width="1.83943"/>
<line x1="264.772" y1="207.914" x2="261.638" y2="216.526" stroke="#1757C2" stroke-width="1.83943"/>
<line x1="278.181" y1="301.177" x2="276.589" y2="292.151" stroke="#1757C2" stroke-width="1.83943"/>
<line x1="282.208" y1="52.3105" x2="273.597" y2="49.1761" stroke="#1757C2" stroke-width="1.83943"/>
<line x1="281.777" y1="32.7086" x2="273.84" y2="28.1263" stroke="#1757C2" stroke-width="1.83943"/>
<line x1="281.36" y1="12.9775" x2="274.339" y2="7.08663" stroke="#1757C2" stroke-width="1.83943"/>
<line x1="281.315" y1="208.566" x2="276.732" y2="216.503" stroke="#1757C2" stroke-width="1.83943"/>
<line x1="282.082" y1="188.764" x2="276.191" y2="195.784" stroke="#1757C2" stroke-width="1.83943"/>
<line x1="282.542" y1="169.104" x2="275.521" y2="174.995" stroke="#1757C2" stroke-width="1.83943"/>
<line x1="282.697" y1="149.557" x2="274.76" y2="154.139" stroke="#1757C2" stroke-width="1.83943"/>
<line x1="282.838" y1="130.091" x2="274.226" y2="133.225" stroke="#1757C2" stroke-width="1.83943"/>
<line x1="282.97" y1="110.668" x2="273.944" y2="112.26" stroke="#1757C2" stroke-width="1.83943"/>
<line x1="282.81" y1="91.2561" x2="273.646" y2="91.2561" stroke="#1757C2" stroke-width="1.83943"/>
<line x1="282.65" y1="71.8154" x2="273.625" y2="70.224" stroke="#1757C2" stroke-width="1.83943"/>
<line x1="279.147" y1="269.046" x2="279.147" y2="278.211" stroke="#1757C2" stroke-width="1.83943"/>
<line x1="279.992" y1="248.69" x2="278.401" y2="257.715" stroke="#1757C2" stroke-width="1.83943"/>
<line x1="280.81" y1="228.534" x2="277.676" y2="237.146" stroke="#1757C2" stroke-width="1.83943"/>
<line x1="298.246" y1="72.9307" x2="289.635" y2="69.7962" stroke="#1757C2" stroke-width="1.83943"/>
<line x1="297.815" y1="53.3292" x2="289.878" y2="48.7469" stroke="#1757C2" stroke-width="1.83943"/>
<line x1="297.398" y1="33.5981" x2="290.377" y2="27.7072" stroke="#1757C2" stroke-width="1.83943"/>
<line x1="296.711" y1="13.7113" x2="290.82" y2="6.69084" stroke="#1757C2" stroke-width="1.83943"/>
<line x1="297.353" y1="229.186" x2="292.77" y2="237.123" stroke="#1757C2" stroke-width="1.83943"/>
<line x1="298.12" y1="209.384" x2="292.229" y2="216.405" stroke="#1757C2" stroke-width="1.83943"/>
<line x1="298.58" y1="189.724" x2="291.559" y2="195.615" stroke="#1757C2" stroke-width="1.83943"/>
<line x1="298.735" y1="170.177" x2="290.798" y2="174.759" stroke="#1757C2" stroke-width="1.83943"/>
<line x1="298.876" y1="150.711" x2="290.264" y2="153.845" stroke="#1757C2" stroke-width="1.83943"/>
<line x1="299.007" y1="131.289" x2="289.982" y2="132.88" stroke="#1757C2" stroke-width="1.83943"/>
<line x1="298.847" y1="111.876" x2="289.683" y2="111.876" stroke="#1757C2" stroke-width="1.83943"/>
<line x1="298.687" y1="92.4355" x2="289.662" y2="90.8441" stroke="#1757C2" stroke-width="1.83943"/>
<line x1="295.185" y1="289.667" x2="295.185" y2="298.831" stroke="#1757C2" stroke-width="1.83943"/>
<line x1="296.03" y1="269.31" x2="294.439" y2="278.335" stroke="#1757C2" stroke-width="1.83943"/>
<line x1="296.848" y1="249.154" x2="293.714" y2="257.766" stroke="#1757C2" stroke-width="1.83943"/>
<line x1="314.285" y1="93.5508" x2="305.673" y2="90.4163" stroke="#1757C2" stroke-width="1.83943"/>
<line x1="313.853" y1="73.9493" x2="305.916" y2="69.3671" stroke="#1757C2" stroke-width="1.83943"/>
<line x1="313.436" y1="54.2182" x2="306.415" y2="48.3274" stroke="#1757C2" stroke-width="1.83943"/>
<line x1="312.749" y1="34.3314" x2="306.858" y2="27.311" stroke="#1757C2" stroke-width="1.83943"/>
<line x1="311.798" y1="14.267" x2="307.215" y2="6.33025" stroke="#1757C2" stroke-width="1.83943"/>
<line x1="313.391" y1="249.807" x2="308.808" y2="257.743" stroke="#1757C2" stroke-width="1.83943"/>
<line x1="314.158" y1="230.005" x2="308.267" y2="237.025" stroke="#1757C2" stroke-width="1.83943"/>
<line x1="314.618" y1="210.345" x2="307.598" y2="216.236" stroke="#1757C2" stroke-width="1.83943"/>
<line x1="314.773" y1="190.797" x2="306.836" y2="195.38" stroke="#1757C2" stroke-width="1.83943"/>
<line x1="314.914" y1="171.331" x2="306.302" y2="174.466" stroke="#1757C2" stroke-width="1.83943"/>
<line x1="315.045" y1="151.909" x2="306.02" y2="153.501" stroke="#1757C2" stroke-width="1.83943"/>
<line x1="314.885" y1="132.496" x2="305.721" y2="132.496" stroke="#1757C2" stroke-width="1.83943"/>
<line x1="314.726" y1="113.056" x2="305.7" y2="111.465" stroke="#1757C2" stroke-width="1.83943"/>
<line x1="312.068" y1="289.93" x2="310.477" y2="298.956" stroke="#1757C2" stroke-width="1.83943"/>
<line x1="312.886" y1="269.775" x2="309.752" y2="278.386" stroke="#1757C2" stroke-width="1.83943"/>
<line x1="330.323" y1="114.171" x2="321.711" y2="111.037" stroke="#1757C2" stroke-width="1.83943"/>
<line x1="329.891" y1="94.5694" x2="321.954" y2="89.9872" stroke="#1757C2" stroke-width="1.83943"/>
<line x1="329.473" y1="74.8383" x2="322.452" y2="68.9475" stroke="#1757C2" stroke-width="1.83943"/>
<line x1="328.787" y1="54.9515" x2="322.896" y2="47.9311" stroke="#1757C2" stroke-width="1.83943"/>
<line x1="327.836" y1="34.8871" x2="323.254" y2="26.9504" stroke="#1757C2" stroke-width="1.83943"/>
<line x1="327.196" y1="14.628" x2="324.061" y2="6.01617" stroke="#1757C2" stroke-width="1.83943"/>
<line x1="329.429" y1="270.427" x2="324.847" y2="278.363" stroke="#1757C2" stroke-width="1.83943"/>
<line x1="330.196" y1="250.625" x2="324.305" y2="257.645" stroke="#1757C2" stroke-width="1.83943"/>
<line x1="330.655" y1="230.965" x2="323.635" y2="236.856" stroke="#1757C2" stroke-width="1.83943"/>
<line x1="330.811" y1="211.418" x2="322.874" y2="216" stroke="#1757C2" stroke-width="1.83943"/>
<line x1="330.952" y1="191.951" x2="322.34" y2="195.086" stroke="#1757C2" stroke-width="1.83943"/>
<line x1="331.083" y1="172.529" x2="322.058" y2="174.121" stroke="#1757C2" stroke-width="1.83943"/>
<line x1="330.923" y1="153.117" x2="321.759" y2="153.117" stroke="#1757C2" stroke-width="1.83943"/>
<line x1="330.764" y1="133.676" x2="321.738" y2="132.085" stroke="#1757C2" stroke-width="1.83943"/>
<line x1="328.924" y1="290.395" x2="325.79" y2="299.007" stroke="#1757C2" stroke-width="1.83943"/>
<line x1="346.361" y1="134.791" x2="337.749" y2="131.657" stroke="#1757C2" stroke-width="1.83943"/>
<line x1="345.929" y1="115.19" x2="337.993" y2="110.607" stroke="#1757C2" stroke-width="1.83943"/>
<line x1="345.511" y1="95.4584" x2="338.49" y2="89.5676" stroke="#1757C2" stroke-width="1.83943"/>
<line x1="344.825" y1="75.5721" x2="338.934" y2="68.5517" stroke="#1757C2" stroke-width="1.83943"/>
<line x1="343.874" y1="55.5072" x2="339.292" y2="47.5705" stroke="#1757C2" stroke-width="1.83943"/>
<line x1="343.233" y1="35.2486" x2="340.098" y2="26.6368" stroke="#1757C2" stroke-width="1.83943"/>
<line x1="342.333" y1="14.7823" x2="340.742" y2="5.75694" stroke="#1757C2" stroke-width="1.83943"/>
<line x1="345.467" y1="291.047" x2="340.885" y2="298.984" stroke="#1757C2" stroke-width="1.83943"/>
<line x1="346.234" y1="271.245" x2="340.343" y2="278.265" stroke="#1757C2" stroke-width="1.83943"/>
<line x1="346.693" y1="251.585" x2="339.673" y2="257.476" stroke="#1757C2" stroke-width="1.83943"/>
<line x1="346.849" y1="232.038" x2="338.912" y2="236.62" stroke="#1757C2" stroke-width="1.83943"/>
<line x1="346.99" y1="212.572" x2="338.378" y2="215.706" stroke="#1757C2" stroke-width="1.83943"/>
<line x1="347.121" y1="193.149" x2="338.096" y2="194.741" stroke="#1757C2" stroke-width="1.83943"/>
<line x1="346.961" y1="173.737" x2="337.797" y2="173.737" stroke="#1757C2" stroke-width="1.83943"/>
<line x1="346.802" y1="154.296" x2="337.776" y2="152.705" stroke="#1757C2" stroke-width="1.83943"/>
<line x1="362.399" y1="155.412" x2="353.787" y2="152.277" stroke="#1757C2" stroke-width="1.83943"/>
<line x1="361.966" y1="135.81" x2="354.03" y2="131.228" stroke="#1757C2" stroke-width="1.83943"/>
<line x1="361.549" y1="116.079" x2="354.529" y2="110.188" stroke="#1757C2" stroke-width="1.83943"/>
<line x1="360.863" y1="96.1923" x2="354.972" y2="89.1718" stroke="#1757C2" stroke-width="1.83943"/>
<line x1="359.912" y1="76.1273" x2="355.33" y2="68.1906" stroke="#1757C2" stroke-width="1.83943"/>
<line x1="359.271" y1="55.8688" x2="356.137" y2="47.2569" stroke="#1757C2" stroke-width="1.83943"/>
<line x1="358.371" y1="35.4024" x2="356.78" y2="26.3771" stroke="#1757C2" stroke-width="1.83943"/>
<line x1="357.498" y1="14.7275" x2="357.498" y2="5.56298" stroke="#1757C2" stroke-width="1.83943"/>
<line x1="362.272" y1="291.865" x2="356.382" y2="298.886" stroke="#1757C2" stroke-width="1.83943"/>
<line x1="362.731" y1="272.206" x2="355.711" y2="278.096" stroke="#1757C2" stroke-width="1.83943"/>
<line x1="362.886" y1="252.658" x2="354.949" y2="257.241" stroke="#1757C2" stroke-width="1.83943"/>
<line x1="363.028" y1="233.192" x2="354.416" y2="236.326" stroke="#1757C2" stroke-width="1.83943"/>
<line x1="363.159" y1="213.77" x2="354.134" y2="215.361" stroke="#1757C2" stroke-width="1.83943"/>
<line x1="363" y1="194.357" x2="353.835" y2="194.357" stroke="#1757C2" stroke-width="1.83943"/>
<line x1="362.84" y1="174.917" x2="353.814" y2="173.326" stroke="#1757C2" stroke-width="1.83943"/>
</mask>
<g mask="url(#mask0_4139_55604)">
<rect x="-25.0166" y="-19" width="422" height="365" fill="url(#paint0_linear_4139_55604)"/>
</g>
<defs>
<linearGradient id="paint0_linear_4139_55604" x1="378" y1="289" x2="162" y2="89" gradientUnits="userSpaceOnUse">
<stop stop-color="#8BABE1"/>
<stop offset="1" stop-color="#E8EEF9"/>
</linearGradient>
</defs>
</svg>
