<svg width="137" height="364" viewBox="0 0 137 364" fill="none" xmlns="http://www.w3.org/2000/svg">
<line x1="12.4401" y1="9.43648" x2="5.41961" y2="3.54561" stroke="#0C2F69" stroke-width="1.83943"/>
<line x1="32.1001" y1="9.89636" x2="26.2093" y2="2.8759" stroke="#0C2F69" stroke-width="1.83943"/>
<line x1="51.6478" y1="10.0512" x2="47.0656" y2="2.11443" stroke="#0C2F69" stroke-width="1.83943"/>
<line x1="71.1143" y1="10.192" x2="67.9798" y2="1.58014" stroke="#0C2F69" stroke-width="1.83943"/>
<line x1="90.5357" y1="10.3243" x2="88.9443" y2="1.29893" stroke="#0C2F69" stroke-width="1.83943"/>
<line x1="109.948" y1="10.1646" x2="109.948" y2="0.999993" stroke="#0C2F69" stroke-width="1.83943"/>
<line x1="129.389" y1="10.0048" x2="130.981" y2="0.979517" stroke="#0C2F69" stroke-width="1.83943"/>
<line x1="128.273" y1="25.601" x2="131.408" y2="16.9891" stroke="#0C2F69" stroke-width="1.83943"/>
<line x1="11.48" y1="25.9344" x2="5.58916" y2="18.914" stroke="#0C2F69" stroke-width="1.83943"/>
<line x1="31.0277" y1="26.0893" x2="26.4454" y2="18.1525" stroke="#0C2F69" stroke-width="1.83943"/>
<line x1="50.4932" y1="26.2301" x2="47.3587" y2="17.6182" stroke="#0C2F69" stroke-width="1.83943"/>
<line x1="69.9155" y1="26.3614" x2="68.3241" y2="17.336" stroke="#0C2F69" stroke-width="1.83943"/>
<line x1="89.3283" y1="26.2017" x2="89.3283" y2="17.0371" stroke="#0C2F69" stroke-width="1.83943"/>
<line x1="108.769" y1="26.042" x2="110.36" y2="17.0166" stroke="#0C2F69" stroke-width="1.83943"/>
<line x1="107.653" y1="41.6391" x2="110.788" y2="33.0272" stroke="#0C2F69" stroke-width="1.83943"/>
<line x1="127.255" y1="41.2076" x2="131.838" y2="33.2709" stroke="#0C2F69" stroke-width="1.83943"/>
<line x1="10.4076" y1="42.1273" x2="5.82533" y2="34.1906" stroke="#0C2F69" stroke-width="1.83943"/>
<line x1="29.8731" y1="42.2682" x2="26.7386" y2="33.6563" stroke="#0C2F69" stroke-width="1.83943"/>
<line x1="49.2954" y1="42.3995" x2="47.704" y2="33.3741" stroke="#0C2F69" stroke-width="1.83943"/>
<line x1="68.7082" y1="42.2397" x2="68.7082" y2="33.0752" stroke="#0C2F69" stroke-width="1.83943"/>
<line x1="88.1489" y1="42.08" x2="89.7404" y2="33.0547" stroke="#0C2F69" stroke-width="1.83943"/>
<line x1="87.0332" y1="57.6771" x2="90.1677" y2="49.0653" stroke="#0C2F69" stroke-width="1.83943"/>
<line x1="106.635" y1="57.2457" x2="111.217" y2="49.309" stroke="#0C2F69" stroke-width="1.83943"/>
<line x1="126.366" y1="56.8273" x2="132.257" y2="49.8068" stroke="#0C2F69" stroke-width="1.83943"/>
<line x1="9.25294" y1="58.3063" x2="6.11847" y2="49.6944" stroke="#0C2F69" stroke-width="1.83943"/>
<line x1="28.6753" y1="58.4375" x2="27.0839" y2="49.4122" stroke="#0C2F69" stroke-width="1.83943"/>
<line x1="48.0881" y1="58.2778" x2="48.0881" y2="49.1133" stroke="#0C2F69" stroke-width="1.83943"/>
<line x1="67.5279" y1="58.1181" x2="69.1193" y2="49.0928" stroke="#0C2F69" stroke-width="1.83943"/>
<line x1="66.4131" y1="73.7152" x2="69.5476" y2="65.1034" stroke="#0C2F69" stroke-width="1.83943"/>
<line x1="86.015" y1="73.2838" x2="90.5973" y2="65.3471" stroke="#0C2F69" stroke-width="1.83943"/>
<line x1="105.746" y1="72.8654" x2="111.637" y2="65.8449" stroke="#0C2F69" stroke-width="1.83943"/>
<line x1="125.632" y1="72.1797" x2="132.653" y2="66.2889" stroke="#0C2F69" stroke-width="1.83943"/>
<line x1="8.05519" y1="74.4756" x2="6.46379" y2="65.4503" stroke="#0C2F69" stroke-width="1.83943"/>
<line x1="27.468" y1="74.3159" x2="27.468" y2="65.1514" stroke="#0C2F69" stroke-width="1.83943"/>
<line x1="46.9077" y1="74.1562" x2="48.4991" y2="65.1309" stroke="#0C2F69" stroke-width="1.83943"/>
<line x1="45.793" y1="89.7533" x2="48.9274" y2="81.1414" stroke="#0C2F69" stroke-width="1.83943"/>
<line x1="65.3949" y1="89.3209" x2="69.9772" y2="81.3842" stroke="#0C2F69" stroke-width="1.83943"/>
<line x1="85.1255" y1="88.9034" x2="91.0164" y2="81.883" stroke="#0C2F69" stroke-width="1.83943"/>
<line x1="105.012" y1="88.2178" x2="112.033" y2="82.327" stroke="#0C2F69" stroke-width="1.83943"/>
<line x1="125.077" y1="87.2665" x2="133.014" y2="82.6842" stroke="#0C2F69" stroke-width="1.83943"/>
<line x1="6.84689" y1="90.354" x2="6.84689" y2="81.1894" stroke="#0C2F69" stroke-width="1.83943"/>
<line x1="26.2876" y1="90.1943" x2="27.879" y2="81.169" stroke="#0C2F69" stroke-width="1.83943"/>
<line x1="25.1729" y1="105.791" x2="28.3073" y2="97.1795" stroke="#0C2F69" stroke-width="1.83943"/>
<line x1="44.7738" y1="105.359" x2="49.3561" y2="97.4222" stroke="#0C2F69" stroke-width="1.83943"/>
<line x1="64.5054" y1="104.942" x2="70.3963" y2="97.9211" stroke="#0C2F69" stroke-width="1.83943"/>
<line x1="84.3922" y1="104.255" x2="91.4127" y2="98.3641" stroke="#0C2F69" stroke-width="1.83943"/>
<line x1="104.457" y1="103.305" x2="112.394" y2="98.7223" stroke="#0C2F69" stroke-width="1.83943"/>
<line x1="124.716" y1="102.664" x2="133.328" y2="99.5291" stroke="#0C2F69" stroke-width="1.83943"/>
<line x1="5.6675" y1="106.232" x2="7.25891" y2="97.2071" stroke="#0C2F69" stroke-width="1.83943"/>
<line x1="4.55274" y1="121.829" x2="7.68721" y2="113.217" stroke="#0C2F69" stroke-width="1.83943"/>
<line x1="24.1537" y1="121.397" x2="28.736" y2="113.46" stroke="#0C2F69" stroke-width="1.83943"/>
<line x1="43.8853" y1="120.98" x2="49.7762" y2="113.959" stroke="#0C2F69" stroke-width="1.83943"/>
<line x1="63.7721" y1="120.293" x2="70.7926" y2="114.402" stroke="#0C2F69" stroke-width="1.83943"/>
<line x1="83.837" y1="119.343" x2="91.7738" y2="114.76" stroke="#0C2F69" stroke-width="1.83943"/>
<line x1="104.096" y1="118.702" x2="112.707" y2="115.567" stroke="#0C2F69" stroke-width="1.83943"/>
<line x1="124.562" y1="117.801" x2="133.587" y2="116.209" stroke="#0C2F69" stroke-width="1.83943"/>
<line x1="3.53358" y1="137.435" x2="8.11586" y2="129.498" stroke="#0C2F69" stroke-width="1.83943"/>
<line x1="23.2652" y1="137.018" x2="29.156" y2="129.997" stroke="#0C2F69" stroke-width="1.83943"/>
<line x1="43.152" y1="136.331" x2="50.1724" y2="130.44" stroke="#0C2F69" stroke-width="1.83943"/>
<line x1="63.2159" y1="135.38" x2="71.1527" y2="130.798" stroke="#0C2F69" stroke-width="1.83943"/>
<line x1="83.4755" y1="134.74" x2="92.0873" y2="131.605" stroke="#0C2F69" stroke-width="1.83943"/>
<line x1="103.942" y1="133.839" x2="112.967" y2="132.247" stroke="#0C2F69" stroke-width="1.83943"/>
<line x1="136.072" y1="134.805" x2="126.908" y2="134.805" stroke="#0C2F69" stroke-width="1.83943"/>
<line x1="2.64507" y1="153.056" x2="8.53593" y2="146.035" stroke="#0C2F69" stroke-width="1.83943"/>
<line x1="22.5309" y1="152.369" x2="29.5513" y2="146.478" stroke="#0C2F69" stroke-width="1.83943"/>
<line x1="42.5958" y1="151.418" x2="50.5325" y2="146.836" stroke="#0C2F69" stroke-width="1.83943"/>
<line x1="62.8544" y1="150.778" x2="71.4662" y2="147.643" stroke="#0C2F69" stroke-width="1.83943"/>
<line x1="83.3208" y1="149.877" x2="92.3461" y2="148.286" stroke="#0C2F69" stroke-width="1.83943"/>
<line x1="115.451" y1="150.843" x2="106.287" y2="150.843" stroke="#0C2F69" stroke-width="1.83943"/>
<line x1="135.808" y1="151.688" x2="126.783" y2="150.097" stroke="#0C2F69" stroke-width="1.83943"/>
<line x1="1.91077" y1="168.407" x2="8.93123" y2="162.516" stroke="#0C2F69" stroke-width="1.83943"/>
<line x1="21.9757" y1="167.456" x2="29.9124" y2="162.874" stroke="#0C2F69" stroke-width="1.83943"/>
<line x1="42.2343" y1="166.816" x2="50.8461" y2="163.681" stroke="#0C2F69" stroke-width="1.83943"/>
<line x1="62.7006" y1="165.915" x2="71.726" y2="164.324" stroke="#0C2F69" stroke-width="1.83943"/>
<line x1="94.8311" y1="166.881" x2="85.6665" y2="166.881" stroke="#0C2F69" stroke-width="1.83943"/>
<line x1="115.188" y1="167.727" x2="106.163" y2="166.135" stroke="#0C2F69" stroke-width="1.83943"/>
<line x1="135.344" y1="168.544" x2="126.732" y2="165.41" stroke="#0C2F69" stroke-width="1.83943"/>
<line x1="1.35557" y1="183.494" x2="9.29231" y2="178.912" stroke="#0C2F69" stroke-width="1.83943"/>
<line x1="21.6141" y1="182.854" x2="30.226" y2="179.72" stroke="#0C2F69" stroke-width="1.83943"/>
<line x1="42.0805" y1="181.953" x2="51.1059" y2="180.362" stroke="#0C2F69" stroke-width="1.83943"/>
<line x1="134.692" y1="185.087" x2="126.755" y2="180.505" stroke="#0C2F69" stroke-width="1.83943"/>
<line x1="74.2109" y1="182.919" x2="65.0464" y2="182.919" stroke="#0C2F69" stroke-width="1.83943"/>
<line x1="94.5678" y1="183.765" x2="85.5425" y2="182.173" stroke="#0C2F69" stroke-width="1.83943"/>
<line x1="114.724" y1="184.583" x2="106.112" y2="181.448" stroke="#0C2F69" stroke-width="1.83943"/>
<line x1="0.994033" y1="198.891" x2="9.6059" y2="195.757" stroke="#0C2F69" stroke-width="1.83943"/>
<line x1="21.4604" y1="197.991" x2="30.4857" y2="196.4" stroke="#0C2F69" stroke-width="1.83943"/>
<line x1="114.071" y1="201.125" x2="106.135" y2="196.543" stroke="#0C2F69" stroke-width="1.83943"/>
<line x1="133.873" y1="201.893" x2="126.852" y2="196.002" stroke="#0C2F69" stroke-width="1.83943"/>
<line x1="53.5908" y1="198.957" x2="44.4263" y2="198.957" stroke="#0C2F69" stroke-width="1.83943"/>
<line x1="73.9477" y1="199.803" x2="64.9224" y2="198.211" stroke="#0C2F69" stroke-width="1.83943"/>
<line x1="94.1024" y1="200.62" x2="85.4906" y2="197.485" stroke="#0C2F69" stroke-width="1.83943"/>
<line x1="0.840293" y1="214.029" x2="9.86562" y2="212.438" stroke="#0C2F69" stroke-width="1.83943"/>
<line x1="93.4513" y1="217.163" x2="85.5145" y2="212.581" stroke="#0C2F69" stroke-width="1.83943"/>
<line x1="113.253" y1="217.931" x2="106.232" y2="212.04" stroke="#0C2F69" stroke-width="1.83943"/>
<line x1="132.913" y1="218.39" x2="127.022" y2="211.369" stroke="#0C2F69" stroke-width="1.83943"/>
<line x1="32.9707" y1="214.995" x2="23.8061" y2="214.995" stroke="#0C2F69" stroke-width="1.83943"/>
<line x1="53.3276" y1="215.841" x2="44.3023" y2="214.249" stroke="#0C2F69" stroke-width="1.83943"/>
<line x1="73.4823" y1="216.658" x2="64.8704" y2="213.523" stroke="#0C2F69" stroke-width="1.83943"/>
<line x1="72.8302" y1="233.201" x2="64.8934" y2="228.619" stroke="#0C2F69" stroke-width="1.83943"/>
<line x1="92.6325" y1="233.969" x2="85.612" y2="228.078" stroke="#0C2F69" stroke-width="1.83943"/>
<line x1="112.293" y1="234.428" x2="106.402" y2="227.407" stroke="#0C2F69" stroke-width="1.83943"/>
<line x1="131.84" y1="234.582" x2="127.258" y2="226.646" stroke="#0C2F69" stroke-width="1.83943"/>
<line x1="12.3506" y1="231.033" x2="3.18603" y2="231.033" stroke="#0C2F69" stroke-width="1.83943"/>
<line x1="32.7065" y1="231.878" x2="23.6812" y2="230.286" stroke="#0C2F69" stroke-width="1.83943"/>
<line x1="52.8622" y1="232.696" x2="44.2503" y2="229.561" stroke="#0C2F69" stroke-width="1.83943"/>
<line x1="52.2101" y1="249.239" x2="44.2733" y2="244.657" stroke="#0C2F69" stroke-width="1.83943"/>
<line x1="72.0123" y1="250.006" x2="64.9919" y2="244.115" stroke="#0C2F69" stroke-width="1.83943"/>
<line x1="91.6724" y1="250.466" x2="85.7815" y2="243.445" stroke="#0C2F69" stroke-width="1.83943"/>
<line x1="111.219" y1="250.621" x2="106.637" y2="242.684" stroke="#0C2F69" stroke-width="1.83943"/>
<line x1="130.686" y1="250.762" x2="127.551" y2="242.15" stroke="#0C2F69" stroke-width="1.83943"/>
<line x1="12.0864" y1="247.916" x2="3.06106" y2="246.325" stroke="#0C2F69" stroke-width="1.83943"/>
<line x1="32.2421" y1="248.734" x2="23.6302" y2="245.599" stroke="#0C2F69" stroke-width="1.83943"/>
<line x1="31.5899" y1="265.277" x2="23.6532" y2="260.695" stroke="#0C2F69" stroke-width="1.83943"/>
<line x1="51.3922" y1="266.044" x2="44.3718" y2="260.153" stroke="#0C2F69" stroke-width="1.83943"/>
<line x1="71.0523" y1="266.504" x2="65.1614" y2="259.483" stroke="#0C2F69" stroke-width="1.83943"/>
<line x1="90.599" y1="266.659" x2="86.0167" y2="258.722" stroke="#0C2F69" stroke-width="1.83943"/>
<line x1="110.065" y1="266.799" x2="106.931" y2="258.188" stroke="#0C2F69" stroke-width="1.83943"/>
<line x1="129.488" y1="266.932" x2="127.896" y2="257.906" stroke="#0C2F69" stroke-width="1.83943"/>
<line x1="11.622" y1="264.772" x2="3.0101" y2="261.638" stroke="#0C2F69" stroke-width="1.83943"/>
<line x1="10.9698" y1="281.315" x2="3.03309" y2="276.732" stroke="#0C2F69" stroke-width="1.83943"/>
<line x1="30.7721" y1="282.082" x2="23.7516" y2="276.191" stroke="#0C2F69" stroke-width="1.83943"/>
<line x1="50.4322" y1="282.542" x2="44.5413" y2="275.521" stroke="#0C2F69" stroke-width="1.83943"/>
<line x1="69.9789" y1="282.697" x2="65.3966" y2="274.76" stroke="#0C2F69" stroke-width="1.83943"/>
<line x1="89.4453" y1="282.838" x2="86.3109" y2="274.226" stroke="#0C2F69" stroke-width="1.83943"/>
<line x1="108.868" y1="282.97" x2="107.276" y2="273.944" stroke="#0C2F69" stroke-width="1.83943"/>
<line x1="128.28" y1="282.81" x2="128.28" y2="273.646" stroke="#0C2F69" stroke-width="1.83943"/>
<line x1="10.152" y1="298.12" x2="3.13152" y2="292.229" stroke="#0C2F69" stroke-width="1.83943"/>
<line x1="29.8121" y1="298.58" x2="23.9212" y2="291.559" stroke="#0C2F69" stroke-width="1.83943"/>
<line x1="49.3588" y1="298.735" x2="44.7765" y2="290.798" stroke="#0C2F69" stroke-width="1.83943"/>
<line x1="68.8252" y1="298.876" x2="65.6907" y2="290.264" stroke="#0C2F69" stroke-width="1.83943"/>
<line x1="88.2466" y1="299.007" x2="86.6552" y2="289.982" stroke="#0C2F69" stroke-width="1.83943"/>
<line x1="107.659" y1="298.847" x2="107.659" y2="289.683" stroke="#0C2F69" stroke-width="1.83943"/>
<line x1="127.1" y1="298.687" x2="128.692" y2="289.662" stroke="#0C2F69" stroke-width="1.83943"/>
<line x1="125.985" y1="314.285" x2="129.12" y2="305.673" stroke="#0C2F69" stroke-width="1.83943"/>
<line x1="9.19096" y1="314.618" x2="3.3001" y2="307.598" stroke="#0C2F69" stroke-width="1.83943"/>
<line x1="28.7387" y1="314.773" x2="24.1564" y2="306.836" stroke="#0C2F69" stroke-width="1.83943"/>
<line x1="48.2051" y1="314.914" x2="45.0706" y2="306.302" stroke="#0C2F69" stroke-width="1.83943"/>
<line x1="67.6265" y1="315.045" x2="66.0351" y2="306.02" stroke="#0C2F69" stroke-width="1.83943"/>
<line x1="87.0393" y1="314.885" x2="87.0393" y2="305.721" stroke="#0C2F69" stroke-width="1.83943"/>
<line x1="106.48" y1="314.726" x2="108.071" y2="305.7" stroke="#0C2F69" stroke-width="1.83943"/>
<line x1="105.364" y1="330.323" x2="108.499" y2="321.711" stroke="#0C2F69" stroke-width="1.83943"/>
<line x1="124.966" y1="329.891" x2="129.548" y2="321.954" stroke="#0C2F69" stroke-width="1.83943"/>
<line x1="8.11854" y1="330.811" x2="3.53626" y2="322.874" stroke="#0C2F69" stroke-width="1.83943"/>
<line x1="27.585" y1="330.952" x2="24.4505" y2="322.34" stroke="#0C2F69" stroke-width="1.83943"/>
<line x1="47.0064" y1="331.083" x2="45.415" y2="322.058" stroke="#0C2F69" stroke-width="1.83943"/>
<line x1="66.4192" y1="330.923" x2="66.4192" y2="321.759" stroke="#0C2F69" stroke-width="1.83943"/>
<line x1="85.8599" y1="330.764" x2="87.4513" y2="321.738" stroke="#0C2F69" stroke-width="1.83943"/>
<line x1="84.7441" y1="346.361" x2="87.8786" y2="337.749" stroke="#0C2F69" stroke-width="1.83943"/>
<line x1="104.346" y1="345.929" x2="108.928" y2="337.993" stroke="#0C2F69" stroke-width="1.83943"/>
<line x1="124.078" y1="345.511" x2="129.969" y2="338.49" stroke="#0C2F69" stroke-width="1.83943"/>
<line x1="6.96388" y1="346.99" x2="3.82941" y2="338.378" stroke="#0C2F69" stroke-width="1.83943"/>
<line x1="26.3862" y1="347.121" x2="24.7948" y2="338.096" stroke="#0C2F69" stroke-width="1.83943"/>
<line x1="45.799" y1="346.961" x2="45.799" y2="337.797" stroke="#0C2F69" stroke-width="1.83943"/>
<line x1="65.2398" y1="346.802" x2="66.8312" y2="337.776" stroke="#0C2F69" stroke-width="1.83943"/>
<line x1="64.124" y1="362.399" x2="67.2585" y2="353.787" stroke="#0C2F69" stroke-width="1.83943"/>
<line x1="83.726" y1="361.966" x2="88.3082" y2="354.03" stroke="#0C2F69" stroke-width="1.83943"/>
<line x1="103.457" y1="361.549" x2="109.347" y2="354.529" stroke="#0C2F69" stroke-width="1.83943"/>
<line x1="123.343" y1="360.863" x2="130.364" y2="354.972" stroke="#0C2F69" stroke-width="1.83943"/>
<line x1="5.76613" y1="363.159" x2="4.17472" y2="354.134" stroke="#0C2F69" stroke-width="1.83943"/>
<line x1="25.1789" y1="363" x2="25.1789" y2="353.835" stroke="#0C2F69" stroke-width="1.83943"/>
<line x1="44.6187" y1="362.84" x2="46.2101" y2="353.814" stroke="#0C2F69" stroke-width="1.83943"/>
</svg>
