<svg width="24" height="24" viewBox="0 0 24 24" fill="none" xmlns="http://www.w3.org/2000/svg">
<g clip-path="url(#clip0_13_90)">
<path d="M19 14C18.4696 14 17.9608 13.7894 17.5858 13.4143C17.2107 13.0392 17 12.5304 17 12C17 11.4696 17.2107 10.961 17.5858 10.5859C17.9608 10.2109 18.4696 10 19 10C19.5304 10 20.0391 10.2109 20.4142 10.5859C20.7893 10.961 21 11.4696 21 12C21 12.5304 20.7893 13.0392 20.4142 13.4143C20.0391 13.7894 19.5304 14 19 14Z" stroke="#93CAED" stroke-width="1.5" stroke-linecap="round" stroke-linejoin="round"/>
<path d="M14 19C14 19.5304 13.7893 20.0392 13.4142 20.4143C13.0391 20.7894 12.5304 21 12 21C11.4696 21 10.9608 20.7894 10.5858 20.4143C10.2107 20.0392 10 19.5304 10 19C10 18.4696 10.2107 17.961 10.5858 17.5859C10.9608 17.2109 11.4696 17 12 17C12.5304 17 13.0391 17.2109 13.4142 17.5859C13.7893 17.961 14 18.4696 14 19Z" stroke="#93CAED" stroke-width="1.5" stroke-linecap="round" stroke-linejoin="round"/>
<path d="M19 21C18.4696 21 17.9608 20.7894 17.5858 20.4143C17.2107 20.0392 17 19.5304 17 19C17 18.4696 17.2107 17.961 17.5858 17.5859C17.9608 17.2109 18.4696 17 19 17C19.5304 17 20.0391 17.2109 20.4142 17.5859C20.7893 17.961 21 18.4696 21 19C21 19.5304 20.7893 20.0392 20.4142 20.4143C20.0391 20.7894 19.5304 21 19 21Z" stroke="#93CAED" stroke-width="1.5" stroke-linecap="round" stroke-linejoin="round"/>
<path d="M12 7C11.4696 7 10.9608 6.78938 10.5858 6.41431C10.2107 6.03923 10 5.53043 10 5C10 4.46957 10.2107 3.96101 10.5858 3.58594C10.9608 3.21086 11.4696 3 12 3C12.5304 3 13.0391 3.21086 13.4142 3.58594C13.7893 3.96101 14 4.46957 14 5C14 5.53043 13.7893 6.03923 13.4142 6.41431C13.0391 6.78938 12.5304 7 12 7Z" stroke="#93CAED" stroke-width="1.5" stroke-linecap="round" stroke-linejoin="round"/>
<path d="M17 5C17 4.46957 17.2107 3.96101 17.5858 3.58594C17.9608 3.21086 18.4696 3 19 3C19.5304 3 20.0391 3.21086 20.4142 3.58594C20.7893 3.96101 21 4.46957 21 5C21 5.53043 20.7893 6.03923 20.4142 6.41431C20.0391 6.78938 19.5304 7 19 7C18.4696 7 17.9608 6.78938 17.5858 6.41431C17.2107 6.03923 17 5.53043 17 5Z" stroke="#93CAED" stroke-width="1.5" stroke-linecap="round" stroke-linejoin="round"/>
<path d="M13.4099 17.59L17.5899 13.41" stroke="#93CAED" stroke-width="1.5" stroke-linecap="round" stroke-linejoin="round"/>
<path d="M6.40991 17.59L10.5899 13.41" stroke="#93CAED" stroke-width="1.5" stroke-linecap="round" stroke-linejoin="round"/>
<path d="M13.4099 10.59L17.5899 6.41003" stroke="#93CAED" stroke-width="1.5" stroke-linecap="round" stroke-linejoin="round"/>
<path d="M10 12C10 11.4696 10.2107 10.961 10.5858 10.5859C10.9608 10.2109 11.4696 10 12 10C12.5304 10 13.0391 10.2109 13.4142 10.5859C13.7893 10.961 14 11.4696 14 12C14 12.5304 13.7893 13.0392 13.4142 13.4143C13.0391 13.7894 12.5304 14 12 14C11.4696 14 10.9608 13.7894 10.5858 13.4143C10.2107 13.0392 10 12.5304 10 12Z" stroke="#93CAED" stroke-width="1.5" stroke-linecap="round" stroke-linejoin="round"/>
<path d="M6.40991 10.59L10.5899 6.41003" stroke="#93CAED" stroke-width="1.5" stroke-linecap="round" stroke-linejoin="round"/>
<path d="M5 14C4.46957 14 3.96083 13.7894 3.58575 13.4143C3.21068 13.0392 3 12.5304 3 12C3 11.4696 3.21068 10.961 3.58575 10.5859C3.96083 10.2109 4.46957 10 5 10C5.53043 10 6.03911 10.2109 6.41418 10.5859C6.78926 10.961 7 11.4696 7 12C7 12.5304 6.78926 13.0392 6.41418 13.4143C6.03911 13.7894 5.53043 14 5 14Z" stroke="#93CAED" stroke-width="1.5" stroke-linecap="round" stroke-linejoin="round"/>
<path d="M7 19C7 19.5304 6.78926 20.0392 6.41418 20.4143C6.03911 20.7894 5.53043 21 5 21C4.46957 21 3.96083 20.7894 3.58575 20.4143C3.21068 20.0392 3 19.5304 3 19C3 18.4696 3.21068 17.961 3.58575 17.5859C3.96083 17.2109 4.46957 17 5 17C5.53043 17 6.03911 17.2109 6.41418 17.5859C6.78926 17.961 7 18.4696 7 19Z" stroke="#93CAED" stroke-width="1.5" stroke-linecap="round" stroke-linejoin="round"/>
<path d="M5 7C4.46957 7 3.96083 6.78938 3.58575 6.41431C3.21068 6.03923 3 5.53043 3 5C3 4.46957 3.21068 3.96101 3.58575 3.58594C3.96083 3.21086 4.46957 3 5 3C5.53043 3 6.03911 3.21086 6.41418 3.58594C6.78926 3.96101 7 4.46957 7 5C7 5.53043 6.78926 6.03923 6.41418 6.41431C6.03911 6.78938 5.53043 7 5 7Z" stroke="#93CAED" stroke-width="1.5" stroke-linecap="round" stroke-linejoin="round"/>
</g>
<defs>
<clipPath id="clip0_13_90">
<rect width="24" height="24" fill="white"/>
</clipPath>
</defs>
</svg>
