<svg width="310" height="86" viewBox="0 0 310 86" fill="none" xmlns="http://www.w3.org/2000/svg">
<rect width="309.006" height="85.8303" fill="white"/>
<rect x="32" y="55.6593" width="245" height="7.1709" rx="3.58545" fill="#ECEDF3"/>
<rect x="32" y="55.6593" width="169.706" height="7.1709" rx="3.58545" fill="#1757C2"/>
<rect x="32" y="55.6593" width="7.1709" height="7.1709" rx="3.58545" fill="#1757C2"/>
<path d="M37.2823 40.1664C36.4306 40.1664 35.678 40.0198 35.0244 39.7267C34.3747 39.4335 33.8657 39.0295 33.4973 38.5146C33.1289 37.9996 32.9467 37.4133 32.9507 36.7558C32.9467 36.2408 33.0517 35.7675 33.2656 35.3357C33.4835 34.9 33.7786 34.5375 34.1509 34.2483C34.5233 33.9552 34.9392 33.769 35.3987 33.6898V33.6185C34.7926 33.4719 34.3074 33.1471 33.943 32.6441C33.5785 32.141 33.3983 31.5626 33.4023 30.909C33.3983 30.2871 33.5627 29.7326 33.8954 29.2453C34.2321 28.7542 34.6936 28.3679 35.2799 28.0867C35.8661 27.8054 36.5336 27.6648 37.2823 27.6648C38.023 27.6648 38.6845 27.8074 39.2668 28.0926C39.8531 28.3739 40.3146 28.7601 40.6513 29.2513C40.988 29.7385 41.1583 30.2911 41.1623 30.909C41.1583 31.5626 40.9721 32.141 40.6037 32.6441C40.2353 33.1471 39.756 33.4719 39.1658 33.6185V33.6898C39.6213 33.769 40.0313 33.9552 40.3958 34.2483C40.7642 34.5375 41.0573 34.9 41.2751 35.3357C41.497 35.7675 41.6099 36.2408 41.6138 36.7558C41.6099 37.4133 41.4237 37.9996 41.0553 38.5146C40.6869 39.0295 40.1759 39.4335 39.5223 39.7267C38.8727 40.0198 38.126 40.1664 37.2823 40.1664ZM37.2823 38.6631C37.7853 38.6631 38.2211 38.5799 38.5895 38.4135C38.9578 38.2432 39.2431 38.0075 39.4451 37.7065C39.6471 37.4015 39.7501 37.0449 39.754 36.6369C39.7501 36.2131 39.6392 35.8388 39.4213 35.5139C39.2074 35.1891 38.9163 34.9336 38.5479 34.7475C38.1795 34.5613 37.7576 34.4682 37.2823 34.4682C36.803 34.4682 36.3771 34.5613 36.0048 34.7475C35.6324 34.9336 35.3393 35.1891 35.1254 35.5139C34.9115 35.8388 34.8065 36.2131 34.8105 36.6369C34.8065 37.0449 34.9036 37.4015 35.1016 37.7065C35.3036 38.0075 35.5908 38.2432 35.9632 38.4135C36.3355 38.5799 36.7752 38.6631 37.2823 38.6631ZM37.2823 33.0006C37.6863 33.0006 38.0448 32.9194 38.3577 32.7569C38.6707 32.5945 38.9163 32.3688 39.0945 32.0796C39.2767 31.7904 39.3698 31.4517 39.3738 31.0635C39.3698 30.6833 39.2787 30.3505 39.1004 30.0653C38.9262 29.7801 38.6825 29.5603 38.3696 29.4058C38.0567 29.2473 37.6942 29.1681 37.2823 29.1681C36.8624 29.1681 36.494 29.2473 36.1771 29.4058C35.8641 29.5603 35.6205 29.7801 35.4462 30.0653C35.272 30.3505 35.1868 30.6833 35.1907 31.0635C35.1868 31.4517 35.2739 31.7904 35.4522 32.0796C35.6304 32.3688 35.876 32.5945 36.189 32.7569C36.5059 32.9194 36.8703 33.0006 37.2823 33.0006ZM47.979 40.202C47.0402 40.1981 46.238 39.9505 45.5726 39.4593C44.9071 38.9681 44.3981 38.2531 44.0455 37.3143C43.693 36.3755 43.5167 35.2446 43.5167 33.9215C43.5167 32.6025 43.693 31.4755 44.0455 30.5407C44.402 29.6058 44.913 28.8928 45.5785 28.4016C46.2479 27.9104 47.0481 27.6648 47.979 27.6648C48.9099 27.6648 49.708 27.9124 50.3735 28.4076C51.039 28.8987 51.548 29.6118 51.9006 30.5466C52.2571 31.4775 52.4353 32.6025 52.4353 33.9215C52.4353 35.2485 52.2591 36.3814 51.9065 37.3202C51.554 38.2551 51.0449 38.9701 50.3795 39.4652C49.714 39.9564 48.9138 40.202 47.979 40.202ZM47.979 38.6156C48.8029 38.6156 49.4466 38.2135 49.9101 37.4094C50.3775 36.6053 50.6112 35.4426 50.6112 33.9215C50.6112 32.9114 50.5042 32.0578 50.2903 31.3606C50.0804 30.6595 49.7774 30.1287 49.3812 29.7682C48.9891 29.4038 48.5217 29.2216 47.979 29.2216C47.159 29.2216 46.5153 29.6256 46.0479 30.4337C45.5805 31.2418 45.3448 32.4044 45.3408 33.9215C45.3408 34.9356 45.4458 35.7932 45.6557 36.4943C45.8696 37.1915 46.1727 37.7203 46.5648 38.0808C46.957 38.4373 47.4284 38.6156 47.979 38.6156ZM60.895 37.7183V37.0766C60.895 36.6171 60.99 36.1972 61.1802 35.817C61.3743 35.4327 61.6555 35.1257 62.0239 34.896C62.3963 34.6623 62.8459 34.5454 63.3727 34.5454C63.9114 34.5454 64.363 34.6603 64.7274 34.8901C65.0919 35.1198 65.3672 35.4268 65.5533 35.811C65.7435 36.1953 65.8385 36.6171 65.8385 37.0766V37.7183C65.8385 38.1778 65.7435 38.5997 65.5533 38.984C65.3632 39.3642 65.0839 39.6712 64.7155 39.9049C64.3511 40.1347 63.9035 40.2496 63.3727 40.2496C62.8379 40.2496 62.3864 40.1347 62.018 39.9049C61.6496 39.6712 61.3703 39.3642 61.1802 38.984C60.99 38.5997 60.895 38.1778 60.895 37.7183ZM62.2794 37.0766V37.7183C62.2794 38.059 62.3606 38.368 62.523 38.6453C62.6854 38.9226 62.9687 39.0612 63.3727 39.0612C63.7728 39.0612 64.052 38.9226 64.2105 38.6453C64.3689 38.368 64.4482 38.059 64.4482 37.7183V37.0766C64.4482 36.736 64.3709 36.427 64.2164 36.1497C64.0659 35.8724 63.7847 35.7338 63.3727 35.7338C62.9766 35.7338 62.6953 35.8724 62.529 36.1497C62.3626 36.427 62.2794 36.736 62.2794 37.0766ZM54.7749 30.7546V30.1128C54.7749 29.6533 54.87 29.2315 55.0601 28.8472C55.2542 28.463 55.5355 28.156 55.9039 27.9263C56.2762 27.6965 56.7258 27.5816 57.2526 27.5816C57.7914 27.5816 58.2429 27.6965 58.6074 27.9263C58.9718 28.156 59.2471 28.463 59.4333 28.8472C59.6195 29.2315 59.7125 29.6533 59.7125 30.1128V30.7546C59.7125 31.2141 59.6175 31.6359 59.4273 32.0202C59.2412 32.4004 58.9639 32.7074 58.5955 32.9411C58.2311 33.1709 57.7834 33.2858 57.2526 33.2858C56.7139 33.2858 56.2604 33.1709 55.892 32.9411C55.5275 32.7074 55.2503 32.4004 55.0601 32.0202C54.87 31.6359 54.7749 31.2141 54.7749 30.7546ZM56.1653 30.1128V30.7546C56.1653 31.0952 56.2445 31.4042 56.403 31.6815C56.5654 31.9588 56.8486 32.0974 57.2526 32.0974C57.6488 32.0974 57.926 31.9588 58.0845 31.6815C58.2469 31.4042 58.3281 31.0952 58.3281 30.7546V30.1128C58.3281 29.7722 58.2509 29.4632 58.0964 29.1859C57.9419 28.9086 57.6606 28.77 57.2526 28.77C56.8565 28.77 56.5753 28.9086 56.4089 29.1859C56.2465 29.4632 56.1653 29.7722 56.1653 30.1128ZM55.3394 40L63.7054 27.8312H65.1255L56.7595 40H55.3394ZM76.6957 40.1842C75.8123 40.1842 75.0518 39.9842 74.414 39.5841C73.7802 39.18 73.293 38.6235 72.9524 37.9144C72.6117 37.2054 72.4414 36.3933 72.4414 35.4783C72.4414 34.5514 72.6157 33.7334 72.9642 33.0243C73.3128 32.3113 73.804 31.7548 74.4378 31.3547C75.0716 30.9546 75.8183 30.7546 76.6779 30.7546C77.3711 30.7546 77.989 30.8833 78.5317 31.1408C79.0744 31.3943 79.5121 31.7508 79.8448 32.2103C80.1815 32.6698 80.3816 33.2065 80.445 33.8205H78.7159C78.6208 33.3927 78.403 33.0243 78.0623 32.7154C77.7256 32.4064 77.274 32.2519 76.7076 32.2519C76.2124 32.2519 75.7787 32.3826 75.4063 32.6441C75.0379 32.9015 74.7507 33.2699 74.5448 33.7492C74.3388 34.2246 74.2358 34.7871 74.2358 35.4367C74.2358 36.1022 74.3368 36.6766 74.5388 37.1598C74.7408 37.6431 75.026 38.0174 75.3944 38.2828C75.7668 38.5482 76.2045 38.6809 76.7076 38.6809C77.0443 38.6809 77.3493 38.6195 77.6226 38.4967C77.8999 38.37 78.1316 38.1897 78.3178 37.956C78.5079 37.7223 78.6406 37.4411 78.7159 37.1123H80.445C80.3816 37.7025 80.1895 38.2293 79.8686 38.6928C79.5478 39.1563 79.118 39.5207 78.5792 39.7861C78.0445 40.0515 77.4166 40.1842 76.6957 40.1842ZM86.1892 40.1842C85.3336 40.1842 84.5869 39.9881 83.9491 39.596C83.3114 39.2038 82.8162 38.6552 82.4637 37.9501C82.1111 37.245 81.9349 36.4211 81.9349 35.4783C81.9349 34.5316 82.1111 33.7037 82.4637 32.9946C82.8162 32.2856 83.3114 31.735 83.9491 31.3428C84.5869 30.9506 85.3336 30.7546 86.1892 30.7546C87.0448 30.7546 87.7915 30.9506 88.4293 31.3428C89.067 31.735 89.5622 32.2856 89.9147 32.9946C90.2672 33.7037 90.4435 34.5316 90.4435 35.4783C90.4435 36.4211 90.2672 37.245 89.9147 37.9501C89.5622 38.6552 89.067 39.2038 88.4293 39.596C87.7915 39.9881 87.0448 40.1842 86.1892 40.1842ZM86.1951 38.6928C86.7497 38.6928 87.2092 38.5462 87.5736 38.2531C87.9381 37.96 88.2074 37.5698 88.3817 37.0826C88.56 36.5953 88.6491 36.0586 88.6491 35.4723C88.6491 34.8901 88.56 34.3553 88.3817 33.8681C88.2074 33.3769 87.9381 32.9827 87.5736 32.6856C87.2092 32.3886 86.7497 32.24 86.1951 32.24C85.6366 32.24 85.1731 32.3886 84.8048 32.6856C84.4403 32.9827 84.169 33.3769 83.9907 33.8681C83.8164 34.3553 83.7293 34.8901 83.7293 35.4723C83.7293 36.0586 83.8164 36.5953 83.9907 37.0826C84.169 37.5698 84.4403 37.96 84.8048 38.2531C85.1731 38.5462 85.6366 38.6928 86.1951 38.6928ZM92.4266 40V30.8734H94.1319V32.3588H94.2448C94.4349 31.8558 94.7459 31.4636 95.1777 31.1824C95.6094 30.8972 96.1264 30.7546 96.7285 30.7546C97.3385 30.7546 97.8495 30.8972 98.2614 31.1824C98.6774 31.4676 98.9844 31.8597 99.1824 32.3588H99.2775C99.4954 31.8716 99.842 31.4834 100.317 31.1943C100.793 30.9011 101.359 30.7546 102.017 30.7546C102.845 30.7546 103.52 31.014 104.043 31.5329C104.57 32.0519 104.833 32.8342 104.833 33.8799V40H103.056V34.0463C103.056 33.4284 102.888 32.9808 102.551 32.7035C102.215 32.4262 101.813 32.2875 101.345 32.2875C100.767 32.2875 100.317 32.4658 99.9965 32.8223C99.6756 33.1749 99.5152 33.6284 99.5152 34.183V40H97.7445V33.9334C97.7445 33.4383 97.59 33.0402 97.2811 32.7391C96.9721 32.4381 96.57 32.2875 96.0749 32.2875C95.7382 32.2875 95.4272 32.3767 95.142 32.5549C94.8608 32.7292 94.633 32.9728 94.4587 33.2858C94.2884 33.5987 94.2032 33.9612 94.2032 34.3731V40H92.4266ZM107.214 43.4225V30.8734H108.949V32.3529H109.098C109.201 32.1628 109.349 31.9429 109.543 31.6934C109.738 31.4438 110.007 31.2259 110.352 31.0398C110.696 30.8496 111.152 30.7546 111.718 30.7546C112.455 30.7546 113.112 30.9407 113.691 31.3131C114.269 31.6854 114.723 32.2222 115.051 32.9233C115.384 33.6245 115.551 34.4682 115.551 35.4545C115.551 36.4409 115.386 37.2866 115.057 37.9917C114.729 38.6928 114.277 39.2335 113.703 39.6138C113.128 39.9901 112.473 40.1783 111.736 40.1783C111.181 40.1783 110.728 40.0852 110.375 39.899C110.027 39.7128 109.753 39.4949 109.555 39.2454C109.357 38.9958 109.205 38.774 109.098 38.5799H108.991V43.4225H107.214ZM108.955 35.4367C108.955 36.0784 109.048 36.6409 109.234 37.1242C109.421 37.6074 109.69 37.9857 110.043 38.2591C110.395 38.5284 110.827 38.6631 111.338 38.6631C111.869 38.6631 112.312 38.5225 112.669 38.2412C113.025 37.956 113.295 37.5698 113.477 37.0826C113.663 36.5953 113.756 36.0467 113.756 35.4367C113.756 34.8346 113.665 34.2939 113.483 33.8146C113.305 33.3353 113.035 32.957 112.675 32.6797C112.318 32.4024 111.873 32.2638 111.338 32.2638C110.823 32.2638 110.387 32.3965 110.031 32.6619C109.678 32.9273 109.411 33.2977 109.229 33.773C109.046 34.2483 108.955 34.8029 108.955 35.4367ZM119.318 27.8312V40H117.541V27.8312H119.318ZM125.641 40.1842C124.742 40.1842 123.968 39.9921 123.318 39.6078C122.672 39.2196 122.173 38.675 121.821 37.9738C121.472 37.2688 121.298 36.4428 121.298 35.4961C121.298 34.5613 121.472 33.7373 121.821 33.0243C122.173 32.3113 122.664 31.7548 123.294 31.3547C123.928 30.9546 124.669 30.7546 125.516 30.7546C126.031 30.7546 126.531 30.8397 127.014 31.0101C127.497 31.1804 127.931 31.4478 128.315 31.8122C128.699 32.1766 129.002 32.65 129.224 33.2323C129.446 33.8106 129.557 34.5137 129.557 35.3416V35.9715H122.302V34.6405H127.816C127.816 34.1731 127.721 33.7591 127.531 33.3987C127.341 33.0342 127.073 32.747 126.729 32.5371C126.388 32.3272 125.988 32.2222 125.528 32.2222C125.029 32.2222 124.594 32.345 124.221 32.5906C123.853 32.8322 123.568 33.1491 123.366 33.5413C123.167 33.9295 123.068 34.3513 123.068 34.8069V35.8467C123.068 36.4567 123.175 36.9756 123.389 37.4034C123.607 37.8312 123.91 38.158 124.298 38.3838C124.687 38.6057 125.14 38.7166 125.659 38.7166C125.996 38.7166 126.303 38.669 126.58 38.574C126.857 38.4749 127.097 38.3284 127.299 38.1343C127.501 37.9402 127.656 37.7005 127.762 37.4153L129.444 37.7183C129.309 38.2135 129.068 38.6473 128.719 39.0196C128.374 39.388 127.941 39.6752 127.418 39.8812C126.899 40.0832 126.307 40.1842 125.641 40.1842ZM135.788 30.8734V32.2994H130.803V30.8734H135.788ZM132.14 28.6868H133.917V37.3202C133.917 37.6649 133.968 37.9243 134.071 38.0986C134.174 38.269 134.307 38.3858 134.469 38.4492C134.636 38.5086 134.816 38.5383 135.01 38.5383C135.153 38.5383 135.277 38.5284 135.384 38.5086C135.491 38.4888 135.574 38.473 135.634 38.4611L135.955 39.9287C135.852 39.9683 135.705 40.0079 135.515 40.0475C135.325 40.0911 135.087 40.1149 134.802 40.1188C134.335 40.1268 133.899 40.0436 133.495 39.8693C133.091 39.695 132.764 39.4256 132.514 39.0612C132.265 38.6968 132.14 38.2392 132.14 37.6886V28.6868ZM141.589 40.1842C140.69 40.1842 139.915 39.9921 139.266 39.6078C138.62 39.2196 138.121 38.675 137.768 37.9738C137.42 37.2688 137.246 36.4428 137.246 35.4961C137.246 34.5613 137.42 33.7373 137.768 33.0243C138.121 32.3113 138.612 31.7548 139.242 31.3547C139.876 30.9546 140.617 30.7546 141.464 30.7546C141.979 30.7546 142.478 30.8397 142.962 31.0101C143.445 31.1804 143.879 31.4478 144.263 31.8122C144.647 32.1766 144.95 32.65 145.172 33.2323C145.394 33.8106 145.505 34.5137 145.505 35.3416V35.9715H138.25V34.6405H143.764C143.764 34.1731 143.669 33.7591 143.479 33.3987C143.288 33.0342 143.021 32.747 142.676 32.5371C142.336 32.3272 141.936 32.2222 141.476 32.2222C140.977 32.2222 140.541 32.345 140.169 32.5906C139.801 32.8322 139.515 33.1491 139.313 33.5413C139.115 33.9295 139.016 34.3513 139.016 34.8069V35.8467C139.016 36.4567 139.123 36.9756 139.337 37.4034C139.555 37.8312 139.858 38.158 140.246 38.3838C140.634 38.6057 141.088 38.7166 141.607 38.7166C141.944 38.7166 142.251 38.669 142.528 38.574C142.805 38.4749 143.045 38.3284 143.247 38.1343C143.449 37.9402 143.603 37.7005 143.71 37.4153L145.392 37.7183C145.257 38.2135 145.015 38.6473 144.667 39.0196C144.322 39.388 143.889 39.6752 143.366 39.8812C142.847 40.0832 142.255 40.1842 141.589 40.1842Z" fill="#131520"/>
</svg>
