<svg width="260" height="57" viewBox="0 0 260 57" fill="none" xmlns="http://www.w3.org/2000/svg">
<rect width="260" height="57" fill="white"/>
<path d="M35.1729 22.8312V35H33.3369V22.8312H35.1729ZM44.4837 26.0279C44.4203 25.4654 44.1589 25.0297 43.6994 24.7207C43.2399 24.4078 42.6616 24.2513 41.9644 24.2513C41.4653 24.2513 41.0335 24.3305 40.6691 24.489C40.3047 24.6434 40.0214 24.8574 39.8194 25.1307C39.6213 25.4 39.5223 25.707 39.5223 26.0517C39.5223 26.3408 39.5897 26.5904 39.7243 26.8003C39.863 27.0103 40.0432 27.1865 40.265 27.3291C40.4908 27.4678 40.7325 27.5846 40.9899 27.6797C41.2474 27.7708 41.495 27.8461 41.7327 27.9055L42.921 28.2145C43.3092 28.3095 43.7073 28.4383 44.1153 28.6007C44.5233 28.7631 44.9016 28.977 45.2502 29.2424C45.5988 29.5078 45.88 29.8366 46.0939 30.2287C46.3118 30.6209 46.4207 31.0903 46.4207 31.6369C46.4207 32.3262 46.2425 32.9382 45.886 33.473C45.5334 34.0077 45.0205 34.4296 44.3471 34.7386C43.6776 35.0475 42.8675 35.202 41.9169 35.202C41.0058 35.202 40.2175 35.0574 39.552 34.7683C38.8865 34.4791 38.3656 34.0691 37.9893 33.5383C37.613 33.0036 37.4051 32.3698 37.3654 31.6369H39.2074C39.2431 32.0766 39.3857 32.443 39.6352 32.7362C39.8887 33.0253 40.2116 33.2412 40.6037 33.3838C40.9998 33.5225 41.4336 33.5918 41.905 33.5918C42.4239 33.5918 42.8854 33.5106 43.2894 33.3482C43.6974 33.1818 44.0183 32.9521 44.252 32.6589C44.4857 32.3618 44.6026 32.0152 44.6026 31.6191C44.6026 31.2586 44.4996 30.9635 44.2936 30.7338C44.0916 30.504 43.8163 30.3139 43.4677 30.1634C43.123 30.0129 42.7329 29.8802 42.2971 29.7653L40.8592 29.3731C39.8848 29.1077 39.1123 28.7175 38.5419 28.2026C37.9755 27.6876 37.6922 27.0063 37.6922 26.1586C37.6922 25.4575 37.8824 24.8455 38.2627 24.3226C38.6429 23.7997 39.1579 23.3937 39.8075 23.1045C40.4572 22.8114 41.19 22.6648 42.006 22.6648C42.8299 22.6648 43.5568 22.8094 44.1866 23.0986C44.8204 23.3877 45.3195 23.7858 45.684 24.2929C46.0484 24.796 46.2385 25.3743 46.2544 26.0279H44.4837ZM59.1852 28.9156C59.1852 30.2149 58.9475 31.3319 58.4722 32.2668C57.9969 33.1977 57.3452 33.9146 56.5173 34.4177C55.6934 34.9168 54.7566 35.1664 53.7069 35.1664C52.6532 35.1664 51.7124 34.9168 50.8845 34.4177C50.0606 33.9146 49.411 33.1957 48.9356 32.2608C48.4603 31.326 48.2226 30.2109 48.2226 28.9156C48.2226 27.6163 48.4603 26.5012 48.9356 25.5704C49.411 24.6355 50.0606 23.9185 50.8845 23.4194C51.7124 22.9164 52.6532 22.6648 53.7069 22.6648C54.7566 22.6648 55.6934 22.9164 56.5173 23.4194C57.3452 23.9185 57.9969 24.6355 58.4722 25.5704C58.9475 26.5012 59.1852 27.6163 59.1852 28.9156ZM57.367 28.9156C57.367 27.9253 57.2066 27.0915 56.8857 26.4141C56.5688 25.7328 56.1331 25.2178 55.5785 24.8692C55.0279 24.5167 54.404 24.3404 53.7069 24.3404C53.0057 24.3404 52.3799 24.5167 51.8293 24.8692C51.2787 25.2178 50.8429 25.7328 50.5221 26.4141C50.2052 27.0915 50.0467 27.9253 50.0467 28.9156C50.0467 29.9059 50.2052 30.7417 50.5221 31.423C50.8429 32.1004 51.2787 32.6154 51.8293 32.9679C52.3799 33.3165 53.0057 33.4908 53.7069 33.4908C54.404 33.4908 55.0279 33.3165 55.5785 32.9679C56.1331 32.6154 56.5688 32.1004 56.8857 31.423C57.2066 30.7417 57.367 29.9059 57.367 28.9156ZM65.736 35V33.669L69.8537 29.4028C70.2934 28.9394 70.6559 28.5333 70.9411 28.1848C71.2302 27.8322 71.4461 27.4975 71.5887 27.1806C71.7313 26.8637 71.8026 26.527 71.8026 26.1705C71.8026 25.7664 71.7076 25.4179 71.5174 25.1247C71.3273 24.8276 71.0678 24.5999 70.739 24.4414C70.4103 24.279 70.0399 24.1978 69.6279 24.1978C69.1922 24.1978 68.8119 24.2869 68.4871 24.4652C68.1623 24.6434 67.9127 24.895 67.7384 25.2198C67.5641 25.5446 67.477 25.9249 67.477 26.3606H65.7242C65.7242 25.6199 65.8945 24.9722 66.2352 24.4177C66.5758 23.8631 67.0432 23.4333 67.6374 23.1283C68.2316 22.8193 68.907 22.6648 69.6636 22.6648C70.4281 22.6648 71.1015 22.8173 71.6838 23.1223C72.27 23.4234 72.7276 23.8354 73.0563 24.3582C73.3851 24.8772 73.5495 25.4634 73.5495 26.117C73.5495 26.5686 73.4643 27.0103 73.294 27.442C73.1276 27.8738 72.8365 28.3551 72.4206 28.8859C72.0046 29.4127 71.4263 30.0525 70.6856 30.8051L68.2673 33.3363V33.4254H73.7456V35H65.736ZM76.4075 35L81.7195 24.4949V24.4058H75.5757V22.8312H83.6209V24.4592L78.3267 35H76.4075ZM89.6622 35.202C88.7234 35.1981 87.9212 34.9505 87.2558 34.4593C86.5903 33.9681 86.0813 33.2531 85.7287 32.3143C85.3762 31.3755 85.1999 30.2446 85.1999 28.9215C85.1999 27.6025 85.3762 26.4755 85.7287 25.5407C86.0852 24.6058 86.5962 23.8928 87.2617 23.4016C87.9311 22.9104 88.7313 22.6648 89.6622 22.6648C90.5931 22.6648 91.3912 22.9124 92.0567 23.4076C92.7222 23.8987 93.2312 24.6118 93.5838 25.5466C93.9403 26.4775 94.1185 27.6025 94.1185 28.9215C94.1185 30.2485 93.9423 31.3814 93.5897 32.3202C93.2372 33.2551 92.7281 33.9701 92.0627 34.4652C91.3972 34.9564 90.597 35.202 89.6622 35.202ZM89.6622 33.6156C90.4861 33.6156 91.1298 33.2135 91.5933 32.4094C92.0607 31.6053 92.2944 30.4426 92.2944 28.9215C92.2944 27.9114 92.1874 27.0578 91.9735 26.3606C91.7636 25.6595 91.4606 25.1287 91.0644 24.7682C90.6723 24.4038 90.2049 24.2216 89.6622 24.2216C88.8422 24.2216 88.1985 24.6256 87.7311 25.4337C87.2637 26.2418 87.028 27.4044 87.024 28.9215C87.024 29.9356 87.129 30.7932 87.3389 31.4943C87.5528 32.1915 87.8559 32.7203 88.248 33.0808C88.6402 33.4373 89.1116 33.6156 89.6622 33.6156ZM100.463 35.202C99.5241 35.1981 98.7219 34.9505 98.0565 34.4593C97.391 33.9681 96.882 33.2531 96.5294 32.3143C96.1769 31.3755 96.0006 30.2446 96.0006 28.9215C96.0006 27.6025 96.1769 26.4755 96.5294 25.5407C96.8859 24.6058 97.3969 23.8928 98.0624 23.4016C98.7318 22.9104 99.532 22.6648 100.463 22.6648C101.394 22.6648 102.192 22.9124 102.857 23.4076C103.523 23.8987 104.032 24.6118 104.384 25.5466C104.741 26.4775 104.919 27.6025 104.919 28.9215C104.919 30.2485 104.743 31.3814 104.39 32.3202C104.038 33.2551 103.529 33.9701 102.863 34.4652C102.198 34.9564 101.398 35.202 100.463 35.202ZM100.463 33.6156C101.287 33.6156 101.931 33.2135 102.394 32.4094C102.861 31.6053 103.095 30.4426 103.095 28.9215C103.095 27.9114 102.988 27.0578 102.774 26.3606C102.564 25.6595 102.261 25.1287 101.865 24.7682C101.473 24.4038 101.006 24.2216 100.463 24.2216C99.6429 24.2216 98.9992 24.6256 98.5318 25.4337C98.0644 26.2418 97.8287 27.4044 97.8247 28.9215C97.8247 29.9356 97.9297 30.7932 98.1396 31.4943C98.3535 32.1915 98.6566 32.7203 99.0487 33.0808C99.4409 33.4373 99.9123 33.6156 100.463 33.6156ZM111.644 22.8312V35H109.802V24.6732H109.731L106.819 26.5745V24.8158L109.855 22.8312H111.644ZM125.549 38.4225V33.5799H125.442C125.335 33.774 125.181 33.9958 124.979 34.2454C124.781 34.4949 124.507 34.7128 124.159 34.899C123.81 35.0852 123.359 35.1783 122.804 35.1783C122.067 35.1783 121.41 34.9901 120.831 34.6138C120.257 34.2335 119.805 33.6928 119.477 32.9917C119.152 32.2866 118.989 31.4409 118.989 30.4545C118.989 29.4682 119.154 28.6245 119.483 27.9233C119.815 27.2222 120.271 26.6854 120.849 26.3131C121.428 25.9407 122.083 25.7546 122.816 25.7546C123.382 25.7546 123.838 25.8496 124.183 26.0398C124.531 26.2259 124.8 26.4438 124.991 26.6934C125.185 26.9429 125.335 27.1628 125.442 27.3529H125.591V25.8734H127.326V38.4225H125.549ZM123.196 33.6631C123.707 33.6631 124.139 33.5284 124.492 33.2591C124.848 32.9857 125.117 32.6074 125.3 32.1242C125.486 31.6409 125.579 31.0784 125.579 30.4367C125.579 29.8029 125.488 29.2483 125.306 28.773C125.123 28.2977 124.856 27.9273 124.503 27.6619C124.151 27.3965 123.715 27.2638 123.196 27.2638C122.661 27.2638 122.216 27.4024 121.859 27.6797C121.503 27.957 121.233 28.3353 121.051 28.8146C120.873 29.2939 120.784 29.8346 120.784 30.4367C120.784 31.0467 120.875 31.5953 121.057 32.0826C121.239 32.5698 121.509 32.956 121.865 33.2412C122.226 33.5225 122.669 33.6631 123.196 33.6631ZM135.496 31.2151V25.8734H137.278V35H135.531V33.4195H135.436C135.226 33.9067 134.89 34.3127 134.426 34.6376C133.967 34.9584 133.394 35.1188 132.709 35.1188C132.123 35.1188 131.604 34.9901 131.152 34.7326C130.705 34.4712 130.352 34.085 130.095 33.574C129.841 33.063 129.714 32.4312 129.714 31.6785V25.8734H131.491V31.4646C131.491 32.0865 131.663 32.5817 132.008 32.9501C132.353 33.3185 132.8 33.5027 133.351 33.5027C133.683 33.5027 134.014 33.4195 134.343 33.2531C134.676 33.0867 134.951 32.8352 135.169 32.4985C135.391 32.1618 135.5 31.734 135.496 31.2151ZM143.599 35.1842C142.7 35.1842 141.925 34.9921 141.276 34.6078C140.63 34.2196 140.131 33.675 139.778 32.9738C139.43 32.2688 139.255 31.4428 139.255 30.4961C139.255 29.5613 139.43 28.7373 139.778 28.0243C140.131 27.3113 140.622 26.7548 141.252 26.3547C141.886 25.9546 142.626 25.7546 143.474 25.7546C143.989 25.7546 144.488 25.8397 144.971 26.0101C145.455 26.1804 145.888 26.4478 146.273 26.8122C146.657 27.1766 146.96 27.65 147.182 28.2323C147.404 28.8106 147.514 29.5137 147.514 30.3416V30.9715H140.26V29.6405H145.774C145.774 29.1731 145.678 28.7591 145.488 28.3987C145.298 28.0342 145.031 27.747 144.686 27.5371C144.346 27.3272 143.945 27.2222 143.486 27.2222C142.987 27.2222 142.551 27.345 142.179 27.5906C141.81 27.8322 141.525 28.1491 141.323 28.5413C141.125 28.9295 141.026 29.3513 141.026 29.8069V30.8467C141.026 31.4567 141.133 31.9756 141.347 32.4034C141.565 32.8312 141.868 33.158 142.256 33.3838C142.644 33.6057 143.098 33.7166 143.617 33.7166C143.953 33.7166 144.26 33.669 144.538 33.574C144.815 33.4749 145.055 33.3284 145.257 33.1343C145.459 32.9402 145.613 32.7005 145.72 32.4153L147.402 32.7183C147.267 33.2135 147.025 33.6473 146.677 34.0196C146.332 34.388 145.898 34.6752 145.375 34.8812C144.857 35.0832 144.264 35.1842 143.599 35.1842ZM156.325 28.1016L154.714 28.3868C154.647 28.1808 154.54 27.9847 154.394 27.7985C154.251 27.6124 154.057 27.4599 153.811 27.341C153.566 27.2222 153.259 27.1628 152.89 27.1628C152.387 27.1628 151.967 27.2757 151.631 27.5015C151.294 27.7233 151.126 28.0105 151.126 28.363C151.126 28.668 151.239 28.9136 151.464 29.0998C151.69 29.286 152.055 29.4385 152.558 29.5573L154.007 29.8901C154.847 30.0842 155.473 30.3832 155.885 30.7873C156.297 31.1913 156.503 31.7162 156.503 32.3618C156.503 32.9085 156.344 33.3957 156.028 33.8235C155.715 34.2474 155.277 34.5801 154.714 34.8217C154.156 35.0634 153.508 35.1842 152.771 35.1842C151.75 35.1842 150.916 34.9663 150.27 34.5306C149.624 34.0909 149.228 33.467 149.082 32.6589L150.799 32.3975C150.906 32.8451 151.126 33.1838 151.458 33.4135C151.791 33.6393 152.225 33.7522 152.76 33.7522C153.342 33.7522 153.807 33.6314 154.156 33.3898C154.505 33.1442 154.679 32.8451 154.679 32.4926C154.679 32.2074 154.572 31.9677 154.358 31.7736C154.148 31.5795 153.825 31.4329 153.389 31.3339L151.845 30.9952C150.993 30.8011 150.363 30.4922 149.955 30.0683C149.551 29.6445 149.349 29.1077 149.349 28.4581C149.349 27.9194 149.5 27.448 149.801 27.0439C150.102 26.6399 150.518 26.325 151.048 26.0992C151.579 25.8694 152.187 25.7546 152.873 25.7546C153.859 25.7546 154.635 25.9685 155.202 26.3963C155.768 26.8201 156.142 27.3886 156.325 28.1016ZM162.717 25.8734V27.2994H157.731V25.8734H162.717ZM159.068 23.6868H160.845V32.3202C160.845 32.6649 160.896 32.9243 160.999 33.0986C161.102 33.269 161.235 33.3858 161.398 33.4492C161.564 33.5086 161.744 33.5383 161.938 33.5383C162.081 33.5383 162.206 33.5284 162.313 33.5086C162.419 33.4888 162.503 33.473 162.562 33.4611L162.883 34.9287C162.78 34.9683 162.633 35.0079 162.443 35.0475C162.253 35.0911 162.015 35.1149 161.73 35.1188C161.263 35.1268 160.827 35.0436 160.423 34.8693C160.019 34.695 159.692 34.4256 159.443 34.0612C159.193 33.6968 159.068 33.2392 159.068 32.6886V23.6868ZM164.682 35V25.8734H166.458V35H164.682ZM165.579 24.4652C165.27 24.4652 165.005 24.3622 164.783 24.1562C164.565 23.9463 164.456 23.6967 164.456 23.4076C164.456 23.1144 164.565 22.8649 164.783 22.6589C165.005 22.4489 165.27 22.344 165.579 22.344C165.888 22.344 166.151 22.4489 166.369 22.6589C166.591 22.8649 166.702 23.1144 166.702 23.4076C166.702 23.6967 166.591 23.9463 166.369 24.1562C166.151 24.3622 165.888 24.4652 165.579 24.4652ZM172.693 35.1842C171.837 35.1842 171.091 34.9881 170.453 34.596C169.815 34.2038 169.32 33.6552 168.967 32.9501C168.615 32.245 168.439 31.4211 168.439 30.4783C168.439 29.5316 168.615 28.7037 168.967 27.9946C169.32 27.2856 169.815 26.735 170.453 26.3428C171.091 25.9506 171.837 25.7546 172.693 25.7546C173.548 25.7546 174.295 25.9506 174.933 26.3428C175.571 26.735 176.066 27.2856 176.418 27.9946C176.771 28.7037 176.947 29.5316 176.947 30.4783C176.947 31.4211 176.771 32.245 176.418 32.9501C176.066 33.6552 175.571 34.2038 174.933 34.596C174.295 34.9881 173.548 35.1842 172.693 35.1842ZM172.699 33.6928C173.253 33.6928 173.713 33.5462 174.077 33.2531C174.442 32.96 174.711 32.5698 174.885 32.0826C175.064 31.5953 175.153 31.0586 175.153 30.4723C175.153 29.8901 175.064 29.3553 174.885 28.8681C174.711 28.3769 174.442 27.9827 174.077 27.6856C173.713 27.3886 173.253 27.24 172.699 27.24C172.14 27.24 171.677 27.3886 171.308 27.6856C170.944 27.9827 170.673 28.3769 170.494 28.8681C170.32 29.3553 170.233 29.8901 170.233 30.4723C170.233 31.0586 170.32 31.5953 170.494 32.0826C170.673 32.5698 170.944 32.96 171.308 33.2531C171.677 33.5462 172.14 33.6928 172.699 33.6928ZM180.707 29.5811V35H178.93V25.8734H180.636V27.3588H180.748C180.958 26.8756 181.287 26.4874 181.735 26.1943C182.186 25.9011 182.755 25.7546 183.44 25.7546C184.062 25.7546 184.607 25.8853 185.074 26.1467C185.542 26.4042 185.904 26.7884 186.161 27.2994C186.419 27.8104 186.548 28.4422 186.548 29.1949V35H184.771V29.4088C184.771 28.7472 184.599 28.2303 184.254 27.858C183.909 27.4816 183.436 27.2935 182.834 27.2935C182.422 27.2935 182.056 27.3826 181.735 27.5609C181.418 27.7391 181.166 28.0006 180.98 28.3452C180.798 28.6858 180.707 29.0978 180.707 29.5811ZM190.707 29.5811V35H188.93V25.8734H190.636V27.3588H190.748C190.958 26.8756 191.287 26.4874 191.735 26.1943C192.186 25.9011 192.755 25.7546 193.44 25.7546C194.062 25.7546 194.607 25.8853 195.074 26.1467C195.542 26.4042 195.904 26.7884 196.161 27.2994C196.419 27.8104 196.548 28.4422 196.548 29.1949V35H194.771V29.4088C194.771 28.7472 194.599 28.2303 194.254 27.858C193.91 27.4816 193.436 27.2935 192.834 27.2935C192.422 27.2935 192.056 27.3826 191.735 27.5609C191.418 27.7391 191.166 28.0006 190.98 28.3452C190.798 28.6858 190.707 29.0978 190.707 29.5811ZM201.586 35.202C201.008 35.202 200.485 35.0951 200.018 34.8812C199.55 34.6633 199.18 34.3484 198.907 33.9364C198.637 33.5245 198.503 33.0194 198.503 32.4213C198.503 31.9063 198.602 31.4825 198.8 31.1497C198.998 30.817 199.265 30.5536 199.602 30.3595C199.938 30.1654 200.315 30.0188 200.731 29.9198C201.147 29.8207 201.57 29.7455 202.002 29.694C202.549 29.6306 202.993 29.5791 203.333 29.5395C203.674 29.4959 203.921 29.4266 204.076 29.3315C204.23 29.2365 204.308 29.082 204.308 28.8681V28.8265C204.308 28.3076 204.161 27.9055 203.868 27.6203C203.579 27.3351 203.147 27.1925 202.573 27.1925C201.975 27.1925 201.503 27.3252 201.159 27.5906C200.818 27.852 200.582 28.1432 200.451 28.464L198.782 28.0837C198.98 27.5292 199.269 27.0816 199.649 26.7409C200.034 26.3963 200.475 26.1467 200.974 25.9922C201.473 25.8338 201.998 25.7546 202.549 25.7546C202.913 25.7546 203.3 25.7981 203.708 25.8853C204.12 25.9685 204.504 26.123 204.86 26.3487C205.221 26.5745 205.516 26.8974 205.746 27.3173C205.975 27.7332 206.09 28.2739 206.09 28.9394V35H204.355V33.7522H204.284C204.169 33.982 203.997 34.2078 203.767 34.4296C203.537 34.6514 203.242 34.8356 202.882 34.9822C202.521 35.1287 202.089 35.202 201.586 35.202ZM201.973 33.776C202.464 33.776 202.884 33.6789 203.232 33.4848C203.585 33.2907 203.852 33.0372 204.034 32.7243C204.221 32.4074 204.314 32.0687 204.314 31.7082V30.5318C204.25 30.5951 204.127 30.6546 203.945 30.71C203.767 30.7615 203.563 30.8071 203.333 30.8467C203.103 30.8823 202.88 30.916 202.662 30.9477C202.444 30.9754 202.262 30.9992 202.115 31.019C201.771 31.0626 201.456 31.1359 201.17 31.2388C200.889 31.3418 200.663 31.4904 200.493 31.6845C200.327 31.8746 200.243 32.1281 200.243 32.445C200.243 32.8847 200.406 33.2175 200.731 33.4432C201.056 33.6651 201.469 33.776 201.973 33.776ZM208.457 35V25.8734H210.233V35H208.457ZM209.354 24.4652C209.045 24.4652 208.779 24.3622 208.558 24.1562C208.34 23.9463 208.231 23.6967 208.231 23.4076C208.231 23.1144 208.34 22.8649 208.558 22.6589C208.779 22.4489 209.045 22.344 209.354 22.344C209.663 22.344 209.926 22.4489 210.144 22.6589C210.366 22.8649 210.477 23.1144 210.477 23.4076C210.477 23.6967 210.366 23.9463 210.144 24.1562C209.926 24.3622 209.663 24.4652 209.354 24.4652ZM212.623 35V25.8734H214.34V27.3232H214.435C214.602 26.832 214.895 26.4458 215.315 26.1645C215.739 25.8793 216.218 25.7367 216.753 25.7367C216.864 25.7367 216.994 25.7407 217.145 25.7486C217.299 25.7565 217.42 25.7664 217.507 25.7783V27.4777C217.436 27.4579 217.309 27.4361 217.127 27.4123C216.945 27.3846 216.763 27.3707 216.58 27.3707C216.161 27.3707 215.786 27.4599 215.457 27.6381C215.133 27.8124 214.875 28.056 214.685 28.369C214.495 28.6779 214.4 29.0305 214.4 29.4266V35H212.623ZM222.651 35.1842C221.752 35.1842 220.978 34.9921 220.328 34.6078C219.683 34.2196 219.183 33.675 218.831 32.9738C218.482 32.2688 218.308 31.4428 218.308 30.4961C218.308 29.5613 218.482 28.7373 218.831 28.0243C219.183 27.3113 219.675 26.7548 220.304 26.3547C220.938 25.9546 221.679 25.7546 222.527 25.7546C223.042 25.7546 223.541 25.8397 224.024 26.0101C224.507 26.1804 224.941 26.4478 225.325 26.8122C225.71 27.1766 226.013 27.65 226.234 28.2323C226.456 28.8106 226.567 29.5137 226.567 30.3416V30.9715H219.312V29.6405H224.826C224.826 29.1731 224.731 28.7591 224.541 28.3987C224.351 28.0342 224.083 27.747 223.739 27.5371C223.398 27.3272 222.998 27.2222 222.539 27.2222C222.039 27.2222 221.604 27.345 221.231 27.5906C220.863 27.8322 220.578 28.1491 220.376 28.5413C220.178 28.9295 220.079 29.3513 220.079 29.8069V30.8467C220.079 31.4567 220.186 31.9756 220.4 32.4034C220.617 32.8312 220.92 33.158 221.309 33.3838C221.697 33.6057 222.15 33.7166 222.669 33.7166C223.006 33.7166 223.313 33.669 223.59 33.574C223.868 33.4749 224.107 33.3284 224.309 33.1343C224.511 32.9402 224.666 32.7005 224.773 32.4153L226.454 32.7183C226.32 33.2135 226.078 33.6473 225.729 34.0196C225.385 34.388 224.951 34.6752 224.428 34.8812C223.909 35.0832 223.317 35.1842 222.651 35.1842Z" fill="#131520"/>
</svg>
