<svg width="171" height="55" viewBox="0 0 171 55" fill="none" xmlns="http://www.w3.org/2000/svg">
<g clip-path="url(#clip0_4383_3699)">
<path d="M27.5 0C12.3123 0 0 12.3123 0 27.5C0 42.6877 12.3123 55 27.5 55C42.6877 55 55 42.6877 55 27.5C55 12.3123 42.6877 0 27.5 0ZM32.296 22.682C32.296 21.4775 32.5325 20.482 33.0165 19.69C33.5005 18.898 34.3365 18.1995 35.541 17.589L36.0965 17.3195C37.0755 16.8245 37.3285 16.401 37.3285 15.8895C37.3285 15.279 36.806 14.839 35.9535 14.839C34.947 14.839 34.1825 15.3615 33.6545 16.4285L32.296 15.0645C32.593 14.4265 33.0715 13.915 33.715 13.519C34.3537 13.1119 35.0972 12.8998 35.8545 12.9085C36.8335 12.9085 37.6695 13.167 38.379 13.6895C39.0885 14.212 39.446 14.938 39.446 15.8565C39.446 17.3195 38.621 18.216 37.0755 19.008L36.212 19.448C35.288 19.9155 34.8315 20.328 34.705 21.065H39.402V23.012H32.296V22.682ZM27.7805 43.2135C19.1015 43.2135 12.067 36.179 12.067 27.5C12.067 18.821 19.1015 11.7865 27.7805 11.7865C28.8128 11.7864 29.8425 11.8878 30.855 12.089L27.7805 18.5185C22.8305 18.5185 18.799 22.55 18.799 27.5C18.799 32.45 22.8305 36.4815 27.7805 36.4815C29.9293 36.4811 32.0063 35.708 33.6325 34.3035L37.0315 40.1995C34.3474 42.1634 31.1064 43.2193 27.7805 43.2135V43.2135ZM38.775 38.7255L34.8865 31.988H27.1095L30.998 25.256H38.775L42.6635 31.988L38.775 38.7255Z" fill="#1757C2"/>
</g>
<path d="M74.6097 5L77.0149 10.7424L83.2195 11.2554L78.5014 15.3172L79.9309 21.3766L74.6097 18.1446L69.2886 21.3766L70.7181 15.3172L66 11.2554L72.2046 10.7424L74.6097 5Z" fill="#1757C2"/>
<path d="M95.9105 5L98.3157 10.7424L104.52 11.2554L99.8021 15.3172L101.232 21.3766L95.9105 18.1446L90.5894 21.3766L92.0189 15.3172L87.3008 11.2554L93.5053 10.7424L95.9105 5Z" fill="#1757C2"/>
<path d="M117.211 5L119.616 10.7424L125.821 11.2554L121.103 15.3172L122.532 21.3766L117.211 18.1446L111.89 21.3766L113.32 15.3172L108.602 11.2554L114.806 10.7424L117.211 5Z" fill="#1757C2"/>
<path d="M138.512 5L140.916 10.7424L147.121 11.2554L142.403 15.3172L143.833 21.3766L138.512 18.1446L133.191 21.3766L134.62 15.3172L129.902 11.2554L136.107 10.7424L138.512 5Z" fill="#1757C2"/>
<mask id="mask0_4383_3699" style="mask-type:alpha" maskUnits="userSpaceOnUse" x="151" y="5" width="18" height="17">
<path d="M159.61 5L162.015 10.7424L168.219 11.2554L163.501 15.3172L164.931 21.3766L159.61 18.1446L154.289 21.3766L155.718 15.3172L151 11.2554L157.205 10.7424L159.61 5Z" fill="white"/>
</mask>
<g mask="url(#mask0_4383_3699)">
<rect x="158" y="3" width="16" height="23" fill="#CAD9F1"/>
<path d="M147 4H159.5V23H147V4Z" fill="#1757C2"/>
</g>
<path d="M77.1368 36.1368C77.0189 35.7547 76.8561 35.4127 76.6486 35.1108C76.4458 34.8042 76.2005 34.5425 75.9127 34.3255C75.6297 34.1085 75.3042 33.9458 74.9363 33.8373C74.5684 33.7241 74.1675 33.6675 73.7335 33.6675C72.9552 33.6675 72.2618 33.8632 71.6533 34.2547C71.0448 34.6462 70.566 35.2217 70.217 35.9811C69.8726 36.7358 69.7005 37.6557 69.7005 38.7406C69.7005 39.8349 69.8726 40.7618 70.217 41.5212C70.5613 42.2807 71.0401 42.8585 71.6533 43.2547C72.2665 43.6462 72.9788 43.842 73.7901 43.842C74.5259 43.842 75.1627 43.7005 75.7005 43.4175C76.2429 43.1344 76.6604 42.7335 76.9528 42.2146C77.2453 41.691 77.3915 41.0778 77.3915 40.375L77.9858 40.467H74.0519V38.4151H79.9316V40.1557C79.9316 41.3962 79.6675 42.4693 79.1392 43.375C78.6108 44.2807 77.8844 44.9788 76.9599 45.4693C76.0354 45.9552 74.9741 46.1981 73.7759 46.1981C72.441 46.1981 71.2689 45.8986 70.2594 45.2995C69.2547 44.6958 68.4693 43.8396 67.9033 42.7311C67.342 41.6179 67.0613 40.2972 67.0613 38.7689C67.0613 37.5991 67.2264 36.5542 67.5566 35.6344C67.8915 34.7146 68.3585 33.934 68.9575 33.2925C69.5566 32.6462 70.2594 32.1557 71.066 31.8208C71.8726 31.4811 72.75 31.3113 73.6981 31.3113C74.5 31.3113 75.2476 31.4292 75.941 31.6651C76.6344 31.8962 77.25 32.2264 77.7877 32.6557C78.3302 33.0849 78.7759 33.5943 79.125 34.184C79.4741 34.7736 79.7028 35.4245 79.8113 36.1368H77.1368ZM81.7058 46V44.1038L86.7364 39.1722C87.2176 38.6863 87.6185 38.2547 87.9393 37.8774C88.26 37.5 88.5006 37.1344 88.661 36.7807C88.8213 36.4269 88.9015 36.0495 88.9015 35.6486C88.9015 35.191 88.7978 34.7995 88.5902 34.4741C88.3827 34.1439 88.0973 33.8892 87.7341 33.7099C87.3709 33.5307 86.9581 33.441 86.4959 33.441C86.0195 33.441 85.602 33.5401 85.2435 33.7382C84.885 33.9316 84.6067 34.2075 84.4086 34.566C84.2152 34.9245 84.1185 35.3514 84.1185 35.8467H81.6209C81.6209 34.9269 81.8308 34.1274 82.2506 33.4481C82.6704 32.7689 83.2482 32.2429 83.9841 31.8703C84.7246 31.4976 85.5737 31.3113 86.5312 31.3113C87.5029 31.3113 88.3567 31.4929 89.0926 31.8561C89.8284 32.2193 90.3992 32.717 90.8048 33.3491C91.2152 33.9811 91.4204 34.7028 91.4204 35.5142C91.4204 36.0566 91.3166 36.5896 91.1091 37.1132C90.9015 37.6368 90.536 38.217 90.0124 38.8538C89.4935 39.4906 88.7647 40.2618 87.8261 41.1675L85.3284 43.7075V43.8066H91.6397V46H81.7058ZM98.5755 46V31.5094H103.472C104.604 31.5094 105.533 31.7028 106.259 32.0896C106.986 32.4717 107.524 32.9976 107.873 33.6675C108.222 34.3373 108.396 35.0991 108.396 35.9528C108.396 36.8066 108.222 37.5637 107.873 38.2241C107.524 38.8844 106.988 39.4033 106.267 39.7807C105.545 40.1533 104.623 40.3396 103.5 40.3396H99.5377V38.7547H103.443C104.217 38.7547 104.84 38.6415 105.311 38.4151C105.788 38.1887 106.132 37.8679 106.344 37.4528C106.561 37.033 106.67 36.533 106.67 35.9528C106.67 35.3726 106.561 34.8656 106.344 34.4316C106.127 33.9976 105.781 33.6627 105.304 33.4269C104.828 33.1863 104.198 33.066 103.415 33.066H100.33V46H98.5755ZM105.396 39.4906L108.962 46H106.925L103.415 39.4906H105.396ZM114.911 46.2264C113.864 46.2264 112.96 45.9953 112.201 45.533C111.446 45.066 110.864 44.4151 110.453 43.5802C110.048 42.7406 109.845 41.7642 109.845 40.6509C109.845 39.5377 110.048 38.5566 110.453 37.7075C110.864 36.8538 111.435 36.1887 112.166 35.7123C112.902 35.2311 113.76 34.9906 114.741 34.9906C115.307 34.9906 115.866 35.0849 116.418 35.2736C116.97 35.4623 117.472 35.7689 117.925 36.1934C118.378 36.6132 118.739 37.1698 119.008 37.8632C119.277 38.5566 119.411 39.4104 119.411 40.4245V41.1321H111.034V39.6887H117.713C117.713 39.0755 117.59 38.5283 117.345 38.0472C117.104 37.566 116.76 37.1863 116.312 36.908C115.869 36.6297 115.345 36.4906 114.741 36.4906C114.076 36.4906 113.501 36.6557 113.015 36.9858C112.534 37.3113 112.163 37.7358 111.904 38.2594C111.644 38.783 111.515 39.3443 111.515 39.9434V40.9057C111.515 41.7264 111.656 42.4222 111.939 42.9929C112.227 43.559 112.626 43.9906 113.135 44.2877C113.644 44.5802 114.236 44.7264 114.911 44.7264C115.35 44.7264 115.746 44.6651 116.1 44.5425C116.458 44.4151 116.767 44.2264 117.027 43.9764C117.286 43.7217 117.486 43.4057 117.628 43.0283L119.241 43.4811C119.071 44.0283 118.786 44.5094 118.385 44.9245C117.984 45.3349 117.489 45.6557 116.899 45.8868C116.31 46.1132 115.647 46.2264 114.911 46.2264ZM129.884 35.1321L125.866 46H124.167L120.149 35.1321H121.96L124.96 43.7925H125.073L128.073 35.1321H129.884ZM131.466 46V35.1321H133.136V46H131.466ZM132.315 33.3208C131.989 33.3208 131.709 33.2099 131.473 32.9882C131.242 32.7665 131.126 32.5 131.126 32.1887C131.126 31.8774 131.242 31.6108 131.473 31.3892C131.709 31.1675 131.989 31.0566 132.315 31.0566C132.64 31.0566 132.919 31.1675 133.15 31.3892C133.386 31.6108 133.504 31.8774 133.504 32.1887C133.504 32.5 133.386 32.7665 133.15 32.9882C132.919 33.2099 132.64 33.3208 132.315 33.3208ZM140.128 46.2264C139.081 46.2264 138.177 45.9953 137.418 45.533C136.663 45.066 136.081 44.4151 135.67 43.5802C135.265 42.7406 135.062 41.7642 135.062 40.6509C135.062 39.5377 135.265 38.5566 135.67 37.7075C136.081 36.8538 136.652 36.1887 137.383 35.7123C138.119 35.2311 138.977 34.9906 139.958 34.9906C140.524 34.9906 141.083 35.0849 141.635 35.2736C142.187 35.4623 142.689 35.7689 143.142 36.1934C143.595 36.6132 143.956 37.1698 144.225 37.8632C144.494 38.5566 144.628 39.4104 144.628 40.4245V41.1321H136.251V39.6887H142.93C142.93 39.0755 142.807 38.5283 142.562 38.0472C142.321 37.566 141.977 37.1863 141.529 36.908C141.085 36.6297 140.562 36.4906 139.958 36.4906C139.293 36.4906 138.718 36.6557 138.232 36.9858C137.751 37.3113 137.38 37.7358 137.121 38.2594C136.861 38.783 136.732 39.3443 136.732 39.9434V40.9057C136.732 41.7264 136.873 42.4222 137.156 42.9929C137.444 43.559 137.843 43.9906 138.352 44.2877C138.861 44.5802 139.453 44.7264 140.128 44.7264C140.567 44.7264 140.963 44.6651 141.317 44.5425C141.675 44.4151 141.984 44.2264 142.244 43.9764C142.503 43.7217 142.703 43.4057 142.845 43.0283L144.458 43.4811C144.288 44.0283 144.003 44.5094 143.602 44.9245C143.201 45.3349 142.706 45.6557 142.116 45.8868C141.527 46.1132 140.864 46.2264 140.128 46.2264ZM149.008 46L145.696 35.1321H147.451L149.8 43.4528H149.913L152.234 35.1321H154.017L156.31 43.4245H156.423L158.772 35.1321H160.527L157.215 46H155.574L153.196 37.6509H153.027L150.649 46H149.008ZM169.81 37.566L168.31 37.9906C168.215 37.7406 168.076 37.4976 167.892 37.2618C167.713 37.0212 167.468 36.8231 167.156 36.6675C166.845 36.5118 166.446 36.434 165.96 36.434C165.295 36.434 164.741 36.5873 164.298 36.8939C163.859 37.1958 163.64 37.5802 163.64 38.0472C163.64 38.4623 163.791 38.7901 164.093 39.0307C164.394 39.2712 164.866 39.4717 165.508 39.6321L167.121 40.0283C168.093 40.2642 168.817 40.625 169.293 41.1108C169.769 41.592 170.008 42.2123 170.008 42.9717C170.008 43.5943 169.828 44.1509 169.47 44.6415C169.116 45.1321 168.621 45.5189 167.984 45.8019C167.347 46.0849 166.607 46.2264 165.762 46.2264C164.654 46.2264 163.736 45.9858 163.01 45.5047C162.284 45.0236 161.824 44.3208 161.63 43.3962L163.215 43C163.366 43.5849 163.652 44.0236 164.071 44.316C164.496 44.6085 165.05 44.7547 165.734 44.7547C166.512 44.7547 167.13 44.5896 167.588 44.2594C168.05 43.9245 168.281 43.5236 168.281 43.0566C168.281 42.6792 168.149 42.3632 167.885 42.1085C167.621 41.8491 167.215 41.6557 166.668 41.5283L164.857 41.1038C163.861 40.8679 163.13 40.5024 162.663 40.0071C162.201 39.5071 161.97 38.8821 161.97 38.1321C161.97 37.5189 162.142 36.9764 162.486 36.5047C162.835 36.033 163.31 35.6627 163.909 35.3939C164.512 35.125 165.196 34.9906 165.96 34.9906C167.036 34.9906 167.88 35.2264 168.494 35.6981C169.111 36.1698 169.55 36.7925 169.81 37.566Z" fill="#1757C2"/>
<defs>
<clipPath id="clip0_4383_3699">
<rect width="55" height="55" fill="white"/>
</clipPath>
</defs>
</svg>
