<svg width="140" height="24" viewBox="0 0 140 24" fill="none" xmlns="http://www.w3.org/2000/svg">
<g clip-path="url(#clip0_786_1872)">
<path d="M12 2.5L14.935 8.493L21.5 9.46L16.75 14.122L17.871 20.708L12 17.597L6.12902 20.708L7.25002 14.122L2.50002 9.46L9.06402 8.493L12 2.5Z" fill="#1757C2"/>
<path fill-rule="evenodd" clip-rule="evenodd" d="M12.0001 1.75C12.2864 1.75002 12.5477 1.91302 12.6736 2.17013L15.4349 7.80854L21.6093 8.71801C21.891 8.7595 22.1249 8.95695 22.2131 9.22771C22.3013 9.49846 22.2286 9.7958 22.0254 9.99527L17.5552 14.3826L18.6104 20.5822C18.6583 20.8639 18.542 21.1483 18.3105 21.3158C18.0789 21.4832 17.7724 21.5045 17.5199 21.3707L12 18.4458L6.48019 21.3707C6.22769 21.5045 5.92111 21.4832 5.68956 21.3158C5.458 21.1483 5.34171 20.8639 5.38966 20.5822L6.44487 14.3826L1.97467 9.99527C1.77145 9.79581 1.69871 9.49847 1.7869 9.22772C1.87509 8.95696 2.109 8.75951 2.39071 8.71801L8.56417 7.80854L11.3265 2.17004C11.4525 1.91295 11.7138 1.74998 12.0001 1.75ZM11.9999 4.20499L9.73754 8.82296C9.62883 9.04486 9.41779 9.19898 9.17333 9.23499L4.1026 9.98201L7.77537 13.5867C7.95065 13.7588 8.0306 14.0057 7.98939 14.2478L7.12402 19.332L11.6489 16.9343C11.8685 16.8179 12.1315 16.8179 12.3512 16.9343L16.876 19.332L16.0107 14.2478C15.9694 14.0057 16.0494 13.7588 16.2247 13.5867L19.8974 9.98203L14.8257 9.23499C14.5812 9.19898 14.3702 9.04482 14.2615 8.82287L11.9999 4.20499Z" fill="#1757C2"/>
</g>
<g clip-path="url(#clip1_786_1872)">
<path d="M41 2.5L43.935 8.493L50.5 9.46L45.75 14.122L46.871 20.708L41 17.597L35.129 20.708L36.25 14.122L31.5 9.46L38.064 8.493L41 2.5Z" fill="#1757C2"/>
<path fill-rule="evenodd" clip-rule="evenodd" d="M41.0001 1.75C41.2864 1.75002 41.5477 1.91302 41.6736 2.17013L44.4349 7.80854L50.6093 8.71801C50.891 8.7595 51.1249 8.95695 51.2131 9.22771C51.3013 9.49846 51.2286 9.7958 51.0254 9.99527L46.5552 14.3826L47.6104 20.5822C47.6583 20.8639 47.542 21.1483 47.3105 21.3158C47.0789 21.4832 46.7724 21.5045 46.5199 21.3707L41 18.4458L35.4802 21.3707C35.2277 21.5045 34.9211 21.4832 34.6896 21.3158C34.458 21.1483 34.3417 20.8639 34.3897 20.5822L35.4449 14.3826L30.9747 9.99527C30.7714 9.79581 30.6987 9.49847 30.7869 9.22772C30.8751 8.95696 31.109 8.75951 31.3907 8.71801L37.5642 7.80854L40.3265 2.17004C40.4525 1.91295 40.7138 1.74998 41.0001 1.75ZM40.9999 4.20499L38.7375 8.82296C38.6288 9.04486 38.4178 9.19898 38.1733 9.23499L33.1026 9.98201L36.7754 13.5867C36.9507 13.7588 37.0306 14.0057 36.9894 14.2478L36.124 19.332L40.6489 16.9343C40.8685 16.8179 41.1315 16.8179 41.3512 16.9343L45.876 19.332L45.0107 14.2478C44.9694 14.0057 45.0494 13.7588 45.2247 13.5867L48.8974 9.98203L43.8257 9.23499C43.5812 9.19898 43.3702 9.04482 43.2615 8.82287L40.9999 4.20499Z" fill="#1757C2"/>
</g>
<g clip-path="url(#clip2_786_1872)">
<path d="M70 2.5L72.935 8.493L79.5 9.46L74.75 14.122L75.871 20.708L70 17.597L64.129 20.708L65.25 14.122L60.5 9.46L67.064 8.493L70 2.5Z" fill="#1757C2"/>
<path fill-rule="evenodd" clip-rule="evenodd" d="M70.0001 1.75C70.2864 1.75002 70.5477 1.91302 70.6736 2.17013L73.4349 7.80854L79.6093 8.71801C79.891 8.7595 80.1249 8.95695 80.2131 9.22771C80.3013 9.49846 80.2286 9.7958 80.0254 9.99527L75.5552 14.3826L76.6104 20.5822C76.6583 20.8639 76.542 21.1483 76.3105 21.3158C76.0789 21.4832 75.7724 21.5045 75.5199 21.3707L70 18.4458L64.4802 21.3707C64.2277 21.5045 63.9211 21.4832 63.6896 21.3158C63.458 21.1483 63.3417 20.8639 63.3897 20.5822L64.4449 14.3826L59.9747 9.99527C59.7714 9.79581 59.6987 9.49847 59.7869 9.22772C59.8751 8.95696 60.109 8.75951 60.3907 8.71801L66.5642 7.80854L69.3265 2.17004C69.4525 1.91295 69.7138 1.74998 70.0001 1.75ZM69.9999 4.20499L67.7375 8.82296C67.6288 9.04486 67.4178 9.19898 67.1733 9.23499L62.1026 9.98201L65.7754 13.5867C65.9507 13.7588 66.0306 14.0057 65.9894 14.2478L65.124 19.332L69.6489 16.9343C69.8685 16.8179 70.1315 16.8179 70.3512 16.9343L74.876 19.332L74.0107 14.2478C73.9694 14.0057 74.0494 13.7588 74.2247 13.5867L77.8974 9.98203L72.8257 9.23499C72.5812 9.19898 72.3702 9.04482 72.2615 8.82287L69.9999 4.20499Z" fill="#1757C2"/>
</g>
<g clip-path="url(#clip3_786_1872)">
<path d="M99 2.5L101.935 8.493L108.5 9.46L103.75 14.122L104.871 20.708L99 17.597L93.129 20.708L94.25 14.122L89.5 9.46L96.064 8.493L99 2.5Z" fill="#1757C2"/>
<path fill-rule="evenodd" clip-rule="evenodd" d="M99.0001 1.75C99.2864 1.75002 99.5477 1.91302 99.6736 2.17013L102.435 7.80854L108.609 8.71801C108.891 8.7595 109.125 8.95695 109.213 9.22771C109.301 9.49846 109.229 9.7958 109.025 9.99527L104.555 14.3826L105.61 20.5822C105.658 20.8639 105.542 21.1483 105.31 21.3158C105.079 21.4832 104.772 21.5045 104.52 21.3707L99 18.4458L93.4802 21.3707C93.2277 21.5045 92.9211 21.4832 92.6896 21.3158C92.458 21.1483 92.3417 20.8639 92.3897 20.5822L93.4449 14.3826L88.9747 9.99527C88.7714 9.79581 88.6987 9.49847 88.7869 9.22772C88.8751 8.95696 89.109 8.75951 89.3907 8.71801L95.5642 7.80854L98.3265 2.17004C98.4525 1.91295 98.7138 1.74998 99.0001 1.75ZM98.9999 4.20499L96.7375 8.82296C96.6288 9.04486 96.4178 9.19898 96.1733 9.23499L91.1026 9.98201L94.7754 13.5867C94.9507 13.7588 95.0306 14.0057 94.9894 14.2478L94.124 19.332L98.6489 16.9343C98.8685 16.8179 99.1315 16.8179 99.3512 16.9343L103.876 19.332L103.011 14.2478C102.969 14.0057 103.049 13.7588 103.225 13.5867L106.897 9.98203L101.826 9.23499C101.581 9.19898 101.37 9.04482 101.261 8.82287L98.9999 4.20499Z" fill="#1757C2"/>
</g>
<g clip-path="url(#clip4_786_1872)">
<path fill-rule="evenodd" clip-rule="evenodd" d="M128 1.75C128.286 1.75002 128.548 1.91302 128.674 2.17013L131.435 7.80854L137.609 8.71801C137.891 8.7595 138.125 8.95695 138.213 9.22771C138.301 9.49846 138.229 9.7958 138.025 9.99527L133.555 14.3826L134.61 20.5822C134.658 20.8639 134.542 21.1483 134.31 21.3158C134.079 21.4832 133.772 21.5045 133.52 21.3707L128 18.4458L122.48 21.3707C122.228 21.5045 121.921 21.4832 121.69 21.3158C121.458 21.1483 121.342 20.8639 121.39 20.5822L122.445 14.3826L117.975 9.99527C117.771 9.79581 117.699 9.49847 117.787 9.22772C117.875 8.95696 118.109 8.75951 118.391 8.71801L124.564 7.80854L127.327 2.17004C127.452 1.91295 127.714 1.74998 128 1.75ZM128 4.20499L125.738 8.82296C125.629 9.04486 125.418 9.19898 125.173 9.23499L120.103 9.98201L123.775 13.5867C123.951 13.7588 124.031 14.0057 123.989 14.2478L123.124 19.332L127.649 16.9343C127.869 16.8179 128.132 16.8179 128.351 16.9343L132.876 19.332L132.011 14.2478C131.969 14.0057 132.049 13.7588 132.225 13.5867L135.897 9.98203L130.826 9.23499C130.581 9.19898 130.37 9.04482 130.261 8.82287L128 4.20499Z" fill="#1757C2"/>
</g>
<defs>
<clipPath id="clip0_786_1872">
<rect width="24" height="24" fill="white"/>
</clipPath>
<clipPath id="clip1_786_1872">
<rect width="24" height="24" fill="white" transform="translate(29)"/>
</clipPath>
<clipPath id="clip2_786_1872">
<rect width="24" height="24" fill="white" transform="translate(58)"/>
</clipPath>
<clipPath id="clip3_786_1872">
<rect width="24" height="24" fill="white" transform="translate(87)"/>
</clipPath>
<clipPath id="clip4_786_1872">
<rect width="24" height="24" fill="white" transform="translate(116)"/>
</clipPath>
</defs>
</svg>
