<svg width="54" height="54" viewBox="0 0 54 54" fill="none" xmlns="http://www.w3.org/2000/svg">
<g clip-path="url(#clip0_121_3825)">
<path d="M26.5113 53.2599C41.1531 53.2599 53.0226 41.3904 53.0226 26.7486C53.0226 12.1068 41.1531 0.237305 26.5113 0.237305C11.8695 0.237305 0 12.1068 0 26.7486C0 41.3904 11.8695 53.2599 26.5113 53.2599Z" fill="#062846"/>
<path d="M37.9863 20.5412H33.4581C33.5801 19.8307 34.0202 19.4331 34.911 18.9824L35.7434 18.5582C37.2333 17.7947 38.0287 16.9304 38.0287 15.52C38.0287 14.6345 37.684 13.9346 37 13.4309C36.316 12.9272 35.5101 12.678 34.5663 12.678C33.8362 12.6694 33.1194 12.8739 32.5037 13.2665C31.8834 13.6483 31.4221 14.1414 31.1357 14.7565L32.4454 16.0714C32.9544 15.0428 33.6914 14.5391 34.6617 14.5391C35.4836 14.5391 35.9873 14.9633 35.9873 15.5518C35.9873 16.0449 35.7434 16.4532 34.7996 16.9304L34.2641 17.1902C33.1029 17.7788 32.2969 18.4522 31.8303 19.2157C31.3637 19.9792 31.1357 20.9389 31.1357 22.1001V22.4182H37.9863V20.5412Z" fill="white"/>
<path d="M37.3833 24.583H29.8859L26.1372 31.073H33.6346L37.3833 37.5682L41.132 31.073L37.3833 24.583Z" fill="white"/>
<path d="M26.7838 35.4058C22.0118 35.4058 18.1252 31.5192 18.1252 26.7472C18.1252 21.9752 22.0118 18.0886 26.7838 18.0886L29.7478 11.8903C28.7717 11.6962 27.779 11.5985 26.7838 11.5986C18.4168 11.5986 11.6353 18.3802 11.6353 26.7472C11.6353 35.1142 18.4168 41.8957 26.7838 41.8957C29.9902 41.9017 33.1147 40.8838 35.7022 38.9901L32.4254 33.3061C30.8577 34.6603 28.8554 35.4055 26.7838 35.4058V35.4058Z" fill="white"/>
</g>
<defs>
<clipPath id="clip0_121_3825">
<rect width="53.0226" height="53.0226" fill="white" transform="translate(0 0.237305)"/>
</clipPath>
</defs>
</svg>
