<?xml version="1.0" encoding="UTF-8"?>
<svg width="99px" height="24px" viewBox="0 0 99 24" version="1.1" xmlns="http://www.w3.org/2000/svg" xmlns:xlink="http://www.w3.org/1999/xlink">
    <title>Logo_Gartner_White</title>
    <g id="Symbols" stroke="none" stroke-width="1" fill="none" fill-rule="evenodd">
        <g id="Logo_Gartner_White">
            <rect id="bounding-box" x="0" y="0" width="98.8235294" height="22.5882353"></rect>
            <path d="M95.6111087,10.5635699 L94.2560975,10.5635699 C92.0970516,10.5635699 90.9720933,12.3017039 90.9720933,13.9626643 L90.9720933,21.4669341 L87.139413,21.4669341 L87.139413,7.24280096 L90.7696468,7.24280096 L90.8478647,9.01894585 C91.6116402,7.8025976 92.9447963,7.24280096 94.5862233,7.24280096 L95.8894726,7.24280096 L95.6111087,10.5635699 Z" id="Fill-1" fill="#FFFFFF"></path>
            <path d="M69.3172199,21.4669341 L65.477638,21.4669341 L65.477638,13.9476903 C65.477638,12.3731183 65.3430571,10.391945 63.1322494,10.391945 C60.9996596,10.391945 60.1530652,11.9285062 60.1530652,13.7242324 L60.1530652,21.4669341 L56.3157839,21.4669341 L56.3157839,7.24280096 L59.8724007,7.24280096 L59.9529192,9.06041227 C60.7166946,7.84406402 62.1361206,6.89609563 64.2307517,6.89609563 C68.094489,6.89609563 69.3172199,9.66052348 69.3172199,12.5366803 L69.3172199,21.4669341" id="Fill-2" fill="#FFFFFF"></path>
            <path d="M54.64445,18.1438614 L54.3764385,21.378242 C53.4562271,21.6304961 52.6383893,21.7157326 51.6537632,21.7157326 C48.0396331,21.7157326 46.9882917,20.0536203 46.9882917,16.7201811 L46.9882917,3.23322874 L50.8267232,3.23322874 L50.8267232,7.24280096 L54.64445,7.24280096 L54.3764385,10.5635699 L50.8267232,10.5635699 L50.8267232,16.4322199 C50.8267232,17.76836 51.191357,18.4917186 52.5659227,18.4917186 C53.1571584,18.4917186 53.8243117,18.4203042 54.64445,18.1438614" id="Fill-3" fill="#FFFFFF"></path>
            <path d="M45.4331345,10.5635699 L44.3909951,10.5635699 C42.2319493,10.5635699 41.155302,12.2982484 41.155302,13.9626643 L41.155302,21.4669341 L37.3226218,21.4669341 L37.3226218,7.24280096 L40.955156,7.24280096 L41.0322237,9.01894585 C41.7959992,7.8025976 43.1280051,7.24280096 44.7751834,7.24280096 L45.7299026,7.24280096 L45.4331345,10.5635699 Z" id="Fill-4" fill="#FFFFFF"></path>
            <path d="M20.0111459,19.892362 C17.4115489,21.2860944 14.8119518,22.0877785 11.3795635,21.9887198 C5.01400155,21.7929062 0.423297217,17.8374707 0.423297217,11.1533145 C0.423297217,4.49680263 5.06001212,0.244191126 11.3807138,0.147436152 C14.5876503,0.0979068196 17.4541086,0.912261189 19.6948232,2.89343448 L16.9951532,5.62791436 C15.6079346,4.44496961 13.5685162,3.75155896 11.1299562,3.86328792 C7.15119239,4.04527942 4.75174132,6.94447312 4.69997943,10.9252492 C4.64821754,15.2366048 7.28922409,18.2106684 11.4175222,18.3200937 C13.3614687,18.3684712 14.7509878,18.1070024 15.9576149,17.5656353 L15.9576149,13.1563729 L11.6671296,13.1563729 L11.9546956,9.53727607 L20.0111459,9.53727607 L20.0111459,19.892362" id="Fill-5" fill="#FFFFFF"></path>
            <path d="M85.4255194,15.7042539 L74.908654,15.7042539 C75.2077227,17.5207133 76.6340503,18.6138142 78.4112085,18.666799 C80.1389053,18.7151765 81.1028266,18.1887834 82.366967,16.9090837 L84.8699418,18.8199944 C83.0927837,21.014259 80.9590436,21.8170949 78.5262349,21.8170949 C74.2484024,21.8170949 71.0449167,18.8199944 71.0449167,14.3531397 C71.0449167,9.89549985 74.2322987,6.89609563 78.3663482,6.89609563 C82.9225446,6.89609563 85.4255194,9.66052348 85.4255194,14.5673829 L85.4255194,15.7042539 L85.4255194,15.7042539 Z M81.5813365,12.7313421 C81.4640096,10.9367677 80.1182005,9.79874487 78.269726,9.87246295 C76.4051477,9.94387733 75.1651629,11.1567701 74.908654,12.7313421 L81.5813365,12.7313421 L81.5813365,12.7313421 Z" id="Fill-6" fill="#FFFFFF"></path>
            <path d="M34.9082173,12.1531159 L34.9082173,21.4669341 L31.5241401,21.4669341 L31.441321,20.0616833 C30.4037827,21.3494459 28.7163452,21.8170949 26.9851976,21.8170949 C24.3740979,21.8170949 21.905631,20.5235731 21.8550194,17.5207133 C21.7779517,12.7981491 27.161188,12.4618104 30.5406642,12.4618104 L31.21932,12.4618104 L31.21932,12.2763633 C31.21932,10.7156134 30.1852325,9.87246295 28.2447369,9.87246295 C26.8483162,9.87246295 25.4726002,10.4334114 24.4546164,11.3882909 L22.2403579,9.13413034 C24.2510197,7.50426976 26.3410497,6.89609563 28.5702616,6.89609563 C32.9688719,6.89609563 34.9082173,8.93255748 34.9082173,12.1531159 L34.9082173,12.1531159 Z M31.21932,15.2596417 L30.6821467,15.2596417 C28.8670298,15.2688565 25.6784975,15.3575485 25.6888499,17.2592445 C25.7084044,19.9349803 31.21932,19.0883743 31.21932,15.8539937 L31.21932,15.2596417 L31.21932,15.2596417 Z" id="Fill-7" fill="#FFFFFF"></path>
            <path d="M93.0015934,20.3685762 C93.0015934,19.1987676 93.8723564,18.3147137 94.9912796,18.3147137 C96.0925819,18.3147137 96.9618766,19.1987676 96.9618766,20.3685762 C96.9618766,21.5592212 96.0925819,22.4373218 94.9912796,22.4373218 C93.8723564,22.4373218 93.0015934,21.5592212 93.0015934,20.3685762 L93.0015934,20.3685762 Z M94.9912796,22.846606 C96.3172476,22.846606 97.4523232,21.8018151 97.4523232,20.3685762 C97.4523232,18.9517088 96.3172476,17.9054295 94.9912796,17.9054295 C93.6462224,17.9054295 92.5111467,18.9517088 92.5111467,20.3685762 C92.5111467,21.8018151 93.6462224,22.846606 94.9912796,22.846606 L94.9912796,22.846606 Z M94.4729333,20.5680093 L94.9633799,20.5680093 L95.7063919,21.8018151 L96.1821545,21.8018151 L95.3848116,20.547173 C95.7974329,20.4950823 96.1160764,20.2718363 96.1160764,19.7613473 C96.1160764,19.1987676 95.7827489,18.9517088 95.1175623,18.9517088 L94.0485648,18.9517088 L94.0485648,21.8018151 L94.4729333,21.8018151 L94.4729333,20.5680093 L94.4729333,20.5680093 Z M94.4729333,20.1959327 L94.4729333,19.3178321 L95.0544209,19.3178321 C95.34957,19.3178321 95.6682134,19.3818292 95.6682134,19.7330695 C95.6682134,20.1721198 95.3407595,20.1959327 94.985406,20.1959327 L94.4729333,20.1959327 L94.4729333,20.1959327 Z" id="Fill-8" fill="#FFFFFF"></path>
        </g>
    </g>
</svg>