<svg width="1155" height="111" viewBox="0 0 1155 111" fill="none" xmlns="http://www.w3.org/2000/svg">
<path d="M34.6812 59.9095L39.257 73.2997H39.4417L44.0175 59.9095H46.6987L40.7823 76.3503H37.9164L31.9999 59.9095H34.6812ZM52.9584 76.5991C51.7435 76.5991 50.6972 76.3396 49.8195 75.8204C48.9472 75.296 48.2728 74.5601 47.7965 73.6128C47.3256 72.6602 47.0901 71.5443 47.0901 70.2652C47.0901 69.0022 47.3256 67.889 47.7965 66.9257C48.2728 65.9624 48.9365 65.2104 49.7874 64.6699C50.6437 64.1294 51.6445 63.8591 52.7898 63.8591C53.4855 63.8591 54.1599 63.9742 54.8128 64.2043C55.4657 64.4344 56.0517 64.7957 56.5709 65.288C57.09 65.7804 57.4994 66.42 57.7991 67.2067C58.0988 67.988 58.2487 68.938 58.2487 70.0565V70.9075H48.4468V69.1093H55.8965C55.8965 68.4777 55.7681 67.9185 55.5112 67.4315C55.2543 66.9391 54.8931 66.5511 54.4274 66.2674C53.9672 65.9838 53.4267 65.842 52.8058 65.842C52.1315 65.842 51.5428 66.0079 51.0397 66.3397C50.542 66.6661 50.1567 67.0943 49.8837 67.6241C49.6161 68.1486 49.4824 68.7186 49.4824 69.334V70.7389C49.4824 71.5631 49.6269 72.2642 49.9159 72.8422C50.2102 73.4202 50.6196 73.8617 51.1441 74.1667C51.6686 74.4664 52.2814 74.6163 52.9824 74.6163C53.4374 74.6163 53.8521 74.5521 54.2268 74.4236C54.6014 74.2898 54.9252 74.0918 55.1981 73.8296C55.4711 73.5673 55.6798 73.2435 55.8243 72.8582L58.0961 73.2676C57.9142 73.9366 57.5877 74.5226 57.1167 75.0257C56.6511 75.5234 56.0651 75.9114 55.3587 76.1897C54.6576 76.4627 53.8575 76.5991 52.9584 76.5991ZM63.3122 69.029V76.3503H60.9119V64.0197H63.2158V66.0266H63.3683C63.652 65.3737 64.0962 64.8492 64.701 64.4532C65.3111 64.0571 66.079 63.8591 67.0049 63.8591C67.8452 63.8591 68.581 64.0357 69.2125 64.3889C69.8441 64.7368 70.3338 65.2559 70.6816 65.9463C71.0295 66.6367 71.2034 67.4903 71.2034 68.5072V76.3503H68.8031V68.7962C68.8031 67.9024 68.5703 67.204 68.1047 66.7009C67.6391 66.1925 66.9996 65.9383 66.1861 65.9383C65.6295 65.9383 65.1344 66.0587 64.701 66.2995C64.2728 66.5404 63.933 66.8936 63.6814 67.3592C63.4352 67.8195 63.3122 68.3761 63.3122 69.029ZM79.0385 76.5911C78.0431 76.5911 77.1547 76.3369 76.3733 75.8285C75.5973 75.3147 74.9872 74.5842 74.543 73.6369C74.1041 72.6843 73.8847 71.5417 73.8847 70.2091C73.8847 68.8764 74.1068 67.7365 74.551 66.7892C75.0005 65.842 75.616 65.1168 76.3974 64.6137C77.1787 64.1106 78.0645 63.8591 79.0546 63.8591C79.8199 63.8591 80.4353 63.9876 80.9009 64.2444C81.3719 64.496 81.7358 64.7903 81.9927 65.1275C82.255 65.4647 82.4583 65.7617 82.6028 66.0186H82.7473V59.9095H85.1476V76.3503H82.8035V74.4316H82.6028C82.4583 74.6939 82.2496 74.9936 81.9767 75.3308C81.7091 75.6679 81.3398 75.9623 80.8688 76.2138C80.3979 76.4653 79.7878 76.5911 79.0385 76.5911ZM79.5683 74.544C80.2587 74.544 80.8421 74.3621 81.3184 73.9982C81.8001 73.6289 82.164 73.1178 82.4102 72.4649C82.6617 71.8119 82.7875 71.052 82.7875 70.185C82.7875 69.3287 82.6644 68.5794 82.4182 67.9372C82.172 67.295 81.8108 66.7946 81.3344 66.436C80.8581 66.0774 80.2694 65.8982 79.5683 65.8982C78.8458 65.8982 78.2438 66.0855 77.7621 66.4601C77.2804 66.8347 76.9165 67.3458 76.6703 67.9934C76.4295 68.641 76.3091 69.3715 76.3091 70.185C76.3091 71.0092 76.4322 71.7504 76.6783 72.4087C76.9245 73.0669 77.2885 73.5887 77.7701 73.9741C78.2571 74.354 78.8565 74.544 79.5683 74.544ZM93.7674 76.5991C92.6114 76.5991 91.6026 76.3342 90.7409 75.8044C89.8793 75.2746 89.2103 74.5333 88.734 73.5807C88.2577 72.6281 88.0195 71.5149 88.0195 70.2412C88.0195 68.9621 88.2577 67.8435 88.734 66.8856C89.2103 65.9276 89.8793 65.1837 90.7409 64.6539C91.6026 64.124 92.6114 63.8591 93.7674 63.8591C94.9234 63.8591 95.9322 64.124 96.7939 64.6539C97.6555 65.1837 98.3245 65.9276 98.8008 66.8856C99.2771 67.8435 99.5153 68.9621 99.5153 70.2412C99.5153 71.5149 99.2771 72.6281 98.8008 73.5807C98.3245 74.5333 97.6555 75.2746 96.7939 75.8044C95.9322 76.3342 94.9234 76.5991 93.7674 76.5991ZM93.7754 74.5842C94.5247 74.5842 95.1455 74.3862 95.6379 73.9901C96.1302 73.5941 96.4942 73.0669 96.7296 72.4087C96.9705 71.7504 97.0909 71.0252 97.0909 70.2331C97.0909 69.4464 96.9705 68.7239 96.7296 68.0656C96.4942 67.402 96.1302 66.8695 95.6379 66.4681C95.1455 66.0667 94.5247 65.866 93.7754 65.866C93.0208 65.866 92.3947 66.0667 91.8969 66.4681C91.4046 66.8695 91.038 67.402 90.7971 68.0656C90.5617 68.7239 90.4439 69.4464 90.4439 70.2331C90.4439 71.0252 90.5617 71.7504 90.7971 72.4087C91.038 73.0669 91.4046 73.5941 91.8969 73.9901C92.3947 74.3862 93.0208 74.5842 93.7754 74.5842ZM102.195 76.3503V64.0197H104.515V65.9784H104.643C104.868 65.3148 105.264 64.793 105.831 64.413C106.404 64.0277 107.051 63.835 107.774 63.835C107.924 63.835 108.1 63.8404 108.304 63.8511C108.512 63.8618 108.676 63.8752 108.793 63.8912V66.1872C108.697 66.1604 108.526 66.131 108.28 66.0988C108.033 66.0614 107.787 66.0427 107.541 66.0427C106.974 66.0427 106.468 66.1631 106.024 66.4039C105.585 66.6394 105.237 66.9685 104.98 67.3913C104.723 67.8088 104.595 68.2851 104.595 68.8203V76.3503H102.195ZM126.013 64.2284C125.927 63.4684 125.574 62.8797 124.953 62.4623C124.332 62.0395 123.551 61.8281 122.609 61.8281C121.935 61.8281 121.351 61.9351 120.859 62.1492C120.367 62.3579 119.984 62.6469 119.711 63.0162C119.443 63.3801 119.31 63.7949 119.31 64.2605C119.31 64.6512 119.401 64.9883 119.583 65.272C119.77 65.5556 120.013 65.7938 120.313 65.9865C120.618 66.1738 120.945 66.3317 121.293 66.4601C121.64 66.5832 121.975 66.6849 122.296 66.7652L123.902 67.1826C124.426 67.311 124.964 67.485 125.515 67.7044C126.066 67.9238 126.577 68.2128 127.048 68.5714C127.519 68.93 127.899 69.3742 128.188 69.904C128.483 70.4338 128.63 71.068 128.63 71.8066C128.63 72.7378 128.389 73.5647 127.907 74.2872C127.431 75.0096 126.738 75.5796 125.828 75.9971C124.924 76.4145 123.829 76.6232 122.545 76.6232C121.314 76.6232 120.249 76.4279 119.35 76.0372C118.451 75.6465 117.747 75.0926 117.239 74.3755C116.73 73.653 116.449 72.7967 116.396 71.8066H118.884C118.932 72.4006 119.125 72.8957 119.462 73.2917C119.805 73.6824 120.241 73.9741 120.771 74.1667C121.306 74.354 121.892 74.4477 122.529 74.4477C123.23 74.4477 123.853 74.338 124.399 74.1186C124.951 73.8938 125.384 73.5834 125.7 73.1873C126.016 72.786 126.173 72.3177 126.173 71.7825C126.173 71.2955 126.034 70.8968 125.756 70.5864C125.483 70.276 125.111 70.0191 124.64 69.8157C124.174 69.6123 123.647 69.433 123.059 69.2778L121.116 68.748C119.799 68.3894 118.756 67.8623 117.985 67.1665C117.22 66.4708 116.837 65.5503 116.837 64.405C116.837 63.4577 117.094 62.6309 117.608 61.9244C118.122 61.218 118.817 60.6694 119.695 60.2787C120.573 59.8827 121.563 59.6847 122.665 59.6847C123.778 59.6847 124.761 59.88 125.611 60.2707C126.468 60.6614 127.142 61.1992 127.634 61.8843C128.127 62.564 128.384 63.3453 128.405 64.2284H126.013ZM139.212 71.2366V64.0197H141.621V76.3503H139.261V74.2149H139.132C138.849 74.8732 138.394 75.4217 137.767 75.8606C137.147 76.2941 136.373 76.5108 135.447 76.5108C134.655 76.5108 133.954 76.3369 133.344 75.989C132.739 75.6358 132.263 75.114 131.915 74.4236C131.573 73.7332 131.401 72.8796 131.401 71.8628V64.0197H133.802V71.5738C133.802 72.414 134.035 73.083 134.5 73.5807C134.966 74.0784 135.571 74.3273 136.314 74.3273C136.764 74.3273 137.211 74.2149 137.655 73.9901C138.105 73.7653 138.477 73.4255 138.771 72.9706C139.071 72.5157 139.218 71.9377 139.212 71.2366ZM144.846 76.3503V64.0197H147.15V66.0266H147.302C147.559 65.3469 147.979 64.8171 148.563 64.4371C149.146 64.0518 149.845 63.8591 150.658 63.8591C151.482 63.8591 152.173 64.0518 152.729 64.4371C153.291 64.8224 153.706 65.3523 153.973 66.0266H154.102C154.396 65.3683 154.865 64.8438 155.507 64.4532C156.149 64.0571 156.914 63.8591 157.803 63.8591C158.921 63.8591 159.834 64.2097 160.54 64.9107C161.252 65.6118 161.608 66.6688 161.608 68.0817V76.3503H159.208V68.3065C159.208 67.4716 158.98 66.8668 158.525 66.4922C158.07 66.1176 157.527 65.9303 156.896 65.9303C156.114 65.9303 155.507 66.1711 155.073 66.6528C154.64 67.1291 154.423 67.7419 154.423 68.4911V76.3503H152.031V68.154C152.031 67.485 151.822 66.9471 151.405 66.5404C150.987 66.1336 150.444 65.9303 149.775 65.9303C149.32 65.9303 148.9 66.0507 148.515 66.2915C148.135 66.527 147.827 66.8561 147.591 67.2789C147.361 67.7017 147.246 68.1914 147.246 68.748V76.3503H144.846ZM164.825 76.3503V64.0197H167.129V66.0266H167.281C167.538 65.3469 167.958 64.8171 168.542 64.4371C169.125 64.0518 169.824 63.8591 170.637 63.8591C171.461 63.8591 172.152 64.0518 172.708 64.4371C173.27 64.8224 173.685 65.3523 173.953 66.0266H174.081C174.375 65.3683 174.844 64.8438 175.486 64.4532C176.128 64.0571 176.893 63.8591 177.782 63.8591C178.9 63.8591 179.813 64.2097 180.519 64.9107C181.231 65.6118 181.587 66.6688 181.587 68.0817V76.3503H179.187V68.3065C179.187 67.4716 178.959 66.8668 178.504 66.4922C178.049 66.1176 177.506 65.9303 176.875 65.9303C176.093 65.9303 175.486 66.1711 175.052 66.6528C174.619 67.1291 174.402 67.7419 174.402 68.4911V76.3503H172.01V68.154C172.01 67.485 171.801 66.9471 171.384 66.5404C170.966 66.1336 170.423 65.9303 169.754 65.9303C169.299 65.9303 168.879 66.0507 168.494 66.2915C168.114 66.527 167.806 66.8561 167.57 67.2789C167.34 67.7017 167.225 68.1914 167.225 68.748V76.3503H164.825ZM188.392 76.6232C187.611 76.6232 186.905 76.4787 186.273 76.1897C185.642 75.8954 185.141 75.4699 184.772 74.9133C184.408 74.3567 184.226 73.6744 184.226 72.8662C184.226 72.1705 184.36 71.5979 184.627 71.1483C184.895 70.6987 185.256 70.3429 185.711 70.0806C186.166 69.8184 186.675 69.6204 187.236 69.4866C187.798 69.3528 188.371 69.2511 188.954 69.1815C189.693 69.0959 190.292 69.0263 190.753 68.9728C191.213 68.9139 191.547 68.8203 191.756 68.6918C191.965 68.5634 192.069 68.3546 192.069 68.0656V68.0095C192.069 67.3084 191.871 66.7652 191.475 66.3798C191.084 65.9945 190.501 65.8018 189.725 65.8018C188.917 65.8018 188.28 65.9811 187.814 66.3397C187.354 66.6929 187.036 67.0863 186.859 67.5198L184.603 67.006C184.871 66.2567 185.262 65.652 185.775 65.1917C186.295 64.7261 186.891 64.3889 187.566 64.1802C188.24 63.9661 188.949 63.8591 189.693 63.8591C190.185 63.8591 190.707 63.918 191.258 64.0357C191.815 64.1481 192.334 64.3568 192.816 64.6619C193.303 64.9669 193.701 65.4031 194.012 65.9704C194.322 66.5323 194.477 67.2629 194.477 68.162V76.3503H192.133V74.6645H192.037C191.882 74.9749 191.649 75.2799 191.339 75.5796C191.028 75.8793 190.63 76.1282 190.143 76.3262C189.655 76.5242 189.072 76.6232 188.392 76.6232ZM188.914 74.6966C189.578 74.6966 190.145 74.5654 190.616 74.3032C191.092 74.041 191.454 73.6984 191.7 73.2757C191.951 72.8475 192.077 72.3899 192.077 71.9029V70.3134C191.992 70.399 191.826 70.4793 191.579 70.5542C191.339 70.6238 191.063 70.6854 190.753 70.7389C190.442 70.7871 190.14 70.8325 189.845 70.8754C189.551 70.9128 189.305 70.9449 189.107 70.9717C188.641 71.0306 188.216 71.1296 187.831 71.2687C187.451 71.4079 187.145 71.6086 186.915 71.8708C186.691 72.1277 186.578 72.4702 186.578 72.8984C186.578 73.4924 186.798 73.942 187.236 74.247C187.675 74.5467 188.235 74.6966 188.914 74.6966ZM197.675 76.3503V64.0197H199.995V65.9784H200.123C200.348 65.3148 200.744 64.793 201.311 64.413C201.884 64.0277 202.531 63.835 203.254 63.835C203.404 63.835 203.58 63.8404 203.784 63.8511C203.992 63.8618 204.156 63.8752 204.273 63.8912V66.1872C204.177 66.1604 204.006 66.131 203.76 66.0988C203.513 66.0614 203.267 66.0427 203.021 66.0427C202.454 66.0427 201.948 66.1631 201.504 66.4039C201.065 66.6394 200.717 66.9685 200.46 67.3913C200.203 67.8088 200.075 68.2851 200.075 68.8203V76.3503H197.675ZM208.243 80.9743C207.884 80.9743 207.558 80.9448 207.264 80.886C206.969 80.8324 206.75 80.7736 206.605 80.7093L207.183 78.7425C207.622 78.8603 208.013 78.9111 208.355 78.8951C208.698 78.879 209 78.7506 209.263 78.5097C209.53 78.2689 209.766 77.8756 209.969 77.3297L210.266 76.5108L205.754 64.0197H208.323L211.446 73.5887H211.575L214.697 64.0197H217.274L212.193 77.996C211.957 78.6382 211.658 79.1814 211.294 79.6256C210.93 80.0752 210.496 80.4123 209.993 80.6371C209.49 80.8619 208.907 80.9743 208.243 80.9743Z" fill="#131520"/>
<path d="M33.0886 36.1685L36.1113 44.7395H36.2306L39.2533 36.1685H40.5459L36.8073 46.3503H35.5346L31.7959 36.1685H33.0886ZM44.4636 46.5094C43.7278 46.5094 43.0931 46.347 42.5594 46.0222C42.0291 45.694 41.6198 45.2366 41.3315 44.65C41.0464 44.06 40.9039 43.374 40.9039 42.5918C40.9039 41.8096 41.0464 41.1202 41.3315 40.5236C41.6198 39.9237 42.0208 39.4563 42.5346 39.1216C43.0516 38.7835 43.6548 38.6145 44.3442 38.6145C44.742 38.6145 45.1347 38.6808 45.5225 38.8133C45.9103 38.9459 46.2633 39.1614 46.5815 39.4597C46.8996 39.7546 47.1532 40.1457 47.3421 40.633C47.531 41.1202 47.6255 41.7201 47.6255 42.4327V42.9298H41.7391V41.9156H46.4323C46.4323 41.4848 46.3461 41.1003 46.1738 40.7622C46.0047 40.4241 45.7628 40.1573 45.4479 39.9618C45.1364 39.7662 44.7685 39.6685 44.3442 39.6685C43.8769 39.6685 43.4726 39.7845 43.1312 40.0165C42.7931 40.2452 42.5329 40.5435 42.3506 40.9114C42.1683 41.2793 42.0772 41.6737 42.0772 42.0946V42.7707C42.0772 43.3474 42.1766 43.8363 42.3755 44.2374C42.5777 44.6351 42.8577 44.9383 43.2157 45.1472C43.5736 45.3526 43.9896 45.4554 44.4636 45.4554C44.7718 45.4554 45.0502 45.4123 45.2988 45.3261C45.5507 45.2366 45.7678 45.1041 45.9501 44.9284C46.1324 44.7494 46.2732 44.5274 46.3726 44.2622L47.5062 44.5804C47.3869 44.9649 47.1863 45.3029 46.9046 45.5946C46.6229 45.883 46.2749 46.1083 45.8606 46.2707C45.4463 46.4298 44.9806 46.5094 44.4636 46.5094ZM50.5836 41.7565V46.3503H49.4103V38.7139H50.5438V39.9071H50.6432C50.8222 39.5193 51.094 39.2078 51.4586 38.9724C51.8232 38.7338 52.2938 38.6145 52.8705 38.6145C53.3876 38.6145 53.84 38.7205 54.2278 38.9327C54.6155 39.1415 54.9172 39.4597 55.1326 39.8872C55.348 40.3115 55.4557 40.8484 55.4557 41.498V46.3503H54.2824V41.5776C54.2824 40.9776 54.1267 40.5103 53.8151 40.1756C53.5036 39.8375 53.076 39.6685 52.5324 39.6685C52.1579 39.6685 51.8232 39.7497 51.5282 39.9121C51.2365 40.0745 51.0062 40.3115 50.8371 40.623C50.6681 40.9346 50.5836 41.3124 50.5836 41.7565ZM60.4833 46.5094C59.8469 46.5094 59.2851 46.3486 58.7979 46.0271C58.3107 45.7023 57.9295 45.2449 57.6544 44.655C57.3793 44.0617 57.2418 43.3607 57.2418 42.552C57.2418 41.7499 57.3793 41.0539 57.6544 40.4639C57.9295 39.874 58.3123 39.4182 58.8029 39.0967C59.2934 38.7752 59.8602 38.6145 60.5032 38.6145C61.0003 38.6145 61.3931 38.6973 61.6814 38.8631C61.9731 39.0255 62.1951 39.2111 62.3476 39.4199C62.5034 39.6254 62.6244 39.7944 62.7105 39.927H62.81V36.1685H63.9833V46.3503H62.8497V45.177H62.7105C62.6244 45.3162 62.5017 45.4919 62.3426 45.704C62.1835 45.9128 61.9565 46.1 61.6615 46.2658C61.3666 46.4282 60.9738 46.5094 60.4833 46.5094ZM60.6424 45.4554C61.113 45.4554 61.5107 45.3328 61.8355 45.0875C62.1603 44.8389 62.4073 44.4959 62.5763 44.0584C62.7453 43.6176 62.8299 43.1088 62.8299 42.5321C62.8299 41.962 62.747 41.4632 62.5813 41.0356C62.4156 40.6048 62.1703 40.27 61.8455 40.0314C61.5207 39.7894 61.1196 39.6685 60.6424 39.6685C60.1452 39.6685 59.7309 39.7961 59.3995 40.0513C59.0713 40.3032 58.8244 40.6462 58.6587 41.0804C58.4963 41.5113 58.4151 41.9952 58.4151 42.5321C58.4151 43.0757 58.4979 43.5695 58.6637 44.0136C58.8327 44.4544 59.0813 44.8058 59.4094 45.0676C59.7408 45.3261 60.1518 45.4554 60.6424 45.4554ZM69.3973 46.5094C68.7079 46.5094 68.1031 46.3453 67.5827 46.0172C67.0657 45.6891 66.6613 45.23 66.3696 44.6401C66.0813 44.0501 65.9371 43.3607 65.9371 42.5719C65.9371 41.7764 66.0813 41.0821 66.3696 40.4888C66.6613 39.8955 67.0657 39.4348 67.5827 39.1067C68.1031 38.7785 68.7079 38.6145 69.3973 38.6145C70.0867 38.6145 70.6899 38.7785 71.207 39.1067C71.7273 39.4348 72.1317 39.8955 72.4201 40.4888C72.7117 41.0821 72.8576 41.7764 72.8576 42.5719C72.8576 43.3607 72.7117 44.0501 72.4201 44.6401C72.1317 45.23 71.7273 45.6891 71.207 46.0172C70.6899 46.3453 70.0867 46.5094 69.3973 46.5094ZM69.3973 45.4554C69.921 45.4554 70.3519 45.3212 70.6899 45.0527C71.028 44.7842 71.2782 44.4312 71.4407 43.9937C71.6031 43.5562 71.6843 43.0823 71.6843 42.5719C71.6843 42.0615 71.6031 41.5858 71.4407 41.145C71.2782 40.7042 71.028 40.3479 70.6899 40.0761C70.3519 39.8044 69.921 39.6685 69.3973 39.6685C68.8737 39.6685 68.4428 39.8044 68.1047 40.0761C67.7666 40.3479 67.5164 40.7042 67.354 41.145C67.1916 41.5858 67.1104 42.0615 67.1104 42.5719C67.1104 43.0823 67.1916 43.5562 67.354 43.9937C67.5164 44.4312 67.7666 44.7842 68.1047 45.0527C68.4428 45.3212 68.8737 45.4554 69.3973 45.4554ZM74.6486 46.3503V38.7139H75.7821V39.8673H75.8616C76.0008 39.4895 76.2527 39.1829 76.6173 38.9476C76.9819 38.7123 77.3929 38.5946 77.8503 38.5946C77.9364 38.5946 78.0442 38.5963 78.1734 38.5996C78.3027 38.6029 78.4005 38.6079 78.4668 38.6145V39.8077C78.427 39.7977 78.3358 39.7828 78.1933 39.7629C78.0541 39.7397 77.9066 39.7281 77.7508 39.7281C77.3796 39.7281 77.0482 39.806 76.7565 39.9618C76.4682 40.1142 76.2395 40.3264 76.0704 40.5981C75.9047 40.8666 75.8219 41.1732 75.8219 41.5179V46.3503H74.6486ZM85.2666 40.4241L84.2127 40.7224C84.1464 40.5468 84.0486 40.3761 83.9193 40.2104C83.7934 40.0413 83.621 39.9021 83.4023 39.7928C83.1835 39.6834 82.9035 39.6287 82.5621 39.6287C82.0948 39.6287 81.7053 39.7364 81.3938 39.9518C81.0855 40.164 80.9314 40.4341 80.9314 40.7622C80.9314 41.0539 81.0375 41.2842 81.2496 41.4533C81.4617 41.6223 81.7932 41.7632 82.2439 41.8758L83.3774 42.1543C84.0602 42.32 84.569 42.5735 84.9037 42.9149C85.2385 43.253 85.4059 43.6888 85.4059 44.2224C85.4059 44.6599 85.2799 45.051 85.028 45.3957C84.7794 45.7404 84.4314 46.0122 83.984 46.2111C83.5365 46.4099 83.0162 46.5094 82.4229 46.5094C81.644 46.5094 80.9994 46.3403 80.4889 46.0023C79.9785 45.6642 79.6554 45.1704 79.5195 44.5207L80.6331 44.2423C80.7392 44.6533 80.9397 44.9615 81.2347 45.167C81.533 45.3725 81.9224 45.4753 82.403 45.4753C82.9499 45.4753 83.3841 45.3593 83.7056 45.1273C84.0304 44.8919 84.1928 44.6102 84.1928 44.2821C84.1928 44.0169 84.1 43.7949 83.9144 43.6159C83.7288 43.4336 83.4437 43.2977 83.0593 43.2082L81.7865 42.9099C81.0872 42.7442 80.5735 42.4874 80.2453 42.1393C79.9205 41.788 79.7581 41.3489 79.7581 40.8219C79.7581 40.391 79.8791 40.0098 80.121 39.6784C80.3663 39.347 80.6994 39.0868 81.1203 38.8979C81.5446 38.7089 82.0252 38.6145 82.5621 38.6145C83.3178 38.6145 83.9111 38.7802 84.3419 39.1116C84.7761 39.4431 85.0844 39.8806 85.2666 40.4241Z" fill="#343A3F"/>
<path d="M103.843 41.3503C103.843 41.5703 103.763 41.7703 103.603 41.9303L98.4031 46.9303C98.2431 47.0703 98.0431 47.1503 97.8431 47.1503C97.6231 47.1503 97.4231 47.0703 97.2631 46.9103C96.9631 46.5903 96.9631 46.0903 97.2831 45.7703L101.883 41.3503L97.2831 36.9303C96.9631 36.6303 96.9631 36.1103 97.2631 35.7903C97.5631 35.4703 98.0831 35.4703 98.4031 35.7703L103.603 40.7703C103.763 40.9303 103.843 41.1303 103.843 41.3503Z" fill="#343A3F"/>
<path d="M123.745 36.1685V46.3503H122.552L117.003 38.356H116.904V46.3503H115.671V36.1685H116.864L122.432 44.1827H122.532V36.1685H123.745ZM129.255 46.5094C128.519 46.5094 127.884 46.347 127.35 46.0222C126.82 45.694 126.411 45.2366 126.122 44.65C125.837 44.06 125.695 43.374 125.695 42.5918C125.695 41.8096 125.837 41.1202 126.122 40.5236C126.411 39.9237 126.812 39.4563 127.326 39.1216C127.843 38.7835 128.446 38.6145 129.135 38.6145C129.533 38.6145 129.926 38.6808 130.314 38.8133C130.701 38.9459 131.054 39.1614 131.372 39.4597C131.691 39.7546 131.944 40.1457 132.133 40.633C132.322 41.1202 132.417 41.7201 132.417 42.4327V42.9298H126.53V41.9156H131.223C131.223 41.4848 131.137 41.1003 130.965 40.7622C130.796 40.4241 130.554 40.1573 130.239 39.9618C129.927 39.7662 129.559 39.6685 129.135 39.6685C128.668 39.6685 128.264 39.7845 127.922 40.0165C127.584 40.2452 127.324 40.5435 127.142 40.9114C126.959 41.2793 126.868 41.6737 126.868 42.0946V42.7707C126.868 43.3474 126.968 43.8363 127.167 44.2374C127.369 44.6351 127.649 44.9383 128.007 45.1472C128.365 45.3526 128.781 45.4554 129.255 45.4554C129.563 45.4554 129.841 45.4123 130.09 45.3261C130.342 45.2366 130.559 45.1041 130.741 44.9284C130.923 44.7494 131.064 44.5274 131.164 44.2622L132.297 44.5804C132.178 44.9649 131.977 45.3029 131.696 45.5946C131.414 45.883 131.066 46.1083 130.652 46.2707C130.237 46.4298 129.772 46.5094 129.255 46.5094ZM134.871 38.7139L136.701 41.8361L138.53 38.7139H139.883L137.417 42.5321L139.883 46.3503H138.53L136.701 43.3872L134.871 46.3503H133.519L135.945 42.5321L133.519 38.7139H134.871ZM144.878 38.7139V39.7082H140.92V38.7139H144.878ZM142.074 36.8844H143.247V44.1628C143.247 44.4942 143.295 44.7428 143.391 44.9085C143.491 45.0709 143.617 45.1803 143.769 45.2366C143.925 45.2897 144.089 45.3162 144.261 45.3162C144.391 45.3162 144.497 45.3096 144.58 45.2963C144.662 45.2797 144.729 45.2665 144.778 45.2565L145.017 46.3105C144.937 46.3403 144.826 46.3702 144.684 46.4C144.541 46.4331 144.361 46.4497 144.142 46.4497C143.811 46.4497 143.486 46.3785 143.168 46.2359C142.853 46.0934 142.591 45.8763 142.382 45.5847C142.177 45.293 142.074 44.9251 142.074 44.481V36.8844ZM150.739 46.3503V36.1685H154.18C154.978 36.1685 155.631 36.3126 156.138 36.601C156.649 36.886 157.027 37.2722 157.272 37.7594C157.517 38.2466 157.64 38.7901 157.64 39.3901C157.64 39.99 157.517 40.5352 157.272 41.0257C157.03 41.5162 156.655 41.9073 156.148 42.199C155.641 42.4874 154.992 42.6315 154.2 42.6315H151.734V41.5378H154.16C154.707 41.5378 155.146 41.4433 155.477 41.2544C155.809 41.0655 156.049 40.8103 156.198 40.4888C156.351 40.164 156.427 39.7977 156.427 39.3901C156.427 38.9824 156.351 38.6178 156.198 38.2963C156.049 37.9748 155.807 37.7229 155.472 37.5406C155.138 37.355 154.693 37.2622 154.14 37.2622H151.972V46.3503H150.739ZM159.467 46.3503V38.7139H160.6V39.8673H160.68C160.819 39.4895 161.071 39.1829 161.436 38.9476C161.8 38.7123 162.211 38.5946 162.669 38.5946C162.755 38.5946 162.863 38.5963 162.992 38.5996C163.121 38.6029 163.219 38.6079 163.285 38.6145V39.8077C163.245 39.7977 163.154 39.7828 163.012 39.7629C162.872 39.7397 162.725 39.7281 162.569 39.7281C162.198 39.7281 161.867 39.806 161.575 39.9618C161.287 40.1142 161.058 40.3264 160.889 40.5981C160.723 40.8666 160.64 41.1732 160.64 41.5179V46.3503H159.467ZM166.923 46.5293C166.439 46.5293 166 46.4381 165.606 46.2558C165.211 46.0702 164.898 45.8034 164.666 45.4554C164.434 45.1041 164.318 44.6798 164.318 44.1827C164.318 43.7452 164.404 43.3905 164.576 43.1187C164.749 42.8437 164.979 42.6282 165.268 42.4724C165.556 42.3167 165.874 42.2007 166.222 42.1244C166.573 42.0449 166.926 41.9819 167.281 41.9355C167.745 41.8758 168.121 41.8311 168.41 41.8013C168.701 41.7681 168.913 41.7134 169.046 41.6372C169.182 41.561 169.25 41.4284 169.25 41.2395V41.1997C169.25 40.7092 169.116 40.328 168.847 40.0562C168.582 39.7845 168.179 39.6486 167.639 39.6486C167.079 39.6486 166.64 39.7712 166.322 40.0165C166.003 40.2617 165.78 40.5236 165.65 40.802L164.537 40.4043C164.736 39.9402 165.001 39.579 165.332 39.3205C165.667 39.0586 166.032 38.8763 166.426 38.7736C166.824 38.6675 167.215 38.6145 167.599 38.6145C167.844 38.6145 168.126 38.6443 168.444 38.704C168.766 38.7603 169.076 38.878 169.374 39.057C169.676 39.2359 169.926 39.5061 170.125 39.8673C170.324 40.2286 170.423 40.7125 170.423 41.319V46.3503H169.25V45.3162H169.19C169.111 45.4819 168.978 45.6592 168.792 45.8482C168.607 46.0371 168.36 46.1978 168.052 46.3304C167.743 46.463 167.367 46.5293 166.923 46.5293ZM167.102 45.4753C167.566 45.4753 167.957 45.3841 168.275 45.2018C168.597 45.0196 168.839 44.7842 169.001 44.4959C169.167 44.2075 169.25 43.9043 169.25 43.5861V42.5122C169.2 42.5719 169.091 42.6266 168.922 42.6763C168.756 42.7227 168.564 42.7641 168.345 42.8006C168.13 42.8337 167.919 42.8635 167.714 42.8901C167.511 42.9133 167.347 42.9331 167.221 42.9497C166.916 42.9895 166.631 43.0541 166.366 43.1436C166.104 43.2298 165.892 43.3607 165.73 43.5364C165.571 43.7087 165.491 43.944 165.491 44.2423C165.491 44.65 165.642 44.9582 165.944 45.167C166.249 45.3725 166.635 45.4753 167.102 45.4753ZM175.667 46.5094C174.951 46.5094 174.334 46.3403 173.817 46.0023C173.3 45.6642 172.903 45.1985 172.624 44.6053C172.346 44.012 172.207 43.3342 172.207 42.5719C172.207 41.7963 172.349 41.1119 172.634 40.5186C172.923 39.922 173.324 39.4563 173.837 39.1216C174.354 38.7835 174.958 38.6145 175.647 38.6145C176.184 38.6145 176.668 38.7139 177.099 38.9128C177.53 39.1116 177.883 39.3901 178.158 39.748C178.433 40.106 178.603 40.5236 178.67 41.0008H177.496C177.407 40.6528 177.208 40.3446 176.9 40.0761C176.595 39.8044 176.184 39.6685 175.667 39.6685C175.209 39.6685 174.808 39.7878 174.464 40.0264C174.122 40.2617 173.856 40.5948 173.663 41.0257C173.474 41.4533 173.38 41.9554 173.38 42.5321C173.38 43.1221 173.473 43.6358 173.658 44.0733C173.847 44.5108 174.112 44.8505 174.454 45.0925C174.798 45.3344 175.203 45.4554 175.667 45.4554C175.972 45.4554 176.249 45.4024 176.497 45.2963C176.746 45.1902 176.956 45.0378 177.129 44.8389C177.301 44.6401 177.423 44.4014 177.496 44.123H178.67C178.603 44.5738 178.439 44.9798 178.178 45.341C177.919 45.699 177.576 45.984 177.148 46.1962C176.724 46.405 176.23 46.5094 175.667 46.5094ZM183.706 38.7139V39.7082H179.749V38.7139H183.706ZM180.902 36.8844H182.075V44.1628C182.075 44.4942 182.123 44.7428 182.219 44.9085C182.319 45.0709 182.445 45.1803 182.597 45.2366C182.753 45.2897 182.917 45.3162 183.089 45.3162C183.219 45.3162 183.325 45.3096 183.408 45.2963C183.49 45.2797 183.557 45.2665 183.606 45.2565L183.845 46.3105C183.766 46.3403 183.655 46.3702 183.512 46.4C183.37 46.4331 183.189 46.4497 182.97 46.4497C182.639 46.4497 182.314 46.3785 181.996 46.2359C181.681 46.0934 181.419 45.8763 181.21 45.5847C181.005 45.293 180.902 44.9251 180.902 44.481V36.8844ZM185.471 46.3503V38.7139H186.644V46.3503H185.471ZM186.067 37.4412C185.839 37.4412 185.642 37.3633 185.476 37.2075C185.313 37.0517 185.232 36.8645 185.232 36.6457C185.232 36.427 185.313 36.2397 185.476 36.0839C185.642 35.9282 185.839 35.8503 186.067 35.8503C186.296 35.8503 186.492 35.9282 186.654 36.0839C186.82 36.2397 186.903 36.427 186.903 36.6457C186.903 36.8645 186.82 37.0517 186.654 37.2075C186.492 37.3633 186.296 37.4412 186.067 37.4412ZM191.895 46.5094C191.179 46.5094 190.563 46.3403 190.046 46.0023C189.529 45.6642 189.131 45.1985 188.853 44.6053C188.574 44.012 188.435 43.3342 188.435 42.5719C188.435 41.7963 188.578 41.1119 188.863 40.5186C189.151 39.922 189.552 39.4563 190.066 39.1216C190.583 38.7835 191.186 38.6145 191.875 38.6145C192.412 38.6145 192.896 38.7139 193.327 38.9128C193.758 39.1116 194.111 39.3901 194.386 39.748C194.661 40.106 194.832 40.5236 194.898 41.0008H193.725C193.635 40.6528 193.437 40.3446 193.128 40.0761C192.823 39.8044 192.412 39.6685 191.895 39.6685C191.438 39.6685 191.037 39.7878 190.692 40.0264C190.351 40.2617 190.084 40.5948 189.892 41.0257C189.703 41.4533 189.608 41.9554 189.608 42.5321C189.608 43.1221 189.701 43.6358 189.887 44.0733C190.076 44.5108 190.341 44.8505 190.682 45.0925C191.027 45.3344 191.431 45.4554 191.895 45.4554C192.2 45.4554 192.477 45.4024 192.726 45.2963C192.974 45.1902 193.185 45.0378 193.357 44.8389C193.529 44.6401 193.652 44.4014 193.725 44.123H194.898C194.832 44.5738 194.668 44.9798 194.406 45.341C194.148 45.699 193.804 45.984 193.377 46.1962C192.953 46.405 192.459 46.5094 191.895 46.5094ZM199.815 46.5094C199.079 46.5094 198.445 46.347 197.911 46.0222C197.381 45.694 196.971 45.2366 196.683 44.65C196.398 44.06 196.255 43.374 196.255 42.5918C196.255 41.8096 196.398 41.1202 196.683 40.5236C196.971 39.9237 197.372 39.4563 197.886 39.1216C198.403 38.7835 199.006 38.6145 199.696 38.6145C200.094 38.6145 200.486 38.6808 200.874 38.8133C201.262 38.9459 201.615 39.1614 201.933 39.4597C202.251 39.7546 202.505 40.1457 202.694 40.633C202.883 41.1202 202.977 41.7201 202.977 42.4327V42.9298H197.091V41.9156H201.784C201.784 41.4848 201.698 41.1003 201.525 40.7622C201.356 40.4241 201.114 40.1573 200.799 39.9618C200.488 39.7662 200.12 39.6685 199.696 39.6685C199.228 39.6685 198.824 39.7845 198.483 40.0165C198.145 40.2452 197.884 40.5435 197.702 40.9114C197.52 41.2793 197.429 41.6737 197.429 42.0946V42.7707C197.429 43.3474 197.528 43.8363 197.727 44.2374C197.929 44.6351 198.209 44.9383 198.567 45.1472C198.925 45.3526 199.341 45.4554 199.815 45.4554C200.123 45.4554 200.402 45.4123 200.65 45.3261C200.902 45.2366 201.119 45.1041 201.302 44.9284C201.484 44.7494 201.625 44.5274 201.724 44.2622L202.858 44.5804C202.738 44.9649 202.538 45.3029 202.256 45.5946C201.974 45.883 201.626 46.1083 201.212 46.2707C200.798 46.4298 200.332 46.5094 199.815 46.5094ZM208.858 36.1685H210.33L213.79 44.6202H213.91L217.37 36.1685H218.841V46.3503H217.688V38.6145H217.589L214.407 46.3503H213.293L210.111 38.6145H210.012V46.3503H208.858V36.1685ZM223.402 46.5293C222.918 46.5293 222.479 46.4381 222.084 46.2558C221.69 46.0702 221.376 45.8034 221.144 45.4554C220.912 45.1041 220.796 44.6798 220.796 44.1827C220.796 43.7452 220.883 43.3905 221.055 43.1187C221.227 42.8437 221.458 42.6282 221.746 42.4724C222.034 42.3167 222.353 42.2007 222.701 42.1244C223.052 42.0449 223.405 41.9819 223.76 41.9355C224.224 41.8758 224.6 41.8311 224.888 41.8013C225.18 41.7681 225.392 41.7134 225.524 41.6372C225.66 41.561 225.728 41.4284 225.728 41.2395V41.1997C225.728 40.7092 225.594 40.328 225.326 40.0562C225.06 39.7845 224.658 39.6486 224.117 39.6486C223.557 39.6486 223.118 39.7712 222.8 40.0165C222.482 40.2617 222.258 40.5236 222.129 40.802L221.015 40.4043C221.214 39.9402 221.479 39.579 221.811 39.3205C222.145 39.0586 222.51 38.8763 222.904 38.7736C223.302 38.6675 223.693 38.6145 224.078 38.6145C224.323 38.6145 224.605 38.6443 224.923 38.704C225.244 38.7603 225.554 38.878 225.853 39.057C226.154 39.2359 226.404 39.5061 226.603 39.8673C226.802 40.2286 226.902 40.7125 226.902 41.319V46.3503H225.728V45.3162H225.669C225.589 45.4819 225.457 45.6592 225.271 45.8482C225.085 46.0371 224.838 46.1978 224.53 46.3304C224.222 46.463 223.846 46.5293 223.402 46.5293ZM223.581 45.4753C224.045 45.4753 224.436 45.3841 224.754 45.2018C225.075 45.0196 225.317 44.7842 225.48 44.4959C225.645 44.2075 225.728 43.9043 225.728 43.5861V42.5122C225.679 42.5719 225.569 42.6266 225.4 42.6763C225.234 42.7227 225.042 42.7641 224.823 42.8006C224.608 42.8337 224.398 42.8635 224.192 42.8901C223.99 42.9133 223.826 42.9331 223.7 42.9497C223.395 42.9895 223.11 43.0541 222.845 43.1436C222.583 43.2298 222.371 43.3607 222.208 43.5364C222.049 43.7087 221.97 43.944 221.97 44.2423C221.97 44.65 222.121 44.9582 222.422 45.167C222.727 45.3725 223.113 45.4753 223.581 45.4753ZM230.216 41.7565V46.3503H229.043V38.7139H230.177V39.9071H230.276C230.455 39.5193 230.727 39.2078 231.091 38.9724C231.456 38.7338 231.927 38.6145 232.503 38.6145C233.02 38.6145 233.473 38.7205 233.861 38.9327C234.248 39.1415 234.55 39.4597 234.765 39.8872C234.981 40.3115 235.089 40.8484 235.089 41.498V46.3503H233.915V41.5776C233.915 40.9776 233.759 40.5103 233.448 40.1756C233.136 39.8375 232.709 39.6685 232.165 39.6685C231.791 39.6685 231.456 39.7497 231.161 39.9121C230.869 40.0745 230.639 40.3115 230.47 40.623C230.301 40.9346 230.216 41.3124 230.216 41.7565ZM239.48 46.5293C238.996 46.5293 238.557 46.4381 238.162 46.2558C237.768 46.0702 237.455 45.8034 237.223 45.4554C236.991 45.1041 236.875 44.6798 236.875 44.1827C236.875 43.7452 236.961 43.3905 237.133 43.1187C237.305 42.8437 237.536 42.6282 237.824 42.4724C238.113 42.3167 238.431 42.2007 238.779 42.1244C239.13 42.0449 239.483 41.9819 239.838 41.9355C240.302 41.8758 240.678 41.8311 240.966 41.8013C241.258 41.7681 241.47 41.7134 241.603 41.6372C241.738 41.561 241.806 41.4284 241.806 41.2395V41.1997C241.806 40.7092 241.672 40.328 241.404 40.0562C241.139 39.7845 240.736 39.6486 240.196 39.6486C239.635 39.6486 239.196 39.7712 238.878 40.0165C238.56 40.2617 238.336 40.5236 238.207 40.802L237.093 40.4043C237.292 39.9402 237.557 39.579 237.889 39.3205C238.224 39.0586 238.588 38.8763 238.983 38.7736C239.38 38.6675 239.771 38.6145 240.156 38.6145C240.401 38.6145 240.683 38.6443 241.001 38.704C241.323 38.7603 241.632 38.878 241.931 39.057C242.232 39.2359 242.483 39.5061 242.681 39.8673C242.88 40.2286 242.98 40.7125 242.98 41.319V46.3503H241.806V45.3162H241.747C241.667 45.4819 241.535 45.6592 241.349 45.8482C241.163 46.0371 240.917 46.1978 240.608 46.3304C240.3 46.463 239.924 46.5293 239.48 46.5293ZM239.659 45.4753C240.123 45.4753 240.514 45.3841 240.832 45.2018C241.153 45.0196 241.395 44.7842 241.558 44.4959C241.724 44.2075 241.806 43.9043 241.806 43.5861V42.5122C241.757 42.5719 241.647 42.6266 241.478 42.6763C241.313 42.7227 241.12 42.7641 240.902 42.8006C240.686 42.8337 240.476 42.8635 240.27 42.8901C240.068 42.9133 239.904 42.9331 239.778 42.9497C239.473 42.9895 239.188 43.0541 238.923 43.1436C238.661 43.2298 238.449 43.3607 238.287 43.5364C238.127 43.7087 238.048 43.944 238.048 44.2423C238.048 44.65 238.199 44.9582 238.5 45.167C238.805 45.3725 239.191 45.4753 239.659 45.4753ZM248.204 49.373C247.637 49.373 247.15 49.3001 246.742 49.1543C246.334 49.0117 245.995 48.8228 245.723 48.5875C245.454 48.3555 245.241 48.1069 245.081 47.8418L246.016 47.1855C246.122 47.3247 246.256 47.4838 246.419 47.6628C246.581 47.8451 246.803 48.0025 247.085 48.1351C247.37 48.271 247.743 48.3389 248.204 48.3389C248.82 48.3389 249.329 48.1898 249.73 47.8915C250.131 47.5932 250.331 47.1258 250.331 46.4895V44.9383H250.232C250.146 45.0776 250.023 45.2499 249.864 45.4554C249.708 45.6576 249.483 45.8382 249.188 45.9973C248.896 46.1531 248.502 46.231 248.005 46.231C247.388 46.231 246.835 46.0851 246.344 45.7935C245.857 45.5018 245.471 45.0776 245.186 44.5207C244.904 43.9639 244.763 43.2878 244.763 42.4923C244.763 41.7101 244.901 41.029 245.176 40.449C245.451 39.8657 245.834 39.4149 246.324 39.0967C246.815 38.7752 247.382 38.6145 248.025 38.6145C248.522 38.6145 248.916 38.6973 249.208 38.8631C249.503 39.0255 249.728 39.2111 249.884 39.4199C250.043 39.6254 250.166 39.7944 250.252 39.927H250.371V38.7139H251.505V46.569C251.505 47.2253 251.356 47.7589 251.057 48.1699C250.762 48.5842 250.365 48.8874 249.864 49.0797C249.367 49.2752 248.813 49.373 248.204 49.373ZM248.164 45.177C248.634 45.177 249.032 45.0693 249.357 44.8538C249.682 44.6384 249.929 44.3285 250.098 43.9241C250.267 43.5198 250.351 43.0359 250.351 42.4724C250.351 41.9223 250.268 41.4367 250.103 41.0158C249.937 40.5948 249.692 40.2651 249.367 40.0264C249.042 39.7878 248.641 39.6685 248.164 39.6685C247.667 39.6685 247.252 39.7944 246.921 40.0463C246.593 40.2982 246.346 40.6363 246.18 41.0605C246.018 41.4848 245.937 41.9554 245.937 42.4724C245.937 43.0027 246.019 43.4717 246.185 43.8794C246.354 44.2838 246.603 44.6019 246.931 44.8339C247.262 45.0626 247.673 45.177 248.164 45.177ZM256.854 46.5094C256.118 46.5094 255.484 46.347 254.95 46.0222C254.42 45.694 254.01 45.2366 253.722 44.65C253.437 44.06 253.295 43.374 253.295 42.5918C253.295 41.8096 253.437 41.1202 253.722 40.5236C254.01 39.9237 254.411 39.4563 254.925 39.1216C255.442 38.7835 256.045 38.6145 256.735 38.6145C257.133 38.6145 257.525 38.6808 257.913 38.8133C258.301 38.9459 258.654 39.1614 258.972 39.4597C259.29 39.7546 259.544 40.1457 259.733 40.633C259.922 41.1202 260.016 41.7201 260.016 42.4327V42.9298H254.13V41.9156H258.823C258.823 41.4848 258.737 41.1003 258.564 40.7622C258.395 40.4241 258.153 40.1573 257.839 39.9618C257.527 39.7662 257.159 39.6685 256.735 39.6685C256.268 39.6685 255.863 39.7845 255.522 40.0165C255.184 40.2452 254.924 40.5435 254.741 40.9114C254.559 41.2793 254.468 41.6737 254.468 42.0946V42.7707C254.468 43.3474 254.567 43.8363 254.766 44.2374C254.968 44.6351 255.248 44.9383 255.606 45.1472C255.964 45.3526 256.38 45.4554 256.854 45.4554C257.162 45.4554 257.441 45.4123 257.689 45.3261C257.941 45.2366 258.158 45.1041 258.341 44.9284C258.523 44.7494 258.664 44.5274 258.763 44.2622L259.897 44.5804C259.777 44.9649 259.577 45.3029 259.295 45.5946C259.014 45.883 258.665 46.1083 258.251 46.2707C257.837 46.4298 257.371 46.5094 256.854 46.5094ZM261.801 46.3503V38.7139H262.934V39.9071H263.034C263.193 39.4994 263.45 39.1829 263.804 38.9575C264.159 38.7288 264.585 38.6145 265.082 38.6145C265.586 38.6145 266.005 38.7288 266.34 38.9575C266.678 39.1829 266.942 39.4994 267.13 39.9071H267.21C267.406 39.5127 267.699 39.1995 268.09 38.9675C268.481 38.7321 268.95 38.6145 269.497 38.6145C270.18 38.6145 270.738 38.8283 271.172 39.2558C271.607 39.6801 271.824 40.3413 271.824 41.2395V46.3503H270.65V41.2395C270.65 40.676 270.496 40.2733 270.188 40.0314C269.88 39.7894 269.517 39.6685 269.099 39.6685C268.562 39.6685 268.146 39.8309 267.851 40.1557C267.556 40.4772 267.409 40.8848 267.409 41.3787V46.3503H266.216V41.1202C266.216 40.686 266.075 40.3363 265.793 40.0712C265.511 39.8027 265.148 39.6685 264.704 39.6685C264.399 39.6685 264.114 39.7497 263.849 39.9121C263.587 40.0745 263.375 40.2999 263.213 40.5882C263.054 40.8732 262.974 41.203 262.974 41.5776V46.3503H261.801ZM277.171 46.5094C276.435 46.5094 275.8 46.347 275.266 46.0222C274.736 45.694 274.327 45.2366 274.038 44.65C273.753 44.06 273.611 43.374 273.611 42.5918C273.611 41.8096 273.753 41.1202 274.038 40.5236C274.327 39.9237 274.728 39.4563 275.242 39.1216C275.759 38.7835 276.362 38.6145 277.051 38.6145C277.449 38.6145 277.842 38.6808 278.23 38.8133C278.617 38.9459 278.97 39.1614 279.288 39.4597C279.607 39.7546 279.86 40.1457 280.049 40.633C280.238 41.1202 280.333 41.7201 280.333 42.4327V42.9298H274.446V41.9156H279.139C279.139 41.4848 279.053 41.1003 278.881 40.7622C278.712 40.4241 278.47 40.1573 278.155 39.9618C277.843 39.7662 277.476 39.6685 277.051 39.6685C276.584 39.6685 276.18 39.7845 275.838 40.0165C275.5 40.2452 275.24 40.5435 275.058 40.9114C274.875 41.2793 274.784 41.6737 274.784 42.0946V42.7707C274.784 43.3474 274.884 43.8363 275.083 44.2374C275.285 44.6351 275.565 44.9383 275.923 45.1472C276.281 45.3526 276.697 45.4554 277.171 45.4554C277.479 45.4554 277.757 45.4123 278.006 45.3261C278.258 45.2366 278.475 45.1041 278.657 44.9284C278.839 44.7494 278.98 44.5274 279.08 44.2622L280.213 44.5804C280.094 44.9649 279.893 45.3029 279.612 45.5946C279.33 45.883 278.982 46.1083 278.568 46.2707C278.153 46.4298 277.688 46.5094 277.171 46.5094ZM283.291 41.7565V46.3503H282.117V38.7139H283.251V39.9071H283.35C283.529 39.5193 283.801 39.2078 284.166 38.9724C284.53 38.7338 285.001 38.6145 285.578 38.6145C286.095 38.6145 286.547 38.7205 286.935 38.9327C287.323 39.1415 287.624 39.4597 287.84 39.8872C288.055 40.3115 288.163 40.8484 288.163 41.498V46.3503H286.989V41.5776C286.989 40.9776 286.834 40.5103 286.522 40.1756C286.211 39.8375 285.783 39.6685 285.239 39.6685C284.865 39.6685 284.53 39.7497 284.235 39.9121C283.944 40.0745 283.713 40.3115 283.544 40.623C283.375 40.9346 283.291 41.3124 283.291 41.7565ZM293.628 38.7139V39.7082H289.67V38.7139H293.628ZM290.824 36.8844H291.997V44.1628C291.997 44.4942 292.045 44.7428 292.141 44.9085C292.241 45.0709 292.367 45.1803 292.519 45.2366C292.675 45.2897 292.839 45.3162 293.011 45.3162C293.141 45.3162 293.247 45.3096 293.33 45.2963C293.412 45.2797 293.479 45.2665 293.528 45.2565L293.767 46.3105C293.687 46.3403 293.576 46.3702 293.434 46.4C293.291 46.4331 293.111 46.4497 292.892 46.4497C292.561 46.4497 292.236 46.3785 291.918 46.2359C291.603 46.0934 291.341 45.8763 291.132 45.5847C290.927 45.293 290.824 44.9251 290.824 44.481V36.8844Z" fill="#343A3F"/>
</svg>
