<svg width="1155" height="111" viewBox="0 0 1155 111" fill="none" xmlns="http://www.w3.org/2000/svg">
<rect y="0.0571899" width="1155" height="110.532" fill="white"/>
<path d="M44.1697 55.4595C44.1697 56.3914 43.9992 57.1925 43.6583 57.863C43.3174 58.5306 42.8501 59.0448 42.2563 59.4056C41.6654 59.7635 40.9935 59.9425 40.2407 59.9425C39.485 59.9425 38.8103 59.7635 38.2165 59.4056C37.6256 59.0448 37.1597 58.5291 36.8188 57.8587C36.4779 57.1882 36.3074 56.3885 36.3074 55.4595C36.3074 54.5277 36.4779 53.728 36.8188 53.0604C37.1597 52.3899 37.6256 51.8757 38.2165 51.5178C38.8103 51.157 39.485 50.9766 40.2407 50.9766C40.9935 50.9766 41.6654 51.157 42.2563 51.5178C42.8501 51.8757 43.3174 52.3899 43.6583 53.0604C43.9992 53.728 44.1697 54.5277 44.1697 55.4595ZM42.8657 55.4595C42.8657 54.7493 42.7506 54.1513 42.5205 53.6655C42.2932 53.1769 41.9807 52.8076 41.583 52.5576C41.1881 52.3047 40.7407 52.1783 40.2407 52.1783C39.7378 52.1783 39.289 52.3047 38.8941 52.5576C38.4992 52.8076 38.1867 53.1769 37.9566 53.6655C37.7293 54.1513 37.6157 54.7493 37.6157 55.4595C37.6157 56.1698 37.7293 56.7692 37.9566 57.2578C38.1867 57.7436 38.4992 58.113 38.8941 58.3658C39.289 58.6158 39.7378 58.7408 40.2407 58.7408C40.7407 58.7408 41.1881 58.6158 41.583 58.3658C41.9807 58.113 42.2932 57.7436 42.5205 57.2578C42.7506 56.7692 42.8657 56.1698 42.8657 55.4595ZM47.1405 51.0959L49.5695 58.2039H49.6675L52.0965 51.0959H53.5198L50.3792 59.8232H48.8579L45.7172 51.0959H47.1405ZM55.7801 59.8232V51.0959H61.2517V52.2294H57.0969V54.8885H60.9662V56.0178H57.0969V58.6897H61.3028V59.8232H55.7801ZM64.0106 59.8232V51.0959H67.1214C67.7975 51.0959 68.3586 51.2124 68.8046 51.4453C69.2535 51.6783 69.5887 52.0007 69.8103 52.4127C70.0319 52.8218 70.1427 53.2948 70.1427 53.8317C70.1427 54.3658 70.0305 54.836 69.806 55.2422C69.5844 55.6456 69.2492 55.9595 68.8003 56.184C68.3543 56.4084 67.7932 56.5206 67.1171 56.5206H64.7606V55.3871H66.9978C67.4239 55.3871 67.7705 55.326 68.0376 55.2039C68.3074 55.0817 68.5049 54.9041 68.6299 54.6712C68.7549 54.4382 68.8174 54.1584 68.8174 53.8317C68.8174 53.5022 68.7535 53.2166 68.6256 52.9752C68.5006 52.7337 68.3032 52.549 68.0333 52.4212C67.7662 52.2905 67.4154 52.2252 66.9807 52.2252H65.3273V59.8232H64.0106ZM68.3188 55.8857L70.4751 59.8232H68.9751L66.8614 55.8857H68.3188ZM73.4822 59.8232H72.0844L75.2251 51.0959H76.7464L79.887 59.8232H78.4893L76.0219 52.6811H75.9537L73.4822 59.8232ZM73.7165 56.4056H78.2506V57.5135H73.7165V56.4056ZM82.1473 59.8232V51.0959H83.464V58.6897H87.4186V59.8232H82.1473ZM89.9207 59.8232V51.0959H91.2375V58.6897H95.192V59.8232H89.9207ZM106.63 53.3885C106.584 52.9851 106.397 52.6726 106.067 52.451C105.738 52.2266 105.323 52.1144 104.823 52.1144C104.465 52.1144 104.155 52.1712 103.894 52.2848C103.633 52.3956 103.43 52.549 103.285 52.7451C103.143 52.9382 103.072 53.1584 103.072 53.4056C103.072 53.613 103.12 53.7919 103.217 53.9425C103.316 54.0931 103.445 54.2195 103.604 54.3218C103.766 54.4212 103.94 54.505 104.124 54.5732C104.309 54.6385 104.486 54.6925 104.657 54.7351L105.509 54.9567C105.788 55.0249 106.073 55.1172 106.366 55.2337C106.658 55.3502 106.93 55.5036 107.18 55.6939C107.43 55.8843 107.631 56.1201 107.785 56.4013C107.941 56.6826 108.019 57.0192 108.019 57.4112C108.019 57.9056 107.891 58.3445 107.636 58.728C107.383 59.1115 107.015 59.4141 106.532 59.6357C106.052 59.8573 105.471 59.9681 104.789 59.9681C104.136 59.9681 103.57 59.8644 103.093 59.657C102.616 59.4496 102.242 59.1556 101.972 58.7749C101.702 58.3914 101.553 57.9368 101.525 57.4112H102.846C102.871 57.7266 102.974 57.9894 103.153 58.1996C103.334 58.407 103.566 58.5618 103.847 58.6641C104.131 58.7635 104.442 58.8132 104.78 58.8132C105.153 58.8132 105.484 58.755 105.773 58.6385C106.066 58.5192 106.296 58.3544 106.464 58.1442C106.631 57.9311 106.715 57.6826 106.715 57.3985C106.715 57.1399 106.641 56.9283 106.494 56.7635C106.349 56.5987 106.151 56.4624 105.901 56.3544C105.654 56.2465 105.374 56.1513 105.062 56.0689L104.03 55.7877C103.332 55.5973 102.778 55.3175 102.369 54.9482C101.962 54.5789 101.759 54.0902 101.759 53.4823C101.759 52.9794 101.896 52.5405 102.168 52.1655C102.441 51.7905 102.81 51.4993 103.276 51.2919C103.742 51.0817 104.268 50.9766 104.853 50.9766C105.444 50.9766 105.965 51.0803 106.417 51.2877C106.871 51.4951 107.229 51.7806 107.491 52.1442C107.752 52.505 107.888 52.9198 107.9 53.3885H106.63ZM110.593 59.8232V51.0959H116.064V52.2294H111.909V54.8885H115.779V56.0178H111.909V58.6897H116.115V59.8232H110.593ZM126.072 53.934H124.742C124.691 53.6499 124.596 53.3999 124.457 53.184C124.317 52.9681 124.147 52.7848 123.945 52.6343C123.744 52.4837 123.518 52.3701 123.268 52.2934C123.021 52.2166 122.758 52.1783 122.479 52.1783C121.976 52.1783 121.526 52.3047 121.128 52.5576C120.734 52.8104 120.421 53.1811 120.191 53.6698C119.964 54.1584 119.85 54.755 119.85 55.4595C119.85 56.1698 119.964 56.7692 120.191 57.2578C120.421 57.7465 120.735 58.1158 121.133 58.3658C121.53 58.6158 121.978 58.7408 122.475 58.7408C122.751 58.7408 123.012 58.7039 123.259 58.63C123.509 58.5533 123.735 58.4411 123.937 58.2934C124.138 58.1456 124.309 57.9652 124.448 57.7522C124.59 57.5362 124.688 57.2891 124.742 57.0107L126.072 57.0149C126.001 57.4439 125.863 57.8388 125.658 58.1996C125.457 58.5576 125.197 58.8672 124.878 59.1286C124.563 59.3871 124.202 59.5874 123.796 59.7294C123.39 59.8715 122.947 59.9425 122.467 59.9425C121.711 59.9425 121.038 59.7635 120.447 59.4056C119.856 59.0448 119.39 58.5291 119.049 57.8587C118.711 57.1882 118.542 56.3885 118.542 55.4595C118.542 54.5277 118.712 53.728 119.053 53.0604C119.394 52.3899 119.86 51.8757 120.451 51.5178C121.042 51.157 121.714 50.9766 122.467 50.9766C122.93 50.9766 123.361 51.0434 123.762 51.1769C124.165 51.3076 124.528 51.5007 124.849 51.7564C125.17 52.0093 125.435 52.3189 125.646 52.6854C125.856 53.049 125.998 53.4652 126.072 53.934ZM134.259 51.0959H135.581V56.836C135.581 57.4468 135.437 57.988 135.15 58.4595C134.863 58.9283 134.46 59.2976 133.94 59.5675C133.42 59.8345 132.811 59.9681 132.112 59.9681C131.416 59.9681 130.808 59.8345 130.288 59.5675C129.768 59.2976 129.365 58.9283 129.078 58.4595C128.791 57.988 128.647 57.4468 128.647 56.836V51.0959H129.964V56.7294C129.964 57.1243 130.051 57.4752 130.224 57.782C130.4 58.0888 130.649 58.3303 130.97 58.5064C131.291 58.6797 131.671 58.7664 132.112 58.7664C132.555 58.7664 132.937 58.6797 133.258 58.5064C133.582 58.3303 133.829 58.0888 134 57.782C134.173 57.4752 134.259 57.1243 134.259 56.7294V51.0959ZM138.495 59.8232V51.0959H141.606C142.282 51.0959 142.843 51.2124 143.289 51.4453C143.738 51.6783 144.073 52.0007 144.295 52.4127C144.516 52.8218 144.627 53.2948 144.627 53.8317C144.627 54.3658 144.515 54.836 144.29 55.2422C144.069 55.6456 143.734 55.9595 143.285 56.184C142.839 56.4084 142.278 56.5206 141.601 56.5206H139.245V55.3871H141.482C141.908 55.3871 142.255 55.326 142.522 55.2039C142.792 55.0817 142.989 54.9041 143.114 54.6712C143.239 54.4382 143.302 54.1584 143.302 53.8317C143.302 53.5022 143.238 53.2166 143.11 52.9752C142.985 52.7337 142.788 52.549 142.518 52.4212C142.251 52.2905 141.9 52.2252 141.465 52.2252H139.812V59.8232H138.495ZM142.803 55.8857L144.959 59.8232H143.459L141.346 55.8857H142.803ZM148.546 51.0959V59.8232H147.229V51.0959H148.546ZM151.033 52.2294V51.0959H157.788V52.2294H155.065V59.8232H153.752V52.2294H151.033ZM159.607 51.0959H161.103L163.382 55.0632H163.476L165.756 51.0959H167.252L164.085 56.397V59.8232H162.773V56.397L159.607 51.0959ZM173.671 59.8232V51.0959H176.782C177.458 51.0959 178.019 51.2124 178.465 51.4453C178.914 51.6783 179.249 52.0007 179.47 52.4127C179.692 52.8218 179.803 53.2948 179.803 53.8317C179.803 54.3658 179.691 54.836 179.466 55.2422C179.245 55.6456 178.909 55.9595 178.46 56.184C178.014 56.4084 177.453 56.5206 176.777 56.5206H174.421V55.3871H176.658C177.084 55.3871 177.431 55.326 177.698 55.2039C177.968 55.0817 178.165 54.9041 178.29 54.6712C178.415 54.4382 178.478 54.1584 178.478 53.8317C178.478 53.5022 178.414 53.2166 178.286 52.9752C178.161 52.7337 177.963 52.549 177.693 52.4212C177.426 52.2905 177.076 52.2252 176.641 52.2252H174.987V59.8232H173.671ZM177.979 55.8857L180.135 59.8232H178.635L176.522 55.8857H177.979ZM183.142 59.8232H181.745L184.885 51.0959H186.407L189.547 59.8232H188.149L185.682 52.6811H185.614L183.142 59.8232ZM183.377 56.4056H187.911V57.5135H183.377V56.4056ZM190.346 52.2294V51.0959H197.1V52.2294H194.377V59.8232H193.065V52.2294H190.346ZM200.909 51.0959V59.8232H199.593V51.0959H200.909ZM210.871 51.0959V59.8232H209.661L205.225 53.4226H205.144V59.8232H203.827V51.0959H205.046L209.486 57.505H209.567V51.0959H210.871ZM219.698 53.853C219.616 53.5945 219.505 53.363 219.366 53.1584C219.229 52.951 219.066 52.7749 218.876 52.63C218.685 52.4823 218.468 52.3701 218.224 52.2934C217.982 52.2166 217.717 52.1783 217.427 52.1783C216.935 52.1783 216.492 52.3047 216.097 52.5576C215.702 52.8104 215.39 53.1811 215.16 53.6698C214.932 54.1556 214.819 54.7507 214.819 55.4553C214.819 56.1627 214.934 56.7607 215.164 57.2493C215.394 57.738 215.709 58.1087 216.11 58.3615C216.511 58.6144 216.967 58.7408 217.478 58.7408C217.952 58.7408 218.366 58.6442 218.718 58.451C219.073 58.2578 219.347 57.9851 219.54 57.6328C219.736 57.2777 219.834 56.8601 219.834 56.38L220.175 56.4439H217.678V55.3573H221.109V56.3502C221.109 57.0831 220.952 57.7195 220.64 58.2593C220.33 58.7962 219.901 59.211 219.353 59.5036C218.807 59.7962 218.182 59.9425 217.478 59.9425C216.688 59.9425 215.995 59.7607 215.398 59.397C214.805 59.0334 214.342 58.5178 214.009 57.8502C213.677 57.1797 213.511 56.3843 213.511 55.4638C213.511 54.7678 213.607 54.1428 213.8 53.5888C213.994 53.0348 214.265 52.5647 214.614 52.1783C214.967 51.7891 215.38 51.4922 215.854 51.2877C216.332 51.0803 216.853 50.9766 217.418 50.9766C217.89 50.9766 218.329 51.0462 218.735 51.1854C219.144 51.3246 219.508 51.522 219.826 51.7777C220.147 52.0334 220.413 52.3374 220.623 52.6897C220.833 53.0391 220.975 53.4269 221.049 53.853H219.698Z" fill="#878D96"/>
<path d="M576.435 39.2748H575.106C575.055 38.9907 574.96 38.7407 574.82 38.5248C574.681 38.3089 574.511 38.1256 574.309 37.9751C574.107 37.8245 573.881 37.7109 573.631 37.6342C573.384 37.5575 573.121 37.5191 572.843 37.5191C572.34 37.5191 571.89 37.6455 571.492 37.8984C571.097 38.1512 570.785 38.522 570.555 39.0106C570.327 39.4992 570.214 40.0958 570.214 40.8004C570.214 41.5106 570.327 42.11 570.555 42.5987C570.785 43.0873 571.099 43.4566 571.496 43.7066C571.894 43.9566 572.342 44.0816 572.839 44.0816C573.114 44.0816 573.376 44.0447 573.623 43.9708C573.873 43.8941 574.099 43.7819 574.3 43.6342C574.502 43.4864 574.673 43.306 574.812 43.093C574.954 42.8771 575.052 42.6299 575.106 42.3515L576.435 42.3558C576.364 42.7847 576.227 43.1796 576.022 43.5404C575.82 43.8984 575.56 44.208 575.242 44.4694C574.927 44.7279 574.566 44.9282 574.16 45.0703C573.754 45.2123 573.31 45.2833 572.83 45.2833C572.075 45.2833 571.401 45.1043 570.81 44.7464C570.22 44.3856 569.754 43.87 569.413 43.1995C569.075 42.5291 568.906 41.7293 568.906 40.8004C568.906 39.8685 569.076 39.0688 569.417 38.4012C569.758 37.7308 570.224 37.2166 570.815 36.8586C571.406 36.4978 572.077 36.3174 572.83 36.3174C573.293 36.3174 573.725 36.3842 574.126 36.5177C574.529 36.6484 574.891 36.8416 575.212 37.0972C575.533 37.3501 575.799 37.6597 576.009 38.0262C576.22 38.3899 576.362 38.806 576.435 39.2748ZM584.623 36.4367H585.944V42.1768C585.944 42.7876 585.801 43.3288 585.514 43.8004C585.227 44.2691 584.824 44.6384 584.304 44.9083C583.784 45.1754 583.174 45.3089 582.476 45.3089C581.78 45.3089 581.172 45.1754 580.652 44.9083C580.132 44.6384 579.728 44.2691 579.441 43.8004C579.155 43.3288 579.011 42.7876 579.011 42.1768V36.4367H580.328V42.0703C580.328 42.4651 580.414 42.816 580.588 43.1228C580.764 43.4296 581.012 43.6711 581.333 43.8472C581.655 44.0205 582.035 44.1072 582.476 44.1072C582.919 44.1072 583.301 44.0205 583.622 43.8472C583.946 43.6711 584.193 43.4296 584.363 43.1228C584.537 42.816 584.623 42.4651 584.623 42.0703V36.4367ZM588.859 45.164V36.4367H591.97C592.646 36.4367 593.207 36.5532 593.653 36.7862C594.102 37.0191 594.437 37.3416 594.658 37.7535C594.88 38.1626 594.991 38.6356 594.991 39.1725C594.991 39.7066 594.879 40.1768 594.654 40.583C594.433 40.9864 594.097 41.3004 593.648 41.5248C593.202 41.7492 592.641 41.8614 591.965 41.8614H589.609V40.7279H591.846C592.272 40.7279 592.619 40.6668 592.886 40.5447C593.156 40.4225 593.353 40.245 593.478 40.012C593.603 39.7791 593.666 39.4992 593.666 39.1725C593.666 38.843 593.602 38.5575 593.474 38.316C593.349 38.0745 593.151 37.8899 592.881 37.762C592.614 37.6313 592.264 37.566 591.829 37.566H590.175V45.164H588.859ZM593.167 41.2265L595.323 45.164H593.823L591.71 41.2265H593.167ZM597.593 45.164V36.4367H600.704C601.38 36.4367 601.941 36.5532 602.387 36.7862C602.836 37.0191 603.171 37.3416 603.393 37.7535C603.614 38.1626 603.725 38.6356 603.725 39.1725C603.725 39.7066 603.613 40.1768 603.389 40.583C603.167 40.9864 602.832 41.3004 602.383 41.5248C601.937 41.7492 601.376 41.8614 600.7 41.8614H598.343V40.7279H600.58C601.006 40.7279 601.353 40.6668 601.62 40.5447C601.89 40.4225 602.087 40.245 602.212 40.012C602.337 39.7791 602.4 39.4992 602.4 39.1725C602.4 38.843 602.336 38.5575 602.208 38.316C602.083 38.0745 601.886 37.8899 601.616 37.762C601.349 37.6313 600.998 37.566 600.563 37.566H598.91V45.164H597.593ZM601.901 41.2265L604.058 45.164H602.558L600.444 41.2265H601.901ZM606.327 45.164V36.4367H611.799V37.5703H607.644V40.2293H611.514V41.3586H607.644V44.0305H611.85V45.164H606.327ZM621.602 36.4367V45.164H620.392L615.956 38.7634H615.875V45.164H614.558V36.4367H615.777L620.217 42.8458H620.298V36.4367H621.602ZM624.092 37.5703V36.4367H630.847V37.5703H628.124V45.164H626.811V37.5703H624.092ZM637.515 45.164V36.4367H640.626C641.302 36.4367 641.863 36.5532 642.309 36.7862C642.758 37.0191 643.093 37.3416 643.315 37.7535C643.536 38.1626 643.647 38.6356 643.647 39.1725C643.647 39.7066 643.535 40.1768 643.31 40.583C643.089 40.9864 642.754 41.3004 642.305 41.5248C641.859 41.7492 641.298 41.8614 640.621 41.8614H638.265V40.7279H640.502C640.928 40.7279 641.275 40.6668 641.542 40.5447C641.812 40.4225 642.009 40.245 642.134 40.012C642.259 39.7791 642.322 39.4992 642.322 39.1725C642.322 38.843 642.258 38.5575 642.13 38.316C642.005 38.0745 641.808 37.8899 641.538 37.762C641.271 37.6313 640.92 37.566 640.485 37.566H638.832V45.164H637.515ZM641.823 41.2265L643.979 45.164H642.479L640.366 41.2265H641.823ZM647.566 36.4367V45.164H646.249V36.4367H647.566ZM655.244 38.7293C655.198 38.3259 655.011 38.0134 654.681 37.7918C654.352 37.5674 653.937 37.4552 653.437 37.4552C653.079 37.4552 652.769 37.512 652.508 37.6256C652.246 37.7364 652.043 37.8899 651.898 38.0859C651.756 38.2791 651.685 38.4992 651.685 38.7464C651.685 38.9538 651.734 39.1328 651.83 39.2833C651.93 39.4339 652.059 39.5603 652.218 39.6626C652.38 39.762 652.553 39.8458 652.738 39.914C652.923 39.9793 653.1 40.0333 653.271 40.0759L654.123 40.2975C654.401 40.3657 654.687 40.458 654.979 40.5745C655.272 40.691 655.543 40.8444 655.793 41.0347C656.043 41.2251 656.245 41.4609 656.398 41.7421C656.555 42.0234 656.633 42.36 656.633 42.7521C656.633 43.2464 656.505 43.6853 656.249 44.0688C655.996 44.4524 655.629 44.7549 655.146 44.9765C654.666 45.1981 654.085 45.3089 653.403 45.3089C652.749 45.3089 652.184 45.2052 651.707 44.9978C651.229 44.7904 650.856 44.4964 650.586 44.1157C650.316 43.7322 650.167 43.2776 650.139 42.7521H651.46C651.485 43.0674 651.587 43.3302 651.766 43.5404C651.948 43.7478 652.18 43.9026 652.461 44.0049C652.745 44.1043 653.056 44.1541 653.394 44.1541C653.766 44.1541 654.097 44.0958 654.387 43.9793C654.68 43.86 654.91 43.6953 655.077 43.485C655.245 43.272 655.329 43.0234 655.329 42.7393C655.329 42.4808 655.255 42.2691 655.107 42.1043C654.962 41.9396 654.765 41.8032 654.515 41.6953C654.268 41.5873 653.988 41.4921 653.675 41.4097L652.644 41.1285C651.945 40.9381 651.391 40.6583 650.982 40.289C650.576 39.9197 650.373 39.431 650.373 38.8231C650.373 38.3203 650.509 37.8813 650.782 37.5063C651.055 37.1313 651.424 36.8401 651.89 36.6328C652.356 36.4225 652.881 36.3174 653.467 36.3174C654.058 36.3174 654.579 36.4211 655.031 36.6285C655.485 36.8359 655.843 37.1214 656.104 37.485C656.366 37.8458 656.502 38.2606 656.514 38.7293H655.244ZM659.206 45.164V36.4367H660.523V40.6043H660.63L664.29 36.4367H665.948L662.428 40.3657L665.961 45.164H664.375L661.554 41.2649L660.523 42.4495V45.164H659.206ZM672.912 38.7293C672.866 38.3259 672.679 38.0134 672.349 37.7918C672.02 37.5674 671.605 37.4552 671.105 37.4552C670.747 37.4552 670.437 37.512 670.176 37.6256C669.914 37.7364 669.711 37.8899 669.566 38.0859C669.424 38.2791 669.353 38.4992 669.353 38.7464C669.353 38.9538 669.402 39.1328 669.498 39.2833C669.598 39.4339 669.727 39.5603 669.886 39.6626C670.048 39.762 670.221 39.8458 670.406 39.914C670.591 39.9793 670.768 40.0333 670.939 40.0759L671.791 40.2975C672.069 40.3657 672.355 40.458 672.647 40.5745C672.94 40.691 673.211 40.8444 673.461 41.0347C673.711 41.2251 673.913 41.4609 674.066 41.7421C674.223 42.0234 674.301 42.36 674.301 42.7521C674.301 43.2464 674.173 43.6853 673.917 44.0688C673.664 44.4524 673.297 44.7549 672.814 44.9765C672.333 45.1981 671.753 45.3089 671.071 45.3089C670.417 45.3089 669.852 45.2052 669.375 44.9978C668.897 44.7904 668.524 44.4964 668.254 44.1157C667.984 43.7322 667.835 43.2776 667.807 42.7521H669.128C669.153 43.0674 669.255 43.3302 669.434 43.5404C669.616 43.7478 669.848 43.9026 670.129 44.0049C670.413 44.1043 670.724 44.1541 671.062 44.1541C671.434 44.1541 671.765 44.0958 672.055 43.9793C672.348 43.86 672.578 43.6953 672.745 43.485C672.913 43.272 672.997 43.0234 672.997 42.7393C672.997 42.4808 672.923 42.2691 672.775 42.1043C672.63 41.9396 672.433 41.8032 672.183 41.6953C671.936 41.5873 671.656 41.4921 671.343 41.4097L670.312 41.1285C669.613 40.9381 669.059 40.6583 668.65 40.289C668.244 39.9197 668.041 39.431 668.041 38.8231C668.041 38.3203 668.177 37.8813 668.45 37.5063C668.723 37.1313 669.092 36.8401 669.558 36.6328C670.024 36.4225 670.549 36.3174 671.135 36.3174C671.726 36.3174 672.247 36.4211 672.699 36.6285C673.153 36.8359 673.511 37.1214 673.772 37.485C674.034 37.8458 674.17 38.2606 674.182 38.7293H672.912ZM681.05 45.164V36.4367H684.246C684.865 36.4367 685.378 36.539 685.784 36.7435C686.191 36.9453 686.495 37.2194 686.696 37.566C686.898 37.9097 686.999 38.2975 686.999 38.7293C686.999 39.093 686.932 39.3998 686.799 39.6498C686.665 39.897 686.486 40.0958 686.262 40.2464C686.04 40.3941 685.796 40.5021 685.529 40.5703V40.6555C685.819 40.6697 686.101 40.7634 686.377 40.9367C686.655 41.1072 686.885 41.3501 687.067 41.6654C687.249 41.9808 687.34 42.3643 687.34 42.816C687.34 43.262 687.235 43.6626 687.025 44.0177C686.817 44.37 686.496 44.6498 686.061 44.8572C685.627 45.0617 685.071 45.164 684.395 45.164H681.05ZM682.367 44.0347H684.267C684.898 44.0347 685.35 43.9126 685.623 43.6683C685.895 43.4239 686.032 43.1185 686.032 42.7521C686.032 42.4765 685.962 42.2237 685.823 41.9935C685.684 41.7634 685.485 41.5802 685.226 41.4438C684.971 41.3075 684.667 41.2393 684.314 41.2393H682.367V44.0347ZM682.367 40.2123H684.131C684.427 40.2123 684.692 40.1555 684.928 40.0418C685.167 39.9282 685.356 39.7691 685.495 39.5646C685.637 39.3572 685.708 39.1129 685.708 38.8316C685.708 38.4708 685.581 38.1683 685.329 37.9239C685.076 37.6796 684.688 37.5575 684.165 37.5575H682.367V40.2123ZM689.228 36.4367H690.724L693.004 40.4041H693.098L695.378 36.4367H696.873L693.707 41.7379V45.164H692.395V41.7379L689.228 36.4367ZM708.052 38.7293C708.007 38.3259 707.819 38.0134 707.49 37.7918C707.16 37.5674 706.745 37.4552 706.245 37.4552C705.887 37.4552 705.578 37.512 705.316 37.6256C705.055 37.7364 704.852 37.8899 704.707 38.0859C704.565 38.2791 704.494 38.4992 704.494 38.7464C704.494 38.9538 704.542 39.1328 704.639 39.2833C704.738 39.4339 704.868 39.5603 705.027 39.6626C705.189 39.762 705.362 39.8458 705.547 39.914C705.731 39.9793 705.909 40.0333 706.079 40.0759L706.932 40.2975C707.21 40.3657 707.495 40.458 707.788 40.5745C708.081 40.691 708.352 40.8444 708.602 41.0347C708.852 41.2251 709.054 41.4609 709.207 41.7421C709.363 42.0234 709.441 42.36 709.441 42.7521C709.441 43.2464 709.314 43.6853 709.058 44.0688C708.805 44.4524 708.437 44.7549 707.954 44.9765C707.474 45.1981 706.893 45.3089 706.211 45.3089C705.558 45.3089 704.993 45.2052 704.515 44.9978C704.038 44.7904 703.664 44.4964 703.395 44.1157C703.125 43.7322 702.976 43.2776 702.947 42.7521H704.268C704.294 43.0674 704.396 43.3302 704.575 43.5404C704.757 43.7478 704.988 43.9026 705.27 44.0049C705.554 44.1043 705.865 44.1541 706.203 44.1541C706.575 44.1541 706.906 44.0958 707.196 43.9793C707.488 43.86 707.718 43.6953 707.886 43.485C708.054 43.272 708.137 43.0234 708.137 42.7393C708.137 42.4808 708.064 42.2691 707.916 42.1043C707.771 41.9396 707.574 41.8032 707.324 41.6953C707.076 41.5873 706.797 41.4921 706.484 41.4097L705.453 41.1285C704.754 40.9381 704.2 40.6583 703.791 40.289C703.385 39.9197 703.182 39.431 703.182 38.8231C703.182 38.3203 703.318 37.8813 703.591 37.5063C703.863 37.1313 704.233 36.8401 704.699 36.6328C705.164 36.4225 705.69 36.3174 706.275 36.3174C706.866 36.3174 707.387 36.4211 707.839 36.6285C708.294 36.8359 708.652 37.1214 708.913 37.485C709.174 37.8458 709.311 38.2606 709.322 38.7293H708.052ZM712.015 45.164V36.4367H717.487V37.5703H713.332V40.2293H717.201V41.3586H713.332V44.0305H717.538V45.164H712.015ZM721.008 36.4367L723.437 43.5447H723.535L725.964 36.4367H727.387L724.247 45.164H722.726L719.585 36.4367H721.008ZM729.648 45.164V36.4367H735.119V37.5703H730.965V40.2293H734.834V41.3586H730.965V44.0305H735.17V45.164H729.648ZM737.878 45.164V36.4367H740.989C741.665 36.4367 742.226 36.5532 742.672 36.7862C743.121 37.0191 743.456 37.3416 743.678 37.7535C743.9 38.1626 744.01 38.6356 744.01 39.1725C744.01 39.7066 743.898 40.1768 743.674 40.583C743.452 40.9864 743.117 41.3004 742.668 41.5248C742.222 41.7492 741.661 41.8614 740.985 41.8614H738.628V40.7279H740.865C741.292 40.7279 741.638 40.6668 741.905 40.5447C742.175 40.4225 742.373 40.245 742.498 40.012C742.623 39.7791 742.685 39.4992 742.685 39.1725C742.685 38.843 742.621 38.5575 742.493 38.316C742.368 38.0745 742.171 37.8899 741.901 37.762C741.634 37.6313 741.283 37.566 740.848 37.566H739.195V45.164H737.878ZM742.186 41.2265L744.343 45.164H742.843L740.729 41.2265H742.186ZM747.929 36.4367V45.164H746.613V36.4367H747.929ZM750.417 37.5703V36.4367H757.171V37.5703H754.448V45.164H753.135V37.5703H750.417ZM758.99 36.4367H760.486L762.766 40.4041H762.859L765.139 36.4367H766.635L763.469 41.7379V45.164H762.156V41.7379L758.99 36.4367Z" fill="#878D96"/>
<path d="M569.879 60.3003L572.901 68.8713H573.021L576.043 60.3003H577.336L573.597 70.4821H572.325L568.586 60.3003H569.879ZM578.763 70.4821V62.8458H579.936V70.4821H578.763ZM579.359 61.573C579.131 61.573 578.934 61.4951 578.768 61.3394C578.605 61.1836 578.524 60.9963 578.524 60.7776C578.524 60.5588 578.605 60.3716 578.768 60.2158C578.934 60.06 579.131 59.9821 579.359 59.9821C579.588 59.9821 579.784 60.06 579.946 60.2158C580.112 60.3716 580.195 60.5588 580.195 60.7776C580.195 60.9963 580.112 61.1836 579.946 61.3394C579.784 61.4951 579.588 61.573 579.359 61.573ZM585.287 70.6412C584.551 70.6412 583.916 70.4788 583.383 70.154C582.852 69.8259 582.443 69.3685 582.155 68.7818C581.87 68.1919 581.727 67.5058 581.727 66.7236C581.727 65.9414 581.87 65.252 582.155 64.6554C582.443 64.0555 582.844 63.5882 583.358 63.2534C583.875 62.9154 584.478 62.7463 585.167 62.7463C585.565 62.7463 585.958 62.8126 586.346 62.9452C586.734 63.0778 587.087 63.2932 587.405 63.5915C587.723 63.8865 587.976 64.2776 588.165 64.7648C588.354 65.252 588.449 65.8519 588.449 66.5645V67.0617H582.562V66.0475H587.256C587.256 65.6166 587.169 65.2321 586.997 64.894C586.828 64.556 586.586 64.2892 586.271 64.0936C585.96 63.8981 585.592 63.8003 585.167 63.8003C584.7 63.8003 584.296 63.9163 583.954 64.1483C583.616 64.377 583.356 64.6753 583.174 65.0432C582.992 65.4111 582.9 65.8055 582.9 66.2264V66.9026C582.9 67.4793 583 67.9681 583.199 68.3692C583.401 68.7669 583.681 69.0702 584.039 69.279C584.397 69.4845 584.813 69.5872 585.287 69.5872C585.595 69.5872 585.873 69.5441 586.122 69.458C586.374 69.3685 586.591 69.2359 586.773 69.0602C586.956 68.8813 587.096 68.6592 587.196 68.394L588.329 68.7122C588.21 69.0967 588.01 69.4348 587.728 69.7264C587.446 70.0148 587.098 70.2402 586.684 70.4026C586.27 70.5617 585.804 70.6412 585.287 70.6412ZM591.964 70.4821L589.637 62.8458H590.87L592.52 68.6923H592.6L594.231 62.8458H595.484L597.094 68.6725H597.174L598.824 62.8458H600.057L597.731 70.4821H596.577L594.907 64.6156H594.788L593.117 70.4821H591.964ZM607.793 70.6611C607.309 70.6611 606.87 70.5699 606.476 70.3877C606.081 70.2021 605.768 69.9352 605.536 69.5872C605.304 69.2359 605.188 68.8117 605.188 68.3145C605.188 67.877 605.274 67.5224 605.447 67.2506C605.619 66.9755 605.849 66.7601 606.138 66.6043C606.426 66.4485 606.744 66.3325 607.092 66.2563C607.444 66.1767 607.797 66.1137 608.151 66.0673C608.615 66.0077 608.991 65.9629 609.28 65.9331C609.571 65.9 609.783 65.8453 609.916 65.769C610.052 65.6928 610.12 65.5602 610.12 65.3713V65.3315C610.12 64.841 609.986 64.4599 609.717 64.1881C609.452 63.9163 609.049 63.7804 608.509 63.7804C607.949 63.7804 607.51 63.903 607.192 64.1483C606.873 64.3936 606.65 64.6554 606.52 64.9338L605.407 64.5361C605.606 64.0721 605.871 63.7108 606.202 63.4523C606.537 63.1904 606.902 63.0082 607.296 62.9054C607.694 62.7994 608.085 62.7463 608.469 62.7463C608.715 62.7463 608.996 62.7762 609.314 62.8358C609.636 62.8922 609.946 63.0098 610.244 63.1888C610.546 63.3678 610.796 63.6379 610.995 63.9992C611.194 64.3604 611.293 64.8443 611.293 65.4509V70.4821H610.12V69.448H610.06C609.981 69.6137 609.848 69.7911 609.663 69.98C609.477 70.1689 609.23 70.3297 608.922 70.4622C608.614 70.5948 608.237 70.6611 607.793 70.6611ZM607.972 69.6071C608.436 69.6071 608.827 69.516 609.145 69.3337C609.467 69.1514 609.709 68.9161 609.871 68.6277C610.037 68.3394 610.12 68.0361 610.12 67.7179V66.644C610.07 66.7037 609.961 66.7584 609.792 66.8081C609.626 66.8545 609.434 66.8959 609.215 66.9324C609 66.9655 608.789 66.9954 608.584 67.0219C608.381 67.0451 608.217 67.065 608.091 67.0815C607.787 67.1213 607.502 67.186 607.236 67.2754C606.975 67.3616 606.762 67.4925 606.6 67.6682C606.441 67.8405 606.361 68.0759 606.361 68.3742C606.361 68.7818 606.512 69.0901 606.814 69.2989C607.119 69.5044 607.505 69.6071 607.972 69.6071ZM614.608 60.3003V70.4821H613.435V60.3003H614.608ZM617.93 60.3003V70.4821H616.757V60.3003H617.93Z" fill="#1757C2"/>
<path d="M634.633 65.4821C634.633 65.7021 634.553 65.9021 634.393 66.0621L629.193 71.0621C629.033 71.2021 628.833 71.2821 628.633 71.2821C628.413 71.2821 628.213 71.2021 628.053 71.0421C627.753 70.7221 627.753 70.2221 628.073 69.9021L632.673 65.4821L628.073 61.0621C627.753 60.7621 627.753 60.2421 628.053 59.9221C628.353 59.6021 628.873 59.6021 629.193 59.9021L634.393 64.9021C634.553 65.0621 634.633 65.2621 634.633 65.4821Z" fill="#1757C2"/>
<path d="M320.401 55.3232C320.401 66.594 311.265 75.7307 299.994 75.7307C288.723 75.7307 279.586 66.594 279.586 55.3232C279.586 44.0525 288.723 34.9157 299.994 34.9157C311.265 34.9157 320.401 44.0525 320.401 55.3232Z" fill="#F9FCF5"/>
<path fill-rule="evenodd" clip-rule="evenodd" d="M299.994 35.766C289.193 35.766 280.437 44.522 280.437 55.3232C280.437 66.1243 289.193 74.8804 299.994 74.8804C310.795 74.8804 319.551 66.1243 319.551 55.3232C319.551 44.522 310.795 35.766 299.994 35.766ZM278.736 55.3232C278.736 43.5828 288.254 34.0654 299.994 34.0654C311.734 34.0654 321.252 43.5828 321.252 55.3232C321.252 67.0635 311.734 76.581 299.994 76.581C288.254 76.581 278.736 67.0635 278.736 55.3232Z" fill="#90CA2F"/>
<path d="M294.438 63.8263V46.5109H300.492C301.698 46.5109 302.693 46.7194 303.476 47.1365C304.26 47.548 304.843 48.1032 305.226 48.8021C305.61 49.4954 305.801 50.2648 305.801 51.1103C305.801 51.8543 305.669 52.4687 305.404 52.9534C305.145 53.4382 304.801 53.8215 304.372 54.1033C303.95 54.3851 303.49 54.5937 302.994 54.7289V54.898C303.524 54.9319 304.057 55.1179 304.592 55.4561C305.128 55.7942 305.576 56.279 305.937 56.9103C306.297 57.5416 306.478 58.3138 306.478 59.2269C306.478 60.0949 306.28 60.8756 305.886 61.5689C305.491 62.2622 304.868 62.8117 304.017 63.2176C303.166 63.6234 302.059 63.8263 300.695 63.8263H294.438ZM296.535 61.9663H300.695C302.064 61.9663 303.037 61.7013 303.611 61.1715C304.192 60.636 304.482 59.9878 304.482 59.2269C304.482 58.6407 304.333 58.0996 304.034 57.6036C303.735 57.1019 303.31 56.7017 302.758 56.403C302.205 56.0986 301.551 55.9464 300.796 55.9464H296.535V61.9663ZM296.535 54.1202H300.424C301.055 54.1202 301.625 53.9962 302.132 53.7482C302.645 53.5002 303.051 53.1507 303.349 52.6998C303.654 52.2489 303.806 51.719 303.806 51.1103C303.806 50.3493 303.541 49.704 303.011 49.1741C302.481 48.6387 301.641 48.3709 300.492 48.3709H296.535V54.1202Z" fill="#90CA2F"/>
<path d="M346.587 70.07C344.597 70.07 342.838 69.7173 341.311 69.0119C339.794 68.2969 338.611 67.3161 337.76 66.0696C336.91 64.8135 336.49 63.3834 336.499 61.7794C336.49 60.5233 336.736 59.3637 337.239 58.3009C337.741 57.2283 338.427 56.3345 339.297 55.6195C340.176 54.8948 341.157 54.4358 342.239 54.2426V54.0686C340.819 53.7014 339.688 52.9043 338.847 51.6771C338.007 50.4403 337.591 49.0344 337.601 47.4594C337.591 45.952 337.973 44.6041 338.746 43.4156C339.519 42.2271 340.582 41.2898 341.935 40.6037C343.297 39.9177 344.848 39.5747 346.587 39.5747C348.307 39.5747 349.843 39.9177 351.196 40.6037C352.549 41.2898 353.612 42.2271 354.385 43.4156C355.168 44.6041 355.564 45.952 355.573 47.4594C355.564 49.0344 355.134 50.4403 354.283 51.6771C353.443 52.9043 352.327 53.7014 350.935 54.0686V54.2426C352.008 54.4358 352.974 54.8948 353.834 55.6195C354.694 56.3345 355.38 57.2283 355.892 58.3009C356.404 59.3637 356.665 60.5233 356.675 61.7794C356.665 63.3834 356.23 64.8135 355.37 66.0696C354.52 67.3161 353.336 68.2969 351.819 69.0119C350.312 69.7173 348.568 70.07 346.587 70.07ZM346.587 66.8813C347.93 66.8813 349.09 66.6639 350.066 66.2291C351.042 65.7942 351.795 65.1807 352.327 64.3883C352.858 63.596 353.129 62.6684 353.138 61.6055C353.129 60.4846 352.839 59.4942 352.269 58.6342C351.699 57.7742 350.921 57.0979 349.935 56.6051C348.959 56.1123 347.843 55.8659 346.587 55.8659C345.321 55.8659 344.191 56.1123 343.196 56.6051C342.21 57.0979 341.432 57.7742 340.862 58.6342C340.302 59.4942 340.026 60.4846 340.036 61.6055C340.026 62.6684 340.282 63.596 340.804 64.3883C341.335 65.1807 342.094 65.7942 343.08 66.2291C344.065 66.6639 345.234 66.8813 346.587 66.8813ZM346.587 52.7932C347.65 52.7932 348.592 52.5806 349.413 52.1554C350.244 51.7303 350.897 51.136 351.37 50.3727C351.844 49.6093 352.085 48.7155 352.095 47.6913C352.085 46.6864 351.848 45.8119 351.385 45.0679C350.921 44.3142 350.278 43.7344 349.457 43.3286C348.636 42.9131 347.679 42.7054 346.587 42.7054C345.476 42.7054 344.505 42.9131 343.674 43.3286C342.843 43.7344 342.2 44.3142 341.746 45.0679C341.292 45.8119 341.07 46.6864 341.079 47.6913C341.07 48.7155 341.297 49.6093 341.761 50.3727C342.234 51.136 342.886 51.7303 343.717 52.1554C344.548 52.5806 345.505 52.7932 346.587 52.7932ZM371.912 70.07C369.728 70.07 367.868 69.4757 366.332 68.2872C364.795 67.089 363.621 65.3546 362.809 63.0839C361.998 60.8035 361.592 58.0496 361.592 54.8223C361.592 51.6143 361.998 48.875 362.809 46.6042C363.631 44.3238 364.81 42.5846 366.346 41.3864C367.892 40.1786 369.747 39.5747 371.912 39.5747C374.076 39.5747 375.927 40.1786 377.463 41.3864C379.009 42.5846 380.188 44.3238 380.999 46.6042C381.821 48.875 382.231 51.6143 382.231 54.8223C382.231 58.0496 381.826 60.8035 381.014 63.0839C380.202 65.3546 379.028 67.089 377.492 68.2872C375.955 69.4757 374.095 70.07 371.912 70.07ZM371.912 66.8813C374.076 66.8813 375.757 65.8377 376.956 63.7506C378.154 61.6635 378.753 58.6874 378.753 54.8223C378.753 52.252 378.477 50.0635 377.927 48.2565C377.386 46.4496 376.603 45.0727 375.579 44.1258C374.564 43.1788 373.342 42.7054 371.912 42.7054C369.767 42.7054 368.09 43.7634 366.882 45.8795C365.674 47.986 365.071 50.9669 365.071 54.8223C365.071 57.3926 365.341 59.5763 365.882 61.3736C366.423 63.1708 367.201 64.5381 368.216 65.4754C369.24 66.4126 370.472 66.8813 371.912 66.8813ZM397.595 70.07C396.377 70.0506 395.16 69.8187 393.942 69.3742C392.725 68.9298 391.614 68.1809 390.609 67.1277C389.604 66.0648 388.797 64.6299 388.188 62.823C387.58 61.0064 387.275 58.726 387.275 55.9818C387.275 53.3536 387.522 51.0249 388.014 48.9957C388.507 46.9569 389.222 45.2418 390.16 43.8504C391.097 42.4493 392.227 41.3864 393.551 40.6617C394.885 39.937 396.387 39.5747 398.059 39.5747C399.721 39.5747 401.199 39.908 402.494 40.5747C403.798 41.2318 404.861 42.1498 405.683 43.3286C406.504 44.5074 407.035 45.865 407.277 47.4014H403.74C403.412 46.068 402.774 44.9616 401.827 44.0823C400.88 43.203 399.624 42.7633 398.059 42.7633C395.759 42.7633 393.947 43.7634 392.624 45.7636C391.309 47.7638 390.648 50.5707 390.638 54.1846H390.87C391.411 53.3632 392.053 52.6627 392.797 52.083C393.551 51.4935 394.382 51.0394 395.29 50.7205C396.199 50.4017 397.16 50.2422 398.175 50.2422C399.875 50.2422 401.431 50.6674 402.842 51.5177C404.253 52.3583 405.383 53.5227 406.233 55.0107C407.084 56.4891 407.509 58.1849 407.509 60.0981C407.509 61.934 407.098 63.6153 406.277 65.142C405.456 66.659 404.301 67.8669 402.813 68.7655C401.334 69.6545 399.595 70.0893 397.595 70.07ZM397.595 66.8813C398.812 66.8813 399.904 66.5769 400.871 65.9682C401.847 65.3594 402.615 64.5429 403.175 63.5187C403.745 62.4944 404.03 61.3543 404.03 60.0981C404.03 58.871 403.755 57.7549 403.204 56.75C402.663 55.7354 401.914 54.9286 400.958 54.3295C400.011 53.7304 398.928 53.4309 397.711 53.4309C396.793 53.4309 395.938 53.6145 395.145 53.9817C394.353 54.3392 393.657 54.832 393.058 55.46C392.469 56.0881 392.005 56.808 391.667 57.6196C391.329 58.4216 391.16 59.2671 391.16 60.1561C391.16 61.3349 391.435 62.4365 391.986 63.4607C392.546 64.4849 393.31 65.3111 394.276 65.9392C395.252 66.5672 396.358 66.8813 397.595 66.8813Z" fill="#90CA2F"/>
<path d="M422.918 56.5266L419.331 69.8538H418.157L421.744 56.5266H422.918ZM432.265 56.8962C432.722 56.8998 433.179 56.9868 433.635 57.1571C434.092 57.3274 434.508 57.61 434.885 58.005C435.262 58.3963 435.565 58.9308 435.793 59.6084C436.021 60.286 436.135 61.1357 436.135 62.1575C436.135 63.1467 436.041 64.0254 435.853 64.7936C435.668 65.5582 435.4 66.2031 435.048 66.7285C434.7 67.2539 434.276 67.6525 433.776 67.9243C433.28 68.1961 432.718 68.3319 432.092 68.3319C431.468 68.3319 430.912 68.2087 430.423 67.9623C429.937 67.7123 429.539 67.3663 429.227 66.9242C428.919 66.4785 428.722 65.9622 428.635 65.3752H429.961C430.08 65.8861 430.318 66.3082 430.673 66.6416C431.032 66.9713 431.505 67.1362 432.092 67.1362C432.95 67.1362 433.628 66.7612 434.124 66.0111C434.624 65.261 434.874 64.2012 434.874 62.8315H434.787C434.584 63.1359 434.344 63.3986 434.065 63.6196C433.786 63.8406 433.476 64.0109 433.135 64.1305C432.794 64.2501 432.432 64.3099 432.048 64.3099C431.41 64.3099 430.825 64.1522 430.292 63.837C429.763 63.5181 429.339 63.0815 429.021 62.5271C428.705 61.9691 428.548 61.3314 428.548 60.6139C428.548 59.9327 428.7 59.3094 429.004 58.7442C429.312 58.1753 429.743 57.7224 430.298 57.3854C430.856 57.0484 431.512 56.8853 432.265 56.8962ZM432.265 58.092C431.809 58.092 431.398 58.2061 431.032 58.4344C430.669 58.659 430.381 58.9634 430.167 59.3475C429.957 59.728 429.852 60.1501 429.852 60.6139C429.852 61.0777 429.954 61.4998 430.157 61.8803C430.363 62.2572 430.644 62.5579 430.999 62.7826C431.358 63.0036 431.765 63.1141 432.222 63.1141C432.566 63.1141 432.887 63.0471 433.184 62.913C433.481 62.7753 433.74 62.5887 433.961 62.3532C434.186 62.114 434.362 61.8441 434.488 61.5433C434.615 61.239 434.679 60.9219 434.679 60.5922C434.679 60.1573 434.574 59.7497 434.363 59.3692C434.157 58.9888 433.871 58.6808 433.505 58.4452C433.142 58.2097 432.729 58.092 432.265 58.092ZM441.751 68.3319C441.114 68.3319 440.539 68.2051 440.028 67.9515C439.517 67.6978 439.108 67.35 438.8 66.9079C438.492 66.4658 438.323 65.9622 438.294 65.3969H439.599C439.65 65.9006 439.878 66.3173 440.284 66.647C440.693 66.9731 441.182 67.1362 441.751 67.1362C442.208 67.1362 442.614 67.0293 442.969 66.8155C443.328 66.6017 443.608 66.3082 443.811 65.935C444.018 65.5582 444.121 65.1324 444.121 64.6577C444.121 64.1722 444.014 63.7392 443.8 63.3587C443.59 62.9746 443.3 62.672 442.931 62.451C442.561 62.23 442.139 62.1176 441.664 62.114C441.324 62.1104 440.974 62.1629 440.615 62.2716C440.257 62.3767 439.961 62.5126 439.729 62.6793L438.468 62.5271L439.142 57.0484H444.925V58.2441H440.273L439.882 61.527H439.947C440.175 61.3458 440.461 61.1955 440.806 61.0759C441.15 60.9563 441.509 60.8965 441.882 60.8965C442.563 60.8965 443.17 61.0596 443.703 61.3857C444.239 61.7082 444.659 62.1503 444.964 62.7119C445.272 63.2735 445.426 63.9149 445.426 64.636C445.426 65.3462 445.266 65.9803 444.947 66.5383C444.632 67.0927 444.197 67.5311 443.643 67.8536C443.088 68.1725 442.458 68.3319 441.751 68.3319ZM451.215 68.3319C450.396 68.3319 449.699 68.1091 449.123 67.6634C448.547 67.2141 448.106 66.5637 447.802 65.7122C447.498 64.857 447.346 63.8243 447.346 62.6141C447.346 61.4111 447.498 60.3838 447.802 59.5323C448.11 58.6771 448.552 58.0249 449.128 57.5756C449.708 57.1227 450.404 56.8962 451.215 56.8962C452.027 56.8962 452.721 57.1227 453.297 57.5756C453.877 58.0249 454.319 58.6771 454.623 59.5323C454.931 60.3838 455.085 61.4111 455.085 62.6141C455.085 63.8243 454.933 64.857 454.629 65.7122C454.324 66.5637 453.884 67.2141 453.308 67.6634C452.732 68.1091 452.034 68.3319 451.215 68.3319ZM451.215 67.1362C452.027 67.1362 452.658 66.7448 453.107 65.9622C453.556 65.1795 453.781 64.0635 453.781 62.6141C453.781 61.6502 453.678 60.8295 453.471 60.1519C453.268 59.4743 452.975 58.958 452.591 58.6029C452.21 58.2478 451.752 58.0702 451.215 58.0702C450.411 58.0702 449.782 58.467 449.329 59.2605C448.876 60.0504 448.65 61.1683 448.65 62.6141C448.65 63.5779 448.751 64.3968 448.954 65.0708C449.157 65.7448 449.449 66.2575 449.829 66.609C450.213 66.9604 450.675 67.1362 451.215 67.1362Z" fill="#878D96"/>
<line x1="513.124" y1="85.8817" x2="513.124" y2="24.7646" stroke="#DDE1E6" stroke-width="1.03521"/>
<circle cx="840.337" cy="55.3232" r="16" fill="#E02424"/>
<path d="M833.321 49.7552V54.3312C833.321 54.8165 833.297 55.2939 833.249 55.7632C833.201 56.2272 833.139 56.7205 833.065 57.2432H831.721C831.646 56.7205 831.585 56.2272 831.537 55.7632C831.489 55.2939 831.465 54.8165 831.465 54.3312V49.7552H833.321ZM831.153 60.2352C831.153 60.0699 831.182 59.9125 831.241 59.7632C831.305 59.6139 831.39 59.4859 831.497 59.3792C831.609 59.2725 831.739 59.1872 831.889 59.1232C832.038 59.0592 832.198 59.0272 832.369 59.0272C832.534 59.0272 832.691 59.0592 832.841 59.1232C832.99 59.1872 833.118 59.2725 833.225 59.3792C833.337 59.4859 833.425 59.6139 833.489 59.7632C833.553 59.9125 833.585 60.0699 833.585 60.2352C833.585 60.4059 833.553 60.5659 833.489 60.7152C833.425 60.8592 833.337 60.9845 833.225 61.0912C833.118 61.1979 832.99 61.2805 832.841 61.3392C832.691 61.4032 832.534 61.4352 832.369 61.4352C832.198 61.4352 832.038 61.4032 831.889 61.3392C831.739 61.2805 831.609 61.1979 831.497 61.0912C831.39 60.9845 831.305 60.8592 831.241 60.7152C831.182 60.5659 831.153 60.4059 831.153 60.2352Z" fill="white"/>
<path d="M838.621 49.7552V54.3312C838.621 54.8165 838.597 55.2939 838.549 55.7632C838.501 56.2272 838.439 56.7205 838.365 57.2432H837.021C836.946 56.7205 836.885 56.2272 836.837 55.7632C836.789 55.2939 836.765 54.8165 836.765 54.3312V49.7552H838.621ZM836.453 60.2352C836.453 60.0699 836.482 59.9125 836.541 59.7632C836.605 59.6139 836.69 59.4859 836.797 59.3792C836.909 59.2725 837.039 59.1872 837.189 59.1232C837.338 59.0592 837.498 59.0272 837.669 59.0272C837.834 59.0272 837.991 59.0592 838.141 59.1232C838.29 59.1872 838.418 59.2725 838.525 59.3792C838.637 59.4859 838.725 59.6139 838.789 59.7632C838.853 59.9125 838.885 60.0699 838.885 60.2352C838.885 60.4059 838.853 60.5659 838.789 60.7152C838.725 60.8592 838.637 60.9845 838.525 61.0912C838.418 61.1979 838.29 61.2805 838.141 61.3392C837.991 61.4032 837.834 61.4352 837.669 61.4352C837.498 61.4352 837.338 61.4032 837.189 61.3392C837.039 61.2805 836.909 61.1979 836.797 61.0912C836.69 60.9845 836.605 60.8592 836.541 60.7152C836.482 60.5659 836.453 60.4059 836.453 60.2352Z" fill="white"/>
<path d="M843.921 49.7552V54.3312C843.921 54.8165 843.897 55.2939 843.849 55.7632C843.801 56.2272 843.739 56.7205 843.665 57.2432H842.321C842.246 56.7205 842.185 56.2272 842.137 55.7632C842.089 55.2939 842.065 54.8165 842.065 54.3312V49.7552H843.921ZM841.753 60.2352C841.753 60.0699 841.782 59.9125 841.841 59.7632C841.905 59.6139 841.99 59.4859 842.097 59.3792C842.209 59.2725 842.34 59.1872 842.489 59.1232C842.638 59.0592 842.798 59.0272 842.969 59.0272C843.134 59.0272 843.292 59.0592 843.441 59.1232C843.59 59.1872 843.718 59.2725 843.825 59.3792C843.937 59.4859 844.025 59.6139 844.089 59.7632C844.153 59.9125 844.185 60.0699 844.185 60.2352C844.185 60.4059 844.153 60.5659 844.089 60.7152C844.025 60.8592 843.937 60.9845 843.825 61.0912C843.718 61.1979 843.59 61.2805 843.441 61.3392C843.292 61.4032 843.134 61.4352 842.969 61.4352C842.798 61.4352 842.638 61.4032 842.489 61.3392C842.34 61.2805 842.209 61.1979 842.097 61.0912C841.99 60.9845 841.905 60.8592 841.841 60.7152C841.782 60.5659 841.753 60.4059 841.753 60.2352Z" fill="white"/>
<path d="M849.221 49.7552V54.3312C849.221 54.8165 849.197 55.2939 849.149 55.7632C849.101 56.2272 849.039 56.7205 848.965 57.2432H847.621C847.546 56.7205 847.485 56.2272 847.437 55.7632C847.389 55.2939 847.365 54.8165 847.365 54.3312V49.7552H849.221ZM847.053 60.2352C847.053 60.0699 847.082 59.9125 847.141 59.7632C847.205 59.6139 847.29 59.4859 847.397 59.3792C847.509 59.2725 847.64 59.1872 847.789 59.1232C847.938 59.0592 848.098 59.0272 848.269 59.0272C848.434 59.0272 848.591 59.0592 848.741 59.1232C848.89 59.1872 849.018 59.2725 849.125 59.3792C849.237 59.4859 849.325 59.6139 849.389 59.7632C849.453 59.9125 849.485 60.0699 849.485 60.2352C849.485 60.4059 849.453 60.5659 849.389 60.7152C849.325 60.8592 849.237 60.9845 849.125 61.0912C849.018 61.1979 848.89 61.2805 848.741 61.3392C848.591 61.4032 848.434 61.4352 848.269 61.4352C848.098 61.4352 847.938 61.4032 847.789 61.3392C847.64 61.2805 847.509 61.1979 847.397 61.0912C847.29 60.9845 847.205 60.8592 847.141 60.7152C847.082 60.5659 847.053 60.4059 847.053 60.2352Z" fill="white"/>
<path d="M873.337 61.4823C872.481 61.4823 871.752 61.2493 871.149 60.7834C870.547 60.3137 870.087 59.6338 869.769 58.7436C869.451 57.8497 869.291 56.7702 869.291 55.505C869.291 54.2474 869.451 53.1736 869.769 52.2834C870.091 51.3895 870.553 50.7077 871.155 50.238C871.761 49.7645 872.488 49.5277 873.337 49.5277C874.185 49.5277 874.911 49.7645 875.513 50.238C876.119 50.7077 876.581 51.3895 876.899 52.2834C877.221 53.1736 877.382 54.2474 877.382 55.505C877.382 56.7702 877.223 57.8497 876.905 58.7436C876.587 59.6338 876.127 60.3137 875.524 60.7834C874.922 61.2493 874.193 61.4823 873.337 61.4823ZM873.337 60.2323C874.185 60.2323 874.844 59.8232 875.314 59.005C875.784 58.1868 876.019 57.0202 876.019 55.505C876.019 54.4974 875.911 53.6395 875.695 52.9311C875.483 52.2228 875.176 51.683 874.774 51.3118C874.377 50.9406 873.898 50.755 873.337 50.755C872.496 50.755 871.839 51.1698 871.365 51.9993C870.892 52.8251 870.655 53.9936 870.655 55.505C870.655 56.5126 870.761 57.3686 870.973 58.0732C871.185 58.7777 871.49 59.3137 871.888 59.6811C872.29 60.0486 872.773 60.2323 873.337 60.2323Z" fill="#121619"/>
<circle cx="918.337" cy="55.3232" r="16" fill="#FF6B01"/>
<path d="M913.971 49.7552V54.3312C913.971 54.8165 913.947 55.2939 913.899 55.7632C913.851 56.2272 913.789 56.7205 913.715 57.2432H912.371C912.296 56.7205 912.235 56.2272 912.187 55.7632C912.139 55.2939 912.115 54.8165 912.115 54.3312V49.7552H913.971ZM911.803 60.2352C911.803 60.0699 911.832 59.9125 911.891 59.7632C911.955 59.6139 912.04 59.4859 912.147 59.3792C912.259 59.2725 912.389 59.1872 912.539 59.1232C912.688 59.0592 912.848 59.0272 913.019 59.0272C913.184 59.0272 913.341 59.0592 913.491 59.1232C913.64 59.1872 913.768 59.2725 913.875 59.3792C913.987 59.4859 914.075 59.6139 914.139 59.7632C914.203 59.9125 914.235 60.0699 914.235 60.2352C914.235 60.4059 914.203 60.5659 914.139 60.7152C914.075 60.8592 913.987 60.9845 913.875 61.0912C913.768 61.1979 913.64 61.2805 913.491 61.3392C913.341 61.4032 913.184 61.4352 913.019 61.4352C912.848 61.4352 912.688 61.4032 912.539 61.3392C912.389 61.2805 912.259 61.1979 912.147 61.0912C912.04 60.9845 911.955 60.8592 911.891 60.7152C911.832 60.5659 911.803 60.4059 911.803 60.2352Z" fill="white"/>
<path d="M919.271 49.7552V54.3312C919.271 54.8165 919.247 55.2939 919.199 55.7632C919.151 56.2272 919.089 56.7205 919.015 57.2432H917.671C917.596 56.7205 917.535 56.2272 917.487 55.7632C917.439 55.2939 917.415 54.8165 917.415 54.3312V49.7552H919.271ZM917.103 60.2352C917.103 60.0699 917.132 59.9125 917.191 59.7632C917.255 59.6139 917.34 59.4859 917.447 59.3792C917.559 59.2725 917.689 59.1872 917.839 59.1232C917.988 59.0592 918.148 59.0272 918.319 59.0272C918.484 59.0272 918.641 59.0592 918.791 59.1232C918.94 59.1872 919.068 59.2725 919.175 59.3792C919.287 59.4859 919.375 59.6139 919.439 59.7632C919.503 59.9125 919.535 60.0699 919.535 60.2352C919.535 60.4059 919.503 60.5659 919.439 60.7152C919.375 60.8592 919.287 60.9845 919.175 61.0912C919.068 61.1979 918.94 61.2805 918.791 61.3392C918.641 61.4032 918.484 61.4352 918.319 61.4352C918.148 61.4352 917.988 61.4032 917.839 61.3392C917.689 61.2805 917.559 61.1979 917.447 61.0912C917.34 60.9845 917.255 60.8592 917.191 60.7152C917.132 60.5659 917.103 60.4059 917.103 60.2352Z" fill="white"/>
<path d="M924.571 49.7552V54.3312C924.571 54.8165 924.547 55.2939 924.499 55.7632C924.451 56.2272 924.389 56.7205 924.315 57.2432H922.971C922.896 56.7205 922.835 56.2272 922.787 55.7632C922.739 55.2939 922.715 54.8165 922.715 54.3312V49.7552H924.571ZM922.403 60.2352C922.403 60.0699 922.432 59.9125 922.491 59.7632C922.555 59.6139 922.64 59.4859 922.747 59.3792C922.859 59.2725 922.989 59.1872 923.139 59.1232C923.288 59.0592 923.448 59.0272 923.619 59.0272C923.784 59.0272 923.941 59.0592 924.091 59.1232C924.24 59.1872 924.368 59.2725 924.475 59.3792C924.587 59.4859 924.675 59.6139 924.739 59.7632C924.803 59.9125 924.835 60.0699 924.835 60.2352C924.835 60.4059 924.803 60.5659 924.739 60.7152C924.675 60.8592 924.587 60.9845 924.475 61.0912C924.368 61.1979 924.24 61.2805 924.091 61.3392C923.941 61.4032 923.784 61.4352 923.619 61.4352C923.448 61.4352 923.288 61.4032 923.139 61.3392C922.989 61.2805 922.859 61.1979 922.747 61.0912C922.64 60.9845 922.555 60.8592 922.491 60.7152C922.432 60.5659 922.403 60.4059 922.403 60.2352Z" fill="white"/>
<path d="M951.473 61.4823C950.723 61.4823 950.055 61.3535 949.468 61.0959C948.884 60.8383 948.42 60.4804 948.076 60.022C947.735 59.5599 947.549 59.0239 947.519 58.4141H948.951C948.981 58.7891 949.11 59.113 949.337 59.3857C949.564 59.6546 949.862 59.863 950.229 60.0107C950.596 60.1584 951.004 60.2323 951.451 60.2323C951.951 60.2323 952.394 60.1452 952.78 59.9709C953.166 59.7967 953.469 59.5542 953.689 59.2436C953.909 58.933 954.019 58.5732 954.019 58.1641C954.019 57.7361 953.913 57.3592 953.701 57.0334C953.488 56.7039 953.178 56.4463 952.769 56.2607C952.36 56.0751 951.86 55.9823 951.269 55.9823H950.337V54.7323H951.269C951.731 54.7323 952.136 54.6489 952.485 54.4823C952.837 54.3156 953.112 54.0808 953.309 53.7777C953.509 53.4747 953.61 53.1186 953.61 52.7095C953.61 52.3156 953.523 51.9728 953.348 51.6811C953.174 51.3895 952.928 51.1622 952.61 50.9993C952.295 50.8364 951.924 50.755 951.496 50.755C951.094 50.755 950.716 50.8289 950.36 50.9766C950.007 51.1205 949.719 51.3308 949.496 51.6073C949.273 51.88 949.151 52.2095 949.132 52.5959H947.769C947.791 51.9861 947.975 51.452 948.32 50.9936C948.665 50.5315 949.115 50.1717 949.672 49.9141C950.233 49.6565 950.848 49.5277 951.519 49.5277C952.238 49.5277 952.856 49.6736 953.371 49.9652C953.886 50.2531 954.282 50.6338 954.559 51.1073C954.835 51.5808 954.973 52.0921 954.973 52.6414C954.973 53.2967 954.801 53.8554 954.456 54.3175C954.115 54.7796 953.651 55.0997 953.064 55.2777V55.3686C953.799 55.4898 954.373 55.8023 954.786 56.3061C955.199 56.8061 955.405 57.4255 955.405 58.1641C955.405 58.7967 955.233 59.3648 954.888 59.8686C954.547 60.3686 954.081 60.7626 953.49 61.0505C952.899 61.3383 952.227 61.4823 951.473 61.4823Z" fill="#121619"/>
<circle cx="997.337" cy="55.3232" r="16" fill="#FF9901"/>
<path d="M995.621 49.7552V54.3312C995.621 54.8165 995.597 55.2939 995.549 55.7632C995.501 56.2272 995.44 56.7205 995.365 57.2432H994.021C993.946 56.7205 993.885 56.2272 993.837 55.7632C993.789 55.2939 993.765 54.8165 993.765 54.3312V49.7552H995.621ZM993.453 60.2352C993.453 60.0699 993.482 59.9125 993.541 59.7632C993.605 59.6139 993.69 59.4859 993.797 59.3792C993.909 59.2725 994.04 59.1872 994.189 59.1232C994.338 59.0592 994.498 59.0272 994.669 59.0272C994.834 59.0272 994.992 59.0592 995.141 59.1232C995.29 59.1872 995.418 59.2725 995.525 59.3792C995.637 59.4859 995.725 59.6139 995.789 59.7632C995.853 59.9125 995.885 60.0699 995.885 60.2352C995.885 60.4059 995.853 60.5659 995.789 60.7152C995.725 60.8592 995.637 60.9845 995.525 61.0912C995.418 61.1979 995.29 61.2805 995.141 61.3392C994.992 61.4032 994.834 61.4352 994.669 61.4352C994.498 61.4352 994.338 61.4032 994.189 61.3392C994.04 61.2805 993.909 61.1979 993.797 61.0912C993.69 60.9845 993.605 60.8592 993.541 60.7152C993.482 60.5659 993.453 60.4059 993.453 60.2352Z" fill="white"/>
<path d="M1000.92 49.7552V54.3312C1000.92 54.8165 1000.9 55.2939 1000.85 55.7632C1000.8 56.2272 1000.74 56.7205 1000.67 57.2432H999.321C999.246 56.7205 999.185 56.2272 999.137 55.7632C999.089 55.2939 999.065 54.8165 999.065 54.3312V49.7552H1000.92ZM998.753 60.2352C998.753 60.0699 998.782 59.9125 998.841 59.7632C998.905 59.6139 998.99 59.4859 999.097 59.3792C999.209 59.2725 999.34 59.1872 999.489 59.1232C999.638 59.0592 999.798 59.0272 999.969 59.0272C1000.13 59.0272 1000.29 59.0592 1000.44 59.1232C1000.59 59.1872 1000.72 59.2725 1000.83 59.3792C1000.94 59.4859 1001.03 59.6139 1001.09 59.7632C1001.15 59.9125 1001.19 60.0699 1001.19 60.2352C1001.19 60.4059 1001.15 60.5659 1001.09 60.7152C1001.03 60.8592 1000.94 60.9845 1000.83 61.0912C1000.72 61.1979 1000.59 61.2805 1000.44 61.3392C1000.29 61.4032 1000.13 61.4352 999.969 61.4352C999.798 61.4352 999.638 61.4032 999.489 61.3392C999.34 61.2805 999.209 61.1979 999.097 61.0912C998.99 60.9845 998.905 60.8592 998.841 60.7152C998.782 60.5659 998.753 60.4059 998.753 60.2352Z" fill="white"/>
<path d="M1030.18 61.4823C1029.51 61.4823 1028.91 61.3497 1028.38 61.0845C1027.84 60.8194 1027.41 60.4558 1027.09 59.9936C1026.77 59.5315 1026.59 59.005 1026.56 58.4141H1027.93C1027.98 58.9406 1028.22 59.3762 1028.64 59.7209C1029.07 60.0618 1029.58 60.2323 1030.18 60.2323C1030.66 60.2323 1031.08 60.1205 1031.45 59.897C1031.83 59.6736 1032.12 59.3667 1032.33 58.9766C1032.55 58.5827 1032.66 58.1376 1032.66 57.6414C1032.66 57.1338 1032.54 56.6811 1032.32 56.2834C1032.1 55.8819 1031.8 55.5656 1031.41 55.3345C1031.02 55.1035 1030.58 54.9861 1030.09 54.9823C1029.73 54.9785 1029.37 55.0334 1028.99 55.147C1028.62 55.2569 1028.31 55.3989 1028.06 55.5732L1026.75 55.4141L1027.45 49.6868H1033.5V50.9368H1028.63L1028.22 54.3686H1028.29C1028.53 54.1792 1028.83 54.022 1029.19 53.897C1029.55 53.772 1029.92 53.7095 1030.31 53.7095C1031.03 53.7095 1031.66 53.88 1032.22 54.2209C1032.78 54.558 1033.22 55.0202 1033.54 55.6073C1033.86 56.1944 1034.02 56.8648 1034.02 57.6186C1034.02 58.3611 1033.85 59.0239 1033.52 59.6073C1033.19 60.1868 1032.73 60.6452 1032.16 60.9823C1031.58 61.3156 1030.92 61.4823 1030.18 61.4823Z" fill="#121619"/>
<circle cx="1075.34" cy="55.3232" r="16" fill="#FDC106"/>
<path d="M1076.27 49.7552V54.3312C1076.27 54.8165 1076.25 55.2939 1076.2 55.7632C1076.15 56.2272 1076.09 56.7205 1076.02 57.2432H1074.67C1074.6 56.7205 1074.54 56.2272 1074.49 55.7632C1074.44 55.2939 1074.42 54.8165 1074.42 54.3312V49.7552H1076.27ZM1074.1 60.2352C1074.1 60.0699 1074.13 59.9125 1074.19 59.7632C1074.26 59.6139 1074.34 59.4859 1074.45 59.3792C1074.56 59.2725 1074.69 59.1872 1074.84 59.1232C1074.99 59.0592 1075.15 59.0272 1075.32 59.0272C1075.48 59.0272 1075.64 59.0592 1075.79 59.1232C1075.94 59.1872 1076.07 59.2725 1076.18 59.3792C1076.29 59.4859 1076.38 59.6139 1076.44 59.7632C1076.5 59.9125 1076.54 60.0699 1076.54 60.2352C1076.54 60.4059 1076.5 60.5659 1076.44 60.7152C1076.38 60.8592 1076.29 60.9845 1076.18 61.0912C1076.07 61.1979 1075.94 61.2805 1075.79 61.3392C1075.64 61.4032 1075.48 61.4352 1075.32 61.4352C1075.15 61.4352 1074.99 61.4032 1074.84 61.3392C1074.69 61.2805 1074.56 61.1979 1074.45 61.0912C1074.34 60.9845 1074.26 60.8592 1074.19 60.7152C1074.13 60.5659 1074.1 60.4059 1074.1 60.2352Z" fill="white"/>
<path d="M1104.54 61.3232V60.3005L1108.38 56.0959C1108.83 55.6035 1109.2 55.1755 1109.5 54.8118C1109.79 54.4444 1110 54.0997 1110.14 53.7777C1110.29 53.452 1110.36 53.1111 1110.36 52.755C1110.36 52.3459 1110.26 51.9917 1110.06 51.6925C1109.87 51.3933 1109.61 51.1622 1109.27 50.9993C1108.93 50.8364 1108.55 50.755 1108.13 50.755C1107.69 50.755 1107.3 50.8478 1106.96 51.0334C1106.63 51.2152 1106.38 51.4709 1106.19 51.8005C1106.02 52.13 1105.93 52.5164 1105.93 52.9595H1104.59C1104.59 52.2777 1104.74 51.6792 1105.06 51.1641C1105.37 50.6489 1105.8 50.2474 1106.34 49.9595C1106.89 49.6717 1107.5 49.5277 1108.18 49.5277C1108.86 49.5277 1109.46 49.6717 1109.99 49.9595C1110.52 50.2474 1110.93 50.6357 1111.23 51.1243C1111.53 51.613 1111.68 52.1565 1111.68 52.755C1111.68 53.183 1111.6 53.6016 1111.44 54.0107C1111.29 54.416 1111.03 54.8686 1110.65 55.3686C1110.27 55.8648 1109.75 56.4709 1109.09 57.1868L1106.47 59.9823V60.0732H1111.88V61.3232H1104.54Z" fill="#121619"/>
</svg>
