<svg width="118" height="67" viewBox="0 0 118 67" fill="none" xmlns="http://www.w3.org/2000/svg">
<rect width="116.719" height="66.3787" transform="translate(0.492188 0.280518)" fill="white"/>
<path d="M20.1763 22.0225V16.2046H22.2501C22.7027 16.2046 23.0777 16.2869 23.375 16.4517C23.6723 16.6165 23.8949 16.8418 24.0426 17.1278C24.1903 17.4119 24.2642 17.7319 24.2642 18.088C24.2642 18.4459 24.1894 18.7679 24.0397 19.0538C23.892 19.3379 23.6685 19.5633 23.3693 19.73C23.072 19.8947 22.6979 19.9771 22.2472 19.9771H20.8211V19.2328H22.1677C22.4536 19.2328 22.6856 19.1836 22.8637 19.0851C23.0417 18.9847 23.1724 18.8484 23.2557 18.676C23.339 18.5037 23.3807 18.3077 23.3807 18.088C23.3807 17.8683 23.339 17.6732 23.2557 17.5028C23.1724 17.3323 23.0407 17.1988 22.8608 17.1022C22.6828 17.0057 22.448 16.9574 22.1563 16.9574H21.0541V22.0225H20.1763ZM27.0084 22.1105C26.5993 22.1105 26.2423 22.0168 25.9374 21.8293C25.6325 21.6418 25.3957 21.3795 25.2272 21.0424C25.0586 20.7053 24.9744 20.3114 24.9744 19.8606C24.9744 19.408 25.0586 19.0122 25.2272 18.6732C25.3957 18.3342 25.6325 18.0709 25.9374 17.8835C26.2423 17.696 26.5993 17.6022 27.0084 17.6022C27.4174 17.6022 27.7744 17.696 28.0793 17.8835C28.3842 18.0709 28.621 18.3342 28.7895 18.6732C28.9581 19.0122 29.0423 19.408 29.0423 19.8606C29.0423 20.3114 28.9581 20.7053 28.7895 21.0424C28.621 21.3795 28.3842 21.6418 28.0793 21.8293C27.7744 22.0168 27.4174 22.1105 27.0084 22.1105ZM27.0112 21.3975C27.2763 21.3975 27.496 21.3274 27.6703 21.1873C27.8445 21.0471 27.9733 20.8606 28.0566 20.6276C28.1418 20.3947 28.1844 20.1381 28.1844 19.8578C28.1844 19.5794 28.1418 19.3237 28.0566 19.0908C27.9733 18.8559 27.8445 18.6675 27.6703 18.5255C27.496 18.3834 27.2763 18.3124 27.0112 18.3124C26.7442 18.3124 26.5226 18.3834 26.3464 18.5255C26.1722 18.6675 26.0425 18.8559 25.9573 19.0908C25.8739 19.3237 25.8323 19.5794 25.8323 19.8578C25.8323 20.1381 25.8739 20.3947 25.9573 20.6276C26.0425 20.8606 26.1722 21.0471 26.3464 21.1873C26.5226 21.3274 26.7442 21.3975 27.0112 21.3975ZM32.0273 17.659V18.3408H29.6439V17.659H32.0273ZM30.2831 16.6136H31.1324V20.7413C31.1324 20.906 31.1571 21.0301 31.2063 21.1134C31.2555 21.1948 31.319 21.2507 31.3966 21.281C31.4762 21.3094 31.5624 21.3236 31.6552 21.3236C31.7233 21.3236 31.783 21.3189 31.8341 21.3094C31.8853 21.3 31.925 21.2924 31.9534 21.2867L32.1068 21.9884C32.0576 22.0073 31.9875 22.0262 31.8966 22.0452C31.8057 22.066 31.6921 22.0774 31.5557 22.0793C31.3322 22.0831 31.1239 22.0433 30.9308 21.96C30.7376 21.8766 30.5813 21.7479 30.462 21.5736C30.3427 21.3994 30.2831 21.1806 30.2831 20.9174V16.6136ZM34.8006 22.1105C34.3707 22.1105 34.0004 22.0187 33.6899 21.835C33.3812 21.6494 33.1425 21.389 32.974 21.0538C32.8073 20.7167 32.724 20.3218 32.724 19.8692C32.724 19.4222 32.8073 19.0283 32.974 18.6874C33.1425 18.3465 33.3774 18.0804 33.6785 17.8891C33.9815 17.6979 34.3357 17.6022 34.7409 17.6022C34.9871 17.6022 35.2258 17.6429 35.4568 17.7244C35.6879 17.8058 35.8952 17.9336 36.0789 18.1079C36.2627 18.2821 36.4075 18.5084 36.5136 18.7868C36.6196 19.0633 36.6727 19.3995 36.6727 19.7953V20.0964H33.2041V19.4601H35.8403C35.8403 19.2366 35.7949 19.0387 35.704 18.8664C35.6131 18.6921 35.4852 18.5548 35.3205 18.4544C35.1576 18.3541 34.9663 18.3039 34.7466 18.3039C34.508 18.3039 34.2997 18.3626 34.1217 18.48C33.9455 18.5955 33.8092 18.747 33.7126 18.9345C33.6179 19.1201 33.5705 19.3218 33.5705 19.5396V20.0368C33.5705 20.3284 33.6217 20.5765 33.7239 20.781C33.8281 20.9856 33.973 21.1418 34.1586 21.2498C34.3442 21.3558 34.561 21.4089 34.8091 21.4089C34.9701 21.4089 35.1169 21.3861 35.2494 21.3407C35.382 21.2933 35.4966 21.2233 35.5932 21.1305C35.6898 21.0377 35.7636 20.9231 35.8148 20.7867L36.6187 20.9316C36.5543 21.1683 36.4388 21.3757 36.2721 21.5537C36.1074 21.7299 35.9 21.8672 35.65 21.9656C35.4019 22.0622 35.1188 22.1105 34.8006 22.1105ZM38.4645 19.4317V22.0225H37.6151V17.659H38.4304V18.3692H38.4844C38.5847 18.1382 38.7419 17.9526 38.9559 17.8124C39.1718 17.6723 39.4436 17.6022 39.7712 17.6022C40.0686 17.6022 40.329 17.6647 40.5525 17.7897C40.7759 17.9128 40.9492 18.0965 41.0723 18.3408C41.1954 18.5851 41.257 18.8872 41.257 19.247V22.0225H40.4076V19.3493C40.4076 19.033 40.3252 18.7859 40.1604 18.6078C39.9957 18.4279 39.7694 18.338 39.4815 18.338C39.2845 18.338 39.1093 18.3806 38.9559 18.4658C38.8044 18.551 38.6842 18.676 38.5952 18.8408C38.508 19.0037 38.4645 19.2006 38.4645 19.4317ZM44.433 17.659V18.3408H42.0495V17.659H44.433ZM42.6887 16.6136H43.5381V20.7413C43.5381 20.906 43.5627 21.0301 43.612 21.1134C43.6612 21.1948 43.7247 21.2507 43.8023 21.281C43.8819 21.3094 43.968 21.3236 44.0608 21.3236C44.129 21.3236 44.1887 21.3189 44.2398 21.3094C44.2909 21.3 44.3307 21.2924 44.3591 21.2867L44.5125 21.9884C44.4633 22.0073 44.3932 22.0262 44.3023 22.0452C44.2114 22.066 44.0977 22.0774 43.9614 22.0793C43.7379 22.0831 43.5296 22.0433 43.3364 21.96C43.1432 21.8766 42.987 21.7479 42.8677 21.5736C42.7484 21.3994 42.6887 21.1806 42.6887 20.9174V16.6136ZM45.3725 22.0225V17.659H46.2219V22.0225H45.3725ZM45.8015 16.9858C45.6538 16.9858 45.5269 16.9365 45.4208 16.838C45.3167 16.7377 45.2646 16.6184 45.2646 16.4801C45.2646 16.34 45.3167 16.2206 45.4208 16.1222C45.5269 16.0218 45.6538 15.9716 45.8015 15.9716C45.9492 15.9716 46.0752 16.0218 46.1793 16.1222C46.2854 16.2206 46.3384 16.34 46.3384 16.4801C46.3384 16.6184 46.2854 16.7377 46.1793 16.838C46.0752 16.9365 45.9492 16.9858 45.8015 16.9858ZM48.6345 22.119C48.358 22.119 48.108 22.0679 47.8845 21.9656C47.661 21.8615 47.484 21.7109 47.3533 21.514C47.2245 21.317 47.1601 21.0755 47.1601 20.7896C47.1601 20.5434 47.2075 20.3407 47.3021 20.1816C47.3968 20.0226 47.5247 19.8966 47.6856 19.8038C47.8466 19.711 48.0265 19.6409 48.2254 19.5936C48.4243 19.5463 48.6269 19.5103 48.8333 19.4856C49.0947 19.4553 49.3068 19.4307 49.4697 19.4118C49.6325 19.391 49.7509 19.3578 49.8248 19.3124C49.8986 19.2669 49.9355 19.193 49.9355 19.0908V19.0709C49.9355 18.8228 49.8655 18.6306 49.7253 18.4942C49.5871 18.3579 49.3806 18.2897 49.106 18.2897C48.8201 18.2897 48.5947 18.3531 48.4299 18.48C48.2671 18.605 48.1544 18.7442 48.0919 18.8976L47.2936 18.7158C47.3883 18.4507 47.5266 18.2367 47.7084 18.0738C47.8921 17.909 48.1032 17.7897 48.3419 17.7158C48.5805 17.6401 48.8314 17.6022 49.0947 17.6022C49.2689 17.6022 49.4536 17.623 49.6486 17.6647C49.8456 17.7045 50.0293 17.7783 50.1997 17.8863C50.3721 17.9942 50.5132 18.1486 50.623 18.3493C50.7329 18.5482 50.7878 18.8067 50.7878 19.1249V22.0225H49.9583V21.4259H49.9242C49.8693 21.5357 49.7869 21.6437 49.677 21.7497C49.5672 21.8558 49.4261 21.9439 49.2538 22.0139C49.0814 22.084 48.875 22.119 48.6345 22.119ZM48.8191 21.4373C49.054 21.4373 49.2547 21.3909 49.4214 21.2981C49.5899 21.2053 49.7178 21.0841 49.8049 20.9344C49.8939 20.7829 49.9384 20.621 49.9384 20.4487V19.8862C49.9081 19.9165 49.8494 19.9449 49.7623 19.9714C49.677 19.996 49.5795 20.0178 49.4697 20.0368C49.3598 20.0538 49.2528 20.0699 49.1486 20.0851C49.0445 20.0983 48.9574 20.1097 48.8873 20.1191C48.7225 20.14 48.572 20.175 48.4356 20.2242C48.3012 20.2735 48.1932 20.3445 48.1118 20.4373C48.0322 20.5282 47.9925 20.6494 47.9925 20.8009C47.9925 21.0111 48.0701 21.1702 48.2254 21.2782C48.3807 21.3842 48.5786 21.4373 48.8191 21.4373ZM52.7685 16.2046V22.0225H51.9191V16.2046H52.7685ZM56.8777 19.4317V22.0225H56.0283V17.659H56.8436V18.3692H56.8976C56.9979 18.1382 57.1551 17.9526 57.3691 17.8124C57.585 17.6723 57.8568 17.6022 58.1844 17.6022C58.4818 17.6022 58.7422 17.6647 58.9657 17.7897C59.1891 17.9128 59.3624 18.0965 59.4855 18.3408C59.6086 18.5851 59.6702 18.8872 59.6702 19.247V22.0225H58.8208V19.3493C58.8208 19.033 58.7384 18.7859 58.5736 18.6078C58.4089 18.4279 58.1826 18.338 57.8947 18.338C57.6977 18.338 57.5225 18.3806 57.3691 18.4658C57.2176 18.551 57.0974 18.676 57.0084 18.8408C56.9212 19.0037 56.8777 19.2006 56.8777 19.4317ZM62.6899 22.1105C62.26 22.1105 61.8898 22.0187 61.5792 21.835C61.2705 21.6494 61.0319 21.389 60.8633 21.0538C60.6966 20.7167 60.6133 20.3218 60.6133 19.8692C60.6133 19.4222 60.6966 19.0283 60.8633 18.6874C61.0319 18.3465 61.2667 18.0804 61.5678 17.8891C61.8708 17.6979 62.225 17.6022 62.6303 17.6022C62.8765 17.6022 63.1151 17.6429 63.3461 17.7244C63.5772 17.8058 63.7846 17.9336 63.9683 18.1079C64.152 18.2821 64.2969 18.5084 64.4029 18.7868C64.509 19.0633 64.562 19.3995 64.562 19.7953V20.0964H61.0934V19.4601H63.7296C63.7296 19.2366 63.6842 19.0387 63.5933 18.8664C63.5024 18.6921 63.3745 18.5548 63.2098 18.4544C63.0469 18.3541 62.8556 18.3039 62.6359 18.3039C62.3973 18.3039 62.189 18.3626 62.011 18.48C61.8348 18.5955 61.6985 18.747 61.6019 18.9345C61.5072 19.1201 61.4599 19.3218 61.4599 19.5396V20.0368C61.4599 20.3284 61.511 20.5765 61.6133 20.781C61.7174 20.9856 61.8623 21.1418 62.0479 21.2498C62.2335 21.3558 62.4503 21.4089 62.6984 21.4089C62.8594 21.4089 63.0062 21.3861 63.1388 21.3407C63.2713 21.2933 63.3859 21.2233 63.4825 21.1305C63.5791 21.0377 63.6529 20.9231 63.7041 20.7867L64.508 20.9316C64.4436 21.1683 64.3281 21.3757 64.1614 21.5537C63.9967 21.7299 63.7893 21.8672 63.5393 21.9656C63.2912 22.0622 63.0081 22.1105 62.6899 22.1105ZM66.4426 22.0225L65.1586 17.659H66.0364L66.8914 20.8634H66.934L67.792 17.659H68.6698L69.522 20.8492H69.5646L70.414 17.659H71.2918L70.0106 22.0225H69.1442L68.2578 18.872H68.1925L67.3062 22.0225H66.4426ZM77.4847 18.7243L76.7148 18.8607C76.6826 18.7622 76.6315 18.6685 76.5614 18.5794C76.4933 18.4904 76.4005 18.4175 76.283 18.3607C76.1656 18.3039 76.0188 18.2755 75.8427 18.2755C75.6022 18.2755 75.4014 18.3295 75.2405 18.4374C75.0795 18.5435 74.999 18.6808 74.999 18.8493C74.999 18.9951 75.053 19.1126 75.1609 19.2016C75.2689 19.2906 75.4431 19.3635 75.6836 19.4203L76.3768 19.5794C76.7783 19.6722 77.0775 19.8152 77.2745 20.0084C77.4714 20.2015 77.5699 20.4525 77.5699 20.7612C77.5699 21.0225 77.4942 21.2555 77.3426 21.46C77.193 21.6626 76.9838 21.8217 76.7148 21.9372C76.4478 22.0528 76.1382 22.1105 75.7859 22.1105C75.2973 22.1105 74.8986 22.0064 74.5899 21.798C74.2812 21.5878 74.0918 21.2895 74.0218 20.9032L74.8428 20.7782C74.8939 20.9922 74.999 21.1541 75.1581 21.264C75.3172 21.3719 75.5245 21.4259 75.7802 21.4259C76.0586 21.4259 76.2811 21.3681 76.4478 21.2526C76.6145 21.1352 76.6978 20.9922 76.6978 20.8237C76.6978 20.6873 76.6467 20.5727 76.5444 20.4799C76.444 20.3871 76.2897 20.317 76.0813 20.2697L75.3427 20.1078C74.9356 20.015 74.6344 19.8673 74.4394 19.6646C74.2462 19.462 74.1496 19.2054 74.1496 18.8948C74.1496 18.6372 74.2216 18.4118 74.3655 18.2187C74.5094 18.0255 74.7083 17.8749 74.9621 17.767C75.2158 17.6571 75.5066 17.6022 75.8342 17.6022C76.3058 17.6022 76.677 17.7045 76.9478 17.909C77.2186 18.1117 77.3976 18.3834 77.4847 18.7243ZM80.3418 22.1105C79.9195 22.1105 79.5558 22.0149 79.2509 21.8236C78.9479 21.6304 78.715 21.3643 78.5521 21.0253C78.3892 20.6863 78.3078 20.2981 78.3078 19.8606C78.3078 19.4175 78.3911 19.0264 78.5578 18.6874C78.7244 18.3465 78.9593 18.0804 79.2623 17.8891C79.5653 17.6979 79.9223 17.6022 80.3333 17.6022C80.6647 17.6022 80.9601 17.6638 81.2196 17.7869C81.4791 17.9081 81.6883 18.0785 81.8474 18.2982C82.0084 18.5179 82.104 18.7745 82.1343 19.0681H81.3077C81.2622 18.8635 81.158 18.6874 80.9952 18.5397C80.8342 18.3919 80.6183 18.3181 80.3475 18.3181C80.1107 18.3181 79.9034 18.3806 79.7253 18.5056C79.5492 18.6287 79.4119 18.8048 79.3134 19.034C79.215 19.2612 79.1657 19.5302 79.1657 19.8407C79.1657 20.1589 79.214 20.4335 79.3106 20.6646C79.4072 20.8956 79.5435 21.0746 79.7197 21.2015C79.8977 21.3284 80.107 21.3918 80.3475 21.3918C80.5085 21.3918 80.6543 21.3625 80.785 21.3037C80.9175 21.2431 81.0283 21.157 81.1173 21.0452C81.2082 20.9335 81.2717 20.799 81.3077 20.6418H82.1343C82.104 20.924 82.0122 21.1759 81.8588 21.3975C81.7054 21.6191 81.4999 21.7933 81.2423 21.9202C80.9867 22.0471 80.6865 22.1105 80.3418 22.1105ZM84.8806 22.1105C84.4716 22.1105 84.1146 22.0168 83.8097 21.8293C83.5048 21.6418 83.268 21.3795 83.0995 21.0424C82.9309 20.7053 82.8466 20.3114 82.8466 19.8606C82.8466 19.408 82.9309 19.0122 83.0995 18.6732C83.268 18.3342 83.5048 18.0709 83.8097 17.8835C84.1146 17.696 84.4716 17.6022 84.8806 17.6022C85.2897 17.6022 85.6467 17.696 85.9516 17.8835C86.2565 18.0709 86.4933 18.3342 86.6618 18.6732C86.8304 19.0122 86.9146 19.408 86.9146 19.8606C86.9146 20.3114 86.8304 20.7053 86.6618 21.0424C86.4933 21.3795 86.2565 21.6418 85.9516 21.8293C85.6467 22.0168 85.2897 22.1105 84.8806 22.1105ZM84.8835 21.3975C85.1486 21.3975 85.3683 21.3274 85.5425 21.1873C85.7168 21.0471 85.8456 20.8606 85.9289 20.6276C86.0141 20.3947 86.0567 20.1381 86.0567 19.8578C86.0567 19.5794 86.0141 19.3237 85.9289 19.0908C85.8456 18.8559 85.7168 18.6675 85.5425 18.5255C85.3683 18.3834 85.1486 18.3124 84.8835 18.3124C84.6165 18.3124 84.3949 18.3834 84.2187 18.5255C84.0445 18.6675 83.9148 18.8559 83.8296 19.0908C83.7462 19.3237 83.7046 19.5794 83.7046 19.8578C83.7046 20.1381 83.7462 20.3947 83.8296 20.6276C83.9148 20.8606 84.0445 21.0471 84.2187 21.1873C84.3949 21.3274 84.6165 21.3975 84.8835 21.3975ZM87.8627 22.0225V17.659H88.6837V18.3522H88.7292C88.8087 18.1173 88.9489 17.9327 89.1496 17.7982C89.3523 17.6619 89.5814 17.5937 89.8371 17.5937C89.8901 17.5937 89.9526 17.5956 90.0246 17.5994C90.0984 17.6032 90.1562 17.6079 90.1979 17.6136V18.426C90.1638 18.4166 90.1032 18.4062 90.0161 18.3948C89.9289 18.3815 89.8418 18.3749 89.7547 18.3749C89.554 18.3749 89.375 18.4175 89.2178 18.5027C89.0625 18.5861 88.9394 18.7025 88.8485 18.8522C88.7576 18.9999 88.7121 19.1684 88.7121 19.3578V22.0225H87.8627ZM92.6573 22.1105C92.2274 22.1105 91.8571 22.0187 91.5465 21.835C91.2378 21.6494 90.9992 21.389 90.8307 21.0538C90.664 20.7167 90.5807 20.3218 90.5807 19.8692C90.5807 19.4222 90.664 19.0283 90.8307 18.6874C90.9992 18.3465 91.234 18.0804 91.5352 17.8891C91.8382 17.6979 92.1923 17.6022 92.5976 17.6022C92.8438 17.6022 93.0824 17.6429 93.3135 17.7244C93.5445 17.8058 93.7519 17.9336 93.9356 18.1079C94.1193 18.2821 94.2642 18.5084 94.3703 18.7868C94.4763 19.0633 94.5293 19.3995 94.5293 19.7953V20.0964H91.0608V19.4601H93.697C93.697 19.2366 93.6515 19.0387 93.5606 18.8664C93.4697 18.6921 93.3419 18.5548 93.1771 18.4544C93.0143 18.3541 92.823 18.3039 92.6033 18.3039C92.3647 18.3039 92.1563 18.3626 91.9783 18.48C91.8022 18.5955 91.6658 18.747 91.5693 18.9345C91.4746 19.1201 91.4272 19.3218 91.4272 19.5396V20.0368C91.4272 20.3284 91.4783 20.5765 91.5806 20.781C91.6848 20.9856 91.8297 21.1418 92.0153 21.2498C92.2009 21.3558 92.4177 21.4089 92.6658 21.4089C92.8268 21.4089 92.9735 21.3861 93.1061 21.3407C93.2387 21.2933 93.3533 21.2233 93.4498 21.1305C93.5464 21.0377 93.6203 20.9231 93.6714 20.7867L94.4754 20.9316C94.411 21.1683 94.2955 21.3757 94.1288 21.5537C93.964 21.7299 93.7567 21.8672 93.5067 21.9656C93.2586 22.0622 92.9754 22.1105 92.6573 22.1105Z" fill="#121619"/>
<path d="M47.6574 46.6912C47.0034 46.6912 46.4256 46.5787 45.9237 46.3536C45.4249 46.1285 45.0341 45.8183 44.7512 45.4229C44.4684 45.0275 44.3285 44.5774 44.3315 44.0725C44.3285 43.6771 44.4091 43.3137 44.5733 42.9822C44.7406 42.6476 44.9672 42.3693 45.2531 42.1473C45.539 41.9222 45.8583 41.7793 46.2111 41.7184V41.6637C45.7458 41.5511 45.3732 41.3017 45.0934 40.9155C44.8136 40.5292 44.6752 40.0852 44.6782 39.5833C44.6752 39.1058 44.8014 38.68 45.0569 38.3059C45.3154 37.9288 45.6698 37.6322 46.1199 37.4163C46.57 37.2003 47.0825 37.0924 47.6574 37.0924C48.2261 37.0924 48.734 37.2019 49.1811 37.4208C49.6313 37.6368 49.9856 37.9333 50.2441 38.3105C50.5026 38.6846 50.6334 39.1088 50.6365 39.5833C50.6334 40.0852 50.4905 40.5292 50.2076 40.9155C49.9248 41.3017 49.5567 41.5511 49.1036 41.6637V41.7184C49.4533 41.7793 49.7681 41.9222 50.0479 42.1473C50.3308 42.3693 50.5559 42.6476 50.7231 42.9822C50.8935 43.3137 50.9802 43.6771 50.9832 44.0725C50.9802 44.5774 50.8372 45.0275 50.5543 45.4229C50.2715 45.8183 49.8791 46.1285 49.3773 46.3536C48.8785 46.5787 48.3052 46.6912 47.6574 46.6912ZM47.6574 45.537C48.0436 45.537 48.3782 45.4731 48.661 45.3454C48.9439 45.2146 49.1629 45.0336 49.318 44.8025C49.4731 44.5683 49.5522 44.2945 49.5552 43.9813C49.5522 43.6558 49.467 43.3684 49.2997 43.119C49.1355 42.8696 48.912 42.6734 48.6291 42.5305C48.3462 42.3875 48.0223 42.3161 47.6574 42.3161C47.2893 42.3161 46.9624 42.3875 46.6765 42.5305C46.3906 42.6734 46.1655 42.8696 46.0013 43.119C45.837 43.3684 45.7564 43.6558 45.7595 43.9813C45.7564 44.2945 45.831 44.5683 45.983 44.8025C46.1381 45.0336 46.3586 45.2146 46.6445 45.3454C46.9304 45.4731 47.268 45.537 47.6574 45.537ZM47.6574 41.1892C47.9676 41.1892 48.2428 41.1269 48.4831 41.0022C48.7234 40.8775 48.912 40.7041 49.0488 40.4821C49.1887 40.26 49.2602 40 49.2632 39.7019C49.2602 39.41 49.1903 39.1545 49.0534 38.9355C48.9196 38.7165 48.7325 38.5477 48.4922 38.4291C48.252 38.3074 47.9737 38.2466 47.6574 38.2466C47.335 38.2466 47.0521 38.3074 46.8088 38.4291C46.5685 38.5477 46.3815 38.7165 46.2476 38.9355C46.1138 39.1545 46.0484 39.41 46.0515 39.7019C46.0484 40 46.1153 40.26 46.2522 40.4821C46.3891 40.7041 46.5776 40.8775 46.8179 41.0022C47.0612 41.1269 47.341 41.1892 47.6574 41.1892ZM52.6176 46.5635V45.5415L55.7792 42.2659C56.1168 41.91 56.3951 41.5983 56.6141 41.3306C56.8361 41.0599 57.0019 40.8029 57.1114 40.5596C57.2209 40.3163 57.2756 40.0578 57.2756 39.7841C57.2756 39.4738 57.2026 39.2062 57.0566 38.9811C56.9106 38.753 56.7114 38.5781 56.459 38.4565C56.2065 38.3318 55.9222 38.2694 55.6058 38.2694C55.2713 38.2694 54.9793 38.3378 54.7299 38.4747C54.4805 38.6116 54.2889 38.8047 54.1551 39.0541C54.0212 39.3035 53.9543 39.5955 53.9543 39.93H52.6085C52.6085 39.3613 52.7393 38.864 53.0008 38.4382C53.2624 38.0124 53.6213 37.6824 54.0775 37.4482C54.5337 37.211 55.0523 37.0924 55.6332 37.0924C56.2202 37.0924 56.7373 37.2095 57.1844 37.4436C57.6345 37.6748 57.9858 37.9911 58.2382 38.3926C58.4907 38.791 58.6169 39.2412 58.6169 39.743C58.6169 40.0897 58.5515 40.4288 58.4207 40.7604C58.293 41.0919 58.0694 41.4614 57.7501 41.869C57.4307 42.2735 56.9867 42.7647 56.4179 43.3426L54.5611 45.2861V45.3545H58.7674V46.5635H52.6176ZM60.4965 46.5635V45.5415L63.6581 42.2659C63.9957 41.91 64.274 41.5983 64.493 41.3306C64.715 41.0599 64.8808 40.8029 64.9903 40.5596C65.0998 40.3163 65.1545 40.0578 65.1545 39.7841C65.1545 39.4738 65.0815 39.2062 64.9355 38.9811C64.7895 38.753 64.5903 38.5781 64.3379 38.4565C64.0854 38.3318 63.8011 38.2694 63.4848 38.2694C63.1502 38.2694 62.8582 38.3378 62.6088 38.4747C62.3594 38.6116 62.1678 38.8047 62.034 39.0541C61.9001 39.3035 61.8332 39.5955 61.8332 39.93H60.4874C60.4874 39.3613 60.6182 38.864 60.8797 38.4382C61.1413 38.0124 61.5002 37.6824 61.9564 37.4482C62.4126 37.211 62.9312 37.0924 63.5121 37.0924C64.0991 37.0924 64.6162 37.2095 65.0633 37.4436C65.5134 37.6748 65.8647 37.9911 66.1171 38.3926C66.3696 38.791 66.4958 39.2412 66.4958 39.743C66.4958 40.0897 66.4304 40.4288 66.2996 40.7604C66.1719 41.0919 65.9483 41.4614 65.629 41.869C65.3096 42.2735 64.8656 42.7647 64.2968 43.3426L62.44 45.2861V45.3545H66.6464V46.5635H60.4965Z" fill="#121619"/>
<path d="M70.7827 41.8918C70.7827 40.7482 70.9332 39.6959 71.2343 38.7347C71.5354 37.7736 71.9749 36.8871 72.5528 36.075H73.8028C73.5778 36.3761 73.3679 36.7456 73.1733 37.1836C72.9786 37.6216 72.8083 38.1021 72.6623 38.6253C72.5163 39.1453 72.4022 39.6852 72.3201 40.2448C72.238 40.8014 72.1969 41.3504 72.1969 41.8918C72.1969 42.6157 72.2684 43.3486 72.4114 44.0908C72.5543 44.8329 72.7474 45.5218 72.9908 46.1574C73.2341 46.7931 73.5048 47.3117 73.8028 47.7131H72.5528C71.9749 46.9011 71.5354 46.0145 71.2343 45.0534C70.9332 44.0923 70.7827 43.0384 70.7827 41.8918ZM77.9875 44.9941V38.826H79.2147V44.9941H77.9875ZM75.5194 42.5214V41.2987H81.6875V42.5214H75.5194ZM83.4028 46.5635V45.5415L86.5644 42.2659C86.902 41.91 87.1803 41.5983 87.3993 41.3306C87.6213 41.0599 87.7871 40.8029 87.8966 40.5596C88.0061 40.3163 88.0608 40.0578 88.0608 39.7841C88.0608 39.4738 87.9878 39.2062 87.8419 38.9811C87.6959 38.753 87.4966 38.5781 87.2442 38.4565C86.9918 38.3318 86.7074 38.2694 86.3911 38.2694C86.0565 38.2694 85.7645 38.3378 85.5151 38.4747C85.2657 38.6116 85.0741 38.8047 84.9403 39.0541C84.8065 39.3035 84.7396 39.5955 84.7396 39.93H83.3937C83.3937 39.3613 83.5245 38.864 83.7861 38.4382C84.0476 38.0124 84.4065 37.6824 84.8627 37.4482C85.319 37.211 85.8375 37.0924 86.4184 37.0924C87.0055 37.0924 87.5225 37.2095 87.9696 37.4436C88.4197 37.6748 88.771 37.9911 89.0235 38.3926C89.2759 38.791 89.4021 39.2412 89.4021 39.743C89.4021 40.0897 89.3367 40.4288 89.2059 40.7604C89.0782 41.0919 88.8547 41.4614 88.5353 41.869C88.216 42.2735 87.7719 42.7647 87.2031 43.3426L85.3463 45.2861V45.3545H89.5527V46.5635H83.4028ZM91.5965 46.5635L95.6751 38.4975V38.4291H90.9578V37.2201H97.135V38.4701L93.0701 46.5635H91.5965ZM101.363 41.8918C101.363 43.0384 101.213 44.0923 100.911 45.0534C100.61 46.0145 100.171 46.9011 99.5929 47.7131H98.3429C98.568 47.412 98.7778 47.0425 98.9725 46.6045C99.1671 46.1666 99.3374 45.6875 99.4834 45.1674C99.6294 44.6443 99.7435 44.1029 99.8256 43.5433C99.9077 42.9837 99.9488 42.4332 99.9488 41.8918C99.9488 41.171 99.8773 40.4395 99.7344 39.6974C99.5914 38.9553 99.3983 38.2664 99.155 37.6307C98.9116 36.995 98.6409 36.4765 98.3429 36.075H99.5929C100.171 36.8871 100.61 37.7736 100.911 38.7347C101.213 39.6959 101.363 40.7482 101.363 41.8918Z" fill="#58AD75"/>
<path d="M36.258 41.9054C36.258 47.9871 31.3279 52.9172 25.2462 52.9172C19.1645 52.9172 14.2344 47.9871 14.2344 41.9054C14.2344 35.8237 19.1645 30.8936 25.2462 30.8936C31.3279 30.8936 36.258 35.8237 36.258 41.9054Z" fill="#F4FBF7"/>
<path fill-rule="evenodd" clip-rule="evenodd" d="M25.2461 31.3525C19.4178 31.3525 14.693 36.0772 14.693 41.9055C14.693 47.7337 19.4178 52.4585 25.2461 52.4585C31.0743 52.4585 35.7991 47.7337 35.7991 41.9055C35.7991 36.0772 31.0743 31.3525 25.2461 31.3525ZM13.7754 41.9055C13.7754 35.5704 18.911 30.4348 25.2461 30.4348C31.5811 30.4348 36.7167 35.5704 36.7167 41.9055C36.7167 48.2405 31.5811 53.3761 25.2461 53.3761C18.911 53.3761 13.7754 48.2405 13.7754 41.9055Z" fill="#58AD75"/>
<path d="M22.3034 46.4938H21.1172L24.548 37.1504H25.7159L29.1467 46.4938H27.9605L25.1684 38.6285H25.0954L22.3034 46.4938ZM22.7413 42.844H27.5225V43.8477H22.7413V42.844Z" fill="#58AD75"/>
</svg>
