<svg width="158" height="201" viewBox="0 0 158 201" fill="none" xmlns="http://www.w3.org/2000/svg">
<g clip-path="url(#clip0_484_13725)">
<rect width="157" height="200" transform="translate(0.858398 0.00146484)" fill="white"/>
<path d="M21.922 20.7297L23.9461 26.653H24.0278L26.0519 20.7297H27.238L24.6208 28.0024H23.3531L20.7359 20.7297H21.922ZM30.007 28.1125C29.4696 28.1125 29.0068 27.9977 28.6185 27.7681C28.2326 27.5361 27.9343 27.2105 27.7236 26.7915C27.5153 26.3701 27.4111 25.8765 27.4111 25.3107C27.4111 24.752 27.5153 24.2595 27.7236 23.8334C27.9343 23.4073 28.2279 23.0746 28.6043 22.8355C28.9831 22.5964 29.4258 22.4769 29.9324 22.4769C30.2402 22.4769 30.5385 22.5278 30.8273 22.6296C31.1162 22.7314 31.3754 22.8912 31.605 23.109C31.8347 23.3268 32.0158 23.6097 32.1483 23.9577C32.2809 24.3033 32.3472 24.7236 32.3472 25.2184V25.5948H28.0113V24.7993H31.3067C31.3067 24.52 31.2499 24.2726 31.1363 24.0571C31.0226 23.8393 30.8628 23.6677 30.6569 23.5422C30.4533 23.4167 30.2142 23.354 29.9395 23.354C29.6412 23.354 29.3808 23.4274 29.1583 23.5742C28.9381 23.7186 28.7677 23.908 28.6469 24.1424C28.5286 24.3744 28.4694 24.6265 28.4694 24.8987V25.5202C28.4694 25.8848 28.5333 26.1949 28.6611 26.4506C28.7913 26.7063 28.9724 26.9016 29.2045 27.0365C29.4365 27.1691 29.7075 27.2354 30.0177 27.2354C30.2189 27.2354 30.4024 27.207 30.5681 27.1502C30.7338 27.091 30.877 27.0034 30.9978 26.8874C31.1185 26.7714 31.2108 26.6282 31.2748 26.4577L32.2797 26.6388C32.1992 26.9347 32.0548 27.194 31.8465 27.4165C31.6405 27.6367 31.3813 27.8083 31.0688 27.9314C30.7587 28.0522 30.4047 28.1125 30.007 28.1125ZM34.5871 24.7638V28.0024H33.5253V22.5479H34.5445V23.4357H34.6119C34.7374 23.1469 34.9339 22.9148 35.2014 22.7397C35.4713 22.5645 35.811 22.4769 36.2206 22.4769C36.5923 22.4769 36.9178 22.555 37.1972 22.7112C37.4765 22.8651 37.6932 23.0948 37.847 23.4002C38.0009 23.7056 38.0779 24.0832 38.0779 24.533V28.0024H37.0161V24.6608C37.0161 24.2655 36.9131 23.9565 36.7071 23.734C36.5012 23.5091 36.2182 23.3966 35.8584 23.3966C35.6122 23.3966 35.3932 23.4499 35.2014 23.5564C35.012 23.663 34.8617 23.8192 34.7504 24.0252C34.6415 24.2288 34.5871 24.475 34.5871 24.7638ZM41.5438 28.109C41.1034 28.109 40.7104 27.9965 40.3648 27.7716C40.0215 27.5443 39.7516 27.2212 39.5551 26.8022C39.361 26.3808 39.2639 25.8753 39.2639 25.2858C39.2639 24.6963 39.3622 24.1921 39.5587 23.773C39.7575 23.354 40.0298 23.0332 40.3754 22.8107C40.7211 22.5881 41.1129 22.4769 41.5509 22.4769C41.8894 22.4769 42.1617 22.5337 42.3676 22.6473C42.576 22.7586 42.7369 22.8888 42.8506 23.038C42.9666 23.1871 43.0566 23.3185 43.1205 23.4321H43.1844V20.7297H44.2462V28.0024H43.2093V27.1537H43.1205C43.0566 27.2697 42.9642 27.4023 42.8435 27.5514C42.7251 27.7006 42.5618 27.8308 42.3534 27.9421C42.1451 28.0533 41.8752 28.109 41.5438 28.109ZM41.7781 27.2034C42.0835 27.2034 42.3416 27.1229 42.5523 26.962C42.7654 26.7986 42.9263 26.5725 43.0352 26.2837C43.1465 25.9949 43.2021 25.6587 43.2021 25.2752C43.2021 24.8964 43.1477 24.5649 43.0388 24.2809C42.9299 23.9968 42.7701 23.7754 42.5594 23.6168C42.3487 23.4582 42.0883 23.3789 41.7781 23.3789C41.4585 23.3789 41.1922 23.4617 40.9791 23.6274C40.7661 23.7932 40.6051 24.0192 40.4962 24.3057C40.3896 24.5922 40.3364 24.9153 40.3364 25.2752C40.3364 25.6398 40.3908 25.9676 40.4997 26.2588C40.6086 26.55 40.7696 26.7809 40.9827 26.9513C41.1981 27.1194 41.4633 27.2034 41.7781 27.2034ZM48.0592 28.1125C47.5479 28.1125 47.1016 27.9953 46.7204 27.761C46.3393 27.5266 46.0434 27.1987 45.8327 26.7773C45.622 26.3559 45.5166 25.8635 45.5166 25.3C45.5166 24.7342 45.622 24.2394 45.8327 23.8157C46.0434 23.3919 46.3393 23.0628 46.7204 22.8284C47.1016 22.5941 47.5479 22.4769 48.0592 22.4769C48.5706 22.4769 49.0168 22.5941 49.398 22.8284C49.7791 23.0628 50.0751 23.3919 50.2858 23.8157C50.4965 24.2394 50.6018 24.7342 50.6018 25.3C50.6018 25.8635 50.4965 26.3559 50.2858 26.7773C50.0751 27.1987 49.7791 27.5266 49.398 27.761C49.0168 27.9953 48.5706 28.1125 48.0592 28.1125ZM48.0628 27.2212C48.3942 27.2212 48.6688 27.1336 48.8866 26.9584C49.1044 26.7832 49.2654 26.55 49.3696 26.2588C49.4761 25.9676 49.5294 25.6469 49.5294 25.2965C49.5294 24.9485 49.4761 24.6289 49.3696 24.3377C49.2654 24.0441 49.1044 23.8085 48.8866 23.631C48.6688 23.4534 48.3942 23.3647 48.0628 23.3647C47.729 23.3647 47.452 23.4534 47.2318 23.631C47.014 23.8085 46.8518 24.0441 46.7453 24.3377C46.6411 24.6289 46.589 24.9485 46.589 25.2965C46.589 25.6469 46.6411 25.9676 46.7453 26.2588C46.8518 26.55 47.014 26.7832 47.2318 26.9584C47.452 27.1336 47.729 27.2212 48.0628 27.2212ZM51.787 28.0024V22.5479H52.8133V23.4144H52.8701C52.9695 23.1208 53.1447 22.89 53.3957 22.7219C53.649 22.5514 53.9355 22.4662 54.2551 22.4662C54.3213 22.4662 54.3995 22.4686 54.4894 22.4733C54.5818 22.4781 54.654 22.484 54.7061 22.4911V23.5067C54.6634 23.4949 54.5877 23.4818 54.4788 23.4676C54.3699 23.4511 54.261 23.4428 54.1521 23.4428C53.9011 23.4428 53.6774 23.496 53.4809 23.6026C53.2868 23.7067 53.1329 23.8523 53.0193 24.0394C52.9056 24.224 52.8488 24.4347 52.8488 24.6715V28.0024H51.787ZM58.3566 28.0024V20.7297H60.949C61.5124 20.7297 61.98 20.8268 62.3517 21.0209C62.7257 21.215 63.0051 21.4837 63.1897 21.827C63.3744 22.1679 63.4667 22.5621 63.4667 23.0095C63.4667 23.4546 63.3732 23.8464 63.1862 24.185C63.0015 24.5211 62.7222 24.7827 62.3481 24.9698C61.9764 25.1568 61.5088 25.2503 60.9454 25.2503H58.9816V24.3057H60.846C61.2011 24.3057 61.4899 24.2548 61.7124 24.153C61.9374 24.0512 62.1019 23.9032 62.2061 23.7091C62.3102 23.515 62.3623 23.2818 62.3623 23.0095C62.3623 22.7349 62.309 22.497 62.2025 22.2958C62.0983 22.0945 61.9338 21.9407 61.7089 21.8341C61.4864 21.7252 61.194 21.6708 60.8318 21.6708H59.4539V28.0024H58.3566ZM61.9468 24.7212L63.7437 28.0024H62.4937L60.7323 24.7212H61.9468ZM64.7167 28.0024V22.5479H65.7785V28.0024H64.7167ZM65.2529 21.7063C65.0683 21.7063 64.9097 21.6447 64.7771 21.5216C64.6469 21.3961 64.5818 21.247 64.5818 21.0742C64.5818 20.899 64.6469 20.7498 64.7771 20.6267C64.9097 20.5013 65.0683 20.4385 65.2529 20.4385C65.4376 20.4385 65.595 20.5013 65.7252 20.6267C65.8578 20.7498 65.9241 20.899 65.9241 21.0742C65.9241 21.247 65.8578 21.3961 65.7252 21.5216C65.595 21.6447 65.4376 21.7063 65.2529 21.7063ZM71.2943 23.8796L70.3319 24.05C70.2917 23.9269 70.2278 23.8097 70.1402 23.6985C70.055 23.5872 69.939 23.496 69.7922 23.425C69.6454 23.354 69.4619 23.3185 69.2417 23.3185C68.9411 23.3185 68.6901 23.386 68.4889 23.5209C68.2877 23.6535 68.1871 23.8251 68.1871 24.0358C68.1871 24.2181 68.2545 24.3649 68.3895 24.4762C68.5244 24.5874 68.7422 24.6786 69.0429 24.7496L69.9094 24.9485C70.4113 25.0645 70.7853 25.2432 71.0315 25.4847C71.2777 25.7262 71.4008 26.0398 71.4008 26.4257C71.4008 26.7524 71.3061 27.0436 71.1167 27.2993C70.9297 27.5526 70.6681 27.7515 70.3319 27.8959C69.9981 28.0403 69.6111 28.1125 69.1707 28.1125C68.5599 28.1125 68.0616 27.9823 67.6757 27.7219C67.2898 27.4591 67.0531 27.0862 66.9655 26.6033L67.9917 26.447C68.0557 26.7146 68.1871 26.917 68.3859 27.0543C68.5848 27.1892 68.844 27.2567 69.1636 27.2567C69.5116 27.2567 69.7898 27.1845 69.9981 27.0401C70.2065 26.8933 70.3106 26.7146 70.3106 26.5039C70.3106 26.3334 70.2467 26.1902 70.1189 26.0742C69.9934 25.9582 69.8005 25.8706 69.54 25.8114L68.6167 25.609C68.1077 25.493 67.7313 25.3083 67.4875 25.055C67.246 24.8017 67.1253 24.4809 67.1253 24.0926C67.1253 23.7707 67.2152 23.4889 67.3952 23.2475C67.5751 23.006 67.8237 22.8178 68.1409 22.6828C68.4581 22.5455 68.8215 22.4769 69.2311 22.4769C69.8206 22.4769 70.2846 22.6047 70.6231 22.8604C70.9617 23.1137 71.1854 23.4534 71.2943 23.8796ZM73.5448 26.1523L73.5377 24.8561H73.7224L75.8957 22.5479H77.167L74.6883 25.1757H74.5214L73.5448 26.1523ZM72.5683 28.0024V20.7297H73.6301V28.0024H72.5683ZM76.0129 28.0024L74.0597 25.4101L74.7913 24.6679L77.3161 28.0024H76.0129ZM87.1839 24.3661C87.1839 25.1426 87.0418 25.8102 86.7577 26.3689C86.4736 26.9253 86.0842 27.3538 85.5894 27.6544C85.097 27.9527 84.5371 28.1019 83.9097 28.1019C83.28 28.1019 82.7177 27.9527 82.2229 27.6544C81.7305 27.3538 81.3422 26.9241 81.0581 26.3654C80.7741 25.8067 80.632 25.1402 80.632 24.3661C80.632 23.5896 80.7741 22.9231 81.0581 22.3668C81.3422 21.8081 81.7305 21.3796 82.2229 21.0813C82.7177 20.7806 83.28 20.6303 83.9097 20.6303C84.5371 20.6303 85.097 20.7806 85.5894 21.0813C86.0842 21.3796 86.4736 21.8081 86.7577 22.3668C87.0418 22.9231 87.1839 23.5896 87.1839 24.3661ZM86.0972 24.3661C86.0972 23.7742 86.0013 23.2759 85.8096 22.871C85.6202 22.4639 85.3598 22.1561 85.0283 21.9478C84.6992 21.7371 84.3264 21.6317 83.9097 21.6317C83.4907 21.6317 83.1166 21.7371 82.7876 21.9478C82.4585 22.1561 82.1981 22.4639 82.0063 22.871C81.8169 23.2759 81.7222 23.7742 81.7222 24.3661C81.7222 24.9579 81.8169 25.4575 82.0063 25.8647C82.1981 26.2695 82.4585 26.5773 82.7876 26.788C83.1166 26.9963 83.4907 27.1005 83.9097 27.1005C84.3264 27.1005 84.6992 26.9963 85.0283 26.788C85.3598 26.5773 85.6202 26.2695 85.8096 25.8647C86.0013 25.4575 86.0972 24.9579 86.0972 24.3661ZM93.1329 22.5479L91.1549 28.0024H90.0186L88.037 22.5479H89.1769L90.5583 26.7453H90.6151L91.993 22.5479H93.1329ZM96.2961 28.1125C95.7587 28.1125 95.2958 27.9977 94.9076 27.7681C94.5217 27.5361 94.2234 27.2105 94.0127 26.7915C93.8044 26.3701 93.7002 25.8765 93.7002 25.3107C93.7002 24.752 93.8044 24.2595 94.0127 23.8334C94.2234 23.4073 94.517 23.0746 94.8934 22.8355C95.2722 22.5964 95.7149 22.4769 96.2215 22.4769C96.5293 22.4769 96.8276 22.5278 97.1164 22.6296C97.4052 22.7314 97.6644 22.8912 97.8941 23.109C98.1237 23.3268 98.3048 23.6097 98.4374 23.9577C98.57 24.3033 98.6363 24.7236 98.6363 25.2184V25.5948H94.3003V24.7993H97.5958C97.5958 24.52 97.539 24.2726 97.4253 24.0571C97.3117 23.8393 97.1519 23.6677 96.9459 23.5422C96.7423 23.4167 96.5032 23.354 96.2286 23.354C95.9303 23.354 95.6699 23.4274 95.4474 23.5742C95.2272 23.7186 95.0567 23.908 94.936 24.1424C94.8176 24.3744 94.7584 24.6265 94.7584 24.8987V25.5202C94.7584 25.8848 94.8224 26.1949 94.9502 26.4506C95.0804 26.7063 95.2615 26.9016 95.4935 27.0365C95.7255 27.1691 95.9966 27.2354 96.3067 27.2354C96.508 27.2354 96.6914 27.207 96.8572 27.1502C97.0229 27.091 97.1661 27.0034 97.2868 26.8874C97.4076 26.7714 97.4999 26.6282 97.5638 26.4577L98.5688 26.6388C98.4883 26.9347 98.3439 27.194 98.1356 27.4165C97.9296 27.6367 97.6704 27.8083 97.3579 27.9314C97.0477 28.0522 96.6938 28.1125 96.2961 28.1125ZM99.8144 28.0024V22.5479H100.841V23.4144H100.897C100.997 23.1208 101.172 22.89 101.423 22.7219C101.676 22.5514 101.963 22.4662 102.282 22.4662C102.349 22.4662 102.427 22.4686 102.517 22.4733C102.609 22.4781 102.681 22.484 102.733 22.4911V23.5067C102.691 23.4949 102.615 23.4818 102.506 23.4676C102.397 23.4511 102.288 23.4428 102.179 23.4428C101.928 23.4428 101.705 23.496 101.508 23.6026C101.314 23.7067 101.16 23.8523 101.047 24.0394C100.933 24.224 100.876 24.4347 100.876 24.6715V28.0024H99.8144ZM108.484 22.5479L106.506 28.0024H105.37L103.389 22.5479H104.528L105.91 26.7453H105.967L107.345 22.5479H108.484ZM109.482 28.0024V22.5479H110.544V28.0024H109.482ZM110.019 21.7063C109.834 21.7063 109.675 21.6447 109.543 21.5216C109.412 21.3961 109.347 21.247 109.347 21.0742C109.347 20.899 109.412 20.7498 109.543 20.6267C109.675 20.5013 109.834 20.4385 110.019 20.4385C110.203 20.4385 110.361 20.5013 110.491 20.6267C110.623 20.7498 110.69 20.899 110.69 21.0742C110.69 21.247 110.623 21.3961 110.491 21.5216C110.361 21.6447 110.203 21.7063 110.019 21.7063ZM114.323 28.1125C113.786 28.1125 113.323 27.9977 112.935 27.7681C112.549 27.5361 112.251 27.2105 112.04 26.7915C111.832 26.3701 111.728 25.8765 111.728 25.3107C111.728 24.752 111.832 24.2595 112.04 23.8334C112.251 23.4073 112.544 23.0746 112.921 22.8355C113.3 22.5964 113.742 22.4769 114.249 22.4769C114.557 22.4769 114.855 22.5278 115.144 22.6296C115.433 22.7314 115.692 22.8912 115.921 23.109C116.151 23.3268 116.332 23.6097 116.465 23.9577C116.597 24.3033 116.664 24.7236 116.664 25.2184V25.5948H112.328V24.7993H115.623C115.623 24.52 115.566 24.2726 115.453 24.0571C115.339 23.8393 115.179 23.6677 114.973 23.5422C114.77 23.4167 114.531 23.354 114.256 23.354C113.958 23.354 113.697 23.4274 113.475 23.5742C113.255 23.7186 113.084 23.908 112.963 24.1424C112.845 24.3744 112.786 24.6265 112.786 24.8987V25.5202C112.786 25.8848 112.85 26.1949 112.978 26.4506C113.108 26.7063 113.289 26.9016 113.521 27.0365C113.753 27.1691 114.024 27.2354 114.334 27.2354C114.535 27.2354 114.719 27.207 114.884 27.1502C115.05 27.091 115.193 27.0034 115.314 26.8874C115.435 26.7714 115.527 26.6282 115.591 26.4577L116.596 26.6388C116.516 26.9347 116.371 27.194 116.163 27.4165C115.957 27.6367 115.698 27.8083 115.385 27.9314C115.075 28.0522 114.721 28.1125 114.323 28.1125ZM119.014 28.0024L117.409 22.5479H118.507L119.576 26.5536H119.629L120.701 22.5479H121.799L122.864 26.5358H122.917L123.979 22.5479H125.076L123.475 28.0024H122.392L121.284 24.0642H121.202L120.094 28.0024H119.014Z" fill="#121619"/>
<path d="M109.994 158.007L107.885 165.844H107.194L109.304 158.007H109.994ZM115.49 158.212C115.766 158.215 116.038 158.267 116.296 158.365C116.564 158.466 116.809 158.632 117.031 158.864C117.252 159.097 117.43 159.413 117.565 159.813C117.699 160.214 117.766 160.713 117.766 161.319C117.766 161.9 117.711 162.417 117.6 162.869C117.489 163.321 117.333 163.697 117.127 164.006C116.92 164.315 116.673 164.55 116.379 164.71C116.085 164.87 115.757 164.949 115.388 164.949C115.02 164.949 114.695 164.877 114.407 164.732C114.119 164.587 113.887 164.381 113.704 164.121C113.52 163.861 113.407 163.556 113.355 163.211H114.135C114.206 163.511 114.345 163.759 114.554 163.955C114.765 164.149 115.043 164.246 115.388 164.246C115.893 164.246 116.292 164.026 116.583 163.585C116.875 163.144 117.024 162.52 117.024 161.715H116.973C116.857 161.891 116.714 162.047 116.548 162.178C116.384 162.308 116.202 162.408 116.002 162.479C115.801 162.549 115.588 162.584 115.363 162.584C114.988 162.584 114.643 162.491 114.33 162.306C114.017 162.121 113.77 161.862 113.582 161.536C113.395 161.21 113.304 160.833 113.304 160.411C113.304 160.006 113.394 159.636 113.573 159.302C113.752 158.967 114.007 158.701 114.333 158.503C114.659 158.304 115.047 158.208 115.49 158.212V158.212ZM115.49 158.915C115.234 158.912 114.983 158.981 114.765 159.116C114.552 159.25 114.377 159.436 114.257 159.657C114.133 159.882 114.071 160.134 114.071 160.411C114.071 160.684 114.131 160.932 114.25 161.156C114.372 161.377 114.537 161.554 114.746 161.686C114.955 161.819 115.196 161.881 115.465 161.881C115.66 161.883 115.853 161.842 116.03 161.763C116.203 161.684 116.358 161.572 116.488 161.434C116.619 161.294 116.724 161.133 116.798 160.957C116.872 160.78 116.91 160.59 116.909 160.398C116.909 160.138 116.848 159.895 116.724 159.669C116.606 159.447 116.432 159.258 116.219 159.123C116.006 158.984 115.763 158.915 115.49 158.915V158.915ZM121.068 164.949C120.693 164.949 120.356 164.875 120.055 164.726C119.755 164.577 119.514 164.372 119.333 164.112C119.152 163.852 119.053 163.556 119.036 163.223H119.803C119.832 163.52 119.967 163.765 120.205 163.958C120.444 164.152 120.734 164.246 121.068 164.246C121.337 164.246 121.575 164.183 121.784 164.058C121.994 163.933 122.165 163.754 122.28 163.54C122.401 163.318 122.462 163.068 122.462 162.789C122.462 162.503 122.399 162.249 122.273 162.025C122.154 161.804 121.978 161.619 121.762 161.491C121.544 161.361 121.296 161.295 121.017 161.293C120.817 161.291 120.611 161.322 120.4 161.386C120.189 161.45 120.016 161.527 119.879 161.625L119.138 161.536L119.534 158.314H122.935V159.017H120.199L119.969 160.948H120.007C120.141 160.841 120.31 160.753 120.512 160.683C120.715 160.613 120.925 160.577 121.145 160.577C121.546 160.577 121.902 160.673 122.216 160.865C122.529 161.057 122.778 161.314 122.957 161.645C123.136 161.975 123.229 162.352 123.229 162.776C123.229 163.194 123.135 163.566 122.947 163.895C122.766 164.217 122.501 164.484 122.18 164.668C121.854 164.855 121.484 164.949 121.068 164.949V164.949ZM126.633 164.949C126.152 164.949 125.742 164.818 125.403 164.556C125.064 164.294 124.805 163.909 124.626 163.409C124.447 162.906 124.358 162.299 124.358 161.587C124.358 160.88 124.447 160.276 124.626 159.775C124.805 159.274 125.067 158.889 125.406 158.624C125.745 158.36 126.156 158.225 126.633 158.225C127.11 158.225 127.519 158.358 127.857 158.624C128.196 158.891 128.458 159.272 128.637 159.775C128.816 160.277 128.909 160.88 128.909 161.587C128.909 162.299 128.819 162.906 128.64 163.409C128.461 163.909 128.203 164.292 127.864 164.556C127.525 164.821 127.115 164.949 126.633 164.949ZM126.633 164.246C127.111 164.246 127.481 164.016 127.746 163.556C128.01 163.096 128.142 162.439 128.142 161.587C128.142 161.02 128.081 160.538 127.96 160.139C127.838 159.741 127.668 159.437 127.442 159.228C127.216 159.019 126.949 158.915 126.633 158.915C126.16 158.915 125.791 159.148 125.524 159.615C125.258 160.082 125.125 160.737 125.125 161.587C125.125 162.154 125.184 162.635 125.304 163.032C125.423 163.428 125.595 163.729 125.818 163.936C126.04 164.141 126.332 164.252 126.633 164.246V164.246Z" fill="#878D96"/>
<path d="M44.9873 154.86C44.9873 161.488 39.6148 166.86 32.9873 166.86C26.3598 166.86 20.9873 161.488 20.9873 154.86C20.9873 148.233 26.3598 142.86 32.9873 142.86C39.6148 142.86 44.9873 148.233 44.9873 154.86Z" fill="#F4FBF7"/>
<path fill-rule="evenodd" clip-rule="evenodd" d="M32.9873 143.36C26.6363 143.36 21.4873 148.508 21.4873 154.86C21.4873 161.211 26.6363 166.36 32.9873 166.36C39.3383 166.36 44.4873 161.211 44.4873 154.86C44.4873 148.508 39.3388 143.36 32.9873 143.36ZM20.4873 154.86C20.4873 147.956 26.0838 142.36 32.9873 142.36C39.8908 142.36 45.4873 147.956 45.4873 154.86C45.4873 161.763 39.8908 167.36 32.9873 167.36C26.0838 167.36 20.4873 161.763 20.4873 154.86Z" fill="#58AD75"/>
<path d="M29.7798 159.861H28.4873L32.2258 149.679H33.4983L37.2373 159.861H35.9448L32.9023 151.29H32.8228L29.7798 159.861ZM30.2573 155.884H35.4673V156.977H30.2573V155.884ZM61.8288 165.139C60.4633 165.139 59.2568 164.897 58.2098 164.413C57.1688 163.923 56.3568 163.25 55.7733 162.395C55.1903 161.533 54.9018 160.552 54.9083 159.452C54.9018 158.59 55.0708 157.794 55.4158 157.065C55.7603 156.329 56.2308 155.716 56.8273 155.226C57.4308 154.729 58.1033 154.414 58.8458 154.281V154.162C57.8713 153.91 57.0958 153.363 56.5193 152.521C55.9428 151.673 55.6573 150.708 55.6643 149.628C55.6573 148.594 55.9193 147.669 56.4498 146.854C56.9803 146.039 57.7093 145.395 58.6373 144.925C59.5718 144.454 60.6358 144.219 61.8288 144.219C63.0088 144.219 64.0628 144.454 64.9908 144.925C65.9188 145.395 66.6478 146.038 67.1783 146.854C67.7153 147.669 67.9873 148.594 67.9938 149.628C67.9873 150.708 67.6923 151.673 67.1088 152.521C66.5318 153.363 65.7663 153.91 64.8118 154.162V154.281C65.5469 154.413 66.2334 154.74 66.8003 155.226C67.3903 155.716 67.8613 156.329 68.2123 157.065C68.5638 157.794 68.7428 158.59 68.7493 159.452C68.7428 160.552 68.4443 161.533 67.8543 162.395C67.2713 163.25 66.4593 163.923 65.4183 164.413C64.3843 164.897 63.1878 165.139 61.8288 165.139V165.139ZM61.8288 162.952C62.7503 162.952 63.5458 162.803 64.2153 162.504C64.8848 162.206 65.4018 161.785 65.7663 161.241C66.1308 160.698 66.3168 160.062 66.3233 159.332C66.3168 158.563 66.1178 157.884 65.7268 157.294C65.3358 156.704 64.8018 156.24 64.1258 155.902C63.4563 155.564 62.6908 155.395 61.8288 155.395C60.9603 155.395 60.1848 155.564 59.5023 155.902C58.8263 156.24 58.2923 156.704 57.9013 157.294C57.5168 157.884 57.3278 158.563 57.3348 159.332C57.3278 160.062 57.5038 160.698 57.8618 161.241C58.2263 161.785 58.7463 162.206 59.4228 162.504C60.0993 162.803 60.9008 162.952 61.8288 162.952ZM61.8288 153.287C62.5583 153.287 63.2043 153.141 63.7678 152.849C64.3378 152.558 64.7853 152.15 65.1103 151.626C65.4353 151.102 65.6008 150.49 65.6073 149.787C65.6008 149.097 65.4383 148.498 65.1203 147.987C64.8018 147.47 64.3613 147.072 63.7978 146.794C63.2343 146.509 62.5778 146.366 61.8288 146.366C61.0668 146.366 60.4003 146.509 59.8303 146.794C59.2603 147.072 58.8193 147.47 58.5078 147.987C58.1963 148.498 58.0438 149.097 58.0503 149.787C58.0438 150.49 58.1998 151.103 58.5178 151.626C58.8428 152.15 59.2903 152.558 59.8603 152.849C60.4303 153.141 61.0863 153.287 61.8288 153.287ZM78.9238 165.139C77.7573 165.139 76.7063 164.907 75.7718 164.443C74.8373 163.979 74.0878 163.343 73.5248 162.534C72.9618 161.726 72.6528 160.804 72.5998 159.77H74.9863C75.0788 160.691 75.4968 161.454 76.2393 162.057C76.9883 162.653 77.8828 162.952 78.9238 162.952C79.7588 162.952 80.5013 162.756 81.1508 162.365C81.8073 161.974 82.3208 161.437 82.6923 160.754C83.0698 160.065 83.2588 159.286 83.2588 158.418C83.2588 157.529 83.0633 156.737 82.6723 156.041C82.2878 155.338 81.7573 154.785 81.0813 154.381C80.4053 153.977 79.6328 153.771 78.7648 153.764C78.1413 153.758 77.5018 153.854 76.8458 154.053C76.1893 154.245 75.6493 154.493 75.2248 154.798L72.9183 154.52L74.1508 144.497H84.7308V146.685H76.2193L75.5033 152.69H75.6228C76.0403 152.359 76.5638 152.084 77.1938 151.865C77.8268 151.646 78.4923 151.535 79.1623 151.537C80.4088 151.537 81.5188 151.835 82.4933 152.432C83.4686 153.016 84.2662 153.854 84.8003 154.858C85.3638 155.885 85.6453 157.059 85.6453 158.378C85.6453 159.677 85.3538 160.837 84.7703 161.858C84.1938 162.872 83.3983 163.674 82.3838 164.264C81.3698 164.847 80.2163 165.139 78.9238 165.139V165.139ZM96.2373 165.139C94.7393 165.139 93.4633 164.731 92.4093 163.916C91.3553 163.094 90.5498 161.904 89.9928 160.347C89.4363 158.782 89.1578 156.893 89.1578 154.679C89.1578 152.478 89.4363 150.599 89.9928 149.041C90.5563 147.477 91.3653 146.284 92.4193 145.462C93.4798 144.633 94.7523 144.219 96.2373 144.219C97.7223 144.219 98.9918 144.633 100.045 145.462C101.106 146.284 101.915 147.477 102.472 149.041C103.035 150.599 103.317 152.478 103.317 154.679C103.317 156.893 103.038 158.782 102.482 160.347C101.925 161.904 101.119 163.094 100.065 163.916C99.0113 164.731 97.7353 165.139 96.2373 165.139ZM96.2373 162.952C97.7223 162.952 98.8758 162.236 99.6973 160.804C100.519 159.372 100.93 157.33 100.93 154.679C100.93 152.916 100.742 151.414 100.364 150.175C99.9923 148.935 99.4558 147.99 98.7528 147.341C98.0568 146.691 97.2183 146.366 96.2373 146.366C94.7658 146.366 93.6158 147.092 92.7868 148.544C91.9583 149.989 91.5443 152.034 91.5443 154.679C91.5443 156.442 91.7298 157.94 92.1008 159.173C92.4718 160.406 93.0058 161.344 93.7018 161.987C94.4043 162.63 95.2498 162.952 96.2373 162.952V162.952Z" fill="#58AD75"/>
<path d="M24.7532 130.722C24.7532 131.133 24.678 131.486 24.5277 131.782C24.3773 132.076 24.1712 132.303 23.9094 132.462C23.6488 132.62 23.3526 132.699 23.0206 132.699C22.6873 132.699 22.3898 132.62 22.128 132.462C21.8674 132.303 21.6619 132.075 21.5116 131.78C21.3613 131.484 21.2861 131.131 21.2861 130.722C21.2861 130.311 21.3613 129.958 21.5116 129.664C21.6619 129.368 21.8674 129.141 22.128 128.983C22.3898 128.824 22.6873 128.745 23.0206 128.745C23.3526 128.745 23.6488 128.824 23.9094 128.983C24.1712 129.141 24.3773 129.368 24.5277 129.664C24.678 129.958 24.7532 130.311 24.7532 130.722ZM24.1781 130.722C24.1781 130.409 24.1274 130.145 24.0259 129.931C23.9257 129.715 23.7879 129.552 23.6125 129.442C23.4384 129.331 23.2411 129.275 23.0206 129.275C22.7988 129.275 22.6009 129.331 22.4267 129.442C22.2526 129.552 22.1148 129.715 22.0133 129.931C21.9131 130.145 21.863 130.409 21.863 130.722C21.863 131.035 21.9131 131.299 22.0133 131.515C22.1148 131.729 22.2526 131.892 22.4267 132.003C22.6009 132.114 22.7988 132.169 23.0206 132.169C23.2411 132.169 23.4384 132.114 23.6125 132.003C23.7879 131.892 23.9257 131.729 24.0259 131.515C24.1274 131.299 24.1781 131.035 24.1781 130.722ZM26.0633 128.797L27.1344 131.932H27.1776L28.2487 128.797H28.8764L27.4914 132.646H26.8206L25.4356 128.797H26.0633ZM29.8731 132.646V128.797H32.286V129.297H30.4538V130.47H32.1601V130.968H30.4538V132.146H32.3085V132.646H29.8731ZM33.5026 132.646V128.797H34.8744C35.1725 128.797 35.42 128.849 35.6166 128.952C35.8146 129.054 35.9624 129.196 36.0601 129.378C36.1578 129.559 36.2067 129.767 36.2067 130.004C36.2067 130.239 36.1572 130.447 36.0582 130.626C35.9605 130.804 35.8127 130.942 35.6148 131.041C35.4181 131.14 35.1707 131.19 34.8725 131.19H33.8333V130.69H34.8199C35.0078 130.69 35.1606 130.663 35.2784 130.609C35.3974 130.555 35.4845 130.477 35.5396 130.374C35.5947 130.271 35.6223 130.148 35.6223 130.004C35.6223 129.859 35.5941 129.733 35.5377 129.626C35.4826 129.52 35.3955 129.438 35.2765 129.382C35.1588 129.324 35.004 129.295 34.8124 129.295H34.0832V132.646H33.5026ZM35.4024 130.91L36.3533 132.646H35.6918L34.7597 130.91H35.4024ZM37.6793 132.646H37.063L38.4479 128.797H39.1188L40.5037 132.646H39.8874L38.7993 129.497H38.7693L37.6793 132.646ZM37.7827 131.139H39.7821V131.627H37.7827V131.139ZM41.5005 132.646V128.797H42.0811V132.146H43.825V132.646H41.5005ZM44.9284 132.646V128.797H45.5091V132.146H47.2529V132.646H44.9284ZM53.3942 130.049H52.8079C52.7854 129.924 52.7434 129.813 52.682 129.718C52.6206 129.623 52.5455 129.542 52.4565 129.476C52.3676 129.409 52.268 129.359 52.1577 129.326C52.0487 129.292 51.9329 129.275 51.8101 129.275C51.5883 129.275 51.3898 129.331 51.2144 129.442C51.0402 129.554 50.9024 129.717 50.801 129.932C50.7007 130.148 50.6506 130.411 50.6506 130.722C50.6506 131.035 50.7007 131.299 50.801 131.515C50.9024 131.73 51.0409 131.893 51.2163 132.003C51.3916 132.114 51.589 132.169 51.8082 132.169C51.9297 132.169 52.045 132.152 52.154 132.12C52.2642 132.086 52.3638 132.037 52.4528 131.971C52.5417 131.906 52.6169 131.827 52.6783 131.733C52.7409 131.638 52.7841 131.529 52.8079 131.406L53.3942 131.408C53.3629 131.597 53.3021 131.771 53.2119 131.93C53.123 132.088 53.0084 132.224 52.8681 132.34C52.729 132.454 52.5699 132.542 52.3907 132.605C52.2116 132.667 52.0162 132.699 51.8044 132.699C51.4712 132.699 51.1743 132.62 50.9137 132.462C50.6531 132.303 50.4477 132.075 50.2973 131.78C50.1483 131.484 50.0737 131.131 50.0737 130.722C50.0737 130.311 50.1489 129.958 50.2992 129.664C50.4496 129.368 50.655 129.141 50.9156 128.983C51.1762 128.824 51.4725 128.745 51.8044 128.745C52.0086 128.745 52.1991 128.774 52.3757 128.833C52.5536 128.891 52.7133 128.976 52.8549 129.089C52.9965 129.2 53.1136 129.337 53.2063 129.498C53.299 129.659 53.3616 129.842 53.3942 130.049ZM54.2331 128.797H54.8927L55.8981 130.547H55.9394L56.9448 128.797H57.6043L56.2081 131.135V132.646H55.6293V131.135L54.2331 128.797ZM58.5936 132.646V128.797H60.0029C60.2761 128.797 60.5022 128.843 60.6813 128.933C60.8605 129.022 60.9945 129.143 61.0835 129.295C61.1724 129.447 61.2169 129.618 61.2169 129.808C61.2169 129.969 61.1875 130.104 61.1286 130.214C61.0697 130.323 60.9908 130.411 60.8918 130.477C60.7941 130.543 60.6863 130.59 60.5686 130.62V130.658C60.6964 130.664 60.821 130.705 60.9425 130.782C61.0653 130.857 61.1668 130.964 61.247 131.103C61.3271 131.242 61.3672 131.411 61.3672 131.611C61.3672 131.807 61.3209 131.984 61.2282 132.14C61.1367 132.296 60.9951 132.419 60.8035 132.511C60.6118 132.601 60.3669 132.646 60.0687 132.646H58.5936ZM59.1742 132.148H60.0123C60.2905 132.148 60.4897 132.094 60.6099 131.986C60.7302 131.879 60.7903 131.744 60.7903 131.582C60.7903 131.461 60.7596 131.349 60.6982 131.248C60.6369 131.146 60.5492 131.066 60.4352 131.005C60.3224 130.945 60.1884 130.915 60.033 130.915H59.1742V132.148ZM59.1742 130.462H59.9522C60.0825 130.462 60.1996 130.437 60.3036 130.387C60.4088 130.337 60.4922 130.267 60.5535 130.177C60.6162 130.085 60.6475 129.978 60.6475 129.854C60.6475 129.694 60.5918 129.561 60.4803 129.453C60.3688 129.346 60.1978 129.292 59.9672 129.292H59.1742V130.462ZM62.4969 132.646V128.797H64.9098V129.297H63.0776V130.47H64.7839V130.968H63.0776V132.146H64.9323V132.646H62.4969ZM66.1264 132.646V128.797H67.4982C67.7963 128.797 68.0438 128.849 68.2404 128.952C68.4384 129.054 68.5862 129.196 68.6839 129.378C68.7816 129.559 68.8305 129.767 68.8305 130.004C68.8305 130.239 68.781 130.447 68.6821 130.626C68.5843 130.804 68.4365 130.942 68.2386 131.041C68.0419 131.14 67.7945 131.19 67.4963 131.19H66.4571V130.69H67.4437C67.6316 130.69 67.7844 130.663 67.9022 130.609C68.0212 130.555 68.1083 130.477 68.1634 130.374C68.2185 130.271 68.2461 130.148 68.2461 130.004C68.2461 129.859 68.2179 129.733 68.1615 129.626C68.1064 129.52 68.0193 129.438 67.9003 129.382C67.7826 129.324 67.6278 129.295 67.4362 129.295H66.707V132.646H66.1264ZM68.0262 130.91L68.9771 132.646H68.3156L67.3835 130.91H68.0262ZM72.0771 129.808C72.057 129.631 71.9744 129.493 71.829 129.395C71.6837 129.296 71.5008 129.247 71.2803 129.247C71.1225 129.247 70.9859 129.272 70.8707 129.322C70.7554 129.371 70.6658 129.438 70.6019 129.525C70.5393 129.61 70.508 129.707 70.508 129.816C70.508 129.907 70.5293 129.986 70.5719 130.053C70.6157 130.119 70.6727 130.175 70.7429 130.22C70.8143 130.264 70.8907 130.301 70.9721 130.331C71.0536 130.36 71.1319 130.383 71.207 130.402L71.5829 130.5C71.7056 130.53 71.8315 130.571 71.9606 130.622C72.0896 130.673 72.2093 130.741 72.3195 130.825C72.4297 130.909 72.5187 131.013 72.5863 131.137C72.6552 131.261 72.6897 131.41 72.6897 131.582C72.6897 131.8 72.6333 131.994 72.5206 132.163C72.4091 132.332 72.2468 132.466 72.0339 132.563C71.8221 132.661 71.5659 132.71 71.2653 132.71C70.9771 132.71 70.7278 132.664 70.5174 132.573C70.3069 132.481 70.1422 132.352 70.0232 132.184C69.9041 132.015 69.8384 131.814 69.8258 131.582H70.4084C70.4197 131.721 70.4648 131.837 70.5437 131.93C70.6239 132.021 70.726 132.09 70.85 132.135C70.9753 132.179 71.1124 132.201 71.2615 132.201C71.4256 132.201 71.5716 132.175 71.6994 132.124C71.8284 132.071 71.9299 131.998 72.0038 131.906C72.0777 131.812 72.1147 131.702 72.1147 131.577C72.1147 131.463 72.0821 131.369 72.0169 131.297C71.9531 131.224 71.866 131.164 71.7557 131.116C71.6468 131.069 71.5234 131.027 71.3855 130.99L70.9308 130.866C70.6226 130.782 70.3783 130.659 70.1979 130.496C70.0188 130.333 69.9292 130.118 69.9292 129.85C69.9292 129.628 69.9893 129.434 70.1096 129.269C70.2299 129.104 70.3927 128.975 70.5982 128.884C70.8036 128.791 71.0354 128.745 71.2935 128.745C71.554 128.745 71.7839 128.791 71.9831 128.882C72.1836 128.973 72.3414 129.099 72.4567 129.26C72.5719 129.419 72.6321 129.602 72.6371 129.808H72.0771ZM73.8246 132.646V128.797H76.2374V129.297H74.4052V130.47H76.1115V130.968H74.4052V132.146H76.26V132.646H73.8246ZM80.6505 130.049H80.0642C80.0416 129.924 79.9997 129.813 79.9383 129.718C79.8769 129.623 79.8017 129.542 79.7128 129.476C79.6238 129.409 79.5242 129.359 79.414 129.326C79.305 129.292 79.1891 129.275 79.0663 129.275C78.8446 129.275 78.646 129.331 78.4706 129.442C78.2965 129.554 78.1587 129.717 78.0572 129.932C77.957 130.148 77.9069 130.411 77.9069 130.722C77.9069 131.035 77.957 131.299 78.0572 131.515C78.1587 131.73 78.2971 131.893 78.4725 132.003C78.6479 132.114 78.8452 132.169 79.0645 132.169C79.186 132.169 79.3012 132.152 79.4102 132.12C79.5205 132.086 79.6201 132.037 79.709 131.971C79.798 131.906 79.8731 131.827 79.9345 131.733C79.9972 131.638 80.0404 131.529 80.0642 131.406L80.6505 131.408C80.6192 131.597 80.5584 131.771 80.4682 131.93C80.3793 132.088 80.2646 132.224 80.1243 132.34C79.9853 132.454 79.8262 132.542 79.647 132.605C79.4679 132.667 79.2724 132.699 79.0607 132.699C78.7275 132.699 78.4306 132.62 78.17 132.462C77.9094 132.303 77.7039 132.075 77.5536 131.78C77.4045 131.484 77.33 131.131 77.33 130.722C77.33 130.311 77.4052 129.958 77.5555 129.664C77.7058 129.368 77.9113 129.141 78.1719 128.983C78.4324 128.824 78.7287 128.745 79.0607 128.745C79.2649 128.745 79.4553 128.774 79.632 128.833C79.8099 128.891 79.9696 128.976 80.1112 129.089C80.2527 129.2 80.3699 129.337 80.4626 129.498C80.5553 129.659 80.6179 129.842 80.6505 130.049ZM84.2612 128.797H84.8437V131.329C84.8437 131.598 84.7804 131.837 84.6539 132.045C84.5274 132.251 84.3495 132.414 84.1202 132.533C83.891 132.651 83.6222 132.71 83.3141 132.71C83.0071 132.71 82.739 132.651 82.5098 132.533C82.2805 132.414 82.1026 132.251 81.9761 132.045C81.8496 131.837 81.7863 131.598 81.7863 131.329V128.797H82.3669V131.282C82.3669 131.456 82.4052 131.611 82.4816 131.746C82.5593 131.881 82.6689 131.988 82.8104 132.065C82.952 132.142 83.1199 132.18 83.3141 132.18C83.5095 132.18 83.678 132.142 83.8195 132.065C83.9624 131.988 84.0714 131.881 84.1465 131.746C84.2229 131.611 84.2612 131.456 84.2612 131.282V128.797ZM86.1289 132.646V128.797H87.5007C87.7988 128.797 88.0463 128.849 88.243 128.952C88.4409 129.054 88.5887 129.196 88.6864 129.378C88.7842 129.559 88.833 129.767 88.833 130.004C88.833 130.239 88.7835 130.447 88.6846 130.626C88.5868 130.804 88.439 130.942 88.2411 131.041C88.0444 131.14 87.797 131.19 87.4988 131.19H86.4596V130.69H87.4462C87.6341 130.69 87.7869 130.663 87.9047 130.609C88.0237 130.555 88.1108 130.477 88.1659 130.374C88.221 130.271 88.2486 130.148 88.2486 130.004C88.2486 129.859 88.2204 129.733 88.164 129.626C88.1089 129.52 88.0218 129.438 87.9028 129.382C87.7851 129.324 87.6303 129.295 87.4387 129.295H86.7096V132.646H86.1289ZM88.0287 130.91L88.9796 132.646H88.3181L87.3861 130.91H88.0287ZM90.5612 128.797V132.646H89.9806V128.797H90.5612ZM91.658 129.297V128.797H94.6365V129.297H93.4357V132.646H92.8569V129.297H91.658ZM95.4388 128.797H96.0984L97.1037 130.547H97.1451L98.1504 128.797H98.81L97.4138 131.135V132.646H96.835V131.135L95.4388 128.797ZM101.641 132.646V128.797H103.012C103.311 128.797 103.558 128.849 103.755 128.952C103.953 129.054 104.1 129.196 104.198 129.378C104.296 129.559 104.345 129.767 104.345 130.004C104.345 130.239 104.295 130.447 104.196 130.626C104.099 130.804 103.951 130.942 103.753 131.041C103.556 131.14 103.309 131.19 103.011 131.19H101.971V130.69H102.958C103.146 130.69 103.299 130.663 103.416 130.609C103.535 130.555 103.623 130.477 103.678 130.374C103.733 130.271 103.76 130.148 103.76 130.004C103.76 129.859 103.732 129.733 103.676 129.626C103.621 129.52 103.534 129.438 103.415 129.382C103.297 129.324 103.142 129.295 102.95 129.295H102.221V132.646H101.641ZM103.54 130.91L104.491 132.646H103.83L102.898 130.91H103.54ZM105.817 132.646H105.201L106.586 128.797H107.257L108.642 132.646H108.025L106.937 129.497H106.907L105.817 132.646ZM105.921 131.139H107.92V131.627H105.921V131.139ZM108.994 129.297V128.797H111.972V129.297H110.772V132.646H110.193V129.297H108.994ZM113.652 128.797V132.646H113.072V128.797H113.652ZM118.045 128.797V132.646H117.512L115.555 129.823H115.52V132.646H114.939V128.797H115.476L117.434 131.624H117.47V128.797H118.045ZM121.938 130.013C121.901 129.899 121.853 129.797 121.791 129.707C121.731 129.616 121.659 129.538 121.575 129.474C121.491 129.409 121.395 129.359 121.288 129.326C121.181 129.292 121.064 129.275 120.936 129.275C120.719 129.275 120.524 129.331 120.35 129.442C120.176 129.554 120.038 129.717 119.936 129.932C119.836 130.147 119.786 130.409 119.786 130.72C119.786 131.032 119.837 131.295 119.938 131.511C120.04 131.726 120.179 131.89 120.355 132.001C120.532 132.113 120.733 132.169 120.959 132.169C121.168 132.169 121.35 132.126 121.506 132.041C121.662 131.956 121.783 131.835 121.868 131.68C121.955 131.524 121.998 131.339 121.998 131.128L122.148 131.156H121.047V130.677H122.56V131.114C122.56 131.438 122.491 131.718 122.353 131.956C122.216 132.193 122.027 132.376 121.786 132.505C121.545 132.634 121.269 132.699 120.959 132.699C120.61 132.699 120.305 132.618 120.042 132.458C119.78 132.298 119.576 132.07 119.429 131.776C119.282 131.48 119.209 131.13 119.209 130.724C119.209 130.417 119.252 130.141 119.337 129.897C119.422 129.652 119.542 129.445 119.696 129.275C119.851 129.103 120.034 128.972 120.243 128.882C120.453 128.791 120.683 128.745 120.932 128.745C121.14 128.745 121.334 128.776 121.513 128.837C121.693 128.898 121.854 128.985 121.994 129.098C122.136 129.211 122.253 129.345 122.346 129.5C122.438 129.654 122.501 129.825 122.533 130.013H121.938Z" fill="#878D96"/>
<path d="M21.7465 66.7975L22.8176 69.9319H22.8608L23.932 66.7975H24.5596L23.1747 70.646H22.5038L21.1188 66.7975H21.7465ZM25.5564 70.646V66.7975H27.9692V67.2973H26.137V68.4699H27.8433V68.9679H26.137V70.1461H27.9918V70.646H25.5564ZM32.2921 66.7975V70.646H31.7584L29.8022 67.8235H29.7665V70.646H29.1858V66.7975H29.7233L31.6813 69.6237H31.7171V66.7975H32.2921ZM34.826 70.646H33.5801V66.7975H34.8654C35.2425 66.7975 35.5664 66.8745 35.837 67.0286C36.1076 67.1814 36.3149 67.4013 36.459 67.6882C36.6043 67.9738 36.677 68.3165 36.677 68.7161C36.677 69.117 36.6037 69.4615 36.4571 69.7496C36.3118 70.0378 36.1013 70.2595 35.8257 70.4149C35.5501 70.569 35.2169 70.646 34.826 70.646ZM34.1608 70.1386H34.794C35.0872 70.1386 35.3309 70.0835 35.525 69.9733C35.7192 69.8618 35.8645 69.7008 35.961 69.4903C36.0575 69.2786 36.1057 69.0205 36.1057 68.7161C36.1057 68.4142 36.0575 68.158 35.961 67.9475C35.8658 67.737 35.7236 67.5773 35.5344 67.4683C35.3453 67.3593 35.1104 67.3048 34.8297 67.3048H34.1608V70.1386ZM41.1831 68.7217C41.1831 69.1326 41.1079 69.4859 40.9576 69.7816C40.8072 70.076 40.6011 70.3027 40.3393 70.4618C40.0787 70.6197 39.7825 70.6986 39.4505 70.6986C39.1172 70.6986 38.8197 70.6197 38.5579 70.4618C38.2973 70.3027 38.0918 70.0754 37.9415 69.7797C37.7912 69.484 37.716 69.1314 37.716 68.7217C37.716 68.3108 37.7912 67.9582 37.9415 67.6638C38.0918 67.3681 38.2973 67.1413 38.5579 66.9835C38.8197 66.8244 39.1172 66.7448 39.4505 66.7448C39.7825 66.7448 40.0787 66.8244 40.3393 66.9835C40.6011 67.1413 40.8072 67.3681 40.9576 67.6638C41.1079 67.9582 41.1831 68.3108 41.1831 68.7217ZM40.608 68.7217C40.608 68.4085 40.5573 68.1448 40.4558 67.9306C40.3556 67.7151 40.2178 67.5523 40.0424 67.442C39.8683 67.3305 39.671 67.2748 39.4505 67.2748C39.2287 67.2748 39.0308 67.3305 38.8566 67.442C38.6825 67.5523 38.5447 67.7151 38.4432 67.9306C38.343 68.1448 38.2929 68.4085 38.2929 68.7217C38.2929 69.0349 38.343 69.2993 38.4432 69.5147C38.5447 69.729 38.6825 69.8918 38.8566 70.0033C39.0308 70.1136 39.2287 70.1687 39.4505 70.1687C39.671 70.1687 39.8683 70.1136 40.0424 70.0033C40.2178 69.8918 40.3556 69.729 40.4558 69.5147C40.5573 69.2993 40.608 69.0349 40.608 68.7217ZM42.348 70.646V66.7975H43.7198C44.0179 66.7975 44.2654 66.8488 44.4621 66.9515C44.66 67.0543 44.8078 67.1965 44.9055 67.3781C45.0033 67.5585 45.0521 67.7671 45.0521 68.0039C45.0521 68.2394 45.0026 68.4467 44.9037 68.6259C44.8059 68.8038 44.6581 68.9422 44.4602 69.0412C44.2635 69.1402 44.0161 69.1896 43.7179 69.1896H42.6787V68.6898H43.6653C43.8532 68.6898 44.006 68.6628 44.1238 68.609C44.2428 68.5551 44.3299 68.4768 44.385 68.3741C44.4401 68.2714 44.4677 68.148 44.4677 68.0039C44.4677 67.8586 44.4395 67.7327 44.3831 67.6262C44.328 67.5197 44.2409 67.4383 44.1219 67.3819C44.0042 67.3242 43.8494 67.2954 43.6578 67.2954H42.9287V70.646H42.348ZM44.2478 68.9096L45.1987 70.646H44.5372L43.6052 68.9096H44.2478ZM48.2987 67.8084C48.2786 67.6306 48.196 67.4927 48.0506 67.395C47.9053 67.2961 47.7224 67.2466 47.5019 67.2466C47.3441 67.2466 47.2075 67.2716 47.0923 67.3217C46.977 67.3706 46.8874 67.4383 46.8235 67.5247C46.7609 67.6099 46.7296 67.707 46.7296 67.816C46.7296 67.9074 46.7509 67.9863 46.7935 68.0527C46.8373 68.1191 46.8943 68.1749 46.9645 68.22C47.0359 68.2638 47.1123 68.3008 47.1937 68.3309C47.2752 68.3597 47.3535 68.3835 47.4286 68.4023L47.8045 68.5C47.9272 68.5301 48.0531 68.5708 48.1822 68.6221C48.3112 68.6735 48.4309 68.7411 48.5411 68.8251C48.6513 68.909 48.7403 69.013 48.8079 69.137C48.8769 69.261 48.9113 69.4095 48.9113 69.5824C48.9113 69.8004 48.8549 69.9939 48.7422 70.163C48.6307 70.3322 48.4684 70.4656 48.2555 70.5633C48.0438 70.661 47.7876 70.7099 47.4869 70.7099C47.1988 70.7099 46.9494 70.6642 46.739 70.5727C46.5285 70.4813 46.3638 70.3516 46.2448 70.1837C46.1257 70.0146 46.06 69.8142 46.0474 69.5824H46.63C46.6413 69.7214 46.6864 69.8373 46.7653 69.93C46.8455 70.0215 46.9476 70.0898 47.0716 70.1349C47.1969 70.1787 47.3341 70.2006 47.4831 70.2006C47.6472 70.2006 47.7932 70.175 47.921 70.1236C48.05 70.071 48.1515 69.9983 48.2254 69.9056C48.2993 69.8116 48.3363 69.702 48.3363 69.5767C48.3363 69.4627 48.3037 69.3694 48.2386 69.2968C48.1747 69.2241 48.0876 69.164 47.9774 69.1164C47.8684 69.0687 47.745 69.0268 47.6072 68.9904L47.1524 68.8664C46.8442 68.7825 46.5999 68.6591 46.4195 68.4962C46.2404 68.3334 46.1508 68.1179 46.1508 67.8498C46.1508 67.628 46.2109 67.4345 46.3312 67.2691C46.4515 67.1038 46.6143 66.9754 46.8198 66.8839C47.0252 66.7912 47.257 66.7448 47.5151 66.7448C47.7757 66.7448 48.0055 66.7906 48.2047 66.882C48.4052 66.9735 48.563 67.0994 48.6783 67.2597C48.7935 67.4188 48.8537 67.6017 48.8587 67.8084H48.2987ZM51.8876 66.7975H52.5923L53.8175 69.7891H53.8626L55.0878 66.7975H55.7925V70.646H55.24V67.8611H55.2043L54.0693 70.6404H53.6108L52.4758 67.8592H52.4401V70.646H51.8876V66.7975ZM60.4207 68.7217C60.4207 69.1326 60.3456 69.4859 60.1952 69.7816C60.0449 70.076 59.8388 70.3027 59.577 70.4618C59.3164 70.6197 59.0201 70.6986 58.6882 70.6986C58.3549 70.6986 58.0574 70.6197 57.7955 70.4618C57.535 70.3027 57.3295 70.0754 57.1792 69.7797C57.0288 69.484 56.9537 69.1314 56.9537 68.7217C56.9537 68.3108 57.0288 67.9582 57.1792 67.6638C57.3295 67.3681 57.535 67.1413 57.7955 66.9835C58.0574 66.8244 58.3549 66.7448 58.6882 66.7448C59.0201 66.7448 59.3164 66.8244 59.577 66.9835C59.8388 67.1413 60.0449 67.3681 60.1952 67.6638C60.3456 67.9582 60.4207 68.3108 60.4207 68.7217ZM59.8457 68.7217C59.8457 68.4085 59.795 68.1448 59.6935 67.9306C59.5933 67.7151 59.4555 67.5523 59.2801 67.442C59.106 67.3305 58.9086 67.2748 58.6882 67.2748C58.4664 67.2748 58.2685 67.3305 58.0943 67.442C57.9202 67.5523 57.7824 67.7151 57.6809 67.9306C57.5807 68.1448 57.5306 68.4085 57.5306 68.7217C57.5306 69.0349 57.5807 69.2993 57.6809 69.5147C57.7824 69.729 57.9202 69.8918 58.0943 70.0033C58.2685 70.1136 58.4664 70.1687 58.6882 70.1687C58.9086 70.1687 59.106 70.1136 59.2801 70.0033C59.4555 69.8918 59.5933 69.729 59.6935 69.5147C59.795 69.2993 59.8457 69.0349 59.8457 68.7217ZM64.6919 66.7975V70.646H64.1583L62.202 67.8235H62.1663V70.646H61.5857V66.7975H62.1231L64.0812 69.6237H64.1169V66.7975H64.6919ZM66.5606 66.7975V70.646H65.98V66.7975H66.5606ZM67.6574 67.2973V66.7975H70.6359V67.2973H69.4351V70.646H68.8563V67.2973H67.6574ZM74.9128 68.7217C74.9128 69.1326 74.8376 69.4859 74.6873 69.7816C74.5369 70.076 74.3308 70.3027 74.069 70.4618C73.8084 70.6197 73.5121 70.6986 73.1802 70.6986C72.8469 70.6986 72.5494 70.6197 72.2876 70.4618C72.027 70.3027 71.8215 70.0754 71.6712 69.7797C71.5209 69.484 71.4457 69.1314 71.4457 68.7217C71.4457 68.3108 71.5209 67.9582 71.6712 67.6638C71.8215 67.3681 72.027 67.1413 72.2876 66.9835C72.5494 66.8244 72.8469 66.7448 73.1802 66.7448C73.5121 66.7448 73.8084 66.8244 74.069 66.9835C74.3308 67.1413 74.5369 67.3681 74.6873 67.6638C74.8376 67.9582 74.9128 68.3108 74.9128 68.7217ZM74.3377 68.7217C74.3377 68.4085 74.287 68.1448 74.1855 67.9306C74.0853 67.7151 73.9475 67.5523 73.7721 67.442C73.598 67.3305 73.4006 67.2748 73.1802 67.2748C72.9584 67.2748 72.7605 67.3305 72.5863 67.442C72.4122 67.5523 72.2744 67.7151 72.1729 67.9306C72.0727 68.1448 72.0226 68.4085 72.0226 68.7217C72.0226 69.0349 72.0727 69.2993 72.1729 69.5147C72.2744 69.729 72.4122 69.8918 72.5863 70.0033C72.7605 70.1136 72.9584 70.1687 73.1802 70.1687C73.4006 70.1687 73.598 70.1136 73.7721 70.0033C73.9475 69.8918 74.0853 69.729 74.1855 69.5147C74.287 69.2993 74.3377 69.0349 74.3377 68.7217ZM76.0777 70.646V66.7975H77.4495C77.7476 66.7975 77.9951 66.8488 78.1917 66.9515C78.3897 67.0543 78.5375 67.1965 78.6352 67.3781C78.7329 67.5585 78.7818 67.7671 78.7818 68.0039C78.7818 68.2394 78.7323 68.4467 78.6334 68.6259C78.5356 68.8038 78.3878 68.9422 78.1899 69.0412C77.9932 69.1402 77.7458 69.1896 77.4476 69.1896H76.4084V68.6898H77.395C77.5829 68.6898 77.7357 68.6628 77.8535 68.609C77.9725 68.5551 78.0596 68.4768 78.1147 68.3741C78.1698 68.2714 78.1974 68.148 78.1974 68.0039C78.1974 67.8586 78.1692 67.7327 78.1128 67.6262C78.0577 67.5197 77.9706 67.4383 77.8516 67.3819C77.7339 67.3242 77.5791 67.2954 77.3875 67.2954H76.6583V70.646H76.0777ZM77.9775 68.9096L78.9284 70.646H78.2669L77.3348 68.9096H77.9775ZM79.9294 70.646V66.7975H82.3422V67.2973H80.51V68.4699H82.2163V68.9679H80.51V70.1461H82.3648V70.646H79.9294ZM84.8047 70.646H83.5588V66.7975H84.8442C85.2213 66.7975 85.5451 66.8745 85.8157 67.0286C86.0863 67.1814 86.2936 67.4013 86.4377 67.6882C86.583 67.9738 86.6557 68.3165 86.6557 68.7161C86.6557 69.117 86.5824 69.4615 86.4358 69.7496C86.2905 70.0378 86.08 70.2595 85.8044 70.4149C85.5288 70.569 85.1956 70.646 84.8047 70.646ZM84.1395 70.1386H84.7728C85.0659 70.1386 85.3096 70.0835 85.5038 69.9733C85.6979 69.8618 85.8433 69.7008 85.9397 69.4903C86.0362 69.2786 86.0844 69.0205 86.0844 68.7161C86.0844 68.4142 86.0362 68.158 85.9397 67.9475C85.8445 67.737 85.7023 67.5773 85.5132 67.4683C85.324 67.3593 85.0891 67.3048 84.8085 67.3048H84.1395V70.1386Z" fill="#878D96"/>
<path d="M32.7345 83.4995V106.772H29.9163V86.454H29.7799L24.0981 90.2268V87.3631L29.9163 83.4995H32.7345ZM47.0186 107.09C45.3064 107.09 43.8481 106.624 42.6436 105.693C41.439 104.753 40.5186 103.393 39.8822 101.613C39.2458 99.8252 38.9276 97.6662 38.9276 95.1359C38.9276 92.6207 39.2458 90.473 39.8822 88.6927C40.5261 86.9048 41.4504 85.5412 42.6549 84.6018C43.867 83.6548 45.3216 83.1813 47.0186 83.1813C48.7155 83.1813 50.1663 83.6548 51.3708 84.6018C52.5829 85.5412 53.5072 86.9048 54.1436 88.6927C54.7875 90.473 55.1095 92.6207 55.1095 95.1359C55.1095 97.6662 54.7913 99.8252 54.1549 101.613C53.5186 103.393 52.5981 104.753 51.3936 105.693C50.189 106.624 48.7307 107.09 47.0186 107.09ZM47.0186 104.59C48.7155 104.59 50.0337 103.772 50.9731 102.136C51.9125 100.499 52.3822 98.1662 52.3822 95.1359C52.3822 93.1207 52.1663 91.4048 51.7345 89.9881C51.3102 88.5715 50.6966 87.4919 49.8936 86.7495C49.0981 86.0071 48.1398 85.6359 47.0186 85.6359C45.3367 85.6359 44.0223 86.4654 43.0754 88.1245C42.1284 89.776 41.6549 92.1131 41.6549 95.1359C41.6549 97.151 41.867 98.8631 42.2913 100.272C42.7155 101.681 43.3254 102.753 44.1208 103.488C44.9239 104.223 45.8898 104.59 47.0186 104.59ZM59.4276 106.772V104.727L67.1095 96.3177C68.011 95.3328 68.7534 94.4768 69.3367 93.7495C69.9201 93.0146 70.3519 92.3252 70.6322 91.6813C70.9201 91.0298 71.064 90.348 71.064 89.6359C71.064 88.8177 70.867 88.1093 70.4731 87.5109C70.0867 86.9124 69.5564 86.4502 68.8822 86.1245C68.2079 85.7987 67.4504 85.6359 66.6095 85.6359C65.7155 85.6359 64.9352 85.8215 64.2686 86.1927C63.6095 86.5563 63.0981 87.0677 62.7345 87.7268C62.3784 88.3859 62.2004 89.1586 62.2004 90.0449H59.5186C59.5186 88.6813 59.8329 87.4843 60.4617 86.454C61.0905 85.4237 61.9466 84.6207 63.0299 84.0449C64.1208 83.4692 65.3443 83.1813 66.7004 83.1813C68.064 83.1813 69.2723 83.4692 70.3254 84.0449C71.3784 84.6207 72.2042 85.3972 72.8026 86.3745C73.4011 87.3518 73.7004 88.4389 73.7004 89.6359C73.7004 90.4919 73.5451 91.329 73.2345 92.1472C72.9314 92.9578 72.4011 93.8631 71.6436 94.8631C70.8936 95.8555 69.8519 97.0677 68.5186 98.4995L63.2913 104.09V104.272H74.1095V106.772H59.4276Z" fill="#878D96"/>
<path d="M157.858 43.5032L0.743163 43.5032" stroke="#F2F4F8" stroke-width="0.5"/>
</g>
<defs>
<clipPath id="clip0_484_13725">
<rect width="157" height="200" fill="white" transform="translate(0.858398 0.00146484)"/>
</clipPath>
</defs>
</svg>
