<svg width="337" height="201" viewBox="0 0 337 201" fill="none" xmlns="http://www.w3.org/2000/svg">
<g clip-path="url(#clip0_481_14299)">
<rect width="336" height="200" transform="translate(0.863281 0.6875)" fill="white"/>
<path d="M30.5535 173.189H31.155V176.025C31.155 176.282 31.104 176.501 31.0025 176.683C30.901 176.865 30.761 177.005 30.5785 177.101C30.396 177.197 30.1825 177.244 29.938 177.244C29.713 177.244 29.5105 177.203 29.3305 177.121C29.1579 177.044 29.0108 176.92 28.9065 176.763C28.802 176.607 28.752 176.415 28.752 176.189H29.3515C29.3489 176.29 29.3753 176.39 29.4275 176.476C29.48 176.557 29.5536 176.623 29.6405 176.666C29.7315 176.71 29.836 176.732 29.953 176.732C30.0805 176.732 30.1885 176.706 30.277 176.652C30.3686 176.595 30.4402 176.511 30.482 176.412C30.529 176.306 30.5525 176.178 30.5525 176.025V173.189H30.5535ZM32.8595 177.256C32.6695 177.256 32.4975 177.221 32.344 177.15C32.1905 177.08 32.0685 176.975 31.979 176.84C31.8895 176.704 31.846 176.538 31.846 176.342C31.846 176.172 31.8785 176.033 31.9435 175.924C32.0073 175.816 32.0981 175.726 32.207 175.664C32.323 175.598 32.448 175.549 32.578 175.519C32.7158 175.487 32.8553 175.462 32.996 175.445L33.4335 175.394C33.5455 175.38 33.627 175.357 33.6775 175.326C33.728 175.294 33.7535 175.244 33.7535 175.174V175.16C33.7535 174.989 33.7055 174.857 33.609 174.763C33.5125 174.669 33.372 174.623 33.183 174.623C32.9865 174.623 32.8315 174.666 32.718 174.754C32.6162 174.827 32.5359 174.926 32.4855 175.041L31.9365 174.916C32.0015 174.734 32.0965 174.586 32.2215 174.474C32.3465 174.362 32.493 174.279 32.657 174.228C32.821 174.177 32.9935 174.15 33.1745 174.15C33.3026 174.151 33.4303 174.166 33.5555 174.193C33.6901 174.22 33.8186 174.272 33.9345 174.345C34.0574 174.424 34.1576 174.534 34.2255 174.664C34.301 174.801 34.339 174.978 34.339 175.197V177.189H33.7685V176.779H33.745C33.707 176.855 33.6505 176.929 33.575 177.002C33.4995 177.075 33.4025 177.135 33.284 177.183C33.1655 177.231 33.0235 177.256 32.858 177.256H32.8595ZM32.9865 176.787C33.148 176.787 33.286 176.755 33.4005 176.691C33.5096 176.634 33.6008 176.547 33.664 176.441C33.7243 176.34 33.7561 176.225 33.756 176.107V175.72C33.7205 175.749 33.6792 175.769 33.635 175.779C33.575 175.798 33.5095 175.811 33.434 175.824L33.213 175.857L33.0335 175.881C32.9276 175.893 32.8235 175.917 32.723 175.953C32.6305 175.987 32.5565 176.036 32.5005 176.099C32.4445 176.163 32.4185 176.245 32.4185 176.349C32.4149 176.413 32.4277 176.477 32.4557 176.534C32.4837 176.592 32.526 176.641 32.5785 176.678C32.685 176.752 32.8215 176.787 32.9865 176.787ZM35.702 175.408V177.189H35.118V174.189H35.6785V174.678H35.7155C35.7845 174.519 35.8925 174.391 36.0395 174.295C36.1865 174.198 36.3745 174.15 36.6 174.15C36.8045 174.15 36.9835 174.193 37.137 174.279C37.292 174.366 37.4167 174.498 37.4945 174.658C37.579 174.825 37.6215 175.034 37.6215 175.281V177.189H37.0375V175.351C37.0375 175.134 36.981 174.964 36.8675 174.842C36.754 174.72 36.5985 174.656 36.4005 174.656C36.265 174.656 36.1445 174.685 36.039 174.744C35.9335 174.802 35.852 174.888 35.791 175.002C35.73 175.115 35.701 175.249 35.701 175.408H35.702ZM53.467 177.189V173.189H55.9475V173.709H54.0705V174.928H55.77V175.445H54.0705V177.189H53.467ZM57.7155 177.25C57.42 177.25 57.1655 177.187 56.952 177.06C56.7396 176.932 56.5687 176.746 56.46 176.523C56.3455 176.291 56.288 176.02 56.288 175.709C56.288 175.401 56.3455 175.131 56.46 174.896C56.5745 174.662 56.7369 174.479 56.944 174.347C57.151 174.216 57.396 174.15 57.6745 174.15C57.8422 174.15 58.0088 174.178 58.167 174.234C58.3266 174.291 58.4723 174.38 58.5945 174.498C58.721 174.618 58.8205 174.773 58.8935 174.965C58.9665 175.156 59.003 175.386 59.003 175.658V175.865H56.618V175.428H58.4305C58.4305 175.274 58.3995 175.138 58.337 175.019C58.2769 174.902 58.1855 174.804 58.073 174.736C57.961 174.667 57.8295 174.633 57.6785 174.633C57.5264 174.629 57.3768 174.671 57.249 174.754C57.1294 174.831 57.0323 174.939 56.9675 175.066C56.9025 175.194 56.87 175.332 56.87 175.482V175.824C56.87 176.025 56.905 176.195 56.9755 176.336C57.046 176.476 57.1465 176.584 57.2745 176.658C57.411 176.733 57.5653 176.771 57.7215 176.767C57.8325 176.767 57.933 176.752 58.0245 176.72C58.1126 176.69 58.1931 176.64 58.2605 176.576C58.327 176.512 58.378 176.433 58.413 176.34L58.9655 176.439C58.9229 176.599 58.8411 176.746 58.7275 176.867C58.614 176.988 58.4715 177.082 58.2995 177.15C58.1275 177.218 57.9345 177.25 57.7155 177.25ZM59.6975 177.189V173.189H60.2815V174.676H60.317C60.3505 174.613 60.3995 174.541 60.4635 174.459C60.5275 174.377 60.6154 174.305 60.729 174.244C60.8424 174.182 60.992 174.15 61.178 174.15C61.4074 174.146 61.633 174.21 61.8265 174.334C62.0165 174.456 62.166 174.633 62.274 174.863C62.382 175.094 62.438 175.371 62.438 175.695C62.438 176.02 62.384 176.297 62.276 176.529C62.1679 176.761 62.0195 176.937 61.8305 177.062C61.6381 177.187 61.4131 177.251 61.184 177.248C61.0015 177.248 60.8525 177.217 60.7365 177.156C60.6205 177.095 60.5325 177.023 60.467 176.941C60.411 176.872 60.3608 176.799 60.317 176.722H60.268V177.189H59.6975ZM60.27 175.689C60.2662 175.878 60.2972 176.066 60.3615 176.244C60.4138 176.39 60.5059 176.519 60.6275 176.617C60.743 176.706 60.885 176.75 61.053 176.75C61.2275 176.75 61.3735 176.704 61.4905 176.611C61.6075 176.519 61.6964 176.39 61.7565 176.23C61.8197 176.057 61.8507 175.874 61.848 175.689C61.848 175.491 61.818 175.314 61.758 175.156C61.698 174.999 61.611 174.874 61.4925 174.783C61.374 174.692 61.229 174.646 61.053 174.646C60.884 174.646 60.7405 174.69 60.6235 174.777C60.5065 174.865 60.4195 174.986 60.36 175.142C60.3005 175.298 60.27 175.481 60.27 175.689ZM77.7935 173.189H78.526L79.7994 176.299H79.846L81.1194 173.189H81.852V177.189H81.278V174.295H81.241L80.061 177.183H79.5845L78.4049 174.293H78.3675V177.189H77.7935V173.189ZM83.5555 177.256C83.3655 177.256 83.1935 177.221 83.04 177.15C82.8915 177.083 82.7649 176.976 82.675 176.84C82.5865 176.704 82.542 176.538 82.542 176.342C82.542 176.172 82.5745 176.033 82.6395 175.924C82.7045 175.815 82.7925 175.728 82.9035 175.664C83.0145 175.6 83.1375 175.552 83.2745 175.519C83.4123 175.487 83.5518 175.462 83.6925 175.445L84.13 175.394C84.242 175.38 84.3235 175.357 84.374 175.326C84.4244 175.294 84.45 175.244 84.45 175.174V175.16C84.45 174.989 84.402 174.857 84.3055 174.763C84.209 174.669 84.0685 174.623 83.88 174.623C83.6835 174.623 83.5285 174.666 83.415 174.754C83.3015 174.841 83.2255 174.935 83.1825 175.041L82.634 174.916C82.699 174.734 82.7939 174.586 82.9189 174.474C83.0446 174.362 83.1932 174.278 83.3545 174.228C83.5185 174.176 83.691 174.15 83.872 174.15C84.0001 174.151 84.1278 174.166 84.2529 174.193C84.3876 174.22 84.5161 174.272 84.632 174.345C84.7549 174.424 84.8551 174.534 84.923 174.664C84.9985 174.801 85.036 174.978 85.036 175.197V177.189H84.466V176.779H84.4425C84.4045 176.855 84.3479 176.929 84.2724 177.002C84.1969 177.075 84.0999 177.135 83.9814 177.183C83.8629 177.231 83.721 177.256 83.5555 177.256ZM83.6825 176.787C83.844 176.787 83.982 176.755 84.0965 176.691C84.211 176.627 84.3005 176.544 84.3605 176.441C84.4206 176.34 84.4522 176.225 84.452 176.107V175.72C84.4315 175.741 84.391 175.761 84.331 175.779C84.271 175.798 84.2055 175.811 84.13 175.824L83.909 175.857L83.7295 175.881C83.6236 175.893 83.5195 175.917 83.4189 175.953C83.3265 175.987 83.2525 176.036 83.1965 176.099C83.1405 176.163 83.1145 176.245 83.1145 176.349C83.1145 176.494 83.1675 176.603 83.2745 176.678C83.3815 176.752 83.5175 176.787 83.6825 176.787ZM85.814 177.189V174.189H86.3785V174.666H86.4095C86.4645 174.504 86.561 174.377 86.699 174.285C86.837 174.192 86.9955 174.144 87.1715 174.144L87.3004 174.148L87.4195 174.158V174.717C87.3783 174.707 87.3365 174.7 87.2945 174.695C87.2345 174.686 87.1745 174.681 87.115 174.681C86.9864 174.679 86.8593 174.709 86.7454 174.769C86.639 174.827 86.554 174.907 86.4915 175.01C86.4282 175.114 86.3958 175.235 86.398 175.357V177.189H85.814ZM103.385 177.189H102.744L104.184 173.189H104.881L106.32 177.189H105.68L104.549 173.916H104.518L103.385 177.189ZM103.492 175.623H105.57V176.131H103.492V175.623ZM106.851 178.314V174.189H107.421V174.676H107.47C107.513 174.6 107.562 174.527 107.617 174.459C107.681 174.377 107.769 174.305 107.882 174.244C107.995 174.182 108.145 174.15 108.332 174.15C108.574 174.15 108.79 174.211 108.98 174.334C109.171 174.456 109.319 174.633 109.427 174.863C109.535 175.094 109.591 175.371 109.591 175.695C109.591 176.02 109.537 176.297 109.429 176.529C109.321 176.761 109.173 176.937 108.984 177.062C108.795 177.187 108.58 177.248 108.337 177.248C108.155 177.248 108.006 177.217 107.89 177.156C107.774 177.095 107.686 177.023 107.621 176.941C107.565 176.872 107.515 176.799 107.47 176.722H107.435V178.314H106.851ZM107.423 175.689C107.423 175.9 107.454 176.085 107.515 176.244C107.577 176.402 107.665 176.527 107.781 176.617C107.897 176.706 108.039 176.75 108.207 176.75C108.381 176.75 108.527 176.704 108.644 176.611C108.766 176.511 108.858 176.379 108.91 176.23C108.973 176.057 109.004 175.874 109.001 175.689C109.001 175.491 108.972 175.314 108.912 175.156C108.852 174.999 108.765 174.874 108.646 174.783C108.528 174.692 108.382 174.646 108.207 174.646C108.037 174.646 107.894 174.69 107.777 174.777C107.659 174.865 107.573 174.986 107.513 175.142C107.453 175.298 107.423 175.481 107.423 175.689ZM110.246 177.189V174.189H110.81V174.666H110.841C110.896 174.504 110.992 174.377 111.13 174.285C111.27 174.191 111.435 174.142 111.603 174.144L111.732 174.148L111.851 174.158V174.717C111.81 174.707 111.769 174.7 111.726 174.695C111.667 174.686 111.607 174.681 111.546 174.681C111.408 174.681 111.285 174.711 111.177 174.769C111.069 174.828 110.986 174.907 110.923 175.01C110.86 175.114 110.828 175.235 110.83 175.357V177.189H110.246ZM126.763 173.189H127.496L128.769 176.299H128.816L130.09 173.189H130.822V177.189H130.248V174.295H130.211L129.031 177.183H128.554L127.375 174.293H127.338V177.189H126.763V173.189ZM132.526 177.256C132.335 177.256 132.164 177.221 132.01 177.15C131.856 177.08 131.735 176.975 131.645 176.84C131.555 176.704 131.512 176.538 131.512 176.342C131.512 176.172 131.544 176.033 131.61 175.924C131.674 175.816 131.765 175.726 131.873 175.664C131.99 175.598 132.114 175.549 132.244 175.519C132.382 175.487 132.522 175.462 132.662 175.445L133.1 175.394C133.212 175.38 133.293 175.357 133.344 175.326C133.394 175.294 133.42 175.244 133.42 175.174V175.16C133.42 174.989 133.372 174.857 133.276 174.763C133.18 174.669 133.039 174.623 132.85 174.623C132.653 174.623 132.498 174.666 132.385 174.754C132.271 174.841 132.195 174.935 132.152 175.041L131.604 174.916C131.669 174.734 131.764 174.586 131.889 174.474C132.015 174.362 132.163 174.278 132.324 174.228C132.488 174.176 132.661 174.15 132.842 174.15C132.97 174.151 133.098 174.166 133.223 174.193C133.358 174.22 133.486 174.272 133.602 174.345C133.725 174.424 133.825 174.534 133.893 174.664C133.968 174.801 134.006 174.978 134.006 175.197V177.189H133.436V176.779H133.412C133.375 176.855 133.318 176.929 133.242 177.002C133.167 177.075 133.07 177.135 132.951 177.183C132.833 177.231 132.691 177.256 132.526 177.256ZM132.652 176.787C132.814 176.787 132.952 176.755 133.067 176.691C133.182 176.627 133.27 176.544 133.33 176.441C133.391 176.34 133.423 176.225 133.422 176.107V175.72C133.401 175.741 133.361 175.761 133.301 175.779C133.241 175.798 133.175 175.811 133.1 175.824L132.879 175.857L132.699 175.881C132.586 175.895 132.483 175.919 132.389 175.953C132.295 175.986 132.222 176.036 132.166 176.099C132.11 176.163 132.084 176.245 132.084 176.349C132.081 176.413 132.094 176.477 132.122 176.534C132.15 176.592 132.192 176.641 132.244 176.678C132.351 176.75 132.487 176.787 132.652 176.787ZM135.046 178.306C134.966 178.307 134.886 178.3 134.807 178.285C134.736 178.272 134.682 178.258 134.647 178.242L134.788 177.763C134.948 177.808 135.082 177.811 135.19 177.773C135.298 177.736 135.391 177.622 135.465 177.428L135.538 177.228L134.44 174.189H135.065L135.825 176.517H135.856L136.616 174.189L137.247 174.195L136.007 177.59C135.949 177.745 135.876 177.875 135.788 177.982C135.703 178.086 135.594 178.169 135.471 178.224C135.349 178.279 135.207 178.306 135.046 178.306ZM153.641 173.189H154.242V176.025C154.242 176.282 154.191 176.501 154.09 176.683C153.993 176.861 153.846 177.007 153.666 177.101C153.484 177.197 153.27 177.244 153.025 177.244C152.817 177.247 152.61 177.205 152.418 177.121C152.24 177.039 152.098 176.92 151.994 176.763C151.89 176.607 151.84 176.415 151.84 176.189H152.439C152.439 176.3 152.465 176.396 152.516 176.476C152.568 176.558 152.642 176.623 152.729 176.666C152.819 176.711 152.924 176.732 153.041 176.732C153.169 176.732 153.277 176.706 153.365 176.652C153.457 176.595 153.529 176.511 153.57 176.412C153.617 176.306 153.641 176.178 153.641 176.025V173.189ZM156.974 175.945V174.189H157.56V177.189H156.986V176.67H156.955C156.886 176.83 156.775 176.963 156.623 177.07C156.471 177.177 156.283 177.228 156.058 177.228C155.865 177.228 155.695 177.186 155.546 177.101C155.398 177.017 155.283 176.888 155.199 176.72C155.114 176.552 155.074 176.345 155.074 176.097V174.189H155.658V176.027C155.658 176.232 155.714 176.394 155.828 176.515C155.884 176.575 155.953 176.623 156.029 176.654C156.105 176.686 156.187 176.7 156.269 176.697C156.378 176.697 156.487 176.67 156.595 176.615C156.703 176.561 156.795 176.478 156.867 176.367C156.938 176.256 156.975 176.116 156.974 175.945ZM158.929 175.408V177.189H158.345V174.189H158.905V174.678H158.942C159.01 174.521 159.123 174.387 159.267 174.295C159.415 174.198 159.602 174.15 159.827 174.15C160.032 174.15 160.211 174.193 160.364 174.279C160.519 174.366 160.644 174.498 160.722 174.658C160.806 174.825 160.849 175.034 160.849 175.281V177.189H160.265V175.351C160.265 175.134 160.208 174.964 160.095 174.842C159.981 174.72 159.826 174.656 159.628 174.656C159.493 174.656 159.372 174.685 159.267 174.744C159.161 174.804 159.075 174.894 159.019 175.002C158.959 175.114 158.929 175.249 158.929 175.408ZM179.442 173.189H180.044V176.025C180.044 176.282 179.993 176.501 179.891 176.683C179.795 176.861 179.647 177.007 179.468 177.101C179.286 177.197 179.072 177.244 178.827 177.244C178.618 177.247 178.411 177.205 178.22 177.121C178.041 177.039 177.9 176.92 177.796 176.763C177.692 176.607 177.641 176.415 177.641 176.189H178.241C178.239 176.29 178.265 176.39 178.317 176.476C178.369 176.557 178.44 176.62 178.53 176.666C178.62 176.711 178.725 176.732 178.843 176.732C178.97 176.732 179.078 176.706 179.167 176.652C179.259 176.595 179.33 176.511 179.372 176.412C179.419 176.306 179.442 176.178 179.442 176.025V173.189ZM182.776 175.945V174.189H183.362V177.189H182.787V176.67H182.756C182.687 176.83 182.576 176.963 182.424 177.07C182.272 177.177 182.085 177.228 181.86 177.228C181.667 177.228 181.496 177.186 181.348 177.101C181.199 177.017 181.085 176.888 181 176.72C180.916 176.552 180.875 176.345 180.875 176.097V174.189H181.459V176.027C181.459 176.232 181.516 176.394 181.629 176.515C181.686 176.575 181.754 176.623 181.83 176.654C181.907 176.686 181.989 176.7 182.071 176.697C182.18 176.697 182.289 176.67 182.397 176.615C182.505 176.561 182.597 176.478 182.668 176.367C182.74 176.256 182.777 176.116 182.776 175.945ZM184.73 173.189V177.189H184.146V173.189H184.73ZM201.383 177.189H200.743L202.182 173.189H202.879L204.319 177.189H203.678L202.547 173.916H202.516L201.383 177.189ZM201.491 175.623H203.569V176.131H201.491V175.623ZM206.75 175.945V174.189H207.336V177.189H206.762V176.67H206.73C206.661 176.83 206.551 176.963 206.398 177.07C206.246 177.177 206.059 177.228 205.834 177.228C205.641 177.228 205.471 177.186 205.322 177.101C205.174 177.017 205.059 176.888 204.975 176.72C204.89 176.552 204.85 176.345 204.85 176.097V174.189H205.434V176.027C205.434 176.232 205.49 176.394 205.603 176.515C205.716 176.636 205.864 176.697 206.045 176.697C206.159 176.696 206.271 176.668 206.371 176.615C206.48 176.56 206.571 176.478 206.643 176.367C206.715 176.256 206.751 176.116 206.75 175.945ZM209.378 178.371C209.14 178.371 208.935 178.34 208.763 178.277C208.592 178.215 208.453 178.132 208.345 178.029C208.243 177.936 208.161 177.823 208.103 177.697L208.605 177.49C208.64 177.545 208.687 177.604 208.746 177.668C208.805 177.732 208.886 177.786 208.988 177.832C209.089 177.877 209.223 177.9 209.384 177.9C209.606 177.9 209.788 177.847 209.933 177.74C210.078 177.634 210.15 177.464 210.15 177.232V176.642H210.113C210.078 176.706 210.027 176.777 209.96 176.855C209.894 176.933 209.805 177.001 209.691 177.058C209.576 177.115 209.427 177.144 209.244 177.144C209.007 177.144 208.793 177.089 208.603 176.978C208.412 176.868 208.264 176.702 208.154 176.484C208.043 176.267 207.99 175.997 207.99 175.678C207.99 175.359 208.044 175.085 208.152 174.857C208.26 174.629 208.411 174.455 208.601 174.334C208.794 174.211 209.019 174.147 209.247 174.15C209.434 174.15 209.584 174.181 209.699 174.244C209.813 174.306 209.902 174.377 209.966 174.459C210.022 174.527 210.072 174.6 210.117 174.676H210.16V174.189H210.732V177.256C210.732 177.511 210.672 177.721 210.552 177.885C210.43 178.052 210.26 178.179 210.066 178.252C209.861 178.331 209.634 178.371 209.378 178.371ZM209.372 176.66C209.54 176.66 209.682 176.621 209.798 176.543C209.919 176.459 210.012 176.34 210.064 176.203C210.125 176.054 210.156 175.877 210.156 175.67C210.156 175.468 210.126 175.29 210.066 175.137C210.006 174.983 209.918 174.863 209.802 174.777C209.686 174.691 209.543 174.646 209.372 174.646C209.197 174.646 209.05 174.692 208.933 174.783C208.813 174.879 208.721 175.006 208.667 175.15C208.607 175.305 208.58 175.478 208.58 175.67C208.576 175.846 208.607 176.022 208.669 176.187C208.722 176.326 208.815 176.447 208.935 176.535C209.053 176.618 209.199 176.66 209.372 176.66Z" fill="#878D96"/>
<path d="M227.984 174.239C227.977 174.153 227.95 174.069 227.905 173.994C227.86 173.92 227.799 173.857 227.727 173.809C227.576 173.706 227.385 173.655 227.156 173.655C226.992 173.655 226.85 173.681 226.731 173.733C226.611 173.785 226.518 173.854 226.451 173.944C226.385 174.034 226.354 174.134 226.354 174.247C226.354 174.342 226.376 174.424 226.42 174.493C226.466 174.563 226.526 174.622 226.598 174.667C226.671 174.714 226.751 174.751 226.836 174.782L227.08 174.856L227.471 174.958C227.598 174.989 227.729 175.031 227.863 175.085C227.996 175.138 228.122 175.209 228.236 175.296C228.351 175.383 228.445 175.493 228.514 175.62C228.585 175.749 228.621 175.903 228.621 176.083C228.625 176.297 228.563 176.508 228.445 176.686C228.329 176.862 228.161 177.001 227.94 177.102C227.719 177.204 227.453 177.255 227.141 177.255C226.841 177.255 226.582 177.207 226.363 177.112C226.144 177.017 225.973 176.882 225.85 176.708C225.726 176.533 225.658 176.324 225.645 176.083H226.25C226.262 176.227 226.309 176.348 226.391 176.444C226.473 176.541 226.58 176.61 226.709 176.657C226.838 176.703 226.982 176.725 227.137 176.725C227.307 176.725 227.459 176.699 227.592 176.645C227.724 176.592 227.831 176.515 227.908 176.419C227.985 176.322 228.026 176.201 228.024 176.077C228.024 175.958 227.99 175.861 227.922 175.786C227.854 175.71 227.765 175.648 227.65 175.598C227.525 175.545 227.397 175.501 227.266 175.468L226.793 175.339C226.473 175.251 226.219 175.123 226.031 174.954C225.844 174.784 225.752 174.561 225.752 174.282C225.748 174.066 225.813 173.854 225.94 173.678C226.065 173.507 226.234 173.373 226.447 173.278C226.675 173.18 226.921 173.13 227.17 173.134C227.441 173.134 227.68 173.181 227.887 173.276C228.082 173.361 228.252 173.497 228.379 173.669C228.499 173.834 228.561 174.024 228.566 174.239H227.984ZM230.588 177.249C230.293 177.249 230.038 177.186 229.825 177.059C229.611 176.933 229.448 176.753 229.333 176.522C229.217 176.292 229.161 176.019 229.161 175.708C229.161 175.4 229.218 175.13 229.333 174.895C229.447 174.661 229.61 174.478 229.817 174.346C230.024 174.215 230.269 174.149 230.547 174.149C230.715 174.149 230.881 174.177 231.04 174.233C231.199 174.29 231.345 174.38 231.467 174.497C231.594 174.617 231.693 174.772 231.766 174.964C231.839 175.155 231.876 175.385 231.876 175.657V175.864H229.491V175.427H231.303C231.303 175.273 231.272 175.137 231.21 175.018C231.149 174.901 231.058 174.803 230.946 174.735C230.834 174.666 230.702 174.632 230.551 174.632C230.399 174.628 230.249 174.67 230.122 174.753C230.002 174.83 229.905 174.938 229.84 175.065C229.775 175.193 229.743 175.331 229.743 175.481V175.823C229.743 176.024 229.778 176.194 229.848 176.335C229.919 176.475 230.019 176.583 230.147 176.657C230.284 176.732 230.438 176.77 230.594 176.766C230.705 176.766 230.806 176.751 230.897 176.719C230.985 176.689 231.066 176.639 231.133 176.575C231.2 176.511 231.251 176.432 231.286 176.339L231.838 176.438C231.796 176.598 231.714 176.745 231.6 176.866C231.487 176.987 231.344 177.081 231.172 177.149C231 177.217 230.807 177.249 230.588 177.249ZM232.524 178.313V174.188H233.094V174.675H233.143C233.176 174.612 233.225 174.54 233.289 174.458C233.353 174.376 233.441 174.304 233.555 174.243C233.668 174.181 233.818 174.149 234.004 174.149C234.233 174.145 234.459 174.209 234.652 174.333C234.843 174.455 234.992 174.632 235.1 174.862C235.208 175.093 235.264 175.37 235.264 175.694C235.264 176.019 235.21 176.296 235.102 176.528C234.994 176.76 234.845 176.936 234.656 177.061C234.467 177.186 234.252 177.247 234.01 177.247C233.828 177.247 233.678 177.216 233.563 177.155C233.459 177.103 233.367 177.03 233.293 176.94C233.237 176.872 233.186 176.798 233.143 176.721H233.107V178.313H232.524ZM233.096 175.688C233.096 175.899 233.126 176.084 233.188 176.243C233.249 176.401 233.337 176.526 233.453 176.616C233.576 176.707 233.726 176.754 233.879 176.749C234.053 176.749 234.199 176.703 234.316 176.61C234.433 176.518 234.522 176.389 234.582 176.229C234.645 176.056 234.676 175.873 234.674 175.688C234.674 175.49 234.644 175.313 234.584 175.155C234.525 174.998 234.437 174.873 234.318 174.782C234.2 174.691 234.055 174.645 233.879 174.645C233.71 174.645 233.566 174.689 233.449 174.776C233.332 174.864 233.246 174.985 233.186 175.141C233.126 175.297 233.096 175.48 233.096 175.688ZM254.504 175.188C254.504 175.615 254.426 175.983 254.27 176.29C254.126 176.581 253.904 176.826 253.627 176.997C253.356 177.161 253.048 177.243 252.703 177.243C252.358 177.243 252.048 177.161 251.776 176.997C251.504 176.833 251.291 176.595 251.135 176.288C250.979 175.98 250.901 175.614 250.901 175.188C250.901 174.762 250.979 174.395 251.135 174.089C251.292 173.783 251.505 173.546 251.776 173.382C252.056 173.215 252.377 173.129 252.703 173.134C253.049 173.134 253.356 173.216 253.627 173.382C253.898 173.547 254.114 173.781 254.27 174.089C254.426 174.396 254.504 174.761 254.504 175.188ZM253.907 175.188C253.907 174.863 253.854 174.589 253.748 174.366C253.643 174.143 253.501 173.973 253.319 173.858C253.135 173.741 252.921 173.681 252.703 173.684C252.473 173.684 252.267 173.742 252.086 173.858C251.905 173.974 251.762 174.142 251.657 174.366C251.551 174.589 251.5 174.863 251.5 175.188C251.5 175.514 251.552 175.789 251.657 176.012C251.761 176.236 251.905 176.404 252.086 176.52C252.267 176.636 252.473 176.692 252.703 176.692C252.934 176.692 253.138 176.635 253.319 176.52C253.5 176.406 253.644 176.235 253.748 176.012C253.852 175.789 253.907 175.514 253.907 175.188ZM256.473 177.249C256.183 177.249 255.933 177.183 255.723 177.052C255.514 176.918 255.347 176.728 255.243 176.503C255.131 176.27 255.075 176.003 255.075 175.702C255.075 175.397 255.132 175.128 255.247 174.895C255.353 174.67 255.521 174.48 255.731 174.346C255.94 174.215 256.185 174.149 256.468 174.149C256.677 174.146 256.886 174.189 257.077 174.276C257.255 174.359 257.399 174.477 257.509 174.628C257.621 174.783 257.689 174.966 257.706 175.157H257.138C257.106 175.016 257.035 174.895 256.923 174.794C256.811 174.692 256.664 174.641 256.477 174.641C256.325 174.638 256.175 174.683 256.05 174.77C255.929 174.855 255.834 174.976 255.766 175.134C255.698 175.291 255.665 175.475 255.665 175.688C255.665 175.907 255.698 176.096 255.764 176.255C255.821 176.402 255.919 176.53 256.046 176.624C256.168 176.711 256.312 176.755 256.477 176.755C256.588 176.755 256.688 176.734 256.778 176.694C256.867 176.654 256.945 176.593 257.007 176.516C257.069 176.44 257.113 176.347 257.138 176.239H257.706C257.688 176.426 257.622 176.605 257.516 176.759C257.408 176.913 257.262 177.037 257.093 177.118C256.917 177.205 256.71 177.249 256.473 177.249ZM259.731 174.188V174.657H258.092V174.188H259.731ZM258.532 173.469H259.116V176.307C259.116 176.421 259.132 176.506 259.166 176.563C259.2 176.621 259.244 176.658 259.297 176.678C259.351 176.699 259.411 176.708 259.475 176.708C259.522 176.708 259.563 176.705 259.598 176.698L259.68 176.682L259.785 177.165C259.738 177.181 259.69 177.194 259.641 177.204C259.578 177.218 259.5 177.226 259.407 177.227C259.253 177.23 259.11 177.203 258.977 177.145C258.846 177.089 258.734 176.997 258.655 176.88C258.573 176.76 258.532 176.609 258.532 176.428V173.469ZM278.318 173.188V177.188H277.764L275.73 174.255H275.693V177.188H275.09V173.188H275.648L277.684 176.126H277.721V173.188H278.318ZM280.415 177.249C280.134 177.249 279.889 177.184 279.679 177.055C279.468 176.925 279.299 176.737 279.191 176.514C279.075 176.282 279.017 176.012 279.017 175.702C279.017 175.392 279.075 175.119 279.191 174.886C279.307 174.653 279.47 174.471 279.679 174.343C279.889 174.214 280.134 174.149 280.415 174.149C280.696 174.149 280.942 174.214 281.152 174.343C281.361 174.472 281.524 174.652 281.64 174.886C281.756 175.119 281.814 175.391 281.814 175.702C281.814 176.013 281.756 176.283 281.64 176.514C281.525 176.746 281.361 176.927 281.152 177.055C280.942 177.184 280.697 177.249 280.415 177.249ZM280.417 176.759C280.6 176.759 280.751 176.71 280.871 176.614C280.991 176.518 281.079 176.389 281.136 176.229C281.196 176.059 281.226 175.88 281.224 175.7C281.226 175.52 281.196 175.342 281.136 175.173C281.085 175.021 280.993 174.886 280.871 174.784C280.751 174.686 280.6 174.637 280.417 174.637C280.235 174.637 280.082 174.686 279.96 174.784C279.839 174.881 279.751 175.011 279.693 175.173C279.634 175.334 279.607 175.509 279.607 175.7C279.607 175.891 279.636 176.069 279.693 176.229C279.75 176.389 279.841 176.518 279.96 176.614C280.08 176.711 280.234 176.759 280.417 176.759ZM284.925 174.188L283.837 177.188H283.212L282.122 174.188H282.749L283.509 176.497H283.54L284.298 174.188H284.925ZM301.02 177.188H299.725V173.188H301.061C301.453 173.188 301.789 173.268 302.071 173.428C302.352 173.588 302.567 173.816 302.717 174.114C302.867 174.413 302.944 174.767 302.944 175.182C302.944 175.597 302.868 175.957 302.715 176.257C302.563 176.556 302.345 176.787 302.059 176.948C301.772 177.11 301.426 177.188 301.02 177.188ZM300.328 176.661H300.987C301.291 176.661 301.545 176.604 301.746 176.489C301.948 176.375 302.099 176.206 302.2 175.987C302.3 175.769 302.35 175.499 302.35 175.182C302.35 174.869 302.3 174.602 302.2 174.384C302.1 174.165 301.953 173.999 301.756 173.886C301.56 173.773 301.315 173.716 301.024 173.716H300.328V176.661ZM304.94 177.249C304.645 177.249 304.39 177.186 304.177 177.059C303.963 176.933 303.8 176.753 303.684 176.522C303.568 176.292 303.513 176.019 303.513 175.708C303.513 175.4 303.57 175.13 303.684 174.895C303.791 174.671 303.959 174.481 304.169 174.346C304.377 174.215 304.621 174.149 304.899 174.149C305.067 174.149 305.233 174.177 305.391 174.233C305.55 174.289 305.693 174.377 305.819 174.497C305.946 174.616 306.045 174.772 306.118 174.964C306.19 175.155 306.227 175.385 306.227 175.657V175.864H303.843V175.427H305.655C305.655 175.273 305.624 175.137 305.561 175.018C305.499 174.9 305.411 174.804 305.298 174.735C305.185 174.666 305.054 174.632 304.903 174.632C304.739 174.632 304.596 174.672 304.473 174.753C304.351 174.834 304.259 174.936 304.192 175.065C304.126 175.194 304.095 175.331 304.095 175.481V175.823C304.095 176.024 304.13 176.194 304.2 176.335C304.266 176.469 304.37 176.581 304.499 176.657C304.626 176.73 304.776 176.766 304.946 176.766C305.049 176.768 305.151 176.752 305.249 176.719C305.34 176.687 305.419 176.639 305.485 176.575C305.553 176.509 305.605 176.428 305.638 176.339L306.19 176.438C306.147 176.598 306.065 176.745 305.952 176.866C305.832 176.991 305.686 177.088 305.524 177.149C305.354 177.216 305.159 177.249 304.94 177.249ZM308.139 177.249C307.849 177.249 307.599 177.183 307.389 177.052C307.18 176.918 307.013 176.728 306.909 176.503C306.797 176.27 306.741 176.003 306.741 175.702C306.741 175.397 306.798 175.128 306.912 174.895C307.027 174.662 307.188 174.478 307.397 174.346C307.605 174.215 307.851 174.149 308.133 174.149C308.361 174.149 308.564 174.192 308.743 174.276C308.921 174.361 309.065 174.477 309.174 174.628C309.286 174.783 309.354 174.966 309.371 175.157H308.803C308.772 175.016 308.7 174.895 308.588 174.794C308.476 174.692 308.329 174.641 308.143 174.641C307.99 174.638 307.84 174.683 307.715 174.77C307.594 174.855 307.5 174.976 307.432 175.134C307.364 175.291 307.33 175.475 307.33 175.688C307.33 175.907 307.364 176.096 307.43 176.255C307.497 176.414 307.59 176.537 307.711 176.624C307.832 176.711 307.978 176.755 308.143 176.755C308.254 176.755 308.354 176.734 308.444 176.694C308.533 176.654 308.611 176.593 308.672 176.516C308.735 176.44 308.778 176.347 308.803 176.239H309.371C309.353 176.426 309.288 176.605 309.182 176.759C309.074 176.913 308.928 177.037 308.758 177.118C308.582 177.205 308.376 177.249 308.139 177.249Z" fill="#878D96"/>
<path d="M109.868 79.4417L107.759 87.2786H107.068L109.178 79.4417H109.868ZM115.364 79.6467C115.64 79.65 115.912 79.7017 116.17 79.7997C116.438 79.9002 116.683 80.0662 116.905 80.2987C117.126 80.5312 117.304 80.8471 117.439 81.2476C117.573 81.6481 117.64 82.1477 117.64 82.7532C117.64 83.3347 117.585 83.8512 117.474 84.3032C117.363 84.7552 117.207 85.1317 117.001 85.4407C116.794 85.7497 116.547 85.9841 116.253 86.1441C115.959 86.3041 115.631 86.3837 115.262 86.3837C114.894 86.3837 114.569 86.3112 114.281 86.1662C113.993 86.0212 113.761 85.8156 113.578 85.5556C113.394 85.2956 113.281 84.9901 113.229 84.6451H114.009C114.08 84.9456 114.219 85.1936 114.428 85.3896C114.639 85.5836 114.917 85.6806 115.262 85.6806C115.767 85.6806 116.166 85.4601 116.457 85.0191C116.749 84.5781 116.898 83.9547 116.898 83.1492H116.847C116.731 83.3251 116.588 83.4815 116.422 83.6126C116.258 83.7426 116.076 83.8427 115.876 83.9132C115.675 83.9837 115.462 84.0187 115.237 84.0187C114.862 84.0187 114.517 83.9257 114.204 83.7407C113.891 83.5557 113.644 83.2962 113.456 82.9702C113.269 82.6442 113.178 82.2672 113.178 81.8452C113.178 81.4407 113.268 81.0707 113.447 80.7362C113.626 80.4017 113.881 80.1356 114.207 79.9371C114.533 79.7386 114.921 79.6422 115.364 79.6467ZM115.364 80.3496C115.108 80.3462 114.857 80.416 114.639 80.5507C114.426 80.6846 114.251 80.8707 114.131 81.0911C114.007 81.3166 113.945 81.5682 113.945 81.8452C113.945 82.1182 114.005 82.3661 114.124 82.5901C114.246 82.8116 114.411 82.9882 114.62 83.1207C114.829 83.2532 115.07 83.3157 115.339 83.3157C115.534 83.3173 115.727 83.2768 115.904 83.1972C116.077 83.1181 116.232 83.0064 116.362 82.8681C116.493 82.729 116.598 82.5676 116.672 82.3917C116.746 82.2146 116.784 82.0246 116.783 81.8326C116.783 81.5726 116.722 81.3297 116.598 81.1037C116.48 80.8812 116.306 80.693 116.093 80.5572C115.88 80.4187 115.637 80.3496 115.364 80.3496ZM120.942 86.3837C120.567 86.3837 120.23 86.3091 119.929 86.1601C119.629 86.0111 119.388 85.8061 119.207 85.5461C119.026 85.2861 118.927 84.9902 118.91 84.6577H119.677C119.706 84.9542 119.841 85.1992 120.079 85.3927C120.318 85.5862 120.608 85.6806 120.942 85.6806C121.211 85.6806 121.449 85.6176 121.658 85.4921C121.868 85.3679 122.039 85.1888 122.154 84.9742C122.275 84.7527 122.336 84.5022 122.336 84.2232C122.336 83.9377 122.273 83.6832 122.147 83.4592C122.028 83.2383 121.852 83.0539 121.636 82.9257C121.418 82.7957 121.17 82.7296 120.891 82.7271C120.691 82.7251 120.485 82.7562 120.274 82.8202C120.063 82.8842 119.89 82.9617 119.753 83.0597L119.012 82.9702L119.408 79.7486H122.809V80.4517H120.073L119.843 82.3821H119.881C120.015 82.2756 120.184 82.1871 120.386 82.1171C120.589 82.0471 120.799 82.0116 121.019 82.0116C121.42 82.0116 121.776 82.1071 122.09 82.2991C122.403 82.4911 122.652 82.7487 122.831 83.0792C123.01 83.4097 123.103 83.7862 123.103 84.2102C123.103 84.6282 123.009 85.0007 122.821 85.3292C122.64 85.6513 122.375 85.9183 122.054 86.1021C121.728 86.2896 121.358 86.3837 120.942 86.3837ZM126.507 86.3837C126.026 86.3837 125.616 86.2527 125.277 85.9907C124.938 85.7287 124.679 85.3437 124.5 84.8432C124.321 84.3402 124.232 83.7332 124.232 83.0217C124.232 82.3142 124.321 81.7102 124.5 81.2092C124.679 80.7082 124.941 80.3232 125.28 80.0587C125.619 79.7942 126.03 79.6591 126.507 79.6591C126.984 79.6591 127.393 79.7922 127.731 80.0587C128.07 80.3252 128.332 80.7067 128.511 81.2092C128.69 81.7117 128.783 82.3142 128.783 83.0217C128.783 83.7332 128.693 84.3402 128.514 84.8432C128.335 85.3437 128.077 85.7262 127.738 85.9907C127.399 86.2552 126.989 86.3837 126.507 86.3837ZM126.507 85.6806C126.985 85.6806 127.355 85.4502 127.62 84.9901C127.884 84.5301 128.016 83.8737 128.016 83.0217C128.016 82.4547 127.955 81.9722 127.834 81.5737C127.712 81.1752 127.542 80.8717 127.316 80.6627C127.09 80.4537 126.823 80.3496 126.507 80.3496C126.034 80.3496 125.665 80.5827 125.398 81.0497C125.132 81.5167 124.999 82.1712 124.999 83.0217C124.999 83.5882 125.058 84.0696 125.178 84.4661C125.297 84.8626 125.469 85.1637 125.692 85.3707C125.914 85.5756 126.206 85.6867 126.507 85.6806Z" fill="#878D96"/>
<path d="M44.8633 76.2947C44.8633 82.9222 39.4908 88.2947 32.8633 88.2947C26.2358 88.2947 20.8633 82.9222 20.8633 76.2947C20.8633 69.6672 26.2358 64.2947 32.8633 64.2947C39.4908 64.2947 44.8633 69.6672 44.8633 76.2947Z" fill="#F4FBF7"/>
<path fill-rule="evenodd" clip-rule="evenodd" d="M32.8623 64.7944C26.5113 64.7944 21.3623 69.9429 21.3623 76.2944C21.3623 82.6459 26.5113 87.7944 32.8623 87.7944C39.2133 87.7944 44.3623 82.6459 44.3623 76.2944C44.3623 69.9429 39.2138 64.7944 32.8623 64.7944ZM20.3623 76.2944C20.3623 69.3909 25.9588 63.7944 32.8623 63.7944C39.7658 63.7944 45.3623 69.3909 45.3623 76.2944C45.3623 83.1979 39.7658 88.7944 32.8623 88.7944C25.9588 88.7944 20.3623 83.1979 20.3623 76.2944Z" fill="#58AD75"/>
<path d="M29.6548 81.2953H28.3623L32.1008 71.1133H33.3733L37.1123 81.2953H35.8198L32.7773 72.7243H32.6978L29.6548 81.2953ZM30.1323 77.3183H35.3423V78.4118H30.1323V77.3183ZM61.7038 86.5738C60.3383 86.5738 59.1318 86.3318 58.0848 85.8478C57.0438 85.3573 56.2318 84.6843 55.6483 83.8293C55.0653 82.9678 54.7768 81.9868 54.7833 80.8863C54.7768 80.0243 54.9458 79.2288 55.2908 78.4998C55.6353 77.7638 56.1058 77.1508 56.7023 76.6603C57.3058 76.1633 57.9783 75.8483 58.7208 75.7158V75.5963C57.7463 75.3443 56.9708 74.7978 56.3943 73.9558C55.8178 73.1073 55.5323 72.1428 55.5393 71.0623C55.5323 70.0283 55.7943 69.1033 56.3248 68.2883C56.8553 67.4733 57.5843 66.8298 58.5123 66.3593C59.4468 65.8888 60.5108 65.6533 61.7038 65.6533C62.8838 65.6533 63.9378 65.8888 64.8658 66.3593C65.7938 66.8298 66.5228 67.4728 67.0533 68.2883C67.5903 69.1033 67.8623 70.0283 67.8688 71.0623C67.8623 72.1428 67.5673 73.1073 66.9838 73.9558C66.4068 74.7978 65.6413 75.3443 64.6868 75.5963V75.7158C65.4219 75.848 66.1084 76.1741 66.6753 76.6603C67.2653 77.1508 67.7363 77.7638 68.0873 78.4998C68.4388 79.2288 68.6178 80.0243 68.6243 80.8863C68.6178 81.9868 68.3193 82.9678 67.7293 83.8293C67.1463 84.6843 66.3343 85.3573 65.2933 85.8478C64.2593 86.3318 63.0628 86.5738 61.7038 86.5738ZM61.7038 84.3863C62.6253 84.3863 63.4208 84.2373 64.0903 83.9388C64.7598 83.6403 65.2768 83.2193 65.6413 82.6758C66.0058 82.1323 66.1918 81.4963 66.1983 80.7668C66.1918 79.9978 65.9928 79.3183 65.6018 78.7283C65.2108 78.1383 64.6768 77.6748 64.0008 77.3363C63.3313 76.9983 62.5658 76.8293 61.7038 76.8293C60.8353 76.8293 60.0598 76.9983 59.3773 77.3363C58.7013 77.6748 58.1673 78.1388 57.7763 78.7283C57.3918 79.3183 57.2028 79.9978 57.2098 80.7668C57.2028 81.4963 57.3788 82.1323 57.7368 82.6758C58.1013 83.2193 58.6213 83.6403 59.2978 83.9388C59.9743 84.2373 60.7758 84.3863 61.7038 84.3863ZM61.7038 74.7213C62.4333 74.7213 63.0793 74.5758 63.6428 74.2838C64.2128 73.9923 64.6603 73.5848 64.9853 73.0608C65.3103 72.5368 65.4758 71.9243 65.4823 71.2213C65.4758 70.5318 65.3133 69.9323 64.9953 69.4218C64.6768 68.9048 64.2363 68.5068 63.6728 68.2283C63.1093 67.9433 62.4528 67.8008 61.7038 67.8008C60.9418 67.8008 60.2753 67.9433 59.7053 68.2283C59.1353 68.5068 58.6943 68.9048 58.3828 69.4218C58.0713 69.9323 57.9188 70.5318 57.9253 71.2213C57.9188 71.9243 58.0748 72.5373 58.3928 73.0608C58.7178 73.5848 59.1653 73.9923 59.7353 74.2838C60.3053 74.5753 60.9613 74.7213 61.7038 74.7213ZM78.7988 86.5738C77.6323 86.5738 76.5813 86.3418 75.6468 85.8778C74.7123 85.4138 73.9628 84.7773 73.3998 83.9688C72.8368 83.1603 72.5278 82.2383 72.4748 81.2043H74.8613C74.9538 82.1258 75.3718 82.8883 76.1143 83.4913C76.8633 84.0878 77.7578 84.3863 78.7988 84.3863C79.6338 84.3863 80.3763 84.1908 81.0258 83.7998C81.6823 83.4083 82.1958 82.8713 82.5673 82.1888C82.9448 81.4993 83.1338 80.7203 83.1338 79.8523C83.1338 78.9638 82.9383 78.1718 82.5473 77.4758C82.1628 76.7728 81.6323 76.2193 80.9563 75.8153C80.2803 75.4113 79.5078 75.2053 78.6398 75.1988C78.0163 75.1923 77.3768 75.2883 76.7208 75.4873C76.0643 75.6793 75.5243 75.9278 75.0998 76.2328L72.7933 75.9543L74.0258 65.9318H84.6058V68.1193H76.0943L75.3783 74.1248H75.4978C75.9153 73.7933 76.4388 73.5183 77.0688 73.2998C77.7018 73.0803 78.3673 72.9692 79.0373 72.9713C80.2838 72.9713 81.3938 73.2698 82.3683 73.8663C83.3436 74.4502 84.1412 75.2889 84.6753 76.2923C85.2388 77.3198 85.5203 78.4933 85.5203 79.8123C85.5203 81.1118 85.2288 82.2718 84.6453 83.2923C84.0688 84.3068 83.2733 85.1088 82.2588 85.6988C81.2448 86.2818 80.0913 86.5738 78.7988 86.5738ZM96.1123 86.5738C94.6143 86.5738 93.3383 86.1658 92.2843 85.3508C91.2303 84.5288 90.4248 83.3388 89.8678 81.7813C89.3113 80.2168 89.0328 78.3273 89.0328 76.1133C89.0328 73.9128 89.3113 72.0333 89.8678 70.4758C90.4313 68.9113 91.2403 67.7183 92.2943 66.8963C93.3548 66.0678 94.6273 65.6533 96.1123 65.6533C97.5973 65.6533 98.8668 66.0678 99.9203 66.8963C100.981 67.7183 101.79 68.9113 102.347 70.4758C102.91 72.0333 103.192 73.9128 103.192 76.1133C103.192 78.3273 102.913 80.2168 102.357 81.7813C101.8 83.3388 100.994 84.5288 99.9403 85.3508C98.8863 86.1658 97.6103 86.5738 96.1123 86.5738ZM96.1123 84.3863C97.5973 84.3863 98.7508 83.6703 99.5723 82.2383C100.394 80.8063 100.805 78.7648 100.805 76.1133C100.805 74.3503 100.617 72.8488 100.239 71.6093C99.8673 70.3698 99.3308 69.4248 98.6278 68.7753C97.9318 68.1258 97.0933 67.8008 96.1123 67.8008C94.6408 67.8008 93.4908 68.5268 92.6618 69.9783C91.8333 71.4238 91.4193 73.4688 91.4193 76.1133C91.4193 77.8768 91.6048 79.3748 91.9758 80.6078C92.3468 81.8408 92.8808 82.7788 93.5768 83.4218C94.2793 84.0648 95.1248 84.3863 96.1123 84.3863Z" fill="#58AD75"/>
<path d="M223.713 89.0996V90.8156C223.714 90.995 223.705 91.1742 223.686 91.3526L223.617 91.9076H223.113L223.044 91.3526C223.026 91.1742 223.017 90.995 223.017 90.8156V89.0996H223.713ZM222.9 93.0296C222.9 92.9691 222.911 92.909 222.933 92.8526C222.956 92.7989 222.988 92.75 223.029 92.7086C223.071 92.6686 223.12 92.6366 223.176 92.6126C223.232 92.5886 223.292 92.5766 223.356 92.5766C223.417 92.5764 223.477 92.5886 223.533 92.6126C223.587 92.6351 223.636 92.6677 223.677 92.7086C223.72 92.7493 223.754 92.7983 223.776 92.8526C223.8 92.9085 223.813 92.9688 223.812 93.0296C223.812 93.0936 223.8 93.1536 223.776 93.2096C223.752 93.2656 223.719 93.3106 223.677 93.3506C223.636 93.3913 223.587 93.423 223.533 93.4436C223.477 93.4676 223.417 93.4798 223.356 93.4796C223.292 93.4796 223.232 93.4676 223.176 93.4436C223.12 93.4196 223.071 93.3906 223.029 93.3506C222.987 93.3106 222.957 93.2636 222.933 93.2096C222.909 93.1556 222.9 93.0936 222.9 93.0296Z" fill="white"/>
<mask id="mask0_481_14299" style="mask-type:alpha" maskUnits="userSpaceOnUse" x="26" y="105" width="285" height="60">
<rect x="26.8662" y="105.688" width="284" height="59" fill="#D9D9D9"/>
</mask>
<g mask="url(#mask0_481_14299)">
<path d="M25.3662 148.268L350.366 136.268" stroke="#8BABE1" stroke-linecap="round" stroke-dasharray="0.05 2"/>
<path d="M33.6328 141.668L33.7428 144.575L33.3043 144.592L33.1943 141.685L33.6328 141.668ZM37.1178 141.538L37.2278 144.445L36.8248 144.46L35.2668 142.383L35.2398 142.384L35.3203 144.516L34.8818 144.533L34.7718 141.626L35.1778 141.611L36.7378 143.69L36.7648 143.689L36.6843 141.554L37.1188 141.538H37.1178ZM39.3083 144.367L38.3673 144.402L38.2573 141.495L39.2283 141.459C39.5133 141.448 39.7598 141.498 39.9688 141.606C40.1778 141.715 40.3403 141.874 40.4573 142.087C40.5743 142.299 40.6398 142.555 40.6513 142.857C40.6628 143.159 40.6173 143.422 40.5148 143.644C40.4184 143.86 40.2587 144.042 40.0568 144.164C39.8528 144.289 39.6033 144.356 39.3083 144.367ZM38.7913 144.003L39.2698 143.985C39.4913 143.977 39.6738 143.928 39.8173 143.839C39.9608 143.75 40.0658 143.624 40.1328 143.462C40.1998 143.301 40.2288 143.103 40.2198 142.873C40.2108 142.643 40.1673 142.453 40.0883 142.297C40.0167 142.147 39.8989 142.025 39.7523 141.947C39.6063 141.87 39.4273 141.835 39.2153 141.843L38.7098 141.862L38.7908 144.003H38.7913ZM43.5113 141.299L43.9513 141.283L44.0233 143.195C44.0308 143.398 43.9898 143.58 43.9003 143.741C43.8108 143.901 43.6808 144.028 43.5113 144.125C43.3418 144.221 43.1403 144.272 42.9073 144.281C42.6743 144.29 42.4713 144.253 42.2948 144.17C42.1258 144.093 41.9814 143.971 41.8778 143.816C41.7763 143.663 41.7218 143.484 41.7138 143.281L41.6418 141.369L42.0803 141.353L42.1513 143.229C42.1537 143.352 42.1882 143.472 42.2513 143.576C42.3138 143.676 42.3998 143.754 42.5088 143.808C42.6178 143.863 42.7458 143.886 42.8923 143.881C43.025 143.88 43.1551 143.845 43.2708 143.78C43.3728 143.721 43.4555 143.634 43.5088 143.529C43.5628 143.425 43.5873 143.307 43.5823 143.176L43.5113 141.299ZM46.7028 141.944C46.695 141.882 46.6731 141.822 46.6386 141.769C46.6041 141.716 46.558 141.672 46.5038 141.639C46.3913 141.569 46.2518 141.536 46.0853 141.543C45.9658 141.547 45.8638 141.57 45.7778 141.611C45.6989 141.646 45.6308 141.702 45.5808 141.772C45.5358 141.838 45.5148 141.912 45.5183 141.994C45.5208 142.064 45.5393 142.123 45.5733 142.171C45.6073 142.22 45.6528 142.261 45.7073 142.293C45.7618 142.325 45.8213 142.35 45.8838 142.37L46.0633 142.418L46.3498 142.481C46.4433 142.5 46.5398 142.527 46.6388 142.562C46.7378 142.597 46.8298 142.645 46.9158 142.706C47.0015 142.766 47.0733 142.844 47.1263 142.934C47.1818 143.025 47.2123 143.137 47.2173 143.267C47.2233 143.432 47.1863 143.58 47.1063 143.71C47.0263 143.841 46.9083 143.947 46.7503 144.027C46.5923 144.107 46.4013 144.15 46.1738 144.159C45.9563 144.167 45.7668 144.14 45.6048 144.076C45.4428 144.013 45.3153 143.92 45.2203 143.797C45.1253 143.673 45.0703 143.523 45.0543 143.348L45.4943 143.332C45.503 143.428 45.5423 143.519 45.6063 143.59C45.6715 143.659 45.7531 143.709 45.8433 143.736C45.9447 143.767 46.0506 143.78 46.1563 143.774C46.2803 143.77 46.3898 143.746 46.4848 143.704C46.573 143.667 46.65 143.607 46.7083 143.531C46.7615 143.458 46.7878 143.369 46.7828 143.279C46.7831 143.202 46.7537 143.127 46.7008 143.07C46.6503 143.017 46.5828 142.974 46.4983 142.941C46.4138 142.908 46.3203 142.88 46.2153 142.857L45.8683 142.776C45.6333 142.721 45.4453 142.635 45.3043 142.517C45.1633 142.4 45.0903 142.239 45.0828 142.036C45.0736 141.88 45.1155 141.724 45.2023 141.593C45.2923 141.461 45.4159 141.356 45.5603 141.288C45.7233 141.21 45.9011 141.167 46.0818 141.163C46.2788 141.156 46.4538 141.184 46.6068 141.247C46.7598 141.311 46.8838 141.401 46.9753 141.519C47.0672 141.637 47.1203 141.78 47.1273 141.929L46.7043 141.944H46.7028ZM48.0313 141.508L48.0168 141.131L50.2668 141.046L50.2813 141.424L49.3743 141.458L49.4698 143.987L49.0328 144.004L48.9373 141.474L48.0318 141.508H48.0313ZM51.3738 143.916L51.2638 141.009L52.2998 140.97C52.5253 140.962 52.7133 140.994 52.8648 141.066C53.0163 141.138 53.1328 141.241 53.2118 141.376C53.2908 141.51 53.3338 141.665 53.3403 141.844C53.3468 142.023 53.3158 142.18 53.2458 142.318C53.1758 142.456 53.0693 142.564 52.9228 142.644C52.7763 142.724 52.5918 142.769 52.3663 142.777L51.5813 142.807L51.5668 142.429L52.3118 142.401C52.4538 142.396 52.5683 142.371 52.6558 142.327C52.7433 142.283 52.8078 142.222 52.8463 142.143C52.8848 142.064 52.9023 141.969 52.8983 141.861C52.8943 141.752 52.8693 141.657 52.8238 141.578C52.7783 141.499 52.7108 141.44 52.6193 141.401C52.5278 141.362 52.4108 141.343 52.2663 141.348L51.7153 141.369L51.8108 143.9L51.3723 143.916H51.3738ZM52.7593 142.551L53.5273 143.836L53.0278 143.854L52.2743 142.569L52.7598 142.551H52.7593ZM54.1158 140.903L54.6138 140.884L55.4233 142.177L55.4548 142.176L56.1638 140.826L56.6623 140.807L55.6743 142.613L55.7173 143.754L55.2803 143.77L55.2373 142.629L54.1158 140.903ZM59.4888 143.613L59.0233 143.63L59.9598 140.684L60.4663 140.665L61.6223 143.533L61.1568 143.55L60.2453 141.202L60.2223 141.203L59.4888 143.613ZM59.5238 142.472L61.0343 142.415L61.0483 142.784L59.5378 142.841L59.5238 142.472ZM62.3853 140.593L63.2843 142.931L63.3168 142.93L64.0363 140.532L64.5103 140.514L63.5743 143.46L63.0673 143.479L61.9113 140.611L62.3853 140.593ZM65.5398 143.387L65.4298 140.48L67.2523 140.411L67.2668 140.789L65.8828 140.841L65.9163 141.726L67.2053 141.678L67.2193 142.054L65.9303 142.103L65.9643 142.993L67.3653 142.94L67.3793 143.318L65.5398 143.387ZM68.4478 143.278L68.3383 140.371L69.3743 140.332C69.5993 140.324 69.7878 140.356 69.9393 140.428C70.0908 140.5 70.2073 140.603 70.2863 140.737C70.368 140.88 70.4124 141.041 70.4153 141.206C70.4218 141.384 70.3903 141.542 70.3208 141.68C70.2513 141.818 70.1443 141.926 69.9978 142.006C69.8513 142.087 69.6663 142.131 69.4413 142.139L68.6563 142.168L68.6418 141.791L69.3873 141.763C69.5293 141.758 69.6438 141.733 69.7313 141.689C69.8188 141.645 69.8828 141.583 69.9218 141.504C69.9608 141.425 69.9778 141.331 69.9738 141.222C69.9698 141.113 69.9448 141.018 69.8988 140.939C69.8528 140.859 69.7809 140.797 69.6948 140.762C69.6043 140.722 69.4863 140.705 69.3418 140.71L68.7908 140.731L68.8863 143.261L68.4478 143.278ZM69.8333 141.913L70.6013 143.197L70.1018 143.216L69.3478 141.931L69.8333 141.913ZM71.7693 143.154L71.3038 143.171L72.2403 140.225L72.7468 140.206L73.9028 143.074L73.4373 143.091L72.5258 140.743L72.5028 140.744L71.7693 143.154ZM71.8043 142.012L73.3148 141.956L73.3288 142.325L71.8183 142.381L71.8043 142.012ZM76.5778 140.982C76.5473 140.897 76.5073 140.822 76.4583 140.755C76.4119 140.69 76.3546 140.632 76.2888 140.585C76.2217 140.538 76.1467 140.503 76.0673 140.481C75.9803 140.458 75.8903 140.449 75.8003 140.453C75.6368 140.459 75.4908 140.507 75.3623 140.596C75.2283 140.692 75.1246 140.825 75.0638 140.978C74.9943 141.143 74.9638 141.342 74.9728 141.577C74.9818 141.811 75.0278 142.01 75.1103 142.17C75.1928 142.33 75.3028 142.45 75.4393 142.529C75.5791 142.609 75.739 142.647 75.8998 142.638C76.0578 142.632 76.1943 142.595 76.3093 142.526C76.4231 142.46 76.5147 142.362 76.5728 142.243C76.6338 142.123 76.6613 141.982 76.6553 141.823L76.7698 141.84L75.9378 141.871L75.9243 141.509L77.0668 141.466L77.0793 141.797C77.0883 142.041 77.0443 142.255 76.9473 142.438C76.8537 142.619 76.7104 142.768 76.5343 142.869C76.3563 142.973 76.1498 143.03 75.9153 143.039C75.6518 143.048 75.4188 142.996 75.2153 142.883C75.0118 142.769 74.8523 142.603 74.7333 142.385C74.6143 142.166 74.5488 141.903 74.5373 141.596C74.5283 141.364 74.5528 141.155 74.6103 140.968C74.6613 140.792 74.7474 140.629 74.8633 140.488C74.9732 140.356 75.1103 140.25 75.2653 140.176C75.4218 140.101 75.5938 140.06 75.7823 140.053C75.9393 140.047 76.0863 140.065 76.2238 140.106C76.3572 140.145 76.4826 140.207 76.5943 140.29C76.7048 140.371 76.7968 140.469 76.8713 140.583C76.9458 140.698 76.9978 140.825 77.0278 140.966L76.5778 140.982ZM78.1793 142.914L78.0693 140.007L79.8923 139.939L79.9063 140.316L78.5223 140.368L78.5558 141.254L79.8448 141.206L79.8588 141.582L78.5703 141.63L78.6038 142.52L80.0048 142.468L80.0188 142.845L78.1793 142.914Z" fill="#8BABE1"/>
<path d="M346.867 166.27V105.688L346.292 105.776L335.542 107.423C324.79 109.07 303.325 112.357 281.867 112.357C271.14 112.357 260.409 111.536 249.655 110.712L249.646 110.711C238.902 109.888 228.136 109.064 217.367 109.064C195.829 109.064 174.298 112.362 152.811 115.654L152.792 115.657C131.283 118.951 109.831 122.236 88.3862 121.415C66.9392 120.594 45.4817 115.664 34.7292 113.193L23.3672 110.583V166.27H346.867Z" fill="url(#paint0_linear_481_14299)" fill-opacity="0.05" stroke="#8BABE1"/>
</g>
<path d="M26.0832 23.7119C26.0145 23.4964 25.9222 23.3035 25.8062 23.133C25.6926 22.9602 25.5564 22.8134 25.3978 22.6927C25.2392 22.5696 25.0581 22.4761 24.8545 22.4122C24.6533 22.3482 24.4319 22.3163 24.1904 22.3163C23.7809 22.3163 23.4115 22.4216 23.0825 22.6323C22.7534 22.843 22.493 23.152 22.3012 23.5592C22.1118 23.964 22.0171 24.46 22.0171 25.0471C22.0171 25.6366 22.113 26.1349 22.3048 26.5421C22.4965 26.9493 22.7593 27.2583 23.0931 27.469C23.4269 27.6797 23.8069 27.785 24.233 27.785C24.6284 27.785 24.9729 27.7045 25.2664 27.5435C25.5624 27.3826 25.7908 27.1553 25.9518 26.8617C26.1151 26.5658 26.1968 26.2178 26.1968 25.8177L26.4809 25.871H24.3999V24.9654H27.2586V25.7928C27.2586 26.4036 27.1284 26.9339 26.868 27.3837C26.6099 27.8312 26.2525 28.1768 25.7955 28.4207C25.341 28.6645 24.8202 28.7864 24.233 28.7864C23.5749 28.7864 22.9972 28.6349 22.5001 28.3319C22.0053 28.0289 21.6194 27.5992 21.3424 27.0428C21.0654 26.4841 20.9269 25.8212 20.9269 25.0542C20.9269 24.4742 21.0074 23.9533 21.1684 23.4917C21.3294 23.0301 21.5555 22.6382 21.8467 22.3163C22.1402 21.9919 22.4847 21.7445 22.8801 21.5741C23.2778 21.4013 23.7122 21.3149 24.1833 21.3149C24.5763 21.3149 24.9421 21.3729 25.2806 21.4889C25.6215 21.6049 25.9246 21.7694 26.1897 21.9825C26.4572 22.1955 26.6786 22.4488 26.8538 22.7424C27.029 23.0336 27.1473 23.3568 27.2089 23.7119H26.0832ZM29.6281 21.4143V28.687H28.5663V21.4143H29.6281ZM33.3541 28.7971C32.8428 28.7971 32.3965 28.6799 32.0154 28.4455C31.6342 28.2112 31.3383 27.8833 31.1276 27.4619C30.9169 27.0405 30.8115 26.548 30.8115 25.9846C30.8115 25.4188 30.9169 24.924 31.1276 24.5002C31.3383 24.0765 31.6342 23.7474 32.0154 23.513C32.3965 23.2786 32.8428 23.1614 33.3541 23.1614C33.8655 23.1614 34.3118 23.2786 34.6929 23.513C35.0741 23.7474 35.37 24.0765 35.5807 24.5002C35.7914 24.924 35.8968 25.4188 35.8968 25.9846C35.8968 26.548 35.7914 27.0405 35.5807 27.4619C35.37 27.8833 35.0741 28.2112 34.6929 28.4455C34.3118 28.6799 33.8655 28.7971 33.3541 28.7971ZM33.3577 27.9058C33.6891 27.9058 33.9637 27.8182 34.1816 27.643C34.3994 27.4678 34.5603 27.2346 34.6645 26.9434C34.771 26.6522 34.8243 26.3314 34.8243 25.981C34.8243 25.633 34.771 25.3134 34.6645 25.0222C34.5603 24.7287 34.3994 24.4931 34.1816 24.3156C33.9637 24.138 33.6891 24.0492 33.3577 24.0492C33.0239 24.0492 32.7469 24.138 32.5267 24.3156C32.3089 24.4931 32.1468 24.7287 32.0402 25.0222C31.9361 25.3134 31.884 25.633 31.884 25.981C31.884 26.3314 31.9361 26.6522 32.0402 26.9434C32.1468 27.2346 32.3089 27.4678 32.5267 27.643C32.7469 27.8182 33.0239 27.9058 33.3577 27.9058ZM37.1672 28.687V21.4143H38.229V24.1167H38.2929C38.3544 24.0031 38.4432 23.8717 38.5592 23.7225C38.6752 23.5734 38.8362 23.4432 39.0422 23.3319C39.2481 23.2183 39.5204 23.1614 39.8589 23.1614C40.2993 23.1614 40.6923 23.2727 41.0379 23.4953C41.3836 23.7178 41.6546 24.0386 41.8511 24.4576C42.05 24.8766 42.1494 25.3809 42.1494 25.9704C42.1494 26.5599 42.0512 27.0653 41.8547 27.4867C41.6582 27.9058 41.3883 28.2289 41.045 28.4562C40.7017 28.6811 40.3099 28.7935 39.8696 28.7935C39.5381 28.7935 39.2671 28.7379 39.0564 28.6266C38.848 28.5154 38.6847 28.3852 38.5663 28.236C38.4479 28.0869 38.3568 27.9543 38.2929 27.8383H38.2041V28.687H37.1672ZM38.2077 25.9597C38.2077 26.3433 38.2633 26.6794 38.3746 26.9683C38.4858 27.2571 38.6468 27.4832 38.8575 27.6465C39.0682 27.8075 39.3263 27.888 39.6317 27.888C39.9489 27.888 40.214 27.804 40.4271 27.6359C40.6402 27.4654 40.8012 27.2346 40.9101 26.9434C41.0213 26.6522 41.077 26.3243 41.077 25.9597C41.077 25.5999 41.0225 25.2767 40.9136 24.9903C40.8071 24.7038 40.6461 24.4777 40.4307 24.312C40.2176 24.1463 39.9513 24.0634 39.6317 24.0634C39.3239 24.0634 39.0635 24.1427 38.8504 24.3014C38.6397 24.46 38.4799 24.6813 38.371 24.9654C38.2621 25.2495 38.2077 25.581 38.2077 25.9597ZM44.9291 28.8078C44.5834 28.8078 44.2709 28.7438 43.9916 28.616C43.7122 28.4858 43.4909 28.2976 43.3275 28.0514C43.1665 27.8051 43.086 27.5033 43.086 27.1458C43.086 26.8381 43.1452 26.5847 43.2636 26.3859C43.382 26.187 43.5418 26.0296 43.743 25.9136C43.9442 25.7976 44.1691 25.71 44.4177 25.6508C44.6663 25.5916 44.9196 25.5466 45.1776 25.5158C45.5044 25.478 45.7695 25.4472 45.9731 25.4235C46.1767 25.3975 46.3247 25.356 46.417 25.2992C46.5093 25.2424 46.5555 25.1501 46.5555 25.0222V24.9974C46.5555 24.6872 46.4679 24.447 46.2927 24.2765C46.1199 24.106 45.8618 24.0208 45.5186 24.0208C45.1611 24.0208 44.8794 24.1001 44.6734 24.2587C44.4698 24.415 44.3289 24.589 44.2508 24.7808L43.2529 24.5535C43.3713 24.222 43.5441 23.9545 43.7714 23.7509C44.001 23.545 44.265 23.3958 44.5633 23.3035C44.8616 23.2088 45.1753 23.1614 45.5044 23.1614C45.7222 23.1614 45.953 23.1875 46.1968 23.2396C46.443 23.2893 46.6727 23.3816 46.8857 23.5166C47.1012 23.6515 47.2776 23.8444 47.4149 24.0954C47.5522 24.344 47.6208 24.6671 47.6208 25.0649V28.687H46.5839V27.9413H46.5413C46.4726 28.0786 46.3696 28.2135 46.2323 28.3461C46.095 28.4787 45.9186 28.5888 45.7032 28.6764C45.4878 28.764 45.2297 28.8078 44.9291 28.8078ZM45.1599 27.9555C45.4535 27.9555 45.7044 27.8975 45.9127 27.7815C46.1234 27.6655 46.2832 27.514 46.3921 27.3269C46.5034 27.1375 46.559 26.9351 46.559 26.7197V26.0166C46.5212 26.0544 46.4478 26.0899 46.3389 26.1231C46.2323 26.1539 46.1104 26.1811 45.9731 26.2048C45.8358 26.2261 45.702 26.2462 45.5718 26.2651C45.4416 26.2817 45.3327 26.2959 45.2451 26.3078C45.0392 26.3338 44.8509 26.3776 44.6805 26.4391C44.5124 26.5007 44.3775 26.5895 44.2757 26.7055C44.1762 26.8191 44.1265 26.9706 44.1265 27.16C44.1265 27.4228 44.2236 27.6217 44.4177 27.7566C44.6118 27.8892 44.8592 27.9555 45.1599 27.9555ZM50.0969 21.4143V28.687H49.0351V21.4143H50.0969ZM54.257 28.687V21.4143H56.9204C57.4365 21.4143 57.8638 21.4995 58.2023 21.67C58.5409 21.8381 58.7942 22.0665 58.9623 22.3553C59.1304 22.6418 59.2144 22.9649 59.2144 23.3248C59.2144 23.6278 59.1588 23.8835 59.0475 24.0918C58.9362 24.2978 58.7871 24.4635 58.6001 24.589C58.4154 24.7121 58.2118 24.8021 57.9893 24.8589V24.9299C58.2307 24.9417 58.4663 25.0199 58.6959 25.1643C58.9279 25.3063 59.1197 25.5087 59.2712 25.7715C59.4227 26.0343 59.4985 26.3539 59.4985 26.7303C59.4985 27.102 59.4109 27.4358 59.2357 27.7318C59.0629 28.0253 58.7954 28.2585 58.4331 28.4313C58.0709 28.6018 57.6081 28.687 57.0447 28.687H54.257ZM55.3543 27.746H56.9381C57.4637 27.746 57.8401 27.6442 58.0674 27.4406C58.2947 27.237 58.4083 26.9825 58.4083 26.6771C58.4083 26.4474 58.3503 26.2367 58.2343 26.045C58.1183 25.8532 57.9526 25.7005 57.7371 25.5869C57.5241 25.4732 57.2707 25.4164 56.9772 25.4164H55.3543V27.746ZM55.3543 24.5606H56.8245C57.0707 24.5606 57.2921 24.5132 57.4885 24.4185C57.6874 24.3238 57.8448 24.1913 57.9608 24.0208C58.0792 23.848 58.1384 23.6444 58.1384 23.41C58.1384 23.1094 58.0331 22.8572 57.8224 22.6536C57.6117 22.45 57.2885 22.3482 56.8529 22.3482H55.3543V24.5606ZM62.3021 28.8078C61.9565 28.8078 61.644 28.7438 61.3646 28.616C61.0853 28.4858 60.8639 28.2976 60.7006 28.0514C60.5396 27.8051 60.4591 27.5033 60.4591 27.1458C60.4591 26.8381 60.5183 26.5847 60.6366 26.3859C60.755 26.187 60.9148 26.0296 61.116 25.9136C61.3173 25.7976 61.5422 25.71 61.7907 25.6508C62.0393 25.5916 62.2926 25.5466 62.5507 25.5158C62.8774 25.478 63.1425 25.4472 63.3461 25.4235C63.5497 25.3975 63.6977 25.356 63.79 25.2992C63.8824 25.2424 63.9285 25.1501 63.9285 25.0222V24.9974C63.9285 24.6872 63.8409 24.447 63.6657 24.2765C63.4929 24.106 63.2349 24.0208 62.8916 24.0208C62.5341 24.0208 62.2524 24.1001 62.0464 24.2587C61.8428 24.415 61.702 24.589 61.6238 24.7808L60.626 24.5535C60.7443 24.222 60.9172 23.9545 61.1444 23.7509C61.3741 23.545 61.6381 23.3958 61.9363 23.3035C62.2346 23.2088 62.5483 23.1614 62.8774 23.1614C63.0952 23.1614 63.326 23.1875 63.5699 23.2396C63.8161 23.2893 64.0457 23.3816 64.2588 23.5166C64.4742 23.6515 64.6506 23.8444 64.7879 24.0954C64.9252 24.344 64.9939 24.6671 64.9939 25.0649V28.687H63.9569V27.9413H63.9143C63.8457 28.0786 63.7427 28.2135 63.6054 28.3461C63.4681 28.4787 63.2917 28.5888 63.0763 28.6764C62.8608 28.764 62.6028 28.8078 62.3021 28.8078ZM62.5329 27.9555C62.8265 27.9555 63.0774 27.8975 63.2858 27.7815C63.4965 27.6655 63.6563 27.514 63.7652 27.3269C63.8765 27.1375 63.9321 26.9351 63.9321 26.7197V26.0166C63.8942 26.0544 63.8208 26.0899 63.7119 26.1231C63.6054 26.1539 63.4835 26.1811 63.3461 26.2048C63.2088 26.2261 63.0751 26.2462 62.9449 26.2651C62.8147 26.2817 62.7058 26.2959 62.6182 26.3078C62.4122 26.3338 62.224 26.3776 62.0535 26.4391C61.8854 26.5007 61.7505 26.5895 61.6487 26.7055C61.5493 26.8191 61.4996 26.9706 61.4996 27.16C61.4996 27.4228 61.5966 27.6217 61.7907 27.7566C61.9849 27.8892 62.2323 27.9555 62.5329 27.9555ZM67.4699 25.4484V28.687H66.4081V23.2325H67.4273V24.1203H67.4948C67.6202 23.8314 67.8167 23.5994 68.0843 23.4242C68.3541 23.249 68.6939 23.1614 69.1034 23.1614C69.4751 23.1614 69.8006 23.2396 70.08 23.3958C70.3593 23.5497 70.576 23.7793 70.7298 24.0847C70.8837 24.3901 70.9607 24.7677 70.9607 25.2176V28.687H69.8989V25.3454C69.8989 24.95 69.7959 24.6411 69.5899 24.4185C69.384 24.1936 69.1011 24.0812 68.7412 24.0812C68.495 24.0812 68.276 24.1345 68.0843 24.241C67.8949 24.3475 67.7445 24.5038 67.6333 24.7097C67.5244 24.9133 67.4699 25.1595 67.4699 25.4484ZM73.3612 26.8369L73.3541 25.5407H73.5388L75.7121 23.2325H76.9834L74.5047 25.8603H74.3378L73.3612 26.8369ZM72.3847 28.687V21.4143H73.4465V28.687H72.3847ZM75.8293 28.687L73.8762 26.0947L74.6077 25.3525L77.1325 28.687H75.8293Z" fill="#121619"/>
<path d="M80.9065 25.0506C80.9065 24.1605 81.0237 23.3414 81.2581 22.5933C81.4925 21.8452 81.8345 21.1551 82.2844 20.5229H83.2574C83.0822 20.7573 82.9188 21.045 82.7673 21.3859C82.6158 21.7268 82.4832 22.1008 82.3696 22.508C82.2559 22.9129 82.1672 23.3331 82.1032 23.7687C82.0393 24.2019 82.0074 24.6292 82.0074 25.0506C82.0074 25.6141 82.063 26.1846 82.1743 26.7623C82.2855 27.3399 82.4359 27.8762 82.6253 28.371C82.8147 28.8658 83.0254 29.2694 83.2574 29.5819H82.2844C81.8345 28.9498 81.4925 28.2597 81.2581 27.5116C81.0237 26.7635 80.9065 25.9432 80.9065 25.0506ZM85.0977 21.4143L87.1219 27.3376H87.2036L89.2277 21.4143H90.4138L87.7966 28.687H86.5289L83.9117 21.4143H85.0977ZM93.1828 28.7971C92.6454 28.7971 92.1826 28.6823 91.7943 28.4526C91.4084 28.2206 91.1101 27.8951 90.8994 27.4761C90.6911 27.0547 90.5869 26.5611 90.5869 25.9953C90.5869 25.4365 90.6911 24.9441 90.8994 24.518C91.1101 24.0918 91.4037 23.7592 91.7801 23.5201C92.1589 23.281 92.6016 23.1614 93.1082 23.1614C93.416 23.1614 93.7143 23.2123 94.0031 23.3141C94.2919 23.4159 94.5512 23.5757 94.7808 23.7935C95.0104 24.0113 95.1916 24.2943 95.3241 24.6423C95.4567 24.9879 95.523 25.4081 95.523 25.9029V26.2793H91.1871V25.4839H94.4825C94.4825 25.2045 94.4257 24.9571 94.3121 24.7417C94.1984 24.5239 94.0386 24.3523 93.8327 24.2268C93.6291 24.1013 93.3899 24.0386 93.1153 24.0386C92.817 24.0386 92.5566 24.112 92.3341 24.2587C92.1139 24.4032 91.9434 24.5926 91.8227 24.8269C91.7043 25.0589 91.6452 25.3111 91.6452 25.5833V26.2048C91.6452 26.5694 91.7091 26.8795 91.8369 27.1352C91.9671 27.3908 92.1482 27.5862 92.3802 27.7211C92.6122 27.8537 92.8833 27.92 93.1934 27.92C93.3947 27.92 93.5782 27.8916 93.7439 27.8347C93.9096 27.7756 94.0528 27.688 94.1736 27.572C94.2943 27.456 94.3866 27.3127 94.4506 27.1423L95.4555 27.3234C95.375 27.6193 95.2306 27.8785 95.0223 28.1011C94.8163 28.3212 94.5571 28.4929 94.2446 28.616C93.9345 28.7367 93.5805 28.7971 93.1828 28.7971ZM97.7629 25.4484V28.687H96.7011V23.2325H97.7203V24.1203H97.7877C97.9132 23.8314 98.1097 23.5994 98.3772 23.4242C98.6471 23.249 98.9868 23.1614 99.3964 23.1614C99.7681 23.1614 100.094 23.2396 100.373 23.3958C100.652 23.5497 100.869 23.7793 101.023 24.0847C101.177 24.3901 101.254 24.7677 101.254 25.2176V28.687H100.192V25.3454C100.192 24.95 100.089 24.6411 99.8829 24.4185C99.6769 24.1936 99.394 24.0812 99.0342 24.0812C98.788 24.0812 98.569 24.1345 98.3772 24.241C98.1878 24.3475 98.0375 24.5038 97.9262 24.7097C97.8173 24.9133 97.7629 25.1595 97.7629 25.4484ZM104.72 28.7935C104.279 28.7935 103.886 28.6811 103.541 28.4562C103.197 28.2289 102.927 27.9058 102.731 27.4867C102.537 27.0653 102.44 26.5599 102.44 25.9704C102.44 25.3809 102.538 24.8766 102.734 24.4576C102.933 24.0386 103.206 23.7178 103.551 23.4953C103.897 23.2727 104.289 23.1614 104.727 23.1614C105.065 23.1614 105.337 23.2183 105.543 23.3319C105.752 23.4432 105.913 23.5734 106.026 23.7225C106.142 23.8717 106.232 24.0031 106.296 24.1167H106.36V21.4143H107.422V28.687H106.385V27.8383H106.296C106.232 27.9543 106.14 28.0869 106.019 28.236C105.901 28.3852 105.738 28.5154 105.529 28.6266C105.321 28.7379 105.051 28.7935 104.72 28.7935ZM104.954 27.888C105.259 27.888 105.517 27.8075 105.728 27.6465C105.941 27.4832 106.102 27.2571 106.211 26.9683C106.322 26.6794 106.378 26.3433 106.378 25.9597C106.378 25.581 106.323 25.2495 106.215 24.9654C106.106 24.6813 105.946 24.46 105.735 24.3014C105.524 24.1427 105.264 24.0634 104.954 24.0634C104.634 24.0634 104.368 24.1463 104.155 24.312C103.942 24.4777 103.781 24.7038 103.672 24.9903C103.565 25.2767 103.512 25.5999 103.512 25.9597C103.512 26.3243 103.567 26.6522 103.676 26.9434C103.784 27.2346 103.945 27.4654 104.158 27.6359C104.374 27.804 104.639 27.888 104.954 27.888ZM111.235 28.7971C110.724 28.7971 110.277 28.6799 109.896 28.4455C109.515 28.2112 109.219 27.8833 109.008 27.4619C108.798 27.0405 108.692 26.548 108.692 25.9846C108.692 25.4188 108.798 24.924 109.008 24.5002C109.219 24.0765 109.515 23.7474 109.896 23.513C110.277 23.2786 110.724 23.1614 111.235 23.1614C111.746 23.1614 112.193 23.2786 112.574 23.513C112.955 23.7474 113.251 24.0765 113.462 24.5002C113.672 24.924 113.778 25.4188 113.778 25.9846C113.778 26.548 113.672 27.0405 113.462 27.4619C113.251 27.8833 112.955 28.2112 112.574 28.4455C112.193 28.6799 111.746 28.7971 111.235 28.7971ZM111.239 27.9058C111.57 27.9058 111.845 27.8182 112.062 27.643C112.28 27.4678 112.441 27.2346 112.545 26.9434C112.652 26.6522 112.705 26.3314 112.705 25.981C112.705 25.633 112.652 25.3134 112.545 25.0222C112.441 24.7287 112.28 24.4931 112.062 24.3156C111.845 24.138 111.57 24.0492 111.239 24.0492C110.905 24.0492 110.628 24.138 110.408 24.3156C110.19 24.4931 110.028 24.7287 109.921 25.0222C109.817 25.3134 109.765 25.633 109.765 25.981C109.765 26.3314 109.817 26.6522 109.921 26.9434C110.028 27.2346 110.19 27.4678 110.408 27.643C110.628 27.8182 110.905 27.9058 111.239 27.9058ZM114.963 28.687V23.2325H115.989V24.0989H116.046C116.145 23.8054 116.321 23.5746 116.571 23.4065C116.825 23.236 117.111 23.1508 117.431 23.1508C117.497 23.1508 117.575 23.1532 117.665 23.1579C117.758 23.1626 117.83 23.1685 117.882 23.1756V24.1913C117.839 24.1794 117.763 24.1664 117.655 24.1522C117.546 24.1356 117.437 24.1274 117.328 24.1274C117.077 24.1274 116.853 24.1806 116.657 24.2872C116.463 24.3913 116.309 24.5369 116.195 24.7239C116.081 24.9086 116.025 25.1193 116.025 25.356V28.687H114.963ZM127.85 25.0506C127.85 25.8272 127.708 26.4948 127.424 27.0535C127.14 27.6098 126.75 28.0383 126.255 28.339C125.763 28.6373 125.203 28.7864 124.576 28.7864C123.946 28.7864 123.384 28.6373 122.889 28.339C122.397 28.0383 122.008 27.6086 121.724 27.0499C121.44 26.4912 121.298 25.8248 121.298 25.0506C121.298 24.2741 121.44 23.6077 121.724 23.0514C122.008 22.4926 122.397 22.0641 122.889 21.7658C123.384 21.4652 123.946 21.3149 124.576 21.3149C125.203 21.3149 125.763 21.4652 126.255 21.7658C126.75 22.0641 127.14 22.4926 127.424 23.0514C127.708 23.6077 127.85 24.2741 127.85 25.0506ZM126.763 25.0506C126.763 24.4588 126.667 23.9604 126.476 23.5556C126.286 23.1484 126.026 22.8407 125.694 22.6323C125.365 22.4216 124.992 22.3163 124.576 22.3163C124.157 22.3163 123.783 22.4216 123.454 22.6323C123.124 22.8407 122.864 23.1484 122.672 23.5556C122.483 23.9604 122.388 24.4588 122.388 25.0506C122.388 25.6425 122.483 26.142 122.672 26.5492C122.864 26.9541 123.124 27.2618 123.454 27.4725C123.783 27.6809 124.157 27.785 124.576 27.785C124.992 27.785 125.365 27.6809 125.694 27.4725C126.026 27.2618 126.286 26.9541 126.476 26.5492C126.667 26.142 126.763 25.6425 126.763 25.0506ZM133.799 23.2325L131.821 28.687H130.685L128.703 23.2325H129.843L131.224 27.4299H131.281L132.659 23.2325H133.799ZM136.962 28.7971C136.425 28.7971 135.962 28.6823 135.574 28.4526C135.188 28.2206 134.889 27.8951 134.679 27.4761C134.47 27.0547 134.366 26.5611 134.366 25.9953C134.366 25.4365 134.47 24.9441 134.679 24.518C134.889 24.0918 135.183 23.7592 135.559 23.5201C135.938 23.281 136.381 23.1614 136.888 23.1614C137.195 23.1614 137.494 23.2123 137.782 23.3141C138.071 23.4159 138.33 23.5757 138.56 23.7935C138.79 24.0113 138.971 24.2943 139.103 24.6423C139.236 24.9879 139.302 25.4081 139.302 25.9029V26.2793H134.966V25.4839H138.262C138.262 25.2045 138.205 24.9571 138.091 24.7417C137.978 24.5239 137.818 24.3523 137.612 24.2268C137.408 24.1013 137.169 24.0386 136.895 24.0386C136.596 24.0386 136.336 24.112 136.113 24.2587C135.893 24.4032 135.723 24.5926 135.602 24.8269C135.484 25.0589 135.424 25.3111 135.424 25.5833V26.2048C135.424 26.5694 135.488 26.8795 135.616 27.1352C135.746 27.3908 135.928 27.5862 136.16 27.7211C136.392 27.8537 136.663 27.92 136.973 27.92C137.174 27.92 137.357 27.8916 137.523 27.8347C137.689 27.7756 137.832 27.688 137.953 27.572C138.074 27.456 138.166 27.3127 138.23 27.1423L139.235 27.3234C139.154 27.6193 139.01 27.8785 138.802 28.1011C138.596 28.3212 138.336 28.4929 138.024 28.616C137.714 28.7367 137.36 28.7971 136.962 28.7971ZM140.48 28.687V23.2325H141.507V24.0989H141.563C141.663 23.8054 141.838 23.5746 142.089 23.4065C142.342 23.236 142.629 23.1508 142.948 23.1508C143.015 23.1508 143.093 23.1532 143.183 23.1579C143.275 23.1626 143.347 23.1685 143.399 23.1756V24.1913C143.357 24.1794 143.281 24.1664 143.172 24.1522C143.063 24.1356 142.954 24.1274 142.845 24.1274C142.594 24.1274 142.371 24.1806 142.174 24.2872C141.98 24.3913 141.826 24.5369 141.713 24.7239C141.599 24.9086 141.542 25.1193 141.542 25.356V28.687H140.48ZM149.15 23.2325L147.172 28.687H146.036L144.055 23.2325H145.195L146.576 27.4299H146.633L148.011 23.2325H149.15ZM150.148 28.687V23.2325H151.21V28.687H150.148ZM150.685 22.3908C150.5 22.3908 150.341 22.3293 150.209 22.2062C150.079 22.0807 150.013 21.9316 150.013 21.7587C150.013 21.5836 150.079 21.4344 150.209 21.3113C150.341 21.1858 150.5 21.1231 150.685 21.1231C150.869 21.1231 151.027 21.1858 151.157 21.3113C151.289 21.4344 151.356 21.5836 151.356 21.7587C151.356 21.9316 151.289 22.0807 151.157 22.2062C151.027 22.3293 150.869 22.3908 150.685 22.3908ZM154.989 28.7971C154.452 28.7971 153.989 28.6823 153.601 28.4526C153.215 28.2206 152.917 27.8951 152.706 27.4761C152.498 27.0547 152.394 26.5611 152.394 25.9953C152.394 25.4365 152.498 24.9441 152.706 24.518C152.917 24.0918 153.21 23.7592 153.587 23.5201C153.966 23.281 154.408 23.1614 154.915 23.1614C155.223 23.1614 155.521 23.2123 155.81 23.3141C156.099 23.4159 156.358 23.5757 156.587 23.7935C156.817 24.0113 156.998 24.2943 157.131 24.6423C157.263 24.9879 157.33 25.4081 157.33 25.9029V26.2793H152.994V25.4839H156.289C156.289 25.2045 156.232 24.9571 156.119 24.7417C156.005 24.5239 155.845 24.3523 155.639 24.2268C155.436 24.1013 155.197 24.0386 154.922 24.0386C154.624 24.0386 154.363 24.112 154.141 24.2587C153.921 24.4032 153.75 24.5926 153.629 24.8269C153.511 25.0589 153.452 25.3111 153.452 25.5833V26.2048C153.452 26.5694 153.516 26.8795 153.644 27.1352C153.774 27.3908 153.955 27.5862 154.187 27.7211C154.419 27.8537 154.69 27.92 155 27.92C155.201 27.92 155.385 27.8916 155.551 27.8347C155.716 27.7756 155.859 27.688 155.98 27.572C156.101 27.456 156.193 27.3127 156.257 27.1423L157.262 27.3234C157.182 27.6193 157.037 27.8785 156.829 28.1011C156.623 28.3212 156.364 28.4929 156.051 28.616C155.741 28.7367 155.387 28.7971 154.989 28.7971ZM159.68 28.687L158.075 23.2325H159.173L160.242 27.2381H160.295L161.367 23.2325H162.465L163.53 27.2204H163.583L164.645 23.2325H165.742L164.141 28.687H163.058L161.95 24.7488H161.868L160.76 28.687H159.68ZM168.792 25.6685C168.792 26.5611 168.675 27.3814 168.44 28.1295C168.206 28.8776 167.864 29.5677 167.414 30.1998H166.441C166.616 29.9654 166.78 29.6778 166.931 29.3369C167.083 28.996 167.215 28.6231 167.329 28.2183C167.442 27.8111 167.531 27.3897 167.595 26.9541C167.659 26.5185 167.691 26.0899 167.691 25.6685C167.691 25.1075 167.635 24.5381 167.524 23.9604C167.413 23.3828 167.262 22.8466 167.073 22.3518C166.884 21.857 166.673 21.4533 166.441 21.1408H167.414C167.864 21.7729 168.206 22.4631 168.44 23.2112C168.675 23.9593 168.792 24.7784 168.792 25.6685Z" fill="#878D96"/>
<path d="M24.6291 52.1563C24.6291 52.5672 24.554 52.9205 24.4036 53.2161C24.2533 53.5106 24.0472 53.7373 23.7854 53.8964C23.5248 54.0543 23.2285 54.1332 22.8965 54.1332C22.5633 54.1332 22.2658 54.0543 22.0039 53.8964C21.7434 53.7373 21.5379 53.5099 21.3876 53.2143C21.2372 52.9186 21.1621 52.566 21.1621 52.1563C21.1621 51.7454 21.2372 51.3927 21.3876 51.0983C21.5379 50.8027 21.7434 50.5759 22.0039 50.4181C22.2658 50.259 22.5633 50.1794 22.8965 50.1794C23.2285 50.1794 23.5248 50.259 23.7854 50.4181C24.0472 50.5759 24.2533 50.8027 24.4036 51.0983C24.554 51.3927 24.6291 51.7454 24.6291 52.1563ZM24.0541 52.1563C24.0541 51.8431 24.0034 51.5794 23.9019 51.3652C23.8017 51.1497 23.6639 50.9868 23.4885 50.8766C23.3143 50.7651 23.117 50.7093 22.8965 50.7093C22.6748 50.7093 22.4769 50.7651 22.3027 50.8766C22.1286 50.9868 21.9908 51.1497 21.8893 51.3652C21.7891 51.5794 21.739 51.8431 21.739 52.1563C21.739 52.4695 21.7891 52.7338 21.8893 52.9493C21.9908 53.1635 22.1286 53.3264 22.3027 53.4379C22.4769 53.5481 22.6748 53.6033 22.8965 53.6033C23.117 53.6033 23.3143 53.5481 23.4885 53.4379C23.6639 53.3264 23.8017 53.1635 23.9019 52.9493C24.0034 52.7338 24.0541 52.4695 24.0541 52.1563ZM25.9392 50.232L27.0104 53.3665H27.0536L28.1247 50.232H28.7524L27.3674 54.0806H26.6965L25.3116 50.232H25.9392ZM29.7491 54.0806V50.232H32.1619V50.7319H30.3298V51.9045H32.036V52.4025H30.3298V53.5807H32.1845V54.0806H29.7491ZM33.3786 54.0806V50.232H34.7503C35.0485 50.232 35.2959 50.2834 35.4926 50.3861C35.6906 50.4888 35.8384 50.631 35.9361 50.8127C36.0338 50.9931 36.0827 51.2017 36.0827 51.4385C36.0827 51.674 36.0332 51.8813 35.9342 52.0605C35.8365 52.2384 35.6887 52.3768 35.4907 52.4758C35.2941 52.5747 35.0466 52.6242 34.7485 52.6242H33.7093V52.1244H34.6959C34.8838 52.1244 35.0366 52.0974 35.1544 52.0435C35.2734 51.9897 35.3605 51.9114 35.4156 51.8086C35.4707 51.7059 35.4983 51.5825 35.4983 51.4385C35.4983 51.2931 35.4701 51.1672 35.4137 51.0607C35.3586 50.9543 35.2715 50.8728 35.1525 50.8164C35.0347 50.7588 34.88 50.73 34.6883 50.73H33.9592V54.0806H33.3786ZM35.2784 52.3442L36.2293 54.0806H35.5678L34.6357 52.3442H35.2784ZM37.5553 54.0806H36.939L38.3239 50.232H38.9948L40.3797 54.0806H39.7633L38.6753 50.9311H38.6452L37.5553 54.0806ZM37.6587 52.5735H39.6581V53.0621H37.6587V52.5735ZM41.3765 54.0806V50.232H41.9571V53.5807H43.701V54.0806H41.3765ZM44.8044 54.0806V50.232H45.385V53.5807H47.1289V54.0806H44.8044ZM53.2702 51.4836H52.6839C52.6613 51.3583 52.6194 51.248 52.558 51.1528C52.4966 51.0576 52.4214 50.9768 52.3325 50.9104C52.2435 50.844 52.1439 50.7939 52.0337 50.7601C51.9247 50.7262 51.8088 50.7093 51.6861 50.7093C51.4643 50.7093 51.2657 50.7651 51.0904 50.8766C50.9162 50.9881 50.7784 51.1516 50.6769 51.367C50.5767 51.5825 50.5266 51.8456 50.5266 52.1563C50.5266 52.4695 50.5767 52.7338 50.6769 52.9493C50.7784 53.1648 50.9168 53.3276 51.0922 53.4379C51.2676 53.5481 51.4649 53.6033 51.6842 53.6033C51.8057 53.6033 51.921 53.587 52.0299 53.5544C52.1402 53.5206 52.2398 53.4711 52.3287 53.4059C52.4177 53.3408 52.4928 53.2612 52.5542 53.1673C52.6169 53.0721 52.6601 52.9631 52.6839 52.8403L53.2702 52.8422C53.2389 53.0314 53.1781 53.2055 53.0879 53.3646C52.999 53.5225 52.8843 53.659 52.744 53.7743C52.605 53.8883 52.4459 53.9766 52.2667 54.0392C52.0876 54.1019 51.8921 54.1332 51.6804 54.1332C51.3472 54.1332 51.0503 54.0543 50.7897 53.8964C50.5291 53.7373 50.3237 53.5099 50.1733 53.2143C50.0242 52.9186 49.9497 52.566 49.9497 52.1563C49.9497 51.7454 50.0249 51.3927 50.1752 51.0983C50.3255 50.8027 50.531 50.5759 50.7916 50.4181C51.0521 50.259 51.3484 50.1794 51.6804 50.1794C51.8846 50.1794 52.075 50.2088 52.2517 50.2677C52.4296 50.3254 52.5893 50.4105 52.7309 50.5233C52.8724 50.6348 52.9896 50.7713 53.0823 50.933C53.175 51.0933 53.2376 51.2768 53.2702 51.4836ZM54.1091 50.232H54.7687L55.774 51.9815H55.8154L56.8207 50.232H57.4803L56.0841 52.5697V54.0806H55.5053V52.5697L54.1091 50.232ZM58.4695 54.0806V50.232H59.8789C60.152 50.232 60.3782 50.2771 60.5573 50.3673C60.7365 50.4563 60.8705 50.5772 60.9594 50.73C61.0484 50.8816 61.0929 51.0526 61.0929 51.243C61.0929 51.4034 61.0634 51.5387 61.0045 51.6489C60.9457 51.7579 60.8667 51.8456 60.7678 51.912C60.6701 51.9771 60.5623 52.0248 60.4446 52.0548V52.0924C60.5723 52.0987 60.697 52.14 60.8185 52.2164C60.9413 52.2916 61.0428 52.3987 61.1229 52.5378C61.2031 52.6768 61.2432 52.846 61.2432 53.0451C61.2432 53.2418 61.1968 53.4185 61.1041 53.5751C61.0127 53.7304 60.8711 53.8538 60.6795 53.9453C60.4878 54.0355 60.2429 54.0806 59.9447 54.0806H58.4695ZM59.0502 53.5826H59.8883C60.1664 53.5826 60.3656 53.5287 60.4859 53.421C60.6062 53.3132 60.6663 53.1786 60.6663 53.017C60.6663 52.8954 60.6356 52.7839 60.5742 52.6825C60.5128 52.581 60.4251 52.5002 60.3111 52.4401C60.1984 52.3799 60.0643 52.3499 59.909 52.3499H59.0502V53.5826ZM59.0502 51.897H59.8282C59.9585 51.897 60.0756 51.8719 60.1796 51.8218C60.2848 51.7717 60.3681 51.7015 60.4295 51.6113C60.4922 51.5199 60.5235 51.4121 60.5235 51.2881C60.5235 51.129 60.4677 50.9956 60.3562 50.8879C60.2447 50.7801 60.0737 50.7262 59.8432 50.7262H59.0502V51.897ZM62.3729 54.0806V50.232H64.7857V50.7319H62.9536V51.9045H64.6598V52.4025H62.9536V53.5807H64.8083V54.0806H62.3729ZM66.0024 54.0806V50.232H67.3742C67.6723 50.232 67.9197 50.2834 68.1164 50.3861C68.3144 50.4888 68.4622 50.631 68.5599 50.8127C68.6576 50.9931 68.7065 51.2017 68.7065 51.4385C68.7065 51.674 68.657 51.8813 68.558 52.0605C68.4603 52.2384 68.3125 52.3768 68.1145 52.4758C67.9179 52.5747 67.6704 52.6242 67.3723 52.6242H66.3331V52.1244H67.3197C67.5076 52.1244 67.6604 52.0974 67.7782 52.0435C67.8972 51.9897 67.9843 51.9114 68.0394 51.8086C68.0945 51.7059 68.1221 51.5825 68.1221 51.4385C68.1221 51.2931 68.0939 51.1672 68.0375 51.0607C67.9824 50.9543 67.8953 50.8728 67.7763 50.8164C67.6585 50.7588 67.5038 50.73 67.3121 50.73H66.583V54.0806H66.0024ZM67.9022 52.3442L68.8531 54.0806H68.1916L67.2595 52.3442H67.9022ZM71.9531 51.243C71.933 51.0651 71.8503 50.9273 71.705 50.8296C71.5597 50.7306 71.3768 50.6811 71.1563 50.6811C70.9984 50.6811 70.8619 50.7062 70.7466 50.7563C70.6314 50.8052 70.5418 50.8728 70.4779 50.9593C70.4153 51.0445 70.384 51.1415 70.384 51.2505C70.384 51.342 70.4052 51.4209 70.4478 51.4873C70.4917 51.5537 70.5487 51.6095 70.6188 51.6546C70.6903 51.6984 70.7667 51.7354 70.8481 51.7654C70.9295 51.7942 71.0078 51.818 71.083 51.8368L71.4588 51.9346C71.5816 51.9646 71.7075 52.0053 71.8366 52.0567C71.9656 52.1081 72.0852 52.1757 72.1955 52.2597C72.3057 52.3436 72.3947 52.4476 72.4623 52.5716C72.5312 52.6956 72.5657 52.8441 72.5657 53.017C72.5657 53.2349 72.5093 53.4285 72.3965 53.5976C72.285 53.7667 72.1228 53.9002 71.9098 53.9979C71.6981 54.0956 71.4419 54.1445 71.1413 54.1445C70.8531 54.1445 70.6038 54.0987 70.3933 54.0073C70.1829 53.9158 70.0181 53.7862 69.8991 53.6183C69.7801 53.4492 69.7143 53.2487 69.7018 53.017H70.2844C70.2956 53.156 70.3407 53.2719 70.4197 53.3646C70.4998 53.4561 70.6019 53.5243 70.726 53.5694C70.8512 53.6133 70.9884 53.6352 71.1375 53.6352C71.3016 53.6352 71.4476 53.6095 71.5753 53.5582C71.7044 53.5055 71.8059 53.4329 71.8798 53.3402C71.9537 53.2462 71.9906 53.1366 71.9906 53.0113C71.9906 52.8973 71.9581 52.804 71.8929 52.7313C71.829 52.6587 71.742 52.5985 71.6317 52.5509C71.5227 52.5033 71.3993 52.4613 71.2615 52.425L70.8068 52.301C70.4986 52.2171 70.2543 52.0937 70.0739 51.9308C69.8947 51.7679 69.8052 51.5525 69.8052 51.2844C69.8052 51.0626 69.8653 50.8691 69.9856 50.7037C70.1058 50.5383 70.2687 50.4099 70.4742 50.3185C70.6796 50.2258 70.9114 50.1794 71.1694 50.1794C71.43 50.1794 71.6599 50.2251 71.8591 50.3166C72.0595 50.408 72.2174 50.5339 72.3327 50.6943C72.4479 50.8534 72.508 51.0363 72.5131 51.243H71.9531ZM73.7005 54.0806V50.232H76.1134V50.7319H74.2812V51.9045H75.9875V52.4025H74.2812V53.5807H76.1359V54.0806H73.7005ZM80.5265 51.4836H79.9402C79.9176 51.3583 79.8756 51.248 79.8143 51.1528C79.7529 51.0576 79.6777 50.9768 79.5888 50.9104C79.4998 50.844 79.4002 50.7939 79.29 50.7601C79.181 50.7262 79.0651 50.7093 78.9423 50.7093C78.7206 50.7093 78.522 50.7651 78.3466 50.8766C78.1725 50.9881 78.0347 51.1516 77.9332 51.367C77.833 51.5825 77.7829 51.8456 77.7829 52.1563C77.7829 52.4695 77.833 52.7338 77.9332 52.9493C78.0347 53.1648 78.1731 53.3276 78.3485 53.4379C78.5239 53.5481 78.7212 53.6033 78.9404 53.6033C79.062 53.6033 79.1772 53.587 79.2862 53.5544C79.3965 53.5206 79.4961 53.4711 79.585 53.4059C79.6739 53.3408 79.7491 53.2612 79.8105 53.1673C79.8731 53.0721 79.9164 52.9631 79.9402 52.8403L80.5265 52.8422C80.4951 53.0314 80.4344 53.2055 80.3442 53.3646C80.2552 53.5225 80.1406 53.659 80.0003 53.7743C79.8612 53.8883 79.7021 53.9766 79.523 54.0392C79.3438 54.1019 79.1484 54.1332 78.9367 54.1332C78.6034 54.1332 78.3065 54.0543 78.046 53.8964C77.7854 53.7373 77.5799 53.5099 77.4296 53.2143C77.2805 52.9186 77.206 52.566 77.206 52.1563C77.206 51.7454 77.2811 51.3927 77.4315 51.0983C77.5818 50.8027 77.7873 50.5759 78.0478 50.4181C78.3084 50.259 78.6047 50.1794 78.9367 50.1794C79.1409 50.1794 79.3313 50.2088 79.508 50.2677C79.6858 50.3254 79.8456 50.4105 79.9871 50.5233C80.1287 50.6348 80.2458 50.7713 80.3385 50.933C80.4313 51.0933 80.4939 51.2768 80.5265 51.4836ZM84.1371 50.232H84.7197V52.7633C84.7197 53.0326 84.6564 53.2713 84.5299 53.4792C84.4033 53.6859 84.2254 53.8488 83.9962 53.9678C83.7669 54.0856 83.4982 54.1445 83.19 54.1445C82.8831 54.1445 82.615 54.0856 82.3857 53.9678C82.1565 53.8488 81.9786 53.6859 81.8521 53.4792C81.7255 53.2713 81.6623 53.0326 81.6623 52.7633V50.232H82.2429V52.7163C82.2429 52.8904 82.2811 53.0451 82.3576 53.1804C82.4352 53.3157 82.5448 53.4222 82.6864 53.4999C82.828 53.5763 82.9958 53.6145 83.19 53.6145C83.3855 53.6145 83.554 53.5763 83.6955 53.4999C83.8383 53.4222 83.9473 53.3157 84.0225 53.1804C84.0989 53.0451 84.1371 52.8904 84.1371 52.7163V50.232ZM86.0049 54.0806V50.232H87.3767C87.6748 50.232 87.9222 50.2834 88.1189 50.3861C88.3169 50.4888 88.4647 50.631 88.5624 50.8127C88.6601 50.9931 88.709 51.2017 88.709 51.4385C88.709 51.674 88.6595 51.8813 88.5605 52.0605C88.4628 52.2384 88.315 52.3768 88.1171 52.4758C87.9204 52.5747 87.6729 52.6242 87.3748 52.6242H86.3356V52.1244H87.3222C87.5101 52.1244 87.6629 52.0974 87.7807 52.0435C87.8997 51.9897 87.9868 51.9114 88.0419 51.8086C88.097 51.7059 88.1246 51.5825 88.1246 51.4385C88.1246 51.2931 88.0964 51.1672 88.04 51.0607C87.9849 50.9543 87.8978 50.8728 87.7788 50.8164C87.661 50.7588 87.5063 50.73 87.3146 50.73H86.5855V54.0806H86.0049ZM87.9047 52.3442L88.8556 54.0806H88.1941L87.262 52.3442H87.9047ZM90.4372 50.232V54.0806H89.8565V50.232H90.4372ZM91.534 50.7319V50.232H94.5125V50.7319H93.3117V54.0806H92.7329V50.7319H91.534ZM95.3147 50.232H95.9743L96.9797 51.9815H97.021L98.0264 50.232H98.686L97.2898 52.5697V54.0806H96.711V52.5697L95.3147 50.232ZM101.517 54.0806V50.232H102.888C103.187 50.232 103.434 50.2834 103.631 50.3861C103.829 50.4888 103.976 50.631 104.074 50.8127C104.172 50.9931 104.221 51.2017 104.221 51.4385C104.221 51.674 104.171 51.8813 104.072 52.0605C103.975 52.2384 103.827 52.3768 103.629 52.4758C103.432 52.5747 103.185 52.6242 102.887 52.6242H101.847V52.1244H102.834C103.022 52.1244 103.175 52.0974 103.292 52.0435C103.411 51.9897 103.499 51.9114 103.554 51.8086C103.609 51.7059 103.636 51.5825 103.636 51.4385C103.636 51.2931 103.608 51.1672 103.552 51.0607C103.497 50.9543 103.41 50.8728 103.291 50.8164C103.173 50.7588 103.018 50.73 102.826 50.73H102.097V54.0806H101.517ZM103.416 52.3442L104.367 54.0806H103.706L102.774 52.3442H103.416ZM105.693 54.0806H105.077L106.462 50.232H107.133L108.518 54.0806H107.901L106.813 50.9311H106.783L105.693 54.0806ZM105.797 52.5735H107.796V53.0621H105.797V52.5735ZM108.87 50.7319V50.232H111.848V50.7319H110.648V54.0806H110.069V50.7319H108.87ZM113.528 50.232V54.0806H112.948V50.232H113.528ZM117.921 50.232V54.0806H117.387L115.431 51.2581H115.396V54.0806H114.815V50.232H115.352L117.31 53.0583H117.346V50.232H117.921ZM121.814 51.4478C121.777 51.3338 121.729 51.2317 121.667 51.1415C121.607 51.0501 121.535 50.9724 121.451 50.9085C121.367 50.8434 121.271 50.7939 121.164 50.7601C121.057 50.7262 120.94 50.7093 120.812 50.7093C120.595 50.7093 120.4 50.7651 120.226 50.8766C120.052 50.9881 119.914 51.1516 119.812 51.367C119.712 51.5813 119.662 51.8437 119.662 52.1544C119.662 52.4664 119.713 52.7301 119.814 52.9455C119.916 53.161 120.055 53.3245 120.231 53.436C120.408 53.5475 120.609 53.6033 120.835 53.6033C121.044 53.6033 121.226 53.5607 121.381 53.4755C121.538 53.3903 121.659 53.27 121.744 53.1147C121.831 52.9581 121.874 52.7739 121.874 52.5622L122.024 52.5904H120.923V52.1112H122.436V52.549C122.436 52.8723 122.367 53.1529 122.229 53.3909C122.092 53.6277 121.903 53.8106 121.661 53.9396C121.421 54.0687 121.145 54.1332 120.835 54.1332C120.486 54.1332 120.181 54.053 119.918 53.8926C119.656 53.7323 119.452 53.5049 119.305 53.2105C119.158 52.9149 119.085 52.5641 119.085 52.1582C119.085 51.8512 119.128 51.5756 119.213 51.3313C119.298 51.087 119.418 50.8797 119.572 50.7093C119.727 50.5377 119.909 50.4068 120.119 50.3166C120.329 50.2251 120.559 50.1794 120.808 50.1794C121.016 50.1794 121.21 50.2101 121.389 50.2715C121.569 50.3329 121.73 50.4199 121.87 50.5327C122.012 50.6454 122.129 50.7795 122.221 50.9348C122.314 51.0889 122.377 51.2599 122.409 51.4478H121.814Z" fill="#878D96"/>
</g>
<defs>
<linearGradient id="paint0_linear_481_14299" x1="185.117" y1="106.27" x2="185.117" y2="170.289" gradientUnits="userSpaceOnUse">
<stop stop-color="#1757C2"/>
<stop offset="1" stop-color="#1757C2" stop-opacity="0"/>
</linearGradient>
<clipPath id="clip0_481_14299">
<rect width="336" height="200" fill="white" transform="translate(0.863281 0.6875)"/>
</clipPath>
</defs>
</svg>
