<svg width="142" height="200" viewBox="0 0 142 200" fill="none" xmlns="http://www.w3.org/2000/svg">
<rect x="0.832031" width="141.045" height="200" fill="white"/>
<rect x="13.4012" y="16.9398" width="15.3005" height="15.3005" rx="7.65027" fill="#E8EEF9"/>
<path d="M21.0508 33.8796L21.0508 55.7376" stroke="#1757C2" stroke-width="0.819672" stroke-linecap="square"/>
<path fill-rule="evenodd" clip-rule="evenodd" d="M23.8372 22.0711L19.9246 25.8471L18.8864 24.7378C18.6951 24.5574 18.3946 24.5465 18.176 24.6995C17.9629 24.858 17.9028 25.1367 18.0339 25.3607L19.2634 27.3607C19.3836 27.5465 19.5913 27.6613 19.8263 27.6613C20.0503 27.6613 20.2634 27.5465 20.3836 27.3607C20.5804 27.1039 24.3345 22.6285 24.3345 22.6285C24.8263 22.1258 24.2306 21.6831 23.8372 22.0656V22.0711Z" fill="#1757C2"/>
<rect x="13.4012" y="16.9398" width="15.3005" height="15.3005" rx="7.65027" stroke="white" stroke-width="2.18579"/>
<path d="M39.9974 22.0235C39.9684 21.7663 39.8489 21.5671 39.6388 21.4258C39.4287 21.2827 39.1643 21.2112 38.8455 21.2112C38.6173 21.2112 38.4199 21.2474 38.2533 21.3199C38.0866 21.3905 37.9571 21.4883 37.8648 21.6133C37.7742 21.7364 37.7289 21.8768 37.7289 22.0344C37.7289 22.1666 37.7597 22.2807 37.8213 22.3767C37.8847 22.4727 37.9671 22.5533 38.0685 22.6185C38.1718 22.6818 38.2822 22.7353 38.4 22.7787C38.5177 22.8204 38.6309 22.8548 38.7396 22.882L39.2829 23.0232C39.4604 23.0667 39.6424 23.1256 39.829 23.1998C40.0155 23.2741 40.1885 23.3719 40.3479 23.4932C40.5072 23.6146 40.6358 23.7649 40.7336 23.9442C40.8332 24.1235 40.883 24.3381 40.883 24.5881C40.883 24.9032 40.8015 25.183 40.6385 25.4275C40.4773 25.672 40.2428 25.8649 39.9349 26.0062C39.6288 26.1475 39.2584 26.2181 38.8238 26.2181C38.4072 26.2181 38.0468 26.152 37.7425 26.0198C37.4382 25.8876 37.2001 25.7001 37.028 25.4574C36.856 25.2129 36.7609 24.9231 36.7428 24.5881H37.585C37.6013 24.7891 37.6665 24.9566 37.7806 25.0907C37.8965 25.2229 38.0441 25.3216 38.2234 25.3868C38.4045 25.4502 38.6028 25.4819 38.8183 25.4819C39.0556 25.4819 39.2666 25.4447 39.4513 25.3705C39.6379 25.2944 39.7846 25.1894 39.8914 25.0553C39.9983 24.9195 40.0517 24.761 40.0517 24.5799C40.0517 24.4151 40.0046 24.2802 39.9105 24.1751C39.8181 24.0701 39.6922 23.9831 39.5328 23.9143C39.3753 23.8455 39.1969 23.7848 38.9976 23.7323L38.3402 23.553C37.8947 23.4317 37.5415 23.2533 37.2807 23.0178C37.0217 22.7824 36.8922 22.4708 36.8922 22.0833C36.8922 21.7627 36.9791 21.4829 37.153 21.2438C37.3269 21.0047 37.5623 20.8191 37.8593 20.6869C38.1564 20.5528 38.4914 20.4858 38.8645 20.4858C39.2412 20.4858 39.5736 20.5519 39.8616 20.6841C40.1513 20.8164 40.3795 20.9984 40.5462 21.2302C40.7128 21.4602 40.7997 21.7247 40.807 22.0235H39.9974ZM43.6195 26.21C43.2083 26.21 42.8542 26.1221 42.5572 25.9464C42.262 25.7689 42.0338 25.5199 41.8726 25.1993C41.7132 24.8769 41.6335 24.4993 41.6335 24.0665C41.6335 23.639 41.7132 23.2623 41.8726 22.9363C42.0338 22.6103 42.2584 22.3558 42.5464 22.1729C42.8361 21.99 43.1748 21.8985 43.5624 21.8985C43.7979 21.8985 44.0261 21.9375 44.247 22.0153C44.468 22.0932 44.6663 22.2155 44.842 22.3821C45.0177 22.5487 45.1562 22.7652 45.2576 23.0314C45.3591 23.2958 45.4098 23.6173 45.4098 23.9958V24.2838H42.0927V23.6753H44.6138C44.6138 23.4615 44.5703 23.2723 44.4834 23.1075C44.3964 22.9408 44.2742 22.8095 44.1166 22.7135C43.9609 22.6175 43.7779 22.5696 43.5678 22.5696C43.3396 22.5696 43.1404 22.6257 42.9702 22.738C42.8017 22.8485 42.6713 22.9934 42.579 23.1727C42.4884 23.3502 42.4431 23.543 42.4431 23.7513V24.2267C42.4431 24.5057 42.492 24.7429 42.5898 24.9385C42.6894 25.1341 42.828 25.2836 43.0055 25.3868C43.183 25.4882 43.3903 25.5389 43.6276 25.5389C43.7816 25.5389 43.9219 25.5172 44.0487 25.4737C44.1755 25.4284 44.2851 25.3614 44.3774 25.2727C44.4698 25.1839 44.5404 25.0744 44.5893 24.944L45.3582 25.0825C45.2966 25.3089 45.1861 25.5072 45.0267 25.6775C44.8691 25.8459 44.6708 25.9772 44.4318 26.0714C44.1945 26.1638 43.9237 26.21 43.6195 26.21ZM47.1233 23.6481V26.1257H46.311V21.9529H47.0907V22.632H47.1424C47.2384 22.4111 47.3887 22.2336 47.5933 22.0996C47.7998 21.9655 48.0597 21.8985 48.373 21.8985C48.6574 21.8985 48.9064 21.9583 49.1201 22.0778C49.3338 22.1955 49.4996 22.3712 49.6173 22.6049C49.735 22.8385 49.7939 23.1274 49.7939 23.4715V26.1257H48.9816V23.5693C48.9816 23.2668 48.9028 23.0305 48.7452 22.8602C48.5877 22.6882 48.3712 22.6022 48.0959 22.6022C47.9076 22.6022 47.74 22.6429 47.5933 22.7244C47.4484 22.8059 47.3334 22.9254 47.2483 23.083C47.165 23.2388 47.1233 23.4271 47.1233 23.6481ZM52.8312 21.9529V22.6049H50.5518V21.9529H52.8312ZM51.1631 20.9531H51.9754V24.9005C51.9754 25.0581 51.9989 25.1767 52.046 25.2564C52.0931 25.3343 52.1538 25.3877 52.2281 25.4167C52.3041 25.4438 52.3865 25.4574 52.4753 25.4574C52.5405 25.4574 52.5975 25.4529 52.6464 25.4438C52.6953 25.4348 52.7334 25.4275 52.7605 25.4221L52.9072 26.0931C52.8601 26.1112 52.7931 26.1294 52.7062 26.1475C52.6193 26.1674 52.5106 26.1783 52.3802 26.1801C52.1665 26.1837 51.9672 26.1457 51.7825 26.066C51.5978 25.9863 51.4484 25.8631 51.3343 25.6965C51.2202 25.5299 51.1631 25.3207 51.1631 25.0689V20.9531Z" fill="#121619"/>
<rect x="36.3516" y="31.1257" width="54.6484" height="4.09302" rx="2.04651" fill="#F2F4F8"/>
<rect x="13.4012" y="51.6122" width="15.3005" height="15.3005" rx="7.65027" fill="#E8EEF9"/>
<path d="M21.0508 68.552L21.0508 90.4099" stroke="#1757C2" stroke-width="0.819672" stroke-linecap="square"/>
<path fill-rule="evenodd" clip-rule="evenodd" d="M23.8372 56.7435L19.9246 60.5194L18.8864 59.4101C18.6951 59.2298 18.3946 59.2189 18.176 59.3719C17.9629 59.5304 17.9028 59.809 18.0339 60.0331L19.2634 62.0331C19.3836 62.2189 19.5913 62.3336 19.8263 62.3336C20.0503 62.3336 20.2634 62.2189 20.3836 62.0331C20.5804 61.7763 24.3345 57.3008 24.3345 57.3008C24.8263 56.7981 24.2306 56.3555 23.8372 56.738V56.7435Z" fill="#1757C2"/>
<rect x="13.4012" y="51.6122" width="15.3005" height="15.3005" rx="7.65027" stroke="white" stroke-width="2.18579"/>
<path d="M41.7959 58.0162C41.7959 58.6102 41.6872 59.121 41.4699 59.5484C41.2525 59.974 40.9546 60.3018 40.5761 60.5319C40.1993 60.7601 39.771 60.8742 39.291 60.8742C38.8093 60.8742 38.3791 60.7601 38.0006 60.5319C37.6239 60.3018 37.3269 59.9731 37.1095 59.5457C36.8922 59.1183 36.7835 58.6084 36.7835 58.0162C36.7835 57.4221 36.8922 56.9123 37.1095 56.4867C37.3269 56.0592 37.6239 55.7314 38.0006 55.5032C38.3791 55.2732 38.8093 55.1582 39.291 55.1582C39.771 55.1582 40.1993 55.2732 40.5761 55.5032C40.9546 55.7314 41.2525 56.0592 41.4699 56.4867C41.6872 56.9123 41.7959 57.4221 41.7959 58.0162ZM40.9645 58.0162C40.9645 57.5634 40.8912 57.1821 40.7445 56.8724C40.5996 56.5609 40.4004 56.3255 40.1468 56.1661C39.8951 56.0049 39.6098 55.9243 39.291 55.9243C38.9705 55.9243 38.6843 56.0049 38.4326 56.1661C38.1808 56.3255 37.9816 56.5609 37.8349 56.8724C37.69 57.1821 37.6176 57.5634 37.6176 58.0162C37.6176 58.469 37.69 58.8511 37.8349 59.1626C37.9816 59.4723 38.1808 59.7078 38.4326 59.869C38.6843 60.0284 38.9705 60.108 39.291 60.108C39.6098 60.108 39.8951 60.0284 40.1468 59.869C40.4004 59.7078 40.5996 59.4723 40.7445 59.1626C40.8912 58.8511 40.9645 58.469 40.9645 58.0162ZM42.7773 62.3629V56.6252H43.5706V57.3017H43.6385C43.6856 57.2147 43.7535 57.1142 43.8422 57.0001C43.931 56.886 44.0541 56.7864 44.2117 56.7013C44.3693 56.6144 44.5776 56.5709 44.8365 56.5709C45.1734 56.5709 45.4741 56.656 45.7385 56.8263C46.0029 56.9965 46.2103 57.2419 46.3606 57.5625C46.5128 57.8831 46.5888 58.2688 46.5888 58.7198C46.5888 59.1708 46.5137 59.5575 46.3633 59.8798C46.213 60.2004 46.0065 60.4476 45.7439 60.6215C45.4813 60.7936 45.1816 60.8796 44.8447 60.8796C44.5911 60.8796 44.3838 60.837 44.2226 60.7519C44.0632 60.6668 43.9382 60.5672 43.8477 60.4531C43.7571 60.339 43.6874 60.2375 43.6385 60.1488H43.5896V62.3629H42.7773ZM43.5733 58.7117C43.5733 59.0051 43.6158 59.2622 43.701 59.4832C43.7861 59.7042 43.9092 59.8771 44.0704 60.0021C44.2316 60.1253 44.429 60.1868 44.6627 60.1868C44.9054 60.1868 45.1082 60.1225 45.2712 59.9939C45.4342 59.8635 45.5574 59.687 45.6407 59.4642C45.7258 59.2414 45.7684 58.9906 45.7684 58.7117C45.7684 58.4364 45.7267 58.1891 45.6434 57.97C45.5619 57.7508 45.4388 57.5779 45.2739 57.4511C45.1109 57.3243 44.9072 57.2609 44.6627 57.2609C44.4272 57.2609 44.228 57.3216 44.065 57.443C43.9038 57.5643 43.7816 57.7336 43.6982 57.951C43.6149 58.1683 43.5733 58.4219 43.5733 58.7117ZM49.2974 60.8823C48.8863 60.8823 48.5322 60.7945 48.2352 60.6188C47.9399 60.4413 47.7117 60.1923 47.5505 59.8717C47.3912 59.5493 47.3115 59.1717 47.3115 58.7388C47.3115 58.3114 47.3912 57.9347 47.5505 57.6087C47.7117 57.2827 47.9363 57.0282 48.2243 56.8453C48.5141 56.6623 48.8528 56.5709 49.2403 56.5709C49.4758 56.5709 49.704 56.6098 49.925 56.6877C50.1459 56.7656 50.3442 56.8878 50.5199 57.0545C50.6956 57.2211 50.8342 57.4375 50.9356 57.7038C51.037 57.9682 51.0877 58.2897 51.0877 58.6682V58.9562H47.7706V58.3476H50.2917C50.2917 58.1339 50.2482 57.9446 50.1613 57.7798C50.0744 57.6132 49.9521 57.4819 49.7946 57.3859C49.6388 57.2899 49.4559 57.2419 49.2458 57.2419C49.0176 57.2419 48.8183 57.2981 48.6481 57.4104C48.4797 57.5208 48.3493 57.6657 48.2569 57.845C48.1663 58.0225 48.1211 58.2154 48.1211 58.4237V58.8991C48.1211 59.178 48.17 59.4153 48.2678 59.6109C48.3674 59.8065 48.5059 59.9559 48.6834 60.0591C48.8609 60.1606 49.0683 60.2113 49.3055 60.2113C49.4595 60.2113 49.5999 60.1896 49.7266 60.1461C49.8534 60.1008 49.963 60.0338 50.0554 59.945C50.1477 59.8563 50.2184 59.7467 50.2673 59.6163L51.0361 59.7549C50.9745 59.9813 50.864 60.1796 50.7047 60.3498C50.5471 60.5183 50.3488 60.6496 50.1097 60.7438C49.8724 60.8361 49.6017 60.8823 49.2974 60.8823ZM52.8013 58.3205V60.7981H51.989V56.6252H52.7687V57.3044H52.8203C52.9163 57.0834 53.0666 56.9059 53.2713 56.7719C53.4777 56.6379 53.7376 56.5709 54.051 56.5709C54.3353 56.5709 54.5844 56.6307 54.7981 56.7502C55.0118 56.8679 55.1775 57.0436 55.2952 57.2772C55.413 57.5109 55.4718 57.7997 55.4718 58.1439V60.7981H54.6595V58.2417C54.6595 57.9392 54.5807 57.7029 54.4232 57.5326C54.2656 57.3605 54.0492 57.2745 53.7739 57.2745C53.5855 57.2745 53.418 57.3153 53.2713 57.3968C53.1264 57.4783 53.0114 57.5978 52.9262 57.7554C52.8429 57.9111 52.8013 58.0995 52.8013 58.3205ZM58.3597 60.8823C57.9486 60.8823 57.5945 60.7945 57.2974 60.6188C57.0022 60.4413 56.774 60.1923 56.6128 59.8717C56.4535 59.5493 56.3738 59.1717 56.3738 58.7388C56.3738 58.3114 56.4535 57.9347 56.6128 57.6087C56.774 57.2827 56.9986 57.0282 57.2866 56.8453C57.5764 56.6623 57.915 56.5709 58.3026 56.5709C58.5381 56.5709 58.7663 56.6098 58.9872 56.6877C59.2082 56.7656 59.4065 56.8878 59.5822 57.0545C59.7579 57.2211 59.8964 57.4375 59.9979 57.7038C60.0993 57.9682 60.15 58.2897 60.15 58.6682V58.9562H56.8329V58.3476H59.354C59.354 58.1339 59.3105 57.9446 59.2236 57.7798C59.1367 57.6132 59.0144 57.4819 58.8568 57.3859C58.7011 57.2899 58.5182 57.2419 58.3081 57.2419C58.0799 57.2419 57.8806 57.2981 57.7104 57.4104C57.542 57.5208 57.4115 57.6657 57.3192 57.845C57.2286 58.0225 57.1833 58.2154 57.1833 58.4237V58.8991C57.1833 59.178 57.2322 59.4153 57.33 59.6109C57.4297 59.8065 57.5682 59.9559 57.7457 60.0591C57.9232 60.1606 58.1306 60.2113 58.3678 60.2113C58.5218 60.2113 58.6621 60.1896 58.7889 60.1461C58.9157 60.1008 59.0253 60.0338 59.1176 59.945C59.21 59.8563 59.2806 59.7467 59.3295 59.6163L60.0984 59.7549C60.0368 59.9813 59.9263 60.1796 59.7669 60.3498C59.6094 60.5183 59.4111 60.6496 59.172 60.7438C58.9347 60.8361 58.664 60.8823 58.3597 60.8823ZM62.6134 60.8796C62.2765 60.8796 61.9759 60.7936 61.7114 60.6215C61.4488 60.4476 61.2423 60.2004 61.092 59.8798C60.9435 59.5575 60.8692 59.1708 60.8692 58.7198C60.8692 58.2688 60.9444 57.8831 61.0947 57.5625C61.2469 57.2419 61.4552 56.9965 61.7196 56.8263C61.984 56.656 62.2838 56.5709 62.6188 56.5709C62.8778 56.5709 63.0861 56.6144 63.2437 56.7013C63.403 56.7864 63.5262 56.886 63.6131 57.0001C63.7019 57.1142 63.7707 57.2147 63.8196 57.3017H63.8685V55.2343H64.6808V60.7981H63.8875V60.1488H63.8196C63.7707 60.2375 63.7001 60.339 63.6077 60.4531C63.5171 60.5672 63.3922 60.6668 63.2328 60.7519C63.0734 60.837 62.8669 60.8796 62.6134 60.8796ZM62.7927 60.1868C63.0263 60.1868 63.2237 60.1253 63.3849 60.0021C63.5479 59.8771 63.6711 59.7042 63.7544 59.4832C63.8395 59.2622 63.8821 59.0051 63.8821 58.7117C63.8821 58.4219 63.8404 58.1683 63.7571 57.951C63.6738 57.7336 63.5516 57.5643 63.3904 57.443C63.2292 57.3216 63.0299 57.2609 62.7927 57.2609C62.5482 57.2609 62.3444 57.3243 62.1814 57.4511C62.0184 57.5779 61.8953 57.7508 61.8119 57.97C61.7304 58.1891 61.6897 58.4364 61.6897 58.7117C61.6897 58.9906 61.7314 59.2414 61.8147 59.4642C61.898 59.687 62.0211 59.8635 62.1841 59.9939C62.349 60.1225 62.5518 60.1868 62.7927 60.1868Z" fill="#121619"/>
<rect x="36.3516" y="65.7981" width="38.8984" height="4.09302" rx="2.04651" fill="#F2F4F8"/>
<rect x="13.4012" y="86.2843" width="15.3005" height="15.3005" rx="7.65027" fill="#E8EEF9"/>
<path d="M21.0508 103.224L21.0508 125.082" stroke="#F2F4F8" stroke-width="0.819672" stroke-linecap="square"/>
<ellipse cx="21.051" cy="93.9346" rx="2.18579" ry="2.18579" fill="#1757C2"/>
<rect x="13.4012" y="86.2843" width="15.3005" height="15.3005" rx="7.65027" stroke="white" stroke-width="2.18579"/>
<path d="M37.8023 89.9064V95.4702H36.9628V89.9064H37.8023ZM39.7719 92.9926V95.4702H38.9596V91.2973H39.7393V91.9765H39.7909C39.8869 91.7556 40.0372 91.5781 40.2419 91.444C40.4484 91.31 40.7083 91.243 41.0216 91.243C41.3059 91.243 41.555 91.3028 41.7687 91.4223C41.9824 91.54 42.1481 91.7157 42.2659 91.9494C42.3836 92.183 42.4424 92.4719 42.4424 92.816V95.4702H41.6301V92.9138C41.6301 92.6113 41.5514 92.375 41.3938 92.2047C41.2362 92.0327 41.0198 91.9466 40.7445 91.9466C40.5561 91.9466 40.3886 91.9874 40.2419 92.0689C40.097 92.1504 39.982 92.2699 39.8969 92.4275C39.8136 92.5833 39.7719 92.7716 39.7719 92.9926ZM45.5565 97.035V91.2973H46.3498V91.9738H46.4177C46.4648 91.8869 46.5327 91.7863 46.6214 91.6722C46.7102 91.5581 46.8333 91.4585 46.9909 91.3734C47.1485 91.2865 47.3568 91.243 47.6157 91.243C47.9526 91.243 48.2533 91.3281 48.5177 91.4984C48.7821 91.6686 48.9895 91.914 49.1398 92.2346C49.292 92.5552 49.368 92.941 49.368 93.3919C49.368 93.8429 49.2929 94.2296 49.1425 94.552C48.9922 94.8725 48.7857 95.1198 48.5231 95.2936C48.2605 95.4657 47.9608 95.5517 47.6239 95.5517C47.3703 95.5517 47.163 95.5092 47.0018 95.424C46.8424 95.3389 46.7174 95.2393 46.6269 95.1252C46.5363 95.0111 46.4666 94.9097 46.4177 94.8209H46.3688V97.035H45.5565ZM46.3525 93.3838C46.3525 93.6772 46.395 93.9344 46.4802 94.1553C46.5653 94.3763 46.6884 94.5492 46.8496 94.6742C47.0108 94.7974 47.2082 94.859 47.4419 94.859C47.6846 94.859 47.8874 94.7947 48.0504 94.6661C48.2134 94.5357 48.3366 94.3591 48.4199 94.1363C48.505 93.9135 48.5476 93.6627 48.5476 93.3838C48.5476 93.1085 48.5059 92.8613 48.4226 92.6421C48.3411 92.423 48.218 92.25 48.0531 92.1232C47.8901 91.9964 47.6864 91.9331 47.4419 91.9331C47.2064 91.9331 47.0072 91.9937 46.8442 92.1151C46.683 92.2364 46.5608 92.4058 46.4774 92.6231C46.3941 92.8404 46.3525 93.094 46.3525 93.3838ZM50.2781 95.4702V91.2973H51.0633V91.9602H51.1067C51.1828 91.7356 51.3168 91.559 51.5088 91.4305C51.7026 91.3001 51.9217 91.2349 52.1662 91.2349C52.217 91.2349 52.2767 91.2367 52.3456 91.2403C52.4162 91.2439 52.4714 91.2484 52.5113 91.2539V92.0309C52.4787 92.0218 52.4207 92.0118 52.3374 92.001C52.2541 91.9883 52.1708 91.982 52.0875 91.982C51.8955 91.982 51.7243 92.0227 51.574 92.1042C51.4255 92.1839 51.3078 92.2953 51.2208 92.4384C51.1339 92.5796 51.0904 92.7408 51.0904 92.9219V95.4702H50.2781ZM54.8225 95.5544C54.4313 95.5544 54.0899 95.4648 53.7983 95.2855C53.5067 95.1062 53.2803 94.8553 53.1191 94.5329C52.9579 94.2106 52.8773 93.8338 52.8773 93.4028C52.8773 92.9699 52.9579 92.5914 53.1191 92.2672C53.2803 91.943 53.5067 91.6913 53.7983 91.512C54.0899 91.3327 54.4313 91.243 54.8225 91.243C55.2137 91.243 55.5551 91.3327 55.8467 91.512C56.1383 91.6913 56.3647 91.943 56.5259 92.2672C56.6871 92.5914 56.7677 92.9699 56.7677 93.4028C56.7677 93.8338 56.6871 94.2106 56.5259 94.5329C56.3647 94.8553 56.1383 95.1062 55.8467 95.2855C55.5551 95.4648 55.2137 95.5544 54.8225 95.5544ZM54.8252 94.8725C55.0788 94.8725 55.2889 94.8055 55.4555 94.6715C55.6221 94.5375 55.7453 94.3591 55.825 94.1363C55.9065 93.9135 55.9472 93.6681 55.9472 93.4001C55.9472 93.1338 55.9065 92.8893 55.825 92.6666C55.7453 92.442 55.6221 92.2618 55.4555 92.1259C55.2889 91.9901 55.0788 91.9222 54.8252 91.9222C54.5699 91.9222 54.358 91.9901 54.1895 92.1259C54.0229 92.2618 53.8988 92.442 53.8173 92.6666C53.7376 92.8893 53.6978 93.1338 53.6978 93.4001C53.6978 93.6681 53.7376 93.9135 53.8173 94.1363C53.8988 94.3591 54.0229 94.5375 54.1895 94.6715C54.358 94.8055 54.5699 94.8725 54.8252 94.8725ZM59.424 97.122C59.0925 97.122 58.8073 97.0785 58.5682 96.9916C58.3309 96.9046 58.1371 96.7896 57.9868 96.6466C57.8365 96.5035 57.7242 96.3468 57.6499 96.1766L58.3481 95.8886C58.397 95.9683 58.4622 96.0525 58.5437 96.1412C58.6271 96.2318 58.7393 96.3088 58.8806 96.3722C59.0237 96.4356 59.2075 96.4672 59.4321 96.4672C59.74 96.4672 59.9945 96.3921 60.1955 96.2418C60.3965 96.0932 60.4971 95.856 60.4971 95.53V94.7095H60.4454C60.3965 94.7983 60.3259 94.897 60.2335 95.0057C60.143 95.1143 60.018 95.2085 59.8586 95.2882C59.6992 95.3679 59.4919 95.4077 59.2365 95.4077C58.9069 95.4077 58.6098 95.3308 58.3454 95.1768C58.0828 95.0211 57.8745 94.7919 57.7206 94.4895C57.5684 94.1852 57.4924 93.8112 57.4924 93.3675C57.4924 92.9237 57.5675 92.5434 57.7179 92.2265C57.87 91.9095 58.0783 91.6668 58.3427 91.4984C58.6071 91.3281 58.9069 91.243 59.2419 91.243C59.5009 91.243 59.7101 91.2865 59.8695 91.3734C60.0289 91.4585 60.1529 91.5581 60.2417 91.6722C60.3322 91.7863 60.402 91.8869 60.4509 91.9738H60.5106V91.2973H61.3066V95.5626C61.3066 95.9212 61.2233 96.2155 61.0567 96.4455C60.8901 96.6755 60.6646 96.8458 60.3802 96.9563C60.0977 97.0667 59.7789 97.122 59.424 97.122ZM59.4158 94.734C59.6494 94.734 59.8469 94.6797 60.008 94.571C60.1711 94.4605 60.2942 94.3029 60.3775 94.0983C60.4626 93.8918 60.5052 93.6446 60.5052 93.3566C60.5052 93.0759 60.4636 92.8287 60.3802 92.6149C60.2969 92.4012 60.1747 92.2346 60.0135 92.1151C59.8523 91.9937 59.6531 91.9331 59.4158 91.9331C59.1713 91.9331 58.9675 91.9964 58.8045 92.1232C58.6415 92.2482 58.5184 92.4184 58.4351 92.634C58.3536 92.8495 58.3128 93.0904 58.3128 93.3566C58.3128 93.6301 58.3545 93.8701 58.4378 94.0765C58.5211 94.283 58.6443 94.4442 58.8073 94.5601C58.9721 94.676 59.1749 94.734 59.4158 94.734ZM62.396 95.4702V91.2973H63.1812V91.9602H63.2246C63.3007 91.7356 63.4347 91.559 63.6267 91.4305C63.8205 91.3001 64.0397 91.2349 64.2842 91.2349C64.3349 91.2349 64.3946 91.2367 64.4635 91.2403C64.5341 91.2439 64.5893 91.2484 64.6292 91.2539V92.0309C64.5966 92.0218 64.5386 92.0118 64.4553 92.001C64.372 91.9883 64.2887 91.982 64.2054 91.982C64.0134 91.982 63.8422 92.0227 63.6919 92.1042C63.5434 92.1839 63.4257 92.2953 63.3387 92.4384C63.2518 92.5796 63.2083 92.7408 63.2083 92.9219V95.4702H62.396ZM66.9812 95.5544C66.5701 95.5544 66.216 95.4666 65.9189 95.2909C65.6237 95.1134 65.3955 94.8644 65.2343 94.5438C65.075 94.2214 64.9953 93.8438 64.9953 93.4109C64.9953 92.9835 65.075 92.6068 65.2343 92.2808C65.3955 91.9548 65.6201 91.7003 65.9081 91.5174C66.1979 91.3345 66.5365 91.243 66.9241 91.243C67.1596 91.243 67.3878 91.2819 67.6087 91.3598C67.8297 91.4377 68.028 91.56 68.2037 91.7266C68.3794 91.8932 68.5179 92.1096 68.6194 92.3759C68.7208 92.6403 68.7715 92.9618 68.7715 93.3403V93.6283H65.4544V93.0197H67.9755C67.9755 92.806 67.932 92.6168 67.8451 92.4519C67.7582 92.2853 67.6359 92.154 67.4783 92.058C67.3226 91.962 67.1397 91.914 66.9296 91.914C66.7014 91.914 66.5021 91.9702 66.3319 92.0825C66.1635 92.1929 66.033 92.3378 65.9407 92.5171C65.8501 92.6946 65.8048 92.8875 65.8048 93.0958V93.5712C65.8048 93.8501 65.8537 94.0874 65.9515 94.283C66.0512 94.4786 66.1897 94.628 66.3672 94.7313C66.5447 94.8327 66.7521 94.8834 66.9893 94.8834C67.1433 94.8834 67.2836 94.8617 67.4104 94.8182C67.5372 94.7729 67.6468 94.7059 67.7391 94.6172C67.8315 94.5284 67.9021 94.4188 67.951 94.2884L68.7199 94.427C68.6583 94.6534 68.5478 94.8517 68.3884 95.022C68.2309 95.1904 68.0326 95.3217 67.7935 95.4159C67.5562 95.5082 67.2855 95.5544 66.9812 95.5544ZM72.7997 92.3161L72.0635 92.4465C72.0327 92.3523 71.9838 92.2627 71.9168 92.1776C71.8516 92.0924 71.7628 92.0227 71.6505 91.9684C71.5382 91.914 71.3979 91.8869 71.2294 91.8869C70.9994 91.8869 70.8075 91.9385 70.6535 92.0417C70.4996 92.1431 70.4226 92.2745 70.4226 92.4356C70.4226 92.5751 70.4742 92.6874 70.5774 92.7725C70.6807 92.8576 70.8473 92.9274 71.0773 92.9817L71.7402 93.1338C72.1242 93.2226 72.4103 93.3593 72.5987 93.5441C72.787 93.7288 72.8812 93.9688 72.8812 94.264C72.8812 94.5139 72.8088 94.7367 72.6639 94.9323C72.5208 95.1261 72.3207 95.2782 72.0635 95.3887C71.8081 95.4992 71.512 95.5544 71.1751 95.5544C70.7078 95.5544 70.3266 95.4548 70.0314 95.2556C69.7362 95.0546 69.555 94.7693 69.488 94.3998L70.2732 94.2803C70.3221 94.485 70.4226 94.6398 70.5747 94.7449C70.7269 94.8481 70.9252 94.8997 71.1697 94.8997C71.4359 94.8997 71.6487 94.8445 71.8081 94.734C71.9675 94.6217 72.0472 94.485 72.0472 94.3238C72.0472 94.1934 71.9983 94.0838 71.9005 93.995C71.8045 93.9063 71.6569 93.8393 71.4577 93.794L70.7513 93.6391C70.3619 93.5504 70.0739 93.4091 69.8874 93.2153C69.7027 93.0215 69.6103 92.7761 69.6103 92.4791C69.6103 92.2328 69.6791 92.0173 69.8168 91.8325C69.9544 91.6478 70.1446 91.5038 70.3873 91.4006C70.63 91.2955 70.908 91.243 71.2213 91.243C71.6723 91.243 72.0273 91.3408 72.2863 91.5364C72.5452 91.7302 72.7164 91.9901 72.7997 92.3161ZM76.9013 92.3161L76.165 92.4465C76.1343 92.3523 76.0854 92.2627 76.0183 92.1776C75.9531 92.0924 75.8644 92.0227 75.7521 91.9684C75.6398 91.914 75.4994 91.8869 75.331 91.8869C75.101 91.8869 74.909 91.9385 74.7551 92.0417C74.6011 92.1431 74.5241 92.2745 74.5241 92.4356C74.5241 92.5751 74.5758 92.6874 74.679 92.7725C74.7822 92.8576 74.9489 92.9274 75.1789 92.9817L75.8418 93.1338C76.2257 93.2226 76.5119 93.3593 76.7002 93.5441C76.8886 93.7288 76.9828 93.9688 76.9828 94.264C76.9828 94.5139 76.9103 94.7367 76.7654 94.9323C76.6224 95.1261 76.4222 95.2782 76.165 95.3887C75.9097 95.4992 75.6135 95.5544 75.2767 95.5544C74.8094 95.5544 74.4282 95.4548 74.1329 95.2556C73.8377 95.0546 73.6566 94.7693 73.5896 94.3998L74.3747 94.2803C74.4236 94.485 74.5241 94.6398 74.6763 94.7449C74.8284 94.8481 75.0267 94.8997 75.2712 94.8997C75.5375 94.8997 75.7503 94.8445 75.9097 94.734C76.0691 94.6217 76.1487 94.485 76.1487 94.3238C76.1487 94.1934 76.0998 94.0838 76.002 93.995C75.906 93.9063 75.7584 93.8393 75.5592 93.794L74.8529 93.6391C74.4635 93.5504 74.1755 93.4091 73.989 93.2153C73.8042 93.0215 73.7118 92.7761 73.7118 92.4791C73.7118 92.2328 73.7807 92.0173 73.9183 91.8325C74.056 91.6478 74.2461 91.5038 74.4888 91.4006C74.7315 91.2955 75.0095 91.243 75.3229 91.243C75.7738 91.243 76.1288 91.3408 76.3878 91.5364C76.6468 91.7302 76.818 91.9901 76.9013 92.3161Z" fill="#121619"/>
<rect x="36.3516" y="100.47" width="66.8984" height="4.09302" rx="2.04651" fill="#F2F4F8"/>
<rect x="13.4012" y="120.957" width="15.3005" height="15.3005" rx="7.65027" fill="#F3F7FC"/>
<path d="M21.0508 137.896L21.0508 159.754" stroke="#F2F4F8" stroke-width="0.819672" stroke-linecap="square"/>
<rect x="13.4012" y="120.957" width="15.3005" height="15.3005" rx="7.65027" stroke="white" stroke-width="2.18579"/>
<path d="M37.8023 125.672V131.235H36.9628V125.672H37.8023ZM39.7719 128.758V131.235H38.9596V127.062H39.7393V127.742H39.7909C39.8869 127.521 40.0372 127.343 40.2419 127.209C40.4484 127.075 40.7083 127.008 41.0216 127.008C41.3059 127.008 41.555 127.068 41.7687 127.187C41.9824 127.305 42.1481 127.481 42.2659 127.714C42.3836 127.948 42.4424 128.237 42.4424 128.581V131.235H41.6301V128.679C41.6301 128.376 41.5514 128.14 41.3938 127.97C41.2362 127.798 41.0198 127.712 40.7445 127.712C40.5561 127.712 40.3886 127.753 40.2419 127.834C40.097 127.916 39.982 128.035 39.8969 128.193C39.8136 128.348 39.7719 128.537 39.7719 128.758ZM45.5565 131.235V127.062H46.3416V127.725H46.3851C46.4611 127.501 46.5952 127.324 46.7871 127.196C46.9809 127.065 47.2001 127 47.4446 127C47.4953 127 47.5551 127.002 47.6239 127.005C47.6945 127.009 47.7498 127.014 47.7896 127.019V127.796C47.757 127.787 47.6991 127.777 47.6157 127.766C47.5324 127.753 47.4491 127.747 47.3658 127.747C47.1738 127.747 47.0027 127.788 46.8524 127.869C46.7038 127.949 46.5861 128.06 46.4992 128.203C46.4122 128.345 46.3688 128.506 46.3688 128.687V131.235H45.5565ZM50.1416 131.32C49.7305 131.32 49.3764 131.232 49.0794 131.056C48.7842 130.879 48.556 130.63 48.3948 130.309C48.2354 129.987 48.1557 129.609 48.1557 129.176C48.1557 128.749 48.2354 128.372 48.3948 128.046C48.556 127.72 48.7805 127.465 49.0685 127.283C49.3583 127.1 49.697 127.008 50.0846 127.008C50.32 127.008 50.5482 127.047 50.7692 127.125C50.9901 127.203 51.1885 127.325 51.3641 127.492C51.5398 127.658 51.6784 127.875 51.7798 128.141C51.8812 128.405 51.9319 128.727 51.9319 129.105V129.393H48.6148V128.785H51.1359C51.1359 128.571 51.0925 128.382 51.0055 128.217C50.9186 128.05 50.7963 127.919 50.6388 127.823C50.483 127.727 50.3001 127.679 50.09 127.679C49.8618 127.679 49.6626 127.735 49.4923 127.848C49.3239 127.958 49.1935 128.103 49.1011 128.282C49.0106 128.46 48.9653 128.653 48.9653 128.861V129.336C48.9653 129.615 49.0142 129.853 49.112 130.048C49.2116 130.244 49.3501 130.393 49.5276 130.496C49.7051 130.598 49.9125 130.649 50.1498 130.649C50.3037 130.649 50.4441 130.627 50.5709 130.583C50.6976 130.538 50.8072 130.471 50.8996 130.382C50.9919 130.294 51.0626 130.184 51.1115 130.054L51.8803 130.192C51.8187 130.419 51.7083 130.617 51.5489 130.787C51.3913 130.956 51.193 131.087 50.9539 131.181C50.7167 131.273 50.4459 131.32 50.1416 131.32ZM52.8332 131.235V127.062H53.6129V127.742H53.6645C53.7515 127.512 53.8936 127.332 54.091 127.204C54.2885 127.073 54.5248 127.008 54.8001 127.008C55.079 127.008 55.3127 127.073 55.501 127.204C55.6912 127.334 55.8316 127.513 55.9221 127.742H55.9656C56.0652 127.519 56.2237 127.341 56.441 127.209C56.6583 127.075 56.9173 127.008 57.218 127.008C57.5965 127.008 57.9053 127.127 58.1444 127.364C58.3853 127.601 58.5057 127.959 58.5057 128.437V131.235H57.6934V128.513C57.6934 128.231 57.6164 128.026 57.4625 127.899C57.3085 127.772 57.1247 127.709 56.911 127.709C56.6466 127.709 56.441 127.791 56.2943 127.954C56.1476 128.115 56.0742 128.322 56.0742 128.576V131.235H55.2647V128.462C55.2647 128.235 55.194 128.053 55.0528 127.916C54.9115 127.778 54.7277 127.709 54.5013 127.709C54.3473 127.709 54.2051 127.75 54.0747 127.831C53.9462 127.911 53.842 128.022 53.7623 128.165C53.6844 128.309 53.6455 128.474 53.6455 128.663V131.235H52.8332ZM61.3929 131.32C60.9818 131.32 60.6277 131.232 60.3307 131.056C60.0354 130.879 59.8072 130.63 59.646 130.309C59.4867 129.987 59.407 129.609 59.407 129.176C59.407 128.749 59.4867 128.372 59.646 128.046C59.8072 127.72 60.0318 127.465 60.3198 127.283C60.6096 127.1 60.9483 127.008 61.3358 127.008C61.5713 127.008 61.7995 127.047 62.0205 127.125C62.2414 127.203 62.4397 127.325 62.6154 127.492C62.7911 127.658 62.9297 127.875 63.0311 128.141C63.1325 128.405 63.1832 128.727 63.1832 129.105V129.393H59.8661V128.785H62.3872C62.3872 128.571 62.3437 128.382 62.2568 128.217C62.1699 128.05 62.0476 127.919 61.8901 127.823C61.7343 127.727 61.5514 127.679 61.3413 127.679C61.1131 127.679 60.9138 127.735 60.7436 127.848C60.5752 127.958 60.4448 128.103 60.3524 128.282C60.2618 128.46 60.2166 128.653 60.2166 128.861V129.336C60.2166 129.615 60.2655 129.853 60.3633 130.048C60.4629 130.244 60.6014 130.393 60.7789 130.496C60.9564 130.598 61.1638 130.649 61.401 130.649C61.555 130.649 61.6954 130.627 61.8221 130.583C61.9489 130.538 62.0585 130.471 62.1509 130.382C62.2432 130.294 62.3139 130.184 62.3628 130.054L63.1316 130.192C63.07 130.419 62.9595 130.617 62.8002 130.787C62.6426 130.956 62.4443 131.087 62.2052 131.181C61.9679 131.273 61.6972 131.32 61.3929 131.32ZM65.6466 131.317C65.3097 131.317 65.0091 131.231 64.7446 131.059C64.482 130.885 64.2756 130.638 64.1252 130.317C63.9767 129.995 63.9025 129.608 63.9025 129.157C63.9025 128.706 63.9776 128.32 64.128 128C64.2801 127.679 64.4884 127.434 64.7528 127.264C65.0172 127.093 65.317 127.008 65.652 127.008C65.911 127.008 66.1193 127.052 66.2769 127.139C66.4363 127.224 66.5594 127.323 66.6463 127.437C66.7351 127.551 66.8039 127.652 66.8528 127.739H66.9017V125.672H67.714V131.235H66.9207V130.586H66.8528C66.8039 130.675 66.7333 130.776 66.6409 130.89C66.5504 131.004 66.4254 131.104 66.266 131.189C66.1066 131.274 65.9002 131.317 65.6466 131.317ZM65.8259 130.624C66.0595 130.624 66.257 130.563 66.4181 130.439C66.5811 130.314 66.7043 130.141 66.7876 129.92C66.8727 129.7 66.9153 129.442 66.9153 129.149C66.9153 128.859 66.8736 128.606 66.7903 128.388C66.707 128.171 66.5848 128.002 66.4236 127.88C66.2624 127.759 66.0632 127.698 65.8259 127.698C65.5814 127.698 65.3776 127.762 65.2146 127.888C65.0516 128.015 64.9285 128.188 64.8452 128.407C64.7637 128.626 64.7229 128.874 64.7229 129.149C64.7229 129.428 64.7646 129.679 64.8479 129.901C64.9312 130.124 65.0544 130.301 65.2174 130.431C65.3822 130.56 65.585 130.624 65.8259 130.624ZM68.8734 131.235V127.062H69.6857V131.235H68.8734ZM69.2836 126.419C69.1423 126.419 69.021 126.372 68.9196 126.277C68.8199 126.181 68.7701 126.067 68.7701 125.935C68.7701 125.801 68.8199 125.687 68.9196 125.593C69.021 125.497 69.1423 125.449 69.2836 125.449C69.4249 125.449 69.5453 125.497 69.6449 125.593C69.7463 125.687 69.7971 125.801 69.7971 125.935C69.7971 126.067 69.7463 126.181 69.6449 126.277C69.5453 126.372 69.4249 126.419 69.2836 126.419ZM71.9928 131.328C71.7284 131.328 71.4893 131.279 71.2756 131.181C71.0619 131.081 70.8926 130.937 70.7676 130.749C70.6444 130.561 70.5829 130.33 70.5829 130.056C70.5829 129.821 70.6281 129.627 70.7187 129.475C70.8093 129.323 70.9315 129.202 71.0855 129.114C71.2394 129.025 71.4115 128.958 71.6016 128.913C71.7918 128.867 71.9856 128.833 72.183 128.809C72.433 128.78 72.6358 128.757 72.7916 128.739C72.9473 128.719 73.0605 128.687 73.1311 128.644C73.2018 128.6 73.2371 128.53 73.2371 128.432V128.413C73.2371 128.175 73.1701 127.992 73.0361 127.861C72.9038 127.731 72.7064 127.666 72.4438 127.666C72.1703 127.666 71.9548 127.726 71.7972 127.848C71.6415 127.967 71.5337 128.1 71.4739 128.247L70.7106 128.073C70.8011 127.82 70.9333 127.615 71.1072 127.459C71.2829 127.302 71.4848 127.187 71.713 127.117C71.9412 127.044 72.1812 127.008 72.433 127.008C72.5996 127.008 72.7762 127.028 72.9627 127.068C73.1511 127.106 73.3268 127.177 73.4898 127.28C73.6546 127.383 73.7895 127.531 73.8945 127.723C73.9996 127.913 74.0521 128.16 74.0521 128.464V131.235H73.2588V130.665H73.2262C73.1737 130.77 73.0949 130.873 72.9899 130.975C72.8848 131.076 72.7499 131.16 72.5851 131.227C72.4203 131.294 72.2229 131.328 71.9928 131.328ZM72.1694 130.676C72.394 130.676 72.586 130.631 72.7454 130.543C72.9066 130.454 73.0288 130.338 73.1121 130.195C73.1973 130.05 73.2398 129.895 73.2398 129.73V129.192C73.2108 129.221 73.1547 129.249 73.0714 129.274C72.9899 129.297 72.8966 129.318 72.7916 129.336C72.6865 129.353 72.5842 129.368 72.4846 129.383C72.385 129.395 72.3016 129.406 72.2346 129.415C72.0771 129.435 71.9331 129.469 71.8027 129.516C71.6741 129.563 71.5708 129.631 71.493 129.719C71.4169 129.806 71.3789 129.922 71.3789 130.067C71.3789 130.268 71.4531 130.42 71.6016 130.524C71.7501 130.625 71.9394 130.676 72.1694 130.676ZM77.0819 127.062V127.714H74.8026V127.062H77.0819ZM75.4139 126.063H76.2262V130.01C76.2262 130.168 76.2497 130.286 76.2968 130.366C76.3439 130.444 76.4046 130.497 76.4788 130.526C76.5549 130.553 76.6373 130.567 76.726 130.567C76.7912 130.567 76.8483 130.563 76.8972 130.553C76.9461 130.544 76.9841 130.537 77.0113 130.532L77.158 131.203C77.1109 131.221 77.0439 131.239 76.957 131.257C76.87 131.277 76.7614 131.288 76.631 131.29C76.4172 131.293 76.218 131.255 76.0333 131.176C75.8485 131.096 75.6991 130.973 75.585 130.806C75.4709 130.639 75.4139 130.43 75.4139 130.179V126.063ZM77.9805 131.235V127.062H78.7928V131.235H77.9805ZM78.3907 126.419C78.2494 126.419 78.1281 126.372 78.0267 126.277C77.9271 126.181 77.8773 126.067 77.8773 125.935C77.8773 125.801 77.9271 125.687 78.0267 125.593C78.1281 125.497 78.2494 125.449 78.3907 125.449C78.532 125.449 78.6524 125.497 78.752 125.593C78.8535 125.687 78.9042 125.801 78.9042 125.935C78.9042 126.067 78.8535 126.181 78.752 126.277C78.6524 126.372 78.532 126.419 78.3907 126.419ZM81.6433 131.32C81.2521 131.32 80.9107 131.23 80.6191 131.051C80.3275 130.871 80.1011 130.62 79.9399 130.298C79.7787 129.976 79.6981 129.599 79.6981 129.168C79.6981 128.735 79.7787 128.357 79.9399 128.032C80.1011 127.708 80.3275 127.456 80.6191 127.277C80.9107 127.098 81.2521 127.008 81.6433 127.008C82.0345 127.008 82.3759 127.098 82.6675 127.277C82.9591 127.456 83.1855 127.708 83.3467 128.032C83.5079 128.357 83.5885 128.735 83.5885 129.168C83.5885 129.599 83.5079 129.976 83.3467 130.298C83.1855 130.62 82.9591 130.871 82.6675 131.051C82.3759 131.23 82.0345 131.32 81.6433 131.32ZM81.646 130.638C81.8996 130.638 82.1097 130.571 82.2763 130.437C82.4429 130.303 82.5661 130.124 82.6458 129.901C82.7273 129.679 82.768 129.433 82.768 129.165C82.768 128.899 82.7273 128.654 82.6458 128.432C82.5661 128.207 82.4429 128.027 82.2763 127.891C82.1097 127.755 81.8996 127.687 81.646 127.687C81.3906 127.687 81.1787 127.755 81.0103 127.891C80.8437 128.027 80.7196 128.207 80.6381 128.432C80.5584 128.654 80.5186 128.899 80.5186 129.165C80.5186 129.433 80.5584 129.679 80.6381 129.901C80.7196 130.124 80.8437 130.303 81.0103 130.437C81.1787 130.571 81.3906 130.638 81.646 130.638ZM85.3075 128.758V131.235H84.4952V127.062H85.2749V127.742H85.3265C85.4225 127.521 85.5728 127.343 85.7775 127.209C85.9839 127.075 86.2438 127.008 86.5572 127.008C86.8415 127.008 87.0905 127.068 87.3043 127.187C87.518 127.305 87.6837 127.481 87.8014 127.714C87.9191 127.948 87.978 128.237 87.978 128.581V131.235H87.1657V128.679C87.1657 128.376 87.0869 128.14 86.9293 127.97C86.7718 127.798 86.5553 127.712 86.2801 127.712C86.0917 127.712 85.9242 127.753 85.7775 127.834C85.6326 127.916 85.5176 128.035 85.4324 128.193C85.3491 128.348 85.3075 128.537 85.3075 128.758Z" fill="#121619"/>
<rect x="13.4012" y="151.558" width="15.3005" height="15.3005" rx="7.65027" fill="#F3F7FC"/>
<rect x="13.4012" y="151.558" width="15.3005" height="15.3005" rx="7.65027" stroke="white" stroke-width="2.18579"/>
<path d="M41.584 158.082H40.7363C40.7037 157.901 40.6431 157.741 40.5543 157.604C40.4656 157.466 40.3569 157.349 40.2283 157.253C40.0997 157.157 39.9557 157.085 39.7964 157.036C39.6388 156.987 39.4713 156.963 39.2938 156.963C38.9732 156.963 38.6861 157.043 38.4326 157.204C38.1808 157.366 37.9816 157.602 37.8349 157.913C37.69 158.225 37.6176 158.605 37.6176 159.055C37.6176 159.507 37.69 159.889 37.8349 160.201C37.9816 160.512 38.1817 160.748 38.4353 160.907C38.6888 161.067 38.9741 161.146 39.291 161.146C39.4667 161.146 39.6334 161.123 39.7909 161.076C39.9503 161.027 40.0943 160.955 40.2229 160.861C40.3515 160.767 40.4601 160.652 40.5489 160.516C40.6394 160.378 40.7019 160.221 40.7363 160.043L41.584 160.046C41.5387 160.32 41.4508 160.571 41.3204 160.801C41.1918 161.03 41.0261 161.227 40.8233 161.394C40.6222 161.558 40.3922 161.686 40.1332 161.777C39.8742 161.867 39.5917 161.912 39.2856 161.912C38.8039 161.912 38.3746 161.798 37.9979 161.57C37.6212 161.34 37.3241 161.011 37.1068 160.584C36.8913 160.157 36.7835 159.647 36.7835 159.055C36.7835 158.46 36.8922 157.951 37.1095 157.525C37.3269 157.098 37.6239 156.77 38.0006 156.542C38.3773 156.312 38.8057 156.197 39.2856 156.197C39.5808 156.197 39.8561 156.239 40.1115 156.324C40.3687 156.408 40.5996 156.531 40.8043 156.694C41.0089 156.855 41.1783 157.052 41.3123 157.286C41.4463 157.518 41.5369 157.783 41.584 158.082ZM44.281 161.921C43.8898 161.921 43.5484 161.831 43.2568 161.652C42.9652 161.472 42.7388 161.222 42.5776 160.899C42.4164 160.577 42.3358 160.2 42.3358 159.769C42.3358 159.336 42.4164 158.958 42.5776 158.633C42.7388 158.309 42.9652 158.057 43.2568 157.878C43.5484 157.699 43.8898 157.609 44.281 157.609C44.6722 157.609 45.0136 157.699 45.3052 157.878C45.5968 158.057 45.8232 158.309 45.9844 158.633C46.1456 158.958 46.2261 159.336 46.2261 159.769C46.2261 160.2 46.1456 160.577 45.9844 160.899C45.8232 161.222 45.5968 161.472 45.3052 161.652C45.0136 161.831 44.6722 161.921 44.281 161.921ZM44.2837 161.239C44.5373 161.239 44.7473 161.172 44.914 161.038C45.0806 160.904 45.2038 160.725 45.2834 160.503C45.3649 160.28 45.4057 160.034 45.4057 159.766C45.4057 159.5 45.3649 159.256 45.2834 159.033C45.2038 158.808 45.0806 158.628 44.914 158.492C44.7473 158.356 44.5373 158.288 44.2837 158.288C44.0283 158.288 43.8164 158.356 43.648 158.492C43.4814 158.628 43.3573 158.808 43.2758 159.033C43.1961 159.256 43.1563 159.5 43.1563 159.766C43.1563 160.034 43.1961 160.28 43.2758 160.503C43.3573 160.725 43.4814 160.904 43.648 161.038C43.8164 161.172 44.0283 161.239 44.2837 161.239ZM47.1329 161.836V157.664H47.9125V158.343H47.9642C48.0511 158.113 48.1933 157.933 48.3907 157.805C48.5881 157.674 48.8245 157.609 49.0998 157.609C49.3787 157.609 49.6123 157.674 49.8007 157.805C49.9908 157.935 50.1312 158.115 50.2218 158.343H50.2652C50.3648 158.12 50.5233 157.942 50.7407 157.81C50.958 157.676 51.217 157.609 51.5176 157.609C51.8962 157.609 52.205 157.728 52.444 157.965C52.6849 158.202 52.8054 158.56 52.8054 159.038V161.836H51.9931V159.114C51.9931 158.832 51.9161 158.627 51.7621 158.5C51.6082 158.374 51.4244 158.31 51.2106 158.31C50.9462 158.31 50.7407 158.392 50.5939 158.555C50.4472 158.716 50.3739 158.923 50.3739 159.177V161.836H49.5643V159.063C49.5643 158.836 49.4937 158.654 49.3524 158.517C49.2111 158.379 49.0273 158.31 48.8009 158.31C48.647 158.31 48.5048 158.351 48.3744 158.432C48.2458 158.512 48.1417 158.623 48.062 158.767C47.9841 158.91 47.9452 159.075 47.9452 159.264V161.836H47.1329ZM53.8941 163.401V157.664H54.6874V158.34H54.7553C54.8024 158.253 54.8703 158.153 54.959 158.038C55.0478 157.924 55.1709 157.825 55.3285 157.74C55.4861 157.653 55.6944 157.609 55.9533 157.609C56.2902 157.609 56.5909 157.694 56.8553 157.865C57.1197 158.035 57.3271 158.28 57.4774 158.601C57.6296 158.921 57.7056 159.307 57.7056 159.758C57.7056 160.209 57.6305 160.596 57.4801 160.918C57.3298 161.239 57.1233 161.486 56.8607 161.66C56.5981 161.832 56.2984 161.918 55.9615 161.918C55.7079 161.918 55.5006 161.875 55.3394 161.79C55.18 161.705 55.055 161.606 54.9645 161.491C54.8739 161.377 54.8042 161.276 54.7553 161.187H54.7064V163.401H53.8941ZM54.6901 159.75C54.6901 160.043 54.7326 160.301 54.8178 160.522C54.9029 160.742 55.026 160.915 55.1872 161.04C55.3484 161.164 55.5458 161.225 55.7795 161.225C56.0222 161.225 56.225 161.161 56.388 161.032C56.551 160.902 56.6742 160.725 56.7575 160.503C56.8426 160.28 56.8852 160.029 56.8852 159.75C56.8852 159.475 56.8435 159.227 56.7602 159.008C56.6787 158.789 56.5556 158.616 56.3907 158.489C56.2277 158.363 56.024 158.299 55.7795 158.299C55.544 158.299 55.3448 158.36 55.1818 158.481C55.0206 158.603 54.8984 158.772 54.815 158.989C54.7317 159.207 54.6901 159.46 54.6901 159.75ZM59.428 156.273V161.836H58.6157V156.273H59.428ZM62.3193 161.921C61.9082 161.921 61.5541 161.833 61.2571 161.657C60.9618 161.48 60.7336 161.231 60.5724 160.91C60.4131 160.588 60.3334 160.21 60.3334 159.777C60.3334 159.35 60.4131 158.973 60.5724 158.647C60.7336 158.321 60.9582 158.067 61.2462 157.884C61.536 157.701 61.8747 157.609 62.2622 157.609C62.4977 157.609 62.7259 157.648 62.9469 157.726C63.1678 157.804 63.3661 157.926 63.5418 158.093C63.7175 158.259 63.8561 158.476 63.9575 158.742C64.0589 159.007 64.1096 159.328 64.1096 159.707V159.994H60.7925V159.386H63.3136C63.3136 159.172 63.2701 158.983 63.1832 158.818C63.0963 158.652 62.974 158.52 62.8165 158.424C62.6607 158.328 62.4778 158.28 62.2677 158.28C62.0395 158.28 61.8402 158.336 61.67 158.449C61.5016 158.559 61.3712 158.704 61.2788 158.883C61.1882 159.061 61.143 159.254 61.143 159.462V159.937C61.143 160.216 61.1919 160.454 61.2897 160.649C61.3893 160.845 61.5278 160.994 61.7053 161.097C61.8828 161.199 62.0902 161.25 62.3274 161.25C62.4814 161.25 62.6218 161.228 62.7485 161.184C62.8753 161.139 62.9849 161.072 63.0773 160.983C63.1696 160.895 63.2403 160.785 63.2892 160.655L64.058 160.793C63.9964 161.02 63.8859 161.218 63.7266 161.388C63.569 161.557 63.3707 161.688 63.1316 161.782C62.8943 161.874 62.6236 161.921 62.3193 161.921ZM66.9588 157.664V158.316H64.6794V157.664H66.9588ZM65.2907 156.664H66.103V160.611C66.103 160.769 66.1265 160.887 66.1736 160.967C66.2207 161.045 66.2814 161.098 66.3557 161.127C66.4317 161.155 66.5141 161.168 66.6029 161.168C66.6681 161.168 66.7251 161.164 66.774 161.155C66.8229 161.145 66.861 161.138 66.8881 161.133L67.0348 161.804C66.9877 161.822 66.9207 161.84 66.8338 161.858C66.7469 161.878 66.6382 161.889 66.5078 161.891C66.2941 161.894 66.0949 161.856 65.9101 161.777C65.7254 161.697 65.576 161.574 65.4619 161.407C65.3478 161.241 65.2907 161.031 65.2907 160.78V156.664ZM69.611 161.921C69.1998 161.921 68.8458 161.833 68.5487 161.657C68.2535 161.48 68.0253 161.231 67.8641 160.91C67.7047 160.588 67.625 160.21 67.625 159.777C67.625 159.35 67.7047 158.973 67.8641 158.647C68.0253 158.321 68.2499 158.067 68.5379 157.884C68.8276 157.701 69.1663 157.609 69.5539 157.609C69.7894 157.609 70.0176 157.648 70.2385 157.726C70.4595 157.804 70.6578 157.926 70.8335 158.093C71.0092 158.259 71.1477 158.476 71.2491 158.742C71.3506 159.007 71.4013 159.328 71.4013 159.707V159.994H68.0842V159.386H70.6053C70.6053 159.172 70.5618 158.983 70.4749 158.818C70.3879 158.652 70.2657 158.52 70.1081 158.424C69.9524 158.328 69.7694 158.28 69.5593 158.28C69.3311 158.28 69.1319 158.336 68.9617 158.449C68.7932 158.559 68.6628 158.704 68.5705 158.883C68.4799 159.061 68.4346 159.254 68.4346 159.462V159.937C68.4346 160.216 68.4835 160.454 68.5813 160.649C68.6809 160.845 68.8195 160.994 68.997 161.097C69.1745 161.199 69.3819 161.25 69.6191 161.25C69.7731 161.25 69.9134 161.228 70.0402 161.184C70.167 161.139 70.2766 161.072 70.3689 160.983C70.4613 160.895 70.5319 160.785 70.5808 160.655L71.3497 160.793C71.2881 161.02 71.1776 161.218 71.0182 161.388C70.8607 161.557 70.6623 161.688 70.4233 161.782C70.186 161.874 69.9152 161.921 69.611 161.921ZM73.8647 161.918C73.5278 161.918 73.2271 161.832 72.9627 161.66C72.7001 161.486 72.4936 161.239 72.3433 160.918C72.1948 160.596 72.1205 160.209 72.1205 159.758C72.1205 159.307 72.1957 158.921 72.346 158.601C72.4982 158.28 72.7064 158.035 72.9709 157.865C73.2353 157.694 73.535 157.609 73.8701 157.609C74.1291 157.609 74.3374 157.653 74.4949 157.74C74.6543 157.825 74.7775 157.924 74.8644 158.038C74.9532 158.153 75.022 158.253 75.0709 158.34H75.1198V156.273H75.9321V161.836H75.1388V161.187H75.0709C75.022 161.276 74.9513 161.377 74.859 161.491C74.7684 161.606 74.6435 161.705 74.4841 161.79C74.3247 161.875 74.1182 161.918 73.8647 161.918ZM74.044 161.225C74.2776 161.225 74.475 161.164 74.6362 161.04C74.7992 160.915 74.9224 160.742 75.0057 160.522C75.0908 160.301 75.1334 160.043 75.1334 159.75C75.1334 159.46 75.0917 159.207 75.0084 158.989C74.9251 158.772 74.8028 158.603 74.6416 158.481C74.4804 158.36 74.2812 158.299 74.044 158.299C73.7995 158.299 73.5957 158.363 73.4327 158.489C73.2697 158.616 73.1465 158.789 73.0632 159.008C72.9817 159.227 72.941 159.475 72.941 159.75C72.941 160.029 72.9826 160.28 73.0659 160.503C73.1493 160.725 73.2724 160.902 73.4354 161.032C73.6002 161.161 73.8031 161.225 74.044 161.225Z" fill="#121619"/>
</svg>
