<svg width="150" height="201" viewBox="0 0 150 201" fill="none" xmlns="http://www.w3.org/2000/svg">
<rect width="149.041" height="200" transform="translate(0.863281 0.84375)" fill="white"/>
<path d="M18.1494 22.4815C18.1115 22.1454 17.9553 21.8849 17.6807 21.7003C17.406 21.5133 17.0604 21.4197 16.6437 21.4197C16.3454 21.4197 16.0874 21.4671 15.8696 21.5618C15.6518 21.6541 15.4825 21.782 15.3618 21.9453C15.2434 22.1063 15.1842 22.2898 15.1842 22.4957C15.1842 22.6686 15.2245 22.8177 15.305 22.9432C15.3878 23.0687 15.4955 23.174 15.6281 23.2592C15.7631 23.3421 15.9075 23.4119 16.0613 23.4688C16.2152 23.5232 16.3632 23.5682 16.5052 23.6037L17.2155 23.7884C17.4475 23.8452 17.6854 23.9221 17.9292 24.0192C18.1731 24.1162 18.3992 24.2441 18.6075 24.4027C18.8158 24.5613 18.9839 24.7578 19.1118 24.9922C19.242 25.2266 19.3071 25.5071 19.3071 25.8338C19.3071 26.2457 19.2006 26.6115 18.9875 26.9311C18.7768 27.2507 18.4702 27.5028 18.0677 27.6875C17.6676 27.8722 17.1835 27.9645 16.6153 27.9645C16.0708 27.9645 15.5997 27.8781 15.202 27.7053C14.8042 27.5324 14.4929 27.2874 14.268 26.9702C14.0431 26.6506 13.9188 26.2718 13.8952 25.8338H14.996C15.0173 26.0966 15.1025 26.3156 15.2517 26.4908C15.4032 26.6636 15.5961 26.7926 15.8305 26.8778C16.0673 26.9607 16.3265 27.0021 16.6082 27.0021C16.9184 27.0021 17.1942 26.9536 17.4356 26.8565C17.6795 26.7571 17.8712 26.6198 18.0109 26.4446C18.1506 26.267 18.2204 26.0599 18.2204 25.8232C18.2204 25.6077 18.1589 25.4313 18.0358 25.294C17.915 25.1567 17.7505 25.0431 17.5422 24.9531C17.3362 24.8632 17.103 24.7839 16.8426 24.7152L15.9832 24.4808C15.4008 24.3222 14.9392 24.089 14.5983 23.7812C14.2597 23.4735 14.0905 23.0663 14.0905 22.5597C14.0905 22.1406 14.2041 21.7749 14.4314 21.4624C14.6586 21.1499 14.9664 20.9072 15.3547 20.7344C15.7429 20.5592 16.1809 20.4716 16.6686 20.4716C17.161 20.4716 17.5954 20.558 17.9719 20.7308C18.3506 20.9036 18.6489 21.1416 18.8667 21.4446C19.0845 21.7453 19.1982 22.0909 19.2077 22.4815H18.1494ZM22.884 27.9538C22.3466 27.9538 21.8837 27.839 21.4955 27.6094C21.1096 27.3774 20.8113 27.0518 20.6006 26.6328C20.3923 26.2114 20.2881 25.7178 20.2881 25.152C20.2881 24.5933 20.3923 24.1009 20.6006 23.6747C20.8113 23.2486 21.1048 22.916 21.4813 22.6768C21.8601 22.4377 22.3028 22.3182 22.8094 22.3182C23.1172 22.3182 23.4155 22.3691 23.7043 22.4709C23.9931 22.5727 24.2523 22.7325 24.482 22.9503C24.7116 23.1681 24.8927 23.451 25.0253 23.799C25.1579 24.1446 25.2242 24.5649 25.2242 25.0597V25.4361H20.8882V24.6406H24.1837C24.1837 24.3613 24.1269 24.1139 24.0132 23.8984C23.8996 23.6806 23.7398 23.509 23.5338 23.3835C23.3302 23.258 23.0911 23.1953 22.8165 23.1953C22.5182 23.1953 22.2578 23.2687 22.0352 23.4155C21.8151 23.5599 21.6446 23.7493 21.5239 23.9837C21.4055 24.2157 21.3463 24.4678 21.3463 24.7401V25.3615C21.3463 25.7261 21.4102 26.0362 21.5381 26.2919C21.6683 26.5476 21.8494 26.7429 22.0814 26.8778C22.3134 27.0104 22.5845 27.0767 22.8946 27.0767C23.0959 27.0767 23.2793 27.0483 23.445 26.9915C23.6108 26.9323 23.754 26.8447 23.8747 26.7287C23.9955 26.6127 24.0878 26.4695 24.1517 26.299L25.1567 26.4801C25.0762 26.776 24.9318 27.0353 24.7235 27.2578C24.5175 27.478 24.2583 27.6496 23.9458 27.7727C23.6356 27.8935 23.2817 27.9538 22.884 27.9538ZM27.464 20.571V27.8438H26.4023V20.571H27.464ZM31.2433 27.9538C30.7059 27.9538 30.2431 27.839 29.8548 27.6094C29.469 27.3774 29.1707 27.0518 28.96 26.6328C28.7516 26.2114 28.6475 25.7178 28.6475 25.152C28.6475 24.5933 28.7516 24.1009 28.96 23.6747C29.1707 23.2486 29.4642 22.916 29.8406 22.6768C30.2194 22.4377 30.6621 22.3182 31.1688 22.3182C31.4765 22.3182 31.7748 22.3691 32.0637 22.4709C32.3525 22.5727 32.6117 22.7325 32.8414 22.9503C33.071 23.1681 33.2521 23.451 33.3847 23.799C33.5173 24.1446 33.5835 24.5649 33.5835 25.0597V25.4361H29.2476V24.6406H32.5431C32.5431 24.3613 32.4862 24.1139 32.3726 23.8984C32.259 23.6806 32.0992 23.509 31.8932 23.3835C31.6896 23.258 31.4505 23.1953 31.1759 23.1953C30.8776 23.1953 30.6172 23.2687 30.3946 23.4155C30.1744 23.5599 30.004 23.7493 29.8833 23.9837C29.7649 24.2157 29.7057 24.4678 29.7057 24.7401V25.3615C29.7057 25.7261 29.7696 26.0362 29.8975 26.2919C30.0277 26.5476 30.2088 26.7429 30.4408 26.8778C30.6728 27.0104 30.9439 27.0767 31.254 27.0767C31.4552 27.0767 31.6387 27.0483 31.8044 26.9915C31.9701 26.9323 32.1134 26.8447 32.2341 26.7287C32.3548 26.6127 32.4472 26.4695 32.5111 26.299L33.5161 26.4801C33.4356 26.776 33.2912 27.0353 33.0828 27.2578C32.8769 27.478 32.6176 27.6496 32.3051 27.7727C31.995 27.8935 31.6411 27.9538 31.2433 27.9538ZM37.0592 27.9538C36.5313 27.9538 36.0767 27.8343 35.6956 27.5952C35.3168 27.3537 35.0256 27.0211 34.822 26.5973C34.6184 26.1735 34.5166 25.6882 34.5166 25.1413C34.5166 24.5874 34.6208 24.0985 34.8291 23.6747C35.0374 23.2486 35.331 22.916 35.7098 22.6768C36.0886 22.4377 36.5348 22.3182 37.0486 22.3182C37.4629 22.3182 37.8322 22.3951 38.1565 22.549C38.4809 22.7005 38.7425 22.9136 38.9413 23.1882C39.1425 23.4628 39.2621 23.7836 39.3 24.1506H38.2666C38.2098 23.8949 38.0796 23.6747 37.876 23.4901C37.6747 23.3054 37.4049 23.2131 37.0663 23.2131C36.7704 23.2131 36.5112 23.2912 36.2886 23.4474C36.0684 23.6013 35.8968 23.8215 35.7737 24.108C35.6506 24.392 35.589 24.7282 35.589 25.1165C35.589 25.5142 35.6494 25.8575 35.7702 26.1463C35.8909 26.4351 36.0613 26.6589 36.2815 26.8175C36.5041 26.9761 36.7657 27.0554 37.0663 27.0554C37.2675 27.0554 37.4498 27.0187 37.6132 26.9453C37.7789 26.8696 37.9174 26.7618 38.0287 26.6222C38.1423 26.4825 38.2216 26.3144 38.2666 26.1179H39.3C39.2621 26.4706 39.1473 26.7855 38.9555 27.0625C38.7638 27.3395 38.5069 27.5573 38.1849 27.7159C37.8653 27.8745 37.4901 27.9538 37.0592 27.9538ZM42.9816 22.3892V23.2415H40.0022V22.3892H42.9816ZM40.8012 21.0824H41.863V26.2422C41.863 26.4482 41.8938 26.6032 41.9553 26.7074C42.0169 26.8092 42.0962 26.879 42.1933 26.9169C42.2927 26.9524 42.4004 26.9702 42.5164 26.9702C42.6017 26.9702 42.6762 26.9643 42.7401 26.9524C42.8041 26.9406 42.8538 26.9311 42.8893 26.924L43.0811 27.8011C43.0195 27.8248 42.9319 27.8485 42.8183 27.8722C42.7046 27.8982 42.5626 27.9124 42.3921 27.9148C42.1128 27.9195 41.8524 27.8698 41.6109 27.7656C41.3694 27.6615 41.1741 27.5005 41.0249 27.2827C40.8758 27.0649 40.8012 26.7914 40.8012 26.4624V21.0824ZM46.8879 27.8438V20.571H49.4802C50.0436 20.571 50.5112 20.6681 50.8829 20.8622C51.257 21.0563 51.5363 21.325 51.721 21.6683C51.9056 22.0092 51.998 22.4034 51.998 22.8509C51.998 23.2959 51.9044 23.6877 51.7174 24.0263C51.5328 24.3625 51.2534 24.6241 50.8794 24.8111C50.5077 24.9981 50.0401 25.0916 49.4767 25.0916H47.5129V24.147H49.3772C49.7323 24.147 50.0212 24.0961 50.2437 23.9943C50.4686 23.8925 50.6331 23.7446 50.7373 23.5504C50.8415 23.3563 50.8936 23.1231 50.8936 22.8509C50.8936 22.5762 50.8403 22.3383 50.7338 22.1371C50.6296 21.9358 50.4651 21.782 50.2401 21.6754C50.0176 21.5665 49.7252 21.5121 49.363 21.5121H47.9852V27.8438H46.8879ZM50.4781 24.5625L52.2749 27.8438H51.0249L49.2636 24.5625H50.4781ZM53.248 27.8438V22.3892H54.3097V27.8438H53.248ZM53.7842 21.5476C53.5995 21.5476 53.4409 21.486 53.3083 21.3629C53.1781 21.2375 53.113 21.0883 53.113 20.9155C53.113 20.7403 53.1781 20.5911 53.3083 20.468C53.4409 20.3426 53.5995 20.2798 53.7842 20.2798C53.9688 20.2798 54.1263 20.3426 54.2565 20.468C54.3891 20.5911 54.4553 20.7403 54.4553 20.9155C54.4553 21.0883 54.3891 21.2375 54.2565 21.3629C54.1263 21.486 53.9688 21.5476 53.7842 21.5476ZM59.8256 23.7209L58.8632 23.8913C58.8229 23.7682 58.759 23.651 58.6714 23.5398C58.5862 23.4285 58.4702 23.3374 58.3234 23.2663C58.1766 23.1953 57.9932 23.1598 57.773 23.1598C57.4723 23.1598 57.2214 23.2273 57.0202 23.3622C56.8189 23.4948 56.7183 23.6664 56.7183 23.8771C56.7183 24.0594 56.7858 24.2062 56.9207 24.3175C57.0557 24.4287 57.2735 24.5199 57.5741 24.5909L58.4406 24.7898C58.9425 24.9058 59.3166 25.0845 59.5628 25.326C59.809 25.5675 59.9321 25.8812 59.9321 26.267C59.9321 26.5938 59.8374 26.8849 59.648 27.1406C59.461 27.3939 59.1994 27.5928 58.8632 27.7372C58.5294 27.8816 58.1423 27.9538 57.702 27.9538C57.0912 27.9538 56.5928 27.8236 56.2069 27.5632C55.8211 27.3004 55.5843 26.9276 55.4967 26.4446L56.523 26.2884C56.5869 26.5559 56.7183 26.7583 56.9172 26.8956C57.116 27.0305 57.3753 27.098 57.6949 27.098C58.0429 27.098 58.3211 27.0258 58.5294 26.8814C58.7377 26.7346 58.8419 26.5559 58.8419 26.3452C58.8419 26.1747 58.778 26.0315 58.6501 25.9155C58.5247 25.7995 58.3317 25.7119 58.0713 25.6527L57.148 25.4503C56.639 25.3343 56.2626 25.1496 56.0187 24.8963C55.7773 24.643 55.6565 24.3222 55.6565 23.9339C55.6565 23.612 55.7465 23.3303 55.9264 23.0888C56.1063 22.8473 56.3549 22.6591 56.6721 22.5241C56.9894 22.3868 57.3528 22.3182 57.7623 22.3182C58.3518 22.3182 58.8158 22.446 59.1544 22.7017C59.4929 22.955 59.7166 23.2947 59.8256 23.7209ZM62.0761 25.9936L62.069 24.6974H62.2536L64.4269 22.3892H65.6982L63.2195 25.017H63.0526L62.0761 25.9936ZM61.0995 27.8438V20.571H62.1613V27.8438H61.0995ZM64.5441 27.8438L62.591 25.2514L63.3225 24.5092L65.8474 27.8438H64.5441ZM70.7533 23.7209L69.7909 23.8913C69.7507 23.7682 69.6868 23.651 69.5992 23.5398C69.5139 23.4285 69.3979 23.3374 69.2512 23.2663C69.1044 23.1953 68.9209 23.1598 68.7007 23.1598C68.4001 23.1598 68.1491 23.2273 67.9479 23.3622C67.7467 23.4948 67.646 23.6664 67.646 23.8771C67.646 24.0594 67.7135 24.2062 67.8485 24.3175C67.9834 24.4287 68.2012 24.5199 68.5019 24.5909L69.3683 24.7898C69.8702 24.9058 70.2443 25.0845 70.4905 25.326C70.7367 25.5675 70.8598 25.8812 70.8598 26.267C70.8598 26.5938 70.7651 26.8849 70.5757 27.1406C70.3887 27.3939 70.1271 27.5928 69.7909 27.7372C69.4571 27.8816 69.07 27.9538 68.6297 27.9538C68.0189 27.9538 67.5206 27.8236 67.1347 27.5632C66.7488 27.3004 66.512 26.9276 66.4244 26.4446L67.4507 26.2884C67.5146 26.5559 67.646 26.7583 67.8449 26.8956C68.0438 27.0305 68.303 27.098 68.6226 27.098C68.9706 27.098 69.2488 27.0258 69.4571 26.8814C69.6655 26.7346 69.7696 26.5559 69.7696 26.3452C69.7696 26.1747 69.7057 26.0315 69.5779 25.9155C69.4524 25.7995 69.2594 25.7119 68.999 25.6527L68.0757 25.4503C67.5667 25.3343 67.1903 25.1496 66.9465 24.8963C66.705 24.643 66.5843 24.3222 66.5843 23.9339C66.5843 23.612 66.6742 23.3303 66.8541 23.0888C67.0341 22.8473 67.2826 22.6591 67.5999 22.5241C67.9171 22.3868 68.2805 22.3182 68.6901 22.3182C69.2796 22.3182 69.7436 22.446 70.0821 22.7017C70.4207 22.955 70.6444 23.2947 70.7533 23.7209ZM77.2199 22.3892V23.2415H74.2405V22.3892H77.2199ZM75.0395 21.0824H76.1013V26.2422C76.1013 26.4482 76.1321 26.6032 76.1936 26.7074C76.2552 26.8092 76.3345 26.879 76.4316 26.9169C76.531 26.9524 76.6387 26.9702 76.7547 26.9702C76.8399 26.9702 76.9145 26.9643 76.9784 26.9524C77.0423 26.9406 77.0921 26.9311 77.1276 26.924L77.3193 27.8011C77.2578 27.8248 77.1702 27.8485 77.0566 27.8722C76.9429 27.8982 76.8009 27.9124 76.6304 27.9148C76.3511 27.9195 76.0906 27.8698 75.8492 27.7656C75.6077 27.6615 75.4124 27.5005 75.2632 27.2827C75.1141 27.0649 75.0395 26.7914 75.0395 26.4624V21.0824ZM80.6334 27.9538C80.1221 27.9538 79.6758 27.8366 79.2947 27.6023C78.9135 27.3679 78.6176 27.04 78.4069 26.6186C78.1962 26.1972 78.0908 25.7048 78.0908 25.1413C78.0908 24.5755 78.1962 24.0807 78.4069 23.657C78.6176 23.2332 78.9135 22.9041 79.2947 22.6697C79.6758 22.4354 80.1221 22.3182 80.6334 22.3182C81.1448 22.3182 81.5911 22.4354 81.9722 22.6697C82.3534 22.9041 82.6493 23.2332 82.86 23.657C83.0707 24.0807 83.176 24.5755 83.176 25.1413C83.176 25.7048 83.0707 26.1972 82.86 26.6186C82.6493 27.04 82.3534 27.3679 81.9722 27.6023C81.5911 27.8366 81.1448 27.9538 80.6334 27.9538ZM80.637 27.0625C80.9684 27.0625 81.243 26.9749 81.4608 26.7997C81.6787 26.6245 81.8396 26.3913 81.9438 26.1001C82.0503 25.8089 82.1036 25.4882 82.1036 25.1378C82.1036 24.7898 82.0503 24.4702 81.9438 24.179C81.8396 23.8854 81.6787 23.6499 81.4608 23.4723C81.243 23.2947 80.9684 23.206 80.637 23.206C80.3032 23.206 80.0262 23.2947 79.806 23.4723C79.5882 23.6499 79.426 23.8854 79.3195 24.179C79.2153 24.4702 79.1633 24.7898 79.1633 25.1378C79.1633 25.4882 79.2153 25.8089 79.3195 26.1001C79.426 26.3913 79.5882 26.6245 79.806 26.7997C80.0262 26.9749 80.3032 27.0625 80.637 27.0625ZM87.093 27.8438V20.571H89.6853C90.2487 20.571 90.7163 20.6681 91.088 20.8622C91.462 21.0563 91.7414 21.325 91.926 21.6683C92.1107 22.0092 92.203 22.4034 92.203 22.8509C92.203 23.2959 92.1095 23.6877 91.9225 24.0263C91.7378 24.3625 91.4585 24.6241 91.0844 24.8111C90.7127 24.9981 90.2452 25.0916 89.6817 25.0916H87.718V24.147H89.5823C89.9374 24.147 90.2262 24.0961 90.4488 23.9943C90.6737 23.8925 90.8382 23.7446 90.9424 23.5504C91.0465 23.3563 91.0986 23.1231 91.0986 22.8509C91.0986 22.5762 91.0454 22.3383 90.9388 22.1371C90.8347 21.9358 90.6701 21.782 90.4452 21.6754C90.2227 21.5665 89.9303 21.5121 89.5681 21.5121H88.1903V27.8438H87.093ZM90.6831 24.5625L92.48 27.8438H91.23L89.4687 24.5625H90.6831ZM95.7355 27.9538C95.1981 27.9538 94.7353 27.839 94.347 27.6094C93.9611 27.3774 93.6628 27.0518 93.4521 26.6328C93.2438 26.2114 93.1396 25.7178 93.1396 25.152C93.1396 24.5933 93.2438 24.1009 93.4521 23.6747C93.6628 23.2486 93.9564 22.916 94.3328 22.6768C94.7116 22.4377 95.1543 22.3182 95.661 22.3182C95.9687 22.3182 96.267 22.3691 96.5558 22.4709C96.8447 22.5727 97.1039 22.7325 97.3335 22.9503C97.5632 23.1681 97.7443 23.451 97.8769 23.799C98.0094 24.1446 98.0757 24.5649 98.0757 25.0597V25.4361H93.7398V24.6406H97.0352C97.0352 24.3613 96.9784 24.1139 96.8648 23.8984C96.7512 23.6806 96.5914 23.509 96.3854 23.3835C96.1818 23.258 95.9427 23.1953 95.6681 23.1953C95.3698 23.1953 95.1093 23.2687 94.8868 23.4155C94.6666 23.5599 94.4962 23.7493 94.3754 23.9837C94.2571 24.2157 94.1979 24.4678 94.1979 24.7401V25.3615C94.1979 25.7261 94.2618 26.0362 94.3896 26.2919C94.5199 26.5476 94.701 26.7429 94.933 26.8778C95.165 27.0104 95.436 27.0767 95.7462 27.0767C95.9474 27.0767 96.1309 27.0483 96.2966 26.9915C96.4623 26.9323 96.6056 26.8447 96.7263 26.7287C96.847 26.6127 96.9394 26.4695 97.0033 26.299L98.0083 26.4801C97.9278 26.776 97.7834 27.0353 97.575 27.2578C97.3691 27.478 97.1098 27.6496 96.7973 27.7727C96.4872 27.8935 96.1333 27.9538 95.7355 27.9538ZM99.2538 27.8438V22.3892H100.273V23.277H100.34C100.454 22.9763 100.64 22.742 100.898 22.5739C101.156 22.4034 101.465 22.3182 101.825 22.3182C102.189 22.3182 102.495 22.4034 102.741 22.5739C102.99 22.7443 103.173 22.9787 103.291 23.277H103.348C103.478 22.9858 103.686 22.7538 103.97 22.581C104.254 22.4058 104.592 22.3182 104.985 22.3182C105.48 22.3182 105.884 22.4732 106.196 22.7834C106.511 23.0935 106.669 23.5611 106.669 24.1861V27.8438H105.607V24.2855C105.607 23.9162 105.506 23.6487 105.305 23.483C105.104 23.3172 104.863 23.2344 104.584 23.2344C104.238 23.2344 103.97 23.3409 103.778 23.554C103.586 23.7647 103.49 24.0357 103.49 24.3672V27.8438H102.432V24.218C102.432 23.9221 102.34 23.6842 102.155 23.5043C101.97 23.3243 101.73 23.2344 101.434 23.2344C101.233 23.2344 101.047 23.2876 100.877 23.3942C100.709 23.4983 100.572 23.6439 100.468 23.831C100.367 24.018 100.316 24.2346 100.316 24.4808V27.8438H99.2538ZM110.443 27.9538C109.905 27.9538 109.442 27.839 109.054 27.6094C108.668 27.3774 108.37 27.0518 108.159 26.6328C107.951 26.2114 107.847 25.7178 107.847 25.152C107.847 24.5933 107.951 24.1009 108.159 23.6747C108.37 23.2486 108.663 22.916 109.04 22.6768C109.419 22.4377 109.861 22.3182 110.368 22.3182C110.676 22.3182 110.974 22.3691 111.263 22.4709C111.552 22.5727 111.811 22.7325 112.041 22.9503C112.27 23.1681 112.451 23.451 112.584 23.799C112.716 24.1446 112.783 24.5649 112.783 25.0597V25.4361H108.447V24.6406H111.742C111.742 24.3613 111.685 24.1139 111.572 23.8984C111.458 23.6806 111.298 23.509 111.092 23.3835C110.889 23.258 110.65 23.1953 110.375 23.1953C110.077 23.1953 109.816 23.2687 109.594 23.4155C109.374 23.5599 109.203 23.7493 109.082 23.9837C108.964 24.2157 108.905 24.4678 108.905 24.7401V25.3615C108.905 25.7261 108.969 26.0362 109.097 26.2919C109.227 26.5476 109.408 26.7429 109.64 26.8778C109.872 27.0104 110.143 27.0767 110.453 27.0767C110.654 27.0767 110.838 27.0483 111.004 26.9915C111.169 26.9323 111.313 26.8447 111.433 26.7287C111.554 26.6127 111.646 26.4695 111.71 26.299L112.715 26.4801C112.635 26.776 112.49 27.0353 112.282 27.2578C112.076 27.478 111.817 27.6496 111.504 27.7727C111.194 27.8935 110.84 27.9538 110.443 27.9538ZM116.003 27.9503C115.562 27.9503 115.169 27.8378 114.824 27.6129C114.48 27.3857 114.211 27.0625 114.014 26.6435C113.82 26.2221 113.723 25.7166 113.723 25.1271C113.723 24.5376 113.821 24.0334 114.018 23.6143C114.217 23.1953 114.489 22.8745 114.834 22.652C115.18 22.4295 115.572 22.3182 116.01 22.3182C116.348 22.3182 116.621 22.375 116.827 22.4886C117.035 22.5999 117.196 22.7301 117.31 22.8793C117.426 23.0284 117.516 23.1598 117.579 23.2734H117.643V20.571H118.705V27.8438H117.668V26.995H117.579C117.516 27.111 117.423 27.2436 117.302 27.3928C117.184 27.5419 117.021 27.6721 116.812 27.7834C116.604 27.8946 116.334 27.9503 116.003 27.9503ZM116.237 27.0447C116.543 27.0447 116.801 26.9643 117.011 26.8033C117.224 26.6399 117.385 26.4138 117.494 26.125C117.605 25.8362 117.661 25.5 117.661 25.1165C117.661 24.7377 117.607 24.4062 117.498 24.1222C117.389 23.8381 117.229 23.6167 117.018 23.4581C116.808 23.2995 116.547 23.2202 116.237 23.2202C115.918 23.2202 115.651 23.303 115.438 23.4688C115.225 23.6345 115.064 23.8606 114.955 24.147C114.849 24.4335 114.795 24.7566 114.795 25.1165C114.795 25.4811 114.85 25.8089 114.959 26.1001C115.068 26.3913 115.229 26.6222 115.442 26.7926C115.657 26.9607 115.922 27.0447 116.237 27.0447ZM120.221 27.8438V22.3892H121.282V27.8438H120.221ZM120.757 21.5476C120.572 21.5476 120.414 21.486 120.281 21.3629C120.151 21.2375 120.086 21.0883 120.086 20.9155C120.086 20.7403 120.151 20.5911 120.281 20.468C120.414 20.3426 120.572 20.2798 120.757 20.2798C120.941 20.2798 121.099 20.3426 121.229 20.468C121.362 20.5911 121.428 20.7403 121.428 20.9155C121.428 21.0883 121.362 21.2375 121.229 21.3629C121.099 21.486 120.941 21.5476 120.757 21.5476ZM124.298 27.9645C123.953 27.9645 123.64 27.9006 123.361 27.7727C123.081 27.6425 122.86 27.4543 122.697 27.2081C122.536 26.9619 122.455 26.66 122.455 26.3026C122.455 25.9948 122.514 25.7415 122.633 25.5426C122.751 25.3437 122.911 25.1863 123.112 25.0703C123.313 24.9543 123.538 24.8667 123.787 24.8075C124.035 24.7483 124.289 24.7034 124.547 24.6726C124.873 24.6347 125.139 24.6039 125.342 24.5803C125.546 24.5542 125.694 24.5128 125.786 24.456C125.878 24.3991 125.925 24.3068 125.925 24.179V24.1541C125.925 23.844 125.837 23.6037 125.662 23.4332C125.489 23.2628 125.231 23.1776 124.888 23.1776C124.53 23.1776 124.248 23.2569 124.043 23.4155C123.839 23.5717 123.698 23.7457 123.62 23.9375L122.622 23.7102C122.74 23.3788 122.913 23.1113 123.141 22.9077C123.37 22.7017 123.634 22.5526 123.932 22.4602C124.231 22.3655 124.544 22.3182 124.873 22.3182C125.091 22.3182 125.322 22.3442 125.566 22.3963C125.812 22.446 126.042 22.5384 126.255 22.6733C126.47 22.8082 126.647 23.0012 126.784 23.2521C126.921 23.5007 126.99 23.8239 126.99 24.2216V27.8438H125.953V27.098H125.91C125.842 27.2353 125.739 27.3703 125.601 27.5028C125.464 27.6354 125.288 27.7455 125.072 27.8331C124.857 27.9207 124.599 27.9645 124.298 27.9645ZM124.529 27.1122C124.823 27.1122 125.074 27.0542 125.282 26.9382C125.493 26.8222 125.652 26.6707 125.761 26.4837C125.873 26.2943 125.928 26.0919 125.928 25.8764V25.1733C125.89 25.2112 125.817 25.2467 125.708 25.2798C125.601 25.3106 125.48 25.3378 125.342 25.3615C125.205 25.3828 125.071 25.4029 124.941 25.4219C124.811 25.4384 124.702 25.4527 124.614 25.4645C124.408 25.4905 124.22 25.5343 124.05 25.5959C123.882 25.6574 123.747 25.7462 123.645 25.8622C123.545 25.9759 123.496 26.1274 123.496 26.3168C123.496 26.5795 123.593 26.7784 123.787 26.9134C123.981 27.0459 124.228 27.1122 124.529 27.1122ZM130.95 22.3892V23.2415H127.971V22.3892H130.95ZM128.77 21.0824H129.832V26.2422C129.832 26.4482 129.863 26.6032 129.924 26.7074C129.986 26.8092 130.065 26.879 130.162 26.9169C130.261 26.9524 130.369 26.9702 130.485 26.9702C130.57 26.9702 130.645 26.9643 130.709 26.9524C130.773 26.9406 130.823 26.9311 130.858 26.924L131.05 27.8011C130.988 27.8248 130.901 27.8485 130.787 27.8722C130.673 27.8982 130.531 27.9124 130.361 27.9148C130.082 27.9195 129.821 27.8698 129.58 27.7656C129.338 27.6615 129.143 27.5005 128.994 27.2827C128.845 27.0649 128.77 26.7914 128.77 26.4624V21.0824ZM134.417 27.9538C133.88 27.9538 133.417 27.839 133.029 27.6094C132.643 27.3774 132.344 27.0518 132.134 26.6328C131.925 26.2114 131.821 25.7178 131.821 25.152C131.821 24.5933 131.925 24.1009 132.134 23.6747C132.344 23.2486 132.638 22.916 133.014 22.6768C133.393 22.4377 133.836 22.3182 134.343 22.3182C134.65 22.3182 134.949 22.3691 135.237 22.4709C135.526 22.5727 135.786 22.7325 136.015 22.9503C136.245 23.1681 136.426 23.451 136.559 23.799C136.691 24.1446 136.757 24.5649 136.757 25.0597V25.4361H132.421V24.6406H135.717C135.717 24.3613 135.66 24.1139 135.546 23.8984C135.433 23.6806 135.273 23.509 135.067 23.3835C134.863 23.258 134.624 23.1953 134.35 23.1953C134.051 23.1953 133.791 23.2687 133.568 23.4155C133.348 23.5599 133.178 23.7493 133.057 23.9837C132.939 24.2157 132.88 24.4678 132.88 24.7401V25.3615C132.88 25.7261 132.943 26.0362 133.071 26.2919C133.201 26.5476 133.383 26.7429 133.615 26.8778C133.847 27.0104 134.118 27.0767 134.428 27.0767C134.629 27.0767 134.813 27.0483 134.978 26.9915C135.144 26.9323 135.287 26.8447 135.408 26.7287C135.529 26.6127 135.621 26.4695 135.685 26.299L136.69 26.4801C136.609 26.776 136.465 27.0353 136.257 27.2578C136.051 27.478 135.791 27.6496 135.479 27.7727C135.169 27.8935 134.815 27.9538 134.417 27.9538Z" fill="#121619"/>
<path d="M14.143 47.4051L15.2141 50.5396H15.2573L16.3284 47.4051H16.9561L15.5711 51.2537H14.9003L13.5153 47.4051H14.143ZM18.8624 51.3119C18.578 51.3119 18.3331 51.2512 18.1276 51.1296C17.9234 51.0069 17.7655 50.8346 17.654 50.6129C17.5438 50.3899 17.4887 50.1287 17.4887 49.8293C17.4887 49.5336 17.5438 49.273 17.654 49.0475C17.7655 48.822 17.9209 48.646 18.1201 48.5195C18.3205 48.3929 18.5548 48.3297 18.8229 48.3297C18.9858 48.3297 19.1436 48.3566 19.2964 48.4105C19.4493 48.4643 19.5865 48.5489 19.708 48.6642C19.8295 48.7794 19.9253 48.9291 19.9955 49.1133C20.0656 49.2962 20.1007 49.5186 20.1007 49.7804V49.9796H17.8063V49.5587H19.5501C19.5501 49.4108 19.5201 49.2799 19.4599 49.1659C19.3998 49.0506 19.3152 48.9598 19.2062 48.8934C19.0985 48.827 18.972 48.7938 18.8266 48.7938C18.6688 48.7938 18.531 48.8327 18.4132 48.9103C18.2967 48.9868 18.2065 49.087 18.1426 49.211C18.08 49.3338 18.0487 49.4672 18.0487 49.6113V49.9401C18.0487 50.1331 18.0825 50.2972 18.1501 50.4325C18.2191 50.5678 18.3149 50.6711 18.4377 50.7425C18.5604 50.8127 18.7039 50.8478 18.868 50.8478C18.9745 50.8478 19.0716 50.8327 19.1593 50.8027C19.247 50.7713 19.3227 50.725 19.3866 50.6636C19.4505 50.6022 19.4994 50.5264 19.5332 50.4362L20.065 50.5321C20.0224 50.6887 19.946 50.8258 19.8358 50.9436C19.7268 51.0601 19.5896 51.1509 19.4242 51.2161C19.2601 51.28 19.0728 51.3119 18.8624 51.3119ZM21.727 49.5399V51.2537H21.1651V48.3673H21.7044V48.837H21.7401C21.8065 48.6842 21.9105 48.5614 22.0521 48.4687C22.1949 48.376 22.3747 48.3297 22.5914 48.3297C22.7881 48.3297 22.9604 48.371 23.1082 48.4537C23.256 48.5351 23.3706 48.6566 23.4521 48.8183C23.5335 48.9799 23.5742 49.1797 23.5742 49.4177V51.2537H23.0123V49.4854C23.0123 49.2761 22.9578 49.1127 22.8489 48.9949C22.7399 48.8759 22.5902 48.8164 22.3997 48.8164C22.2694 48.8164 22.1536 48.8446 22.0521 48.9009C21.9519 48.9573 21.8723 49.04 21.8134 49.149C21.7558 49.2567 21.727 49.387 21.727 49.5399ZM25.8493 51.31C25.6162 51.31 25.4083 51.2505 25.2254 51.1315C25.0437 51.0112 24.9009 50.8402 24.7969 50.6185C24.6942 50.3955 24.6428 50.128 24.6428 49.8161C24.6428 49.5042 24.6948 49.2373 24.7988 49.0156C24.904 48.7938 25.0481 48.6241 25.231 48.5063C25.4139 48.3886 25.6213 48.3297 25.853 48.3297C26.0322 48.3297 26.1762 48.3597 26.2852 48.4199C26.3955 48.4788 26.4807 48.5477 26.5408 48.6266C26.6022 48.7055 26.6498 48.775 26.6836 48.8352H26.7174V47.4051H27.2793V51.2537H26.7306V50.8045H26.6836C26.6498 50.8659 26.6009 50.9361 26.537 51.015C26.4744 51.0939 26.388 51.1628 26.2777 51.2217C26.1675 51.2806 26.0247 51.31 25.8493 51.31ZM25.9733 50.8308C26.1349 50.8308 26.2715 50.7883 26.3829 50.7031C26.4957 50.6166 26.5809 50.497 26.6385 50.3441C26.6974 50.1913 26.7268 50.0134 26.7268 49.8105C26.7268 49.61 26.698 49.4346 26.6404 49.2843C26.5828 49.134 26.4982 49.0168 26.3867 48.9329C26.2752 48.849 26.1374 48.807 25.9733 48.807C25.8042 48.807 25.6632 48.8508 25.5505 48.9385C25.4377 49.0262 25.3525 49.1459 25.2949 49.2974C25.2385 49.449 25.2103 49.62 25.2103 49.8105C25.2103 50.0034 25.2392 50.1769 25.2968 50.331C25.3544 50.4851 25.4396 50.6072 25.5524 50.6974C25.6664 50.7864 25.8067 50.8308 25.9733 50.8308ZM29.738 51.3119C29.4674 51.3119 29.2313 51.2499 29.0296 51.1259C28.8279 51.0019 28.6713 50.8283 28.5598 50.6053C28.4483 50.3824 28.3926 50.1218 28.3926 49.8236C28.3926 49.5242 28.4483 49.2624 28.5598 49.0381C28.6713 48.8139 28.8279 48.6397 29.0296 48.5157C29.2313 48.3917 29.4674 48.3297 29.738 48.3297C30.0086 48.3297 30.2448 48.3917 30.4465 48.5157C30.6482 48.6397 30.8048 48.8139 30.9163 49.0381C31.0278 49.2624 31.0835 49.5242 31.0835 49.8236C31.0835 50.1218 31.0278 50.3824 30.9163 50.6053C30.8048 50.8283 30.6482 51.0019 30.4465 51.1259C30.2448 51.2499 30.0086 51.3119 29.738 51.3119ZM29.7399 50.8402C29.9153 50.8402 30.0606 50.7939 30.1759 50.7012C30.2912 50.6085 30.3763 50.4851 30.4315 50.331C30.4878 50.1769 30.516 50.0071 30.516 49.8217C30.516 49.6376 30.4878 49.4685 30.4315 49.3144C30.3763 49.159 30.2912 49.0344 30.1759 48.9404C30.0606 48.8464 29.9153 48.7995 29.7399 48.7995C29.5633 48.7995 29.4167 48.8464 29.3002 48.9404C29.1849 49.0344 29.0991 49.159 29.0428 49.3144C28.9876 49.4685 28.9601 49.6376 28.9601 49.8217C28.9601 50.0071 28.9876 50.1769 29.0428 50.331C29.0991 50.4851 29.1849 50.6085 29.3002 50.7012C29.4167 50.7939 29.5633 50.8402 29.7399 50.8402ZM32.1517 51.2537V48.3673H32.6948V48.8258H32.7248C32.7775 48.6704 32.8702 48.5483 33.003 48.4593C33.137 48.3691 33.2886 48.324 33.4577 48.324C33.4928 48.324 33.5341 48.3253 33.5817 48.3278C33.6306 48.3303 33.6688 48.3334 33.6964 48.3372V48.8746C33.6738 48.8684 33.6337 48.8615 33.5761 48.854C33.5185 48.8452 33.4608 48.8408 33.4032 48.8408C33.2704 48.8408 33.152 48.869 33.0481 48.9254C32.9453 48.9805 32.8639 49.0575 32.8038 49.1565C32.7436 49.2542 32.7136 49.3657 32.7136 49.491V51.2537H32.1517Z" fill="#878D96"/>
<path d="M63.9056 50.3431C63.8856 50.1652 63.8029 50.0274 63.6576 49.9297C63.5123 49.8307 63.3294 49.7812 63.1089 49.7812C62.951 49.7812 62.8145 49.8063 62.6992 49.8564C62.584 49.9053 62.4944 49.9729 62.4305 50.0594C62.3678 50.1446 62.3365 50.2416 62.3365 50.3506C62.3365 50.4421 62.3578 50.521 62.4004 50.5874C62.4443 50.6538 62.5013 50.7096 62.5714 50.7547C62.6428 50.7985 62.7193 50.8355 62.8007 50.8655C62.8821 50.8943 62.9604 50.9181 63.0356 50.9369L63.4114 51.0347C63.5342 51.0647 63.6601 51.1054 63.7891 51.1568C63.9182 51.2082 64.0378 51.2758 64.148 51.3597C64.2583 51.4437 64.3472 51.5477 64.4149 51.6717C64.4838 51.7957 64.5182 51.9442 64.5182 52.1171C64.5182 52.335 64.4619 52.5286 64.3491 52.6977C64.2376 52.8668 64.0754 53.0003 63.8624 53.098C63.6507 53.1957 63.3945 53.2446 63.0938 53.2446C62.8057 53.2446 62.5564 53.1988 62.3459 53.1074C62.1355 53.0159 61.9707 52.8863 61.8517 52.7184C61.7327 52.5493 61.6669 52.3488 61.6544 52.1171H62.2369C62.2482 52.2561 62.2933 52.372 62.3722 52.4647C62.4524 52.5562 62.5545 52.6244 62.6785 52.6695C62.8038 52.7134 62.941 52.7353 63.0901 52.7353C63.2542 52.7353 63.4001 52.7096 63.5279 52.6583C63.657 52.6056 63.7584 52.533 63.8323 52.4403C63.9063 52.3463 63.9432 52.2367 63.9432 52.1114C63.9432 51.9974 63.9106 51.9041 63.8455 51.8314C63.7816 51.7588 63.6945 51.6986 63.5843 51.651C63.4753 51.6034 63.3519 51.5614 63.2141 51.5251L62.7593 51.4011C62.4512 51.3172 62.2069 51.1938 62.0265 51.0309C61.8473 50.868 61.7577 50.6526 61.7577 50.3845C61.7577 50.1627 61.8179 49.9692 61.9381 49.8038C62.0584 49.6384 62.2213 49.51 62.4267 49.4186C62.6322 49.3259 62.8639 49.2795 63.122 49.2795C63.3826 49.2795 63.6125 49.3252 63.8117 49.4167C64.0121 49.5081 64.17 49.634 64.2852 49.7944C64.4005 49.9535 64.4606 50.1364 64.4656 50.3431H63.9056ZM66.8238 53.2389C66.5445 53.2389 66.3039 53.1757 66.1022 53.0491C65.9018 52.9213 65.7477 52.7453 65.64 52.5211C65.5322 52.2968 65.4783 52.04 65.4783 51.7506C65.4783 51.4575 65.5335 51.1988 65.6437 50.9745C65.754 50.749 65.9093 50.573 66.1097 50.4465C66.3102 50.3199 66.5463 50.2567 66.8182 50.2567C67.0374 50.2567 67.2329 50.2974 67.4045 50.3788C67.5761 50.459 67.7146 50.5717 67.8198 50.7171C67.9263 50.8624 67.9895 51.0321 68.0096 51.2263H67.4627C67.4327 51.091 67.3638 50.9745 67.256 50.8768C67.1496 50.7791 67.0067 50.7302 66.8276 50.7302C66.671 50.7302 66.5338 50.7716 66.416 50.8543C66.2995 50.9357 66.2087 51.0522 66.1436 51.2038C66.0784 51.3541 66.0459 51.532 66.0459 51.7375C66.0459 51.9479 66.0778 52.1296 66.1417 52.2824C66.2056 52.4353 66.2958 52.5536 66.4123 52.6376C66.5301 52.7215 66.6685 52.7635 66.8276 52.7635C66.9341 52.7635 67.0305 52.7441 67.117 52.7052C67.2047 52.6651 67.278 52.6081 67.3368 52.5342C67.397 52.4603 67.4389 52.3714 67.4627 52.2674H68.0096C67.9895 52.4541 67.9288 52.6207 67.8273 52.7672C67.7258 52.9138 67.5899 53.0291 67.4195 53.113C67.2504 53.197 67.0518 53.2389 66.8238 53.2389ZM70.2673 53.2389C69.9967 53.2389 69.7605 53.1769 69.5588 53.0529C69.3571 52.9289 69.2005 52.7553 69.089 52.5324C68.9775 52.3094 68.9218 52.0488 68.9218 51.7506C68.9218 51.4512 68.9775 51.1894 69.089 50.9651C69.2005 50.7409 69.3571 50.5667 69.5588 50.4427C69.7605 50.3187 69.9967 50.2567 70.2673 50.2567C70.5379 50.2567 70.774 50.3187 70.9757 50.4427C71.1774 50.5667 71.334 50.7409 71.4455 50.9651C71.557 51.1894 71.6127 51.4512 71.6127 51.7506C71.6127 52.0488 71.557 52.3094 71.4455 52.5324C71.334 52.7553 71.1774 52.9289 70.9757 53.0529C70.774 53.1769 70.5379 53.2389 70.2673 53.2389ZM70.2691 52.7672C70.4445 52.7672 70.5898 52.7209 70.7051 52.6282C70.8204 52.5355 70.9055 52.4121 70.9607 52.258C71.017 52.1039 71.0452 51.9341 71.0452 51.7487C71.0452 51.5646 71.017 51.3955 70.9607 51.2414C70.9055 51.086 70.8204 50.9614 70.7051 50.8674C70.5898 50.7734 70.4445 50.7265 70.2691 50.7265C70.0925 50.7265 69.9459 50.7734 69.8294 50.8674C69.7141 50.9614 69.6283 51.086 69.572 51.2414C69.5168 51.3955 69.4893 51.5646 69.4893 51.7487C69.4893 51.9341 69.5168 52.1039 69.572 52.258C69.6283 52.4121 69.7141 52.5355 69.8294 52.6282C69.9459 52.7209 70.0925 52.7672 70.2691 52.7672ZM72.6809 53.1807V50.2943H73.224V50.7528H73.254C73.3067 50.5974 73.3994 50.4753 73.5322 50.3863C73.6662 50.2961 73.8178 50.251 73.9869 50.251C74.022 50.251 74.0633 50.2523 74.1109 50.2548C74.1598 50.2573 74.198 50.2604 74.2256 50.2642V50.8016C74.203 50.7954 74.1629 50.7885 74.1053 50.781C74.0477 50.7722 73.99 50.7678 73.9324 50.7678C73.7996 50.7678 73.6812 50.796 73.5773 50.8524C73.4745 50.9075 73.3931 50.9845 73.333 51.0835C73.2728 51.1812 73.2428 51.2927 73.2428 51.418V53.1807H72.6809ZM76.2934 53.2389C76.0091 53.2389 75.7641 53.1782 75.5587 53.0566C75.3545 52.9339 75.1966 52.7616 75.0851 52.5399C74.9749 52.3169 74.9198 52.0557 74.9198 51.7563C74.9198 51.4606 74.9749 51.2 75.0851 50.9745C75.1966 50.749 75.352 50.573 75.5512 50.4465C75.7516 50.3199 75.9859 50.2567 76.254 50.2567C76.4168 50.2567 76.5747 50.2836 76.7275 50.3375C76.8804 50.3913 77.0175 50.4759 77.1391 50.5912C77.2606 50.7064 77.3564 50.8561 77.4266 51.0403C77.4967 51.2232 77.5318 51.4456 77.5318 51.7074V51.9066H75.2373V51.4857H76.9812C76.9812 51.3378 76.9511 51.2069 76.891 51.0929C76.8309 50.9777 76.7463 50.8868 76.6373 50.8204C76.5296 50.754 76.4031 50.7208 76.2577 50.7208C76.0999 50.7208 75.9621 50.7597 75.8443 50.8373C75.7278 50.9138 75.6376 51.014 75.5737 51.138C75.5111 51.2608 75.4798 51.3942 75.4798 51.5383V51.8671C75.4798 52.0601 75.5136 52.2242 75.5812 52.3595C75.6501 52.4948 75.746 52.5981 75.8687 52.6695C75.9915 52.7397 76.135 52.7748 76.2991 52.7748C76.4056 52.7748 76.5027 52.7597 76.5903 52.7297C76.678 52.6983 76.7538 52.652 76.8177 52.5906C76.8816 52.5292 76.9305 52.4534 76.9643 52.3632L77.4961 52.4591C77.4535 52.6157 77.3771 52.7528 77.2668 52.8706C77.1579 52.9871 77.0207 53.0779 76.8553 53.1431C76.6912 53.207 76.5039 53.2389 76.2934 53.2389Z" fill="#878D96"/>
<rect x="13.603" y="72.1054" width="8.32829" height="8.32829" rx="2.84915" fill="#F3F7FC"/>
<path d="M15.895 76.3951L15.7412 76.5489L15.895 76.3951C15.8836 76.3837 15.8803 76.3722 15.8803 76.3631C15.8803 76.3539 15.8836 76.3424 15.895 76.331C15.9064 76.3196 15.9179 76.3163 15.9271 76.3163C15.9362 76.3163 15.9477 76.3196 15.9591 76.331L15.9596 76.3315L16.9414 77.3075L17.0962 77.4613L17.2507 77.3072L19.5826 74.9811L19.5828 74.9809C19.5943 74.9695 19.6057 74.9662 19.6149 74.9662C19.6241 74.9662 19.6355 74.9695 19.6469 74.9809C19.6583 74.9924 19.6616 75.0038 19.6616 75.013C19.6616 75.0222 19.6584 75.0336 19.647 75.045C19.647 75.045 19.647 75.045 19.6469 75.045L17.133 77.5531C17.1161 77.5674 17.1045 77.5699 17.0901 77.5699C17.0796 77.5699 17.0737 77.5682 17.0706 77.567C17.0678 77.5659 17.0637 77.5638 17.058 77.5581L15.895 76.3951Z" fill="#1757C2" stroke="#1757C2" stroke-width="0.438331"/>
<rect x="13.603" y="72.1054" width="8.32829" height="8.32829" rx="2.84915" stroke="#1757C2" stroke-width="0.438331"/>
<circle cx="41.8576" cy="76.2697" r="5.25997" fill="#EF4E3E"/>
<path d="M39.5516 74.4392V75.9436C39.5516 76.1031 39.5437 76.26 39.5279 76.4143C39.5121 76.5669 39.492 76.7291 39.4674 76.9009H39.0256C39.001 76.7291 38.9809 76.5669 38.9651 76.4143C38.9493 76.26 38.9414 76.1031 38.9414 75.9436V74.4392H39.5516ZM38.8389 77.8845C38.8389 77.8301 38.8485 77.7784 38.8678 77.7293C38.8888 77.6802 38.9169 77.6381 38.952 77.6031C38.9888 77.568 39.0317 77.54 39.0808 77.5189C39.1299 77.4979 39.1825 77.4874 39.2386 77.4874C39.293 77.4874 39.3447 77.4979 39.3938 77.5189C39.4429 77.54 39.485 77.568 39.52 77.6031C39.5569 77.6381 39.5858 77.6802 39.6068 77.7293C39.6279 77.7784 39.6384 77.8301 39.6384 77.8845C39.6384 77.9406 39.6279 77.9932 39.6068 78.0423C39.5858 78.0896 39.5569 78.1308 39.52 78.1659C39.485 78.201 39.4429 78.2281 39.3938 78.2474C39.3447 78.2685 39.293 78.279 39.2386 78.279C39.1825 78.279 39.1299 78.2685 39.0808 78.2474C39.0317 78.2281 38.9888 78.201 38.952 78.1659C38.9169 78.1308 38.8888 78.0896 38.8678 78.0423C38.8485 77.9932 38.8389 77.9406 38.8389 77.8845Z" fill="white"/>
<path d="M41.294 74.4392V75.9436C41.294 76.1031 41.2861 76.26 41.2703 76.4143C41.2545 76.5669 41.2343 76.7291 41.2098 76.9009H40.768C40.7434 76.7291 40.7233 76.5669 40.7075 76.4143C40.6917 76.26 40.6838 76.1031 40.6838 75.9436V74.4392H41.294ZM40.5812 77.8845C40.5812 77.8301 40.5909 77.7784 40.6102 77.7293C40.6312 77.6802 40.6593 77.6381 40.6943 77.6031C40.7311 77.568 40.7741 77.54 40.8232 77.5189C40.8723 77.4979 40.9249 77.4874 40.981 77.4874C41.0353 77.4874 41.0871 77.4979 41.1362 77.5189C41.1853 77.54 41.2273 77.568 41.2624 77.6031C41.2992 77.6381 41.3282 77.6802 41.3492 77.7293C41.3702 77.7784 41.3807 77.8301 41.3807 77.8845C41.3807 77.9406 41.3702 77.9932 41.3492 78.0423C41.3282 78.0896 41.2992 78.1308 41.2624 78.1659C41.2273 78.201 41.1853 78.2281 41.1362 78.2474C41.0871 78.2685 41.0353 78.279 40.981 78.279C40.9249 78.279 40.8723 78.2685 40.8232 78.2474C40.7741 78.2281 40.7311 78.201 40.6943 78.1659C40.6593 78.1308 40.6312 78.0896 40.6102 78.0423C40.5909 77.9932 40.5812 77.9406 40.5812 77.8845Z" fill="white"/>
<path d="M43.0363 74.4392V75.9436C43.0363 76.1031 43.0284 76.26 43.0127 76.4143C42.9969 76.5669 42.9767 76.7291 42.9522 76.9009H42.5103C42.4858 76.7291 42.4656 76.5669 42.4498 76.4143C42.4341 76.26 42.4262 76.1031 42.4262 75.9436V74.4392H43.0363ZM42.3236 77.8845C42.3236 77.8301 42.3332 77.7784 42.3525 77.7293C42.3736 77.6802 42.4016 77.6381 42.4367 77.6031C42.4735 77.568 42.5165 77.54 42.5656 77.5189C42.6147 77.4979 42.6673 77.4874 42.7234 77.4874C42.7777 77.4874 42.8294 77.4979 42.8785 77.5189C42.9276 77.54 42.9697 77.568 43.0048 77.6031C43.0416 77.6381 43.0705 77.6802 43.0916 77.7293C43.1126 77.7784 43.1231 77.8301 43.1231 77.8845C43.1231 77.9406 43.1126 77.9932 43.0916 78.0423C43.0705 78.0896 43.0416 78.1308 43.0048 78.1659C42.9697 78.201 42.9276 78.2281 42.8785 78.2474C42.8294 78.2685 42.7777 78.279 42.7234 78.279C42.6673 78.279 42.6147 78.2685 42.5656 78.2474C42.5165 78.2281 42.4735 78.201 42.4367 78.1659C42.4016 78.1308 42.3736 78.0896 42.3525 78.0423C42.3332 77.9932 42.3236 77.9406 42.3236 77.8845Z" fill="white"/>
<path d="M44.7787 74.4392V75.9436C44.7787 76.1031 44.7708 76.26 44.755 76.4143C44.7392 76.5669 44.7191 76.7291 44.6945 76.9009H44.2527C44.2281 76.7291 44.208 76.5669 44.1922 76.4143C44.1764 76.26 44.1685 76.1031 44.1685 75.9436V74.4392H44.7787ZM44.066 77.8845C44.066 77.8301 44.0756 77.7784 44.0949 77.7293C44.1159 77.6802 44.144 77.6381 44.1791 77.6031C44.2159 77.568 44.2588 77.54 44.3079 77.5189C44.357 77.4979 44.4096 77.4874 44.4657 77.4874C44.5201 77.4874 44.5718 77.4979 44.6209 77.5189C44.67 77.54 44.7121 77.568 44.7471 77.6031C44.784 77.6381 44.8129 77.6802 44.8339 77.7293C44.855 77.7784 44.8655 77.8301 44.8655 77.8845C44.8655 77.9406 44.855 77.9932 44.8339 78.0423C44.8129 78.0896 44.784 78.1308 44.7471 78.1659C44.7121 78.201 44.67 78.2281 44.6209 78.2474C44.5718 78.2685 44.5201 78.279 44.4657 78.279C44.4096 78.279 44.357 78.2685 44.3079 78.2474C44.2588 78.2281 44.2159 78.201 44.1791 78.1659C44.144 78.1308 44.1159 78.0896 44.0949 78.0423C44.0756 77.9932 44.066 77.9406 44.066 77.8845Z" fill="white"/>
<g clip-path="url(#clip0_494_13989)">
<rect x="61.5645" y="70.5908" width="52.5488" height="5.35767" rx="2.67883" fill="#F2F4F8"/>
<rect x="61.5645" y="78.9485" width="33.5225" height="3" rx="1.5" fill="#F2F4F8"/>
</g>
<rect x="13.603" y="98.873" width="8.32829" height="8.32829" rx="2.84915" fill="#F3F7FC"/>
<path d="M15.896 103.163L15.7422 103.316L15.896 103.163C15.8846 103.151 15.8813 103.14 15.8813 103.131C15.8813 103.121 15.8846 103.11 15.896 103.099C15.9074 103.087 15.9188 103.084 15.928 103.084C15.9372 103.084 15.9487 103.087 15.9601 103.099L15.9605 103.099L16.9424 104.075L17.0972 104.229L17.2517 104.075L19.5836 101.749L19.5838 101.749C19.5952 101.737 19.6067 101.734 19.6159 101.734C19.6251 101.734 19.6365 101.737 19.6479 101.749C19.6593 101.76 19.6626 101.771 19.6626 101.781C19.6626 101.79 19.6593 101.801 19.648 101.813C19.648 101.813 19.6479 101.813 19.6479 101.813L17.134 104.321C17.1171 104.335 17.1054 104.338 17.0911 104.338C17.0806 104.338 17.0747 104.336 17.0716 104.335C17.0688 104.333 17.0647 104.331 17.059 104.326L15.896 103.163Z" fill="#1757C2" stroke="#1757C2" stroke-width="0.438331"/>
<rect x="13.603" y="98.873" width="8.32829" height="8.32829" rx="2.84915" stroke="#1757C2" stroke-width="0.438331"/>
<circle cx="41.8576" cy="103.037" r="5.25997" fill="#F28438"/>
<path d="M40.4227 101.207V102.711C40.4227 102.871 40.4148 103.028 40.399 103.182C40.3832 103.334 40.3631 103.497 40.3385 103.668H39.8967C39.8721 103.497 39.852 103.334 39.8362 103.182C39.8204 103.028 39.8125 102.871 39.8125 102.711V101.207H40.4227ZM39.71 104.652C39.71 104.598 39.7196 104.546 39.7389 104.497C39.7599 104.448 39.788 104.406 39.8231 104.371C39.8599 104.336 39.9028 104.308 39.9519 104.287C40.001 104.265 40.0536 104.255 40.1097 104.255C40.1641 104.255 40.2158 104.265 40.2649 104.287C40.314 104.308 40.3561 104.336 40.3911 104.371C40.4279 104.406 40.4569 104.448 40.4779 104.497C40.499 104.546 40.5095 104.598 40.5095 104.652C40.5095 104.708 40.499 104.761 40.4779 104.81C40.4569 104.857 40.4279 104.898 40.3911 104.933C40.3561 104.969 40.314 104.996 40.2649 105.015C40.2158 105.036 40.1641 105.047 40.1097 105.047C40.0536 105.047 40.001 105.036 39.9519 105.015C39.9028 104.996 39.8599 104.969 39.8231 104.933C39.788 104.898 39.7599 104.857 39.7389 104.81C39.7196 104.761 39.71 104.708 39.71 104.652Z" fill="white"/>
<path d="M42.1651 101.207V102.711C42.1651 102.871 42.1572 103.028 42.1414 103.182C42.1256 103.334 42.1054 103.497 42.0809 103.668H41.6391C41.6145 103.497 41.5943 103.334 41.5786 103.182C41.5628 103.028 41.5549 102.871 41.5549 102.711V101.207H42.1651ZM41.4523 104.652C41.4523 104.598 41.462 104.546 41.4813 104.497C41.5023 104.448 41.5304 104.406 41.5654 104.371C41.6022 104.336 41.6452 104.308 41.6943 104.287C41.7434 104.265 41.796 104.255 41.8521 104.255C41.9064 104.255 41.9582 104.265 42.0073 104.287C42.0563 104.308 42.0984 104.336 42.1335 104.371C42.1703 104.406 42.1992 104.448 42.2203 104.497C42.2413 104.546 42.2518 104.598 42.2518 104.652C42.2518 104.708 42.2413 104.761 42.2203 104.81C42.1992 104.857 42.1703 104.898 42.1335 104.933C42.0984 104.969 42.0563 104.996 42.0073 105.015C41.9582 105.036 41.9064 105.047 41.8521 105.047C41.796 105.047 41.7434 105.036 41.6943 105.015C41.6452 104.996 41.6022 104.969 41.5654 104.933C41.5304 104.898 41.5023 104.857 41.4813 104.81C41.462 104.761 41.4523 104.708 41.4523 104.652Z" fill="white"/>
<path d="M43.9074 101.207V102.711C43.9074 102.871 43.8995 103.028 43.8837 103.182C43.868 103.334 43.8478 103.497 43.8233 103.668H43.3814C43.3569 103.497 43.3367 103.334 43.3209 103.182C43.3052 103.028 43.2973 102.871 43.2973 102.711V101.207H43.9074ZM43.1947 104.652C43.1947 104.598 43.2043 104.546 43.2236 104.497C43.2447 104.448 43.2727 104.406 43.3078 104.371C43.3446 104.336 43.3876 104.308 43.4367 104.287C43.4857 104.265 43.5383 104.255 43.5945 104.255C43.6488 104.255 43.7005 104.265 43.7496 104.287C43.7987 104.308 43.8408 104.336 43.8759 104.371C43.9127 104.406 43.9416 104.448 43.9627 104.497C43.9837 104.546 43.9942 104.598 43.9942 104.652C43.9942 104.708 43.9837 104.761 43.9627 104.81C43.9416 104.857 43.9127 104.898 43.8759 104.933C43.8408 104.969 43.7987 104.996 43.7496 105.015C43.7005 105.036 43.6488 105.047 43.5945 105.047C43.5383 105.047 43.4857 105.036 43.4367 105.015C43.3876 104.996 43.3446 104.969 43.3078 104.933C43.2727 104.898 43.2447 104.857 43.2236 104.81C43.2043 104.761 43.1947 104.708 43.1947 104.652Z" fill="white"/>
<g clip-path="url(#clip1_494_13989)">
<rect x="61.5645" y="97.3584" width="36.7725" height="5.35767" rx="2.67883" fill="#F2F4F8"/>
<rect x="61.5645" y="105.716" width="47.2725" height="3" rx="1.5" fill="#F2F4F8"/>
</g>
<rect x="13.603" y="125.641" width="8.32829" height="8.32829" rx="2.84915" fill="#F3F7FC"/>
<path d="M15.896 129.93L15.7422 130.084L15.896 129.93C15.8846 129.919 15.8813 129.907 15.8813 129.898C15.8813 129.889 15.8846 129.878 15.896 129.866C15.9074 129.855 15.9188 129.851 15.928 129.851C15.9372 129.851 15.9487 129.855 15.9601 129.866L15.9605 129.867L16.9424 130.843L17.0972 130.996L17.2517 130.842L19.5836 128.516L19.5838 128.516C19.5952 128.505 19.6067 128.501 19.6159 128.501C19.6251 128.501 19.6365 128.505 19.6479 128.516C19.6593 128.528 19.6626 128.539 19.6626 128.548C19.6626 128.557 19.6593 128.569 19.648 128.58C19.648 128.58 19.6479 128.58 19.6479 128.58L17.134 131.088C17.1171 131.103 17.1054 131.105 17.0911 131.105C17.0806 131.105 17.0747 131.103 17.0716 131.102C17.0688 131.101 17.0647 131.099 17.059 131.093L15.896 129.93Z" fill="#1757C2" stroke="#1757C2" stroke-width="0.438331"/>
<rect x="13.603" y="125.641" width="8.32829" height="8.32829" rx="2.84915" stroke="#1757C2" stroke-width="0.438331"/>
<circle cx="41.8576" cy="129.805" r="5.25997" fill="#F28438"/>
<path d="M40.4227 127.974V129.479C40.4227 129.638 40.4148 129.795 40.399 129.949C40.3832 130.102 40.3631 130.264 40.3385 130.436H39.8967C39.8721 130.264 39.852 130.102 39.8362 129.949C39.8204 129.795 39.8125 129.638 39.8125 129.479V127.974H40.4227ZM39.71 131.42C39.71 131.365 39.7196 131.314 39.7389 131.264C39.7599 131.215 39.788 131.173 39.8231 131.138C39.8599 131.103 39.9028 131.075 39.9519 131.054C40.001 131.033 40.0536 131.023 40.1097 131.023C40.1641 131.023 40.2158 131.033 40.2649 131.054C40.314 131.075 40.3561 131.103 40.3911 131.138C40.4279 131.173 40.4569 131.215 40.4779 131.264C40.499 131.314 40.5095 131.365 40.5095 131.42C40.5095 131.476 40.499 131.528 40.4779 131.577C40.4569 131.625 40.4279 131.666 40.3911 131.701C40.3561 131.736 40.314 131.763 40.2649 131.783C40.2158 131.804 40.1641 131.814 40.1097 131.814C40.0536 131.814 40.001 131.804 39.9519 131.783C39.9028 131.763 39.8599 131.736 39.8231 131.701C39.788 131.666 39.7599 131.625 39.7389 131.577C39.7196 131.528 39.71 131.476 39.71 131.42Z" fill="white"/>
<path d="M42.1651 127.974V129.479C42.1651 129.638 42.1572 129.795 42.1414 129.949C42.1256 130.102 42.1054 130.264 42.0809 130.436H41.6391C41.6145 130.264 41.5943 130.102 41.5786 129.949C41.5628 129.795 41.5549 129.638 41.5549 129.479V127.974H42.1651ZM41.4523 131.42C41.4523 131.365 41.462 131.314 41.4813 131.264C41.5023 131.215 41.5304 131.173 41.5654 131.138C41.6022 131.103 41.6452 131.075 41.6943 131.054C41.7434 131.033 41.796 131.023 41.8521 131.023C41.9064 131.023 41.9582 131.033 42.0073 131.054C42.0563 131.075 42.0984 131.103 42.1335 131.138C42.1703 131.173 42.1992 131.215 42.2203 131.264C42.2413 131.314 42.2518 131.365 42.2518 131.42C42.2518 131.476 42.2413 131.528 42.2203 131.577C42.1992 131.625 42.1703 131.666 42.1335 131.701C42.0984 131.736 42.0563 131.763 42.0073 131.783C41.9582 131.804 41.9064 131.814 41.8521 131.814C41.796 131.814 41.7434 131.804 41.6943 131.783C41.6452 131.763 41.6022 131.736 41.5654 131.701C41.5304 131.666 41.5023 131.625 41.4813 131.577C41.462 131.528 41.4523 131.476 41.4523 131.42Z" fill="white"/>
<path d="M43.9074 127.974V129.479C43.9074 129.638 43.8995 129.795 43.8837 129.949C43.868 130.102 43.8478 130.264 43.8233 130.436H43.3814C43.3569 130.264 43.3367 130.102 43.3209 129.949C43.3052 129.795 43.2973 129.638 43.2973 129.479V127.974H43.9074ZM43.1947 131.42C43.1947 131.365 43.2043 131.314 43.2236 131.264C43.2447 131.215 43.2727 131.173 43.3078 131.138C43.3446 131.103 43.3876 131.075 43.4367 131.054C43.4857 131.033 43.5383 131.023 43.5945 131.023C43.6488 131.023 43.7005 131.033 43.7496 131.054C43.7987 131.075 43.8408 131.103 43.8759 131.138C43.9127 131.173 43.9416 131.215 43.9627 131.264C43.9837 131.314 43.9942 131.365 43.9942 131.42C43.9942 131.476 43.9837 131.528 43.9627 131.577C43.9416 131.625 43.9127 131.666 43.8759 131.701C43.8408 131.736 43.7987 131.763 43.7496 131.783C43.7005 131.804 43.6488 131.814 43.5945 131.814C43.5383 131.814 43.4857 131.804 43.4367 131.783C43.3876 131.763 43.3446 131.736 43.3078 131.701C43.2727 131.666 43.2447 131.625 43.2236 131.577C43.2043 131.528 43.1947 131.476 43.1947 131.42Z" fill="white"/>
<g clip-path="url(#clip2_494_13989)">
<rect x="61.5645" y="124.126" width="39.6475" height="5.35767" rx="2.67883" fill="#F2F4F8"/>
<rect x="61.5645" y="132.484" width="43.3975" height="3" rx="1.5" fill="#F2F4F8"/>
</g>
<rect x="13.603" y="152.408" width="8.32829" height="8.32829" rx="2.84915" fill="white"/>
<rect x="13.603" y="152.408" width="8.32829" height="8.32829" rx="2.84915" stroke="#CCCFE0" stroke-width="0.438331"/>
<circle cx="41.8576" cy="156.573" r="5.25997" fill="#FDC106"/>
<path d="M42.1649 154.742V156.247C42.1649 156.406 42.157 156.563 42.1412 156.717C42.1254 156.87 42.1053 157.032 42.0807 157.204H41.6389C41.6143 157.032 41.5942 156.87 41.5784 156.717C41.5626 156.563 41.5547 156.406 41.5547 156.247V154.742H42.1649ZM41.4521 158.187C41.4521 158.133 41.4618 158.081 41.4811 158.032C41.5021 157.983 41.5302 157.941 41.5652 157.906C41.6021 157.871 41.645 157.843 41.6941 157.822C41.7432 157.801 41.7958 157.79 41.8519 157.79C41.9063 157.79 41.958 157.801 42.0071 157.822C42.0562 157.843 42.0982 157.871 42.1333 157.906C42.1701 157.941 42.1991 157.983 42.2201 158.032C42.2411 158.081 42.2517 158.133 42.2517 158.187C42.2517 158.244 42.2411 158.296 42.2201 158.345C42.1991 158.393 42.1701 158.434 42.1333 158.469C42.0982 158.504 42.0562 158.531 42.0071 158.55C41.958 158.571 41.9063 158.582 41.8519 158.582C41.7958 158.582 41.7432 158.571 41.6941 158.55C41.645 158.531 41.6021 158.504 41.5652 158.469C41.5302 158.434 41.5021 158.393 41.4811 158.345C41.4618 158.296 41.4521 158.244 41.4521 158.187Z" fill="white"/>
<g clip-path="url(#clip3_494_13989)">
<rect x="61.5645" y="150.894" width="39.6475" height="5.35767" rx="2.67883" fill="#F2F4F8"/>
<rect x="61.5645" y="159.251" width="43.3975" height="3" rx="1.5" fill="#F2F4F8"/>
</g>
<defs>
<clipPath id="clip0_494_13989">
<rect width="52.5488" height="11.3577" fill="white" transform="translate(61.5645 70.5908)"/>
</clipPath>
<clipPath id="clip1_494_13989">
<rect width="47.2725" height="11.3577" fill="white" transform="translate(61.5645 97.3584)"/>
</clipPath>
<clipPath id="clip2_494_13989">
<rect width="43.3975" height="11.3577" fill="white" transform="translate(61.5645 124.126)"/>
</clipPath>
<clipPath id="clip3_494_13989">
<rect width="43.3975" height="11.3577" fill="white" transform="translate(61.5645 150.894)"/>
</clipPath>
</defs>
</svg>
