<svg width="227" height="201" viewBox="0 0 227 201" fill="none" xmlns="http://www.w3.org/2000/svg">
<g clip-path="url(#clip0_494_13749)">
<rect width="226.049" height="200" transform="translate(0.875 0.84375)" fill="white"/>
<path d="M57.6489 89.2559V90.9719C57.6491 91.1512 57.6401 91.3304 57.6219 91.5089L57.5529 92.0639H57.0489L56.9799 91.5089C56.9618 91.3304 56.9528 91.1512 56.9529 90.9719V89.2559H57.6489ZM56.8359 93.1859C56.8357 93.1253 56.8469 93.0653 56.8689 93.0089C56.8914 92.9552 56.924 92.9063 56.9649 92.8649C57.0069 92.8249 57.0559 92.7929 57.1119 92.7689C57.1679 92.7449 57.2279 92.7329 57.2919 92.7329C57.3528 92.7326 57.413 92.7449 57.4689 92.7689C57.5226 92.7914 57.5715 92.8239 57.6129 92.8649C57.6554 92.9056 57.6892 92.9546 57.7119 93.0089C57.7359 93.0648 57.7482 93.125 57.7479 93.1859C57.7479 93.2499 57.7359 93.3099 57.7119 93.3659C57.6879 93.4219 57.6549 93.4669 57.6129 93.5069C57.5719 93.5475 57.5229 93.5792 57.4689 93.5999C57.413 93.6238 57.3528 93.6361 57.2919 93.6359C57.2279 93.6359 57.1679 93.6239 57.1119 93.5999C57.0559 93.5759 57.0069 93.5469 56.9649 93.5069C56.9229 93.4669 56.8929 93.4199 56.8689 93.3659C56.8449 93.3119 56.8359 93.2499 56.8359 93.1859Z" fill="white"/>
<path d="M20.176 26.8433V19.5705H22.7683C23.3317 19.5705 23.7993 19.6676 24.171 19.8617C24.545 20.0559 24.8244 20.3246 25.0091 20.6678C25.1937 21.0087 25.286 21.4029 25.286 21.8504C25.286 22.2954 25.1925 22.6872 25.0055 23.0258C24.8208 23.362 24.5415 23.6236 24.1674 23.8106C23.7958 23.9976 23.3282 24.0911 22.7647 24.0911H20.801V23.1465H22.6653C23.0204 23.1465 23.3092 23.0956 23.5318 22.9938C23.7567 22.892 23.9212 22.7441 24.0254 22.5499C24.1296 22.3558 24.1816 22.1226 24.1816 21.8504C24.1816 21.5757 24.1284 21.3378 24.0218 21.1366C23.9177 20.9354 23.7531 20.7815 23.5282 20.6749C23.3057 20.566 23.0133 20.5116 22.6511 20.5116H21.2733V26.8433H20.176ZM23.7662 23.562L25.563 26.8433H24.313L22.5517 23.562H23.7662ZM26.536 26.8433V21.3887H27.5978V26.8433H26.536ZM27.0723 20.5471C26.8876 20.5471 26.729 20.4855 26.5964 20.3624C26.4662 20.237 26.4011 20.0878 26.4011 19.915C26.4011 19.7398 26.4662 19.5907 26.5964 19.4676C26.729 19.3421 26.8876 19.2793 27.0723 19.2793C27.2569 19.2793 27.4144 19.3421 27.5446 19.4676C27.6771 19.5907 27.7434 19.7398 27.7434 19.915C27.7434 20.0878 27.6771 20.237 27.5446 20.3624C27.4144 20.4855 27.2569 20.5471 27.0723 20.5471ZM33.1136 22.7204L32.1513 22.8908C32.111 22.7677 32.0471 22.6506 31.9595 22.5393C31.8743 22.428 31.7583 22.3369 31.6115 22.2658C31.4647 22.1948 31.2813 22.1593 31.0611 22.1593C30.7604 22.1593 30.5095 22.2268 30.3082 22.3617C30.107 22.4943 30.0064 22.6659 30.0064 22.8766C30.0064 23.0589 30.0739 23.2057 30.2088 23.317C30.3438 23.4283 30.5616 23.5194 30.8622 23.5904L31.7287 23.7893C32.2306 23.9053 32.6046 24.084 32.8509 24.3255C33.0971 24.567 33.2202 24.8807 33.2202 25.2666C33.2202 25.5933 33.1255 25.8845 32.9361 26.1401C32.7491 26.3935 32.4875 26.5923 32.1513 26.7367C31.8175 26.8811 31.4304 26.9533 30.9901 26.9533C30.3793 26.9533 29.8809 26.8231 29.495 26.5627C29.1091 26.2999 28.8724 25.9271 28.7848 25.4441L29.8111 25.2879C29.875 25.5554 30.0064 25.7578 30.2053 25.8951C30.4041 26.0301 30.6634 26.0975 30.983 26.0975C31.331 26.0975 31.6091 26.0253 31.8175 25.8809C32.0258 25.7341 32.13 25.5554 32.13 25.3447C32.13 25.1742 32.0661 25.031 31.9382 24.915C31.8127 24.799 31.6198 24.7114 31.3594 24.6522L30.4361 24.4498C29.9271 24.3338 29.5507 24.1491 29.3068 23.8958C29.0653 23.6425 28.9446 23.3217 28.9446 22.9335C28.9446 22.6115 29.0346 22.3298 29.2145 22.0883C29.3944 21.8468 29.643 21.6586 29.9602 21.5237C30.2775 21.3863 30.6409 21.3177 31.0504 21.3177C31.6399 21.3177 32.1039 21.4455 32.4425 21.7012C32.781 21.9545 33.0047 22.2943 33.1136 22.7204ZM35.3642 24.9931L35.3571 23.697H35.5417L37.715 21.3887H38.9863L36.5076 24.0166H36.3407L35.3642 24.9931ZM34.3876 26.8433V19.5705H35.4494V26.8433H34.3876ZM37.8322 26.8433L35.8791 24.2509L36.6106 23.5087L39.1355 26.8433H37.8322ZM42.6857 26.8433V19.5705H45.2781C45.8415 19.5705 46.3091 19.6676 46.6808 19.8617C47.0548 20.0559 47.3342 20.3246 47.5188 20.6678C47.7035 21.0087 47.7958 21.4029 47.7958 21.8504C47.7958 22.2954 47.7023 22.6872 47.5153 23.0258C47.3306 23.362 47.0513 23.6236 46.6772 23.8106C46.3055 23.9976 45.8379 24.0911 45.2745 24.0911H43.3107V23.1465H45.1751C45.5302 23.1465 45.819 23.0956 46.0415 22.9938C46.2665 22.892 46.431 22.7441 46.5352 22.5499C46.6393 22.3558 46.6914 22.1226 46.6914 21.8504C46.6914 21.5757 46.6381 21.3378 46.5316 21.1366C46.4274 20.9354 46.2629 20.7815 46.038 20.6749C45.8155 20.566 45.5231 20.5116 45.1609 20.5116H43.783V26.8433H42.6857ZM46.2759 23.562L48.0728 26.8433H46.8228L45.0614 23.562H46.2759ZM50.6332 26.964C50.2875 26.964 49.975 26.9001 49.6957 26.7722C49.4163 26.642 49.195 26.4538 49.0316 26.2076C48.8706 25.9614 48.7901 25.6595 48.7901 25.3021C48.7901 24.9943 48.8493 24.741 48.9677 24.5421C49.0861 24.3433 49.2459 24.1858 49.4471 24.0698C49.6483 23.9538 49.8732 23.8662 50.1218 23.807C50.3704 23.7479 50.6237 23.7029 50.8817 23.6721C51.2085 23.6342 51.4736 23.6034 51.6772 23.5798C51.8808 23.5537 52.0288 23.5123 52.1211 23.4555C52.2134 23.3987 52.2596 23.3063 52.2596 23.1785V23.1536C52.2596 22.8435 52.172 22.6032 51.9968 22.4328C51.824 22.2623 51.5659 22.1771 51.2227 22.1771C50.8652 22.1771 50.5835 22.2564 50.3775 22.415C50.1739 22.5712 50.033 22.7453 49.9549 22.937L48.957 22.7097C49.0754 22.3783 49.2482 22.1108 49.4755 21.9072C49.7051 21.7012 49.9691 21.5521 50.2674 21.4597C50.5657 21.365 50.8794 21.3177 51.2085 21.3177C51.4263 21.3177 51.6571 21.3437 51.9009 21.3958C52.1471 21.4455 52.3768 21.5379 52.5898 21.6728C52.8053 21.8078 52.9817 22.0007 53.119 22.2516C53.2563 22.5002 53.3249 22.8234 53.3249 23.2211V26.8433H52.288V26.0975H52.2454C52.1767 26.2348 52.0737 26.3698 51.9364 26.5024C51.7991 26.6349 51.6228 26.745 51.4073 26.8326C51.1919 26.9202 50.9338 26.964 50.6332 26.964ZM50.864 26.1117C51.1576 26.1117 51.4085 26.0537 51.6168 25.9377C51.8275 25.8217 51.9873 25.6702 52.0962 25.4832C52.2075 25.2938 52.2631 25.0914 52.2631 24.8759V24.1728C52.2253 24.2107 52.1519 24.2462 52.043 24.2793C51.9364 24.3101 51.8145 24.3373 51.6772 24.361C51.5399 24.3823 51.4061 24.4024 51.2759 24.4214C51.1457 24.438 51.0368 24.4522 50.9492 24.464C50.7433 24.49 50.555 24.5338 50.3846 24.5954C50.2165 24.6569 50.0816 24.7457 49.9798 24.8617C49.8803 24.9754 49.8306 25.1269 49.8306 25.3163C49.8306 25.5791 49.9277 25.7779 50.1218 25.9129C50.3159 26.0454 50.5633 26.1117 50.864 26.1117ZM57.2853 21.3887V22.241H54.3059V21.3887H57.2853ZM55.1049 20.0819H56.1667V25.2417C56.1667 25.4477 56.1975 25.6027 56.2591 25.7069C56.3206 25.8087 56.3999 25.8785 56.497 25.9164C56.5964 25.9519 56.7041 25.9697 56.8201 25.9697C56.9054 25.9697 56.9799 25.9638 57.0439 25.9519C57.1078 25.9401 57.1575 25.9306 57.193 25.9235L57.3848 26.8006C57.3232 26.8243 57.2356 26.848 57.122 26.8717C57.0083 26.8977 56.8663 26.9119 56.6958 26.9143C56.4165 26.919 56.1561 26.8693 55.9146 26.7651C55.6731 26.661 55.4778 26.5 55.3287 26.2822C55.1795 26.0644 55.1049 25.7909 55.1049 25.4619V20.0819ZM58.4599 26.8433V21.3887H59.5217V26.8433H58.4599ZM58.9961 20.5471C58.8114 20.5471 58.6528 20.4855 58.5202 20.3624C58.39 20.237 58.3249 20.0878 58.3249 19.915C58.3249 19.7398 58.39 19.5907 58.5202 19.4676C58.6528 19.3421 58.8114 19.2793 58.9961 19.2793C59.1808 19.2793 59.3382 19.3421 59.4684 19.4676C59.601 19.5907 59.6673 19.7398 59.6673 19.915C59.6673 20.0878 59.601 20.237 59.4684 20.3624C59.3382 20.4855 59.1808 20.5471 58.9961 20.5471ZM62.0119 23.6046V26.8433H60.9501V21.3887H61.9693V22.2765H62.0368C62.1622 21.9877 62.3587 21.7557 62.6262 21.5805C62.8961 21.4053 63.2359 21.3177 63.6454 21.3177C64.0171 21.3177 64.3426 21.3958 64.622 21.5521C64.9013 21.706 65.118 21.9356 65.2718 22.241C65.4257 22.5464 65.5027 22.924 65.5027 23.3738V26.8433H64.4409V23.5016C64.4409 23.1063 64.3379 22.7973 64.1319 22.5748C63.926 22.3499 63.6431 22.2374 63.2832 22.2374C63.037 22.2374 62.818 22.2907 62.6262 22.3972C62.4368 22.5038 62.2865 22.66 62.1752 22.866C62.0663 23.0696 62.0119 23.3158 62.0119 23.6046ZM69.2136 29.0024C68.7804 29.0024 68.4075 28.9455 68.095 28.8319C67.7849 28.7183 67.5315 28.5679 67.335 28.3809C67.1386 28.1939 66.9918 27.9891 66.8947 27.7666L67.8074 27.3901C67.8713 27.4943 67.9565 27.6044 68.063 27.7204C68.1719 27.8388 68.3187 27.9394 68.5034 28.0222C68.6904 28.1051 68.9307 28.1465 69.2243 28.1465C69.6267 28.1465 69.9593 28.0483 70.2221 27.8518C70.4849 27.6577 70.6163 27.3475 70.6163 26.9214V25.8489H70.5488C70.4849 25.9649 70.3926 26.094 70.2718 26.236C70.1535 26.3781 69.9901 26.5012 69.7818 26.6053C69.5734 26.7095 69.3024 26.7616 68.9686 26.7616C68.5377 26.7616 68.1494 26.661 67.8038 26.4597C67.4605 26.2561 67.1883 25.9567 66.987 25.5613C66.7882 25.1636 66.6887 24.6747 66.6887 24.0947C66.6887 23.5147 66.787 23.0175 66.9835 22.6032C67.1824 22.1889 67.4546 21.8717 67.8002 21.6515C68.1459 21.429 68.5377 21.3177 68.9757 21.3177C69.3142 21.3177 69.5877 21.3745 69.796 21.4881C70.0043 21.5994 70.1665 21.7296 70.2825 21.8788C70.4009 22.0279 70.492 22.1593 70.5559 22.2729H70.6341V21.3887H71.6745V26.964C71.6745 27.4328 71.5656 27.8175 71.3478 28.1181C71.13 28.4188 70.8353 28.6413 70.4636 28.7857C70.0943 28.9301 69.6776 29.0024 69.2136 29.0024ZM69.2029 25.8809C69.5083 25.8809 69.7664 25.8099 69.9771 25.6678C70.1902 25.5234 70.3511 25.3175 70.46 25.0499C70.5713 24.7801 70.627 24.4569 70.627 24.0805C70.627 23.7135 70.5725 23.3904 70.4636 23.111C70.3547 22.8317 70.1949 22.6139 69.9842 22.4576C69.7735 22.299 69.5131 22.2197 69.2029 22.2197C68.8833 22.2197 68.617 22.3025 68.4039 22.4683C68.1909 22.6316 68.0299 22.8542 67.921 23.1359C67.8145 23.4176 67.7612 23.7325 67.7612 24.0805C67.7612 24.438 67.8156 24.7516 67.9245 25.0215C68.0334 25.2914 68.1944 25.5021 68.4075 25.6536C68.6229 25.8051 68.8881 25.8809 69.2029 25.8809ZM75.8303 26.8433V19.5705H78.4936C79.0097 19.5705 79.437 19.6558 79.7756 19.8262C80.1141 19.9943 80.3674 20.2228 80.5355 20.5116C80.7036 20.798 80.7876 21.1212 80.7876 21.481C80.7876 21.7841 80.732 22.0398 80.6207 22.2481C80.5095 22.4541 80.3603 22.6198 80.1733 22.7453C79.9886 22.8684 79.785 22.9583 79.5625 23.0151V23.0862C79.804 23.098 80.0395 23.1761 80.2692 23.3205C80.5012 23.4626 80.6929 23.665 80.8445 23.9278C80.996 24.1906 81.0717 24.5102 81.0717 24.8866C81.0717 25.2583 80.9841 25.5921 80.8089 25.888C80.6361 26.1816 80.3686 26.4148 80.0064 26.5876C79.6442 26.758 79.1813 26.8433 78.6179 26.8433H75.8303ZM76.9276 25.9022H78.5114C79.0369 25.9022 79.4134 25.8004 79.6406 25.5968C79.8679 25.3932 79.9815 25.1387 79.9815 24.8333C79.9815 24.6037 79.9235 24.393 79.8075 24.2012C79.6915 24.0095 79.5258 23.8568 79.3104 23.7431C79.0973 23.6295 78.844 23.5727 78.5504 23.5727H76.9276V25.9022ZM76.9276 22.7168H78.3977C78.6439 22.7168 78.8653 22.6695 79.0618 22.5748C79.2607 22.4801 79.4181 22.3475 79.5341 22.1771C79.6525 22.0042 79.7116 21.8006 79.7116 21.5663C79.7116 21.2656 79.6063 21.0135 79.3956 20.8099C79.1849 20.6063 78.8617 20.5045 78.4261 20.5045H76.9276V22.7168ZM82.288 26.8433V21.3887H83.3143V22.2552H83.3711C83.4705 21.9616 83.6457 21.7308 83.8967 21.5627C84.15 21.3923 84.4364 21.307 84.756 21.307C84.8223 21.307 84.9004 21.3094 84.9904 21.3141C85.0827 21.3189 85.1549 21.3248 85.207 21.3319V22.3475C85.1644 22.3357 85.0887 22.3227 84.9798 22.3085C84.8709 22.2919 84.762 22.2836 84.6531 22.2836C84.4021 22.2836 84.1784 22.3369 83.9819 22.4434C83.7878 22.5476 83.6339 22.6932 83.5202 22.8802C83.4066 23.0649 83.3498 23.2756 83.3498 23.5123V26.8433H82.288ZM88.2814 26.9533C87.744 26.9533 87.2812 26.8385 86.8929 26.6089C86.507 26.3769 86.2087 26.0514 85.998 25.6323C85.7897 25.2109 85.6855 24.7173 85.6855 24.1515C85.6855 23.5928 85.7897 23.1004 85.998 22.6742C86.2087 22.2481 86.5023 21.9155 86.8787 21.6764C87.2575 21.4372 87.7002 21.3177 88.2069 21.3177C88.5146 21.3177 88.8129 21.3686 89.1017 21.4704C89.3906 21.5722 89.6498 21.732 89.8794 21.9498C90.1091 22.1676 90.2902 22.4505 90.4228 22.7985C90.5553 23.1442 90.6216 23.5644 90.6216 24.0592V24.4356H86.2857V23.6401H89.5811C89.5811 23.3608 89.5243 23.1134 89.4107 22.8979C89.2971 22.6801 89.1373 22.5085 88.9313 22.383C88.7277 22.2576 88.4886 22.1948 88.214 22.1948C87.9157 22.1948 87.6552 22.2682 87.4327 22.415C87.2125 22.5594 87.0421 22.7488 86.9213 22.9832C86.803 23.2152 86.7438 23.4673 86.7438 23.7396V24.361C86.7438 24.7256 86.8077 25.0357 86.9355 25.2914C87.0658 25.5471 87.2469 25.7424 87.4789 25.8774C87.7109 26.0099 87.9819 26.0762 88.2921 26.0762C88.4933 26.0762 88.6768 26.0478 88.8425 25.991C89.0082 25.9318 89.1515 25.8442 89.2722 25.7282C89.3929 25.6122 89.4853 25.469 89.5492 25.2985L90.5542 25.4796C90.4737 25.7756 90.3292 26.0348 90.1209 26.2573C89.915 26.4775 89.6557 26.6491 89.3432 26.7722C89.0331 26.893 88.6792 26.9533 88.2814 26.9533ZM93.3871 26.964C93.0414 26.964 92.7289 26.9001 92.4496 26.7722C92.1702 26.642 91.9489 26.4538 91.7855 26.2076C91.6245 25.9614 91.544 25.6595 91.544 25.3021C91.544 24.9943 91.6032 24.741 91.7216 24.5421C91.84 24.3433 91.9998 24.1858 92.201 24.0698C92.4022 23.9538 92.6271 23.8662 92.8757 23.807C93.1243 23.7479 93.3776 23.7029 93.6357 23.6721C93.9624 23.6342 94.2275 23.6034 94.4311 23.5798C94.6347 23.5537 94.7827 23.5123 94.875 23.4555C94.9673 23.3987 95.0135 23.3063 95.0135 23.1785V23.1536C95.0135 22.8435 94.9259 22.6032 94.7507 22.4328C94.5779 22.2623 94.3198 22.1771 93.9766 22.1771C93.6191 22.1771 93.3374 22.2564 93.1314 22.415C92.9278 22.5712 92.7869 22.7453 92.7088 22.937L91.7109 22.7097C91.8293 22.3783 92.0021 22.1108 92.2294 21.9072C92.459 21.7012 92.723 21.5521 93.0213 21.4597C93.3196 21.365 93.6333 21.3177 93.9624 21.3177C94.1802 21.3177 94.411 21.3437 94.6548 21.3958C94.901 21.4455 95.1307 21.5379 95.3438 21.6728C95.5592 21.8078 95.7356 22.0007 95.8729 22.2516C96.0102 22.5002 96.0788 22.8234 96.0788 23.2211V26.8433H95.0419V26.0975H94.9993C94.9306 26.2348 94.8277 26.3698 94.6903 26.5024C94.553 26.6349 94.3767 26.745 94.1612 26.8326C93.9458 26.9202 93.6877 26.964 93.3871 26.964ZM93.6179 26.1117C93.9115 26.1117 94.1624 26.0537 94.3707 25.9377C94.5814 25.8217 94.7412 25.6702 94.8501 25.4832C94.9614 25.2938 95.017 25.0914 95.017 24.8759V24.1728C94.9792 24.2107 94.9058 24.2462 94.7969 24.2793C94.6903 24.3101 94.5684 24.3373 94.4311 24.361C94.2938 24.3823 94.16 24.4024 94.0298 24.4214C93.8996 24.438 93.7907 24.4522 93.7031 24.464C93.4972 24.49 93.3089 24.5338 93.1385 24.5954C92.9704 24.6569 92.8355 24.7457 92.7337 24.8617C92.6342 24.9754 92.5845 25.1269 92.5845 25.3163C92.5845 25.5791 92.6816 25.7779 92.8757 25.9129C93.0698 26.0454 93.3172 26.1117 93.6179 26.1117ZM98.4696 24.9931L98.4625 23.697H98.6472L100.82 21.3887H102.092L99.6131 24.0166H99.4462L98.4696 24.9931ZM97.4931 26.8433V19.5705H98.5549V26.8433H97.4931ZM100.938 26.8433L98.9846 24.2509L99.7161 23.5087L102.241 26.8433H100.938ZM104.877 26.9498C104.436 26.9498 104.043 26.8373 103.698 26.6124C103.355 26.3852 103.085 26.062 102.888 25.643C102.694 25.2216 102.597 24.7161 102.597 24.1266C102.597 23.5372 102.695 23.0329 102.892 22.6139C103.091 22.1948 103.363 21.874 103.708 21.6515C104.054 21.429 104.446 21.3177 104.884 21.3177C105.222 21.3177 105.495 21.3745 105.701 21.4881C105.909 21.5994 106.07 21.7296 106.184 21.8788C106.3 22.0279 106.39 22.1593 106.453 22.2729H106.517V19.5705H107.579V26.8433H106.542V25.9945H106.453C106.39 26.1105 106.297 26.2431 106.176 26.3923C106.058 26.5414 105.895 26.6716 105.686 26.7829C105.478 26.8942 105.208 26.9498 104.877 26.9498ZM105.111 26.0443C105.417 26.0443 105.675 25.9638 105.885 25.8028C106.098 25.6394 106.259 25.4133 106.368 25.1245C106.48 24.8357 106.535 24.4995 106.535 24.116C106.535 23.7372 106.481 23.4058 106.372 23.1217C106.263 22.8376 106.103 22.6162 105.892 22.4576C105.682 22.299 105.421 22.2197 105.111 22.2197C104.792 22.2197 104.525 22.3025 104.312 22.4683C104.099 22.634 103.938 22.8601 103.829 23.1465C103.723 23.433 103.669 23.7561 103.669 24.116C103.669 24.4806 103.724 24.8085 103.833 25.0997C103.942 25.3908 104.103 25.6217 104.316 25.7921C104.531 25.9602 104.796 26.0443 105.111 26.0443ZM111.392 26.9533C110.881 26.9533 110.435 26.8362 110.053 26.6018C109.672 26.3674 109.376 26.0395 109.166 25.6181C108.955 25.1967 108.85 24.7043 108.85 24.1408C108.85 23.575 108.955 23.0802 109.166 22.6565C109.376 22.2327 109.672 21.9036 110.053 21.6693C110.435 21.4349 110.881 21.3177 111.392 21.3177C111.904 21.3177 112.35 21.4349 112.731 21.6693C113.112 21.9036 113.408 22.2327 113.619 22.6565C113.829 23.0802 113.935 23.575 113.935 24.1408C113.935 24.7043 113.829 25.1967 113.619 25.6181C113.408 26.0395 113.112 26.3674 112.731 26.6018C112.35 26.8362 111.904 26.9533 111.392 26.9533ZM111.396 26.062C111.727 26.062 112.002 25.9744 112.22 25.7992C112.437 25.624 112.598 25.3908 112.703 25.0997C112.809 24.8085 112.862 24.4877 112.862 24.1373C112.862 23.7893 112.809 23.4697 112.703 23.1785C112.598 22.8849 112.437 22.6494 112.22 22.4718C112.002 22.2943 111.727 22.2055 111.396 22.2055C111.062 22.2055 110.785 22.2943 110.565 22.4718C110.347 22.6494 110.185 22.8849 110.078 23.1785C109.974 23.4697 109.922 23.7893 109.922 24.1373C109.922 24.4877 109.974 24.8085 110.078 25.0997C110.185 25.3908 110.347 25.624 110.565 25.7992C110.785 25.9744 111.062 26.062 111.396 26.062ZM116.137 26.8433L114.531 21.3887H115.629L116.698 25.3944H116.751L117.823 21.3887H118.921L119.986 25.3766H120.039L121.101 21.3887H122.198L120.597 26.8433H119.514L118.406 22.9051H118.324L117.216 26.8433H116.137ZM124.268 23.6046V26.8433H123.206V21.3887H124.225V22.2765H124.293C124.418 21.9877 124.615 21.7557 124.882 21.5805C125.152 21.4053 125.492 21.3177 125.901 21.3177C126.273 21.3177 126.598 21.3958 126.878 21.5521C127.157 21.706 127.374 21.9356 127.528 22.241C127.682 22.5464 127.759 22.924 127.759 23.3738V26.8433H126.697V23.5016C126.697 23.1063 126.594 22.7973 126.388 22.5748C126.182 22.3499 125.899 22.2374 125.539 22.2374C125.293 22.2374 125.074 22.2907 124.882 22.3972C124.693 22.5038 124.542 22.66 124.431 22.866C124.322 23.0696 124.268 23.3158 124.268 23.6046Z" fill="#121619"/>
<path d="M28.7671 86.2791C28.7671 88.8721 26.6651 90.9742 24.072 90.9742C21.479 90.9742 19.377 88.8721 19.377 86.2791C19.377 83.686 21.479 81.584 24.072 81.584C26.6651 81.584 28.7671 83.686 28.7671 86.2791Z" fill="#F9FCF5"/>
<path fill-rule="evenodd" clip-rule="evenodd" d="M24.0724 81.7797C21.5874 81.7797 19.5729 83.7942 19.5729 86.2791C19.5729 88.7641 21.5874 90.7786 24.0724 90.7786C26.5573 90.7786 28.5718 88.7641 28.5718 86.2791C28.5718 83.7942 26.5573 81.7797 24.0724 81.7797ZM19.1816 86.2791C19.1816 83.5781 21.3713 81.3884 24.0724 81.3884C26.7734 81.3884 28.9631 83.5781 28.9631 86.2791C28.9631 88.9802 26.7734 91.1699 24.0724 91.1699C21.3713 91.1699 19.1816 88.9802 19.1816 86.2791Z" fill="#90CA2F"/>
<path d="M22.793 88.2354V84.2517H24.1857C24.4632 84.2517 24.6921 84.2997 24.8724 84.3957C25.0526 84.4903 25.1868 84.618 25.275 84.7789C25.3632 84.9384 25.4073 85.1154 25.4073 85.3099C25.4073 85.4811 25.3768 85.6224 25.3159 85.7339C25.2562 85.8455 25.1771 85.9336 25.0785 85.9985C24.9813 86.0633 24.8756 86.1113 24.7615 86.1424V86.1813C24.8834 86.1891 25.0059 86.2319 25.1291 86.3097C25.2523 86.3875 25.3554 86.499 25.4384 86.6443C25.5214 86.7895 25.5629 86.9672 25.5629 87.1772C25.5629 87.3769 25.5175 87.5566 25.4267 87.7161C25.336 87.8756 25.1927 88.002 24.9968 88.0954C24.801 88.1887 24.5462 88.2354 24.2324 88.2354H22.793ZM23.2754 87.8075H24.2324C24.5475 87.8075 24.7712 87.7465 24.9035 87.6246C25.037 87.5014 25.1038 87.3523 25.1038 87.1772C25.1038 87.0424 25.0695 86.9179 25.0007 86.8038C24.932 86.6884 24.8341 86.5963 24.707 86.5276C24.5799 86.4575 24.4295 86.4225 24.2557 86.4225H23.2754V87.8075ZM23.2754 86.0024H24.1701C24.3154 86.0024 24.4464 85.9738 24.5631 85.9168C24.6811 85.8597 24.7744 85.7793 24.8432 85.6756C24.9132 85.5718 24.9482 85.4499 24.9482 85.3099C24.9482 85.1348 24.8873 84.9863 24.7654 84.8644C24.6435 84.7412 24.4503 84.6796 24.1857 84.6796H23.2754V86.0024Z" fill="#90CA2F"/>
<path d="M34.3017 88.8344C34.063 88.8306 33.8244 88.7852 33.5858 88.6981C33.3471 88.6109 33.1293 88.4642 32.9324 88.2577C32.7354 88.0494 32.5772 87.7681 32.4579 87.414C32.3386 87.0579 32.2789 86.6109 32.2789 86.0731C32.2789 85.5579 32.3272 85.1015 32.4238 84.7037C32.5204 84.3041 32.6606 83.968 32.8443 83.6952C33.028 83.4206 33.2496 83.2123 33.5091 83.0702C33.7704 82.9282 34.0649 82.8572 34.3926 82.8572C34.7183 82.8572 35.0081 82.9225 35.2619 83.0532C35.5176 83.182 35.7259 83.3619 35.8869 83.593C36.0479 83.824 36.152 84.0901 36.1994 84.3912H35.5062C35.4418 84.1299 35.3168 83.913 35.1312 83.7407C34.9456 83.5683 34.6994 83.4822 34.3926 83.4822C33.9418 83.4822 33.5867 83.6782 33.3272 84.0702C33.0697 84.4623 32.9399 85.0125 32.938 85.7208H32.9835C33.0895 85.5598 33.2155 85.4225 33.3613 85.3089C33.5091 85.1933 33.6719 85.1043 33.85 85.0418C34.028 84.9793 34.2164 84.9481 34.4153 84.9481C34.7486 84.9481 35.0536 85.0314 35.3301 85.1981C35.6066 85.3628 35.8282 85.5911 35.9949 85.8827C36.1615 86.1725 36.2449 86.5049 36.2449 86.8799C36.2449 87.2397 36.1644 87.5693 36.0034 87.8685C35.8424 88.1659 35.6161 88.4026 35.3244 88.5787C35.0346 88.753 34.6937 88.8382 34.3017 88.8344ZM34.3017 88.2094C34.5403 88.2094 34.7543 88.1498 34.9437 88.0305C35.135 87.9111 35.2856 87.7511 35.3954 87.5503C35.5072 87.3496 35.563 87.1261 35.563 86.8799C35.563 86.6394 35.5091 86.4206 35.4011 86.2236C35.295 86.0248 35.1483 85.8666 34.9608 85.7492C34.7752 85.6318 34.563 85.5731 34.3244 85.5731C34.1445 85.5731 33.9769 85.609 33.8216 85.681C33.6663 85.7511 33.5299 85.8477 33.4125 85.9708C33.2969 86.0939 33.206 86.235 33.1397 86.3941C33.0734 86.5513 33.0403 86.717 33.0403 86.8912C33.0403 87.1223 33.0943 87.3382 33.2022 87.539C33.3121 87.7397 33.4617 87.9017 33.6511 88.0248C33.8424 88.1479 34.0592 88.2094 34.3017 88.2094ZM39.2598 88.8344C38.8317 88.8344 38.4672 88.718 38.166 88.485C37.8649 88.2501 37.6348 87.9102 37.4757 87.4651C37.3166 87.0181 37.237 86.4784 37.237 85.8458C37.237 85.217 37.3166 84.6801 37.4757 84.235C37.6367 83.788 37.8677 83.4471 38.1689 83.2123C38.4719 82.9755 38.8355 82.8572 39.2598 82.8572C39.684 82.8572 40.0467 82.9755 40.3478 83.2123C40.6509 83.4471 40.8819 83.788 41.041 84.235C41.202 84.6801 41.2825 85.217 41.2825 85.8458C41.2825 86.4784 41.2029 87.0181 41.0439 87.4651C40.8848 87.9102 40.6547 88.2501 40.3535 88.485C40.0524 88.718 39.6878 88.8344 39.2598 88.8344ZM39.2598 88.2094C39.684 88.2094 40.0136 88.0049 40.2484 87.5958C40.4833 87.1867 40.6007 86.6034 40.6007 85.8458C40.6007 85.342 40.5467 84.913 40.4387 84.5589C40.3327 84.2047 40.1793 83.9348 39.9785 83.7492C39.7797 83.5636 39.5401 83.4708 39.2598 83.4708C38.8393 83.4708 38.5107 83.6782 38.274 84.093C38.0372 84.5058 37.9189 85.0901 37.9189 85.8458C37.9189 86.3496 37.9719 86.7776 38.0779 87.1299C38.184 87.4822 38.3365 87.7501 38.5353 87.9339C38.7361 88.1176 38.9776 88.2094 39.2598 88.2094ZM44.4075 82.9367V88.7549H43.7029V83.6753H43.6689L42.2484 84.6185V83.9026L43.7029 82.9367H44.4075ZM48.5922 85.5333V86.1583H46.0467V85.5333H48.5922ZM51.6241 88.8344C51.234 88.8344 50.8893 88.7653 50.59 88.627C50.2927 88.4869 50.0607 88.2947 49.894 88.0503C49.7273 87.8041 49.6449 87.5238 49.6468 87.2094C49.6449 86.9632 49.6932 86.7359 49.7917 86.5276C49.8902 86.3174 50.0247 86.1422 50.1951 86.002C50.3675 85.86 50.5597 85.77 50.7718 85.7322V85.6981C50.4934 85.6261 50.2718 85.4698 50.1071 85.2293C49.9423 84.9869 49.8609 84.7113 49.8627 84.4026C49.8609 84.1072 49.9357 83.843 50.0872 83.61C50.2387 83.377 50.447 83.1933 50.7122 83.0589C50.9792 82.9244 51.2832 82.8572 51.6241 82.8572C51.9612 82.8572 52.2624 82.9244 52.5275 83.0589C52.7927 83.1933 53.001 83.377 53.1525 83.61C53.3059 83.843 53.3836 84.1072 53.3855 84.4026C53.3836 84.7113 53.2993 84.9869 53.1326 85.2293C52.9679 85.4698 52.7491 85.6261 52.4764 85.6981V85.7322C52.6866 85.77 52.876 85.86 53.0446 86.002C53.2131 86.1422 53.3476 86.3174 53.448 86.5276C53.5484 86.7359 53.5995 86.9632 53.6014 87.2094C53.5995 87.5238 53.5143 87.8041 53.3457 88.0503C53.179 88.2947 52.947 88.4869 52.6497 88.627C52.3542 88.7653 52.0124 88.8344 51.6241 88.8344ZM51.6241 88.2094C51.8874 88.2094 52.1146 88.1668 52.3059 88.0816C52.4972 87.9964 52.6449 87.8761 52.7491 87.7208C52.8533 87.5655 52.9063 87.3837 52.9082 87.1753C52.9063 86.9556 52.8495 86.7615 52.7377 86.593C52.626 86.4244 52.4735 86.2918 52.2804 86.1952C52.0891 86.0986 51.8703 86.0503 51.6241 86.0503C51.376 86.0503 51.1544 86.0986 50.9593 86.1952C50.7662 86.2918 50.6137 86.4244 50.502 86.593C50.3921 86.7615 50.3381 86.9556 50.34 87.1753C50.3381 87.3837 50.3883 87.5655 50.4906 87.7208C50.5948 87.8761 50.7434 87.9964 50.9366 88.0816C51.1298 88.1668 51.359 88.2094 51.6241 88.2094ZM51.6241 85.4481C51.8324 85.4481 52.0171 85.4064 52.1781 85.3231C52.341 85.2397 52.4688 85.1233 52.5616 84.9736C52.6544 84.824 52.7018 84.6488 52.7037 84.4481C52.7018 84.2511 52.6554 84.0797 52.5645 83.9339C52.4735 83.7861 52.3476 83.6725 52.1866 83.593C52.0256 83.5115 51.8381 83.4708 51.6241 83.4708C51.4063 83.4708 51.216 83.5115 51.0531 83.593C50.8902 83.6725 50.7643 83.7861 50.6752 83.9339C50.5862 84.0797 50.5427 84.2511 50.5446 84.4481C50.5427 84.6488 50.5872 84.824 50.6781 84.9736C50.7709 85.1233 50.8987 85.2397 51.0616 85.3231C51.2245 85.4064 51.412 85.4481 51.6241 85.4481ZM56.5083 88.8344C56.175 88.8344 55.8748 88.7681 55.6078 88.6356C55.3407 88.503 55.1267 88.3212 54.9657 88.0901C54.8047 87.859 54.7167 87.5958 54.7015 87.3003H55.3833C55.4099 87.5636 55.5292 87.7814 55.7413 87.9537C55.9553 88.1242 56.211 88.2094 56.5083 88.2094C56.747 88.2094 56.9591 88.1536 57.1447 88.0418C57.3322 87.9301 57.479 87.7767 57.585 87.5816C57.693 87.3846 57.747 87.1621 57.747 86.914C57.747 86.6602 57.6911 86.4339 57.5794 86.235C57.4695 86.0342 57.318 85.8761 57.1248 85.7606C56.9316 85.645 56.711 85.5863 56.4629 85.5844C56.2849 85.5825 56.1021 85.61 55.9146 85.6668C55.7271 85.7217 55.5727 85.7928 55.4515 85.8799L54.7924 85.8003L55.1447 82.9367H58.1674V83.5617H55.7356L55.5311 85.2776H55.5652C55.6845 85.1829 55.8341 85.1043 56.014 85.0418C56.194 84.9793 56.3815 84.9481 56.5765 84.9481C56.9326 84.9481 57.2498 85.0333 57.5282 85.2037C57.8085 85.3723 58.0282 85.6034 58.1873 85.8969C58.3483 86.1905 58.4288 86.5257 58.4288 86.9026C58.4288 87.2738 58.3455 87.6053 58.1788 87.8969C58.014 88.1867 57.7868 88.4159 57.497 88.5844C57.2072 88.7511 56.8777 88.8344 56.5083 88.8344ZM61.4551 88.8344C61.027 88.8344 60.6625 88.718 60.3613 88.485C60.0602 88.2501 59.8301 87.9102 59.671 87.4651C59.5119 87.0181 59.4324 86.4784 59.4324 85.8458C59.4324 85.217 59.5119 84.6801 59.671 84.235C59.832 83.788 60.063 83.4471 60.3642 83.2123C60.6672 82.9755 61.0308 82.8572 61.4551 82.8572C61.8793 82.8572 62.242 82.9755 62.5431 83.2123C62.8462 83.4471 63.0772 83.788 63.2363 84.235C63.3973 84.6801 63.4778 85.217 63.4778 85.8458C63.4778 86.4784 63.3983 87.0181 63.2392 87.4651C63.0801 87.9102 62.85 88.2501 62.5488 88.485C62.2477 88.718 61.8831 88.8344 61.4551 88.8344ZM61.4551 88.2094C61.8793 88.2094 62.2089 88.0049 62.4437 87.5958C62.6786 87.1867 62.796 86.6034 62.796 85.8458C62.796 85.342 62.742 84.913 62.6341 84.5589C62.528 84.2047 62.3746 83.9348 62.1738 83.7492C61.975 83.5636 61.7354 83.4708 61.4551 83.4708C61.0346 83.4708 60.706 83.6782 60.4693 84.093C60.2325 84.5058 60.1142 85.0901 60.1142 85.8458C60.1142 86.3496 60.1672 86.7776 60.2733 87.1299C60.3793 87.4822 60.5318 87.7501 60.7306 87.9339C60.9314 88.1176 61.1729 88.2094 61.4551 88.2094Z" fill="#121619"/>
<path d="M28.7671 115.931C28.7671 118.524 26.6651 120.626 24.072 120.626C21.479 120.626 19.377 118.524 19.377 115.931C19.377 113.338 21.479 111.236 24.072 111.236C26.6651 111.236 28.7671 113.338 28.7671 115.931Z" fill="#FFFCF3"/>
<path fill-rule="evenodd" clip-rule="evenodd" d="M24.0724 111.432C21.5874 111.432 19.5729 113.446 19.5729 115.931C19.5729 118.416 21.5874 120.43 24.0724 120.43C26.5573 120.43 28.5718 118.416 28.5718 115.931C28.5718 113.446 26.5573 111.432 24.0724 111.432ZM19.1816 115.931C19.1816 113.23 21.3713 111.04 24.0724 111.04C26.7734 111.04 28.9631 113.23 28.9631 115.931C28.9631 118.632 26.7734 120.822 24.0724 120.822C21.3713 120.822 19.1816 118.632 19.1816 115.931Z" fill="#FDC106"/>
<path d="M25.6718 115.148H25.1894C25.1609 115.01 25.1109 114.888 25.0396 114.783C24.9696 114.678 24.884 114.59 24.7829 114.518C24.683 114.446 24.5721 114.391 24.4502 114.355C24.3283 114.319 24.2013 114.3 24.069 114.3C23.8278 114.3 23.6093 114.361 23.4135 114.483C23.2189 114.605 23.064 114.785 22.9486 115.022C22.8344 115.259 22.7774 115.55 22.7774 115.895C22.7774 116.24 22.8344 116.532 22.9486 116.769C23.064 117.006 23.2189 117.186 23.4135 117.308C23.6093 117.43 23.8278 117.49 24.069 117.49C24.2013 117.49 24.3283 117.472 24.4502 117.436C24.5721 117.4 24.683 117.346 24.7829 117.275C24.884 117.202 24.9696 117.113 25.0396 117.008C25.1109 116.902 25.1609 116.78 25.1894 116.642H25.6718C25.6355 116.846 25.5694 117.028 25.4734 117.189C25.3774 117.35 25.2581 117.487 25.1155 117.599C24.9728 117.711 24.8127 117.796 24.635 117.854C24.4587 117.913 24.27 117.942 24.069 117.942C23.7292 117.942 23.4271 117.859 23.1625 117.693C22.898 117.527 22.6899 117.291 22.5381 116.985C22.3864 116.679 22.3105 116.316 22.3105 115.895C22.3105 115.475 22.3864 115.112 22.5381 114.806C22.6899 114.5 22.898 114.264 23.1625 114.098C23.4271 113.932 23.7292 113.849 24.069 113.849C24.27 113.849 24.4587 113.878 24.635 113.937C24.8127 113.995 24.9728 114.081 25.1155 114.193C25.2581 114.305 25.3774 114.441 25.4734 114.602C25.5694 114.761 25.6355 114.944 25.6718 115.148Z" fill="#FDC106"/>
<path d="M32.2335 117.214V116.634L34.7903 112.589H35.2108V113.486H34.9267L32.9949 116.543V116.589H36.438V117.214H32.2335ZM34.9721 118.407V117.037V116.768V112.589H35.6426V118.407H34.9721ZM39.4004 118.486C38.9724 118.486 38.6078 118.37 38.3066 118.137C38.0055 117.902 37.7754 117.562 37.6163 117.117C37.4572 116.67 37.3777 116.13 37.3777 115.498C37.3777 114.869 37.4572 114.332 37.6163 113.887C37.7773 113.44 38.0083 113.099 38.3095 112.864C38.6125 112.627 38.9761 112.509 39.4004 112.509C39.8246 112.509 40.1873 112.627 40.4885 112.864C40.7915 113.099 41.0225 113.44 41.1816 113.887C41.3426 114.332 41.4231 114.869 41.4231 115.498C41.4231 116.13 41.3436 116.67 41.1845 117.117C41.0254 117.562 40.7953 117.902 40.4941 118.137C40.193 118.37 39.8284 118.486 39.4004 118.486ZM39.4004 117.861C39.8246 117.861 40.1542 117.657 40.389 117.248C40.6239 116.839 40.7413 116.255 40.7413 115.498C40.7413 114.994 40.6873 114.565 40.5794 114.211C40.4733 113.857 40.3199 113.587 40.1191 113.401C39.9203 113.215 39.6807 113.123 39.4004 113.123C38.9799 113.123 38.6513 113.33 38.4146 113.745C38.1779 114.158 38.0595 114.742 38.0595 115.498C38.0595 116.001 38.1125 116.429 38.2186 116.782C38.3246 117.134 38.4771 117.402 38.676 117.586C38.8767 117.769 39.1182 117.861 39.4004 117.861ZM44.5481 112.589V118.407H43.8436V113.327H43.8095L42.389 114.27V113.554L43.8436 112.589H44.5481ZM48.7328 115.185V115.81H46.1873V115.185H48.7328ZM51.8329 118.486C51.5943 118.482 51.3556 118.437 51.117 118.35C50.8784 118.263 50.6606 118.116 50.4636 117.91C50.2666 117.701 50.1085 117.42 49.9892 117.066C49.8699 116.71 49.8102 116.263 49.8102 115.725C49.8102 115.21 49.8585 114.753 49.9551 114.356C50.0517 113.956 50.1918 113.62 50.3755 113.347C50.5592 113.072 50.7808 112.864 51.0403 112.722C51.3017 112.58 51.5962 112.509 51.9238 112.509C52.2496 112.509 52.5394 112.574 52.7931 112.705C53.0488 112.834 53.2572 113.014 53.4181 113.245C53.5791 113.476 53.6833 113.742 53.7306 114.043H53.0375C52.9731 113.782 52.8481 113.565 52.6625 113.393C52.4769 113.22 52.2306 113.134 51.9238 113.134C51.4731 113.134 51.118 113.33 50.8585 113.722C50.6009 114.114 50.4712 114.664 50.4693 115.373H50.5147C50.6208 115.212 50.7467 115.074 50.8926 114.961C51.0403 114.845 51.2032 114.756 51.3812 114.694C51.5592 114.631 51.7477 114.6 51.9466 114.6C52.2799 114.6 52.5848 114.683 52.8613 114.85C53.1378 115.015 53.3594 115.243 53.5261 115.535C53.6928 115.824 53.7761 116.157 53.7761 116.532C53.7761 116.892 53.6956 117.221 53.5346 117.52C53.3736 117.818 53.1473 118.054 52.8556 118.231C52.5659 118.405 52.225 118.49 51.8329 118.486ZM51.8329 117.861C52.0716 117.861 52.2856 117.802 52.475 117.682C52.6663 117.563 52.8168 117.403 52.9267 117.202C53.0384 117.001 53.0943 116.778 53.0943 116.532C53.0943 116.291 53.0403 116.072 52.9324 115.875C52.8263 115.677 52.6795 115.518 52.492 115.401C52.3064 115.284 52.0943 115.225 51.8556 115.225C51.6757 115.225 51.5081 115.261 51.3528 115.333C51.1975 115.403 51.0611 115.5 50.9437 115.623C50.8282 115.746 50.7373 115.887 50.671 116.046C50.6047 116.203 50.5716 116.369 50.5716 116.543C50.5716 116.774 50.6255 116.99 50.7335 117.191C50.8433 117.392 50.993 117.554 51.1824 117.677C51.3736 117.8 51.5905 117.861 51.8329 117.861ZM56.791 118.486C56.363 118.486 55.9984 118.37 55.6973 118.137C55.3961 117.902 55.166 117.562 55.0069 117.117C54.8478 116.67 54.7683 116.13 54.7683 115.498C54.7683 114.869 54.8478 114.332 55.0069 113.887C55.1679 113.44 55.399 113.099 55.7001 112.864C56.0031 112.627 56.3668 112.509 56.791 112.509C57.2153 112.509 57.5779 112.627 57.8791 112.864C58.1821 113.099 58.4132 113.44 58.5723 113.887C58.7333 114.332 58.8137 114.869 58.8137 115.498C58.8137 116.13 58.7342 116.67 58.5751 117.117C58.416 117.562 58.1859 117.902 57.8848 118.137C57.5836 118.37 57.219 118.486 56.791 118.486ZM56.791 117.861C57.2153 117.861 57.5448 117.657 57.7797 117.248C58.0145 116.839 58.1319 116.255 58.1319 115.498C58.1319 114.994 58.0779 114.565 57.97 114.211C57.8639 113.857 57.7105 113.587 57.5098 113.401C57.3109 113.215 57.0713 113.123 56.791 113.123C56.3706 113.123 56.042 113.33 55.8052 113.745C55.5685 114.158 55.4501 114.742 55.4501 115.498C55.4501 116.001 55.5031 116.429 55.6092 116.782C55.7153 117.134 55.8677 117.402 56.0666 117.586C56.2673 117.769 56.5088 117.861 56.791 117.861ZM61.791 118.486C61.363 118.486 60.9984 118.37 60.6973 118.137C60.3961 117.902 60.166 117.562 60.0069 117.117C59.8478 116.67 59.7683 116.13 59.7683 115.498C59.7683 114.869 59.8478 114.332 60.0069 113.887C60.1679 113.44 60.399 113.099 60.7001 112.864C61.0031 112.627 61.3668 112.509 61.791 112.509C62.2153 112.509 62.5779 112.627 62.8791 112.864C63.1821 113.099 63.4132 113.44 63.5723 113.887C63.7333 114.332 63.8137 114.869 63.8137 115.498C63.8137 116.13 63.7342 116.67 63.5751 117.117C63.416 117.562 63.1859 117.902 62.8848 118.137C62.5836 118.37 62.219 118.486 61.791 118.486ZM61.791 117.861C62.2153 117.861 62.5448 117.657 62.7797 117.248C63.0145 116.839 63.1319 116.255 63.1319 115.498C63.1319 114.994 63.0779 114.565 62.97 114.211C62.8639 113.857 62.7105 113.587 62.5098 113.401C62.3109 113.215 62.0713 113.123 61.791 113.123C61.3706 113.123 61.042 113.33 60.8052 113.745C60.5685 114.158 60.4501 114.742 60.4501 115.498C60.4501 116.001 60.5031 116.429 60.6092 116.782C60.7153 117.134 60.8677 117.402 61.0666 117.586C61.2673 117.769 61.5088 117.861 61.791 117.861Z" fill="#121619"/>
<path d="M28.7671 146.308C28.7671 148.901 26.6651 151.003 24.072 151.003C21.479 151.003 19.377 148.901 19.377 146.308C19.377 143.715 21.479 141.613 24.072 141.613C26.6651 141.613 28.7671 143.715 28.7671 146.308Z" fill="#FFFAF2"/>
<path fill-rule="evenodd" clip-rule="evenodd" d="M24.0724 141.808C21.5874 141.808 19.5729 143.823 19.5729 146.308C19.5729 148.793 21.5874 150.807 24.0724 150.807C26.5573 150.807 28.5718 148.793 28.5718 146.308C28.5718 143.823 26.5573 141.808 24.0724 141.808ZM19.1816 146.308C19.1816 143.607 21.3713 141.417 24.0724 141.417C26.7734 141.417 28.9631 143.607 28.9631 146.308C28.9631 149.009 26.7734 151.198 24.0724 151.198C21.3713 151.198 19.1816 149.009 19.1816 146.308Z" fill="#FF6B01"/>
<path d="M23.8348 148.264H22.6055V144.28H23.8893C24.2757 144.28 24.6064 144.36 24.8813 144.52C25.1562 144.678 25.367 144.905 25.5135 145.202C25.66 145.498 25.7333 145.852 25.7333 146.264C25.7333 146.679 25.6594 147.037 25.5116 147.336C25.3637 147.634 25.1485 147.864 24.8658 148.025C24.5831 148.184 24.2394 148.264 23.8348 148.264ZM23.0879 147.836H23.8037C24.1331 147.836 24.406 147.773 24.6226 147.645C24.8392 147.518 25.0006 147.337 25.107 147.103C25.2133 146.868 25.2665 146.589 25.2665 146.264C25.2665 145.943 25.2139 145.666 25.1089 145.434C25.0039 145.2 24.847 145.021 24.6382 144.897C24.4294 144.771 24.1694 144.708 23.8582 144.708H23.0879V147.836Z" fill="#FF6B01"/>
<path d="M32.3699 149.059V148.547L34.2903 146.445C34.5157 146.199 34.7013 145.985 34.8471 145.803C34.993 145.619 35.1009 145.447 35.171 145.286C35.243 145.123 35.2789 144.953 35.2789 144.775C35.2789 144.57 35.2297 144.393 35.1312 144.243C35.0346 144.094 34.902 143.978 34.7335 143.897C34.5649 143.815 34.3755 143.775 34.1653 143.775C33.9418 143.775 33.7467 143.821 33.5801 143.914C33.4153 144.005 33.2875 144.132 33.1966 144.297C33.1075 144.462 33.063 144.655 33.063 144.877H32.3926C32.3926 144.536 32.4712 144.237 32.6284 143.979C32.7856 143.721 32.9996 143.521 33.2704 143.377C33.5431 143.233 33.849 143.161 34.188 143.161C34.5289 143.161 34.831 143.233 35.0943 143.377C35.3575 143.521 35.564 143.715 35.7136 143.959C35.8632 144.203 35.938 144.475 35.938 144.775C35.938 144.989 35.8992 145.198 35.8216 145.402C35.7458 145.605 35.6132 145.831 35.4238 146.081C35.2363 146.329 34.9759 146.632 34.6426 146.99L33.3358 148.388V148.434H36.0403V149.059H32.3699ZM39.1113 149.138C38.6833 149.138 38.3187 149.022 38.0176 148.789C37.7164 148.554 37.4863 148.214 37.3272 147.769C37.1681 147.322 37.0886 146.782 37.0886 146.15C37.0886 145.521 37.1681 144.984 37.3272 144.539C37.4882 144.092 37.7193 143.751 38.0204 143.516C38.3234 143.279 38.6871 143.161 39.1113 143.161C39.5356 143.161 39.8983 143.279 40.1994 143.516C40.5024 143.751 40.7335 144.092 40.8926 144.539C41.0536 144.984 41.1341 145.521 41.1341 146.15C41.1341 146.782 41.0545 147.322 40.8954 147.769C40.7363 148.214 40.5062 148.554 40.2051 148.789C39.9039 149.022 39.5394 149.138 39.1113 149.138ZM39.1113 148.513C39.5356 148.513 39.8651 148.309 40.1 147.9C40.3348 147.49 40.4522 146.907 40.4522 146.15C40.4522 145.646 40.3983 145.217 40.2903 144.863C40.1842 144.508 40.0308 144.239 39.8301 144.053C39.6312 143.867 39.3916 143.775 39.1113 143.775C38.6909 143.775 38.3623 143.982 38.1255 144.397C37.8888 144.81 37.7704 145.394 37.7704 146.15C37.7704 146.653 37.8234 147.081 37.9295 147.434C38.0356 147.786 38.188 148.054 38.3869 148.238C38.5877 148.421 38.8291 148.513 39.1113 148.513ZM44.2591 143.24V149.059H43.5545V143.979H43.5204L42.1 144.922V144.206L43.5545 143.24H44.2591ZM48.4437 145.837V146.462H45.8983V145.837H48.4437ZM49.4757 147.865V147.286L52.0325 143.24H52.4529V144.138H52.1689L50.237 147.195V147.24H53.6802V147.865H49.4757ZM52.2143 149.059V147.689V147.419V143.24H52.8848V149.059H52.2143ZM56.6426 149.138C56.2145 149.138 55.85 149.022 55.5488 148.789C55.2477 148.554 55.0176 148.214 54.8585 147.769C54.6994 147.322 54.6199 146.782 54.6199 146.15C54.6199 145.521 54.6994 144.984 54.8585 144.539C55.0195 144.092 55.2505 143.751 55.5517 143.516C55.8547 143.279 56.2183 143.161 56.6426 143.161C57.0668 143.161 57.4295 143.279 57.7306 143.516C58.0337 143.751 58.2647 144.092 58.4238 144.539C58.5848 144.984 58.6653 145.521 58.6653 146.15C58.6653 146.782 58.5858 147.322 58.4267 147.769C58.2676 148.214 58.0375 148.554 57.7363 148.789C57.4352 149.022 57.0706 149.138 56.6426 149.138ZM56.6426 148.513C57.0668 148.513 57.3964 148.309 57.6312 147.9C57.8661 147.49 57.9835 146.907 57.9835 146.15C57.9835 145.646 57.9295 145.217 57.8216 144.863C57.7155 144.508 57.5621 144.239 57.3613 144.053C57.1625 143.867 56.9229 143.775 56.6426 143.775C56.2221 143.775 55.8935 143.982 55.6568 144.397C55.42 144.81 55.3017 145.394 55.3017 146.15C55.3017 146.653 55.3547 147.081 55.4608 147.434C55.5668 147.786 55.7193 148.054 55.9181 148.238C56.1189 148.421 56.3604 148.513 56.6426 148.513ZM61.6426 149.138C61.2145 149.138 60.85 149.022 60.5488 148.789C60.2477 148.554 60.0176 148.214 59.8585 147.769C59.6994 147.322 59.6199 146.782 59.6199 146.15C59.6199 145.521 59.6994 144.984 59.8585 144.539C60.0195 144.092 60.2505 143.751 60.5517 143.516C60.8547 143.279 61.2183 143.161 61.6426 143.161C62.0668 143.161 62.4295 143.279 62.7306 143.516C63.0337 143.751 63.2647 144.092 63.4238 144.539C63.5848 144.984 63.6653 145.521 63.6653 146.15C63.6653 146.782 63.5858 147.322 63.4267 147.769C63.2676 148.214 63.0375 148.554 62.7363 148.789C62.4352 149.022 62.0706 149.138 61.6426 149.138ZM61.6426 148.513C62.0668 148.513 62.3964 148.309 62.6312 147.9C62.8661 147.49 62.9835 146.907 62.9835 146.15C62.9835 145.646 62.9295 145.217 62.8216 144.863C62.7155 144.508 62.5621 144.239 62.3613 144.053C62.1625 143.867 61.9229 143.775 61.6426 143.775C61.2221 143.775 60.8935 143.982 60.6568 144.397C60.42 144.81 60.3017 145.394 60.3017 146.15C60.3017 146.653 60.3547 147.081 60.4608 147.434C60.5668 147.786 60.7193 148.054 60.9181 148.238C61.1189 148.421 61.3604 148.513 61.6426 148.513Z" fill="#121619"/>
<path d="M28.7671 176.204C28.7671 178.797 26.6651 180.899 24.072 180.899C21.479 180.899 19.377 178.797 19.377 176.204C19.377 173.611 21.479 171.509 24.072 171.509C26.6651 171.509 28.7671 173.611 28.7671 176.204Z" fill="#FEF5F5"/>
<path fill-rule="evenodd" clip-rule="evenodd" d="M24.0724 171.705C21.5874 171.705 19.5729 173.719 19.5729 176.204C19.5729 178.689 21.5874 180.704 24.0724 180.704C26.5573 180.704 28.5718 178.689 28.5718 176.204C28.5718 173.719 26.5573 171.705 24.0724 171.705ZM19.1816 176.204C19.1816 173.503 21.3713 171.313 24.0724 171.313C26.7734 171.313 28.9631 173.503 28.9631 176.204C28.9631 178.905 26.7734 181.095 24.0724 181.095C21.3713 181.095 19.1816 178.905 19.1816 176.204Z" fill="#E02424"/>
<path d="M23.0938 178.16V174.177H25.4824V174.605H23.5762V175.951H25.3035V176.379H23.5762V178.16H23.0938Z" fill="#E02424"/>
<path d="M34.3965 179.806C33.9685 179.806 33.6039 179.69 33.3027 179.457C33.0016 179.222 32.7715 178.882 32.6124 178.437C32.4533 177.99 32.3738 177.45 32.3738 176.817C32.3738 176.189 32.4533 175.652 32.6124 175.207C32.7734 174.76 33.0044 174.419 33.3056 174.184C33.6086 173.947 33.9722 173.829 34.3965 173.829C34.8207 173.829 35.1834 173.947 35.4846 174.184C35.7876 174.419 36.0186 174.76 36.1777 175.207C36.3387 175.652 36.4192 176.189 36.4192 176.817C36.4192 177.45 36.3397 177.99 36.1806 178.437C36.0215 178.882 35.7914 179.222 35.4902 179.457C35.1891 179.69 34.8245 179.806 34.3965 179.806ZM34.3965 179.181C34.8207 179.181 35.1503 178.977 35.3851 178.567C35.62 178.158 35.7374 177.575 35.7374 176.817C35.7374 176.314 35.6834 175.885 35.5755 175.531C35.4694 175.176 35.316 174.906 35.1152 174.721C34.9164 174.535 34.6768 174.442 34.3965 174.442C33.976 174.442 33.6474 174.65 33.4107 175.065C33.1739 175.478 33.0556 176.062 33.0556 176.817C33.0556 177.321 33.1086 177.749 33.2147 178.102C33.3207 178.454 33.4732 178.722 33.6721 178.906C33.8728 179.089 34.1143 179.181 34.3965 179.181ZM40.0101 176.505V177.13H37.4647V176.505H40.0101ZM40.905 179.727V179.215L42.8255 177.113C43.0508 176.867 43.2364 176.653 43.3823 176.471C43.5281 176.287 43.6361 176.115 43.7061 175.954C43.7781 175.791 43.8141 175.621 43.8141 175.442C43.8141 175.238 43.7649 175.061 43.6664 174.911C43.5698 174.762 43.4372 174.646 43.2686 174.565C43.1001 174.483 42.9107 174.442 42.7005 174.442C42.477 174.442 42.2819 174.489 42.1152 174.582C41.9505 174.673 41.8226 174.8 41.7317 174.965C41.6427 175.13 41.5982 175.323 41.5982 175.545H40.9277C40.9277 175.204 41.0063 174.905 41.1635 174.647C41.3207 174.389 41.5347 174.189 41.8056 174.045C42.0783 173.901 42.3842 173.829 42.7232 173.829C43.0641 173.829 43.3662 173.901 43.6294 174.045C43.8927 174.189 44.0991 174.383 44.2488 174.627C44.3984 174.871 44.4732 175.143 44.4732 175.442C44.4732 175.656 44.4344 175.866 44.3567 176.07C44.281 176.273 44.1484 176.499 43.959 176.749C43.7715 176.997 43.5111 177.3 43.1777 177.658L41.8709 179.056V179.102H44.5755V179.727H40.905ZM47.6465 179.806C47.2185 179.806 46.8539 179.69 46.5527 179.457C46.2516 179.222 46.0215 178.882 45.8624 178.437C45.7033 177.99 45.6238 177.45 45.6238 176.817C45.6238 176.189 45.7033 175.652 45.8624 175.207C46.0234 174.76 46.2544 174.419 46.5556 174.184C46.8586 173.947 47.2222 173.829 47.6465 173.829C48.0707 173.829 48.4334 173.947 48.7346 174.184C49.0376 174.419 49.2686 174.76 49.4277 175.207C49.5887 175.652 49.6692 176.189 49.6692 176.817C49.6692 177.45 49.5897 177.99 49.4306 178.437C49.2715 178.882 49.0414 179.222 48.7402 179.457C48.4391 179.69 48.0745 179.806 47.6465 179.806ZM47.6465 179.181C48.0707 179.181 48.4003 178.977 48.6351 178.567C48.87 178.158 48.9874 177.575 48.9874 176.817C48.9874 176.314 48.9334 175.885 48.8255 175.531C48.7194 175.176 48.566 174.906 48.3652 174.721C48.1664 174.535 47.9268 174.442 47.6465 174.442C47.226 174.442 46.8974 174.65 46.6607 175.065C46.4239 175.478 46.3056 176.062 46.3056 176.817C46.3056 177.321 46.3586 177.749 46.4647 178.102C46.5707 178.454 46.7232 178.722 46.9221 178.906C47.1228 179.089 47.3643 179.181 47.6465 179.181ZM52.6465 179.806C52.2185 179.806 51.8539 179.69 51.5527 179.457C51.2516 179.222 51.0215 178.882 50.8624 178.437C50.7033 177.99 50.6238 177.45 50.6238 176.817C50.6238 176.189 50.7033 175.652 50.8624 175.207C51.0234 174.76 51.2544 174.419 51.5556 174.184C51.8586 173.947 52.2222 173.829 52.6465 173.829C53.0707 173.829 53.4334 173.947 53.7346 174.184C54.0376 174.419 54.2686 174.76 54.4277 175.207C54.5887 175.652 54.6692 176.189 54.6692 176.817C54.6692 177.45 54.5897 177.99 54.4306 178.437C54.2715 178.882 54.0414 179.222 53.7402 179.457C53.4391 179.69 53.0745 179.806 52.6465 179.806ZM52.6465 179.181C53.0707 179.181 53.4003 178.977 53.6351 178.567C53.87 178.158 53.9874 177.575 53.9874 176.817C53.9874 176.314 53.9334 175.885 53.8255 175.531C53.7194 175.176 53.566 174.906 53.3652 174.721C53.1664 174.535 52.9268 174.442 52.6465 174.442C52.226 174.442 51.8974 174.65 51.6607 175.065C51.4239 175.478 51.3056 176.062 51.3056 176.817C51.3056 177.321 51.3586 177.749 51.4647 178.102C51.5707 178.454 51.7232 178.722 51.9221 178.906C52.1228 179.089 52.3643 179.181 52.6465 179.181Z" fill="#121619"/>
<path d="M29.7671 58.1514C29.7671 60.7444 27.6651 62.8465 25.072 62.8465C22.479 62.8465 20.377 60.7444 20.377 58.1514C20.377 55.5584 22.479 53.4563 25.072 53.4563C27.6651 53.4563 29.7671 55.5584 29.7671 58.1514Z" fill="#F4FBF7"/>
<path fill-rule="evenodd" clip-rule="evenodd" d="M25.0724 53.652C22.5874 53.652 20.5729 55.6665 20.5729 58.1515C20.5729 60.6364 22.5874 62.6509 25.0724 62.6509C27.5573 62.6509 29.5718 60.6364 29.5718 58.1515C29.5718 55.6665 27.5573 53.652 25.0724 53.652ZM20.1816 58.1515C20.1816 55.4504 22.3713 53.2607 25.0724 53.2607C27.7734 53.2607 29.9631 55.4504 29.9631 58.1515C29.9631 60.8525 27.7734 63.0422 25.0724 63.0422C22.3713 63.0422 20.1816 60.8525 20.1816 58.1515Z" fill="#20AF5D"/>
<path d="M23.8163 60.1077H23.3105L24.7733 56.124H25.2713L26.734 60.1077H26.2283L25.0379 56.7543H25.0067L23.8163 60.1077ZM24.003 58.5516H26.0416V58.9795H24.003V58.5516Z" fill="#20AF5D"/>
<path d="M35.2335 61.2309C34.8433 61.2309 34.4986 61.1618 34.1994 61.0235C33.902 60.8834 33.67 60.6911 33.5034 60.4468C33.3367 60.2006 33.2543 59.9203 33.2562 59.6059C33.2543 59.3597 33.3026 59.1324 33.4011 58.9241C33.4996 58.7139 33.6341 58.5387 33.8045 58.3985C33.9769 58.2565 34.1691 58.1665 34.3812 58.1286V58.0945C34.1028 58.0226 33.8812 57.8663 33.7164 57.6258C33.5517 57.3834 33.4702 57.1078 33.4721 56.7991C33.4702 56.5036 33.545 56.2394 33.6966 56.0065C33.8481 55.7735 34.0564 55.5898 34.3216 55.4553C34.5886 55.3209 34.8926 55.2536 35.2335 55.2536C35.5706 55.2536 35.8717 55.3209 36.1369 55.4553C36.402 55.5898 36.6104 55.7735 36.7619 56.0065C36.9153 56.2394 36.993 56.5036 36.9949 56.7991C36.993 57.1078 36.9087 57.3834 36.742 57.6258C36.5772 57.8663 36.3585 58.0226 36.0858 58.0945V58.1286C36.296 58.1665 36.4854 58.2565 36.6539 58.3985C36.8225 58.5387 36.957 58.7139 37.0574 58.9241C37.1577 59.1324 37.2089 59.3597 37.2108 59.6059C37.2089 59.9203 37.1236 60.2006 36.9551 60.4468C36.7884 60.6911 36.5564 60.8834 36.2591 61.0235C35.9636 61.1618 35.6217 61.2309 35.2335 61.2309ZM35.2335 60.6059C35.4967 60.6059 35.724 60.5633 35.9153 60.4781C36.1066 60.3928 36.2543 60.2726 36.3585 60.1173C36.4627 59.962 36.5157 59.7802 36.5176 59.5718C36.5157 59.3521 36.4589 59.158 36.3471 58.9894C36.2354 58.8209 36.0829 58.6883 35.8897 58.5917C35.6984 58.4951 35.4797 58.4468 35.2335 58.4468C34.9854 58.4468 34.7638 58.4951 34.5687 58.5917C34.3755 58.6883 34.2231 58.8209 34.1113 58.9894C34.0015 59.158 33.9475 59.3521 33.9494 59.5718C33.9475 59.7802 33.9977 59.962 34.1 60.1173C34.2041 60.2726 34.3528 60.3928 34.546 60.4781C34.7392 60.5633 34.9683 60.6059 35.2335 60.6059ZM35.2335 57.8445C35.4418 57.8445 35.6265 57.8029 35.7875 57.7195C35.9503 57.6362 36.0782 57.5197 36.171 57.3701C36.2638 57.2205 36.3111 57.0453 36.313 56.8445C36.3111 56.6476 36.2647 56.4762 36.1738 56.3303C36.0829 56.1826 35.957 56.069 35.796 55.9894C35.635 55.908 35.4475 55.8673 35.2335 55.8673C35.0157 55.8673 34.8253 55.908 34.6625 55.9894C34.4996 56.069 34.3736 56.1826 34.2846 56.3303C34.1956 56.4762 34.152 56.6476 34.1539 56.8445C34.152 57.0453 34.1966 57.2205 34.2875 57.3701C34.3803 57.5197 34.5081 57.6362 34.671 57.7195C34.8339 57.8029 35.0214 57.8445 35.2335 57.8445ZM40.1177 61.2309C39.7844 61.2309 39.4842 61.1646 39.2172 61.032C38.9501 60.8995 38.7361 60.7177 38.5751 60.4866C38.4141 60.2555 38.3261 59.9923 38.3109 59.6968H38.9927C39.0192 59.9601 39.1386 60.1779 39.3507 60.3502C39.5647 60.5207 39.8204 60.6059 40.1177 60.6059C40.3564 60.6059 40.5685 60.55 40.7541 60.4383C40.9416 60.3266 41.0884 60.1731 41.1944 59.9781C41.3024 59.7811 41.3564 59.5586 41.3564 59.3105C41.3564 59.0567 41.3005 58.8303 41.1887 58.6315C41.0789 58.4307 40.9274 58.2726 40.7342 58.157C40.541 58.0415 40.3204 57.9828 40.0723 57.9809C39.8942 57.979 39.7115 58.0065 39.524 58.0633C39.3365 58.1182 39.1821 58.1892 39.0609 58.2764L38.4018 58.1968L38.7541 55.3332H41.7768V55.9582H39.345L39.1404 57.6741H39.1745C39.2939 57.5794 39.4435 57.5008 39.6234 57.4383C39.8033 57.3758 39.9908 57.3445 40.1859 57.3445C40.542 57.3445 40.8592 57.4298 41.1376 57.6002C41.4179 57.7688 41.6376 57.9999 41.7967 58.2934C41.9577 58.587 42.0382 58.9222 42.0382 59.2991C42.0382 59.6703 41.9548 60.0017 41.7882 60.2934C41.6234 60.5832 41.3961 60.8124 41.1064 60.9809C40.8166 61.1476 40.487 61.2309 40.1177 61.2309ZM45.0645 61.2309C44.6364 61.2309 44.2718 61.1144 43.9707 60.8815C43.6696 60.6466 43.4395 60.3067 43.2804 59.8616C43.1213 59.4146 43.0417 58.8749 43.0417 58.2423C43.0417 57.6135 43.1213 57.0766 43.2804 56.6315C43.4413 56.1845 43.6724 55.8436 43.9735 55.6088C44.2766 55.372 44.6402 55.2536 45.0645 55.2536C45.4887 55.2536 45.8514 55.372 46.1525 55.6088C46.4556 55.8436 46.6866 56.1845 46.8457 56.6315C47.0067 57.0766 47.0872 57.6135 47.0872 58.2423C47.0872 58.8749 47.0076 59.4146 46.8485 59.8616C46.6895 60.3067 46.4593 60.6466 46.1582 60.8815C45.8571 61.1144 45.4925 61.2309 45.0645 61.2309ZM45.0645 60.6059C45.4887 60.6059 45.8182 60.4014 46.0531 59.9923C46.2879 59.5832 46.4054 58.9999 46.4054 58.2423C46.4054 57.7385 46.3514 57.3095 46.2434 56.9553C46.1374 56.6012 45.984 56.3313 45.7832 56.1457C45.5843 55.9601 45.3448 55.8673 45.0645 55.8673C44.644 55.8673 44.3154 56.0747 44.0787 56.4894C43.8419 56.9023 43.7235 57.4866 43.7235 58.2423C43.7235 58.7461 43.7766 59.1741 43.8826 59.5264C43.9887 59.8786 44.1412 60.1466 44.34 60.3303C44.5408 60.5141 44.7823 60.6059 45.0645 60.6059ZM50.6781 57.9298V58.5548H48.1326V57.9298H50.6781ZM53.6987 55.2536C53.9373 55.2555 54.176 55.301 54.4146 55.39C54.6532 55.479 54.871 55.6267 55.068 55.8332C55.265 56.0377 55.4231 56.3171 55.5424 56.6713C55.6618 57.0254 55.7214 57.4695 55.7214 58.0036C55.7214 58.5207 55.6722 58.98 55.5737 59.3815C55.4771 59.7811 55.3369 60.1182 55.1532 60.3928C54.9714 60.6675 54.7498 60.8758 54.4885 61.0178C54.229 61.1599 53.9354 61.2309 53.6078 61.2309C53.282 61.2309 52.9913 61.1665 52.7356 61.0377C52.4818 60.907 52.2735 60.7262 52.1106 60.4951C51.9496 60.2622 51.8464 59.9923 51.801 59.6855H52.4941C52.5566 59.9525 52.6807 60.1731 52.8663 60.3474C53.0538 60.5197 53.301 60.6059 53.6078 60.6059C54.0566 60.6059 54.4108 60.4099 54.6703 60.0178C54.9316 59.6258 55.0623 59.0718 55.0623 58.3559H55.0169C54.9108 58.515 54.7849 58.6523 54.639 58.7678C54.4932 58.8834 54.3313 58.9724 54.1532 59.0349C53.9752 59.0974 53.7858 59.1286 53.585 59.1286C53.2517 59.1286 52.9458 59.0463 52.6674 58.8815C52.3909 58.7148 52.1693 58.4866 52.0027 58.1968C51.8379 57.9052 51.7555 57.5718 51.7555 57.1968C51.7555 56.8408 51.835 56.515 51.9941 56.2195C52.1551 55.9222 52.3805 55.6855 52.6703 55.5093C52.9619 55.3332 53.3047 55.248 53.6987 55.2536ZM53.6987 55.8786C53.46 55.8786 53.2451 55.9383 53.0538 56.0576C52.8644 56.175 52.7138 56.3341 52.6021 56.5349C52.4922 56.7338 52.4373 56.9544 52.4373 57.1968C52.4373 57.4392 52.4904 57.6599 52.5964 57.8588C52.7044 58.0557 52.8511 58.2129 53.0368 58.3303C53.2243 58.4459 53.4373 58.5036 53.676 58.5036C53.8559 58.5036 54.0235 58.4686 54.1788 58.3985C54.3341 58.3266 54.4695 58.229 54.585 58.1059C54.7025 57.9809 54.7943 57.8398 54.8606 57.6826C54.9269 57.5235 54.96 57.3578 54.96 57.1855C54.96 56.9582 54.9051 56.7451 54.7953 56.5463C54.6873 56.3474 54.5377 56.1864 54.3464 56.0633C54.157 55.9402 53.9411 55.8786 53.6987 55.8786ZM58.6568 61.2309C58.3234 61.2309 58.0233 61.1646 57.7562 61.032C57.4892 60.8995 57.2752 60.7177 57.1142 60.4866C56.9532 60.2555 56.8651 59.9923 56.85 59.6968H57.5318C57.5583 59.9601 57.6776 60.1779 57.8897 60.3502C58.1038 60.5207 58.3594 60.6059 58.6568 60.6059C58.8954 60.6059 59.1075 60.55 59.2931 60.4383C59.4806 60.3266 59.6274 60.1731 59.7335 59.9781C59.8414 59.7811 59.8954 59.5586 59.8954 59.3105C59.8954 59.0567 59.8395 58.8303 59.7278 58.6315C59.618 58.4307 59.4664 58.2726 59.2733 58.157C59.0801 58.0415 58.8594 57.9828 58.6113 57.9809C58.4333 57.979 58.2505 58.0065 58.063 58.0633C57.8755 58.1182 57.7212 58.1892 57.6 58.2764L56.9409 58.1968L57.2931 55.3332H60.3159V55.9582H57.8841L57.6795 57.6741H57.7136C57.8329 57.5794 57.9825 57.5008 58.1625 57.4383C58.3424 57.3758 58.5299 57.3445 58.725 57.3445C59.081 57.3445 59.3983 57.4298 59.6767 57.6002C59.957 57.7688 60.1767 57.9999 60.3358 58.2934C60.4967 58.587 60.5772 58.9222 60.5772 59.2991C60.5772 59.6703 60.4939 60.0017 60.3272 60.2934C60.1625 60.5832 59.9352 60.8124 59.6454 60.9809C59.3556 61.1476 59.0261 61.2309 58.6568 61.2309ZM63.6035 61.2309C63.1755 61.2309 62.8109 61.1144 62.5098 60.8815C62.2086 60.6466 61.9785 60.3067 61.8194 59.8616C61.6603 59.4146 61.5808 58.8749 61.5808 58.2423C61.5808 57.6135 61.6603 57.0766 61.8194 56.6315C61.9804 56.1845 62.2115 55.8436 62.5126 55.6088C62.8156 55.372 63.1793 55.2536 63.6035 55.2536C64.0278 55.2536 64.3904 55.372 64.6916 55.6088C64.9946 55.8436 65.2257 56.1845 65.3848 56.6315C65.5458 57.0766 65.6262 57.6135 65.6262 58.2423C65.6262 58.8749 65.5467 59.4146 65.3876 59.8616C65.2285 60.3067 64.9984 60.6466 64.6973 60.8815C64.3961 61.1144 64.0315 61.2309 63.6035 61.2309ZM63.6035 60.6059C64.0278 60.6059 64.3573 60.4014 64.5922 59.9923C64.827 59.5832 64.9444 58.9999 64.9444 58.2423C64.9444 57.7385 64.8904 57.3095 64.7825 56.9553C64.6764 56.6012 64.523 56.3313 64.3223 56.1457C64.1234 55.9601 63.8838 55.8673 63.6035 55.8673C63.1831 55.8673 62.8545 56.0747 62.6177 56.4894C62.381 56.9023 62.2626 57.4866 62.2626 58.2423C62.2626 58.7461 62.3156 59.1741 62.4217 59.5264C62.5278 59.8786 62.6802 60.1466 62.8791 60.3303C63.0798 60.5141 63.3213 60.6059 63.6035 60.6059Z" fill="#121619"/>
<path d="M-2.07617 71.4531L226.924 71.4531" stroke="#F2F4F8" stroke-width="0.5"/>
<path d="M-2.07617 43.8423L226.924 43.8423" stroke="#F2F4F8" stroke-width="0.5"/>
<path d="M-2.07617 101.105L225.924 101.105" stroke="#F2F4F8" stroke-width="0.5"/>
<path d="M-2.07617 130.757L225.924 130.757" stroke="#F2F4F8" stroke-width="0.5"/>
<path d="M-2.07617 161.859L225.924 161.859" stroke="#F2F4F8" stroke-width="0.5"/>
<path d="M209.676 58.1515C209.676 58.2765 209.631 58.3901 209.54 58.4811L206.585 61.3225C206.494 61.402 206.38 61.4475 206.267 61.4475C206.142 61.4475 206.028 61.402 205.937 61.3111C205.767 61.1292 205.767 60.8451 205.948 60.6633L208.562 58.1515L205.948 55.6397C205.767 55.4692 205.767 55.1737 205.937 54.9918C206.108 54.81 206.403 54.81 206.585 54.9805L209.54 57.8219C209.631 57.9128 209.676 58.0265 209.676 58.1515Z" fill="#878D96"/>
<path d="M209.676 86.6244C209.676 86.7494 209.631 86.863 209.54 86.954L206.585 89.7954C206.494 89.8749 206.38 89.9204 206.267 89.9204C206.142 89.9204 206.028 89.8749 205.937 89.784C205.767 89.6021 205.767 89.318 205.948 89.1362L208.562 86.6244L205.948 84.1126C205.767 83.9421 205.767 83.6466 205.937 83.4647C206.108 83.2829 206.403 83.2829 206.585 83.4534L209.54 86.2948C209.631 86.3857 209.676 86.4994 209.676 86.6244Z" fill="#878D96"/>
<path d="M209.676 115.931C209.676 116.056 209.631 116.17 209.54 116.261L206.585 119.102C206.494 119.182 206.38 119.227 206.267 119.227C206.142 119.227 206.028 119.182 205.937 119.091C205.767 118.909 205.767 118.625 205.948 118.443L208.562 115.931L205.948 113.419C205.767 113.249 205.767 112.953 205.937 112.772C206.108 112.59 206.403 112.59 206.585 112.76L209.54 115.602C209.631 115.693 209.676 115.806 209.676 115.931Z" fill="#878D96"/>
<path d="M209.676 146.029C209.676 146.154 209.631 146.268 209.54 146.359L206.585 149.2C206.494 149.28 206.38 149.325 206.267 149.325C206.142 149.325 206.028 149.28 205.937 149.189C205.767 149.007 205.767 148.723 205.948 148.541L208.562 146.029L205.948 143.517C205.767 143.347 205.767 143.051 205.937 142.87C206.108 142.688 206.403 142.688 206.585 142.858L209.54 145.7C209.631 145.79 209.676 145.904 209.676 146.029Z" fill="#878D96"/>
<path d="M209.676 178.133C209.676 178.258 209.631 178.372 209.54 178.463L206.585 181.304C206.494 181.383 206.38 181.429 206.267 181.429C206.142 181.429 206.028 181.383 205.937 181.293C205.767 181.111 205.767 180.827 205.948 180.645L208.562 178.133L205.948 175.621C205.767 175.451 205.767 175.155 205.937 174.973C206.108 174.791 206.403 174.791 206.585 174.962L209.54 177.803C209.631 177.894 209.676 178.008 209.676 178.133Z" fill="#878D96"/>
<rect x="121.268" y="54.9688" width="52.5488" height="5.35767" rx="2.67883" fill="#F2F4F8"/>
<rect x="121.268" y="82.5791" width="34.1074" height="5.35767" rx="2.67883" fill="#F2F4F8"/>
<rect x="121.268" y="115.263" width="46.7324" height="5.35767" rx="2.67883" fill="#F2F4F8"/>
<rect x="121.268" y="143.35" width="52.5488" height="5.35767" rx="2.67883" fill="#F2F4F8"/>
<rect x="121.268" y="177.048" width="41.3574" height="5.35767" rx="2.67883" fill="#F2F4F8"/>
</g>
<defs>
<clipPath id="clip0_494_13749">
<rect width="226.049" height="200" fill="white" transform="translate(0.875 0.84375)"/>
</clipPath>
</defs>
</svg>
