<svg width="415" height="201" viewBox="0 0 415 201" fill="none" xmlns="http://www.w3.org/2000/svg">
<rect width="414.468" height="200" transform="translate(0.300781 0.84375)" fill="white"/>
<path d="M20.9972 22.8335L23.0213 28.7568H23.103L25.1271 22.8335H26.3132L23.696 30.1062H22.4283L19.8111 22.8335H20.9972ZM29.0822 30.2163C28.5448 30.2163 28.082 30.1015 27.6937 29.8718C27.3078 29.6398 27.0095 29.3143 26.7988 28.8953C26.5905 28.4739 26.4863 27.9803 26.4863 27.4144C26.4863 26.8557 26.5905 26.3633 26.7988 25.9372C27.0095 25.511 27.3031 25.1784 27.6795 24.9393C28.0583 24.7002 28.501 24.5806 29.0076 24.5806C29.3154 24.5806 29.6137 24.6315 29.9025 24.7333C30.1913 24.8351 30.4506 24.9949 30.6802 25.2127C30.9099 25.4305 31.091 25.7134 31.2235 26.0615C31.3561 26.4071 31.4224 26.8273 31.4224 27.3221V27.6985H27.0865V26.9031H30.3819C30.3819 26.6237 30.3251 26.3763 30.2115 26.1609C30.0978 25.9431 29.938 25.7714 29.7321 25.646C29.5285 25.5205 29.2894 25.4578 29.0147 25.4578C28.7164 25.4578 28.456 25.5312 28.2335 25.6779C28.0133 25.8223 27.8429 26.0117 27.7221 26.2461C27.6038 26.4781 27.5446 26.7303 27.5446 27.0025V27.624C27.5446 27.9885 27.6085 28.2987 27.7363 28.5544C27.8665 28.81 28.0476 29.0053 28.2797 29.1403C28.5117 29.2729 28.7827 29.3392 29.0929 29.3392C29.2941 29.3392 29.4776 29.3107 29.6433 29.2539C29.809 29.1947 29.9522 29.1071 30.073 28.9911C30.1937 28.8751 30.286 28.7319 30.35 28.5615L31.3549 28.7426C31.2744 29.0385 31.13 29.2977 30.9217 29.5203C30.7157 29.7404 30.4565 29.9121 30.144 30.0352C29.8339 30.1559 29.4799 30.2163 29.0822 30.2163ZM33.6623 26.8676V30.1062H32.6005V24.6517H33.6197V25.5394H33.6871C33.8126 25.2506 34.0091 25.0186 34.2766 24.8434C34.5465 24.6682 34.8862 24.5806 35.2958 24.5806C35.6675 24.5806 35.993 24.6588 36.2724 24.815C36.5517 24.9689 36.7683 25.1985 36.9222 25.5039C37.0761 25.8093 37.1531 26.1869 37.1531 26.6367V30.1062H36.0913V26.7646C36.0913 26.3692 35.9883 26.0603 35.7823 25.8377C35.5763 25.6128 35.2934 25.5004 34.9336 25.5004C34.6874 25.5004 34.4684 25.5536 34.2766 25.6602C34.0872 25.7667 33.9369 25.923 33.8256 26.1289C33.7167 26.3325 33.6623 26.5787 33.6623 26.8676ZM40.619 30.2127C40.1786 30.2127 39.7856 30.1003 39.44 29.8754C39.0967 29.6481 38.8268 29.325 38.6303 28.9059C38.4362 28.4845 38.3391 27.9791 38.3391 27.3896C38.3391 26.8001 38.4374 26.2958 38.6339 25.8768C38.8327 25.4578 39.105 25.137 39.4506 24.9144C39.7963 24.6919 40.1881 24.5806 40.6261 24.5806C40.9646 24.5806 41.2369 24.6375 41.4428 24.7511C41.6512 24.8624 41.8121 24.9926 41.9258 25.1417C42.0418 25.2909 42.1317 25.4223 42.1957 25.5359H42.2596V22.8335H43.3214V30.1062H42.2844V29.2575H42.1957C42.1317 29.3735 42.0394 29.5061 41.9187 29.6552C41.8003 29.8044 41.637 29.9346 41.4286 30.0458C41.2203 30.1571 40.9504 30.2127 40.619 30.2127ZM40.8533 29.3072C41.1587 29.3072 41.4168 29.2267 41.6275 29.0657C41.8406 28.9024 42.0015 28.6763 42.1104 28.3875C42.2217 28.0986 42.2773 27.7625 42.2773 27.3789C42.2773 27.0001 42.2229 26.6687 42.114 26.3846C42.0051 26.1005 41.8453 25.8792 41.6346 25.7205C41.4239 25.5619 41.1635 25.4826 40.8533 25.4826C40.5337 25.4826 40.2674 25.5655 40.0543 25.7312C39.8413 25.8969 39.6803 26.123 39.5714 26.4095C39.4648 26.6959 39.4116 27.0191 39.4116 27.3789C39.4116 27.7435 39.466 28.0714 39.5749 28.3626C39.6838 28.6538 39.8448 28.8846 40.0579 29.0551C40.2733 29.2232 40.5385 29.3072 40.8533 29.3072ZM47.1344 30.2163C46.623 30.2163 46.1768 30.0991 45.7956 29.8647C45.4145 29.6303 45.1185 29.3025 44.9078 28.8811C44.6971 28.4597 44.5918 27.9672 44.5918 27.4038C44.5918 26.838 44.6971 26.3432 44.9078 25.9194C45.1185 25.4956 45.4145 25.1666 45.7956 24.9322C46.1768 24.6978 46.623 24.5806 47.1344 24.5806C47.6458 24.5806 48.092 24.6978 48.4732 24.9322C48.8543 25.1666 49.1503 25.4956 49.361 25.9194C49.5717 26.3432 49.677 26.838 49.677 27.4038C49.677 27.9672 49.5717 28.4597 49.361 28.8811C49.1503 29.3025 48.8543 29.6303 48.4732 29.8647C48.092 30.0991 47.6458 30.2163 47.1344 30.2163ZM47.138 29.325C47.4694 29.325 47.744 29.2374 47.9618 29.0622C48.1796 28.887 48.3406 28.6538 48.4448 28.3626C48.5513 28.0714 48.6046 27.7506 48.6046 27.4002C48.6046 27.0522 48.5513 26.7326 48.4448 26.4414C48.3406 26.1479 48.1796 25.9123 47.9618 25.7348C47.744 25.5572 47.4694 25.4684 47.138 25.4684C46.8042 25.4684 46.5272 25.5572 46.307 25.7348C46.0892 25.9123 45.927 26.1479 45.8205 26.4414C45.7163 26.7326 45.6642 27.0522 45.6642 27.4002C45.6642 27.7506 45.7163 28.0714 45.8205 28.3626C45.927 28.6538 46.0892 28.887 46.307 29.0622C46.5272 29.2374 46.8042 29.325 47.138 29.325ZM50.8622 30.1062V24.6517H51.8885V25.5181H51.9453C52.0447 25.2246 52.2199 24.9937 52.4709 24.8257C52.7242 24.6552 53.0107 24.57 53.3303 24.57C53.3965 24.57 53.4747 24.5723 53.5646 24.5771C53.657 24.5818 53.7292 24.5877 53.7812 24.5948V25.6105C53.7386 25.5986 53.6629 25.5856 53.554 25.5714C53.4451 25.5548 53.3362 25.5465 53.2273 25.5465C52.9763 25.5465 52.7526 25.5998 52.5561 25.7063C52.362 25.8105 52.2081 25.9561 52.0945 26.1431C51.9808 26.3278 51.924 26.5385 51.924 26.7752V30.1062H50.8622ZM57.4318 30.1062V22.8335H60.0241C60.5876 22.8335 61.0552 22.9305 61.4268 23.1247C61.8009 23.3188 62.0803 23.5875 62.2649 23.9308C62.4496 24.2717 62.5419 24.6659 62.5419 25.1133C62.5419 25.5584 62.4484 25.9502 62.2614 26.2887C62.0767 26.6249 61.7973 26.8865 61.4233 27.0735C61.0516 27.2606 60.584 27.3541 60.0206 27.3541H58.0568V26.4095H59.9212C60.2763 26.4095 60.5651 26.3586 60.7876 26.2568C61.0125 26.155 61.1771 26.007 61.2812 25.8129C61.3854 25.6187 61.4375 25.3856 61.4375 25.1133C61.4375 24.8387 61.3842 24.6008 61.2777 24.3995C61.1735 24.1983 61.009 24.0444 60.7841 23.9379C60.5616 23.829 60.2692 23.7745 59.907 23.7745H58.5291V30.1062H57.4318ZM61.022 26.825L62.8189 30.1062H61.5689L59.8075 26.825H61.022ZM63.7919 30.1062V24.6517H64.8537V30.1062H63.7919ZM64.3281 23.81C64.1435 23.81 63.9848 23.7485 63.8523 23.6254C63.7221 23.4999 63.657 23.3508 63.657 23.1779C63.657 23.0027 63.7221 22.8536 63.8523 22.7305C63.9848 22.605 64.1435 22.5423 64.3281 22.5423C64.5128 22.5423 64.6702 22.605 64.8004 22.7305C64.933 22.8536 64.9993 23.0027 64.9993 23.1779C64.9993 23.3508 64.933 23.4999 64.8004 23.6254C64.6702 23.7485 64.5128 23.81 64.3281 23.81ZM70.3695 25.9833L69.4071 26.1538C69.3669 26.0307 69.303 25.9135 69.2154 25.8022C69.1301 25.691 69.0141 25.5998 68.8674 25.5288C68.7206 25.4578 68.5371 25.4223 68.3169 25.4223C68.0163 25.4223 67.7653 25.4897 67.5641 25.6247C67.3629 25.7572 67.2623 25.9289 67.2623 26.1396C67.2623 26.3219 67.3297 26.4687 67.4647 26.5799C67.5996 26.6912 67.8174 26.7823 68.1181 26.8534L68.9846 27.0522C69.4864 27.1682 69.8605 27.347 70.1067 27.5884C70.3529 27.8299 70.476 28.1436 70.476 28.5295C70.476 28.8562 70.3813 29.1474 70.1919 29.4031C70.0049 29.6564 69.7433 29.8553 69.4071 29.9997C69.0733 30.1441 68.6863 30.2163 68.2459 30.2163C67.6351 30.2163 67.1368 30.0861 66.7509 29.8257C66.365 29.5629 66.1283 29.19 66.0407 28.7071L67.0669 28.5508C67.1309 28.8183 67.2623 29.0207 67.4611 29.158C67.66 29.293 67.9192 29.3605 68.2388 29.3605C68.5868 29.3605 68.865 29.2883 69.0733 29.1438C69.2817 28.9971 69.3858 28.8183 69.3858 28.6076C69.3858 28.4372 69.3219 28.2939 69.1941 28.1779C69.0686 28.0619 68.8757 27.9743 68.6152 27.9151L67.6919 27.7127C67.1829 27.5967 66.8065 27.4121 66.5627 27.1588C66.3212 26.9054 66.2005 26.5847 66.2005 26.1964C66.2005 25.8744 66.2904 25.5927 66.4703 25.3512C66.6503 25.1098 66.8989 24.9215 67.2161 24.7866C67.5333 24.6493 67.8967 24.5806 68.3063 24.5806C68.8958 24.5806 69.3598 24.7085 69.6983 24.9642C70.0369 25.2175 70.2606 25.5572 70.3695 25.9833ZM72.62 28.2561L72.6129 26.9599H72.7976L74.9709 24.6517H76.2422L73.7635 27.2795H73.5966L72.62 28.2561ZM71.6435 30.1062V22.8335H72.7053V30.1062H71.6435ZM75.0881 30.1062L73.1349 27.5139L73.8665 26.7717L76.3913 30.1062H75.0881ZM79.9416 30.1062V22.8335H82.6049C83.121 22.8335 83.5484 22.9187 83.8869 23.0892C84.2254 23.2572 84.4788 23.4857 84.6468 23.7745C84.8149 24.061 84.899 24.3841 84.899 24.744C84.899 25.047 84.8433 25.3027 84.7321 25.511C84.6208 25.717 84.4717 25.8827 84.2846 26.0082C84.1 26.1313 83.8964 26.2213 83.6738 26.2781V26.3491C83.9153 26.3609 84.1509 26.4391 84.3805 26.5835C84.6125 26.7255 84.8043 26.9279 84.9558 27.1907C85.1073 27.4535 85.1831 27.7731 85.1831 28.1495C85.1831 28.5212 85.0955 28.855 84.9203 29.1509C84.7475 29.4445 84.4799 29.6777 84.1177 29.8505C83.7555 30.021 83.2927 30.1062 82.7292 30.1062H79.9416ZM81.0389 29.1652H82.6227C83.1483 29.1652 83.5247 29.0634 83.752 28.8598C83.9792 28.6562 84.0929 28.4017 84.0929 28.0963C84.0929 27.8666 84.0349 27.6559 83.9189 27.4642C83.8029 27.2724 83.6371 27.1197 83.4217 27.0061C83.2086 26.8924 82.9553 26.8356 82.6618 26.8356H81.0389V29.1652ZM81.0389 25.9798H82.5091C82.7553 25.9798 82.9766 25.9324 83.1731 25.8377C83.372 25.743 83.5294 25.6105 83.6454 25.44C83.7638 25.2672 83.823 25.0636 83.823 24.8292C83.823 24.5285 83.7176 24.2764 83.5069 24.0728C83.2962 23.8692 82.9731 23.7674 82.5375 23.7674H81.0389V25.9798ZM87.0705 32.1517C86.9119 32.1517 86.7675 32.1386 86.6373 32.1126C86.507 32.0889 86.41 32.0629 86.3461 32.0345L86.6017 31.1644C86.7959 31.2165 86.9687 31.239 87.1202 31.2319C87.2717 31.2248 87.4055 31.168 87.5215 31.0615C87.6399 30.9549 87.744 30.7809 87.834 30.5394L87.9654 30.1772L85.9696 24.6517H87.106L88.4874 28.8846H88.5442L89.9256 24.6517H91.0655L88.8176 30.8342C88.7135 31.1183 88.5809 31.3586 88.4199 31.5551C88.2589 31.7539 88.0672 31.9031 87.8446 32.0025C87.6221 32.1019 87.3641 32.1517 87.0705 32.1517ZM94.7951 30.1062V22.8335H97.4585C97.9746 22.8335 98.4019 22.9187 98.7404 23.0892C99.079 23.2572 99.3323 23.4857 99.5004 23.7745C99.6684 24.061 99.7525 24.3841 99.7525 24.744C99.7525 25.047 99.6969 25.3027 99.5856 25.511C99.4743 25.717 99.3252 25.8827 99.1381 26.0082C98.9535 26.1313 98.7499 26.2213 98.5273 26.2781V26.3491C98.7688 26.3609 99.0044 26.4391 99.234 26.5835C99.466 26.7255 99.6578 26.9279 99.8093 27.1907C99.9608 27.4535 100.037 27.7731 100.037 28.1495C100.037 28.5212 99.949 28.855 99.7738 29.1509C99.601 29.4445 99.3335 29.6777 98.9712 29.8505C98.609 30.021 98.1462 30.1062 97.5827 30.1062H94.7951ZM95.8924 29.1652H97.4762C98.0018 29.1652 98.3782 29.0634 98.6055 28.8598C98.8327 28.6562 98.9464 28.4017 98.9464 28.0963C98.9464 27.8666 98.8884 27.6559 98.7724 27.4642C98.6564 27.2724 98.4906 27.1197 98.2752 27.0061C98.0621 26.8924 97.8088 26.8356 97.5153 26.8356H95.8924V29.1652ZM95.8924 25.9798H97.3626C97.6088 25.9798 97.8301 25.9324 98.0266 25.8377C98.2255 25.743 98.3829 25.6105 98.4989 25.44C98.6173 25.2672 98.6765 25.0636 98.6765 24.8292C98.6765 24.5285 98.5711 24.2764 98.3604 24.0728C98.1497 23.8692 97.8266 23.7674 97.391 23.7674H95.8924V25.9798ZM104.708 27.8441V24.6517H105.773V30.1062H104.729V29.1616H104.673C104.547 29.4528 104.346 29.6955 104.069 29.8896C103.794 30.0813 103.452 30.1772 103.043 30.1772C102.692 30.1772 102.382 30.1003 102.112 29.9464C101.845 29.7902 101.634 29.5593 101.48 29.2539C101.329 28.9485 101.253 28.5709 101.253 28.1211V24.6517H102.315V27.9933C102.315 28.365 102.418 28.6609 102.624 28.8811C102.83 29.1012 103.097 29.2113 103.426 29.2113C103.625 29.2113 103.823 29.1616 104.019 29.0622C104.218 28.9627 104.383 28.8124 104.513 28.6112C104.645 28.4099 104.71 28.1543 104.708 27.8441ZM111.287 25.9833L110.325 26.1538C110.285 26.0307 110.221 25.9135 110.133 25.8022C110.048 25.691 109.932 25.5998 109.785 25.5288C109.639 25.4578 109.455 25.4223 109.235 25.4223C108.934 25.4223 108.683 25.4897 108.482 25.6247C108.281 25.7572 108.18 25.9289 108.18 26.1396C108.18 26.3219 108.248 26.4687 108.383 26.5799C108.518 26.6912 108.735 26.7823 109.036 26.8534L109.903 27.0522C110.404 27.1682 110.778 27.347 111.025 27.5884C111.271 27.8299 111.394 28.1436 111.394 28.5295C111.394 28.8562 111.299 29.1474 111.11 29.4031C110.923 29.6564 110.661 29.8553 110.325 29.9997C109.991 30.1441 109.604 30.2163 109.164 30.2163C108.553 30.2163 108.055 30.0861 107.669 29.8257C107.283 29.5629 107.046 29.19 106.959 28.7071L107.985 28.5508C108.049 28.8183 108.18 29.0207 108.379 29.158C108.578 29.293 108.837 29.3605 109.157 29.3605C109.505 29.3605 109.783 29.2883 109.991 29.1438C110.2 28.9971 110.304 28.8183 110.304 28.6076C110.304 28.4372 110.24 28.2939 110.112 28.1779C109.987 28.0619 109.794 27.9743 109.533 27.9151L108.61 27.7127C108.101 27.5967 107.724 27.4121 107.481 27.1588C107.239 26.9054 107.118 26.5847 107.118 26.1964C107.118 25.8744 107.208 25.5927 107.388 25.3512C107.568 25.1098 107.817 24.9215 108.134 24.7866C108.451 24.6493 108.815 24.5806 109.224 24.5806C109.814 24.5806 110.278 24.7085 110.616 24.9642C110.955 25.2175 111.179 25.5572 111.287 25.9833ZM112.561 30.1062V24.6517H113.623V30.1062H112.561ZM113.098 23.81C112.913 23.81 112.754 23.7485 112.622 23.6254C112.492 23.4999 112.426 23.3508 112.426 23.1779C112.426 23.0027 112.492 22.8536 112.622 22.7305C112.754 22.605 112.913 22.5423 113.098 22.5423C113.282 22.5423 113.44 22.605 113.57 22.7305C113.703 22.8536 113.769 23.0027 113.769 23.1779C113.769 23.3508 113.703 23.4999 113.57 23.6254C113.44 23.7485 113.282 23.81 113.098 23.81ZM116.113 26.8676V30.1062H115.052V24.6517H116.071V25.5394H116.138C116.264 25.2506 116.46 25.0186 116.728 24.8434C116.998 24.6682 117.337 24.5806 117.747 24.5806C118.119 24.5806 118.444 24.6588 118.724 24.815C119.003 24.9689 119.22 25.1985 119.373 25.5039C119.527 25.8093 119.604 26.1869 119.604 26.6367V30.1062H118.542V26.7646C118.542 26.3692 118.439 26.0603 118.233 25.8377C118.028 25.6128 117.745 25.5004 117.385 25.5004C117.139 25.5004 116.92 25.5536 116.728 25.6602C116.538 25.7667 116.388 25.923 116.277 26.1289C116.168 26.3325 116.113 26.5787 116.113 26.8676ZM123.379 30.2163C122.842 30.2163 122.379 30.1015 121.991 29.8718C121.605 29.6398 121.306 29.3143 121.096 28.8953C120.887 28.4739 120.783 27.9803 120.783 27.4144C120.783 26.8557 120.887 26.3633 121.096 25.9372C121.306 25.511 121.6 25.1784 121.976 24.9393C122.355 24.7002 122.798 24.5806 123.305 24.5806C123.612 24.5806 123.911 24.6315 124.199 24.7333C124.488 24.8351 124.747 24.9949 124.977 25.2127C125.207 25.4305 125.388 25.7134 125.52 26.0615C125.653 26.4071 125.719 26.8273 125.719 27.3221V27.6985H121.383V26.9031H124.679C124.679 26.6237 124.622 26.3763 124.508 26.1609C124.395 25.9431 124.235 25.7714 124.029 25.646C123.825 25.5205 123.586 25.4578 123.312 25.4578C123.013 25.4578 122.753 25.5312 122.53 25.6779C122.31 25.8223 122.14 26.0117 122.019 26.2461C121.901 26.4781 121.841 26.7303 121.841 27.0025V27.624C121.841 27.9885 121.905 28.2987 122.033 28.5544C122.163 28.81 122.345 29.0053 122.577 29.1403C122.809 29.2729 123.08 29.3392 123.39 29.3392C123.591 29.3392 123.774 29.3107 123.94 29.2539C124.106 29.1947 124.249 29.1071 124.37 28.9911C124.491 28.8751 124.583 28.7319 124.647 28.5615L125.652 28.7426C125.571 29.0385 125.427 29.2977 125.219 29.5203C125.013 29.7404 124.753 29.9121 124.441 30.0352C124.131 30.1559 123.777 30.2163 123.379 30.2163ZM130.985 25.9833L130.022 26.1538C129.982 26.0307 129.918 25.9135 129.831 25.8022C129.745 25.691 129.629 25.5998 129.483 25.5288C129.336 25.4578 129.152 25.4223 128.932 25.4223C128.632 25.4223 128.381 25.4897 128.179 25.6247C127.978 25.7572 127.877 25.9289 127.877 26.1396C127.877 26.3219 127.945 26.4687 128.08 26.5799C128.215 26.6912 128.433 26.7823 128.733 26.8534L129.6 27.0522C130.102 27.1682 130.476 27.347 130.722 27.5884C130.968 27.8299 131.091 28.1436 131.091 28.5295C131.091 28.8562 130.997 29.1474 130.807 29.4031C130.62 29.6564 130.359 29.8553 130.022 29.9997C129.689 30.1441 129.301 30.2163 128.861 30.2163C128.25 30.2163 127.752 30.0861 127.366 29.8257C126.98 29.5629 126.743 29.19 126.656 28.7071L127.682 28.5508C127.746 28.8183 127.877 29.0207 128.076 29.158C128.275 29.293 128.534 29.3605 128.854 29.3605C129.202 29.3605 129.48 29.2883 129.689 29.1438C129.897 28.9971 130.001 28.8183 130.001 28.6076C130.001 28.4372 129.937 28.2939 129.809 28.1779C129.684 28.0619 129.491 27.9743 129.23 27.9151L128.307 27.7127C127.798 27.5967 127.422 27.4121 127.178 27.1588C126.936 26.9054 126.816 26.5847 126.816 26.1964C126.816 25.8744 126.906 25.5927 127.086 25.3512C127.266 25.1098 127.514 24.9215 127.831 24.7866C128.149 24.6493 128.512 24.5806 128.922 24.5806C129.511 24.5806 129.975 24.7085 130.314 24.9642C130.652 25.2175 130.876 25.5572 130.985 25.9833ZM136.346 25.9833L135.384 26.1538C135.343 26.0307 135.28 25.9135 135.192 25.8022C135.107 25.691 134.991 25.5998 134.844 25.5288C134.697 25.4578 134.514 25.4223 134.294 25.4223C133.993 25.4223 133.742 25.4897 133.541 25.6247C133.339 25.7572 133.239 25.9289 133.239 26.1396C133.239 26.3219 133.306 26.4687 133.441 26.5799C133.576 26.6912 133.794 26.7823 134.095 26.8534L134.961 27.0522C135.463 27.1682 135.837 27.347 136.083 27.5884C136.329 27.8299 136.453 28.1436 136.453 28.5295C136.453 28.8562 136.358 29.1474 136.169 29.4031C135.981 29.6564 135.72 29.8553 135.384 29.9997C135.05 30.1441 134.663 30.2163 134.222 30.2163C133.612 30.2163 133.113 30.0861 132.727 29.8257C132.342 29.5629 132.105 29.19 132.017 28.7071L133.044 28.5508C133.107 28.8183 133.239 29.0207 133.438 29.158C133.637 29.293 133.896 29.3605 134.215 29.3605C134.563 29.3605 134.842 29.2883 135.05 29.1438C135.258 28.9971 135.362 28.8183 135.362 28.6076C135.362 28.4372 135.298 28.2939 135.171 28.1779C135.045 28.0619 134.852 27.9743 134.592 27.9151L133.669 27.7127C133.16 27.5967 132.783 27.4121 132.539 27.1588C132.298 26.9054 132.177 26.5847 132.177 26.1964C132.177 25.8744 132.267 25.5927 132.447 25.3512C132.627 25.1098 132.875 24.9215 133.193 24.7866C133.51 24.6493 133.873 24.5806 134.283 24.5806C134.872 24.5806 135.336 24.7085 135.675 24.9642C136.013 25.2175 136.237 25.5572 136.346 25.9833ZM141.449 22.8335V30.1062H140.352V22.8335H141.449ZM142.962 30.1062V24.6517H143.981V25.5394H144.048C144.162 25.2388 144.348 25.0044 144.606 24.8363C144.864 24.6659 145.173 24.5806 145.533 24.5806C145.897 24.5806 146.203 24.6659 146.449 24.8363C146.698 25.0068 146.881 25.2411 146.999 25.5394H147.056C147.186 25.2482 147.394 25.0162 147.678 24.8434C147.962 24.6682 148.3 24.5806 148.693 24.5806C149.188 24.5806 149.592 24.7357 149.904 25.0458C150.219 25.356 150.377 25.8235 150.377 26.4485V30.1062H149.315V26.548C149.315 26.1786 149.214 25.9111 149.013 25.7454C148.812 25.5797 148.571 25.4968 148.292 25.4968C147.946 25.4968 147.678 25.6034 147.486 25.8164C147.294 26.0271 147.198 26.2982 147.198 26.6296V30.1062H146.14V26.4805C146.14 26.1846 146.048 25.9466 145.863 25.7667C145.678 25.5868 145.438 25.4968 145.142 25.4968C144.941 25.4968 144.755 25.5501 144.585 25.6566C144.417 25.7608 144.28 25.9064 144.176 26.0934C144.075 26.2804 144.024 26.4971 144.024 26.7433V30.1062H142.962ZM151.8 32.1517V24.6517H152.837V25.5359H152.925C152.987 25.4223 153.076 25.2909 153.192 25.1417C153.308 24.9926 153.469 24.8624 153.675 24.7511C153.881 24.6375 154.153 24.5806 154.491 24.5806C154.932 24.5806 155.325 24.6919 155.67 24.9144C156.016 25.137 156.287 25.4578 156.484 25.8768C156.683 26.2958 156.782 26.8001 156.782 27.3896C156.782 27.9791 156.684 28.4845 156.487 28.9059C156.291 29.325 156.021 29.6481 155.678 29.8754C155.334 30.1003 154.942 30.2127 154.502 30.2127C154.171 30.2127 153.9 30.1571 153.689 30.0458C153.481 29.9346 153.317 29.8044 153.199 29.6552C153.08 29.5061 152.989 29.3735 152.925 29.2575H152.862V32.1517H151.8ZM152.84 27.3789C152.84 27.7625 152.896 28.0986 153.007 28.3875C153.118 28.6763 153.279 28.9024 153.49 29.0657C153.701 29.2267 153.959 29.3072 154.264 29.3072C154.581 29.3072 154.847 29.2232 155.06 29.0551C155.273 28.8846 155.434 28.6538 155.543 28.3626C155.654 28.0714 155.71 27.7435 155.71 27.3789C155.71 27.0191 155.655 26.6959 155.546 26.4095C155.44 26.123 155.279 25.8969 155.063 25.7312C154.85 25.5655 154.584 25.4826 154.264 25.4826C153.956 25.4826 153.696 25.5619 153.483 25.7205C153.272 25.8792 153.112 26.1005 153.004 26.3846C152.895 26.6687 152.84 27.0001 152.84 27.3789ZM159.559 30.2269C159.213 30.2269 158.901 30.163 158.621 30.0352C158.342 29.905 158.121 29.7168 157.957 29.4705C157.796 29.2243 157.716 28.9225 157.716 28.565C157.716 28.2572 157.775 28.0039 157.893 27.8051C158.012 27.6062 158.172 27.4488 158.373 27.3328C158.574 27.2168 158.799 27.1292 159.048 27.07C159.296 27.0108 159.549 26.9658 159.808 26.935C160.134 26.8972 160.399 26.8664 160.603 26.8427C160.807 26.8167 160.955 26.7752 161.047 26.7184C161.139 26.6616 161.185 26.5693 161.185 26.4414V26.4166C161.185 26.1064 161.098 25.8661 160.923 25.6957C160.75 25.5252 160.492 25.44 160.148 25.44C159.791 25.44 159.509 25.5193 159.303 25.6779C159.1 25.8342 158.959 26.0082 158.881 26.2L157.883 25.9727C158.001 25.6412 158.174 25.3737 158.401 25.1701C158.631 24.9642 158.895 24.815 159.193 24.7227C159.491 24.628 159.805 24.5806 160.134 24.5806C160.352 24.5806 160.583 24.6067 160.827 24.6588C161.073 24.7085 161.303 24.8008 161.516 24.9357C161.731 25.0707 161.907 25.2636 162.045 25.5146C162.182 25.7632 162.251 26.0863 162.251 26.484V30.1062H161.214V29.3605H161.171C161.103 29.4978 161 29.6327 160.862 29.7653C160.725 29.8979 160.549 30.008 160.333 30.0955C160.118 30.1831 159.86 30.2269 159.559 30.2269ZM159.79 29.3747C160.083 29.3747 160.334 29.3167 160.543 29.2007C160.753 29.0847 160.913 28.9331 161.022 28.7461C161.133 28.5567 161.189 28.3543 161.189 28.1389V27.4357C161.151 27.4736 161.078 27.5091 160.969 27.5423C160.862 27.5731 160.74 27.6003 160.603 27.624C160.466 27.6453 160.332 27.6654 160.202 27.6843C160.071 27.7009 159.963 27.7151 159.875 27.7269C159.669 27.753 159.481 27.7968 159.31 27.8583C159.142 27.9199 159.007 28.0087 158.906 28.1247C158.806 28.2383 158.756 28.3898 158.756 28.5792C158.756 28.842 158.853 29.0409 159.048 29.1758C159.242 29.3084 159.489 29.3747 159.79 29.3747ZM165.963 30.2163C165.435 30.2163 164.98 30.0967 164.599 29.8576C164.22 29.6161 163.929 29.2835 163.725 28.8598C163.522 28.436 163.42 27.9507 163.42 27.4038C163.42 26.8498 163.524 26.3609 163.732 25.9372C163.941 25.511 164.234 25.1784 164.613 24.9393C164.992 24.7002 165.438 24.5806 165.952 24.5806C166.366 24.5806 166.735 24.6576 167.06 24.8115C167.384 24.963 167.646 25.176 167.845 25.4507C168.046 25.7253 168.165 26.0461 168.203 26.413H167.17C167.113 26.1573 166.983 25.9372 166.779 25.7525C166.578 25.5678 166.308 25.4755 165.97 25.4755C165.674 25.4755 165.414 25.5536 165.192 25.7099C164.972 25.8638 164.8 26.0839 164.677 26.3704C164.554 26.6545 164.492 26.9907 164.492 27.3789C164.492 27.7767 164.553 28.1199 164.673 28.4088C164.794 28.6976 164.965 28.9213 165.185 29.0799C165.407 29.2385 165.669 29.3178 165.97 29.3178C166.171 29.3178 166.353 29.2812 166.517 29.2078C166.682 29.132 166.821 29.0243 166.932 28.8846C167.046 28.7449 167.125 28.5768 167.17 28.3803H168.203C168.165 28.7331 168.051 29.048 167.859 29.325C167.667 29.6019 167.41 29.8197 167.088 29.9784C166.769 30.137 166.393 30.2163 165.963 30.2163ZM171.885 24.6517V25.5039H168.906V24.6517H171.885ZM169.705 23.3448H170.766V28.5046C170.766 28.7106 170.797 28.8657 170.859 28.9698C170.92 29.0716 171 29.1415 171.097 29.1794C171.196 29.2149 171.304 29.2326 171.42 29.2326C171.505 29.2326 171.58 29.2267 171.643 29.2149C171.707 29.203 171.757 29.1936 171.793 29.1865L171.984 30.0636C171.923 30.0873 171.835 30.1109 171.722 30.1346C171.608 30.1607 171.466 30.1749 171.295 30.1772C171.016 30.182 170.756 30.1322 170.514 30.0281C170.273 29.9239 170.077 29.7629 169.928 29.5451C169.779 29.3273 169.705 29.0539 169.705 28.7248V23.3448Z" fill="#131520"/>
<path d="M31.3606 147.03C31.3606 150.288 28.7195 152.929 25.4615 152.929C22.2036 152.929 19.5625 150.288 19.5625 147.03C19.5625 143.772 22.2036 141.131 25.4615 141.131C28.7195 141.131 31.3606 143.772 31.3606 147.03Z" fill="#F4FBF7"/>
<path fill-rule="evenodd" clip-rule="evenodd" d="M25.4612 141.377C22.339 141.377 19.808 143.908 19.808 147.03C19.808 150.152 22.339 152.683 25.4612 152.683C28.5834 152.683 31.1145 150.152 31.1145 147.03C31.1145 143.908 28.5834 141.377 25.4612 141.377ZM19.3164 147.03C19.3164 143.636 22.0675 140.885 25.4612 140.885C28.8549 140.885 31.606 143.636 31.606 147.03C31.606 150.424 28.8549 153.175 25.4612 153.175C22.0675 153.175 19.3164 150.424 19.3164 147.03Z" fill="#20AF5D"/>
<path d="M23.8854 149.488H23.25L25.0879 144.483H25.7135L27.5514 149.488H26.9159L25.4202 145.275H25.3811L23.8854 149.488ZM24.1201 147.533H26.6813V148.07H24.1201V147.533Z" fill="#20AF5D"/>
<path d="M31.3606 124.662C31.3606 127.92 28.7195 130.561 25.4615 130.561C22.2036 130.561 19.5625 127.92 19.5625 124.662C19.5625 121.404 22.2036 118.763 25.4615 118.763C28.7195 118.763 31.3606 121.404 31.3606 124.662Z" fill="#F9FCF5"/>
<path fill-rule="evenodd" clip-rule="evenodd" d="M25.4612 119.009C22.339 119.009 19.808 121.54 19.808 124.662C19.808 127.784 22.339 130.315 25.4612 130.315C28.5834 130.315 31.1145 127.784 31.1145 124.662C31.1145 121.54 28.5834 119.009 25.4612 119.009ZM19.3164 124.662C19.3164 121.268 22.0675 118.517 25.4612 118.517C28.8549 118.517 31.606 121.268 31.606 124.662C31.606 128.056 28.8549 130.807 25.4612 130.807C22.0675 130.807 19.3164 128.056 19.3164 124.662Z" fill="#90CA2F"/>
<path d="M23.8555 127.12V122.115H25.6053C25.954 122.115 26.2416 122.175 26.4681 122.296C26.6945 122.415 26.8632 122.575 26.974 122.777C27.0848 122.978 27.1402 123.2 27.1402 123.445C27.1402 123.66 27.1019 123.837 27.0253 123.977C26.9503 124.117 26.851 124.228 26.7271 124.31C26.6049 124.391 26.4721 124.451 26.3288 124.491V124.539C26.4819 124.549 26.6359 124.603 26.7907 124.701C26.9455 124.798 27.075 124.939 27.1793 125.121C27.2835 125.304 27.3357 125.527 27.3357 125.791C27.3357 126.042 27.2786 126.267 27.1646 126.468C27.0505 126.668 26.8705 126.827 26.6245 126.944C26.3785 127.062 26.0583 127.12 25.664 127.12H23.8555ZM24.4616 126.583H25.664C26.0599 126.583 26.341 126.506 26.5072 126.353C26.675 126.198 26.7589 126.011 26.7589 125.791C26.7589 125.621 26.7157 125.465 26.6294 125.321C26.543 125.176 26.42 125.061 26.2603 124.974C26.1007 124.886 25.9117 124.842 25.6933 124.842H24.4616V126.583ZM24.4616 124.315H25.5858C25.7683 124.315 25.9328 124.279 26.0795 124.207C26.2277 124.135 26.3451 124.034 26.4314 123.904C26.5194 123.774 26.5634 123.62 26.5634 123.445C26.5634 123.225 26.4868 123.038 26.3336 122.885C26.1805 122.73 25.9377 122.653 25.6053 122.653H24.4616V124.315Z" fill="#90CA2F"/>
<path d="M31.3606 101.804C31.3606 105.062 28.7195 107.703 25.4615 107.703C22.2036 107.703 19.5625 105.062 19.5625 101.804C19.5625 98.5461 22.2036 95.905 25.4615 95.905C28.7195 95.905 31.3606 98.5461 31.3606 101.804Z" fill="#FFFCF3"/>
<path fill-rule="evenodd" clip-rule="evenodd" d="M25.4612 96.1508C22.339 96.1508 19.808 98.6818 19.808 101.804C19.808 104.926 22.339 107.457 25.4612 107.457C28.5834 107.457 31.1145 104.926 31.1145 101.804C31.1145 98.6818 28.5834 96.1508 25.4612 96.1508ZM19.3164 101.804C19.3164 98.4103 22.0675 95.6592 25.4612 95.6592C28.8549 95.6592 31.606 98.4103 31.606 101.804C31.606 105.198 28.8549 107.949 25.4612 107.949C22.0675 107.949 19.3164 105.198 19.3164 101.804Z" fill="#FDC106"/>
<path d="M27.4732 100.821H26.8671C26.8312 100.646 26.7685 100.493 26.6789 100.361C26.5909 100.229 26.4834 100.119 26.3563 100.029C26.2308 99.9377 26.0915 99.8693 25.9384 99.8237C25.7852 99.778 25.6255 99.7552 25.4593 99.7552C25.1563 99.7552 24.8818 99.8318 24.6357 99.985C24.3913 100.138 24.1966 100.364 24.0516 100.662C23.9082 100.96 23.8366 101.326 23.8366 101.759C23.8366 102.193 23.9082 102.558 24.0516 102.857C24.1966 103.155 24.3913 103.38 24.6357 103.534C24.8818 103.687 25.1563 103.763 25.4593 103.763C25.6255 103.763 25.7852 103.741 25.9384 103.695C26.0915 103.649 26.2308 103.582 26.3563 103.492C26.4834 103.401 26.5909 103.289 26.6789 103.157C26.7685 103.024 26.8312 102.87 26.8671 102.698H27.4732C27.4275 102.954 27.3445 103.182 27.2239 103.385C27.1033 103.587 26.9534 103.758 26.7742 103.9C26.595 104.04 26.3938 104.147 26.1705 104.22C25.9489 104.294 25.7119 104.33 25.4593 104.33C25.0325 104.33 24.6528 104.226 24.3205 104.018C23.9881 103.809 23.7266 103.512 23.5359 103.128C23.3453 102.743 23.25 102.287 23.25 101.759C23.25 101.231 23.3453 100.775 23.5359 100.391C23.7266 100.006 23.9881 99.7096 24.3205 99.5011C24.6528 99.2925 25.0325 99.1882 25.4593 99.1882C25.7119 99.1882 25.9489 99.2249 26.1705 99.2982C26.3938 99.3715 26.595 99.4791 26.7742 99.6208C26.9534 99.7609 27.1033 99.932 27.2239 100.134C27.3445 100.334 27.4275 100.563 27.4732 100.821Z" fill="#FDC106"/>
<path d="M31.3606 79.4359C31.3606 82.6938 28.7195 85.3349 25.4615 85.3349C22.2036 85.3349 19.5625 82.6938 19.5625 79.4359C19.5625 76.1779 22.2036 73.5369 25.4615 73.5369C28.7195 73.5369 31.3606 76.1779 31.3606 79.4359Z" fill="#FFFAF2"/>
<path fill-rule="evenodd" clip-rule="evenodd" d="M25.4612 73.7826C22.339 73.7826 19.808 76.3136 19.808 79.4358C19.808 82.558 22.339 85.0891 25.4612 85.0891C28.5834 85.0891 31.1145 82.558 31.1145 79.4358C31.1145 76.3136 28.5834 73.7826 25.4612 73.7826ZM19.3164 79.4358C19.3164 76.0421 22.0675 73.291 25.4612 73.291C28.8549 73.291 31.606 76.0421 31.606 79.4358C31.606 82.8295 28.8549 85.5807 25.4612 85.5807C22.0675 85.5807 19.3164 82.8295 19.3164 79.4358Z" fill="#FF6B01"/>
<path d="M25.1618 81.8939H23.6172V76.8887H25.2302C25.7157 76.8887 26.1312 76.9889 26.4766 77.1893C26.822 77.3881 27.0868 77.674 27.2709 78.0471C27.455 78.4186 27.5471 78.8634 27.5471 79.3815C27.5471 79.9029 27.4542 80.3518 27.2685 80.7281C27.0827 81.1029 26.8123 81.3913 26.4571 81.5933C26.1019 81.7937 25.6701 81.8939 25.1618 81.8939ZM24.2233 81.3562H25.1227C25.5365 81.3562 25.8795 81.2764 26.1516 81.1167C26.4237 80.9571 26.6265 80.7298 26.7601 80.4349C26.8937 80.14 26.9605 79.7888 26.9605 79.3815C26.9605 78.9774 26.8945 78.6296 26.7626 78.3379C26.6306 78.0447 26.4334 77.8198 26.1711 77.6634C25.9088 77.5054 25.5821 77.4263 25.1911 77.4263H24.2233V81.3562Z" fill="#FF6B01"/>
<path d="M31.3606 57.8075C31.3606 61.0654 28.7195 63.7065 25.4615 63.7065C22.2036 63.7065 19.5625 61.0654 19.5625 57.8075C19.5625 54.5495 22.2036 51.9084 25.4615 51.9084C28.7195 51.9084 31.3606 54.5495 31.3606 57.8075Z" fill="#FEF5F5"/>
<path fill-rule="evenodd" clip-rule="evenodd" d="M25.4612 52.1542C22.339 52.1542 19.808 54.6852 19.808 57.8074C19.808 60.9296 22.339 63.4607 25.4612 63.4607C28.5834 63.4607 31.1145 60.9296 31.1145 57.8074C31.1145 54.6852 28.5834 52.1542 25.4612 52.1542ZM19.3164 57.8074C19.3164 54.4137 22.0675 51.6626 25.4612 51.6626C28.8549 51.6626 31.606 54.4137 31.606 57.8074C31.606 61.2011 28.8549 63.9522 25.4612 63.9522C22.0675 63.9522 19.3164 61.2011 19.3164 57.8074Z" fill="#E02424"/>
<path d="M24.2324 60.2655V55.2603H27.2336V55.7979H24.8385V57.4891H27.0088V58.0268H24.8385V60.2655H24.2324Z" fill="#E02424"/>
<path d="M89.2911 172.391H88.4894L90.2906 167.386H91.1631L92.9643 172.391H92.1627L90.7477 168.295H90.7086L89.2911 172.391ZM89.4255 170.431H92.0259V171.066H89.4255V170.431ZM96.0065 170.834V168.637H96.7396V172.391H96.0211V171.741H95.982C95.8957 171.941 95.7572 172.108 95.5665 172.242C95.3775 172.374 95.1421 172.44 94.8602 172.44C94.6191 172.44 94.4057 172.387 94.2199 172.281C94.0358 172.174 93.8908 172.015 93.7849 171.805C93.6806 171.594 93.6285 171.335 93.6285 171.025V168.637H94.3592V170.937C94.3592 171.193 94.4301 171.396 94.5718 171.548C94.7136 171.699 94.8977 171.775 95.1242 171.775C95.261 171.775 95.3971 171.741 95.5323 171.673C95.6692 171.604 95.7824 171.501 95.872 171.362C95.9633 171.224 96.0081 171.048 96.0065 170.834ZM98.2983 168.637L99.1268 170.099L99.9626 168.637H100.762L99.5911 170.514L100.772 172.391H99.9724L99.1268 170.988L98.2836 172.391H97.482L98.6502 170.514L97.4967 168.637H98.2983ZM101.512 172.391V168.637H102.243V172.391H101.512ZM101.881 168.058C101.754 168.058 101.645 168.016 101.554 167.931C101.464 167.845 101.419 167.742 101.419 167.623C101.419 167.502 101.464 167.4 101.554 167.315C101.645 167.229 101.754 167.185 101.881 167.185C102.008 167.185 102.117 167.229 102.206 167.315C102.297 167.4 102.343 167.502 102.343 167.623C102.343 167.742 102.297 167.845 102.206 167.931C102.117 168.016 102.008 168.058 101.881 168.058ZM103.957 167.386V172.391H103.226V167.386H103.957ZM104.94 172.391V168.637H105.67V172.391H104.94ZM105.309 168.058C105.182 168.058 105.073 168.016 104.981 167.931C104.892 167.845 104.847 167.742 104.847 167.623C104.847 167.502 104.892 167.4 104.981 167.315C105.073 167.229 105.182 167.185 105.309 167.185C105.436 167.185 105.544 167.229 105.634 167.315C105.725 167.4 105.771 167.502 105.771 167.623C105.771 167.742 105.725 167.845 105.634 167.931C105.544 168.016 105.436 168.058 105.309 168.058ZM107.746 172.474C107.508 172.474 107.293 172.43 107.101 172.342C106.909 172.253 106.756 172.123 106.644 171.954C106.533 171.784 106.478 171.576 106.478 171.33C106.478 171.119 106.518 170.944 106.6 170.807C106.681 170.671 106.791 170.562 106.93 170.482C107.068 170.403 107.223 170.342 107.394 170.302C107.565 170.261 107.74 170.23 107.917 170.209C108.142 170.183 108.324 170.161 108.465 170.145C108.605 170.127 108.707 170.099 108.77 170.06C108.834 170.02 108.865 169.957 108.865 169.869V169.852C108.865 169.638 108.805 169.473 108.685 169.356C108.566 169.238 108.388 169.18 108.152 169.18C107.906 169.18 107.712 169.234 107.57 169.343C107.43 169.451 107.333 169.571 107.279 169.703L106.592 169.546C106.674 169.318 106.793 169.134 106.949 168.994C107.107 168.852 107.289 168.75 107.494 168.686C107.7 168.621 107.915 168.588 108.142 168.588C108.292 168.588 108.451 168.606 108.619 168.642C108.788 168.676 108.946 168.74 109.093 168.833C109.241 168.926 109.362 169.058 109.457 169.231C109.551 169.402 109.599 169.625 109.599 169.898V172.391H108.885V171.878H108.856C108.808 171.972 108.737 172.065 108.643 172.156C108.548 172.248 108.427 172.323 108.279 172.384C108.131 172.444 107.953 172.474 107.746 172.474ZM107.905 171.888C108.107 171.888 108.28 171.848 108.423 171.768C108.568 171.688 108.678 171.584 108.753 171.455C108.83 171.325 108.868 171.185 108.868 171.037V170.553C108.842 170.579 108.791 170.604 108.716 170.627C108.643 170.648 108.559 170.666 108.465 170.683C108.37 170.697 108.278 170.711 108.188 170.724C108.099 170.736 108.024 170.746 107.964 170.754C107.822 170.772 107.692 170.802 107.575 170.844C107.459 170.886 107.366 170.948 107.296 171.027C107.228 171.106 107.194 171.21 107.194 171.34C107.194 171.521 107.26 171.658 107.394 171.751C107.528 171.842 107.698 171.888 107.905 171.888ZM110.572 172.391V168.637H111.278V169.234H111.317C111.386 169.031 111.506 168.873 111.679 168.757C111.853 168.64 112.05 168.581 112.27 168.581C112.316 168.581 112.37 168.583 112.432 168.586C112.495 168.589 112.545 168.593 112.581 168.598V169.297C112.551 169.289 112.499 169.28 112.424 169.27C112.349 169.259 112.274 169.253 112.2 169.253C112.027 169.253 111.873 169.29 111.738 169.363C111.604 169.435 111.498 169.535 111.42 169.664C111.342 169.791 111.303 169.936 111.303 170.099V172.391H110.572ZM113.789 173.799C113.68 173.799 113.581 173.79 113.491 173.772C113.402 173.756 113.335 173.738 113.291 173.718L113.467 173.119C113.6 173.155 113.719 173.171 113.824 173.166C113.928 173.161 114.02 173.122 114.1 173.049C114.181 172.975 114.253 172.855 114.315 172.689L114.405 172.44L113.032 168.637H113.814L114.764 171.55H114.804L115.754 168.637H116.539L114.992 172.892C114.92 173.088 114.829 173.253 114.718 173.388C114.607 173.525 114.475 173.628 114.322 173.696C114.169 173.765 113.991 173.799 113.789 173.799Z" fill="#343A3F"/>
<path d="M206.265 167.386H207.181L208.775 171.277H208.833L210.427 167.386H211.343V172.391H210.625V168.769H210.578L209.102 172.384H208.506L207.03 168.767H206.983V172.391H206.265V167.386ZM213.964 172.467C213.612 172.467 213.305 172.386 213.042 172.225C212.78 172.064 212.576 171.838 212.431 171.548C212.286 171.258 212.214 170.919 212.214 170.532C212.214 170.142 212.286 169.802 212.431 169.51C212.576 169.218 212.78 168.992 213.042 168.831C213.305 168.669 213.612 168.589 213.964 168.589C214.316 168.589 214.623 168.669 214.885 168.831C215.148 168.992 215.351 169.218 215.496 169.51C215.641 169.802 215.714 170.142 215.714 170.532C215.714 170.919 215.641 171.258 215.496 171.548C215.351 171.838 215.148 172.064 214.885 172.225C214.623 172.386 214.316 172.467 213.964 172.467ZM213.966 171.854C214.194 171.854 214.383 171.793 214.533 171.673C214.683 171.552 214.794 171.392 214.866 171.191C214.939 170.991 214.976 170.77 214.976 170.529C214.976 170.29 214.939 170.07 214.866 169.869C214.794 169.667 214.683 169.505 214.533 169.383C214.383 169.261 214.194 169.2 213.966 169.2C213.737 169.2 213.546 169.261 213.394 169.383C213.244 169.505 213.133 169.667 213.06 169.869C212.988 170.07 212.952 170.29 212.952 170.529C212.952 170.77 212.988 170.991 213.06 171.191C213.133 171.392 213.244 171.552 213.394 171.673C213.546 171.793 213.737 171.854 213.966 171.854ZM217.935 172.465C217.632 172.465 217.361 172.387 217.123 172.232C216.887 172.076 216.701 171.854 216.566 171.565C216.432 171.275 216.366 170.927 216.366 170.522C216.366 170.116 216.433 169.769 216.568 169.481C216.705 169.192 216.893 168.971 217.131 168.818C217.368 168.665 217.638 168.589 217.94 168.589C218.173 168.589 218.36 168.628 218.502 168.706C218.645 168.782 218.756 168.872 218.834 168.975C218.914 169.077 218.976 169.168 219.02 169.246H219.064V167.386H219.795V172.391H219.081V171.807H219.02C218.976 171.887 218.912 171.978 218.829 172.081C218.748 172.184 218.635 172.273 218.492 172.35C218.349 172.426 218.163 172.465 217.935 172.465ZM218.096 171.841C218.306 171.841 218.484 171.786 218.629 171.675C218.775 171.563 218.886 171.407 218.961 171.208C219.038 171.01 219.076 170.778 219.076 170.514C219.076 170.254 219.039 170.026 218.964 169.83C218.889 169.635 218.779 169.482 218.634 169.373C218.489 169.264 218.309 169.209 218.096 169.209C217.876 169.209 217.693 169.266 217.546 169.38C217.399 169.494 217.289 169.65 217.214 169.847C217.14 170.044 217.104 170.267 217.104 170.514C217.104 170.765 217.141 170.991 217.216 171.191C217.291 171.392 217.402 171.551 217.549 171.668C217.697 171.784 217.879 171.841 218.096 171.841ZM222.455 172.467C222.086 172.467 221.767 172.388 221.5 172.23C221.234 172.07 221.029 171.846 220.884 171.558C220.741 171.268 220.669 170.928 220.669 170.539C220.669 170.154 220.741 169.815 220.884 169.522C221.029 169.229 221.231 169 221.49 168.835C221.751 168.671 222.055 168.589 222.404 168.589C222.616 168.589 222.821 168.624 223.02 168.694C223.219 168.764 223.397 168.874 223.555 169.024C223.713 169.173 223.838 169.368 223.929 169.608C224.02 169.846 224.066 170.135 224.066 170.475V170.734H221.082V170.187H223.35C223.35 169.995 223.311 169.824 223.233 169.676C223.154 169.526 223.044 169.408 222.903 169.322C222.763 169.235 222.598 169.192 222.409 169.192C222.204 169.192 222.024 169.243 221.871 169.344C221.72 169.443 221.602 169.573 221.519 169.735C221.438 169.894 221.397 170.068 221.397 170.255V170.683C221.397 170.934 221.441 171.147 221.529 171.323C221.619 171.499 221.743 171.634 221.903 171.727C222.063 171.818 222.249 171.863 222.463 171.863C222.601 171.863 222.727 171.844 222.842 171.805C222.956 171.764 223.054 171.704 223.137 171.624C223.22 171.544 223.284 171.446 223.328 171.328L224.02 171.453C223.964 171.657 223.865 171.835 223.721 171.988C223.58 172.14 223.401 172.258 223.186 172.342C222.973 172.426 222.729 172.467 222.455 172.467ZM224.877 172.391V168.637H225.583V169.234H225.622C225.691 169.032 225.811 168.873 225.984 168.757C226.158 168.64 226.355 168.581 226.575 168.581C226.621 168.581 226.675 168.583 226.737 168.586C226.8 168.589 226.85 168.593 226.886 168.598V169.297C226.856 169.289 226.804 169.28 226.729 169.27C226.654 169.259 226.579 169.253 226.504 169.253C226.332 169.253 226.178 169.29 226.043 169.363C225.909 169.435 225.803 169.535 225.725 169.664C225.647 169.791 225.607 169.936 225.607 170.099V172.391H224.877ZM228.577 172.474C228.339 172.474 228.124 172.43 227.932 172.342C227.739 172.253 227.587 172.123 227.475 171.954C227.364 171.784 227.308 171.577 227.308 171.331C227.308 171.119 227.349 170.945 227.431 170.808C227.512 170.671 227.622 170.562 227.761 170.483C227.899 170.403 228.054 170.343 228.225 170.302C228.396 170.261 228.57 170.23 228.748 170.209C228.973 170.183 229.155 170.162 229.295 170.145C229.436 170.127 229.537 170.099 229.601 170.06C229.664 170.021 229.696 169.957 229.696 169.869V169.852C229.696 169.639 229.636 169.473 229.515 169.356C229.396 169.239 229.219 169.18 228.983 169.18C228.737 169.18 228.543 169.235 228.401 169.344C228.261 169.451 228.164 169.571 228.11 169.703L227.423 169.547C227.505 169.318 227.624 169.134 227.78 168.994C227.938 168.852 228.12 168.75 228.325 168.686C228.53 168.621 228.746 168.589 228.973 168.589C229.123 168.589 229.282 168.606 229.449 168.642C229.619 168.677 229.777 168.74 229.924 168.833C230.072 168.926 230.193 169.059 230.288 169.231C230.382 169.402 230.429 169.625 230.429 169.899V172.391H229.716V171.878H229.686C229.639 171.973 229.568 172.065 229.474 172.157C229.379 172.248 229.258 172.324 229.11 172.384C228.961 172.444 228.784 172.474 228.577 172.474ZM228.736 171.888C228.938 171.888 229.11 171.848 229.254 171.768C229.399 171.688 229.509 171.584 229.584 171.455C229.66 171.325 229.699 171.186 229.699 171.037V170.553C229.673 170.58 229.622 170.604 229.547 170.627C229.474 170.648 229.39 170.667 229.295 170.683C229.201 170.698 229.109 170.712 229.019 170.725C228.93 170.736 228.855 170.746 228.794 170.754C228.653 170.772 228.523 170.802 228.406 170.844C228.29 170.887 228.197 170.948 228.127 171.028C228.059 171.106 228.025 171.21 228.025 171.34C228.025 171.521 228.091 171.658 228.225 171.751C228.359 171.842 228.529 171.888 228.736 171.888ZM233.155 168.637V169.224H231.105V168.637H233.155ZM231.654 167.738H232.385V171.289C232.385 171.431 232.406 171.538 232.449 171.609C232.491 171.679 232.546 171.727 232.612 171.753C232.681 171.778 232.755 171.79 232.835 171.79C232.894 171.79 232.945 171.786 232.989 171.778C233.033 171.77 233.067 171.763 233.092 171.758L233.223 172.362C233.181 172.378 233.121 172.395 233.043 172.411C232.964 172.429 232.867 172.439 232.749 172.44C232.557 172.443 232.378 172.409 232.212 172.338C232.045 172.266 231.911 172.155 231.808 172.005C231.706 171.855 231.654 171.667 231.654 171.441V167.738ZM235.541 172.467C235.171 172.467 234.853 172.388 234.585 172.23C234.32 172.07 234.115 171.846 233.969 171.558C233.826 171.268 233.754 170.928 233.754 170.539C233.754 170.154 233.826 169.815 233.969 169.522C234.115 169.229 234.317 169 234.576 168.835C234.836 168.671 235.141 168.589 235.49 168.589C235.701 168.589 235.907 168.624 236.106 168.694C236.304 168.764 236.483 168.874 236.641 169.024C236.799 169.173 236.923 169.368 237.015 169.608C237.106 169.846 237.152 170.135 237.152 170.475V170.734H234.167V170.187H236.435C236.435 169.995 236.396 169.824 236.318 169.676C236.24 169.526 236.13 169.408 235.988 169.322C235.848 169.235 235.684 169.192 235.495 169.192C235.289 169.192 235.11 169.243 234.957 169.344C234.805 169.443 234.688 169.573 234.605 169.735C234.523 169.894 234.483 170.068 234.483 170.255V170.683C234.483 170.934 234.527 171.147 234.615 171.323C234.704 171.499 234.829 171.634 234.989 171.727C235.148 171.818 235.335 171.863 235.548 171.863C235.687 171.863 235.813 171.844 235.927 171.805C236.041 171.764 236.14 171.704 236.223 171.624C236.306 171.544 236.369 171.446 236.413 171.328L237.105 171.453C237.05 171.657 236.95 171.835 236.807 171.988C236.665 172.14 236.487 172.258 236.272 172.342C236.058 172.426 235.815 172.467 235.541 172.467Z" fill="#343A3F"/>
<path d="M333.41 169.014H332.648C332.618 168.851 332.564 168.707 332.484 168.584C332.404 168.46 332.306 168.355 332.191 168.268C332.075 168.182 331.945 168.117 331.802 168.073C331.66 168.029 331.51 168.007 331.35 168.007C331.062 168.007 330.803 168.079 330.575 168.224C330.349 168.369 330.17 168.582 330.038 168.862C329.907 169.143 329.842 169.485 329.842 169.889C329.842 170.296 329.907 170.64 330.038 170.92C330.17 171.2 330.35 171.412 330.578 171.556C330.806 171.699 331.062 171.771 331.347 171.771C331.506 171.771 331.655 171.749 331.797 171.707C331.941 171.663 332.07 171.599 332.186 171.514C332.301 171.429 332.399 171.326 332.479 171.204C332.561 171.08 332.617 170.938 332.648 170.778L333.41 170.781C333.369 171.027 333.29 171.253 333.173 171.46C333.057 171.666 332.908 171.843 332.726 171.993C332.545 172.141 332.338 172.256 332.105 172.338C331.872 172.419 331.618 172.46 331.343 172.46C330.909 172.46 330.523 172.357 330.184 172.152C329.845 171.945 329.578 171.649 329.383 171.265C329.189 170.88 329.092 170.422 329.092 169.889C329.092 169.354 329.189 168.896 329.385 168.513C329.581 168.128 329.848 167.833 330.187 167.628C330.526 167.421 330.911 167.318 331.343 167.318C331.608 167.318 331.856 167.356 332.086 167.433C332.317 167.508 332.525 167.618 332.709 167.765C332.893 167.91 333.045 168.088 333.166 168.298C333.286 168.506 333.368 168.745 333.41 169.014ZM334.255 172.391V168.637H334.962V169.234H335.001C335.069 169.032 335.19 168.873 335.362 168.757C335.537 168.64 335.734 168.581 335.954 168.581C335.999 168.581 336.053 168.583 336.115 168.586C336.179 168.589 336.228 168.593 336.264 168.598V169.297C336.235 169.289 336.183 169.28 336.108 169.27C336.033 169.259 335.958 169.253 335.883 169.253C335.71 169.253 335.556 169.29 335.421 169.363C335.287 169.435 335.181 169.535 335.103 169.664C335.025 169.791 334.986 169.936 334.986 170.099V172.391H334.255ZM336.897 172.391V168.637H337.627V172.391H336.897ZM337.266 168.058C337.138 168.058 337.029 168.016 336.938 167.931C336.848 167.845 336.804 167.742 336.804 167.623C336.804 167.503 336.848 167.4 336.938 167.315C337.029 167.229 337.138 167.186 337.266 167.186C337.393 167.186 337.501 167.229 337.591 167.315C337.682 167.4 337.727 167.503 337.727 167.623C337.727 167.742 337.682 167.845 337.591 167.931C337.501 168.016 337.393 168.058 337.266 168.058ZM340.363 168.637V169.224H338.312V168.637H340.363ZM338.862 167.738H339.593V171.289C339.593 171.431 339.614 171.538 339.656 171.609C339.699 171.679 339.753 171.727 339.82 171.753C339.889 171.778 339.963 171.79 340.043 171.79C340.101 171.79 340.152 171.786 340.196 171.778C340.24 171.77 340.275 171.763 340.299 171.758L340.431 172.362C340.389 172.378 340.328 172.395 340.25 172.411C340.172 172.429 340.074 172.439 339.957 172.44C339.765 172.443 339.585 172.409 339.419 172.338C339.253 172.266 339.119 172.155 339.016 172.005C338.913 171.855 338.862 171.667 338.862 171.441V167.738ZM341.171 172.391V168.637H341.902V172.391H341.171ZM341.54 168.058C341.413 168.058 341.304 168.016 341.213 167.931C341.123 167.845 341.078 167.742 341.078 167.623C341.078 167.503 341.123 167.4 341.213 167.315C341.304 167.229 341.413 167.186 341.54 167.186C341.667 167.186 341.775 167.229 341.865 167.315C341.956 167.4 342.002 167.503 342.002 167.623C342.002 167.742 341.956 167.845 341.865 167.931C341.775 168.016 341.667 168.058 341.54 168.058ZM344.466 172.467C344.103 172.467 343.79 172.385 343.528 172.22C343.267 172.054 343.066 171.825 342.926 171.534C342.786 171.242 342.716 170.908 342.716 170.532C342.716 170.15 342.788 169.814 342.931 169.522C343.075 169.229 343.277 169 343.537 168.835C343.798 168.671 344.105 168.589 344.459 168.589C344.744 168.589 344.998 168.642 345.221 168.747C345.444 168.852 345.625 168.998 345.761 169.187C345.9 169.376 345.982 169.597 346.008 169.85H345.297C345.258 169.674 345.168 169.522 345.028 169.395C344.89 169.268 344.704 169.204 344.471 169.204C344.267 169.204 344.089 169.258 343.936 169.366C343.784 169.472 343.666 169.623 343.581 169.82C343.497 170.016 343.454 170.247 343.454 170.514C343.454 170.788 343.496 171.024 343.579 171.223C343.662 171.422 343.779 171.576 343.931 171.685C344.084 171.794 344.264 171.849 344.471 171.849C344.609 171.849 344.735 171.824 344.847 171.773C344.961 171.721 345.057 171.647 345.133 171.551C345.211 171.455 345.266 171.339 345.297 171.204H346.008C345.982 171.446 345.903 171.663 345.771 171.854C345.639 172.044 345.462 172.194 345.241 172.303C345.021 172.413 344.763 172.467 344.466 172.467ZM347.882 172.474C347.644 172.474 347.429 172.43 347.237 172.342C347.045 172.253 346.892 172.123 346.78 171.954C346.669 171.784 346.614 171.577 346.614 171.331C346.614 171.119 346.654 170.945 346.736 170.808C346.817 170.671 346.927 170.562 347.066 170.483C347.204 170.403 347.359 170.343 347.53 170.302C347.701 170.261 347.876 170.23 348.053 170.209C348.278 170.183 348.461 170.162 348.601 170.145C348.741 170.127 348.843 170.099 348.906 170.06C348.97 170.021 349.001 169.957 349.001 169.869V169.852C349.001 169.639 348.941 169.473 348.821 169.356C348.702 169.239 348.524 169.18 348.288 169.18C348.042 169.18 347.848 169.235 347.706 169.344C347.566 169.451 347.469 169.571 347.415 169.703L346.729 169.547C346.81 169.318 346.929 169.134 347.085 168.994C347.243 168.852 347.425 168.75 347.63 168.686C347.836 168.621 348.052 168.589 348.278 168.589C348.428 168.589 348.587 168.606 348.755 168.642C348.924 168.677 349.082 168.74 349.229 168.833C349.377 168.926 349.498 169.059 349.593 169.231C349.687 169.402 349.735 169.625 349.735 169.899V172.391H349.021V171.878H348.992C348.944 171.973 348.874 172.065 348.779 172.157C348.685 172.248 348.563 172.324 348.415 172.384C348.267 172.444 348.089 172.474 347.882 172.474ZM348.041 171.888C348.243 171.888 348.416 171.848 348.559 171.768C348.704 171.688 348.814 171.584 348.889 171.455C348.966 171.325 349.004 171.186 349.004 171.037V170.553C348.978 170.58 348.927 170.604 348.852 170.627C348.779 170.648 348.695 170.667 348.601 170.683C348.506 170.698 348.414 170.712 348.324 170.725C348.235 170.736 348.16 170.746 348.1 170.754C347.958 170.772 347.828 170.802 347.711 170.844C347.595 170.887 347.502 170.948 347.432 171.028C347.364 171.106 347.33 171.21 347.33 171.34C347.33 171.521 347.397 171.658 347.53 171.751C347.664 171.842 347.834 171.888 348.041 171.888ZM351.439 167.386V172.391H350.708V167.386H351.439Z" fill="#343A3F"/>
<rect opacity="0.7" x="167.99" y="92.8579" width="108.511" height="18.1733" rx="4" fill="#FDC106"/>
<rect opacity="0.4" x="48.9824" y="92.8579" width="108.511" height="18.1733" rx="4" fill="#FDC106"/>
<rect x="286.996" y="92.8579" width="108.511" height="18.1733" rx="4" fill="#F9F9FB"/>
<path d="M343.464 101.924V102.738H339.039V101.924H343.464Z" fill="#F3F7FC"/>
<rect x="48.9824" y="115.574" width="108.511" height="18.1733" rx="4" fill="#E2EEE4"/>
<rect x="167.492" y="115.574" width="108.511" height="18.1733" rx="4" fill="#7EBA8D"/>
<rect x="286.004" y="115.574" width="108.511" height="18.1733" rx="4" fill="#F9F9FB"/>
<rect opacity="0.6" x="48.9824" y="70.1414" width="108.511" height="18.1733" rx="4" fill="#FF6B01"/>
<rect x="167.99" y="70.1416" width="108.511" height="18.1733" rx="4" fill="#F9F9FB"/>
<rect x="286.996" y="70.1414" width="108.511" height="18.1733" rx="4" fill="#F9F9FB"/>
<rect x="286.996" y="47.4243" width="108.511" height="18.1733" rx="4" fill="#F9F9FB"/>
<rect opacity="0.8" x="167.99" y="47.4243" width="108.511" height="18.1733" rx="4" fill="#EF4E3E"/>
<rect opacity="0.6" x="48.9824" y="47.4243" width="108.511" height="18.1733" rx="4" fill="#F2775F"/>
<rect x="168.182" y="138.292" width="108.511" height="18.1733" rx="4" fill="#D1E4D4"/>
<rect opacity="0.2" x="48.9824" y="138.292" width="108.511" height="18.1733" rx="4" fill="#9FC9A8"/>
<rect x="286.799" y="138.292" width="108.511" height="18.1733" rx="4" fill="#9FC9A8"/>
</svg>
