<svg width="1500" height="601" viewBox="0 0 1500 601" fill="none" xmlns="http://www.w3.org/2000/svg">
<g opacity="0.3" clip-path="url(#clip0_1123_2660)">
<g opacity="0.3" clip-path="url(#clip1_1123_2660)">
<line x1="54.1633" y1="-312.286" x2="54.1632" y2="2807.63" stroke="#878D96" stroke-width="0.974973"/>
<line x1="109.761" y1="-312.286" x2="109.761" y2="2807.63" stroke="#878D96" stroke-width="0.974973"/>
<line x1="165.361" y1="-312.286" x2="165.36" y2="2807.63" stroke="#878D96" stroke-width="0.974973"/>
<line x1="220.958" y1="-312.286" x2="220.958" y2="2807.63" stroke="#878D96" stroke-width="0.974973"/>
<line x1="276.556" y1="-312.286" x2="276.556" y2="2807.63" stroke="#878D96" stroke-width="0.974973"/>
<line x1="332.155" y1="-312.286" x2="332.155" y2="2807.63" stroke="#878D96" stroke-width="0.974973"/>
<line x1="387.753" y1="-312.286" x2="387.753" y2="2807.63" stroke="#878D96" stroke-width="0.974973"/>
<line x1="443.353" y1="-312.286" x2="443.353" y2="2807.63" stroke="#878D96" stroke-width="0.974973"/>
<line x1="498.95" y1="-312.286" x2="498.95" y2="2807.63" stroke="#878D96" stroke-width="0.974973"/>
<line x1="554.55" y1="-312.286" x2="554.55" y2="2807.63" stroke="#878D96" stroke-width="0.974973"/>
<line x1="610.148" y1="-312.286" x2="610.148" y2="2807.63" stroke="#878D96" stroke-width="0.974973"/>
<line x1="665.745" y1="-312.286" x2="665.745" y2="2807.63" stroke="#878D96" stroke-width="0.974973"/>
<line x1="721.345" y1="-312.286" x2="721.345" y2="2807.63" stroke="#878D96" stroke-width="0.974973"/>
<line x1="776.943" y1="-312.286" x2="776.942" y2="2807.63" stroke="#878D96" stroke-width="0.974973"/>
<line x1="832.542" y1="-312.286" x2="832.542" y2="2807.63" stroke="#878D96" stroke-width="0.974973"/>
<line x1="888.14" y1="-312.286" x2="888.14" y2="2807.63" stroke="#878D96" stroke-width="0.974973"/>
<line x1="943.737" y1="-312.286" x2="943.737" y2="2807.63" stroke="#878D96" stroke-width="0.974973"/>
<line x1="999.337" y1="-312.286" x2="999.337" y2="2807.63" stroke="#878D96" stroke-width="0.974973"/>
<line x1="1054.93" y1="-312.286" x2="1054.93" y2="2807.63" stroke="#878D96" stroke-width="0.974973"/>
<line x1="1110.53" y1="-312.286" x2="1110.53" y2="2807.63" stroke="#878D96" stroke-width="0.974973"/>
<line x1="1166.13" y1="-312.286" x2="1166.13" y2="2807.63" stroke="#878D96" stroke-width="0.974973"/>
<line x1="1221.73" y1="-312.286" x2="1221.73" y2="2807.63" stroke="#878D96" stroke-width="0.974973"/>
<line x1="1277.33" y1="-312.286" x2="1277.33" y2="2807.63" stroke="#878D96" stroke-width="0.974973"/>
<line x1="1332.93" y1="-312.286" x2="1332.93" y2="2807.63" stroke="#878D96" stroke-width="0.974973"/>
<line x1="1388.53" y1="-312.286" x2="1388.53" y2="2807.63" stroke="#878D96" stroke-width="0.974973"/>
<line x1="1444.12" y1="-312.286" x2="1444.12" y2="2807.63" stroke="#878D96" stroke-width="0.974973"/>
<line x1="1499.72" y1="-312.286" x2="1499.72" y2="2807.63" stroke="#878D96" stroke-width="0.974973"/>
<line x1="3006.29" y1="22.2926" x2="-113.622" y2="22.2924" stroke="#878D96" stroke-width="0.974973"/>
<line x1="3006.29" y1="77.8911" x2="-113.622" y2="77.8909" stroke="#878D96" stroke-width="0.974973"/>
<line x1="3006.29" y1="133.49" x2="-113.622" y2="133.489" stroke="#878D96" stroke-width="0.974973"/>
<line x1="3006.29" y1="189.088" x2="-113.622" y2="189.088" stroke="#878D96" stroke-width="0.974973"/>
<line x1="3006.29" y1="244.686" x2="-113.622" y2="244.686" stroke="#878D96" stroke-width="0.974973"/>
<line x1="3006.29" y1="300.285" x2="-113.622" y2="300.285" stroke="#878D96" stroke-width="0.974973"/>
<line x1="3006.29" y1="355.883" x2="-113.622" y2="355.883" stroke="#878D96" stroke-width="0.974973"/>
<line x1="3006.29" y1="411.482" x2="-113.622" y2="411.482" stroke="#878D96" stroke-width="0.974973"/>
<line x1="3006.29" y1="467.08" x2="-113.622" y2="467.08" stroke="#878D96" stroke-width="0.974973"/>
<line x1="3006.29" y1="522.679" x2="-113.622" y2="522.678" stroke="#878D96" stroke-width="0.974973"/>
<line x1="3006.29" y1="578.277" x2="-113.622" y2="578.277" stroke="#878D96" stroke-width="0.974973"/>
</g>
</g>
<defs>
<clipPath id="clip0_1123_2660">
<rect width="1593.11" height="896" fill="white" transform="translate(-31.7227 -11.0192)"/>
</clipPath>
<clipPath id="clip1_1123_2660">
<rect width="3119.91" height="3119.91" fill="white" transform="translate(-113.62 -312.286)"/>
</clipPath>
</defs>
</svg>
