<svg width="24" height="24" viewBox="0 0 24 24" fill="none" xmlns="http://www.w3.org/2000/svg">
<path d="M17.3998 12.2C17.3998 12.7 16.9998 13.1 16.4998 13.1H12.8998V16.5C12.8998 17 12.4998 17.4 11.9998 17.4C11.4998 17.4 11.0998 17 11.0998 16.5V13.1H7.6998C7.1998 13.1 6.7998 12.7 6.7998 12.2C6.7998 11.7 7.1998 11.3 7.6998 11.3H11.0998V7.70005C11.0998 7.20005 11.4998 6.80005 11.9998 6.80005C12.4998 6.80005 12.8998 7.20005 12.8998 7.70005V11.3H16.4998C16.9998 11.3 17.3998 11.7 17.3998 12.2Z" fill="#4A5078"/>
</svg>
