<svg width="1084" height="32" viewBox="0 0 1084 32" fill="none" xmlns="http://www.w3.org/2000/svg">
<path d="M1.91761 24.5V7.04545H12.8608V9.3125H4.55114V14.6307H12.2898V16.8892H4.55114V22.233H12.9631V24.5H1.91761ZM18.1854 11.4091L21.0746 16.5057L23.9893 11.4091H26.7763L22.6939 17.9545L26.8104 24.5H24.0234L21.0746 19.608L18.1342 24.5H15.3388L19.4126 17.9545L15.3899 11.4091H18.1854ZM34.5192 24.7642C33.2294 24.7642 32.1186 24.4886 31.1868 23.9375C30.2607 23.3807 29.5447 22.5994 29.0391 21.5938C28.5391 20.5824 28.2891 19.3977 28.2891 18.0398C28.2891 16.6989 28.5391 15.517 29.0391 14.4943C29.5447 13.4716 30.2493 12.6733 31.1527 12.0994C32.0618 11.5256 33.1243 11.2386 34.3402 11.2386C35.0788 11.2386 35.7947 11.3608 36.4879 11.6051C37.1811 11.8494 37.8033 12.233 38.3544 12.7557C38.9055 13.2784 39.3402 13.9574 39.6584 14.7926C39.9766 15.6222 40.1357 16.6307 40.1357 17.8182V18.7216H29.7294V16.8125H37.6385C37.6385 16.142 37.5021 15.5483 37.2294 15.0312C36.9567 14.5085 36.5732 14.0966 36.0788 13.7955C35.5902 13.4943 35.0163 13.3438 34.3572 13.3438C33.6413 13.3438 33.0163 13.5199 32.4822 13.8722C31.9538 14.2187 31.5447 14.6733 31.255 15.2358C30.9709 15.7926 30.8288 16.3977 30.8288 17.0511V18.5426C30.8288 19.4176 30.9822 20.1619 31.2891 20.7756C31.6016 21.3892 32.0362 21.858 32.593 22.1818C33.1499 22.5 33.8004 22.6591 34.5447 22.6591C35.0277 22.6591 35.468 22.5909 35.8658 22.4545C36.2635 22.3125 36.6072 22.1023 36.897 21.8239C37.1868 21.5455 37.4084 21.2017 37.5618 20.7926L39.9737 21.2273C39.7805 21.9375 39.4339 22.5597 38.9339 23.0938C38.4396 23.6222 37.8175 24.0341 37.0675 24.3295C36.3232 24.6193 35.4737 24.7642 34.5192 24.7642ZM48.4773 24.7642C47.2102 24.7642 46.1193 24.4773 45.2045 23.9034C44.2955 23.3239 43.5966 22.5256 43.108 21.5085C42.6193 20.4915 42.375 19.3267 42.375 18.0142C42.375 16.6847 42.625 15.5114 43.125 14.4943C43.625 13.4716 44.3295 12.6733 45.2386 12.0994C46.1477 11.5256 47.2188 11.2386 48.4517 11.2386C49.446 11.2386 50.3324 11.4233 51.1108 11.7926C51.8892 12.1562 52.517 12.6676 52.9943 13.3267C53.4773 13.9858 53.7642 14.7557 53.8551 15.6364H51.375C51.2386 15.0227 50.9261 14.4943 50.4375 14.0511C49.9545 13.608 49.3068 13.3864 48.4943 13.3864C47.7841 13.3864 47.1619 13.5739 46.6278 13.9489C46.0994 14.3182 45.6875 14.8466 45.392 15.5341C45.0966 16.2159 44.9489 17.0227 44.9489 17.9545C44.9489 18.9091 45.0938 19.733 45.3835 20.4261C45.6733 21.1193 46.0824 21.6562 46.6108 22.0369C47.1449 22.4176 47.7727 22.608 48.4943 22.608C48.9773 22.608 49.4148 22.5199 49.8068 22.3438C50.2045 22.1619 50.5369 21.9034 50.804 21.5682C51.0767 21.233 51.267 20.8295 51.375 20.358H53.8551C53.7642 21.2045 53.4886 21.9602 53.0284 22.625C52.5682 23.2898 51.9517 23.8125 51.179 24.1932C50.4119 24.5739 49.5114 24.7642 48.4773 24.7642ZM64.8729 19.071V11.4091H67.4297V24.5H64.924V22.233H64.7876C64.4865 22.9318 64.0036 23.5142 63.3388 23.9801C62.6797 24.4403 61.8587 24.6705 60.8757 24.6705C60.0348 24.6705 59.2905 24.4858 58.6428 24.1165C58.0007 23.7415 57.495 23.1875 57.1257 22.4545C56.7621 21.7216 56.5803 20.8153 56.5803 19.7358V11.4091H59.1286V19.429C59.1286 20.321 59.3757 21.0312 59.87 21.5597C60.3643 22.0881 61.0064 22.3523 61.7962 22.3523C62.2734 22.3523 62.7479 22.233 63.2195 21.9943C63.6967 21.7557 64.0916 21.3949 64.4041 20.9119C64.7223 20.429 64.8786 19.8153 64.8729 19.071ZM76.9645 11.4091V13.4545H69.8139V11.4091H76.9645ZM71.7315 8.27273H74.2798V20.6562C74.2798 21.1506 74.3537 21.5227 74.5014 21.7727C74.6491 22.017 74.8395 22.1847 75.0724 22.2756C75.3111 22.3608 75.5696 22.4034 75.848 22.4034C76.0526 22.4034 76.2315 22.3892 76.3849 22.3608C76.5384 22.3324 76.6577 22.3097 76.7429 22.2926L77.2031 24.3977C77.0554 24.4545 76.8452 24.5114 76.5724 24.5682C76.2997 24.6307 75.9588 24.6648 75.5497 24.6705C74.8793 24.6818 74.2543 24.5625 73.6747 24.3125C73.0952 24.0625 72.6264 23.6761 72.2685 23.1534C71.9105 22.6307 71.7315 21.9744 71.7315 21.1847V8.27273ZM79.7834 24.5V11.4091H82.3317V24.5H79.7834ZM81.0703 9.3892C80.6271 9.3892 80.2464 9.24148 79.9283 8.94602C79.6158 8.64489 79.4595 8.28693 79.4595 7.87216C79.4595 7.4517 79.6158 7.09375 79.9283 6.79829C80.2464 6.49716 80.6271 6.34659 81.0703 6.34659C81.5135 6.34659 81.8913 6.49716 82.2038 6.79829C82.522 7.09375 82.6811 7.4517 82.6811 7.87216C82.6811 8.28693 82.522 8.64489 82.2038 8.94602C81.8913 9.24148 81.5135 9.3892 81.0703 9.3892ZM96.9588 11.4091L92.2116 24.5H89.4844L84.7287 11.4091H87.4645L90.7798 21.483H90.9162L94.223 11.4091H96.9588ZM104.55 24.7642C103.261 24.7642 102.15 24.4886 101.218 23.9375C100.292 23.3807 99.576 22.5994 99.0703 21.5938C98.5703 20.5824 98.3203 19.3977 98.3203 18.0398C98.3203 16.6989 98.5703 15.517 99.0703 14.4943C99.576 13.4716 100.281 12.6733 101.184 12.0994C102.093 11.5256 103.156 11.2386 104.371 11.2386C105.11 11.2386 105.826 11.3608 106.519 11.6051C107.212 11.8494 107.835 12.233 108.386 12.7557C108.937 13.2784 109.371 13.9574 109.69 14.7926C110.008 15.6222 110.167 16.6307 110.167 17.8182V18.7216H99.7607V16.8125H107.67C107.67 16.142 107.533 15.5483 107.261 15.0312C106.988 14.5085 106.604 14.0966 106.11 13.7955C105.621 13.4943 105.048 13.3438 104.388 13.3438C103.673 13.3438 103.048 13.5199 102.513 13.8722C101.985 14.2187 101.576 14.6733 101.286 15.2358C101.002 15.7926 100.86 16.3977 100.86 17.0511V18.5426C100.86 19.4176 101.013 20.1619 101.32 20.7756C101.633 21.3892 102.067 21.858 102.624 22.1818C103.181 22.5 103.832 22.6591 104.576 22.6591C105.059 22.6591 105.499 22.5909 105.897 22.4545C106.295 22.3125 106.638 22.1023 106.928 21.8239C107.218 21.5455 107.44 21.2017 107.593 20.7926L110.005 21.2273C109.812 21.9375 109.465 22.5597 108.965 23.0938C108.471 23.6222 107.849 24.0341 107.099 24.3295C106.354 24.6193 105.505 24.7642 104.55 24.7642ZM129.07 11.6307C128.979 10.8239 128.604 10.1989 127.945 9.75568C127.286 9.30682 126.457 9.08239 125.457 9.08239C124.741 9.08239 124.121 9.19602 123.599 9.42329C123.076 9.64489 122.67 9.9517 122.38 10.3438C122.096 10.7301 121.954 11.1705 121.954 11.6648C121.954 12.0795 122.05 12.4375 122.244 12.7386C122.442 13.0398 122.701 13.2926 123.019 13.4972C123.343 13.696 123.69 13.8636 124.059 14C124.428 14.1307 124.783 14.2386 125.124 14.3239L126.829 14.767C127.386 14.9034 127.957 15.0881 128.542 15.321C129.127 15.554 129.67 15.8608 130.17 16.2415C130.67 16.6222 131.073 17.0938 131.38 17.6562C131.692 18.2188 131.849 18.892 131.849 19.6761C131.849 20.6648 131.593 21.5426 131.082 22.3097C130.576 23.0767 129.84 23.6818 128.874 24.125C127.914 24.5682 126.752 24.7898 125.388 24.7898C124.082 24.7898 122.951 24.5824 121.996 24.1676C121.042 23.7528 120.295 23.1648 119.755 22.4034C119.215 21.6364 118.917 20.7273 118.86 19.6761H121.502C121.553 20.3068 121.758 20.8324 122.116 21.2528C122.479 21.6676 122.942 21.9773 123.505 22.1818C124.073 22.3807 124.695 22.4801 125.371 22.4801C126.116 22.4801 126.778 22.3636 127.357 22.1307C127.942 21.892 128.403 21.5625 128.738 21.142C129.073 20.7159 129.241 20.2187 129.241 19.6506C129.241 19.1335 129.093 18.7102 128.798 18.3807C128.508 18.0511 128.113 17.7784 127.613 17.5625C127.119 17.3466 126.559 17.1562 125.934 16.9915L123.871 16.429C122.474 16.0483 121.366 15.4886 120.548 14.75C119.735 14.0114 119.329 13.0341 119.329 11.8182C119.329 10.8125 119.602 9.93466 120.147 9.18466C120.692 8.43466 121.431 7.85227 122.363 7.4375C123.295 7.01705 124.346 6.80682 125.516 6.80682C126.698 6.80682 127.741 7.0142 128.644 7.42898C129.553 7.84375 130.269 8.41477 130.792 9.14204C131.315 9.86364 131.587 10.6932 131.61 11.6307H129.07ZM143.084 19.071V11.4091H145.641V24.5H143.135V22.233H142.999C142.697 22.9318 142.214 23.5142 141.55 23.9801C140.891 24.4403 140.07 24.6705 139.087 24.6705C138.246 24.6705 137.501 24.4858 136.854 24.1165C136.212 23.7415 135.706 23.1875 135.337 22.4545C134.973 21.7216 134.791 20.8153 134.791 19.7358V11.4091H137.339V19.429C137.339 20.321 137.587 21.0312 138.081 21.5597C138.575 22.0881 139.217 22.3523 140.007 22.3523C140.484 22.3523 140.959 22.233 141.43 21.9943C141.908 21.7557 142.303 21.3949 142.615 20.9119C142.933 20.429 143.089 19.8153 143.084 19.071ZM149.065 24.5V11.4091H151.511V13.5398H151.673C151.945 12.8182 152.391 12.2557 153.011 11.8523C153.63 11.4432 154.371 11.2386 155.235 11.2386C156.11 11.2386 156.843 11.4432 157.434 11.8523C158.031 12.2614 158.471 12.8239 158.755 13.5398H158.891C159.204 12.8409 159.701 12.2841 160.383 11.8693C161.065 11.4489 161.877 11.2386 162.82 11.2386C164.008 11.2386 164.977 11.6108 165.727 12.3551C166.482 13.0994 166.86 14.2216 166.86 15.7216V24.5H164.312V15.9602C164.312 15.0739 164.07 14.4318 163.587 14.0341C163.104 13.6364 162.528 13.4375 161.857 13.4375C161.028 13.4375 160.383 13.6932 159.923 14.2045C159.462 14.7102 159.232 15.3608 159.232 16.1562V24.5H156.692V15.7983C156.692 15.0881 156.471 14.517 156.028 14.0852C155.585 13.6534 155.008 13.4375 154.298 13.4375C153.815 13.4375 153.369 13.5653 152.96 13.821C152.556 14.071 152.229 14.4205 151.979 14.8693C151.735 15.3182 151.613 15.8381 151.613 16.429V24.5H149.065ZM170.276 24.5V11.4091H172.722V13.5398H172.884C173.156 12.8182 173.602 12.2557 174.222 11.8523C174.841 11.4432 175.582 11.2386 176.446 11.2386C177.321 11.2386 178.054 11.4432 178.645 11.8523C179.241 12.2614 179.682 12.8239 179.966 13.5398H180.102C180.415 12.8409 180.912 12.2841 181.594 11.8693C182.276 11.4489 183.088 11.2386 184.031 11.2386C185.219 11.2386 186.188 11.6108 186.938 12.3551C187.693 13.0994 188.071 14.2216 188.071 15.7216V24.5H185.523V15.9602C185.523 15.0739 185.281 14.4318 184.798 14.0341C184.315 13.6364 183.739 13.4375 183.068 13.4375C182.239 13.4375 181.594 13.6932 181.134 14.2045C180.673 14.7102 180.443 15.3608 180.443 16.1562V24.5H177.903V15.7983C177.903 15.0881 177.682 14.517 177.239 14.0852C176.795 13.6534 176.219 13.4375 175.509 13.4375C175.026 13.4375 174.58 13.5653 174.17 13.821C173.767 14.071 173.44 14.4205 173.19 14.8693C172.946 15.3182 172.824 15.8381 172.824 16.429V24.5H170.276ZM195.296 24.7898C194.467 24.7898 193.717 24.6364 193.046 24.3295C192.376 24.017 191.844 23.5653 191.452 22.9744C191.066 22.3835 190.873 21.6591 190.873 20.8011C190.873 20.0625 191.015 19.4545 191.299 18.9773C191.583 18.5 191.967 18.1222 192.45 17.8438C192.933 17.5653 193.472 17.3551 194.069 17.2131C194.665 17.071 195.273 16.9631 195.893 16.8892C196.677 16.7983 197.313 16.7244 197.802 16.6676C198.29 16.6051 198.646 16.5057 198.867 16.3693C199.089 16.233 199.2 16.0114 199.2 15.7045V15.6449C199.2 14.9006 198.989 14.3239 198.569 13.9148C198.154 13.5057 197.535 13.3011 196.711 13.3011C195.853 13.3011 195.177 13.4915 194.683 13.8722C194.194 14.2472 193.856 14.6648 193.668 15.125L191.273 14.5795C191.558 13.7841 191.972 13.142 192.518 12.6534C193.069 12.1591 193.702 11.8011 194.418 11.5795C195.134 11.3523 195.887 11.2386 196.677 11.2386C197.2 11.2386 197.754 11.3011 198.339 11.4261C198.93 11.5455 199.481 11.767 199.992 12.0909C200.509 12.4148 200.933 12.8778 201.262 13.4801C201.592 14.0767 201.756 14.8523 201.756 15.8068V24.5H199.268V22.7102H199.165C199.001 23.0398 198.754 23.3636 198.424 23.6818C198.094 24 197.671 24.2642 197.154 24.4744C196.637 24.6847 196.018 24.7898 195.296 24.7898ZM195.85 22.7443C196.555 22.7443 197.157 22.6051 197.657 22.3267C198.163 22.0483 198.546 21.6847 198.808 21.2358C199.075 20.7812 199.208 20.2955 199.208 19.7784V18.0909C199.117 18.1818 198.941 18.267 198.68 18.3466C198.424 18.4205 198.131 18.4858 197.802 18.5426C197.472 18.5937 197.151 18.642 196.839 18.6875C196.526 18.7273 196.265 18.7614 196.055 18.7898C195.56 18.8523 195.109 18.9574 194.7 19.1051C194.296 19.2528 193.972 19.4659 193.728 19.7443C193.489 20.017 193.37 20.3807 193.37 20.8352C193.37 21.4659 193.603 21.9432 194.069 22.267C194.535 22.5852 195.129 22.7443 195.85 22.7443ZM205.151 24.5V11.4091H207.614V13.4886H207.75C207.989 12.7841 208.409 12.2301 209.011 11.8267C209.619 11.4176 210.307 11.2131 211.074 11.2131C211.233 11.2131 211.42 11.2187 211.636 11.2301C211.858 11.2415 212.031 11.2557 212.156 11.2727V13.7102C212.054 13.6818 211.872 13.6506 211.611 13.6165C211.349 13.5767 211.088 13.5568 210.827 13.5568C210.224 13.5568 209.688 13.6847 209.216 13.9403C208.75 14.1903 208.381 14.5398 208.108 14.9886C207.835 15.4318 207.699 15.9375 207.699 16.5057V24.5H205.151ZM216.371 29.4091C215.99 29.4091 215.643 29.3778 215.331 29.3153C215.018 29.2585 214.786 29.196 214.632 29.1278L215.246 27.0398C215.712 27.1648 216.126 27.2188 216.49 27.2017C216.854 27.1847 217.175 27.0483 217.453 26.7926C217.737 26.5369 217.987 26.1193 218.203 25.5398L218.518 24.6705L213.729 11.4091H216.456L219.771 21.5682H219.908L223.223 11.4091H225.959L220.564 26.2472C220.314 26.929 219.996 27.5057 219.609 27.9773C219.223 28.4545 218.763 28.8125 218.229 29.0511C217.695 29.2898 217.075 29.4091 216.371 29.4091Z" fill="#131520"/>
<path d="M542.959 20V11.2727H546.07C546.746 11.2727 547.307 11.3892 547.753 11.6222C548.202 11.8551 548.537 12.1776 548.759 12.5895C548.98 12.9986 549.091 13.4716 549.091 14.0085C549.091 14.5426 548.979 15.0128 548.754 15.419C548.533 15.8224 548.197 16.1364 547.749 16.3608C547.303 16.5852 546.741 16.6974 546.065 16.6974H543.709V15.5639H545.946C546.372 15.5639 546.719 15.5028 546.986 15.3807C547.256 15.2585 547.453 15.081 547.578 14.848C547.703 14.6151 547.766 14.3352 547.766 14.0085C547.766 13.679 547.702 13.3935 547.574 13.152C547.449 12.9105 547.251 12.7259 546.982 12.598C546.714 12.4673 546.364 12.402 545.929 12.402H544.276V20H542.959ZM547.267 16.0625L549.423 20H547.923L545.81 16.0625H547.267ZM554.33 20.1321C553.685 20.1321 553.13 19.9943 552.664 19.7188C552.201 19.4403 551.843 19.0497 551.59 18.5469C551.34 18.0412 551.215 17.4489 551.215 16.7699C551.215 16.0994 551.34 15.5085 551.59 14.9972C551.843 14.4858 552.195 14.0866 552.647 13.7997C553.101 13.5128 553.632 13.3693 554.24 13.3693C554.61 13.3693 554.968 13.4304 555.314 13.5526C555.661 13.6747 555.972 13.8665 556.248 14.1278C556.523 14.3892 556.74 14.7287 556.9 15.1463C557.059 15.5611 557.138 16.0653 557.138 16.6591V17.1108H551.935V16.1562H555.89C555.89 15.821 555.821 15.5241 555.685 15.2656C555.549 15.0043 555.357 14.7983 555.11 14.6477C554.865 14.4972 554.578 14.4219 554.249 14.4219C553.891 14.4219 553.578 14.5099 553.311 14.6861C553.047 14.8594 552.843 15.0866 552.698 15.3679C552.556 15.6463 552.485 15.9489 552.485 16.2756V17.0213C552.485 17.4588 552.561 17.831 552.715 18.1378C552.871 18.4446 553.088 18.679 553.367 18.8409C553.645 19 553.971 19.0795 554.343 19.0795C554.584 19.0795 554.804 19.0455 555.003 18.9773C555.202 18.9062 555.374 18.8011 555.519 18.6619C555.664 18.5227 555.775 18.3509 555.851 18.1463L557.057 18.3636C556.961 18.7187 556.787 19.0298 556.537 19.2969C556.29 19.5611 555.979 19.767 555.604 19.9148C555.232 20.0597 554.807 20.1321 554.33 20.1321ZM562.667 13.4545V14.4773H558.968V13.4545H562.667ZM559.982 20V12.696C559.982 12.2869 560.072 11.9474 560.251 11.6776C560.43 11.4048 560.667 11.2017 560.962 11.0682C561.258 10.9318 561.579 10.8636 561.925 10.8636C562.181 10.8636 562.4 10.8849 562.582 10.9276C562.763 10.9673 562.898 11.0043 562.987 11.0384L562.688 12.0696C562.629 12.0526 562.552 12.0327 562.458 12.0099C562.364 11.9844 562.251 11.9716 562.117 11.9716C561.808 11.9716 561.586 12.0483 561.452 12.2017C561.322 12.3551 561.256 12.5767 561.256 12.8665V20H559.982ZM564.982 20V13.4545H566.213V14.4943H566.281C566.401 14.142 566.611 13.8651 566.912 13.6634C567.216 13.4588 567.56 13.3565 567.943 13.3565C568.023 13.3565 568.116 13.3594 568.224 13.3651C568.335 13.3707 568.422 13.3778 568.484 13.3864V14.6051C568.433 14.5909 568.342 14.5753 568.212 14.5582C568.081 14.5384 567.95 14.5284 567.82 14.5284C567.518 14.5284 567.25 14.5923 567.014 14.7202C566.781 14.8452 566.597 15.0199 566.46 15.2443C566.324 15.4659 566.256 15.7187 566.256 16.0028V20H564.982ZM573.174 20.1321C572.529 20.1321 571.973 19.9943 571.507 19.7188C571.044 19.4403 570.686 19.0497 570.434 18.5469C570.184 18.0412 570.059 17.4489 570.059 16.7699C570.059 16.0994 570.184 15.5085 570.434 14.9972C570.686 14.4858 571.039 14.0866 571.49 13.7997C571.945 13.5128 572.476 13.3693 573.084 13.3693C573.453 13.3693 573.811 13.4304 574.158 13.5526C574.505 13.6747 574.816 13.8665 575.091 14.1278C575.367 14.3892 575.584 14.7287 575.743 15.1463C575.902 15.5611 575.982 16.0653 575.982 16.6591V17.1108H570.779V16.1562H574.733C574.733 15.821 574.665 15.5241 574.529 15.2656C574.392 15.0043 574.201 14.7983 573.953 14.6477C573.709 14.4972 573.422 14.4219 573.093 14.4219C572.735 14.4219 572.422 14.5099 572.155 14.6861C571.891 14.8594 571.686 15.0866 571.542 15.3679C571.4 15.6463 571.328 15.9489 571.328 16.2756V17.0213C571.328 17.4588 571.405 17.831 571.559 18.1378C571.715 18.4446 571.932 18.679 572.211 18.8409C572.489 19 572.814 19.0795 573.186 19.0795C573.428 19.0795 573.648 19.0455 573.847 18.9773C574.046 18.9062 574.218 18.8011 574.363 18.6619C574.507 18.5227 574.618 18.3509 574.695 18.1463L575.901 18.3636C575.804 18.7187 575.631 19.0298 575.381 19.2969C575.134 19.5611 574.823 19.767 574.448 19.9148C574.076 20.0597 573.651 20.1321 573.174 20.1321ZM583.3 15.0526L582.146 15.2571C582.097 15.1094 582.021 14.9687 581.915 14.8352C581.813 14.7017 581.674 14.5923 581.498 14.5071C581.322 14.4219 581.102 14.3793 580.837 14.3793C580.477 14.3793 580.175 14.4602 579.934 14.6222C579.692 14.7812 579.572 14.9872 579.572 15.2401C579.572 15.4588 579.653 15.6349 579.815 15.7685C579.977 15.902 580.238 16.0114 580.599 16.0966L581.638 16.3352C582.241 16.4744 582.69 16.6889 582.985 16.9787C583.281 17.2685 583.428 17.6449 583.428 18.108C583.428 18.5 583.315 18.8494 583.087 19.1562C582.863 19.4602 582.549 19.6989 582.146 19.8722C581.745 20.0455 581.281 20.1321 580.752 20.1321C580.019 20.1321 579.421 19.9759 578.958 19.6634C578.495 19.348 578.211 18.9006 578.106 18.321L579.337 18.1335C579.414 18.4545 579.572 18.6974 579.81 18.8622C580.049 19.0241 580.36 19.1051 580.744 19.1051C581.161 19.1051 581.495 19.0185 581.745 18.8452C581.995 18.669 582.12 18.4545 582.12 18.2017C582.12 17.9972 582.043 17.8253 581.89 17.6861C581.739 17.5469 581.508 17.4418 581.195 17.3707L580.087 17.1278C579.477 16.9886 579.025 16.767 578.732 16.4631C578.442 16.1591 578.298 15.7741 578.298 15.3082C578.298 14.9219 578.406 14.5838 578.621 14.294C578.837 14.0043 579.136 13.7784 579.516 13.6165C579.897 13.4517 580.333 13.3693 580.825 13.3693C581.532 13.3693 582.089 13.5227 582.495 13.8295C582.901 14.1335 583.17 14.5412 583.3 15.0526ZM587.103 16.1136V20H585.829V11.2727H587.086V14.5199H587.167C587.321 14.1676 587.555 13.8878 587.87 13.6804C588.186 13.473 588.598 13.3693 589.106 13.3693C589.555 13.3693 589.947 13.4616 590.282 13.6463C590.62 13.831 590.882 14.1065 591.066 14.473C591.254 14.8366 591.348 15.2912 591.348 15.8366V20H590.074V15.9901C590.074 15.5099 589.95 15.1378 589.703 14.8736C589.456 14.6065 589.112 14.473 588.672 14.473C588.37 14.473 588.1 14.5369 587.862 14.6648C587.626 14.7926 587.44 14.9801 587.304 15.2273C587.17 15.4716 587.103 15.767 587.103 16.1136Z" fill="#4A5078"/>
<rect x="609.5" y="0.5" width="142" height="31" rx="3.5" fill="white"/>
<path d="M622.696 20H621.298L624.439 11.2727H625.96L629.101 20H627.703L625.236 12.858H625.168L622.696 20ZM622.93 16.5824H627.464V17.6903H622.93V16.5824ZM631.259 22.4545V13.4545H632.503V14.5156H632.61C632.684 14.3793 632.79 14.2216 632.929 14.0426C633.069 13.8636 633.262 13.7074 633.509 13.5739C633.756 13.4375 634.083 13.3693 634.489 13.3693C635.017 13.3693 635.489 13.5028 635.904 13.7699C636.319 14.0369 636.644 14.4219 636.88 14.9247C637.118 15.4276 637.238 16.0327 637.238 16.7401C637.238 17.4474 637.12 18.054 636.884 18.5597C636.648 19.0625 636.324 19.4503 635.912 19.723C635.5 19.9929 635.03 20.1278 634.502 20.1278C634.104 20.1278 633.779 20.0611 633.526 19.9276C633.276 19.794 633.08 19.6378 632.938 19.4588C632.796 19.2798 632.686 19.1207 632.61 18.9815H632.533V22.4545H631.259ZM632.507 16.7273C632.507 17.1875 632.574 17.5909 632.708 17.9375C632.841 18.2841 633.034 18.5554 633.287 18.7514C633.54 18.9446 633.85 19.0412 634.216 19.0412C634.597 19.0412 634.915 18.9403 635.171 18.7386C635.426 18.5341 635.62 18.2571 635.75 17.9077C635.884 17.5582 635.951 17.1648 635.951 16.7273C635.951 16.2955 635.885 15.9077 635.755 15.5639C635.627 15.2202 635.434 14.9489 635.175 14.75C634.919 14.5511 634.6 14.4517 634.216 14.4517C633.847 14.4517 633.534 14.5469 633.279 14.7372C633.026 14.9276 632.834 15.1932 632.703 15.5341C632.573 15.875 632.507 16.2727 632.507 16.7273ZM639.665 22.4545V13.4545H640.909V14.5156H641.016C641.09 14.3793 641.196 14.2216 641.336 14.0426C641.475 13.8636 641.668 13.7074 641.915 13.5739C642.162 13.4375 642.489 13.3693 642.895 13.3693C643.424 13.3693 643.895 13.5028 644.31 13.7699C644.725 14.0369 645.05 14.4219 645.286 14.9247C645.525 15.4276 645.644 16.0327 645.644 16.7401C645.644 17.4474 645.526 18.054 645.29 18.5597C645.054 19.0625 644.73 19.4503 644.319 19.723C643.907 19.9929 643.436 20.1278 642.908 20.1278C642.51 20.1278 642.185 20.0611 641.932 19.9276C641.682 19.794 641.486 19.6378 641.344 19.4588C641.202 19.2798 641.093 19.1207 641.016 18.9815H640.939V22.4545H639.665ZM640.914 16.7273C640.914 17.1875 640.98 17.5909 641.114 17.9375C641.248 18.2841 641.441 18.5554 641.694 18.7514C641.946 18.9446 642.256 19.0412 642.623 19.0412C643.003 19.0412 643.321 18.9403 643.577 18.7386C643.833 18.5341 644.026 18.2571 644.157 17.9077C644.29 17.5582 644.357 17.1648 644.357 16.7273C644.357 16.2955 644.292 15.9077 644.161 15.5639C644.033 15.2202 643.84 14.9489 643.581 14.75C643.326 14.5511 643.006 14.4517 642.623 14.4517C642.253 14.4517 641.941 14.5469 641.685 14.7372C641.432 14.9276 641.24 15.1932 641.11 15.5341C640.979 15.875 640.914 16.2727 640.914 16.7273ZM649.346 11.2727V20H648.071V11.2727H649.346ZM652.865 22.4545C652.675 22.4545 652.501 22.4389 652.345 22.4077C652.189 22.3793 652.072 22.348 651.996 22.3139L652.303 21.2699C652.536 21.3324 652.743 21.3594 652.925 21.3509C653.107 21.3423 653.267 21.2741 653.406 21.1463C653.548 21.0185 653.673 20.8097 653.781 20.5199L653.939 20.0852L651.544 13.4545H652.908L654.565 18.5341H654.634L656.291 13.4545H657.659L654.962 20.8736C654.837 21.2145 654.678 21.5028 654.484 21.7386C654.291 21.9773 654.061 22.1563 653.794 22.2756C653.527 22.3949 653.217 22.4545 652.865 22.4545ZM667.147 13.4545V14.4773H663.449V13.4545H667.147ZM664.463 20V12.696C664.463 12.2869 664.552 11.9474 664.731 11.6776C664.91 11.4048 665.147 11.2017 665.443 11.0682C665.738 10.9318 666.059 10.8636 666.406 10.8636C666.662 10.8636 666.88 10.8849 667.062 10.9276C667.244 10.9673 667.379 11.0043 667.467 11.0384L667.169 12.0696C667.109 12.0526 667.032 12.0327 666.939 12.0099C666.845 11.9844 666.731 11.9716 666.598 11.9716C666.288 11.9716 666.066 12.0483 665.933 12.2017C665.802 12.3551 665.737 12.5767 665.737 12.8665V20H664.463ZM669.462 20V13.4545H670.736V20H669.462ZM670.105 12.4446C669.884 12.4446 669.694 12.3707 669.534 12.223C669.378 12.0724 669.3 11.8935 669.3 11.6861C669.3 11.4759 669.378 11.2969 669.534 11.1491C669.694 10.9986 669.884 10.9233 670.105 10.9233C670.327 10.9233 670.516 10.9986 670.672 11.1491C670.831 11.2969 670.911 11.4759 670.911 11.6861C670.911 11.8935 670.831 12.0724 670.672 12.223C670.516 12.3707 670.327 12.4446 670.105 12.4446ZM674.724 11.2727V20H673.45V11.2727H674.724ZM680.494 13.4545V14.4773H676.919V13.4545H680.494ZM677.877 11.8864H679.152V18.0781C679.152 18.3253 679.189 18.5114 679.262 18.6364C679.336 18.7585 679.431 18.8423 679.548 18.8878C679.667 18.9304 679.797 18.9517 679.936 18.9517C680.038 18.9517 680.127 18.9446 680.204 18.9304C680.281 18.9162 680.341 18.9048 680.383 18.8963L680.613 19.9489C680.539 19.9773 680.434 20.0057 680.298 20.0341C680.162 20.0653 679.991 20.0824 679.787 20.0852C679.451 20.0909 679.139 20.0312 678.849 19.9062C678.559 19.7812 678.325 19.5881 678.146 19.3267C677.967 19.0653 677.877 18.7372 677.877 18.3423V11.8864ZM685.654 20.1321C685.009 20.1321 684.454 19.9943 683.988 19.7188C683.525 19.4403 683.167 19.0497 682.914 18.5469C682.664 18.0412 682.539 17.4489 682.539 16.7699C682.539 16.0994 682.664 15.5085 682.914 14.9972C683.167 14.4858 683.519 14.0866 683.971 13.7997C684.425 13.5128 684.957 13.3693 685.565 13.3693C685.934 13.3693 686.292 13.4304 686.638 13.5526C686.985 13.6747 687.296 13.8665 687.572 14.1278C687.847 14.3892 688.065 14.7287 688.224 15.1463C688.383 15.5611 688.462 16.0653 688.462 16.6591V17.1108H683.259V16.1562H687.214C687.214 15.821 687.146 15.5241 687.009 15.2656C686.873 15.0043 686.681 14.7983 686.434 14.6477C686.19 14.4972 685.903 14.4219 685.573 14.4219C685.215 14.4219 684.903 14.5099 684.636 14.6861C684.371 14.8594 684.167 15.0866 684.022 15.3679C683.88 15.6463 683.809 15.9489 683.809 16.2756V17.0213C683.809 17.4588 683.886 17.831 684.039 18.1378C684.195 18.4446 684.413 18.679 684.691 18.8409C684.969 19 685.295 19.0795 685.667 19.0795C685.908 19.0795 686.129 19.0455 686.327 18.9773C686.526 18.9062 686.698 18.8011 686.843 18.6619C686.988 18.5227 687.099 18.3509 687.175 18.1463L688.381 18.3636C688.285 18.7187 688.112 19.0298 687.862 19.2969C687.614 19.5611 687.303 19.767 686.928 19.9148C686.556 20.0597 686.131 20.1321 685.654 20.1321ZM690.876 20V13.4545H692.108V14.4943H692.176C692.295 14.142 692.505 13.8651 692.806 13.6634C693.11 13.4588 693.454 13.3565 693.838 13.3565C693.917 13.3565 694.011 13.3594 694.119 13.3651C694.23 13.3707 694.316 13.3778 694.379 13.3864V14.6051C694.328 14.5909 694.237 14.5753 694.106 14.5582C693.975 14.5384 693.845 14.5284 693.714 14.5284C693.413 14.5284 693.145 14.5923 692.909 14.7202C692.676 14.8452 692.491 15.0199 692.355 15.2443C692.218 15.4659 692.15 15.7187 692.15 16.0028V20H690.876ZM701.386 15.0526L700.232 15.2571C700.183 15.1094 700.107 14.9687 700.001 14.8352C699.899 14.7017 699.76 14.5923 699.584 14.5071C699.408 14.4219 699.188 14.3793 698.923 14.3793C698.563 14.3793 698.261 14.4602 698.02 14.6222C697.778 14.7812 697.658 14.9872 697.658 15.2401C697.658 15.4588 697.739 15.6349 697.901 15.7685C698.063 15.902 698.324 16.0114 698.685 16.0966L699.724 16.3352C700.327 16.4744 700.776 16.6889 701.071 16.9787C701.366 17.2685 701.514 17.6449 701.514 18.108C701.514 18.5 701.401 18.8494 701.173 19.1562C700.949 19.4602 700.635 19.6989 700.232 19.8722C699.831 20.0455 699.366 20.1321 698.838 20.1321C698.105 20.1321 697.507 19.9759 697.044 19.6634C696.581 19.348 696.297 18.9006 696.192 18.321L697.423 18.1335C697.5 18.4545 697.658 18.6974 697.896 18.8622C698.135 19.0241 698.446 19.1051 698.83 19.1051C699.247 19.1051 699.581 19.0185 699.831 18.8452C700.081 18.669 700.206 18.4545 700.206 18.2017C700.206 17.9972 700.129 17.8253 699.976 17.6861C699.825 17.5469 699.594 17.4418 699.281 17.3707L698.173 17.1278C697.563 16.9886 697.111 16.767 696.818 16.4631C696.528 16.1591 696.384 15.7741 696.384 15.3082C696.384 14.9219 696.491 14.5838 696.707 14.294C696.923 14.0043 697.222 13.7784 697.602 13.6165C697.983 13.4517 698.419 13.3693 698.911 13.3693C699.618 13.3693 700.175 13.5227 700.581 13.8295C700.987 14.1335 701.256 14.5412 701.386 15.0526Z" fill="#1757C2"/>
<line x1="712.5" y1="5" x2="712.5" y2="27" stroke="#1757C2"/>
<path d="M735.833 9.33333H724.168C723.428 9.33333 723.054 10.2314 723.578 10.7559L728.333 15.5118V20.375C728.333 20.4938 728.359 20.6112 728.408 20.7193C728.457 20.8275 728.529 20.9239 728.618 21.0021L730.285 22.46C730.817 22.9257 731.667 22.5559 731.667 21.8329V15.5118L736.422 10.7559C736.945 10.2325 736.574 9.33333 735.833 9.33333ZM730.833 15.1667V21.8333L729.167 20.375V15.1667L724.167 10.1667H735.833L730.833 15.1667Z" fill="#1757C2"/>
<path fill-rule="evenodd" clip-rule="evenodd" d="M723.448 10.8868C722.806 10.2455 723.263 9.14815 724.168 9.14815H735.833C736.74 9.14815 737.193 10.247 736.553 10.8868V10.8868L731.852 15.5885V21.8329C731.852 22.7185 730.812 23.1675 730.163 22.5994V22.5994L728.496 21.1415C728.387 21.0459 728.299 20.9281 728.239 20.7959C728.179 20.6637 728.148 20.5202 728.148 20.375V15.5885L723.448 10.8868V10.8868ZM724.168 9.51852C723.592 9.51852 723.302 10.2174 723.709 10.625L728.519 15.4352V20.375C728.519 20.4674 728.538 20.5587 728.577 20.6428C728.615 20.7269 728.67 20.8019 728.74 20.8627V20.8627L730.407 22.3206C730.822 22.6839 731.482 22.3932 731.482 21.8329V15.4352L736.291 10.625C736.698 10.218 736.409 9.51852 735.833 9.51852H724.168ZM723.72 9.98148H736.28L731.019 15.2434V22.2414L728.982 20.459V15.2434L723.72 9.98148ZM724.614 10.3519L729.352 15.09V20.291L730.648 21.4252V15.09L735.386 10.3519H724.614Z" fill="#1757C2"/>
<rect x="609.5" y="0.5" width="142" height="31" rx="3.5" stroke="#1757C2"/>
<rect x="768.5" y="0.5" width="131" height="31" rx="3.5" fill="white"/>
<path d="M788.207 14.1108H786.878C786.827 13.8267 786.732 13.5767 786.592 13.3608C786.453 13.1449 786.283 12.9616 786.081 12.8111C785.879 12.6605 785.653 12.5469 785.403 12.4702C785.156 12.3935 784.893 12.3551 784.615 12.3551C784.112 12.3551 783.662 12.4815 783.264 12.7344C782.869 12.9872 782.557 13.358 782.327 13.8466C782.099 14.3352 781.986 14.9318 781.986 15.6364C781.986 16.3466 782.099 16.946 782.327 17.4347C782.557 17.9233 782.871 18.2926 783.268 18.5426C783.666 18.7926 784.114 18.9176 784.611 18.9176C784.886 18.9176 785.148 18.8807 785.395 18.8068C785.645 18.7301 785.871 18.6179 786.072 18.4702C786.274 18.3224 786.445 18.142 786.584 17.929C786.726 17.7131 786.824 17.4659 786.878 17.1875L788.207 17.1918C788.136 17.6207 787.999 18.0156 787.794 18.3764C787.592 18.7344 787.332 19.044 787.014 19.3054C786.699 19.5639 786.338 19.7642 785.932 19.9062C785.526 20.0483 785.082 20.1193 784.602 20.1193C783.847 20.1193 783.173 19.9403 782.582 19.5824C781.991 19.2216 781.526 18.706 781.185 18.0355C780.847 17.3651 780.678 16.5653 780.678 15.6364C780.678 14.7045 780.848 13.9048 781.189 13.2372C781.53 12.5668 781.996 12.0526 782.587 11.6946C783.178 11.3338 783.849 11.1534 784.602 11.1534C785.065 11.1534 785.497 11.2202 785.898 11.3537C786.301 11.4844 786.663 11.6776 786.984 11.9332C787.305 12.1861 787.571 12.4957 787.781 12.8622C787.991 13.2259 788.134 13.642 788.207 14.1108ZM794.827 17.2855V13.4545H796.105V20H794.853V18.8665H794.784C794.634 19.2159 794.392 19.5071 794.06 19.7401C793.73 19.9702 793.32 20.0852 792.828 20.0852C792.408 20.0852 792.036 19.9929 791.712 19.8082C791.391 19.6207 791.138 19.3438 790.953 18.9773C790.772 18.6108 790.681 18.1577 790.681 17.6179V13.4545H791.955V17.4645C791.955 17.9105 792.078 18.2656 792.326 18.5298C792.573 18.794 792.894 18.9261 793.289 18.9261C793.527 18.9261 793.765 18.8665 794 18.7472C794.239 18.6278 794.436 18.4474 794.593 18.206C794.752 17.9645 794.83 17.6577 794.827 17.2855ZM803.722 15.0526L802.567 15.2571C802.519 15.1094 802.442 14.9687 802.337 14.8352C802.235 14.7017 802.096 14.5923 801.92 14.5071C801.744 14.4219 801.523 14.3793 801.259 14.3793C800.898 14.3793 800.597 14.4602 800.356 14.6222C800.114 14.7812 799.994 14.9872 799.994 15.2401C799.994 15.4588 800.075 15.6349 800.237 15.7685C800.398 15.902 800.66 16.0114 801.021 16.0966L802.06 16.3352C802.663 16.4744 803.112 16.6889 803.407 16.9787C803.702 17.2685 803.85 17.6449 803.85 18.108C803.85 18.5 803.737 18.8494 803.509 19.1562C803.285 19.4602 802.971 19.6989 802.567 19.8722C802.167 20.0455 801.702 20.1321 801.174 20.1321C800.441 20.1321 799.843 19.9759 799.38 19.6634C798.917 19.348 798.633 18.9006 798.528 18.321L799.759 18.1335C799.836 18.4545 799.994 18.6974 800.232 18.8622C800.471 19.0241 800.782 19.1051 801.165 19.1051C801.583 19.1051 801.917 19.0185 802.167 18.8452C802.417 18.669 802.542 18.4545 802.542 18.2017C802.542 17.9972 802.465 17.8253 802.312 17.6861C802.161 17.5469 801.93 17.4418 801.617 17.3707L800.509 17.1278C799.898 16.9886 799.447 16.767 799.154 16.4631C798.864 16.1591 798.719 15.7741 798.719 15.3082C798.719 14.9219 798.827 14.5838 799.043 14.294C799.259 14.0043 799.558 13.7784 799.938 13.6165C800.319 13.4517 800.755 13.3693 801.246 13.3693C801.954 13.3693 802.511 13.5227 802.917 13.8295C803.323 14.1335 803.592 14.5412 803.722 15.0526ZM809.306 13.4545V14.4773H805.731V13.4545H809.306ZM806.69 11.8864H807.964V18.0781C807.964 18.3253 808.001 18.5114 808.075 18.6364C808.149 18.7585 808.244 18.8423 808.36 18.8878C808.48 18.9304 808.609 18.9517 808.748 18.9517C808.85 18.9517 808.94 18.9446 809.017 18.9304C809.093 18.9162 809.153 18.9048 809.196 18.8963L809.426 19.9489C809.352 19.9773 809.247 20.0057 809.11 20.0341C808.974 20.0653 808.804 20.0824 808.599 20.0852C808.264 20.0909 807.951 20.0312 807.662 19.9062C807.372 19.7812 807.137 19.5881 806.958 19.3267C806.779 19.0653 806.69 18.7372 806.69 18.3423V11.8864ZM814.403 20.1321C813.789 20.1321 813.254 19.9915 812.796 19.7102C812.339 19.429 811.984 19.0355 811.731 18.5298C811.478 18.0241 811.352 17.4332 811.352 16.7571C811.352 16.0781 811.478 15.4844 811.731 14.9759C811.984 14.4673 812.339 14.0724 812.796 13.7912C813.254 13.5099 813.789 13.3693 814.403 13.3693C815.016 13.3693 815.552 13.5099 816.009 13.7912C816.467 14.0724 816.822 14.4673 817.075 14.9759C817.327 15.4844 817.454 16.0781 817.454 16.7571C817.454 17.4332 817.327 18.0241 817.075 18.5298C816.822 19.0355 816.467 19.429 816.009 19.7102C815.552 19.9915 815.016 20.1321 814.403 20.1321ZM814.407 19.0625C814.805 19.0625 815.134 18.9574 815.396 18.7472C815.657 18.5369 815.85 18.2571 815.975 17.9077C816.103 17.5582 816.167 17.1733 816.167 16.7528C816.167 16.3352 816.103 15.9517 815.975 15.6023C815.85 15.25 815.657 14.9673 815.396 14.7543C815.134 14.5412 814.805 14.4347 814.407 14.4347C814.006 14.4347 813.674 14.5412 813.41 14.7543C813.148 14.9673 812.954 15.25 812.826 15.6023C812.701 15.9517 812.638 16.3352 812.638 16.7528C812.638 17.1733 812.701 17.5582 812.826 17.9077C812.954 18.2571 813.148 18.5369 813.41 18.7472C813.674 18.9574 814.006 19.0625 814.407 19.0625ZM819.876 20V13.4545H821.099V14.5199H821.18C821.316 14.1591 821.539 13.8778 821.849 13.6761C822.159 13.4716 822.529 13.3693 822.961 13.3693C823.399 13.3693 823.765 13.4716 824.061 13.6761C824.359 13.8807 824.579 14.1619 824.721 14.5199H824.789C824.946 14.1705 825.194 13.892 825.535 13.6847C825.876 13.4744 826.282 13.3693 826.754 13.3693C827.348 13.3693 827.832 13.5554 828.207 13.9276C828.585 14.2997 828.774 14.8608 828.774 15.6108V20H827.5V15.7301C827.5 15.2869 827.379 14.9659 827.137 14.767C826.896 14.5682 826.608 14.4688 826.272 14.4688C825.858 14.4688 825.535 14.5966 825.305 14.8523C825.075 15.1051 824.96 15.4304 824.96 15.8281V20H823.69V15.6491C823.69 15.294 823.579 15.0085 823.358 14.7926C823.136 14.5767 822.848 14.4688 822.493 14.4688C822.251 14.4688 822.028 14.5327 821.824 14.6605C821.622 14.7855 821.458 14.9602 821.333 15.1847C821.211 15.4091 821.15 15.669 821.15 15.9645V20H819.876ZM831.482 20V13.4545H832.756V20H831.482ZM832.125 12.4446C831.903 12.4446 831.713 12.3707 831.554 12.223C831.398 12.0724 831.32 11.8935 831.32 11.6861C831.32 11.4759 831.398 11.2969 831.554 11.1491C831.713 10.9986 831.903 10.9233 832.125 10.9233C832.347 10.9233 832.536 10.9986 832.692 11.1491C832.851 11.2969 832.93 11.4759 832.93 11.6861C832.93 11.8935 832.851 12.0724 832.692 12.223C832.536 12.3707 832.347 12.4446 832.125 12.4446ZM835.333 20V19.1264L838.879 14.6222V14.5625H835.449V13.4545H840.468V14.3835L837.059 18.8324V18.892H840.588V20H835.333ZM845.724 20.1321C845.08 20.1321 844.524 19.9943 844.058 19.7188C843.595 19.4403 843.237 19.0497 842.984 18.5469C842.734 18.0412 842.609 17.4489 842.609 16.7699C842.609 16.0994 842.734 15.5085 842.984 14.9972C843.237 14.4858 843.589 14.0866 844.041 13.7997C844.496 13.5128 845.027 13.3693 845.635 13.3693C846.004 13.3693 846.362 13.4304 846.709 13.5526C847.055 13.6747 847.366 13.8665 847.642 14.1278C847.918 14.3892 848.135 14.7287 848.294 15.1463C848.453 15.5611 848.533 16.0653 848.533 16.6591V17.1108H843.33V16.1562H847.284C847.284 15.821 847.216 15.5241 847.08 15.2656C846.943 15.0043 846.751 14.7983 846.504 14.6477C846.26 14.4972 845.973 14.4219 845.643 14.4219C845.286 14.4219 844.973 14.5099 844.706 14.6861C844.442 14.8594 844.237 15.0866 844.092 15.3679C843.95 15.6463 843.879 15.9489 843.879 16.2756V17.0213C843.879 17.4588 843.956 17.831 844.109 18.1378C844.266 18.4446 844.483 18.679 844.761 18.8409C845.04 19 845.365 19.0795 845.737 19.0795C845.979 19.0795 846.199 19.0455 846.398 18.9773C846.597 18.9062 846.768 18.8011 846.913 18.6619C847.058 18.5227 847.169 18.3509 847.246 18.1463L848.452 18.3636C848.355 18.7187 848.182 19.0298 847.932 19.2969C847.685 19.5611 847.374 19.767 846.999 19.9148C846.626 20.0597 846.202 20.1321 845.724 20.1321ZM855.224 20V11.2727H858.335C859.014 11.2727 859.577 11.3963 860.023 11.6435C860.469 11.8906 860.803 12.2287 861.024 12.6577C861.246 13.0838 861.357 13.5639 861.357 14.098C861.357 14.6349 861.244 15.1179 861.02 15.5469C860.798 15.973 860.463 16.3111 860.014 16.5611C859.568 16.8082 859.007 16.9318 858.331 16.9318H856.192V15.8153H858.212C858.641 15.8153 858.989 15.7415 859.256 15.5938C859.523 15.4432 859.719 15.2386 859.844 14.9801C859.969 14.7216 860.031 14.4276 860.031 14.098C860.031 13.7685 859.969 13.4759 859.844 13.2202C859.719 12.9645 859.521 12.7642 859.251 12.6193C858.984 12.4744 858.632 12.402 858.195 12.402H856.541V20H855.224ZM865.644 20.1449C865.229 20.1449 864.854 20.0682 864.519 19.9148C864.184 19.7585 863.918 19.5327 863.722 19.2372C863.529 18.9418 863.433 18.5795 863.433 18.1506C863.433 17.7812 863.504 17.4773 863.646 17.2386C863.788 17 863.979 16.8111 864.221 16.6719C864.462 16.5327 864.732 16.4276 865.031 16.3565C865.329 16.2855 865.633 16.2315 865.942 16.1946C866.335 16.1491 866.653 16.1122 866.897 16.0838C867.141 16.0526 867.319 16.0028 867.43 15.9347C867.54 15.8665 867.596 15.7557 867.596 15.6023V15.5724C867.596 15.2003 867.491 14.9119 867.281 14.7074C867.073 14.5028 866.763 14.4006 866.352 14.4006C865.923 14.4006 865.585 14.4957 865.337 14.6861C865.093 14.8736 864.924 15.0824 864.83 15.3125L863.633 15.0398C863.775 14.642 863.982 14.321 864.255 14.0767C864.531 13.8295 864.847 13.6506 865.205 13.5398C865.563 13.4261 865.94 13.3693 866.335 13.3693C866.596 13.3693 866.873 13.4006 867.165 13.4631C867.461 13.5227 867.737 13.6335 867.992 13.7955C868.251 13.9574 868.462 14.1889 868.627 14.4901C868.792 14.7884 868.874 15.1761 868.874 15.6534V20H867.63V19.1051H867.579C867.496 19.2699 867.373 19.4318 867.208 19.5909C867.043 19.75 866.832 19.8821 866.573 19.9872C866.315 20.0923 866.005 20.1449 865.644 20.1449ZM865.921 19.1222C866.273 19.1222 866.575 19.0526 866.825 18.9134C867.077 18.7741 867.269 18.5923 867.4 18.3679C867.533 18.1406 867.6 17.8977 867.6 17.6392V16.7955C867.555 16.8409 867.467 16.8835 867.336 16.9233C867.208 16.9602 867.062 16.9929 866.897 17.0213C866.732 17.0469 866.572 17.071 866.415 17.0938C866.259 17.1136 866.129 17.1307 866.023 17.1449C865.776 17.1761 865.55 17.2287 865.346 17.3026C865.144 17.3764 864.982 17.483 864.86 17.6222C864.741 17.7585 864.681 17.9403 864.681 18.1676C864.681 18.483 864.798 18.7216 865.031 18.8835C865.263 19.0426 865.56 19.1222 865.921 19.1222ZM874.316 22.5909C873.796 22.5909 873.348 22.5227 872.973 22.3864C872.601 22.25 872.297 22.0696 872.061 21.8452C871.826 21.6207 871.65 21.375 871.533 21.108L872.628 20.6562C872.705 20.7812 872.807 20.9134 872.935 21.0526C873.066 21.1946 873.242 21.3153 873.463 21.4148C873.688 21.5142 873.976 21.5639 874.328 21.5639C874.811 21.5639 875.211 21.446 875.526 21.2102C875.841 20.9773 875.999 20.6051 875.999 20.0938V18.8068H875.918C875.841 18.946 875.73 19.1009 875.586 19.2713C875.444 19.4418 875.248 19.5895 874.998 19.7145C874.748 19.8395 874.422 19.902 874.022 19.902C873.505 19.902 873.039 19.7812 872.624 19.5398C872.212 19.2955 871.885 18.9361 871.644 18.4616C871.405 17.9844 871.286 17.3977 871.286 16.7017C871.286 16.0057 871.404 15.4091 871.64 14.9119C871.878 14.4148 872.205 14.0341 872.62 13.7699C873.034 13.5028 873.505 13.3693 874.03 13.3693C874.436 13.3693 874.765 13.4375 875.015 13.5739C875.265 13.7074 875.459 13.8636 875.598 14.0426C875.74 14.2216 875.85 14.3793 875.926 14.5156H876.02V13.4545H877.269V20.1449C877.269 20.7074 877.138 21.169 876.877 21.5298C876.615 21.8906 876.262 22.1577 875.816 22.331C875.373 22.5043 874.873 22.5909 874.316 22.5909ZM874.303 18.8452C874.669 18.8452 874.979 18.7599 875.232 18.5895C875.488 18.4162 875.681 18.169 875.811 17.848C875.945 17.5241 876.012 17.1364 876.012 16.6847C876.012 16.2443 875.946 15.8565 875.816 15.5213C875.685 15.1861 875.493 14.9247 875.24 14.7372C874.988 14.5469 874.675 14.4517 874.303 14.4517C873.919 14.4517 873.6 14.5511 873.344 14.75C873.088 14.946 872.895 15.2131 872.765 15.5511C872.637 15.8892 872.573 16.267 872.573 16.6847C872.573 17.1136 872.638 17.4901 872.769 17.8139C872.9 18.1378 873.093 18.3906 873.348 18.5724C873.607 18.7543 873.925 18.8452 874.303 18.8452ZM882.799 20.1321C882.154 20.1321 881.598 19.9943 881.132 19.7188C880.669 19.4403 880.311 19.0497 880.059 18.5469C879.809 18.0412 879.684 17.4489 879.684 16.7699C879.684 16.0994 879.809 15.5085 880.059 14.9972C880.311 14.4858 880.664 14.0866 881.115 13.7997C881.57 13.5128 882.101 13.3693 882.709 13.3693C883.078 13.3693 883.436 13.4304 883.783 13.5526C884.13 13.6747 884.441 13.8665 884.716 14.1278C884.992 14.3892 885.209 14.7287 885.368 15.1463C885.527 15.5611 885.607 16.0653 885.607 16.6591V17.1108H880.404V16.1562H884.358C884.358 15.821 884.29 15.5241 884.154 15.2656C884.017 15.0043 883.826 14.7983 883.578 14.6477C883.334 14.4972 883.047 14.4219 882.718 14.4219C882.36 14.4219 882.047 14.5099 881.78 14.6861C881.516 14.8594 881.311 15.0866 881.167 15.3679C881.025 15.6463 880.953 15.9489 880.953 16.2756V17.0213C880.953 17.4588 881.03 17.831 881.184 18.1378C881.34 18.4446 881.557 18.679 881.836 18.8409C882.114 19 882.439 19.0795 882.811 19.0795C883.053 19.0795 883.273 19.0455 883.472 18.9773C883.671 18.9062 883.843 18.8011 883.988 18.6619C884.132 18.5227 884.243 18.3509 884.32 18.1463L885.526 18.3636C885.429 18.7187 885.256 19.0298 885.006 19.2969C884.759 19.5611 884.448 19.767 884.073 19.9148C883.701 20.0597 883.276 20.1321 882.799 20.1321Z" fill="#1757C2"/>
<rect x="768.5" y="0.5" width="131" height="31" rx="3.5" stroke="#1757C2"/>
<rect x="916.5" y="0.5" width="91" height="31" rx="3.5" fill="white"/>
<g clip-path="url(#clip0_110_1491)">
<path fill-rule="evenodd" clip-rule="evenodd" d="M938 8.70834C938.345 8.70834 938.625 8.98816 938.625 9.33334V16.7136L940.521 14.8172C940.766 14.5731 941.161 14.5731 941.405 14.8172C941.649 15.0613 941.649 15.457 941.405 15.7011L938.442 18.6644C938.198 18.9085 937.802 18.9085 937.558 18.6644L934.595 15.7011C934.351 15.457 934.351 15.0613 934.595 14.8172C934.839 14.5731 935.235 14.5731 935.479 14.8172L937.375 16.7136V9.33334C937.375 8.98816 937.655 8.70834 938 8.70834ZM931.333 19.0783C931.679 19.0783 931.958 19.3582 931.958 19.7033C931.958 20.3235 932.205 20.9183 932.643 21.3568C933.082 21.7953 933.677 22.0417 934.297 22.0417H941.703C942.324 22.0417 942.918 21.7953 943.357 21.3568C943.795 20.9183 944.042 20.3235 944.042 19.7033C944.042 19.3582 944.322 19.0783 944.667 19.0783C945.012 19.0783 945.292 19.3582 945.292 19.7033C945.292 20.655 944.914 21.5677 944.241 22.2407C943.568 22.9136 942.655 23.2917 941.703 23.2917H934.297C933.345 23.2917 932.432 22.9136 931.759 22.2407C931.086 21.5677 930.708 20.655 930.708 19.7033C930.708 19.3582 930.988 19.0783 931.333 19.0783Z" fill="#1757C2"/>
</g>
<path d="M952.959 20V11.2727H958.43V12.4062H954.276V15.0653H958.145V16.1946H954.276V18.8665H958.482V20H952.959ZM962.093 13.4545L963.537 16.0028L964.995 13.4545H966.388L964.347 16.7273L966.405 20H965.012L963.537 17.554L962.067 20H960.669L962.706 16.7273L960.695 13.4545H962.093ZM968.696 22.4545V13.4545H969.941V14.5156H970.047C970.121 14.3793 970.228 14.2216 970.367 14.0426C970.506 13.8636 970.699 13.7074 970.946 13.5739C971.194 13.4375 971.52 13.3693 971.926 13.3693C972.455 13.3693 972.926 13.5028 973.341 13.7699C973.756 14.0369 974.081 14.4219 974.317 14.9247C974.556 15.4276 974.675 16.0327 974.675 16.7401C974.675 17.4474 974.557 18.054 974.321 18.5597C974.086 19.0625 973.762 19.4503 973.35 19.723C972.938 19.9929 972.468 20.1278 971.939 20.1278C971.542 20.1278 971.216 20.0611 970.963 19.9276C970.713 19.794 970.517 19.6378 970.375 19.4588C970.233 19.2798 970.124 19.1207 970.047 18.9815H969.971V22.4545H968.696ZM969.945 16.7273C969.945 17.1875 970.012 17.5909 970.145 17.9375C970.279 18.2841 970.472 18.5554 970.725 18.7514C970.978 18.9446 971.287 19.0412 971.654 19.0412C972.034 19.0412 972.353 18.9403 972.608 18.7386C972.864 18.5341 973.057 18.2571 973.188 17.9077C973.321 17.5582 973.388 17.1648 973.388 16.7273C973.388 16.2955 973.323 15.9077 973.192 15.5639C973.064 15.2202 972.871 14.9489 972.613 14.75C972.357 14.5511 972.037 14.4517 971.654 14.4517C971.284 14.4517 970.972 14.5469 970.716 14.7372C970.463 14.9276 970.272 15.1932 970.141 15.5341C970.01 15.875 969.945 16.2727 969.945 16.7273ZM979.86 20.1321C979.246 20.1321 978.711 19.9915 978.253 19.7102C977.796 19.429 977.441 19.0355 977.188 18.5298C976.935 18.0241 976.809 17.4332 976.809 16.7571C976.809 16.0781 976.935 15.4844 977.188 14.9759C977.441 14.4673 977.796 14.0724 978.253 13.7912C978.711 13.5099 979.246 13.3693 979.86 13.3693C980.473 13.3693 981.009 13.5099 981.466 13.7912C981.924 14.0724 982.279 14.4673 982.532 14.9759C982.784 15.4844 982.911 16.0781 982.911 16.7571C982.911 17.4332 982.784 18.0241 982.532 18.5298C982.279 19.0355 981.924 19.429 981.466 19.7102C981.009 19.9915 980.473 20.1321 979.86 20.1321ZM979.864 19.0625C980.262 19.0625 980.591 18.9574 980.853 18.7472C981.114 18.5369 981.307 18.2571 981.432 17.9077C981.56 17.5582 981.624 17.1733 981.624 16.7528C981.624 16.3352 981.56 15.9517 981.432 15.6023C981.307 15.25 981.114 14.9673 980.853 14.7543C980.591 14.5412 980.262 14.4347 979.864 14.4347C979.463 14.4347 979.131 14.5412 978.867 14.7543C978.605 14.9673 978.411 15.25 978.283 15.6023C978.158 15.9517 978.096 16.3352 978.096 16.7528C978.096 17.1733 978.158 17.5582 978.283 17.9077C978.411 18.2571 978.605 18.5369 978.867 18.7472C979.131 18.9574 979.463 19.0625 979.864 19.0625ZM985.333 20V13.4545H986.565V14.4943H986.633C986.752 14.142 986.962 13.8651 987.263 13.6634C987.567 13.4588 987.911 13.3565 988.295 13.3565C988.374 13.3565 988.468 13.3594 988.576 13.3651C988.687 13.3707 988.773 13.3778 988.836 13.3864V14.6051C988.785 14.5909 988.694 14.5753 988.563 14.5582C988.433 14.5384 988.302 14.5284 988.171 14.5284C987.87 14.5284 987.602 14.5923 987.366 14.7202C987.133 14.8452 986.948 15.0199 986.812 15.2443C986.675 15.4659 986.607 15.7187 986.607 16.0028V20H985.333ZM994.381 13.4545V14.4773H990.805V13.4545H994.381ZM991.764 11.8864H993.038V18.0781C993.038 18.3253 993.075 18.5114 993.149 18.6364C993.223 18.7585 993.318 18.8423 993.435 18.8878C993.554 18.9304 993.683 18.9517 993.822 18.9517C993.925 18.9517 994.014 18.9446 994.091 18.9304C994.168 18.9162 994.227 18.9048 994.27 18.8963L994.5 19.9489C994.426 19.9773 994.321 20.0057 994.185 20.0341C994.048 20.0653 993.878 20.0824 993.673 20.0852C993.338 20.0909 993.026 20.0312 992.736 19.9062C992.446 19.7812 992.212 19.5881 992.033 19.3267C991.854 19.0653 991.764 18.7372 991.764 18.3423V11.8864Z" fill="#1757C2"/>
<rect x="916.5" y="0.5" width="91" height="31" rx="3.5" stroke="#1757C2"/>
<path d="M1024 0V32" stroke="#CCCFE0"/>
<rect x="1040.5" y="0.5" width="43" height="31" rx="3.5" fill="white"/>
<g clip-path="url(#clip1_110_1491)">
<path d="M1062 23.5C1057.86 23.5 1054.5 20.1425 1054.5 16C1054.5 11.8575 1057.86 8.5 1062 8.5C1066.14 8.5 1069.5 11.8575 1069.5 16C1069.5 20.1425 1066.14 23.5 1062 23.5Z" stroke="#1757C2" stroke-width="1.5" stroke-linecap="round" stroke-linejoin="round"/>
<path d="M1062 20.1667V16H1061.17" stroke="#1757C2" stroke-width="1.5" stroke-linecap="round" stroke-linejoin="round"/>
<circle cx="1061.79" cy="12.875" r="0.833333" fill="#1757C2"/>
</g>
<rect x="1040.5" y="0.5" width="43" height="31" rx="3.5" stroke="#1757C2"/>
<defs>
<clipPath id="clip0_110_1491">
<rect width="20" height="20" fill="white" transform="translate(928 6)"/>
</clipPath>
<clipPath id="clip1_110_1491">
<rect width="20" height="20" fill="white" transform="translate(1052 6)"/>
</clipPath>
</defs>
</svg>
