<svg width="1084" height="408" viewBox="0 0 1084 408" fill="none" xmlns="http://www.w3.org/2000/svg">
<path d="M34.5824 33.9091L38.2259 44.571H38.3729L42.0163 33.9091H44.1513L39.4403 47H37.1584L32.4474 33.9091H34.5824ZM49.1355 47.1982C48.1681 47.1982 47.335 46.9915 46.6362 46.5781C45.9416 46.1605 45.4047 45.5746 45.0254 44.8203C44.6504 44.0618 44.4629 43.1733 44.4629 42.1548C44.4629 41.1491 44.6504 40.2628 45.0254 39.4957C45.4047 38.7287 45.9331 38.13 46.6106 37.6996C47.2924 37.2692 48.0893 37.054 49.0012 37.054C49.5552 37.054 50.0922 37.1456 50.612 37.3288C51.1319 37.5121 51.5985 37.7997 52.0119 38.1918C52.4252 38.5838 52.7512 39.093 52.9899 39.7195C53.2285 40.3416 53.3478 41.098 53.3478 41.9886V42.6662H45.5431V41.2344H51.475C51.475 40.7315 51.3727 40.2862 51.1681 39.8984C50.9636 39.5064 50.676 39.1974 50.3052 38.9716C49.9387 38.7457 49.5083 38.6328 49.014 38.6328C48.4771 38.6328 48.0083 38.7649 47.6078 39.0291C47.2115 39.2891 46.9047 39.63 46.6873 40.0518C46.4743 40.4695 46.3677 40.9233 46.3677 41.4134V42.532C46.3677 43.1882 46.4828 43.7464 46.7129 44.2067C46.9473 44.6669 47.2733 45.0185 47.6909 45.2614C48.1085 45.5 48.5964 45.6193 49.1547 45.6193C49.5169 45.6193 49.8471 45.5682 50.1454 45.4659C50.4437 45.3594 50.7015 45.2017 50.9189 44.9929C51.1362 44.7841 51.3024 44.5263 51.4174 44.2195L53.2264 44.5455C53.0815 45.0781 52.8216 45.5447 52.4466 45.9453C52.0758 46.3416 51.6092 46.6506 51.0467 46.8722C50.4885 47.0895 49.8514 47.1982 49.1355 47.1982ZM57.3796 41.1705V47H55.4684V37.1818H57.3029V38.7798H57.4244C57.6502 38.2599 58.0039 37.8423 58.4854 37.527C58.9712 37.2116 59.5827 37.054 60.32 37.054C60.989 37.054 61.5749 37.1946 62.0778 37.4759C62.5806 37.7528 62.9705 38.1662 63.2475 38.7159C63.5245 39.2656 63.663 39.9453 63.663 40.755V47H61.7518V40.9851C61.7518 40.2734 61.5664 39.7173 61.1957 39.3168C60.8249 38.9119 60.3157 38.7095 59.668 38.7095C59.2248 38.7095 58.8306 38.8054 58.4854 38.9972C58.1445 39.1889 57.8739 39.4702 57.6737 39.8409C57.4776 40.2074 57.3796 40.6506 57.3796 41.1705ZM69.9016 47.1918C69.109 47.1918 68.4016 46.9893 67.7795 46.5845C67.1616 46.1754 66.6758 45.5937 66.3221 44.8395C65.9727 44.081 65.7979 43.1712 65.7979 42.1101C65.7979 41.049 65.9748 40.1413 66.3285 39.3871C66.6864 38.6328 67.1765 38.0554 67.7987 37.6548C68.4208 37.2543 69.1261 37.054 69.9144 37.054C70.5238 37.054 71.0138 37.1562 71.3846 37.3608C71.7596 37.5611 72.0494 37.7955 72.2539 38.0639C72.4627 38.3324 72.6246 38.5689 72.7397 38.7734H72.8548V33.9091H74.766V47H72.8995V45.4723H72.7397C72.6246 45.6811 72.4585 45.9197 72.2411 46.1882C72.0281 46.4567 71.734 46.6911 71.359 46.8913C70.984 47.0916 70.4982 47.1918 69.9016 47.1918ZM70.3235 45.5618C70.8732 45.5618 71.3377 45.4169 71.717 45.1271C72.1005 44.8331 72.3903 44.4261 72.5863 43.9062C72.7866 43.3864 72.8867 42.7812 72.8867 42.0909C72.8867 41.4091 72.7887 40.8125 72.5927 40.3011C72.3967 39.7898 72.109 39.3913 71.7298 39.1058C71.3505 38.8203 70.8817 38.6776 70.3235 38.6776C69.7482 38.6776 69.2688 38.8267 68.8853 39.125C68.5018 39.4233 68.212 39.8303 68.016 40.3459C67.8242 40.8615 67.7283 41.4432 67.7283 42.0909C67.7283 42.7472 67.8263 43.3374 68.0224 43.8615C68.2184 44.3857 68.5082 44.8011 68.8917 45.108C69.2795 45.4105 69.7567 45.5618 70.3235 45.5618ZM81.6294 47.1982C80.709 47.1982 79.9057 46.9872 79.2196 46.5653C78.5336 46.1435 78.0009 45.5533 77.6216 44.7947C77.2424 44.0362 77.0527 43.1499 77.0527 42.1357C77.0527 41.1172 77.2424 40.2266 77.6216 39.4638C78.0009 38.701 78.5336 38.1087 79.2196 37.6868C79.9057 37.2649 80.709 37.054 81.6294 37.054C82.5499 37.054 83.3532 37.2649 84.0392 37.6868C84.7253 38.1087 85.258 38.701 85.6373 39.4638C86.0165 40.2266 86.2061 41.1172 86.2061 42.1357C86.2061 43.1499 86.0165 44.0362 85.6373 44.7947C85.258 45.5533 84.7253 46.1435 84.0392 46.5653C83.3532 46.9872 82.5499 47.1982 81.6294 47.1982ZM81.6358 45.5938C82.2324 45.5938 82.7267 45.4361 83.1188 45.1207C83.5108 44.8054 83.8006 44.3857 83.9881 43.8615C84.1799 43.3374 84.2757 42.7599 84.2757 42.1293C84.2757 41.5028 84.1799 40.9276 83.9881 40.4034C83.8006 39.875 83.5108 39.451 83.1188 39.1314C82.7267 38.8118 82.2324 38.652 81.6358 38.652C81.035 38.652 80.5364 38.8118 80.1401 39.1314C79.748 39.451 79.4561 39.875 79.2644 40.4034C79.0769 40.9276 78.9831 41.5028 78.9831 42.1293C78.9831 42.7599 79.0769 43.3374 79.2644 43.8615C79.4561 44.3857 79.748 44.8054 80.1401 45.1207C80.5364 45.4361 81.035 45.5938 81.6358 45.5938ZM88.3395 47V37.1818H90.1868V38.7415H90.2891C90.468 38.2131 90.7834 37.7976 91.2351 37.495C91.6911 37.1882 92.2067 37.0348 92.782 37.0348C92.9013 37.0348 93.0419 37.0391 93.2038 37.0476C93.37 37.0561 93.5 37.0668 93.5938 37.0795V38.9077C93.517 38.8864 93.3807 38.8629 93.1847 38.8374C92.9886 38.8075 92.7926 38.7926 92.5966 38.7926C92.1449 38.7926 91.7422 38.8885 91.3885 39.0803C91.0391 39.2678 90.7621 39.5298 90.5575 39.8665C90.353 40.1989 90.2507 40.5781 90.2507 41.0043V47H88.3395ZM100.165 47V33.9091H104.831C105.845 33.9091 106.687 34.0838 107.356 34.4332C108.029 34.7827 108.532 35.2663 108.864 35.8842C109.197 36.4979 109.363 37.2074 109.363 38.0128C109.363 38.8139 109.195 39.5192 108.858 40.1286C108.526 40.7337 108.023 41.2045 107.349 41.5412C106.68 41.8778 105.839 42.0462 104.825 42.0462H101.29V40.3459H104.646C105.285 40.3459 105.805 40.2543 106.205 40.071C106.61 39.8878 106.906 39.6214 107.094 39.272C107.281 38.9226 107.375 38.5028 107.375 38.0128C107.375 37.5185 107.279 37.0902 107.087 36.728C106.9 36.3658 106.604 36.0888 106.199 35.897C105.798 35.701 105.272 35.603 104.62 35.603H102.14V47H100.165ZM106.627 41.0938L109.862 47H107.612L104.441 41.0938H106.627ZM111.613 47V37.1818H113.524V47H111.613ZM112.578 35.6669C112.246 35.6669 111.96 35.5561 111.722 35.3345C111.487 35.1087 111.37 34.8402 111.37 34.5291C111.37 34.2138 111.487 33.9453 111.722 33.7237C111.96 33.4979 112.246 33.3849 112.578 33.3849C112.911 33.3849 113.194 33.4979 113.428 33.7237C113.667 33.9453 113.786 34.2138 113.786 34.5291C113.786 34.8402 113.667 35.1087 113.428 35.3345C113.194 35.5561 112.911 35.6669 112.578 35.6669ZM123.453 39.5788L121.72 39.8857C121.648 39.6641 121.533 39.4531 121.375 39.2528C121.222 39.0526 121.013 38.8885 120.749 38.7607C120.485 38.6328 120.154 38.5689 119.758 38.5689C119.217 38.5689 118.765 38.6903 118.403 38.9332C118.041 39.1719 117.86 39.4808 117.86 39.8601C117.86 40.1882 117.981 40.4524 118.224 40.6527C118.467 40.853 118.859 41.017 119.4 41.1449L120.96 41.5028C121.863 41.7116 122.536 42.0334 122.98 42.468C123.423 42.9027 123.644 43.4673 123.644 44.1619C123.644 44.75 123.474 45.2741 123.133 45.7344C122.796 46.1903 122.325 46.5483 121.72 46.8082C121.119 47.0682 120.423 47.1982 119.63 47.1982C118.531 47.1982 117.634 46.9638 116.939 46.495C116.244 46.022 115.818 45.3509 115.661 44.4815L117.508 44.2003C117.623 44.6818 117.86 45.0462 118.218 45.2933C118.575 45.5362 119.042 45.6577 119.617 45.6577C120.244 45.6577 120.744 45.5277 121.119 45.2678C121.494 45.0036 121.682 44.6818 121.682 44.3026C121.682 43.9957 121.567 43.7379 121.337 43.5291C121.111 43.3203 120.764 43.1626 120.295 43.0561L118.633 42.6918C117.717 42.483 117.039 42.1506 116.6 41.6946C116.166 41.2386 115.948 40.6612 115.948 39.9624C115.948 39.3828 116.11 38.8757 116.434 38.4411C116.758 38.0064 117.205 37.6676 117.776 37.4247C118.347 37.1776 119.002 37.054 119.739 37.054C120.8 37.054 121.635 37.2841 122.244 37.7443C122.854 38.2003 123.257 38.8118 123.453 39.5788ZM127.504 43.6697L127.491 41.3366H127.823L131.735 37.1818H134.023L129.562 41.9119H129.261L127.504 43.6697ZM125.746 47V33.9091H127.657V47H125.746ZM131.946 47L128.43 42.3338L129.747 40.9979L134.292 47H131.946ZM140.682 47V33.9091H145.476C146.405 33.9091 147.175 34.0625 147.784 34.3693C148.393 34.6719 148.849 35.0831 149.152 35.603C149.454 36.1186 149.606 36.7003 149.606 37.348C149.606 37.8935 149.506 38.3537 149.305 38.7287C149.105 39.0994 148.836 39.3977 148.5 39.6236C148.167 39.8452 147.801 40.0071 147.4 40.1094V40.2372C147.835 40.2585 148.259 40.3991 148.672 40.6591C149.09 40.9148 149.435 41.2791 149.708 41.7521C149.981 42.2251 150.117 42.8004 150.117 43.478C150.117 44.147 149.959 44.7479 149.644 45.2805C149.333 45.8089 148.851 46.2287 148.199 46.5398C147.547 46.8466 146.714 47 145.7 47H140.682ZM142.657 45.3061H145.508C146.454 45.3061 147.132 45.1229 147.541 44.7564C147.95 44.3899 148.155 43.9318 148.155 43.3821C148.155 42.9687 148.05 42.5895 147.841 42.2443C147.633 41.8991 147.334 41.6243 146.947 41.4197C146.563 41.2152 146.107 41.1129 145.579 41.1129H142.657V45.3061ZM142.657 39.5724H145.304C145.747 39.5724 146.145 39.4872 146.499 39.3168C146.857 39.1463 147.14 38.9077 147.349 38.6009C147.562 38.2898 147.669 37.9233 147.669 37.5014C147.669 36.9602 147.479 36.5064 147.1 36.1399C146.721 35.7734 146.139 35.5902 145.355 35.5902H142.657V39.5724ZM153.514 50.6818C153.229 50.6818 152.969 50.6584 152.735 50.6115C152.5 50.5689 152.325 50.522 152.21 50.4709L152.671 48.9048C153.02 48.9986 153.331 49.0391 153.604 49.0263C153.877 49.0135 154.117 48.9112 154.326 48.7195C154.539 48.5277 154.727 48.2145 154.889 47.7798L155.125 47.1278L151.533 37.1818H153.578L156.065 44.8011H156.167L158.654 37.1818H160.705L156.659 48.3104C156.472 48.8217 156.233 49.2543 155.943 49.608C155.654 49.9659 155.308 50.2344 154.908 50.4134C154.507 50.5923 154.043 50.6818 153.514 50.6818ZM167.419 47V33.9091H172.213C173.142 33.9091 173.911 34.0625 174.52 34.3693C175.13 34.6719 175.586 35.0831 175.888 35.603C176.191 36.1186 176.342 36.7003 176.342 37.348C176.342 37.8935 176.242 38.3537 176.042 38.7287C175.841 39.0994 175.573 39.3977 175.236 39.6236C174.904 39.8452 174.537 40.0071 174.137 40.1094V40.2372C174.571 40.2585 174.995 40.3991 175.409 40.6591C175.826 40.9148 176.172 41.2791 176.444 41.7521C176.717 42.2251 176.853 42.8004 176.853 43.478C176.853 44.147 176.696 44.7479 176.38 45.2805C176.069 45.8089 175.588 46.2287 174.936 46.5398C174.284 46.8466 173.451 47 172.436 47H167.419ZM169.394 45.3061H172.245C173.191 45.3061 173.868 45.1229 174.277 44.7564C174.686 44.3899 174.891 43.9318 174.891 43.3821C174.891 42.9687 174.787 42.5895 174.578 42.2443C174.369 41.8991 174.071 41.6243 173.683 41.4197C173.299 41.2152 172.843 41.1129 172.315 41.1129H169.394V45.3061ZM169.394 39.5724H172.04C172.483 39.5724 172.882 39.4872 173.235 39.3168C173.593 39.1463 173.877 38.9077 174.086 38.6009C174.299 38.2898 174.405 37.9233 174.405 37.5014C174.405 36.9602 174.216 36.5064 173.836 36.1399C173.457 35.7734 172.875 35.5902 172.091 35.5902H169.394V39.5724ZM185.262 42.9283V37.1818H187.18V47H185.3V45.2997H185.198C184.972 45.8239 184.61 46.2607 184.112 46.6101C183.617 46.9553 183.001 47.1278 182.264 47.1278C181.634 47.1278 181.075 46.9893 180.589 46.7124C180.108 46.4311 179.729 46.0156 179.452 45.4659C179.179 44.9162 179.043 44.2365 179.043 43.4268V37.1818H180.954V43.1967C180.954 43.8658 181.139 44.3984 181.51 44.7947C181.881 45.1911 182.362 45.3892 182.955 45.3892C183.313 45.3892 183.668 45.2997 184.022 45.1207C184.38 44.9418 184.676 44.6712 184.911 44.3089C185.149 43.9467 185.266 43.4865 185.262 42.9283ZM197.105 39.5788L195.373 39.8857C195.3 39.6641 195.185 39.4531 195.028 39.2528C194.874 39.0526 194.665 38.8885 194.401 38.7607C194.137 38.6328 193.807 38.5689 193.41 38.5689C192.869 38.5689 192.417 38.6903 192.055 38.9332C191.693 39.1719 191.512 39.4808 191.512 39.8601C191.512 40.1882 191.633 40.4524 191.876 40.6527C192.119 40.853 192.511 41.017 193.052 41.1449L194.612 41.5028C195.515 41.7116 196.189 42.0334 196.632 42.468C197.075 42.9027 197.297 43.4673 197.297 44.1619C197.297 44.75 197.126 45.2741 196.785 45.7344C196.449 46.1903 195.978 46.5483 195.373 46.8082C194.772 47.0682 194.075 47.1982 193.282 47.1982C192.183 47.1982 191.286 46.9638 190.591 46.495C189.897 46.022 189.471 45.3509 189.313 44.4815L191.16 44.2003C191.275 44.6818 191.512 45.0462 191.87 45.2933C192.228 45.5362 192.694 45.6577 193.27 45.6577C193.896 45.6577 194.397 45.5277 194.772 45.2678C195.147 45.0036 195.334 44.6818 195.334 44.3026C195.334 43.9957 195.219 43.7379 194.989 43.5291C194.763 43.3203 194.416 43.1626 193.947 43.0561L192.285 42.6918C191.369 42.483 190.692 42.1506 190.253 41.6946C189.818 41.2386 189.601 40.6612 189.601 39.9624C189.601 39.3828 189.763 38.8757 190.086 38.4411C190.41 38.0064 190.858 37.6676 191.429 37.4247C192 37.1776 192.654 37.054 193.391 37.054C194.452 37.054 195.287 37.2841 195.897 37.7443C196.506 38.2003 196.909 38.8118 197.105 39.5788ZM199.398 47V37.1818H201.309V47H199.398ZM200.363 35.6669C200.031 35.6669 199.745 35.5561 199.507 35.3345C199.272 35.1087 199.155 34.8402 199.155 34.5291C199.155 34.2138 199.272 33.9453 199.507 33.7237C199.745 33.4979 200.031 33.3849 200.363 33.3849C200.696 33.3849 200.979 33.4979 201.213 33.7237C201.452 33.9453 201.571 34.2138 201.571 34.5291C201.571 34.8402 201.452 35.1087 201.213 35.3345C200.979 35.5561 200.696 35.6669 200.363 35.6669ZM205.792 41.1705V47H203.881V37.1818H205.715V38.7798H205.836C206.062 38.2599 206.416 37.8423 206.898 37.527C207.383 37.2116 207.995 37.054 208.732 37.054C209.401 37.054 209.987 37.1946 210.49 37.4759C210.993 37.7528 211.383 38.1662 211.66 38.7159C211.937 39.2656 212.075 39.9453 212.075 40.755V47H210.164V40.9851C210.164 40.2734 209.979 39.7173 209.608 39.3168C209.237 38.9119 208.728 38.7095 208.08 38.7095C207.637 38.7095 207.243 38.8054 206.898 38.9972C206.557 39.1889 206.286 39.4702 206.086 39.8409C205.89 40.2074 205.792 40.6506 205.792 41.1705ZM218.87 47.1982C217.903 47.1982 217.069 46.9915 216.371 46.5781C215.676 46.1605 215.139 45.5746 214.76 44.8203C214.385 44.0618 214.197 43.1733 214.197 42.1548C214.197 41.1491 214.385 40.2628 214.76 39.4957C215.139 38.7287 215.667 38.13 216.345 37.6996C217.027 37.2692 217.824 37.054 218.736 37.054C219.29 37.054 219.827 37.1456 220.346 37.3288C220.866 37.5121 221.333 37.7997 221.746 38.1918C222.16 38.5838 222.486 39.093 222.724 39.7195C222.963 40.3416 223.082 41.098 223.082 41.9886V42.6662H215.278V41.2344H221.209C221.209 40.7315 221.107 40.2862 220.903 39.8984C220.698 39.5064 220.41 39.1974 220.04 38.9716C219.673 38.7457 219.243 38.6328 218.748 38.6328C218.211 38.6328 217.743 38.7649 217.342 39.0291C216.946 39.2891 216.639 39.63 216.422 40.0518C216.209 40.4695 216.102 40.9233 216.102 41.4134V42.532C216.102 43.1882 216.217 43.7464 216.447 44.2067C216.682 44.6669 217.008 45.0185 217.425 45.2614C217.843 45.5 218.331 45.6193 218.889 45.6193C219.251 45.6193 219.581 45.5682 219.88 45.4659C220.178 45.3594 220.436 45.2017 220.653 44.9929C220.871 44.7841 221.037 44.5263 221.152 44.2195L222.961 44.5455C222.816 45.0781 222.556 45.5447 222.181 45.9453C221.81 46.3416 221.344 46.6506 220.781 46.8722C220.223 47.0895 219.586 47.1982 218.87 47.1982ZM232.56 39.5788L230.828 39.8857C230.755 39.6641 230.64 39.4531 230.483 39.2528C230.329 39.0526 230.12 38.8885 229.856 38.7607C229.592 38.6328 229.262 38.5689 228.865 38.5689C228.324 38.5689 227.873 38.6903 227.51 38.9332C227.148 39.1719 226.967 39.4808 226.967 39.8601C226.967 40.1882 227.088 40.4524 227.331 40.6527C227.574 40.853 227.966 41.017 228.507 41.1449L230.067 41.5028C230.971 41.7116 231.644 42.0334 232.087 42.468C232.53 42.9027 232.752 43.4673 232.752 44.1619C232.752 44.75 232.581 45.2741 232.24 45.7344C231.904 46.1903 231.433 46.5483 230.828 46.8082C230.227 47.0682 229.53 47.1982 228.738 47.1982C227.638 47.1982 226.741 46.9638 226.047 46.495C225.352 46.022 224.926 45.3509 224.768 44.4815L226.615 44.2003C226.73 44.6818 226.967 45.0462 227.325 45.2933C227.683 45.5362 228.15 45.6577 228.725 45.6577C229.351 45.6577 229.852 45.5277 230.227 45.2678C230.602 45.0036 230.789 44.6818 230.789 44.3026C230.789 43.9957 230.674 43.7379 230.444 43.5291C230.218 43.3203 229.871 43.1626 229.402 43.0561L227.74 42.6918C226.824 42.483 226.147 42.1506 225.708 41.6946C225.273 41.2386 225.056 40.6612 225.056 39.9624C225.056 39.3828 225.218 38.8757 225.542 38.4411C225.865 38.0064 226.313 37.6676 226.884 37.4247C227.455 37.1776 228.109 37.054 228.846 37.054C229.907 37.054 230.743 37.2841 231.352 37.7443C231.961 38.2003 232.364 38.8118 232.56 39.5788ZM242.21 39.5788L240.478 39.8857C240.406 39.6641 240.291 39.4531 240.133 39.2528C239.98 39.0526 239.771 38.8885 239.507 38.7607C239.242 38.6328 238.912 38.5689 238.516 38.5689C237.975 38.5689 237.523 38.6903 237.161 38.9332C236.798 39.1719 236.617 39.4808 236.617 39.8601C236.617 40.1882 236.739 40.4524 236.982 40.6527C237.225 40.853 237.617 41.017 238.158 41.1449L239.718 41.5028C240.621 41.7116 241.294 42.0334 241.737 42.468C242.181 42.9027 242.402 43.4673 242.402 44.1619C242.402 44.75 242.232 45.2741 241.891 45.7344C241.554 46.1903 241.083 46.5483 240.478 46.8082C239.877 47.0682 239.181 47.1982 238.388 47.1982C237.289 47.1982 236.392 46.9638 235.697 46.495C235.002 46.022 234.576 45.3509 234.419 44.4815L236.266 44.2003C236.381 44.6818 236.617 45.0462 236.975 45.2933C237.333 45.5362 237.8 45.6577 238.375 45.6577C239.002 45.6577 239.502 45.5277 239.877 45.2678C240.252 45.0036 240.44 44.6818 240.44 44.3026C240.44 43.9957 240.325 43.7379 240.095 43.5291C239.869 43.3203 239.521 43.1626 239.053 43.0561L237.391 42.6918C236.475 42.483 235.797 42.1506 235.358 41.6946C234.923 41.2386 234.706 40.6612 234.706 39.9624C234.706 39.3828 234.868 38.8757 235.192 38.4411C235.516 38.0064 235.963 37.6676 236.534 37.4247C237.105 37.1776 237.759 37.054 238.497 37.054C239.558 37.054 240.393 37.2841 241.002 37.7443C241.612 38.2003 242.014 38.8118 242.21 39.5788ZM251.396 33.9091V47H249.421V33.9091H251.396ZM254.119 47V37.1818H255.953V38.7798H256.075C256.279 38.2386 256.614 37.8168 257.078 37.5142C257.543 37.2074 258.099 37.054 258.747 37.054C259.403 37.054 259.953 37.2074 260.396 37.5142C260.843 37.821 261.173 38.2429 261.387 38.7798H261.489C261.723 38.2557 262.096 37.8381 262.607 37.527C263.119 37.2116 263.728 37.054 264.436 37.054C265.326 37.054 266.053 37.3331 266.615 37.8913C267.182 38.4496 267.465 39.2912 267.465 40.4162V47H265.554V40.5952C265.554 39.9304 265.373 39.4489 265.011 39.1506C264.649 38.8523 264.216 38.7031 263.713 38.7031C263.091 38.7031 262.607 38.8949 262.262 39.2784C261.917 39.6577 261.744 40.1456 261.744 40.7422V47H259.84V40.4737C259.84 39.9411 259.673 39.5128 259.341 39.1889C259.009 38.8651 258.576 38.7031 258.044 38.7031C257.681 38.7031 257.347 38.799 257.04 38.9908C256.737 39.1783 256.492 39.4403 256.305 39.777C256.122 40.1136 256.03 40.5036 256.03 40.9467V47H254.119ZM270.027 50.6818V37.1818H271.893V38.7734H272.053C272.164 38.5689 272.324 38.3324 272.533 38.0639C272.741 37.7955 273.031 37.5611 273.402 37.3608C273.773 37.1562 274.263 37.054 274.872 37.054C275.665 37.054 276.372 37.2543 276.994 37.6548C277.616 38.0554 278.104 38.6328 278.458 39.3871C278.816 40.1413 278.995 41.049 278.995 42.1101C278.995 43.1712 278.818 44.081 278.464 44.8395C278.111 45.5937 277.625 46.1754 277.007 46.5845C276.389 46.9893 275.684 47.1918 274.891 47.1918C274.295 47.1918 273.807 47.0916 273.428 46.8913C273.053 46.6911 272.759 46.4567 272.545 46.1882C272.332 45.9197 272.168 45.6811 272.053 45.4723H271.938V50.6818H270.027ZM271.9 42.0909C271.9 42.7812 272 43.3864 272.2 43.9062C272.401 44.4261 272.69 44.8331 273.07 45.1271C273.449 45.4169 273.913 45.5618 274.463 45.5618C275.034 45.5618 275.511 45.4105 275.895 45.108C276.278 44.8011 276.568 44.3857 276.764 43.8615C276.964 43.3374 277.065 42.7472 277.065 42.0909C277.065 41.4432 276.967 40.8615 276.771 40.3459C276.579 39.8303 276.289 39.4233 275.901 39.125C275.518 38.8267 275.038 38.6776 274.463 38.6776C273.909 38.6776 273.44 38.8203 273.057 39.1058C272.678 39.3913 272.39 39.7898 272.194 40.3011C271.998 40.8125 271.9 41.4091 271.9 42.0909ZM283.994 47.2173C283.371 47.2173 282.809 47.1023 282.306 46.8722C281.803 46.6378 281.405 46.299 281.111 45.8558C280.821 45.4126 280.676 44.8693 280.676 44.2259C280.676 43.6719 280.783 43.2159 280.996 42.858C281.209 42.5 281.496 42.2166 281.859 42.0078C282.221 41.799 282.626 41.6413 283.073 41.5348C283.521 41.4283 283.977 41.3473 284.441 41.2919C285.029 41.2237 285.506 41.1683 285.873 41.1257C286.239 41.0788 286.506 41.0043 286.672 40.902C286.838 40.7997 286.921 40.6335 286.921 40.4034V40.3587C286.921 39.8004 286.763 39.3679 286.448 39.0611C286.137 38.7543 285.673 38.6009 285.055 38.6009C284.411 38.6009 283.904 38.7436 283.533 39.0291C283.167 39.3104 282.913 39.6236 282.773 39.9688L280.977 39.5597C281.19 38.9631 281.501 38.4815 281.91 38.1151C282.323 37.7443 282.798 37.4759 283.335 37.3097C283.872 37.1392 284.437 37.054 285.029 37.054C285.421 37.054 285.837 37.1009 286.276 37.1946C286.719 37.2841 287.132 37.4503 287.516 37.6932C287.903 37.9361 288.221 38.2834 288.468 38.7351C288.715 39.1825 288.839 39.7642 288.839 40.4801V47H286.972V45.6577H286.896C286.772 45.9048 286.587 46.1477 286.339 46.3864C286.092 46.625 285.775 46.8232 285.387 46.9808C284.999 47.1385 284.535 47.2173 283.994 47.2173ZM284.409 45.6832C284.938 45.6832 285.389 45.5788 285.764 45.37C286.143 45.1612 286.431 44.8885 286.627 44.5518C286.827 44.2109 286.928 43.8466 286.928 43.4588V42.1932C286.859 42.2614 286.727 42.3253 286.531 42.3849C286.339 42.4403 286.12 42.4893 285.873 42.532C285.626 42.5703 285.385 42.6065 285.151 42.6406C284.916 42.6705 284.72 42.696 284.562 42.7173C284.192 42.7642 283.853 42.843 283.546 42.9538C283.244 43.0646 283.001 43.2244 282.817 43.4332C282.638 43.6378 282.549 43.9105 282.549 44.2514C282.549 44.7244 282.724 45.0824 283.073 45.3253C283.423 45.5639 283.868 45.6832 284.409 45.6832ZM295.52 47.1982C294.57 47.1982 293.752 46.983 293.066 46.5526C292.384 46.1179 291.86 45.5192 291.493 44.7564C291.127 43.9936 290.943 43.12 290.943 42.1357C290.943 41.1385 291.131 40.2585 291.506 39.4957C291.881 38.7287 292.409 38.13 293.091 37.6996C293.773 37.2692 294.576 37.054 295.501 37.054C296.247 37.054 296.911 37.1925 297.495 37.4695C298.079 37.7422 298.55 38.1257 298.908 38.62C299.27 39.1143 299.485 39.6918 299.553 40.3523H297.693C297.591 39.892 297.357 39.4957 296.99 39.1634C296.628 38.831 296.142 38.6648 295.533 38.6648C295 38.6648 294.534 38.8054 294.133 39.0866C293.737 39.3636 293.428 39.7599 293.206 40.2756C292.985 40.7869 292.874 41.392 292.874 42.0909C292.874 42.8068 292.982 43.4247 293.2 43.9446C293.417 44.4645 293.724 44.8672 294.12 45.1527C294.521 45.4382 294.992 45.581 295.533 45.581C295.895 45.581 296.223 45.5149 296.517 45.3828C296.816 45.2464 297.065 45.0526 297.265 44.8011C297.47 44.5497 297.612 44.2472 297.693 43.8935H299.553C299.485 44.5284 299.279 45.0952 298.933 45.5938C298.588 46.0923 298.126 46.4844 297.546 46.7699C296.971 47.0554 296.296 47.1982 295.52 47.1982ZM306.18 37.1818V38.7159H300.817V37.1818H306.18ZM302.256 34.8295H304.167V44.1172C304.167 44.4879 304.222 44.767 304.333 44.9545C304.444 45.1378 304.587 45.2635 304.761 45.3317C304.94 45.3956 305.134 45.4276 305.343 45.4276C305.496 45.4276 305.631 45.4169 305.746 45.3956C305.861 45.3743 305.95 45.3572 306.014 45.3445L306.359 46.9233C306.249 46.9659 306.091 47.0085 305.886 47.0511C305.682 47.098 305.426 47.1236 305.119 47.1278C304.616 47.1364 304.148 47.0469 303.713 46.8594C303.278 46.6719 302.927 46.3821 302.658 45.9901C302.39 45.598 302.256 45.1058 302.256 44.5135V34.8295Z" fill="#131520"/>
<line x1="-4.37114e-08" y1="79.5001" x2="1084" y2="79.5" stroke="#ECEDF3"/>
<path d="M122 130.5C122 137.128 116.627 142.5 110 142.5C103.373 142.5 98 137.128 98 130.5C98 123.873 103.373 118.5 110 118.5C116.627 118.5 122 123.873 122 130.5Z" fill="#FEF5F5"/>
<path fill-rule="evenodd" clip-rule="evenodd" d="M110 119C103.649 119 98.5 124.149 98.5 130.5C98.5 136.851 103.649 142 110 142C116.351 142 121.5 136.851 121.5 130.5C121.5 124.149 116.351 119 110 119ZM97.5 130.5C97.5 123.597 103.096 118 110 118C116.904 118 122.5 123.597 122.5 130.5C122.5 137.404 116.904 143 110 143C103.096 143 97.5 137.404 97.5 130.5Z" fill="#E02424"/>
<path d="M107.5 135.5V125.318H113.605V126.412H108.733V129.852H113.148V130.946H108.733V135.5H107.5Z" fill="#E02424"/>
<rect width="209" height="37" transform="translate(154 112)" fill="#F2F4F8"/>
<path d="M260.499 131.053V132.341H255.984V131.053H260.499Z" fill="black"/>
<rect width="209" height="37" transform="translate(379 112)" fill="#F2F4F8"/>
<path d="M485.499 131.053V132.341H480.984V131.053H485.499Z" fill="black"/>
<rect width="209" height="37" transform="translate(604 112)" fill="#D04A3C"/>
<path d="M709.842 125.818V136H708.301V127.359H708.241L705.805 128.95V127.479L708.346 125.818H709.842Z" fill="black"/>
<rect width="209" height="37" transform="translate(829 112)" fill="#F2F4F8"/>
<path d="M933.024 136.139C932.341 136.139 931.732 136.022 931.195 135.786C930.661 135.551 930.238 135.225 929.927 134.807C929.619 134.386 929.453 133.899 929.43 133.345H930.991C931.011 133.647 931.112 133.909 931.294 134.131C931.48 134.35 931.722 134.519 932.02 134.638C932.318 134.757 932.65 134.817 933.014 134.817C933.415 134.817 933.77 134.747 934.078 134.608C934.39 134.469 934.633 134.275 934.809 134.026C934.985 133.774 935.072 133.484 935.072 133.156C935.072 132.815 934.985 132.515 934.809 132.256C934.637 131.995 934.383 131.789 934.048 131.64C933.717 131.491 933.316 131.416 932.845 131.416H931.985V130.163H932.845C933.223 130.163 933.554 130.095 933.839 129.96C934.128 129.824 934.353 129.635 934.516 129.393C934.678 129.148 934.759 128.861 934.759 128.533C934.759 128.218 934.688 127.944 934.545 127.712C934.406 127.477 934.207 127.293 933.949 127.161C933.694 127.028 933.392 126.962 933.044 126.962C932.713 126.962 932.403 127.023 932.114 127.146C931.829 127.265 931.597 127.437 931.418 127.663C931.239 127.885 931.143 128.152 931.13 128.463H929.643C929.66 127.913 929.822 127.429 930.131 127.011C930.442 126.594 930.853 126.267 931.364 126.032C931.874 125.797 932.441 125.679 933.064 125.679C933.717 125.679 934.28 125.807 934.754 126.062C935.232 126.314 935.599 126.65 935.858 127.071C936.12 127.492 936.249 127.953 936.246 128.453C936.249 129.023 936.09 129.507 935.768 129.905C935.45 130.303 935.026 130.569 934.496 130.705V130.785C935.172 130.888 935.696 131.156 936.067 131.59C936.441 132.024 936.627 132.563 936.624 133.206C936.627 133.766 936.471 134.268 936.156 134.712C935.845 135.157 935.419 135.506 934.879 135.761C934.338 136.013 933.72 136.139 933.024 136.139Z" fill="black"/>
<path d="M122 175.5C122 182.128 116.627 187.5 110 187.5C103.373 187.5 98 182.128 98 175.5C98 168.873 103.373 163.5 110 163.5C116.627 163.5 122 168.873 122 175.5Z" fill="#FFFAF2"/>
<path fill-rule="evenodd" clip-rule="evenodd" d="M110 164C103.649 164 98.5 169.149 98.5 175.5C98.5 181.851 103.649 187 110 187C116.351 187 121.5 181.851 121.5 175.5C121.5 169.149 116.351 164 110 164ZM97.5 175.5C97.5 168.597 103.096 163 110 163C116.904 163 122.5 168.597 122.5 175.5C122.5 182.404 116.904 188 110 188C103.096 188 97.5 182.404 97.5 175.5Z" fill="#FF6B01"/>
<path d="M109.392 180.5H106.25V170.318H109.531C110.519 170.318 111.364 170.522 112.067 170.93C112.769 171.334 113.308 171.916 113.683 172.675C114.057 173.431 114.244 174.335 114.244 175.389C114.244 176.45 114.055 177.363 113.678 178.129C113.3 178.891 112.75 179.478 112.027 179.889C111.304 180.296 110.426 180.5 109.392 180.5ZM107.483 179.406H109.312C110.154 179.406 110.852 179.244 111.406 178.919C111.959 178.594 112.372 178.132 112.643 177.532C112.915 176.932 113.051 176.218 113.051 175.389C113.051 174.567 112.917 173.86 112.648 173.266C112.38 172.67 111.979 172.213 111.445 171.894C110.912 171.573 110.247 171.412 109.452 171.412H107.483V179.406Z" fill="#FF6B01"/>
<rect width="209" height="37" transform="translate(154 157)" fill="#F8B585"/>
<path d="M258.024 181.139C257.341 181.139 256.732 181.022 256.195 180.786C255.661 180.551 255.238 180.225 254.927 179.807C254.619 179.386 254.453 178.899 254.43 178.345H255.991C256.011 178.647 256.112 178.909 256.294 179.131C256.48 179.35 256.722 179.519 257.02 179.638C257.318 179.757 257.65 179.817 258.014 179.817C258.415 179.817 258.77 179.747 259.078 179.608C259.39 179.469 259.633 179.275 259.809 179.026C259.985 178.774 260.072 178.484 260.072 178.156C260.072 177.815 259.985 177.515 259.809 177.256C259.637 176.995 259.383 176.789 259.048 176.64C258.717 176.491 258.316 176.416 257.845 176.416H256.985V175.163H257.845C258.223 175.163 258.554 175.095 258.839 174.96C259.128 174.824 259.353 174.635 259.516 174.393C259.678 174.148 259.759 173.861 259.759 173.533C259.759 173.218 259.688 172.944 259.545 172.712C259.406 172.477 259.207 172.293 258.949 172.161C258.694 172.028 258.392 171.962 258.044 171.962C257.713 171.962 257.403 172.023 257.114 172.146C256.829 172.265 256.597 172.437 256.418 172.663C256.239 172.885 256.143 173.152 256.13 173.463H254.643C254.66 172.913 254.822 172.429 255.131 172.011C255.442 171.594 255.853 171.267 256.364 171.032C256.874 170.797 257.441 170.679 258.064 170.679C258.717 170.679 259.28 170.807 259.754 171.062C260.232 171.314 260.599 171.65 260.858 172.071C261.12 172.492 261.249 172.953 261.246 173.453C261.249 174.023 261.09 174.507 260.768 174.905C260.45 175.303 260.026 175.569 259.496 175.705V175.785C260.172 175.888 260.696 176.156 261.067 176.59C261.441 177.024 261.627 177.563 261.624 178.206C261.627 178.766 261.471 179.268 261.156 179.712C260.845 180.157 260.419 180.506 259.879 180.761C259.338 181.013 258.72 181.139 258.024 181.139Z" fill="black"/>
<rect width="209" height="37" transform="translate(379 157)" fill="#F69C60"/>
<path d="M479.979 181V179.886L483.425 176.317C483.793 175.929 484.096 175.589 484.335 175.298C484.576 175.003 484.757 174.723 484.876 174.457C484.996 174.192 485.055 173.911 485.055 173.612C485.055 173.274 484.976 172.983 484.817 172.737C484.658 172.489 484.441 172.298 484.165 172.166C483.89 172.03 483.58 171.962 483.236 171.962C482.871 171.962 482.553 172.036 482.281 172.185C482.009 172.335 481.801 172.545 481.655 172.817C481.509 173.089 481.436 173.407 481.436 173.771H479.969C479.969 173.152 480.112 172.61 480.397 172.146C480.682 171.682 481.073 171.322 481.57 171.067C482.067 170.808 482.633 170.679 483.266 170.679C483.905 170.679 484.469 170.807 484.956 171.062C485.446 171.314 485.829 171.658 486.104 172.096C486.379 172.53 486.517 173.021 486.517 173.568C486.517 173.945 486.446 174.315 486.303 174.676C486.164 175.037 485.92 175.44 485.572 175.884C485.224 176.325 484.741 176.86 484.121 177.49L482.097 179.608V179.683H486.681V181H479.979Z" fill="black"/>
<rect width="209" height="37" transform="translate(604 157)" fill="#F28438"/>
<path d="M708.024 181.139C707.341 181.139 706.732 181.022 706.195 180.786C705.661 180.551 705.238 180.225 704.927 179.807C704.619 179.386 704.453 178.899 704.43 178.345H705.991C706.011 178.647 706.112 178.909 706.294 179.131C706.48 179.35 706.722 179.519 707.02 179.638C707.318 179.757 707.65 179.817 708.014 179.817C708.415 179.817 708.77 179.747 709.078 179.608C709.39 179.469 709.633 179.275 709.809 179.026C709.985 178.774 710.072 178.484 710.072 178.156C710.072 177.815 709.985 177.515 709.809 177.256C709.637 176.995 709.383 176.789 709.048 176.64C708.717 176.491 708.316 176.416 707.845 176.416H706.985V175.163H707.845C708.223 175.163 708.554 175.095 708.839 174.96C709.128 174.824 709.353 174.635 709.516 174.393C709.678 174.148 709.759 173.861 709.759 173.533C709.759 173.218 709.688 172.944 709.545 172.712C709.406 172.477 709.207 172.293 708.949 172.161C708.694 172.028 708.392 171.962 708.044 171.962C707.713 171.962 707.403 172.023 707.114 172.146C706.829 172.265 706.597 172.437 706.418 172.663C706.239 172.885 706.143 173.152 706.13 173.463H704.643C704.66 172.913 704.822 172.429 705.131 172.011C705.442 171.594 705.853 171.267 706.364 171.032C706.874 170.797 707.441 170.679 708.064 170.679C708.717 170.679 709.28 170.807 709.754 171.062C710.232 171.314 710.599 171.65 710.858 172.071C711.12 172.492 711.249 172.953 711.246 173.453C711.249 174.023 711.09 174.507 710.768 174.905C710.45 175.303 710.026 175.569 709.496 175.705V175.785C710.172 175.888 710.696 176.156 711.067 176.59C711.441 177.024 711.627 177.563 711.624 178.206C711.627 178.766 711.471 179.268 711.156 179.712C710.845 180.157 710.419 180.506 709.879 180.761C709.338 181.013 708.72 181.139 708.024 181.139Z" fill="black"/>
<rect width="209" height="37" transform="translate(829 157)" fill="#F2F4F8"/>
<path d="M930.342 170.818V181H928.801V172.359H928.741L926.305 173.95V172.479L928.846 170.818H930.342ZM936.651 181.139C936.197 181.133 935.75 181.05 935.309 180.891C934.871 180.732 934.474 180.466 934.116 180.095C933.758 179.724 933.471 179.225 933.256 178.599C933.044 177.972 932.938 177.19 932.938 176.252C932.938 175.364 933.025 174.575 933.201 173.886C933.38 173.196 933.637 172.615 933.972 172.141C934.306 171.663 934.711 171.301 935.185 171.052C935.659 170.803 936.191 170.679 936.781 170.679C937.387 170.679 937.926 170.798 938.396 171.037C938.867 171.276 939.248 171.605 939.54 172.026C939.835 172.447 940.022 172.926 940.102 173.463H938.585C938.482 173.039 938.279 172.693 937.974 172.424C937.669 172.156 937.271 172.021 936.781 172.021C936.035 172.021 935.453 172.346 935.036 172.996C934.621 173.645 934.412 174.549 934.409 175.705H934.484C934.659 175.417 934.875 175.172 935.13 174.97C935.388 174.764 935.677 174.607 935.995 174.497C936.317 174.385 936.655 174.328 937.009 174.328C937.599 174.328 938.133 174.472 938.61 174.761C939.091 175.046 939.473 175.44 939.759 175.944C940.044 176.448 940.186 177.024 940.186 177.674C940.186 178.324 940.039 178.912 939.744 179.439C939.452 179.966 939.041 180.384 938.511 180.692C937.98 180.997 937.361 181.146 936.651 181.139ZM936.646 179.847C937.037 179.847 937.387 179.751 937.695 179.558C938.004 179.366 938.247 179.108 938.426 178.783C938.605 178.458 938.695 178.095 938.695 177.694C938.695 177.303 938.607 176.947 938.431 176.625C938.259 176.304 938.02 176.048 937.715 175.859C937.414 175.671 937.069 175.576 936.681 175.576C936.386 175.576 936.113 175.632 935.861 175.745C935.612 175.858 935.393 176.014 935.205 176.212C935.016 176.411 934.866 176.64 934.757 176.899C934.651 177.154 934.598 177.424 934.598 177.709C934.598 178.09 934.686 178.443 934.862 178.768C935.04 179.093 935.284 179.354 935.592 179.553C935.904 179.749 936.255 179.847 936.646 179.847Z" fill="black"/>
<path d="M122 220.5C122 227.128 116.627 232.5 110 232.5C103.373 232.5 98 227.128 98 220.5C98 213.873 103.373 208.5 110 208.5C116.627 208.5 122 213.873 122 220.5Z" fill="#FFFCF3"/>
<path fill-rule="evenodd" clip-rule="evenodd" d="M110 209C103.649 209 98.5 214.149 98.5 220.5C98.5 226.851 103.649 232 110 232C116.351 232 121.5 226.851 121.5 220.5C121.5 214.149 116.351 209 110 209ZM97.5 220.5C97.5 213.597 103.096 208 110 208C116.904 208 122.5 213.597 122.5 220.5C122.5 227.404 116.904 233 110 233C103.096 233 97.5 227.404 97.5 220.5Z" fill="#FDC106"/>
<path d="M114.091 218.5H112.858C112.785 218.145 112.657 217.834 112.475 217.565C112.296 217.297 112.077 217.072 111.819 216.889C111.564 216.704 111.28 216.564 110.969 216.472C110.657 216.379 110.332 216.332 109.994 216.332C109.378 216.332 108.819 216.488 108.319 216.8C107.822 217.111 107.426 217.57 107.131 218.177C106.839 218.783 106.693 219.528 106.693 220.409C106.693 221.291 106.839 222.035 107.131 222.641C107.426 223.248 107.822 223.707 108.319 224.019C108.819 224.33 109.378 224.486 109.994 224.486C110.332 224.486 110.657 224.439 110.969 224.347C111.28 224.254 111.564 224.116 111.819 223.934C112.077 223.748 112.296 223.521 112.475 223.253C112.657 222.981 112.785 222.67 112.858 222.318H114.091C113.998 222.839 113.829 223.304 113.584 223.715C113.339 224.126 113.034 224.476 112.669 224.764C112.304 225.049 111.895 225.266 111.441 225.416C110.99 225.565 110.508 225.639 109.994 225.639C109.126 225.639 108.354 225.427 107.678 225.003C107.001 224.579 106.469 223.975 106.082 223.193C105.694 222.411 105.5 221.483 105.5 220.409C105.5 219.335 105.694 218.407 106.082 217.625C106.469 216.843 107.001 216.24 107.678 215.815C108.354 215.391 109.126 215.179 109.994 215.179C110.508 215.179 110.99 215.254 111.441 215.403C111.895 215.552 112.304 215.771 112.669 216.059C113.034 216.344 113.339 216.692 113.584 217.103C113.829 217.511 113.998 217.976 114.091 218.5Z" fill="#FDC106"/>
<rect width="209" height="37" transform="translate(154 202)" fill="#F2F4F8"/>
<path d="M260.499 221.053V222.341H255.984V221.053H260.499Z" fill="black"/>
<rect width="209" height="37" transform="translate(379 202)" fill="#FDC73B"/>
<path d="M484.842 215.818V226H483.301V217.359H483.241L480.805 218.95V217.479L483.346 215.818H484.842Z" fill="black"/>
<rect width="209" height="37" transform="translate(604 202)" fill="#FDB90A"/>
<path d="M708.42 226.139C707.707 226.139 707.077 226.017 706.531 225.771C705.987 225.526 705.561 225.188 705.253 224.757C704.945 224.326 704.792 223.836 704.795 223.286C704.792 222.855 704.88 222.459 705.059 222.097C705.241 221.733 705.488 221.43 705.8 221.188C706.111 220.942 706.459 220.787 706.844 220.72V220.661C706.337 220.538 705.931 220.266 705.626 219.845C705.321 219.424 705.17 218.94 705.173 218.394C705.17 217.873 705.308 217.409 705.586 217.002C705.868 216.591 706.254 216.267 706.744 216.032C707.235 215.797 707.793 215.679 708.42 215.679C709.04 215.679 709.593 215.798 710.08 216.037C710.571 216.272 710.957 216.595 711.239 217.006C711.52 217.414 711.663 217.877 711.666 218.394C711.663 218.94 711.507 219.424 711.199 219.845C710.891 220.266 710.49 220.538 709.996 220.661V220.72C710.377 220.787 710.72 220.942 711.025 221.188C711.333 221.43 711.578 221.733 711.761 222.097C711.946 222.459 712.041 222.855 712.044 223.286C712.041 223.836 711.885 224.326 711.577 224.757C711.268 225.188 710.841 225.526 710.294 225.771C709.75 226.017 709.126 226.139 708.42 226.139ZM708.42 224.881C708.841 224.881 709.205 224.812 709.513 224.673C709.822 224.53 710.06 224.333 710.229 224.081C710.398 223.826 710.485 223.528 710.488 223.186C710.485 222.832 710.392 222.518 710.21 222.247C710.031 221.975 709.787 221.761 709.479 221.605C709.17 221.449 708.817 221.372 708.42 221.372C708.019 221.372 707.662 221.449 707.351 221.605C707.039 221.761 706.794 221.975 706.615 222.247C706.436 222.518 706.348 222.832 706.352 223.186C706.348 223.528 706.429 223.826 706.595 224.081C706.764 224.333 707.004 224.53 707.316 224.673C707.628 224.812 707.996 224.881 708.42 224.881ZM708.42 220.144C708.758 220.144 709.058 220.076 709.32 219.94C709.581 219.804 709.787 219.615 709.936 219.373C710.089 219.131 710.166 218.848 710.17 218.523C710.166 218.205 710.09 217.926 709.941 217.688C709.795 217.449 709.591 217.265 709.33 217.136C709.068 217.003 708.764 216.937 708.42 216.937C708.068 216.937 707.76 217.003 707.495 217.136C707.233 217.265 707.029 217.449 706.884 217.688C706.738 217.926 706.666 218.205 706.67 218.523C706.666 218.848 706.739 219.131 706.888 219.373C707.038 219.615 707.243 219.804 707.505 219.94C707.77 220.076 708.075 220.144 708.42 220.144Z" fill="black"/>
<rect width="209" height="37" transform="translate(829 202)" fill="#F2F4F8"/>
<path d="M933.34 226.139C932.717 226.139 932.157 226.02 931.66 225.781C931.166 225.539 930.772 225.208 930.477 224.787C930.182 224.366 930.024 223.886 930.004 223.345H931.496C931.532 223.783 931.726 224.142 932.077 224.424C932.429 224.706 932.85 224.847 933.34 224.847C933.731 224.847 934.078 224.757 934.379 224.578C934.684 224.396 934.923 224.146 935.095 223.828C935.271 223.509 935.359 223.146 935.359 222.739C935.359 222.324 935.269 221.955 935.09 221.63C934.911 221.305 934.664 221.05 934.349 220.864C934.038 220.679 933.68 220.584 933.276 220.581C932.967 220.581 932.657 220.634 932.346 220.74C932.034 220.846 931.782 220.985 931.59 221.158L930.183 220.949L930.755 215.818H936.353V217.136H932.033L931.71 219.984H931.769C931.968 219.792 932.232 219.631 932.56 219.502C932.891 219.373 933.246 219.308 933.624 219.308C934.243 219.308 934.795 219.456 935.279 219.751C935.766 220.046 936.149 220.448 936.428 220.959C936.709 221.466 936.848 222.049 936.845 222.709C936.848 223.368 936.699 223.957 936.398 224.474C936.099 224.991 935.685 225.399 935.155 225.697C934.628 225.992 934.023 226.139 933.34 226.139Z" fill="black"/>
<path d="M122 265.5C122 272.128 116.627 277.5 110 277.5C103.373 277.5 98 272.128 98 265.5C98 258.873 103.373 253.5 110 253.5C116.627 253.5 122 258.873 122 265.5Z" fill="#F9FCF5"/>
<path fill-rule="evenodd" clip-rule="evenodd" d="M110 254C103.649 254 98.5 259.149 98.5 265.5C98.5 271.851 103.649 277 110 277C116.351 277 121.5 271.851 121.5 265.5C121.5 259.149 116.351 254 110 254ZM97.5 265.5C97.5 258.597 103.096 253 110 253C116.904 253 122.5 258.597 122.5 265.5C122.5 272.404 116.904 278 110 278C103.096 278 97.5 272.404 97.5 265.5Z" fill="#90CA2F"/>
<path d="M106.733 270.5V260.318H110.293C111.002 260.318 111.587 260.441 112.048 260.686C112.508 260.928 112.851 261.255 113.077 261.666C113.302 262.073 113.415 262.526 113.415 263.023C113.415 263.46 113.337 263.822 113.181 264.107C113.029 264.392 112.826 264.617 112.575 264.783C112.326 264.948 112.056 265.071 111.764 265.151V265.25C112.076 265.27 112.389 265.379 112.704 265.578C113.019 265.777 113.282 266.062 113.494 266.433C113.706 266.805 113.812 267.259 113.812 267.796C113.812 268.306 113.696 268.765 113.464 269.173C113.232 269.58 112.866 269.903 112.366 270.142C111.865 270.381 111.214 270.5 110.412 270.5H106.733ZM107.966 269.406H110.412C111.217 269.406 111.789 269.251 112.127 268.939C112.468 268.624 112.639 268.243 112.639 267.796C112.639 267.451 112.551 267.133 112.376 266.841C112.2 266.546 111.95 266.311 111.625 266.135C111.3 265.956 110.916 265.867 110.472 265.867H107.966V269.406ZM107.966 264.793H110.253C110.624 264.793 110.959 264.72 111.257 264.574C111.559 264.428 111.797 264.223 111.973 263.957C112.152 263.692 112.241 263.381 112.241 263.023C112.241 262.575 112.086 262.196 111.774 261.884C111.463 261.569 110.969 261.412 110.293 261.412H107.966V264.793Z" fill="#90CA2F"/>
<rect width="209" height="37" transform="translate(154 247)" fill="#B6DB7F"/>
<path d="M258.42 271.139C257.707 271.139 257.077 271.017 256.531 270.771C255.987 270.526 255.561 270.188 255.253 269.757C254.945 269.326 254.792 268.836 254.795 268.286C254.792 267.855 254.88 267.459 255.059 267.097C255.241 266.733 255.488 266.43 255.8 266.188C256.111 265.942 256.459 265.787 256.844 265.72V265.661C256.337 265.538 255.931 265.266 255.626 264.845C255.321 264.424 255.17 263.94 255.173 263.394C255.17 262.873 255.308 262.409 255.586 262.002C255.868 261.591 256.254 261.267 256.744 261.032C257.235 260.797 257.793 260.679 258.42 260.679C259.04 260.679 259.593 260.798 260.08 261.037C260.571 261.272 260.957 261.595 261.239 262.006C261.52 262.414 261.663 262.877 261.666 263.394C261.663 263.94 261.507 264.424 261.199 264.845C260.891 265.266 260.49 265.538 259.996 265.661V265.72C260.377 265.787 260.72 265.942 261.025 266.188C261.333 266.43 261.578 266.733 261.761 267.097C261.946 267.459 262.041 267.855 262.044 268.286C262.041 268.836 261.885 269.326 261.577 269.757C261.268 270.188 260.841 270.526 260.294 270.771C259.75 271.017 259.126 271.139 258.42 271.139ZM258.42 269.881C258.841 269.881 259.205 269.812 259.513 269.673C259.822 269.53 260.06 269.333 260.229 269.081C260.398 268.826 260.485 268.528 260.488 268.186C260.485 267.832 260.392 267.518 260.21 267.247C260.031 266.975 259.787 266.761 259.479 266.605C259.17 266.449 258.817 266.372 258.42 266.372C258.019 266.372 257.662 266.449 257.351 266.605C257.039 266.761 256.794 266.975 256.615 267.247C256.436 267.518 256.348 267.832 256.352 268.186C256.348 268.528 256.429 268.826 256.595 269.081C256.764 269.333 257.004 269.53 257.316 269.673C257.628 269.812 257.996 269.881 258.42 269.881ZM258.42 265.144C258.758 265.144 259.058 265.076 259.32 264.94C259.581 264.804 259.787 264.615 259.936 264.373C260.089 264.131 260.166 263.848 260.17 263.523C260.166 263.205 260.09 262.926 259.941 262.688C259.795 262.449 259.591 262.265 259.33 262.136C259.068 262.003 258.764 261.937 258.42 261.937C258.068 261.937 257.76 262.003 257.495 262.136C257.233 262.265 257.029 262.449 256.884 262.688C256.738 262.926 256.666 263.205 256.67 263.523C256.666 263.848 256.739 264.131 256.888 264.373C257.038 264.615 257.243 264.804 257.505 264.94C257.77 265.076 258.075 265.144 258.42 265.144Z" fill="black"/>
<rect width="209" height="37" transform="translate(379 247)" fill="#9DCF54"/>
<path d="M480.342 260.818V271H478.801V262.359H478.741L476.305 263.95V262.479L478.846 260.818H480.342ZM486.641 271.169C485.856 271.166 485.185 270.959 484.628 270.548C484.071 270.137 483.645 269.538 483.35 268.753C483.055 267.967 482.908 267.021 482.908 265.914C482.908 264.81 483.055 263.868 483.35 263.085C483.648 262.303 484.076 261.707 484.633 261.296C485.193 260.885 485.862 260.679 486.641 260.679C487.42 260.679 488.088 260.886 488.645 261.301C489.202 261.712 489.628 262.308 489.923 263.09C490.221 263.869 490.37 264.81 490.37 265.914C490.37 267.024 490.223 267.972 489.928 268.758C489.633 269.54 489.207 270.138 488.65 270.553C488.093 270.964 487.424 271.169 486.641 271.169ZM486.641 269.842C487.331 269.842 487.869 269.505 488.257 268.832C488.648 268.16 488.844 267.187 488.844 265.914C488.844 265.069 488.754 264.355 488.575 263.771C488.4 263.185 488.146 262.741 487.815 262.439C487.487 262.134 487.095 261.982 486.641 261.982C485.955 261.982 485.417 262.32 485.026 262.996C484.634 263.672 484.437 264.645 484.434 265.914C484.434 266.763 484.522 267.48 484.697 268.067C484.876 268.65 485.13 269.093 485.458 269.394C485.786 269.693 486.181 269.842 486.641 269.842Z" fill="black"/>
<rect width="209" height="37" transform="translate(604 247)" fill="#85C329"/>
<path d="M708.365 260.679C708.819 260.682 709.267 260.765 709.707 260.928C710.148 261.09 710.546 261.355 710.901 261.723C711.259 262.091 711.544 262.588 711.756 263.215C711.971 263.838 712.08 264.613 712.084 265.541C712.084 266.433 711.994 267.227 711.815 267.923C711.636 268.615 711.379 269.2 711.045 269.678C710.713 270.155 710.311 270.518 709.837 270.766C709.363 271.015 708.829 271.139 708.236 271.139C707.629 271.139 707.091 271.02 706.62 270.781C706.149 270.543 705.767 270.213 705.472 269.792C705.177 269.368 704.993 268.881 704.92 268.33H706.436C706.536 268.768 706.738 269.122 707.043 269.394C707.351 269.663 707.749 269.797 708.236 269.797C708.982 269.797 709.563 269.472 709.981 268.823C710.398 268.17 710.609 267.258 710.612 266.088H710.533C710.36 266.373 710.145 266.618 709.886 266.824C709.631 267.029 709.344 267.189 709.026 267.301C708.708 267.414 708.368 267.47 708.007 267.47C707.42 267.47 706.887 267.326 706.406 267.038C705.926 266.749 705.543 266.353 705.258 265.85C704.973 265.346 704.83 264.771 704.83 264.124C704.83 263.481 704.976 262.898 705.268 262.374C705.563 261.851 705.974 261.436 706.501 261.131C707.031 260.823 707.652 260.672 708.365 260.679ZM708.37 261.972C707.982 261.972 707.633 262.068 707.321 262.26C707.013 262.449 706.769 262.706 706.59 263.031C706.411 263.352 706.322 263.71 706.322 264.104C706.322 264.499 706.408 264.857 706.58 265.178C706.756 265.497 706.995 265.75 707.296 265.939C707.601 266.125 707.949 266.217 708.34 266.217C708.632 266.217 708.904 266.161 709.156 266.048C709.407 265.936 709.628 265.78 709.817 265.581C710.006 265.379 710.153 265.15 710.259 264.895C710.365 264.64 710.418 264.371 710.418 264.09C710.418 263.715 710.329 263.367 710.15 263.046C709.974 262.724 709.732 262.466 709.424 262.27C709.116 262.071 708.764 261.972 708.37 261.972Z" fill="black"/>
<rect width="209" height="37" transform="translate(829 247)" fill="#F2F4F8"/>
<path d="M929.979 271V269.886L933.425 266.317C933.793 265.929 934.096 265.589 934.335 265.298C934.576 265.003 934.757 264.723 934.876 264.457C934.996 264.192 935.055 263.911 935.055 263.612C935.055 263.274 934.976 262.983 934.817 262.737C934.658 262.489 934.441 262.298 934.165 262.166C933.89 262.03 933.58 261.962 933.236 261.962C932.871 261.962 932.553 262.036 932.281 262.185C932.009 262.335 931.801 262.545 931.655 262.817C931.509 263.089 931.436 263.407 931.436 263.771H929.969C929.969 263.152 930.112 262.61 930.397 262.146C930.682 261.682 931.073 261.322 931.57 261.067C932.067 260.808 932.633 260.679 933.266 260.679C933.905 260.679 934.469 260.807 934.956 261.062C935.446 261.314 935.829 261.658 936.104 262.096C936.379 262.53 936.517 263.021 936.517 263.568C936.517 263.945 936.446 264.315 936.303 264.676C936.164 265.037 935.92 265.44 935.572 265.884C935.224 266.325 934.741 266.86 934.121 267.49L932.097 269.608V269.683H936.681V271H929.979Z" fill="black"/>
<path d="M122 310.5C122 317.128 116.627 322.5 110 322.5C103.373 322.5 98 317.128 98 310.5C98 303.873 103.373 298.5 110 298.5C116.627 298.5 122 303.873 122 310.5Z" fill="#F4FBF7"/>
<path fill-rule="evenodd" clip-rule="evenodd" d="M110 299C103.649 299 98.5 304.149 98.5 310.5C98.5 316.851 103.649 322 110 322C116.351 322 121.5 316.851 121.5 310.5C121.5 304.149 116.351 299 110 299ZM97.5 310.5C97.5 303.597 103.096 298 110 298C116.904 298 122.5 303.597 122.5 310.5C122.5 317.404 116.904 323 110 323C103.096 323 97.5 317.404 97.5 310.5Z" fill="#20AF5D"/>
<path d="M106.793 315.5H105.5L109.239 305.318H110.511L114.25 315.5H112.957L109.915 306.929H109.835L106.793 315.5ZM107.27 311.523H112.48V312.617H107.27V311.523Z" fill="#20AF5D"/>
<rect width="209" height="37" transform="translate(154 292)" fill="#78C998"/>
<path d="M259.842 305.818V316H258.301V307.359H258.241L255.805 308.95V307.479L258.346 305.818H259.842Z" fill="black"/>
<rect width="209" height="37" transform="translate(379 292)" fill="#4BB775"/>
<path d="M483.024 316.139C482.341 316.139 481.732 316.022 481.195 315.786C480.661 315.551 480.238 315.225 479.927 314.807C479.619 314.386 479.453 313.899 479.43 313.345H480.991C481.011 313.647 481.112 313.909 481.294 314.131C481.48 314.35 481.722 314.519 482.02 314.638C482.318 314.757 482.65 314.817 483.014 314.817C483.415 314.817 483.77 314.747 484.078 314.608C484.39 314.469 484.633 314.275 484.809 314.026C484.985 313.774 485.072 313.484 485.072 313.156C485.072 312.815 484.985 312.515 484.809 312.256C484.637 311.995 484.383 311.789 484.048 311.64C483.717 311.491 483.316 311.416 482.845 311.416H481.985V310.163H482.845C483.223 310.163 483.554 310.095 483.839 309.96C484.128 309.824 484.353 309.635 484.516 309.393C484.678 309.148 484.759 308.861 484.759 308.533C484.759 308.218 484.688 307.944 484.545 307.712C484.406 307.477 484.207 307.293 483.949 307.161C483.694 307.028 483.392 306.962 483.044 306.962C482.713 306.962 482.403 307.023 482.114 307.146C481.829 307.265 481.597 307.437 481.418 307.663C481.239 307.885 481.143 308.152 481.13 308.463H479.643C479.66 307.913 479.822 307.429 480.131 307.011C480.442 306.594 480.853 306.267 481.364 306.032C481.874 305.797 482.441 305.679 483.064 305.679C483.717 305.679 484.28 305.807 484.754 306.062C485.232 306.314 485.599 306.65 485.858 307.071C486.12 307.492 486.249 307.953 486.246 308.453C486.249 309.023 486.09 309.507 485.768 309.905C485.45 310.303 485.026 310.569 484.496 310.705V310.785C485.172 310.888 485.696 311.156 486.067 311.59C486.441 312.024 486.627 312.563 486.624 313.206C486.627 313.766 486.471 314.268 486.156 314.712C485.845 315.157 485.419 315.506 484.879 315.761C484.338 316.013 483.72 316.139 483.024 316.139Z" fill="black"/>
<rect width="209" height="37" transform="translate(604 292)" fill="#1DA653"/>
<path d="M708.34 316.139C707.717 316.139 707.157 316.02 706.66 315.781C706.166 315.539 705.772 315.208 705.477 314.787C705.182 314.366 705.024 313.886 705.004 313.345H706.496C706.532 313.783 706.726 314.142 707.077 314.424C707.429 314.706 707.85 314.847 708.34 314.847C708.731 314.847 709.078 314.757 709.379 314.578C709.684 314.396 709.923 314.146 710.095 313.828C710.271 313.509 710.359 313.146 710.359 312.739C710.359 312.324 710.269 311.955 710.09 311.63C709.911 311.305 709.664 311.05 709.349 310.864C709.038 310.679 708.68 310.584 708.276 310.581C707.967 310.581 707.657 310.634 707.346 310.74C707.034 310.846 706.782 310.985 706.59 311.158L705.183 310.949L705.755 305.818H711.353V307.136H707.033L706.71 309.984H706.769C706.968 309.792 707.232 309.631 707.56 309.502C707.891 309.373 708.246 309.308 708.624 309.308C709.243 309.308 709.795 309.456 710.279 309.751C710.766 310.046 711.149 310.448 711.428 310.959C711.709 311.466 711.848 312.049 711.845 312.709C711.848 313.368 711.699 313.957 711.398 314.474C711.099 314.991 710.685 315.399 710.155 315.697C709.628 315.992 709.023 316.139 708.34 316.139Z" fill="black"/>
<rect width="209" height="37" transform="translate(829 292)" fill="#F2F4F8"/>
<path d="M931.342 305.818V316H929.801V307.359H929.741L927.305 308.95V307.479L929.846 305.818H931.342ZM937.96 305.818V316H936.418V307.359H936.359L933.923 308.95V307.479L936.463 305.818H937.96Z" fill="black"/>
<rect x="224" y="352" width="24" height="24" rx="4" fill="#1757C2"/>
<path d="M236.315 359.273V368H234.994V360.594H234.942L232.854 361.957V360.696L235.032 359.273H236.315Z" fill="white"/>
<g clip-path="url(#clip0_110_1500)">
<path d="M256.616 360.641V359.318H264.496V360.641H261.32V369.5H259.788V360.641H256.616ZM266.118 369.5V361.864H267.605V369.5H266.118ZM266.869 360.685C266.611 360.685 266.389 360.599 266.203 360.427C266.021 360.251 265.93 360.042 265.93 359.801C265.93 359.555 266.021 359.346 266.203 359.174C266.389 358.998 266.611 358.911 266.869 358.911C267.128 358.911 267.348 358.998 267.53 359.174C267.716 359.346 267.809 359.555 267.809 359.801C267.809 360.042 267.716 360.251 267.53 360.427C267.348 360.599 267.128 360.685 266.869 360.685ZM272.896 369.654C272.144 369.654 271.496 369.493 270.952 369.172C270.412 368.847 269.994 368.391 269.699 367.805C269.408 367.215 269.262 366.524 269.262 365.732C269.262 364.949 269.408 364.26 269.699 363.663C269.994 363.067 270.405 362.601 270.932 362.266C271.462 361.932 272.082 361.764 272.792 361.764C273.222 361.764 273.64 361.836 274.044 361.978C274.449 362.121 274.812 362.344 275.133 362.649C275.455 362.954 275.708 363.35 275.894 363.837C276.079 364.321 276.172 364.91 276.172 365.602V366.129H270.102V365.016H274.716C274.716 364.625 274.636 364.278 274.477 363.977C274.318 363.672 274.094 363.431 273.806 363.256C273.521 363.08 273.186 362.992 272.801 362.992C272.384 362.992 272.019 363.095 271.708 363.301C271.4 363.503 271.161 363.768 270.992 364.096C270.826 364.421 270.743 364.774 270.743 365.155V366.025C270.743 366.535 270.833 366.97 271.012 367.328C271.194 367.685 271.448 367.959 271.772 368.148C272.097 368.333 272.477 368.426 272.911 368.426C273.193 368.426 273.449 368.386 273.681 368.307C273.913 368.224 274.114 368.101 274.283 367.939C274.452 367.777 274.581 367.576 274.671 367.337L276.078 367.591C275.965 368.005 275.763 368.368 275.471 368.68C275.183 368.988 274.82 369.228 274.382 369.401C273.948 369.57 273.453 369.654 272.896 369.654ZM277.822 369.5V361.864H279.258V363.077H279.338C279.477 362.666 279.722 362.343 280.074 362.107C280.428 361.869 280.829 361.749 281.277 361.749C281.37 361.749 281.479 361.753 281.605 361.759C281.734 361.766 281.835 361.774 281.908 361.784V363.206C281.849 363.189 281.742 363.171 281.59 363.151C281.438 363.128 281.285 363.117 281.133 363.117C280.781 363.117 280.468 363.191 280.193 363.34C279.921 363.486 279.706 363.69 279.547 363.952C279.388 364.21 279.308 364.505 279.308 364.837V369.5H277.822ZM290.743 359.318V369.5H289.202V360.859H289.142L286.706 362.45V360.979L289.246 359.318H290.743Z" fill="#131520"/>
</g>
<rect x="448" y="352" width="24" height="24" rx="4" fill="#1757C2"/>
<path d="M457.16 368V367.046L460.113 363.986C460.428 363.654 460.688 363.362 460.893 363.112C461.1 362.859 461.255 362.619 461.357 362.392C461.46 362.165 461.511 361.923 461.511 361.668C461.511 361.378 461.442 361.128 461.306 360.918C461.17 360.705 460.984 360.541 460.748 360.428C460.512 360.311 460.246 360.253 459.951 360.253C459.638 360.253 459.366 360.317 459.133 360.445C458.9 360.573 458.721 360.753 458.596 360.986C458.471 361.219 458.408 361.492 458.408 361.804H457.151C457.151 361.273 457.273 360.808 457.518 360.411C457.762 360.013 458.097 359.705 458.523 359.486C458.95 359.264 459.434 359.154 459.977 359.154C460.525 359.154 461.008 359.263 461.425 359.482C461.846 359.698 462.174 359.993 462.41 360.368C462.646 360.74 462.763 361.161 462.763 361.629C462.763 361.953 462.702 362.27 462.58 362.58C462.461 362.889 462.252 363.234 461.954 363.615C461.656 363.993 461.241 364.452 460.71 364.992L458.975 366.807V366.871H462.904V368H457.16Z" fill="white"/>
<g clip-path="url(#clip1_110_1500)">
<path d="M480.616 360.641V359.318H488.496V360.641H485.32V369.5H483.788V360.641H480.616ZM490.118 369.5V361.864H491.605V369.5H490.118ZM490.869 360.685C490.611 360.685 490.389 360.599 490.203 360.427C490.021 360.251 489.93 360.042 489.93 359.801C489.93 359.555 490.021 359.346 490.203 359.174C490.389 358.998 490.611 358.911 490.869 358.911C491.128 358.911 491.348 358.998 491.53 359.174C491.716 359.346 491.809 359.555 491.809 359.801C491.809 360.042 491.716 360.251 491.53 360.427C491.348 360.599 491.128 360.685 490.869 360.685ZM496.896 369.654C496.144 369.654 495.496 369.493 494.952 369.172C494.412 368.847 493.994 368.391 493.699 367.805C493.408 367.215 493.262 366.524 493.262 365.732C493.262 364.949 493.408 364.26 493.699 363.663C493.994 363.067 494.405 362.601 494.932 362.266C495.462 361.932 496.082 361.764 496.792 361.764C497.222 361.764 497.64 361.836 498.044 361.978C498.449 362.121 498.812 362.344 499.133 362.649C499.455 362.954 499.708 363.35 499.894 363.837C500.079 364.321 500.172 364.91 500.172 365.602V366.129H494.102V365.016H498.716C498.716 364.625 498.636 364.278 498.477 363.977C498.318 363.672 498.094 363.431 497.806 363.256C497.521 363.08 497.186 362.992 496.801 362.992C496.384 362.992 496.019 363.095 495.708 363.301C495.4 363.503 495.161 363.768 494.992 364.096C494.826 364.421 494.743 364.774 494.743 365.155V366.025C494.743 366.535 494.833 366.97 495.012 367.328C495.194 367.685 495.448 367.959 495.772 368.148C496.097 368.333 496.477 368.426 496.911 368.426C497.193 368.426 497.449 368.386 497.681 368.307C497.913 368.224 498.114 368.101 498.283 367.939C498.452 367.777 498.581 367.576 498.671 367.337L500.078 367.591C499.965 368.005 499.763 368.368 499.471 368.68C499.183 368.988 498.82 369.228 498.382 369.401C497.948 369.57 497.453 369.654 496.896 369.654ZM501.822 369.5V361.864H503.258V363.077H503.338C503.477 362.666 503.722 362.343 504.074 362.107C504.428 361.869 504.829 361.749 505.277 361.749C505.37 361.749 505.479 361.753 505.605 361.759C505.734 361.766 505.835 361.774 505.908 361.784V363.206C505.849 363.189 505.742 363.171 505.59 363.151C505.438 363.128 505.285 363.117 505.133 363.117C504.781 363.117 504.468 363.191 504.193 363.34C503.921 363.486 503.706 363.69 503.547 363.952C503.388 364.21 503.308 364.505 503.308 364.837V369.5H501.822ZM510.88 369.5V368.386L514.325 364.817C514.693 364.429 514.996 364.089 515.235 363.798C515.477 363.503 515.657 363.223 515.777 362.957C515.896 362.692 515.956 362.411 515.956 362.112C515.956 361.774 515.876 361.483 515.717 361.237C515.558 360.989 515.341 360.798 515.066 360.666C514.791 360.53 514.481 360.462 514.136 360.462C513.772 360.462 513.453 360.536 513.182 360.685C512.91 360.835 512.701 361.045 512.555 361.317C512.409 361.589 512.336 361.907 512.336 362.271H510.87C510.87 361.652 511.012 361.11 511.297 360.646C511.582 360.182 511.974 359.822 512.471 359.567C512.968 359.308 513.533 359.179 514.166 359.179C514.806 359.179 515.369 359.307 515.856 359.562C516.347 359.814 516.73 360.158 517.005 360.596C517.28 361.03 517.417 361.521 517.417 362.068C517.417 362.445 517.346 362.815 517.204 363.176C517.064 363.537 516.821 363.94 516.473 364.384C516.125 364.825 515.641 365.36 515.021 365.99L512.998 368.108V368.183H517.581V369.5H510.88Z" fill="#131520"/>
</g>
<rect x="673" y="352" width="24" height="24" rx="4" fill="#1757C2"/>
<path d="M685.011 368.119C684.425 368.119 683.903 368.019 683.442 367.817C682.985 367.615 682.623 367.335 682.356 366.977C682.092 366.617 681.95 366.199 681.93 365.725H683.268C683.285 365.983 683.371 366.207 683.528 366.398C683.687 366.585 683.894 366.73 684.15 366.832C684.406 366.935 684.69 366.986 685.002 366.986C685.346 366.986 685.65 366.926 685.914 366.807C686.181 366.688 686.39 366.521 686.54 366.308C686.691 366.092 686.766 365.844 686.766 365.563C686.766 365.27 686.691 365.013 686.54 364.791C686.393 364.567 686.175 364.391 685.888 364.263C685.604 364.135 685.261 364.071 684.857 364.071H684.12V362.997H684.857C685.181 362.997 685.465 362.939 685.71 362.823C685.957 362.706 686.15 362.544 686.289 362.337C686.428 362.127 686.498 361.881 686.498 361.6C686.498 361.33 686.437 361.095 686.315 360.896C686.195 360.695 686.025 360.537 685.803 360.423C685.585 360.31 685.326 360.253 685.028 360.253C684.744 360.253 684.478 360.305 684.231 360.411C683.987 360.513 683.788 360.661 683.634 360.854C683.481 361.044 683.398 361.273 683.387 361.54H682.113C682.127 361.068 682.266 360.654 682.531 360.296C682.798 359.938 683.15 359.658 683.587 359.456C684.025 359.254 684.511 359.154 685.045 359.154C685.604 359.154 686.087 359.263 686.494 359.482C686.903 359.698 687.218 359.986 687.44 360.347C687.664 360.707 687.775 361.102 687.772 361.531C687.775 362.02 687.638 362.435 687.363 362.776C687.09 363.117 686.727 363.345 686.272 363.462V363.53C686.852 363.618 687.3 363.848 687.619 364.22C687.94 364.592 688.099 365.054 688.096 365.605C688.099 366.085 687.965 366.516 687.695 366.896C687.428 367.277 687.063 367.577 686.6 367.796C686.137 368.011 685.607 368.119 685.011 368.119Z" fill="white"/>
<g clip-path="url(#clip2_110_1500)">
<path d="M705.616 360.641V359.318H713.496V360.641H710.32V369.5H708.788V360.641H705.616ZM715.118 369.5V361.864H716.605V369.5H715.118ZM715.869 360.685C715.611 360.685 715.389 360.599 715.203 360.427C715.021 360.251 714.93 360.042 714.93 359.801C714.93 359.555 715.021 359.346 715.203 359.174C715.389 358.998 715.611 358.911 715.869 358.911C716.128 358.911 716.348 358.998 716.53 359.174C716.716 359.346 716.809 359.555 716.809 359.801C716.809 360.042 716.716 360.251 716.53 360.427C716.348 360.599 716.128 360.685 715.869 360.685ZM721.896 369.654C721.144 369.654 720.496 369.493 719.952 369.172C719.412 368.847 718.994 368.391 718.699 367.805C718.408 367.215 718.262 366.524 718.262 365.732C718.262 364.949 718.408 364.26 718.699 363.663C718.994 363.067 719.405 362.601 719.932 362.266C720.462 361.932 721.082 361.764 721.792 361.764C722.222 361.764 722.64 361.836 723.044 361.978C723.449 362.121 723.812 362.344 724.133 362.649C724.455 362.954 724.708 363.35 724.894 363.837C725.079 364.321 725.172 364.91 725.172 365.602V366.129H719.102V365.016H723.716C723.716 364.625 723.636 364.278 723.477 363.977C723.318 363.672 723.094 363.431 722.806 363.256C722.521 363.08 722.186 362.992 721.801 362.992C721.384 362.992 721.019 363.095 720.708 363.301C720.4 363.503 720.161 363.768 719.992 364.096C719.826 364.421 719.743 364.774 719.743 365.155V366.025C719.743 366.535 719.833 366.97 720.012 367.328C720.194 367.685 720.448 367.959 720.772 368.148C721.097 368.333 721.477 368.426 721.911 368.426C722.193 368.426 722.449 368.386 722.681 368.307C722.913 368.224 723.114 368.101 723.283 367.939C723.452 367.777 723.581 367.576 723.671 367.337L725.078 367.591C724.965 368.005 724.763 368.368 724.471 368.68C724.183 368.988 723.82 369.228 723.382 369.401C722.948 369.57 722.453 369.654 721.896 369.654ZM726.822 369.5V361.864H728.258V363.077H728.338C728.477 362.666 728.722 362.343 729.074 362.107C729.428 361.869 729.829 361.749 730.277 361.749C730.37 361.749 730.479 361.753 730.605 361.759C730.734 361.766 730.835 361.774 730.908 361.784V363.206C730.849 363.189 730.742 363.171 730.59 363.151C730.438 363.128 730.285 363.117 730.133 363.117C729.781 363.117 729.468 363.191 729.193 363.34C728.921 363.486 728.706 363.69 728.547 363.952C728.388 364.21 728.308 364.505 728.308 364.837V369.5H726.822ZM739.425 369.639C738.742 369.639 738.132 369.522 737.595 369.286C737.061 369.051 736.639 368.725 736.327 368.307C736.019 367.886 735.853 367.399 735.83 366.845H737.391C737.411 367.147 737.512 367.409 737.694 367.631C737.88 367.85 738.122 368.019 738.42 368.138C738.719 368.257 739.05 368.317 739.415 368.317C739.816 368.317 740.17 368.247 740.479 368.108C740.79 367.969 741.034 367.775 741.209 367.526C741.385 367.274 741.473 366.984 741.473 366.656C741.473 366.315 741.385 366.015 741.209 365.756C741.037 365.495 740.783 365.289 740.449 365.14C740.117 364.991 739.716 364.916 739.246 364.916H738.385V363.663H739.246C739.623 363.663 739.955 363.595 740.24 363.46C740.528 363.324 740.754 363.135 740.916 362.893C741.078 362.648 741.16 362.361 741.16 362.033C741.16 361.718 741.088 361.444 740.946 361.212C740.807 360.977 740.608 360.793 740.349 360.661C740.094 360.528 739.792 360.462 739.444 360.462C739.113 360.462 738.803 360.523 738.515 360.646C738.23 360.765 737.998 360.937 737.819 361.163C737.64 361.385 737.544 361.652 737.53 361.963H736.044C736.06 361.413 736.223 360.929 736.531 360.511C736.843 360.094 737.254 359.767 737.764 359.532C738.274 359.297 738.841 359.179 739.464 359.179C740.117 359.179 740.681 359.307 741.155 359.562C741.632 359.814 742 360.15 742.258 360.571C742.52 360.992 742.649 361.453 742.646 361.953C742.649 362.523 742.49 363.007 742.169 363.405C741.851 363.803 741.426 364.069 740.896 364.205V364.285C741.572 364.388 742.096 364.656 742.467 365.09C742.842 365.524 743.027 366.063 743.024 366.706C743.027 367.266 742.872 367.768 742.557 368.212C742.245 368.657 741.819 369.006 741.279 369.261C740.739 369.513 740.121 369.639 739.425 369.639Z" fill="#131520"/>
</g>
<rect x="888.5" y="352" width="24" height="24" rx="4" fill="#E8EEF9"/>
<g clip-path="url(#clip3_110_1500)">
<circle cx="900.5" cy="364" r="7" fill="#ECEDF3" stroke="#1757C2"/>
<path d="M903.938 364C903.938 364.313 903.687 364.563 903.375 364.563C900.182 364.563 901.075 364.563 897.625 364.563C897.313 364.563 897.062 364.313 897.062 364C897.062 363.688 897.313 363.438 897.625 363.438C901.177 363.438 900.103 363.438 903.375 363.438C903.687 363.438 903.938 363.688 903.938 364Z" fill="#1757C2"/>
</g>
<g clip-path="url(#clip4_110_1500)">
<path d="M928.166 359.318H929.707V366.015C929.707 366.728 929.54 367.359 929.205 367.909C928.871 368.456 928.4 368.887 927.793 369.202C927.187 369.513 926.476 369.669 925.661 369.669C924.848 369.669 924.139 369.513 923.533 369.202C922.926 368.887 922.455 368.456 922.121 367.909C921.786 367.359 921.619 366.728 921.619 366.015V359.318H923.155V365.891C923.155 366.351 923.256 366.761 923.458 367.119C923.664 367.477 923.954 367.758 924.328 367.964C924.703 368.166 925.147 368.267 925.661 368.267C926.178 368.267 926.623 368.166 926.998 367.964C927.376 367.758 927.664 367.477 927.863 367.119C928.065 366.761 928.166 366.351 928.166 365.891V359.318ZM933.308 364.966V369.5H931.822V361.864H933.248V363.107H933.343C933.519 362.702 933.794 362.377 934.168 362.132C934.546 361.887 935.022 361.764 935.595 361.764C936.115 361.764 936.571 361.874 936.962 362.092C937.353 362.308 937.657 362.629 937.872 363.057C938.087 363.484 938.195 364.013 938.195 364.643V369.5H936.709V364.822C936.709 364.268 936.564 363.836 936.276 363.524C935.988 363.209 935.592 363.052 935.088 363.052C934.743 363.052 934.437 363.127 934.168 363.276C933.903 363.425 933.693 363.644 933.537 363.932C933.384 364.217 933.308 364.562 933.308 364.966ZM943.753 361.864V363.057H939.582V361.864H943.753ZM940.701 360.034H942.187V367.258C942.187 367.546 942.23 367.763 942.317 367.909C942.403 368.052 942.514 368.149 942.65 368.203C942.789 368.252 942.94 368.277 943.102 368.277C943.221 368.277 943.326 368.269 943.415 368.252C943.505 368.236 943.574 368.222 943.624 368.212L943.893 369.44C943.806 369.474 943.684 369.507 943.525 369.54C943.366 369.576 943.167 369.596 942.928 369.6C942.537 369.606 942.172 369.537 941.834 369.391C941.496 369.245 941.223 369.02 941.014 368.715C940.805 368.41 940.701 368.027 940.701 367.566V360.034ZM945.398 369.5V361.864H946.884V369.5H945.398ZM946.148 360.685C945.89 360.685 945.668 360.599 945.482 360.427C945.3 360.251 945.209 360.042 945.209 359.801C945.209 359.555 945.3 359.346 945.482 359.174C945.668 358.998 945.89 358.911 946.148 358.911C946.407 358.911 946.627 358.998 946.81 359.174C946.995 359.346 947.088 359.555 947.088 359.801C947.088 360.042 946.995 360.251 946.81 360.427C946.627 360.599 946.407 360.685 946.148 360.685ZM952.175 369.654C951.423 369.654 950.775 369.493 950.231 369.172C949.691 368.847 949.273 368.391 948.979 367.805C948.687 367.215 948.541 366.524 948.541 365.732C948.541 364.949 948.687 364.26 948.979 363.663C949.273 363.067 949.684 362.601 950.211 362.266C950.742 361.932 951.362 361.764 952.071 361.764C952.502 361.764 952.919 361.836 953.324 361.978C953.728 362.121 954.091 362.344 954.412 362.649C954.734 362.954 954.988 363.35 955.173 363.837C955.359 364.321 955.452 364.91 955.452 365.602V366.129H949.381V365.016H953.995C953.995 364.625 953.915 364.278 953.756 363.977C953.597 363.672 953.373 363.431 953.085 363.256C952.8 363.08 952.465 362.992 952.081 362.992C951.663 362.992 951.299 363.095 950.987 363.301C950.679 363.503 950.44 363.768 950.271 364.096C950.105 364.421 950.023 364.774 950.023 365.155V366.025C950.023 366.535 950.112 366.97 950.291 367.328C950.473 367.685 950.727 367.959 951.052 368.148C951.376 368.333 951.756 368.426 952.19 368.426C952.472 368.426 952.729 368.386 952.961 368.307C953.193 368.224 953.393 368.101 953.562 367.939C953.731 367.777 953.861 367.576 953.95 367.337L955.357 367.591C955.244 368.005 955.042 368.368 954.751 368.68C954.462 368.988 954.099 369.228 953.662 369.401C953.228 369.57 952.732 369.654 952.175 369.654ZM957.101 369.5V361.864H958.538V363.077H958.617C958.756 362.666 959.002 362.343 959.353 362.107C959.708 361.869 960.109 361.749 960.556 361.749C960.649 361.749 960.758 361.753 960.884 361.759C961.013 361.766 961.115 361.774 961.188 361.784V363.206C961.128 363.189 961.022 363.171 960.869 363.151C960.717 363.128 960.564 363.117 960.412 363.117C960.061 363.117 959.747 363.191 959.472 363.34C959.201 363.486 958.985 363.69 958.826 363.952C958.667 364.21 958.587 364.505 958.587 364.837V369.5H957.101ZM965.492 369.654C964.739 369.654 964.091 369.493 963.548 369.172C963.008 368.847 962.59 368.391 962.295 367.805C962.003 367.215 961.857 366.524 961.857 365.732C961.857 364.949 962.003 364.26 962.295 363.663C962.59 363.067 963.001 362.601 963.528 362.266C964.058 361.932 964.678 361.764 965.387 361.764C965.818 361.764 966.236 361.836 966.64 361.978C967.044 362.121 967.407 362.344 967.729 362.649C968.05 362.954 968.304 363.35 968.49 363.837C968.675 364.321 968.768 364.91 968.768 365.602V366.129H962.698V365.016H967.311C967.311 364.625 967.232 364.278 967.073 363.977C966.914 363.672 966.69 363.431 966.401 363.256C966.116 363.08 965.782 362.992 965.397 362.992C964.98 362.992 964.615 363.095 964.303 363.301C963.995 363.503 963.757 363.768 963.588 364.096C963.422 364.421 963.339 364.774 963.339 365.155V366.025C963.339 366.535 963.428 366.97 963.607 367.328C963.79 367.685 964.043 367.959 964.368 368.148C964.693 368.333 965.072 368.426 965.507 368.426C965.788 368.426 966.045 368.386 966.277 368.307C966.509 368.224 966.71 368.101 966.879 367.939C967.048 367.777 967.177 367.576 967.267 367.337L968.673 367.591C968.561 368.005 968.359 368.368 968.067 368.68C967.779 368.988 967.416 369.228 966.978 369.401C966.544 369.57 966.048 369.654 965.492 369.654ZM973.276 369.649C972.659 369.649 972.109 369.492 971.625 369.177C971.145 368.859 970.767 368.406 970.492 367.82C970.22 367.23 970.084 366.522 970.084 365.697C970.084 364.872 970.222 364.166 970.497 363.579C970.775 362.992 971.156 362.543 971.64 362.232C972.124 361.92 972.673 361.764 973.286 361.764C973.76 361.764 974.141 361.844 974.429 362.003C974.721 362.159 974.946 362.341 975.105 362.55C975.268 362.759 975.394 362.943 975.483 363.102H975.573V359.318H977.059V369.5H975.608V368.312H975.483C975.394 368.474 975.265 368.66 975.096 368.869C974.93 369.078 974.701 369.26 974.409 369.416C974.118 369.571 973.74 369.649 973.276 369.649ZM973.604 368.381C974.032 368.381 974.393 368.269 974.688 368.043C974.986 367.815 975.212 367.498 975.364 367.094C975.52 366.689 975.598 366.219 975.598 365.682C975.598 365.152 975.521 364.688 975.369 364.29C975.217 363.892 974.993 363.582 974.698 363.36C974.403 363.138 974.038 363.027 973.604 363.027C973.157 363.027 972.784 363.143 972.485 363.375C972.187 363.607 971.962 363.924 971.809 364.325C971.66 364.726 971.586 365.178 971.586 365.682C971.586 366.192 971.662 366.651 971.814 367.059C971.967 367.467 972.192 367.79 972.49 368.029C972.792 368.264 973.163 368.381 973.604 368.381Z" fill="#131520"/>
</g>
<path d="M34.4588 131V122.273H35.7756V129.866H39.7301V131H34.4588ZM43.8871 131.132C43.2734 131.132 42.7379 130.991 42.2805 130.71C41.8232 130.429 41.468 130.035 41.2152 129.53C40.9624 129.024 40.8359 128.433 40.8359 127.757C40.8359 127.078 40.9624 126.484 41.2152 125.976C41.468 125.467 41.8232 125.072 42.2805 124.791C42.7379 124.51 43.2734 124.369 43.8871 124.369C44.5007 124.369 45.0362 124.51 45.4936 124.791C45.951 125.072 46.3061 125.467 46.5589 125.976C46.8118 126.484 46.9382 127.078 46.9382 127.757C46.9382 128.433 46.8118 129.024 46.5589 129.53C46.3061 130.035 45.951 130.429 45.4936 130.71C45.0362 130.991 44.5007 131.132 43.8871 131.132ZM43.8913 130.062C44.2891 130.062 44.6186 129.957 44.88 129.747C45.1413 129.537 45.3345 129.257 45.4595 128.908C45.5874 128.558 45.6513 128.173 45.6513 127.753C45.6513 127.335 45.5874 126.952 45.4595 126.602C45.3345 126.25 45.1413 125.967 44.88 125.754C44.6186 125.541 44.2891 125.435 43.8913 125.435C43.4908 125.435 43.1584 125.541 42.8942 125.754C42.6328 125.967 42.4382 126.25 42.3104 126.602C42.1854 126.952 42.1229 127.335 42.1229 127.753C42.1229 128.173 42.1854 128.558 42.3104 128.908C42.4382 129.257 42.6328 129.537 42.8942 129.747C43.1584 129.957 43.4908 130.062 43.8913 130.062ZM49.5803 131L47.6541 124.455H48.9709L50.2536 129.261H50.3175L51.6044 124.455H52.9212L54.1996 129.24H54.2635L55.5376 124.455H56.8544L54.9325 131H53.6328L52.3033 126.274H52.2053L50.8757 131H49.5803Z" fill="#131520"/>
<path d="M49.5 250.541H40.7727V247.43C40.7727 246.754 40.8892 246.193 41.1222 245.747C41.3551 245.298 41.6776 244.963 42.0895 244.741C42.4986 244.52 42.9716 244.409 43.5085 244.409C44.0426 244.409 44.5128 244.521 44.919 244.746C45.3224 244.967 45.6364 245.303 45.8608 245.751C46.0852 246.197 46.1974 246.758 46.1974 247.435V249.791H45.0639V247.554C45.0639 247.128 45.0028 246.781 44.8807 246.514C44.7585 246.244 44.581 246.047 44.348 245.922C44.1151 245.797 43.8352 245.734 43.5085 245.734C43.179 245.734 42.8935 245.798 42.652 245.926C42.4105 246.051 42.2259 246.249 42.098 246.518C41.9673 246.785 41.902 247.136 41.902 247.571V249.224H49.5V250.541ZM45.5625 246.233L49.5 244.077V245.577L45.5625 247.69V246.233ZM49.5 242.909H42.9545V241.635H49.5V242.909ZM41.9446 242.266C41.9446 242.487 41.8707 242.678 41.723 242.837C41.5724 242.993 41.3935 243.071 41.1861 243.071C40.9759 243.071 40.7969 242.993 40.6491 242.837C40.4986 242.678 40.4233 242.487 40.4233 242.266C40.4233 242.044 40.4986 241.855 40.6491 241.699C40.7969 241.54 40.9759 241.46 41.1861 241.46C41.3935 241.46 41.5724 241.54 41.723 241.699C41.8707 241.855 41.9446 242.044 41.9446 242.266ZM44.5526 235.016L44.7571 236.171C44.6094 236.219 44.4687 236.296 44.3352 236.401C44.2017 236.503 44.0923 236.642 44.0071 236.819C43.9219 236.995 43.8793 237.215 43.8793 237.479C43.8793 237.84 43.9602 238.141 44.1222 238.382C44.2812 238.624 44.4872 238.745 44.7401 238.745C44.9588 238.745 45.1349 238.664 45.2685 238.502C45.402 238.34 45.5114 238.078 45.5966 237.718L45.8352 236.678C45.9744 236.076 46.1889 235.627 46.4787 235.331C46.7685 235.036 47.1449 234.888 47.608 234.888C48 234.888 48.3494 235.002 48.6562 235.229C48.9602 235.453 49.1989 235.767 49.3722 236.171C49.5455 236.571 49.6321 237.036 49.6321 237.564C49.6321 238.297 49.4759 238.895 49.1634 239.358C48.848 239.821 48.4006 240.105 47.821 240.211L47.6335 238.979C47.9545 238.902 48.1974 238.745 48.3622 238.506C48.5241 238.267 48.6051 237.956 48.6051 237.573C48.6051 237.155 48.5185 236.821 48.3452 236.571C48.169 236.321 47.9545 236.196 47.7017 236.196C47.4972 236.196 47.3253 236.273 47.1861 236.426C47.0469 236.577 46.9418 236.809 46.8707 237.121L46.6278 238.229C46.4886 238.84 46.267 239.292 45.9631 239.584C45.6591 239.874 45.2741 240.019 44.8082 240.019C44.4219 240.019 44.0838 239.911 43.794 239.695C43.5043 239.479 43.2784 239.181 43.1165 238.8C42.9517 238.419 42.8693 237.983 42.8693 237.492C42.8693 236.784 43.0227 236.228 43.3295 235.821C43.6335 235.415 44.0412 235.147 44.5526 235.016ZM47.2798 232.315L45.7244 232.324V232.102L42.9545 229.494V227.969L46.108 230.943V231.143L47.2798 232.315ZM49.5 233.487H40.7727V232.213H49.5V233.487ZM49.5 229.354L46.3892 231.697L45.4986 230.82L49.5 227.79V229.354ZM49.5 223.529H40.7727V222.213H48.3665V218.258H49.5V223.529ZM49.6321 214.037C49.6321 214.682 49.4943 215.238 49.2188 215.703C48.9403 216.167 48.5497 216.524 48.0469 216.777C47.5412 217.027 46.9489 217.152 46.2699 217.152C45.5994 217.152 45.0085 217.027 44.4972 216.777C43.9858 216.524 43.5866 216.172 43.2997 215.72C43.0128 215.266 42.8693 214.735 42.8693 214.127C42.8693 213.757 42.9304 213.399 43.0526 213.053C43.1747 212.706 43.3665 212.395 43.6278 212.12C43.8892 211.844 44.2287 211.627 44.6463 211.468C45.0611 211.309 45.5653 211.229 46.1591 211.229H46.6108V216.432H45.6562V212.478C45.321 212.478 45.0241 212.546 44.7656 212.682C44.5043 212.819 44.2983 213.01 44.1477 213.257C43.9972 213.502 43.9219 213.789 43.9219 214.118C43.9219 214.476 44.0099 214.789 44.1861 215.056C44.3594 215.32 44.5866 215.524 44.8679 215.669C45.1463 215.811 45.4489 215.882 45.7756 215.882H46.5213C46.9588 215.882 47.331 215.806 47.6378 215.652C47.9446 215.496 48.179 215.279 48.3409 215C48.5 214.722 48.5795 214.397 48.5795 214.024C48.5795 213.783 48.5455 213.563 48.4773 213.364C48.4062 213.165 48.3011 212.993 48.1619 212.848C48.0227 212.703 47.8509 212.593 47.6463 212.516L47.8636 211.31C48.2187 211.407 48.5298 211.58 48.7969 211.83C49.0611 212.077 49.267 212.388 49.4148 212.763C49.5597 213.135 49.6321 213.56 49.6321 214.037ZM42.9545 204.403L49.5 206.777V208.141L42.9545 210.518V209.151L47.9915 207.493V207.425L42.9545 205.771V204.403ZM49.6321 200.608C49.6321 201.252 49.4943 201.808 49.2188 202.274C48.9403 202.737 48.5497 203.095 48.0469 203.348C47.5412 203.598 46.9489 203.723 46.2699 203.723C45.5994 203.723 45.0085 203.598 44.4972 203.348C43.9858 203.095 43.5866 202.743 43.2997 202.291C43.0128 201.836 42.8693 201.305 42.8693 200.697C42.8693 200.328 42.9304 199.97 43.0526 199.623C43.1747 199.277 43.3665 198.966 43.6278 198.69C43.8892 198.414 44.2287 198.197 44.6463 198.038C45.0611 197.879 45.5653 197.799 46.1591 197.799H46.6108V203.002H45.6562V199.048C45.321 199.048 45.0241 199.116 44.7656 199.252C44.5043 199.389 44.2983 199.581 44.1477 199.828C43.9972 200.072 43.9219 200.359 43.9219 200.689C43.9219 201.046 44.0099 201.359 44.1861 201.626C44.3594 201.89 44.5866 202.095 44.8679 202.24C45.1463 202.382 45.4489 202.453 45.7756 202.453H46.5213C46.9588 202.453 47.331 202.376 47.6378 202.223C47.9446 202.066 48.179 201.849 48.3409 201.571C48.5 201.292 48.5795 200.967 48.5795 200.595C48.5795 200.353 48.5455 200.133 48.4773 199.934C48.4062 199.735 48.3011 199.564 48.1619 199.419C48.0227 199.274 47.8509 199.163 47.6463 199.086L47.8636 197.88C48.2187 197.977 48.5298 198.15 48.7969 198.4C49.0611 198.647 49.267 198.958 49.4148 199.333C49.5597 199.706 49.6321 200.13 49.6321 200.608ZM40.7727 195.111H49.5V196.386H40.7727V195.111ZM44.5526 188.493L44.7571 189.647C44.6094 189.696 44.4687 189.772 44.3352 189.877C44.2017 189.98 44.0923 190.119 44.0071 190.295C43.9219 190.471 43.8793 190.691 43.8793 190.956C43.8793 191.316 43.9602 191.618 44.1222 191.859C44.2812 192.1 44.4872 192.221 44.7401 192.221C44.9588 192.221 45.1349 192.14 45.2685 191.978C45.402 191.816 45.5114 191.555 45.5966 191.194L45.8352 190.154C45.9744 189.552 46.1889 189.103 46.4787 188.808C46.7685 188.512 47.1449 188.365 47.608 188.365C48 188.365 48.3494 188.478 48.6562 188.706C48.9602 188.93 49.1989 189.244 49.3722 189.647C49.5455 190.048 49.6321 190.512 49.6321 191.041C49.6321 191.774 49.4759 192.372 49.1634 192.835C48.848 193.298 48.4006 193.582 47.821 193.687L47.6335 192.456C47.9545 192.379 48.1974 192.221 48.3622 191.983C48.5241 191.744 48.6051 191.433 48.6051 191.049C48.6051 190.632 48.5185 190.298 48.3452 190.048C48.169 189.798 47.9545 189.673 47.7017 189.673C47.4972 189.673 47.3253 189.75 47.1861 189.903C47.0469 190.054 46.9418 190.285 46.8707 190.598L46.6278 191.706C46.4886 192.316 46.267 192.768 45.9631 193.061C45.6591 193.35 45.2741 193.495 44.8082 193.495C44.4219 193.495 44.0838 193.387 43.794 193.171C43.5043 192.956 43.2784 192.657 43.1165 192.277C42.9517 191.896 42.8693 191.46 42.8693 190.968C42.8693 190.261 43.0227 189.704 43.3295 189.298C43.6335 188.892 44.0412 188.623 44.5526 188.493Z" fill="#131520"/>
<path d="M32.9588 316V307.273H34.2756V311.065H38.6264V307.273H39.9474V316H38.6264V312.195H34.2756V316H32.9588ZM41.7628 316V309.455H43.0369V316H41.7628ZM42.4062 308.445C42.1847 308.445 41.9943 308.371 41.8352 308.223C41.679 308.072 41.6009 307.893 41.6009 307.686C41.6009 307.476 41.679 307.297 41.8352 307.149C41.9943 306.999 42.1847 306.923 42.4062 306.923C42.6278 306.923 42.8168 306.999 42.973 307.149C43.1321 307.297 43.2116 307.476 43.2116 307.686C43.2116 307.893 43.1321 308.072 42.973 308.223C42.8168 308.371 42.6278 308.445 42.4062 308.445ZM47.4954 318.591C46.9755 318.591 46.5281 318.523 46.1531 318.386C45.7809 318.25 45.4769 318.07 45.2411 317.845C45.0053 317.621 44.8292 317.375 44.7127 317.108L45.8079 316.656C45.8846 316.781 45.9869 316.913 46.1147 317.053C46.2454 317.195 46.4215 317.315 46.6431 317.415C46.8675 317.514 47.1559 317.564 47.5082 317.564C47.9911 317.564 48.3903 317.446 48.7056 317.21C49.021 316.977 49.1786 316.605 49.1786 316.094V314.807H49.0977C49.021 314.946 48.9102 315.101 48.7653 315.271C48.6232 315.442 48.4272 315.589 48.1772 315.714C47.9272 315.839 47.6019 315.902 47.2013 315.902C46.6843 315.902 46.2184 315.781 45.8036 315.54C45.3917 315.295 45.065 314.936 44.8235 314.462C44.5849 313.984 44.4656 313.398 44.4656 312.702C44.4656 312.006 44.5835 311.409 44.8192 310.912C45.0579 310.415 45.3846 310.034 45.7994 309.77C46.2141 309.503 46.6843 309.369 47.2099 309.369C47.6161 309.369 47.9442 309.437 48.1942 309.574C48.4442 309.707 48.6388 309.864 48.7781 310.043C48.9201 310.222 49.0295 310.379 49.1062 310.516H49.1999V309.455H50.4485V316.145C50.4485 316.707 50.3178 317.169 50.0565 317.53C49.7951 317.891 49.4414 318.158 48.9954 318.331C48.5522 318.504 48.0522 318.591 47.4954 318.591ZM47.4826 314.845C47.8491 314.845 48.1587 314.76 48.4116 314.589C48.6673 314.416 48.8604 314.169 48.9911 313.848C49.1246 313.524 49.1914 313.136 49.1914 312.685C49.1914 312.244 49.1261 311.857 48.9954 311.521C48.8647 311.186 48.6729 310.925 48.4201 310.737C48.1673 310.547 47.8548 310.452 47.4826 310.452C47.0991 310.452 46.7795 310.551 46.5238 310.75C46.2681 310.946 46.0749 311.213 45.9442 311.551C45.8164 311.889 45.7525 312.267 45.7525 312.685C45.7525 313.114 45.8178 313.49 45.9485 313.814C46.0792 314.138 46.2724 314.391 46.5281 314.572C46.7866 314.754 47.1048 314.845 47.4826 314.845ZM53.4315 312.114V316H52.1573V307.273H53.4144V310.52H53.4954C53.6488 310.168 53.8832 309.888 54.1985 309.68C54.5138 309.473 54.9258 309.369 55.4343 309.369C55.8832 309.369 56.2752 309.462 56.6104 309.646C56.9485 309.831 57.2099 310.107 57.3945 310.473C57.582 310.837 57.6758 311.291 57.6758 311.837V316H56.4016V311.99C56.4016 311.51 56.2781 311.138 56.0309 310.874C55.7837 310.607 55.44 310.473 54.9996 310.473C54.6985 310.473 54.4286 310.537 54.19 310.665C53.9542 310.793 53.7681 310.98 53.6317 311.227C53.4982 311.472 53.4315 311.767 53.4315 312.114Z" fill="#131520"/>
<defs>
<clipPath id="clip0_110_1500">
<rect width="37" height="20" fill="white" transform="translate(256 354)"/>
</clipPath>
<clipPath id="clip1_110_1500">
<rect width="39" height="20" fill="white" transform="translate(480 354)"/>
</clipPath>
<clipPath id="clip2_110_1500">
<rect width="39" height="20" fill="white" transform="translate(705 354)"/>
</clipPath>
<clipPath id="clip3_110_1500">
<rect width="15" height="15" fill="white" transform="translate(893 356.5)"/>
</clipPath>
<clipPath id="clip4_110_1500">
<rect width="58" height="20" fill="white" transform="translate(920.5 354)"/>
</clipPath>
</defs>
</svg>
