<svg width="21" height="23" viewBox="0 0 21 23" fill="none" xmlns="http://www.w3.org/2000/svg">
<path d="M18.889 11.9317C18.256 13.3246 17.5325 14.6034 16.8769 15.6995C16.1986 16.8869 15.543 17.9602 14.7064 19.1476C14.3899 19.6043 14.0282 20.1067 13.6212 20.6319C12.5812 21.9335 10.9986 23.1209 9.25779 22.6414C7.49432 22.139 6.54476 20.5177 5.54999 19.1019C4.01261 16.9554 2.56566 14.6034 1.39002 12.0002C0.259591 9.48832 -0.780401 6.31423 0.824805 3.75669C1.25437 3.07163 1.81958 2.52359 2.45262 2.06689C2.88218 1.77003 3.35696 1.54168 3.83174 1.33616C7.13259 -0.0339503 11.2473 0.01172 14.6612 0.810951C15.7238 1.06214 16.7186 1.4275 17.6003 1.97555C18.1882 2.34091 18.7082 2.82045 19.1377 3.39133C19.7934 4.25906 20.1099 5.17247 20.2003 6.10871C20.449 8.0497 19.7255 10.1049 18.889 11.9317Z" fill="white"/>
</svg>
