<svg width="1084" height="239" viewBox="0 0 1084 239" fill="none" xmlns="http://www.w3.org/2000/svg">
<path d="M34.5824 33.9092L38.2259 44.5711H38.3729L42.0163 33.9092H44.1513L39.4403 47.0001H37.1584L32.4474 33.9092H34.5824ZM49.1355 47.1983C48.1681 47.1983 47.335 46.9916 46.6362 46.5782C45.9416 46.1606 45.4047 45.5747 45.0254 44.8204C44.6504 44.0619 44.4629 43.1734 44.4629 42.155C44.4629 41.1493 44.6504 40.2629 45.0254 39.4959C45.4047 38.7288 45.9331 38.1301 46.6106 37.6997C47.2924 37.2693 48.0893 37.0541 49.0012 37.0541C49.5552 37.0541 50.0922 37.1457 50.612 37.329C51.1319 37.5122 51.5985 37.7998 52.0119 38.1919C52.4252 38.5839 52.7512 39.0932 52.9899 39.7196C53.2285 40.3417 53.3478 41.0981 53.3478 41.9888V42.6663H45.5431V41.2345H51.475C51.475 40.7317 51.3727 40.2863 51.1681 39.8986C50.9636 39.5065 50.676 39.1976 50.3052 38.9717C49.9387 38.7459 49.5083 38.6329 49.014 38.6329C48.4771 38.6329 48.0083 38.765 47.6078 39.0292C47.2115 39.2892 46.9047 39.6301 46.6873 40.052C46.4743 40.4696 46.3677 40.9234 46.3677 41.4135V42.5321C46.3677 43.1883 46.4828 43.7466 46.7129 44.2068C46.9473 44.667 47.2733 45.0186 47.6909 45.2615C48.1085 45.5001 48.5964 45.6194 49.1547 45.6194C49.5169 45.6194 49.8471 45.5683 50.1454 45.466C50.4437 45.3595 50.7015 45.2018 50.9189 44.993C51.1362 44.7842 51.3024 44.5264 51.4174 44.2196L53.2264 44.5456C53.0815 45.0782 52.8216 45.5449 52.4466 45.9454C52.0758 46.3417 51.6092 46.6507 51.0467 46.8723C50.4885 47.0896 49.8514 47.1983 49.1355 47.1983ZM57.3796 41.1706V47.0001H55.4684V37.1819H57.3029V38.78H57.4244C57.6502 38.2601 58.0039 37.8425 58.4854 37.5271C58.9712 37.2118 59.5827 37.0541 60.32 37.0541C60.989 37.0541 61.5749 37.1947 62.0778 37.476C62.5806 37.753 62.9705 38.1663 63.2475 38.716C63.5245 39.2657 63.663 39.9454 63.663 40.7551V47.0001H61.7518V40.9852C61.7518 40.2736 61.5664 39.7175 61.1957 39.3169C60.8249 38.9121 60.3157 38.7096 59.668 38.7096C59.2248 38.7096 58.8306 38.8055 58.4854 38.9973C58.1445 39.189 57.8739 39.4703 57.6737 39.841C57.4776 40.2075 57.3796 40.6507 57.3796 41.1706ZM69.9016 47.1919C69.109 47.1919 68.4016 46.9895 67.7795 46.5846C67.1616 46.1755 66.6758 45.5939 66.3221 44.8396C65.9727 44.0811 65.7979 43.1713 65.7979 42.1102C65.7979 41.0491 65.9748 40.1415 66.3285 39.3872C66.6864 38.6329 67.1765 38.0555 67.7987 37.655C68.4208 37.2544 69.1261 37.0541 69.9144 37.0541C70.5238 37.0541 71.0138 37.1564 71.3846 37.3609C71.7596 37.5612 72.0494 37.7956 72.2539 38.064C72.4627 38.3325 72.6246 38.569 72.7397 38.7736H72.8548V33.9092H74.766V47.0001H72.8995V45.4724H72.7397C72.6246 45.6812 72.4585 45.9199 72.2411 46.1883C72.0281 46.4568 71.734 46.6912 71.359 46.8915C70.984 47.0917 70.4982 47.1919 69.9016 47.1919ZM70.3235 45.5619C70.8732 45.5619 71.3377 45.417 71.717 45.1273C72.1005 44.8332 72.3903 44.4263 72.5863 43.9064C72.7866 43.3865 72.8867 42.7814 72.8867 42.091C72.8867 41.4092 72.7887 40.8126 72.5927 40.3013C72.3967 39.7899 72.109 39.3915 71.7298 39.1059C71.3505 38.8204 70.8817 38.6777 70.3235 38.6777C69.7482 38.6777 69.2688 38.8268 68.8853 39.1251C68.5018 39.4234 68.212 39.8304 68.016 40.346C67.8242 40.8616 67.7283 41.4433 67.7283 42.091C67.7283 42.7473 67.8263 43.3375 68.0224 43.8616C68.2184 44.3858 68.5082 44.8013 68.8917 45.1081C69.2795 45.4106 69.7567 45.5619 70.3235 45.5619ZM81.6294 47.1983C80.709 47.1983 79.9057 46.9873 79.2196 46.5655C78.5336 46.1436 78.0009 45.5534 77.6216 44.7949C77.2424 44.0363 77.0527 43.15 77.0527 42.1358C77.0527 41.1173 77.2424 40.2267 77.6216 39.4639C78.0009 38.7011 78.5336 38.1088 79.2196 37.6869C79.9057 37.265 80.709 37.0541 81.6294 37.0541C82.5499 37.0541 83.3532 37.265 84.0392 37.6869C84.7253 38.1088 85.258 38.7011 85.6373 39.4639C86.0165 40.2267 86.2061 41.1173 86.2061 42.1358C86.2061 43.15 86.0165 44.0363 85.6373 44.7949C85.258 45.5534 84.7253 46.1436 84.0392 46.5655C83.3532 46.9873 82.5499 47.1983 81.6294 47.1983ZM81.6358 45.5939C82.2324 45.5939 82.7267 45.4362 83.1188 45.1209C83.5108 44.8055 83.8006 44.3858 83.9881 43.8616C84.1799 43.3375 84.2757 42.7601 84.2757 42.1294C84.2757 41.503 84.1799 40.9277 83.9881 40.4035C83.8006 39.8751 83.5108 39.4511 83.1188 39.1315C82.7267 38.8119 82.2324 38.6521 81.6358 38.6521C81.035 38.6521 80.5364 38.8119 80.1401 39.1315C79.748 39.4511 79.4561 39.8751 79.2644 40.4035C79.0769 40.9277 78.9831 41.503 78.9831 42.1294C78.9831 42.7601 79.0769 43.3375 79.2644 43.8616C79.4561 44.3858 79.748 44.8055 80.1401 45.1209C80.5364 45.4362 81.035 45.5939 81.6358 45.5939ZM88.3395 47.0001V37.1819H90.1868V38.7416H90.2891C90.468 38.2132 90.7834 37.7977 91.2351 37.4952C91.6911 37.1883 92.2067 37.0349 92.782 37.0349C92.9013 37.0349 93.0419 37.0392 93.2038 37.0477C93.37 37.0562 93.5 37.0669 93.5938 37.0797V38.9078C93.517 38.8865 93.3807 38.863 93.1847 38.8375C92.9886 38.8077 92.7926 38.7927 92.5966 38.7927C92.1449 38.7927 91.7422 38.8886 91.3885 39.0804C91.0391 39.2679 90.7621 39.53 90.5575 39.8666C90.353 40.199 90.2507 40.5782 90.2507 41.0044V47.0001H88.3395ZM100.165 47.0001V33.9092H104.831C105.845 33.9092 106.687 34.0839 107.356 34.4334C108.029 34.7828 108.532 35.2665 108.864 35.8844C109.197 36.498 109.363 37.2075 109.363 38.0129C109.363 38.814 109.195 39.5193 108.858 40.1287C108.526 40.7338 108.023 41.2047 107.349 41.5413C106.68 41.878 105.839 42.0463 104.825 42.0463H101.29V40.346H104.646C105.285 40.346 105.805 40.2544 106.205 40.0711C106.61 39.8879 106.906 39.6216 107.094 39.2721C107.281 38.9227 107.375 38.503 107.375 38.0129C107.375 37.5186 107.279 37.0903 107.087 36.7281C106.9 36.3659 106.604 36.0889 106.199 35.8971C105.798 35.7011 105.272 35.6031 104.62 35.6031H102.14V47.0001H100.165ZM106.627 41.0939L109.862 47.0001H107.612L104.441 41.0939H106.627ZM111.613 47.0001V37.1819H113.524V47.0001H111.613ZM112.578 35.667C112.246 35.667 111.96 35.5562 111.722 35.3346C111.487 35.1088 111.37 34.8403 111.37 34.5292C111.37 34.2139 111.487 33.9454 111.722 33.7238C111.96 33.498 112.246 33.3851 112.578 33.3851C112.911 33.3851 113.194 33.498 113.428 33.7238C113.667 33.9454 113.786 34.2139 113.786 34.5292C113.786 34.8403 113.667 35.1088 113.428 35.3346C113.194 35.5562 112.911 35.667 112.578 35.667ZM123.453 39.579L121.72 39.8858C121.648 39.6642 121.533 39.4532 121.375 39.253C121.222 39.0527 121.013 38.8886 120.749 38.7608C120.485 38.6329 120.154 38.569 119.758 38.569C119.217 38.569 118.765 38.6905 118.403 38.9334C118.041 39.172 117.86 39.4809 117.86 39.8602C117.86 40.1883 117.981 40.4525 118.224 40.6528C118.467 40.8531 118.859 41.0172 119.4 41.145L120.96 41.503C121.863 41.7118 122.536 42.0335 122.98 42.4682C123.423 42.9028 123.644 43.4675 123.644 44.1621C123.644 44.7501 123.474 45.2743 123.133 45.7345C122.796 46.1905 122.325 46.5484 121.72 46.8084C121.119 47.0683 120.423 47.1983 119.63 47.1983C118.531 47.1983 117.634 46.9639 116.939 46.4952C116.244 46.0221 115.818 45.351 115.661 44.4817L117.508 44.2004C117.623 44.6819 117.86 45.0463 118.218 45.2934C118.575 45.5363 119.042 45.6578 119.617 45.6578C120.244 45.6578 120.744 45.5278 121.119 45.2679C121.494 45.0037 121.682 44.6819 121.682 44.3027C121.682 43.9959 121.567 43.738 121.337 43.5292C121.111 43.3204 120.764 43.1628 120.295 43.0562L118.633 42.6919C117.717 42.4831 117.039 42.1507 116.6 41.6947C116.166 41.2388 115.948 40.6613 115.948 39.9625C115.948 39.3829 116.11 38.8758 116.434 38.4412C116.758 38.0065 117.205 37.6677 117.776 37.4248C118.347 37.1777 119.002 37.0541 119.739 37.0541C120.8 37.0541 121.635 37.2842 122.244 37.7444C122.854 38.2004 123.257 38.8119 123.453 39.579ZM127.504 43.6699L127.491 41.3368H127.823L131.735 37.1819H134.023L129.562 41.9121H129.261L127.504 43.6699ZM125.746 47.0001V33.9092H127.657V47.0001H125.746ZM131.946 47.0001L128.43 42.3339L129.747 40.998L134.292 47.0001H131.946ZM152.054 40.4547C152.054 41.8524 151.798 43.0541 151.287 44.0598C150.775 45.0612 150.074 45.8325 149.184 46.3737C148.297 46.9106 147.29 47.1791 146.16 47.1791C145.027 47.1791 144.015 46.9106 143.124 46.3737C142.238 45.8325 141.539 45.0591 141.028 44.0534C140.516 43.0477 140.26 41.8481 140.26 40.4547C140.26 39.0569 140.516 37.8574 141.028 36.8559C141.539 35.8503 142.238 35.079 143.124 34.542C144.015 34.0008 145.027 33.7302 146.16 33.7302C147.29 33.7302 148.297 34.0008 149.184 34.542C150.074 35.079 150.775 35.8503 151.287 36.8559C151.798 37.8574 152.054 39.0569 152.054 40.4547ZM150.098 40.4547C150.098 39.3893 149.925 38.4923 149.58 37.7636C149.239 37.0307 148.77 36.4767 148.174 36.1017C147.581 35.7224 146.91 35.5328 146.16 35.5328C145.406 35.5328 144.733 35.7224 144.14 36.1017C143.548 36.4767 143.079 37.0307 142.734 37.7636C142.393 38.4923 142.223 39.3893 142.223 40.4547C142.223 41.52 142.393 42.4192 142.734 43.1521C143.079 43.8808 143.548 44.4348 144.14 44.814C144.733 45.189 145.406 45.3765 146.16 45.3765C146.91 45.3765 147.581 45.189 148.174 44.814C148.77 44.4348 149.239 43.8808 149.58 43.1521C149.925 42.4192 150.098 41.52 150.098 40.4547ZM162.762 37.1819L159.202 47.0001H157.156L153.589 37.1819H155.641L158.128 44.7373H158.23L160.71 37.1819H162.762ZM168.456 47.1983C167.488 47.1983 166.655 46.9916 165.956 46.5782C165.262 46.1606 164.725 45.5747 164.346 44.8204C163.971 44.0619 163.783 43.1734 163.783 42.155C163.783 41.1493 163.971 40.2629 164.346 39.4959C164.725 38.7288 165.253 38.1301 165.931 37.6997C166.613 37.2693 167.41 37.0541 168.322 37.0541C168.876 37.0541 169.412 37.1457 169.932 37.329C170.452 37.5122 170.919 37.7998 171.332 38.1919C171.746 38.5839 172.072 39.0932 172.31 39.7196C172.549 40.3417 172.668 41.0981 172.668 41.9888V42.6663H164.863V41.2345H170.795C170.795 40.7317 170.693 40.2863 170.488 39.8986C170.284 39.5065 169.996 39.1976 169.626 38.9717C169.259 38.7459 168.829 38.6329 168.334 38.6329C167.797 38.6329 167.329 38.765 166.928 39.0292C166.532 39.2892 166.225 39.6301 166.008 40.052C165.795 40.4696 165.688 40.9234 165.688 41.4135V42.5321C165.688 43.1883 165.803 43.7466 166.033 44.2068C166.268 44.667 166.594 45.0186 167.011 45.2615C167.429 45.5001 167.917 45.6194 168.475 45.6194C168.837 45.6194 169.167 45.5683 169.466 45.466C169.764 45.3595 170.022 45.2018 170.239 44.993C170.456 44.7842 170.623 44.5264 170.738 44.2196L172.547 44.5456C172.402 45.0782 172.142 45.5449 171.767 45.9454C171.396 46.3417 170.93 46.6507 170.367 46.8723C169.809 47.0896 169.172 47.1983 168.456 47.1983ZM174.789 47.0001V37.1819H176.636V38.7416H176.738C176.917 38.2132 177.233 37.7977 177.684 37.4952C178.14 37.1883 178.656 37.0349 179.231 37.0349C179.35 37.0349 179.491 37.0392 179.653 37.0477C179.819 37.0562 179.949 37.0669 180.043 37.0797V38.9078C179.966 38.8865 179.83 38.863 179.634 38.8375C179.438 38.8077 179.242 38.7927 179.046 38.7927C178.594 38.7927 178.191 38.8886 177.838 39.0804C177.488 39.2679 177.211 39.53 177.007 39.8666C176.802 40.199 176.7 40.5782 176.7 41.0044V47.0001H174.789ZM190.395 37.1819L186.835 47.0001H184.789L181.222 37.1819H183.274L185.761 44.7373H185.863L188.343 37.1819H190.395ZM192.191 47.0001V37.1819H194.102V47.0001H192.191ZM193.156 35.667C192.824 35.667 192.538 35.5562 192.3 35.3346C192.065 35.1088 191.948 34.8403 191.948 34.5292C191.948 34.2139 192.065 33.9454 192.3 33.7238C192.538 33.498 192.824 33.3851 193.156 33.3851C193.489 33.3851 193.772 33.498 194.006 33.7238C194.245 33.9454 194.364 34.2139 194.364 34.5292C194.364 34.8403 194.245 35.1088 194.006 35.3346C193.772 35.5562 193.489 35.667 193.156 35.667ZM200.905 47.1983C199.938 47.1983 199.105 46.9916 198.406 46.5782C197.711 46.1606 197.174 45.5747 196.795 44.8204C196.42 44.0619 196.232 43.1734 196.232 42.155C196.232 41.1493 196.42 40.2629 196.795 39.4959C197.174 38.7288 197.703 38.1301 198.38 37.6997C199.062 37.2693 199.859 37.0541 200.771 37.0541C201.325 37.0541 201.862 37.1457 202.382 37.329C202.901 37.5122 203.368 37.7998 203.781 38.1919C204.195 38.5839 204.521 39.0932 204.759 39.7196C204.998 40.3417 205.117 41.0981 205.117 41.9888V42.6663H197.313V41.2345H203.244C203.244 40.7317 203.142 40.2863 202.938 39.8986C202.733 39.5065 202.445 39.1976 202.075 38.9717C201.708 38.7459 201.278 38.6329 200.784 38.6329C200.247 38.6329 199.778 38.765 199.377 39.0292C198.981 39.2892 198.674 39.6301 198.457 40.052C198.244 40.4696 198.137 40.9234 198.137 41.4135V42.5321C198.137 43.1883 198.252 43.7466 198.482 44.2068C198.717 44.667 199.043 45.0186 199.46 45.2615C199.878 45.5001 200.366 45.6194 200.924 45.6194C201.286 45.6194 201.617 45.5683 201.915 45.466C202.213 45.3595 202.471 45.2018 202.688 44.993C202.906 44.7842 203.072 44.5264 203.187 44.2196L204.996 44.5456C204.851 45.0782 204.591 45.5449 204.216 45.9454C203.845 46.3417 203.379 46.6507 202.816 46.8723C202.258 47.0896 201.621 47.1983 200.905 47.1983ZM209.349 47.0001L206.46 37.1819H208.435L210.359 44.3922H210.455L212.385 37.1819H214.36L216.278 44.3602H216.374L218.285 37.1819H220.26L217.377 47.0001H215.428L213.433 39.9113H213.286L211.292 47.0001H209.349Z" fill="#131520"/>
<line x1="-4.37114e-08" y1="79.5002" x2="1084" y2="79.5002" stroke="#ECEDF3"/>
<rect width="1084" height="88" transform="translate(0 80.0002)" fill="#F3F7FC"/>
<path d="M42.5 127.5H32.5C32.5 126.285 32.869 125.099 33.5581 124.098C34.2472 123.097 35.2239 122.329 36.359 121.895C37.4942 121.462 38.7342 121.383 39.915 121.67C41.0959 121.956 42.1619 122.595 42.972 123.5M51.47 122.605C50.533 121.941 49.4249 121.559 48.2775 121.506C47.1301 121.453 45.9915 121.73 44.997 122.305M42.25 116.25C42.25 118.321 40.5711 120 38.5 120C36.4289 120 34.75 118.321 34.75 116.25C34.75 114.179 36.4289 112.5 38.5 112.5C40.5711 112.5 42.25 114.179 42.25 116.25ZM51.75 116.25C51.75 118.321 50.0711 120 48 120C45.929 120 44.25 118.321 44.25 116.25C44.25 114.179 45.929 112.5 48 112.5C50.0711 112.5 51.75 114.179 51.75 116.25Z" stroke="#2C3238" stroke-linecap="round" stroke-linejoin="round"/>
<path d="M54.7943 129.971C54.4661 130.683 54.0909 131.336 53.751 131.897C53.3993 132.504 53.0593 133.052 52.6256 133.659C52.4614 133.892 52.2739 134.149 52.0629 134.418C51.5236 135.083 50.703 135.69 49.8003 135.445C48.8859 135.188 48.3936 134.359 47.8778 133.636C47.0806 132.539 46.3303 131.336 45.7208 130.006C45.1346 128.722 44.5953 127.1 45.4277 125.793C45.6504 125.442 45.9435 125.162 46.2717 124.929C46.4945 124.777 46.7406 124.66 46.9868 124.555C48.6984 123.855 50.832 123.878 52.6021 124.287C53.1531 124.415 53.6689 124.602 54.1261 124.882C54.4309 125.069 54.7005 125.314 54.9233 125.606C55.2632 126.049 55.4273 126.516 55.4742 126.995C55.6032 127.987 55.2281 129.037 54.7943 129.971Z" fill="#F3F7FC"/>
<path d="M48 129.25L49.5 130.5L52.5 127.5M54.7943 129.971C54.4661 130.683 54.0909 131.336 53.751 131.897C53.3993 132.504 53.0593 133.052 52.6256 133.659C52.4614 133.892 52.2739 134.149 52.0629 134.418C51.5236 135.083 50.703 135.69 49.8003 135.445C48.8859 135.188 48.3936 134.359 47.8778 133.636C47.0806 132.539 46.3303 131.336 45.7208 130.006C45.1346 128.722 44.5953 127.1 45.4277 125.793C45.6504 125.442 45.9435 125.162 46.2717 124.929C46.4945 124.777 46.7406 124.66 46.9868 124.555C48.6984 123.855 50.832 123.878 52.6021 124.287C53.1531 124.415 53.6689 124.602 54.1261 124.882C54.4309 125.069 54.7005 125.314 54.9233 125.606C55.2632 126.049 55.4273 126.516 55.4742 126.995C55.6032 127.987 55.2281 129.037 54.7943 129.971Z" stroke="#1757C2" stroke-linecap="round" stroke-linejoin="round"/>
<path d="M74.5824 117.909L78.2259 128.571H78.3729L82.0163 117.909H84.1513L79.4403 131H77.1584L72.4474 117.909H74.5824ZM89.1355 131.198C88.1681 131.198 87.335 130.992 86.6362 130.578C85.9416 130.161 85.4047 129.575 85.0254 128.821C84.6504 128.062 84.4629 127.174 84.4629 126.155C84.4629 125.149 84.6504 124.263 85.0254 123.496C85.4047 122.729 85.9331 122.13 86.6106 121.7C87.2924 121.269 88.0893 121.054 89.0012 121.054C89.5552 121.054 90.0922 121.146 90.612 121.329C91.1319 121.512 91.5985 121.8 92.0119 122.192C92.4252 122.584 92.7512 123.093 92.9899 123.72C93.2285 124.342 93.3478 125.098 93.3478 125.989V126.666H85.5431V125.235H91.475C91.475 124.732 91.3727 124.286 91.1681 123.899C90.9636 123.507 90.676 123.198 90.3052 122.972C89.9387 122.746 89.5083 122.633 89.014 122.633C88.4771 122.633 88.0083 122.765 87.6078 123.029C87.2115 123.289 86.9047 123.63 86.6873 124.052C86.4743 124.47 86.3677 124.924 86.3677 125.414V126.532C86.3677 127.188 86.4828 127.747 86.7129 128.207C86.9473 128.667 87.2733 129.019 87.6909 129.262C88.1085 129.5 88.5964 129.62 89.1547 129.62C89.5169 129.62 89.8471 129.568 90.1454 129.466C90.4437 129.36 90.7015 129.202 90.9189 128.993C91.1362 128.784 91.3024 128.527 91.4174 128.22L93.2264 128.546C93.0815 129.078 92.8216 129.545 92.4466 129.946C92.0758 130.342 91.6092 130.651 91.0467 130.872C90.4885 131.09 89.8514 131.198 89.1355 131.198ZM97.3796 125.171V131H95.4684V121.182H97.3029V122.78H97.4244C97.6502 122.26 98.0039 121.843 98.4854 121.527C98.9712 121.212 99.5827 121.054 100.32 121.054C100.989 121.054 101.575 121.195 102.078 121.476C102.581 121.753 102.971 122.166 103.248 122.716C103.525 123.266 103.663 123.946 103.663 124.755V131H101.752V124.985C101.752 124.274 101.566 123.718 101.196 123.317C100.825 122.912 100.316 122.71 99.668 122.71C99.2248 122.71 98.8306 122.806 98.4854 122.997C98.1445 123.189 97.8739 123.47 97.6737 123.841C97.4776 124.208 97.3796 124.651 97.3796 125.171ZM109.902 131.192C109.109 131.192 108.402 130.99 107.779 130.585C107.162 130.176 106.676 129.594 106.322 128.84C105.973 128.081 105.798 127.171 105.798 126.11C105.798 125.049 105.975 124.142 106.328 123.387C106.686 122.633 107.176 122.056 107.799 121.655C108.421 121.255 109.126 121.054 109.914 121.054C110.524 121.054 111.014 121.156 111.385 121.361C111.76 121.561 112.049 121.796 112.254 122.064C112.463 122.333 112.625 122.569 112.74 122.774H112.855V117.909H114.766V131H112.9V129.473H112.74C112.625 129.681 112.458 129.92 112.241 130.188C112.028 130.457 111.734 130.691 111.359 130.892C110.984 131.092 110.498 131.192 109.902 131.192ZM110.324 129.562C110.873 129.562 111.338 129.417 111.717 129.127C112.1 128.833 112.39 128.426 112.586 127.906C112.787 127.387 112.887 126.781 112.887 126.091C112.887 125.409 112.789 124.813 112.593 124.301C112.397 123.79 112.109 123.392 111.73 123.106C111.35 122.821 110.882 122.678 110.324 122.678C109.748 122.678 109.269 122.827 108.885 123.125C108.502 123.424 108.212 123.83 108.016 124.346C107.824 124.862 107.728 125.443 107.728 126.091C107.728 126.747 107.826 127.338 108.022 127.862C108.218 128.386 108.508 128.801 108.892 129.108C109.279 129.411 109.757 129.562 110.324 129.562ZM121.629 131.198C120.709 131.198 119.906 130.987 119.22 130.566C118.534 130.144 118.001 129.554 117.622 128.795C117.242 128.036 117.053 127.15 117.053 126.136C117.053 125.117 117.242 124.227 117.622 123.464C118.001 122.701 118.534 122.109 119.22 121.687C119.906 121.265 120.709 121.054 121.629 121.054C122.55 121.054 123.353 121.265 124.039 121.687C124.725 122.109 125.258 122.701 125.637 123.464C126.017 124.227 126.206 125.117 126.206 126.136C126.206 127.15 126.017 128.036 125.637 128.795C125.258 129.554 124.725 130.144 124.039 130.566C123.353 130.987 122.55 131.198 121.629 131.198ZM121.636 129.594C122.232 129.594 122.727 129.436 123.119 129.121C123.511 128.806 123.801 128.386 123.988 127.862C124.18 127.338 124.276 126.76 124.276 126.13C124.276 125.503 124.18 124.928 123.988 124.404C123.801 123.875 123.511 123.451 123.119 123.132C122.727 122.812 122.232 122.652 121.636 122.652C121.035 122.652 120.536 122.812 120.14 123.132C119.748 123.451 119.456 123.875 119.264 124.404C119.077 124.928 118.983 125.503 118.983 126.13C118.983 126.76 119.077 127.338 119.264 127.862C119.456 128.386 119.748 128.806 120.14 129.121C120.536 129.436 121.035 129.594 121.636 129.594ZM128.339 131V121.182H130.187V122.742H130.289C130.468 122.213 130.783 121.798 131.235 121.495C131.691 121.188 132.207 121.035 132.782 121.035C132.901 121.035 133.042 121.039 133.204 121.048C133.37 121.056 133.5 121.067 133.594 121.08V122.908C133.517 122.887 133.381 122.863 133.185 122.838C132.989 122.808 132.793 122.793 132.597 122.793C132.145 122.793 131.742 122.889 131.388 123.08C131.039 123.268 130.762 123.53 130.558 123.867C130.353 124.199 130.251 124.578 130.251 125.005V131H128.339ZM140.011 131V121.182H141.859V122.742H141.961C142.14 122.213 142.455 121.798 142.907 121.495C143.363 121.188 143.879 121.035 144.454 121.035C144.573 121.035 144.714 121.039 144.876 121.048C145.042 121.056 145.172 121.067 145.266 121.08V122.908C145.189 122.887 145.053 122.863 144.857 122.838C144.661 122.808 144.464 122.793 144.268 122.793C143.817 122.793 143.414 122.889 143.06 123.08C142.711 123.268 142.434 123.53 142.229 123.867C142.025 124.199 141.923 124.578 141.923 125.005V131H140.011ZM149.689 131.218C149.067 131.218 148.504 131.103 148.001 130.872C147.499 130.638 147.1 130.299 146.806 129.856C146.516 129.413 146.371 128.87 146.371 128.226C146.371 127.672 146.478 127.216 146.691 126.858C146.904 126.5 147.192 126.217 147.554 126.008C147.916 125.799 148.321 125.642 148.768 125.535C149.216 125.429 149.672 125.348 150.136 125.292C150.724 125.224 151.202 125.169 151.568 125.126C151.935 125.079 152.201 125.005 152.367 124.902C152.533 124.8 152.616 124.634 152.616 124.404V124.359C152.616 123.801 152.459 123.368 152.143 123.061C151.832 122.755 151.368 122.601 150.75 122.601C150.107 122.601 149.599 122.744 149.229 123.029C148.862 123.311 148.609 123.624 148.468 123.969L146.672 123.56C146.885 122.963 147.196 122.482 147.605 122.115C148.018 121.745 148.494 121.476 149.031 121.31C149.567 121.139 150.132 121.054 150.724 121.054C151.116 121.054 151.532 121.101 151.971 121.195C152.414 121.284 152.827 121.451 153.211 121.693C153.599 121.936 153.916 122.284 154.163 122.735C154.411 123.183 154.534 123.764 154.534 124.48V131H152.668V129.658H152.591C152.467 129.905 152.282 130.148 152.035 130.387C151.788 130.625 151.47 130.823 151.082 130.981C150.695 131.139 150.23 131.218 149.689 131.218ZM150.104 129.683C150.633 129.683 151.085 129.579 151.46 129.37C151.839 129.161 152.126 128.889 152.322 128.552C152.523 128.211 152.623 127.847 152.623 127.459V126.193C152.555 126.262 152.423 126.326 152.227 126.385C152.035 126.441 151.815 126.49 151.568 126.532C151.321 126.571 151.08 126.607 150.846 126.641C150.612 126.671 150.415 126.696 150.258 126.718C149.887 126.764 149.548 126.843 149.241 126.954C148.939 127.065 148.696 127.225 148.513 127.433C148.334 127.638 148.244 127.911 148.244 128.252C148.244 128.725 148.419 129.083 148.768 129.326C149.118 129.564 149.563 129.683 150.104 129.683ZM161.663 121.182V122.716H156.3V121.182H161.663ZM157.738 118.83H159.649V128.117C159.649 128.488 159.705 128.767 159.816 128.955C159.926 129.138 160.069 129.264 160.244 129.332C160.423 129.396 160.617 129.428 160.825 129.428C160.979 129.428 161.113 129.417 161.228 129.396C161.343 129.375 161.433 129.357 161.497 129.345L161.842 130.924C161.731 130.966 161.573 131.009 161.369 131.051C161.164 131.098 160.909 131.124 160.602 131.128C160.099 131.137 159.63 131.047 159.195 130.86C158.761 130.672 158.409 130.382 158.141 129.99C157.872 129.598 157.738 129.106 157.738 128.514V118.83ZM163.777 131V121.182H165.688V131H163.777ZM164.742 119.667C164.41 119.667 164.124 119.556 163.886 119.335C163.651 119.109 163.534 118.84 163.534 118.529C163.534 118.214 163.651 117.946 163.886 117.724C164.124 117.498 164.41 117.385 164.742 117.385C165.075 117.385 165.358 117.498 165.592 117.724C165.831 117.946 165.95 118.214 165.95 118.529C165.95 118.84 165.831 119.109 165.592 119.335C165.358 119.556 165.075 119.667 164.742 119.667ZM170.171 125.171V131H168.259V121.182H170.094V122.78H170.215C170.441 122.26 170.795 121.843 171.276 121.527C171.762 121.212 172.374 121.054 173.111 121.054C173.78 121.054 174.366 121.195 174.869 121.476C175.372 121.753 175.762 122.166 176.039 122.716C176.316 123.266 176.454 123.946 176.454 124.755V131H174.543V124.985C174.543 124.274 174.357 123.718 173.987 123.317C173.616 122.912 173.107 122.71 172.459 122.71C172.016 122.71 171.622 122.806 171.276 122.997C170.936 123.189 170.665 123.47 170.465 123.841C170.269 124.208 170.171 124.651 170.171 125.171ZM183.134 134.887C182.354 134.887 181.683 134.784 181.12 134.58C180.562 134.375 180.106 134.105 179.752 133.768C179.399 133.431 179.134 133.063 178.96 132.662L180.602 131.985C180.718 132.172 180.871 132.37 181.063 132.579C181.259 132.792 181.523 132.973 181.855 133.122C182.192 133.272 182.624 133.346 183.153 133.346C183.877 133.346 184.476 133.169 184.949 132.816C185.422 132.466 185.659 131.908 185.659 131.141V129.21H185.537C185.422 129.419 185.256 129.652 185.039 129.907C184.825 130.163 184.531 130.384 184.156 130.572C183.781 130.759 183.294 130.853 182.693 130.853C181.917 130.853 181.218 130.672 180.596 130.31C179.978 129.943 179.488 129.404 179.126 128.693C178.768 127.977 178.589 127.097 178.589 126.053C178.589 125.009 178.766 124.114 179.119 123.368C179.477 122.622 179.968 122.051 180.59 121.655C181.212 121.255 181.917 121.054 182.705 121.054C183.315 121.054 183.807 121.156 184.182 121.361C184.557 121.561 184.849 121.796 185.058 122.064C185.271 122.333 185.435 122.569 185.55 122.774H185.691V121.182H187.563V131.218C187.563 132.061 187.367 132.754 186.975 133.295C186.583 133.836 186.053 134.237 185.384 134.497C184.719 134.757 183.969 134.887 183.134 134.887ZM183.115 129.268C183.664 129.268 184.129 129.14 184.508 128.884C184.892 128.625 185.181 128.254 185.377 127.772C185.578 127.286 185.678 126.705 185.678 126.027C185.678 125.367 185.58 124.785 185.384 124.282C185.188 123.779 184.9 123.387 184.521 123.106C184.142 122.821 183.673 122.678 183.115 122.678C182.539 122.678 182.06 122.827 181.676 123.125C181.293 123.419 181.003 123.82 180.807 124.327C180.615 124.834 180.519 125.401 180.519 126.027C180.519 126.671 180.617 127.235 180.813 127.721C181.009 128.207 181.299 128.586 181.683 128.859C182.07 129.132 182.548 129.268 183.115 129.268ZM197.484 123.579L195.752 123.886C195.679 123.664 195.564 123.453 195.406 123.253C195.253 123.053 195.044 122.889 194.78 122.761C194.516 122.633 194.186 122.569 193.789 122.569C193.248 122.569 192.796 122.691 192.434 122.933C192.072 123.172 191.891 123.481 191.891 123.86C191.891 124.188 192.012 124.453 192.255 124.653C192.498 124.853 192.89 125.017 193.431 125.145L194.991 125.503C195.894 125.712 196.568 126.034 197.011 126.468C197.454 126.903 197.676 127.468 197.676 128.162C197.676 128.75 197.505 129.274 197.164 129.735C196.828 130.191 196.357 130.549 195.752 130.808C195.151 131.068 194.454 131.198 193.661 131.198C192.562 131.198 191.665 130.964 190.97 130.495C190.276 130.022 189.85 129.351 189.692 128.482L191.539 128.201C191.654 128.682 191.891 129.046 192.249 129.294C192.607 129.536 193.073 129.658 193.649 129.658C194.275 129.658 194.776 129.528 195.151 129.268C195.526 129.004 195.713 128.682 195.713 128.303C195.713 127.996 195.598 127.738 195.368 127.529C195.142 127.321 194.795 127.163 194.326 127.056L192.664 126.692C191.748 126.483 191.07 126.151 190.632 125.695C190.197 125.239 189.98 124.661 189.98 123.963C189.98 123.383 190.142 122.876 190.465 122.441C190.789 122.007 191.237 121.668 191.808 121.425C192.379 121.178 193.033 121.054 193.77 121.054C194.831 121.054 195.666 121.284 196.276 121.745C196.885 122.201 197.288 122.812 197.484 123.579Z" fill="#131520"/>
<line x1="-4.37114e-08" y1="167.5" x2="1084" y2="167.5" stroke="#ECEDF3"/>
<rect width="1084" height="88" transform="translate(0 168)" fill="white"/>
<path d="M44.3111 210.166H42.3168C42.2401 209.74 42.0973 209.365 41.8885 209.041C41.6797 208.718 41.424 208.443 41.1214 208.217C40.8189 207.991 40.4801 207.821 40.1051 207.705C39.7344 207.59 39.3402 207.533 38.9226 207.533C38.1683 207.533 37.4929 207.723 36.8963 208.102C36.304 208.481 35.8352 209.037 35.4901 209.77C35.1491 210.503 34.9787 211.398 34.9787 212.455C34.9787 213.52 35.1491 214.419 35.4901 215.152C35.8352 215.885 36.3061 216.439 36.9027 216.814C37.4993 217.189 38.1705 217.377 38.9162 217.377C39.3295 217.377 39.7216 217.321 40.0923 217.21C40.4673 217.095 40.8061 216.927 41.1087 216.705C41.4112 216.484 41.6669 216.213 41.8757 215.894C42.0888 215.57 42.2358 215.199 42.3168 214.781L44.3111 214.788C44.2045 215.431 43.9979 216.024 43.6911 216.565C43.3885 217.102 42.9986 217.566 42.5213 217.958C42.0483 218.346 41.5071 218.647 40.8977 218.86C40.2884 219.073 39.6236 219.179 38.9034 219.179C37.7699 219.179 36.7599 218.911 35.8736 218.374C34.9872 217.833 34.2884 217.059 33.777 216.054C33.2699 215.048 33.0163 213.848 33.0163 212.455C33.0163 211.057 33.272 209.857 33.7834 208.856C34.2947 207.85 34.9936 207.079 35.88 206.542C36.7663 206.001 37.7741 205.73 38.9034 205.73C39.598 205.73 40.2457 205.83 40.8466 206.031C41.4517 206.227 41.995 206.517 42.4766 206.9C42.9581 207.279 43.3565 207.744 43.6719 208.294C43.9872 208.839 44.2003 209.463 44.3111 210.166ZM52.7406 214.929V209.182H54.6582V219H52.7789V217.3H52.6767C52.4508 217.824 52.0886 218.261 51.59 218.61C51.0957 218.955 50.4799 219.128 49.7427 219.128C49.112 219.128 48.5538 218.99 48.068 218.713C47.5865 218.431 47.2072 218.016 46.9302 217.466C46.6575 216.916 46.5211 216.237 46.5211 215.427V209.182H48.4324V215.197C48.4324 215.866 48.6177 216.399 48.9885 216.795C49.3592 217.191 49.8407 217.389 50.4331 217.389C50.791 217.389 51.1468 217.3 51.5005 217.121C51.8585 216.942 52.1547 216.671 52.389 216.309C52.6277 215.947 52.7449 215.487 52.7406 214.929ZM57.2262 219V209.182H59.0735V210.742H59.1758C59.3548 210.213 59.6701 209.798 60.1218 209.495C60.5778 209.188 61.0934 209.035 61.6687 209.035C61.788 209.035 61.9286 209.039 62.0906 209.048C62.2567 209.056 62.3867 209.067 62.4805 209.08V210.908C62.4038 210.887 62.2674 210.863 62.0714 210.838C61.8754 210.808 61.6793 210.793 61.4833 210.793C61.0316 210.793 60.6289 210.889 60.2752 211.08C59.9258 211.268 59.6488 211.53 59.4442 211.867C59.2397 212.199 59.1374 212.578 59.1374 213.005V219H57.2262ZM64.1344 219V209.182H65.9817V210.742H66.084C66.263 210.213 66.5783 209.798 67.03 209.495C67.486 209.188 68.0016 209.035 68.5769 209.035C68.6962 209.035 68.8368 209.039 68.9988 209.048C69.165 209.056 69.2949 209.067 69.3887 209.08V210.908C69.312 210.887 69.1756 210.863 68.9796 210.838C68.7836 210.808 68.5875 210.793 68.3915 210.793C67.9398 210.793 67.5371 210.889 67.1834 211.08C66.834 211.268 66.557 211.53 66.3525 211.867C66.1479 212.199 66.0456 212.578 66.0456 213.005V219H64.1344ZM74.9226 219.198C73.9553 219.198 73.1222 218.992 72.4233 218.578C71.7287 218.161 71.1918 217.575 70.8125 216.821C70.4375 216.062 70.25 215.174 70.25 214.155C70.25 213.149 70.4375 212.263 70.8125 211.496C71.1918 210.729 71.7202 210.13 72.3977 209.7C73.0795 209.269 73.8764 209.054 74.7884 209.054C75.3423 209.054 75.8793 209.146 76.3991 209.329C76.919 209.512 77.3857 209.8 77.799 210.192C78.2124 210.584 78.5384 211.093 78.777 211.72C79.0156 212.342 79.1349 213.098 79.1349 213.989V214.666H71.3303V213.235H77.2621C77.2621 212.732 77.1598 212.286 76.9553 211.899C76.7507 211.507 76.4631 211.198 76.0923 210.972C75.7259 210.746 75.2955 210.633 74.8011 210.633C74.2642 210.633 73.7955 210.765 73.3949 211.029C72.9986 211.289 72.6918 211.63 72.4744 212.052C72.2614 212.47 72.1548 212.924 72.1548 213.414V214.532C72.1548 215.188 72.2699 215.747 72.5 216.207C72.7344 216.667 73.0604 217.019 73.478 217.262C73.8956 217.5 74.3835 217.62 74.9418 217.62C75.304 217.62 75.6342 217.568 75.9325 217.466C76.2308 217.36 76.4886 217.202 76.706 216.993C76.9233 216.784 77.0895 216.527 77.2045 216.22L79.0135 216.546C78.8686 217.078 78.6087 217.545 78.2337 217.946C77.8629 218.342 77.3963 218.651 76.8338 218.872C76.2756 219.09 75.6385 219.198 74.9226 219.198ZM83.1667 213.171V219H81.2555V209.182H83.09V210.78H83.2115C83.4373 210.26 83.791 209.843 84.2725 209.527C84.7583 209.212 85.3699 209.054 86.1071 209.054C86.7761 209.054 87.362 209.195 87.8649 209.476C88.3677 209.753 88.7576 210.166 89.0346 210.716C89.3116 211.266 89.4501 211.946 89.4501 212.755V219H87.5389V212.985C87.5389 212.274 87.3535 211.718 86.9828 211.317C86.612 210.912 86.1028 210.71 85.4551 210.71C85.0119 210.71 84.6177 210.806 84.2725 210.997C83.9316 211.189 83.661 211.47 83.4608 211.841C83.2647 212.208 83.1667 212.651 83.1667 213.171ZM96.5964 209.182V210.716H91.2335V209.182H96.5964ZM92.6717 206.83H94.5829V216.117C94.5829 216.488 94.6383 216.767 94.7491 216.955C94.8599 217.138 95.0027 217.264 95.1774 217.332C95.3564 217.396 95.5502 217.428 95.7591 217.428C95.9125 217.428 96.0467 217.417 96.1618 217.396C96.2768 217.375 96.3663 217.357 96.4302 217.345L96.7754 218.924C96.6646 218.966 96.5069 219.009 96.3024 219.051C96.0978 219.098 95.8422 219.124 95.5353 219.128C95.0325 219.137 94.5637 219.047 94.1291 218.86C93.6944 218.672 93.3429 218.382 93.0744 217.99C92.8059 217.598 92.6717 217.106 92.6717 216.514V206.83ZM104.733 219H102.637L107.348 205.909H109.63L114.341 219H112.244L108.543 208.287H108.441L104.733 219ZM105.085 213.874H111.886V215.536H105.085V213.874ZM123.246 209.182L119.686 219H117.641L114.074 209.182H116.126L118.612 216.737H118.714L121.195 209.182H123.246ZM128.94 219.198C127.973 219.198 127.14 218.992 126.441 218.578C125.746 218.161 125.209 217.575 124.83 216.821C124.455 216.062 124.268 215.174 124.268 214.155C124.268 213.149 124.455 212.263 124.83 211.496C125.209 210.729 125.738 210.13 126.415 209.7C127.097 209.269 127.894 209.054 128.806 209.054C129.36 209.054 129.897 209.146 130.417 209.329C130.937 209.512 131.403 209.8 131.817 210.192C132.23 210.584 132.556 211.093 132.795 211.72C133.033 212.342 133.153 213.098 133.153 213.989V214.666H125.348V213.235H131.28C131.28 212.732 131.177 212.286 130.973 211.899C130.768 211.507 130.481 211.198 130.11 210.972C129.743 210.746 129.313 210.633 128.819 210.633C128.282 210.633 127.813 210.765 127.412 211.029C127.016 211.289 126.709 211.63 126.492 212.052C126.279 212.47 126.172 212.924 126.172 213.414V214.532C126.172 215.188 126.287 215.747 126.518 216.207C126.752 216.667 127.078 217.019 127.496 217.262C127.913 217.5 128.401 217.62 128.959 217.62C129.322 217.62 129.652 217.568 129.95 217.466C130.248 217.36 130.506 217.202 130.724 216.993C130.941 216.784 131.107 216.527 131.222 216.22L133.031 216.546C132.886 217.078 132.626 217.545 132.251 217.946C131.881 218.342 131.414 218.651 130.851 218.872C130.293 219.09 129.656 219.198 128.94 219.198ZM135.273 219V209.182H137.12V210.742H137.223C137.402 210.213 137.717 209.798 138.169 209.495C138.625 209.188 139.14 209.035 139.716 209.035C139.835 209.035 139.975 209.039 140.137 209.048C140.304 209.056 140.434 209.067 140.527 209.08V210.908C140.451 210.887 140.314 210.863 140.118 210.838C139.922 210.808 139.726 210.793 139.53 210.793C139.078 210.793 138.676 210.889 138.322 211.08C137.973 211.268 137.696 211.53 137.491 211.867C137.287 212.199 137.184 212.578 137.184 213.005V219H135.273ZM144.951 219.218C144.328 219.218 143.766 219.103 143.263 218.872C142.76 218.638 142.362 218.299 142.068 217.856C141.778 217.413 141.633 216.87 141.633 216.226C141.633 215.672 141.74 215.216 141.953 214.858C142.166 214.5 142.453 214.217 142.816 214.008C143.178 213.799 143.583 213.642 144.03 213.535C144.478 213.429 144.934 213.348 145.398 213.292C145.986 213.224 146.463 213.169 146.83 213.126C147.196 213.079 147.463 213.005 147.629 212.902C147.795 212.8 147.878 212.634 147.878 212.404V212.359C147.878 211.801 147.721 211.368 147.405 211.061C147.094 210.755 146.63 210.601 146.012 210.601C145.368 210.601 144.861 210.744 144.49 211.029C144.124 211.311 143.87 211.624 143.73 211.969L141.934 211.56C142.147 210.963 142.458 210.482 142.867 210.115C143.28 209.745 143.755 209.476 144.292 209.31C144.829 209.139 145.394 209.054 145.986 209.054C146.378 209.054 146.794 209.101 147.233 209.195C147.676 209.284 148.089 209.451 148.473 209.693C148.86 209.936 149.178 210.284 149.425 210.735C149.672 211.183 149.796 211.764 149.796 212.48V219H147.929V217.658H147.853C147.729 217.905 147.544 218.148 147.297 218.387C147.049 218.625 146.732 218.823 146.344 218.981C145.956 219.139 145.492 219.218 144.951 219.218ZM145.366 217.683C145.895 217.683 146.346 217.579 146.721 217.37C147.1 217.161 147.388 216.889 147.584 216.552C147.784 216.211 147.885 215.847 147.885 215.459V214.193C147.816 214.262 147.684 214.326 147.488 214.385C147.297 214.441 147.077 214.49 146.83 214.532C146.583 214.571 146.342 214.607 146.108 214.641C145.873 214.671 145.677 214.696 145.52 214.718C145.149 214.764 144.81 214.843 144.503 214.954C144.201 215.065 143.958 215.225 143.775 215.433C143.596 215.638 143.506 215.911 143.506 216.252C143.506 216.725 143.681 217.083 144.03 217.326C144.38 217.564 144.825 217.683 145.366 217.683ZM156.458 222.887C155.678 222.887 155.007 222.784 154.444 222.58C153.886 222.375 153.43 222.105 153.077 221.768C152.723 221.431 152.459 221.063 152.284 220.662L153.927 219.985C154.042 220.172 154.195 220.37 154.387 220.579C154.583 220.792 154.847 220.973 155.18 221.122C155.516 221.272 155.949 221.346 156.477 221.346C157.202 221.346 157.8 221.169 158.273 220.816C158.746 220.466 158.983 219.908 158.983 219.141V217.21H158.861C158.746 217.419 158.58 217.652 158.363 217.907C158.15 218.163 157.856 218.384 157.481 218.572C157.106 218.759 156.618 218.853 156.017 218.853C155.241 218.853 154.542 218.672 153.92 218.31C153.302 217.943 152.812 217.404 152.45 216.693C152.092 215.977 151.913 215.097 151.913 214.053C151.913 213.009 152.09 212.114 152.444 211.368C152.802 210.622 153.292 210.051 153.914 209.655C154.536 209.255 155.241 209.054 156.03 209.054C156.639 209.054 157.131 209.156 157.506 209.361C157.881 209.561 158.173 209.796 158.382 210.064C158.595 210.333 158.759 210.569 158.874 210.774H159.015V209.182H160.888V219.218C160.888 220.061 160.692 220.754 160.3 221.295C159.907 221.836 159.377 222.237 158.708 222.497C158.043 222.757 157.293 222.887 156.458 222.887ZM156.439 217.268C156.988 217.268 157.453 217.14 157.832 216.884C158.216 216.625 158.506 216.254 158.702 215.772C158.902 215.286 159.002 214.705 159.002 214.027C159.002 213.367 158.904 212.785 158.708 212.282C158.512 211.779 158.224 211.387 157.845 211.106C157.466 210.821 156.997 210.678 156.439 210.678C155.863 210.678 155.384 210.827 155.001 211.125C154.617 211.419 154.327 211.82 154.131 212.327C153.939 212.834 153.844 213.401 153.844 214.027C153.844 214.671 153.942 215.235 154.138 215.721C154.334 216.207 154.623 216.586 155.007 216.859C155.395 217.132 155.872 217.268 156.439 217.268ZM167.682 219.198C166.715 219.198 165.882 218.992 165.183 218.578C164.488 218.161 163.952 217.575 163.572 216.821C163.197 216.062 163.01 215.174 163.01 214.155C163.01 213.149 163.197 212.263 163.572 211.496C163.952 210.729 164.48 210.13 165.157 209.7C165.839 209.269 166.636 209.054 167.548 209.054C168.102 209.054 168.639 209.146 169.159 209.329C169.679 209.512 170.145 209.8 170.559 210.192C170.972 210.584 171.298 211.093 171.537 211.72C171.775 212.342 171.895 213.098 171.895 213.989V214.666H164.09V213.235H170.022C170.022 212.732 169.92 212.286 169.715 211.899C169.51 211.507 169.223 211.198 168.852 210.972C168.486 210.746 168.055 210.633 167.561 210.633C167.024 210.633 166.555 210.765 166.155 211.029C165.758 211.289 165.452 211.63 165.234 212.052C165.021 212.47 164.915 212.924 164.915 213.414V214.532C164.915 215.188 165.03 215.747 165.26 216.207C165.494 216.667 165.82 217.019 166.238 217.262C166.655 217.5 167.143 217.62 167.702 217.62C168.064 217.62 168.394 217.568 168.692 217.466C168.991 217.36 169.248 217.202 169.466 216.993C169.683 216.784 169.849 216.527 169.964 216.22L171.773 216.546C171.628 217.078 171.368 217.545 170.993 217.946C170.623 218.342 170.156 218.651 169.594 218.872C169.035 219.09 168.398 219.198 167.682 219.198ZM178.932 219V205.909H183.599C184.613 205.909 185.454 206.084 186.123 206.433C186.797 206.783 187.3 207.267 187.632 207.884C187.964 208.498 188.131 209.208 188.131 210.013C188.131 210.814 187.962 211.519 187.626 212.129C187.293 212.734 186.79 213.205 186.117 213.541C185.448 213.878 184.606 214.046 183.592 214.046H180.057V212.346H183.413C184.052 212.346 184.572 212.255 184.973 212.071C185.378 211.888 185.674 211.622 185.861 211.272C186.049 210.923 186.143 210.503 186.143 210.013C186.143 209.519 186.047 209.09 185.855 208.728C185.667 208.366 185.371 208.089 184.966 207.897C184.566 207.701 184.04 207.603 183.388 207.603H180.907V219H178.932ZM185.395 213.094L188.629 219H186.379L183.209 213.094H185.395ZM193.238 219.218C192.616 219.218 192.053 219.103 191.55 218.872C191.047 218.638 190.649 218.299 190.355 217.856C190.065 217.413 189.92 216.87 189.92 216.226C189.92 215.672 190.027 215.216 190.24 214.858C190.453 214.5 190.741 214.217 191.103 214.008C191.465 213.799 191.87 213.642 192.317 213.535C192.765 213.429 193.221 213.348 193.685 213.292C194.273 213.224 194.751 213.169 195.117 213.126C195.483 213.079 195.75 213.005 195.916 212.902C196.082 212.8 196.165 212.634 196.165 212.404V212.359C196.165 211.801 196.008 211.368 195.692 211.061C195.381 210.755 194.917 210.601 194.299 210.601C193.655 210.601 193.148 210.744 192.778 211.029C192.411 211.311 192.157 211.624 192.017 211.969L190.221 211.56C190.434 210.963 190.745 210.482 191.154 210.115C191.567 209.745 192.042 209.476 192.579 209.31C193.116 209.139 193.681 209.054 194.273 209.054C194.665 209.054 195.081 209.101 195.52 209.195C195.963 209.284 196.376 209.451 196.76 209.693C197.148 209.936 197.465 210.284 197.712 210.735C197.959 211.183 198.083 211.764 198.083 212.48V219H196.216V217.658H196.14C196.016 217.905 195.831 218.148 195.584 218.387C195.336 218.625 195.019 218.823 194.631 218.981C194.243 219.139 193.779 219.218 193.238 219.218ZM193.653 217.683C194.182 217.683 194.633 217.579 195.008 217.37C195.388 217.161 195.675 216.889 195.871 216.552C196.072 216.211 196.172 215.847 196.172 215.459V214.193C196.104 214.262 195.971 214.326 195.775 214.385C195.584 214.441 195.364 214.49 195.117 214.532C194.87 214.571 194.629 214.607 194.395 214.641C194.16 214.671 193.964 214.696 193.807 214.718C193.436 214.764 193.097 214.843 192.79 214.954C192.488 215.065 192.245 215.225 192.062 215.433C191.883 215.638 191.793 215.911 191.793 216.252C191.793 216.725 191.968 217.083 192.317 217.326C192.667 217.564 193.112 217.683 193.653 217.683ZM205.212 209.182V210.716H199.849V209.182H205.212ZM201.287 206.83H203.198V216.117C203.198 216.488 203.254 216.767 203.364 216.955C203.475 217.138 203.618 217.264 203.793 217.332C203.972 217.396 204.165 217.428 204.374 217.428C204.528 217.428 204.662 217.417 204.777 217.396C204.892 217.375 204.982 217.357 205.045 217.345L205.391 218.924C205.28 218.966 205.122 219.009 204.918 219.051C204.713 219.098 204.457 219.124 204.151 219.128C203.648 219.137 203.179 219.047 202.744 218.86C202.31 218.672 201.958 218.382 201.69 217.99C201.421 217.598 201.287 217.106 201.287 216.514V206.83ZM207.326 219V209.182H209.237V219H207.326ZM208.291 207.667C207.959 207.667 207.673 207.556 207.434 207.335C207.2 207.109 207.083 206.84 207.083 206.529C207.083 206.214 207.2 205.946 207.434 205.724C207.673 205.498 207.959 205.385 208.291 205.385C208.623 205.385 208.907 205.498 209.141 205.724C209.38 205.946 209.499 206.214 209.499 206.529C209.499 206.84 209.38 207.109 209.141 207.335C208.907 207.556 208.623 207.667 208.291 207.667ZM213.719 213.171V219H211.808V209.182H213.643V210.78H213.764C213.99 210.26 214.344 209.843 214.825 209.527C215.311 209.212 215.923 209.054 216.66 209.054C217.329 209.054 217.915 209.195 218.418 209.476C218.92 209.753 219.31 210.166 219.587 210.716C219.864 211.266 220.003 211.946 220.003 212.755V219H218.092V212.985C218.092 212.274 217.906 211.718 217.536 211.317C217.165 210.912 216.656 210.71 216.008 210.71C215.565 210.71 215.17 210.806 214.825 210.997C214.484 211.189 214.214 211.47 214.013 211.841C213.817 212.208 213.719 212.651 213.719 213.171ZM226.683 222.887C225.903 222.887 225.232 222.784 224.669 222.58C224.111 222.375 223.655 222.105 223.301 221.768C222.947 221.431 222.683 221.063 222.509 220.662L224.151 219.985C224.266 220.172 224.42 220.37 224.612 220.579C224.808 220.792 225.072 220.973 225.404 221.122C225.741 221.272 226.173 221.346 226.702 221.346C227.426 221.346 228.025 221.169 228.498 220.816C228.971 220.466 229.207 219.908 229.207 219.141V217.21H229.086C228.971 217.419 228.805 217.652 228.587 217.907C228.374 218.163 228.08 218.384 227.705 218.572C227.33 218.759 226.842 218.853 226.241 218.853C225.466 218.853 224.767 218.672 224.145 218.31C223.527 217.943 223.037 217.404 222.675 216.693C222.317 215.977 222.138 215.097 222.138 214.053C222.138 213.009 222.315 212.114 222.668 211.368C223.026 210.622 223.516 210.051 224.138 209.655C224.761 209.255 225.466 209.054 226.254 209.054C226.864 209.054 227.356 209.156 227.731 209.361C228.106 209.561 228.398 209.796 228.607 210.064C228.82 210.333 228.984 210.569 229.099 210.774H229.239V209.182H231.112V219.218C231.112 220.061 230.916 220.754 230.524 221.295C230.132 221.836 229.602 222.237 228.933 222.497C228.268 222.757 227.518 222.887 226.683 222.887ZM226.663 217.268C227.213 217.268 227.678 217.14 228.057 216.884C228.44 216.625 228.73 216.254 228.926 215.772C229.126 215.286 229.227 214.705 229.227 214.027C229.227 213.367 229.129 212.785 228.933 212.282C228.737 211.779 228.449 211.387 228.07 211.106C227.69 210.821 227.222 210.678 226.663 210.678C226.088 210.678 225.609 210.827 225.225 211.125C224.842 211.419 224.552 211.82 224.356 212.327C224.164 212.834 224.068 213.401 224.068 214.027C224.068 214.671 224.166 215.235 224.362 215.721C224.558 216.207 224.848 216.586 225.232 216.859C225.619 217.132 226.097 217.268 226.663 217.268Z" fill="#131520"/>
</svg>
