<svg width="1085" height="32" viewBox="0 0 1085 32" fill="none" xmlns="http://www.w3.org/2000/svg">
<path d="M1.59801 26V11.4545H3.79261V17.7756H11.044V11.4545H13.2457V26H11.044V19.6577H3.79261V26H1.59801ZM20.8665 26.2202C19.8438 26.2202 18.9512 25.9858 18.1889 25.517C17.4266 25.0483 16.8348 24.3925 16.4134 23.5497C15.992 22.7069 15.7812 21.7221 15.7812 20.5952C15.7812 19.4635 15.992 18.474 16.4134 17.6264C16.8348 16.7789 17.4266 16.1207 18.1889 15.652C18.9512 15.1832 19.8438 14.9489 20.8665 14.9489C21.8892 14.9489 22.7817 15.1832 23.544 15.652C24.3063 16.1207 24.8982 16.7789 25.3196 17.6264C25.741 18.474 25.9517 19.4635 25.9517 20.5952C25.9517 21.7221 25.741 22.7069 25.3196 23.5497C24.8982 24.3925 24.3063 25.0483 23.544 25.517C22.7817 25.9858 21.8892 26.2202 20.8665 26.2202ZM20.8736 24.4375C21.5365 24.4375 22.0857 24.2623 22.5213 23.9119C22.9569 23.5616 23.2789 23.0952 23.4872 22.5128C23.7003 21.9304 23.8068 21.2888 23.8068 20.5881C23.8068 19.892 23.7003 19.2528 23.4872 18.6705C23.2789 18.0833 22.9569 17.6122 22.5213 17.2571C22.0857 16.902 21.5365 16.7244 20.8736 16.7244C20.206 16.7244 19.652 16.902 19.2116 17.2571C18.776 17.6122 18.4517 18.0833 18.2386 18.6705C18.0303 19.2528 17.9261 19.892 17.9261 20.5881C17.9261 21.2888 18.0303 21.9304 18.2386 22.5128C18.4517 23.0952 18.776 23.5616 19.2116 23.9119C19.652 24.2623 20.206 24.4375 20.8736 24.4375ZM32.9173 26.2202C31.8945 26.2202 31.002 25.9858 30.2397 25.517C29.4774 25.0483 28.8855 24.3925 28.4641 23.5497C28.0427 22.7069 27.832 21.7221 27.832 20.5952C27.832 19.4635 28.0427 18.474 28.4641 17.6264C28.8855 16.7789 29.4774 16.1207 30.2397 15.652C31.002 15.1832 31.8945 14.9489 32.9173 14.9489C33.94 14.9489 34.8325 15.1832 35.5948 15.652C36.3571 16.1207 36.949 16.7789 37.3704 17.6264C37.7918 18.474 38.0025 19.4635 38.0025 20.5952C38.0025 21.7221 37.7918 22.7069 37.3704 23.5497C36.949 24.3925 36.3571 25.0483 35.5948 25.517C34.8325 25.9858 33.94 26.2202 32.9173 26.2202ZM32.9244 24.4375C33.5872 24.4375 34.1365 24.2623 34.5721 23.9119C35.0077 23.5616 35.3297 23.0952 35.538 22.5128C35.7511 21.9304 35.8576 21.2888 35.8576 20.5881C35.8576 19.892 35.7511 19.2528 35.538 18.6705C35.3297 18.0833 35.0077 17.6122 34.5721 17.2571C34.1365 16.902 33.5872 16.7244 32.9244 16.7244C32.2567 16.7244 31.7028 16.902 31.2624 17.2571C30.8268 17.6122 30.5025 18.0833 30.2894 18.6705C30.0811 19.2528 29.9769 19.892 29.9769 20.5881C29.9769 21.2888 30.0811 21.9304 30.2894 22.5128C30.5025 23.0952 30.8268 23.5616 31.2624 23.9119C31.7028 24.2623 32.2567 24.4375 32.9244 24.4375ZM42.4964 11.4545V26H40.3729V11.4545H42.4964ZM45.3533 26V15.0909H47.4769V26H45.3533ZM46.4258 13.4077C46.0565 13.4077 45.7392 13.2846 45.4741 13.0384C45.2137 12.7874 45.0835 12.4891 45.0835 12.1435C45.0835 11.7931 45.2137 11.4948 45.4741 11.2486C45.7392 10.9976 46.0565 10.8722 46.4258 10.8722C46.7951 10.8722 47.11 10.9976 47.3704 11.2486C47.6355 11.4948 47.7681 11.7931 47.7681 12.1435C47.7681 12.4891 47.6355 12.7874 47.3704 13.0384C47.11 13.2846 46.7951 13.4077 46.4258 13.4077Z" fill="#131520"/>
<path d="M56.2447 19.9631C56.2447 18.1828 56.479 16.5445 56.9478 15.0483C57.4165 13.5521 58.1007 12.1719 59.0004 10.9077H60.9464C60.596 11.3764 60.2693 11.9517 59.9663 12.6335C59.6632 13.3153 59.3981 14.0634 59.1708 14.8778C58.9435 15.6875 58.766 16.5279 58.6381 17.3991C58.5103 18.2656 58.4464 19.1203 58.4464 19.9631C58.4464 21.09 58.5576 22.2311 58.7802 23.3864C59.0027 24.5417 59.3034 25.6141 59.6822 26.6037C60.061 27.5933 60.4824 28.4006 60.9464 29.0256H59.0004C58.1007 27.7614 57.4165 26.3812 56.9478 24.8849C56.479 23.3887 56.2447 21.7481 56.2447 19.9631ZM162.914 19.9631C162.914 21.7481 162.679 23.3887 162.211 24.8849C161.742 26.3812 161.058 27.7614 160.158 29.0256H158.212C158.562 28.5568 158.889 27.9815 159.192 27.2997C159.495 26.6179 159.76 25.8722 159.988 25.0625C160.215 24.2481 160.392 23.4053 160.52 22.5341C160.648 21.6629 160.712 20.8059 160.712 19.9631C160.712 18.8409 160.601 17.7022 160.378 16.5469C160.156 15.3916 159.855 14.3191 159.476 13.3295C159.097 12.34 158.676 11.5327 158.212 10.9077H160.158C161.058 12.1719 161.742 13.5521 162.211 15.0483C162.679 16.5445 162.914 18.1828 162.914 19.9631Z" fill="#A6ABC9"/>
<path d="M63.3558 26V11.4545H65.5504V17.7756H72.8018V11.4545H75.0036V26H72.8018V19.6577H65.5504V26H63.3558ZM82.6243 26.2202C81.6016 26.2202 80.709 25.9858 79.9467 25.517C79.1844 25.0483 78.5926 24.3925 78.1712 23.5497C77.7498 22.7069 77.5391 21.7221 77.5391 20.5952C77.5391 19.4635 77.7498 18.474 78.1712 17.6264C78.5926 16.7789 79.1844 16.1207 79.9467 15.652C80.709 15.1832 81.6016 14.9489 82.6243 14.9489C83.647 14.9489 84.5395 15.1832 85.3018 15.652C86.0642 16.1207 86.656 16.7789 87.0774 17.6264C87.4988 18.474 87.7095 19.4635 87.7095 20.5952C87.7095 21.7221 87.4988 22.7069 87.0774 23.5497C86.656 24.3925 86.0642 25.0483 85.3018 25.517C84.5395 25.9858 83.647 26.2202 82.6243 26.2202ZM82.6314 24.4375C83.2943 24.4375 83.8435 24.2623 84.2791 23.9119C84.7147 23.5616 85.0367 23.0952 85.245 22.5128C85.4581 21.9304 85.5646 21.2888 85.5646 20.5881C85.5646 19.892 85.4581 19.2528 85.245 18.6705C85.0367 18.0833 84.7147 17.6122 84.2791 17.2571C83.8435 16.902 83.2943 16.7244 82.6314 16.7244C81.9638 16.7244 81.4098 16.902 80.9695 17.2571C80.5339 17.6122 80.2095 18.0833 79.9964 18.6705C79.7881 19.2528 79.6839 19.892 79.6839 20.5881C79.6839 21.2888 79.7881 21.9304 79.9964 22.5128C80.2095 23.0952 80.5339 23.5616 80.9695 23.9119C81.4098 24.2623 81.9638 24.4375 82.6314 24.4375ZM94.6751 26.2202C93.6523 26.2202 92.7598 25.9858 91.9975 25.517C91.2352 25.0483 90.6433 24.3925 90.2219 23.5497C89.8005 22.7069 89.5898 21.7221 89.5898 20.5952C89.5898 19.4635 89.8005 18.474 90.2219 17.6264C90.6433 16.7789 91.2352 16.1207 91.9975 15.652C92.7598 15.1832 93.6523 14.9489 94.6751 14.9489C95.6978 14.9489 96.5903 15.1832 97.3526 15.652C98.1149 16.1207 98.7068 16.7789 99.1282 17.6264C99.5496 18.474 99.7603 19.4635 99.7603 20.5952C99.7603 21.7221 99.5496 22.7069 99.1282 23.5497C98.7068 24.3925 98.1149 25.0483 97.3526 25.517C96.5903 25.9858 95.6978 26.2202 94.6751 26.2202ZM94.6822 24.4375C95.3451 24.4375 95.8943 24.2623 96.3299 23.9119C96.7655 23.5616 97.0875 23.0952 97.2958 22.5128C97.5089 21.9304 97.6154 21.2888 97.6154 20.5881C97.6154 19.892 97.5089 19.2528 97.2958 18.6705C97.0875 18.0833 96.7655 17.6122 96.3299 17.2571C95.8943 16.902 95.3451 16.7244 94.6822 16.7244C94.0146 16.7244 93.4606 16.902 93.0202 17.2571C92.5846 17.6122 92.2603 18.0833 92.0472 18.6705C91.8389 19.2528 91.7347 19.892 91.7347 20.5881C91.7347 21.2888 91.8389 21.9304 92.0472 22.5128C92.2603 23.0952 92.5846 23.5616 93.0202 23.9119C93.4606 24.2623 94.0146 24.4375 94.6822 24.4375ZM104.254 11.4545V26H102.131V11.4545H104.254ZM107.111 26V15.0909H109.235V26H107.111ZM108.184 13.4077C107.814 13.4077 107.497 13.2846 107.232 13.0384C106.971 12.7874 106.841 12.4891 106.841 12.1435C106.841 11.7931 106.971 11.4948 107.232 11.2486C107.497 10.9976 107.814 10.8722 108.184 10.8722C108.553 10.8722 108.868 10.9976 109.128 11.2486C109.393 11.4948 109.526 11.7931 109.526 12.1435C109.526 12.4891 109.393 12.7874 109.128 13.0384C108.868 13.2846 108.553 13.4077 108.184 13.4077ZM113.491 26.1349C113.103 26.1349 112.769 25.9976 112.489 25.723C112.21 25.4437 112.07 25.1075 112.07 24.7145C112.07 24.3262 112.21 23.9948 112.489 23.7202C112.769 23.4408 113.103 23.3011 113.491 23.3011C113.879 23.3011 114.213 23.4408 114.492 23.7202C114.772 23.9948 114.911 24.3262 114.911 24.7145C114.911 24.9749 114.845 25.214 114.712 25.4318C114.585 25.6449 114.414 25.8153 114.201 25.9432C113.988 26.071 113.751 26.1349 113.491 26.1349ZM122.351 26.2202C121.295 26.2202 120.386 25.9811 119.624 25.5028C118.866 25.0199 118.284 24.3546 117.876 23.5071C117.469 22.6596 117.266 21.6889 117.266 20.5952C117.266 19.4872 117.474 18.5095 117.891 17.6619C118.307 16.8097 118.894 16.1444 119.652 15.6662C120.41 15.188 121.302 14.9489 122.33 14.9489C123.158 14.9489 123.897 15.1027 124.545 15.4105C125.194 15.7135 125.717 16.1397 126.115 16.6889C126.518 17.2382 126.757 17.8797 126.832 18.6136H124.766C124.652 18.1023 124.392 17.6619 123.984 17.2926C123.582 16.9233 123.042 16.7386 122.365 16.7386C121.773 16.7386 121.255 16.8949 120.81 17.2074C120.369 17.5152 120.026 17.9555 119.78 18.5284C119.534 19.0966 119.411 19.7689 119.411 20.5455C119.411 21.3409 119.531 22.0275 119.773 22.6051C120.014 23.1828 120.355 23.6302 120.795 23.9474C121.241 24.2647 121.764 24.4233 122.365 24.4233C122.768 24.4233 123.132 24.3499 123.459 24.2031C123.79 24.0516 124.067 23.8362 124.29 23.5568C124.517 23.2775 124.676 22.9413 124.766 22.5483H126.832C126.757 23.2538 126.527 23.8835 126.143 24.4375C125.76 24.9915 125.246 25.4271 124.602 25.7443C123.963 26.0616 123.213 26.2202 122.351 26.2202ZM133.699 26.2202C132.676 26.2202 131.783 25.9858 131.021 25.517C130.259 25.0483 129.667 24.3925 129.245 23.5497C128.824 22.7069 128.613 21.7221 128.613 20.5952C128.613 19.4635 128.824 18.474 129.245 17.6264C129.667 16.7789 130.259 16.1207 131.021 15.652C131.783 15.1832 132.676 14.9489 133.699 14.9489C134.721 14.9489 135.614 15.1832 136.376 15.652C137.138 16.1207 137.73 16.7789 138.152 17.6264C138.573 18.474 138.784 19.4635 138.784 20.5952C138.784 21.7221 138.573 22.7069 138.152 23.5497C137.73 24.3925 137.138 25.0483 136.376 25.517C135.614 25.9858 134.721 26.2202 133.699 26.2202ZM133.706 24.4375C134.368 24.4375 134.918 24.2623 135.353 23.9119C135.789 23.5616 136.111 23.0952 136.319 22.5128C136.532 21.9304 136.639 21.2888 136.639 20.5881C136.639 19.892 136.532 19.2528 136.319 18.6705C136.111 18.0833 135.789 17.6122 135.353 17.2571C134.918 16.902 134.368 16.7244 133.706 16.7244C133.038 16.7244 132.484 16.902 132.044 17.2571C131.608 17.6122 131.284 18.0833 131.071 18.6705C130.862 19.2528 130.758 19.892 130.758 20.5881C130.758 21.2888 130.862 21.9304 131.071 22.5128C131.284 23.0952 131.608 23.5616 132.044 23.9119C132.484 24.2623 133.038 24.4375 133.706 24.4375ZM141.154 26V15.0909H143.192V16.8665H143.327C143.555 16.2652 143.926 15.7964 144.442 15.4602C144.959 15.1193 145.576 14.9489 146.296 14.9489C147.025 14.9489 147.636 15.1193 148.129 15.4602C148.626 15.8011 148.993 16.2699 149.229 16.8665H149.343C149.603 16.2841 150.018 15.8201 150.586 15.4744C151.154 15.1241 151.831 14.9489 152.617 14.9489C153.607 14.9489 154.414 15.259 155.039 15.8793C155.669 16.4995 155.984 17.4347 155.984 18.6847V26H153.86V18.8835C153.86 18.1449 153.659 17.6098 153.256 17.2784C152.854 16.947 152.373 16.7812 151.815 16.7812C151.123 16.7812 150.586 16.9943 150.202 17.4205C149.819 17.8419 149.627 18.384 149.627 19.0469V26H147.511V18.7486C147.511 18.1567 147.326 17.6809 146.957 17.321C146.587 16.9612 146.107 16.7812 145.515 16.7812C145.112 16.7812 144.741 16.8878 144.4 17.1009C144.064 17.3092 143.791 17.6004 143.583 17.9744C143.379 18.3485 143.278 18.7817 143.278 19.2741V26H141.154Z" fill="#1757C2"/>
<rect x="950.5" y="0.5" width="134" height="31" rx="3.5" fill="white"/>
<path d="M968.865 14.0298C968.783 13.7713 968.672 13.5398 968.533 13.3352C968.396 13.1278 968.233 12.9517 968.043 12.8068C967.852 12.6591 967.635 12.5469 967.391 12.4702C967.149 12.3935 966.884 12.3551 966.594 12.3551C966.102 12.3551 965.659 12.4815 965.264 12.7344C964.869 12.9872 964.557 13.358 964.327 13.8466C964.099 14.3324 963.986 14.9276 963.986 15.6321C963.986 16.3395 964.101 16.9375 964.331 17.4261C964.561 17.9148 964.876 18.2855 965.277 18.5384C965.678 18.7912 966.134 18.9176 966.645 18.9176C967.119 18.9176 967.533 18.821 967.885 18.6278C968.24 18.4347 968.514 18.1619 968.707 17.8097C968.903 17.4545 969.001 17.0369 969.001 16.5568L969.342 16.6207H966.845V15.5341H970.276V16.527C970.276 17.2599 970.119 17.8963 969.807 18.4361C969.497 18.973 969.068 19.3878 968.52 19.6804C967.974 19.973 967.349 20.1193 966.645 20.1193C965.855 20.1193 965.162 19.9375 964.565 19.5739C963.972 19.2102 963.509 18.6946 963.176 18.027C962.844 17.3565 962.678 16.5611 962.678 15.6406C962.678 14.9446 962.774 14.3196 962.967 13.7656C963.161 13.2116 963.432 12.7415 963.781 12.3551C964.134 11.9659 964.547 11.669 965.021 11.4645C965.499 11.2571 966.02 11.1534 966.585 11.1534C967.057 11.1534 967.496 11.223 967.902 11.3622C968.311 11.5014 968.675 11.6989 968.993 11.9545C969.314 12.2102 969.58 12.5142 969.79 12.8665C970 13.2159 970.142 13.6037 970.216 14.0298H968.865ZM975.666 20.1321C975.021 20.1321 974.466 19.9943 974 19.7188C973.537 19.4403 973.179 19.0497 972.926 18.5469C972.676 18.0412 972.551 17.4489 972.551 16.7699C972.551 16.0994 972.676 15.5085 972.926 14.9972C973.179 14.4858 973.531 14.0866 973.983 13.7997C974.437 13.5128 974.968 13.3693 975.576 13.3693C975.946 13.3693 976.304 13.4304 976.65 13.5526C976.997 13.6747 977.308 13.8665 977.583 14.1278C977.859 14.3892 978.076 14.7287 978.235 15.1463C978.395 15.5611 978.474 16.0653 978.474 16.6591V17.1108H973.271V16.1562H977.225C977.225 15.821 977.157 15.5241 977.021 15.2656C976.885 15.0043 976.693 14.7983 976.446 14.6477C976.201 14.4972 975.914 14.4219 975.585 14.4219C975.227 14.4219 974.914 14.5099 974.647 14.6861C974.383 14.8594 974.179 15.0866 974.034 15.3679C973.892 15.6463 973.821 15.9489 973.821 16.2756V17.0213C973.821 17.4588 973.897 17.831 974.051 18.1378C974.207 18.4446 974.424 18.679 974.703 18.8409C974.981 19 975.306 19.0795 975.679 19.0795C975.92 19.0795 976.14 19.0455 976.339 18.9773C976.538 18.9062 976.71 18.8011 976.855 18.6619C977 18.5227 977.11 18.3509 977.187 18.1463L978.393 18.3636C978.297 18.7187 978.123 19.0298 977.873 19.2969C977.626 19.5611 977.315 19.767 976.94 19.9148C976.568 20.0597 976.143 20.1321 975.666 20.1321ZM982.162 16.1136V20H980.888V13.4545H982.111V14.5199H982.192C982.342 14.1733 982.578 13.8949 982.899 13.6847C983.223 13.4744 983.631 13.3693 984.122 13.3693C984.568 13.3693 984.959 13.4631 985.294 13.6506C985.629 13.8352 985.889 14.1108 986.074 14.4773C986.259 14.8437 986.351 15.2969 986.351 15.8366V20H985.077V15.9901C985.077 15.5156 984.953 15.1449 984.706 14.8778C984.459 14.608 984.119 14.473 983.688 14.473C983.392 14.473 983.129 14.5369 982.899 14.6648C982.672 14.7926 982.491 14.9801 982.358 15.2273C982.227 15.4716 982.162 15.767 982.162 16.1136ZM991.881 20.1321C991.236 20.1321 990.68 19.9943 990.214 19.7188C989.751 19.4403 989.393 19.0497 989.141 18.5469C988.891 18.0412 988.766 17.4489 988.766 16.7699C988.766 16.0994 988.891 15.5085 989.141 14.9972C989.393 14.4858 989.746 14.0866 990.197 13.7997C990.652 13.5128 991.183 13.3693 991.791 13.3693C992.161 13.3693 992.518 13.4304 992.865 13.5526C993.212 13.6747 993.523 13.8665 993.798 14.1278C994.074 14.3892 994.291 14.7287 994.45 15.1463C994.609 15.5611 994.689 16.0653 994.689 16.6591V17.1108H989.486V16.1562H993.44C993.44 15.821 993.372 15.5241 993.236 15.2656C993.099 15.0043 992.908 14.7983 992.661 14.6477C992.416 14.4972 992.129 14.4219 991.8 14.4219C991.442 14.4219 991.129 14.5099 990.862 14.6861C990.598 14.8594 990.393 15.0866 990.249 15.3679C990.107 15.6463 990.036 15.9489 990.036 16.2756V17.0213C990.036 17.4588 990.112 17.831 990.266 18.1378C990.422 18.4446 990.639 18.679 990.918 18.8409C991.196 19 991.521 19.0795 991.893 19.0795C992.135 19.0795 992.355 19.0455 992.554 18.9773C992.753 18.9062 992.925 18.8011 993.07 18.6619C993.214 18.5227 993.325 18.3509 993.402 18.1463L994.608 18.3636C994.511 18.7187 994.338 19.0298 994.088 19.2969C993.841 19.5611 993.53 19.767 993.155 19.9148C992.783 20.0597 992.358 20.1321 991.881 20.1321ZM997.103 20V13.4545H998.334V14.4943H998.402C998.522 14.142 998.732 13.8651 999.033 13.6634C999.337 13.4588 999.681 13.3565 1000.06 13.3565C1000.14 13.3565 1000.24 13.3594 1000.35 13.3651C1000.46 13.3707 1000.54 13.3778 1000.61 13.3864V14.6051C1000.55 14.5909 1000.46 14.5753 1000.33 14.5582C1000.2 14.5384 1000.07 14.5284 999.941 14.5284C999.64 14.5284 999.371 14.5923 999.135 14.7202C998.902 14.8452 998.718 15.0199 998.581 15.2443C998.445 15.4659 998.377 15.7187 998.377 16.0028V20H997.103ZM1004.55 20.1449C1004.14 20.1449 1003.76 20.0682 1003.43 19.9148C1003.09 19.7585 1002.83 19.5327 1002.63 19.2372C1002.44 18.9418 1002.34 18.5795 1002.34 18.1506C1002.34 17.7812 1002.41 17.4773 1002.56 17.2386C1002.7 17 1002.89 16.8111 1003.13 16.6719C1003.37 16.5327 1003.64 16.4276 1003.94 16.3565C1004.24 16.2855 1004.54 16.2315 1004.85 16.1946C1005.24 16.1491 1005.56 16.1122 1005.81 16.0838C1006.05 16.0526 1006.23 16.0028 1006.34 15.9347C1006.45 15.8665 1006.51 15.7557 1006.51 15.6023V15.5724C1006.51 15.2003 1006.4 14.9119 1006.19 14.7074C1005.98 14.5028 1005.67 14.4006 1005.26 14.4006C1004.83 14.4006 1004.49 14.4957 1004.25 14.6861C1004 14.8736 1003.83 15.0824 1003.74 15.3125L1002.54 15.0398C1002.69 14.642 1002.89 14.321 1003.17 14.0767C1003.44 13.8295 1003.76 13.6506 1004.12 13.5398C1004.47 13.4261 1004.85 13.3693 1005.24 13.3693C1005.51 13.3693 1005.78 13.4006 1006.08 13.4631C1006.37 13.5227 1006.65 13.6335 1006.9 13.7955C1007.16 13.9574 1007.37 14.1889 1007.54 14.4901C1007.7 14.7884 1007.78 15.1761 1007.78 15.6534V20H1006.54V19.1051H1006.49C1006.41 19.2699 1006.28 19.4318 1006.12 19.5909C1005.95 19.75 1005.74 19.8821 1005.48 19.9872C1005.22 20.0923 1004.92 20.1449 1004.55 20.1449ZM1004.83 19.1222C1005.18 19.1222 1005.48 19.0526 1005.73 18.9134C1005.99 18.7741 1006.18 18.5923 1006.31 18.3679C1006.44 18.1406 1006.51 17.8977 1006.51 17.6392V16.7955C1006.46 16.8409 1006.38 16.8835 1006.25 16.9233C1006.12 16.9602 1005.97 16.9929 1005.81 17.0213C1005.64 17.0469 1005.48 17.071 1005.33 17.0938C1005.17 17.1136 1005.04 17.1307 1004.93 17.1449C1004.69 17.1761 1004.46 17.2287 1004.26 17.3026C1004.05 17.3764 1003.89 17.483 1003.77 17.6222C1003.65 17.7585 1003.59 17.9403 1003.59 18.1676C1003.59 18.483 1003.71 18.7216 1003.94 18.8835C1004.17 19.0426 1004.47 19.1222 1004.83 19.1222ZM1013.54 13.4545V14.4773H1009.96V13.4545H1013.54ZM1010.92 11.8864H1012.19V18.0781C1012.19 18.3253 1012.23 18.5114 1012.31 18.6364C1012.38 18.7585 1012.47 18.8423 1012.59 18.8878C1012.71 18.9304 1012.84 18.9517 1012.98 18.9517C1013.08 18.9517 1013.17 18.9446 1013.25 18.9304C1013.32 18.9162 1013.38 18.9048 1013.43 18.8963L1013.66 19.9489C1013.58 19.9773 1013.48 20.0057 1013.34 20.0341C1013.2 20.0653 1013.03 20.0824 1012.83 20.0852C1012.49 20.0909 1012.18 20.0312 1011.89 19.9062C1011.6 19.7812 1011.37 19.5881 1011.19 19.3267C1011.01 19.0653 1010.92 18.7372 1010.92 18.3423V11.8864ZM1018.7 20.1321C1018.05 20.1321 1017.5 19.9943 1017.03 19.7188C1016.57 19.4403 1016.21 19.0497 1015.96 18.5469C1015.71 18.0412 1015.58 17.4489 1015.58 16.7699C1015.58 16.0994 1015.71 15.5085 1015.96 14.9972C1016.21 14.4858 1016.56 14.0866 1017.01 13.7997C1017.47 13.5128 1018 13.3693 1018.61 13.3693C1018.98 13.3693 1019.33 13.4304 1019.68 13.5526C1020.03 13.6747 1020.34 13.8665 1020.61 14.1278C1020.89 14.3892 1021.11 14.7287 1021.27 15.1463C1021.43 15.5611 1021.51 16.0653 1021.51 16.6591V17.1108H1016.3V16.1562H1020.26C1020.26 15.821 1020.19 15.5241 1020.05 15.2656C1019.92 15.0043 1019.72 14.7983 1019.48 14.6477C1019.23 14.4972 1018.95 14.4219 1018.62 14.4219C1018.26 14.4219 1017.95 14.5099 1017.68 14.6861C1017.41 14.8594 1017.21 15.0866 1017.06 15.3679C1016.92 15.6463 1016.85 15.9489 1016.85 16.2756V17.0213C1016.85 17.4588 1016.93 17.831 1017.08 18.1378C1017.24 18.4446 1017.46 18.679 1017.73 18.8409C1018.01 19 1018.34 19.0795 1018.71 19.0795C1018.95 19.0795 1019.17 19.0455 1019.37 18.9773C1019.57 18.9062 1019.74 18.8011 1019.89 18.6619C1020.03 18.5227 1020.14 18.3509 1020.22 18.1463L1021.42 18.3636C1021.33 18.7187 1021.15 19.0298 1020.9 19.2969C1020.66 19.5611 1020.35 19.767 1019.97 19.9148C1019.6 20.0597 1019.17 20.1321 1018.7 20.1321ZM1028.2 20V11.2727H1031.31C1031.98 11.2727 1032.55 11.3892 1032.99 11.6222C1033.44 11.8551 1033.78 12.1776 1034 12.5895C1034.22 12.9986 1034.33 13.4716 1034.33 14.0085C1034.33 14.5426 1034.22 15.0128 1033.99 15.419C1033.77 15.8224 1033.44 16.1364 1032.99 16.3608C1032.54 16.5852 1031.98 16.6974 1031.3 16.6974H1028.95V15.5639H1031.18C1031.61 15.5639 1031.96 15.5028 1032.22 15.3807C1032.49 15.2585 1032.69 15.081 1032.82 14.848C1032.94 14.6151 1033 14.3352 1033 14.0085C1033 13.679 1032.94 13.3935 1032.81 13.152C1032.69 12.9105 1032.49 12.7259 1032.22 12.598C1031.95 12.4673 1031.6 12.402 1031.17 12.402H1029.51V20H1028.2ZM1032.51 16.0625L1034.66 20H1033.16L1031.05 16.0625H1032.51ZM1039.57 20.1321C1038.92 20.1321 1038.37 19.9943 1037.9 19.7188C1037.44 19.4403 1037.08 19.0497 1036.83 18.5469C1036.58 18.0412 1036.45 17.4489 1036.45 16.7699C1036.45 16.0994 1036.58 15.5085 1036.83 14.9972C1037.08 14.4858 1037.43 14.0866 1037.88 13.7997C1038.34 13.5128 1038.87 13.3693 1039.48 13.3693C1039.85 13.3693 1040.21 13.4304 1040.55 13.5526C1040.9 13.6747 1041.21 13.8665 1041.49 14.1278C1041.76 14.3892 1041.98 14.7287 1042.14 15.1463C1042.3 15.5611 1042.38 16.0653 1042.38 16.6591V17.1108H1037.17V16.1562H1041.13C1041.13 15.821 1041.06 15.5241 1040.92 15.2656C1040.79 15.0043 1040.6 14.7983 1040.35 14.6477C1040.1 14.4972 1039.82 14.4219 1039.49 14.4219C1039.13 14.4219 1038.82 14.5099 1038.55 14.6861C1038.29 14.8594 1038.08 15.0866 1037.94 15.3679C1037.79 15.6463 1037.72 15.9489 1037.72 16.2756V17.0213C1037.72 17.4588 1037.8 17.831 1037.95 18.1378C1038.11 18.4446 1038.33 18.679 1038.61 18.8409C1038.88 19 1039.21 19.0795 1039.58 19.0795C1039.82 19.0795 1040.04 19.0455 1040.24 18.9773C1040.44 18.9062 1040.61 18.8011 1040.76 18.6619C1040.9 18.5227 1041.01 18.3509 1041.09 18.1463L1042.3 18.3636C1042.2 18.7187 1042.03 19.0298 1041.78 19.2969C1041.53 19.5611 1041.22 19.767 1040.84 19.9148C1040.47 20.0597 1040.05 20.1321 1039.57 20.1321ZM1044.79 22.4545V13.4545H1046.03V14.5156H1046.14C1046.21 14.3793 1046.32 14.2216 1046.46 14.0426C1046.6 13.8636 1046.79 13.7074 1047.04 13.5739C1047.29 13.4375 1047.61 13.3693 1048.02 13.3693C1048.55 13.3693 1049.02 13.5028 1049.44 13.7699C1049.85 14.0369 1050.18 14.4219 1050.41 14.9247C1050.65 15.4276 1050.77 16.0327 1050.77 16.7401C1050.77 17.4474 1050.65 18.054 1050.42 18.5597C1050.18 19.0625 1049.86 19.4503 1049.44 19.723C1049.03 19.9929 1048.56 20.1278 1048.03 20.1278C1047.64 20.1278 1047.31 20.0611 1047.06 19.9276C1046.81 19.794 1046.61 19.6378 1046.47 19.4588C1046.33 19.2798 1046.22 19.1207 1046.14 18.9815H1046.06V22.4545H1044.79ZM1046.04 16.7273C1046.04 17.1875 1046.11 17.5909 1046.24 17.9375C1046.37 18.2841 1046.57 18.5554 1046.82 18.7514C1047.07 18.9446 1047.38 19.0412 1047.75 19.0412C1048.13 19.0412 1048.45 18.9403 1048.7 18.7386C1048.96 18.5341 1049.15 18.2571 1049.28 17.9077C1049.42 17.5582 1049.48 17.1648 1049.48 16.7273C1049.48 16.2955 1049.42 15.9077 1049.29 15.5639C1049.16 15.2202 1048.96 14.9489 1048.71 14.75C1048.45 14.5511 1048.13 14.4517 1047.75 14.4517C1047.38 14.4517 1047.07 14.5469 1046.81 14.7372C1046.56 14.9276 1046.37 15.1932 1046.23 15.5341C1046.1 15.875 1046.04 16.2727 1046.04 16.7273ZM1055.95 20.1321C1055.34 20.1321 1054.8 19.9915 1054.35 19.7102C1053.89 19.429 1053.53 19.0355 1053.28 18.5298C1053.03 18.0241 1052.9 17.4332 1052.9 16.7571C1052.9 16.0781 1053.03 15.4844 1053.28 14.9759C1053.53 14.4673 1053.89 14.0724 1054.35 13.7912C1054.8 13.5099 1055.34 13.3693 1055.95 13.3693C1056.57 13.3693 1057.1 13.5099 1057.56 13.7912C1058.02 14.0724 1058.37 14.4673 1058.63 14.9759C1058.88 15.4844 1059 16.0781 1059 16.7571C1059 17.4332 1058.88 18.0241 1058.63 18.5298C1058.37 19.0355 1058.02 19.429 1057.56 19.7102C1057.1 19.9915 1056.57 20.1321 1055.95 20.1321ZM1055.96 19.0625C1056.36 19.0625 1056.69 18.9574 1056.95 18.7472C1057.21 18.5369 1057.4 18.2571 1057.53 17.9077C1057.65 17.5582 1057.72 17.1733 1057.72 16.7528C1057.72 16.3352 1057.65 15.9517 1057.53 15.6023C1057.4 15.25 1057.21 14.9673 1056.95 14.7543C1056.69 14.5412 1056.36 14.4347 1055.96 14.4347C1055.56 14.4347 1055.22 14.5412 1054.96 14.7543C1054.7 14.9673 1054.5 15.25 1054.38 15.6023C1054.25 15.9517 1054.19 16.3352 1054.19 16.7528C1054.19 17.1733 1054.25 17.5582 1054.38 17.9077C1054.5 18.2571 1054.7 18.5369 1054.96 18.7472C1055.22 18.9574 1055.56 19.0625 1055.96 19.0625ZM1061.43 20V13.4545H1062.66V14.4943H1062.73C1062.85 14.142 1063.06 13.8651 1063.36 13.6634C1063.66 13.4588 1064 13.3565 1064.39 13.3565C1064.47 13.3565 1064.56 13.3594 1064.67 13.3651C1064.78 13.3707 1064.87 13.3778 1064.93 13.3864V14.6051C1064.88 14.5909 1064.79 14.5753 1064.66 14.5582C1064.53 14.5384 1064.4 14.5284 1064.26 14.5284C1063.96 14.5284 1063.7 14.5923 1063.46 14.7202C1063.23 14.8452 1063.04 15.0199 1062.91 15.2443C1062.77 15.4659 1062.7 15.7187 1062.7 16.0028V20H1061.43ZM1070.47 13.4545V14.4773H1066.9V13.4545H1070.47ZM1067.86 11.8864H1069.13V18.0781C1069.13 18.3253 1069.17 18.5114 1069.24 18.6364C1069.32 18.7585 1069.41 18.8423 1069.53 18.8878C1069.65 18.9304 1069.78 18.9517 1069.92 18.9517C1070.02 18.9517 1070.11 18.9446 1070.18 18.9304C1070.26 18.9162 1070.32 18.9048 1070.36 18.8963L1070.59 19.9489C1070.52 19.9773 1070.41 20.0057 1070.28 20.0341C1070.14 20.0653 1069.97 20.0824 1069.77 20.0852C1069.43 20.0909 1069.12 20.0312 1068.83 19.9062C1068.54 19.7812 1068.31 19.5881 1068.13 19.3267C1067.95 19.0653 1067.86 18.7372 1067.86 18.3423V11.8864Z" fill="#4A5078"/>
<rect x="950.5" y="0.5" width="134" height="31" rx="3.5" stroke="#CCCFE0"/>
</svg>
