<svg width="85" height="71" viewBox="0 0 85 71" fill="none" xmlns="http://www.w3.org/2000/svg">
<g clip-path="url(#clip0_906_28)">
<path d="M83.5615 26.4552H62.4581C54.5709 26.4552 47.5364 32.5827 46.3907 40.442L39.0631 46.7827L45.9377 1.70507C46.0709 0.905816 45.5114 0.133208 44.712 0.0266417C44.6321 0 44.5521 0 44.4988 0H38.9032C38.1305 0 37.491 0.559475 37.3844 1.30544L36.1853 9.11145C34.6932 18.6758 25.8201 26.4285 15.9079 26.4285L16.8672 20.2477C17.1603 18.2495 18.386 17.2371 20.4111 17.1839H23.1822C23.9549 17.1839 24.5944 16.6244 24.7277 15.8784L25.5803 10.3103C25.6869 9.51107 25.2073 8.60525 24.1148 8.60525H21.317C16.7872 8.60525 9.56622 11.6158 8.28723 19.8747L7.27469 26.4552H4.23707C3.67751 26.4552 3.17124 26.7749 2.87814 27.2544L0.21356 31.9966C-0.10619 32.5295 -0.0528981 33.2221 0.346788 33.7017L5.3029 39.5362L2.26528 59.251C1.38597 64.9523 3.89068 71 11.3515 71C15.6415 71 20.0114 68.6822 22.7292 64.9257C24.9408 61.8886 29.0709 53.5764 19.3719 42.1205L14.4158 36.2859L14.6023 35.0604C14.6023 35.0604 24.5678 35.3268 33.201 28.5865L30.1634 48.4878C29.4706 52.7771 32.4283 56.5602 37.0114 56.5602C39.143 56.5336 41.2214 55.7343 42.8201 54.3223L48.0694 49.7666C50.5741 54.0293 55.1838 56.6402 60.1399 56.5602C68.4001 56.5602 75.6744 49.8465 76.3405 41.5876C76.527 39.3497 76.2073 37.1118 75.3813 35.0338H82.6023C83.375 35.0338 84.0145 34.4743 84.1211 33.7283L84.9737 28.1602C85.107 27.361 84.5474 26.5884 83.748 26.4818C83.6947 26.4552 83.6148 26.4552 83.5615 26.4552ZM15.9079 60.3966C14.6822 62.075 12.6305 62.5812 11.6446 62.2882C11.3515 62.2083 10.4988 61.9685 10.8452 59.624L12.6038 48.1681C16.6806 53.0702 17.933 57.6259 15.9079 60.3966ZM67.7606 41.4278C67.4675 45.0244 64.2966 47.9816 60.6728 47.9816C56.6759 47.9816 54.5709 44.6514 54.8374 41.6143C55.1305 38.0176 58.3013 35.0604 61.9252 35.0604C65.9753 35.0604 68.0004 38.4439 67.7606 41.4278ZM80.7104 37.4315C80.9769 37.5914 81.1634 37.7779 81.3233 38.0443C81.4832 38.3107 81.5631 38.5771 81.5631 38.8968C81.5631 39.2165 81.4832 39.4829 81.3233 39.7493C81.1634 40.0158 80.9769 40.2023 80.7104 40.3621C80.444 40.522 80.1775 40.5752 79.8578 40.5752C79.538 40.5752 79.2449 40.4953 79.0051 40.3621C78.7386 40.2023 78.5521 40.0158 78.3922 39.7493C78.2324 39.4829 78.1524 39.2165 78.1524 38.8968C78.1524 38.5771 78.2324 38.3107 78.3922 38.0443C78.5521 37.7779 78.7386 37.5914 79.0051 37.4315C79.2716 37.2717 79.538 37.2184 79.8578 37.2184C80.1775 37.1917 80.444 37.2717 80.7104 37.4315ZM80.5772 40.1223C80.7904 39.9891 80.9769 39.8293 81.1101 39.5895C81.2433 39.3764 81.2966 39.1366 81.2966 38.8702C81.2966 38.6038 81.2433 38.364 81.1101 38.1508C80.9769 37.9377 80.817 37.7512 80.5772 37.618C80.364 37.4848 80.1242 37.4315 79.8578 37.4315C79.5913 37.4315 79.3515 37.4848 79.1383 37.618C78.9252 37.7512 78.7386 37.9111 78.6054 38.1508C78.4722 38.364 78.4189 38.6038 78.4189 38.8702C78.4189 39.1366 78.4722 39.3764 78.6054 39.5895C78.7386 39.8026 78.8985 39.9891 79.1383 40.1223C79.3515 40.2555 79.5913 40.3088 79.8578 40.3088C80.1242 40.3088 80.364 40.2555 80.5772 40.1223ZM80.3374 38.8169C80.2841 38.8968 80.2308 38.9235 80.1509 38.9767C80.1242 38.9767 80.1242 39.0034 80.1242 39.03L80.364 39.5629V39.6161C80.364 39.6694 80.3374 39.6961 80.2841 39.6961H80.2308C80.1775 39.6961 80.1242 39.6694 80.0976 39.6161L79.8578 39.0567C79.8578 39.03 79.8311 39.03 79.8311 39.03H79.6712C79.6535 39.03 79.6446 39.0389 79.6446 39.0567V39.5895C79.6446 39.6161 79.6446 39.6428 79.6179 39.6694C79.5913 39.6961 79.5647 39.6961 79.538 39.6961H79.5114C79.4847 39.6961 79.4581 39.6961 79.4314 39.6694C79.4048 39.6428 79.4048 39.6161 79.4048 39.5895V38.2574C79.4048 38.2308 79.4048 38.2041 79.4314 38.1775C79.4581 38.1508 79.4847 38.1508 79.5114 38.1508H79.9377C80.0709 38.1508 80.1775 38.2041 80.2575 38.2841C80.3374 38.364 80.3907 38.4705 80.3907 38.6038C80.3907 38.657 80.364 38.7636 80.3374 38.8169ZM79.6446 38.364V38.7902C79.6446 38.808 79.6535 38.8169 79.6712 38.8169H79.9111C79.991 38.8169 80.0443 38.7902 80.0709 38.7636C80.1242 38.7103 80.1242 38.657 80.1242 38.5771C80.1242 38.4972 80.0976 38.4439 80.0709 38.3906C80.0176 38.3373 79.9643 38.3107 79.9111 38.3107H79.6712C79.6712 38.3107 79.6446 38.3373 79.6446 38.364Z" fill="#8BABE1"/>
</g>
<defs>
<clipPath id="clip0_906_28">
<rect width="85" height="71" fill="white"/>
</clipPath>
</defs>
</svg>
