<svg width="1084" height="32" viewBox="0 0 1084 32" fill="none" xmlns="http://www.w3.org/2000/svg">
<path d="M5.33523 24L0.494318 6.54545H3.2642L6.66477 20.0625H6.8267L10.3636 6.54545H13.108L16.6449 20.071H16.8068L20.1989 6.54545H22.9773L18.1278 24H15.4773L11.804 10.9261H11.6676L7.99432 24H5.33523ZM27.6946 24.2898C26.8651 24.2898 26.1151 24.1364 25.4446 23.8295C24.7741 23.517 24.2429 23.0653 23.8509 22.4744C23.4645 21.8835 23.2713 21.1591 23.2713 20.3011C23.2713 19.5625 23.4134 18.9545 23.6974 18.4773C23.9815 18 24.3651 17.6222 24.848 17.3438C25.331 17.0653 25.8707 16.8551 26.4673 16.7131C27.0639 16.571 27.6719 16.4631 28.2912 16.3892C29.0753 16.2983 29.7116 16.2244 30.2003 16.1676C30.6889 16.1051 31.044 16.0057 31.2656 15.8693C31.4872 15.733 31.598 15.5114 31.598 15.2045V15.1449C31.598 14.4006 31.3878 13.8239 30.9673 13.4148C30.5526 13.0057 29.9332 12.8011 29.1094 12.8011C28.2514 12.8011 27.5753 12.9915 27.081 13.3722C26.5923 13.7472 26.2543 14.1648 26.0668 14.625L23.6719 14.0795C23.956 13.2841 24.3707 12.642 24.9162 12.1534C25.4673 11.6591 26.1009 11.3011 26.8168 11.0795C27.5327 10.8523 28.2855 10.7386 29.0753 10.7386C29.598 10.7386 30.152 10.8011 30.7372 10.9261C31.3281 11.0455 31.8793 11.267 32.3906 11.5909C32.9077 11.9148 33.331 12.3778 33.6605 12.9801C33.9901 13.5767 34.1548 14.3523 34.1548 15.3068V24H31.6662V22.2102H31.5639C31.3991 22.5398 31.152 22.8636 30.8224 23.1818C30.4929 23.5 30.0696 23.7642 29.5526 23.9744C29.0355 24.1847 28.4162 24.2898 27.6946 24.2898ZM28.2486 22.2443C28.9531 22.2443 29.5554 22.1051 30.0554 21.8267C30.5611 21.5483 30.9446 21.1847 31.206 20.7358C31.473 20.2812 31.6065 19.7955 31.6065 19.2784V17.5909C31.5156 17.6818 31.3395 17.767 31.0781 17.8466C30.8224 17.9205 30.5298 17.9858 30.2003 18.0426C29.8707 18.0937 29.5497 18.142 29.2372 18.1875C28.9247 18.2273 28.6634 18.2614 28.4531 18.2898C27.9588 18.3523 27.5071 18.4574 27.098 18.6051C26.6946 18.7528 26.3707 18.9659 26.1264 19.2443C25.8878 19.517 25.7685 19.8807 25.7685 20.3352C25.7685 20.9659 26.0014 21.4432 26.4673 21.767C26.9332 22.0852 27.527 22.2443 28.2486 22.2443ZM38.6911 28.9091C38.3104 28.9091 37.9638 28.8778 37.6513 28.8153C37.3388 28.7585 37.1058 28.696 36.9524 28.6278L37.5661 26.5398C38.032 26.6648 38.4467 26.7188 38.8104 26.7017C39.174 26.6847 39.495 26.5483 39.7734 26.2926C40.0575 26.0369 40.3075 25.6193 40.5234 25.0398L40.8388 24.1705L36.049 10.9091H38.7763L42.0916 21.0682H42.228L45.5433 10.9091H48.2791L42.8842 25.7472C42.6342 26.429 42.3161 27.0057 41.9297 27.4773C41.5433 27.9545 41.0831 28.3125 40.549 28.5511C40.0149 28.7898 39.3956 28.9091 38.6911 28.9091ZM60.4837 14.1051L58.174 14.5142C58.0774 14.2187 57.924 13.9375 57.7138 13.6705C57.5092 13.4034 57.2308 13.1847 56.8786 13.0142C56.5263 12.8437 56.0859 12.7585 55.5575 12.7585C54.8359 12.7585 54.2337 12.9205 53.7507 13.2443C53.2678 13.5625 53.0263 13.9744 53.0263 14.4801C53.0263 14.9176 53.1882 15.2699 53.5121 15.5369C53.8359 15.804 54.3587 16.0227 55.0803 16.1932L57.1598 16.6705C58.3643 16.9489 59.2621 17.3778 59.853 17.9574C60.4439 18.5369 60.7393 19.2898 60.7393 20.2159C60.7393 21 60.5121 21.6989 60.0575 22.3125C59.6087 22.9205 58.9808 23.3977 58.174 23.7443C57.3729 24.0909 56.4439 24.2642 55.3871 24.2642C53.9212 24.2642 52.7251 23.9517 51.799 23.3267C50.8729 22.696 50.3047 21.8011 50.0945 20.642L52.5575 20.267C52.7109 20.9091 53.0263 21.3949 53.5036 21.7244C53.9808 22.0483 54.603 22.2102 55.37 22.2102C56.2053 22.2102 56.8729 22.0369 57.3729 21.6903C57.8729 21.3381 58.1229 20.9091 58.1229 20.4034C58.1229 19.9943 57.9695 19.6506 57.6626 19.3722C57.3615 19.0937 56.8984 18.8835 56.2734 18.7415L54.0575 18.2557C52.8359 17.9773 51.9325 17.5341 51.3473 16.9261C50.7678 16.3182 50.478 15.5483 50.478 14.6165C50.478 13.8437 50.6939 13.1676 51.1257 12.5881C51.5575 12.0085 52.1541 11.5568 52.9155 11.233C53.6768 10.9034 54.549 10.7386 55.532 10.7386C56.9467 10.7386 58.0604 11.0455 58.8729 11.6591C59.6854 12.267 60.2223 13.0824 60.4837 14.1051ZM69.652 10.9091V12.9545H62.5014V10.9091H69.652ZM64.419 7.77273H66.9673V20.1562C66.9673 20.6506 67.0412 21.0227 67.1889 21.2727C67.3366 21.517 67.527 21.6847 67.7599 21.7756C67.9986 21.8608 68.2571 21.9034 68.5355 21.9034C68.7401 21.9034 68.919 21.8892 69.0724 21.8608C69.2259 21.8324 69.3452 21.8097 69.4304 21.7926L69.8906 23.8977C69.7429 23.9545 69.5327 24.0114 69.2599 24.0682C68.9872 24.1307 68.6463 24.1648 68.2372 24.1705C67.5668 24.1818 66.9418 24.0625 66.3622 23.8125C65.7827 23.5625 65.3139 23.1761 64.956 22.6534C64.598 22.1307 64.419 21.4744 64.419 20.6847V7.77273ZM76.2805 24.2898C75.451 24.2898 74.701 24.1364 74.0305 23.8295C73.3601 23.517 72.8288 23.0653 72.4368 22.4744C72.0504 21.8835 71.8572 21.1591 71.8572 20.3011C71.8572 19.5625 71.9993 18.9545 72.2834 18.4773C72.5675 18 72.951 17.6222 73.4339 17.3438C73.9169 17.0653 74.4567 16.8551 75.0533 16.7131C75.6499 16.571 76.2578 16.4631 76.8771 16.3892C77.6612 16.2983 78.2976 16.2244 78.7862 16.1676C79.2749 16.1051 79.63 16.0057 79.8516 15.8693C80.0732 15.733 80.1839 15.5114 80.1839 15.2045V15.1449C80.1839 14.4006 79.9737 13.8239 79.5533 13.4148C79.1385 13.0057 78.5192 12.8011 77.6953 12.8011C76.8374 12.8011 76.1612 12.9915 75.6669 13.3722C75.1783 13.7472 74.8402 14.1648 74.6527 14.625L72.2578 14.0795C72.5419 13.2841 72.9567 12.642 73.5021 12.1534C74.0533 11.6591 74.6868 11.3011 75.4027 11.0795C76.1186 10.8523 76.8714 10.7386 77.6612 10.7386C78.1839 10.7386 78.7379 10.8011 79.3232 10.9261C79.9141 11.0455 80.4652 11.267 80.9766 11.5909C81.4936 11.9148 81.9169 12.3778 82.2464 12.9801C82.576 13.5767 82.7408 14.3523 82.7408 15.3068V24H80.2521V22.2102H80.1499C79.9851 22.5398 79.7379 22.8636 79.4084 23.1818C79.0788 23.5 78.6555 23.7642 78.1385 23.9744C77.6214 24.1847 77.0021 24.2898 76.2805 24.2898ZM76.8345 22.2443C77.5391 22.2443 78.1413 22.1051 78.6413 21.8267C79.147 21.5483 79.5305 21.1847 79.7919 20.7358C80.0589 20.2812 80.1925 19.7955 80.1925 19.2784V17.5909C80.1016 17.6818 79.9254 17.767 79.6641 17.8466C79.4084 17.9205 79.1158 17.9858 78.7862 18.0426C78.4567 18.0937 78.1357 18.142 77.8232 18.1875C77.5107 18.2273 77.2493 18.2614 77.0391 18.2898C76.5447 18.3523 76.093 18.4574 75.6839 18.6051C75.2805 18.7528 74.9567 18.9659 74.7124 19.2443C74.4737 19.517 74.3544 19.8807 74.3544 20.3352C74.3544 20.9659 74.5874 21.4432 75.0533 21.767C75.5192 22.0852 76.1129 22.2443 76.8345 22.2443ZM86.1349 24V10.9091H88.598V12.9886H88.7344C88.973 12.2841 89.3935 11.7301 89.9957 11.3267C90.6037 10.9176 91.2912 10.7131 92.0582 10.7131C92.2173 10.7131 92.4048 10.7187 92.6207 10.7301C92.8423 10.7415 93.0156 10.7557 93.1406 10.7727V13.2102C93.0384 13.1818 92.8565 13.1506 92.5952 13.1165C92.3338 13.0767 92.0724 13.0568 91.8111 13.0568C91.2088 13.0568 90.6719 13.1847 90.2003 13.4403C89.7344 13.6903 89.3651 14.0398 89.0923 14.4886C88.8196 14.9318 88.6832 15.4375 88.6832 16.0057V24H86.1349ZM103.428 6.54545L108.286 20.7614H108.482L113.339 6.54545H116.186L109.905 24H106.862L100.581 6.54545H103.428ZM122.832 24.2642C121.542 24.2642 120.431 23.9886 119.499 23.4375C118.573 22.8807 117.857 22.0994 117.352 21.0938C116.852 20.0824 116.602 18.8977 116.602 17.5398C116.602 16.1989 116.852 15.017 117.352 13.9943C117.857 12.9716 118.562 12.1733 119.465 11.5994C120.374 11.0256 121.437 10.7386 122.653 10.7386C123.391 10.7386 124.107 10.8608 124.8 11.1051C125.494 11.3494 126.116 11.733 126.667 12.2557C127.218 12.7784 127.653 13.4574 127.971 14.2926C128.289 15.1222 128.448 16.1307 128.448 17.3182V18.2216H118.042V16.3125H125.951C125.951 15.642 125.815 15.0483 125.542 14.5312C125.269 14.0085 124.886 13.5966 124.391 13.2955C123.903 12.9943 123.329 12.8438 122.67 12.8438C121.954 12.8438 121.329 13.0199 120.795 13.3722C120.266 13.7187 119.857 14.1733 119.567 14.7358C119.283 15.2926 119.141 15.8977 119.141 16.5511V18.0426C119.141 18.9176 119.295 19.6619 119.602 20.2756C119.914 20.8892 120.349 21.358 120.906 21.6818C121.462 22 122.113 22.1591 122.857 22.1591C123.34 22.1591 123.781 22.0909 124.178 21.9545C124.576 21.8125 124.92 21.6023 125.21 21.3239C125.499 21.0455 125.721 20.7017 125.874 20.2926L128.286 20.7273C128.093 21.4375 127.746 22.0597 127.246 22.5938C126.752 23.1222 126.13 23.5341 125.38 23.8295C124.636 24.1193 123.786 24.2642 122.832 24.2642ZM133.824 16.2273V24H131.276V10.9091H133.722V13.0398H133.884C134.185 12.3466 134.656 11.7898 135.298 11.3693C135.946 10.9489 136.761 10.7386 137.744 10.7386C138.636 10.7386 139.418 10.9261 140.088 11.3011C140.759 11.6705 141.278 12.2216 141.648 12.9545C142.017 13.6875 142.202 14.5937 142.202 15.6733V24H139.653V15.9801C139.653 15.0312 139.406 14.2898 138.912 13.7557C138.418 13.2159 137.739 12.946 136.875 12.946C136.284 12.946 135.759 13.0739 135.298 13.3295C134.844 13.5852 134.483 13.9602 134.216 14.4545C133.955 14.9432 133.824 15.5341 133.824 16.2273ZM150.52 24.2557C149.463 24.2557 148.52 23.9858 147.69 23.446C146.866 22.9006 146.219 22.125 145.747 21.1193C145.281 20.108 145.048 18.8949 145.048 17.4801C145.048 16.0653 145.284 14.8551 145.756 13.8494C146.233 12.8437 146.886 12.0739 147.716 11.5398C148.545 11.0057 149.486 10.7386 150.537 10.7386C151.349 10.7386 152.003 10.875 152.497 11.1477C152.997 11.4148 153.384 11.7273 153.656 12.0852C153.935 12.4432 154.151 12.7585 154.304 13.0312H154.457V6.54545H157.006V24H154.517V21.9631H154.304C154.151 22.2415 153.929 22.5597 153.639 22.9176C153.355 23.2756 152.963 23.5881 152.463 23.8551C151.963 24.1222 151.315 24.2557 150.52 24.2557ZM151.082 22.0824C151.815 22.0824 152.435 21.8892 152.94 21.5028C153.452 21.1108 153.838 20.5682 154.099 19.875C154.366 19.1818 154.5 18.375 154.5 17.4545C154.5 16.5455 154.369 15.75 154.108 15.0682C153.847 14.3864 153.463 13.8551 152.957 13.4744C152.452 13.0937 151.827 12.9034 151.082 12.9034C150.315 12.9034 149.676 13.1023 149.165 13.5C148.653 13.8977 148.267 14.4403 148.006 15.1278C147.75 15.8153 147.622 16.5909 147.622 17.4545C147.622 18.3295 147.753 19.1165 148.014 19.8153C148.276 20.5142 148.662 21.0682 149.173 21.4773C149.69 21.8807 150.327 22.0824 151.082 22.0824ZM166.157 24.2642C164.93 24.2642 163.859 23.983 162.944 23.4205C162.029 22.858 161.319 22.071 160.813 21.0597C160.308 20.0483 160.055 18.8665 160.055 17.5142C160.055 16.1562 160.308 14.9687 160.813 13.9517C161.319 12.9347 162.029 12.1449 162.944 11.5824C163.859 11.0199 164.93 10.7386 166.157 10.7386C167.384 10.7386 168.455 11.0199 169.37 11.5824C170.285 12.1449 170.995 12.9347 171.501 13.9517C172.006 14.9687 172.259 16.1562 172.259 17.5142C172.259 18.8665 172.006 20.0483 171.501 21.0597C170.995 22.071 170.285 22.858 169.37 23.4205C168.455 23.983 167.384 24.2642 166.157 24.2642ZM166.165 22.125C166.961 22.125 167.62 21.9148 168.143 21.4943C168.665 21.0739 169.052 20.5142 169.302 19.8153C169.558 19.1165 169.685 18.3466 169.685 17.5057C169.685 16.6705 169.558 15.9034 169.302 15.2045C169.052 14.5 168.665 13.9347 168.143 13.5085C167.62 13.0824 166.961 12.8693 166.165 12.8693C165.364 12.8693 164.7 13.0824 164.171 13.5085C163.648 13.9347 163.259 14.5 163.004 15.2045C162.754 15.9034 162.629 16.6705 162.629 17.5057C162.629 18.3466 162.754 19.1165 163.004 19.8153C163.259 20.5142 163.648 21.0739 164.171 21.4943C164.7 21.9148 165.364 22.125 166.165 22.125ZM175.104 24V10.9091H177.567V12.9886H177.703C177.942 12.2841 178.362 11.7301 178.964 11.3267C179.572 10.9176 180.26 10.7131 181.027 10.7131C181.186 10.7131 181.374 10.7187 181.589 10.7301C181.811 10.7415 181.984 10.7557 182.109 10.7727V13.2102C182.007 13.1818 181.825 13.1506 181.564 13.1165C181.303 13.0767 181.041 13.0568 180.78 13.0568C180.178 13.0568 179.641 13.1847 179.169 13.4403C178.703 13.6903 178.334 14.0398 178.061 14.4886C177.788 14.9318 177.652 15.4375 177.652 16.0057V24H175.104ZM200.391 11.1307C200.3 10.3239 199.925 9.69886 199.266 9.25568C198.607 8.80682 197.777 8.58239 196.777 8.58239C196.061 8.58239 195.442 8.69602 194.919 8.92329C194.396 9.14489 193.99 9.4517 193.7 9.84375C193.416 10.2301 193.274 10.6705 193.274 11.1648C193.274 11.5795 193.371 11.9375 193.564 12.2386C193.763 12.5398 194.021 12.7926 194.339 12.9972C194.663 13.196 195.01 13.3636 195.379 13.5C195.749 13.6307 196.104 13.7386 196.445 13.8239L198.149 14.267C198.706 14.4034 199.277 14.5881 199.862 14.821C200.447 15.054 200.99 15.3608 201.49 15.7415C201.99 16.1222 202.393 16.5938 202.7 17.1562C203.013 17.7188 203.169 18.392 203.169 19.1761C203.169 20.1648 202.913 21.0426 202.402 21.8097C201.896 22.5767 201.161 23.1818 200.195 23.625C199.234 24.0682 198.072 24.2898 196.709 24.2898C195.402 24.2898 194.271 24.0824 193.317 23.6676C192.362 23.2528 191.615 22.6648 191.075 21.9034C190.536 21.1364 190.237 20.2273 190.18 19.1761H192.822C192.874 19.8068 193.078 20.3324 193.436 20.7528C193.8 21.1676 194.263 21.4773 194.825 21.6818C195.393 21.8807 196.016 21.9801 196.692 21.9801C197.436 21.9801 198.098 21.8636 198.678 21.6307C199.263 21.392 199.723 21.0625 200.058 20.642C200.393 20.2159 200.561 19.7187 200.561 19.1506C200.561 18.6335 200.413 18.2102 200.118 17.8807C199.828 17.5511 199.433 17.2784 198.933 17.0625C198.439 16.8466 197.879 16.6562 197.254 16.4915L195.192 15.929C193.794 15.5483 192.686 14.9886 191.868 14.25C191.055 13.5114 190.649 12.5341 190.649 11.3182C190.649 10.3125 190.922 9.43466 191.467 8.68466C192.013 7.93466 192.751 7.35227 193.683 6.9375C194.615 6.51705 195.666 6.30682 196.837 6.30682C198.018 6.30682 199.061 6.5142 199.964 6.92898C200.874 7.34375 201.589 7.91477 202.112 8.64204C202.635 9.36364 202.908 10.1932 202.93 11.1307H200.391ZM214.404 18.571V10.9091H216.961V24H214.455V21.733H214.319C214.018 22.4318 213.535 23.0142 212.87 23.4801C212.211 23.9403 211.39 24.1705 210.407 24.1705C209.566 24.1705 208.822 23.9858 208.174 23.6165C207.532 23.2415 207.026 22.6875 206.657 21.9545C206.293 21.2216 206.112 20.3153 206.112 19.2358V10.9091H208.66V18.929C208.66 19.821 208.907 20.5312 209.401 21.0597C209.896 21.5881 210.538 21.8523 211.327 21.8523C211.805 21.8523 212.279 21.733 212.751 21.4943C213.228 21.2557 213.623 20.8949 213.935 20.4119C214.254 19.929 214.41 19.3153 214.404 18.571ZM220.385 24V10.9091H222.831V13.0398H222.993C223.266 12.3182 223.712 11.7557 224.331 11.3523C224.95 10.9432 225.692 10.7386 226.555 10.7386C227.43 10.7386 228.163 10.9432 228.754 11.3523C229.351 11.7614 229.791 12.3239 230.075 13.0398H230.212C230.524 12.3409 231.021 11.7841 231.703 11.3693C232.385 10.9489 233.197 10.7386 234.141 10.7386C235.328 10.7386 236.297 11.1108 237.047 11.8551C237.803 12.5994 238.18 13.7216 238.18 15.2216V24H235.632V15.4602C235.632 14.5739 235.391 13.9318 234.908 13.5341C234.425 13.1364 233.848 12.9375 233.178 12.9375C232.348 12.9375 231.703 13.1932 231.243 13.7045C230.783 14.2102 230.553 14.8608 230.553 15.6562V24H228.013V15.2983C228.013 14.5881 227.791 14.017 227.348 13.5852C226.905 13.1534 226.328 12.9375 225.618 12.9375C225.135 12.9375 224.689 13.0653 224.28 13.321C223.876 13.571 223.55 13.9205 223.3 14.3693C223.055 14.8182 222.933 15.3381 222.933 15.929V24H220.385ZM241.596 24V10.9091H244.042V13.0398H244.204C244.477 12.3182 244.923 11.7557 245.542 11.3523C246.161 10.9432 246.903 10.7386 247.766 10.7386C248.641 10.7386 249.374 10.9432 249.965 11.3523C250.562 11.7614 251.002 12.3239 251.286 13.0398H251.423C251.735 12.3409 252.232 11.7841 252.914 11.3693C253.596 10.9489 254.408 10.7386 255.352 10.7386C256.539 10.7386 257.508 11.1108 258.258 11.8551C259.013 12.5994 259.391 13.7216 259.391 15.2216V24H256.843V15.4602C256.843 14.5739 256.602 13.9318 256.119 13.5341C255.636 13.1364 255.059 12.9375 254.388 12.9375C253.559 12.9375 252.914 13.1932 252.454 13.7045C251.994 14.2102 251.763 14.8608 251.763 15.6562V24H249.224V15.2983C249.224 14.5881 249.002 14.017 248.559 13.5852C248.116 13.1534 247.539 12.9375 246.829 12.9375C246.346 12.9375 245.9 13.0653 245.491 13.321C245.087 13.571 244.761 13.9205 244.511 14.3693C244.266 14.8182 244.144 15.3381 244.144 15.929V24H241.596ZM266.616 24.2898C265.787 24.2898 265.037 24.1364 264.366 23.8295C263.696 23.517 263.165 23.0653 262.773 22.4744C262.386 21.8835 262.193 21.1591 262.193 20.3011C262.193 19.5625 262.335 18.9545 262.619 18.4773C262.903 18 263.287 17.6222 263.77 17.3438C264.253 17.0653 264.793 16.8551 265.389 16.7131C265.986 16.571 266.594 16.4631 267.213 16.3892C267.997 16.2983 268.634 16.2244 269.122 16.1676C269.611 16.1051 269.966 16.0057 270.188 15.8693C270.409 15.733 270.52 15.5114 270.52 15.2045V15.1449C270.52 14.4006 270.31 13.8239 269.889 13.4148C269.474 13.0057 268.855 12.8011 268.031 12.8011C267.173 12.8011 266.497 12.9915 266.003 13.3722C265.514 13.7472 265.176 14.1648 264.989 14.625L262.594 14.0795C262.878 13.2841 263.293 12.642 263.838 12.1534C264.389 11.6591 265.023 11.3011 265.739 11.0795C266.455 10.8523 267.207 10.7386 267.997 10.7386C268.52 10.7386 269.074 10.8011 269.659 10.9261C270.25 11.0455 270.801 11.267 271.312 11.5909C271.83 11.9148 272.253 12.3778 272.582 12.9801C272.912 13.5767 273.077 14.3523 273.077 15.3068V24H270.588V22.2102H270.486C270.321 22.5398 270.074 22.8636 269.744 23.1818C269.415 23.5 268.991 23.7642 268.474 23.9744C267.957 24.1847 267.338 24.2898 266.616 24.2898ZM267.17 22.2443C267.875 22.2443 268.477 22.1051 268.977 21.8267C269.483 21.5483 269.866 21.1847 270.128 20.7358C270.395 20.2812 270.528 19.7955 270.528 19.2784V17.5909C270.438 17.6818 270.261 17.767 270 17.8466C269.744 17.9205 269.452 17.9858 269.122 18.0426C268.793 18.0937 268.472 18.142 268.159 18.1875C267.847 18.2273 267.585 18.2614 267.375 18.2898C266.881 18.3523 266.429 18.4574 266.02 18.6051C265.616 18.7528 265.293 18.9659 265.048 19.2443C264.81 19.517 264.69 19.8807 264.69 20.3352C264.69 20.9659 264.923 21.4432 265.389 21.767C265.855 22.0852 266.449 22.2443 267.17 22.2443ZM276.471 24V10.9091H278.934V12.9886H279.07C279.309 12.2841 279.729 11.7301 280.332 11.3267C280.94 10.9176 281.627 10.7131 282.394 10.7131C282.553 10.7131 282.741 10.7187 282.957 10.7301C283.178 10.7415 283.352 10.7557 283.477 10.7727V13.2102C283.374 13.1818 283.192 13.1506 282.931 13.1165C282.67 13.0767 282.408 13.0568 282.147 13.0568C281.545 13.0568 281.008 13.1847 280.536 13.4403C280.07 13.6903 279.701 14.0398 279.428 14.4886C279.156 14.9318 279.019 15.4375 279.019 16.0057V24H276.471ZM287.691 28.9091C287.31 28.9091 286.964 28.8778 286.651 28.8153C286.339 28.7585 286.106 28.696 285.952 28.6278L286.566 26.5398C287.032 26.6648 287.447 26.7188 287.81 26.7017C288.174 26.6847 288.495 26.5483 288.773 26.2926C289.058 26.0369 289.308 25.6193 289.523 25.0398L289.839 24.1705L285.049 10.9091H287.776L291.092 21.0682H291.228L294.543 10.9091H297.279L291.884 25.7472C291.634 26.429 291.316 27.0057 290.93 27.4773C290.543 27.9545 290.083 28.3125 289.549 28.5511C289.015 28.7898 288.396 28.9091 287.691 28.9091Z" fill="#131520"/>
<rect x="833.5" y="0.5" width="142" height="31" rx="3.5" fill="white"/>
<path d="M846.696 20H845.298L848.439 11.2727H849.96L853.101 20H851.703L849.236 12.858H849.168L846.696 20ZM846.93 16.5824H851.464V17.6903H846.93V16.5824ZM855.259 22.4545V13.4545H856.503V14.5156H856.61C856.684 14.3793 856.79 14.2216 856.929 14.0426C857.069 13.8636 857.262 13.7074 857.509 13.5739C857.756 13.4375 858.083 13.3693 858.489 13.3693C859.017 13.3693 859.489 13.5028 859.904 13.7699C860.319 14.0369 860.644 14.4219 860.88 14.9247C861.118 15.4276 861.238 16.0327 861.238 16.7401C861.238 17.4474 861.12 18.054 860.884 18.5597C860.648 19.0625 860.324 19.4503 859.912 19.723C859.5 19.9929 859.03 20.1278 858.502 20.1278C858.104 20.1278 857.779 20.0611 857.526 19.9276C857.276 19.794 857.08 19.6378 856.938 19.4588C856.796 19.2798 856.686 19.1207 856.61 18.9815H856.533V22.4545H855.259ZM856.507 16.7273C856.507 17.1875 856.574 17.5909 856.708 17.9375C856.841 18.2841 857.034 18.5554 857.287 18.7514C857.54 18.9446 857.85 19.0412 858.216 19.0412C858.597 19.0412 858.915 18.9403 859.171 18.7386C859.426 18.5341 859.62 18.2571 859.75 17.9077C859.884 17.5582 859.951 17.1648 859.951 16.7273C859.951 16.2955 859.885 15.9077 859.755 15.5639C859.627 15.2202 859.434 14.9489 859.175 14.75C858.919 14.5511 858.6 14.4517 858.216 14.4517C857.847 14.4517 857.534 14.5469 857.279 14.7372C857.026 14.9276 856.834 15.1932 856.703 15.5341C856.573 15.875 856.507 16.2727 856.507 16.7273ZM863.665 22.4545V13.4545H864.909V14.5156H865.016C865.09 14.3793 865.196 14.2216 865.336 14.0426C865.475 13.8636 865.668 13.7074 865.915 13.5739C866.162 13.4375 866.489 13.3693 866.895 13.3693C867.424 13.3693 867.895 13.5028 868.31 13.7699C868.725 14.0369 869.05 14.4219 869.286 14.9247C869.525 15.4276 869.644 16.0327 869.644 16.7401C869.644 17.4474 869.526 18.054 869.29 18.5597C869.054 19.0625 868.73 19.4503 868.319 19.723C867.907 19.9929 867.436 20.1278 866.908 20.1278C866.51 20.1278 866.185 20.0611 865.932 19.9276C865.682 19.794 865.486 19.6378 865.344 19.4588C865.202 19.2798 865.093 19.1207 865.016 18.9815H864.939V22.4545H863.665ZM864.914 16.7273C864.914 17.1875 864.98 17.5909 865.114 17.9375C865.248 18.2841 865.441 18.5554 865.694 18.7514C865.946 18.9446 866.256 19.0412 866.623 19.0412C867.003 19.0412 867.321 18.9403 867.577 18.7386C867.833 18.5341 868.026 18.2571 868.157 17.9077C868.29 17.5582 868.357 17.1648 868.357 16.7273C868.357 16.2955 868.292 15.9077 868.161 15.5639C868.033 15.2202 867.84 14.9489 867.581 14.75C867.326 14.5511 867.006 14.4517 866.623 14.4517C866.253 14.4517 865.941 14.5469 865.685 14.7372C865.432 14.9276 865.24 15.1932 865.11 15.5341C864.979 15.875 864.914 16.2727 864.914 16.7273ZM873.346 11.2727V20H872.071V11.2727H873.346ZM876.865 22.4545C876.675 22.4545 876.501 22.4389 876.345 22.4077C876.189 22.3793 876.072 22.348 875.996 22.3139L876.303 21.2699C876.536 21.3324 876.743 21.3594 876.925 21.3509C877.107 21.3423 877.267 21.2741 877.406 21.1463C877.548 21.0185 877.673 20.8097 877.781 20.5199L877.939 20.0852L875.544 13.4545H876.908L878.565 18.5341H878.634L880.291 13.4545H881.659L878.962 20.8736C878.837 21.2145 878.678 21.5028 878.484 21.7386C878.291 21.9773 878.061 22.1563 877.794 22.2756C877.527 22.3949 877.217 22.4545 876.865 22.4545ZM891.147 13.4545V14.4773H887.449V13.4545H891.147ZM888.463 20V12.696C888.463 12.2869 888.552 11.9474 888.731 11.6776C888.91 11.4048 889.147 11.2017 889.443 11.0682C889.738 10.9318 890.059 10.8636 890.406 10.8636C890.662 10.8636 890.88 10.8849 891.062 10.9276C891.244 10.9673 891.379 11.0043 891.467 11.0384L891.169 12.0696C891.109 12.0526 891.032 12.0327 890.939 12.0099C890.845 11.9844 890.731 11.9716 890.598 11.9716C890.288 11.9716 890.066 12.0483 889.933 12.2017C889.802 12.3551 889.737 12.5767 889.737 12.8665V20H888.463ZM893.462 20V13.4545H894.736V20H893.462ZM894.105 12.4446C893.884 12.4446 893.694 12.3707 893.534 12.223C893.378 12.0724 893.3 11.8935 893.3 11.6861C893.3 11.4759 893.378 11.2969 893.534 11.1491C893.694 10.9986 893.884 10.9233 894.105 10.9233C894.327 10.9233 894.516 10.9986 894.672 11.1491C894.831 11.2969 894.911 11.4759 894.911 11.6861C894.911 11.8935 894.831 12.0724 894.672 12.223C894.516 12.3707 894.327 12.4446 894.105 12.4446ZM898.724 11.2727V20H897.45V11.2727H898.724ZM904.494 13.4545V14.4773H900.919V13.4545H904.494ZM901.877 11.8864H903.152V18.0781C903.152 18.3253 903.189 18.5114 903.262 18.6364C903.336 18.7585 903.431 18.8423 903.548 18.8878C903.667 18.9304 903.797 18.9517 903.936 18.9517C904.038 18.9517 904.127 18.9446 904.204 18.9304C904.281 18.9162 904.341 18.9048 904.383 18.8963L904.613 19.9489C904.539 19.9773 904.434 20.0057 904.298 20.0341C904.162 20.0653 903.991 20.0824 903.787 20.0852C903.451 20.0909 903.139 20.0312 902.849 19.9062C902.559 19.7812 902.325 19.5881 902.146 19.3267C901.967 19.0653 901.877 18.7372 901.877 18.3423V11.8864ZM909.654 20.1321C909.009 20.1321 908.454 19.9943 907.988 19.7188C907.525 19.4403 907.167 19.0497 906.914 18.5469C906.664 18.0412 906.539 17.4489 906.539 16.7699C906.539 16.0994 906.664 15.5085 906.914 14.9972C907.167 14.4858 907.519 14.0866 907.971 13.7997C908.425 13.5128 908.957 13.3693 909.565 13.3693C909.934 13.3693 910.292 13.4304 910.638 13.5526C910.985 13.6747 911.296 13.8665 911.572 14.1278C911.847 14.3892 912.065 14.7287 912.224 15.1463C912.383 15.5611 912.462 16.0653 912.462 16.6591V17.1108H907.259V16.1562H911.214C911.214 15.821 911.146 15.5241 911.009 15.2656C910.873 15.0043 910.681 14.7983 910.434 14.6477C910.19 14.4972 909.903 14.4219 909.573 14.4219C909.215 14.4219 908.903 14.5099 908.636 14.6861C908.371 14.8594 908.167 15.0866 908.022 15.3679C907.88 15.6463 907.809 15.9489 907.809 16.2756V17.0213C907.809 17.4588 907.886 17.831 908.039 18.1378C908.195 18.4446 908.413 18.679 908.691 18.8409C908.969 19 909.295 19.0795 909.667 19.0795C909.908 19.0795 910.129 19.0455 910.327 18.9773C910.526 18.9062 910.698 18.8011 910.843 18.6619C910.988 18.5227 911.099 18.3509 911.175 18.1463L912.381 18.3636C912.285 18.7187 912.112 19.0298 911.862 19.2969C911.614 19.5611 911.303 19.767 910.928 19.9148C910.556 20.0597 910.131 20.1321 909.654 20.1321ZM914.876 20V13.4545H916.108V14.4943H916.176C916.295 14.142 916.505 13.8651 916.806 13.6634C917.11 13.4588 917.454 13.3565 917.838 13.3565C917.917 13.3565 918.011 13.3594 918.119 13.3651C918.23 13.3707 918.316 13.3778 918.379 13.3864V14.6051C918.328 14.5909 918.237 14.5753 918.106 14.5582C917.975 14.5384 917.845 14.5284 917.714 14.5284C917.413 14.5284 917.145 14.5923 916.909 14.7202C916.676 14.8452 916.491 15.0199 916.355 15.2443C916.218 15.4659 916.15 15.7187 916.15 16.0028V20H914.876ZM925.386 15.0526L924.232 15.2571C924.183 15.1094 924.107 14.9687 924.001 14.8352C923.899 14.7017 923.76 14.5923 923.584 14.5071C923.408 14.4219 923.188 14.3793 922.923 14.3793C922.563 14.3793 922.261 14.4602 922.02 14.6222C921.778 14.7812 921.658 14.9872 921.658 15.2401C921.658 15.4588 921.739 15.6349 921.901 15.7685C922.063 15.902 922.324 16.0114 922.685 16.0966L923.724 16.3352C924.327 16.4744 924.776 16.6889 925.071 16.9787C925.366 17.2685 925.514 17.6449 925.514 18.108C925.514 18.5 925.401 18.8494 925.173 19.1562C924.949 19.4602 924.635 19.6989 924.232 19.8722C923.831 20.0455 923.366 20.1321 922.838 20.1321C922.105 20.1321 921.507 19.9759 921.044 19.6634C920.581 19.348 920.297 18.9006 920.192 18.321L921.423 18.1335C921.5 18.4545 921.658 18.6974 921.896 18.8622C922.135 19.0241 922.446 19.1051 922.83 19.1051C923.247 19.1051 923.581 19.0185 923.831 18.8452C924.081 18.669 924.206 18.4545 924.206 18.2017C924.206 17.9972 924.129 17.8253 923.976 17.6861C923.825 17.5469 923.594 17.4418 923.281 17.3707L922.173 17.1278C921.563 16.9886 921.111 16.767 920.818 16.4631C920.528 16.1591 920.384 15.7741 920.384 15.3082C920.384 14.9219 920.491 14.5838 920.707 14.294C920.923 14.0043 921.222 13.7784 921.602 13.6165C921.983 13.4517 922.419 13.3693 922.911 13.3693C923.618 13.3693 924.175 13.5227 924.581 13.8295C924.987 14.1335 925.256 14.5412 925.386 15.0526Z" fill="#1757C2"/>
<line x1="936.5" y1="5" x2="936.5" y2="27" stroke="#1757C2"/>
<path d="M959.833 9.33333H948.168C947.427 9.33333 947.054 10.2314 947.578 10.7559L952.333 15.5118V20.375C952.333 20.4938 952.359 20.6112 952.408 20.7193C952.457 20.8275 952.529 20.9239 952.618 21.0021L954.285 22.46C954.817 22.9257 955.667 22.5559 955.667 21.8329V15.5118L960.422 10.7559C960.945 10.2325 960.574 9.33333 959.833 9.33333ZM954.833 15.1667V21.8333L953.167 20.375V15.1667L948.167 10.1667H959.833L954.833 15.1667Z" fill="#1757C2"/>
<path fill-rule="evenodd" clip-rule="evenodd" d="M947.447 10.8868C946.806 10.2455 947.263 9.14815 948.168 9.14815H959.833C960.74 9.14815 961.193 10.247 960.553 10.8868V10.8868L955.852 15.5885V21.8329C955.852 22.7185 954.812 23.1675 954.163 22.5994V22.5994L952.496 21.1415C952.387 21.0459 952.299 20.9281 952.239 20.7959C952.179 20.6637 952.148 20.5202 952.148 20.375V15.5885L947.447 10.8868V10.8868ZM948.168 9.51852C947.592 9.51852 947.302 10.2174 947.709 10.625L952.519 15.4352V20.375C952.519 20.4674 952.538 20.5587 952.577 20.6428C952.615 20.7269 952.67 20.8019 952.74 20.8627V20.8627L954.407 22.3206C954.822 22.6839 955.482 22.3932 955.482 21.8329V15.4352L960.291 10.625C960.698 10.218 960.409 9.51852 959.833 9.51852H948.168ZM947.72 9.98148H960.28L955.019 15.2434V22.2414L952.982 20.459V15.2434L947.72 9.98148ZM948.614 10.3519L953.352 15.09V20.291L954.648 21.4252V15.09L959.386 10.3519H948.614Z" fill="#1757C2"/>
<rect x="833.5" y="0.5" width="142" height="31" rx="3.5" stroke="#1757C2"/>
<rect x="992.5" y="0.5" width="91" height="31" rx="3.5" fill="white"/>
<g clip-path="url(#clip0_131_8242)">
<path fill-rule="evenodd" clip-rule="evenodd" d="M1014 8.70834C1014.35 8.70834 1014.63 8.98816 1014.63 9.33334V16.7136L1016.52 14.8172C1016.77 14.5731 1017.16 14.5731 1017.41 14.8172C1017.65 15.0613 1017.65 15.457 1017.41 15.7011L1014.44 18.6644C1014.2 18.9085 1013.8 18.9085 1013.56 18.6644L1010.59 15.7011C1010.35 15.457 1010.35 15.0613 1010.59 14.8172C1010.84 14.5731 1011.23 14.5731 1011.48 14.8172L1013.38 16.7136V9.33334C1013.38 8.98816 1013.65 8.70834 1014 8.70834ZM1007.33 19.0783C1007.68 19.0783 1007.96 19.3582 1007.96 19.7033C1007.96 20.3235 1008.2 20.9183 1008.64 21.3568C1009.08 21.7953 1009.68 22.0417 1010.3 22.0417H1017.7C1018.32 22.0417 1018.92 21.7953 1019.36 21.3568C1019.8 20.9183 1020.04 20.3235 1020.04 19.7033C1020.04 19.3582 1020.32 19.0783 1020.67 19.0783C1021.01 19.0783 1021.29 19.3582 1021.29 19.7033C1021.29 20.655 1020.91 21.5677 1020.24 22.2407C1019.57 22.9136 1018.66 23.2917 1017.7 23.2917H1010.3C1009.34 23.2917 1008.43 22.9136 1007.76 22.2407C1007.09 21.5677 1006.71 20.655 1006.71 19.7033C1006.71 19.3582 1006.99 19.0783 1007.33 19.0783Z" fill="#1757C2"/>
</g>
<path d="M1028.96 20V11.2727H1034.43V12.4062H1030.28V15.0653H1034.14V16.1946H1030.28V18.8665H1034.48V20H1028.96ZM1038.09 13.4545L1039.54 16.0028L1040.99 13.4545H1042.39L1040.35 16.7273L1042.41 20H1041.01L1039.54 17.554L1038.07 20H1036.67L1038.71 16.7273L1036.69 13.4545H1038.09ZM1044.7 22.4545V13.4545H1045.94V14.5156H1046.05C1046.12 14.3793 1046.23 14.2216 1046.37 14.0426C1046.51 13.8636 1046.7 13.7074 1046.95 13.5739C1047.19 13.4375 1047.52 13.3693 1047.93 13.3693C1048.45 13.3693 1048.93 13.5028 1049.34 13.7699C1049.76 14.0369 1050.08 14.4219 1050.32 14.9247C1050.56 15.4276 1050.68 16.0327 1050.68 16.7401C1050.68 17.4474 1050.56 18.054 1050.32 18.5597C1050.09 19.0625 1049.76 19.4503 1049.35 19.723C1048.94 19.9929 1048.47 20.1278 1047.94 20.1278C1047.54 20.1278 1047.22 20.0611 1046.96 19.9276C1046.71 19.794 1046.52 19.6378 1046.38 19.4588C1046.23 19.2798 1046.12 19.1207 1046.05 18.9815H1045.97V22.4545H1044.7ZM1045.94 16.7273C1045.94 17.1875 1046.01 17.5909 1046.15 17.9375C1046.28 18.2841 1046.47 18.5554 1046.72 18.7514C1046.98 18.9446 1047.29 19.0412 1047.65 19.0412C1048.03 19.0412 1048.35 18.9403 1048.61 18.7386C1048.86 18.5341 1049.06 18.2571 1049.19 17.9077C1049.32 17.5582 1049.39 17.1648 1049.39 16.7273C1049.39 16.2955 1049.32 15.9077 1049.19 15.5639C1049.06 15.2202 1048.87 14.9489 1048.61 14.75C1048.36 14.5511 1048.04 14.4517 1047.65 14.4517C1047.28 14.4517 1046.97 14.5469 1046.72 14.7372C1046.46 14.9276 1046.27 15.1932 1046.14 15.5341C1046.01 15.875 1045.94 16.2727 1045.94 16.7273ZM1055.86 20.1321C1055.25 20.1321 1054.71 19.9915 1054.25 19.7102C1053.8 19.429 1053.44 19.0355 1053.19 18.5298C1052.94 18.0241 1052.81 17.4332 1052.81 16.7571C1052.81 16.0781 1052.94 15.4844 1053.19 14.9759C1053.44 14.4673 1053.8 14.0724 1054.25 13.7912C1054.71 13.5099 1055.25 13.3693 1055.86 13.3693C1056.47 13.3693 1057.01 13.5099 1057.47 13.7912C1057.92 14.0724 1058.28 14.4673 1058.53 14.9759C1058.78 15.4844 1058.91 16.0781 1058.91 16.7571C1058.91 17.4332 1058.78 18.0241 1058.53 18.5298C1058.28 19.0355 1057.92 19.429 1057.47 19.7102C1057.01 19.9915 1056.47 20.1321 1055.86 20.1321ZM1055.86 19.0625C1056.26 19.0625 1056.59 18.9574 1056.85 18.7472C1057.11 18.5369 1057.31 18.2571 1057.43 17.9077C1057.56 17.5582 1057.62 17.1733 1057.62 16.7528C1057.62 16.3352 1057.56 15.9517 1057.43 15.6023C1057.31 15.25 1057.11 14.9673 1056.85 14.7543C1056.59 14.5412 1056.26 14.4347 1055.86 14.4347C1055.46 14.4347 1055.13 14.5412 1054.87 14.7543C1054.61 14.9673 1054.41 15.25 1054.28 15.6023C1054.16 15.9517 1054.1 16.3352 1054.1 16.7528C1054.1 17.1733 1054.16 17.5582 1054.28 17.9077C1054.41 18.2571 1054.61 18.5369 1054.87 18.7472C1055.13 18.9574 1055.46 19.0625 1055.86 19.0625ZM1061.33 20V13.4545H1062.56V14.4943H1062.63C1062.75 14.142 1062.96 13.8651 1063.26 13.6634C1063.57 13.4588 1063.91 13.3565 1064.29 13.3565C1064.37 13.3565 1064.47 13.3594 1064.58 13.3651C1064.69 13.3707 1064.77 13.3778 1064.84 13.3864V14.6051C1064.78 14.5909 1064.69 14.5753 1064.56 14.5582C1064.43 14.5384 1064.3 14.5284 1064.17 14.5284C1063.87 14.5284 1063.6 14.5923 1063.37 14.7202C1063.13 14.8452 1062.95 15.0199 1062.81 15.2443C1062.68 15.4659 1062.61 15.7187 1062.61 16.0028V20H1061.33ZM1070.38 13.4545V14.4773H1066.81V13.4545H1070.38ZM1067.76 11.8864H1069.04V18.0781C1069.04 18.3253 1069.08 18.5114 1069.15 18.6364C1069.22 18.7585 1069.32 18.8423 1069.43 18.8878C1069.55 18.9304 1069.68 18.9517 1069.82 18.9517C1069.92 18.9517 1070.01 18.9446 1070.09 18.9304C1070.17 18.9162 1070.23 18.9048 1070.27 18.8963L1070.5 19.9489C1070.43 19.9773 1070.32 20.0057 1070.18 20.0341C1070.05 20.0653 1069.88 20.0824 1069.67 20.0852C1069.34 20.0909 1069.03 20.0312 1068.74 19.9062C1068.45 19.7812 1068.21 19.5881 1068.03 19.3267C1067.85 19.0653 1067.76 18.7372 1067.76 18.3423V11.8864Z" fill="#1757C2"/>
<rect x="992.5" y="0.5" width="91" height="31" rx="3.5" stroke="#1757C2"/>
<defs>
<clipPath id="clip0_131_8242">
<rect width="20" height="20" fill="white" transform="translate(1004 6)"/>
</clipPath>
</defs>
</svg>
