<svg width="1084" height="117" viewBox="0 0 1084 117" fill="none" xmlns="http://www.w3.org/2000/svg">
<path d="M790.957 43.1108H789.628C789.577 42.8267 789.482 42.5767 789.342 42.3608C789.203 42.1449 789.033 41.9616 788.831 41.8111C788.629 41.6605 788.403 41.5469 788.153 41.4702C787.906 41.3935 787.643 41.3551 787.365 41.3551C786.862 41.3551 786.412 41.4815 786.014 41.7344C785.619 41.9872 785.307 42.358 785.077 42.8466C784.849 43.3352 784.736 43.9318 784.736 44.6364C784.736 45.3466 784.849 45.946 785.077 46.4347C785.307 46.9233 785.621 47.2926 786.018 47.5426C786.416 47.7926 786.864 47.9176 787.361 47.9176C787.636 47.9176 787.898 47.8807 788.145 47.8068C788.395 47.7301 788.621 47.6179 788.822 47.4702C789.024 47.3224 789.195 47.142 789.334 46.929C789.476 46.7131 789.574 46.4659 789.628 46.1875L790.957 46.1918C790.886 46.6207 790.749 47.0156 790.544 47.3764C790.342 47.7344 790.082 48.044 789.764 48.3054C789.449 48.5639 789.088 48.7642 788.682 48.9062C788.276 49.0483 787.832 49.1193 787.352 49.1193C786.597 49.1193 785.923 48.9403 785.332 48.5824C784.741 48.2216 784.276 47.706 783.935 47.0355C783.597 46.3651 783.428 45.5653 783.428 44.6364C783.428 43.7045 783.598 42.9048 783.939 42.2372C784.28 41.5668 784.746 41.0526 785.337 40.6946C785.928 40.3338 786.599 40.1534 787.352 40.1534C787.815 40.1534 788.247 40.2202 788.648 40.3537C789.051 40.4844 789.413 40.6776 789.734 40.9332C790.055 41.1861 790.321 41.4957 790.531 41.8622C790.741 42.2259 790.884 42.642 790.957 43.1108ZM792.431 49V42.4545H793.662V43.4943H793.73C793.85 43.142 794.06 42.8651 794.361 42.6634C794.665 42.4588 795.009 42.3565 795.392 42.3565C795.472 42.3565 795.566 42.3594 795.674 42.3651C795.784 42.3707 795.871 42.3778 795.934 42.3864V43.6051C795.882 43.5909 795.792 43.5753 795.661 43.5582C795.53 43.5384 795.4 43.5284 795.269 43.5284C794.968 43.5284 794.699 43.5923 794.463 43.7202C794.23 43.8452 794.046 44.0199 793.909 44.2443C793.773 44.4659 793.705 44.7187 793.705 45.0028V49H792.431ZM797.036 49V42.4545H798.31V49H797.036ZM797.68 41.4446C797.458 41.4446 797.268 41.3707 797.109 41.223C796.952 41.0724 796.874 40.8935 796.874 40.6861C796.874 40.4759 796.952 40.2969 797.109 40.1491C797.268 39.9986 797.458 39.9233 797.68 39.9233C797.901 39.9233 798.09 39.9986 798.246 40.1491C798.406 40.2969 798.485 40.4759 798.485 40.6861C798.485 40.8935 798.406 41.0724 798.246 41.223C798.09 41.3707 797.901 41.4446 797.68 41.4446ZM803.08 42.4545V43.4773H799.505V42.4545H803.08ZM800.463 40.8864H801.738V47.0781C801.738 47.3253 801.775 47.5114 801.848 47.6364C801.922 47.7585 802.017 47.8423 802.134 47.8878C802.253 47.9304 802.382 47.9517 802.522 47.9517C802.624 47.9517 802.713 47.9446 802.79 47.9304C802.867 47.9162 802.926 47.9048 802.969 47.8963L803.199 48.9489C803.125 48.9773 803.02 49.0057 802.884 49.0341C802.748 49.0653 802.577 49.0824 802.373 49.0852C802.037 49.0909 801.725 49.0312 801.435 48.9062C801.145 48.7812 800.911 48.5881 800.732 48.3267C800.553 48.0653 800.463 47.7372 800.463 47.3423V40.8864ZM804.489 49V42.4545H805.763V49H804.489ZM805.133 41.4446C804.911 41.4446 804.721 41.3707 804.562 41.223C804.406 41.0724 804.327 40.8935 804.327 40.6861C804.327 40.4759 804.406 40.2969 804.562 40.1491C804.721 39.9986 804.911 39.9233 805.133 39.9233C805.354 39.9233 805.543 39.9986 805.7 40.1491C805.859 40.2969 805.938 40.4759 805.938 40.6861C805.938 40.8935 805.859 41.0724 805.7 41.223C805.543 41.3707 805.354 41.4446 805.133 41.4446ZM810.235 49.1321C809.601 49.1321 809.056 48.9886 808.598 48.7017C808.144 48.4119 807.794 48.0128 807.55 47.5043C807.306 46.9957 807.184 46.4134 807.184 45.7571C807.184 45.0923 807.309 44.5057 807.559 43.9972C807.809 43.4858 808.161 43.0866 808.615 42.7997C809.07 42.5128 809.605 42.3693 810.222 42.3693C810.719 42.3693 811.162 42.4616 811.551 42.6463C811.941 42.8281 812.255 43.0838 812.493 43.4134C812.735 43.7429 812.878 44.1278 812.924 44.5682H811.684C811.615 44.2614 811.459 43.9972 811.215 43.7756C810.973 43.554 810.65 43.4432 810.243 43.4432C809.888 43.4432 809.577 43.5369 809.31 43.7244C809.046 43.9091 808.84 44.1733 808.692 44.517C808.544 44.858 808.471 45.2614 808.471 45.7273C808.471 46.2045 808.543 46.6165 808.688 46.9631C808.833 47.3097 809.037 47.5781 809.301 47.7685C809.569 47.9588 809.882 48.054 810.243 48.054C810.485 48.054 810.703 48.0099 810.9 47.9219C811.098 47.831 811.265 47.7017 811.398 47.5341C811.534 47.3665 811.63 47.1648 811.684 46.929H812.924C812.878 47.3523 812.74 47.7301 812.51 48.0625C812.28 48.3949 811.972 48.6562 811.586 48.8466C811.202 49.0369 810.752 49.1321 810.235 49.1321ZM816.191 49.1449C815.776 49.1449 815.401 49.0682 815.066 48.9148C814.731 48.7585 814.465 48.5327 814.269 48.2372C814.076 47.9418 813.979 47.5795 813.979 47.1506C813.979 46.7812 814.05 46.4773 814.192 46.2386C814.335 46 814.526 45.8111 814.768 45.6719C815.009 45.5327 815.279 45.4276 815.577 45.3565C815.876 45.2855 816.18 45.2315 816.489 45.1946C816.881 45.1491 817.2 45.1122 817.444 45.0838C817.688 45.0526 817.866 45.0028 817.977 44.9347C818.087 44.8665 818.143 44.7557 818.143 44.6023V44.5724C818.143 44.2003 818.038 43.9119 817.827 43.7074C817.62 43.5028 817.31 43.4006 816.898 43.4006C816.469 43.4006 816.131 43.4957 815.884 43.6861C815.64 43.8736 815.471 44.0824 815.377 44.3125L814.18 44.0398C814.322 43.642 814.529 43.321 814.802 43.0767C815.077 42.8295 815.394 42.6506 815.752 42.5398C816.11 42.4261 816.487 42.3693 816.881 42.3693C817.143 42.3693 817.42 42.4006 817.712 42.4631C818.008 42.5227 818.283 42.6335 818.539 42.7955C818.798 42.9574 819.009 43.1889 819.174 43.4901C819.339 43.7884 819.421 44.1761 819.421 44.6534V49H818.177V48.1051H818.126C818.043 48.2699 817.92 48.4318 817.755 48.5909C817.59 48.75 817.379 48.8821 817.12 48.9872C816.862 49.0923 816.552 49.1449 816.191 49.1449ZM816.468 48.1222C816.82 48.1222 817.121 48.0526 817.371 47.9134C817.624 47.7741 817.816 47.5923 817.947 47.3679C818.08 47.1406 818.147 46.8977 818.147 46.6392V45.7955C818.102 45.8409 818.013 45.8835 817.883 45.9233C817.755 45.9602 817.609 45.9929 817.444 46.0213C817.279 46.0469 817.119 46.071 816.962 46.0938C816.806 46.1136 816.675 46.1307 816.57 46.1449C816.323 46.1761 816.097 46.2287 815.893 46.3026C815.691 46.3764 815.529 46.483 815.407 46.6222C815.288 46.7585 815.228 46.9403 815.228 47.1676C815.228 47.483 815.344 47.7216 815.577 47.8835C815.81 48.0426 816.107 48.1222 816.468 48.1222ZM822.392 40.2727V49H821.118V40.2727H822.392Z" fill="black"/>
<circle cx="795" cy="70" r="12" fill="#E02424"/>
<path d="M789.738 65.824V69.256C789.738 69.62 789.72 69.978 789.684 70.33C789.648 70.678 789.602 71.048 789.546 71.44H788.538C788.482 71.048 788.436 70.678 788.4 70.33C788.364 69.978 788.346 69.62 788.346 69.256V65.824H789.738ZM788.112 73.684C788.112 73.56 788.134 73.442 788.178 73.33C788.226 73.218 788.29 73.122 788.37 73.042C788.454 72.962 788.552 72.898 788.664 72.85C788.776 72.802 788.896 72.778 789.024 72.778C789.148 72.778 789.266 72.802 789.378 72.85C789.49 72.898 789.586 72.962 789.666 73.042C789.75 73.122 789.816 73.218 789.864 73.33C789.912 73.442 789.936 73.56 789.936 73.684C789.936 73.812 789.912 73.932 789.864 74.044C789.816 74.152 789.75 74.246 789.666 74.326C789.586 74.406 789.49 74.468 789.378 74.512C789.266 74.56 789.148 74.584 789.024 74.584C788.896 74.584 788.776 74.56 788.664 74.512C788.552 74.468 788.454 74.406 788.37 74.326C788.29 74.246 788.226 74.152 788.178 74.044C788.134 73.932 788.112 73.812 788.112 73.684Z" fill="white"/>
<path d="M793.713 65.824V69.256C793.713 69.62 793.695 69.978 793.659 70.33C793.623 70.678 793.577 71.048 793.521 71.44H792.513C792.457 71.048 792.411 70.678 792.375 70.33C792.339 69.978 792.321 69.62 792.321 69.256V65.824H793.713ZM792.087 73.684C792.087 73.56 792.109 73.442 792.153 73.33C792.201 73.218 792.265 73.122 792.345 73.042C792.429 72.962 792.527 72.898 792.639 72.85C792.751 72.802 792.871 72.778 792.999 72.778C793.123 72.778 793.241 72.802 793.353 72.85C793.465 72.898 793.561 72.962 793.641 73.042C793.725 73.122 793.791 73.218 793.839 73.33C793.887 73.442 793.911 73.56 793.911 73.684C793.911 73.812 793.887 73.932 793.839 74.044C793.791 74.152 793.725 74.246 793.641 74.326C793.561 74.406 793.465 74.468 793.353 74.512C793.241 74.56 793.123 74.584 792.999 74.584C792.871 74.584 792.751 74.56 792.639 74.512C792.527 74.468 792.429 74.406 792.345 74.326C792.265 74.246 792.201 74.152 792.153 74.044C792.109 73.932 792.087 73.812 792.087 73.684Z" fill="white"/>
<path d="M797.688 65.824V69.256C797.688 69.62 797.67 69.978 797.634 70.33C797.598 70.678 797.552 71.048 797.496 71.44H796.488C796.432 71.048 796.386 70.678 796.35 70.33C796.314 69.978 796.296 69.62 796.296 69.256V65.824H797.688ZM796.062 73.684C796.062 73.56 796.084 73.442 796.128 73.33C796.176 73.218 796.24 73.122 796.32 73.042C796.404 72.962 796.502 72.898 796.614 72.85C796.726 72.802 796.846 72.778 796.974 72.778C797.098 72.778 797.216 72.802 797.328 72.85C797.44 72.898 797.536 72.962 797.616 73.042C797.7 73.122 797.766 73.218 797.814 73.33C797.862 73.442 797.886 73.56 797.886 73.684C797.886 73.812 797.862 73.932 797.814 74.044C797.766 74.152 797.7 74.246 797.616 74.326C797.536 74.406 797.44 74.468 797.328 74.512C797.216 74.56 797.098 74.584 796.974 74.584C796.846 74.584 796.726 74.56 796.614 74.512C796.502 74.468 796.404 74.406 796.32 74.326C796.24 74.246 796.176 74.152 796.128 74.044C796.084 73.932 796.062 73.812 796.062 73.684Z" fill="white"/>
<path d="M801.663 65.824V69.256C801.663 69.62 801.645 69.978 801.609 70.33C801.573 70.678 801.527 71.048 801.471 71.44H800.463C800.407 71.048 800.361 70.678 800.325 70.33C800.289 69.978 800.271 69.62 800.271 69.256V65.824H801.663ZM800.037 73.684C800.037 73.56 800.059 73.442 800.103 73.33C800.151 73.218 800.215 73.122 800.295 73.042C800.379 72.962 800.477 72.898 800.589 72.85C800.701 72.802 800.821 72.778 800.949 72.778C801.073 72.778 801.191 72.802 801.303 72.85C801.415 72.898 801.511 72.962 801.591 73.042C801.675 73.122 801.741 73.218 801.789 73.33C801.837 73.442 801.861 73.56 801.861 73.684C801.861 73.812 801.837 73.932 801.789 74.044C801.741 74.152 801.675 74.246 801.591 74.326C801.511 74.406 801.415 74.468 801.303 74.512C801.191 74.56 801.073 74.584 800.949 74.584C800.821 74.584 800.701 74.56 800.589 74.512C800.477 74.468 800.379 74.406 800.295 74.326C800.215 74.246 800.151 74.152 800.103 74.044C800.059 73.932 800.037 73.812 800.037 73.684Z" fill="white"/>
<path d="M819.375 75.1392C818.626 75.1392 817.988 74.9354 817.461 74.5277C816.934 74.1167 816.531 73.5218 816.253 72.7429C815.974 71.9607 815.835 71.0161 815.835 69.9091C815.835 68.8087 815.974 67.8691 816.253 67.0902C816.535 66.308 816.939 65.7114 817.466 65.3004C817.996 64.8861 818.633 64.679 819.375 64.679C820.117 64.679 820.752 64.8861 821.279 65.3004C821.809 65.7114 822.214 66.308 822.492 67.0902C822.774 67.8691 822.915 68.8087 822.915 69.9091C822.915 71.0161 822.776 71.9607 822.497 72.7429C822.219 73.5218 821.816 74.1167 821.289 74.5277C820.762 74.9354 820.124 75.1392 819.375 75.1392ZM819.375 74.0455C820.117 74.0455 820.694 73.6875 821.105 72.9716C821.516 72.2557 821.722 71.2348 821.722 69.9091C821.722 69.0275 821.627 68.2768 821.438 67.657C821.253 67.0372 820.984 66.5649 820.633 66.2401C820.285 65.9152 819.866 65.7528 819.375 65.7528C818.639 65.7528 818.064 66.1158 817.65 66.8416C817.236 67.5642 817.028 68.5866 817.028 69.9091C817.028 70.7907 817.121 71.5398 817.307 72.1562C817.492 72.7727 817.759 73.2417 818.107 73.5632C818.459 73.8847 818.881 74.0455 819.375 74.0455Z" fill="black"/>
<path d="M860.699 49V40.2727H862.016V44.0653H866.367V40.2727H867.688V49H866.367V45.1946H862.016V49H860.699ZM869.503 49V42.4545H870.777V49H869.503ZM870.146 41.4446C869.925 41.4446 869.735 41.3707 869.575 41.223C869.419 41.0724 869.341 40.8935 869.341 40.6861C869.341 40.4759 869.419 40.2969 869.575 40.1491C869.735 39.9986 869.925 39.9233 870.146 39.9233C870.368 39.9233 870.557 39.9986 870.713 40.1491C870.872 40.2969 870.952 40.4759 870.952 40.6861C870.952 40.8935 870.872 41.0724 870.713 41.223C870.557 41.3707 870.368 41.4446 870.146 41.4446ZM875.236 51.5909C874.716 51.5909 874.268 51.5227 873.893 51.3864C873.521 51.25 873.217 51.0696 872.981 50.8452C872.746 50.6207 872.569 50.375 872.453 50.108L873.548 49.6562C873.625 49.7812 873.727 49.9134 873.855 50.0526C873.986 50.1946 874.162 50.3153 874.383 50.4148C874.608 50.5142 874.896 50.5639 875.248 50.5639C875.731 50.5639 876.131 50.446 876.446 50.2102C876.761 49.9773 876.919 49.6051 876.919 49.0938V47.8068H876.838C876.761 47.946 876.65 48.1009 876.506 48.2713C876.363 48.4418 876.167 48.5895 875.917 48.7145C875.667 48.8395 875.342 48.902 874.942 48.902C874.425 48.902 873.959 48.7812 873.544 48.5398C873.132 48.2955 872.805 47.9361 872.564 47.4616C872.325 46.9844 872.206 46.3977 872.206 45.7017C872.206 45.0057 872.324 44.4091 872.559 43.9119C872.798 43.4148 873.125 43.0341 873.54 42.7699C873.954 42.5028 874.425 42.3693 874.95 42.3693C875.356 42.3693 875.684 42.4375 875.934 42.5739C876.184 42.7074 876.379 42.8636 876.518 43.0426C876.66 43.2216 876.77 43.3793 876.846 43.5156H876.94V42.4545H878.189V49.1449C878.189 49.7074 878.058 50.169 877.797 50.5298C877.535 50.8906 877.182 51.1577 876.736 51.331C876.292 51.5043 875.792 51.5909 875.236 51.5909ZM875.223 47.8452C875.589 47.8452 875.899 47.7599 876.152 47.5895C876.407 47.4162 876.601 47.169 876.731 46.848C876.865 46.5241 876.932 46.1364 876.932 45.6847C876.932 45.2443 876.866 44.8565 876.736 44.5213C876.605 44.1861 876.413 43.9247 876.16 43.7372C875.907 43.5469 875.595 43.4517 875.223 43.4517C874.839 43.4517 874.52 43.5511 874.264 43.75C874.008 43.946 873.815 44.2131 873.684 44.5511C873.557 44.8892 873.493 45.267 873.493 45.6847C873.493 46.1136 873.558 46.4901 873.689 46.8139C873.819 47.1378 874.013 47.3906 874.268 47.5724C874.527 47.7543 874.845 47.8452 875.223 47.8452ZM881.172 45.1136V49H879.898V40.2727H881.155V43.5199H881.236C881.389 43.1676 881.623 42.8878 881.939 42.6804C882.254 42.473 882.666 42.3693 883.175 42.3693C883.623 42.3693 884.015 42.4616 884.351 42.6463C884.689 42.831 884.95 43.1065 885.135 43.473C885.322 43.8366 885.416 44.2912 885.416 44.8366V49H884.142V44.9901C884.142 44.5099 884.018 44.1378 883.771 43.8736C883.524 43.6065 883.18 43.473 882.74 43.473C882.439 43.473 882.169 43.5369 881.93 43.6648C881.694 43.7926 881.508 43.9801 881.372 44.2273C881.238 44.4716 881.172 44.767 881.172 45.1136Z" fill="black"/>
<circle cx="864" cy="70" r="12" fill="#FF6B01"/>
<path d="M860.726 65.824V69.256C860.726 69.62 860.708 69.978 860.672 70.33C860.636 70.678 860.59 71.048 860.534 71.44H859.526C859.47 71.048 859.424 70.678 859.388 70.33C859.352 69.978 859.334 69.62 859.334 69.256V65.824H860.726ZM859.1 73.684C859.1 73.56 859.122 73.442 859.166 73.33C859.214 73.218 859.278 73.122 859.358 73.042C859.442 72.962 859.54 72.898 859.652 72.85C859.764 72.802 859.884 72.778 860.012 72.778C860.136 72.778 860.254 72.802 860.366 72.85C860.478 72.898 860.574 72.962 860.654 73.042C860.738 73.122 860.804 73.218 860.852 73.33C860.9 73.442 860.924 73.56 860.924 73.684C860.924 73.812 860.9 73.932 860.852 74.044C860.804 74.152 860.738 74.246 860.654 74.326C860.574 74.406 860.478 74.468 860.366 74.512C860.254 74.56 860.136 74.584 860.012 74.584C859.884 74.584 859.764 74.56 859.652 74.512C859.54 74.468 859.442 74.406 859.358 74.326C859.278 74.246 859.214 74.152 859.166 74.044C859.122 73.932 859.1 73.812 859.1 73.684Z" fill="white"/>
<path d="M864.701 65.824V69.256C864.701 69.62 864.683 69.978 864.647 70.33C864.611 70.678 864.565 71.048 864.509 71.44H863.501C863.445 71.048 863.399 70.678 863.363 70.33C863.327 69.978 863.309 69.62 863.309 69.256V65.824H864.701ZM863.075 73.684C863.075 73.56 863.097 73.442 863.141 73.33C863.189 73.218 863.253 73.122 863.333 73.042C863.417 72.962 863.515 72.898 863.627 72.85C863.739 72.802 863.859 72.778 863.987 72.778C864.111 72.778 864.229 72.802 864.341 72.85C864.453 72.898 864.549 72.962 864.629 73.042C864.713 73.122 864.779 73.218 864.827 73.33C864.875 73.442 864.899 73.56 864.899 73.684C864.899 73.812 864.875 73.932 864.827 74.044C864.779 74.152 864.713 74.246 864.629 74.326C864.549 74.406 864.453 74.468 864.341 74.512C864.229 74.56 864.111 74.584 863.987 74.584C863.859 74.584 863.739 74.56 863.627 74.512C863.515 74.468 863.417 74.406 863.333 74.326C863.253 74.246 863.189 74.152 863.141 74.044C863.097 73.932 863.075 73.812 863.075 73.684Z" fill="white"/>
<path d="M868.676 65.824V69.256C868.676 69.62 868.658 69.978 868.622 70.33C868.586 70.678 868.54 71.048 868.484 71.44H867.476C867.42 71.048 867.374 70.678 867.338 70.33C867.302 69.978 867.284 69.62 867.284 69.256V65.824H868.676ZM867.05 73.684C867.05 73.56 867.072 73.442 867.116 73.33C867.164 73.218 867.228 73.122 867.308 73.042C867.392 72.962 867.49 72.898 867.602 72.85C867.714 72.802 867.834 72.778 867.962 72.778C868.086 72.778 868.204 72.802 868.316 72.85C868.428 72.898 868.524 72.962 868.604 73.042C868.688 73.122 868.754 73.218 868.802 73.33C868.85 73.442 868.874 73.56 868.874 73.684C868.874 73.812 868.85 73.932 868.802 74.044C868.754 74.152 868.688 74.246 868.604 74.326C868.524 74.406 868.428 74.468 868.316 74.512C868.204 74.56 868.086 74.584 867.962 74.584C867.834 74.584 867.714 74.56 867.602 74.512C867.49 74.468 867.392 74.406 867.308 74.326C867.228 74.246 867.164 74.152 867.116 74.044C867.072 73.932 867.05 73.812 867.05 73.684Z" fill="white"/>
<path d="M884.824 72.9119V71.8977L889.299 64.8182H890.034V66.3892H889.537L886.157 71.7386V71.8182H892.182V72.9119H884.824ZM889.617 75V72.6037V72.1314V64.8182H890.79V75H889.617Z" fill="black"/>
<path d="M923.931 40.2727H925.529L928.308 47.0568H928.41L931.189 40.2727H932.787V49H931.534V42.6847H931.453L928.879 48.9872H927.839L925.265 42.6804H925.184V49H923.931V40.2727ZM937.42 49.1321C936.775 49.1321 936.219 48.9943 935.754 48.7188C935.29 48.4403 934.933 48.0497 934.68 47.5469C934.43 47.0412 934.305 46.4489 934.305 45.7699C934.305 45.0994 934.43 44.5085 934.68 43.9972C934.933 43.4858 935.285 43.0866 935.737 42.7997C936.191 42.5128 936.722 42.3693 937.33 42.3693C937.7 42.3693 938.058 42.4304 938.404 42.5526C938.751 42.6747 939.062 42.8665 939.337 43.1278C939.613 43.3892 939.83 43.7287 939.989 44.1463C940.148 44.5611 940.228 45.0653 940.228 45.6591V46.1108H935.025V45.1562H938.979C938.979 44.821 938.911 44.5241 938.775 44.2656C938.638 44.0043 938.447 43.7983 938.2 43.6477C937.955 43.4972 937.668 43.4219 937.339 43.4219C936.981 43.4219 936.668 43.5099 936.401 43.6861C936.137 43.8594 935.933 44.0866 935.788 44.3679C935.646 44.6463 935.575 44.9489 935.575 45.2756V46.0213C935.575 46.4588 935.651 46.831 935.805 47.1378C935.961 47.4446 936.178 47.679 936.457 47.8409C936.735 48 937.06 48.0795 937.433 48.0795C937.674 48.0795 937.894 48.0455 938.093 47.9773C938.292 47.9062 938.464 47.8011 938.609 47.6619C938.754 47.5227 938.864 47.3509 938.941 47.1463L940.147 47.3636C940.05 47.7187 939.877 48.0298 939.627 48.2969C939.38 48.5611 939.069 48.767 938.694 48.9148C938.322 49.0597 937.897 49.1321 937.42 49.1321ZM944.092 49.1278C943.564 49.1278 943.092 48.9929 942.677 48.723C942.265 48.4503 941.941 48.0625 941.706 47.5597C941.473 47.054 941.356 46.4474 941.356 45.7401C941.356 45.0327 941.474 44.4276 941.71 43.9247C941.949 43.4219 942.275 43.0369 942.69 42.7699C943.105 42.5028 943.575 42.3693 944.1 42.3693C944.507 42.3693 944.833 42.4375 945.081 42.5739C945.331 42.7074 945.524 42.8636 945.66 43.0426C945.799 43.2216 945.907 43.3793 945.984 43.5156H946.061V40.2727H947.335V49H946.091V47.9815H945.984C945.907 48.1207 945.797 48.2798 945.652 48.4588C945.51 48.6378 945.314 48.794 945.064 48.9276C944.814 49.0611 944.49 49.1278 944.092 49.1278ZM944.373 48.0412C944.74 48.0412 945.049 47.9446 945.302 47.7514C945.558 47.5554 945.751 47.2841 945.882 46.9375C946.015 46.5909 946.082 46.1875 946.082 45.7273C946.082 45.2727 946.017 44.875 945.886 44.5341C945.755 44.1932 945.564 43.9276 945.311 43.7372C945.058 43.5469 944.745 43.4517 944.373 43.4517C943.99 43.4517 943.67 43.5511 943.414 43.75C943.159 43.9489 942.966 44.2202 942.835 44.5639C942.707 44.9077 942.643 45.2955 942.643 45.7273C942.643 46.1648 942.708 46.5582 942.839 46.9077C942.97 47.2571 943.163 47.5341 943.419 47.7386C943.677 47.9403 943.995 48.0412 944.373 48.0412ZM949.153 49V42.4545H950.428V49H949.153ZM949.797 41.4446C949.575 41.4446 949.385 41.3707 949.226 41.223C949.07 41.0724 948.991 40.8935 948.991 40.6861C948.991 40.4759 949.07 40.2969 949.226 40.1491C949.385 39.9986 949.575 39.9233 949.797 39.9233C950.018 39.9233 950.207 39.9986 950.364 40.1491C950.523 40.2969 950.602 40.4759 950.602 40.6861C950.602 40.8935 950.523 41.0724 950.364 41.223C950.207 41.3707 950.018 41.4446 949.797 41.4446ZM956.288 46.2855V42.4545H957.566V49H956.314V47.8665H956.245C956.095 48.2159 955.853 48.5071 955.521 48.7401C955.191 48.9702 954.781 49.0852 954.289 49.0852C953.869 49.0852 953.497 48.9929 953.173 48.8082C952.852 48.6207 952.599 48.3438 952.414 47.9773C952.233 47.6108 952.142 47.1577 952.142 46.6179V42.4545H953.416V46.4645C953.416 46.9105 953.539 47.2656 953.787 47.5298C954.034 47.794 954.355 47.9261 954.75 47.9261C954.988 47.9261 955.225 47.8665 955.461 47.7472C955.7 47.6278 955.897 47.4474 956.054 47.206C956.213 46.9645 956.291 46.6577 956.288 46.2855ZM959.278 49V42.4545H960.501V43.5199H960.582C960.719 43.1591 960.942 42.8778 961.251 42.6761C961.561 42.4716 961.932 42.3693 962.364 42.3693C962.801 42.3693 963.168 42.4716 963.463 42.6761C963.761 42.8807 963.982 43.1619 964.124 43.5199H964.192C964.348 43.1705 964.597 42.892 964.938 42.6847C965.278 42.4744 965.685 42.3693 966.156 42.3693C966.75 42.3693 967.234 42.5554 967.609 42.9276C967.987 43.2997 968.176 43.8608 968.176 44.6108V49H966.902V44.7301C966.902 44.2869 966.781 43.9659 966.54 43.767C966.298 43.5682 966.01 43.4688 965.675 43.4688C965.26 43.4688 964.938 43.5966 964.707 43.8523C964.477 44.1051 964.362 44.4304 964.362 44.8281V49H963.092V44.6491C963.092 44.294 962.982 44.0085 962.76 43.7926C962.538 43.5767 962.25 43.4688 961.895 43.4688C961.653 43.4688 961.43 43.5327 961.226 43.6605C961.024 43.7855 960.861 43.9602 960.736 44.1847C960.614 44.4091 960.553 44.669 960.553 44.9645V49H959.278Z" fill="black"/>
<circle cx="938" cy="70" r="12" fill="#FF9901"/>
<path d="M936.713 65.824V69.256C936.713 69.62 936.695 69.978 936.659 70.33C936.623 70.678 936.577 71.048 936.521 71.44H935.513C935.457 71.048 935.411 70.678 935.375 70.33C935.339 69.978 935.321 69.62 935.321 69.256V65.824H936.713ZM935.087 73.684C935.087 73.56 935.109 73.442 935.153 73.33C935.201 73.218 935.265 73.122 935.345 73.042C935.429 72.962 935.527 72.898 935.639 72.85C935.751 72.802 935.871 72.778 935.999 72.778C936.123 72.778 936.241 72.802 936.353 72.85C936.465 72.898 936.561 72.962 936.641 73.042C936.725 73.122 936.791 73.218 936.839 73.33C936.887 73.442 936.911 73.56 936.911 73.684C936.911 73.812 936.887 73.932 936.839 74.044C936.791 74.152 936.725 74.246 936.641 74.326C936.561 74.406 936.465 74.468 936.353 74.512C936.241 74.56 936.123 74.584 935.999 74.584C935.871 74.584 935.751 74.56 935.639 74.512C935.527 74.468 935.429 74.406 935.345 74.326C935.265 74.246 935.201 74.152 935.153 74.044C935.109 73.932 935.087 73.812 935.087 73.684Z" fill="white"/>
<path d="M940.688 65.824V69.256C940.688 69.62 940.67 69.978 940.634 70.33C940.598 70.678 940.552 71.048 940.496 71.44H939.488C939.432 71.048 939.386 70.678 939.35 70.33C939.314 69.978 939.296 69.62 939.296 69.256V65.824H940.688ZM939.062 73.684C939.062 73.56 939.084 73.442 939.128 73.33C939.176 73.218 939.24 73.122 939.32 73.042C939.404 72.962 939.502 72.898 939.614 72.85C939.726 72.802 939.846 72.778 939.974 72.778C940.098 72.778 940.216 72.802 940.328 72.85C940.44 72.898 940.536 72.962 940.616 73.042C940.7 73.122 940.766 73.218 940.814 73.33C940.862 73.442 940.886 73.56 940.886 73.684C940.886 73.812 940.862 73.932 940.814 74.044C940.766 74.152 940.7 74.246 940.616 74.326C940.536 74.406 940.44 74.468 940.328 74.512C940.216 74.56 940.098 74.584 939.974 74.584C939.846 74.584 939.726 74.56 939.614 74.512C939.502 74.468 939.404 74.406 939.32 74.326C939.24 74.246 939.176 74.152 939.128 74.044C939.084 73.932 939.062 73.812 939.062 73.684Z" fill="white"/>
<path d="M962.537 75.1392C961.881 75.1392 961.296 75.0265 960.782 74.8011C960.272 74.5758 959.866 74.2625 959.564 73.8615C959.266 73.4571 959.104 72.9882 959.077 72.4545H960.33C960.356 72.7827 960.469 73.0661 960.668 73.3047C960.867 73.54 961.127 73.7223 961.449 73.8516C961.77 73.9808 962.126 74.0455 962.517 74.0455C962.955 74.0455 963.343 73.9692 963.681 73.8168C964.019 73.6643 964.284 73.4522 964.476 73.1804C964.668 72.9086 964.765 72.5938 964.765 72.2358C964.765 71.8613 964.672 71.5315 964.486 71.2464C964.301 70.9581 964.029 70.7327 963.671 70.5703C963.313 70.4079 962.875 70.3267 962.358 70.3267H961.543V69.233H962.358C962.763 69.233 963.117 69.16 963.422 69.0142C963.73 68.8684 963.971 68.6629 964.143 68.3977C964.319 68.1326 964.407 67.821 964.407 67.4631C964.407 67.1184 964.33 66.8184 964.178 66.5632C964.025 66.308 963.81 66.1091 963.532 65.9666C963.257 65.8241 962.932 65.7528 962.557 65.7528C962.206 65.7528 961.874 65.8175 961.563 65.9467C961.255 66.0727 961.003 66.2566 960.807 66.4986C960.612 66.7372 960.506 67.0256 960.489 67.3636H959.296C959.316 66.83 959.476 66.3627 959.778 65.9616C960.08 65.5573 960.474 65.2424 960.961 65.017C961.452 64.7917 961.99 64.679 962.577 64.679C963.207 64.679 963.747 64.8066 964.198 65.0618C964.649 65.3137 964.995 65.6468 965.237 66.0611C965.479 66.4754 965.6 66.9228 965.6 67.4034C965.6 67.9768 965.449 68.4657 965.147 68.87C964.849 69.2744 964.443 69.5545 963.929 69.7102V69.7898C964.572 69.8958 965.074 70.1693 965.436 70.6101C965.797 71.0476 965.978 71.5895 965.978 72.2358C965.978 72.7893 965.827 73.2865 965.525 73.7273C965.227 74.1648 964.819 74.5095 964.302 74.7614C963.785 75.0133 963.197 75.1392 962.537 75.1392Z" fill="black"/>
<path d="M1009.11 49V40.2727H1010.42V47.8665H1014.38V49H1009.11ZM1018.53 49.1321C1017.92 49.1321 1017.38 48.9915 1016.93 48.7102C1016.47 48.429 1016.11 48.0355 1015.86 47.5298C1015.61 47.0241 1015.48 46.4332 1015.48 45.7571C1015.48 45.0781 1015.61 44.4844 1015.86 43.9759C1016.11 43.4673 1016.47 43.0724 1016.93 42.7912C1017.38 42.5099 1017.92 42.3693 1018.53 42.3693C1019.15 42.3693 1019.68 42.5099 1020.14 42.7912C1020.6 43.0724 1020.95 43.4673 1021.21 43.9759C1021.46 44.4844 1021.58 45.0781 1021.58 45.7571C1021.58 46.4332 1021.46 47.0241 1021.21 47.5298C1020.95 48.0355 1020.6 48.429 1020.14 48.7102C1019.68 48.9915 1019.15 49.1321 1018.53 49.1321ZM1018.54 48.0625C1018.94 48.0625 1019.27 47.9574 1019.53 47.7472C1019.79 47.5369 1019.98 47.2571 1020.11 46.9077C1020.23 46.5582 1020.3 46.1733 1020.3 45.7528C1020.3 45.3352 1020.23 44.9517 1020.11 44.6023C1019.98 44.25 1019.79 43.9673 1019.53 43.7543C1019.27 43.5412 1018.94 43.4347 1018.54 43.4347C1018.14 43.4347 1017.8 43.5412 1017.54 43.7543C1017.28 43.9673 1017.08 44.25 1016.96 44.6023C1016.83 44.9517 1016.77 45.3352 1016.77 45.7528C1016.77 46.1733 1016.83 46.5582 1016.96 46.9077C1017.08 47.2571 1017.28 47.5369 1017.54 47.7472C1017.8 47.9574 1018.14 48.0625 1018.54 48.0625ZM1024.23 49L1022.3 42.4545H1023.62L1024.9 47.2614H1024.96L1026.25 42.4545H1027.57L1028.85 47.2401H1028.91L1030.18 42.4545H1031.5L1029.58 49H1028.28L1026.95 44.2741H1026.85L1025.52 49H1024.23Z" fill="black"/>
<circle cx="1011" cy="70" r="12" fill="#FDC106"/>
<path d="M1011.7 65.824V69.256C1011.7 69.62 1011.68 69.978 1011.65 70.33C1011.61 70.678 1011.56 71.048 1011.51 71.44H1010.5C1010.44 71.048 1010.4 70.678 1010.36 70.33C1010.33 69.978 1010.31 69.62 1010.31 69.256V65.824H1011.7ZM1010.07 73.684C1010.07 73.56 1010.1 73.442 1010.14 73.33C1010.19 73.218 1010.25 73.122 1010.33 73.042C1010.42 72.962 1010.51 72.898 1010.63 72.85C1010.74 72.802 1010.86 72.778 1010.99 72.778C1011.11 72.778 1011.23 72.802 1011.34 72.85C1011.45 72.898 1011.55 72.962 1011.63 73.042C1011.71 73.122 1011.78 73.218 1011.83 73.33C1011.87 73.442 1011.9 73.56 1011.9 73.684C1011.9 73.812 1011.87 73.932 1011.83 74.044C1011.78 74.152 1011.71 74.246 1011.63 74.326C1011.55 74.406 1011.45 74.468 1011.34 74.512C1011.23 74.56 1011.11 74.584 1010.99 74.584C1010.86 74.584 1010.74 74.56 1010.63 74.512C1010.51 74.468 1010.42 74.406 1010.33 74.326C1010.25 74.246 1010.19 74.152 1010.14 74.044C1010.1 73.932 1010.07 73.812 1010.07 73.684Z" fill="white"/>
<path d="M1035.38 75.1392C1034.63 75.1392 1033.99 74.9354 1033.46 74.5277C1032.93 74.1167 1032.53 73.5218 1032.25 72.7429C1031.97 71.9607 1031.84 71.0161 1031.84 69.9091C1031.84 68.8087 1031.97 67.8691 1032.25 67.0902C1032.53 66.308 1032.94 65.7114 1033.47 65.3004C1034 64.8861 1034.63 64.679 1035.38 64.679C1036.12 64.679 1036.75 64.8861 1037.28 65.3004C1037.81 65.7114 1038.21 66.308 1038.49 67.0902C1038.77 67.8691 1038.91 68.8087 1038.91 69.9091C1038.91 71.0161 1038.78 71.9607 1038.5 72.7429C1038.22 73.5218 1037.82 74.1167 1037.29 74.5277C1036.76 74.9354 1036.12 75.1392 1035.38 75.1392ZM1035.38 74.0455C1036.12 74.0455 1036.69 73.6875 1037.11 72.9716C1037.52 72.2557 1037.72 71.2348 1037.72 69.9091C1037.72 69.0275 1037.63 68.2768 1037.44 67.657C1037.25 67.0372 1036.98 66.5649 1036.63 66.2401C1036.28 65.9152 1035.87 65.7528 1035.38 65.7528C1034.64 65.7528 1034.06 66.1158 1033.65 66.8416C1033.24 67.5642 1033.03 68.5866 1033.03 69.9091C1033.03 70.7907 1033.12 71.5398 1033.31 72.1562C1033.49 72.7727 1033.76 73.2417 1034.11 73.5632C1034.46 73.8847 1034.88 74.0455 1035.38 74.0455Z" fill="black"/>
<line x1="504" y1="32" x2="504" y2="85" stroke="#ECEDF3" stroke-width="2"/>
<path d="M310 61C310 74.2548 299.255 85 286 85C272.745 85 262 74.2548 262 61C262 47.7452 272.745 37 286 37C299.255 37 310 47.7452 310 61Z" fill="#F4FBF7"/>
<path fill-rule="evenodd" clip-rule="evenodd" d="M286 38C273.297 38 263 48.2975 263 61C263 73.7025 273.297 84 286 84C298.703 84 309 73.7025 309 61C309 48.2975 298.703 38 286 38ZM261 61C261 47.1929 272.193 36 286 36C299.807 36 311 47.1929 311 61C311 74.8071 299.807 86 286 86C272.193 86 261 74.8071 261 61Z" fill="#20AF5D"/>
<path d="M279.585 71.0001H277L284.477 50.6365H287.023L294.5 71.0001H291.915L285.83 53.8581H285.67L279.585 71.0001ZM280.54 63.0456H290.96V65.2331H280.54V63.0456Z" fill="#20AF5D"/>
<path d="M340.827 78.4773C338.486 78.4773 336.418 78.0625 334.622 77.233C332.838 76.392 331.446 75.2386 330.446 73.7727C329.446 72.2955 328.952 70.6136 328.963 68.7273C328.952 67.25 329.241 65.8864 329.832 64.6364C330.423 63.375 331.23 62.3239 332.253 61.483C333.287 60.6307 334.44 60.0909 335.713 59.8636V59.6591C334.043 59.2273 332.713 58.2898 331.724 56.8466C330.736 55.392 330.247 53.7386 330.259 51.8864C330.247 50.1136 330.696 48.5284 331.605 47.1307C332.514 45.733 333.764 44.6307 335.355 43.8239C336.957 43.017 338.781 42.6136 340.827 42.6136C342.849 42.6136 344.656 43.017 346.247 43.8239C347.838 44.6307 349.088 45.733 349.997 47.1307C350.918 48.5284 351.384 50.1136 351.395 51.8864C351.384 53.7386 350.878 55.392 349.878 56.8466C348.889 58.2898 347.577 59.2273 345.94 59.6591V59.8636C347.202 60.0909 348.338 60.6307 349.349 61.483C350.361 62.3239 351.168 63.375 351.77 64.6364C352.372 65.8864 352.679 67.25 352.69 68.7273C352.679 70.6136 352.168 72.2955 351.156 73.7727C350.156 75.2386 348.764 76.392 346.98 77.233C345.207 78.0625 343.156 78.4773 340.827 78.4773ZM340.827 74.7273C342.406 74.7273 343.77 74.4716 344.918 73.9602C346.065 73.4489 346.952 72.7273 347.577 71.7955C348.202 70.8636 348.52 69.7727 348.531 68.5227C348.52 67.2045 348.179 66.0398 347.509 65.0284C346.838 64.017 345.923 63.2216 344.764 62.642C343.616 62.0625 342.304 61.7727 340.827 61.7727C339.338 61.7727 338.009 62.0625 336.838 62.642C335.679 63.2216 334.764 64.017 334.094 65.0284C333.435 66.0398 333.111 67.2045 333.122 68.5227C333.111 69.7727 333.412 70.8636 334.026 71.7955C334.651 72.7273 335.543 73.4489 336.702 73.9602C337.861 74.4716 339.236 74.7273 340.827 74.7273ZM340.827 58.1591C342.077 58.1591 343.185 57.9091 344.151 57.4091C345.128 56.9091 345.895 56.2102 346.452 55.3125C347.009 54.4148 347.293 53.3636 347.304 52.1591C347.293 50.9773 347.014 49.9489 346.469 49.0739C345.923 48.1875 345.168 47.5057 344.202 47.0284C343.236 46.5398 342.111 46.2955 340.827 46.2955C339.52 46.2955 338.378 46.5398 337.401 47.0284C336.423 47.5057 335.668 48.1875 335.134 49.0739C334.599 49.9489 334.338 50.9773 334.349 52.1591C334.338 53.3636 334.605 54.4148 335.151 55.3125C335.707 56.2102 336.474 56.9091 337.452 57.4091C338.429 57.9091 339.554 58.1591 340.827 58.1591ZM371.018 78.4773C368.768 78.4773 366.763 78.0909 365.001 77.3182C363.251 76.5455 361.859 75.4716 360.825 74.0966C359.803 72.7102 359.246 71.1023 359.155 69.2727H363.45C363.541 70.3977 363.928 71.3693 364.609 72.1875C365.291 72.9943 366.183 73.6193 367.286 74.0625C368.388 74.5057 369.609 74.7273 370.95 74.7273C372.45 74.7273 373.78 74.4659 374.939 73.9432C376.098 73.4205 377.007 72.6932 377.666 71.7614C378.325 70.8295 378.655 69.75 378.655 68.5227C378.655 67.2386 378.337 66.108 377.7 65.1307C377.064 64.142 376.132 63.3693 374.905 62.8125C373.678 62.2557 372.178 61.9773 370.405 61.9773H367.609V58.2273H370.405C371.791 58.2273 373.007 57.9773 374.053 57.4773C375.109 56.9773 375.933 56.2727 376.524 55.3636C377.126 54.4545 377.428 53.3864 377.428 52.1591C377.428 50.9773 377.166 49.9489 376.643 49.0739C376.121 48.1989 375.382 47.517 374.428 47.0284C373.484 46.5398 372.371 46.2955 371.087 46.2955C369.882 46.2955 368.746 46.517 367.678 46.9602C366.621 47.392 365.757 48.0227 365.087 48.8523C364.416 49.6705 364.053 50.6591 363.996 51.8182H359.905C359.973 49.9886 360.524 48.3864 361.558 47.0114C362.592 45.625 363.945 44.5455 365.615 43.7727C367.297 43 369.143 42.6136 371.155 42.6136C373.314 42.6136 375.166 43.0511 376.712 43.9261C378.257 44.7898 379.445 45.9318 380.274 47.3523C381.104 48.7727 381.518 50.3068 381.518 51.9545C381.518 53.9205 381.001 55.5966 379.967 56.983C378.945 58.3693 377.553 59.3295 375.791 59.8636V60.1364C377.996 60.5 379.717 61.4375 380.956 62.9489C382.195 64.4489 382.814 66.3068 382.814 68.5227C382.814 70.4205 382.297 72.125 381.263 73.6364C380.24 75.1364 378.842 76.3182 377.07 77.1818C375.297 78.0455 373.28 78.4773 371.018 78.4773ZM388.967 70.8409V67.3636L404.308 43.0909H406.831V48.4773H405.126L393.536 66.8182V67.0909H414.195V70.8409H388.967ZM405.399 78V69.7841V68.1648V43.0909H409.422V78H405.399Z" fill="#20AF5D"/>
<path d="M431.052 63.2955L426.834 78.9688H425.453L429.672 63.2955H431.052ZM442.045 63.7301C442.582 63.7344 443.119 63.8366 443.656 64.0369C444.193 64.2372 444.683 64.5696 445.126 65.0341C445.569 65.4943 445.925 66.1229 446.194 66.9197C446.462 67.7166 446.596 68.7159 446.596 69.9176C446.596 71.081 446.486 72.1143 446.264 73.0178C446.047 73.9169 445.731 74.6754 445.318 75.2933C444.909 75.9112 444.41 76.38 443.822 76.6996C443.238 77.0192 442.578 77.179 441.841 77.179C441.108 77.179 440.454 77.0341 439.878 76.7443C439.307 76.4503 438.839 76.0433 438.472 75.5234C438.11 74.9993 437.878 74.392 437.775 73.7017H439.335C439.476 74.3026 439.755 74.799 440.172 75.1911C440.594 75.5788 441.15 75.7727 441.841 75.7727C442.851 75.7727 443.647 75.3317 444.231 74.4496C444.819 73.5675 445.113 72.321 445.113 70.7102H445.011C444.772 71.0682 444.489 71.3771 444.161 71.6371C443.833 71.897 443.468 72.0973 443.068 72.2379C442.667 72.3786 442.241 72.4489 441.79 72.4489C441.04 72.4489 440.351 72.2635 439.725 71.8928C439.103 71.5178 438.604 71.0043 438.229 70.3523C437.858 69.696 437.673 68.946 437.673 68.1023C437.673 67.3011 437.852 66.5682 438.21 65.9034C438.572 65.2344 439.079 64.7017 439.731 64.3054C440.388 63.9091 441.159 63.7173 442.045 63.7301ZM442.045 65.1364C441.508 65.1364 441.025 65.2706 440.594 65.5391C440.168 65.8033 439.829 66.1612 439.578 66.6129C439.331 67.0604 439.207 67.5568 439.207 68.1023C439.207 68.6477 439.326 69.1442 439.565 69.5916C439.808 70.0348 440.138 70.3885 440.556 70.6527C440.978 70.9126 441.457 71.0426 441.994 71.0426C442.399 71.0426 442.776 70.9638 443.125 70.8061C443.475 70.6442 443.78 70.4247 444.04 70.1477C444.304 69.8665 444.51 69.549 444.66 69.1953C444.809 68.8374 444.883 68.4645 444.883 68.0767C444.883 67.5653 444.76 67.0859 444.513 66.6385C444.27 66.1911 443.933 65.8288 443.503 65.5518C443.076 65.2749 442.591 65.1364 442.045 65.1364ZM453.201 77.179C452.451 77.179 451.775 77.0298 451.175 76.7315C450.574 76.4332 450.092 76.0241 449.73 75.5043C449.368 74.9844 449.17 74.392 449.136 73.7273H450.67C450.729 74.3196 450.998 74.8097 451.475 75.1974C451.957 75.581 452.532 75.7727 453.201 75.7727C453.738 75.7727 454.215 75.647 454.633 75.3956C455.055 75.1442 455.385 74.799 455.623 74.3601C455.866 73.9169 455.988 73.4162 455.988 72.858C455.988 72.2869 455.862 71.7777 455.611 71.3303C455.364 70.8786 455.023 70.5227 454.588 70.2628C454.153 70.0028 453.657 69.8707 453.099 69.8665C452.698 69.8622 452.287 69.924 451.865 70.0518C451.443 70.1754 451.096 70.3352 450.823 70.5312L449.34 70.3523L450.133 63.9091H456.934V65.3153H451.462L451.002 69.1761H451.079C451.347 68.9631 451.684 68.7862 452.089 68.6456C452.494 68.505 452.915 68.4347 453.354 68.4347C454.155 68.4347 454.869 68.6264 455.496 69.0099C456.126 69.3892 456.621 69.9091 456.979 70.5696C457.341 71.2301 457.522 71.9844 457.522 72.8324C457.522 73.6676 457.334 74.4134 456.959 75.0696C456.589 75.7216 456.077 76.2372 455.425 76.6165C454.773 76.9915 454.032 77.179 453.201 77.179ZM464.331 77.179C463.368 77.179 462.548 76.9169 461.87 76.3928C461.193 75.8643 460.675 75.0994 460.317 74.098C459.959 73.0923 459.78 71.8778 459.78 70.4545C459.78 69.0398 459.959 67.8317 460.317 66.8303C460.679 65.8246 461.199 65.0575 461.877 64.5291C462.558 63.9964 463.377 63.7301 464.331 63.7301C465.286 63.7301 466.102 63.9964 466.779 64.5291C467.461 65.0575 467.981 65.8246 468.339 66.8303C468.701 67.8317 468.882 69.0398 468.882 70.4545C468.882 71.8778 468.703 73.0923 468.345 74.098C467.987 75.0994 467.47 75.8643 466.792 76.3928C466.114 76.9169 465.294 77.179 464.331 77.179ZM464.331 75.7727C465.286 75.7727 466.027 75.3125 466.555 74.392C467.084 73.4716 467.348 72.1591 467.348 70.4545C467.348 69.321 467.227 68.3558 466.984 67.5589C466.745 66.7621 466.4 66.1548 465.948 65.7372C465.501 65.3196 464.962 65.1108 464.331 65.1108C463.385 65.1108 462.646 65.5774 462.113 66.5107C461.58 67.4396 461.314 68.7543 461.314 70.4545C461.314 71.5881 461.433 72.5511 461.672 73.3438C461.911 74.1364 462.254 74.7393 462.701 75.1527C463.153 75.5661 463.696 75.7727 464.331 75.7727Z" fill="#5D6598"/>
<path d="M51.9441 61.6364C51.9441 62.5682 51.7736 63.3693 51.4327 64.0398C51.0918 64.7074 50.6245 65.2216 50.0307 65.5824C49.4398 65.9403 48.7679 66.1193 48.0151 66.1193C47.2594 66.1193 46.5847 65.9403 45.9909 65.5824C45.4 65.2216 44.9341 64.706 44.5932 64.0355C44.2523 63.3651 44.0819 62.5653 44.0819 61.6364C44.0819 60.7045 44.2523 59.9048 44.5932 59.2372C44.9341 58.5668 45.4 58.0526 45.9909 57.6946C46.5847 57.3338 47.2594 57.1534 48.0151 57.1534C48.7679 57.1534 49.4398 57.3338 50.0307 57.6946C50.6245 58.0526 51.0918 58.5668 51.4327 59.2372C51.7736 59.9048 51.9441 60.7045 51.9441 61.6364ZM50.6401 61.6364C50.6401 60.9261 50.525 60.3281 50.2949 59.8423C50.0676 59.3537 49.7551 58.9844 49.3574 58.7344C48.9625 58.4815 48.5151 58.3551 48.0151 58.3551C47.5123 58.3551 47.0634 58.4815 46.6685 58.7344C46.2736 58.9844 45.9611 59.3537 45.731 59.8423C45.5037 60.3281 45.3901 60.9261 45.3901 61.6364C45.3901 62.3466 45.5037 62.946 45.731 63.4347C45.9611 63.9205 46.2736 64.2898 46.6685 64.5426C47.0634 64.7926 47.5123 64.9176 48.0151 64.9176C48.5151 64.9176 48.9625 64.7926 49.3574 64.5426C49.7551 64.2898 50.0676 63.9205 50.2949 63.4347C50.525 62.946 50.6401 62.3466 50.6401 61.6364ZM54.915 57.2727L57.3439 64.3807H57.4419L59.8709 57.2727H61.2942L58.1536 66H56.6323L53.4917 57.2727H54.915ZM63.5545 66V57.2727H69.0261V58.4062H64.8713V61.0653H68.7406V62.1946H64.8713V64.8665H69.0772V66H63.5545ZM71.785 66V57.2727H74.8958C75.5719 57.2727 76.133 57.3892 76.579 57.6222C77.0279 57.8551 77.3631 58.1776 77.5847 58.5895C77.8063 58.9986 77.9171 59.4716 77.9171 60.0085C77.9171 60.5426 77.8049 61.0128 77.5804 61.419C77.3588 61.8224 77.0236 62.1364 76.5748 62.3608C76.1287 62.5852 75.5676 62.6974 74.8915 62.6974H72.535V61.5639H74.7722C75.1983 61.5639 75.5449 61.5028 75.812 61.3807C76.0819 61.2585 76.2793 61.081 76.4043 60.848C76.5293 60.6151 76.5918 60.3352 76.5918 60.0085C76.5918 59.679 76.5279 59.3935 76.4 59.152C76.275 58.9105 76.0776 58.7259 75.8077 58.598C75.5407 58.4673 75.1898 58.402 74.7551 58.402H73.1017V66H71.785ZM76.0932 62.0625L78.2495 66H76.7495L74.6358 62.0625H76.0932ZM81.2566 66H79.8588L82.9995 57.2727H84.5208L87.6614 66H86.2637L83.7963 58.858H83.7282L81.2566 66ZM81.4909 62.5824H86.025V63.6903H81.4909V62.5824ZM89.9217 66V57.2727H91.2385V64.8665H95.193V66H89.9217ZM97.6951 66V57.2727H99.0119V64.8665H102.966V66H97.6951ZM114.404 59.5653C114.359 59.1619 114.171 58.8494 113.842 58.6278C113.512 58.4034 113.097 58.2912 112.597 58.2912C112.24 58.2912 111.93 58.348 111.669 58.4616C111.407 58.5724 111.204 58.7259 111.059 58.9219C110.917 59.1151 110.846 59.3352 110.846 59.5824C110.846 59.7898 110.894 59.9687 110.991 60.1193C111.09 60.2699 111.22 60.3963 111.379 60.4986C111.541 60.598 111.714 60.6818 111.899 60.75C112.083 60.8153 112.261 60.8693 112.431 60.9119L113.284 61.1335C113.562 61.2017 113.847 61.294 114.14 61.4105C114.433 61.527 114.704 61.6804 114.954 61.8707C115.204 62.0611 115.406 62.2969 115.559 62.5781C115.715 62.8594 115.794 63.196 115.794 63.5881C115.794 64.0824 115.666 64.5213 115.41 64.9048C115.157 65.2884 114.789 65.5909 114.306 65.8125C113.826 66.0341 113.245 66.1449 112.563 66.1449C111.91 66.1449 111.345 66.0412 110.867 65.8338C110.39 65.6264 110.017 65.3324 109.747 64.9517C109.477 64.5682 109.328 64.1136 109.299 63.5881H110.62C110.646 63.9034 110.748 64.1662 110.927 64.3764C111.109 64.5838 111.34 64.7386 111.622 64.8409C111.906 64.9403 112.217 64.9901 112.555 64.9901C112.927 64.9901 113.258 64.9318 113.548 64.8153C113.84 64.696 114.07 64.5312 114.238 64.321C114.406 64.108 114.49 63.8594 114.49 63.5753C114.49 63.3168 114.416 63.1051 114.268 62.9403C114.123 62.7756 113.926 62.6392 113.676 62.5312C113.428 62.4233 113.149 62.3281 112.836 62.2457L111.805 61.9645C111.106 61.7741 110.552 61.4943 110.143 61.125C109.737 60.7557 109.534 60.267 109.534 59.6591C109.534 59.1562 109.67 58.7173 109.943 58.3423C110.215 57.9673 110.585 57.6761 111.051 57.4688C111.517 57.2585 112.042 57.1534 112.627 57.1534C113.218 57.1534 113.74 57.2571 114.191 57.4645C114.646 57.6719 115.004 57.9574 115.265 58.321C115.526 58.6818 115.663 59.0966 115.674 59.5653H114.404ZM118.367 66V57.2727H123.839V58.4062H119.684V61.0653H123.553V62.1946H119.684V64.8665H123.89V66H118.367ZM133.846 60.1108H132.517C132.465 59.8267 132.37 59.5767 132.231 59.3608C132.092 59.1449 131.921 58.9616 131.72 58.8111C131.518 58.6605 131.292 58.5469 131.042 58.4702C130.795 58.3935 130.532 58.3551 130.254 58.3551C129.751 58.3551 129.301 58.4815 128.903 58.7344C128.508 58.9872 128.195 59.358 127.965 59.8466C127.738 60.3352 127.624 60.9318 127.624 61.6364C127.624 62.3466 127.738 62.946 127.965 63.4347C128.195 63.9233 128.509 64.2926 128.907 64.5426C129.305 64.7926 129.752 64.9176 130.249 64.9176C130.525 64.9176 130.786 64.8807 131.034 64.8068C131.284 64.7301 131.509 64.6179 131.711 64.4702C131.913 64.3224 132.083 64.142 132.222 63.929C132.365 63.7131 132.463 63.4659 132.517 63.1875L133.846 63.1918C133.775 63.6207 133.637 64.0156 133.433 64.3764C133.231 64.7344 132.971 65.044 132.653 65.3054C132.338 65.5639 131.977 65.7642 131.57 65.9062C131.164 66.0483 130.721 66.1193 130.241 66.1193C129.485 66.1193 128.812 65.9403 128.221 65.5824C127.63 65.2216 127.164 64.706 126.823 64.0355C126.485 63.3651 126.316 62.5653 126.316 61.6364C126.316 60.7045 126.487 59.9048 126.828 59.2372C127.169 58.5668 127.634 58.0526 128.225 57.6946C128.816 57.3338 129.488 57.1534 130.241 57.1534C130.704 57.1534 131.136 57.2202 131.536 57.3537C131.94 57.4844 132.302 57.6776 132.623 57.9332C132.944 58.1861 133.21 58.4957 133.42 58.8622C133.63 59.2259 133.772 59.642 133.846 60.1108ZM142.034 57.2727H143.355V63.0128C143.355 63.6236 143.211 64.1648 142.925 64.6364C142.638 65.1051 142.234 65.4744 141.714 65.7443C141.194 66.0114 140.585 66.1449 139.886 66.1449C139.19 66.1449 138.582 66.0114 138.062 65.7443C137.542 65.4744 137.139 65.1051 136.852 64.6364C136.565 64.1648 136.422 63.6236 136.422 63.0128V57.2727H137.738V62.9062C137.738 63.3011 137.825 63.652 137.998 63.9588C138.175 64.2656 138.423 64.5071 138.744 64.6832C139.065 64.8565 139.446 64.9432 139.886 64.9432C140.329 64.9432 140.711 64.8565 141.032 64.6832C141.356 64.5071 141.604 64.2656 141.774 63.9588C141.947 63.652 142.034 63.3011 142.034 62.9062V57.2727ZM146.269 66V57.2727H149.38C150.056 57.2727 150.617 57.3892 151.063 57.6222C151.512 57.8551 151.847 58.1776 152.069 58.5895C152.291 58.9986 152.401 59.4716 152.401 60.0085C152.401 60.5426 152.289 61.0128 152.065 61.419C151.843 61.8224 151.508 62.1364 151.059 62.3608C150.613 62.5852 150.052 62.6974 149.376 62.6974H147.019V61.5639H149.257C149.683 61.5639 150.029 61.5028 150.296 61.3807C150.566 61.2585 150.764 61.081 150.889 60.848C151.014 60.6151 151.076 60.3352 151.076 60.0085C151.076 59.679 151.012 59.3935 150.884 59.152C150.759 58.9105 150.562 58.7259 150.292 58.598C150.025 58.4673 149.674 58.402 149.24 58.402H147.586V66H146.269ZM150.578 62.0625L152.734 66H151.234L149.12 62.0625H150.578ZM156.32 57.2727V66H155.004V57.2727H156.32ZM158.808 58.4062V57.2727H165.562V58.4062H162.839V66H161.526V58.4062H158.808ZM167.381 57.2727H168.877L171.157 61.2401H171.251L173.53 57.2727H175.026L171.86 62.5739V66H170.547V62.5739L167.381 57.2727ZM181.445 66V57.2727H184.556C185.232 57.2727 185.793 57.3892 186.239 57.6222C186.688 57.8551 187.023 58.1776 187.245 58.5895C187.466 58.9986 187.577 59.4716 187.577 60.0085C187.577 60.5426 187.465 61.0128 187.241 61.419C187.019 61.8224 186.684 62.1364 186.235 62.3608C185.789 62.5852 185.228 62.6974 184.552 62.6974H182.195V61.5639H184.432C184.858 61.5639 185.205 61.5028 185.472 61.3807C185.742 61.2585 185.939 61.081 186.064 60.848C186.189 60.6151 186.252 60.3352 186.252 60.0085C186.252 59.679 186.188 59.3935 186.06 59.152C185.935 58.9105 185.738 58.7259 185.468 58.598C185.201 58.4673 184.85 58.402 184.415 58.402H182.762V66H181.445ZM185.753 62.0625L187.91 66H186.41L184.296 62.0625H185.753ZM190.917 66H189.519L192.66 57.2727H194.181L197.322 66H195.924L193.456 58.858H193.388L190.917 66ZM191.151 62.5824H195.685V63.6903H191.151V62.5824ZM198.12 58.4062V57.2727H204.874V58.4062H202.151V66H200.839V58.4062H198.12ZM208.684 57.2727V66H207.367V57.2727H208.684ZM218.645 57.2727V66H217.435L212.999 59.5994H212.918V66H211.601V57.2727H212.82L217.26 63.6818H217.341V57.2727H218.645ZM227.472 60.0298C227.39 59.7713 227.279 59.5398 227.14 59.3352C227.004 59.1278 226.84 58.9517 226.65 58.8068C226.46 58.6591 226.242 58.5469 225.998 58.4702C225.757 58.3935 225.491 58.3551 225.201 58.3551C224.71 58.3551 224.267 58.4815 223.872 58.7344C223.477 58.9872 223.164 59.358 222.934 59.8466C222.707 60.3324 222.593 60.9276 222.593 61.6321C222.593 62.3395 222.708 62.9375 222.938 63.4261C223.169 63.9148 223.484 64.2855 223.884 64.5384C224.285 64.7912 224.741 64.9176 225.252 64.9176C225.727 64.9176 226.14 64.821 226.492 64.6278C226.847 64.4347 227.122 64.1619 227.315 63.8097C227.511 63.4545 227.609 63.0369 227.609 62.5568L227.95 62.6207H225.453V61.5341H228.883V62.527C228.883 63.2599 228.727 63.8963 228.414 64.4361C228.105 64.973 227.676 65.3878 227.127 65.6804C226.582 65.973 225.957 66.1193 225.252 66.1193C224.463 66.1193 223.769 65.9375 223.173 65.5739C222.579 65.2102 222.116 64.6946 221.784 64.027C221.451 63.3565 221.285 62.5611 221.285 61.6406C221.285 60.9446 221.382 60.3196 221.575 59.7656C221.768 59.2116 222.039 58.7415 222.389 58.3551C222.741 57.9659 223.154 57.669 223.629 57.4645C224.106 57.2571 224.627 57.1534 225.193 57.1534C225.664 57.1534 226.103 57.223 226.509 57.3622C226.919 57.5014 227.282 57.6989 227.6 57.9545C227.921 58.2102 228.187 58.5142 228.397 58.8665C228.607 59.2159 228.749 59.6037 228.823 60.0298H227.472Z" fill="#5D6598"/>
<path d="M536.722 63.2727L539.151 70.3807H539.249L541.678 63.2727H543.101L539.96 72H538.439L535.298 63.2727H536.722ZM544.259 72V65.4545H545.533V72H544.259ZM544.902 64.4446C544.681 64.4446 544.49 64.3707 544.331 64.223C544.175 64.0724 544.097 63.8935 544.097 63.6861C544.097 63.4759 544.175 63.2969 544.331 63.1491C544.49 62.9986 544.681 62.9233 544.902 62.9233C545.124 62.9233 545.313 62.9986 545.469 63.1491C545.628 63.2969 545.708 63.4759 545.708 63.6861C545.708 63.8935 545.628 64.0724 545.469 64.223C545.313 64.3707 545.124 64.4446 544.902 64.4446ZM550.068 72.1321C549.423 72.1321 548.868 71.9943 548.402 71.7188C547.939 71.4403 547.581 71.0497 547.328 70.5469C547.078 70.0412 546.953 69.4489 546.953 68.7699C546.953 68.0994 547.078 67.5085 547.328 66.9972C547.581 66.4858 547.933 66.0866 548.385 65.7997C548.839 65.5128 549.371 65.3693 549.979 65.3693C550.348 65.3693 550.706 65.4304 551.053 65.5526C551.399 65.6747 551.71 65.8665 551.986 66.1278C552.261 66.3892 552.479 66.7287 552.638 67.1463C552.797 67.5611 552.876 68.0653 552.876 68.6591V69.1108H547.673V68.1562H551.628C551.628 67.821 551.56 67.5241 551.423 67.2656C551.287 67.0043 551.095 66.7983 550.848 66.6477C550.604 66.4972 550.317 66.4219 549.987 66.4219C549.629 66.4219 549.317 66.5099 549.05 66.6861C548.786 66.8594 548.581 67.0866 548.436 67.3679C548.294 67.6463 548.223 67.9489 548.223 68.2756V69.0213C548.223 69.4588 548.3 69.831 548.453 70.1378C548.609 70.4446 548.827 70.679 549.105 70.8409C549.384 71 549.709 71.0795 550.081 71.0795C550.322 71.0795 550.543 71.0455 550.741 70.9773C550.94 70.9062 551.112 70.8011 551.257 70.6619C551.402 70.5227 551.513 70.3509 551.589 70.1463L552.795 70.3636C552.699 70.7187 552.526 71.0298 552.276 71.2969C552.028 71.5611 551.717 71.767 551.342 71.9148C550.97 72.0597 550.545 72.1321 550.068 72.1321ZM555.697 72L553.771 65.4545H555.088L556.371 70.2614H556.435L557.722 65.4545H559.038L560.317 70.2401H560.381L561.655 65.4545H562.972L561.05 72H559.75L558.42 67.2741H558.322L556.993 72H555.697ZM569.261 72.1449C568.847 72.1449 568.472 72.0682 568.136 71.9148C567.801 71.7585 567.536 71.5327 567.339 71.2372C567.146 70.9418 567.05 70.5795 567.05 70.1506C567.05 69.7812 567.121 69.4773 567.263 69.2386C567.405 69 567.597 68.8111 567.838 68.6719C568.08 68.5327 568.349 68.4276 568.648 68.3565C568.946 68.2855 569.25 68.2315 569.56 68.1946C569.952 68.1491 570.27 68.1122 570.514 68.0838C570.759 68.0526 570.936 68.0028 571.047 67.9347C571.158 67.8665 571.213 67.7557 571.213 67.6023V67.5724C571.213 67.2003 571.108 66.9119 570.898 66.7074C570.69 66.5028 570.381 66.4006 569.969 66.4006C569.54 66.4006 569.202 66.4957 568.955 66.6861C568.71 66.8736 568.541 67.0824 568.447 67.3125L567.25 67.0398C567.392 66.642 567.599 66.321 567.872 66.0767C568.148 65.8295 568.464 65.6506 568.822 65.5398C569.18 65.4261 569.557 65.3693 569.952 65.3693C570.213 65.3693 570.49 65.4006 570.783 65.4631C571.078 65.5227 571.354 65.6335 571.609 65.7955C571.868 65.9574 572.08 66.1889 572.244 66.4901C572.409 66.7884 572.491 67.1761 572.491 67.6534V72H571.247V71.1051H571.196C571.114 71.2699 570.99 71.4318 570.825 71.5909C570.661 71.75 570.449 71.8821 570.19 71.9872C569.932 72.0923 569.622 72.1449 569.261 72.1449ZM569.538 71.1222C569.891 71.1222 570.192 71.0526 570.442 70.9134C570.695 70.7741 570.886 70.5923 571.017 70.3679C571.151 70.1406 571.217 69.8977 571.217 69.6392V68.7955C571.172 68.8409 571.084 68.8835 570.953 68.9233C570.825 68.9602 570.679 68.9929 570.514 69.0213C570.349 69.0469 570.189 69.071 570.033 69.0938C569.876 69.1136 569.746 69.1307 569.641 69.1449C569.393 69.1761 569.168 69.2287 568.963 69.3026C568.761 69.3764 568.599 69.483 568.477 69.6222C568.358 69.7585 568.298 69.9403 568.298 70.1676C568.298 70.483 568.415 70.7216 568.648 70.8835C568.881 71.0426 569.178 71.1222 569.538 71.1222ZM575.463 63.2727V72H574.189V63.2727H575.463ZM578.451 63.2727V72H577.177V63.2727H578.451ZM588.778 72.1577L588.011 71.3991L590.675 68.7358H583.984V67.6278H590.675L588.011 64.9688L588.778 64.206L592.754 68.1818L588.778 72.1577Z" fill="#1757C2"/>
<path d="M543.207 46.1108H541.878C541.827 45.8267 541.732 45.5767 541.592 45.3608C541.453 45.1449 541.283 44.9616 541.081 44.8111C540.879 44.6605 540.653 44.5469 540.403 44.4702C540.156 44.3935 539.893 44.3551 539.615 44.3551C539.112 44.3551 538.662 44.4815 538.264 44.7344C537.869 44.9872 537.557 45.358 537.327 45.8466C537.099 46.3352 536.986 46.9318 536.986 47.6364C536.986 48.3466 537.099 48.946 537.327 49.4347C537.557 49.9233 537.871 50.2926 538.268 50.5426C538.666 50.7926 539.114 50.9176 539.611 50.9176C539.886 50.9176 540.148 50.8807 540.395 50.8068C540.645 50.7301 540.871 50.6179 541.072 50.4702C541.274 50.3224 541.445 50.142 541.584 49.929C541.726 49.7131 541.824 49.4659 541.878 49.1875L543.207 49.1918C543.136 49.6207 542.999 50.0156 542.794 50.3764C542.592 50.7344 542.332 51.044 542.014 51.3054C541.699 51.5639 541.338 51.7642 540.932 51.9062C540.526 52.0483 540.082 52.1193 539.602 52.1193C538.847 52.1193 538.173 51.9403 537.582 51.5824C536.991 51.2216 536.526 50.706 536.185 50.0355C535.847 49.3651 535.678 48.5653 535.678 47.6364C535.678 46.7045 535.848 45.9048 536.189 45.2372C536.53 44.5668 536.996 44.0526 537.587 43.6946C538.178 43.3338 538.849 43.1534 539.602 43.1534C540.065 43.1534 540.497 43.2202 540.898 43.3537C541.301 43.4844 541.663 43.6776 541.984 43.9332C542.305 44.1861 542.571 44.4957 542.781 44.8622C542.991 45.2259 543.134 45.642 543.207 46.1108ZM551.395 43.2727H552.716V49.0128C552.716 49.6236 552.573 50.1648 552.286 50.6364C551.999 51.1051 551.596 51.4744 551.076 51.7443C550.556 52.0114 549.946 52.1449 549.248 52.1449C548.551 52.1449 547.944 52.0114 547.424 51.7443C546.904 51.4744 546.5 51.1051 546.213 50.6364C545.926 50.1648 545.783 49.6236 545.783 49.0128V43.2727H547.1V48.9062C547.1 49.3011 547.186 49.652 547.36 49.9588C547.536 50.2656 547.784 50.5071 548.105 50.6832C548.426 50.8565 548.807 50.9432 549.248 50.9432C549.691 50.9432 550.073 50.8565 550.394 50.6832C550.718 50.5071 550.965 50.2656 551.135 49.9588C551.309 49.652 551.395 49.3011 551.395 48.9062V43.2727ZM555.631 52V43.2727H558.741C559.418 43.2727 559.979 43.3892 560.425 43.6222C560.874 43.8551 561.209 44.1776 561.43 44.5895C561.652 44.9986 561.763 45.4716 561.763 46.0085C561.763 46.5426 561.651 47.0128 561.426 47.419C561.205 47.8224 560.869 48.1364 560.42 48.3608C559.974 48.5852 559.413 48.6974 558.737 48.6974H556.381V47.5639H558.618C559.044 47.5639 559.391 47.5028 559.658 47.3807C559.928 47.2585 560.125 47.081 560.25 46.848C560.375 46.6151 560.438 46.3352 560.438 46.0085C560.438 45.679 560.374 45.3935 560.246 45.152C560.121 44.9105 559.923 44.7259 559.653 44.598C559.386 44.4673 559.036 44.402 558.601 44.402H556.947V52H555.631ZM559.939 48.0625L562.095 52H560.595L558.482 48.0625H559.939ZM564.365 52V43.2727H567.476C568.152 43.2727 568.713 43.3892 569.159 43.6222C569.608 43.8551 569.943 44.1776 570.165 44.5895C570.386 44.9986 570.497 45.4716 570.497 46.0085C570.497 46.5426 570.385 47.0128 570.161 47.419C569.939 47.8224 569.604 48.1364 569.155 48.3608C568.709 48.5852 568.148 48.6974 567.472 48.6974H565.115V47.5639H567.352C567.778 47.5639 568.125 47.5028 568.392 47.3807C568.662 47.2585 568.859 47.081 568.984 46.848C569.109 46.6151 569.172 46.3352 569.172 46.0085C569.172 45.679 569.108 45.3935 568.98 45.152C568.855 44.9105 568.658 44.7259 568.388 44.598C568.121 44.4673 567.77 44.402 567.335 44.402H565.682V52H564.365ZM568.673 48.0625L570.83 52H569.33L567.216 48.0625H568.673ZM573.099 52V43.2727H578.571V44.4062H574.416V47.0653H578.286V48.1946H574.416V50.8665H578.622V52H573.099ZM588.374 43.2727V52H587.164L582.728 45.5994H582.647V52H581.33V43.2727H582.549L586.989 49.6818H587.07V43.2727H588.374ZM590.864 44.4062V43.2727H597.619V44.4062H594.896V52H593.583V44.4062H590.864ZM604.287 52V43.2727H607.398C608.074 43.2727 608.635 43.3892 609.081 43.6222C609.53 43.8551 609.865 44.1776 610.087 44.5895C610.308 44.9986 610.419 45.4716 610.419 46.0085C610.419 46.5426 610.307 47.0128 610.082 47.419C609.861 47.8224 609.526 48.1364 609.077 48.3608C608.631 48.5852 608.07 48.6974 607.393 48.6974H605.037V47.5639H607.274C607.7 47.5639 608.047 47.5028 608.314 47.3807C608.584 47.2585 608.781 47.081 608.906 46.848C609.031 46.6151 609.094 46.3352 609.094 46.0085C609.094 45.679 609.03 45.3935 608.902 45.152C608.777 44.9105 608.58 44.7259 608.31 44.598C608.043 44.4673 607.692 44.402 607.257 44.402H605.604V52H604.287ZM608.595 48.0625L610.751 52H609.251L607.138 48.0625H608.595ZM614.338 43.2727V52H613.021V43.2727H614.338ZM622.016 45.5653C621.97 45.1619 621.783 44.8494 621.453 44.6278C621.124 44.4034 620.709 44.2912 620.209 44.2912C619.851 44.2912 619.541 44.348 619.28 44.4616C619.018 44.5724 618.815 44.7259 618.67 44.9219C618.528 45.1151 618.457 45.3352 618.457 45.5824C618.457 45.7898 618.506 45.9687 618.602 46.1193C618.702 46.2699 618.831 46.3963 618.99 46.4986C619.152 46.598 619.325 46.6818 619.51 46.75C619.695 46.8153 619.872 46.8693 620.043 46.9119L620.895 47.1335C621.173 47.2017 621.459 47.294 621.751 47.4105C622.044 47.527 622.315 47.6804 622.565 47.8707C622.815 48.0611 623.017 48.2969 623.17 48.5781C623.327 48.8594 623.405 49.196 623.405 49.5881C623.405 50.0824 623.277 50.5213 623.021 50.9048C622.768 51.2884 622.401 51.5909 621.918 51.8125C621.438 52.0341 620.857 52.1449 620.175 52.1449C619.521 52.1449 618.956 52.0412 618.479 51.8338C618.001 51.6264 617.628 51.3324 617.358 50.9517C617.088 50.5682 616.939 50.1136 616.911 49.5881H618.232C618.257 49.9034 618.359 50.1662 618.538 50.3764C618.72 50.5838 618.952 50.7386 619.233 50.8409C619.517 50.9403 619.828 50.9901 620.166 50.9901C620.538 50.9901 620.869 50.9318 621.159 50.8153C621.452 50.696 621.682 50.5312 621.849 50.321C622.017 50.108 622.101 49.8594 622.101 49.5753C622.101 49.3168 622.027 49.1051 621.879 48.9403C621.734 48.7756 621.537 48.6392 621.287 48.5312C621.04 48.4233 620.76 48.3281 620.447 48.2457L619.416 47.9645C618.717 47.7741 618.163 47.4943 617.754 47.125C617.348 46.7557 617.145 46.267 617.145 45.6591C617.145 45.1562 617.281 44.7173 617.554 44.3423C617.827 43.9673 618.196 43.6761 618.662 43.4688C619.128 43.2585 619.653 43.1534 620.239 43.1534C620.83 43.1534 621.351 43.2571 621.803 43.4645C622.257 43.6719 622.615 43.9574 622.876 44.321C623.138 44.6818 623.274 45.0966 623.286 45.5653H622.016ZM625.978 52V43.2727H627.295V47.4403H627.402L631.062 43.2727H632.72L629.2 47.2017L632.733 52H631.147L628.326 48.1009L627.295 49.2855V52H625.978ZM639.684 45.5653C639.638 45.1619 639.451 44.8494 639.121 44.6278C638.792 44.4034 638.377 44.2912 637.877 44.2912C637.519 44.2912 637.209 44.348 636.948 44.4616C636.686 44.5724 636.483 44.7259 636.338 44.9219C636.196 45.1151 636.125 45.3352 636.125 45.5824C636.125 45.7898 636.174 45.9687 636.27 46.1193C636.37 46.2699 636.499 46.3963 636.658 46.4986C636.82 46.598 636.993 46.6818 637.178 46.75C637.363 46.8153 637.54 46.8693 637.711 46.9119L638.563 47.1335C638.841 47.2017 639.127 47.294 639.419 47.4105C639.712 47.527 639.983 47.6804 640.233 47.8707C640.483 48.0611 640.685 48.2969 640.838 48.5781C640.995 48.8594 641.073 49.196 641.073 49.5881C641.073 50.0824 640.945 50.5213 640.689 50.9048C640.436 51.2884 640.069 51.5909 639.586 51.8125C639.105 52.0341 638.525 52.1449 637.843 52.1449C637.189 52.1449 636.624 52.0412 636.147 51.8338C635.669 51.6264 635.296 51.3324 635.026 50.9517C634.756 50.5682 634.607 50.1136 634.578 49.5881H635.9C635.925 49.9034 636.027 50.1662 636.206 50.3764C636.388 50.5838 636.62 50.7386 636.901 50.8409C637.185 50.9403 637.496 50.9901 637.834 50.9901C638.206 50.9901 638.537 50.9318 638.827 50.8153C639.12 50.696 639.35 50.5312 639.517 50.321C639.685 50.108 639.769 49.8594 639.769 49.5753C639.769 49.3168 639.695 49.1051 639.547 48.9403C639.402 48.7756 639.205 48.6392 638.955 48.5312C638.708 48.4233 638.428 48.3281 638.115 48.2457L637.084 47.9645C636.385 47.7741 635.831 47.4943 635.422 47.125C635.016 46.7557 634.813 46.267 634.813 45.6591C634.813 45.1562 634.949 44.7173 635.222 44.3423C635.495 43.9673 635.864 43.6761 636.33 43.4688C636.796 43.2585 637.321 43.1534 637.907 43.1534C638.498 43.1534 639.019 43.2571 639.471 43.4645C639.925 43.6719 640.283 43.9574 640.544 44.321C640.806 44.6818 640.942 45.0966 640.953 45.5653H639.684ZM647.822 52V43.2727H651.018C651.637 43.2727 652.15 43.375 652.556 43.5795C652.963 43.7812 653.267 44.0554 653.468 44.402C653.67 44.7457 653.771 45.1335 653.771 45.5653C653.771 45.929 653.704 46.2358 653.571 46.4858C653.437 46.733 653.258 46.9318 653.034 47.0824C652.812 47.2301 652.568 47.3381 652.301 47.4062V47.4915C652.591 47.5057 652.873 47.5994 653.149 47.7727C653.427 47.9432 653.657 48.1861 653.839 48.5014C654.021 48.8168 654.112 49.2003 654.112 49.652C654.112 50.098 654.007 50.4986 653.797 50.8537C653.589 51.206 653.268 51.4858 652.833 51.6932C652.399 51.8977 651.843 52 651.167 52H647.822ZM649.139 50.8707H651.039C651.67 50.8707 652.122 50.7486 652.395 50.5043C652.667 50.2599 652.804 49.9545 652.804 49.5881C652.804 49.3125 652.734 49.0597 652.595 48.8295C652.456 48.5994 652.257 48.4162 651.998 48.2798C651.743 48.1435 651.439 48.0753 651.086 48.0753H649.139V50.8707ZM649.139 47.0483H650.903C651.199 47.0483 651.464 46.9915 651.7 46.8778C651.939 46.7642 652.127 46.6051 652.267 46.4006C652.409 46.1932 652.48 45.9489 652.48 45.6676C652.48 45.3068 652.353 45.0043 652.1 44.7599C651.848 44.5156 651.46 44.3935 650.937 44.3935H649.139V47.0483ZM656 43.2727H657.496L659.776 47.2401H659.87L662.15 43.2727H663.645L660.479 48.5739V52H659.167V48.5739L656 43.2727ZM674.824 45.5653C674.779 45.1619 674.591 44.8494 674.262 44.6278C673.932 44.4034 673.517 44.2912 673.017 44.2912C672.659 44.2912 672.35 44.348 672.088 44.4616C671.827 44.5724 671.624 44.7259 671.479 44.9219C671.337 45.1151 671.266 45.3352 671.266 45.5824C671.266 45.7898 671.314 45.9687 671.411 46.1193C671.51 46.2699 671.64 46.3963 671.799 46.4986C671.961 46.598 672.134 46.6818 672.319 46.75C672.503 46.8153 672.681 46.8693 672.851 46.9119L673.703 47.1335C673.982 47.2017 674.267 47.294 674.56 47.4105C674.853 47.527 675.124 47.6804 675.374 47.8707C675.624 48.0611 675.826 48.2969 675.979 48.5781C676.135 48.8594 676.213 49.196 676.213 49.5881C676.213 50.0824 676.086 50.5213 675.83 50.9048C675.577 51.2884 675.209 51.5909 674.726 51.8125C674.246 52.0341 673.665 52.1449 672.983 52.1449C672.33 52.1449 671.765 52.0412 671.287 51.8338C670.81 51.6264 670.436 51.3324 670.167 50.9517C669.897 50.5682 669.748 50.1136 669.719 49.5881H671.04C671.066 49.9034 671.168 50.1662 671.347 50.3764C671.529 50.5838 671.76 50.7386 672.042 50.8409C672.326 50.9403 672.637 50.9901 672.975 50.9901C673.347 50.9901 673.678 50.9318 673.968 50.8153C674.26 50.696 674.49 50.5312 674.658 50.321C674.826 50.108 674.909 49.8594 674.909 49.5753C674.909 49.3168 674.836 49.1051 674.688 48.9403C674.543 48.7756 674.346 48.6392 674.096 48.5312C673.848 48.4233 673.569 48.3281 673.256 48.2457L672.225 47.9645C671.526 47.7741 670.972 47.4943 670.563 47.125C670.157 46.7557 669.953 46.267 669.953 45.6591C669.953 45.1562 670.09 44.7173 670.363 44.3423C670.635 43.9673 671.005 43.6761 671.471 43.4688C671.936 43.2585 672.462 43.1534 673.047 43.1534C673.638 43.1534 674.159 43.2571 674.611 43.4645C675.066 43.6719 675.424 43.9574 675.685 44.321C675.946 44.6818 676.083 45.0966 676.094 45.5653H674.824ZM678.787 52V43.2727H684.259V44.4062H680.104V47.0653H683.973V48.1946H680.104V50.8665H684.31V52H678.787ZM687.78 43.2727L690.209 50.3807H690.307L692.736 43.2727H694.159L691.019 52H689.498L686.357 43.2727H687.78ZM696.42 52V43.2727H701.891V44.4062H697.737V47.0653H701.606V48.1946H697.737V50.8665H701.942V52H696.42ZM704.65 52V43.2727H707.761C708.437 43.2727 708.998 43.3892 709.444 43.6222C709.893 43.8551 710.228 44.1776 710.45 44.5895C710.672 44.9986 710.782 45.4716 710.782 46.0085C710.782 46.5426 710.67 47.0128 710.446 47.419C710.224 47.8224 709.889 48.1364 709.44 48.3608C708.994 48.5852 708.433 48.6974 707.757 48.6974H705.4V47.5639H707.637C708.064 47.5639 708.41 47.5028 708.677 47.3807C708.947 47.2585 709.145 47.081 709.27 46.848C709.395 46.6151 709.457 46.3352 709.457 46.0085C709.457 45.679 709.393 45.3935 709.265 45.152C709.14 44.9105 708.943 44.7259 708.673 44.598C708.406 44.4673 708.055 44.402 707.62 44.402H705.967V52H704.65ZM708.958 48.0625L711.115 52H709.615L707.501 48.0625H708.958ZM714.701 43.2727V52H713.385V43.2727H714.701ZM717.189 44.4062V43.2727H723.943V44.4062H721.22V52H719.907V44.4062H717.189ZM725.762 43.2727H727.258L729.538 47.2401H729.631L731.911 43.2727H733.407L730.241 48.5739V52H728.928V48.5739L725.762 43.2727Z" fill="#5D6598"/>
</svg>
