<svg width="1084" height="32" viewBox="0 0 1084 32" fill="none" xmlns="http://www.w3.org/2000/svg">
<path d="M4.44602 26L0.411932 11.4545H2.72017L5.55398 22.7188H5.68892L8.63636 11.4545H10.9233L13.8707 22.7259H14.0057L16.8324 11.4545H19.1477L15.1065 26H12.8977L9.83665 15.1051H9.72301L6.66193 26H4.44602ZM23.0788 26.2415C22.3875 26.2415 21.7625 26.1136 21.2038 25.858C20.6451 25.5975 20.2024 25.2211 19.8757 24.7287C19.5537 24.2363 19.3928 23.6326 19.3928 22.9176C19.3928 22.3021 19.5111 21.7955 19.7479 21.3977C19.9846 21 20.3042 20.6851 20.7067 20.4531C21.1091 20.2211 21.5589 20.0459 22.0561 19.9276C22.5533 19.8092 23.0599 19.7192 23.576 19.6577C24.2294 19.5819 24.7597 19.5204 25.1669 19.473C25.5741 19.4209 25.87 19.3381 26.0547 19.2244C26.2393 19.1108 26.3317 18.9261 26.3317 18.6705V18.6207C26.3317 18.0005 26.1565 17.5199 25.8061 17.179C25.4605 16.8381 24.9444 16.6676 24.2578 16.6676C23.5429 16.6676 22.9794 16.8262 22.5675 17.1435C22.1603 17.456 21.8786 17.804 21.7223 18.1875L19.7266 17.733C19.9633 17.0701 20.3089 16.535 20.7635 16.1278C21.2228 15.7159 21.7507 15.4176 22.3473 15.233C22.9439 15.0436 23.5713 14.9489 24.2294 14.9489C24.665 14.9489 25.1267 15.0009 25.6143 15.1051C26.1068 15.2045 26.5661 15.3892 26.9922 15.6591C27.4231 15.929 27.7758 16.3149 28.0504 16.8168C28.325 17.3139 28.4624 17.9602 28.4624 18.7557V26H26.3885V24.5085H26.3033C26.166 24.7831 25.96 25.053 25.6854 25.3182C25.4107 25.5833 25.058 25.8035 24.6271 25.9787C24.1963 26.1539 23.6802 26.2415 23.0788 26.2415ZM23.5405 24.5369C24.1276 24.5369 24.6295 24.4209 25.0462 24.1889C25.4676 23.9569 25.7872 23.6539 26.005 23.2798C26.2275 22.901 26.3388 22.4962 26.3388 22.0653V20.6591C26.263 20.7348 26.1162 20.8059 25.8984 20.8722C25.6854 20.9337 25.4415 20.9882 25.1669 21.0355C24.8923 21.0781 24.6248 21.1184 24.3643 21.1562C24.1039 21.1894 23.8861 21.2178 23.7109 21.2415C23.299 21.2936 22.9226 21.3812 22.5817 21.5043C22.2455 21.6274 21.9756 21.8049 21.772 22.0369C21.5732 22.2642 21.4737 22.5672 21.4737 22.946C21.4737 23.4716 21.6679 23.8693 22.0561 24.1392C22.4444 24.4044 22.9392 24.5369 23.5405 24.5369ZM32.2425 30.0909C31.9253 30.0909 31.6365 30.0649 31.3761 30.0128C31.1156 29.9654 30.9215 29.9134 30.7937 29.8565L31.305 28.1165C31.6933 28.2206 32.0389 28.2656 32.342 28.2514C32.645 28.2372 32.9125 28.1236 33.1445 27.9105C33.3813 27.6974 33.5896 27.3494 33.7695 26.8665L34.0323 26.142L30.0408 15.0909H32.3136L35.0763 23.5568H35.19L37.9528 15.0909H40.2326L35.7369 27.456C35.5285 28.0241 35.2634 28.5047 34.9414 28.8977C34.6194 29.2955 34.2359 29.5938 33.7908 29.7926C33.3458 29.9915 32.8297 30.0909 32.2425 30.0909ZM50.4031 17.7543L48.4783 18.0952C48.3978 17.849 48.27 17.6146 48.0948 17.392C47.9244 17.1695 47.6924 16.9872 47.3988 16.8452C47.1052 16.7031 46.7383 16.6321 46.2979 16.6321C45.6966 16.6321 45.1947 16.767 44.7923 17.0369C44.3898 17.3021 44.1886 17.6454 44.1886 18.0668C44.1886 18.4313 44.3235 18.7249 44.5934 18.9474C44.8633 19.17 45.2989 19.3523 45.9002 19.4943L47.6332 19.892C48.637 20.1241 49.3851 20.4815 49.8775 20.9645C50.3699 21.4474 50.6161 22.0748 50.6161 22.8466C50.6161 23.5 50.4267 24.0824 50.0479 24.5938C49.6739 25.1004 49.1507 25.4981 48.4783 25.7869C47.8107 26.0758 47.0366 26.2202 46.1559 26.2202C44.9343 26.2202 43.9376 25.9598 43.1658 25.4389C42.3941 24.9134 41.9206 24.1676 41.7454 23.2017L43.7979 22.8892C43.9258 23.4242 44.1886 23.8291 44.5863 24.1037C44.984 24.3736 45.5025 24.5085 46.1417 24.5085C46.8377 24.5085 47.3941 24.3641 47.8107 24.0753C48.2274 23.7817 48.4357 23.4242 48.4357 23.0028C48.4357 22.6619 48.3079 22.3755 48.0522 22.1435C47.8013 21.9115 47.4154 21.7363 46.8945 21.6179L45.0479 21.2131C44.0299 20.9811 43.2771 20.6117 42.7894 20.1051C42.3065 19.5985 42.065 18.9569 42.065 18.1804C42.065 17.5365 42.2449 16.973 42.6048 16.4901C42.9646 16.0071 43.4618 15.6307 44.0962 15.3608C44.7307 15.0862 45.4575 14.9489 46.2766 14.9489C47.4556 14.9489 48.3836 15.2045 49.0607 15.7159C49.7378 16.2225 50.1853 16.902 50.4031 17.7543ZM58.0433 15.0909V16.7955H52.0845V15.0909H58.0433ZM53.6825 12.4773H55.8061V22.7969C55.8061 23.2088 55.8677 23.5189 55.9908 23.7273C56.1139 23.9309 56.2725 24.0705 56.4666 24.1463C56.6655 24.2173 56.8809 24.2528 57.1129 24.2528C57.2834 24.2528 57.4325 24.241 57.5604 24.2173C57.6882 24.1937 57.7876 24.1747 57.8587 24.1605L58.2422 25.9148C58.1191 25.9621 57.9439 26.0095 57.7166 26.0568C57.4893 26.1089 57.2053 26.1373 56.8643 26.142C56.3056 26.1515 55.7848 26.0521 55.3018 25.8438C54.8189 25.6354 54.4283 25.3134 54.13 24.8778C53.8317 24.4422 53.6825 23.8954 53.6825 23.2372V12.4773ZM63.5671 26.2415C62.8758 26.2415 62.2508 26.1136 61.6921 25.858C61.1334 25.5975 60.6907 25.2211 60.364 24.7287C60.042 24.2363 59.881 23.6326 59.881 22.9176C59.881 22.3021 59.9994 21.7955 60.2362 21.3977C60.4729 21 60.7925 20.6851 61.195 20.4531C61.5974 20.2211 62.0472 20.0459 62.5444 19.9276C63.0415 19.8092 63.5482 19.7192 64.0643 19.6577C64.7177 19.5819 65.248 19.5204 65.6552 19.473C66.0624 19.4209 66.3583 19.3381 66.543 19.2244C66.7276 19.1108 66.82 18.9261 66.82 18.6705V18.6207C66.82 18.0005 66.6448 17.5199 66.2944 17.179C65.9487 16.8381 65.4326 16.6676 64.7461 16.6676C64.0311 16.6676 63.4677 16.8262 63.0558 17.1435C62.6486 17.456 62.3668 17.804 62.2106 18.1875L60.2148 17.733C60.4516 17.0701 60.7972 16.535 61.2518 16.1278C61.7111 15.7159 62.239 15.4176 62.8356 15.233C63.4322 15.0436 64.0595 14.9489 64.7177 14.9489C65.1533 14.9489 65.6149 15.0009 66.1026 15.1051C66.5951 15.2045 67.0543 15.3892 67.4805 15.6591C67.9113 15.929 68.2641 16.3149 68.5387 16.8168C68.8133 17.3139 68.9506 17.9602 68.9506 18.7557V26H66.8768V24.5085H66.7915C66.6542 24.7831 66.4483 25.053 66.1737 25.3182C65.899 25.5833 65.5463 25.8035 65.1154 25.9787C64.6845 26.1539 64.1684 26.2415 63.5671 26.2415ZM64.0288 24.5369C64.6159 24.5369 65.1178 24.4209 65.5344 24.1889C65.9558 23.9569 66.2755 23.6539 66.4933 23.2798C66.7158 22.901 66.8271 22.4962 66.8271 22.0653V20.6591C66.7513 20.7348 66.6045 20.8059 66.3867 20.8722C66.1737 20.9337 65.9298 20.9882 65.6552 21.0355C65.3806 21.0781 65.113 21.1184 64.8526 21.1562C64.5922 21.1894 64.3744 21.2178 64.1992 21.2415C63.7873 21.2936 63.4109 21.3812 63.07 21.5043C62.7338 21.6274 62.4639 21.8049 62.2603 22.0369C62.0614 22.2642 61.962 22.5672 61.962 22.946C61.962 23.4716 62.1561 23.8693 62.5444 24.1392C62.9326 24.4044 63.4274 24.5369 64.0288 24.5369ZM71.7791 26V15.0909H73.8317V16.8239H73.9453C74.1442 16.2367 74.4946 15.7751 74.9964 15.4389C75.5031 15.098 76.076 14.9276 76.7152 14.9276C76.8478 14.9276 77.004 14.9323 77.1839 14.9418C77.3686 14.9512 77.513 14.9631 77.6172 14.9773V17.0085C77.532 16.9848 77.3804 16.9588 77.1626 16.9304C76.9448 16.8973 76.727 16.8807 76.5092 16.8807C76.0073 16.8807 75.5599 16.9872 75.1669 17.2003C74.7786 17.4086 74.4709 17.6998 74.2436 18.0739C74.0163 18.4432 73.9027 18.8646 73.9027 19.3381V26H71.7791Z" fill="#131520"/>
<path d="M85.3658 19.9631C85.3658 18.1828 85.6001 16.5445 86.0689 15.0483C86.5376 13.5521 87.2218 12.1719 88.1214 10.9077H90.0675C89.7171 11.3764 89.3904 11.9517 89.0874 12.6335C88.7843 13.3153 88.5192 14.0634 88.2919 14.8778C88.0646 15.6875 87.8871 16.5279 87.7592 17.3991C87.6314 18.2656 87.5675 19.1203 87.5675 19.9631C87.5675 21.09 87.6787 22.2311 87.9013 23.3864C88.1238 24.5417 88.4245 25.6141 88.8033 26.6037C89.1821 27.5933 89.6035 28.4006 90.0675 29.0256H88.1214C87.2218 27.7614 86.5376 26.3812 86.0689 24.8849C85.6001 23.3887 85.3658 21.7481 85.3658 19.9631ZM193.89 19.9631C193.89 21.7481 193.656 23.3887 193.187 24.8849C192.718 26.3812 192.034 27.7614 191.135 29.0256H189.189C189.539 28.5568 189.866 27.9815 190.169 27.2997C190.472 26.6179 190.737 25.8722 190.964 25.0625C191.191 24.2481 191.369 23.4053 191.497 22.5341C191.625 21.6629 191.689 20.8059 191.689 19.9631C191.689 18.8409 191.577 17.7022 191.355 16.5469C191.132 15.3916 190.832 14.3191 190.453 13.3295C190.074 12.34 189.653 11.5327 189.189 10.9077H191.135C192.034 12.1719 192.718 13.5521 193.187 15.0483C193.656 16.5445 193.89 18.1828 193.89 19.9631Z" fill="#A6ABC9"/>
<path d="M94.6715 26L91.4613 15.0909H93.6559L95.7937 23.1023H95.9002L98.0451 15.0909H100.24L102.37 23.0668H102.477L104.6 15.0909H106.795L103.592 26H101.426L99.2099 18.1236H99.0465L96.8306 26H94.6715ZM111.985 26.2415C111.294 26.2415 110.669 26.1136 110.11 25.858C109.551 25.5975 109.109 25.2211 108.782 24.7287C108.46 24.2363 108.299 23.6326 108.299 22.9176C108.299 22.3021 108.417 21.7955 108.654 21.3977C108.891 21 109.21 20.6851 109.613 20.4531C110.015 20.2211 110.465 20.0459 110.962 19.9276C111.46 19.8092 111.966 19.7192 112.482 19.6577C113.136 19.5819 113.666 19.5204 114.073 19.473C114.48 19.4209 114.776 19.3381 114.961 19.2244C115.146 19.1108 115.238 18.9261 115.238 18.6705V18.6207C115.238 18.0005 115.063 17.5199 114.712 17.179C114.367 16.8381 113.851 16.6676 113.164 16.6676C112.449 16.6676 111.886 16.8262 111.474 17.1435C111.067 17.456 110.785 17.804 110.629 18.1875L108.633 17.733C108.87 17.0701 109.215 16.535 109.67 16.1278C110.129 15.7159 110.657 15.4176 111.254 15.233C111.85 15.0436 112.478 14.9489 113.136 14.9489C113.571 14.9489 114.033 15.0009 114.521 15.1051C115.013 15.2045 115.472 15.3892 115.898 15.6591C116.329 15.929 116.682 16.3149 116.957 16.8168C117.231 17.3139 117.369 17.9602 117.369 18.7557V26H115.295V24.5085H115.21C115.072 24.7831 114.866 25.053 114.592 25.3182C114.317 25.5833 113.964 25.8035 113.533 25.9787C113.103 26.1539 112.586 26.2415 111.985 26.2415ZM112.447 24.5369C113.034 24.5369 113.536 24.4209 113.952 24.1889C114.374 23.9569 114.693 23.6539 114.911 23.2798C115.134 22.901 115.245 22.4962 115.245 22.0653V20.6591C115.169 20.7348 115.022 20.8059 114.805 20.8722C114.592 20.9337 114.348 20.9882 114.073 21.0355C113.799 21.0781 113.531 21.1184 113.271 21.1562C113.01 21.1894 112.792 21.2178 112.617 21.2415C112.205 21.2936 111.829 21.3812 111.488 21.5043C111.152 21.6274 110.882 21.8049 110.678 22.0369C110.479 22.2642 110.38 22.5672 110.38 22.946C110.38 23.4716 110.574 23.8693 110.962 24.1392C111.351 24.4044 111.845 24.5369 112.447 24.5369ZM121.149 30.0909C120.832 30.0909 120.543 30.0649 120.282 30.0128C120.022 29.9654 119.828 29.9134 119.7 29.8565L120.211 28.1165C120.6 28.2206 120.945 28.2656 121.248 28.2514C121.551 28.2372 121.819 28.1236 122.051 27.9105C122.288 27.6974 122.496 27.3494 122.676 26.8665L122.939 26.142L118.947 15.0909H121.22L123.983 23.5568H124.096L126.859 15.0909H129.139L124.643 27.456C124.435 28.0241 124.17 28.5047 123.848 28.8977C123.526 29.2955 123.142 29.5938 122.697 29.7926C122.252 29.9915 121.736 30.0909 121.149 30.0909ZM139.309 17.7543L137.385 18.0952C137.304 17.849 137.176 17.6146 137.001 17.392C136.831 17.1695 136.599 16.9872 136.305 16.8452C136.011 16.7031 135.645 16.6321 135.204 16.6321C134.603 16.6321 134.101 16.767 133.699 17.0369C133.296 17.3021 133.095 17.6454 133.095 18.0668C133.095 18.4313 133.23 18.7249 133.5 18.9474C133.77 19.17 134.205 19.3523 134.806 19.4943L136.539 19.892C137.543 20.1241 138.291 20.4815 138.784 20.9645C139.276 21.4474 139.522 22.0748 139.522 22.8466C139.522 23.5 139.333 24.0824 138.954 24.5938C138.58 25.1004 138.057 25.4981 137.385 25.7869C136.717 26.0758 135.943 26.2202 135.062 26.2202C133.841 26.2202 132.844 25.9598 132.072 25.4389C131.3 24.9134 130.827 24.1676 130.652 23.2017L132.704 22.8892C132.832 23.4242 133.095 23.8291 133.493 24.1037C133.89 24.3736 134.409 24.5085 135.048 24.5085C135.744 24.5085 136.3 24.3641 136.717 24.0753C137.134 23.7817 137.342 23.4242 137.342 23.0028C137.342 22.6619 137.214 22.3755 136.958 22.1435C136.708 21.9115 136.322 21.7363 135.801 21.6179L133.954 21.2131C132.936 20.9811 132.183 20.6117 131.696 20.1051C131.213 19.5985 130.971 18.9569 130.971 18.1804C130.971 17.5365 131.151 16.973 131.511 16.4901C131.871 16.0071 132.368 15.6307 133.002 15.3608C133.637 15.0862 134.364 14.9489 135.183 14.9489C136.362 14.9489 137.29 15.2045 137.967 15.7159C138.644 16.2225 139.092 16.902 139.309 17.7543ZM146.95 15.0909V16.7955H140.991V15.0909H146.95ZM142.589 12.4773H144.712V22.7969C144.712 23.2088 144.774 23.5189 144.897 23.7273C145.02 23.9309 145.179 24.0705 145.373 24.1463C145.572 24.2173 145.787 24.2528 146.019 24.2528C146.19 24.2528 146.339 24.241 146.467 24.2173C146.594 24.1937 146.694 24.1747 146.765 24.1605L147.148 25.9148C147.025 25.9621 146.85 26.0095 146.623 26.0568C146.396 26.1089 146.112 26.1373 145.771 26.142C145.212 26.1515 144.691 26.0521 144.208 25.8438C143.725 25.6354 143.335 25.3134 143.036 24.8778C142.738 24.4422 142.589 23.8954 142.589 23.2372V12.4773ZM152.473 26.2415C151.782 26.2415 151.157 26.1136 150.598 25.858C150.04 25.5975 149.597 25.2211 149.27 24.7287C148.948 24.2363 148.787 23.6326 148.787 22.9176C148.787 22.3021 148.906 21.7955 149.142 21.3977C149.379 21 149.699 20.6851 150.101 20.4531C150.504 20.2211 150.953 20.0459 151.451 19.9276C151.948 19.8092 152.454 19.7192 152.971 19.6577C153.624 19.5819 154.154 19.5204 154.561 19.473C154.969 19.4209 155.265 19.3381 155.449 19.2244C155.634 19.1108 155.726 18.9261 155.726 18.6705V18.6207C155.726 18.0005 155.551 17.5199 155.201 17.179C154.855 16.8381 154.339 16.6676 153.652 16.6676C152.937 16.6676 152.374 16.8262 151.962 17.1435C151.555 17.456 151.273 17.804 151.117 18.1875L149.121 17.733C149.358 17.0701 149.703 16.535 150.158 16.1278C150.617 15.7159 151.145 15.4176 151.742 15.233C152.338 15.0436 152.966 14.9489 153.624 14.9489C154.06 14.9489 154.521 15.0009 155.009 15.1051C155.501 15.2045 155.961 15.3892 156.387 15.6591C156.818 15.929 157.17 16.3149 157.445 16.8168C157.72 17.3139 157.857 17.9602 157.857 18.7557V26H155.783V24.5085H155.698C155.56 24.7831 155.355 25.053 155.08 25.3182C154.805 25.5833 154.453 25.8035 154.022 25.9787C153.591 26.1539 153.075 26.2415 152.473 26.2415ZM152.935 24.5369C153.522 24.5369 154.024 24.4209 154.441 24.1889C154.862 23.9569 155.182 23.6539 155.4 23.2798C155.622 22.901 155.733 22.4962 155.733 22.0653V20.6591C155.658 20.7348 155.511 20.8059 155.293 20.8722C155.08 20.9337 154.836 20.9882 154.561 21.0355C154.287 21.0781 154.019 21.1184 153.759 21.1562C153.498 21.1894 153.281 21.2178 153.105 21.2415C152.694 21.2936 152.317 21.3812 151.976 21.5043C151.64 21.6274 151.37 21.8049 151.167 22.0369C150.968 22.2642 150.868 22.5672 150.868 22.946C150.868 23.4716 151.062 23.8693 151.451 24.1392C151.839 24.4044 152.334 24.5369 152.935 24.5369ZM160.685 26V15.0909H162.738V16.8239H162.852C163.05 16.2367 163.401 15.7751 163.903 15.4389C164.409 15.098 164.982 14.9276 165.621 14.9276C165.754 14.9276 165.91 14.9323 166.09 14.9418C166.275 14.9512 166.419 14.9631 166.523 14.9773V17.0085C166.438 16.9848 166.287 16.9588 166.069 16.9304C165.851 16.8973 165.633 16.8807 165.415 16.8807C164.914 16.8807 164.466 16.9872 164.073 17.2003C163.685 17.4086 163.377 17.6998 163.15 18.0739C162.923 18.4432 162.809 18.8646 162.809 19.3381V26H160.685ZM168.51 26.1349C168.122 26.1349 167.788 25.9976 167.509 25.723C167.23 25.4437 167.09 25.1075 167.09 24.7145C167.09 24.3262 167.23 23.9948 167.509 23.7202C167.788 23.4408 168.122 23.3011 168.51 23.3011C168.899 23.3011 169.232 23.4408 169.512 23.7202C169.791 23.9948 169.931 24.3262 169.931 24.7145C169.931 24.9749 169.864 25.214 169.732 25.4318C169.604 25.6449 169.434 25.8153 169.221 25.9432C169.007 26.071 168.771 26.1349 168.51 26.1349ZM172.775 26V15.0909H174.899V26H172.775ZM173.848 13.4077C173.478 13.4077 173.161 13.2846 172.896 13.0384C172.636 12.7874 172.505 12.4891 172.505 12.1435C172.505 11.7931 172.636 11.4948 172.896 11.2486C173.161 10.9976 173.478 10.8722 173.848 10.8722C174.217 10.8722 174.532 10.9976 174.792 11.2486C175.057 11.4948 175.19 11.7931 175.19 12.1435C175.19 12.4891 175.057 12.7874 174.792 13.0384C174.532 13.2846 174.217 13.4077 173.848 13.4077ZM182.351 26.2202C181.328 26.2202 180.436 25.9858 179.673 25.517C178.911 25.0483 178.319 24.3925 177.898 23.5497C177.476 22.7069 177.266 21.7221 177.266 20.5952C177.266 19.4635 177.476 18.474 177.898 17.6264C178.319 16.7789 178.911 16.1207 179.673 15.652C180.436 15.1832 181.328 14.9489 182.351 14.9489C183.374 14.9489 184.266 15.1832 185.028 15.652C185.791 16.1207 186.383 16.7789 186.804 17.6264C187.225 18.474 187.436 19.4635 187.436 20.5952C187.436 21.7221 187.225 22.7069 186.804 23.5497C186.383 24.3925 185.791 25.0483 185.028 25.517C184.266 25.9858 183.374 26.2202 182.351 26.2202ZM182.358 24.4375C183.021 24.4375 183.57 24.2623 184.006 23.9119C184.441 23.5616 184.763 23.0952 184.972 22.5128C185.185 21.9304 185.291 21.2888 185.291 20.5881C185.291 19.892 185.185 19.2528 184.972 18.6705C184.763 18.0833 184.441 17.6122 184.006 17.2571C183.57 16.902 183.021 16.7244 182.358 16.7244C181.69 16.7244 181.136 16.902 180.696 17.2571C180.26 17.6122 179.936 18.0833 179.723 18.6705C179.515 19.2528 179.411 19.892 179.411 20.5881C179.411 21.2888 179.515 21.9304 179.723 22.5128C179.936 23.0952 180.26 23.5616 180.696 23.9119C181.136 24.2623 181.69 24.4375 182.358 24.4375Z" fill="#1757C2"/>
<path d="M901.5 0.5H1038.5V31.5H901.5V0.5Z" fill="white"/>
<path d="M923.865 14.0298C923.783 13.7713 923.672 13.5398 923.533 13.3352C923.396 13.1278 923.233 12.9517 923.043 12.8068C922.852 12.6591 922.635 12.5469 922.391 12.4702C922.149 12.3935 921.884 12.3551 921.594 12.3551C921.102 12.3551 920.659 12.4815 920.264 12.7344C919.869 12.9872 919.557 13.358 919.327 13.8466C919.099 14.3324 918.986 14.9276 918.986 15.6321C918.986 16.3395 919.101 16.9375 919.331 17.4261C919.561 17.9148 919.876 18.2855 920.277 18.5384C920.678 18.7912 921.134 18.9176 921.645 18.9176C922.119 18.9176 922.533 18.821 922.885 18.6278C923.24 18.4347 923.514 18.1619 923.707 17.8097C923.903 17.4545 924.001 17.0369 924.001 16.5568L924.342 16.6207H921.845V15.5341H925.276V16.527C925.276 17.2599 925.119 17.8963 924.807 18.4361C924.497 18.973 924.068 19.3878 923.52 19.6804C922.974 19.973 922.349 20.1193 921.645 20.1193C920.855 20.1193 920.162 19.9375 919.565 19.5739C918.972 19.2102 918.509 18.6946 918.176 18.027C917.844 17.3565 917.678 16.5611 917.678 15.6406C917.678 14.9446 917.774 14.3196 917.967 13.7656C918.161 13.2116 918.432 12.7415 918.781 12.3551C919.134 11.9659 919.547 11.669 920.021 11.4645C920.499 11.2571 921.02 11.1534 921.585 11.1534C922.057 11.1534 922.496 11.223 922.902 11.3622C923.311 11.5014 923.675 11.6989 923.993 11.9545C924.314 12.2102 924.58 12.5142 924.79 12.8665C925 13.2159 925.142 13.6037 925.216 14.0298H923.865ZM930.666 20.1321C930.021 20.1321 929.466 19.9943 929 19.7188C928.537 19.4403 928.179 19.0497 927.926 18.5469C927.676 18.0412 927.551 17.4489 927.551 16.7699C927.551 16.0994 927.676 15.5085 927.926 14.9972C928.179 14.4858 928.531 14.0866 928.983 13.7997C929.437 13.5128 929.968 13.3693 930.576 13.3693C930.946 13.3693 931.304 13.4304 931.65 13.5526C931.997 13.6747 932.308 13.8665 932.583 14.1278C932.859 14.3892 933.076 14.7287 933.235 15.1463C933.395 15.5611 933.474 16.0653 933.474 16.6591V17.1108H928.271V16.1562H932.225C932.225 15.821 932.157 15.5241 932.021 15.2656C931.885 15.0043 931.693 14.7983 931.446 14.6477C931.201 14.4972 930.914 14.4219 930.585 14.4219C930.227 14.4219 929.914 14.5099 929.647 14.6861C929.383 14.8594 929.179 15.0866 929.034 15.3679C928.892 15.6463 928.821 15.9489 928.821 16.2756V17.0213C928.821 17.4588 928.897 17.831 929.051 18.1378C929.207 18.4446 929.424 18.679 929.703 18.8409C929.981 19 930.306 19.0795 930.679 19.0795C930.92 19.0795 931.14 19.0455 931.339 18.9773C931.538 18.9062 931.71 18.8011 931.855 18.6619C932 18.5227 932.11 18.3509 932.187 18.1463L933.393 18.3636C933.297 18.7187 933.123 19.0298 932.873 19.2969C932.626 19.5611 932.315 19.767 931.94 19.9148C931.568 20.0597 931.143 20.1321 930.666 20.1321ZM937.162 16.1136V20H935.888V13.4545H937.111V14.5199H937.192C937.342 14.1733 937.578 13.8949 937.899 13.6847C938.223 13.4744 938.631 13.3693 939.122 13.3693C939.568 13.3693 939.959 13.4631 940.294 13.6506C940.629 13.8352 940.889 14.1108 941.074 14.4773C941.259 14.8437 941.351 15.2969 941.351 15.8366V20H940.077V15.9901C940.077 15.5156 939.953 15.1449 939.706 14.8778C939.459 14.608 939.119 14.473 938.688 14.473C938.392 14.473 938.129 14.5369 937.899 14.6648C937.672 14.7926 937.491 14.9801 937.358 15.2273C937.227 15.4716 937.162 15.767 937.162 16.1136ZM946.881 20.1321C946.236 20.1321 945.68 19.9943 945.214 19.7188C944.751 19.4403 944.393 19.0497 944.141 18.5469C943.891 18.0412 943.766 17.4489 943.766 16.7699C943.766 16.0994 943.891 15.5085 944.141 14.9972C944.393 14.4858 944.746 14.0866 945.197 13.7997C945.652 13.5128 946.183 13.3693 946.791 13.3693C947.161 13.3693 947.518 13.4304 947.865 13.5526C948.212 13.6747 948.523 13.8665 948.798 14.1278C949.074 14.3892 949.291 14.7287 949.45 15.1463C949.609 15.5611 949.689 16.0653 949.689 16.6591V17.1108H944.486V16.1562H948.44C948.44 15.821 948.372 15.5241 948.236 15.2656C948.099 15.0043 947.908 14.7983 947.661 14.6477C947.416 14.4972 947.129 14.4219 946.8 14.4219C946.442 14.4219 946.129 14.5099 945.862 14.6861C945.598 14.8594 945.393 15.0866 945.249 15.3679C945.107 15.6463 945.036 15.9489 945.036 16.2756V17.0213C945.036 17.4588 945.112 17.831 945.266 18.1378C945.422 18.4446 945.639 18.679 945.918 18.8409C946.196 19 946.521 19.0795 946.893 19.0795C947.135 19.0795 947.355 19.0455 947.554 18.9773C947.753 18.9062 947.925 18.8011 948.07 18.6619C948.214 18.5227 948.325 18.3509 948.402 18.1463L949.608 18.3636C949.511 18.7187 949.338 19.0298 949.088 19.2969C948.841 19.5611 948.53 19.767 948.155 19.9148C947.783 20.0597 947.358 20.1321 946.881 20.1321ZM952.103 20V13.4545H953.334V14.4943H953.402C953.522 14.142 953.732 13.8651 954.033 13.6634C954.337 13.4588 954.681 13.3565 955.064 13.3565C955.144 13.3565 955.238 13.3594 955.346 13.3651C955.456 13.3707 955.543 13.3778 955.605 13.3864V14.6051C955.554 14.5909 955.463 14.5753 955.333 14.5582C955.202 14.5384 955.071 14.5284 954.941 14.5284C954.64 14.5284 954.371 14.5923 954.135 14.7202C953.902 14.8452 953.718 15.0199 953.581 15.2443C953.445 15.4659 953.377 15.7187 953.377 16.0028V20H952.103ZM959.554 20.1449C959.14 20.1449 958.765 20.0682 958.429 19.9148C958.094 19.7585 957.828 19.5327 957.632 19.2372C957.439 18.9418 957.343 18.5795 957.343 18.1506C957.343 17.7812 957.414 17.4773 957.556 17.2386C957.698 17 957.89 16.8111 958.131 16.6719C958.373 16.5327 958.642 16.4276 958.941 16.3565C959.239 16.2855 959.543 16.2315 959.853 16.1946C960.245 16.1491 960.563 16.1122 960.807 16.0838C961.051 16.0526 961.229 16.0028 961.34 15.9347C961.451 15.8665 961.506 15.7557 961.506 15.6023V15.5724C961.506 15.2003 961.401 14.9119 961.191 14.7074C960.983 14.5028 960.674 14.4006 960.262 14.4006C959.833 14.4006 959.495 14.4957 959.248 14.6861C959.003 14.8736 958.834 15.0824 958.74 15.3125L957.543 15.0398C957.685 14.642 957.892 14.321 958.165 14.0767C958.441 13.8295 958.757 13.6506 959.115 13.5398C959.473 13.4261 959.85 13.3693 960.245 13.3693C960.506 13.3693 960.783 13.4006 961.076 13.4631C961.371 13.5227 961.647 13.6335 961.902 13.7955C962.161 13.9574 962.373 14.1889 962.537 14.4901C962.702 14.7884 962.784 15.1761 962.784 15.6534V20H961.54V19.1051H961.489C961.407 19.2699 961.283 19.4318 961.118 19.5909C960.953 19.75 960.742 19.8821 960.483 19.9872C960.225 20.0923 959.915 20.1449 959.554 20.1449ZM959.831 19.1222C960.184 19.1222 960.485 19.0526 960.735 18.9134C960.988 18.7741 961.179 18.5923 961.31 18.3679C961.444 18.1406 961.51 17.8977 961.51 17.6392V16.7955C961.465 16.8409 961.377 16.8835 961.246 16.9233C961.118 16.9602 960.972 16.9929 960.807 17.0213C960.642 17.0469 960.482 17.071 960.326 17.0938C960.169 17.1136 960.039 17.1307 959.934 17.1449C959.686 17.1761 959.461 17.2287 959.256 17.3026C959.054 17.3764 958.892 17.483 958.77 17.6222C958.651 17.7585 958.591 17.9403 958.591 18.1676C958.591 18.483 958.708 18.7216 958.941 18.8835C959.174 19.0426 959.471 19.1222 959.831 19.1222ZM968.537 13.4545V14.4773H964.962V13.4545H968.537ZM965.92 11.8864H967.195V18.0781C967.195 18.3253 967.232 18.5114 967.305 18.6364C967.379 18.7585 967.474 18.8423 967.591 18.8878C967.71 18.9304 967.839 18.9517 967.979 18.9517C968.081 18.9517 968.17 18.9446 968.247 18.9304C968.324 18.9162 968.384 18.9048 968.426 18.8963L968.656 19.9489C968.582 19.9773 968.477 20.0057 968.341 20.0341C968.205 20.0653 968.034 20.0824 967.83 20.0852C967.494 20.0909 967.182 20.0312 966.892 19.9062C966.602 19.7812 966.368 19.5881 966.189 19.3267C966.01 19.0653 965.92 18.7372 965.92 18.3423V11.8864ZM973.697 20.1321C973.052 20.1321 972.497 19.9943 972.031 19.7188C971.568 19.4403 971.21 19.0497 970.957 18.5469C970.707 18.0412 970.582 17.4489 970.582 16.7699C970.582 16.0994 970.707 15.5085 970.957 14.9972C971.21 14.4858 971.562 14.0866 972.014 13.7997C972.468 13.5128 973 13.3693 973.608 13.3693C973.977 13.3693 974.335 13.4304 974.681 13.5526C975.028 13.6747 975.339 13.8665 975.615 14.1278C975.89 14.3892 976.108 14.7287 976.267 15.1463C976.426 15.5611 976.505 16.0653 976.505 16.6591V17.1108H971.302V16.1562H975.257C975.257 15.821 975.189 15.5241 975.052 15.2656C974.916 15.0043 974.724 14.7983 974.477 14.6477C974.233 14.4972 973.946 14.4219 973.616 14.4219C973.258 14.4219 972.946 14.5099 972.679 14.6861C972.414 14.8594 972.21 15.0866 972.065 15.3679C971.923 15.6463 971.852 15.9489 971.852 16.2756V17.0213C971.852 17.4588 971.929 17.831 972.082 18.1378C972.238 18.4446 972.456 18.679 972.734 18.8409C973.012 19 973.338 19.0795 973.71 19.0795C973.951 19.0795 974.172 19.0455 974.37 18.9773C974.569 18.9062 974.741 18.8011 974.886 18.6619C975.031 18.5227 975.142 18.3509 975.218 18.1463L976.424 18.3636C976.328 18.7187 976.154 19.0298 975.904 19.2969C975.657 19.5611 975.346 19.767 974.971 19.9148C974.599 20.0597 974.174 20.1321 973.697 20.1321ZM983.095 20V13.4545H984.326V14.4943H984.395C984.514 14.142 984.724 13.8651 985.025 13.6634C985.329 13.4588 985.673 13.3565 986.056 13.3565C986.136 13.3565 986.23 13.3594 986.338 13.3651C986.449 13.3707 986.535 13.3778 986.598 13.3864V14.6051C986.547 14.5909 986.456 14.5753 986.325 14.5582C986.194 14.5384 986.064 14.5284 985.933 14.5284C985.632 14.5284 985.363 14.5923 985.127 14.7202C984.895 14.8452 984.71 15.0199 984.574 15.2443C984.437 15.4659 984.369 15.7187 984.369 16.0028V20H983.095ZM991.287 20.1321C990.642 20.1321 990.087 19.9943 989.621 19.7188C989.158 19.4403 988.8 19.0497 988.547 18.5469C988.297 18.0412 988.172 17.4489 988.172 16.7699C988.172 16.0994 988.297 15.5085 988.547 14.9972C988.8 14.4858 989.152 14.0866 989.604 13.7997C990.058 13.5128 990.589 13.3693 991.197 13.3693C991.567 13.3693 991.925 13.4304 992.271 13.5526C992.618 13.6747 992.929 13.8665 993.205 14.1278C993.48 14.3892 993.697 14.7287 993.857 15.1463C994.016 15.5611 994.095 16.0653 994.095 16.6591V17.1108H988.892V16.1562H992.847C992.847 15.821 992.778 15.5241 992.642 15.2656C992.506 15.0043 992.314 14.7983 992.067 14.6477C991.822 14.4972 991.536 14.4219 991.206 14.4219C990.848 14.4219 990.536 14.5099 990.268 14.6861C990.004 14.8594 989.8 15.0866 989.655 15.3679C989.513 15.6463 989.442 15.9489 989.442 16.2756V17.0213C989.442 17.4588 989.518 17.831 989.672 18.1378C989.828 18.4446 990.045 18.679 990.324 18.8409C990.602 19 990.928 19.0795 991.3 19.0795C991.541 19.0795 991.761 19.0455 991.96 18.9773C992.159 18.9062 992.331 18.8011 992.476 18.6619C992.621 18.5227 992.732 18.3509 992.808 18.1463L994.014 18.3636C993.918 18.7187 993.744 19.0298 993.494 19.2969C993.247 19.5611 992.936 19.767 992.561 19.9148C992.189 20.0597 991.764 20.1321 991.287 20.1321ZM996.509 22.4545V13.4545H997.753V14.5156H997.86C997.934 14.3793 998.04 14.2216 998.179 14.0426C998.319 13.8636 998.512 13.7074 998.759 13.5739C999.006 13.4375 999.333 13.3693 999.739 13.3693C1000.27 13.3693 1000.74 13.5028 1001.15 13.7699C1001.57 14.0369 1001.89 14.4219 1002.13 14.9247C1002.37 15.4276 1002.49 16.0327 1002.49 16.7401C1002.49 17.4474 1002.37 18.054 1002.13 18.5597C1001.9 19.0625 1001.57 19.4503 1001.16 19.723C1000.75 19.9929 1000.28 20.1278 999.752 20.1278C999.354 20.1278 999.029 20.0611 998.776 19.9276C998.526 19.794 998.33 19.6378 998.188 19.4588C998.046 19.2798 997.936 19.1207 997.86 18.9815H997.783V22.4545H996.509ZM997.757 16.7273C997.757 17.1875 997.824 17.5909 997.958 17.9375C998.091 18.2841 998.284 18.5554 998.537 18.7514C998.79 18.9446 999.1 19.0412 999.466 19.0412C999.847 19.0412 1000.17 18.9403 1000.42 18.7386C1000.68 18.5341 1000.87 18.2571 1001 17.9077C1001.13 17.5582 1001.2 17.1648 1001.2 16.7273C1001.2 16.2955 1001.14 15.9077 1001 15.5639C1000.88 15.2202 1000.68 14.9489 1000.43 14.75C1000.17 14.5511 999.85 14.4517 999.466 14.4517C999.097 14.4517 998.784 14.5469 998.529 14.7372C998.276 14.9276 998.084 15.1932 997.953 15.5341C997.823 15.875 997.757 16.2727 997.757 16.7273ZM1007.67 20.1321C1007.06 20.1321 1006.52 19.9915 1006.07 19.7102C1005.61 19.429 1005.25 19.0355 1005 18.5298C1004.75 18.0241 1004.62 17.4332 1004.62 16.7571C1004.62 16.0781 1004.75 15.4844 1005 14.9759C1005.25 14.4673 1005.61 14.0724 1006.07 13.7912C1006.52 13.5099 1007.06 13.3693 1007.67 13.3693C1008.29 13.3693 1008.82 13.5099 1009.28 13.7912C1009.74 14.0724 1010.09 14.4673 1010.34 14.9759C1010.6 15.4844 1010.72 16.0781 1010.72 16.7571C1010.72 17.4332 1010.6 18.0241 1010.34 18.5298C1010.09 19.0355 1009.74 19.429 1009.28 19.7102C1008.82 19.9915 1008.29 20.1321 1007.67 20.1321ZM1007.68 19.0625C1008.07 19.0625 1008.4 18.9574 1008.67 18.7472C1008.93 18.5369 1009.12 18.2571 1009.24 17.9077C1009.37 17.5582 1009.44 17.1733 1009.44 16.7528C1009.44 16.3352 1009.37 15.9517 1009.24 15.6023C1009.12 15.25 1008.93 14.9673 1008.67 14.7543C1008.4 14.5412 1008.07 14.4347 1007.68 14.4347C1007.28 14.4347 1006.94 14.5412 1006.68 14.7543C1006.42 14.9673 1006.22 15.25 1006.1 15.6023C1005.97 15.9517 1005.91 16.3352 1005.91 16.7528C1005.91 17.1733 1005.97 17.5582 1006.1 17.9077C1006.22 18.2571 1006.42 18.5369 1006.68 18.7472C1006.94 18.9574 1007.28 19.0625 1007.68 19.0625ZM1013.15 20V13.4545H1014.38V14.4943H1014.45C1014.56 14.142 1014.77 13.8651 1015.08 13.6634C1015.38 13.4588 1015.72 13.3565 1016.11 13.3565C1016.19 13.3565 1016.28 13.3594 1016.39 13.3651C1016.5 13.3707 1016.59 13.3778 1016.65 13.3864V14.6051C1016.6 14.5909 1016.51 14.5753 1016.38 14.5582C1016.25 14.5384 1016.11 14.5284 1015.98 14.5284C1015.68 14.5284 1015.41 14.5923 1015.18 14.7202C1014.95 14.8452 1014.76 15.0199 1014.62 15.2443C1014.49 15.4659 1014.42 15.7187 1014.42 16.0028V20H1013.15ZM1022.19 13.4545V14.4773H1018.62V13.4545H1022.19ZM1019.58 11.8864H1020.85V18.0781C1020.85 18.3253 1020.89 18.5114 1020.96 18.6364C1021.04 18.7585 1021.13 18.8423 1021.25 18.8878C1021.37 18.9304 1021.5 18.9517 1021.63 18.9517C1021.74 18.9517 1021.83 18.9446 1021.9 18.9304C1021.98 18.9162 1022.04 18.9048 1022.08 18.8963L1022.31 19.9489C1022.24 19.9773 1022.13 20.0057 1022 20.0341C1021.86 20.0653 1021.69 20.0824 1021.49 20.0852C1021.15 20.0909 1020.84 20.0312 1020.55 19.9062C1020.26 19.7812 1020.02 19.5881 1019.85 19.3267C1019.67 19.0653 1019.58 18.7372 1019.58 18.3423V11.8864Z" fill="#4A5078"/>
<path d="M901.5 0.5H1038.5V31.5H901.5V0.5Z" stroke="#CCCFE0"/>
<path d="M819 0.5H903.5V31.5H819C815.962 31.5 813.5 29.0376 813.5 26V6C813.5 2.96243 815.962 0.5 819 0.5Z" fill="white"/>
<path d="M837.207 14.1108H835.878C835.827 13.8267 835.732 13.5767 835.592 13.3608C835.453 13.1449 835.283 12.9616 835.081 12.8111C834.879 12.6605 834.653 12.5469 834.403 12.4702C834.156 12.3935 833.893 12.3551 833.615 12.3551C833.112 12.3551 832.662 12.4815 832.264 12.7344C831.869 12.9872 831.557 13.358 831.327 13.8466C831.099 14.3352 830.986 14.9318 830.986 15.6364C830.986 16.3466 831.099 16.946 831.327 17.4347C831.557 17.9233 831.871 18.2926 832.268 18.5426C832.666 18.7926 833.114 18.9176 833.611 18.9176C833.886 18.9176 834.148 18.8807 834.395 18.8068C834.645 18.7301 834.871 18.6179 835.072 18.4702C835.274 18.3224 835.445 18.142 835.584 17.929C835.726 17.7131 835.824 17.4659 835.878 17.1875L837.207 17.1918C837.136 17.6207 836.999 18.0156 836.794 18.3764C836.592 18.7344 836.332 19.044 836.014 19.3054C835.699 19.5639 835.338 19.7642 834.932 19.9062C834.526 20.0483 834.082 20.1193 833.602 20.1193C832.847 20.1193 832.173 19.9403 831.582 19.5824C830.991 19.2216 830.526 18.706 830.185 18.0355C829.847 17.3651 829.678 16.5653 829.678 15.6364C829.678 14.7045 829.848 13.9048 830.189 13.2372C830.53 12.5668 830.996 12.0526 831.587 11.6946C832.178 11.3338 832.849 11.1534 833.602 11.1534C834.065 11.1534 834.497 11.2202 834.898 11.3537C835.301 11.4844 835.663 11.6776 835.984 11.9332C836.305 12.1861 836.571 12.4957 836.781 12.8622C836.991 13.2259 837.134 13.642 837.207 14.1108ZM842.438 20.1321C841.824 20.1321 841.289 19.9915 840.831 19.7102C840.374 19.429 840.019 19.0355 839.766 18.5298C839.513 18.0241 839.387 17.4332 839.387 16.7571C839.387 16.0781 839.513 15.4844 839.766 14.9759C840.019 14.4673 840.374 14.0724 840.831 13.7912C841.289 13.5099 841.824 13.3693 842.438 13.3693C843.051 13.3693 843.587 13.5099 844.044 13.7912C844.502 14.0724 844.857 14.4673 845.11 14.9759C845.363 15.4844 845.489 16.0781 845.489 16.7571C845.489 17.4332 845.363 18.0241 845.11 18.5298C844.857 19.0355 844.502 19.429 844.044 19.7102C843.587 19.9915 843.051 20.1321 842.438 20.1321ZM842.442 19.0625C842.84 19.0625 843.169 18.9574 843.431 18.7472C843.692 18.5369 843.885 18.2571 844.01 17.9077C844.138 17.5582 844.202 17.1733 844.202 16.7528C844.202 16.3352 844.138 15.9517 844.01 15.6023C843.885 15.25 843.692 14.9673 843.431 14.7543C843.169 14.5412 842.84 14.4347 842.442 14.4347C842.042 14.4347 841.709 14.5412 841.445 14.7543C841.184 14.9673 840.989 15.25 840.861 15.6023C840.736 15.9517 840.674 16.3352 840.674 16.7528C840.674 17.1733 840.736 17.5582 840.861 17.9077C840.989 18.2571 841.184 18.5369 841.445 18.7472C841.709 18.9574 842.042 19.0625 842.442 19.0625ZM847.911 20V13.4545H849.134V14.5199H849.215C849.352 14.1591 849.575 13.8778 849.884 13.6761C850.194 13.4716 850.565 13.3693 850.996 13.3693C851.434 13.3693 851.8 13.4716 852.096 13.6761C852.394 13.8807 852.614 14.1619 852.756 14.5199H852.825C852.981 14.1705 853.229 13.892 853.57 13.6847C853.911 13.4744 854.317 13.3693 854.789 13.3693C855.383 13.3693 855.867 13.5554 856.242 13.9276C856.62 14.2997 856.809 14.8608 856.809 15.6108V20H855.535V15.7301C855.535 15.2869 855.414 14.9659 855.173 14.767C854.931 14.5682 854.643 14.4688 854.308 14.4688C853.893 14.4688 853.57 14.5966 853.34 14.8523C853.11 15.1051 852.995 15.4304 852.995 15.8281V20H851.725V15.6491C851.725 15.294 851.614 15.0085 851.393 14.7926C851.171 14.5767 850.883 14.4688 850.528 14.4688C850.286 14.4688 850.063 14.5327 849.859 14.6605C849.657 14.7855 849.494 14.9602 849.369 15.1847C849.246 15.4091 849.185 15.669 849.185 15.9645V20H847.911ZM859.517 22.4545V13.4545H860.761V14.5156H860.868C860.941 14.3793 861.048 14.2216 861.187 14.0426C861.326 13.8636 861.52 13.7074 861.767 13.5739C862.014 13.4375 862.341 13.3693 862.747 13.3693C863.275 13.3693 863.747 13.5028 864.162 13.7699C864.576 14.0369 864.902 14.4219 865.137 14.9247C865.376 15.4276 865.495 16.0327 865.495 16.7401C865.495 17.4474 865.377 18.054 865.142 18.5597C864.906 19.0625 864.582 19.4503 864.17 19.723C863.758 19.9929 863.288 20.1278 862.76 20.1278C862.362 20.1278 862.037 20.0611 861.784 19.9276C861.534 19.794 861.338 19.6378 861.196 19.4588C861.054 19.2798 860.944 19.1207 860.868 18.9815H860.791V22.4545H859.517ZM860.765 16.7273C860.765 17.1875 860.832 17.5909 860.966 17.9375C861.099 18.2841 861.292 18.5554 861.545 18.7514C861.798 18.9446 862.108 19.0412 862.474 19.0412C862.855 19.0412 863.173 18.9403 863.429 18.7386C863.684 18.5341 863.877 18.2571 864.008 17.9077C864.142 17.5582 864.208 17.1648 864.208 16.7273C864.208 16.2955 864.143 15.9077 864.012 15.5639C863.885 15.2202 863.691 14.9489 863.433 14.75C863.177 14.5511 862.858 14.4517 862.474 14.4517C862.105 14.4517 861.792 14.5469 861.537 14.7372C861.284 14.9276 861.092 15.1932 860.961 15.5341C860.831 15.875 860.765 16.2727 860.765 16.7273ZM869.828 20.1449C869.413 20.1449 869.038 20.0682 868.703 19.9148C868.368 19.7585 868.102 19.5327 867.906 19.2372C867.713 18.9418 867.616 18.5795 867.616 18.1506C867.616 17.7812 867.687 17.4773 867.829 17.2386C867.971 17 868.163 16.8111 868.404 16.6719C868.646 16.5327 868.916 16.4276 869.214 16.3565C869.512 16.2855 869.816 16.2315 870.126 16.1946C870.518 16.1491 870.836 16.1122 871.081 16.0838C871.325 16.0526 871.502 16.0028 871.613 15.9347C871.724 15.8665 871.779 15.7557 871.779 15.6023V15.5724C871.779 15.2003 871.674 14.9119 871.464 14.7074C871.257 14.5028 870.947 14.4006 870.535 14.4006C870.106 14.4006 869.768 14.4957 869.521 14.6861C869.277 14.8736 869.108 15.0824 869.014 15.3125L867.816 15.0398C867.958 14.642 868.166 14.321 868.439 14.0767C868.714 13.8295 869.031 13.6506 869.389 13.5398C869.747 13.4261 870.123 13.3693 870.518 13.3693C870.779 13.3693 871.056 13.4006 871.349 13.4631C871.645 13.5227 871.92 13.6335 872.176 13.7955C872.434 13.9574 872.646 14.1889 872.811 14.4901C872.975 14.7884 873.058 15.1761 873.058 15.6534V20H871.814V19.1051H871.762C871.68 19.2699 871.556 19.4318 871.392 19.5909C871.227 19.75 871.015 19.8821 870.757 19.9872C870.498 20.0923 870.189 20.1449 869.828 20.1449ZM870.105 19.1222C870.457 19.1222 870.758 19.0526 871.008 18.9134C871.261 18.7741 871.453 18.5923 871.583 18.3679C871.717 18.1406 871.784 17.8977 871.784 17.6392V16.7955C871.738 16.8409 871.65 16.8835 871.52 16.9233C871.392 16.9602 871.245 16.9929 871.081 17.0213C870.916 17.0469 870.755 17.071 870.599 17.0938C870.443 17.1136 870.312 17.1307 870.207 17.1449C869.96 17.1761 869.734 17.2287 869.529 17.3026C869.328 17.3764 869.166 17.483 869.044 17.6222C868.924 17.7585 868.865 17.9403 868.865 18.1676C868.865 18.483 868.981 18.7216 869.214 18.8835C869.447 19.0426 869.744 19.1222 870.105 19.1222ZM875.755 20V13.4545H876.987V14.4943H877.055C877.174 14.142 877.384 13.8651 877.685 13.6634C877.989 13.4588 878.333 13.3565 878.717 13.3565C878.796 13.3565 878.89 13.3594 878.998 13.3651C879.109 13.3707 879.195 13.3778 879.258 13.3864V14.6051C879.207 14.5909 879.116 14.5753 878.985 14.5582C878.854 14.5384 878.724 14.5284 878.593 14.5284C878.292 14.5284 878.023 14.5923 877.788 14.7202C877.555 14.8452 877.37 15.0199 877.234 15.2443C877.097 15.4659 877.029 15.7187 877.029 16.0028V20H875.755ZM883.947 20.1321C883.302 20.1321 882.747 19.9943 882.281 19.7188C881.818 19.4403 881.46 19.0497 881.207 18.5469C880.957 18.0412 880.832 17.4489 880.832 16.7699C880.832 16.0994 880.957 15.5085 881.207 14.9972C881.46 14.4858 881.812 14.0866 882.264 13.7997C882.718 13.5128 883.25 13.3693 883.858 13.3693C884.227 13.3693 884.585 13.4304 884.931 13.5526C885.278 13.6747 885.589 13.8665 885.865 14.1278C886.14 14.3892 886.358 14.7287 886.517 15.1463C886.676 15.5611 886.755 16.0653 886.755 16.6591V17.1108H881.552V16.1562H885.507C885.507 15.821 885.439 15.5241 885.302 15.2656C885.166 15.0043 884.974 14.7983 884.727 14.6477C884.483 14.4972 884.196 14.4219 883.866 14.4219C883.508 14.4219 883.196 14.5099 882.929 14.6861C882.664 14.8594 882.46 15.0866 882.315 15.3679C882.173 15.6463 882.102 15.9489 882.102 16.2756V17.0213C882.102 17.4588 882.179 17.831 882.332 18.1378C882.488 18.4446 882.706 18.679 882.984 18.8409C883.262 19 883.588 19.0795 883.96 19.0795C884.201 19.0795 884.422 19.0455 884.62 18.9773C884.819 18.9062 884.991 18.8011 885.136 18.6619C885.281 18.5227 885.392 18.3509 885.468 18.1463L886.674 18.3636C886.578 18.7187 886.404 19.0298 886.154 19.2969C885.907 19.5611 885.596 19.767 885.221 19.9148C884.849 20.0597 884.424 20.1321 883.947 20.1321Z" fill="#4A5078"/>
<path d="M819 0.5H903.5V31.5H819C815.962 31.5 813.5 29.0376 813.5 26V6C813.5 2.96243 815.962 0.5 819 0.5Z" stroke="#CCCFE0"/>
<path d="M1036 0.5H1077.5C1080.54 0.5 1083 2.96243 1083 6V26C1083 29.0376 1080.54 31.5 1077.5 31.5H1036V0.5Z" fill="white"/>
<g clip-path="url(#clip0_131_8231)">
<ellipse cx="1057.5" cy="10.5833" rx="1.25" ry="1.25" fill="#5D6598"/>
<ellipse cx="1057.5" cy="21.4167" rx="1.25" ry="1.25" fill="#5D6598"/>
<circle cx="1057.5" cy="16" r="1.25" fill="#5D6598"/>
</g>
<path d="M1036 0.5H1077.5C1080.54 0.5 1083 2.96243 1083 6V26C1083 29.0376 1080.54 31.5 1077.5 31.5H1036V0.5Z" stroke="#CCCFE0"/>
<defs>
<clipPath id="clip0_131_8231">
<rect width="20" height="20" fill="white" transform="translate(1047.5 6)"/>
</clipPath>
</defs>
</svg>
