<svg width="492" height="201" viewBox="0 0 492 201" fill="none" xmlns="http://www.w3.org/2000/svg">
<rect width="491" height="201" transform="translate(0.96875)" fill="white"/>
<path d="M269.031 147.5H491.969V201H269.031V147.5Z" fill="#F3F7FC"/>
<path d="M437.931 174.495C437.931 174.715 437.851 174.915 437.691 175.075L432.491 180.075C432.171 180.375 431.671 180.375 431.351 180.055C431.051 179.735 431.051 179.235 431.371 178.915L435.971 174.495L431.371 170.075C431.051 169.775 431.051 169.255 431.351 168.935C431.651 168.615 432.171 168.615 432.491 168.915L437.691 173.915C437.851 174.075 437.931 174.275 437.931 174.495Z" fill="#1757C2"/>
<path d="M333.477 169.318L336.311 177.611H336.425L339.259 169.318H340.92L337.256 179.5H335.481L331.817 169.318H333.477ZM342.271 179.5V171.864H343.757V179.5H342.271ZM343.021 170.685C342.763 170.685 342.541 170.599 342.355 170.427C342.173 170.251 342.082 170.042 342.082 169.8C342.082 169.555 342.173 169.346 342.355 169.174C342.541 168.998 342.763 168.911 343.021 168.911C343.28 168.911 343.5 168.998 343.683 169.174C343.868 169.346 343.961 169.555 343.961 169.8C343.961 170.042 343.868 170.251 343.683 170.427C343.5 170.599 343.28 170.685 343.021 170.685ZM349.048 179.654C348.296 179.654 347.648 179.493 347.104 179.172C346.564 178.847 346.147 178.391 345.852 177.805C345.56 177.215 345.414 176.524 345.414 175.732C345.414 174.949 345.56 174.26 345.852 173.663C346.147 173.067 346.558 172.601 347.085 172.266C347.615 171.932 348.235 171.764 348.944 171.764C349.375 171.764 349.792 171.835 350.197 171.978C350.601 172.121 350.964 172.344 351.286 172.649C351.607 172.954 351.861 173.35 352.046 173.837C352.232 174.321 352.325 174.91 352.325 175.602V176.129H346.254V175.016H350.868C350.868 174.625 350.788 174.278 350.629 173.977C350.47 173.672 350.246 173.431 349.958 173.256C349.673 173.08 349.338 172.992 348.954 172.992C348.536 172.992 348.172 173.095 347.86 173.3C347.552 173.503 347.313 173.768 347.144 174.096C346.978 174.421 346.896 174.774 346.896 175.155V176.025C346.896 176.535 346.985 176.969 347.164 177.327C347.346 177.685 347.6 177.959 347.925 178.148C348.25 178.333 348.629 178.426 349.063 178.426C349.345 178.426 349.602 178.386 349.834 178.307C350.066 178.224 350.266 178.101 350.435 177.939C350.604 177.777 350.734 177.576 350.823 177.337L352.23 177.591C352.117 178.005 351.915 178.368 351.624 178.68C351.335 178.988 350.972 179.228 350.535 179.401C350.101 179.57 349.605 179.654 349.048 179.654ZM355.616 179.5L353.369 171.864H354.905L356.401 177.472H356.476L357.977 171.864H359.513L361.005 177.447H361.08L362.566 171.864H364.102L361.86 179.5H360.344L358.793 173.987H358.678L357.127 179.5H355.616ZM371.44 179.669C370.956 179.669 370.519 179.58 370.128 179.401C369.737 179.218 369.427 178.955 369.198 178.61C368.973 178.265 368.86 177.843 368.86 177.342C368.86 176.911 368.943 176.557 369.109 176.278C369.274 176 369.498 175.78 369.78 175.617C370.062 175.455 370.376 175.332 370.724 175.249C371.072 175.166 371.427 175.103 371.788 175.06C372.246 175.007 372.617 174.964 372.902 174.931C373.187 174.895 373.394 174.837 373.523 174.757C373.653 174.678 373.717 174.548 373.717 174.369V174.335C373.717 173.9 373.595 173.564 373.349 173.325C373.107 173.087 372.746 172.967 372.266 172.967C371.765 172.967 371.371 173.078 371.082 173.3C370.797 173.519 370.6 173.763 370.491 174.031L369.094 173.713C369.259 173.249 369.501 172.875 369.82 172.589C370.141 172.301 370.511 172.092 370.928 171.963C371.346 171.83 371.785 171.764 372.246 171.764C372.551 171.764 372.874 171.801 373.215 171.874C373.56 171.943 373.881 172.072 374.18 172.261C374.481 172.45 374.728 172.72 374.92 173.072C375.113 173.42 375.209 173.872 375.209 174.429V179.5H373.757V178.456H373.697C373.601 178.648 373.457 178.837 373.265 179.023C373.073 179.208 372.826 179.362 372.524 179.485C372.223 179.608 371.861 179.669 371.44 179.669ZM371.763 178.476C372.174 178.476 372.526 178.395 372.817 178.232C373.112 178.07 373.336 177.858 373.489 177.596C373.644 177.331 373.722 177.047 373.722 176.746V175.761C373.669 175.814 373.567 175.864 373.414 175.911C373.265 175.954 373.094 175.992 372.902 176.025C372.71 176.055 372.522 176.083 372.34 176.109C372.158 176.133 372.005 176.152 371.883 176.169C371.594 176.205 371.331 176.267 371.092 176.353C370.857 176.439 370.668 176.563 370.526 176.726C370.386 176.885 370.317 177.097 370.317 177.362C370.317 177.73 370.453 178.009 370.724 178.197C370.996 178.383 371.343 178.476 371.763 178.476ZM378.675 169.318V179.5H377.189V169.318H378.675ZM382.162 169.318V179.5H380.675V169.318H382.162ZM387.866 179.5V171.864H389.303V173.077H389.383C389.522 172.666 389.767 172.343 390.119 172.107C390.473 171.869 390.874 171.749 391.322 171.749C391.415 171.749 391.524 171.753 391.65 171.759C391.779 171.766 391.88 171.774 391.953 171.784V173.206C391.893 173.189 391.787 173.171 391.635 173.151C391.482 173.128 391.33 173.116 391.178 173.116C390.826 173.116 390.513 173.191 390.238 173.34C389.966 173.486 389.751 173.69 389.592 173.952C389.433 174.21 389.353 174.505 389.353 174.837V179.5H387.866ZM393.24 179.5V171.864H394.726V179.5H393.24ZM393.99 170.685C393.732 170.685 393.51 170.599 393.324 170.427C393.142 170.251 393.051 170.042 393.051 169.8C393.051 169.555 393.142 169.346 393.324 169.174C393.51 168.998 393.732 168.911 393.99 168.911C394.249 168.911 394.469 168.998 394.651 169.174C394.837 169.346 394.93 169.555 394.93 169.8C394.93 170.042 394.837 170.251 394.651 170.427C394.469 170.599 394.249 170.685 393.99 170.685ZM402.448 173.728L401.101 173.967C401.045 173.794 400.955 173.63 400.832 173.474C400.713 173.319 400.551 173.191 400.345 173.092C400.14 172.992 399.883 172.942 399.575 172.942C399.154 172.942 398.802 173.037 398.521 173.226C398.239 173.411 398.098 173.652 398.098 173.947C398.098 174.202 398.192 174.407 398.381 174.563C398.57 174.719 398.875 174.847 399.296 174.946L400.509 175.224C401.212 175.387 401.736 175.637 402.08 175.975C402.425 176.313 402.597 176.752 402.597 177.293C402.597 177.75 402.465 178.158 402.2 178.516C401.938 178.87 401.571 179.149 401.101 179.351C400.634 179.553 400.092 179.654 399.475 179.654C398.62 179.654 397.922 179.472 397.382 179.107C396.842 178.739 396.51 178.217 396.388 177.541L397.825 177.322C397.914 177.697 398.098 177.98 398.376 178.173C398.655 178.362 399.018 178.456 399.465 178.456C399.952 178.456 400.342 178.355 400.634 178.153C400.925 177.947 401.071 177.697 401.071 177.402C401.071 177.163 400.982 176.963 400.803 176.8C400.627 176.638 400.357 176.515 399.992 176.433L398.7 176.149C397.987 175.987 397.46 175.728 397.119 175.374C396.781 175.019 396.612 174.57 396.612 174.026C396.612 173.576 396.737 173.181 396.989 172.843C397.241 172.505 397.589 172.241 398.033 172.053C398.478 171.86 398.986 171.764 399.56 171.764C400.385 171.764 401.035 171.943 401.509 172.301C401.982 172.656 402.296 173.131 402.448 173.728ZM405.599 176.91L405.589 175.095H405.847L408.89 171.864H410.67L407.2 175.543H406.966L405.599 176.91ZM404.232 179.5V169.318H405.718V179.5H404.232ZM409.054 179.5L406.32 175.871L407.344 174.832L410.879 179.5H409.054ZM417.747 173.728L416.4 173.967C416.343 173.794 416.254 173.63 416.131 173.474C416.012 173.319 415.849 173.191 415.644 173.092C415.439 172.992 415.182 172.942 414.873 172.942C414.452 172.942 414.101 173.037 413.819 173.226C413.538 173.411 413.397 173.652 413.397 173.947C413.397 174.202 413.491 174.407 413.68 174.563C413.869 174.719 414.174 174.847 414.595 174.946L415.808 175.224C416.511 175.387 417.034 175.637 417.379 175.975C417.724 176.313 417.896 176.752 417.896 177.293C417.896 177.75 417.764 178.158 417.498 178.516C417.237 178.87 416.87 179.149 416.4 179.351C415.932 179.553 415.39 179.654 414.774 179.654C413.919 179.654 413.221 179.472 412.681 179.107C412.141 178.739 411.809 178.217 411.687 177.541L413.123 177.322C413.213 177.697 413.397 177.98 413.675 178.173C413.954 178.362 414.317 178.456 414.764 178.456C415.251 178.456 415.641 178.355 415.932 178.153C416.224 177.947 416.37 177.697 416.37 177.402C416.37 177.163 416.28 176.963 416.101 176.8C415.926 176.638 415.656 176.515 415.291 176.433L413.998 176.149C413.286 175.987 412.759 175.728 412.417 175.374C412.079 175.019 411.91 174.57 411.91 174.026C411.91 173.576 412.036 173.181 412.288 172.843C412.54 172.505 412.888 172.241 413.332 172.053C413.776 171.86 414.285 171.764 414.858 171.764C415.684 171.764 416.333 171.943 416.807 172.301C417.281 172.656 417.595 173.131 417.747 173.728Z" fill="#1757C2"/>
<path d="M336.107 36.453H334.555C334.496 36.1216 334.385 35.8299 334.222 35.578C334.06 35.3261 333.861 35.1123 333.626 34.9367C333.39 34.761 333.127 34.6284 332.835 34.5389C332.547 34.4494 332.24 34.4047 331.915 34.4047C331.329 34.4047 330.804 34.5522 330.339 34.8472C329.879 35.1421 329.514 35.5747 329.246 36.1448C328.981 36.7148 328.848 37.4109 328.848 38.2328C328.848 39.0614 328.981 39.7608 329.246 40.3308C329.514 40.9009 329.88 41.3318 330.344 41.6234C330.808 41.9151 331.33 42.0609 331.911 42.0609C332.232 42.0609 332.537 42.0179 332.825 41.9317C333.117 41.8422 333.38 41.7113 333.616 41.5389C333.851 41.3666 334.05 41.1561 334.212 40.9075C334.378 40.6556 334.492 40.3673 334.555 40.0425L336.107 40.0475C336.024 40.5479 335.863 41.0086 335.624 41.4296C335.389 41.8472 335.086 42.2084 334.714 42.5134C334.347 42.815 333.926 43.0486 333.452 43.2144C332.978 43.3801 332.461 43.4629 331.901 43.4629C331.019 43.4629 330.233 43.2541 329.544 42.8365C328.855 42.4156 328.311 41.814 327.913 41.0318C327.519 40.2496 327.322 39.3166 327.322 38.2328C327.322 37.1457 327.521 36.2127 327.918 35.4338C328.316 34.6516 328.86 34.0517 329.549 33.6341C330.238 33.2132 331.022 33.0027 331.901 33.0027C332.441 33.0027 332.945 33.0806 333.412 33.2364C333.883 33.3888 334.305 33.6142 334.68 33.9125C335.054 34.2075 335.364 34.5688 335.609 34.9963C335.855 35.4206 336.02 35.9061 336.107 36.453ZM337.825 43.3237V35.6874H339.262V36.9004H339.342C339.481 36.4894 339.726 36.1663 340.078 35.931C340.432 35.6923 340.833 35.573 341.281 35.573C341.374 35.573 341.483 35.5763 341.609 35.583C341.738 35.5896 341.839 35.5979 341.912 35.6078V37.0297C341.852 37.0131 341.746 36.9949 341.594 36.975C341.441 36.9518 341.289 36.9402 341.137 36.9402C340.785 36.9402 340.472 37.0148 340.197 37.1639C339.925 37.3098 339.71 37.5136 339.551 37.7754C339.392 38.034 339.312 38.3289 339.312 38.6604V43.3237H337.825ZM343.199 43.3237V35.6874H344.685V43.3237H343.199ZM343.949 34.5091C343.691 34.5091 343.469 34.4229 343.283 34.2506C343.101 34.0749 343.01 33.8661 343.01 33.6242C343.01 33.3789 343.101 33.1701 343.283 32.9977C343.469 32.8221 343.691 32.7342 343.949 32.7342C344.208 32.7342 344.428 32.8221 344.61 32.9977C344.796 33.1701 344.889 33.3789 344.889 33.6242C344.889 33.8661 344.796 34.0749 344.61 34.2506C344.428 34.4229 344.208 34.5091 343.949 34.5091ZM350.249 35.6874V36.8805H346.078V35.6874H350.249ZM347.197 33.8578H348.683V41.0815C348.683 41.3699 348.727 41.587 348.813 41.7328C348.899 41.8753 349.01 41.9731 349.146 42.0261C349.285 42.0759 349.436 42.1007 349.598 42.1007C349.718 42.1007 349.822 42.0924 349.911 42.0759C350.001 42.0593 350.07 42.046 350.12 42.0361L350.389 43.2641C350.302 43.2972 350.18 43.3304 350.021 43.3635C349.862 43.4 349.663 43.4198 349.424 43.4232C349.033 43.4298 348.669 43.3602 348.33 43.2144C347.992 43.0685 347.719 42.8431 347.51 42.5382C347.301 42.2333 347.197 41.8505 347.197 41.3898V33.8578ZM351.894 43.3237V35.6874H353.38V43.3237H351.894ZM352.645 34.5091C352.386 34.5091 352.164 34.4229 351.978 34.2506C351.796 34.0749 351.705 33.8661 351.705 33.6242C351.705 33.3789 351.796 33.1701 351.978 32.9977C352.164 32.8221 352.386 32.7342 352.645 32.7342C352.903 32.7342 353.123 32.8221 353.306 32.9977C353.491 33.1701 353.584 33.3789 353.584 33.6242C353.584 33.8661 353.491 34.0749 353.306 34.2506C353.123 34.4229 352.903 34.5091 352.645 34.5091ZM358.597 43.4778C357.858 43.4778 357.221 43.3105 356.688 42.9757C356.157 42.6377 355.75 42.172 355.465 41.5787C355.18 40.9854 355.037 40.306 355.037 39.5403C355.037 38.7648 355.183 38.0804 355.475 37.4871C355.766 36.8905 356.177 36.4248 356.708 36.0901C357.238 35.7553 357.863 35.5879 358.582 35.5879C359.162 35.5879 359.679 35.6957 360.133 35.9111C360.587 36.1232 360.953 36.4215 361.232 36.806C361.513 37.1904 361.681 37.6395 361.734 38.1533H360.287C360.208 37.7953 360.025 37.4871 359.74 37.2286C359.459 36.97 359.081 36.8408 358.607 36.8408C358.192 36.8408 357.829 36.9502 357.518 37.1689C357.21 37.3843 356.969 37.6926 356.797 38.0936C356.625 38.4913 356.539 38.962 356.539 39.5055C356.539 40.0624 356.623 40.543 356.792 40.9473C356.961 41.3517 357.2 41.6649 357.508 41.8869C357.82 42.109 358.186 42.22 358.607 42.22C358.888 42.22 359.144 42.1687 359.372 42.0659C359.604 41.9599 359.798 41.8091 359.954 41.6135C360.113 41.418 360.224 41.1826 360.287 40.9075H361.734C361.681 41.4014 361.52 41.8422 361.252 42.23C360.983 42.6178 360.624 42.9227 360.173 43.1448C359.725 43.3668 359.2 43.4778 358.597 43.4778ZM365.546 43.4928C365.062 43.4928 364.624 43.4033 364.233 43.2243C363.842 43.042 363.532 42.7785 363.304 42.4338C363.078 42.0891 362.966 41.6665 362.966 41.1661C362.966 40.7352 363.048 40.3805 363.214 40.1021C363.38 39.8237 363.604 39.6033 363.885 39.4409C364.167 39.2785 364.482 39.1559 364.83 39.073C365.178 38.9902 365.533 38.9272 365.894 38.8841C366.351 38.8311 366.722 38.788 367.007 38.7548C367.292 38.7184 367.5 38.6604 367.629 38.5808C367.758 38.5013 367.823 38.372 367.823 38.193V38.1582C367.823 37.7241 367.7 37.3877 367.455 37.149C367.213 36.9104 366.852 36.7911 366.371 36.7911C365.871 36.7911 365.476 36.9021 365.188 37.1242C364.903 37.3429 364.706 37.5865 364.596 37.855L363.199 37.5368C363.365 37.0728 363.607 36.6983 363.925 36.4132C364.247 36.1249 364.616 35.9161 365.034 35.7868C365.451 35.6542 365.891 35.5879 366.351 35.5879C366.656 35.5879 366.979 35.6244 367.321 35.6973C367.665 35.7669 367.987 35.8962 368.285 36.0851C368.587 36.274 368.834 36.5441 369.026 36.8955C369.218 37.2435 369.314 37.6959 369.314 38.2527V43.3237H367.863V42.2797H367.803C367.707 42.4719 367.563 42.6609 367.37 42.8465C367.178 43.0321 366.931 43.1862 366.63 43.3088C366.328 43.4314 365.967 43.4928 365.546 43.4928ZM365.869 42.2996C366.28 42.2996 366.631 42.2184 366.923 42.056C367.218 41.8936 367.442 41.6814 367.594 41.4196C367.75 41.1545 367.828 40.8711 367.828 40.5695V39.5851C367.775 39.6381 367.672 39.6878 367.52 39.7342C367.37 39.7773 367.2 39.8154 367.007 39.8486C366.815 39.8784 366.628 39.9066 366.446 39.9331C366.263 39.9563 366.111 39.9762 365.988 39.9928C365.7 40.0292 365.436 40.0905 365.198 40.1767C364.962 40.2629 364.774 40.3872 364.631 40.5496C364.492 40.7087 364.422 40.9208 364.422 41.1859C364.422 41.5538 364.558 41.8323 364.83 42.0212C365.102 42.2068 365.448 42.2996 365.869 42.2996ZM372.781 33.1419V43.3237H371.294V33.1419H372.781Z" fill="#131520"/>
<path d="M415.511 43.3237V42.2101L418.956 38.6405C419.324 38.2527 419.627 37.913 419.866 37.6213C420.108 37.3263 420.288 37.0463 420.408 36.7811C420.527 36.516 420.587 36.2342 420.587 35.9359C420.587 35.5979 420.507 35.3062 420.348 35.0609C420.189 34.8124 419.972 34.6218 419.697 34.4892C419.422 34.3533 419.112 34.2854 418.767 34.2854C418.402 34.2854 418.084 34.36 417.812 34.5091C417.541 34.6582 417.332 34.8687 417.186 35.1405C417.04 35.4123 416.967 35.7305 416.967 36.095H415.501C415.501 35.4752 415.643 34.9333 415.928 34.4693C416.213 34.0053 416.604 33.6457 417.102 33.3905C417.599 33.132 418.164 33.0027 418.797 33.0027C419.437 33.0027 420 33.1303 420.487 33.3855C420.978 33.6374 421.361 33.9821 421.636 34.4196C421.911 34.8538 422.048 35.3443 422.048 35.8912C422.048 36.269 421.977 36.6386 421.835 36.9999C421.695 37.3611 421.452 37.7638 421.104 38.208C420.756 38.6488 420.272 39.1841 419.652 39.8138L417.629 41.9317V42.0063H422.212V43.3237H415.511ZM427.822 43.3237V35.6874H429.258V36.9004H429.338C429.477 36.4894 429.722 36.1663 430.074 35.931C430.428 35.6923 430.829 35.573 431.277 35.573C431.37 35.573 431.479 35.5763 431.605 35.583C431.734 35.5896 431.835 35.5979 431.908 35.6078V37.0297C431.849 37.0131 431.742 36.9949 431.59 36.975C431.438 36.9518 431.285 36.9402 431.133 36.9402C430.781 36.9402 430.468 37.0148 430.193 37.1639C429.921 37.3098 429.706 37.5136 429.547 37.7754C429.388 38.034 429.308 38.3289 429.308 38.6604V43.3237H427.822ZM433.195 43.3237V35.6874H434.681V43.3237H433.195ZM433.945 34.5091C433.687 34.5091 433.465 34.4229 433.279 34.2506C433.097 34.0749 433.006 33.8661 433.006 33.6242C433.006 33.3789 433.097 33.1701 433.279 32.9977C433.465 32.8221 433.687 32.7342 433.945 32.7342C434.204 32.7342 434.424 32.8221 434.607 32.9977C434.792 33.1701 434.885 33.3789 434.885 33.6242C434.885 33.8661 434.792 34.0749 434.607 34.2506C434.424 34.4229 434.204 34.5091 433.945 34.5091ZM442.403 37.5517L441.056 37.7903C441 37.618 440.91 37.4539 440.787 37.2982C440.668 37.1424 440.506 37.0148 440.3 36.9153C440.095 36.8159 439.838 36.7662 439.53 36.7662C439.109 36.7662 438.757 36.8607 438.476 37.0496C438.194 37.2352 438.053 37.4755 438.053 37.7705C438.053 38.0257 438.148 38.2312 438.336 38.3869C438.525 38.5427 438.83 38.6703 439.251 38.7698L440.464 39.0482C441.167 39.2106 441.691 39.4608 442.035 39.7989C442.38 40.1369 442.552 40.5761 442.552 41.1163C442.552 41.5737 442.42 41.9814 442.155 42.3394C441.893 42.694 441.527 42.9724 441.056 43.1746C440.589 43.3768 440.047 43.4778 439.43 43.4778C438.575 43.4778 437.877 43.2956 437.337 42.931C436.797 42.5631 436.465 42.0411 436.343 41.3649L437.78 41.1462C437.869 41.5207 438.053 41.8041 438.331 41.9963C438.61 42.1852 438.973 42.2797 439.42 42.2797C439.907 42.2797 440.297 42.1786 440.589 41.9764C440.88 41.7709 441.026 41.5207 441.026 41.2257C441.026 40.9871 440.937 40.7866 440.758 40.6242C440.582 40.4618 440.312 40.3391 439.947 40.2563L438.655 39.9729C437.942 39.8105 437.415 39.552 437.074 39.1973C436.736 38.8427 436.567 38.3936 436.567 37.85C436.567 37.3993 436.693 37.0048 436.944 36.6668C437.196 36.3287 437.544 36.0652 437.988 35.8763C438.433 35.6841 438.941 35.5879 439.515 35.5879C440.34 35.5879 440.99 35.7669 441.464 36.1249C441.938 36.4795 442.251 36.9551 442.403 37.5517ZM445.554 40.7335L445.544 38.9189H445.803L448.845 35.6874H450.625L447.155 39.3663H446.921L445.554 40.7335ZM444.187 43.3237V33.1419H445.673V43.3237H444.187ZM449.009 43.3237L446.275 39.6945L447.299 38.6554L450.834 43.3237H449.009ZM457.702 37.5517L456.355 37.7903C456.298 37.618 456.209 37.4539 456.086 37.2982C455.967 37.1424 455.805 37.0148 455.599 36.9153C455.394 36.8159 455.137 36.7662 454.828 36.7662C454.408 36.7662 454.056 36.8607 453.775 37.0496C453.493 37.2352 453.352 37.4755 453.352 37.7705C453.352 38.0257 453.446 38.2312 453.635 38.3869C453.824 38.5427 454.129 38.6703 454.55 38.7698L455.763 39.0482C456.466 39.2106 456.989 39.4608 457.334 39.7989C457.679 40.1369 457.851 40.5761 457.851 41.1163C457.851 41.5737 457.719 41.9814 457.453 42.3394C457.192 42.694 456.825 42.9724 456.355 43.1746C455.887 43.3768 455.346 43.4778 454.729 43.4778C453.874 43.4778 453.176 43.2956 452.636 42.931C452.096 42.5631 451.764 42.0411 451.642 41.3649L453.078 41.1462C453.168 41.5207 453.352 41.8041 453.63 41.9963C453.909 42.1852 454.272 42.2797 454.719 42.2797C455.206 42.2797 455.596 42.1786 455.887 41.9764C456.179 41.7709 456.325 41.5207 456.325 41.2257C456.325 40.9871 456.235 40.7866 456.056 40.6242C455.881 40.4618 455.611 40.3391 455.246 40.2563L453.953 39.9729C453.241 39.8105 452.714 39.552 452.373 39.1973C452.034 38.8427 451.865 38.3936 451.865 37.85C451.865 37.3993 451.991 37.0048 452.243 36.6668C452.495 36.3287 452.843 36.0652 453.287 35.8763C453.731 35.6841 454.24 35.5879 454.814 35.5879C455.639 35.5879 456.288 35.7669 456.762 36.1249C457.236 36.4795 457.55 36.9551 457.702 37.5517Z" fill="#5D6598"/>
<circle cx="302.531" cy="38.3237" r="12" fill="#E02424"/>
<path d="M297.269 34.1477V37.5797C297.269 37.9437 297.251 38.3017 297.215 38.6537C297.179 39.0017 297.133 39.3717 297.077 39.7637H296.069C296.013 39.3717 295.967 39.0017 295.931 38.6537C295.895 38.3017 295.877 37.9437 295.877 37.5797V34.1477H297.269ZM295.643 42.0077C295.643 41.8837 295.665 41.7657 295.709 41.6537C295.757 41.5417 295.821 41.4457 295.901 41.3657C295.985 41.2857 296.083 41.2217 296.195 41.1737C296.307 41.1257 296.427 41.1017 296.555 41.1017C296.679 41.1017 296.797 41.1257 296.909 41.1737C297.021 41.2217 297.117 41.2857 297.197 41.3657C297.281 41.4457 297.347 41.5417 297.395 41.6537C297.443 41.7657 297.467 41.8837 297.467 42.0077C297.467 42.1357 297.443 42.2557 297.395 42.3677C297.347 42.4757 297.281 42.5697 297.197 42.6497C297.117 42.7297 297.021 42.7917 296.909 42.8357C296.797 42.8837 296.679 42.9077 296.555 42.9077C296.427 42.9077 296.307 42.8837 296.195 42.8357C296.083 42.7917 295.985 42.7297 295.901 42.6497C295.821 42.5697 295.757 42.4757 295.709 42.3677C295.665 42.2557 295.643 42.1357 295.643 42.0077Z" fill="white"/>
<path d="M301.244 34.1477V37.5797C301.244 37.9437 301.226 38.3017 301.19 38.6537C301.154 39.0017 301.108 39.3717 301.052 39.7637H300.044C299.988 39.3717 299.942 39.0017 299.906 38.6537C299.87 38.3017 299.852 37.9437 299.852 37.5797V34.1477H301.244ZM299.618 42.0077C299.618 41.8837 299.64 41.7657 299.684 41.6537C299.732 41.5417 299.796 41.4457 299.876 41.3657C299.96 41.2857 300.058 41.2217 300.17 41.1737C300.282 41.1257 300.402 41.1017 300.53 41.1017C300.654 41.1017 300.772 41.1257 300.884 41.1737C300.996 41.2217 301.092 41.2857 301.172 41.3657C301.256 41.4457 301.322 41.5417 301.37 41.6537C301.418 41.7657 301.442 41.8837 301.442 42.0077C301.442 42.1357 301.418 42.2557 301.37 42.3677C301.322 42.4757 301.256 42.5697 301.172 42.6497C301.092 42.7297 300.996 42.7917 300.884 42.8357C300.772 42.8837 300.654 42.9077 300.53 42.9077C300.402 42.9077 300.282 42.8837 300.17 42.8357C300.058 42.7917 299.96 42.7297 299.876 42.6497C299.796 42.5697 299.732 42.4757 299.684 42.3677C299.64 42.2557 299.618 42.1357 299.618 42.0077Z" fill="white"/>
<path d="M305.219 34.1477V37.5797C305.219 37.9437 305.201 38.3017 305.165 38.6537C305.129 39.0017 305.083 39.3717 305.027 39.7637H304.019C303.963 39.3717 303.917 39.0017 303.881 38.6537C303.845 38.3017 303.827 37.9437 303.827 37.5797V34.1477H305.219ZM303.593 42.0077C303.593 41.8837 303.615 41.7657 303.659 41.6537C303.707 41.5417 303.771 41.4457 303.851 41.3657C303.935 41.2857 304.033 41.2217 304.145 41.1737C304.257 41.1257 304.377 41.1017 304.505 41.1017C304.629 41.1017 304.747 41.1257 304.859 41.1737C304.971 41.2217 305.067 41.2857 305.147 41.3657C305.231 41.4457 305.297 41.5417 305.345 41.6537C305.393 41.7657 305.417 41.8837 305.417 42.0077C305.417 42.1357 305.393 42.2557 305.345 42.3677C305.297 42.4757 305.231 42.5697 305.147 42.6497C305.067 42.7297 304.971 42.7917 304.859 42.8357C304.747 42.8837 304.629 42.9077 304.505 42.9077C304.377 42.9077 304.257 42.8837 304.145 42.8357C304.033 42.7917 303.935 42.7297 303.851 42.6497C303.771 42.5697 303.707 42.4757 303.659 42.3677C303.615 42.2557 303.593 42.1357 303.593 42.0077Z" fill="white"/>
<path d="M309.194 34.1477V37.5797C309.194 37.9437 309.176 38.3017 309.14 38.6537C309.104 39.0017 309.058 39.3717 309.002 39.7637H307.994C307.938 39.3717 307.892 39.0017 307.856 38.6537C307.82 38.3017 307.802 37.9437 307.802 37.5797V34.1477H309.194ZM307.568 42.0077C307.568 41.8837 307.59 41.7657 307.634 41.6537C307.682 41.5417 307.746 41.4457 307.826 41.3657C307.91 41.2857 308.008 41.2217 308.12 41.1737C308.232 41.1257 308.352 41.1017 308.48 41.1017C308.604 41.1017 308.722 41.1257 308.834 41.1737C308.946 41.2217 309.042 41.2857 309.122 41.3657C309.206 41.4457 309.272 41.5417 309.32 41.6537C309.368 41.7657 309.392 41.8837 309.392 42.0077C309.392 42.1357 309.368 42.2557 309.32 42.3677C309.272 42.4757 309.206 42.5697 309.122 42.6497C309.042 42.7297 308.946 42.7917 308.834 42.8357C308.722 42.8837 308.604 42.9077 308.48 42.9077C308.352 42.9077 308.232 42.8837 308.12 42.8357C308.008 42.7917 307.91 42.7297 307.826 42.6497C307.746 42.5697 307.682 42.4757 307.634 42.3677C307.59 42.2557 307.568 42.1357 307.568 42.0077Z" fill="white"/>
<path d="M327.65 65.1419H329.514L332.756 73.0567H332.875L336.116 65.1419H337.981V75.3237H336.519V67.9558H336.425L333.422 75.3088H332.209L329.206 67.9509H329.112V75.3237H327.65V65.1419ZM343.386 75.4778C342.634 75.4778 341.986 75.3171 341.442 74.9956C340.902 74.6708 340.484 74.2151 340.189 73.6284C339.898 73.0385 339.752 72.3474 339.752 71.5553C339.752 70.7731 339.898 70.0837 340.189 69.4871C340.484 68.8905 340.895 68.4248 341.422 68.0901C341.953 67.7553 342.573 67.5879 343.282 67.5879C343.713 67.5879 344.13 67.6592 344.535 67.8017C344.939 67.9442 345.302 68.168 345.623 68.4729C345.945 68.7778 346.198 69.1739 346.384 69.6611C346.57 70.145 346.662 70.7333 346.662 71.426V71.953H340.592V70.8394H345.206C345.206 70.4483 345.126 70.1019 344.967 69.8003C344.808 69.4954 344.584 69.2551 344.296 69.0794C344.011 68.9037 343.676 68.8159 343.292 68.8159C342.874 68.8159 342.51 68.9187 342.198 69.1242C341.89 69.3263 341.651 69.5915 341.482 69.9196C341.316 70.2444 341.233 70.5974 341.233 70.9786V71.8486C341.233 72.359 341.323 72.7932 341.502 73.1511C341.684 73.5091 341.938 73.7825 342.263 73.9715C342.587 74.1571 342.967 74.2499 343.401 74.2499C343.683 74.2499 343.94 74.2101 344.172 74.1305C344.404 74.0477 344.604 73.9251 344.773 73.7627C344.942 73.6002 345.072 73.3997 345.161 73.1611L346.568 73.4146C346.455 73.8289 346.253 74.1919 345.961 74.5034C345.673 74.8117 345.31 75.052 344.873 75.2243C344.439 75.3933 343.943 75.4778 343.386 75.4778ZM351.17 75.4729C350.554 75.4729 350.004 75.3154 349.52 75.0006C349.039 74.6824 348.661 74.23 348.386 73.6433C348.115 73.0534 347.979 72.3457 347.979 71.5205C347.979 70.6952 348.116 69.9892 348.391 69.4026C348.67 68.8159 349.051 68.3668 349.535 68.0553C350.019 67.7437 350.567 67.5879 351.18 67.5879C351.654 67.5879 352.036 67.6675 352.324 67.8266C352.616 67.9823 352.841 68.1646 353 68.3734C353.162 68.5823 353.288 68.7662 353.378 68.9253H353.467V65.1419H354.954V75.3237H353.502V74.1355H353.378C353.288 74.2979 353.159 74.4835 352.99 74.6923C352.824 74.9011 352.596 75.0834 352.304 75.2392C352.012 75.395 351.634 75.4729 351.17 75.4729ZM351.499 74.2051C351.926 74.2051 352.287 74.0924 352.582 73.8671C352.881 73.6384 353.106 73.3218 353.259 72.9175C353.414 72.5131 353.492 72.0425 353.492 71.5055C353.492 70.9752 353.416 70.5112 353.263 70.1135C353.111 69.7158 352.887 69.4059 352.592 69.1838C352.297 68.9618 351.933 68.8507 351.499 68.8507C351.051 68.8507 350.678 68.9667 350.38 69.1987C350.082 69.4307 349.856 69.7473 349.704 70.1483C349.555 70.5493 349.48 71.0018 349.48 71.5055C349.48 72.016 349.556 72.475 349.709 72.8827C349.861 73.2903 350.087 73.6135 350.385 73.8521C350.687 74.0875 351.058 74.2051 351.499 74.2051ZM357.075 75.3237V67.6874H358.562V75.3237H357.075ZM357.826 66.5091C357.568 66.5091 357.346 66.4229 357.16 66.2506C356.978 66.0749 356.887 65.8661 356.887 65.6242C356.887 65.3789 356.978 65.1701 357.16 64.9977C357.346 64.8221 357.568 64.7342 357.826 64.7342C358.085 64.7342 358.305 64.8221 358.487 64.9977C358.673 65.1701 358.766 65.3789 358.766 65.6242C358.766 65.8661 358.673 66.0749 358.487 66.2506C358.305 66.4229 358.085 66.5091 357.826 66.5091ZM365.399 72.1568V67.6874H366.891V75.3237H365.429V74.0013H365.349C365.174 74.409 364.892 74.7487 364.504 75.0205C364.12 75.2889 363.641 75.4232 363.067 75.4232C362.577 75.4232 362.143 75.3154 361.765 75.1C361.39 74.8813 361.095 74.5581 360.88 74.1305C360.668 73.703 360.562 73.1743 360.562 72.5446V67.6874H362.048V72.3656C362.048 72.886 362.192 73.3003 362.481 73.6085C362.769 73.9168 363.144 74.0709 363.604 74.0709C363.883 74.0709 364.16 74.0013 364.435 73.8621C364.713 73.7229 364.943 73.5124 365.126 73.2307C365.311 72.949 365.402 72.591 365.399 72.1568ZM368.888 75.3237V67.6874H370.315V68.9303H370.409C370.568 68.5093 370.829 68.1812 371.19 67.9459C371.551 67.7073 371.984 67.5879 372.487 67.5879C372.998 67.5879 373.425 67.7073 373.77 67.9459C374.118 68.1845 374.375 68.5127 374.541 68.9303H374.62C374.802 68.5226 375.093 68.1978 375.49 67.9558C375.888 67.7106 376.362 67.5879 376.912 67.5879C377.605 67.5879 378.17 67.805 378.607 68.2392C379.048 68.6734 379.269 69.328 379.269 70.203V75.3237H377.782V70.3422C377.782 69.8252 377.641 69.4506 377.36 69.2186C377.078 68.9866 376.741 68.8706 376.35 68.8706C375.866 68.8706 375.49 69.0198 375.222 69.318C374.953 69.613 374.819 69.9925 374.819 70.4565V75.3237H373.338V70.2477C373.338 69.8334 373.208 69.5003 372.95 69.2484C372.691 68.9966 372.355 68.8706 371.941 68.8706C371.659 68.8706 371.399 68.9452 371.16 69.0943C370.925 69.2402 370.734 69.444 370.588 69.7058C370.446 69.9677 370.374 70.2709 370.374 70.6156V75.3237H368.888Z" fill="#131520"/>
<path d="M418.951 75.4629C418.238 75.4629 417.609 75.3403 417.062 75.095C416.518 74.8498 416.092 74.5117 415.784 74.0808C415.476 73.65 415.323 73.1594 415.327 72.6092C415.323 72.1784 415.411 71.7823 415.59 71.421C415.772 71.0564 416.019 70.7532 416.331 70.5112C416.643 70.266 416.991 70.1102 417.375 70.0439V69.9842C416.868 69.8616 416.462 69.5898 416.157 69.1689C415.852 68.748 415.701 68.2641 415.705 67.7172C415.701 67.1968 415.839 66.7328 416.117 66.3252C416.399 65.9142 416.785 65.591 417.276 65.3557C417.766 65.1204 418.325 65.0027 418.951 65.0027C419.571 65.0027 420.124 65.122 420.612 65.3607C421.102 65.596 421.488 65.9191 421.77 66.3301C422.052 66.7378 422.194 67.2002 422.197 67.7172C422.194 68.2641 422.038 68.748 421.73 69.1689C421.422 69.5898 421.021 69.8616 420.527 69.9842V70.0439C420.908 70.1102 421.251 70.266 421.556 70.5112C421.864 70.7532 422.11 71.0564 422.292 71.421C422.478 71.7823 422.572 72.1784 422.575 72.6092C422.572 73.1594 422.416 73.65 422.108 74.0808C421.8 74.5117 421.372 74.8498 420.825 75.095C420.282 75.3403 419.657 75.4629 418.951 75.4629ZM418.951 74.2051C419.372 74.2051 419.737 74.1355 420.045 73.9963C420.353 73.8538 420.592 73.6566 420.761 73.4047C420.93 73.1495 421.016 72.8512 421.019 72.5098C421.016 72.1552 420.923 71.842 420.741 71.5702C420.562 71.2984 420.318 71.0846 420.01 70.9288C419.702 70.7731 419.349 70.6952 418.951 70.6952C418.55 70.6952 418.194 70.7731 417.882 70.9288C417.571 71.0846 417.325 71.2984 417.146 71.5702C416.967 71.842 416.879 72.1552 416.883 72.5098C416.879 72.8512 416.961 73.1495 417.126 73.4047C417.295 73.6566 417.536 73.8538 417.847 73.9963C418.159 74.1355 418.527 74.2051 418.951 74.2051ZM418.951 69.4672C419.289 69.4672 419.589 69.3993 419.851 69.2634C420.113 69.1275 420.318 68.9386 420.467 68.6966C420.62 68.4546 420.698 68.1713 420.701 67.8465C420.698 67.5283 420.621 67.2499 420.472 67.0112C420.326 66.7726 420.123 66.5886 419.861 66.4594C419.599 66.3268 419.296 66.2605 418.951 66.2605C418.6 66.2605 418.291 66.3268 418.026 66.4594C417.764 66.5886 417.561 66.7726 417.415 67.0112C417.269 67.2499 417.198 67.5283 417.201 67.8465C417.198 68.1713 417.271 68.4546 417.42 68.6966C417.569 68.9386 417.774 69.1275 418.036 69.2634C418.301 69.3993 418.606 69.4672 418.951 69.4672ZM428.081 75.3237V67.6874H429.518V68.9004H429.598C429.737 68.4894 429.982 68.1663 430.333 67.931C430.688 67.6923 431.089 67.573 431.537 67.573C431.629 67.573 431.739 67.5763 431.865 67.583C431.994 67.5896 432.095 67.5979 432.168 67.6078V69.0297C432.108 69.0131 432.002 68.9949 431.85 68.975C431.697 68.9518 431.545 68.9402 431.392 68.9402C431.041 68.9402 430.728 69.0148 430.453 69.1639C430.181 69.3098 429.966 69.5136 429.806 69.7754C429.647 70.034 429.568 70.3289 429.568 70.6604V75.3237H428.081ZM433.454 75.3237V67.6874H434.941V75.3237H433.454ZM434.205 66.5091C433.947 66.5091 433.724 66.4229 433.539 66.2506C433.357 66.0749 433.265 65.8661 433.265 65.6242C433.265 65.3789 433.357 65.1701 433.539 64.9977C433.724 64.8221 433.947 64.7342 434.205 64.7342C434.464 64.7342 434.684 64.8221 434.866 64.9977C435.052 65.1701 435.145 65.3789 435.145 65.6242C435.145 65.8661 435.052 66.0749 434.866 66.2506C434.684 66.4229 434.464 66.5091 434.205 66.5091ZM442.663 69.5517L441.316 69.7903C441.259 69.618 441.17 69.4539 441.047 69.2982C440.928 69.1424 440.766 69.0148 440.56 68.9153C440.355 68.8159 440.098 68.7662 439.789 68.7662C439.368 68.7662 439.017 68.8607 438.735 69.0496C438.454 69.2352 438.313 69.4755 438.313 69.7705C438.313 70.0257 438.407 70.2312 438.596 70.3869C438.785 70.5427 439.09 70.6703 439.511 70.7698L440.724 71.0482C441.427 71.2106 441.95 71.4608 442.295 71.7989C442.64 72.1369 442.812 72.5761 442.812 73.1163C442.812 73.5737 442.68 73.9814 442.414 74.3394C442.153 74.694 441.786 74.9724 441.316 75.1746C440.848 75.3768 440.306 75.4778 439.69 75.4778C438.835 75.4778 438.137 75.2956 437.597 74.931C437.057 74.5631 436.725 74.0411 436.603 73.3649L438.039 73.1462C438.129 73.5207 438.313 73.8041 438.591 73.9963C438.87 74.1852 439.233 74.2797 439.68 74.2797C440.167 74.2797 440.557 74.1786 440.848 73.9764C441.14 73.7709 441.286 73.5207 441.286 73.2257C441.286 72.9871 441.196 72.7866 441.017 72.6242C440.842 72.4618 440.572 72.3391 440.207 72.2563L438.914 71.9729C438.202 71.8105 437.675 71.552 437.333 71.1973C436.995 70.8427 436.826 70.3936 436.826 69.85C436.826 69.3993 436.952 69.0048 437.204 68.6668C437.456 68.3287 437.804 68.0652 438.248 67.8763C438.692 67.6841 439.201 67.5879 439.775 67.5879C440.6 67.5879 441.249 67.7669 441.723 68.1249C442.197 68.4795 442.511 68.9551 442.663 69.5517ZM445.814 72.7335L445.804 70.9189H446.062L449.105 67.6874H450.885L447.415 71.3663H447.181L445.814 72.7335ZM444.447 75.3237V65.1419H445.933V75.3237H444.447ZM449.269 75.3237L446.535 71.6945L447.559 70.6554L451.094 75.3237H449.269ZM457.962 69.5517L456.615 69.7903C456.558 69.618 456.469 69.4539 456.346 69.2982C456.227 69.1424 456.064 69.0148 455.859 68.9153C455.653 68.8159 455.396 68.7662 455.088 68.7662C454.667 68.7662 454.316 68.8607 454.034 69.0496C453.753 69.2352 453.612 69.4755 453.612 69.7705C453.612 70.0257 453.706 70.2312 453.895 70.3869C454.084 70.5427 454.389 70.6703 454.81 70.7698L456.023 71.0482C456.726 71.2106 457.249 71.4608 457.594 71.7989C457.939 72.1369 458.111 72.5761 458.111 73.1163C458.111 73.5737 457.978 73.9814 457.713 74.3394C457.451 74.694 457.085 74.9724 456.615 75.1746C456.147 75.3768 455.605 75.4778 454.989 75.4778C454.134 75.4778 453.436 75.2956 452.896 74.931C452.356 74.5631 452.024 74.0411 451.901 73.3649L453.338 73.1462C453.428 73.5207 453.612 73.8041 453.89 73.9963C454.169 74.1852 454.531 74.2797 454.979 74.2797C455.466 74.2797 455.856 74.1786 456.147 73.9764C456.439 73.7709 456.585 73.5207 456.585 73.2257C456.585 72.9871 456.495 72.7866 456.316 72.6242C456.141 72.4618 455.87 72.3391 455.506 72.2563L454.213 71.9729C453.501 71.8105 452.974 71.552 452.632 71.1973C452.294 70.8427 452.125 70.3936 452.125 69.85C452.125 69.3993 452.251 69.0048 452.503 68.6668C452.755 68.3287 453.103 68.0652 453.547 67.8763C453.991 67.6841 454.5 67.5879 455.073 67.5879C455.899 67.5879 456.548 67.7669 457.022 68.1249C457.496 68.4795 457.809 68.9551 457.962 69.5517Z" fill="#5D6598"/>
<circle cx="302.531" cy="70.3237" r="12" fill="#FF9901"/>
<path d="M301.244 66.1477V69.5797C301.244 69.9437 301.226 70.3017 301.19 70.6537C301.154 71.0017 301.108 71.3717 301.052 71.7637H300.044C299.988 71.3717 299.942 71.0017 299.906 70.6537C299.87 70.3017 299.852 69.9437 299.852 69.5797V66.1477H301.244ZM299.618 74.0077C299.618 73.8837 299.64 73.7657 299.684 73.6537C299.732 73.5417 299.796 73.4457 299.876 73.3657C299.96 73.2857 300.058 73.2217 300.17 73.1737C300.282 73.1257 300.402 73.1017 300.53 73.1017C300.654 73.1017 300.772 73.1257 300.884 73.1737C300.996 73.2217 301.092 73.2857 301.172 73.3657C301.256 73.4457 301.322 73.5417 301.37 73.6537C301.418 73.7657 301.442 73.8837 301.442 74.0077C301.442 74.1357 301.418 74.2557 301.37 74.3677C301.322 74.4757 301.256 74.5697 301.172 74.6497C301.092 74.7297 300.996 74.7917 300.884 74.8357C300.772 74.8837 300.654 74.9077 300.53 74.9077C300.402 74.9077 300.282 74.8837 300.17 74.8357C300.058 74.7917 299.96 74.7297 299.876 74.6497C299.796 74.5697 299.732 74.4757 299.684 74.3677C299.64 74.2557 299.618 74.1357 299.618 74.0077Z" fill="white"/>
<path d="M305.219 66.1477V69.5797C305.219 69.9437 305.201 70.3017 305.165 70.6537C305.129 71.0017 305.083 71.3717 305.027 71.7637H304.019C303.963 71.3717 303.917 71.0017 303.881 70.6537C303.845 70.3017 303.827 69.9437 303.827 69.5797V66.1477H305.219ZM303.593 74.0077C303.593 73.8837 303.615 73.7657 303.659 73.6537C303.707 73.5417 303.771 73.4457 303.851 73.3657C303.935 73.2857 304.033 73.2217 304.145 73.1737C304.257 73.1257 304.377 73.1017 304.505 73.1017C304.629 73.1017 304.747 73.1257 304.859 73.1737C304.971 73.2217 305.067 73.2857 305.147 73.3657C305.231 73.4457 305.297 73.5417 305.345 73.6537C305.393 73.7657 305.417 73.8837 305.417 74.0077C305.417 74.1357 305.393 74.2557 305.345 74.3677C305.297 74.4757 305.231 74.5697 305.147 74.6497C305.067 74.7297 304.971 74.7917 304.859 74.8357C304.747 74.8837 304.629 74.9077 304.505 74.9077C304.377 74.9077 304.257 74.8837 304.145 74.8357C304.033 74.7917 303.935 74.7297 303.851 74.6497C303.771 74.5697 303.707 74.4757 303.659 74.3677C303.615 74.2557 303.593 74.1357 303.593 74.0077Z" fill="white"/>
<path d="M327.65 107.324V97.1419H329.186V106.001H333.8V107.324H327.65ZM338.65 107.478C337.934 107.478 337.309 107.314 336.775 106.986C336.242 106.658 335.827 106.198 335.532 105.609C335.237 105.019 335.09 104.329 335.09 103.54C335.09 102.748 335.237 102.056 335.532 101.462C335.827 100.869 336.242 100.408 336.775 100.08C337.309 99.752 337.934 99.5879 338.65 99.5879C339.365 99.5879 339.99 99.752 340.524 100.08C341.057 100.408 341.472 100.869 341.767 101.462C342.062 102.056 342.209 102.748 342.209 103.54C342.209 104.329 342.062 105.019 341.767 105.609C341.472 106.198 341.057 106.658 340.524 106.986C339.99 107.314 339.365 107.478 338.65 107.478ZM338.654 106.23C339.118 106.23 339.503 106.107 339.808 105.862C340.113 105.617 340.338 105.29 340.484 104.883C340.633 104.475 340.708 104.026 340.708 103.535C340.708 103.048 340.633 102.601 340.484 102.193C340.338 101.782 340.113 101.452 339.808 101.204C339.503 100.955 339.118 100.831 338.654 100.831C338.187 100.831 337.799 100.955 337.491 101.204C337.186 101.452 336.959 101.782 336.81 102.193C336.664 102.601 336.591 103.048 336.591 103.535C336.591 104.026 336.664 104.475 336.81 104.883C336.959 105.29 337.186 105.617 337.491 105.862C337.799 106.107 338.187 106.23 338.654 106.23ZM345.292 107.324L343.044 99.6874H344.581L346.077 105.295H346.152L347.653 99.6874H349.189L350.681 105.27H350.755L352.242 99.6874H353.778L351.536 107.324H350.02L348.468 101.81H348.354L346.803 107.324H345.292Z" fill="#131520"/>
<path d="M419.374 97.1419V107.324H417.832V98.6831H417.773L415.337 100.274V98.8024L417.877 97.1419H419.374ZM422.128 107.324V106.21L425.573 102.64C425.941 102.253 426.244 101.913 426.483 101.621C426.725 101.326 426.906 101.046 427.025 100.781C427.144 100.516 427.204 100.234 427.204 99.9359C427.204 99.5979 427.124 99.3062 426.965 99.0609C426.806 98.8124 426.589 98.6218 426.314 98.4892C426.039 98.3533 425.729 98.2854 425.384 98.2854C425.02 98.2854 424.701 98.36 424.43 98.5091C424.158 98.6582 423.949 98.8687 423.803 99.1405C423.657 99.4123 423.585 99.7305 423.585 100.095H422.118C422.118 99.4752 422.26 98.9333 422.545 98.4693C422.83 98.0053 423.222 97.6457 423.719 97.3905C424.216 97.132 424.781 97.0027 425.414 97.0027C426.054 97.0027 426.617 97.1303 427.104 97.3855C427.595 97.6374 427.978 97.9821 428.253 98.4196C428.528 98.8538 428.665 99.3443 428.665 99.8912C428.665 100.269 428.594 100.639 428.452 101C428.313 101.361 428.069 101.764 427.721 102.208C427.373 102.649 426.889 103.184 426.269 103.814L424.246 105.932V106.006H428.83V107.324H422.128ZM434.439 107.324V99.6874H435.876V100.9H435.955C436.094 100.489 436.34 100.166 436.691 99.931C437.046 99.6923 437.447 99.573 437.894 99.573C437.987 99.573 438.096 99.5763 438.222 99.583C438.351 99.5896 438.452 99.5979 438.525 99.6078V101.03C438.466 101.013 438.36 100.995 438.207 100.975C438.055 100.952 437.902 100.94 437.75 100.94C437.398 100.94 437.085 101.015 436.81 101.164C436.538 101.31 436.323 101.514 436.164 101.775C436.005 102.034 435.925 102.329 435.925 102.66V107.324H434.439ZM439.812 107.324V99.6874H441.298V107.324H439.812ZM440.562 98.5091C440.304 98.5091 440.082 98.4229 439.896 98.2506C439.714 98.0749 439.623 97.8661 439.623 97.6242C439.623 97.3789 439.714 97.1701 439.896 96.9977C440.082 96.8221 440.304 96.7342 440.562 96.7342C440.821 96.7342 441.041 96.8221 441.224 96.9977C441.409 97.1701 441.502 97.3789 441.502 97.6242C441.502 97.8661 441.409 98.0749 441.224 98.2506C441.041 98.4229 440.821 98.5091 440.562 98.5091ZM449.02 101.552L447.673 101.79C447.617 101.618 447.527 101.454 447.405 101.298C447.285 101.142 447.123 101.015 446.917 100.915C446.712 100.816 446.455 100.766 446.147 100.766C445.726 100.766 445.375 100.861 445.093 101.05C444.811 101.235 444.67 101.475 444.67 101.77C444.67 102.026 444.765 102.231 444.954 102.387C445.143 102.543 445.448 102.67 445.868 102.77L447.081 103.048C447.784 103.211 448.308 103.461 448.653 103.799C448.997 104.137 449.17 104.576 449.17 105.116C449.17 105.574 449.037 105.981 448.772 106.339C448.51 106.694 448.144 106.972 447.673 107.175C447.206 107.377 446.664 107.478 446.047 107.478C445.192 107.478 444.495 107.296 443.954 106.931C443.414 106.563 443.083 106.041 442.96 105.365L444.397 105.146C444.486 105.521 444.67 105.804 444.949 105.996C445.227 106.185 445.59 106.28 446.037 106.28C446.525 106.28 446.914 106.179 447.206 105.976C447.497 105.771 447.643 105.521 447.643 105.226C447.643 104.987 447.554 104.787 447.375 104.624C447.199 104.462 446.929 104.339 446.564 104.256L445.272 103.973C444.559 103.81 444.032 103.552 443.691 103.197C443.353 102.843 443.184 102.394 443.184 101.85C443.184 101.399 443.31 101.005 443.562 100.667C443.814 100.329 444.162 100.065 444.606 99.8763C445.05 99.6841 445.559 99.5879 446.132 99.5879C446.957 99.5879 447.607 99.7669 448.081 100.125C448.555 100.48 448.868 100.955 449.02 101.552ZM452.171 104.734L452.161 102.919H452.42L455.462 99.6874H457.242L453.772 103.366H453.538L452.171 104.734ZM450.804 107.324V97.1419H452.29V107.324H450.804ZM455.626 107.324L452.892 103.694L453.916 102.655L457.451 107.324H455.626ZM464.319 101.552L462.972 101.79C462.916 101.618 462.826 101.454 462.703 101.298C462.584 101.142 462.422 101.015 462.216 100.915C462.011 100.816 461.754 100.766 461.446 100.766C461.025 100.766 460.673 100.861 460.392 101.05C460.11 101.235 459.969 101.475 459.969 101.77C459.969 102.026 460.064 102.231 460.252 102.387C460.441 102.543 460.746 102.67 461.167 102.77L462.38 103.048C463.083 103.211 463.607 103.461 463.951 103.799C464.296 104.137 464.468 104.576 464.468 105.116C464.468 105.574 464.336 105.981 464.071 106.339C463.809 106.694 463.443 106.972 462.972 107.175C462.505 107.377 461.963 107.478 461.346 107.478C460.491 107.478 459.793 107.296 459.253 106.931C458.713 106.563 458.382 106.041 458.259 105.365L459.696 105.146C459.785 105.521 459.969 105.804 460.248 105.996C460.526 106.185 460.889 106.28 461.336 106.28C461.824 106.28 462.213 106.179 462.505 105.976C462.796 105.771 462.942 105.521 462.942 105.226C462.942 104.987 462.853 104.787 462.674 104.624C462.498 104.462 462.228 104.339 461.863 104.256L460.571 103.973C459.858 103.81 459.331 103.552 458.99 103.197C458.652 102.843 458.483 102.394 458.483 101.85C458.483 101.399 458.609 101.005 458.86 100.667C459.112 100.329 459.46 100.065 459.904 99.8763C460.349 99.6841 460.857 99.5879 461.431 99.5879C462.256 99.5879 462.906 99.7669 463.38 100.125C463.854 100.48 464.167 100.955 464.319 101.552Z" fill="#5D6598"/>
<circle cx="302.531" cy="102.324" r="12" fill="#FDC106"/>
<path d="M303.232 98.1477V101.58C303.232 101.944 303.214 102.302 303.178 102.654C303.142 103.002 303.096 103.372 303.04 103.764H302.032C301.976 103.372 301.93 103.002 301.894 102.654C301.858 102.302 301.84 101.944 301.84 101.58V98.1477H303.232ZM301.606 106.008C301.606 105.884 301.628 105.766 301.672 105.654C301.72 105.542 301.784 105.446 301.864 105.366C301.948 105.286 302.046 105.222 302.158 105.174C302.27 105.126 302.39 105.102 302.518 105.102C302.642 105.102 302.76 105.126 302.872 105.174C302.984 105.222 303.08 105.286 303.16 105.366C303.244 105.446 303.31 105.542 303.358 105.654C303.406 105.766 303.43 105.884 303.43 106.008C303.43 106.136 303.406 106.256 303.358 106.368C303.31 106.476 303.244 106.57 303.16 106.65C303.08 106.73 302.984 106.792 302.872 106.836C302.76 106.884 302.642 106.908 302.518 106.908C302.39 106.908 302.27 106.884 302.158 106.836C302.046 106.792 301.948 106.73 301.864 106.65C301.784 106.57 301.72 106.476 301.672 106.368C301.628 106.256 301.606 106.136 301.606 106.008Z" fill="white"/>
<path d="M26.3097 39.5081V27.8717H30.4574C31.3627 27.8717 32.1127 28.0365 32.7074 28.366C33.3021 28.6956 33.7472 29.1463 34.0426 29.7183C34.3381 30.2865 34.4858 30.9266 34.4858 31.6387C34.4858 32.3546 34.3362 32.9986 34.0369 33.5706C33.7415 34.1387 33.2945 34.5895 32.696 34.9228C32.1013 35.2524 31.3532 35.4171 30.4517 35.4171H27.5994V33.9285H30.2926C30.8646 33.9285 31.3286 33.83 31.6847 33.6331C32.0407 33.4323 32.3021 33.1596 32.4688 32.8149C32.6354 32.4702 32.7188 32.0781 32.7188 31.6387C32.7188 31.1993 32.6354 30.8092 32.4688 30.4683C32.3021 30.1274 32.0388 29.8603 31.679 29.6671C31.3229 29.474 30.8532 29.3774 30.2699 29.3774H28.0653V39.5081H26.3097ZM36.4077 39.5081V30.7808H38.1065V39.5081H36.4077ZM37.2656 29.4342C36.9702 29.4342 36.7164 29.3357 36.5043 29.1387C36.2959 28.938 36.1918 28.6993 36.1918 28.4228C36.1918 28.1425 36.2959 27.9039 36.5043 27.7069C36.7164 27.5062 36.9702 27.4058 37.2656 27.4058C37.5611 27.4058 37.813 27.5062 38.0213 27.7069C38.2334 27.9039 38.3395 28.1425 38.3395 28.4228C38.3395 28.6993 38.2334 28.938 38.0213 29.1387C37.813 29.3357 37.5611 29.4342 37.2656 29.4342ZM44.1534 39.6842C43.2936 39.6842 42.553 39.5005 41.9318 39.1331C41.3144 38.7618 40.8371 38.241 40.5 37.5706C40.1667 36.8963 40 36.1065 40 35.2012C40 34.3073 40.1667 33.5194 40.5 32.8376C40.8371 32.1558 41.3068 31.6236 41.9091 31.241C42.5152 30.8584 43.2235 30.6671 44.0341 30.6671C44.5265 30.6671 45.0038 30.7486 45.4659 30.9115C45.928 31.0743 46.3428 31.33 46.7102 31.6785C47.0777 32.027 47.3674 32.4796 47.5795 33.0365C47.7917 33.5895 47.8977 34.2618 47.8977 35.0535V35.6558H40.9602V34.3831H46.233C46.233 33.9361 46.142 33.5403 45.9602 33.1956C45.7784 32.8471 45.5227 32.5725 45.1932 32.3717C44.8674 32.1709 44.4848 32.0706 44.0455 32.0706C43.5682 32.0706 43.1515 32.188 42.7955 32.4228C42.4432 32.6539 42.1705 32.9569 41.9773 33.3319C41.7879 33.7031 41.6932 34.1065 41.6932 34.5421V35.5365C41.6932 36.1198 41.7955 36.616 42 37.0251C42.2083 37.4342 42.4981 37.7467 42.8693 37.9626C43.2405 38.1747 43.6742 38.2808 44.1705 38.2808C44.4924 38.2808 44.786 38.2353 45.0511 38.1444C45.3163 38.0497 45.5455 37.9096 45.7386 37.724C45.9318 37.5384 46.0795 37.3092 46.1818 37.0365L47.7898 37.3262C47.661 37.7997 47.4299 38.2145 47.0966 38.5706C46.767 38.9228 46.3523 39.1975 45.8523 39.3944C45.3561 39.5876 44.7898 39.6842 44.1534 39.6842ZM53.0497 39.6785C52.3452 39.6785 51.7164 39.4986 51.1634 39.1387C50.6141 38.7751 50.1823 38.2581 49.8679 37.5876C49.5573 36.9134 49.402 36.1046 49.402 35.1615C49.402 34.2183 49.5592 33.4115 49.8736 32.741C50.1918 32.0706 50.6274 31.5573 51.1804 31.2012C51.7334 30.8452 52.3603 30.6671 53.0611 30.6671C53.6027 30.6671 54.0384 30.7581 54.3679 30.9399C54.7012 31.1179 54.9588 31.3262 55.1406 31.5649C55.3262 31.8035 55.4702 32.0137 55.5724 32.1956H55.6747V27.8717H57.3736V39.5081H55.7145V38.1501H55.5724C55.4702 38.3357 55.3224 38.5478 55.1293 38.7865C54.9399 39.0251 54.6785 39.2334 54.3452 39.4115C54.0118 39.5895 53.58 39.6785 53.0497 39.6785ZM53.4247 38.2296C53.9134 38.2296 54.3262 38.1009 54.6634 37.8433C55.0043 37.5819 55.2618 37.2202 55.4361 36.7581C55.6141 36.2959 55.7031 35.7581 55.7031 35.1444C55.7031 34.5384 55.616 34.0081 55.4418 33.5535C55.2675 33.099 55.0118 32.7448 54.6747 32.491C54.3376 32.2372 53.9209 32.1103 53.4247 32.1103C52.9134 32.1103 52.4872 32.2429 52.1463 32.5081C51.8054 32.7732 51.5478 33.135 51.3736 33.5933C51.2031 34.0516 51.1179 34.5687 51.1179 35.1444C51.1179 35.7278 51.205 36.2524 51.3793 36.7183C51.5535 37.1842 51.8111 37.5535 52.152 37.8262C52.4967 38.0952 52.9209 38.2296 53.4247 38.2296ZM64.169 39.5081V27.8717H68.3168C69.2221 27.8717 69.9721 28.0365 70.5668 28.366C71.1615 28.6956 71.6065 29.1463 71.902 29.7183C72.1974 30.2865 72.3452 30.9266 72.3452 31.6387C72.3452 32.3546 72.1955 32.9986 71.8963 33.5706C71.6009 34.1387 71.1539 34.5895 70.5554 34.9228C69.9607 35.2524 69.2126 35.4171 68.3111 35.4171H65.4588V33.9285H68.152C68.724 33.9285 69.188 33.83 69.544 33.6331C69.9001 33.4323 70.1615 33.1596 70.3281 32.8149C70.4948 32.4702 70.5781 32.0781 70.5781 31.6387C70.5781 31.1993 70.4948 30.8092 70.3281 30.4683C70.1615 30.1274 69.8982 29.8603 69.5384 29.6671C69.1823 29.474 68.7126 29.3774 68.1293 29.3774H65.9247V39.5081H64.169ZM74.267 39.5081V30.7808H75.9659V39.5081H74.267ZM75.125 29.4342C74.8295 29.4342 74.5758 29.3357 74.3636 29.1387C74.1553 28.938 74.0511 28.6993 74.0511 28.4228C74.0511 28.1425 74.1553 27.9039 74.3636 27.7069C74.5758 27.5062 74.8295 27.4058 75.125 27.4058C75.4205 27.4058 75.6723 27.5062 75.8807 27.7069C76.0928 27.9039 76.1989 28.1425 76.1989 28.4228C76.1989 28.6993 76.0928 28.938 75.8807 29.1387C75.6723 29.3357 75.4205 29.4342 75.125 29.4342ZM78.2514 42.7808V30.7808H79.9105V32.1956H80.0526C80.151 32.0137 80.2931 31.8035 80.4787 31.5649C80.6643 31.3262 80.9219 31.1179 81.2514 30.9399C81.581 30.7581 82.0166 30.6671 82.5582 30.6671C83.2628 30.6671 83.8916 30.8452 84.4446 31.2012C84.9976 31.5573 85.4313 32.0706 85.7457 32.741C86.0639 33.4115 86.223 34.2183 86.223 35.1615C86.223 36.1046 86.0658 36.9134 85.7514 37.5876C85.437 38.2581 85.0052 38.7751 84.456 39.1387C83.9067 39.4986 83.2798 39.6785 82.5753 39.6785C82.045 39.6785 81.6113 39.5895 81.2741 39.4115C80.9408 39.2334 80.6795 39.0251 80.4901 38.7865C80.3007 38.5478 80.1548 38.3357 80.0526 38.1501H79.9503V42.7808H78.2514ZM79.9162 35.1444C79.9162 35.7581 80.0052 36.2959 80.1832 36.7581C80.3613 37.2202 80.6188 37.5819 80.956 37.8433C81.2931 38.1009 81.706 38.2296 82.1946 38.2296C82.7022 38.2296 83.1264 38.0952 83.4673 37.8262C83.8082 37.5535 84.0658 37.1842 84.2401 36.7183C84.4181 36.2524 84.5071 35.7278 84.5071 35.1444C84.5071 34.5687 84.42 34.0516 84.2457 33.5933C84.0753 33.135 83.8177 32.7732 83.473 32.5081C83.1321 32.2429 82.706 32.1103 82.1946 32.1103C81.7022 32.1103 81.2855 32.2372 80.9446 32.491C80.6075 32.7448 80.3518 33.099 80.1776 33.5535C80.0033 34.0081 79.9162 34.5384 79.9162 35.1444ZM91.8878 39.6842C91.0279 39.6842 90.2874 39.5005 89.6662 39.1331C89.0488 38.7618 88.5715 38.241 88.2344 37.5706C87.901 36.8963 87.7344 36.1065 87.7344 35.2012C87.7344 34.3073 87.901 33.5194 88.2344 32.8376C88.5715 32.1558 89.0412 31.6236 89.6435 31.241C90.2495 30.8584 90.9579 30.6671 91.7685 30.6671C92.2609 30.6671 92.7382 30.7486 93.2003 30.9115C93.6624 31.0743 94.0772 31.33 94.4446 31.6785C94.812 32.027 95.1018 32.4796 95.3139 33.0365C95.526 33.5895 95.6321 34.2618 95.6321 35.0535V35.6558H88.6946V34.3831H93.9673C93.9673 33.9361 93.8764 33.5403 93.6946 33.1956C93.5128 32.8471 93.2571 32.5725 92.9276 32.3717C92.6018 32.1709 92.2192 32.0706 91.7798 32.0706C91.3026 32.0706 90.8859 32.188 90.5298 32.4228C90.1776 32.6539 89.9048 32.9569 89.7116 33.3319C89.5223 33.7031 89.4276 34.1065 89.4276 34.5421V35.5365C89.4276 36.1198 89.5298 36.616 89.7344 37.0251C89.9427 37.4342 90.2325 37.7467 90.6037 37.9626C90.9749 38.1747 91.4086 38.2808 91.9048 38.2808C92.2268 38.2808 92.5204 38.2353 92.7855 38.1444C93.0507 38.0497 93.2798 37.9096 93.473 37.724C93.6662 37.5384 93.8139 37.3092 93.9162 37.0365L95.5241 37.3262C95.3954 37.7997 95.1643 38.2145 94.831 38.5706C94.5014 38.9228 94.0866 39.1975 93.5866 39.3944C93.0904 39.5876 92.5241 39.6842 91.8878 39.6842ZM97.517 39.5081V30.7808H99.1591V32.1671H99.25C99.4091 31.6975 99.6894 31.3281 100.091 31.0592C100.496 30.7865 100.955 30.6501 101.466 30.6501C101.572 30.6501 101.697 30.6539 101.841 30.6615C101.989 30.669 102.104 30.6785 102.188 30.6899V32.3149C102.119 32.2959 101.998 32.2751 101.824 32.2524C101.65 32.2259 101.475 32.2126 101.301 32.2126C100.9 32.2126 100.542 32.2978 100.227 32.4683C99.9167 32.635 99.6705 32.8679 99.4886 33.1671C99.3068 33.4626 99.2159 33.7997 99.2159 34.1785V39.5081H97.517Z" fill="#131520"/>
<rect x="167.887" y="23.5081" width="87.6311" height="17.6311" rx="8.81553" fill="#E8EEF9"/>
<path d="M177.332 37.1268V30.5151H178.246V31.2946H178.324C178.379 31.1945 178.457 31.0786 178.559 30.9471C178.661 30.8157 178.803 30.7009 178.985 30.6028C179.166 30.5026 179.406 30.4525 179.705 30.4525C180.093 30.4525 180.44 30.5506 180.744 30.7468C181.049 30.943 181.288 31.2258 181.461 31.5952C181.636 31.9646 181.724 32.4091 181.724 32.9288C181.724 33.4484 181.637 33.894 181.464 34.2655C181.291 34.6349 181.053 34.9198 180.751 35.1201C180.448 35.3184 180.102 35.4175 179.714 35.4175C179.422 35.4175 179.183 35.3685 178.997 35.2704C178.814 35.1723 178.67 35.0575 178.565 34.926C178.461 34.7946 178.381 34.6777 178.324 34.5754H178.268V37.1268H177.332ZM178.249 32.9194C178.249 33.2575 178.298 33.5538 178.396 33.8084C178.494 34.0631 178.636 34.2624 178.822 34.4064C179.008 34.5483 179.235 34.6192 179.505 34.6192C179.784 34.6192 180.018 34.5452 180.206 34.397C180.394 34.2467 180.536 34.0432 180.632 33.7865C180.73 33.5298 180.779 33.2408 180.779 32.9194C180.779 32.6021 180.731 32.3173 180.635 32.0647C180.541 31.8122 180.399 31.6129 180.209 31.4668C180.021 31.3207 179.786 31.2477 179.505 31.2477C179.233 31.2477 179.004 31.3176 178.816 31.4574C178.63 31.5973 178.489 31.7924 178.393 32.0428C178.297 32.2933 178.249 32.5854 178.249 32.9194ZM183.507 35.3236V30.5151H184.443V35.3236H183.507ZM183.98 29.7732C183.817 29.7732 183.678 29.7189 183.561 29.6104C183.446 29.4998 183.388 29.3683 183.388 29.216C183.388 29.0615 183.446 28.93 183.561 28.8215C183.678 28.7109 183.817 28.6556 183.98 28.6556C184.143 28.6556 184.282 28.7109 184.397 28.8215C184.513 28.93 184.572 29.0615 184.572 29.216C184.572 29.3683 184.513 29.4998 184.397 29.6104C184.282 29.7189 184.143 29.7732 183.98 29.7732ZM188.51 35.4207C188.036 35.4207 187.628 35.3194 187.286 35.117C186.946 34.9125 186.683 34.6255 186.497 34.2561C186.313 33.8846 186.221 33.4495 186.221 32.9507C186.221 32.4581 186.313 32.024 186.497 31.6484C186.683 31.2727 186.941 30.9795 187.273 30.7687C187.607 30.5579 187.997 30.4525 188.444 30.4525C188.715 30.4525 188.978 30.4974 189.233 30.5871C189.488 30.6769 189.716 30.8178 189.918 31.0098C190.121 31.2018 190.281 31.4512 190.397 31.758C190.514 32.0627 190.573 32.4331 190.573 32.8693V33.2011H186.75V32.4999H189.656C189.656 32.2536 189.605 32.0355 189.505 31.8456C189.405 31.6536 189.264 31.5023 189.083 31.3917C188.903 31.2811 188.692 31.2258 188.45 31.2258C188.187 31.2258 187.958 31.2905 187.762 31.4199C187.567 31.5472 187.417 31.7141 187.311 31.9207C187.206 32.1253 187.154 32.3475 187.154 32.5875V33.1354C187.154 33.4568 187.211 33.7302 187.323 33.9556C187.438 34.181 187.598 34.3531 187.802 34.4721C188.007 34.589 188.246 34.6474 188.519 34.6474C188.697 34.6474 188.858 34.6224 189.004 34.5723C189.15 34.5201 189.277 34.4429 189.383 34.3406C189.49 34.2384 189.571 34.1121 189.627 33.9618L190.513 34.1215C190.442 34.3824 190.315 34.6109 190.131 34.8071C189.95 35.0012 189.721 35.1525 189.446 35.261C189.172 35.3674 188.86 35.4207 188.51 35.4207ZM194.146 35.4175C193.758 35.4175 193.411 35.3184 193.107 35.1201C192.804 34.9198 192.566 34.6349 192.393 34.2655C192.222 33.894 192.136 33.4484 192.136 32.9288C192.136 32.4091 192.223 31.9646 192.396 31.5952C192.571 31.2258 192.811 30.943 193.116 30.7468C193.421 30.5506 193.766 30.4525 194.152 30.4525C194.451 30.4525 194.691 30.5026 194.872 30.6028C195.056 30.7009 195.198 30.8157 195.298 30.9471C195.4 31.0786 195.48 31.1945 195.536 31.2946H195.592V28.9123H196.528V35.3236H195.614V34.5754H195.536C195.48 34.6777 195.398 34.7946 195.292 34.926C195.187 35.0575 195.043 35.1723 194.86 35.2704C194.676 35.3685 194.438 35.4175 194.146 35.4175ZM194.353 34.6192C194.622 34.6192 194.849 34.5483 195.035 34.4064C195.223 34.2624 195.365 34.0631 195.461 33.8084C195.559 33.5538 195.608 33.2575 195.608 32.9194C195.608 32.5854 195.56 32.2933 195.464 32.0428C195.368 31.7924 195.227 31.5973 195.041 31.4574C194.856 31.3176 194.626 31.2477 194.353 31.2477C194.071 31.2477 193.836 31.3207 193.648 31.4668C193.46 31.6129 193.318 31.8122 193.222 32.0647C193.129 32.3173 193.082 32.6021 193.082 32.9194C193.082 33.2408 193.13 33.5298 193.226 33.7865C193.322 34.0432 193.464 34.2467 193.651 34.397C193.841 34.5452 194.075 34.6192 194.353 34.6192ZM198.599 37.1268V30.5151H199.513V31.2946H199.591C199.646 31.1945 199.724 31.0786 199.826 30.9471C199.928 30.8157 200.07 30.7009 200.252 30.6028C200.433 30.5026 200.673 30.4525 200.972 30.4525C201.36 30.4525 201.706 30.5506 202.011 30.7468C202.316 30.943 202.555 31.2258 202.728 31.5952C202.903 31.9646 202.991 32.4091 202.991 32.9288C202.991 33.4484 202.904 33.894 202.731 34.2655C202.558 34.6349 202.32 34.9198 202.017 35.1201C201.715 35.3184 201.369 35.4175 200.981 35.4175C200.689 35.4175 200.45 35.3685 200.264 35.2704C200.081 35.1723 199.937 35.0575 199.832 34.926C199.728 34.7946 199.648 34.6777 199.591 34.5754H199.535V37.1268H198.599ZM199.516 32.9194C199.516 33.2575 199.565 33.5538 199.663 33.8084C199.761 34.0631 199.903 34.2624 200.089 34.4064C200.275 34.5483 200.502 34.6192 200.771 34.6192C201.051 34.6192 201.285 34.5452 201.473 34.397C201.661 34.2467 201.802 34.0432 201.898 33.7865C201.997 33.5298 202.046 33.2408 202.046 32.9194C202.046 32.6021 201.998 32.3173 201.902 32.0647C201.808 31.8122 201.666 31.6129 201.476 31.4668C201.288 31.3207 201.053 31.2477 200.771 31.2477C200.5 31.2477 200.271 31.3176 200.083 31.4574C199.897 31.5973 199.756 31.7924 199.66 32.0428C199.564 32.2933 199.516 32.5854 199.516 32.9194ZM204.774 35.3236V30.5151H205.71V35.3236H204.774ZM205.247 29.7732C205.084 29.7732 204.944 29.7189 204.828 29.6104C204.713 29.4998 204.655 29.3683 204.655 29.216C204.655 29.0615 204.713 28.93 204.828 28.8215C204.944 28.7109 205.084 28.6556 205.247 28.6556C205.41 28.6556 205.549 28.7109 205.663 28.8215C205.78 28.93 205.839 29.0615 205.839 29.216C205.839 29.3683 205.78 29.4998 205.663 29.6104C205.549 29.7189 205.41 29.7732 205.247 29.7732ZM207.704 37.1268V30.5151H208.618V31.2946H208.697C208.751 31.1945 208.829 31.0786 208.931 30.9471C209.034 30.8157 209.176 30.7009 209.357 30.6028C209.539 30.5026 209.779 30.4525 210.077 30.4525C210.465 30.4525 210.812 30.5506 211.117 30.7468C211.421 30.943 211.66 31.2258 211.833 31.5952C212.009 31.9646 212.096 32.4091 212.096 32.9288C212.096 33.4484 212.01 33.894 211.837 34.2655C211.663 34.6349 211.425 34.9198 211.123 35.1201C210.82 35.3184 210.475 35.4175 210.087 35.4175C209.794 35.4175 209.555 35.3685 209.37 35.2704C209.186 35.1723 209.042 35.0575 208.938 34.926C208.833 34.7946 208.753 34.6777 208.697 34.5754H208.64V37.1268H207.704ZM208.622 32.9194C208.622 33.2575 208.671 33.5538 208.769 33.8084C208.867 34.0631 209.009 34.2624 209.194 34.4064C209.38 34.5483 209.608 34.6192 209.877 34.6192C210.157 34.6192 210.39 34.5452 210.578 34.397C210.766 34.2467 210.908 34.0432 211.004 33.7865C211.102 33.5298 211.151 33.2408 211.151 32.9194C211.151 32.6021 211.103 32.3173 211.007 32.0647C210.913 31.8122 210.771 31.6129 210.581 31.4668C210.393 31.3207 210.159 31.2477 209.877 31.2477C209.606 31.2477 209.376 31.3176 209.188 31.4574C209.002 31.5973 208.862 31.7924 208.766 32.0428C208.67 32.2933 208.622 32.5854 208.622 32.9194ZM215.952 35.4207C215.478 35.4207 215.07 35.3194 214.728 35.117C214.388 34.9125 214.125 34.6255 213.939 34.2561C213.756 33.8846 213.664 33.4495 213.664 32.9507C213.664 32.4581 213.756 32.024 213.939 31.6484C214.125 31.2727 214.384 30.9795 214.716 30.7687C215.049 30.5579 215.44 30.4525 215.886 30.4525C216.158 30.4525 216.421 30.4974 216.675 30.5871C216.93 30.6769 217.158 30.8178 217.361 31.0098C217.563 31.2018 217.723 31.4512 217.84 31.758C217.957 32.0627 218.015 32.4331 218.015 32.8693V33.2011H214.193V32.4999H217.098C217.098 32.2536 217.048 32.0355 216.948 31.8456C216.847 31.6536 216.707 31.5023 216.525 31.3917C216.346 31.2811 216.135 31.2258 215.893 31.2258C215.63 31.2258 215.4 31.2905 215.204 31.4199C215.01 31.5472 214.86 31.7141 214.753 31.9207C214.649 32.1253 214.597 32.3475 214.597 32.5875V33.1354C214.597 33.4568 214.653 33.7302 214.766 33.9556C214.88 34.181 215.04 34.3531 215.245 34.4721C215.449 34.589 215.688 34.6474 215.962 34.6474C216.139 34.6474 216.301 34.6224 216.447 34.5723C216.593 34.5201 216.719 34.4429 216.826 34.3406C216.932 34.2384 217.013 34.1121 217.07 33.9618L217.956 34.1215C217.885 34.3824 217.757 34.6109 217.574 34.8071C217.392 35.0012 217.164 35.1525 216.888 35.261C216.615 35.3674 216.303 35.4207 215.952 35.4207ZM219.788 35.3236V30.5151H220.693V31.279H220.743C220.831 31.0202 220.985 30.8167 221.206 30.6685C221.43 30.5183 221.682 30.4431 221.964 30.4431C222.022 30.4431 222.091 30.4452 222.171 30.4494C222.252 30.4536 222.316 30.4588 222.362 30.465V31.3604C222.324 31.3499 222.257 31.3385 222.161 31.3259C222.065 31.3113 221.969 31.304 221.873 31.304C221.652 31.304 221.455 31.351 221.282 31.4449C221.11 31.5367 220.975 31.6651 220.875 31.83C220.774 31.9927 220.724 32.1785 220.724 32.3872V35.3236H219.788ZM223.972 35.3831C223.801 35.3831 223.654 35.3226 223.531 35.2015C223.407 35.0784 223.346 34.9302 223.346 34.757C223.346 34.5858 223.407 34.4398 223.531 34.3187C223.654 34.1956 223.801 34.134 223.972 34.134C224.143 34.134 224.29 34.1956 224.413 34.3187C224.537 34.4398 224.598 34.5858 224.598 34.757C224.598 34.8718 224.569 34.9772 224.51 35.0732C224.454 35.1671 224.379 35.2422 224.285 35.2986C224.191 35.3549 224.087 35.3831 223.972 35.3831ZM228.612 35.4207C228.147 35.4207 227.746 35.3153 227.41 35.1045C227.076 34.8916 226.819 34.5984 226.64 34.2248C226.46 33.8512 226.37 33.4234 226.37 32.9413C226.37 32.4529 226.462 32.022 226.646 31.6484C226.83 31.2727 227.088 30.9795 227.422 30.7687C227.756 30.5579 228.15 30.4525 228.603 30.4525C228.968 30.4525 229.293 30.5204 229.579 30.656C229.865 30.7896 230.096 30.9774 230.271 31.2195C230.449 31.4616 230.554 31.7444 230.587 32.0679H229.676C229.626 31.8425 229.511 31.6484 229.332 31.4856C229.155 31.3228 228.917 31.2414 228.618 31.2414C228.357 31.2414 228.129 31.3103 227.933 31.448C227.739 31.5837 227.587 31.7778 227.479 32.0303C227.37 32.2807 227.316 32.5771 227.316 32.9194C227.316 33.27 227.369 33.5726 227.476 33.8272C227.582 34.0818 227.732 34.2791 227.926 34.4189C228.123 34.5587 228.353 34.6286 228.618 34.6286C228.796 34.6286 228.956 34.5963 229.1 34.5316C229.246 34.4648 229.368 34.3698 229.467 34.2467C229.567 34.1236 229.637 33.9754 229.676 33.8022H230.587C230.554 34.1131 230.453 34.3907 230.284 34.6349C230.115 34.8791 229.888 35.0711 229.604 35.2109C229.323 35.3507 228.992 35.4207 228.612 35.4207ZM234.348 35.4207C233.898 35.4207 233.504 35.3173 233.168 35.1107C232.832 34.9041 232.571 34.6151 232.386 34.2436C232.2 33.8721 232.107 33.438 232.107 32.9413C232.107 32.4425 232.2 32.0063 232.386 31.6327C232.571 31.2592 232.832 30.9691 233.168 30.7624C233.504 30.5558 233.898 30.4525 234.348 30.4525C234.799 30.4525 235.193 30.5558 235.529 30.7624C235.865 30.9691 236.125 31.2592 236.311 31.6327C236.497 32.0063 236.59 32.4425 236.59 32.9413C236.59 33.438 236.497 33.8721 236.311 34.2436C236.125 34.6151 235.865 34.9041 235.529 35.1107C235.193 35.3173 234.799 35.4207 234.348 35.4207ZM234.351 34.6349C234.644 34.6349 234.886 34.5577 235.078 34.4032C235.27 34.2488 235.412 34.0432 235.504 33.7865C235.597 33.5298 235.644 33.247 235.644 32.9382C235.644 32.6314 235.597 32.3496 235.504 32.0929C235.412 31.8341 235.27 31.6265 235.078 31.4699C234.886 31.3134 234.644 31.2352 234.351 31.2352C234.057 31.2352 233.813 31.3134 233.619 31.4699C233.427 31.6265 233.284 31.8341 233.19 32.0929C233.098 32.3496 233.052 32.6314 233.052 32.9382C233.052 33.247 233.098 33.5298 233.19 33.7865C233.284 34.0432 233.427 34.2488 233.619 34.4032C233.813 34.5577 234.057 34.6349 234.351 34.6349ZM238.369 35.3236V30.5151H239.268V31.2978H239.327C239.427 31.0327 239.591 30.8261 239.819 30.6779C240.046 30.5277 240.319 30.4525 240.636 30.4525C240.957 30.4525 241.226 30.5277 241.443 30.6779C241.663 30.8282 241.824 31.0348 241.929 31.2978H241.979C242.094 31.0411 242.276 30.8365 242.527 30.6842C242.777 30.5297 243.075 30.4525 243.422 30.4525C243.858 30.4525 244.214 30.5892 244.489 30.8626C244.767 31.136 244.906 31.5482 244.906 32.0992V35.3236H243.97V32.1868C243.97 31.8613 243.881 31.6254 243.704 31.4793C243.526 31.3332 243.314 31.2602 243.068 31.2602C242.763 31.2602 242.527 31.3541 242.358 31.5419C242.188 31.7277 242.104 31.9667 242.104 32.2588V35.3236H241.171V32.1274C241.171 31.8665 241.09 31.6567 240.927 31.4981C240.764 31.3395 240.552 31.2602 240.291 31.2602C240.114 31.2602 239.95 31.3072 239.8 31.4011C239.652 31.4929 239.532 31.6213 239.44 31.7861C239.35 31.951 239.305 32.142 239.305 32.359V35.3236H238.369Z" fill="#1757C2"/>
<path d="M155.801 114.644L152.702 126.158H151.688L154.787 114.644H155.801ZM163.877 114.963C164.271 114.967 164.666 115.042 165.06 115.189C165.455 115.336 165.815 115.58 166.14 115.921C166.466 116.26 166.727 116.721 166.924 117.307C167.122 117.892 167.22 118.626 167.22 119.509C167.22 120.364 167.139 121.123 166.976 121.786C166.816 122.447 166.585 123.004 166.281 123.458C165.981 123.912 165.614 124.256 165.182 124.491C164.753 124.726 164.268 124.843 163.727 124.843C163.188 124.843 162.708 124.737 162.285 124.524C161.866 124.308 161.521 124.009 161.252 123.627C160.986 123.242 160.815 122.796 160.74 122.289H161.886C161.989 122.73 162.194 123.095 162.501 123.383C162.811 123.668 163.22 123.81 163.727 123.81C164.469 123.81 165.054 123.486 165.483 122.838C165.915 122.19 166.131 121.275 166.131 120.091H166.056C165.88 120.354 165.672 120.581 165.431 120.772C165.19 120.963 164.923 121.11 164.628 121.214C164.334 121.317 164.021 121.369 163.689 121.369C163.138 121.369 162.633 121.232 162.172 120.96C161.715 120.685 161.349 120.307 161.074 119.828C160.801 119.346 160.665 118.795 160.665 118.175C160.665 117.587 160.796 117.048 161.059 116.56C161.326 116.069 161.698 115.677 162.177 115.386C162.659 115.095 163.226 114.954 163.877 114.963ZM163.877 115.997C163.482 115.997 163.127 116.095 162.811 116.292C162.498 116.486 162.249 116.749 162.064 117.081C161.883 117.41 161.792 117.775 161.792 118.175C161.792 118.576 161.88 118.941 162.055 119.27C162.233 119.595 162.476 119.855 162.783 120.049C163.093 120.24 163.445 120.335 163.839 120.335C164.137 120.335 164.414 120.278 164.671 120.162C164.927 120.043 165.151 119.882 165.342 119.678C165.536 119.471 165.688 119.238 165.797 118.978C165.907 118.715 165.962 118.441 165.962 118.157C165.962 117.781 165.871 117.429 165.689 117.1C165.511 116.771 165.264 116.505 164.948 116.302C164.635 116.098 164.278 115.997 163.877 115.997ZM172.072 124.843C171.521 124.843 171.025 124.734 170.584 124.515C170.142 124.296 169.789 123.995 169.522 123.613C169.256 123.231 169.111 122.796 169.086 122.308H170.213C170.257 122.743 170.454 123.103 170.804 123.388C171.158 123.669 171.581 123.81 172.072 123.81C172.467 123.81 172.817 123.718 173.124 123.533C173.434 123.349 173.677 123.095 173.852 122.773C174.03 122.447 174.12 122.079 174.12 121.669C174.12 121.25 174.027 120.875 173.843 120.547C173.661 120.215 173.411 119.954 173.091 119.763C172.772 119.572 172.407 119.475 171.997 119.471C171.703 119.468 171.401 119.514 171.091 119.608C170.781 119.698 170.526 119.816 170.325 119.96L169.236 119.828L169.818 115.095H174.815V116.128H170.795L170.457 118.964H170.513C170.71 118.808 170.958 118.678 171.255 118.575C171.553 118.471 171.862 118.42 172.185 118.42C172.773 118.42 173.298 118.56 173.758 118.842C174.221 119.121 174.584 119.503 174.847 119.988C175.114 120.473 175.247 121.027 175.247 121.65C175.247 122.264 175.109 122.812 174.833 123.294C174.561 123.773 174.185 124.152 173.706 124.43C173.227 124.706 172.683 124.843 172.072 124.843ZM180.249 124.843C179.541 124.843 178.939 124.651 178.441 124.266C177.943 123.878 177.563 123.316 177.3 122.58C177.037 121.841 176.905 120.949 176.905 119.903C176.905 118.864 177.037 117.977 177.3 117.241C177.566 116.502 177.948 115.939 178.446 115.55C178.946 115.159 179.547 114.963 180.249 114.963C180.95 114.963 181.549 115.159 182.047 115.55C182.548 115.939 182.93 116.502 183.193 117.241C183.459 117.977 183.592 118.864 183.592 119.903C183.592 120.949 183.461 121.841 183.198 122.58C182.935 123.316 182.554 123.878 182.057 124.266C181.559 124.651 180.956 124.843 180.249 124.843ZM180.249 123.81C180.95 123.81 181.495 123.472 181.883 122.796C182.271 122.12 182.465 121.156 182.465 119.903C182.465 119.071 182.376 118.362 182.197 117.776C182.022 117.191 181.769 116.745 181.437 116.438C181.108 116.131 180.712 115.978 180.249 115.978C179.554 115.978 179.011 116.321 178.619 117.006C178.228 117.689 178.032 118.654 178.032 119.903C178.032 120.736 178.12 121.444 178.295 122.026C178.471 122.608 178.723 123.051 179.051 123.355C179.383 123.658 179.782 123.81 180.249 123.81Z" fill="#5D6598"/>
<path d="M60.2934 109.977C60.2934 119.715 52.3998 127.608 42.6624 127.608C32.925 127.608 25.0313 119.715 25.0313 109.977C25.0313 100.24 32.925 92.3463 42.6624 92.3463C52.3998 92.3463 60.2934 100.24 60.2934 109.977Z" fill="#F4FBF7"/>
<path fill-rule="evenodd" clip-rule="evenodd" d="M42.6624 93.081C33.3307 93.081 25.7659 100.646 25.7659 109.977C25.7659 119.309 33.3307 126.874 42.6624 126.874C51.994 126.874 59.5588 119.309 59.5588 109.977C59.5588 100.646 51.994 93.081 42.6624 93.081ZM24.2967 109.977C24.2967 99.8343 32.5193 91.6117 42.6624 91.6117C52.8055 91.6117 61.0281 99.8343 61.0281 109.977C61.0281 120.12 52.8055 128.343 42.6624 128.343C32.5193 128.343 24.2967 120.12 24.2967 109.977Z" fill="#20AF5D"/>
<path d="M45.3549 111.544L43.088 105.67C43.0208 105.496 42.9503 105.294 42.8764 105.066C42.8025 104.831 42.732 104.582 42.6649 104.32C42.5238 104.864 42.3794 105.318 42.2316 105.68L39.9648 111.544H45.3549ZM49.4251 116.904H47.9139C47.7392 116.904 47.5982 116.86 47.4907 116.773C47.3833 116.686 47.3027 116.575 47.2489 116.44L45.8989 112.955H39.4207L38.0707 116.44C38.0304 116.561 37.9532 116.669 37.839 116.763C37.7248 116.857 37.5838 116.904 37.4158 116.904H35.9046L41.6775 102.467H43.6522L49.4251 116.904Z" fill="#20AF5D"/>
<path d="M84.6368 125.409C82.6305 125.409 80.8579 125.054 79.3191 124.343C77.79 123.622 76.5969 122.633 75.7399 121.377C74.8828 120.111 74.4591 118.669 74.4689 117.053C74.4591 115.787 74.7075 114.618 75.2139 113.546C75.7204 112.465 76.4119 111.565 77.2884 110.844C78.1747 110.113 79.1633 109.651 80.2541 109.456V109.281C78.8224 108.911 77.6829 108.107 76.8355 106.87C75.9882 105.623 75.5694 104.206 75.5792 102.619C75.5694 101.1 75.9541 99.7409 76.7333 98.543C77.5124 97.345 78.5838 96.4003 79.9473 95.7088C81.3205 95.0173 82.8837 94.6716 84.6368 94.6716C86.3704 94.6716 87.919 95.0173 89.2825 95.7088C90.646 96.4003 91.7173 97.345 92.4965 98.543C93.2854 99.7409 93.6847 101.1 93.6944 102.619C93.6847 104.206 93.2513 105.623 92.3942 106.87C91.5469 108.107 90.422 108.911 89.0195 109.281V109.456C90.1006 109.651 91.0745 110.113 91.9413 110.844C92.8081 111.565 93.4996 112.465 94.0158 113.546C94.532 114.618 94.795 115.787 94.8047 117.053C94.795 118.669 94.3567 120.111 93.4899 121.377C92.6328 122.633 91.4397 123.622 89.9107 124.343C88.3913 125.054 86.6334 125.409 84.6368 125.409ZM84.6368 122.195C85.9906 122.195 87.1593 121.976 88.143 121.538C89.1266 121.099 89.8863 120.481 90.422 119.682C90.9576 118.884 91.2304 117.949 91.2401 116.877C91.2304 115.748 90.9382 114.749 90.3635 113.882C89.7889 113.016 89.0049 112.334 88.0115 111.837C87.0278 111.341 85.9029 111.092 84.6368 111.092C83.3609 111.092 82.2214 111.341 81.2183 111.837C80.2248 112.334 79.4408 113.016 78.8662 113.882C78.3013 114.749 78.0237 115.748 78.0335 116.877C78.0237 117.949 78.2818 118.884 78.8078 119.682C79.3434 120.481 80.108 121.099 81.1014 121.538C82.0948 121.976 83.2733 122.195 84.6368 122.195ZM84.6368 107.995C85.7081 107.995 86.6577 107.781 87.4856 107.352C88.3231 106.924 88.9806 106.325 89.4578 105.555C89.935 104.786 90.1785 103.885 90.1882 102.853C90.1785 101.84 89.9399 100.958 89.4724 100.208C89.0049 99.4487 88.3572 98.8644 87.5294 98.4553C86.7015 98.0365 85.7373 97.8271 84.6368 97.8271C83.5168 97.8271 82.5379 98.0365 81.7004 98.4553C80.8628 98.8644 80.2151 99.4487 79.7574 100.208C79.2996 100.958 79.0756 101.84 79.0853 102.853C79.0756 103.885 79.3045 104.786 79.772 105.555C80.2492 106.325 80.9066 106.924 81.7442 107.352C82.5818 107.781 83.546 107.995 84.6368 107.995ZM109.753 125.409C108.039 125.409 106.496 125.068 105.122 124.386C103.749 123.705 102.649 122.77 101.821 121.581C100.993 120.393 100.54 119.039 100.462 117.52H103.968C104.105 118.874 104.718 119.994 105.809 120.88C106.91 121.757 108.224 122.195 109.753 122.195C110.981 122.195 112.071 121.908 113.026 121.333C113.99 120.758 114.745 119.97 115.29 118.966C115.845 117.954 116.123 116.809 116.123 115.533C116.123 114.228 115.836 113.064 115.261 112.042C114.696 111.009 113.917 110.196 112.924 109.602C111.93 109.008 110.796 108.706 109.52 108.696C108.604 108.687 107.664 108.828 106.7 109.12C105.736 109.402 104.942 109.768 104.319 110.216L100.93 109.807L102.741 95.0806H118.285V98.2946H105.78L104.728 107.118H104.903C105.517 106.632 106.286 106.227 107.211 105.906C108.137 105.585 109.101 105.424 110.104 105.424C111.935 105.424 113.566 105.862 114.998 106.739C116.44 107.605 117.569 108.794 118.387 110.303C119.215 111.813 119.629 113.537 119.629 115.475C119.629 117.384 119.201 119.088 118.344 120.588C117.496 122.078 116.328 123.257 114.837 124.123C113.347 124.981 111.653 125.409 109.753 125.409ZM135.191 125.409C132.99 125.409 131.116 124.81 129.567 123.612C128.018 122.404 126.835 120.656 126.017 118.367C125.199 116.069 124.79 113.293 124.79 110.04C124.79 106.807 125.199 104.046 126.017 101.757C126.845 99.4585 128.033 97.7054 129.582 96.4977C131.14 95.2803 133.01 94.6716 135.191 94.6716C137.373 94.6716 139.238 95.2803 140.787 96.4977C142.345 97.7054 143.533 99.4585 144.351 101.757C145.179 104.046 145.593 106.807 145.593 110.04C145.593 113.293 145.184 116.069 144.366 118.367C143.548 120.656 142.365 122.404 140.816 123.612C139.267 124.81 137.393 125.409 135.191 125.409ZM135.191 122.195C137.373 122.195 139.068 121.143 140.275 119.039C141.483 116.936 142.087 113.936 142.087 110.04C142.087 107.45 141.809 105.244 141.254 103.422C140.709 101.601 139.92 100.213 138.888 99.2588C137.865 98.3043 136.633 97.8271 135.191 97.8271C133.029 97.8271 131.34 98.8936 130.122 101.027C128.905 103.15 128.296 106.154 128.296 110.04C128.296 112.631 128.569 114.832 129.114 116.644C129.66 118.455 130.444 119.833 131.466 120.778C132.499 121.723 133.74 122.195 135.191 122.195Z" fill="#20AF5D"/>
<path d="M32.8364 151.136C32.8364 152.068 32.6659 152.869 32.325 153.54C31.9841 154.207 31.5168 154.722 30.9231 155.082C30.3321 155.44 29.6603 155.619 28.9074 155.619C28.1517 155.619 27.477 155.44 26.8833 155.082C26.2924 154.722 25.8265 154.206 25.4856 153.536C25.1446 152.865 24.9742 152.065 24.9742 151.136C24.9742 150.205 25.1446 149.405 25.4856 148.737C25.8265 148.067 26.2924 147.553 26.8833 147.195C27.477 146.834 28.1517 146.653 28.9074 146.653C29.6603 146.653 30.3321 146.834 30.9231 147.195C31.5168 147.553 31.9841 148.067 32.325 148.737C32.6659 149.405 32.8364 150.205 32.8364 151.136ZM31.5324 151.136C31.5324 150.426 31.4174 149.828 31.1873 149.342C30.96 148.854 30.6475 148.484 30.2498 148.234C29.8549 147.982 29.4074 147.855 28.9074 147.855C28.4046 147.855 27.9557 147.982 27.5608 148.234C27.1659 148.484 26.8534 148.854 26.6233 149.342C26.3961 149.828 26.2824 150.426 26.2824 151.136C26.2824 151.847 26.3961 152.446 26.6233 152.935C26.8534 153.42 27.1659 153.79 27.5608 154.043C27.9557 154.293 28.4046 154.418 28.9074 154.418C29.4074 154.418 29.8549 154.293 30.2498 154.043C30.6475 153.79 30.96 153.42 31.1873 152.935C31.4174 152.446 31.5324 151.847 31.5324 151.136ZM39.9753 148.955L37.6017 155.5H36.238L33.8602 148.955H35.2281L36.8858 153.991H36.9539L38.6074 148.955H39.9753ZM43.7711 155.632C43.1262 155.632 42.5708 155.494 42.1049 155.219C41.6418 154.94 41.2838 154.55 41.031 154.047C40.781 153.541 40.656 152.949 40.656 152.27C40.656 151.599 40.781 151.009 41.031 150.497C41.2838 149.986 41.6361 149.587 42.0878 149.3C42.5424 149.013 43.0736 148.869 43.6816 148.869C44.0509 148.869 44.4088 148.93 44.7554 149.053C45.102 149.175 45.4131 149.366 45.6887 149.628C45.9642 149.889 46.1816 150.229 46.3407 150.646C46.4998 151.061 46.5793 151.565 46.5793 152.159V152.611H41.3762V151.656H45.3307C45.3307 151.321 45.2625 151.024 45.1262 150.766C44.9898 150.504 44.7981 150.298 44.5509 150.148C44.3066 149.997 44.0196 149.922 43.6901 149.922C43.3321 149.922 43.0196 150.01 42.7526 150.186C42.4884 150.359 42.2838 150.587 42.139 150.868C41.9969 151.146 41.9259 151.449 41.9259 151.776V152.521C41.9259 152.959 42.0026 153.331 42.156 153.638C42.3123 153.945 42.5296 154.179 42.808 154.341C43.0864 154.5 43.4117 154.58 43.7838 154.58C44.0253 154.58 44.2455 154.545 44.4444 154.477C44.6432 154.406 44.8151 154.301 44.96 154.162C45.1049 154.023 45.2157 153.851 45.2924 153.646L46.4983 153.864C46.4017 154.219 46.2284 154.53 45.9784 154.797C45.7313 155.061 45.4202 155.267 45.0452 155.415C44.6731 155.56 44.2483 155.632 43.7711 155.632ZM47.993 155.5V148.955H49.2245V149.994H49.2927C49.412 149.642 49.6223 149.365 49.9234 149.163C50.2274 148.959 50.5711 148.857 50.9547 148.857C51.0342 148.857 51.128 148.859 51.2359 148.865C51.3467 148.871 51.4333 148.878 51.4958 148.886V150.105C51.4447 150.091 51.3538 150.075 51.2231 150.058C51.0924 150.038 50.9618 150.028 50.8311 150.028C50.5299 150.028 50.2615 150.092 50.0257 150.22C49.7927 150.345 49.6081 150.52 49.4717 150.744C49.3353 150.966 49.2672 151.219 49.2672 151.503V155.5H47.993ZM54.4447 155.645C54.0299 155.645 53.6549 155.568 53.3197 155.415C52.9845 155.259 52.7189 155.033 52.5228 154.737C52.3297 154.442 52.2331 154.08 52.2331 153.651C52.2331 153.281 52.3041 152.977 52.4461 152.739C52.5882 152.5 52.7799 152.311 53.0214 152.172C53.2629 152.033 53.5328 151.928 53.8311 151.857C54.1294 151.786 54.4333 151.732 54.743 151.695C55.1351 151.649 55.4532 151.612 55.6976 151.584C55.9419 151.553 56.1194 151.503 56.2302 151.435C56.341 151.366 56.3964 151.256 56.3964 151.102V151.072C56.3964 150.7 56.2913 150.412 56.0811 150.207C55.8737 150.003 55.564 149.901 55.1521 149.901C54.7231 149.901 54.3851 149.996 54.1379 150.186C53.8936 150.374 53.7245 150.582 53.6308 150.812L52.4333 150.54C52.5754 150.142 52.7828 149.821 53.0555 149.577C53.3311 149.33 53.6478 149.151 54.0058 149.04C54.3637 148.926 54.7402 148.869 55.1351 148.869C55.3964 148.869 55.6734 148.901 55.966 148.963C56.2615 149.023 56.537 149.134 56.7927 149.295C57.0512 149.457 57.2629 149.689 57.4277 149.99C57.5924 150.288 57.6748 150.676 57.6748 151.153V155.5H56.4305V154.605H56.3794C56.297 154.77 56.1734 154.932 56.0086 155.091C55.8439 155.25 55.6322 155.382 55.3737 155.487C55.1152 155.592 54.8055 155.645 54.4447 155.645ZM54.7217 154.622C55.074 154.622 55.3751 154.553 55.6251 154.413C55.878 154.274 56.0697 154.092 56.2004 153.868C56.3339 153.641 56.4007 153.398 56.4007 153.139V152.295C56.3552 152.341 56.2672 152.384 56.1365 152.423C56.0086 152.46 55.8623 152.493 55.6976 152.521C55.5328 152.547 55.3723 152.571 55.216 152.594C55.0598 152.614 54.9291 152.631 54.824 152.645C54.5768 152.676 54.351 152.729 54.1464 152.803C53.9447 152.876 53.7828 152.983 53.6606 153.122C53.5413 153.259 53.4816 153.44 53.4816 153.668C53.4816 153.983 53.5981 154.222 53.8311 154.384C54.064 154.543 54.3609 154.622 54.7217 154.622ZM60.6461 146.773V155.5H59.3719V146.773H60.6461ZM63.6343 146.773V155.5H62.3602V146.773H63.6343ZM73.3865 149.065C73.341 148.662 73.1535 148.349 72.824 148.128C72.4944 147.903 72.0797 147.791 71.5797 147.791C71.2217 147.791 70.912 147.848 70.6507 147.962C70.3893 148.072 70.1862 148.226 70.0413 148.422C69.8993 148.615 69.8282 148.835 69.8282 149.082C69.8282 149.29 69.8765 149.469 69.9731 149.619C70.0726 149.77 70.2018 149.896 70.3609 149.999C70.5228 150.098 70.6961 150.182 70.8808 150.25C71.0655 150.315 71.243 150.369 71.4135 150.412L72.2657 150.634C72.5441 150.702 72.8297 150.794 73.1223 150.911C73.4149 151.027 73.6862 151.18 73.9362 151.371C74.1862 151.561 74.3879 151.797 74.5413 152.078C74.6976 152.359 74.7757 152.696 74.7757 153.088C74.7757 153.582 74.6478 154.021 74.3922 154.405C74.1393 154.788 73.7714 155.091 73.2885 155.312C72.8083 155.534 72.2274 155.645 71.5456 155.645C70.8922 155.645 70.3268 155.541 69.8495 155.334C69.3723 155.126 68.9987 154.832 68.7288 154.452C68.4589 154.068 68.3098 153.614 68.2814 153.088H69.6024C69.628 153.403 69.7302 153.666 69.9092 153.876C70.091 154.084 70.3226 154.239 70.6038 154.341C70.8879 154.44 71.199 154.49 71.537 154.49C71.9092 154.49 72.2402 154.432 72.5299 154.315C72.8226 154.196 73.0527 154.031 73.2203 153.821C73.3879 153.608 73.4717 153.359 73.4717 153.075C73.4717 152.817 73.3978 152.605 73.2501 152.44C73.1052 152.276 72.9078 152.139 72.6578 152.031C72.4106 151.923 72.1308 151.828 71.8183 151.746L70.787 151.464C70.0882 151.274 69.5342 150.994 69.1251 150.625C68.7189 150.256 68.5157 149.767 68.5157 149.159C68.5157 148.656 68.6521 148.217 68.9248 147.842C69.1976 147.467 69.5669 147.176 70.0328 146.969C70.4987 146.759 71.0243 146.653 71.6095 146.653C72.2004 146.653 72.7217 146.757 73.1734 146.964C73.628 147.172 73.9859 147.457 74.2473 147.821C74.5086 148.182 74.645 148.597 74.6564 149.065H73.3865ZM79.0679 155.632C78.4231 155.632 77.8677 155.494 77.4017 155.219C76.9387 154.94 76.5807 154.55 76.3279 154.047C76.0779 153.541 75.9529 152.949 75.9529 152.27C75.9529 151.599 76.0779 151.009 76.3279 150.497C76.5807 149.986 76.933 149.587 77.3847 149.3C77.8392 149.013 78.3705 148.869 78.9784 148.869C79.3478 148.869 79.7057 148.93 80.0523 149.053C80.3989 149.175 80.71 149.366 80.9856 149.628C81.2611 149.889 81.4784 150.229 81.6375 150.646C81.7966 151.061 81.8762 151.565 81.8762 152.159V152.611H76.6731V151.656H80.6276C80.6276 151.321 80.5594 151.024 80.4231 150.766C80.2867 150.504 80.0949 150.298 79.8478 150.148C79.6034 149.997 79.3165 149.922 78.987 149.922C78.629 149.922 78.3165 150.01 78.0495 150.186C77.7853 150.359 77.5807 150.587 77.4358 150.868C77.2938 151.146 77.2228 151.449 77.2228 151.776V152.521C77.2228 152.959 77.2995 153.331 77.4529 153.638C77.6091 153.945 77.8265 154.179 78.1049 154.341C78.3833 154.5 78.7086 154.58 79.0807 154.58C79.3222 154.58 79.5424 154.545 79.7412 154.477C79.9401 154.406 80.112 154.301 80.2569 154.162C80.4017 154.023 80.5125 153.851 80.5892 153.646L81.7952 153.864C81.6986 154.219 81.5253 154.53 81.2753 154.797C81.0282 155.061 80.7171 155.267 80.3421 155.415C79.9699 155.56 79.5452 155.632 79.0679 155.632ZM86.047 155.632C85.4135 155.632 84.868 155.489 84.4106 155.202C83.9561 154.912 83.6066 154.513 83.3623 154.004C83.118 153.496 82.9958 152.913 82.9958 152.257C82.9958 151.592 83.1208 151.006 83.3708 150.497C83.6208 149.986 83.9731 149.587 84.4277 149.3C84.8822 149.013 85.4177 148.869 86.0342 148.869C86.5314 148.869 86.9745 148.962 87.3637 149.146C87.753 149.328 88.0669 149.584 88.3055 149.913C88.547 150.243 88.6905 150.628 88.7359 151.068H87.4958C87.4277 150.761 87.2714 150.497 87.0271 150.276C86.7856 150.054 86.4618 149.943 86.0555 149.943C85.7004 149.943 85.3893 150.037 85.1223 150.224C84.8581 150.409 84.6521 150.673 84.5044 151.017C84.3566 151.358 84.2828 151.761 84.2828 152.227C84.2828 152.705 84.3552 153.116 84.5001 153.463C84.645 153.81 84.8495 154.078 85.1137 154.268C85.3808 154.459 85.6947 154.554 86.0555 154.554C86.297 154.554 86.5157 154.51 86.7118 154.422C86.9106 154.331 87.0768 154.202 87.2103 154.034C87.3467 153.866 87.4419 153.665 87.4958 153.429H88.7359C88.6905 153.852 88.5527 154.23 88.3226 154.562C88.0924 154.895 87.7842 155.156 87.3978 155.347C87.0143 155.537 86.564 155.632 86.047 155.632ZM94.2448 152.786V148.955H95.5232V155.5H94.2704V154.366H94.2022C94.0516 154.716 93.8101 155.007 93.4777 155.24C93.1482 155.47 92.7377 155.585 92.2462 155.585C91.8258 155.585 91.4536 155.493 91.1297 155.308C90.8087 155.121 90.5559 154.844 90.3712 154.477C90.1894 154.111 90.0985 153.658 90.0985 153.118V148.955H91.3726V152.964C91.3726 153.411 91.4962 153.766 91.7434 154.03C91.9905 154.294 92.3115 154.426 92.7064 154.426C92.9451 154.426 93.1823 154.366 93.4181 154.247C93.6567 154.128 93.8542 153.947 94.0104 153.706C94.1695 153.464 94.2476 153.158 94.2448 152.786ZM97.2352 155.5V148.955H98.4667V149.994H98.5349C98.6542 149.642 98.8645 149.365 99.1656 149.163C99.4696 148.959 99.8133 148.857 100.197 148.857C100.276 148.857 100.37 148.859 100.478 148.865C100.589 148.871 100.676 148.878 100.738 148.886V150.105C100.687 150.091 100.596 150.075 100.465 150.058C100.335 150.038 100.204 150.028 100.073 150.028C99.7721 150.028 99.5037 150.092 99.2679 150.22C99.0349 150.345 98.8503 150.52 98.7139 150.744C98.5775 150.966 98.5093 151.219 98.5093 151.503V155.5H97.2352ZM101.841 155.5V148.955H103.115V155.5H101.841ZM102.484 147.945C102.263 147.945 102.072 147.871 101.913 147.723C101.757 147.572 101.679 147.393 101.679 147.186C101.679 146.976 101.757 146.797 101.913 146.649C102.072 146.499 102.263 146.423 102.484 146.423C102.706 146.423 102.895 146.499 103.051 146.649C103.21 146.797 103.29 146.976 103.29 147.186C103.29 147.393 103.21 147.572 103.051 147.723C102.895 147.871 102.706 147.945 102.484 147.945ZM107.884 148.955V149.977H104.309V148.955H107.884ZM105.268 147.386H106.542V153.578C106.542 153.825 106.579 154.011 106.653 154.136C106.727 154.259 106.822 154.342 106.938 154.388C107.058 154.43 107.187 154.452 107.326 154.452C107.428 154.452 107.518 154.445 107.595 154.43C107.671 154.416 107.731 154.405 107.774 154.396L108.004 155.449C107.93 155.477 107.825 155.506 107.688 155.534C107.552 155.565 107.382 155.582 107.177 155.585C106.842 155.591 106.529 155.531 106.239 155.406C105.95 155.281 105.715 155.088 105.536 154.827C105.357 154.565 105.268 154.237 105.268 153.842V147.386ZM110.099 157.955C109.909 157.955 109.736 157.939 109.579 157.908C109.423 157.879 109.307 157.848 109.23 157.814L109.537 156.77C109.77 156.832 109.977 156.859 110.159 156.851C110.341 156.842 110.501 156.774 110.64 156.646C110.782 156.518 110.907 156.31 111.015 156.02L111.173 155.585L108.778 148.955H110.142L111.799 154.034H111.868L113.525 148.955H114.893L112.196 156.374C112.071 156.714 111.912 157.003 111.719 157.239C111.525 157.477 111.295 157.656 111.028 157.776C110.761 157.895 110.451 157.955 110.099 157.955ZM119.369 155.5V146.773H122.48C123.156 146.773 123.717 146.889 124.163 147.122C124.612 147.355 124.947 147.678 125.168 148.089C125.39 148.499 125.501 148.972 125.501 149.509C125.501 150.043 125.389 150.513 125.164 150.919C124.943 151.322 124.607 151.636 124.158 151.861C123.712 152.085 123.151 152.197 122.475 152.197H120.119V151.064H122.356C122.782 151.064 123.129 151.003 123.396 150.881C123.666 150.759 123.863 150.581 123.988 150.348C124.113 150.115 124.176 149.835 124.176 149.509C124.176 149.179 124.112 148.893 123.984 148.652C123.859 148.411 123.661 148.226 123.391 148.098C123.124 147.967 122.774 147.902 122.339 147.902H120.685V155.5H119.369ZM123.677 151.562L125.833 155.5H124.333L122.22 151.562H123.677ZM128.906 155.645C128.491 155.645 128.116 155.568 127.781 155.415C127.445 155.259 127.18 155.033 126.984 154.737C126.791 154.442 126.694 154.08 126.694 153.651C126.694 153.281 126.765 152.977 126.907 152.739C127.049 152.5 127.241 152.311 127.482 152.172C127.724 152.033 127.994 151.928 128.292 151.857C128.59 151.786 128.894 151.732 129.204 151.695C129.596 151.649 129.914 151.612 130.158 151.584C130.403 151.553 130.58 151.503 130.691 151.435C130.802 151.366 130.857 151.256 130.857 151.102V151.072C130.857 150.7 130.752 150.412 130.542 150.207C130.335 150.003 130.025 149.901 129.613 149.901C129.184 149.901 128.846 149.996 128.599 150.186C128.355 150.374 128.185 150.582 128.092 150.812L126.894 150.54C127.036 150.142 127.244 149.821 127.516 149.577C127.792 149.33 128.109 149.151 128.467 149.04C128.825 148.926 129.201 148.869 129.596 148.869C129.857 148.869 130.134 148.901 130.427 148.963C130.722 149.023 130.998 149.134 131.254 149.295C131.512 149.457 131.724 149.689 131.889 149.99C132.053 150.288 132.136 150.676 132.136 151.153V155.5H130.891V154.605H130.84C130.758 154.77 130.634 154.932 130.47 155.091C130.305 155.25 130.093 155.382 129.835 155.487C129.576 155.592 129.266 155.645 128.906 155.645ZM129.183 154.622C129.535 154.622 129.836 154.553 130.086 154.413C130.339 154.274 130.531 154.092 130.661 153.868C130.795 153.641 130.862 153.398 130.862 153.139V152.295C130.816 152.341 130.728 152.384 130.597 152.423C130.47 152.46 130.323 152.493 130.158 152.521C129.994 152.547 129.833 152.571 129.677 152.594C129.521 152.614 129.39 152.631 129.285 152.645C129.038 152.676 128.812 152.729 128.607 152.803C128.406 152.876 128.244 152.983 128.122 153.122C128.002 153.259 127.943 153.44 127.943 153.668C127.943 153.983 128.059 154.222 128.292 154.384C128.525 154.543 128.822 154.622 129.183 154.622ZM136.888 148.955V149.977H133.313V148.955H136.888ZM134.272 147.386H135.546V153.578C135.546 153.825 135.583 154.011 135.657 154.136C135.731 154.259 135.826 154.342 135.942 154.388C136.062 154.43 136.191 154.452 136.33 154.452C136.432 154.452 136.522 154.445 136.598 154.43C136.675 154.416 136.735 154.405 136.777 154.396L137.008 155.449C136.934 155.477 136.829 155.506 136.692 155.534C136.556 155.565 136.385 155.582 136.181 155.585C135.846 155.591 135.533 155.531 135.243 155.406C134.954 155.281 134.719 155.088 134.54 154.827C134.361 154.565 134.272 154.237 134.272 153.842V147.386ZM138.298 155.5V148.955H139.572V155.5H138.298ZM138.941 147.945C138.72 147.945 138.529 147.871 138.37 147.723C138.214 147.572 138.136 147.393 138.136 147.186C138.136 146.976 138.214 146.797 138.37 146.649C138.529 146.499 138.72 146.423 138.941 146.423C139.163 146.423 139.352 146.499 139.508 146.649C139.667 146.797 139.747 146.976 139.747 147.186C139.747 147.393 139.667 147.572 139.508 147.723C139.352 147.871 139.163 147.945 138.941 147.945ZM142.56 151.614V155.5H141.286V148.955H142.509V150.02H142.59C142.741 149.673 142.976 149.395 143.297 149.185C143.621 148.974 144.029 148.869 144.52 148.869C144.966 148.869 145.357 148.963 145.692 149.151C146.027 149.335 146.287 149.611 146.472 149.977C146.657 150.344 146.749 150.797 146.749 151.337V155.5H145.475V151.49C145.475 151.016 145.351 150.645 145.104 150.378C144.857 150.108 144.518 149.973 144.086 149.973C143.79 149.973 143.527 150.037 143.297 150.165C143.07 150.293 142.89 150.48 142.756 150.727C142.625 150.972 142.56 151.267 142.56 151.614ZM151.202 158.091C150.682 158.091 150.235 158.023 149.86 157.886C149.488 157.75 149.184 157.57 148.948 157.345C148.712 157.121 148.536 156.875 148.42 156.608L149.515 156.156C149.591 156.281 149.694 156.413 149.821 156.553C149.952 156.695 150.128 156.815 150.35 156.915C150.574 157.014 150.863 157.064 151.215 157.064C151.698 157.064 152.097 156.946 152.412 156.71C152.728 156.477 152.885 156.105 152.885 155.594V154.307H152.804C152.728 154.446 152.617 154.601 152.472 154.771C152.33 154.942 152.134 155.089 151.884 155.214C151.634 155.339 151.309 155.402 150.908 155.402C150.391 155.402 149.925 155.281 149.51 155.04C149.098 154.795 148.772 154.436 148.53 153.962C148.292 153.484 148.172 152.898 148.172 152.202C148.172 151.506 148.29 150.909 148.526 150.412C148.765 149.915 149.091 149.534 149.506 149.27C149.921 149.003 150.391 148.869 150.917 148.869C151.323 148.869 151.651 148.938 151.901 149.074C152.151 149.207 152.346 149.364 152.485 149.543C152.627 149.722 152.736 149.879 152.813 150.016H152.907V148.955H154.155V155.645C154.155 156.207 154.025 156.669 153.763 157.03C153.502 157.391 153.148 157.658 152.702 157.831C152.259 158.004 151.759 158.091 151.202 158.091ZM151.189 154.345C151.556 154.345 151.866 154.26 152.118 154.089C152.374 153.916 152.567 153.669 152.698 153.348C152.831 153.024 152.898 152.636 152.898 152.185C152.898 151.744 152.833 151.357 152.702 151.021C152.571 150.686 152.38 150.425 152.127 150.237C151.874 150.047 151.562 149.952 151.189 149.952C150.806 149.952 150.486 150.051 150.231 150.25C149.975 150.446 149.782 150.713 149.651 151.051C149.523 151.389 149.459 151.767 149.459 152.185C149.459 152.614 149.525 152.99 149.655 153.314C149.786 153.638 149.979 153.891 150.235 154.072C150.493 154.254 150.812 154.345 151.189 154.345Z" fill="#5D6598"/>
<line x1="269.969" y1="62.0312" x2="1.03125" y2="62.0312" stroke="#F9F9FB"/>
<line x1="270.469" y1="-2.18557e-08" x2="270.469" y2="201" stroke="#F9F9FB"/>
</svg>
