<svg width="1084" height="129" viewBox="0 0 1084 129" fill="none" xmlns="http://www.w3.org/2000/svg">
<path d="M1.91761 24V6.54545H8.1392C9.49148 6.54545 10.6136 6.77841 11.5057 7.24432C12.4034 7.71023 13.0739 8.35511 13.517 9.17898C13.9602 9.99716 14.1818 10.9432 14.1818 12.017C14.1818 13.0852 13.9574 14.0256 13.5085 14.8381C13.0653 15.6449 12.3949 16.2727 11.4972 16.7216C10.6051 17.1705 9.48295 17.3949 8.13068 17.3949H3.41761V15.1278H7.89205C8.74432 15.1278 9.4375 15.0057 9.97159 14.7614C10.5114 14.517 10.9062 14.1619 11.1562 13.696C11.4062 13.2301 11.5312 12.6705 11.5312 12.017C11.5312 11.358 11.4034 10.7869 11.1477 10.304C10.8977 9.82102 10.5028 9.4517 9.96307 9.19602C9.42898 8.93466 8.72727 8.80398 7.85795 8.80398H4.55114V24H1.91761ZM10.5341 16.125L14.8466 24H11.8466L7.61932 16.125H10.5341ZM17.1818 24V10.9091H19.7301V24H17.1818ZM18.4688 8.8892C18.0256 8.8892 17.6449 8.74148 17.3267 8.44602C17.0142 8.14489 16.858 7.78693 16.858 7.37216C16.858 6.9517 17.0142 6.59375 17.3267 6.29829C17.6449 5.99716 18.0256 5.84659 18.4688 5.84659C18.9119 5.84659 19.2898 5.99716 19.6023 6.29829C19.9205 6.59375 20.0795 6.9517 20.0795 7.37216C20.0795 7.78693 19.9205 8.14489 19.6023 8.44602C19.2898 8.74148 18.9119 8.8892 18.4688 8.8892ZM32.968 14.1051L30.6584 14.5142C30.5618 14.2187 30.4084 13.9375 30.1982 13.6705C29.9936 13.4034 29.7152 13.1847 29.3629 13.0142C29.0107 12.8437 28.5703 12.7585 28.0419 12.7585C27.3203 12.7585 26.718 12.9205 26.2351 13.2443C25.7521 13.5625 25.5107 13.9744 25.5107 14.4801C25.5107 14.9176 25.6726 15.2699 25.9964 15.5369C26.3203 15.804 26.843 16.0227 27.5646 16.1932L29.6442 16.6705C30.8487 16.9489 31.7464 17.3778 32.3374 17.9574C32.9283 18.5369 33.2237 19.2898 33.2237 20.2159C33.2237 21 32.9964 21.6989 32.5419 22.3125C32.093 22.9205 31.4652 23.3977 30.6584 23.7443C29.8572 24.0909 28.9283 24.2642 27.8714 24.2642C26.4055 24.2642 25.2095 23.9517 24.2834 23.3267C23.3572 22.696 22.7891 21.8011 22.5788 20.642L25.0419 20.267C25.1953 20.9091 25.5107 21.3949 25.9879 21.7244C26.4652 22.0483 27.0874 22.2102 27.8544 22.2102C28.6896 22.2102 29.3572 22.0369 29.8572 21.6903C30.3572 21.3381 30.6072 20.9091 30.6072 20.4034C30.6072 19.9943 30.4538 19.6506 30.147 19.3722C29.8459 19.0937 29.3828 18.8835 28.7578 18.7415L26.5419 18.2557C25.3203 17.9773 24.4169 17.5341 23.8317 16.9261C23.2521 16.3182 22.9624 15.5483 22.9624 14.6165C22.9624 13.8437 23.1783 13.1676 23.6101 12.5881C24.0419 12.0085 24.6385 11.5568 25.3999 11.233C26.1612 10.9034 27.0334 10.7386 28.0163 10.7386C29.4311 10.7386 30.5447 11.0455 31.3572 11.6591C32.1697 12.267 32.7067 13.0824 32.968 14.1051ZM38.3693 19.5597L38.3523 16.4489H38.7955L44.0114 10.9091H47.0625L41.1136 17.2159H40.7131L38.3693 19.5597ZM36.0256 24V6.54545H38.5739V24H36.0256ZM44.2926 24L39.6051 17.7784L41.3608 15.9972L47.4205 24H44.2926ZM55.9411 24V6.54545H62.1626C63.5206 6.54545 64.6456 6.79261 65.5376 7.28693C66.4297 7.78125 67.0973 8.45739 67.5405 9.31534C67.9837 10.1676 68.2053 11.1278 68.2053 12.196C68.2053 13.2699 67.9808 14.2358 67.532 15.0938C67.0888 15.946 66.4183 16.6222 65.5206 17.1222C64.6286 17.6165 63.5064 17.8636 62.1541 17.8636H57.8757V15.6307H61.9155C62.7734 15.6307 63.4695 15.483 64.0036 15.1875C64.5376 14.8864 64.9297 14.4773 65.1797 13.9602C65.4297 13.4432 65.5547 12.8551 65.5547 12.196C65.5547 11.5369 65.4297 10.9517 65.1797 10.4403C64.9297 9.92898 64.5348 9.52841 63.995 9.23864C63.4609 8.94886 62.7564 8.80398 61.8814 8.80398H58.5746V24H55.9411ZM71.0881 24V10.9091H73.5511V12.9886H73.6875C73.9261 12.2841 74.3466 11.7301 74.9489 11.3267C75.5568 10.9176 76.2443 10.7131 77.0114 10.7131C77.1705 10.7131 77.358 10.7187 77.5739 10.7301C77.7955 10.7415 77.9688 10.7557 78.0938 10.7727V13.2102C77.9915 13.1818 77.8097 13.1506 77.5483 13.1165C77.2869 13.0767 77.0256 13.0568 76.7642 13.0568C76.1619 13.0568 75.625 13.1847 75.1534 13.4403C74.6875 13.6903 74.3182 14.0398 74.0455 14.4886C73.7727 14.9318 73.6364 15.4375 73.6364 16.0057V24H71.0881ZM85.3445 24.2642C84.1172 24.2642 83.0462 23.983 82.1314 23.4205C81.2166 22.858 80.5064 22.071 80.0007 21.0597C79.495 20.0483 79.2422 18.8665 79.2422 17.5142C79.2422 16.1562 79.495 14.9687 80.0007 13.9517C80.5064 12.9347 81.2166 12.1449 82.1314 11.5824C83.0462 11.0199 84.1172 10.7386 85.3445 10.7386C86.5717 10.7386 87.6428 11.0199 88.5575 11.5824C89.4723 12.1449 90.1825 12.9347 90.6882 13.9517C91.1939 14.9687 91.4467 16.1562 91.4467 17.5142C91.4467 18.8665 91.1939 20.0483 90.6882 21.0597C90.1825 22.071 89.4723 22.858 88.5575 23.4205C87.6428 23.983 86.5717 24.2642 85.3445 24.2642ZM85.353 22.125C86.1484 22.125 86.8075 21.9148 87.3303 21.4943C87.853 21.0739 88.2393 20.5142 88.4893 19.8153C88.745 19.1165 88.8729 18.3466 88.8729 17.5057C88.8729 16.6705 88.745 15.9034 88.4893 15.2045C88.2393 14.5 87.853 13.9347 87.3303 13.5085C86.8075 13.0824 86.1484 12.8693 85.353 12.8693C84.5518 12.8693 83.8871 13.0824 83.3587 13.5085C82.8359 13.9347 82.4467 14.5 82.1911 15.2045C81.9411 15.9034 81.8161 16.6705 81.8161 17.5057C81.8161 18.3466 81.9411 19.1165 82.1911 19.8153C82.4467 20.5142 82.8359 21.0739 83.3587 21.4943C83.8871 21.9148 84.5518 22.125 85.353 22.125ZM100.521 10.9091V12.9545H93.1236V10.9091H100.521ZM95.152 24V9.39204C95.152 8.57386 95.331 7.89489 95.6889 7.35511C96.0469 6.80966 96.5213 6.40341 97.1122 6.13636C97.7031 5.86364 98.3452 5.72727 99.0384 5.72727C99.5497 5.72727 99.9872 5.76989 100.351 5.85511C100.714 5.93466 100.984 6.00852 101.161 6.0767L100.564 8.1392C100.445 8.10511 100.291 8.06534 100.104 8.01989C99.9162 7.96875 99.6889 7.94318 99.4219 7.94318C98.8026 7.94318 98.3594 8.09659 98.0923 8.40341C97.831 8.71023 97.7003 9.15341 97.7003 9.73295V24H95.152ZM103.151 24V10.9091H105.699V24H103.151ZM104.438 8.8892C103.994 8.8892 103.614 8.74148 103.295 8.44602C102.983 8.14489 102.827 7.78693 102.827 7.37216C102.827 6.9517 102.983 6.59375 103.295 6.29829C103.614 5.99716 103.994 5.84659 104.438 5.84659C104.881 5.84659 105.259 5.99716 105.571 6.29829C105.889 6.59375 106.048 6.9517 106.048 7.37216C106.048 7.78693 105.889 8.14489 105.571 8.44602C105.259 8.74148 104.881 8.8892 104.438 8.8892ZM111.675 6.54545V24H109.127V6.54545H111.675ZM120.746 24.2642C119.456 24.2642 118.345 23.9886 117.413 23.4375C116.487 22.8807 115.771 22.0994 115.266 21.0938C114.766 20.0824 114.516 18.8977 114.516 17.5398C114.516 16.1989 114.766 15.017 115.266 13.9943C115.771 12.9716 116.476 12.1733 117.379 11.5994C118.288 11.0256 119.351 10.7386 120.567 10.7386C121.305 10.7386 122.021 10.8608 122.714 11.1051C123.408 11.3494 124.03 11.733 124.581 12.2557C125.132 12.7784 125.567 13.4574 125.885 14.2926C126.203 15.1222 126.362 16.1307 126.362 17.3182V18.2216H115.956V16.3125H123.865C123.865 15.642 123.729 15.0483 123.456 14.5312C123.183 14.0085 122.8 13.5966 122.305 13.2955C121.817 12.9943 121.243 12.8438 120.584 12.8438C119.868 12.8438 119.243 13.0199 118.709 13.3722C118.18 13.7187 117.771 14.1733 117.482 14.7358C117.197 15.2926 117.055 15.8977 117.055 16.5511V18.0426C117.055 18.9176 117.209 19.6619 117.516 20.2756C117.828 20.8892 118.263 21.358 118.82 21.6818C119.376 22 120.027 22.1591 120.771 22.1591C121.254 22.1591 121.695 22.0909 122.092 21.9545C122.49 21.8125 122.834 21.6023 123.124 21.3239C123.413 21.0455 123.635 20.7017 123.788 20.2926L126.2 20.7273C126.007 21.4375 125.661 22.0597 125.161 22.5938C124.666 23.1222 124.044 23.5341 123.294 23.8295C122.55 24.1193 121.7 24.2642 120.746 24.2642Z" fill="#131520"/>
<rect x="777.5" y="1.5" width="142" height="31" rx="3.5" fill="white"/>
<path d="M790.696 21H789.298L792.439 12.2727H793.96L797.101 21H795.703L793.236 13.858H793.168L790.696 21ZM790.93 17.5824H795.464V18.6903H790.93V17.5824ZM799.259 23.4545V14.4545H800.503V15.5156H800.61C800.684 15.3793 800.79 15.2216 800.929 15.0426C801.069 14.8636 801.262 14.7074 801.509 14.5739C801.756 14.4375 802.083 14.3693 802.489 14.3693C803.017 14.3693 803.489 14.5028 803.904 14.7699C804.319 15.0369 804.644 15.4219 804.88 15.9247C805.118 16.4276 805.238 17.0327 805.238 17.7401C805.238 18.4474 805.12 19.054 804.884 19.5597C804.648 20.0625 804.324 20.4503 803.912 20.723C803.5 20.9929 803.03 21.1278 802.502 21.1278C802.104 21.1278 801.779 21.0611 801.526 20.9276C801.276 20.794 801.08 20.6378 800.938 20.4588C800.796 20.2798 800.686 20.1207 800.61 19.9815H800.533V23.4545H799.259ZM800.507 17.7273C800.507 18.1875 800.574 18.5909 800.708 18.9375C800.841 19.2841 801.034 19.5554 801.287 19.7514C801.54 19.9446 801.85 20.0412 802.216 20.0412C802.597 20.0412 802.915 19.9403 803.171 19.7386C803.426 19.5341 803.62 19.2571 803.75 18.9077C803.884 18.5582 803.951 18.1648 803.951 17.7273C803.951 17.2955 803.885 16.9077 803.755 16.5639C803.627 16.2202 803.434 15.9489 803.175 15.75C802.919 15.5511 802.6 15.4517 802.216 15.4517C801.847 15.4517 801.534 15.5469 801.279 15.7372C801.026 15.9276 800.834 16.1932 800.703 16.5341C800.573 16.875 800.507 17.2727 800.507 17.7273ZM807.665 23.4545V14.4545H808.909V15.5156H809.016C809.09 15.3793 809.196 15.2216 809.336 15.0426C809.475 14.8636 809.668 14.7074 809.915 14.5739C810.162 14.4375 810.489 14.3693 810.895 14.3693C811.424 14.3693 811.895 14.5028 812.31 14.7699C812.725 15.0369 813.05 15.4219 813.286 15.9247C813.525 16.4276 813.644 17.0327 813.644 17.7401C813.644 18.4474 813.526 19.054 813.29 19.5597C813.054 20.0625 812.73 20.4503 812.319 20.723C811.907 20.9929 811.436 21.1278 810.908 21.1278C810.51 21.1278 810.185 21.0611 809.932 20.9276C809.682 20.794 809.486 20.6378 809.344 20.4588C809.202 20.2798 809.093 20.1207 809.016 19.9815H808.939V23.4545H807.665ZM808.914 17.7273C808.914 18.1875 808.98 18.5909 809.114 18.9375C809.248 19.2841 809.441 19.5554 809.694 19.7514C809.946 19.9446 810.256 20.0412 810.623 20.0412C811.003 20.0412 811.321 19.9403 811.577 19.7386C811.833 19.5341 812.026 19.2571 812.157 18.9077C812.29 18.5582 812.357 18.1648 812.357 17.7273C812.357 17.2955 812.292 16.9077 812.161 16.5639C812.033 16.2202 811.84 15.9489 811.581 15.75C811.326 15.5511 811.006 15.4517 810.623 15.4517C810.253 15.4517 809.941 15.5469 809.685 15.7372C809.432 15.9276 809.24 16.1932 809.11 16.5341C808.979 16.875 808.914 17.2727 808.914 17.7273ZM817.346 12.2727V21H816.071V12.2727H817.346ZM820.865 23.4545C820.675 23.4545 820.501 23.4389 820.345 23.4077C820.189 23.3793 820.072 23.348 819.996 23.3139L820.303 22.2699C820.536 22.3324 820.743 22.3594 820.925 22.3509C821.107 22.3423 821.267 22.2741 821.406 22.1463C821.548 22.0185 821.673 21.8097 821.781 21.5199L821.939 21.0852L819.544 14.4545H820.908L822.565 19.5341H822.634L824.291 14.4545H825.659L822.962 21.8736C822.837 22.2145 822.678 22.5028 822.484 22.7386C822.291 22.9773 822.061 23.1563 821.794 23.2756C821.527 23.3949 821.217 23.4545 820.865 23.4545ZM835.147 14.4545V15.4773H831.449V14.4545H835.147ZM832.463 21V13.696C832.463 13.2869 832.552 12.9474 832.731 12.6776C832.91 12.4048 833.147 12.2017 833.443 12.0682C833.738 11.9318 834.059 11.8636 834.406 11.8636C834.662 11.8636 834.88 11.8849 835.062 11.9276C835.244 11.9673 835.379 12.0043 835.467 12.0384L835.169 13.0696C835.109 13.0526 835.032 13.0327 834.939 13.0099C834.845 12.9844 834.731 12.9716 834.598 12.9716C834.288 12.9716 834.066 13.0483 833.933 13.2017C833.802 13.3551 833.737 13.5767 833.737 13.8665V21H832.463ZM837.462 21V14.4545H838.736V21H837.462ZM838.105 13.4446C837.884 13.4446 837.694 13.3707 837.534 13.223C837.378 13.0724 837.3 12.8935 837.3 12.6861C837.3 12.4759 837.378 12.2969 837.534 12.1491C837.694 11.9986 837.884 11.9233 838.105 11.9233C838.327 11.9233 838.516 11.9986 838.672 12.1491C838.831 12.2969 838.911 12.4759 838.911 12.6861C838.911 12.8935 838.831 13.0724 838.672 13.223C838.516 13.3707 838.327 13.4446 838.105 13.4446ZM842.724 12.2727V21H841.45V12.2727H842.724ZM848.494 14.4545V15.4773H844.919V14.4545H848.494ZM845.877 12.8864H847.152V19.0781C847.152 19.3253 847.189 19.5114 847.262 19.6364C847.336 19.7585 847.431 19.8423 847.548 19.8878C847.667 19.9304 847.797 19.9517 847.936 19.9517C848.038 19.9517 848.127 19.9446 848.204 19.9304C848.281 19.9162 848.341 19.9048 848.383 19.8963L848.613 20.9489C848.539 20.9773 848.434 21.0057 848.298 21.0341C848.162 21.0653 847.991 21.0824 847.787 21.0852C847.451 21.0909 847.139 21.0312 846.849 20.9062C846.559 20.7812 846.325 20.5881 846.146 20.3267C845.967 20.0653 845.877 19.7372 845.877 19.3423V12.8864ZM853.654 21.1321C853.009 21.1321 852.454 20.9943 851.988 20.7188C851.525 20.4403 851.167 20.0497 850.914 19.5469C850.664 19.0412 850.539 18.4489 850.539 17.7699C850.539 17.0994 850.664 16.5085 850.914 15.9972C851.167 15.4858 851.519 15.0866 851.971 14.7997C852.425 14.5128 852.957 14.3693 853.565 14.3693C853.934 14.3693 854.292 14.4304 854.638 14.5526C854.985 14.6747 855.296 14.8665 855.572 15.1278C855.847 15.3892 856.065 15.7287 856.224 16.1463C856.383 16.5611 856.462 17.0653 856.462 17.6591V18.1108H851.259V17.1562H855.214C855.214 16.821 855.146 16.5241 855.009 16.2656C854.873 16.0043 854.681 15.7983 854.434 15.6477C854.19 15.4972 853.903 15.4219 853.573 15.4219C853.215 15.4219 852.903 15.5099 852.636 15.6861C852.371 15.8594 852.167 16.0866 852.022 16.3679C851.88 16.6463 851.809 16.9489 851.809 17.2756V18.0213C851.809 18.4588 851.886 18.831 852.039 19.1378C852.195 19.4446 852.413 19.679 852.691 19.8409C852.969 20 853.295 20.0795 853.667 20.0795C853.908 20.0795 854.129 20.0455 854.327 19.9773C854.526 19.9062 854.698 19.8011 854.843 19.6619C854.988 19.5227 855.099 19.3509 855.175 19.1463L856.381 19.3636C856.285 19.7187 856.112 20.0298 855.862 20.2969C855.614 20.5611 855.303 20.767 854.928 20.9148C854.556 21.0597 854.131 21.1321 853.654 21.1321ZM858.876 21V14.4545H860.108V15.4943H860.176C860.295 15.142 860.505 14.8651 860.806 14.6634C861.11 14.4588 861.454 14.3565 861.838 14.3565C861.917 14.3565 862.011 14.3594 862.119 14.3651C862.23 14.3707 862.316 14.3778 862.379 14.3864V15.6051C862.328 15.5909 862.237 15.5753 862.106 15.5582C861.975 15.5384 861.845 15.5284 861.714 15.5284C861.413 15.5284 861.145 15.5923 860.909 15.7202C860.676 15.8452 860.491 16.0199 860.355 16.2443C860.218 16.4659 860.15 16.7187 860.15 17.0028V21H858.876ZM869.386 16.0526L868.232 16.2571C868.183 16.1094 868.107 15.9687 868.001 15.8352C867.899 15.7017 867.76 15.5923 867.584 15.5071C867.408 15.4219 867.188 15.3793 866.923 15.3793C866.563 15.3793 866.261 15.4602 866.02 15.6222C865.778 15.7812 865.658 15.9872 865.658 16.2401C865.658 16.4588 865.739 16.6349 865.901 16.7685C866.063 16.902 866.324 17.0114 866.685 17.0966L867.724 17.3352C868.327 17.4744 868.776 17.6889 869.071 17.9787C869.366 18.2685 869.514 18.6449 869.514 19.108C869.514 19.5 869.401 19.8494 869.173 20.1562C868.949 20.4602 868.635 20.6989 868.232 20.8722C867.831 21.0455 867.366 21.1321 866.838 21.1321C866.105 21.1321 865.507 20.9759 865.044 20.6634C864.581 20.348 864.297 19.9006 864.192 19.321L865.423 19.1335C865.5 19.4545 865.658 19.6974 865.896 19.8622C866.135 20.0241 866.446 20.1051 866.83 20.1051C867.247 20.1051 867.581 20.0185 867.831 19.8452C868.081 19.669 868.206 19.4545 868.206 19.2017C868.206 18.9972 868.129 18.8253 867.976 18.6861C867.825 18.5469 867.594 18.4418 867.281 18.3707L866.173 18.1278C865.563 17.9886 865.111 17.767 864.818 17.4631C864.528 17.1591 864.384 16.7741 864.384 16.3082C864.384 15.9219 864.491 15.5838 864.707 15.294C864.923 15.0043 865.222 14.7784 865.602 14.6165C865.983 14.4517 866.419 14.3693 866.911 14.3693C867.618 14.3693 868.175 14.5227 868.581 14.8295C868.987 15.1335 869.256 15.5412 869.386 16.0526Z" fill="#1757C2"/>
<line x1="880.5" y1="6" x2="880.5" y2="28" stroke="#1757C2"/>
<path d="M903.833 10.3334H892.168C891.427 10.3334 891.054 11.2315 891.578 11.756L896.333 16.5119V21.375C896.333 21.4938 896.359 21.6112 896.408 21.7194C896.457 21.8276 896.529 21.924 896.618 22.0022L898.285 23.4601C898.817 23.9258 899.667 23.5559 899.667 22.8329V16.5119L904.422 11.756C904.945 11.2325 904.574 10.3334 903.833 10.3334ZM898.833 16.1667V22.8334L897.167 21.375V16.1667L892.167 11.1667H903.833L898.833 16.1667Z" fill="#1757C2"/>
<path fill-rule="evenodd" clip-rule="evenodd" d="M891.447 11.8869C890.806 11.2455 891.263 10.1482 892.168 10.1482H903.833C904.74 10.1482 905.193 11.2471 904.553 11.8869V11.8869L899.852 16.5886V22.8329C899.852 23.7185 898.812 24.1676 898.163 23.5995V23.5995L896.496 22.1416C896.387 22.046 896.299 21.9281 896.239 21.7959C896.179 21.6637 896.148 21.5202 896.148 21.375V16.5886L891.447 11.8869V11.8869ZM892.168 10.5186C891.592 10.5186 891.302 11.2174 891.709 11.625L896.519 16.4352V21.3751C896.519 21.4674 896.538 21.5587 896.577 21.6429C896.615 21.727 896.67 21.802 896.74 21.8628V21.8628L898.407 23.3207C898.822 23.6839 899.482 23.3933 899.482 22.8329V16.4352L904.291 11.625C904.698 11.218 904.409 10.5186 903.833 10.5186H892.168ZM891.72 10.9815H904.28L899.019 16.2434V23.2415L896.982 21.4591V16.2434L891.72 10.9815ZM892.614 11.3519L897.352 16.09V21.291L898.648 22.4253V16.09L903.386 11.3519H892.614Z" fill="#1757C2"/>
<rect x="777.5" y="1.5" width="142" height="31" rx="3.5" stroke="#1757C2"/>
<rect x="936.5" y="1.5" width="91" height="31" rx="3.5" fill="#F3F7FC"/>
<g clip-path="url(#clip0_201_10482)">
<path fill-rule="evenodd" clip-rule="evenodd" d="M958 9.70837C958.345 9.70837 958.625 9.9882 958.625 10.3334V17.7137L960.521 15.8173C960.765 15.5732 961.161 15.5732 961.405 15.8173C961.649 16.0613 961.649 16.4571 961.405 16.7011L958.442 19.6645C958.198 19.9086 957.802 19.9086 957.558 19.6645L954.595 16.7011C954.351 16.4571 954.351 16.0613 954.595 15.8173C954.839 15.5732 955.235 15.5732 955.479 15.8173L957.375 17.7137V10.3334C957.375 9.9882 957.655 9.70837 958 9.70837ZM951.333 20.0784C951.679 20.0784 951.958 20.3582 951.958 20.7034C951.958 21.3235 952.205 21.9183 952.643 22.3568C953.082 22.7953 953.676 23.0417 954.297 23.0417H961.703C962.323 23.0417 962.918 22.7953 963.357 22.3568C963.795 21.9183 964.042 21.3235 964.042 20.7034C964.042 20.3582 964.321 20.0784 964.667 20.0784C965.012 20.0784 965.292 20.3582 965.292 20.7034C965.292 21.6551 964.914 22.5678 964.241 23.2407C963.568 23.9137 962.655 24.2917 961.703 24.2917H954.297C953.345 24.2917 952.432 23.9137 951.759 23.2407C951.086 22.5678 950.708 21.6551 950.708 20.7034C950.708 20.3582 950.988 20.0784 951.333 20.0784Z" fill="#1757C2"/>
</g>
<path d="M972.959 21V12.2727H978.43V13.4062H974.276V16.0653H978.145V17.1946H974.276V19.8665H978.482V21H972.959ZM982.093 14.4545L983.537 17.0028L984.995 14.4545H986.388L984.347 17.7273L986.405 21H985.012L983.537 18.554L982.067 21H980.669L982.706 17.7273L980.695 14.4545H982.093ZM988.696 23.4545V14.4545H989.941V15.5156H990.047C990.121 15.3793 990.228 15.2216 990.367 15.0426C990.506 14.8636 990.699 14.7074 990.946 14.5739C991.194 14.4375 991.52 14.3693 991.926 14.3693C992.455 14.3693 992.926 14.5028 993.341 14.7699C993.756 15.0369 994.081 15.4219 994.317 15.9247C994.556 16.4276 994.675 17.0327 994.675 17.7401C994.675 18.4474 994.557 19.054 994.321 19.5597C994.086 20.0625 993.762 20.4503 993.35 20.723C992.938 20.9929 992.468 21.1278 991.939 21.1278C991.542 21.1278 991.216 21.0611 990.963 20.9276C990.713 20.794 990.517 20.6378 990.375 20.4588C990.233 20.2798 990.124 20.1207 990.047 19.9815H989.971V23.4545H988.696ZM989.945 17.7273C989.945 18.1875 990.012 18.5909 990.145 18.9375C990.279 19.2841 990.472 19.5554 990.725 19.7514C990.978 19.9446 991.287 20.0412 991.654 20.0412C992.034 20.0412 992.353 19.9403 992.608 19.7386C992.864 19.5341 993.057 19.2571 993.188 18.9077C993.321 18.5582 993.388 18.1648 993.388 17.7273C993.388 17.2955 993.323 16.9077 993.192 16.5639C993.064 16.2202 992.871 15.9489 992.613 15.75C992.357 15.5511 992.037 15.4517 991.654 15.4517C991.284 15.4517 990.972 15.5469 990.716 15.7372C990.463 15.9276 990.272 16.1932 990.141 16.5341C990.01 16.875 989.945 17.2727 989.945 17.7273ZM999.86 21.1321C999.246 21.1321 998.711 20.9915 998.253 20.7102C997.796 20.429 997.441 20.0355 997.188 19.5298C996.935 19.0241 996.809 18.4332 996.809 17.7571C996.809 17.0781 996.935 16.4844 997.188 15.9759C997.441 15.4673 997.796 15.0724 998.253 14.7912C998.711 14.5099 999.246 14.3693 999.86 14.3693C1000.47 14.3693 1001.01 14.5099 1001.47 14.7912C1001.92 15.0724 1002.28 15.4673 1002.53 15.9759C1002.78 16.4844 1002.91 17.0781 1002.91 17.7571C1002.91 18.4332 1002.78 19.0241 1002.53 19.5298C1002.28 20.0355 1001.92 20.429 1001.47 20.7102C1001.01 20.9915 1000.47 21.1321 999.86 21.1321ZM999.864 20.0625C1000.26 20.0625 1000.59 19.9574 1000.85 19.7472C1001.11 19.5369 1001.31 19.2571 1001.43 18.9077C1001.56 18.5582 1001.62 18.1733 1001.62 17.7528C1001.62 17.3352 1001.56 16.9517 1001.43 16.6023C1001.31 16.25 1001.11 15.9673 1000.85 15.7543C1000.59 15.5412 1000.26 15.4347 999.864 15.4347C999.463 15.4347 999.131 15.5412 998.867 15.7543C998.605 15.9673 998.411 16.25 998.283 16.6023C998.158 16.9517 998.096 17.3352 998.096 17.7528C998.096 18.1733 998.158 18.5582 998.283 18.9077C998.411 19.2571 998.605 19.5369 998.867 19.7472C999.131 19.9574 999.463 20.0625 999.864 20.0625ZM1005.33 21V14.4545H1006.56V15.4943H1006.63C1006.75 15.142 1006.96 14.8651 1007.26 14.6634C1007.57 14.4588 1007.91 14.3565 1008.29 14.3565C1008.37 14.3565 1008.47 14.3594 1008.58 14.3651C1008.69 14.3707 1008.77 14.3778 1008.84 14.3864V15.6051C1008.78 15.5909 1008.69 15.5753 1008.56 15.5582C1008.43 15.5384 1008.3 15.5284 1008.17 15.5284C1007.87 15.5284 1007.6 15.5923 1007.37 15.7202C1007.13 15.8452 1006.95 16.0199 1006.81 16.2443C1006.68 16.4659 1006.61 16.7187 1006.61 17.0028V21H1005.33ZM1014.38 14.4545V15.4773H1010.81V14.4545H1014.38ZM1011.76 12.8864H1013.04V19.0781C1013.04 19.3253 1013.08 19.5114 1013.15 19.6364C1013.22 19.7585 1013.32 19.8423 1013.43 19.8878C1013.55 19.9304 1013.68 19.9517 1013.82 19.9517C1013.92 19.9517 1014.01 19.9446 1014.09 19.9304C1014.17 19.9162 1014.23 19.9048 1014.27 19.8963L1014.5 20.9489C1014.43 20.9773 1014.32 21.0057 1014.18 21.0341C1014.05 21.0653 1013.88 21.0824 1013.67 21.0852C1013.34 21.0909 1013.03 21.0312 1012.74 20.9062C1012.45 20.7812 1012.21 20.5881 1012.03 20.3267C1011.85 20.0653 1011.76 19.7372 1011.76 19.3423V12.8864Z" fill="#1757C2"/>
<rect x="936.5" y="1.5" width="91" height="31" rx="3.5" stroke="#1757C2"/>
<path d="M1044 1L1044 33" stroke="#DDE1E6" stroke-linecap="round"/>
<g clip-path="url(#clip1_201_10482)">
<path d="M1072 26C1067.03 26 1063 21.971 1063 17C1063 12.029 1067.03 8 1072 8C1076.97 8 1081 12.029 1081 17C1081 21.971 1076.97 26 1072 26Z" stroke="#878D96" stroke-width="1.5" stroke-linecap="round" stroke-linejoin="round"/>
<path d="M1072 22V17H1071" stroke="#878D96" stroke-width="1.5" stroke-linecap="round" stroke-linejoin="round"/>
<circle cx="1071.75" cy="13.25" r="1" fill="#878D96"/>
</g>
<path d="M0 65.0001L1084 65" stroke="#ECEDF3"/>
<path d="M179.5 97.5H388C391.038 97.5 393.5 99.9624 393.5 103V123C393.5 126.038 391.038 128.5 388 128.5H179.5V97.5Z" fill="white"/>
<path d="M203.54 112.636C203.54 113.568 203.369 114.369 203.028 115.04C202.688 115.707 202.22 116.222 201.626 116.582C201.036 116.94 200.364 117.119 199.611 117.119C198.855 117.119 198.18 116.94 197.587 116.582C196.996 116.222 196.53 115.706 196.189 115.036C195.848 114.365 195.678 113.565 195.678 112.636C195.678 111.705 195.848 110.905 196.189 110.237C196.53 109.567 196.996 109.053 197.587 108.695C198.18 108.334 198.855 108.153 199.611 108.153C200.364 108.153 201.036 108.334 201.626 108.695C202.22 109.053 202.688 109.567 203.028 110.237C203.369 110.905 203.54 111.705 203.54 112.636ZM202.236 112.636C202.236 111.926 202.121 111.328 201.891 110.842C201.663 110.354 201.351 109.984 200.953 109.734C200.558 109.482 200.111 109.355 199.611 109.355C199.108 109.355 198.659 109.482 198.264 109.734C197.869 109.984 197.557 110.354 197.327 110.842C197.099 111.328 196.986 111.926 196.986 112.636C196.986 113.347 197.099 113.946 197.327 114.435C197.557 114.92 197.869 115.29 198.264 115.543C198.659 115.793 199.108 115.918 199.611 115.918C200.111 115.918 200.558 115.793 200.953 115.543C201.351 115.29 201.663 114.92 201.891 114.435C202.121 113.946 202.236 113.347 202.236 112.636ZM206.079 117V110.455H207.311V111.494H207.379C207.498 111.142 207.708 110.865 208.01 110.663C208.314 110.459 208.657 110.357 209.041 110.357C209.12 110.357 209.214 110.359 209.322 110.365C209.433 110.371 209.52 110.378 209.582 110.386V111.605C209.531 111.591 209.44 111.575 209.309 111.558C209.179 111.538 209.048 111.528 208.917 111.528C208.616 111.528 208.348 111.592 208.112 111.72C207.879 111.845 207.694 112.02 207.558 112.244C207.422 112.466 207.353 112.719 207.353 113.003V117H206.079ZM214.195 119.591C213.675 119.591 213.227 119.523 212.852 119.386C212.48 119.25 212.176 119.07 211.94 118.845C211.705 118.621 211.528 118.375 211.412 118.108L212.507 117.656C212.584 117.781 212.686 117.913 212.814 118.053C212.945 118.195 213.121 118.315 213.342 118.415C213.567 118.514 213.855 118.564 214.207 118.564C214.69 118.564 215.089 118.446 215.405 118.21C215.72 117.977 215.878 117.605 215.878 117.094V115.807H215.797C215.72 115.946 215.609 116.101 215.464 116.271C215.322 116.442 215.126 116.589 214.876 116.714C214.626 116.839 214.301 116.902 213.901 116.902C213.384 116.902 212.918 116.781 212.503 116.54C212.091 116.295 211.764 115.936 211.523 115.462C211.284 114.984 211.165 114.398 211.165 113.702C211.165 113.006 211.283 112.409 211.518 111.912C211.757 111.415 212.084 111.034 212.499 110.77C212.913 110.503 213.384 110.369 213.909 110.369C214.315 110.369 214.643 110.438 214.893 110.574C215.143 110.707 215.338 110.864 215.477 111.043C215.619 111.222 215.729 111.379 215.805 111.516H215.899V110.455H217.148V117.145C217.148 117.707 217.017 118.169 216.756 118.53C216.494 118.891 216.141 119.158 215.695 119.331C215.251 119.504 214.751 119.591 214.195 119.591ZM214.182 115.845C214.548 115.845 214.858 115.76 215.111 115.589C215.366 115.416 215.56 115.169 215.69 114.848C215.824 114.524 215.891 114.136 215.891 113.685C215.891 113.244 215.825 112.857 215.695 112.521C215.564 112.186 215.372 111.925 215.119 111.737C214.866 111.547 214.554 111.452 214.182 111.452C213.798 111.452 213.479 111.551 213.223 111.75C212.967 111.946 212.774 112.213 212.643 112.551C212.516 112.889 212.452 113.267 212.452 113.685C212.452 114.114 212.517 114.49 212.648 114.814C212.778 115.138 212.972 115.391 213.227 115.572C213.486 115.754 213.804 115.845 214.182 115.845ZM221.761 117.145C221.347 117.145 220.972 117.068 220.636 116.915C220.301 116.759 220.036 116.533 219.839 116.237C219.646 115.942 219.55 115.58 219.55 115.151C219.55 114.781 219.621 114.477 219.763 114.239C219.905 114 220.097 113.811 220.338 113.672C220.58 113.533 220.849 113.428 221.148 113.357C221.446 113.286 221.75 113.232 222.06 113.195C222.452 113.149 222.77 113.112 223.014 113.084C223.259 113.053 223.436 113.003 223.547 112.935C223.658 112.866 223.713 112.756 223.713 112.602V112.572C223.713 112.2 223.608 111.912 223.398 111.707C223.19 111.503 222.881 111.401 222.469 111.401C222.04 111.401 221.702 111.496 221.455 111.686C221.21 111.874 221.041 112.082 220.947 112.312L219.75 112.04C219.892 111.642 220.099 111.321 220.372 111.077C220.648 110.83 220.964 110.651 221.322 110.54C221.68 110.426 222.057 110.369 222.452 110.369C222.713 110.369 222.99 110.401 223.283 110.463C223.578 110.523 223.854 110.634 224.109 110.795C224.368 110.957 224.58 111.189 224.744 111.49C224.909 111.788 224.991 112.176 224.991 112.653V117H223.747V116.105H223.696C223.614 116.27 223.49 116.432 223.325 116.591C223.161 116.75 222.949 116.882 222.69 116.987C222.432 117.092 222.122 117.145 221.761 117.145ZM222.038 116.122C222.391 116.122 222.692 116.053 222.942 115.913C223.195 115.774 223.386 115.592 223.517 115.368C223.651 115.141 223.717 114.898 223.717 114.639V113.795C223.672 113.841 223.584 113.884 223.453 113.923C223.325 113.96 223.179 113.993 223.014 114.021C222.849 114.047 222.689 114.071 222.533 114.094C222.376 114.114 222.246 114.131 222.141 114.145C221.893 114.176 221.668 114.229 221.463 114.303C221.261 114.376 221.099 114.483 220.977 114.622C220.858 114.759 220.798 114.94 220.798 115.168C220.798 115.483 220.915 115.722 221.148 115.884C221.381 116.043 221.678 116.122 222.038 116.122ZM228.963 113.114V117H227.689V110.455H228.912V111.52H228.993C229.143 111.173 229.379 110.895 229.7 110.685C230.024 110.474 230.431 110.369 230.923 110.369C231.369 110.369 231.76 110.463 232.095 110.651C232.43 110.835 232.69 111.111 232.875 111.477C233.059 111.844 233.152 112.297 233.152 112.837V117H231.877V112.99C231.877 112.516 231.754 112.145 231.507 111.878C231.26 111.608 230.92 111.473 230.488 111.473C230.193 111.473 229.93 111.537 229.7 111.665C229.473 111.793 229.292 111.98 229.159 112.227C229.028 112.472 228.963 112.767 228.963 113.114ZM235.86 117V110.455H237.135V117H235.86ZM236.504 109.445C236.282 109.445 236.092 109.371 235.933 109.223C235.777 109.072 235.699 108.893 235.699 108.686C235.699 108.476 235.777 108.297 235.933 108.149C236.092 107.999 236.282 107.923 236.504 107.923C236.725 107.923 236.914 107.999 237.071 108.149C237.23 108.297 237.309 108.476 237.309 108.686C237.309 108.893 237.23 109.072 237.071 109.223C236.914 109.371 236.725 109.445 236.504 109.445ZM239.712 117V116.126L243.258 111.622V111.562H239.827V110.455H244.847V111.384L241.438 115.832V115.892H244.967V117H239.712ZM249.375 117.145C248.96 117.145 248.585 117.068 248.25 116.915C247.914 116.759 247.649 116.533 247.453 116.237C247.26 115.942 247.163 115.58 247.163 115.151C247.163 114.781 247.234 114.477 247.376 114.239C247.518 114 247.71 113.811 247.951 113.672C248.193 113.533 248.463 113.428 248.761 113.357C249.059 113.286 249.363 113.232 249.673 113.195C250.065 113.149 250.383 113.112 250.627 113.084C250.872 113.053 251.049 113.003 251.16 112.935C251.271 112.866 251.326 112.756 251.326 112.602V112.572C251.326 112.2 251.221 111.912 251.011 111.707C250.804 111.503 250.494 111.401 250.082 111.401C249.653 111.401 249.315 111.496 249.068 111.686C248.824 111.874 248.654 112.082 248.561 112.312L247.363 112.04C247.505 111.642 247.713 111.321 247.985 111.077C248.261 110.83 248.578 110.651 248.936 110.54C249.294 110.426 249.67 110.369 250.065 110.369C250.326 110.369 250.603 110.401 250.896 110.463C251.191 110.523 251.467 110.634 251.723 110.795C251.981 110.957 252.193 111.189 252.358 111.49C252.522 111.788 252.605 112.176 252.605 112.653V117H251.36V116.105H251.309C251.227 116.27 251.103 116.432 250.939 116.591C250.774 116.75 250.562 116.882 250.304 116.987C250.045 117.092 249.735 117.145 249.375 117.145ZM249.652 116.122C250.004 116.122 250.305 116.053 250.555 115.913C250.808 115.774 251 115.592 251.13 115.368C251.264 115.141 251.331 114.898 251.331 114.639V113.795C251.285 113.841 251.197 113.884 251.066 113.923C250.939 113.96 250.792 113.993 250.627 114.021C250.463 114.047 250.302 114.071 250.146 114.094C249.99 114.114 249.859 114.131 249.754 114.145C249.507 114.176 249.281 114.229 249.076 114.303C248.875 114.376 248.713 114.483 248.591 114.622C248.471 114.759 248.412 114.94 248.412 115.168C248.412 115.483 248.528 115.722 248.761 115.884C248.994 116.043 249.291 116.122 249.652 116.122ZM258.357 110.455V111.477H254.782V110.455H258.357ZM255.741 108.886H257.015V115.078C257.015 115.325 257.052 115.511 257.126 115.636C257.2 115.759 257.295 115.842 257.411 115.888C257.531 115.93 257.66 115.952 257.799 115.952C257.901 115.952 257.991 115.945 258.067 115.93C258.144 115.916 258.204 115.905 258.246 115.896L258.477 116.949C258.403 116.977 258.298 117.006 258.161 117.034C258.025 117.065 257.854 117.082 257.65 117.085C257.315 117.091 257.002 117.031 256.712 116.906C256.423 116.781 256.188 116.588 256.009 116.327C255.83 116.065 255.741 115.737 255.741 115.342V108.886ZM260.767 117V110.455H262.041V117H260.767ZM261.41 109.445C261.189 109.445 260.998 109.371 260.839 109.223C260.683 109.072 260.605 108.893 260.605 108.686C260.605 108.476 260.683 108.297 260.839 108.149C260.998 107.999 261.189 107.923 261.41 107.923C261.632 107.923 261.821 107.999 261.977 108.149C262.136 108.297 262.216 108.476 262.216 108.686C262.216 108.893 262.136 109.072 261.977 109.223C261.821 109.371 261.632 109.445 261.41 109.445ZM267.512 117.132C266.898 117.132 266.363 116.991 265.906 116.71C265.448 116.429 265.093 116.036 264.84 115.53C264.587 115.024 264.461 114.433 264.461 113.757C264.461 113.078 264.587 112.484 264.84 111.976C265.093 111.467 265.448 111.072 265.906 110.791C266.363 110.51 266.898 110.369 267.512 110.369C268.126 110.369 268.661 110.51 269.119 110.791C269.576 111.072 269.931 111.467 270.184 111.976C270.437 112.484 270.563 113.078 270.563 113.757C270.563 114.433 270.437 115.024 270.184 115.53C269.931 116.036 269.576 116.429 269.119 116.71C268.661 116.991 268.126 117.132 267.512 117.132ZM267.516 116.062C267.914 116.062 268.244 115.957 268.505 115.747C268.766 115.537 268.96 115.257 269.085 114.908C269.212 114.558 269.276 114.173 269.276 113.753C269.276 113.335 269.212 112.952 269.085 112.602C268.96 112.25 268.766 111.967 268.505 111.754C268.244 111.541 267.914 111.435 267.516 111.435C267.116 111.435 266.783 111.541 266.519 111.754C266.258 111.967 266.063 112.25 265.935 112.602C265.81 112.952 265.748 113.335 265.748 113.753C265.748 114.173 265.81 114.558 265.935 114.908C266.063 115.257 266.258 115.537 266.519 115.747C266.783 115.957 267.116 116.062 267.516 116.062ZM274.26 113.114V117H272.985V110.455H274.208V111.52H274.289C274.44 111.173 274.676 110.895 274.997 110.685C275.321 110.474 275.728 110.369 276.22 110.369C276.666 110.369 277.056 110.463 277.392 110.651C277.727 110.835 277.987 111.111 278.172 111.477C278.356 111.844 278.449 112.297 278.449 112.837V117H277.174V112.99C277.174 112.516 277.051 112.145 276.804 111.878C276.556 111.608 276.217 111.473 275.785 111.473C275.49 111.473 275.227 111.537 274.997 111.665C274.77 111.793 274.589 111.98 274.456 112.227C274.325 112.472 274.26 112.767 274.26 113.114ZM287.873 117.124C287.288 117.124 286.783 117.017 286.36 116.804C285.94 116.591 285.616 116.301 285.388 115.935C285.161 115.565 285.048 115.148 285.048 114.682C285.048 114.327 285.121 114.011 285.269 113.736C285.417 113.457 285.623 113.2 285.887 112.964C286.151 112.729 286.457 112.491 286.803 112.253L288.21 111.26C288.448 111.104 288.634 110.939 288.768 110.766C288.901 110.589 288.968 110.372 288.968 110.114C288.968 109.909 288.88 109.713 288.704 109.526C288.528 109.338 288.292 109.244 287.996 109.244C287.792 109.244 287.612 109.294 287.455 109.393C287.302 109.493 287.181 109.621 287.093 109.777C287.008 109.93 286.965 110.092 286.965 110.263C286.965 110.462 287.019 110.662 287.127 110.864C287.238 111.065 287.38 111.274 287.553 111.49C287.727 111.703 287.908 111.925 288.099 112.155L292.151 117H290.711L287.357 113.058C287.076 112.726 286.815 112.413 286.573 112.121C286.332 111.825 286.136 111.527 285.985 111.226C285.837 110.922 285.763 110.594 285.763 110.241C285.763 109.841 285.854 109.486 286.036 109.176C286.221 108.864 286.478 108.619 286.808 108.443C287.137 108.267 287.523 108.179 287.967 108.179C288.415 108.179 288.8 108.267 289.121 108.443C289.445 108.616 289.694 108.848 289.867 109.138C290.043 109.425 290.131 109.739 290.131 110.08C290.131 110.494 290.028 110.861 289.82 111.179C289.616 111.494 289.333 111.784 288.972 112.048L287.221 113.339C286.88 113.589 286.643 113.837 286.509 114.081C286.379 114.322 286.313 114.511 286.313 114.648C286.313 114.898 286.377 115.129 286.505 115.342C286.636 115.555 286.817 115.726 287.05 115.854C287.286 115.982 287.562 116.045 287.877 116.045C288.201 116.045 288.516 115.976 288.823 115.837C289.133 115.695 289.413 115.491 289.663 115.227C289.915 114.963 290.116 114.646 290.263 114.277C290.411 113.908 290.485 113.494 290.485 113.037H291.636C291.636 113.599 291.572 114.075 291.444 114.464C291.316 114.851 291.161 115.166 290.979 115.411C290.8 115.652 290.631 115.841 290.472 115.977C290.421 116.023 290.373 116.068 290.327 116.114C290.282 116.159 290.234 116.205 290.183 116.25C289.887 116.548 289.529 116.768 289.109 116.911C288.691 117.053 288.279 117.124 287.873 117.124ZM303.23 112.053L302.075 112.257C302.027 112.109 301.95 111.969 301.845 111.835C301.743 111.702 301.604 111.592 301.428 111.507C301.251 111.422 301.031 111.379 300.767 111.379C300.406 111.379 300.105 111.46 299.864 111.622C299.622 111.781 299.501 111.987 299.501 112.24C299.501 112.459 299.582 112.635 299.744 112.768C299.906 112.902 300.168 113.011 300.528 113.097L301.568 113.335C302.17 113.474 302.619 113.689 302.915 113.979C303.21 114.268 303.358 114.645 303.358 115.108C303.358 115.5 303.244 115.849 303.017 116.156C302.793 116.46 302.479 116.699 302.075 116.872C301.675 117.045 301.21 117.132 300.682 117.132C299.949 117.132 299.351 116.976 298.888 116.663C298.425 116.348 298.141 115.901 298.036 115.321L299.267 115.134C299.344 115.455 299.501 115.697 299.74 115.862C299.979 116.024 300.29 116.105 300.673 116.105C301.091 116.105 301.425 116.018 301.675 115.845C301.925 115.669 302.05 115.455 302.05 115.202C302.05 114.997 301.973 114.825 301.82 114.686C301.669 114.547 301.438 114.442 301.125 114.371L300.017 114.128C299.406 113.989 298.955 113.767 298.662 113.463C298.372 113.159 298.227 112.774 298.227 112.308C298.227 111.922 298.335 111.584 298.551 111.294C298.767 111.004 299.065 110.778 299.446 110.616C299.827 110.452 300.263 110.369 300.754 110.369C301.462 110.369 302.018 110.523 302.425 110.83C302.831 111.134 303.099 111.541 303.23 112.053ZM309.905 114.286V110.455H311.184V117H309.931V115.866H309.863C309.712 116.216 309.471 116.507 309.138 116.74C308.809 116.97 308.398 117.085 307.907 117.085C307.486 117.085 307.114 116.993 306.79 116.808C306.469 116.621 306.216 116.344 306.032 115.977C305.85 115.611 305.759 115.158 305.759 114.618V110.455H307.033V114.464C307.033 114.911 307.157 115.266 307.404 115.53C307.651 115.794 307.972 115.926 308.367 115.926C308.605 115.926 308.843 115.866 309.078 115.747C309.317 115.628 309.515 115.447 309.671 115.206C309.83 114.964 309.908 114.658 309.905 114.286ZM313.998 117V108.273H315.272V111.516H315.349C315.423 111.379 315.529 111.222 315.668 111.043C315.808 110.864 316.001 110.707 316.248 110.574C316.495 110.438 316.822 110.369 317.228 110.369C317.756 110.369 318.228 110.503 318.643 110.77C319.058 111.037 319.383 111.422 319.619 111.925C319.857 112.428 319.977 113.033 319.977 113.74C319.977 114.447 319.859 115.054 319.623 115.56C319.387 116.062 319.063 116.45 318.651 116.723C318.239 116.993 317.769 117.128 317.241 117.128C316.843 117.128 316.518 117.061 316.265 116.928C316.015 116.794 315.819 116.638 315.677 116.459C315.535 116.28 315.425 116.121 315.349 115.982H315.242V117H313.998ZM315.246 113.727C315.246 114.187 315.313 114.591 315.447 114.938C315.58 115.284 315.773 115.555 316.026 115.751C316.279 115.945 316.589 116.041 316.955 116.041C317.336 116.041 317.654 115.94 317.91 115.739C318.165 115.534 318.359 115.257 318.489 114.908C318.623 114.558 318.69 114.165 318.69 113.727C318.69 113.295 318.624 112.908 318.494 112.564C318.366 112.22 318.173 111.949 317.914 111.75C317.658 111.551 317.339 111.452 316.955 111.452C316.586 111.452 316.273 111.547 316.018 111.737C315.765 111.928 315.573 112.193 315.442 112.534C315.312 112.875 315.246 113.273 315.246 113.727ZM327.312 112.053L326.157 112.257C326.109 112.109 326.032 111.969 325.927 111.835C325.825 111.702 325.686 111.592 325.51 111.507C325.333 111.422 325.113 111.379 324.849 111.379C324.488 111.379 324.187 111.46 323.946 111.622C323.704 111.781 323.583 111.987 323.583 112.24C323.583 112.459 323.664 112.635 323.826 112.768C323.988 112.902 324.25 113.011 324.61 113.097L325.65 113.335C326.252 113.474 326.701 113.689 326.997 113.979C327.292 114.268 327.44 114.645 327.44 115.108C327.44 115.5 327.326 115.849 327.099 116.156C326.875 116.46 326.561 116.699 326.157 116.872C325.757 117.045 325.292 117.132 324.764 117.132C324.031 117.132 323.433 116.976 322.97 116.663C322.507 116.348 322.223 115.901 322.118 115.321L323.349 115.134C323.426 115.455 323.583 115.697 323.822 115.862C324.061 116.024 324.372 116.105 324.755 116.105C325.173 116.105 325.507 116.018 325.757 115.845C326.007 115.669 326.132 115.455 326.132 115.202C326.132 114.997 326.055 114.825 325.902 114.686C325.751 114.547 325.52 114.442 325.207 114.371L324.099 114.128C323.488 113.989 323.037 113.767 322.744 113.463C322.454 113.159 322.309 112.774 322.309 112.308C322.309 111.922 322.417 111.584 322.633 111.294C322.849 111.004 323.147 110.778 323.528 110.616C323.909 110.452 324.345 110.369 324.836 110.369C325.544 110.369 326.1 110.523 326.507 110.83C326.913 111.134 327.181 111.541 327.312 112.053ZM329.841 117V110.455H331.115V117H329.841ZM330.484 109.445C330.263 109.445 330.072 109.371 329.913 109.223C329.757 109.072 329.679 108.893 329.679 108.686C329.679 108.476 329.757 108.297 329.913 108.149C330.072 107.999 330.263 107.923 330.484 107.923C330.706 107.923 330.895 107.999 331.051 108.149C331.21 108.297 331.29 108.476 331.29 108.686C331.29 108.893 331.21 109.072 331.051 109.223C330.895 109.371 330.706 109.445 330.484 109.445ZM336.279 117.128C335.751 117.128 335.279 116.993 334.865 116.723C334.453 116.45 334.129 116.062 333.893 115.56C333.66 115.054 333.544 114.447 333.544 113.74C333.544 113.033 333.662 112.428 333.897 111.925C334.136 111.422 334.463 111.037 334.877 110.77C335.292 110.503 335.762 110.369 336.288 110.369C336.694 110.369 337.021 110.438 337.268 110.574C337.518 110.707 337.711 110.864 337.848 111.043C337.987 111.222 338.095 111.379 338.172 111.516H338.248V108.273H339.522V117H338.278V115.982H338.172C338.095 116.121 337.984 116.28 337.839 116.459C337.697 116.638 337.501 116.794 337.251 116.928C337.001 117.061 336.677 117.128 336.279 117.128ZM336.561 116.041C336.927 116.041 337.237 115.945 337.49 115.751C337.745 115.555 337.939 115.284 338.069 114.938C338.203 114.591 338.27 114.187 338.27 113.727C338.27 113.273 338.204 112.875 338.074 112.534C337.943 112.193 337.751 111.928 337.498 111.737C337.245 111.547 336.933 111.452 336.561 111.452C336.177 111.452 335.858 111.551 335.602 111.75C335.346 111.949 335.153 112.22 335.022 112.564C334.895 112.908 334.831 113.295 334.831 113.727C334.831 114.165 334.896 114.558 335.027 114.908C335.157 115.257 335.35 115.534 335.606 115.739C335.865 115.94 336.183 116.041 336.561 116.041ZM342.341 117V110.455H343.615V117H342.341ZM342.984 109.445C342.763 109.445 342.572 109.371 342.413 109.223C342.257 109.072 342.179 108.893 342.179 108.686C342.179 108.476 342.257 108.297 342.413 108.149C342.572 107.999 342.763 107.923 342.984 107.923C343.206 107.923 343.395 107.999 343.551 108.149C343.71 108.297 343.79 108.476 343.79 108.686C343.79 108.893 343.71 109.072 343.551 109.223C343.395 109.371 343.206 109.445 342.984 109.445ZM348.234 117.145C347.819 117.145 347.444 117.068 347.109 116.915C346.774 116.759 346.508 116.533 346.312 116.237C346.119 115.942 346.022 115.58 346.022 115.151C346.022 114.781 346.093 114.477 346.235 114.239C346.377 114 346.569 113.811 346.811 113.672C347.052 113.533 347.322 113.428 347.62 113.357C347.919 113.286 348.223 113.232 348.532 113.195C348.924 113.149 349.243 113.112 349.487 113.084C349.731 113.053 349.909 113.003 350.02 112.935C350.13 112.866 350.186 112.756 350.186 112.602V112.572C350.186 112.2 350.081 111.912 349.87 111.707C349.663 111.503 349.353 111.401 348.941 111.401C348.512 111.401 348.174 111.496 347.927 111.686C347.683 111.874 347.514 112.082 347.42 112.312L346.223 112.04C346.365 111.642 346.572 111.321 346.845 111.077C347.12 110.83 347.437 110.651 347.795 110.54C348.153 110.426 348.529 110.369 348.924 110.369C349.186 110.369 349.463 110.401 349.755 110.463C350.051 110.523 350.326 110.634 350.582 110.795C350.841 110.957 351.052 111.189 351.217 111.49C351.382 111.788 351.464 112.176 351.464 112.653V117H350.22V116.105H350.169C350.086 116.27 349.963 116.432 349.798 116.591C349.633 116.75 349.422 116.882 349.163 116.987C348.904 117.092 348.595 117.145 348.234 117.145ZM348.511 116.122C348.863 116.122 349.164 116.053 349.414 115.913C349.667 115.774 349.859 115.592 349.99 115.368C350.123 115.141 350.19 114.898 350.19 114.639V113.795C350.145 113.841 350.056 113.884 349.926 113.923C349.798 113.96 349.652 113.993 349.487 114.021C349.322 114.047 349.162 114.071 349.005 114.094C348.849 114.114 348.718 114.131 348.613 114.145C348.366 114.176 348.14 114.229 347.936 114.303C347.734 114.376 347.572 114.483 347.45 114.622C347.331 114.759 347.271 114.94 347.271 115.168C347.271 115.483 347.387 115.722 347.62 115.884C347.853 116.043 348.15 116.122 348.511 116.122ZM354.161 117V110.455H355.393V111.494H355.461C355.58 111.142 355.79 110.865 356.092 110.663C356.396 110.459 356.739 110.357 357.123 110.357C357.202 110.357 357.296 110.359 357.404 110.365C357.515 110.371 357.602 110.378 357.664 110.386V111.605C357.613 111.591 357.522 111.575 357.391 111.558C357.261 111.538 357.13 111.528 356.999 111.528C356.698 111.528 356.43 111.592 356.194 111.72C355.961 111.845 355.776 112.02 355.64 112.244C355.504 112.466 355.435 112.719 355.435 113.003V117H354.161ZM359.767 117V110.455H361.041V117H359.767ZM360.41 109.445C360.189 109.445 359.998 109.371 359.839 109.223C359.683 109.072 359.605 108.893 359.605 108.686C359.605 108.476 359.683 108.297 359.839 108.149C359.998 107.999 360.189 107.923 360.41 107.923C360.632 107.923 360.821 107.999 360.977 108.149C361.136 108.297 361.216 108.476 361.216 108.686C361.216 108.893 361.136 109.072 360.977 109.223C360.821 109.371 360.632 109.445 360.41 109.445ZM366.576 117.132C365.931 117.132 365.376 116.994 364.91 116.719C364.447 116.44 364.089 116.05 363.836 115.547C363.586 115.041 363.461 114.449 363.461 113.77C363.461 113.099 363.586 112.509 363.836 111.997C364.089 111.486 364.441 111.087 364.893 110.8C365.347 110.513 365.879 110.369 366.487 110.369C366.856 110.369 367.214 110.43 367.56 110.553C367.907 110.675 368.218 110.866 368.494 111.128C368.769 111.389 368.987 111.729 369.146 112.146C369.305 112.561 369.384 113.065 369.384 113.659V114.111H364.181V113.156H368.136C368.136 112.821 368.067 112.524 367.931 112.266C367.795 112.004 367.603 111.798 367.356 111.648C367.112 111.497 366.825 111.422 366.495 111.422C366.137 111.422 365.825 111.51 365.558 111.686C365.293 111.859 365.089 112.087 364.944 112.368C364.802 112.646 364.731 112.949 364.731 113.276V114.021C364.731 114.459 364.808 114.831 364.961 115.138C365.117 115.445 365.335 115.679 365.613 115.841C365.891 116 366.217 116.08 366.589 116.08C366.83 116.08 367.05 116.045 367.249 115.977C367.448 115.906 367.62 115.801 367.765 115.662C367.91 115.523 368.021 115.351 368.097 115.146L369.303 115.364C369.207 115.719 369.033 116.03 368.783 116.297C368.536 116.561 368.225 116.767 367.85 116.915C367.478 117.06 367.053 117.132 366.576 117.132ZM376.703 112.053L375.548 112.257C375.5 112.109 375.423 111.969 375.318 111.835C375.216 111.702 375.076 111.592 374.9 111.507C374.724 111.422 374.504 111.379 374.24 111.379C373.879 111.379 373.578 111.46 373.336 111.622C373.095 111.781 372.974 111.987 372.974 112.24C372.974 112.459 373.055 112.635 373.217 112.768C373.379 112.902 373.64 113.011 374.001 113.097L375.041 113.335C375.643 113.474 376.092 113.689 376.387 113.979C376.683 114.268 376.831 114.645 376.831 115.108C376.831 115.5 376.717 115.849 376.49 116.156C376.265 116.46 375.951 116.699 375.548 116.872C375.147 117.045 374.683 117.132 374.154 117.132C373.422 117.132 372.824 116.976 372.36 116.663C371.897 116.348 371.613 115.901 371.508 115.321L372.74 115.134C372.816 115.455 372.974 115.697 373.213 115.862C373.451 116.024 373.762 116.105 374.146 116.105C374.564 116.105 374.897 116.018 375.147 115.845C375.397 115.669 375.522 115.455 375.522 115.202C375.522 114.997 375.446 114.825 375.292 114.686C375.142 114.547 374.91 114.442 374.598 114.371L373.49 114.128C372.879 113.989 372.427 113.767 372.135 113.463C371.845 113.159 371.7 112.774 371.7 112.308C371.7 111.922 371.808 111.584 372.024 111.294C372.24 111.004 372.538 110.778 372.919 110.616C373.299 110.452 373.735 110.369 374.227 110.369C374.934 110.369 375.491 110.523 375.897 110.83C376.304 111.134 376.572 111.541 376.703 112.053Z" fill="#5D6598"/>
<path d="M179.5 97.5H388C391.038 97.5 393.5 99.9624 393.5 103V123C393.5 126.038 391.038 128.5 388 128.5H179.5V97.5Z" stroke="#CCCFE0"/>
<path d="M6 97.5H179.5V128.5H6C2.96244 128.5 0.5 126.038 0.5 123V103C0.5 99.9624 2.96243 97.5 6 97.5Z" fill="#F3F7FC"/>
<path d="M16.5284 109.406V108.273H23.2827V109.406H20.5597V117H19.2472V109.406H16.5284ZM26.9471 113.114V117H25.6729V108.273H26.93V111.52H27.011C27.1644 111.168 27.3988 110.888 27.7141 110.68C28.0295 110.473 28.4414 110.369 28.9499 110.369C29.3988 110.369 29.7908 110.462 30.1261 110.646C30.4641 110.831 30.7255 111.107 30.9102 111.473C31.0977 111.837 31.1914 112.291 31.1914 112.837V117H29.9173V112.99C29.9173 112.51 29.7937 112.138 29.5465 111.874C29.2994 111.607 28.9556 111.473 28.5153 111.473C28.2141 111.473 27.9442 111.537 27.7056 111.665C27.4698 111.793 27.2837 111.98 27.1474 112.227C27.0138 112.472 26.9471 112.767 26.9471 113.114ZM33.8917 117V110.455H35.1658V117H33.8917ZM34.5352 109.445C34.3136 109.445 34.1232 109.371 33.9641 109.223C33.8079 109.072 33.7298 108.893 33.7298 108.686C33.7298 108.476 33.8079 108.297 33.9641 108.149C34.1232 107.999 34.3136 107.923 34.5352 107.923C34.7567 107.923 34.9457 107.999 35.1019 108.149C35.261 108.297 35.3406 108.476 35.3406 108.686C35.3406 108.893 35.261 109.072 35.1019 109.223C34.9457 109.371 34.7567 109.445 34.5352 109.445ZM42.7848 112.053L41.63 112.257C41.5817 112.109 41.505 111.969 41.3999 111.835C41.2976 111.702 41.1584 111.592 40.9822 111.507C40.8061 111.422 40.5859 111.379 40.3217 111.379C39.9609 111.379 39.6598 111.46 39.4183 111.622C39.1768 111.781 39.0561 111.987 39.0561 112.24C39.0561 112.459 39.1371 112.635 39.299 112.768C39.4609 112.902 39.7223 113.011 40.0831 113.097L41.1229 113.335C41.7251 113.474 42.174 113.689 42.4695 113.979C42.7649 114.268 42.9126 114.645 42.9126 115.108C42.9126 115.5 42.799 115.849 42.5717 116.156C42.3473 116.46 42.0334 116.699 41.63 116.872C41.2294 117.045 40.7649 117.132 40.2365 117.132C39.5036 117.132 38.9055 116.976 38.4425 116.663C37.9794 116.348 37.6953 115.901 37.5902 115.321L38.8217 115.134C38.8984 115.455 39.0561 115.697 39.2947 115.862C39.5334 116.024 39.8445 116.105 40.228 116.105C40.6456 116.105 40.9794 116.018 41.2294 115.845C41.4794 115.669 41.6044 115.455 41.6044 115.202C41.6044 114.997 41.5277 114.825 41.3743 114.686C41.2237 114.547 40.9922 114.442 40.6797 114.371L39.5717 114.128C38.9609 113.989 38.5092 113.767 38.2166 113.463C37.9268 113.159 37.782 112.774 37.782 112.308C37.782 111.922 37.8899 111.584 38.1058 111.294C38.3217 111.004 38.62 110.778 39.0007 110.616C39.3814 110.452 39.8175 110.369 40.3089 110.369C41.0163 110.369 41.5732 110.523 41.9794 110.83C42.3857 111.134 42.6541 111.541 42.7848 112.053ZM52.2464 117.132C51.6328 117.132 51.0973 116.991 50.6399 116.71C50.1825 116.429 49.8274 116.036 49.5746 115.53C49.3217 115.024 49.1953 114.433 49.1953 113.757C49.1953 113.078 49.3217 112.484 49.5746 111.976C49.8274 111.467 50.1825 111.072 50.6399 110.791C51.0973 110.51 51.6328 110.369 52.2464 110.369C52.8601 110.369 53.3956 110.51 53.853 110.791C54.3104 111.072 54.6655 111.467 54.9183 111.976C55.1712 112.484 55.2976 113.078 55.2976 113.757C55.2976 114.433 55.1712 115.024 54.9183 115.53C54.6655 116.036 54.3104 116.429 53.853 116.71C53.3956 116.991 52.8601 117.132 52.2464 117.132ZM52.2507 116.062C52.6484 116.062 52.978 115.957 53.2393 115.747C53.5007 115.537 53.6939 115.257 53.8189 114.908C53.9467 114.558 54.0107 114.173 54.0107 113.753C54.0107 113.335 53.9467 112.952 53.8189 112.602C53.6939 112.25 53.5007 111.967 53.2393 111.754C52.978 111.541 52.6484 111.435 52.2507 111.435C51.8501 111.435 51.5178 111.541 51.2536 111.754C50.9922 111.967 50.7976 112.25 50.6697 112.602C50.5447 112.952 50.4822 113.335 50.4822 113.753C50.4822 114.173 50.5447 114.558 50.6697 114.908C50.7976 115.257 50.9922 115.537 51.2536 115.747C51.5178 115.957 51.8501 116.062 52.2507 116.062ZM57.7198 117V110.455H58.9513V111.494H59.0195C59.1388 111.142 59.3491 110.865 59.6502 110.663C59.9542 110.459 60.2979 110.357 60.6815 110.357C60.761 110.357 60.8548 110.359 60.9627 110.365C61.0735 110.371 61.1602 110.378 61.2227 110.386V111.605C61.1715 111.591 61.0806 111.575 60.9499 111.558C60.8192 111.538 60.6886 111.528 60.5579 111.528C60.2567 111.528 59.9883 111.592 59.7525 111.72C59.5195 111.845 59.3349 112.02 59.1985 112.244C59.0621 112.466 58.994 112.719 58.994 113.003V117H57.7198ZM65.8352 119.591C65.3153 119.591 64.8679 119.523 64.4929 119.386C64.1207 119.25 63.8168 119.07 63.581 118.845C63.3452 118.621 63.169 118.375 63.0526 118.108L64.1477 117.656C64.2244 117.781 64.3267 117.913 64.4545 118.053C64.5852 118.195 64.7614 118.315 64.983 118.415C65.2074 118.514 65.4957 118.564 65.848 118.564C66.331 118.564 66.7301 118.446 67.0455 118.21C67.3608 117.977 67.5185 117.605 67.5185 117.094V115.807H67.4375C67.3608 115.946 67.25 116.101 67.1051 116.271C66.9631 116.442 66.767 116.589 66.517 116.714C66.267 116.839 65.9418 116.902 65.5412 116.902C65.0241 116.902 64.5582 116.781 64.1435 116.54C63.7315 116.295 63.4048 115.936 63.1634 115.462C62.9247 114.984 62.8054 114.398 62.8054 113.702C62.8054 113.006 62.9233 112.409 63.1591 111.912C63.3977 111.415 63.7244 111.034 64.1392 110.77C64.554 110.503 65.0241 110.369 65.5497 110.369C65.956 110.369 66.2841 110.438 66.5341 110.574C66.7841 110.707 66.9787 110.864 67.1179 111.043C67.2599 111.222 67.3693 111.379 67.446 111.516H67.5398V110.455H68.7884V117.145C68.7884 117.707 68.6577 118.169 68.3963 118.53C68.1349 118.891 67.7813 119.158 67.3352 119.331C66.892 119.504 66.392 119.591 65.8352 119.591ZM65.8224 115.845C66.1889 115.845 66.4986 115.76 66.7514 115.589C67.0071 115.416 67.2003 115.169 67.331 114.848C67.4645 114.524 67.5312 114.136 67.5312 113.685C67.5312 113.244 67.4659 112.857 67.3352 112.521C67.2045 112.186 67.0128 111.925 66.7599 111.737C66.5071 111.547 66.1946 111.452 65.8224 111.452C65.4389 111.452 65.1193 111.551 64.8636 111.75C64.608 111.946 64.4148 112.213 64.2841 112.551C64.1563 112.889 64.0923 113.267 64.0923 113.685C64.0923 114.114 64.1577 114.49 64.2884 114.814C64.419 115.138 64.6122 115.391 64.8679 115.572C65.1264 115.754 65.4446 115.845 65.8224 115.845ZM73.402 117.145C72.9872 117.145 72.6122 117.068 72.277 116.915C71.9418 116.759 71.6761 116.533 71.4801 116.237C71.2869 115.942 71.1903 115.58 71.1903 115.151C71.1903 114.781 71.2614 114.477 71.4034 114.239C71.5455 114 71.7372 113.811 71.9787 113.672C72.2202 113.533 72.4901 113.428 72.7884 113.357C73.0866 113.286 73.3906 113.232 73.7003 113.195C74.0923 113.149 74.4105 113.112 74.6548 113.084C74.8991 113.053 75.0767 113.003 75.1875 112.935C75.2983 112.866 75.3537 112.756 75.3537 112.602V112.572C75.3537 112.2 75.2486 111.912 75.0384 111.707C74.831 111.503 74.5213 111.401 74.1094 111.401C73.6804 111.401 73.3423 111.496 73.0952 111.686C72.8509 111.874 72.6818 112.082 72.5881 112.312L71.3906 112.04C71.5327 111.642 71.7401 111.321 72.0128 111.077C72.2884 110.83 72.6051 110.651 72.9631 110.54C73.321 110.426 73.6974 110.369 74.0923 110.369C74.3537 110.369 74.6307 110.401 74.9233 110.463C75.2188 110.523 75.4943 110.634 75.75 110.795C76.0085 110.957 76.2202 111.189 76.3849 111.49C76.5497 111.788 76.6321 112.176 76.6321 112.653V117H75.3878V116.105H75.3366C75.2543 116.27 75.1307 116.432 74.9659 116.591C74.8011 116.75 74.5895 116.882 74.331 116.987C74.0724 117.092 73.7628 117.145 73.402 117.145ZM73.679 116.122C74.0313 116.122 74.3324 116.053 74.5824 115.913C74.8352 115.774 75.027 115.592 75.1577 115.368C75.2912 115.141 75.358 114.898 75.358 114.639V113.795C75.3125 113.841 75.2244 113.884 75.0938 113.923C74.9659 113.96 74.8196 113.993 74.6548 114.021C74.4901 114.047 74.3295 114.071 74.1733 114.094C74.017 114.114 73.8864 114.131 73.7812 114.145C73.5341 114.176 73.3082 114.229 73.1037 114.303C72.902 114.376 72.7401 114.483 72.6179 114.622C72.4986 114.759 72.4389 114.94 72.4389 115.168C72.4389 115.483 72.5554 115.722 72.7884 115.884C73.0213 116.043 73.3182 116.122 73.679 116.122ZM80.6033 113.114V117H79.3292V110.455H80.5522V111.52H80.6332C80.7837 111.173 81.0195 110.895 81.3406 110.685C81.6644 110.474 82.0721 110.369 82.5636 110.369C83.0096 110.369 83.4002 110.463 83.7354 110.651C84.0707 110.835 84.3306 111.111 84.5153 111.477C84.6999 111.844 84.7923 112.297 84.7923 112.837V117H83.5181V112.99C83.5181 112.516 83.3945 112.145 83.1474 111.878C82.9002 111.608 82.5607 111.473 82.1289 111.473C81.8335 111.473 81.5707 111.537 81.3406 111.665C81.1133 111.793 80.9329 111.98 80.7994 112.227C80.6687 112.472 80.6033 112.767 80.6033 113.114ZM87.5011 117V110.455H88.7752V117H87.5011ZM88.1445 109.445C87.9229 109.445 87.7326 109.371 87.5735 109.223C87.4173 109.072 87.3391 108.893 87.3391 108.686C87.3391 108.476 87.4173 108.297 87.5735 108.149C87.7326 107.999 87.9229 107.923 88.1445 107.923C88.3661 107.923 88.555 107.999 88.7113 108.149C88.8704 108.297 88.9499 108.476 88.9499 108.686C88.9499 108.893 88.8704 109.072 88.7113 109.223C88.555 109.371 88.3661 109.445 88.1445 109.445ZM91.353 117V116.126L94.8984 111.622V111.562H91.468V110.455H96.4879V111.384L93.0788 115.832V115.892H96.6072V117H91.353ZM101.015 117.145C100.6 117.145 100.225 117.068 99.8903 116.915C99.555 116.759 99.2894 116.533 99.0934 116.237C98.9002 115.942 98.8036 115.58 98.8036 115.151C98.8036 114.781 98.8746 114.477 99.0167 114.239C99.1587 114 99.3505 113.811 99.592 113.672C99.8335 113.533 100.103 113.428 100.402 113.357C100.7 113.286 101.004 113.232 101.314 113.195C101.706 113.149 102.024 113.112 102.268 113.084C102.512 113.053 102.69 113.003 102.801 112.935C102.912 112.866 102.967 112.756 102.967 112.602V112.572C102.967 112.2 102.862 111.912 102.652 111.707C102.444 111.503 102.135 111.401 101.723 111.401C101.294 111.401 100.956 111.496 100.708 111.686C100.464 111.874 100.295 112.082 100.201 112.312L99.0039 112.04C99.146 111.642 99.3533 111.321 99.6261 111.077C99.9016 110.83 100.218 110.651 100.576 110.54C100.934 110.426 101.311 110.369 101.706 110.369C101.967 110.369 102.244 110.401 102.537 110.463C102.832 110.523 103.108 110.634 103.363 110.795C103.622 110.957 103.833 111.189 103.998 111.49C104.163 111.788 104.245 112.176 104.245 112.653V117H103.001V116.105H102.95C102.868 116.27 102.744 116.432 102.579 116.591C102.414 116.75 102.203 116.882 101.944 116.987C101.686 117.092 101.376 117.145 101.015 117.145ZM101.292 116.122C101.645 116.122 101.946 116.053 102.196 115.913C102.449 115.774 102.64 115.592 102.771 115.368C102.904 115.141 102.971 114.898 102.971 114.639V113.795C102.926 113.841 102.838 113.884 102.707 113.923C102.579 113.96 102.433 113.993 102.268 114.021C102.103 114.047 101.943 114.071 101.787 114.094C101.63 114.114 101.5 114.131 101.395 114.145C101.147 114.176 100.922 114.229 100.717 114.303C100.515 114.376 100.353 114.483 100.231 114.622C100.112 114.759 100.052 114.94 100.052 115.168C100.052 115.483 100.169 115.722 100.402 115.884C100.635 116.043 100.931 116.122 101.292 116.122ZM109.998 110.455V111.477H106.423V110.455H109.998ZM107.381 108.886H108.656V115.078C108.656 115.325 108.692 115.511 108.766 115.636C108.84 115.759 108.935 115.842 109.052 115.888C109.171 115.93 109.3 115.952 109.44 115.952C109.542 115.952 109.631 115.945 109.708 115.93C109.785 115.916 109.844 115.905 109.887 115.896L110.117 116.949C110.043 116.977 109.938 117.006 109.802 117.034C109.665 117.065 109.495 117.082 109.29 117.085C108.955 117.091 108.643 117.031 108.353 116.906C108.063 116.781 107.829 116.588 107.65 116.327C107.471 116.065 107.381 115.737 107.381 115.342V108.886ZM112.407 117V110.455H113.681V117H112.407ZM113.051 109.445C112.829 109.445 112.639 109.371 112.48 109.223C112.324 109.072 112.245 108.893 112.245 108.686C112.245 108.476 112.324 108.297 112.48 108.149C112.639 107.999 112.829 107.923 113.051 107.923C113.272 107.923 113.461 107.999 113.618 108.149C113.777 108.297 113.856 108.476 113.856 108.686C113.856 108.893 113.777 109.072 113.618 109.223C113.461 109.371 113.272 109.445 113.051 109.445ZM119.153 117.132C118.539 117.132 118.004 116.991 117.546 116.71C117.089 116.429 116.734 116.036 116.481 115.53C116.228 115.024 116.102 114.433 116.102 113.757C116.102 113.078 116.228 112.484 116.481 111.976C116.734 111.467 117.089 111.072 117.546 110.791C118.004 110.51 118.539 110.369 119.153 110.369C119.766 110.369 120.302 110.51 120.759 110.791C121.217 111.072 121.572 111.467 121.825 111.976C122.077 112.484 122.204 113.078 122.204 113.757C122.204 114.433 122.077 115.024 121.825 115.53C121.572 116.036 121.217 116.429 120.759 116.71C120.302 116.991 119.766 117.132 119.153 117.132ZM119.157 116.062C119.555 116.062 119.884 115.957 120.146 115.747C120.407 115.537 120.6 115.257 120.725 114.908C120.853 114.558 120.917 114.173 120.917 113.753C120.917 113.335 120.853 112.952 120.725 112.602C120.6 112.25 120.407 111.967 120.146 111.754C119.884 111.541 119.555 111.435 119.157 111.435C118.756 111.435 118.424 111.541 118.16 111.754C117.898 111.967 117.704 112.25 117.576 112.602C117.451 112.952 117.388 113.335 117.388 113.753C117.388 114.173 117.451 114.558 117.576 114.908C117.704 115.257 117.898 115.537 118.16 115.747C118.424 115.957 118.756 116.062 119.157 116.062ZM125.9 113.114V117H124.626V110.455H125.849V111.52H125.93C126.081 111.173 126.316 110.895 126.637 110.685C126.961 110.474 127.369 110.369 127.86 110.369C128.306 110.369 128.697 110.463 129.032 110.651C129.368 110.835 129.627 111.111 129.812 111.477C129.997 111.844 130.089 112.297 130.089 112.837V117H128.815V112.99C128.815 112.516 128.691 112.145 128.444 111.878C128.197 111.608 127.858 111.473 127.426 111.473C127.13 111.473 126.868 111.537 126.637 111.665C126.41 111.793 126.23 111.98 126.096 112.227C125.966 112.472 125.9 112.767 125.9 113.114ZM139.731 117.132C139.117 117.132 138.582 116.991 138.124 116.71C137.667 116.429 137.312 116.036 137.059 115.53C136.806 115.024 136.68 114.433 136.68 113.757C136.68 113.078 136.806 112.484 137.059 111.976C137.312 111.467 137.667 111.072 138.124 110.791C138.582 110.51 139.117 110.369 139.731 110.369C140.344 110.369 140.88 110.51 141.337 110.791C141.795 111.072 142.15 111.467 142.403 111.976C142.656 112.484 142.782 113.078 142.782 113.757C142.782 114.433 142.656 115.024 142.403 115.53C142.15 116.036 141.795 116.429 141.337 116.71C140.88 116.991 140.344 117.132 139.731 117.132ZM139.735 116.062C140.133 116.062 140.462 115.957 140.724 115.747C140.985 115.537 141.178 115.257 141.303 114.908C141.431 114.558 141.495 114.173 141.495 113.753C141.495 113.335 141.431 112.952 141.303 112.602C141.178 112.25 140.985 111.967 140.724 111.754C140.462 111.541 140.133 111.435 139.735 111.435C139.335 111.435 139.002 111.541 138.738 111.754C138.477 111.967 138.282 112.25 138.154 112.602C138.029 112.952 137.967 113.335 137.967 113.753C137.967 114.173 138.029 114.558 138.154 114.908C138.282 115.257 138.477 115.537 138.738 115.747C139.002 115.957 139.335 116.062 139.735 116.062ZM146.478 113.114V117H145.204V110.455H146.427V111.52H146.508C146.659 111.173 146.895 110.895 147.216 110.685C147.539 110.474 147.947 110.369 148.439 110.369C148.885 110.369 149.275 110.463 149.61 110.651C149.946 110.835 150.206 111.111 150.39 111.477C150.575 111.844 150.667 112.297 150.667 112.837V117H149.393V112.99C149.393 112.516 149.27 112.145 149.022 111.878C148.775 111.608 148.436 111.473 148.004 111.473C147.708 111.473 147.446 111.537 147.216 111.665C146.988 111.793 146.808 111.98 146.674 112.227C146.544 112.472 146.478 112.767 146.478 113.114ZM154.65 108.273V117H153.376V108.273H154.65ZM158.17 119.455C157.979 119.455 157.806 119.439 157.65 119.408C157.494 119.379 157.377 119.348 157.3 119.314L157.607 118.27C157.84 118.332 158.048 118.359 158.229 118.351C158.411 118.342 158.572 118.274 158.711 118.146C158.853 118.018 158.978 117.81 159.086 117.52L159.244 117.085L156.849 110.455H158.212L159.87 115.534H159.938L161.596 110.455H162.964L160.266 117.874C160.141 118.214 159.982 118.503 159.789 118.739C159.596 118.977 159.366 119.156 159.099 119.276C158.832 119.395 158.522 119.455 158.17 119.455Z" fill="#1757C2"/>
<path d="M6 97.5H179.5V128.5H6C2.96244 128.5 0.5 126.038 0.5 123V103C0.5 99.9624 2.96243 97.5 6 97.5Z" stroke="#1757C2"/>
<defs>
<clipPath id="clip0_201_10482">
<rect width="20" height="20" fill="white" transform="translate(948 7)"/>
</clipPath>
<clipPath id="clip1_201_10482">
<rect width="24" height="24" fill="white" transform="translate(1060 5)"/>
</clipPath>
</defs>
</svg>
