<svg width="1084" height="56" viewBox="0 0 1084 56" fill="none" xmlns="http://www.w3.org/2000/svg">
<path d="M9.15341 14.0398C9.04356 13.6951 8.89583 13.3864 8.71023 13.1136C8.52841 12.8371 8.31061 12.6023 8.05682 12.4091C7.80303 12.2121 7.51326 12.0625 7.1875 11.9602C6.86553 11.858 6.51136 11.8068 6.125 11.8068C5.4697 11.8068 4.87879 11.9754 4.35227 12.3125C3.82576 12.6496 3.40909 13.1439 3.10227 13.7955C2.79924 14.4432 2.64773 15.2367 2.64773 16.1761C2.64773 17.1193 2.80114 17.9167 3.10795 18.5682C3.41477 19.2197 3.83523 19.714 4.36932 20.0511C4.90341 20.3883 5.51136 20.5568 6.19318 20.5568C6.82576 20.5568 7.37689 20.428 7.84659 20.1705C8.32008 19.9129 8.68561 19.5492 8.94318 19.0795C9.20455 18.6061 9.33523 18.0492 9.33523 17.4091L9.78977 17.4943H6.46023V16.0455H11.0341V17.3693C11.0341 18.3466 10.8258 19.1951 10.4091 19.9148C9.99621 20.6307 9.42424 21.1837 8.69318 21.5739C7.96591 21.964 7.13258 22.1591 6.19318 22.1591C5.14015 22.1591 4.21591 21.9167 3.42045 21.4318C2.62879 20.947 2.01136 20.2595 1.56818 19.3693C1.125 18.4754 0.903409 17.4148 0.903409 16.1875C0.903409 15.2595 1.0322 14.4261 1.28977 13.6875C1.54735 12.9489 1.90909 12.322 2.375 11.8068C2.8447 11.2879 3.39583 10.892 4.02841 10.6193C4.66477 10.3428 5.35985 10.2045 6.11364 10.2045C6.74242 10.2045 7.32765 10.2973 7.86932 10.483C8.41477 10.6686 8.89962 10.9318 9.32386 11.2727C9.75189 11.6136 10.1061 12.0189 10.3864 12.4886C10.6667 12.9545 10.8561 13.4716 10.9545 14.0398H9.15341ZM14.8253 10.3636V22H13.1264V10.3636H14.8253ZM20.7869 22.1761C19.9688 22.1761 19.2547 21.9886 18.6449 21.6136C18.035 21.2386 17.5616 20.714 17.2244 20.0398C16.8873 19.3655 16.7188 18.5777 16.7188 17.6761C16.7188 16.7708 16.8873 15.9792 17.2244 15.3011C17.5616 14.6231 18.035 14.0966 18.6449 13.7216C19.2547 13.3466 19.9688 13.1591 20.7869 13.1591C21.6051 13.1591 22.3191 13.3466 22.929 13.7216C23.5388 14.0966 24.0123 14.6231 24.3494 15.3011C24.6866 15.9792 24.8551 16.7708 24.8551 17.6761C24.8551 18.5777 24.6866 19.3655 24.3494 20.0398C24.0123 20.714 23.5388 21.2386 22.929 21.6136C22.3191 21.9886 21.6051 22.1761 20.7869 22.1761ZM20.7926 20.75C21.3229 20.75 21.7623 20.6098 22.1108 20.3295C22.4593 20.0492 22.7169 19.6761 22.8835 19.2102C23.054 18.7443 23.1392 18.2311 23.1392 17.6705C23.1392 17.1136 23.054 16.6023 22.8835 16.1364C22.7169 15.6667 22.4593 15.2898 22.1108 15.0057C21.7623 14.7216 21.3229 14.5795 20.7926 14.5795C20.2585 14.5795 19.8153 14.7216 19.4631 15.0057C19.1146 15.2898 18.8551 15.6667 18.6847 16.1364C18.518 16.6023 18.4347 17.1136 18.4347 17.6705C18.4347 18.2311 18.518 18.7443 18.6847 19.2102C18.8551 19.6761 19.1146 20.0492 19.4631 20.3295C19.8153 20.6098 20.2585 20.75 20.7926 20.75ZM26.8878 22V10.3636H28.5866V14.6875H28.6889C28.7874 14.5057 28.9295 14.2955 29.1151 14.0568C29.3007 13.8182 29.5582 13.6098 29.8878 13.4318C30.2173 13.25 30.6529 13.1591 31.1946 13.1591C31.8991 13.1591 32.5279 13.3371 33.081 13.6932C33.634 14.0492 34.0677 14.5625 34.3821 15.233C34.7003 15.9034 34.8594 16.7102 34.8594 17.6534C34.8594 18.5966 34.7022 19.4053 34.3878 20.0795C34.0734 20.75 33.6416 21.267 33.0923 21.6307C32.5431 21.9905 31.9162 22.1705 31.2116 22.1705C30.6813 22.1705 30.2476 22.0814 29.9105 21.9034C29.5772 21.7254 29.3158 21.517 29.1264 21.2784C28.937 21.0398 28.7912 20.8277 28.6889 20.642H28.5469V22H26.8878ZM28.5526 17.6364C28.5526 18.25 28.6416 18.7879 28.8196 19.25C28.9976 19.7121 29.2552 20.0739 29.5923 20.3352C29.9295 20.5928 30.3423 20.7216 30.831 20.7216C31.3385 20.7216 31.7628 20.5871 32.1037 20.3182C32.4446 20.0455 32.7022 19.6761 32.8764 19.2102C33.0545 18.7443 33.1435 18.2197 33.1435 17.6364C33.1435 17.0606 33.0563 16.5436 32.8821 16.0852C32.7116 15.6269 32.4541 15.2652 32.1094 15C31.7685 14.7348 31.3423 14.6023 30.831 14.6023C30.3385 14.6023 29.9219 14.7292 29.581 14.983C29.2438 15.2367 28.9882 15.5909 28.8139 16.0455C28.6397 16.5 28.5526 17.0303 28.5526 17.6364ZM39.3068 22.1932C38.7538 22.1932 38.2538 22.0909 37.8068 21.8864C37.3598 21.678 37.0057 21.3769 36.7443 20.983C36.4867 20.589 36.358 20.1061 36.358 19.5341C36.358 19.0417 36.4527 18.6364 36.642 18.3182C36.8314 18 37.0871 17.7481 37.4091 17.5625C37.7311 17.3769 38.0909 17.2367 38.4886 17.142C38.8864 17.0473 39.2917 16.9754 39.7045 16.9261C40.2273 16.8655 40.6515 16.8163 40.9773 16.7784C41.303 16.7367 41.5398 16.6705 41.6875 16.5795C41.8352 16.4886 41.9091 16.3409 41.9091 16.1364V16.0966C41.9091 15.6004 41.7689 15.2159 41.4886 14.9432C41.2121 14.6705 40.7992 14.5341 40.25 14.5341C39.678 14.5341 39.2273 14.661 38.8977 14.9148C38.572 15.1648 38.3466 15.4432 38.2216 15.75L36.625 15.3864C36.8144 14.8561 37.0909 14.428 37.4545 14.1023C37.822 13.7727 38.2443 13.5341 38.7216 13.3864C39.1989 13.2348 39.7008 13.1591 40.2273 13.1591C40.5758 13.1591 40.9451 13.2008 41.3352 13.2841C41.7292 13.3636 42.0966 13.5114 42.4375 13.7273C42.7822 13.9432 43.0644 14.2519 43.2841 14.6534C43.5038 15.0511 43.6136 15.5682 43.6136 16.2045V22H41.9545V20.8068H41.8864C41.7765 21.0265 41.6117 21.2424 41.392 21.4545C41.1723 21.6667 40.8902 21.8428 40.5455 21.983C40.2008 22.1231 39.7879 22.1932 39.3068 22.1932ZM39.6761 20.8295C40.1458 20.8295 40.5473 20.7367 40.8807 20.5511C41.2178 20.3655 41.4735 20.1231 41.6477 19.8239C41.8258 19.5208 41.9148 19.197 41.9148 18.8523V17.7273C41.8542 17.7879 41.7367 17.8447 41.5625 17.8977C41.392 17.947 41.197 17.9905 40.9773 18.0284C40.7576 18.0625 40.5436 18.0947 40.3352 18.125C40.1269 18.1515 39.9527 18.1742 39.8125 18.1932C39.483 18.2348 39.1818 18.3049 38.9091 18.4034C38.6402 18.5019 38.4242 18.6439 38.2614 18.8295C38.1023 19.0114 38.0227 19.2538 38.0227 19.5568C38.0227 19.9773 38.178 20.2955 38.4886 20.5114C38.7992 20.7235 39.1951 20.8295 39.6761 20.8295ZM47.5753 10.3636V22H45.8764V10.3636H47.5753ZM54.2315 22V10.3636H58.4929C59.3187 10.3636 60.0024 10.5 60.544 10.7727C61.0857 11.0417 61.491 11.4072 61.7599 11.8693C62.0289 12.3277 62.1634 12.8447 62.1634 13.4205C62.1634 13.9053 62.0743 14.3144 61.8963 14.6477C61.7183 14.9773 61.4796 15.2424 61.1804 15.4432C60.8849 15.6402 60.5592 15.7841 60.2031 15.875V15.9886C60.5895 16.0076 60.9664 16.1326 61.3338 16.3636C61.705 16.5909 62.0118 16.9148 62.2543 17.3352C62.4967 17.7557 62.6179 18.267 62.6179 18.8693C62.6179 19.464 62.4777 19.9981 62.1974 20.4716C61.9209 20.9413 61.4929 21.3144 60.9134 21.5909C60.3338 21.8636 59.5933 22 58.6918 22H54.2315ZM55.9872 20.4943H58.5213C59.3622 20.4943 59.9645 20.3314 60.3281 20.0057C60.6918 19.6799 60.8736 19.2727 60.8736 18.7841C60.8736 18.4167 60.7808 18.0795 60.5952 17.7727C60.4096 17.4659 60.1444 17.2216 59.7997 17.0398C59.4588 16.858 59.0535 16.767 58.5838 16.767H55.9872V20.4943ZM55.9872 15.3977H58.3395C58.7334 15.3977 59.0876 15.322 59.402 15.1705C59.7202 15.0189 59.9721 14.8068 60.1577 14.5341C60.3471 14.2576 60.4418 13.9318 60.4418 13.5568C60.4418 13.0758 60.2732 12.6723 59.9361 12.3466C59.599 12.0208 59.0819 11.858 58.3849 11.858H55.9872V15.3977ZM67.1037 22.1932C66.5507 22.1932 66.0507 22.0909 65.6037 21.8864C65.1567 21.678 64.8026 21.3769 64.5412 20.983C64.2836 20.589 64.1548 20.1061 64.1548 19.5341C64.1548 19.0417 64.2495 18.6364 64.4389 18.3182C64.6283 18 64.884 17.7481 65.206 17.5625C65.5279 17.3769 65.8878 17.2367 66.2855 17.142C66.6832 17.0473 67.0885 16.9754 67.5014 16.9261C68.0241 16.8655 68.4484 16.8163 68.7741 16.7784C69.0999 16.7367 69.3366 16.6705 69.4844 16.5795C69.6321 16.4886 69.706 16.3409 69.706 16.1364V16.0966C69.706 15.6004 69.5658 15.2159 69.2855 14.9432C69.009 14.6705 68.5961 14.5341 68.0469 14.5341C67.4749 14.5341 67.0241 14.661 66.6946 14.9148C66.3688 15.1648 66.1435 15.4432 66.0185 15.75L64.4219 15.3864C64.6113 14.8561 64.8878 14.428 65.2514 14.1023C65.6188 13.7727 66.0412 13.5341 66.5185 13.3864C66.9957 13.2348 67.4976 13.1591 68.0241 13.1591C68.3726 13.1591 68.742 13.2008 69.1321 13.2841C69.526 13.3636 69.8935 13.5114 70.2344 13.7273C70.5791 13.9432 70.8613 14.2519 71.081 14.6534C71.3007 15.0511 71.4105 15.5682 71.4105 16.2045V22H69.7514V20.8068H69.6832C69.5734 21.0265 69.4086 21.2424 69.1889 21.4545C68.9692 21.6667 68.687 21.8428 68.3423 21.983C67.9976 22.1231 67.5848 22.1932 67.1037 22.1932ZM67.473 20.8295C67.9427 20.8295 68.3442 20.7367 68.6776 20.5511C69.0147 20.3655 69.2704 20.1231 69.4446 19.8239C69.6226 19.5208 69.7116 19.197 69.7116 18.8523V17.7273C69.651 17.7879 69.5336 17.8447 69.3594 17.8977C69.1889 17.947 68.9938 17.9905 68.7741 18.0284C68.5545 18.0625 68.3404 18.0947 68.1321 18.125C67.9238 18.1515 67.7495 18.1742 67.6094 18.1932C67.2798 18.2348 66.9787 18.3049 66.706 18.4034C66.437 18.5019 66.2211 18.6439 66.0582 18.8295C65.8991 19.0114 65.8196 19.2538 65.8196 19.5568C65.8196 19.9773 65.9749 20.2955 66.2855 20.5114C66.5961 20.7235 66.992 20.8295 67.473 20.8295ZM75.3722 16.8182V22H73.6733V13.2727H75.304V14.6932H75.4119C75.6127 14.2311 75.9271 13.8598 76.3551 13.5795C76.7869 13.2992 77.3305 13.1591 77.9858 13.1591C78.5805 13.1591 79.1013 13.2841 79.5483 13.5341C79.9953 13.7803 80.3419 14.1477 80.5881 14.6364C80.8343 15.125 80.9574 15.7292 80.9574 16.4489V22H79.2585V16.6534C79.2585 16.0208 79.0938 15.5265 78.7642 15.1705C78.4347 14.8106 77.982 14.6307 77.4062 14.6307C77.0123 14.6307 76.6619 14.7159 76.3551 14.8864C76.0521 15.0568 75.8116 15.3068 75.6335 15.6364C75.4593 15.9621 75.3722 16.3561 75.3722 16.8182ZM84.7983 19.0398L84.7869 16.9659H85.0824L88.5597 13.2727H90.5938L86.6278 17.4773H86.3608L84.7983 19.0398ZM83.2358 22V10.3636H84.9347V22H83.2358ZM88.7472 22L85.6222 17.8523L86.7926 16.6648L90.8324 22H88.7472Z" fill="#131520"/>
<path d="M96.8707 17.1705C96.8707 15.7462 97.0582 14.4356 97.4332 13.2386C97.8082 12.0417 98.3556 10.9375 99.0753 9.92614H100.632C100.352 10.3011 100.09 10.7614 99.848 11.3068C99.6056 11.8523 99.3935 12.4508 99.2116 13.1023C99.0298 13.75 98.8878 14.4223 98.7855 15.1193C98.6832 15.8125 98.6321 16.4962 98.6321 17.1705C98.6321 18.072 98.7211 18.9848 98.8991 19.9091C99.0772 20.8333 99.3177 21.6913 99.6207 22.483C99.9238 23.2746 100.261 23.9205 100.632 24.4205H99.0753C98.3556 23.4091 97.8082 22.3049 97.4332 21.108C97.0582 19.911 96.8707 18.5985 96.8707 17.1705ZM212.612 17.1705C212.612 18.5985 212.425 19.911 212.05 21.108C211.675 22.3049 211.127 23.4091 210.408 24.4205H208.851C209.131 24.0455 209.393 23.5852 209.635 23.0398C209.877 22.4943 210.089 21.8977 210.271 21.25C210.453 20.5985 210.595 19.9242 210.697 19.2273C210.8 18.5303 210.851 17.8447 210.851 17.1705C210.851 16.2727 210.762 15.3617 210.584 14.4375C210.406 13.5133 210.165 12.6553 209.862 11.8636C209.559 11.072 209.222 10.4261 208.851 9.92614H210.408C211.127 10.9375 211.675 12.0417 212.05 13.2386C212.425 14.4356 212.612 15.7462 212.612 17.1705Z" fill="#A6ABC9"/>
<path d="M106.082 25.4545C105.389 25.4545 104.793 25.3636 104.293 25.1818C103.796 25 103.391 24.7595 103.077 24.4602C102.762 24.161 102.527 23.8333 102.372 23.4773L103.832 22.875C103.935 23.0417 104.071 23.2178 104.241 23.4034C104.416 23.5928 104.651 23.7538 104.946 23.8864C105.245 24.0189 105.63 24.0852 106.099 24.0852C106.743 24.0852 107.276 23.928 107.696 23.6136C108.116 23.303 108.327 22.8068 108.327 22.125V20.4091H108.219C108.116 20.5947 107.969 20.8011 107.776 21.0284C107.586 21.2557 107.325 21.4527 106.991 21.6193C106.658 21.786 106.224 21.8693 105.69 21.8693C105.001 21.8693 104.38 21.7083 103.827 21.3864C103.277 21.0606 102.842 20.5814 102.52 19.9489C102.202 19.3125 102.043 18.5303 102.043 17.6023C102.043 16.6742 102.2 15.8788 102.514 15.2159C102.832 14.553 103.268 14.0455 103.821 13.6932C104.374 13.3371 105.001 13.1591 105.702 13.1591C106.243 13.1591 106.681 13.25 107.014 13.4318C107.348 13.6098 107.607 13.8182 107.793 14.0568C107.982 14.2955 108.128 14.5057 108.23 14.6875H108.355V13.2727H110.02V22.1932C110.02 22.9432 109.846 23.5587 109.497 24.0398C109.149 24.5208 108.677 24.8769 108.082 25.108C107.491 25.339 106.825 25.4545 106.082 25.4545ZM106.065 20.4602C106.554 20.4602 106.967 20.3466 107.304 20.1193C107.645 19.8883 107.902 19.5587 108.077 19.1307C108.255 18.6989 108.344 18.1818 108.344 17.5795C108.344 16.9924 108.257 16.4754 108.082 16.0284C107.908 15.5814 107.652 15.233 107.315 14.983C106.978 14.7292 106.562 14.6023 106.065 14.6023C105.554 14.6023 105.128 14.7348 104.787 15C104.446 15.2614 104.188 15.6174 104.014 16.0682C103.844 16.5189 103.759 17.0227 103.759 17.5795C103.759 18.1515 103.846 18.6534 104.02 19.0852C104.194 19.517 104.452 19.8542 104.793 20.0966C105.137 20.339 105.562 20.4602 106.065 20.4602ZM113.997 10.3636V22H112.298V10.3636H113.997ZM119.959 22.1761C119.141 22.1761 118.427 21.9886 117.817 21.6136C117.207 21.2386 116.733 20.714 116.396 20.0398C116.059 19.3655 115.891 18.5777 115.891 17.6761C115.891 16.7708 116.059 15.9792 116.396 15.3011C116.733 14.6231 117.207 14.0966 117.817 13.7216C118.427 13.3466 119.141 13.1591 119.959 13.1591C120.777 13.1591 121.491 13.3466 122.101 13.7216C122.711 14.0966 123.184 14.6231 123.521 15.3011C123.858 15.9792 124.027 16.7708 124.027 17.6761C124.027 18.5777 123.858 19.3655 123.521 20.0398C123.184 20.714 122.711 21.2386 122.101 21.6136C121.491 21.9886 120.777 22.1761 119.959 22.1761ZM119.964 20.75C120.495 20.75 120.934 20.6098 121.283 20.3295C121.631 20.0492 121.889 19.6761 122.055 19.2102C122.226 18.7443 122.311 18.2311 122.311 17.6705C122.311 17.1136 122.226 16.6023 122.055 16.1364C121.889 15.6667 121.631 15.2898 121.283 15.0057C120.934 14.7216 120.495 14.5795 119.964 14.5795C119.43 14.5795 118.987 14.7216 118.635 15.0057C118.286 15.2898 118.027 15.6667 117.857 16.1364C117.69 16.6023 117.607 17.1136 117.607 17.6705C117.607 18.2311 117.69 18.7443 117.857 19.2102C118.027 19.6761 118.286 20.0492 118.635 20.3295C118.987 20.6098 119.43 20.75 119.964 20.75ZM126.06 22V10.3636H127.759V14.6875H127.861C127.959 14.5057 128.101 14.2955 128.287 14.0568C128.473 13.8182 128.73 13.6098 129.06 13.4318C129.389 13.25 129.825 13.1591 130.366 13.1591C131.071 13.1591 131.7 13.3371 132.253 13.6932C132.806 14.0492 133.24 14.5625 133.554 15.233C133.872 15.9034 134.031 16.7102 134.031 17.6534C134.031 18.5966 133.874 19.4053 133.56 20.0795C133.245 20.75 132.813 21.267 132.264 21.6307C131.715 21.9905 131.088 22.1705 130.384 22.1705C129.853 22.1705 129.42 22.0814 129.082 21.9034C128.749 21.7254 128.488 21.517 128.298 21.2784C128.109 21.0398 127.963 20.8277 127.861 20.642H127.719V22H126.06ZM127.724 17.6364C127.724 18.25 127.813 18.7879 127.991 19.25C128.17 19.7121 128.427 20.0739 128.764 20.3352C129.101 20.5928 129.514 20.7216 130.003 20.7216C130.51 20.7216 130.935 20.5871 131.276 20.3182C131.616 20.0455 131.874 19.6761 132.048 19.2102C132.226 18.7443 132.315 18.2197 132.315 17.6364C132.315 17.0606 132.228 16.5436 132.054 16.0852C131.884 15.6269 131.626 15.2652 131.281 15C130.94 14.7348 130.514 14.6023 130.003 14.6023C129.51 14.6023 129.094 14.7292 128.753 14.983C128.416 15.2367 128.16 15.5909 127.986 16.0455C127.812 16.5 127.724 17.0303 127.724 17.6364ZM138.479 22.1932C137.926 22.1932 137.426 22.0909 136.979 21.8864C136.532 21.678 136.178 21.3769 135.916 20.983C135.659 20.589 135.53 20.1061 135.53 19.5341C135.53 19.0417 135.625 18.6364 135.814 18.3182C136.003 18 136.259 17.7481 136.581 17.5625C136.903 17.3769 137.263 17.2367 137.661 17.142C138.058 17.0473 138.464 16.9754 138.876 16.9261C139.399 16.8655 139.823 16.8163 140.149 16.7784C140.475 16.7367 140.712 16.6705 140.859 16.5795C141.007 16.4886 141.081 16.3409 141.081 16.1364V16.0966C141.081 15.6004 140.941 15.2159 140.661 14.9432C140.384 14.6705 139.971 14.5341 139.422 14.5341C138.85 14.5341 138.399 14.661 138.07 14.9148C137.744 15.1648 137.518 15.4432 137.393 15.75L135.797 15.3864C135.986 14.8561 136.263 14.428 136.626 14.1023C136.994 13.7727 137.416 13.5341 137.893 13.3864C138.371 13.2348 138.873 13.1591 139.399 13.1591C139.748 13.1591 140.117 13.2008 140.507 13.2841C140.901 13.3636 141.268 13.5114 141.609 13.7273C141.954 13.9432 142.236 14.2519 142.456 14.6534C142.676 15.0511 142.786 15.5682 142.786 16.2045V22H141.126V20.8068H141.058C140.948 21.0265 140.784 21.2424 140.564 21.4545C140.344 21.6667 140.062 21.8428 139.717 21.983C139.373 22.1231 138.96 22.1932 138.479 22.1932ZM138.848 20.8295C139.318 20.8295 139.719 20.7367 140.053 20.5511C140.39 20.3655 140.645 20.1231 140.82 19.8239C140.998 19.5208 141.087 19.197 141.087 18.8523V17.7273C141.026 17.7879 140.909 17.8447 140.734 17.8977C140.564 17.947 140.369 17.9905 140.149 18.0284C139.929 18.0625 139.715 18.0947 139.507 18.125C139.299 18.1515 139.125 18.1742 138.984 18.1932C138.655 18.2348 138.354 18.3049 138.081 18.4034C137.812 18.5019 137.596 18.6439 137.433 18.8295C137.274 19.0114 137.195 19.2538 137.195 19.5568C137.195 19.9773 137.35 20.2955 137.661 20.5114C137.971 20.7235 138.367 20.8295 138.848 20.8295ZM146.747 10.3636V22H145.048V10.3636H146.747ZM149.169 22V10.3636H150.868V14.6875H150.97C151.069 14.5057 151.211 14.2955 151.396 14.0568C151.582 13.8182 151.839 13.6098 152.169 13.4318C152.499 13.25 152.934 13.1591 153.476 13.1591C154.18 13.1591 154.809 13.3371 155.362 13.6932C155.915 14.0492 156.349 14.5625 156.663 15.233C156.982 15.9034 157.141 16.7102 157.141 17.6534C157.141 18.5966 156.983 19.4053 156.669 20.0795C156.355 20.75 155.923 21.267 155.374 21.6307C154.824 21.9905 154.197 22.1705 153.493 22.1705C152.963 22.1705 152.529 22.0814 152.192 21.9034C151.858 21.7254 151.597 21.517 151.408 21.2784C151.218 21.0398 151.072 20.8277 150.97 20.642H150.828V22H149.169ZM150.834 17.6364C150.834 18.25 150.923 18.7879 151.101 19.25C151.279 19.7121 151.536 20.0739 151.874 20.3352C152.211 20.5928 152.624 20.7216 153.112 20.7216C153.62 20.7216 154.044 20.5871 154.385 20.3182C154.726 20.0455 154.983 19.6761 155.158 19.2102C155.336 18.7443 155.425 18.2197 155.425 17.6364C155.425 17.0606 155.338 16.5436 155.163 16.0852C154.993 15.6269 154.735 15.2652 154.391 15C154.05 14.7348 153.624 14.6023 153.112 14.6023C152.62 14.6023 152.203 14.7292 151.862 14.983C151.525 15.2367 151.269 15.5909 151.095 16.0455C150.921 16.5 150.834 17.0303 150.834 17.6364ZM161.588 22.1932C161.035 22.1932 160.535 22.0909 160.088 21.8864C159.641 21.678 159.287 21.3769 159.026 20.983C158.768 20.589 158.639 20.1061 158.639 19.5341C158.639 19.0417 158.734 18.6364 158.923 18.3182C159.113 18 159.368 17.7481 159.69 17.5625C160.012 17.3769 160.372 17.2367 160.77 17.142C161.168 17.0473 161.573 16.9754 161.986 16.9261C162.509 16.8655 162.933 16.8163 163.259 16.7784C163.584 16.7367 163.821 16.6705 163.969 16.5795C164.116 16.4886 164.19 16.3409 164.19 16.1364V16.0966C164.19 15.6004 164.05 15.2159 163.77 14.9432C163.493 14.6705 163.08 14.5341 162.531 14.5341C161.959 14.5341 161.509 14.661 161.179 14.9148C160.853 15.1648 160.628 15.4432 160.503 15.75L158.906 15.3864C159.096 14.8561 159.372 14.428 159.736 14.1023C160.103 13.7727 160.526 13.5341 161.003 13.3864C161.48 13.2348 161.982 13.1591 162.509 13.1591C162.857 13.1591 163.226 13.2008 163.616 13.2841C164.01 13.3636 164.378 13.5114 164.719 13.7273C165.063 13.9432 165.346 14.2519 165.565 14.6534C165.785 15.0511 165.895 15.5682 165.895 16.2045V22H164.236V20.8068H164.168C164.058 21.0265 163.893 21.2424 163.673 21.4545C163.454 21.6667 163.171 21.8428 162.827 21.983C162.482 22.1231 162.069 22.1932 161.588 22.1932ZM161.957 20.8295C162.427 20.8295 162.829 20.7367 163.162 20.5511C163.499 20.3655 163.755 20.1231 163.929 19.8239C164.107 19.5208 164.196 19.197 164.196 18.8523V17.7273C164.135 17.7879 164.018 17.8447 163.844 17.8977C163.673 17.947 163.478 17.9905 163.259 18.0284C163.039 18.0625 162.825 18.0947 162.616 18.125C162.408 18.1515 162.234 18.1742 162.094 18.1932C161.764 18.2348 161.463 18.3049 161.19 18.4034C160.921 18.5019 160.705 18.6439 160.543 18.8295C160.384 19.0114 160.304 19.2538 160.304 19.5568C160.304 19.9773 160.459 20.2955 160.77 20.5114C161.08 20.7235 161.476 20.8295 161.957 20.8295ZM169.857 16.8182V22H168.158V13.2727H169.788V14.6932H169.896C170.097 14.2311 170.411 13.8598 170.839 13.5795C171.271 13.2992 171.815 13.1591 172.47 13.1591C173.065 13.1591 173.586 13.2841 174.033 13.5341C174.48 13.7803 174.826 14.1477 175.072 14.6364C175.319 15.125 175.442 15.7292 175.442 16.4489V22H173.743V16.6534C173.743 16.0208 173.578 15.5265 173.249 15.1705C172.919 14.8106 172.466 14.6307 171.891 14.6307C171.497 14.6307 171.146 14.7159 170.839 14.8864C170.536 15.0568 170.296 15.3068 170.118 15.6364C169.944 15.9621 169.857 16.3561 169.857 16.8182ZM179.283 19.0398L179.271 16.9659H179.567L183.044 13.2727H185.078L181.112 17.4773H180.845L179.283 19.0398ZM177.72 22V10.3636H179.419V22H177.72ZM183.232 22L180.107 17.8523L181.277 16.6648L185.317 22H183.232ZM187.746 22.108C187.435 22.108 187.168 21.9981 186.945 21.7784C186.721 21.5549 186.609 21.286 186.609 20.9716C186.609 20.661 186.721 20.3958 186.945 20.1761C187.168 19.9527 187.435 19.8409 187.746 19.8409C188.056 19.8409 188.323 19.9527 188.547 20.1761C188.77 20.3958 188.882 20.661 188.882 20.9716C188.882 21.1799 188.829 21.3712 188.723 21.5455C188.621 21.7159 188.484 21.8523 188.314 21.9545C188.143 22.0568 187.954 22.108 187.746 22.108ZM194.834 22.1761C193.989 22.1761 193.262 21.9848 192.652 21.6023C192.046 21.2159 191.58 20.6837 191.254 20.0057C190.929 19.3277 190.766 18.5511 190.766 17.6761C190.766 16.7898 190.932 16.0076 191.266 15.3295C191.599 14.6477 192.069 14.1155 192.675 13.733C193.281 13.3504 193.995 13.1591 194.817 13.1591C195.48 13.1591 196.071 13.2822 196.589 13.5284C197.108 13.7708 197.527 14.1117 197.845 14.5511C198.167 14.9905 198.358 15.5038 198.419 16.0909H196.766C196.675 15.6818 196.466 15.3295 196.141 15.0341C195.819 14.7386 195.387 14.5909 194.845 14.5909C194.372 14.5909 193.957 14.7159 193.601 14.9659C193.249 15.2121 192.974 15.5644 192.777 16.0227C192.58 16.4773 192.482 17.0152 192.482 17.6364C192.482 18.2727 192.578 18.822 192.771 19.2841C192.964 19.7462 193.237 20.1042 193.589 20.358C193.946 20.6117 194.364 20.7386 194.845 20.7386C195.167 20.7386 195.459 20.6799 195.72 20.5625C195.985 20.4413 196.207 20.2689 196.385 20.0455C196.567 19.822 196.694 19.553 196.766 19.2386H198.419C198.358 19.803 198.175 20.3068 197.868 20.75C197.561 21.1932 197.15 21.5417 196.635 21.7955C196.124 22.0492 195.523 22.1761 194.834 22.1761ZM202.776 22.1932C202.223 22.1932 201.723 22.0909 201.276 21.8864C200.829 21.678 200.474 21.3769 200.213 20.983C199.955 20.589 199.827 20.1061 199.827 19.5341C199.827 19.0417 199.921 18.6364 200.111 18.3182C200.3 18 200.556 17.7481 200.878 17.5625C201.2 17.3769 201.56 17.2367 201.957 17.142C202.355 17.0473 202.76 16.9754 203.173 16.9261C203.696 16.8655 204.12 16.8163 204.446 16.7784C204.772 16.7367 205.009 16.6705 205.156 16.5795C205.304 16.4886 205.378 16.3409 205.378 16.1364V16.0966C205.378 15.6004 205.238 15.2159 204.957 14.9432C204.681 14.6705 204.268 14.5341 203.719 14.5341C203.147 14.5341 202.696 14.661 202.366 14.9148C202.041 15.1648 201.815 15.4432 201.69 15.75L200.094 15.3864C200.283 14.8561 200.56 14.428 200.923 14.1023C201.291 13.7727 201.713 13.5341 202.19 13.3864C202.668 13.2348 203.17 13.1591 203.696 13.1591C204.045 13.1591 204.414 13.2008 204.804 13.2841C205.198 13.3636 205.565 13.5114 205.906 13.7273C206.251 13.9432 206.533 14.2519 206.753 14.6534C206.973 15.0511 207.082 15.5682 207.082 16.2045V22H205.423V20.8068H205.355C205.245 21.0265 205.08 21.2424 204.861 21.4545C204.641 21.6667 204.359 21.8428 204.014 21.983C203.67 22.1231 203.257 22.1932 202.776 22.1932ZM203.145 20.8295C203.615 20.8295 204.016 20.7367 204.349 20.5511C204.687 20.3655 204.942 20.1231 205.116 19.8239C205.295 19.5208 205.384 19.197 205.384 18.8523V17.7273C205.323 17.7879 205.205 17.8447 205.031 17.8977C204.861 17.947 204.666 17.9905 204.446 18.0284C204.226 18.0625 204.012 18.0947 203.804 18.125C203.596 18.1515 203.421 18.1742 203.281 18.1932C202.952 18.2348 202.651 18.3049 202.378 18.4034C202.109 18.5019 201.893 18.6439 201.73 18.8295C201.571 19.0114 201.491 19.2538 201.491 19.5568C201.491 19.9773 201.647 20.2955 201.957 20.5114C202.268 20.7235 202.664 20.8295 203.145 20.8295Z" fill="#1757C2"/>
<g clip-path="url(#clip0_201_10481)">
<circle cx="233" cy="16" r="10" fill="#36AAF4"/>
<path fill-rule="evenodd" clip-rule="evenodd" d="M237.247 12.1584L231.28 17.9167L229.697 16.2251C229.405 15.9501 228.947 15.9334 228.614 16.1667C228.289 16.4084 228.197 16.8334 228.397 17.1751L230.272 20.2251C230.455 20.5084 230.772 20.6834 231.13 20.6834C231.472 20.6834 231.797 20.5084 231.98 20.2251C232.28 19.8334 238.005 13.0084 238.005 13.0084C238.755 12.2417 237.847 11.5667 237.247 12.1501V12.1584Z" fill="white"/>
</g>
<path d="M842 0.5H946.5V31.5H842C838.962 31.5 836.5 29.0376 836.5 26V6C836.5 2.96243 838.962 0.5 842 0.5Z" fill="white"/>
<path d="M857.719 13.5653C857.673 13.1619 857.486 12.8494 857.156 12.6278C856.827 12.4034 856.412 12.2912 855.912 12.2912C855.554 12.2912 855.244 12.348 854.983 12.4616C854.722 12.5724 854.518 12.7259 854.374 12.9219C854.232 13.1151 854.161 13.3352 854.161 13.5824C854.161 13.7898 854.209 13.9687 854.305 14.1193C854.405 14.2699 854.534 14.3963 854.693 14.4986C854.855 14.598 855.028 14.6818 855.213 14.75C855.398 14.8153 855.575 14.8693 855.746 14.9119L856.598 15.1335C856.876 15.2017 857.162 15.294 857.455 15.4105C857.747 15.527 858.018 15.6804 858.268 15.8707C858.518 16.0611 858.72 16.2969 858.874 16.5781C859.03 16.8594 859.108 17.196 859.108 17.5881C859.108 18.0824 858.98 18.5213 858.724 18.9048C858.472 19.2884 858.104 19.5909 857.621 19.8125C857.141 20.0341 856.56 20.1449 855.878 20.1449C855.224 20.1449 854.659 20.0412 854.182 19.8338C853.705 19.6264 853.331 19.3324 853.061 18.9517C852.791 18.5682 852.642 18.1136 852.614 17.5881H853.935C853.96 17.9034 854.063 18.1662 854.241 18.3764C854.423 18.5838 854.655 18.7386 854.936 18.8409C855.22 18.9403 855.531 18.9901 855.869 18.9901C856.241 18.9901 856.572 18.9318 856.862 18.8153C857.155 18.696 857.385 18.5312 857.553 18.321C857.72 18.108 857.804 17.8594 857.804 17.5753C857.804 17.3168 857.73 17.1051 857.582 16.9403C857.438 16.7756 857.24 16.6392 856.99 16.5312C856.743 16.4233 856.463 16.3281 856.151 16.2457L855.119 15.9645C854.42 15.7741 853.866 15.4943 853.457 15.125C853.051 14.7557 852.848 14.267 852.848 13.6591C852.848 13.1562 852.984 12.7173 853.257 12.3423C853.53 11.9673 853.899 11.6761 854.365 11.4688C854.831 11.2585 855.357 11.1534 855.942 11.1534C856.533 11.1534 857.054 11.2571 857.506 11.4645C857.96 11.6719 858.318 11.9574 858.58 12.321C858.841 12.6818 858.977 13.0966 858.989 13.5653H857.719ZM862.853 16.1136V20H861.579V11.2727H862.836V14.5199H862.917C863.071 14.1676 863.305 13.8878 863.62 13.6804C863.936 13.473 864.348 13.3693 864.856 13.3693C865.305 13.3693 865.697 13.4616 866.032 13.6463C866.37 13.831 866.632 14.1065 866.816 14.473C867.004 14.8366 867.098 15.2912 867.098 15.8366V20H865.824V15.9901C865.824 15.5099 865.7 15.1378 865.453 14.8736C865.206 14.6065 864.862 14.473 864.422 14.473C864.12 14.473 863.85 14.5369 863.612 14.6648C863.376 14.7926 863.19 14.9801 863.054 15.2273C862.92 15.4716 862.853 15.767 862.853 16.1136ZM871.703 20.1449C871.288 20.1449 870.913 20.0682 870.578 19.9148C870.243 19.7585 869.977 19.5327 869.781 19.2372C869.588 18.9418 869.491 18.5795 869.491 18.1506C869.491 17.7812 869.562 17.4773 869.704 17.2386C869.846 17 870.038 16.8111 870.279 16.6719C870.521 16.5327 870.791 16.4276 871.089 16.3565C871.387 16.2855 871.691 16.2315 872.001 16.1946C872.393 16.1491 872.711 16.1122 872.956 16.0838C873.2 16.0526 873.377 16.0028 873.488 15.9347C873.599 15.8665 873.654 15.7557 873.654 15.6023V15.5724C873.654 15.2003 873.549 14.9119 873.339 14.7074C873.132 14.5028 872.822 14.4006 872.41 14.4006C871.981 14.4006 871.643 14.4957 871.396 14.6861C871.152 14.8736 870.983 15.0824 870.889 15.3125L869.691 15.0398C869.833 14.642 870.041 14.321 870.314 14.0767C870.589 13.8295 870.906 13.6506 871.264 13.5398C871.622 13.4261 871.998 13.3693 872.393 13.3693C872.654 13.3693 872.931 13.4006 873.224 13.4631C873.52 13.5227 873.795 13.6335 874.051 13.7955C874.309 13.9574 874.521 14.1889 874.686 14.4901C874.85 14.7884 874.933 15.1761 874.933 15.6534V20H873.689V19.1051H873.637C873.555 19.2699 873.431 19.4318 873.267 19.5909C873.102 19.75 872.89 19.8821 872.632 19.9872C872.373 20.0923 872.064 20.1449 871.703 20.1449ZM871.98 19.1222C872.332 19.1222 872.633 19.0526 872.883 18.9134C873.136 18.7741 873.328 18.5923 873.458 18.3679C873.592 18.1406 873.659 17.8977 873.659 17.6392V16.7955C873.613 16.8409 873.525 16.8835 873.395 16.9233C873.267 16.9602 873.12 16.9929 872.956 17.0213C872.791 17.0469 872.63 17.071 872.474 17.0938C872.318 17.1136 872.187 17.1307 872.082 17.1449C871.835 17.1761 871.609 17.2287 871.404 17.3026C871.203 17.3764 871.041 17.483 870.919 17.6222C870.799 17.7585 870.74 17.9403 870.74 18.1676C870.74 18.483 870.856 18.7216 871.089 18.8835C871.322 19.0426 871.619 19.1222 871.98 19.1222ZM877.63 20V13.4545H878.862V14.4943H878.93C879.049 14.142 879.259 13.8651 879.56 13.6634C879.864 13.4588 880.208 13.3565 880.592 13.3565C880.671 13.3565 880.765 13.3594 880.873 13.3651C880.984 13.3707 881.07 13.3778 881.133 13.3864V14.6051C881.082 14.5909 880.991 14.5753 880.86 14.5582C880.729 14.5384 880.599 14.5284 880.468 14.5284C880.167 14.5284 879.898 14.5923 879.663 14.7202C879.43 14.8452 879.245 15.0199 879.109 15.2443C878.972 15.4659 878.904 15.7187 878.904 16.0028V20H877.63ZM885.822 20.1321C885.177 20.1321 884.622 19.9943 884.156 19.7188C883.693 19.4403 883.335 19.0497 883.082 18.5469C882.832 18.0412 882.707 17.4489 882.707 16.7699C882.707 16.0994 882.832 15.5085 883.082 14.9972C883.335 14.4858 883.687 14.0866 884.139 13.7997C884.593 13.5128 885.125 13.3693 885.733 13.3693C886.102 13.3693 886.46 13.4304 886.806 13.5526C887.153 13.6747 887.464 13.8665 887.74 14.1278C888.015 14.3892 888.233 14.7287 888.392 15.1463C888.551 15.5611 888.63 16.0653 888.63 16.6591V17.1108H883.427V16.1562H887.382C887.382 15.821 887.314 15.5241 887.177 15.2656C887.041 15.0043 886.849 14.7983 886.602 14.6477C886.358 14.4972 886.071 14.4219 885.741 14.4219C885.383 14.4219 885.071 14.5099 884.804 14.6861C884.539 14.8594 884.335 15.0866 884.19 15.3679C884.048 15.6463 883.977 15.9489 883.977 16.2756V17.0213C883.977 17.4588 884.054 17.831 884.207 18.1378C884.363 18.4446 884.581 18.679 884.859 18.8409C885.137 19 885.463 19.0795 885.835 19.0795C886.076 19.0795 886.297 19.0455 886.495 18.9773C886.694 18.9062 886.866 18.8011 887.011 18.6619C887.156 18.5227 887.267 18.3509 887.343 18.1463L888.549 18.3636C888.453 18.7187 888.279 19.0298 888.029 19.2969C887.782 19.5611 887.471 19.767 887.096 19.9148C886.724 20.0597 886.299 20.1321 885.822 20.1321ZM900.125 15.0526L898.97 15.2571C898.922 15.1094 898.845 14.9687 898.74 14.8352C898.637 14.7017 898.498 14.5923 898.322 14.5071C898.146 14.4219 897.926 14.3793 897.662 14.3793C897.301 14.3793 897 14.4602 896.758 14.6222C896.517 14.7812 896.396 14.9872 896.396 15.2401C896.396 15.4588 896.477 15.6349 896.639 15.7685C896.801 15.902 897.062 16.0114 897.423 16.0966L898.463 16.3352C899.065 16.4744 899.514 16.6889 899.809 16.9787C900.105 17.2685 900.252 17.6449 900.252 18.108C900.252 18.5 900.139 18.8494 899.912 19.1562C899.687 19.4602 899.373 19.6989 898.97 19.8722C898.569 20.0455 898.105 20.1321 897.576 20.1321C896.843 20.1321 896.245 19.9759 895.782 19.6634C895.319 19.348 895.035 18.9006 894.93 18.321L896.162 18.1335C896.238 18.4545 896.396 18.6974 896.635 18.8622C896.873 19.0241 897.184 19.1051 897.568 19.1051C897.985 19.1051 898.319 19.0185 898.569 18.8452C898.819 18.669 898.944 18.4545 898.944 18.2017C898.944 17.9972 898.868 17.8253 898.714 17.6861C898.564 17.5469 898.332 17.4418 898.02 17.3707L896.912 17.1278C896.301 16.9886 895.849 16.767 895.556 16.4631C895.267 16.1591 895.122 15.7741 895.122 15.3082C895.122 14.9219 895.23 14.5838 895.446 14.294C895.662 14.0043 895.96 13.7784 896.341 13.6165C896.721 13.4517 897.157 13.3693 897.649 13.3693C898.356 13.3693 898.913 13.5227 899.319 13.8295C899.725 14.1335 899.994 14.5412 900.125 15.0526ZM905.411 20.1321C904.777 20.1321 904.232 19.9886 903.774 19.7017C903.32 19.4119 902.97 19.0128 902.726 18.5043C902.482 17.9957 902.359 17.4134 902.359 16.7571C902.359 16.0923 902.484 15.5057 902.734 14.9972C902.984 14.4858 903.337 14.0866 903.791 13.7997C904.246 13.5128 904.781 13.3693 905.398 13.3693C905.895 13.3693 906.338 13.4616 906.727 13.6463C907.116 13.8281 907.43 14.0838 907.669 14.4134C907.911 14.7429 908.054 15.1278 908.099 15.5682H906.859C906.791 15.2614 906.635 14.9972 906.391 14.7756C906.149 14.554 905.825 14.4432 905.419 14.4432C905.064 14.4432 904.753 14.5369 904.486 14.7244C904.222 14.9091 904.016 15.1733 903.868 15.517C903.72 15.858 903.646 16.2614 903.646 16.7273C903.646 17.2045 903.719 17.6165 903.864 17.9631C904.009 18.3097 904.213 18.5781 904.477 18.7685C904.744 18.9588 905.058 19.054 905.419 19.054C905.661 19.054 905.879 19.0099 906.075 18.9219C906.274 18.831 906.44 18.7017 906.574 18.5341C906.71 18.3665 906.805 18.1648 906.859 17.929H908.099C908.054 18.3523 907.916 18.7301 907.686 19.0625C907.456 19.3949 907.148 19.6562 906.761 19.8466C906.378 20.0369 905.928 20.1321 905.411 20.1321ZM913.219 20.1321C912.605 20.1321 912.07 19.9915 911.613 19.7102C911.155 19.429 910.8 19.0355 910.547 18.5298C910.294 18.0241 910.168 17.4332 910.168 16.7571C910.168 16.0781 910.294 15.4844 910.547 14.9759C910.8 14.4673 911.155 14.0724 911.613 13.7912C912.07 13.5099 912.605 13.3693 913.219 13.3693C913.833 13.3693 914.368 13.5099 914.826 13.7912C915.283 14.0724 915.638 14.4673 915.891 14.9759C916.144 15.4844 916.27 16.0781 916.27 16.7571C916.27 17.4332 916.144 18.0241 915.891 18.5298C915.638 19.0355 915.283 19.429 914.826 19.7102C914.368 19.9915 913.833 20.1321 913.219 20.1321ZM913.223 19.0625C913.621 19.0625 913.951 18.9574 914.212 18.7472C914.473 18.5369 914.667 18.2571 914.792 17.9077C914.919 17.5582 914.983 17.1733 914.983 16.7528C914.983 16.3352 914.919 15.9517 914.792 15.6023C914.667 15.25 914.473 14.9673 914.212 14.7543C913.951 14.5412 913.621 14.4347 913.223 14.4347C912.823 14.4347 912.49 14.5412 912.226 14.7543C911.965 14.9673 911.77 15.25 911.642 15.6023C911.517 15.9517 911.455 16.3352 911.455 16.7528C911.455 17.1733 911.517 17.5582 911.642 17.9077C911.77 18.2571 911.965 18.5369 912.226 18.7472C912.49 18.9574 912.823 19.0625 913.223 19.0625ZM918.692 20V13.4545H919.924V14.4943H919.992C920.112 14.142 920.322 13.8651 920.623 13.6634C920.927 13.4588 921.271 13.3565 921.654 13.3565C921.734 13.3565 921.827 13.3594 921.935 13.3651C922.046 13.3707 922.133 13.3778 922.195 13.3864V14.6051C922.144 14.5909 922.053 14.5753 921.923 14.5582C921.792 14.5384 921.661 14.5284 921.531 14.5284C921.229 14.5284 920.961 14.5923 920.725 14.7202C920.492 14.8452 920.308 15.0199 920.171 15.2443C920.035 15.4659 919.967 15.7187 919.967 16.0028V20H918.692ZM926.885 20.1321C926.24 20.1321 925.684 19.9943 925.218 19.7188C924.755 19.4403 924.397 19.0497 924.145 18.5469C923.895 18.0412 923.77 17.4489 923.77 16.7699C923.77 16.0994 923.895 15.5085 924.145 14.9972C924.397 14.4858 924.75 14.0866 925.201 13.7997C925.656 13.5128 926.187 13.3693 926.795 13.3693C927.164 13.3693 927.522 13.4304 927.869 13.5526C928.216 13.6747 928.527 13.8665 928.802 14.1278C929.078 14.3892 929.295 14.7287 929.454 15.1463C929.613 15.5611 929.693 16.0653 929.693 16.6591V17.1108H924.49V16.1562H928.444C928.444 15.821 928.376 15.5241 928.24 15.2656C928.103 15.0043 927.912 14.7983 927.664 14.6477C927.42 14.4972 927.133 14.4219 926.804 14.4219C926.446 14.4219 926.133 14.5099 925.866 14.6861C925.602 14.8594 925.397 15.0866 925.252 15.3679C925.11 15.6463 925.039 15.9489 925.039 16.2756V17.0213C925.039 17.4588 925.116 17.831 925.27 18.1378C925.426 18.4446 925.643 18.679 925.922 18.8409C926.2 19 926.525 19.0795 926.897 19.0795C927.139 19.0795 927.359 19.0455 927.558 18.9773C927.757 18.9062 927.929 18.8011 928.074 18.6619C928.218 18.5227 928.329 18.3509 928.406 18.1463L929.612 18.3636C929.515 18.7187 929.342 19.0298 929.092 19.2969C928.845 19.5611 928.534 19.767 928.159 19.9148C927.787 20.0597 927.362 20.1321 926.885 20.1321Z" fill="#4A5078"/>
<path d="M842 0.5H946.5V31.5H842C838.962 31.5 836.5 29.0376 836.5 26V6C836.5 2.96243 838.962 0.5 842 0.5Z" stroke="#CCCFE0"/>
<path d="M946.5 0.5H1078C1081.04 0.5 1083.5 2.96243 1083.5 6V26C1083.5 29.0376 1081.04 31.5 1078 31.5H946.5V0.5Z" fill="white"/>
<path d="M968.865 14.0298C968.783 13.7713 968.672 13.5398 968.533 13.3352C968.396 13.1278 968.233 12.9517 968.043 12.8068C967.852 12.6591 967.635 12.5469 967.391 12.4702C967.149 12.3935 966.884 12.3551 966.594 12.3551C966.102 12.3551 965.659 12.4815 965.264 12.7344C964.869 12.9872 964.557 13.358 964.327 13.8466C964.099 14.3324 963.986 14.9276 963.986 15.6321C963.986 16.3395 964.101 16.9375 964.331 17.4261C964.561 17.9148 964.876 18.2855 965.277 18.5384C965.678 18.7912 966.134 18.9176 966.645 18.9176C967.119 18.9176 967.533 18.821 967.885 18.6278C968.24 18.4347 968.514 18.1619 968.707 17.8097C968.903 17.4545 969.001 17.0369 969.001 16.5568L969.342 16.6207H966.845V15.5341H970.276V16.527C970.276 17.2599 970.119 17.8963 969.807 18.4361C969.497 18.973 969.068 19.3878 968.52 19.6804C967.974 19.973 967.349 20.1193 966.645 20.1193C965.855 20.1193 965.162 19.9375 964.565 19.5739C963.972 19.2102 963.509 18.6946 963.176 18.027C962.844 17.3565 962.678 16.5611 962.678 15.6406C962.678 14.9446 962.774 14.3196 962.967 13.7656C963.161 13.2116 963.432 12.7415 963.781 12.3551C964.134 11.9659 964.547 11.669 965.021 11.4645C965.499 11.2571 966.02 11.1534 966.585 11.1534C967.057 11.1534 967.496 11.223 967.902 11.3622C968.311 11.5014 968.675 11.6989 968.993 11.9545C969.314 12.2102 969.58 12.5142 969.79 12.8665C970 13.2159 970.142 13.6037 970.216 14.0298H968.865ZM975.666 20.1321C975.021 20.1321 974.466 19.9943 974 19.7188C973.537 19.4403 973.179 19.0497 972.926 18.5469C972.676 18.0412 972.551 17.4489 972.551 16.7699C972.551 16.0994 972.676 15.5085 972.926 14.9972C973.179 14.4858 973.531 14.0866 973.983 13.7997C974.437 13.5128 974.968 13.3693 975.576 13.3693C975.946 13.3693 976.304 13.4304 976.65 13.5526C976.997 13.6747 977.308 13.8665 977.583 14.1278C977.859 14.3892 978.076 14.7287 978.235 15.1463C978.395 15.5611 978.474 16.0653 978.474 16.6591V17.1108H973.271V16.1562H977.225C977.225 15.821 977.157 15.5241 977.021 15.2656C976.885 15.0043 976.693 14.7983 976.446 14.6477C976.201 14.4972 975.914 14.4219 975.585 14.4219C975.227 14.4219 974.914 14.5099 974.647 14.6861C974.383 14.8594 974.179 15.0866 974.034 15.3679C973.892 15.6463 973.821 15.9489 973.821 16.2756V17.0213C973.821 17.4588 973.897 17.831 974.051 18.1378C974.207 18.4446 974.424 18.679 974.703 18.8409C974.981 19 975.306 19.0795 975.679 19.0795C975.92 19.0795 976.14 19.0455 976.339 18.9773C976.538 18.9062 976.71 18.8011 976.855 18.6619C977 18.5227 977.11 18.3509 977.187 18.1463L978.393 18.3636C978.297 18.7187 978.123 19.0298 977.873 19.2969C977.626 19.5611 977.315 19.767 976.94 19.9148C976.568 20.0597 976.143 20.1321 975.666 20.1321ZM982.162 16.1136V20H980.888V13.4545H982.111V14.5199H982.192C982.342 14.1733 982.578 13.8949 982.899 13.6847C983.223 13.4744 983.631 13.3693 984.122 13.3693C984.568 13.3693 984.959 13.4631 985.294 13.6506C985.629 13.8352 985.889 14.1108 986.074 14.4773C986.259 14.8437 986.351 15.2969 986.351 15.8366V20H985.077V15.9901C985.077 15.5156 984.953 15.1449 984.706 14.8778C984.459 14.608 984.119 14.473 983.688 14.473C983.392 14.473 983.129 14.5369 982.899 14.6648C982.672 14.7926 982.491 14.9801 982.358 15.2273C982.227 15.4716 982.162 15.767 982.162 16.1136ZM991.881 20.1321C991.236 20.1321 990.68 19.9943 990.214 19.7188C989.751 19.4403 989.393 19.0497 989.141 18.5469C988.891 18.0412 988.766 17.4489 988.766 16.7699C988.766 16.0994 988.891 15.5085 989.141 14.9972C989.393 14.4858 989.746 14.0866 990.197 13.7997C990.652 13.5128 991.183 13.3693 991.791 13.3693C992.161 13.3693 992.518 13.4304 992.865 13.5526C993.212 13.6747 993.523 13.8665 993.798 14.1278C994.074 14.3892 994.291 14.7287 994.45 15.1463C994.609 15.5611 994.689 16.0653 994.689 16.6591V17.1108H989.486V16.1562H993.44C993.44 15.821 993.372 15.5241 993.236 15.2656C993.099 15.0043 992.908 14.7983 992.661 14.6477C992.416 14.4972 992.129 14.4219 991.8 14.4219C991.442 14.4219 991.129 14.5099 990.862 14.6861C990.598 14.8594 990.393 15.0866 990.249 15.3679C990.107 15.6463 990.036 15.9489 990.036 16.2756V17.0213C990.036 17.4588 990.112 17.831 990.266 18.1378C990.422 18.4446 990.639 18.679 990.918 18.8409C991.196 19 991.521 19.0795 991.893 19.0795C992.135 19.0795 992.355 19.0455 992.554 18.9773C992.753 18.9062 992.925 18.8011 993.07 18.6619C993.214 18.5227 993.325 18.3509 993.402 18.1463L994.608 18.3636C994.511 18.7187 994.338 19.0298 994.088 19.2969C993.841 19.5611 993.53 19.767 993.155 19.9148C992.783 20.0597 992.358 20.1321 991.881 20.1321ZM997.103 20V13.4545H998.334V14.4943H998.402C998.522 14.142 998.732 13.8651 999.033 13.6634C999.337 13.4588 999.681 13.3565 1000.06 13.3565C1000.14 13.3565 1000.24 13.3594 1000.35 13.3651C1000.46 13.3707 1000.54 13.3778 1000.61 13.3864V14.6051C1000.55 14.5909 1000.46 14.5753 1000.33 14.5582C1000.2 14.5384 1000.07 14.5284 999.941 14.5284C999.64 14.5284 999.371 14.5923 999.135 14.7202C998.902 14.8452 998.718 15.0199 998.581 15.2443C998.445 15.4659 998.377 15.7187 998.377 16.0028V20H997.103ZM1004.55 20.1449C1004.14 20.1449 1003.76 20.0682 1003.43 19.9148C1003.09 19.7585 1002.83 19.5327 1002.63 19.2372C1002.44 18.9418 1002.34 18.5795 1002.34 18.1506C1002.34 17.7812 1002.41 17.4773 1002.56 17.2386C1002.7 17 1002.89 16.8111 1003.13 16.6719C1003.37 16.5327 1003.64 16.4276 1003.94 16.3565C1004.24 16.2855 1004.54 16.2315 1004.85 16.1946C1005.24 16.1491 1005.56 16.1122 1005.81 16.0838C1006.05 16.0526 1006.23 16.0028 1006.34 15.9347C1006.45 15.8665 1006.51 15.7557 1006.51 15.6023V15.5724C1006.51 15.2003 1006.4 14.9119 1006.19 14.7074C1005.98 14.5028 1005.67 14.4006 1005.26 14.4006C1004.83 14.4006 1004.49 14.4957 1004.25 14.6861C1004 14.8736 1003.83 15.0824 1003.74 15.3125L1002.54 15.0398C1002.69 14.642 1002.89 14.321 1003.17 14.0767C1003.44 13.8295 1003.76 13.6506 1004.12 13.5398C1004.47 13.4261 1004.85 13.3693 1005.24 13.3693C1005.51 13.3693 1005.78 13.4006 1006.08 13.4631C1006.37 13.5227 1006.65 13.6335 1006.9 13.7955C1007.16 13.9574 1007.37 14.1889 1007.54 14.4901C1007.7 14.7884 1007.78 15.1761 1007.78 15.6534V20H1006.54V19.1051H1006.49C1006.41 19.2699 1006.28 19.4318 1006.12 19.5909C1005.95 19.75 1005.74 19.8821 1005.48 19.9872C1005.22 20.0923 1004.92 20.1449 1004.55 20.1449ZM1004.83 19.1222C1005.18 19.1222 1005.48 19.0526 1005.73 18.9134C1005.99 18.7741 1006.18 18.5923 1006.31 18.3679C1006.44 18.1406 1006.51 17.8977 1006.51 17.6392V16.7955C1006.46 16.8409 1006.38 16.8835 1006.25 16.9233C1006.12 16.9602 1005.97 16.9929 1005.81 17.0213C1005.64 17.0469 1005.48 17.071 1005.33 17.0938C1005.17 17.1136 1005.04 17.1307 1004.93 17.1449C1004.69 17.1761 1004.46 17.2287 1004.26 17.3026C1004.05 17.3764 1003.89 17.483 1003.77 17.6222C1003.65 17.7585 1003.59 17.9403 1003.59 18.1676C1003.59 18.483 1003.71 18.7216 1003.94 18.8835C1004.17 19.0426 1004.47 19.1222 1004.83 19.1222ZM1013.54 13.4545V14.4773H1009.96V13.4545H1013.54ZM1010.92 11.8864H1012.19V18.0781C1012.19 18.3253 1012.23 18.5114 1012.31 18.6364C1012.38 18.7585 1012.47 18.8423 1012.59 18.8878C1012.71 18.9304 1012.84 18.9517 1012.98 18.9517C1013.08 18.9517 1013.17 18.9446 1013.25 18.9304C1013.32 18.9162 1013.38 18.9048 1013.43 18.8963L1013.66 19.9489C1013.58 19.9773 1013.48 20.0057 1013.34 20.0341C1013.2 20.0653 1013.03 20.0824 1012.83 20.0852C1012.49 20.0909 1012.18 20.0312 1011.89 19.9062C1011.6 19.7812 1011.37 19.5881 1011.19 19.3267C1011.01 19.0653 1010.92 18.7372 1010.92 18.3423V11.8864ZM1018.7 20.1321C1018.05 20.1321 1017.5 19.9943 1017.03 19.7188C1016.57 19.4403 1016.21 19.0497 1015.96 18.5469C1015.71 18.0412 1015.58 17.4489 1015.58 16.7699C1015.58 16.0994 1015.71 15.5085 1015.96 14.9972C1016.21 14.4858 1016.56 14.0866 1017.01 13.7997C1017.47 13.5128 1018 13.3693 1018.61 13.3693C1018.98 13.3693 1019.33 13.4304 1019.68 13.5526C1020.03 13.6747 1020.34 13.8665 1020.61 14.1278C1020.89 14.3892 1021.11 14.7287 1021.27 15.1463C1021.43 15.5611 1021.51 16.0653 1021.51 16.6591V17.1108H1016.3V16.1562H1020.26C1020.26 15.821 1020.19 15.5241 1020.05 15.2656C1019.92 15.0043 1019.72 14.7983 1019.48 14.6477C1019.23 14.4972 1018.95 14.4219 1018.62 14.4219C1018.26 14.4219 1017.95 14.5099 1017.68 14.6861C1017.41 14.8594 1017.21 15.0866 1017.06 15.3679C1016.92 15.6463 1016.85 15.9489 1016.85 16.2756V17.0213C1016.85 17.4588 1016.93 17.831 1017.08 18.1378C1017.24 18.4446 1017.46 18.679 1017.73 18.8409C1018.01 19 1018.34 19.0795 1018.71 19.0795C1018.95 19.0795 1019.17 19.0455 1019.37 18.9773C1019.57 18.9062 1019.74 18.8011 1019.89 18.6619C1020.03 18.5227 1020.14 18.3509 1020.22 18.1463L1021.42 18.3636C1021.33 18.7187 1021.15 19.0298 1020.9 19.2969C1020.66 19.5611 1020.35 19.767 1019.97 19.9148C1019.6 20.0597 1019.17 20.1321 1018.7 20.1321ZM1028.09 20V13.4545H1029.33V14.4943H1029.39C1029.51 14.142 1029.72 13.8651 1030.03 13.6634C1030.33 13.4588 1030.67 13.3565 1031.06 13.3565C1031.14 13.3565 1031.23 13.3594 1031.34 13.3651C1031.45 13.3707 1031.54 13.3778 1031.6 13.3864V14.6051C1031.55 14.5909 1031.46 14.5753 1031.32 14.5582C1031.19 14.5384 1031.06 14.5284 1030.93 14.5284C1030.63 14.5284 1030.36 14.5923 1030.13 14.7202C1029.89 14.8452 1029.71 15.0199 1029.57 15.2443C1029.44 15.4659 1029.37 15.7187 1029.37 16.0028V20H1028.09ZM1036.29 20.1321C1035.64 20.1321 1035.09 19.9943 1034.62 19.7188C1034.16 19.4403 1033.8 19.0497 1033.55 18.5469C1033.3 18.0412 1033.17 17.4489 1033.17 16.7699C1033.17 16.0994 1033.3 15.5085 1033.55 14.9972C1033.8 14.4858 1034.15 14.0866 1034.6 13.7997C1035.06 13.5128 1035.59 13.3693 1036.2 13.3693C1036.57 13.3693 1036.92 13.4304 1037.27 13.5526C1037.62 13.6747 1037.93 13.8665 1038.2 14.1278C1038.48 14.3892 1038.7 14.7287 1038.86 15.1463C1039.02 15.5611 1039.1 16.0653 1039.1 16.6591V17.1108H1033.89V16.1562H1037.85C1037.85 15.821 1037.78 15.5241 1037.64 15.2656C1037.51 15.0043 1037.31 14.7983 1037.07 14.6477C1036.82 14.4972 1036.54 14.4219 1036.21 14.4219C1035.85 14.4219 1035.54 14.5099 1035.27 14.6861C1035 14.8594 1034.8 15.0866 1034.65 15.3679C1034.51 15.6463 1034.44 15.9489 1034.44 16.2756V17.0213C1034.44 17.4588 1034.52 17.831 1034.67 18.1378C1034.83 18.4446 1035.05 18.679 1035.32 18.8409C1035.6 19 1035.93 19.0795 1036.3 19.0795C1036.54 19.0795 1036.76 19.0455 1036.96 18.9773C1037.16 18.9062 1037.33 18.8011 1037.48 18.6619C1037.62 18.5227 1037.73 18.3509 1037.81 18.1463L1039.01 18.3636C1038.92 18.7187 1038.74 19.0298 1038.49 19.2969C1038.25 19.5611 1037.94 19.767 1037.56 19.9148C1037.19 20.0597 1036.76 20.1321 1036.29 20.1321ZM1041.51 22.4545V13.4545H1042.75V14.5156H1042.86C1042.93 14.3793 1043.04 14.2216 1043.18 14.0426C1043.32 13.8636 1043.51 13.7074 1043.76 13.5739C1044.01 13.4375 1044.33 13.3693 1044.74 13.3693C1045.27 13.3693 1045.74 13.5028 1046.15 13.7699C1046.57 14.0369 1046.89 14.4219 1047.13 14.9247C1047.37 15.4276 1047.49 16.0327 1047.49 16.7401C1047.49 17.4474 1047.37 18.054 1047.13 18.5597C1046.9 19.0625 1046.57 19.4503 1046.16 19.723C1045.75 19.9929 1045.28 20.1278 1044.75 20.1278C1044.35 20.1278 1044.03 20.0611 1043.78 19.9276C1043.53 19.794 1043.33 19.6378 1043.19 19.4588C1043.05 19.2798 1042.94 19.1207 1042.86 18.9815H1042.78V22.4545H1041.51ZM1042.76 16.7273C1042.76 17.1875 1042.82 17.5909 1042.96 17.9375C1043.09 18.2841 1043.28 18.5554 1043.54 18.7514C1043.79 18.9446 1044.1 19.0412 1044.47 19.0412C1044.85 19.0412 1045.17 18.9403 1045.42 18.7386C1045.68 18.5341 1045.87 18.2571 1046 17.9077C1046.13 17.5582 1046.2 17.1648 1046.2 16.7273C1046.2 16.2955 1046.14 15.9077 1046 15.5639C1045.88 15.2202 1045.68 14.9489 1045.43 14.75C1045.17 14.5511 1044.85 14.4517 1044.47 14.4517C1044.1 14.4517 1043.78 14.5469 1043.53 14.7372C1043.28 14.9276 1043.08 15.1932 1042.95 15.5341C1042.82 15.875 1042.76 16.2727 1042.76 16.7273ZM1052.67 20.1321C1052.06 20.1321 1051.52 19.9915 1051.07 19.7102C1050.61 19.429 1050.25 19.0355 1050 18.5298C1049.75 18.0241 1049.62 17.4332 1049.62 16.7571C1049.62 16.0781 1049.75 15.4844 1050 14.9759C1050.25 14.4673 1050.61 14.0724 1051.07 13.7912C1051.52 13.5099 1052.06 13.3693 1052.67 13.3693C1053.29 13.3693 1053.82 13.5099 1054.28 13.7912C1054.74 14.0724 1055.09 14.4673 1055.34 14.9759C1055.6 15.4844 1055.72 16.0781 1055.72 16.7571C1055.72 17.4332 1055.6 18.0241 1055.34 18.5298C1055.09 19.0355 1054.74 19.429 1054.28 19.7102C1053.82 19.9915 1053.29 20.1321 1052.67 20.1321ZM1052.68 19.0625C1053.07 19.0625 1053.4 18.9574 1053.67 18.7472C1053.93 18.5369 1054.12 18.2571 1054.24 17.9077C1054.37 17.5582 1054.44 17.1733 1054.44 16.7528C1054.44 16.3352 1054.37 15.9517 1054.24 15.6023C1054.12 15.25 1053.93 14.9673 1053.67 14.7543C1053.4 14.5412 1053.07 14.4347 1052.68 14.4347C1052.28 14.4347 1051.94 14.5412 1051.68 14.7543C1051.42 14.9673 1051.22 15.25 1051.1 15.6023C1050.97 15.9517 1050.91 16.3352 1050.91 16.7528C1050.91 17.1733 1050.97 17.5582 1051.1 17.9077C1051.22 18.2571 1051.42 18.5369 1051.68 18.7472C1051.94 18.9574 1052.28 19.0625 1052.68 19.0625ZM1058.15 20V13.4545H1059.38V14.4943H1059.45C1059.56 14.142 1059.77 13.8651 1060.08 13.6634C1060.38 13.4588 1060.72 13.3565 1061.11 13.3565C1061.19 13.3565 1061.28 13.3594 1061.39 13.3651C1061.5 13.3707 1061.59 13.3778 1061.65 13.3864V14.6051C1061.6 14.5909 1061.51 14.5753 1061.38 14.5582C1061.25 14.5384 1061.11 14.5284 1060.98 14.5284C1060.68 14.5284 1060.41 14.5923 1060.18 14.7202C1059.95 14.8452 1059.76 15.0199 1059.62 15.2443C1059.49 15.4659 1059.42 15.7187 1059.42 16.0028V20H1058.15ZM1067.19 13.4545V14.4773H1063.62V13.4545H1067.19ZM1064.58 11.8864H1065.85V18.0781C1065.85 18.3253 1065.89 18.5114 1065.96 18.6364C1066.04 18.7585 1066.13 18.8423 1066.25 18.8878C1066.37 18.9304 1066.5 18.9517 1066.63 18.9517C1066.74 18.9517 1066.83 18.9446 1066.9 18.9304C1066.98 18.9162 1067.04 18.9048 1067.08 18.8963L1067.31 19.9489C1067.24 19.9773 1067.13 20.0057 1067 20.0341C1066.86 20.0653 1066.69 20.0824 1066.49 20.0852C1066.15 20.0909 1065.84 20.0312 1065.55 19.9062C1065.26 19.7812 1065.02 19.5881 1064.85 19.3267C1064.67 19.0653 1064.58 18.7372 1064.58 18.3423V11.8864Z" fill="#4A5078"/>
<path d="M946.5 0.5H1078C1081.04 0.5 1083.5 2.96243 1083.5 6V26C1083.5 29.0376 1081.04 31.5 1078 31.5H946.5V0.5Z" stroke="#CCCFE0"/>
<path d="M9.57528 42.1293H8.02415C7.96449 41.7978 7.85346 41.5062 7.69105 41.2543C7.52865 41.0024 7.32978 40.7886 7.09446 40.6129C6.85914 40.4373 6.59564 40.3047 6.30398 40.2152C6.01563 40.1257 5.70904 40.081 5.38423 40.081C4.79759 40.081 4.27225 40.2285 3.80824 40.5234C3.34754 40.8184 2.98295 41.2509 2.71449 41.821C2.44934 42.3911 2.31676 43.0871 2.31676 43.9091C2.31676 44.7377 2.44934 45.437 2.71449 46.0071C2.98295 46.5772 3.3492 47.008 3.81321 47.2997C4.27723 47.5914 4.79924 47.7372 5.37926 47.7372C5.70076 47.7372 6.00568 47.6941 6.29403 47.608C6.5857 47.5185 6.8492 47.3875 7.08452 47.2152C7.31984 47.0429 7.5187 46.8324 7.68111 46.5838C7.84683 46.3319 7.96117 46.0436 8.02415 45.7188L9.57528 45.7237C9.49242 46.2242 9.33168 46.6849 9.09304 47.1058C8.85772 47.5234 8.55445 47.8847 8.18324 48.1896C7.81534 48.4912 7.39441 48.7249 6.92045 48.8906C6.4465 49.0563 5.92945 49.1392 5.36932 49.1392C4.48769 49.1392 3.70218 48.9304 3.01278 48.5128C2.32339 48.0919 1.77983 47.4903 1.3821 46.7081C0.987689 45.9259 0.790483 44.9929 0.790483 43.9091C0.790483 42.822 0.989347 41.889 1.38707 41.1101C1.7848 40.3279 2.32836 39.728 3.01776 39.3104C3.70715 38.8894 4.491 38.679 5.36932 38.679C5.90956 38.679 6.41335 38.7569 6.88068 38.9126C7.35133 39.0651 7.77391 39.2905 8.14844 39.5888C8.52296 39.8838 8.83286 40.245 9.07812 40.6726C9.32339 41.0968 9.48911 41.5824 9.57528 42.1293ZM16.1316 45.8331V41.3636H17.623V49H16.1614V47.6776H16.0819C15.9062 48.0852 15.6245 48.425 15.2367 48.6967C14.8522 48.9652 14.3733 49.0994 13.7999 49.0994C13.3094 49.0994 12.8752 48.9917 12.4973 48.7763C12.1228 48.5575 11.8278 48.2344 11.6124 47.8068C11.4003 47.3793 11.2942 46.8506 11.2942 46.2209V41.3636H12.7807V46.0419C12.7807 46.5623 12.9249 46.9766 13.2132 47.2848C13.5016 47.593 13.8761 47.7472 14.3368 47.7472C14.6152 47.7472 14.892 47.6776 15.1671 47.5384C15.4455 47.3991 15.6758 47.1887 15.8581 46.907C16.0437 46.6252 16.1349 46.2673 16.1316 45.8331ZM19.6204 49V41.3636H21.0572V42.5767H21.1367C21.2759 42.1657 21.5212 41.8426 21.8725 41.6072C22.2272 41.3686 22.6282 41.2493 23.0756 41.2493C23.1684 41.2493 23.2778 41.2526 23.4038 41.2592C23.533 41.2659 23.6341 41.2741 23.707 41.2841V42.706C23.6474 42.6894 23.5413 42.6712 23.3888 42.6513C23.2364 42.6281 23.0839 42.6165 22.9315 42.6165C22.5801 42.6165 22.2669 42.6911 21.9918 42.8402C21.7201 42.986 21.5046 43.1899 21.3455 43.4517C21.1864 43.7102 21.1069 44.0052 21.1069 44.3366V49H19.6204ZM24.9934 49V41.3636H26.4302V42.5767H26.5098C26.649 42.1657 26.8942 41.8426 27.2456 41.6072C27.6002 41.3686 28.0012 41.2493 28.4487 41.2493C28.5415 41.2493 28.6509 41.2526 28.7768 41.2592C28.9061 41.2659 29.0072 41.2741 29.0801 41.2841V42.706C29.0204 42.6894 28.9144 42.6712 28.7619 42.6513C28.6094 42.6281 28.457 42.6165 28.3045 42.6165C27.9532 42.6165 27.64 42.6911 27.3649 42.8402C27.0931 42.986 26.8777 43.1899 26.7186 43.4517C26.5595 43.7102 26.4799 44.0052 26.4799 44.3366V49H24.9934ZM33.3842 49.1541C32.6319 49.1541 31.9839 48.9934 31.4403 48.6719C30.9001 48.3471 30.4825 47.8913 30.1875 47.3047C29.8958 46.7147 29.75 46.0237 29.75 45.2315C29.75 44.4493 29.8958 43.7599 30.1875 43.1634C30.4825 42.5668 30.8935 42.1011 31.4205 41.7663C31.9508 41.4316 32.5705 41.2642 33.2798 41.2642C33.7107 41.2642 34.1283 41.3355 34.5327 41.478C34.937 41.6205 35.3 41.8442 35.6214 42.1491C35.9429 42.4541 36.1965 42.8501 36.3821 43.3374C36.5677 43.8213 36.6605 44.4096 36.6605 45.1023V45.6293H30.5902V44.5156H35.2038C35.2038 44.1245 35.1243 43.7782 34.9652 43.4766C34.8061 43.1716 34.5824 42.9313 34.294 42.7557C34.009 42.58 33.6742 42.4922 33.2898 42.4922C32.8722 42.4922 32.5076 42.5949 32.196 42.8004C31.8878 43.0026 31.6491 43.2678 31.4801 43.5959C31.3144 43.9207 31.2315 44.2737 31.2315 44.6548V45.5249C31.2315 46.0353 31.321 46.4695 31.5 46.8274C31.6823 47.1854 31.9358 47.4588 32.2607 47.6477C32.5855 47.8333 32.965 47.9261 33.3991 47.9261C33.6809 47.9261 33.9377 47.8864 34.1697 47.8068C34.4018 47.724 34.6023 47.6013 34.7713 47.4389C34.9403 47.2765 35.0696 47.076 35.1591 46.8374L36.5661 47.0909C36.4534 47.5052 36.2512 47.8681 35.9595 48.1797C35.6712 48.4879 35.3082 48.7282 34.8707 48.9006C34.4366 49.0696 33.9411 49.1541 33.3842 49.1541ZM39.7963 44.4659V49H38.3098V41.3636H39.7367V42.6065H39.8311C40.0068 42.2022 40.2819 41.8774 40.6564 41.6321C41.0343 41.3868 41.5099 41.2642 42.0833 41.2642C42.6036 41.2642 43.0594 41.3736 43.4505 41.5923C43.8416 41.8078 44.1448 42.1293 44.3603 42.5568C44.5757 42.9844 44.6834 43.513 44.6834 44.1428V49H43.1969V44.3217C43.1969 43.7682 43.0527 43.3357 42.7644 43.0241C42.476 42.7093 42.08 42.5518 41.5762 42.5518C41.2315 42.5518 40.9249 42.6264 40.6564 42.7756C40.3913 42.9247 40.1808 43.1435 40.025 43.4318C39.8726 43.7169 39.7963 44.0616 39.7963 44.4659ZM50.2417 41.3636V42.5568H46.0705V41.3636H50.2417ZM47.1891 39.5341H48.6756V46.7578C48.6756 47.0462 48.7187 47.2633 48.8049 47.4091C48.891 47.5516 49.0021 47.6494 49.138 47.7024C49.2772 47.7521 49.428 47.777 49.5904 47.777C49.7097 47.777 49.8141 47.7687 49.9036 47.7521C49.9931 47.7356 50.0627 47.7223 50.1124 47.7124L50.3809 48.9403C50.2947 48.9735 50.1721 49.0066 50.013 49.0398C49.8539 49.0762 49.655 49.0961 49.4164 49.0994C49.0253 49.1061 48.6607 49.0365 48.3226 48.8906C47.9846 48.7448 47.7111 48.5194 47.5023 48.2145C47.2935 47.9096 47.1891 47.5268 47.1891 47.0661V39.5341ZM55.7104 49V38.8182H59.3397C60.1318 38.8182 60.7881 38.9624 61.3084 39.2507C61.8288 39.5391 62.2182 39.9335 62.4767 40.4339C62.7353 40.9311 62.8645 41.4912 62.8645 42.1143C62.8645 42.7408 62.7336 43.3042 62.4718 43.8047C62.2132 44.3018 61.8221 44.6963 61.2985 44.9879C60.7781 45.2763 60.1235 45.4205 59.3347 45.4205H56.839V44.1179H59.1955C59.696 44.1179 60.102 44.0317 60.4135 43.8594C60.7251 43.6837 60.9538 43.4451 61.0996 43.1435C61.2454 42.8419 61.3184 42.4988 61.3184 42.1143C61.3184 41.7299 61.2454 41.3885 61.0996 41.0902C60.9538 40.7919 60.7234 40.5582 60.4086 40.3892C60.097 40.2202 59.686 40.1357 59.1756 40.1357H57.2466V49H55.7104ZM67.6671 49.1541C66.9512 49.1541 66.3264 48.9901 65.7928 48.6619C65.2592 48.3338 64.8449 47.8748 64.5499 47.2848C64.2549 46.6948 64.1074 46.0054 64.1074 45.2166C64.1074 44.4245 64.2549 43.7318 64.5499 43.1385C64.8449 42.5452 65.2592 42.0845 65.7928 41.7564C66.3264 41.4283 66.9512 41.2642 67.6671 41.2642C68.383 41.2642 69.0078 41.4283 69.5414 41.7564C70.075 42.0845 70.4893 42.5452 70.7843 43.1385C71.0792 43.7318 71.2267 44.4245 71.2267 45.2166C71.2267 46.0054 71.0792 46.6948 70.7843 47.2848C70.4893 47.8748 70.075 48.3338 69.5414 48.6619C69.0078 48.9901 68.383 49.1541 67.6671 49.1541ZM67.6721 47.9062C68.1361 47.9062 68.5205 47.7836 68.8255 47.5384C69.1304 47.2931 69.3558 46.9666 69.5016 46.5589C69.6507 46.1513 69.7253 45.7022 69.7253 45.2116C69.7253 44.7244 69.6507 44.277 69.5016 43.8693C69.3558 43.4583 69.1304 43.1286 68.8255 42.88C68.5205 42.6314 68.1361 42.5071 67.6721 42.5071C67.2047 42.5071 66.8169 42.6314 66.5087 42.88C66.2038 43.1286 65.9767 43.4583 65.8276 43.8693C65.6818 44.277 65.6088 44.7244 65.6088 45.2116C65.6088 45.7022 65.6818 46.1513 65.8276 46.5589C65.9767 46.9666 66.2038 47.2931 66.5087 47.5384C66.8169 47.7836 67.2047 47.9062 67.6721 47.9062ZM72.886 49V41.3636H74.3228V42.5767H74.4023C74.5415 42.1657 74.7868 41.8426 75.1381 41.6072C75.4928 41.3686 75.8938 41.2493 76.3413 41.2493C76.4341 41.2493 76.5434 41.2526 76.6694 41.2592C76.7987 41.2659 76.8997 41.2741 76.9727 41.2841V42.706C76.913 42.6894 76.8069 42.6712 76.6545 42.6513C76.502 42.6281 76.3496 42.6165 76.1971 42.6165C75.8458 42.6165 75.5326 42.6911 75.2575 42.8402C74.9857 42.986 74.7702 43.1899 74.6112 43.4517C74.4521 43.7102 74.3725 44.0052 74.3725 44.3366V49H72.886ZM82.2749 41.3636V42.5568H78.1037V41.3636H82.2749ZM79.2223 39.5341H80.7088V46.7578C80.7088 47.0462 80.7519 47.2633 80.8381 47.4091C80.9242 47.5516 81.0353 47.6494 81.1712 47.7024C81.3104 47.7521 81.4612 47.777 81.6236 47.777C81.7429 47.777 81.8473 47.7687 81.9368 47.7521C82.0263 47.7356 82.0959 47.7223 82.1456 47.7124L82.4141 48.9403C82.3279 48.9735 82.2053 49.0066 82.0462 49.0398C81.8871 49.0762 81.6882 49.0961 81.4496 49.0994C81.0585 49.1061 80.6939 49.0365 80.3558 48.8906C80.0178 48.7448 79.7443 48.5194 79.5355 48.2145C79.3267 47.9096 79.2223 47.5268 79.2223 47.0661V39.5341ZM87.5534 41.3636V42.5568H83.2381V41.3636H87.5534ZM84.4213 49V40.4787C84.4213 40.0014 84.5257 39.6053 84.7346 39.2905C84.9434 38.9723 85.2201 38.7353 85.5648 38.5795C85.9095 38.4205 86.284 38.3409 86.6884 38.3409C86.9867 38.3409 87.2419 38.3658 87.454 38.4155C87.6661 38.4619 87.8236 38.505 87.9263 38.5447L87.5783 39.7479C87.5087 39.728 87.4192 39.7048 87.3098 39.6783C87.2005 39.6484 87.0679 39.6335 86.9121 39.6335C86.5508 39.6335 86.2923 39.723 86.1365 39.902C85.9841 40.081 85.9078 40.3395 85.9078 40.6776V49H84.4213ZM92.003 49.1541C91.2871 49.1541 90.6623 48.9901 90.1287 48.6619C89.5951 48.3338 89.1808 47.8748 88.8858 47.2848C88.5908 46.6948 88.4434 46.0054 88.4434 45.2166C88.4434 44.4245 88.5908 43.7318 88.8858 43.1385C89.1808 42.5452 89.5951 42.0845 90.1287 41.7564C90.6623 41.4283 91.2871 41.2642 92.003 41.2642C92.7189 41.2642 93.3437 41.4283 93.8773 41.7564C94.4109 42.0845 94.8252 42.5452 95.1202 43.1385C95.4152 43.7318 95.5627 44.4245 95.5627 45.2166C95.5627 46.0054 95.4152 46.6948 95.1202 47.2848C94.8252 47.8748 94.4109 48.3338 93.8773 48.6619C93.3437 48.9901 92.7189 49.1541 92.003 49.1541ZM92.008 47.9062C92.472 47.9062 92.8565 47.7836 93.1614 47.5384C93.4663 47.2931 93.6917 46.9666 93.8375 46.5589C93.9867 46.1513 94.0613 45.7022 94.0613 45.2116C94.0613 44.7244 93.9867 44.277 93.8375 43.8693C93.6917 43.4583 93.4663 43.1286 93.1614 42.88C92.8565 42.6314 92.472 42.5071 92.008 42.5071C91.5407 42.5071 91.1529 42.6314 90.8446 42.88C90.5397 43.1286 90.3127 43.4583 90.1635 43.8693C90.0177 44.277 89.9448 44.7244 89.9448 45.2116C89.9448 45.7022 90.0177 46.1513 90.1635 46.5589C90.3127 46.9666 90.5397 47.2931 90.8446 47.5384C91.1529 47.7836 91.5407 47.9062 92.008 47.9062ZM98.7085 38.8182V49H97.2219V38.8182H98.7085ZM100.708 49V41.3636H102.195V49H100.708ZM101.459 40.1854C101.2 40.1854 100.978 40.0992 100.793 39.9268C100.61 39.7512 100.519 39.5424 100.519 39.3004C100.519 39.0552 100.61 38.8464 100.793 38.674C100.978 38.4983 101.2 38.4105 101.459 38.4105C101.718 38.4105 101.938 38.4983 102.12 38.674C102.306 38.8464 102.399 39.0552 102.399 39.3004C102.399 39.5424 102.306 39.7512 102.12 39.9268C101.938 40.0992 101.718 40.1854 101.459 40.1854ZM107.411 49.1541C106.695 49.1541 106.071 48.9901 105.537 48.6619C105.003 48.3338 104.589 47.8748 104.294 47.2848C103.999 46.6948 103.852 46.0054 103.852 45.2166C103.852 44.4245 103.999 43.7318 104.294 43.1385C104.589 42.5452 105.003 42.0845 105.537 41.7564C106.071 41.4283 106.695 41.2642 107.411 41.2642C108.127 41.2642 108.752 41.4283 109.286 41.7564C109.819 42.0845 110.233 42.5452 110.528 43.1385C110.823 43.7318 110.971 44.4245 110.971 45.2166C110.971 46.0054 110.823 46.6948 110.528 47.2848C110.233 47.8748 109.819 48.3338 109.286 48.6619C108.752 48.9901 108.127 49.1541 107.411 49.1541ZM107.416 47.9062C107.88 47.9062 108.265 47.7836 108.57 47.5384C108.875 47.2931 109.1 46.9666 109.246 46.5589C109.395 46.1513 109.469 45.7022 109.469 45.2116C109.469 44.7244 109.395 44.277 109.246 43.8693C109.1 43.4583 108.875 43.1286 108.57 42.88C108.265 42.6314 107.88 42.5071 107.416 42.5071C106.949 42.5071 106.561 42.6314 106.253 42.88C105.948 43.1286 105.721 43.4583 105.572 43.8693C105.426 44.277 105.353 44.7244 105.353 45.2116C105.353 45.7022 105.426 46.1513 105.572 46.5589C105.721 46.9666 105.948 47.2931 106.253 47.5384C106.561 47.7836 106.949 47.9062 107.416 47.9062ZM113.61 49.0945C113.338 49.0945 113.104 48.9983 112.909 48.8061C112.713 48.6106 112.615 48.3752 112.615 48.1001C112.615 47.8284 112.713 47.5964 112.909 47.4041C113.104 47.2086 113.338 47.1108 113.61 47.1108C113.881 47.1108 114.115 47.2086 114.311 47.4041C114.506 47.5964 114.604 47.8284 114.604 48.1001C114.604 48.2824 114.557 48.4498 114.465 48.6023C114.375 48.7514 114.256 48.8707 114.107 48.9602C113.958 49.0497 113.792 49.0945 113.61 49.0945ZM113.61 43.5362C113.338 43.5362 113.104 43.4384 112.909 43.2429C112.713 43.0473 112.615 42.8137 112.615 42.5419C112.615 42.2701 112.713 42.0381 112.909 41.8459C113.104 41.6503 113.338 41.5526 113.61 41.5526C113.881 41.5526 114.115 41.6503 114.311 41.8459C114.506 42.0381 114.604 42.2701 114.604 42.5419C114.604 42.7242 114.557 42.8916 114.465 43.044C114.375 43.1932 114.256 43.3125 114.107 43.402C113.958 43.4915 113.792 43.5362 113.61 43.5362Z" fill="#5D6598"/>
<rect x="124" y="32" width="121" height="24" rx="4" fill="#E8EEF9"/>
<path d="M134.953 49H133.323L136.987 38.8182H138.762L142.426 49H140.795L137.916 40.6676H137.837L134.953 49ZM135.227 45.0128H140.517V46.3054H135.227V45.0128ZM145.263 38.8182V49H143.777V38.8182H145.263ZM148.749 38.8182V49H147.263V38.8182H148.749ZM154.574 49V38.8182H158.203C158.995 38.8182 159.651 38.9624 160.172 39.2507C160.692 39.5391 161.081 39.9335 161.34 40.4339C161.599 40.9311 161.728 41.4912 161.728 42.1143C161.728 42.7408 161.597 43.3042 161.335 43.8047C161.077 44.3018 160.685 44.6963 160.162 44.9879C159.641 45.2763 158.987 45.4205 158.198 45.4205H155.702V44.1179H158.059C158.559 44.1179 158.965 44.0317 159.277 43.8594C159.588 43.6837 159.817 43.4451 159.963 43.1435C160.109 42.8419 160.182 42.4988 160.182 42.1143C160.182 41.7299 160.109 41.3885 159.963 41.0902C159.817 40.7919 159.587 40.5582 159.272 40.3892C158.96 40.2202 158.549 40.1357 158.039 40.1357H156.11V49H154.574ZM166.53 49.1541C165.814 49.1541 165.19 48.9901 164.656 48.6619C164.122 48.3338 163.708 47.8748 163.413 47.2848C163.118 46.6948 162.971 46.0054 162.971 45.2166C162.971 44.4245 163.118 43.7318 163.413 43.1385C163.708 42.5452 164.122 42.0845 164.656 41.7564C165.19 41.4283 165.814 41.2642 166.53 41.2642C167.246 41.2642 167.871 41.4283 168.405 41.7564C168.938 42.0845 169.353 42.5452 169.648 43.1385C169.943 43.7318 170.09 44.4245 170.09 45.2166C170.09 46.0054 169.943 46.6948 169.648 47.2848C169.353 47.8748 168.938 48.3338 168.405 48.6619C167.871 48.9901 167.246 49.1541 166.53 49.1541ZM166.535 47.9062C166.999 47.9062 167.384 47.7836 167.689 47.5384C167.994 47.2931 168.219 46.9666 168.365 46.5589C168.514 46.1513 168.589 45.7022 168.589 45.2116C168.589 44.7244 168.514 44.277 168.365 43.8693C168.219 43.4583 167.994 43.1286 167.689 42.88C167.384 42.6314 166.999 42.5071 166.535 42.5071C166.068 42.5071 165.68 42.6314 165.372 42.88C165.067 43.1286 164.84 43.4583 164.691 43.8693C164.545 44.277 164.472 44.7244 164.472 45.2116C164.472 45.7022 164.545 46.1513 164.691 46.5589C164.84 46.9666 165.067 47.2931 165.372 47.5384C165.68 47.7836 166.068 47.9062 166.535 47.9062ZM171.749 49V41.3636H173.186V42.5767H173.266C173.405 42.1657 173.65 41.8426 174.001 41.6072C174.356 41.3686 174.757 41.2493 175.205 41.2493C175.297 41.2493 175.407 41.2526 175.533 41.2592C175.662 41.2659 175.763 41.2741 175.836 41.2841V42.706C175.776 42.6894 175.67 42.6712 175.518 42.6513C175.365 42.6281 175.213 42.6165 175.06 42.6165C174.709 42.6165 174.396 42.6911 174.121 42.8402C173.849 42.986 173.634 43.1899 173.474 43.4517C173.315 43.7102 173.236 44.0052 173.236 44.3366V49H171.749ZM181.138 41.3636V42.5568H176.967V41.3636H181.138ZM178.086 39.5341H179.572V46.7578C179.572 47.0462 179.615 47.2633 179.701 47.4091C179.788 47.5516 179.899 47.6494 180.034 47.7024C180.174 47.7521 180.324 47.777 180.487 47.777C180.606 47.777 180.711 47.7687 180.8 47.7521C180.89 47.7356 180.959 47.7223 181.009 47.7124L181.277 48.9403C181.191 48.9735 181.069 49.0066 180.909 49.0398C180.75 49.0762 180.551 49.0961 180.313 49.0994C179.922 49.1061 179.557 49.0365 179.219 48.8906C178.881 48.7448 178.608 48.5194 178.399 48.2145C178.19 47.9096 178.086 47.5268 178.086 47.0661V39.5341ZM186.417 41.3636V42.5568H182.101V41.3636H186.417ZM183.285 49V40.4787C183.285 40.0014 183.389 39.6053 183.598 39.2905C183.807 38.9723 184.083 38.7353 184.428 38.5795C184.773 38.4205 185.147 38.3409 185.552 38.3409C185.85 38.3409 186.105 38.3658 186.317 38.4155C186.529 38.4619 186.687 38.505 186.79 38.5447L186.442 39.7479C186.372 39.728 186.282 39.7048 186.173 39.6783C186.064 39.6484 185.931 39.6335 185.775 39.6335C185.414 39.6335 185.156 39.723 185 39.902C184.847 40.081 184.771 40.3395 184.771 40.6776V49H183.285ZM190.866 49.1541C190.15 49.1541 189.526 48.9901 188.992 48.6619C188.458 48.3338 188.044 47.8748 187.749 47.2848C187.454 46.6948 187.307 46.0054 187.307 45.2166C187.307 44.4245 187.454 43.7318 187.749 43.1385C188.044 42.5452 188.458 42.0845 188.992 41.7564C189.526 41.4283 190.15 41.2642 190.866 41.2642C191.582 41.2642 192.207 41.4283 192.741 41.7564C193.274 42.0845 193.689 42.5452 193.983 43.1385C194.278 43.7318 194.426 44.4245 194.426 45.2166C194.426 46.0054 194.278 46.6948 193.983 47.2848C193.689 47.8748 193.274 48.3338 192.741 48.6619C192.207 48.9901 191.582 49.1541 190.866 49.1541ZM190.871 47.9062C191.335 47.9062 191.72 47.7836 192.025 47.5384C192.33 47.2931 192.555 46.9666 192.701 46.5589C192.85 46.1513 192.925 45.7022 192.925 45.2116C192.925 44.7244 192.85 44.277 192.701 43.8693C192.555 43.4583 192.33 43.1286 192.025 42.88C191.72 42.6314 191.335 42.5071 190.871 42.5071C190.404 42.5071 190.016 42.6314 189.708 42.88C189.403 43.1286 189.176 43.4583 189.027 43.8693C188.881 44.277 188.808 44.7244 188.808 45.2116C188.808 45.7022 188.881 46.1513 189.027 46.5589C189.176 46.9666 189.403 47.2931 189.708 47.5384C190.016 47.7836 190.404 47.9062 190.871 47.9062ZM197.572 38.8182V49H196.085V38.8182H197.572ZM199.572 49V41.3636H201.058V49H199.572ZM200.322 40.1854C200.064 40.1854 199.842 40.0992 199.656 39.9268C199.474 39.7512 199.383 39.5424 199.383 39.3004C199.383 39.0552 199.474 38.8464 199.656 38.674C199.842 38.4983 200.064 38.4105 200.322 38.4105C200.581 38.4105 200.801 38.4983 200.983 38.674C201.169 38.8464 201.262 39.0552 201.262 39.3004C201.262 39.5424 201.169 39.7512 200.983 39.9268C200.801 40.0992 200.581 40.1854 200.322 40.1854ZM206.275 49.1541C205.559 49.1541 204.934 48.9901 204.4 48.6619C203.867 48.3338 203.452 47.8748 203.157 47.2848C202.862 46.6948 202.715 46.0054 202.715 45.2166C202.715 44.4245 202.862 43.7318 203.157 43.1385C203.452 42.5452 203.867 42.0845 204.4 41.7564C204.934 41.4283 205.559 41.2642 206.275 41.2642C206.99 41.2642 207.615 41.4283 208.149 41.7564C208.682 42.0845 209.097 42.5452 209.392 43.1385C209.687 43.7318 209.834 44.4245 209.834 45.2166C209.834 46.0054 209.687 46.6948 209.392 47.2848C209.097 47.8748 208.682 48.3338 208.149 48.6619C207.615 48.9901 206.99 49.1541 206.275 49.1541ZM206.279 47.9062C206.743 47.9062 207.128 47.7836 207.433 47.5384C207.738 47.2931 207.963 46.9666 208.109 46.5589C208.258 46.1513 208.333 45.7022 208.333 45.2116C208.333 44.7244 208.258 44.277 208.109 43.8693C207.963 43.4583 207.738 43.1286 207.433 42.88C207.128 42.6314 206.743 42.5071 206.279 42.5071C205.812 42.5071 205.424 42.6314 205.116 42.88C204.811 43.1286 204.584 43.4583 204.435 43.8693C204.289 44.277 204.216 44.7244 204.216 45.2116C204.216 45.7022 204.289 46.1513 204.435 46.5589C204.584 46.9666 204.811 47.2931 205.116 47.5384C205.424 47.7836 205.812 47.9062 206.279 47.9062ZM217.216 43.228L215.868 43.4666C215.812 43.2943 215.723 43.1302 215.6 42.9744C215.481 42.8187 215.318 42.6911 215.113 42.5916C214.907 42.4922 214.65 42.4425 214.342 42.4425C213.921 42.4425 213.57 42.5369 213.288 42.7259C213.006 42.9115 212.866 43.1518 212.866 43.4467C212.866 43.7019 212.96 43.9074 213.149 44.0632C213.338 44.219 213.643 44.3466 214.064 44.446L215.277 44.7244C215.979 44.8868 216.503 45.1371 216.848 45.4751C217.193 45.8132 217.365 46.2524 217.365 46.7926C217.365 47.25 217.232 47.6577 216.967 48.0156C216.705 48.3703 216.339 48.6487 215.868 48.8509C215.401 49.053 214.859 49.1541 214.243 49.1541C213.388 49.1541 212.69 48.9718 212.15 48.6072C211.609 48.2393 211.278 47.7173 211.155 47.0412L212.592 46.8224C212.682 47.197 212.866 47.4804 213.144 47.6726C213.422 47.8615 213.785 47.956 214.233 47.956C214.72 47.956 215.109 47.8549 215.401 47.6527C215.693 47.4472 215.839 47.197 215.839 46.902C215.839 46.6634 215.749 46.4628 215.57 46.3004C215.394 46.138 215.124 46.0154 214.76 45.9325L213.467 45.6491C212.755 45.4867 212.228 45.2282 211.886 44.8736C211.548 44.5189 211.379 44.0698 211.379 43.5263C211.379 43.0755 211.505 42.6811 211.757 42.343C212.009 42.005 212.357 41.7415 212.801 41.5526C213.245 41.3603 213.754 41.2642 214.327 41.2642C215.153 41.2642 215.802 41.4432 216.276 41.8011C216.75 42.1558 217.063 42.6314 217.216 43.228Z" fill="#131520"/>
<path d="M230.005 47.4C229.785 47.4 229.585 47.32 229.425 47.16L224.425 41.96C224.125 41.64 224.125 41.14 224.445 40.82C224.765 40.52 225.265 40.52 225.585 40.84L230.005 45.44L234.425 40.84C234.725 40.52 235.245 40.52 235.565 40.82C235.885 41.12 235.885 41.64 235.585 41.96L230.585 47.16C230.425 47.32 230.225 47.4 230.005 47.4Z" fill="#5D6598"/>
<defs>
<clipPath id="clip0_201_10481">
<rect width="20" height="20" fill="white" transform="translate(223 6)"/>
</clipPath>
</defs>
</svg>
