<svg width="882" height="87" viewBox="0 0 882 87" fill="none" xmlns="http://www.w3.org/2000/svg">
<rect width="881.745" height="86" transform="translate(0 0.382812)" fill="white"/>
<path d="M141.625 40.3033C141.564 39.7654 141.314 39.3487 140.875 39.0533C140.436 38.754 139.883 38.6044 139.216 38.6044C138.739 38.6044 138.326 38.6802 137.977 38.8317C137.629 38.9794 137.358 39.1839 137.165 39.4453C136.975 39.7029 136.881 39.9964 136.881 40.326C136.881 40.6025 136.945 40.8411 137.074 41.0419C137.206 41.2427 137.379 41.4112 137.591 41.5476C137.807 41.6802 138.038 41.7919 138.284 41.8828C138.53 41.9699 138.767 42.0419 138.994 42.0987L140.131 42.3942C140.502 42.4851 140.883 42.6082 141.273 42.7635C141.663 42.9188 142.025 43.1233 142.358 43.3771C142.691 43.6309 142.96 43.9453 143.165 44.3203C143.373 44.6953 143.477 45.1442 143.477 45.6669C143.477 46.326 143.307 46.9112 142.966 47.4226C142.629 47.9339 142.138 48.3374 141.494 48.6328C140.854 48.9283 140.08 49.076 139.17 49.076C138.299 49.076 137.545 48.9377 136.909 48.6612C136.273 48.3847 135.775 47.9927 135.415 47.4851C135.055 46.9737 134.856 46.3677 134.818 45.6669H136.58C136.614 46.0874 136.75 46.4377 136.989 46.718C137.231 46.9946 137.54 47.201 137.915 47.3374C138.294 47.4699 138.708 47.5362 139.159 47.5362C139.655 47.5362 140.097 47.4586 140.483 47.3033C140.873 47.1442 141.18 46.9245 141.403 46.6442C141.627 46.3601 141.739 46.0286 141.739 45.6499C141.739 45.3052 141.64 45.023 141.443 44.8033C141.25 44.5836 140.987 44.4018 140.653 44.2578C140.324 44.1139 139.951 43.987 139.534 43.8771L138.159 43.5021C137.227 43.2483 136.489 42.8752 135.943 42.3828C135.402 41.8904 135.131 41.2389 135.131 40.4283C135.131 39.7578 135.313 39.1726 135.676 38.6726C136.04 38.1726 136.532 37.7843 137.153 37.5078C137.775 37.2275 138.475 37.0874 139.256 37.0874C140.044 37.0874 140.739 37.2256 141.341 37.5021C141.947 37.7786 142.424 38.1593 142.773 38.6442C143.121 39.1252 143.303 39.6783 143.318 40.3033H141.625ZM147.331 37.2464V48.8828H145.575V37.2464H147.331ZM157.763 40.9226C157.653 40.5779 157.505 40.2692 157.32 39.9964C157.138 39.7199 156.92 39.4851 156.666 39.2919C156.412 39.0949 156.123 38.9453 155.797 38.843C155.475 38.7408 155.121 38.6896 154.734 38.6896C154.079 38.6896 153.488 38.8582 152.962 39.1953C152.435 39.5324 152.018 40.0268 151.712 40.6783C151.409 41.326 151.257 42.1196 151.257 43.0589C151.257 44.0021 151.411 44.7995 151.717 45.451C152.024 46.1025 152.445 46.5968 152.979 46.9339C153.513 47.2711 154.121 47.4396 154.803 47.4396C155.435 47.4396 155.986 47.3108 156.456 47.0533C156.929 46.7957 157.295 46.4321 157.553 45.9624C157.814 45.4889 157.945 44.9321 157.945 44.2919L158.399 44.3771H155.07V42.9283H159.643V44.2521C159.643 45.2294 159.435 46.0779 159.018 46.7976C158.606 47.5135 158.034 48.0665 157.303 48.4567C156.575 48.8468 155.742 49.0419 154.803 49.0419C153.75 49.0419 152.825 48.7995 152.03 48.3146C151.238 47.8298 150.621 47.1423 150.178 46.2521C149.734 45.3582 149.513 44.2976 149.513 43.0703C149.513 42.1423 149.642 41.3089 149.899 40.5703C150.157 39.8317 150.518 39.2048 150.984 38.6896C151.454 38.1707 152.005 37.7749 152.638 37.5021C153.274 37.2256 153.969 37.0874 154.723 37.0874C155.352 37.0874 155.937 37.1802 156.479 37.3658C157.024 37.5514 157.509 37.8146 157.933 38.1555C158.361 38.4964 158.715 38.9018 158.996 39.3714C159.276 39.8374 159.465 40.3544 159.564 40.9226H157.763ZM170.385 45.1101H172.112L173.328 46.6953L173.902 47.3999L175.839 49.9283H174.044L172.749 48.2408L172.305 47.6271L170.385 45.1101ZM176.214 43.0646C176.214 44.3071 175.987 45.3752 175.533 46.2692C175.078 47.1593 174.455 47.8449 173.663 48.326C172.875 48.8033 171.98 49.0419 170.976 49.0419C169.968 49.0419 169.069 48.8033 168.277 48.326C167.489 47.8449 166.868 47.1574 166.413 46.2635C165.959 45.3696 165.732 44.3033 165.732 43.0646C165.732 41.8222 165.959 40.7559 166.413 39.8658C166.868 38.9718 167.489 38.2862 168.277 37.8089C169.069 37.3279 169.968 37.0874 170.976 37.0874C171.98 37.0874 172.875 37.3279 173.663 37.8089C174.455 38.2862 175.078 38.9718 175.533 39.8658C175.987 40.7559 176.214 41.8222 176.214 43.0646ZM174.476 43.0646C174.476 42.1177 174.322 41.3203 174.016 40.6726C173.713 40.0211 173.296 39.5286 172.766 39.1953C172.239 38.8582 171.643 38.6896 170.976 38.6896C170.305 38.6896 169.707 38.8582 169.18 39.1953C168.654 39.5286 168.237 40.0211 167.93 40.6726C167.627 41.3203 167.476 42.1177 167.476 43.0646C167.476 44.0116 167.627 44.8108 167.93 45.4624C168.237 46.1101 168.654 46.6025 169.18 46.9396C169.707 47.273 170.305 47.4396 170.976 47.4396C171.643 47.4396 172.239 47.273 172.766 46.9396C173.296 46.6025 173.713 46.1101 174.016 45.4624C174.322 44.8108 174.476 44.0116 174.476 43.0646ZM183.795 45.2635V40.1555H185.5V48.8828H183.83V47.3714H183.739C183.538 47.8374 183.216 48.2256 182.773 48.5362C182.333 48.843 181.786 48.9964 181.131 48.9964C180.57 48.9964 180.074 48.8733 179.642 48.6271C179.214 48.3771 178.877 48.0078 178.631 47.5192C178.388 47.0305 178.267 46.4264 178.267 45.7067V40.1555H179.966V45.5021C179.966 46.0968 180.131 46.5703 180.46 46.9226C180.79 47.2749 181.218 47.451 181.744 47.451C182.063 47.451 182.379 47.3714 182.693 47.2124C183.011 47.0533 183.275 46.8127 183.483 46.4908C183.695 46.1688 183.799 45.7597 183.795 45.2635ZM191.544 49.0589C190.684 49.0589 189.944 48.8752 189.322 48.5078C188.705 48.1366 188.228 47.6158 187.891 46.9453C187.557 46.2711 187.391 45.4813 187.391 44.576C187.391 43.6821 187.557 42.8942 187.891 42.2124C188.228 41.5305 188.697 40.9983 189.3 40.6158C189.906 40.2332 190.614 40.0419 191.425 40.0419C191.917 40.0419 192.394 40.1233 192.857 40.2862C193.319 40.4491 193.733 40.7048 194.101 41.0533C194.468 41.4018 194.758 41.8544 194.97 42.4112C195.182 42.9643 195.288 43.6366 195.288 44.4283V45.0305H188.351V43.7578H193.624C193.624 43.3108 193.533 42.915 193.351 42.5703C193.169 42.2218 192.913 41.9472 192.584 41.7464C192.258 41.5457 191.875 41.4453 191.436 41.4453C190.959 41.4453 190.542 41.5627 190.186 41.7976C189.834 42.0286 189.561 42.3317 189.368 42.7067C189.179 43.0779 189.084 43.4813 189.084 43.9169V44.9112C189.084 45.4946 189.186 45.9908 189.391 46.3999C189.599 46.8089 189.889 47.1214 190.26 47.3374C190.631 47.5495 191.065 47.6555 191.561 47.6555C191.883 47.6555 192.177 47.6101 192.442 47.5192C192.707 47.4245 192.936 47.2843 193.129 47.0987C193.322 46.9131 193.47 46.6839 193.572 46.4112L195.18 46.701C195.052 47.1745 194.821 47.5893 194.487 47.9453C194.158 48.2976 193.743 48.5722 193.243 48.7692C192.747 48.9624 192.18 49.0589 191.544 49.0589ZM203.713 42.2862L202.173 42.5589C202.109 42.362 202.007 42.1745 201.866 41.9964C201.73 41.8184 201.545 41.6726 201.31 41.5589C201.075 41.4453 200.781 41.3885 200.429 41.3885C199.948 41.3885 199.546 41.4964 199.224 41.7124C198.902 41.9245 198.741 42.1991 198.741 42.5362C198.741 42.8279 198.849 43.0627 199.065 43.2408C199.281 43.4188 199.63 43.5646 200.111 43.6783L201.497 43.9964C202.3 44.1821 202.899 44.468 203.293 44.8544C203.687 45.2408 203.884 45.7427 203.884 46.3601C203.884 46.8828 203.732 47.3487 203.429 47.7578C203.13 48.1631 202.711 48.4813 202.173 48.7124C201.639 48.9434 201.02 49.0589 200.315 49.0589C199.338 49.0589 198.541 48.8506 197.923 48.4339C197.306 48.0135 196.927 47.4169 196.787 46.6442L198.429 46.3942C198.531 46.8222 198.741 47.1461 199.06 47.3658C199.378 47.5817 199.793 47.6896 200.304 47.6896C200.861 47.6896 201.306 47.5741 201.639 47.343C201.973 47.1082 202.139 46.8222 202.139 46.4851C202.139 46.2124 202.037 45.9832 201.832 45.7976C201.632 45.612 201.323 45.4718 200.906 45.3771L199.429 45.0533C198.615 44.8677 198.012 44.5722 197.622 44.1669C197.236 43.7616 197.043 43.2483 197.043 42.6271C197.043 42.112 197.187 41.6612 197.474 41.2749C197.762 40.8885 198.16 40.5874 198.668 40.3714C199.175 40.1518 199.757 40.0419 200.412 40.0419C201.355 40.0419 202.098 40.2464 202.639 40.6555C203.181 41.0608 203.539 41.6044 203.713 42.2862ZM209.825 40.1555V41.5192H205.058V40.1555H209.825ZM206.337 38.0646H208.036V46.3203C208.036 46.6499 208.085 46.898 208.183 47.0646C208.282 47.2275 208.409 47.3393 208.564 47.3999C208.723 47.4567 208.895 47.4851 209.081 47.4851C209.217 47.4851 209.337 47.4756 209.439 47.4567C209.541 47.4377 209.621 47.4226 209.678 47.4112L209.984 48.8146C209.886 48.8525 209.746 48.8904 209.564 48.9283C209.382 48.9699 209.155 48.9927 208.882 48.9964C208.435 49.004 208.018 48.9245 207.632 48.7578C207.246 48.5911 206.933 48.3336 206.695 47.9851C206.456 47.6366 206.337 47.1991 206.337 46.6726V38.0646ZM211.705 48.8828V40.1555H213.403V48.8828H211.705ZM212.562 38.8089C212.267 38.8089 212.013 38.7105 211.801 38.5135C211.593 38.3127 211.489 38.0741 211.489 37.7976C211.489 37.5173 211.593 37.2786 211.801 37.0817C212.013 36.8809 212.267 36.7805 212.562 36.7805C212.858 36.7805 213.11 36.8809 213.318 37.0817C213.53 37.2786 213.636 37.5173 213.636 37.7976C213.636 38.0741 213.53 38.3127 213.318 38.5135C213.11 38.7105 212.858 38.8089 212.562 38.8089ZM219.365 49.0589C218.547 49.0589 217.833 48.8714 217.223 48.4964C216.613 48.1214 216.14 47.5968 215.803 46.9226C215.465 46.2483 215.297 45.4605 215.297 44.5589C215.297 43.6536 215.465 42.862 215.803 42.1839C216.14 41.5059 216.613 40.9794 217.223 40.6044C217.833 40.2294 218.547 40.0419 219.365 40.0419C220.183 40.0419 220.897 40.2294 221.507 40.6044C222.117 40.9794 222.59 41.5059 222.928 42.1839C223.265 42.862 223.433 43.6536 223.433 44.5589C223.433 45.4605 223.265 46.2483 222.928 46.9226C222.59 47.5968 222.117 48.1214 221.507 48.4964C220.897 48.8714 220.183 49.0589 219.365 49.0589ZM219.371 47.6328C219.901 47.6328 220.34 47.4927 220.689 47.2124C221.037 46.9321 221.295 46.5589 221.462 46.093C221.632 45.6271 221.717 45.1139 221.717 44.5533C221.717 43.9964 221.632 43.4851 221.462 43.0192C221.295 42.5495 221.037 42.1726 220.689 41.8885C220.34 41.6044 219.901 41.4624 219.371 41.4624C218.837 41.4624 218.393 41.6044 218.041 41.8885C217.693 42.1726 217.433 42.5495 217.263 43.0192C217.096 43.4851 217.013 43.9964 217.013 44.5533C217.013 45.1139 217.096 45.6271 217.263 46.093C217.433 46.5589 217.693 46.9321 218.041 47.2124C218.393 47.4927 218.837 47.6328 219.371 47.6328ZM227.028 43.701V48.8828H225.33V40.1555H226.96V41.576H227.068C227.269 41.1139 227.583 40.7427 228.011 40.4624C228.443 40.1821 228.987 40.0419 229.642 40.0419C230.237 40.0419 230.758 40.1669 231.205 40.4169C231.652 40.6631 231.998 41.0305 232.244 41.5192C232.491 42.0078 232.614 42.612 232.614 43.3317V48.8828H230.915V43.5362C230.915 42.9036 230.75 42.4093 230.42 42.0533C230.091 41.6934 229.638 41.5135 229.062 41.5135C228.669 41.5135 228.318 41.5987 228.011 41.7692C227.708 41.9396 227.468 42.1896 227.29 42.5192C227.116 42.8449 227.028 43.2389 227.028 43.701ZM236.591 43.701V48.8828H234.892V40.1555H236.523V41.576H236.631C236.831 41.1139 237.146 40.7427 237.574 40.4624C238.006 40.1821 238.549 40.0419 239.205 40.0419C239.799 40.0419 240.32 40.1669 240.767 40.4169C241.214 40.6631 241.561 41.0305 241.807 41.5192C242.053 42.0078 242.176 42.612 242.176 43.3317V48.8828H240.477V43.5362C240.477 42.9036 240.313 42.4093 239.983 42.0533C239.653 41.6934 239.201 41.5135 238.625 41.5135C238.231 41.5135 237.881 41.5987 237.574 41.7692C237.271 41.9396 237.03 42.1896 236.852 42.5192C236.678 42.8449 236.591 43.2389 236.591 43.701ZM246.994 49.076C246.441 49.076 245.941 48.9737 245.494 48.7692C245.047 48.5608 244.693 48.2597 244.432 47.8658C244.174 47.4718 244.045 46.9889 244.045 46.4169C244.045 45.9245 244.14 45.5192 244.33 45.201C244.519 44.8828 244.775 44.6309 245.097 44.4453C245.419 44.2597 245.778 44.1196 246.176 44.0249C246.574 43.9302 246.979 43.8582 247.392 43.8089C247.915 43.7483 248.339 43.6991 248.665 43.6612C248.991 43.6196 249.227 43.5533 249.375 43.4624C249.523 43.3714 249.597 43.2237 249.597 43.0192V42.9794C249.597 42.4832 249.456 42.0987 249.176 41.826C248.9 41.5533 248.487 41.4169 247.938 41.4169C247.366 41.4169 246.915 41.5438 246.585 41.7976C246.259 42.0476 246.034 42.326 245.909 42.6328L244.312 42.2692C244.502 41.7389 244.778 41.3108 245.142 40.9851C245.509 40.6555 245.932 40.4169 246.409 40.2692C246.886 40.1177 247.388 40.0419 247.915 40.0419C248.263 40.0419 248.633 40.0836 249.023 40.1669C249.417 40.2464 249.784 40.3942 250.125 40.6101C250.47 40.826 250.752 41.1347 250.972 41.5362C251.191 41.9339 251.301 42.451 251.301 43.0874V48.8828H249.642V47.6896H249.574C249.464 47.9093 249.299 48.1252 249.08 48.3374C248.86 48.5495 248.578 48.7256 248.233 48.8658C247.888 49.0059 247.475 49.076 246.994 49.076ZM247.364 47.7124C247.833 47.7124 248.235 47.6196 248.568 47.4339C248.905 47.2483 249.161 47.0059 249.335 46.7067C249.513 46.4036 249.602 46.0798 249.602 45.7351V44.6101C249.542 44.6707 249.424 44.7275 249.25 44.7805C249.08 44.8298 248.884 44.8733 248.665 44.9112C248.445 44.9453 248.231 44.9775 248.023 45.0078C247.814 45.0343 247.64 45.0571 247.5 45.076C247.17 45.1177 246.869 45.1877 246.597 45.2862C246.328 45.3847 246.112 45.5268 245.949 45.7124C245.79 45.8942 245.71 46.1366 245.71 46.4396C245.71 46.8601 245.866 47.1783 246.176 47.3942C246.487 47.6063 246.883 47.7124 247.364 47.7124ZM253.564 48.8828V40.1555H255.263V48.8828H253.564ZM254.422 38.8089C254.126 38.8089 253.873 38.7105 253.661 38.5135C253.452 38.3127 253.348 38.0741 253.348 37.7976C253.348 37.5173 253.452 37.2786 253.661 37.0817C253.873 36.8809 254.126 36.7805 254.422 36.7805C254.717 36.7805 254.969 36.8809 255.178 37.0817C255.39 37.2786 255.496 37.5173 255.496 37.7976C255.496 38.0741 255.39 38.3127 255.178 38.5135C254.969 38.7105 254.717 38.8089 254.422 38.8089ZM257.548 48.8828V40.1555H259.19V41.5419H259.281C259.44 41.0722 259.721 40.7029 260.122 40.4339C260.527 40.1612 260.986 40.0249 261.497 40.0249C261.603 40.0249 261.728 40.0286 261.872 40.0362C262.02 40.0438 262.135 40.0533 262.219 40.0646V41.6896C262.151 41.6707 262.029 41.6499 261.855 41.6271C261.681 41.6006 261.507 41.5874 261.332 41.5874C260.931 41.5874 260.573 41.6726 260.259 41.843C259.948 42.0097 259.702 42.2427 259.52 42.5419C259.338 42.8374 259.247 43.1745 259.247 43.5533V48.8828H257.548ZM267.138 49.0589C266.278 49.0589 265.537 48.8752 264.916 48.5078C264.299 48.1366 263.821 47.6158 263.484 46.9453C263.151 46.2711 262.984 45.4813 262.984 44.576C262.984 43.6821 263.151 42.8942 263.484 42.2124C263.821 41.5305 264.291 40.9983 264.893 40.6158C265.5 40.2332 266.208 40.0419 267.018 40.0419C267.511 40.0419 267.988 40.1233 268.45 40.2862C268.912 40.4491 269.327 40.7048 269.695 41.0533C270.062 41.4018 270.352 41.8544 270.564 42.4112C270.776 42.9643 270.882 43.6366 270.882 44.4283V45.0305H263.945V43.7578H269.217C269.217 43.3108 269.126 42.915 268.945 42.5703C268.763 42.2218 268.507 41.9472 268.178 41.7464C267.852 41.5457 267.469 41.4453 267.03 41.4453C266.553 41.4453 266.136 41.5627 265.78 41.7976C265.428 42.0286 265.155 42.3317 264.962 42.7067C264.772 43.0779 264.678 43.4813 264.678 43.9169V44.9112C264.678 45.4946 264.78 45.9908 264.984 46.3999C265.193 46.8089 265.482 47.1214 265.854 47.3374C266.225 47.5495 266.659 47.6555 267.155 47.6555C267.477 47.6555 267.77 47.6101 268.036 47.5192C268.301 47.4245 268.53 47.2843 268.723 47.0987C268.916 46.9131 269.064 46.6839 269.166 46.4112L270.774 46.701C270.645 47.1745 270.414 47.5893 270.081 47.9453C269.751 48.2976 269.337 48.5722 268.837 48.7692C268.34 48.9624 267.774 49.0589 267.138 49.0589Z" fill="#131520"/>
<g style="mix-blend-mode:multiply">
<rect x="496.5" y="32.3828" width="87" height="22" rx="11" fill="#F3F7FC"/>
<path d="M508.396 40.1101V47.3828H507.299V40.1101H508.396ZM511.971 44.1442V47.3828H510.909V41.9283H511.928V42.8161H511.996C512.121 42.5272 512.318 42.2952 512.585 42.12C512.855 41.9448 513.195 41.8572 513.604 41.8572C513.976 41.8572 514.302 41.9354 514.581 42.0916C514.86 42.2455 515.077 42.4751 515.231 42.7805C515.385 43.0859 515.462 43.4635 515.462 43.9134V47.3828H514.4V44.0412C514.4 43.6458 514.297 43.3369 514.091 43.1143C513.885 42.8894 513.602 42.777 513.242 42.777C512.996 42.777 512.777 42.8303 512.585 42.9368C512.396 43.0433 512.246 43.1996 512.134 43.4055C512.025 43.6091 511.971 43.8554 511.971 44.1442ZM521.099 43.8494V44.7692H517.875V43.8494H521.099ZM523.515 49.4283V41.9283H524.551V42.8125H524.64C524.702 42.6989 524.791 42.5675 524.907 42.4183C525.023 42.2692 525.184 42.139 525.39 42.0277C525.596 41.9141 525.868 41.8572 526.206 41.8572C526.647 41.8572 527.04 41.9685 527.385 42.1911C527.731 42.4136 528.002 42.7344 528.199 43.1534C528.397 43.5724 528.497 44.0767 528.497 44.6662C528.497 45.2557 528.399 45.7611 528.202 46.1825C528.006 46.6016 527.736 46.9247 527.392 47.152C527.049 47.3769 526.657 47.4893 526.217 47.4893C525.886 47.4893 525.614 47.4337 525.404 47.3224C525.195 47.2112 525.032 47.081 524.914 46.9318C524.795 46.7827 524.704 46.6501 524.64 46.5341H524.576V49.4283H523.515ZM524.555 44.6555C524.555 45.0391 524.611 45.3752 524.722 45.6641C524.833 45.9529 524.994 46.179 525.205 46.3423C525.416 46.5033 525.674 46.5838 525.979 46.5838C526.296 46.5838 526.561 46.4998 526.775 46.3317C526.988 46.1612 527.149 45.9304 527.257 45.6392C527.369 45.348 527.424 45.0201 527.424 44.6555C527.424 44.2957 527.37 43.9725 527.261 43.6861C527.154 43.3996 526.993 43.1735 526.778 43.0078C526.565 42.8421 526.299 42.7592 525.979 42.7592C525.671 42.7592 525.411 42.8385 525.198 42.9972C524.987 43.1558 524.827 43.3771 524.718 43.6612C524.609 43.9453 524.555 44.2768 524.555 44.6555ZM530.686 47.3828V41.9283H531.713V42.7947H531.77C531.869 42.5012 532.044 42.2704 532.295 42.1023C532.548 41.9318 532.835 41.8466 533.154 41.8466C533.221 41.8466 533.299 41.849 533.389 41.8537C533.481 41.8584 533.553 41.8643 533.605 41.8714V42.8871C533.563 42.8752 533.487 42.8622 533.378 42.848C533.269 42.8314 533.16 42.8232 533.051 42.8232C532.801 42.8232 532.577 42.8764 532.38 42.983C532.186 43.0871 532.032 43.2327 531.919 43.4197C531.805 43.6044 531.748 43.8151 531.748 44.0518V47.3828H530.686ZM537.627 47.4929C537.115 47.4929 536.669 47.3757 536.288 47.1413C535.907 46.907 535.611 46.5791 535.4 46.1577C535.189 45.7363 535.084 45.2438 535.084 44.6804C535.084 44.1146 535.189 43.6198 535.4 43.196C535.611 42.7723 535.907 42.4432 536.288 42.2088C536.669 41.9744 537.115 41.8572 537.627 41.8572C538.138 41.8572 538.584 41.9744 538.965 42.2088C539.347 42.4432 539.642 42.7723 539.853 43.196C540.064 43.6198 540.169 44.1146 540.169 44.6804C540.169 45.2438 540.064 45.7363 539.853 46.1577C539.642 46.5791 539.347 46.907 538.965 47.1413C538.584 47.3757 538.138 47.4929 537.627 47.4929ZM537.63 46.6016C537.962 46.6016 538.236 46.514 538.454 46.3388C538.672 46.1636 538.833 45.9304 538.937 45.6392C539.044 45.348 539.097 45.0272 539.097 44.6768C539.097 44.3288 539.044 44.0092 538.937 43.718C538.833 43.4245 538.672 43.1889 538.454 43.0114C538.236 42.8338 537.962 42.745 537.63 42.745C537.296 42.745 537.019 42.8338 536.799 43.0114C536.581 43.1889 536.419 43.4245 536.313 43.718C536.209 44.0092 536.156 44.3288 536.156 44.6768C536.156 45.0272 536.209 45.348 536.313 45.6392C536.419 45.9304 536.581 46.1636 536.799 46.3388C537.019 46.514 537.296 46.6016 537.63 46.6016ZM544.641 49.5419C544.208 49.5419 543.835 49.4851 543.523 49.3714C543.213 49.2578 542.959 49.1075 542.763 48.9205C542.566 48.7334 542.42 48.5286 542.322 48.3061L543.235 47.9297C543.299 48.0339 543.384 48.1439 543.491 48.2599C543.6 48.3783 543.746 48.4789 543.931 48.5618C544.118 48.6446 544.358 48.6861 544.652 48.6861C545.054 48.6861 545.387 48.5878 545.65 48.3913C545.913 48.1972 546.044 47.8871 546.044 47.4609V46.3885H545.977C545.913 46.5045 545.82 46.6335 545.7 46.7756C545.581 46.9176 545.418 47.0407 545.21 47.1449C545.001 47.2491 544.73 47.3011 544.396 47.3011C543.965 47.3011 543.577 47.2005 543.232 46.9993C542.888 46.7957 542.616 46.4962 542.415 46.1009C542.216 45.7031 542.116 45.2143 542.116 44.6342C542.116 44.0542 542.215 43.5571 542.411 43.1428C542.61 42.7285 542.882 42.4112 543.228 42.1911C543.574 41.9685 543.965 41.8572 544.403 41.8572C544.742 41.8572 545.015 41.9141 545.224 42.0277C545.432 42.139 545.594 42.2692 545.71 42.4183C545.829 42.5675 545.92 42.6989 545.984 42.8125H546.062V41.9283H547.102V47.5036C547.102 47.9723 546.993 48.357 546.776 48.6577C546.558 48.9583 546.263 49.1809 545.891 49.3253C545.522 49.4697 545.105 49.5419 544.641 49.5419ZM544.631 46.4205C544.936 46.4205 545.194 46.3494 545.405 46.2074C545.618 46.063 545.779 45.857 545.888 45.5895C545.999 45.3196 546.055 44.9964 546.055 44.62C546.055 44.2531 546 43.9299 545.891 43.6506C545.782 43.3712 545.623 43.1534 545.412 42.9972C545.201 42.8385 544.941 42.7592 544.631 42.7592C544.311 42.7592 544.045 42.8421 543.832 43.0078C543.619 43.1712 543.458 43.3937 543.349 43.6754C543.242 43.9571 543.189 44.272 543.189 44.62C543.189 44.9775 543.243 45.2912 543.352 45.5611C543.461 45.831 543.622 46.0417 543.835 46.1932C544.051 46.3447 544.316 46.4205 544.631 46.4205ZM549.526 47.3828V41.9283H550.553V42.7947H550.609C550.709 42.5012 550.884 42.2704 551.135 42.1023C551.388 41.9318 551.675 41.8466 551.994 41.8466C552.061 41.8466 552.139 41.849 552.229 41.8537C552.321 41.8584 552.393 41.8643 552.445 41.8714V42.8871C552.403 42.8752 552.327 42.8622 552.218 42.848C552.109 42.8314 552 42.8232 551.891 42.8232C551.64 42.8232 551.417 42.8764 551.22 42.983C551.026 43.0871 550.872 43.2327 550.759 43.4197C550.645 43.6044 550.588 43.8151 550.588 44.0518V47.3828H549.526ZM556.52 47.4929C555.982 47.4929 555.519 47.3781 555.131 47.1484C554.745 46.9164 554.447 46.5909 554.236 46.1719C554.028 45.7505 553.924 45.2569 553.924 44.6911C553.924 44.1323 554.028 43.6399 554.236 43.2138C554.447 42.7876 554.741 42.455 555.117 42.2159C555.496 41.9768 555.939 41.8572 556.445 41.8572C556.753 41.8572 557.051 41.9081 557.34 42.0099C557.629 42.1117 557.888 42.2715 558.118 42.4893C558.347 42.7071 558.528 42.9901 558.661 43.3381C558.794 43.6837 558.86 44.1039 558.86 44.5987V44.9751H554.524V44.1797H557.819C557.819 43.9003 557.763 43.6529 557.649 43.4375C557.535 43.2197 557.376 43.0481 557.17 42.9226C556.966 42.7971 556.727 42.7344 556.452 42.7344C556.154 42.7344 555.894 42.8078 555.671 42.9545C555.451 43.099 555.28 43.2884 555.16 43.5227C555.041 43.7547 554.982 44.0069 554.982 44.2791V44.9006C554.982 45.2652 555.046 45.5753 555.174 45.831C555.304 46.0866 555.485 46.282 555.717 46.4169C555.949 46.5495 556.22 46.6158 556.53 46.6158C556.732 46.6158 556.915 46.5874 557.081 46.5305C557.247 46.4714 557.39 46.3838 557.51 46.2678C557.631 46.1518 557.724 46.0085 557.787 45.8381L558.792 46.0192C558.712 46.3151 558.568 46.5743 558.359 46.7969C558.153 47.017 557.894 47.1887 557.581 47.3118C557.271 47.4325 556.917 47.4929 556.52 47.4929ZM565.125 43.2599L564.163 43.4304C564.123 43.3073 564.059 43.1901 563.971 43.0788C563.886 42.9676 563.77 42.8764 563.623 42.8054C563.476 42.7344 563.293 42.6989 563.073 42.6989C562.772 42.6989 562.521 42.7663 562.32 42.9013C562.119 43.0339 562.018 43.2055 562.018 43.4162C562.018 43.5985 562.086 43.7453 562.221 43.8565C562.355 43.9678 562.573 44.0589 562.874 44.13L563.74 44.3288C564.242 44.4448 564.616 44.6236 564.863 44.8651C565.109 45.1065 565.232 45.4202 565.232 45.8061C565.232 46.1328 565.137 46.424 564.948 46.6797C564.761 46.933 564.499 47.1319 564.163 47.2763C563.829 47.4207 563.442 47.4929 563.002 47.4929C562.391 47.4929 561.893 47.3627 561.507 47.1023C561.121 46.8395 560.884 46.4666 560.797 45.9837L561.823 45.8274C561.887 46.0949 562.018 46.2973 562.217 46.4347C562.416 46.5696 562.675 46.6371 562.995 46.6371C563.343 46.6371 563.621 46.5649 563.829 46.4205C564.038 46.2737 564.142 46.0949 564.142 45.8842C564.142 45.7138 564.078 45.5705 563.95 45.4545C563.824 45.3385 563.632 45.2509 563.371 45.1918L562.448 44.9893C561.939 44.8733 561.562 44.6887 561.319 44.4354C561.077 44.1821 560.956 43.8613 560.956 43.473C560.956 43.151 561.046 42.8693 561.226 42.6278C561.406 42.3864 561.655 42.1982 561.972 42.0632C562.289 41.9259 562.653 41.8572 563.062 41.8572C563.652 41.8572 564.116 41.9851 564.454 42.2408C564.793 42.4941 565.016 42.8338 565.125 43.2599ZM571.487 43.2599L570.524 43.4304C570.484 43.3073 570.42 43.1901 570.333 43.0788C570.247 42.9676 570.131 42.8764 569.985 42.8054C569.838 42.7344 569.654 42.6989 569.434 42.6989C569.133 42.6989 568.883 42.7663 568.681 42.9013C568.48 43.0339 568.379 43.2055 568.379 43.4162C568.379 43.5985 568.447 43.7453 568.582 43.8565C568.717 43.9678 568.935 44.0589 569.235 44.13L570.102 44.3288C570.604 44.4448 570.978 44.6236 571.224 44.8651C571.47 45.1065 571.593 45.4202 571.593 45.8061C571.593 46.1328 571.499 46.424 571.309 46.6797C571.122 46.933 570.86 47.1319 570.524 47.2763C570.191 47.4207 569.803 47.4929 569.363 47.4929C568.752 47.4929 568.254 47.3627 567.868 47.1023C567.482 46.8395 567.245 46.4666 567.158 45.9837L568.184 45.8274C568.248 46.0949 568.379 46.2973 568.578 46.4347C568.777 46.5696 569.036 46.6371 569.356 46.6371C569.704 46.6371 569.982 46.5649 570.191 46.4205C570.399 46.2737 570.503 46.0949 570.503 45.8842C570.503 45.7138 570.439 45.5705 570.311 45.4545C570.186 45.3385 569.993 45.2509 569.732 45.1918L568.809 44.9893C568.3 44.8733 567.924 44.6887 567.68 44.4354C567.438 44.1821 567.318 43.8613 567.318 43.473C567.318 43.151 567.408 42.8693 567.588 42.6278C567.767 42.3864 568.016 42.1982 568.333 42.0632C568.651 41.9259 569.014 41.8572 569.423 41.8572C570.013 41.8572 570.477 41.9851 570.816 42.2408C571.154 42.4941 571.378 42.8338 571.487 43.2599Z" fill="#144CA9"/>
</g>
<path d="M666.625 43.3828C666.625 39.931 669.423 37.1328 672.875 37.1328H769.24C772.692 37.1328 775.49 39.931 775.49 43.3828V43.3828C775.49 46.8346 772.692 49.6328 769.24 49.6328H672.875C669.423 49.6328 666.625 46.8346 666.625 43.3828V43.3828Z" fill="#F2F4F8"/>
<rect x="48.5" y="35.8828" width="31" height="15" rx="7.5" fill="#1757C2"/>
<rect x="66" y="37.3828" width="12" height="12" rx="6" fill="white"/>
<rect x="48.5" y="35.8828" width="31" height="15" rx="7.5" stroke="#1757C2"/>
</svg>
