<svg width="80" height="80" viewBox="0 0 80 80" fill="none" xmlns="http://www.w3.org/2000/svg">
<g clip-path="url(#clip0_877_2)">
<rect width="80" height="80" fill="#6F63F6"/>
<path fill-rule="evenodd" clip-rule="evenodd" d="M39.7416 59.7004C39.7416 60.8413 39.6092 61.9473 39.3608 63H17.3808C17.1324 61.9473 17 60.8413 17 59.7004C17 52.6256 22.0909 46.8903 28.3708 46.8903C34.6507 46.8903 39.7416 52.6256 39.7416 59.7004ZM28.3708 60.5738C29.5126 60.5738 30.4382 59.5311 30.4382 58.2447C30.4382 56.9584 29.5126 55.9156 28.3708 55.9156C27.229 55.9156 26.3034 56.9584 26.3034 58.2447C26.3034 59.5311 27.229 60.5738 28.3708 60.5738Z" fill="#F8F9FC"/>
<path d="M31.2312 31.9484C32.1909 30.6481 33.2019 28.8113 34.0749 26.678C35.977 22.0296 36.5033 17.7339 35.2504 17.0831C33.9974 16.4324 31.4397 19.6731 29.5376 24.3215C29.0544 25.5023 28.66 26.6603 28.361 27.7416C28.0618 26.6602 27.6673 25.5021 27.184 24.3212C25.2815 19.673 22.7235 16.4325 21.4706 17.0833C20.2177 17.7342 20.7443 22.0299 22.6468 26.6781C23.5214 28.8148 24.5345 30.6541 25.4956 31.9547C22.4429 33.2612 20.2734 36.5878 20.2734 40.4852C20.2734 43.2109 21.3345 45.6573 23.0167 47.3289C24.6122 46.3677 26.435 45.8228 28.3708 45.8228C30.3066 45.8228 32.1294 46.3677 33.7249 47.3289C35.4071 45.6573 36.4682 43.2109 36.4682 40.4852C36.4682 36.5815 34.2917 33.2506 31.2312 31.9484Z" fill="#F8F9FC"/>
<path fill-rule="evenodd" clip-rule="evenodd" d="M63 28.8154C63 35.3409 58.3044 40.6308 52.5122 40.6308H42.0243V17H52.5122C58.3044 17 63 22.2899 63 28.8154ZM52.5122 33.9608C55.0346 33.9608 57.0795 31.6571 57.0795 28.8154C57.0795 25.9737 55.0346 23.67 52.5122 23.67C49.9897 23.67 47.9449 25.9737 47.9449 28.8154C47.9449 31.6571 49.9897 33.9608 52.5122 33.9608Z" fill="#F8F9FC"/>
<path d="M41.3783 45.2405C41.3783 43.9006 42.3425 42.8143 43.5318 42.8143H60.8464C62.0358 42.8143 63 43.9006 63 45.2405V63H59.1236C57.9342 63 56.97 61.9138 56.97 60.5738V49.6076H47.4082V60.5738C47.4082 61.9138 46.4441 63 45.2547 63H41.3783V45.2405Z" fill="#F8F9FC"/>
</g>
<defs>
<clipPath id="clip0_877_2">
<rect width="80" height="80" rx="10" fill="white"/>
</clipPath>
</defs>
</svg>
