<svg width="141" height="40" viewBox="0 0 141 40" fill="none" xmlns="http://www.w3.org/2000/svg">
<rect width="141" height="40" fill="white"/>
<path fill-rule="evenodd" clip-rule="evenodd" d="M39.3335 20.9378H35.7863V22.0025H39.4052L39.5885 21.896C39.7001 21.7404 39.7001 21.5275 39.7001 21.4701C39.7001 21.421 39.7161 21.2326 39.6125 21.0688C39.5009 20.9214 39.3335 20.9378 39.3335 20.9378ZM38.7675 17.8337H35.7863V18.923H38.8313L39.0385 18.8001C39.1422 18.6609 39.1501 18.4644 39.1501 18.3906C39.1501 18.3169 39.1422 18.1204 39.0385 17.9648C38.9269 17.8173 38.7675 17.8337 38.7675 17.8337ZM32 24.5005V15.4913H41.2625C41.2625 15.4913 42.1154 15.4913 42.4821 15.9172C42.8487 16.3431 42.9524 16.7854 42.9763 17.3669C43.0002 17.9484 42.777 18.5381 42.4582 18.8739C42.4582 18.8739 42.1871 19.1523 41.7726 19.3079C41.7726 19.3079 42.4342 19.57 42.7371 19.9386C42.9205 20.1597 43.2872 20.4546 43.327 21.7486C43.3748 23.0426 42.7132 23.747 42.5937 23.8862C42.4741 24.0255 41.9081 24.5087 40.9357 24.5087H32V24.5005Z" fill="#231815"/>
<path fill-rule="evenodd" clip-rule="evenodd" d="M48.9503 18.9117H52.0285L52.2541 18.7808C52.3266 18.6744 52.3508 18.5108 52.3508 18.388C52.3508 18.2653 52.3427 18.1425 52.2541 17.9952C52.1654 17.8398 51.9962 17.848 51.9962 17.848H48.9503M45.1792 24.5005V15.4913H53.7126C54.8085 15.5404 55.2758 15.8432 55.6465 16.1869C56.0171 16.5224 56.3636 17.3079 56.3314 18.0934C56.2992 18.879 56.1138 19.5663 55.5901 20.1064C55.0663 20.6464 54.2525 20.7446 54.2525 20.7446L56.5087 24.5087H52.3508L50.3202 21.0883H48.9503V24.5087H45.1792V24.5005Z" fill="#231815"/>
<path d="M58.1272 15.4994H61.9187V20.9076C61.9187 20.9076 61.9187 21.4 62.1832 21.6017C62.4397 21.8035 62.7042 21.9892 63.5058 21.9892C64.2994 21.9892 64.6601 21.6825 64.7082 21.6098C64.7563 21.5372 64.9407 21.4484 64.9647 21.0044C64.9888 20.5685 64.9647 15.4913 64.9647 15.4913H68.5318V21.182C68.5318 21.182 68.5318 22.4735 67.7302 23.2161C67.7302 23.2161 67.137 23.8377 66.095 24.1282C66.095 24.1282 64.7964 24.5318 63.4257 24.5076C62.2794 24.4915 61.4778 24.4188 60.2754 23.9991C59.3215 23.6681 58.9127 23.2242 58.8486 23.1596C58.7845 23.095 58.1192 22.53 58.1352 21.0125" fill="#231815"/>
<path d="M70.8439 24.5087H74.4054V21.9008L75.6113 20.9279L77.9267 24.5087H82.4046L78.4975 18.696L82.0348 15.4913H77.2433L74.4054 18.4099V15.4913H70.8439" fill="#231815"/>
<path d="M83.5607 24.5087V15.4913H93.7341V17.8522H87.2904V18.8277H92.2184V21.0411H87.2904V22.0248H93.7341V24.5087" fill="#231815"/>
<path fill-rule="evenodd" clip-rule="evenodd" d="M99.5861 18.9117H102.664L102.89 18.7808C102.962 18.6744 102.987 18.5189 102.987 18.3962C102.987 18.2735 102.979 18.1589 102.89 18.0116C102.801 17.8643 102.632 17.8643 102.632 17.8643H99.5861M95.815 24.5005V15.4913H104.348C105.444 15.5404 105.912 15.8432 106.282 16.1869C106.653 16.5224 106.999 17.3079 106.967 18.0934C106.935 18.879 106.75 19.5663 106.226 20.1064C105.71 20.6464 104.888 20.7446 104.888 20.7446L107.144 24.5087H102.987L100.956 21.0883H99.57V24.5087H95.815V24.5005Z" fill="#231815"/>
<path d="M55.3526 2.31211C55.3526 1.02942 56.3366 0 57.5453 0C58.7617 0 59.7457 1.03759 59.7457 2.31211C59.7457 3.59481 58.7617 4.62423 57.5453 4.62423C56.3366 4.6324 55.3526 3.59481 55.3526 2.31211Z" fill="#0068B6"/>
<path d="M47.8513 15.0289C47.8513 15.0289 41.1874 5.95049 44.9359 2.14419C47.9234 -0.827957 56.1971 0.330128 63.9903 4.12023C74.0502 9.1413 77.8467 13.0853 80.7862 15.0289H78.936C68.6999 6.57407 51.3114 -2.31808 45.8249 3.11601C42.7813 6.24203 49.8777 14.2353 50.174 15.0289" fill="#0068B6"/>
<path d="M59.2832 15.0289C74.0488 2.72521 82.8231 0.924866 89.6244 0.924866C96.0408 0.924866 96.2493 5.27637 96.2734 5.97875C96.3856 9.11926 94.164 12.5827 92.5679 15.0289H91.0922C92.3353 13.4223 97.1075 7.11708 94.3645 3.97657C92.0306 1.29624 84.0422 2.67677 78.1071 5.27637C72.3725 7.36736 65.0419 12.6069 62.5636 15.0289" fill="#0068B6"/>
<path d="M55.3526 37.8034C55.3526 36.5849 56.3366 35.6069 57.5453 35.6069C58.7617 35.6069 59.7457 36.5926 59.7457 37.8034C59.7457 39.022 58.7617 40 57.5453 40C56.3366 40.0077 55.3526 39.022 55.3526 37.8034Z" fill="#0068B6"/>
<path d="M47.8513 25.2023C47.8513 25.2023 41.1874 34.1363 44.9359 37.8821C47.9234 40.807 56.1971 39.6673 63.9903 35.9455C74.0502 31.0043 77.8467 27.123 80.7862 25.2103H78.936C68.6999 33.5227 51.3114 42.2814 45.8249 36.9257C42.7813 33.8494 49.8777 25.9833 50.174 25.2023" fill="#0068B6"/>
<path d="M59.2832 25.2023C74.0488 37.3053 82.8231 39.0751 89.6244 39.0751C96.0408 39.0751 96.2493 34.7974 96.2734 34.107C96.3856 31.0197 94.164 27.615 92.5679 25.2103H91.0922C92.3353 26.7896 97.1075 32.9879 94.3645 36.0831C92.0306 38.718 84.0422 37.3609 78.1071 34.8054C72.3725 32.7498 65.0419 27.5991 62.5636 25.2182" fill="#0068B6"/>
</svg>
