<svg width="376" height="64" viewBox="0 0 376 64" fill="none" xmlns="http://www.w3.org/2000/svg">
<path fill-rule="evenodd" clip-rule="evenodd" d="M38.4928 59.4093C38.4928 60.9965 38.2688 62.5353 37.8483 64H0.644487C0.224058 62.5353 0 60.9965 0 59.4093C0 49.566 8.61691 41.5865 19.2464 41.5865C29.8759 41.5865 38.4928 49.566 38.4928 59.4093ZM19.2464 60.6245C21.179 60.6245 22.7458 59.1737 22.7458 57.384C22.7458 55.5943 21.179 54.1435 19.2464 54.1435C17.3138 54.1435 15.7471 55.5943 15.7471 57.384C15.7471 59.1737 17.3138 60.6245 19.2464 60.6245Z" fill="#1757C2"/>
<path d="M24.0881 20.7978C25.7124 18.9887 27.4237 16.4331 28.9013 13.465C32.1209 6.99774 33.0117 1.02102 30.8909 0.115652C28.7702 -0.789712 24.4409 3.71912 21.2213 10.1864C20.4035 11.8293 19.7359 13.4404 19.2298 14.9449C18.7235 13.4403 18.0557 11.829 17.2376 10.186C14.0174 3.71891 9.68771 -0.789576 7.56705 0.115957C5.44637 1.02149 6.33772 6.99814 9.55792 13.4652C11.0382 16.4381 12.753 18.997 14.3799 20.8065C9.21279 22.6243 5.54063 27.2526 5.54063 32.6751C5.54063 36.4673 7.33662 39.8711 10.1839 42.1968C12.8845 40.8595 15.9698 40.1013 19.2464 40.1013C22.523 40.1013 25.6083 40.8595 28.3089 42.1968C31.1562 39.8711 32.9522 36.4673 32.9522 32.6751C32.9522 27.2439 29.2682 22.6095 24.0881 20.7978Z" fill="#1757C2"/>
<path fill-rule="evenodd" clip-rule="evenodd" d="M77.8605 16.4388C77.8605 25.5177 69.9127 32.8776 60.1086 32.8776H42.3567V0H60.1086C69.9127 0 77.8605 7.35991 77.8605 16.4388ZM60.1086 23.5977C64.3781 23.5977 67.8392 20.3925 67.8392 16.4388C67.8392 12.4851 64.3781 9.27998 60.1086 9.27998C55.839 9.27998 52.3779 12.4851 52.3779 16.4388C52.3779 20.3925 55.839 23.5977 60.1086 23.5977Z" fill="#1757C2"/>
<path d="M41.2631 39.2911C41.2631 37.4269 42.8951 35.9156 44.9083 35.9156H74.2153C76.2285 35.9156 77.8605 37.4269 77.8605 39.2911V64H71.2992C69.286 64 67.654 62.4887 67.654 60.6245V45.3671H51.4696V60.6245C51.4696 62.4887 49.8376 64 47.8244 64H41.2631V39.2911Z" fill="#1757C2"/>
<path d="M103.717 16.0166C108.29 16.0166 111.794 17.3077 114.23 19.8898C116.665 22.4569 117.883 26.27 117.883 31.3292C117.883 34.6169 117.33 37.4692 116.224 39.8862C115.134 42.2882 113.52 44.1422 111.383 45.4483C109.261 46.7544 106.691 47.4074 103.672 47.4074H95.648V16.0166H103.717ZM103.538 42.4533C105.6 42.4533 107.266 41.9429 108.536 40.9221C109.806 39.9012 110.71 38.5726 111.248 36.9363C111.786 35.2849 112.055 33.4609 112.055 31.4643C112.055 28.2817 111.383 25.662 110.038 23.6053C108.708 21.5486 106.541 20.5203 103.538 20.5203H101.431V42.4533H103.538Z" fill="#1757C2"/>
<path d="M131.62 47.9929C129.214 47.9929 127.226 47.4825 125.657 46.4616C124.088 45.4258 122.938 44.0446 122.206 42.3182C121.488 40.5918 121.13 38.6402 121.13 36.4634C121.13 34.2416 121.533 32.2224 122.34 30.4059C123.162 28.5744 124.357 27.1257 125.926 26.0599C127.495 24.979 129.363 24.4385 131.53 24.4385C134.758 24.4385 137.066 25.3768 138.456 27.2533C139.846 29.1149 140.541 31.8997 140.541 35.6077C140.541 36.3283 140.511 37.139 140.451 38.0397H127.002C127.092 39.8562 127.592 41.2599 128.504 42.2507C129.43 43.2265 130.783 43.7144 132.561 43.7144C133.487 43.7144 134.481 43.5117 135.542 43.1064C136.603 42.686 137.388 42.1831 137.896 41.5976L139.689 45.8761C137.582 47.2873 134.892 47.9929 131.62 47.9929ZM134.847 34.5268C134.847 32.32 134.571 30.8038 134.018 29.9781C133.48 29.1374 132.695 28.717 131.664 28.717C130.215 28.717 129.087 29.2575 128.28 30.3384C127.488 31.4193 127.047 32.8154 126.957 34.5268H134.847Z" fill="#1757C2"/>
<path d="M146.124 29.7079H143.121V24.979H146.124V20.8356C146.124 18.6888 146.52 16.9924 147.312 15.7464C148.104 14.5003 149.068 13.6446 150.204 13.1793C151.339 12.6989 152.505 12.4587 153.7 12.4587C154.97 12.4587 156.001 12.5713 156.793 12.7964C157.6 13.0216 158.108 13.2393 158.318 13.4495V18.3585C158.004 17.9682 157.518 17.6604 156.861 17.4353C156.218 17.2101 155.628 17.0975 155.09 17.0975C152.729 17.0975 151.548 18.2985 151.548 20.7004V24.979H156.973V29.7079H151.548V47.4074H146.124V29.7079Z" fill="#1757C2"/>
<path d="M169.137 47.9929C166.732 47.9929 164.744 47.4825 163.175 46.4616C161.606 45.4258 160.456 44.0446 159.723 42.3182C159.006 40.5918 158.647 38.6402 158.647 36.4634C158.647 34.2416 159.051 32.2224 159.858 30.4059C160.68 28.5744 161.875 27.1257 163.444 26.0599C165.013 24.979 166.881 24.4385 169.048 24.4385C172.275 24.4385 174.584 25.3768 175.974 27.2533C177.363 29.1149 178.058 31.8997 178.058 35.6077C178.058 36.3283 178.028 37.139 177.969 38.0397H164.52C164.61 39.8562 165.11 41.2599 166.022 42.2507C166.948 43.2265 168.301 43.7144 170.079 43.7144C171.005 43.7144 171.999 43.5117 173.06 43.1064C174.121 42.686 174.905 42.1831 175.413 41.5976L177.207 45.8761C175.1 47.2873 172.41 47.9929 169.137 47.9929ZM172.365 34.5268C172.365 32.32 172.089 30.8038 171.536 29.9781C170.998 29.1374 170.213 28.717 169.182 28.717C167.733 28.717 166.605 29.2575 165.798 30.3384C165.006 31.4193 164.565 32.8154 164.475 34.5268H172.365Z" fill="#1757C2"/>
<path d="M195.208 24.4385C197.434 24.4385 199.108 25.1516 200.229 26.5778C201.364 27.9889 201.932 29.9931 201.932 32.5902V47.4074H196.194V33.0856C196.194 31.8096 195.925 30.7962 195.387 30.0456C194.849 29.28 194.057 28.8972 193.011 28.8972C192.309 28.8972 191.651 29.0773 191.039 29.4376C190.441 29.7979 189.963 30.3008 189.604 30.9464C189.246 31.5769 189.066 32.29 189.066 33.0856V47.4074H183.328V24.979H188.528L188.64 27.9289C190.179 25.602 192.369 24.4385 195.208 24.4385Z" fill="#1757C2"/>
<path d="M217.156 47.9479C214.869 47.9479 212.964 47.4299 211.44 46.3941C209.916 45.3432 208.788 43.9396 208.055 42.1831C207.338 40.4267 206.98 38.4601 206.98 36.2833C206.98 34.1515 207.383 32.1849 208.19 30.3834C208.997 28.5819 210.192 27.1407 211.776 26.0599C213.36 24.979 215.258 24.4385 217.469 24.4385C218.844 24.4385 220.04 24.5886 221.056 24.8889C222.087 25.1741 223.073 25.6996 224.014 26.4652L222.176 31.2391C221.743 30.5936 221.101 30.0832 220.249 29.7079C219.412 29.3175 218.59 29.1224 217.783 29.1224C214.526 29.1224 212.897 31.4943 212.897 36.2382C212.897 38.7153 213.293 40.5242 214.085 41.6652C214.892 42.7911 216.125 43.3541 217.783 43.3541C218.784 43.3541 219.696 43.1664 220.518 42.7911C221.355 42.4158 222.012 41.9579 222.49 41.4175L224.194 45.4258C223.865 45.7861 223.364 46.1614 222.692 46.5517C222.035 46.927 221.228 47.2498 220.271 47.52C219.315 47.8052 218.276 47.9479 217.156 47.9479Z" fill="#1757C2"/>
<path d="M237.65 47.9929C235.244 47.9929 233.257 47.4825 231.688 46.4616C230.119 45.4258 228.968 44.0446 228.236 42.3182C227.519 40.5918 227.16 38.6402 227.16 36.4634C227.16 34.2416 227.564 32.2224 228.371 30.4059C229.192 28.5744 230.388 27.1257 231.957 26.0599C233.526 24.979 235.394 24.4385 237.56 24.4385C240.788 24.4385 243.097 25.3768 244.486 27.2533C245.876 29.1149 246.571 31.8997 246.571 35.6077C246.571 36.3283 246.541 37.139 246.481 38.0397H233.033C233.122 39.8562 233.623 41.2599 234.534 42.2507C235.461 43.2265 236.813 43.7144 238.591 43.7144C239.518 43.7144 240.512 43.5117 241.573 43.1064C242.634 42.686 243.418 42.1831 243.926 41.5976L245.719 45.8761C243.612 47.2873 240.923 47.9929 237.65 47.9929ZM240.878 34.5268C240.878 32.32 240.601 30.8038 240.048 29.9781C239.51 29.1374 238.726 28.717 237.695 28.717C236.245 28.717 235.117 29.2575 234.31 30.3384C233.518 31.4193 233.078 32.8154 232.988 34.5268H240.878Z" fill="#1757C2"/>
<path d="M266.007 47.4074L257.982 36.0581V47.4074H252.289V16.0166H260.986C268.398 16.0166 272.103 19.3493 272.103 26.0148C272.103 27.501 271.864 28.9647 271.386 30.4059C270.908 31.8321 270.124 33.1006 269.033 34.2116C267.957 35.3225 266.575 36.0881 264.886 36.5084L272.955 47.4074H266.007ZM260.358 33.2207C261.628 33.2207 262.712 32.9205 263.608 32.32C264.52 31.7045 265.207 30.8938 265.671 29.888C266.134 28.8672 266.365 27.7562 266.365 26.5553C266.365 24.4836 265.887 22.9598 264.931 21.984C263.989 21.0082 262.42 20.5203 260.224 20.5203H257.982V33.2207H260.358Z" fill="#1757C2"/>
<path d="M281.759 48.0379C280.429 48.0379 279.308 47.7377 278.397 47.1372C277.485 46.5367 276.798 45.726 276.335 44.7052C275.886 43.6843 275.662 42.5434 275.662 41.2824C275.662 40.1865 276.021 39.0981 276.738 38.0172C277.47 36.9213 278.763 35.9905 280.616 35.2249C282.469 34.4593 284.971 34.0764 288.124 34.0764V33.0406C288.124 31.8096 287.826 30.8563 287.228 30.1807C286.645 29.5052 285.614 29.1674 284.135 29.1674C282.969 29.1674 281.826 29.3701 280.705 29.7754C279.6 30.1657 278.785 30.6536 278.262 31.2391L276.469 26.9156C277.485 26.225 278.748 25.6395 280.257 25.1591C281.766 24.6787 283.373 24.4385 285.076 24.4385C287.213 24.4385 288.901 24.7688 290.142 25.4293C291.397 26.0899 292.279 27.0206 292.787 28.2216C293.295 29.4226 293.549 30.9088 293.549 32.6803V47.4074H288.752L288.349 44.2098C287.557 45.5008 286.615 46.4616 285.524 47.0922C284.449 47.7227 283.193 48.0379 281.759 48.0379ZM284.135 43.7144C284.822 43.7144 285.547 43.4366 286.309 42.8812C287.071 42.3257 287.676 41.6277 288.124 40.787V37.5893C287.915 37.5593 287.557 37.5443 287.049 37.5443C285.539 37.5443 284.187 37.7995 282.992 38.3099C281.811 38.8053 281.221 39.616 281.221 40.7419C281.221 41.8078 281.452 42.5734 281.916 43.0388C282.394 43.4892 283.134 43.7144 284.135 43.7144Z" fill="#1757C2"/>
<path d="M310.676 48.0379C309.645 48.0379 308.711 47.8127 307.875 47.3624C307.053 46.897 306.373 46.2815 305.835 45.5159C305.297 44.7352 304.909 43.8795 304.669 42.9487V47.4074H299.738V13.1793H305.118V24.979L304.669 28.8521C304.894 27.8914 305.349 27.0732 306.037 26.3976C306.739 25.7221 307.546 25.2192 308.457 24.8889C309.369 24.5586 310.273 24.3935 311.17 24.3935C313.949 24.3935 316.048 25.3843 317.468 27.3659C318.888 29.3325 319.597 32.2449 319.597 36.1031C319.597 38.7002 319.201 40.8996 318.409 42.701C317.632 44.4875 316.571 45.8236 315.227 46.7093C313.882 47.5951 312.365 48.0379 310.676 48.0379ZM309.376 43.5793C310.153 43.5793 310.871 43.3241 311.528 42.8136C312.186 42.3032 312.716 41.4925 313.12 40.3816C313.523 39.2557 313.725 37.8295 313.725 36.1031C313.725 34.4968 313.531 33.1607 313.142 32.0948C312.768 31.0289 312.26 30.2483 311.618 29.7529C310.975 29.2425 310.258 28.9873 309.466 28.9873C308.57 28.9873 307.8 29.31 307.157 29.9556C306.515 30.6011 306.029 31.4943 305.7 32.6353C305.372 33.7612 305.207 35.0372 305.207 36.4634C305.207 37.8746 305.372 39.1206 305.7 40.2015C306.044 41.2674 306.53 42.1005 307.157 42.701C307.785 43.2865 308.525 43.5793 309.376 43.5793Z" fill="#1757C2"/>
<path d="M335.98 48.0379C334.949 48.0379 334.015 47.8127 333.178 47.3624C332.357 46.897 331.677 46.2815 331.139 45.5159C330.601 44.7352 330.212 43.8795 329.973 42.9487V47.4074H325.042V13.1793H330.421V24.979L329.973 28.8521C330.197 27.8914 330.653 27.0732 331.34 26.3976C332.043 25.7221 332.85 25.2192 333.761 24.8889C334.673 24.5586 335.577 24.3935 336.473 24.3935C339.253 24.3935 341.352 25.3843 342.772 27.3659C344.191 29.3325 344.901 32.2449 344.901 36.1031C344.901 38.7002 344.505 40.8996 343.713 42.701C342.936 44.4875 341.875 45.8236 340.53 46.7093C339.185 47.5951 337.669 48.0379 335.98 48.0379ZM334.68 43.5793C335.457 43.5793 336.174 43.3241 336.832 42.8136C337.489 42.3032 338.02 41.4925 338.423 40.3816C338.827 39.2557 339.029 37.8295 339.029 36.1031C339.029 34.4968 338.834 33.1607 338.446 32.0948C338.072 31.0289 337.564 30.2483 336.922 29.7529C336.279 29.2425 335.562 28.9873 334.77 28.9873C333.873 28.9873 333.104 29.31 332.461 29.9556C331.819 30.6011 331.333 31.4943 331.004 32.6353C330.675 33.7612 330.511 35.0372 330.511 36.4634C330.511 37.8746 330.675 39.1206 331.004 40.2015C331.348 41.2674 331.834 42.1005 332.461 42.701C333.089 43.2865 333.828 43.5793 334.68 43.5793Z" fill="#1757C2"/>
<path d="M349.987 15.341H356.263V21.331H349.987V15.341ZM350.211 24.979H356.039V47.4074H350.211V24.979Z" fill="#1757C2"/>
<path d="M370.083 48.083C368.424 48.083 367.124 47.7977 366.183 47.2273C365.241 46.6568 364.576 45.8011 364.188 44.6601C363.814 43.5042 363.627 41.988 363.627 40.1114V29.7079H360.713V24.979H363.851L364.165 20.2501L369.052 18.1333V24.979H374.565V29.7079H369.052V39.9763C369.052 41.2373 369.223 42.1306 369.567 42.656C369.911 43.1814 370.426 43.4441 371.114 43.4441C371.726 43.4441 372.391 43.2865 373.109 42.9713C373.841 42.641 374.446 42.2732 374.924 41.8679L376 46.4166C375.343 46.882 374.394 47.2723 373.153 47.5876C371.928 47.9178 370.904 48.083 370.083 48.083Z" fill="#1757C2"/>
</svg>
