<svg width="672" height="400" viewBox="0 0 672 400" fill="none" xmlns="http://www.w3.org/2000/svg">
<g clip-path="url(#clip0_858_22)">
<path d="M0 0H672V400H0V0Z" fill="white"/>
<path d="M494 44C494 42.9391 494.421 41.9217 495.172 41.1716C495.922 40.4214 496.939 40 498 40H628C629.061 40 630.078 40.4214 630.828 41.1716C631.579 41.9217 632 42.9391 632 44V68C632 69.0609 631.579 70.0783 630.828 70.8284C630.078 71.5786 629.061 72 628 72H498C496.939 72 495.922 71.5786 495.172 70.8284C494.421 70.0783 494 69.0609 494 68V44Z" fill="white"/>
<path d="M521.315 57.66V61.186C521.316 61.2714 521.3 61.3561 521.268 61.4352C521.236 61.5143 521.188 61.5862 521.128 61.6466C521.067 61.707 520.995 61.7547 520.916 61.7868C520.837 61.819 520.752 61.8351 520.667 61.834H510.815C510.73 61.8351 510.645 61.819 510.566 61.7868C510.487 61.7547 510.415 61.707 510.354 61.6466C510.294 61.5862 510.246 61.5143 510.214 61.4352C510.182 61.3561 510.166 61.2714 510.167 61.186V57.66C510.167 57.4881 510.235 57.3233 510.357 57.2018C510.478 57.0803 510.643 57.012 510.815 57.012C510.987 57.012 511.152 57.0803 511.273 57.2018C511.395 57.3233 511.463 57.4881 511.463 57.66V60.538H520.018V57.66C520.015 57.5727 520.029 57.4856 520.06 57.4039C520.091 57.3222 520.138 57.2477 520.199 57.1847C520.259 57.1217 520.332 57.0716 520.412 57.0374C520.493 57.0032 520.579 56.9855 520.666 56.9855C520.754 56.9855 520.84 57.0032 520.921 57.0374C521.001 57.0716 521.074 57.1217 521.134 57.1847C521.195 57.2477 521.242 57.3222 521.273 57.4039C521.304 57.4856 521.318 57.5727 521.315 57.66ZM515.275 58.464C515.392 58.594 515.56 58.658 515.742 58.658C515.924 58.658 516.079 58.593 516.208 58.464L518.788 55.82C519.034 55.56 519.034 55.16 518.775 54.9C518.515 54.654 518.115 54.654 517.855 54.913L516.377 56.417V50.817C516.38 50.7297 516.366 50.6426 516.335 50.5609C516.304 50.4792 516.257 50.4047 516.196 50.3417C516.136 50.2787 516.063 50.2286 515.983 50.1944C515.902 50.1602 515.816 50.1425 515.729 50.1425C515.641 50.1425 515.555 50.1602 515.474 50.1944C515.394 50.2286 515.321 50.2787 515.261 50.3417C515.2 50.4047 515.153 50.4792 515.122 50.5609C515.091 50.6426 515.077 50.7297 515.08 50.817V56.43L513.603 54.926C513.356 54.666 512.943 54.666 512.683 54.913C512.423 55.16 512.423 55.573 512.67 55.833L515.276 58.463L515.275 58.464ZM530.96 60V51.273H536.43V52.406H532.276V55.066H536.146V56.196H532.276V58.868H536.482V60H530.959H530.96ZM540.094 53.455L541.538 56.003L542.996 53.455H544.389L542.349 56.728L544.405 60H543.012L541.537 57.554L540.067 60H538.669L540.706 56.727L538.706 53.454H540.104L540.094 53.455ZM546.697 62.455V53.455H547.942V54.515H548.048C548.142 54.3489 548.249 54.1908 548.368 54.042C548.508 53.862 548.7 53.707 548.948 53.572C549.196 53.437 549.522 53.367 549.928 53.367C550.458 53.367 550.928 53.5 551.343 53.767C551.758 54.034 552.083 54.419 552.319 54.922C552.555 55.425 552.677 56.03 552.677 56.737C552.677 57.444 552.559 58.051 552.323 58.557C552.087 59.063 551.763 59.457 551.353 59.72C550.943 59.983 550.471 60.125 549.953 60.125C549.556 60.125 549.23 60.058 548.977 59.925C548.724 59.792 548.531 59.625 548.389 59.455C548.267 59.3051 548.157 59.1456 548.061 58.978H547.985V62.451H546.7L546.697 62.455ZM547.947 56.728C547.947 57.188 548.014 57.592 548.147 57.928C548.28 58.264 548.474 58.546 548.727 58.742C548.98 58.938 549.289 59.042 549.657 59.042C550.037 59.042 550.357 58.942 550.611 58.739C550.865 58.536 551.061 58.259 551.191 57.909C551.321 57.559 551.391 57.166 551.391 56.729C551.391 56.292 551.326 55.909 551.195 55.566C551.064 55.223 550.875 54.951 550.615 54.752C550.355 54.553 550.039 54.454 549.655 54.454C549.285 54.454 548.973 54.549 548.717 54.739C548.461 54.929 548.273 55.195 548.142 55.536C548.011 55.877 547.946 56.276 547.946 56.729L547.947 56.728ZM557.862 60.133C557.248 60.133 556.712 59.993 556.255 59.711C555.798 59.429 555.443 59.036 555.19 58.531C554.937 58.026 554.81 57.434 554.81 56.758C554.81 56.082 554.936 55.485 555.19 54.978C555.425 54.4895 555.794 54.0783 556.255 53.793C556.713 53.513 557.248 53.371 557.862 53.371C558.476 53.371 559.012 53.511 559.468 53.793C559.924 54.075 560.281 54.469 560.534 54.978C560.787 55.487 560.914 56.08 560.914 56.758C560.914 57.436 560.787 58.025 560.534 58.531C560.281 59.037 559.926 59.431 559.468 59.711C559.01 59.991 558.475 60.133 557.862 60.133ZM557.866 59.063C558.264 59.063 558.593 58.958 558.866 58.748C559.134 58.5278 559.335 58.2367 559.445 57.908C559.573 57.558 559.637 57.174 559.637 56.753C559.637 56.332 559.573 55.953 559.445 55.603C559.317 55.253 559.127 54.968 558.865 54.755C558.603 54.542 558.265 54.435 557.865 54.435C557.465 54.435 557.132 54.542 556.868 54.755C556.599 54.9785 556.397 55.272 556.284 55.603C556.159 55.953 556.097 56.336 556.097 56.753C556.097 57.17 556.159 57.558 556.284 57.908C556.409 58.258 556.606 58.538 556.868 58.748C557.13 58.958 557.464 59.063 557.865 59.063H557.866ZM563.336 60.001V53.456H564.568V54.496H564.636C564.746 54.1557 564.968 53.8627 565.266 53.665C565.57 53.46 565.914 53.358 566.298 53.358L566.578 53.368L566.838 53.388V54.608C566.748 54.5868 566.657 54.5711 566.565 54.561C566.435 54.5425 566.304 54.5325 566.173 54.531C565.893 54.526 565.616 54.5921 565.368 54.723C565.139 54.8439 564.947 55.0251 564.814 55.247C564.677 55.469 564.609 55.721 564.609 56.005V60H563.335L563.336 60.001ZM572.384 53.456V54.479H568.808V53.456H572.384ZM569.767 51.888H571.041V58.08C571.041 58.327 571.078 58.513 571.141 58.638C571.204 58.763 571.311 58.844 571.427 58.888C571.551 58.9315 571.682 58.9532 571.814 58.952C571.917 58.952 572.006 58.945 572.084 58.932L572.264 58.898L572.494 59.951C572.42 59.979 572.314 60.008 572.179 60.036C572.01 60.069 571.839 60.0858 571.667 60.086C571.332 60.092 571.02 60.032 570.73 59.906C570.445 59.7844 570.201 59.583 570.027 59.326C569.847 59.064 569.757 58.726 569.757 58.342V51.886L569.767 51.888ZM578.967 60V53.455H580.197V54.495H580.267C580.377 54.1547 580.599 53.8617 580.897 53.664C581.201 53.459 581.545 53.357 581.929 53.357L582.209 53.367L582.469 53.387V54.607C582.379 54.5858 582.288 54.5701 582.196 54.56C582.066 54.5415 581.935 54.5315 581.804 54.53C581.524 54.525 581.247 54.5911 580.999 54.722C580.77 54.8429 580.578 55.0241 580.445 55.246C580.308 55.468 580.24 55.72 580.24 56.004V60H578.967ZM587.159 60.132C586.514 60.132 585.959 59.994 585.493 59.719C585.027 59.444 584.673 59.049 584.419 58.547C584.165 58.045 584.044 57.449 584.044 56.77C584.044 56.1 584.169 55.51 584.419 54.997C584.653 54.5072 585.019 54.0926 585.476 53.8C585.93 53.513 586.462 53.37 587.07 53.37C587.435 53.3693 587.798 53.4312 588.143 53.553C588.49 53.675 588.801 53.867 589.077 54.128C589.353 54.389 589.57 54.728 589.729 55.146C589.888 55.564 589.967 56.066 589.967 56.659V57.111H584.764V56.156H588.719C588.725 55.8469 588.655 55.5412 588.514 55.266C588.377 55.008 588.186 54.799 587.939 54.648C587.692 54.497 587.409 54.422 587.079 54.422C586.747 54.4144 586.421 54.5063 586.142 54.686C585.881 54.8554 585.669 55.0906 585.528 55.368C585.385 55.6492 585.312 55.9606 585.315 56.276V57.022C585.315 57.46 585.392 57.822 585.545 58.139C585.698 58.456 585.919 58.679 586.197 58.842C586.475 59.005 586.801 59.082 587.173 59.082C587.397 59.0845 587.62 59.05 587.833 58.98C588.025 58.913 588.201 58.8056 588.349 58.665C588.498 58.5205 588.611 58.344 588.681 58.149L589.887 58.366C589.794 58.7153 589.615 59.0359 589.367 59.299C589.12 59.563 588.809 59.769 588.434 59.917C588.059 60.065 587.637 60.134 587.16 60.134L587.159 60.132ZM592.381 62.454V53.454H593.625V54.514H593.732C593.826 54.3481 593.932 54.1899 594.051 54.041C594.21 53.8463 594.407 53.6866 594.631 53.572C594.878 53.436 595.205 53.367 595.611 53.367C596.139 53.367 596.611 53.5 597.026 53.767C597.441 54.034 597.766 54.419 598.002 54.922C598.238 55.425 598.36 56.03 598.36 56.737C598.36 57.444 598.242 58.051 598.006 58.557C597.77 59.063 597.446 59.457 597.034 59.72C596.622 59.983 596.152 60.125 595.634 60.125C595.236 60.125 594.911 60.058 594.658 59.925C594.405 59.792 594.212 59.625 594.07 59.455C593.948 59.3051 593.838 59.1456 593.742 58.978H593.665V62.451H592.4L592.381 62.454ZM593.631 56.727C593.631 57.187 593.697 57.591 593.831 57.927C593.965 58.263 594.158 58.545 594.411 58.741C594.664 58.937 594.974 59.041 595.341 59.041C595.721 59.041 596.041 58.941 596.296 58.738C596.551 58.535 596.746 58.258 596.876 57.908C597.006 57.558 597.076 57.165 597.076 56.728C597.082 56.3316 597.015 55.9376 596.88 55.565C596.768 55.2438 596.567 54.9614 596.3 54.751C596.044 54.551 595.725 54.453 595.34 54.453C594.97 54.453 594.66 54.548 594.403 54.738C594.146 54.928 593.958 55.194 593.828 55.535C593.698 55.876 593.632 56.275 593.632 56.728L593.631 56.727ZM603.545 60.132C602.932 60.132 602.395 59.992 601.939 59.71C601.483 59.428 601.126 59.035 600.873 58.53C600.62 58.025 600.493 57.433 600.493 56.757C600.493 56.081 600.62 55.484 600.873 54.977C601.126 54.47 601.481 54.073 601.939 53.792C602.397 53.511 602.932 53.37 603.545 53.37C604.158 53.37 604.695 53.51 605.152 53.792C605.613 54.0773 605.982 54.4885 606.217 54.977C606.47 55.485 606.597 56.079 606.597 56.757C606.597 57.435 606.471 58.024 606.217 58.53C605.963 59.036 605.609 59.43 605.152 59.71C604.695 59.99 604.159 60.132 603.545 60.132ZM603.55 59.062C603.947 59.062 604.277 58.957 604.538 58.747C604.799 58.537 604.993 58.247 605.118 57.907C605.243 57.567 605.31 57.173 605.31 56.752C605.31 56.331 605.246 55.952 605.118 55.602C605.008 55.2707 604.807 54.977 604.538 54.754C604.278 54.541 603.938 54.434 603.55 54.434C603.162 54.434 602.817 54.541 602.552 54.754C602.287 54.967 602.096 55.25 601.969 55.602C601.842 55.954 601.781 56.335 601.781 56.752C601.781 57.169 601.844 57.557 601.969 57.907C602.094 58.257 602.291 58.537 602.552 58.747C602.813 58.957 603.149 59.062 603.55 59.062ZM609.02 60V53.455H610.25V54.495H610.318C610.438 54.143 610.648 53.865 610.948 53.665C611.253 53.4619 611.612 53.3549 611.978 53.358L612.26 53.368L612.52 53.388V54.608C612.43 54.587 612.339 54.5713 612.247 54.561C612.117 54.544 611.985 54.531 611.855 54.531C611.555 54.531 611.285 54.595 611.049 54.723C610.82 54.8443 610.629 55.0254 610.495 55.247C610.357 55.4755 610.286 55.7382 610.291 56.005V60H609.017H609.02ZM618.067 53.455V54.478H614.492V53.455H618.067ZM615.451 51.887H616.725V58.079C616.725 58.326 616.762 58.512 616.825 58.637C616.889 58.7503 616.99 58.8387 617.11 58.888C617.235 58.9314 617.366 58.9531 617.498 58.952C617.588 58.9531 617.678 58.9461 617.767 58.931L617.945 58.897L618.175 59.95C618.101 59.978 617.995 60.007 617.859 60.035C617.723 60.063 617.552 60.083 617.359 60.085C617.024 60.091 616.711 60.031 616.421 59.905C616.136 59.7837 615.892 59.5826 615.718 59.326C615.538 59.066 615.45 58.726 615.45 58.342V51.886L615.451 51.887Z" fill="#1757C2"/>
<path d="M628 40.5H498C496.067 40.5 494.5 42.067 494.5 44V68C494.5 69.933 496.067 71.5 498 71.5H628C629.933 71.5 631.5 69.933 631.5 68V44C631.5 42.067 629.933 40.5 628 40.5Z" stroke="#1757C2"/>
<path d="M59.378 345V350.672C59.374 351.594 58.944 352.086 58.178 352.086C57.471 352.086 56.978 351.664 56.975 351H55.775C55.775 352.352 56.791 353.1 58.145 353.1C59.615 353.1 60.575 352.202 60.579 350.663V345H59.376H59.378ZM64 353.133C64.992 353.133 65.55 352.629 65.774 352.18H65.821V353H66.961V349.016C66.961 347.27 65.586 346.922 64.633 346.922C63.547 346.922 62.547 347.359 62.157 348.452L63.255 348.702C63.427 348.276 63.855 347.866 64.65 347.866C65.404 347.866 65.79 348.261 65.79 348.94V348.968C65.79 349.394 65.353 349.386 64.274 349.511C63.137 349.644 61.974 349.941 61.974 351.304C61.974 352.484 62.861 353.132 64.001 353.132L64 353.133ZM64.254 352.195C63.594 352.195 63.117 351.898 63.117 351.32C63.117 350.695 63.672 350.473 64.347 350.383C64.727 350.333 65.624 350.23 65.792 350.063V350.837C65.792 351.537 65.226 352.197 64.252 352.197L64.254 352.195ZM69.684 349.437C69.684 348.48 70.27 347.934 71.082 347.934C71.875 347.934 72.355 348.454 72.355 349.334V353H73.523V349.184C73.523 347.699 72.707 346.922 71.48 346.922C70.578 346.922 69.988 347.34 69.71 347.977H69.636V347H68.516V353H69.684V349.437ZM105.206 353H106.413V349.512H109.811V348.477H106.413V346.039H110.167V345H105.207L105.206 353ZM113.703 353.12C115.011 353.12 115.937 352.476 116.203 351.5L115.097 351.3C114.897 351.866 114.377 352.155 113.714 352.155C112.714 352.155 112.044 351.507 112.011 350.351H116.277V349.936C116.277 347.769 114.98 346.921 113.621 346.921C111.949 346.921 110.847 348.194 110.847 350.038C110.847 351.901 111.933 353.12 113.703 353.12ZM112.015 349.476C112.062 348.624 112.679 347.876 113.628 347.876C114.535 347.876 115.128 348.548 115.132 349.476H112.015ZM117.667 352.999H118.807V352.065H118.905C119.105 352.448 119.545 353.115 120.639 353.115C122.092 353.115 123.147 351.951 123.147 350.01C123.147 348.069 122.077 346.91 120.627 346.91C119.513 346.91 119.111 347.59 118.904 347.96H118.834V345H117.666V353L117.667 352.999ZM118.811 349.999C118.811 348.745 119.358 347.913 120.378 347.913C121.436 347.913 121.978 348.808 121.978 349.999C121.978 351.202 121.431 352.119 120.378 352.119C119.374 352.119 118.811 351.259 118.811 349.999ZM153.858 344.999V352.999H155.006V347.206H155.08L157.44 352.986H158.393L160.753 347.209H160.828V353.009H161.976V345.009H160.5L157.953 351.229H157.859L155.313 345.009H153.848L153.858 344.999ZM165.382 353.132C166.374 353.132 166.932 352.628 167.156 352.179H167.202V352.999H168.342V349.015C168.342 347.269 166.967 346.921 166.014 346.921C164.928 346.921 163.928 347.358 163.537 348.451L164.635 348.701C164.807 348.275 165.235 347.865 166.03 347.865C166.784 347.865 167.17 348.26 167.17 348.939V348.967C167.17 349.393 166.733 349.385 165.655 349.51C164.518 349.643 163.355 349.94 163.355 351.303C163.355 352.483 164.242 353.132 165.382 353.132ZM165.636 352.194C164.976 352.194 164.499 351.897 164.499 351.319C164.499 350.694 165.054 350.472 165.729 350.382C166.109 350.332 167.006 350.229 167.174 350.062V350.836C167.174 351.536 166.608 352.196 165.634 352.196L165.636 352.194ZM169.899 352.999H171.067V349.335C171.067 348.55 171.672 347.983 172.5 347.983C172.702 347.983 172.903 348.006 173.1 348.053V346.935C172.935 346.918 172.77 346.909 172.604 346.908C171.9 346.908 171.299 347.308 171.08 347.951H171.018V347H169.888V353L169.899 352.999ZM205.039 352.999L205.773 350.882H208.898L209.628 352.999H210.908L208.028 344.999H206.634L203.754 352.999H205.034H205.039ZM206.125 349.866L207.305 346.452H207.367L208.547 349.866H206.125ZM211.972 355.249H213.14V352.065H213.21C213.41 352.448 213.85 353.115 214.944 353.115C216.397 353.115 217.452 351.951 217.452 350.01C217.452 348.069 216.382 346.91 214.932 346.91C213.818 346.91 213.416 347.59 213.209 347.96H213.111V347H211.971V355.25L211.972 355.249ZM213.116 349.999C213.116 348.745 213.663 347.913 214.683 347.913C215.741 347.913 216.283 348.808 216.283 349.999C216.283 351.202 215.737 352.119 214.683 352.119C213.679 352.119 213.116 351.259 213.116 349.999ZM218.761 352.999H219.929V349.335C219.929 348.55 220.534 347.983 221.362 347.983C221.564 347.983 221.765 348.006 221.962 348.053V346.935C221.797 346.918 221.632 346.909 221.466 346.908C220.762 346.908 220.161 347.308 219.942 347.951H219.88V347H218.75V353L218.761 352.999ZM251.797 344.999V352.999H252.947V347.206H253.021L255.381 352.986H256.335L258.695 347.209H258.769V353.009H259.919V345.009H258.454L255.907 351.229H255.813L253.266 345.009H251.801L251.797 344.999ZM263.322 353.132C264.314 353.132 264.872 352.628 265.095 352.179H265.142V352.999H266.282V349.015C266.282 347.269 264.907 346.921 263.954 346.921C262.868 346.921 261.868 347.358 261.477 348.451L262.575 348.701C262.747 348.275 263.175 347.865 263.969 347.865C264.723 347.865 265.109 348.26 265.109 348.939V348.967C265.109 349.393 264.671 349.385 263.593 349.51C262.457 349.643 261.293 349.94 261.293 351.303C261.293 352.483 262.18 353.131 263.321 353.131L263.322 353.132ZM263.576 352.194C262.916 352.194 262.439 351.897 262.439 351.319C262.439 350.694 262.994 350.472 263.669 350.382C264.049 350.332 264.947 350.229 265.115 350.062V350.836C265.115 351.536 264.548 352.196 263.575 352.196L263.576 352.194ZM268.362 355.234C269.327 355.234 269.94 354.73 270.284 353.801L272.764 347.001L271.502 346.989L269.982 351.645H269.919L268.4 347H267.15L269.345 353.078L269.201 353.478C268.904 354.255 268.486 354.325 267.845 354.148L267.565 355.105C267.705 355.172 268.01 355.234 268.362 355.234ZM305.562 344.999V350.671C305.558 351.593 305.128 352.085 304.362 352.085C303.655 352.085 303.162 351.663 303.159 350.999H301.959C301.959 352.351 302.975 353.099 304.329 353.099C305.799 353.099 306.759 352.201 306.763 350.662V345H305.56L305.562 344.999ZM312.229 350.511C312.232 351.531 311.475 352.015 310.829 352.015C310.107 352.015 309.607 351.491 309.607 350.675V347H308.439V350.816C308.439 352.316 309.255 353.078 310.409 353.078C311.311 353.078 311.924 352.602 312.202 351.961H312.264V353H313.412V347H312.242V350.512L312.229 350.511ZM316.129 349.436C316.129 348.479 316.715 347.933 317.527 347.933C318.32 347.933 318.801 348.453 318.801 349.333V353H319.969V349.184C319.969 347.699 319.152 346.922 317.926 346.922C317.023 346.922 316.433 347.34 316.156 347.977H316.082V347H314.962V353H316.13V349.437L316.129 349.436ZM357.156 345V350.672C357.152 351.594 356.722 352.086 355.956 352.086C355.249 352.086 354.756 351.664 354.753 351H353.553C353.553 352.352 354.569 353.1 355.923 353.1C357.393 353.1 358.353 352.202 358.357 350.663V345H357.154H357.156ZM363.823 350.512C363.827 351.532 363.069 352.016 362.423 352.016C361.7 352.016 361.2 351.492 361.2 350.676V347H360.032V350.816C360.032 352.316 360.848 353.078 362.002 353.078C362.904 353.078 363.517 352.602 363.795 351.961H363.857V353H365.007V347H363.835V350.512H363.823ZM367.723 345H366.555V353H367.723V345ZM401.028 353L401.762 350.883H404.887L405.617 353H406.897L404.017 345H402.623L399.743 353H401.023H401.028ZM402.114 349.867L403.294 346.453H403.356L404.536 349.867H402.114ZM411.761 350.512C411.765 351.532 411.007 352.016 410.361 352.016C409.639 352.016 409.139 351.492 409.139 350.676V347H407.971V350.816C407.971 352.316 408.787 353.078 409.939 353.078C410.842 353.078 411.455 352.602 411.732 351.961H411.795V353H412.943V347H411.771V350.512H411.761ZM417.018 355.362C418.546 355.362 419.725 354.662 419.725 353.132V347H418.581V347.973H418.495C418.288 347.603 417.875 346.923 416.755 346.923C415.305 346.923 414.24 348.067 414.24 349.978C414.24 351.889 415.34 352.911 416.748 352.911C417.848 352.911 418.275 352.291 418.486 351.907H418.56V353.087C418.56 354.013 417.916 354.423 417.03 354.423C416.057 354.423 415.678 353.935 415.47 353.603L414.466 354.017C414.783 354.739 415.584 355.364 417.016 355.364L417.018 355.362ZM417.006 351.94C415.963 351.94 415.421 351.14 415.421 349.96C415.421 348.808 415.951 347.913 417.006 347.913C418.026 347.913 418.573 348.745 418.573 349.96C418.573 351.198 418.013 351.94 417.006 351.94ZM454.226 347.102H455.39C455.355 345.82 454.222 344.902 452.597 344.902C450.992 344.902 449.762 345.82 449.762 347.198C449.762 348.312 450.558 348.964 451.844 349.312L452.789 349.57C453.644 349.796 454.305 350.077 454.305 350.788C454.305 351.57 453.558 352.085 452.531 352.085C451.601 352.085 450.828 351.671 450.758 350.8H449.558C449.636 352.25 450.758 353.144 452.55 353.144C454.43 353.144 455.51 352.156 455.51 350.8C455.51 349.36 454.225 348.8 453.21 348.55L452.43 348.347C451.805 348.187 450.973 347.894 450.977 347.127C450.977 346.447 451.597 345.944 452.582 345.944C453.5 345.944 454.152 346.374 454.238 347.112L454.226 347.102ZM459.434 353.122C460.734 353.122 461.669 352.478 461.934 351.502L460.829 351.302C460.629 351.868 460.109 352.157 459.446 352.157C458.446 352.157 457.774 351.509 457.743 350.353H462.009V349.938C462.009 347.771 460.712 346.923 459.352 346.923C457.68 346.923 456.579 348.196 456.579 350.04C456.579 351.903 457.665 353.122 459.434 353.122ZM457.747 349.478C457.794 348.626 458.411 347.878 459.36 347.878C460.266 347.878 460.86 348.55 460.864 349.478H457.747ZM463.305 355.251H464.472V352.067H464.542C464.742 352.45 465.182 353.117 466.276 353.117C467.729 353.117 468.784 351.953 468.784 350.012C468.784 348.071 467.714 346.912 466.264 346.912C465.151 346.912 464.749 347.592 464.542 347.962H464.444V347H463.304V355.25L463.305 355.251ZM464.449 350.001C464.449 348.747 464.996 347.915 466.015 347.915C467.075 347.915 467.615 348.81 467.615 350.001C467.615 351.204 467.068 352.121 466.015 352.121C465.012 352.121 464.449 351.261 464.449 350.001ZM507.266 349.001C507.266 346.441 505.736 344.901 503.664 344.901C501.586 344.901 500.059 346.451 500.059 349.001C500.059 351.551 501.586 353.101 503.664 353.101C505.734 353.101 507.266 351.551 507.266 349.001ZM506.071 349.001C506.071 350.951 505.039 352.009 503.664 352.009C502.289 352.009 501.258 350.949 501.258 349.001C501.258 347.053 502.285 345.993 503.664 345.993C505.043 345.993 506.071 347.053 506.071 349.001ZM511.204 353.121C512.622 353.121 513.54 352.271 513.669 351.101H512.533C512.383 351.749 511.88 352.131 511.213 352.131C510.225 352.131 509.588 351.307 509.588 349.998C509.588 348.713 510.238 347.904 511.213 347.904C511.955 347.904 512.409 348.374 512.533 348.934H513.669C513.544 347.734 512.556 346.919 511.193 346.919C509.501 346.919 508.408 348.192 508.408 350.024C508.408 351.824 509.462 353.118 511.204 353.118V353.121ZM517.719 347.001H516.489V345.563H515.321V347H514.441V347.937H515.321V351.48C515.317 352.58 516.149 353.098 517.071 353.078C517.441 353.074 517.691 353.004 517.828 352.953L517.628 351.988C517.548 352.004 517.405 352.038 517.228 352.038C516.848 352.038 516.51 351.913 516.51 351.238V347.938H517.74V347L517.719 347.001ZM554.894 345.001H553.7V350.876H553.626L549.556 345.001H548.439V353.001H549.646V347.134H549.72L553.787 353.001H554.887V345.001H554.894ZM559.088 353.121C560.78 353.121 561.885 351.883 561.885 350.027C561.885 348.16 560.78 346.922 559.088 346.922C557.396 346.922 556.292 348.16 556.292 350.027C556.292 351.883 557.397 353.121 559.088 353.121ZM559.092 352.141C557.987 352.141 557.472 351.176 557.472 350.023C557.472 348.87 557.988 347.898 559.092 347.898C560.19 347.898 560.706 348.875 560.706 350.023C560.706 351.171 560.19 352.141 559.092 352.141ZM568.107 347.001H566.853L565.337 351.618H565.275L563.755 347.001H562.502L564.682 353.001H565.932L568.107 347.001ZM600.307 353.001C602.745 353.001 604.155 351.489 604.155 348.989C604.155 346.501 602.755 345.001 600.389 345.001H597.717V353.001H600.317H600.307ZM598.924 351.946V346.046H600.324C602.074 346.046 602.976 347.093 602.976 348.979C602.976 350.874 602.074 351.936 600.25 351.936H598.933L598.924 351.946ZM608.148 353.122C609.448 353.122 610.382 352.478 610.648 351.502L609.543 351.302C609.343 351.868 608.823 352.157 608.16 352.157C607.16 352.157 606.488 351.509 606.457 350.353H610.722V349.938C610.722 347.771 609.425 346.923 608.066 346.923C606.394 346.923 605.293 348.196 605.293 350.04C605.293 351.903 606.378 353.122 608.148 353.122ZM606.461 349.478C606.507 348.626 607.125 347.878 608.074 347.878C608.98 347.878 609.574 348.55 609.578 349.478H606.461ZM614.545 353.122C615.963 353.122 616.881 352.272 617.01 351.102H615.874C615.724 351.75 615.221 352.132 614.554 352.132C613.566 352.132 612.929 351.308 612.929 349.999C612.929 348.714 613.579 347.905 614.554 347.905C615.296 347.905 615.75 348.375 615.874 348.935H617.01C616.885 347.735 615.897 346.92 614.534 346.92C612.842 346.92 611.749 348.193 611.749 350.025C611.749 351.825 612.803 353.119 614.545 353.119V353.122Z" fill="#5D6598"/>
<mask id="mask0_858_22" style="mask-type:luminance" maskUnits="userSpaceOnUse" x="43" y="96" width="592" height="237">
<path d="M43 96H635V333H43V96Z" fill="white"/>
</mask>
<g mask="url(#mask0_858_22)">
<path d="M43 195L693 171" stroke="#8BABE1" stroke-width="2" stroke-linecap="round" stroke-dasharray="0.1 4"/>
<path fill-rule="evenodd" clip-rule="evenodd" d="M40 208.602L61.5 217.404C83 226.204 126 243.807 169 246.741C212 249.675 255 237.941 298 226.205C341 214.469 384 202.735 427 202.735C470 202.735 513 214.47 556 214.47C599 214.47 642 202.735 663.5 196.867L685 191V403H40V208.602Z" fill="url(#paint0_linear_858_22)" fill-opacity="0.05"/>
<path d="M685 403V191L663.5 196.867C642 202.735 599 214.47 556 214.47C513 214.47 470 202.735 427 202.735C384 202.735 341 214.47 298 226.205C255 237.94 212 249.675 169 246.741C126 243.807 83 226.205 61.5 217.404L40 208.602V403M685 403H40ZM685 403H40Z" stroke="#FF6F1E" stroke-width="2" stroke-linecap="round"/>
<path fill-rule="evenodd" clip-rule="evenodd" d="M40 245.516L76.013 242.303C111.489 239.089 183.513 232.663 255.001 235.876C326.489 239.089 398.513 251.943 470.001 258.37C541.489 264.797 613.514 264.797 648.988 264.797H685V431H40V245.516Z" fill="url(#paint1_linear_858_22)" fill-opacity="0.05" stroke="#14FF00" stroke-width="2"/>
<path d="M134.75 142.91C100.22 149.627 57.195 145.71 40 142.91V350H685V113C653.417 113 485.675 153.406 413.384 153.93C341.093 154.454 320.038 120.346 271.26 120.346C222.482 120.346 177.913 134.514 134.76 142.91H134.75Z" fill="url(#paint2_linear_858_22)" fill-opacity="0.05" stroke="#C21717" stroke-width="2"/>
</g>
<g filter="url(#filter0_dd_858_22)">
<path fill-rule="evenodd" clip-rule="evenodd" d="M381 121C379.409 121 377.883 121.632 376.757 122.757C375.632 123.883 375 125.409 375 127V141.22L369 148.943L375 156.667V235C375 236.591 375.632 238.117 376.757 239.243C377.883 240.368 379.409 241 381 241H566C567.591 241 569.117 240.368 570.243 239.243C571.368 238.117 572 236.591 572 235V127C572 125.409 571.368 123.883 570.243 122.757C569.117 121.632 567.591 121 566 121H381Z" fill="white"/>
</g>
<path d="M527.365 145.654C525.227 145.639 523.83 147.17 523.83 149.119C523.83 151.068 525.242 152.469 527.007 152.469C528.087 152.469 529.011 151.942 529.533 151.087H529.613C529.608 153.429 528.728 154.797 527.237 154.797C526.262 154.797 525.637 154.2 525.437 153.33H523.921C524.144 154.976 525.417 156.14 527.237 156.14C529.603 156.14 531.08 154.107 531.085 150.542C531.08 146.799 529.181 145.669 527.365 145.654ZM527.37 146.947C528.548 146.947 529.418 147.947 529.418 149.085C529.418 150.223 528.504 151.217 527.34 151.217C526.176 151.217 525.322 150.283 525.322 149.099C525.322 147.896 526.202 146.947 527.37 146.947ZM536.425 156.169C538.775 156.169 540.153 154.249 540.153 150.914C540.153 147.604 538.756 145.679 536.425 145.679C534.088 145.679 532.695 147.599 532.691 150.914C532.691 154.244 534.068 156.164 536.425 156.169ZM536.425 154.842C535.047 154.842 534.217 153.46 534.217 150.914C534.222 148.379 535.052 146.982 536.425 146.982C537.792 146.982 538.627 148.379 538.627 150.914C538.627 153.46 537.797 154.842 536.425 154.842ZM545.462 156.139C547.54 156.139 549.066 154.896 549.062 153.206C549.067 151.918 548.287 150.994 546.934 150.786V150.706C547.998 150.433 548.689 149.598 548.684 148.454C548.689 146.958 547.461 145.68 545.502 145.68C543.632 145.68 542.132 146.81 542.082 148.464H543.568C543.603 147.529 544.483 146.964 545.483 146.964C546.523 146.964 547.203 147.594 547.198 148.534C547.203 149.518 546.412 150.164 545.284 150.164H544.424V151.417H545.284C546.696 151.417 547.511 152.133 547.511 153.157C547.511 154.157 546.651 154.817 545.453 154.817C544.349 154.817 543.489 154.25 543.429 153.345H541.869C541.934 155.005 543.405 156.139 545.464 156.139H545.462Z" fill="#131520"/>
<path d="M515 150C515 152.652 513.946 155.196 512.071 157.071C510.196 158.946 507.652 160 505 160C502.348 160 499.804 158.946 497.929 157.071C496.054 155.196 495 152.652 495 150C495 147.348 496.054 144.804 497.929 142.929C499.804 141.054 502.348 140 505 140C507.652 140 510.196 141.054 512.071 142.929C513.946 144.804 515 147.348 515 150Z" fill="#F4FBF7"/>
<path fill-rule="evenodd" clip-rule="evenodd" d="M505 140.417C499.707 140.417 495.417 144.717 495.417 150C495.417 155.283 499.717 159.583 505 159.583C510.283 159.583 514.583 155.283 514.583 150C514.583 144.717 510.283 140.417 505 140.417ZM494.583 150C494.584 147.237 495.682 144.588 497.635 142.635C499.588 140.682 502.237 139.584 505 139.583C507.763 139.584 510.412 140.682 512.365 142.635C514.318 144.588 515.416 147.237 515.417 150C515.416 152.763 514.318 155.412 512.365 157.365C510.412 159.318 507.763 160.416 505 160.417C502.237 160.416 499.588 159.318 497.635 157.365C495.682 155.412 494.584 152.763 494.583 150Z" fill="#C21717"/>
<path d="M506.527 150.89L505.241 147.558L505.121 147.215L505.001 146.792C504.921 147.102 504.839 147.358 504.756 147.564L503.47 150.89H506.527ZM508.837 153.93H507.979C507.879 153.93 507.799 153.905 507.739 153.855C507.679 153.805 507.633 153.743 507.602 153.667L506.837 151.69H503.162L502.397 153.667C502.371 153.739 502.325 153.803 502.265 153.85C502.2 153.903 502.12 153.93 502.025 153.93H501.168L504.442 145.74H505.562L508.837 153.93Z" fill="#C21717"/>
<path d="M395 155C397.209 155 399 153.209 399 151C399 148.791 397.209 147 395 147C392.791 147 391 148.791 391 151C391 153.209 392.791 155 395 155Z" fill="#C21717"/>
<path d="M524.322 188H525.928L530.358 179.18V177.818H523.626V179.136H528.766V179.21L524.321 188.01L524.322 188ZM532.087 188H538.789V186.683H534.205V186.608L536.228 184.49C538.093 182.606 538.624 181.706 538.624 180.567C538.624 178.932 537.292 177.679 535.374 177.679C533.47 177.679 532.078 178.912 532.078 180.771H533.545C533.54 179.678 534.245 178.961 535.345 178.961C536.379 178.961 537.165 179.597 537.165 180.611C537.165 181.511 536.628 182.157 535.535 183.316L532.09 186.886V188H532.087ZM544.537 177.818H543.04L540.5 179.478V180.948L542.936 179.358H542.996V188H544.538V177.818H544.537Z" fill="#131520"/>
<path d="M515 182C515 184.652 513.946 187.196 512.071 189.071C510.196 190.946 507.652 192 505 192C502.348 192 499.804 190.946 497.929 189.071C496.054 187.196 495 184.652 495 182C495 179.348 496.054 176.804 497.929 174.929C499.804 173.054 502.348 172 505 172C507.652 172 510.196 173.054 512.071 174.929C513.946 176.804 515 179.348 515 182Z" fill="#F9FCF5"/>
<path fill-rule="evenodd" clip-rule="evenodd" d="M505 172.417C499.707 172.417 495.417 176.717 495.417 182C495.417 187.283 499.717 191.583 505 191.583C510.283 191.583 514.583 187.283 514.583 182C514.583 176.717 510.283 172.417 505 172.417ZM494.583 182C494.584 179.237 495.682 176.588 497.635 174.635C499.588 172.682 502.237 171.584 505 171.583C507.763 171.584 510.412 172.682 512.365 174.635C514.318 176.588 515.416 179.237 515.417 182C515.416 184.763 514.318 187.412 512.365 189.365C510.412 191.318 507.763 192.416 505 192.417C502.237 192.416 499.588 191.318 497.635 189.365C495.682 187.412 494.584 184.763 494.583 182Z" fill="#FF6F1E"/>
<path d="M505.226 185.05C505.542 185.05 505.814 185.013 506.043 184.94C506.272 184.867 506.458 184.767 506.603 184.637C506.748 184.507 506.86 184.347 506.929 184.169C506.999 183.977 507.034 183.774 507.032 183.569C507.032 183.146 506.882 182.812 506.58 182.569C506.278 182.326 505.828 182.197 505.226 182.197H503.454V185.049H505.226V185.05ZM503.454 178.615V181.41H504.917C505.23 181.41 505.5 181.375 505.729 181.307C505.937 181.251 506.131 181.153 506.3 181.021C506.453 180.899 506.565 180.751 506.637 180.581C506.711 180.4 506.748 180.206 506.746 180.01C506.746 179.526 506.601 179.173 506.312 178.952C506.023 178.731 505.572 178.615 504.962 178.615H503.452H503.454ZM504.964 177.741C505.467 177.741 505.899 177.791 506.261 177.891C506.623 177.991 506.926 178.131 507.158 178.313C507.388 178.488 507.568 178.721 507.678 178.988C507.788 179.251 507.844 179.548 507.844 179.878C507.845 180.076 507.812 180.274 507.747 180.461C507.684 180.647 507.59 180.821 507.467 180.975C507.331 181.144 507.169 181.291 506.987 181.41C506.797 181.535 506.572 181.638 506.313 181.718C506.913 181.832 507.366 182.048 507.667 182.364C507.968 182.68 508.124 183.088 508.124 183.598C508.128 183.925 508.062 184.248 507.93 184.547C507.803 184.833 507.611 185.085 507.37 185.284C507.126 185.49 506.825 185.65 506.467 185.764C506.109 185.878 505.701 185.93 505.244 185.93H502.354V177.74L504.964 177.741Z" fill="#FF6F1E"/>
<path d="M395 187C397.209 187 399 185.209 399 183C399 180.791 397.209 179 395 179C392.791 179 391 180.791 391 183C391 185.209 392.791 187 395 187Z" fill="#FF6F1E"/>
<path d="M527.34 220.14C529.388 220.14 530.84 218.693 530.845 216.71C530.85 214.74 529.478 213.31 527.625 213.31C526.869 213.31 526.168 213.6 525.77 213.986H525.71L526.033 211.138H530.353V209.82H524.755L524.183 214.95L525.59 215.16C525.973 214.817 526.66 214.583 527.276 214.583C528.484 214.593 529.359 215.498 529.359 216.741C529.359 217.964 528.509 218.849 527.339 218.849C526.355 218.849 525.574 218.222 525.495 217.347H524.003C524.063 218.967 525.47 220.141 527.339 220.141L527.34 220.14ZM532.66 220H539.362V218.683H534.778V218.608L536.801 216.49C538.666 214.606 539.198 213.706 539.198 212.567C539.198 210.932 537.865 209.679 535.946 209.679C534.042 209.679 532.65 210.912 532.65 212.771H534.117C534.112 211.678 534.817 210.961 535.917 210.961C536.952 210.961 537.737 211.597 537.737 212.611C537.737 213.511 537.2 214.157 536.107 215.316L532.662 218.886V220H532.66ZM540.813 218.01H545.641V220H547.107V218.01H548.455V216.708H547.107V209.818H545.213L540.813 216.768V218.011V218.01ZM545.651 216.708H542.424V216.628L545.571 211.648H545.651V216.708Z" fill="#131520"/>
<path d="M515 214C515 216.652 513.946 219.196 512.071 221.071C510.196 222.946 507.652 224 505 224C502.348 224 499.804 222.946 497.929 221.071C496.054 219.196 495 216.652 495 214C495 211.348 496.054 208.804 497.929 206.929C499.804 205.054 502.348 204 505 204C507.652 204 510.196 205.054 512.071 206.929C513.946 208.804 515 211.348 515 214Z" fill="#FFFCF3"/>
<path fill-rule="evenodd" clip-rule="evenodd" d="M505 204.417C499.707 204.417 495.417 208.717 495.417 214C495.417 219.283 499.717 223.583 505 223.583C510.283 223.583 514.583 219.283 514.583 214C514.583 208.717 510.283 204.417 505 204.417ZM494.583 214C494.584 211.237 495.682 208.588 497.635 206.635C499.588 204.682 502.237 203.584 505 203.583C507.763 203.584 510.412 204.682 512.365 206.635C514.318 208.588 515.416 211.237 515.417 214C515.416 216.763 514.318 219.412 512.365 221.365C510.412 223.318 507.763 224.416 505 224.417C502.237 224.416 499.588 223.318 497.635 221.365C495.682 219.412 494.584 216.763 494.583 214Z" fill="#14FF00"/>
<path d="M507.978 216.237C508.038 216.237 508.092 216.262 508.138 216.312L508.578 216.786C508.242 217.174 507.835 217.476 507.355 217.694C506.875 217.912 506.301 218.02 505.623 218.02C505.037 218.02 504.503 217.92 504.023 217.717C503.543 217.514 503.133 217.227 502.795 216.86C502.457 216.493 502.193 216.05 502.005 215.534C501.817 215.018 501.725 214.454 501.725 213.837C501.718 213.258 501.817 212.683 502.017 212.14C502.211 211.626 502.483 211.184 502.834 210.814C503.192 210.442 503.624 210.15 504.102 209.957C504.594 209.752 505.137 209.649 505.732 209.649C506.315 209.649 506.829 209.742 507.275 209.929C507.71 210.109 508.109 210.366 508.452 210.689L508.086 211.197C508.063 211.236 508.032 211.269 507.995 211.294C507.96 211.317 507.913 211.329 507.852 211.329C507.782 211.329 507.699 211.292 507.6 211.219C507.501 211.146 507.372 211.059 507.212 210.969C507.052 210.879 506.852 210.795 506.612 210.723C506.372 210.651 506.077 210.609 505.726 210.609C505.303 210.609 504.916 210.683 504.566 210.832C504.22 210.973 503.91 211.19 503.658 211.466C503.406 211.744 503.21 212.083 503.068 212.483C502.926 212.883 502.858 213.333 502.858 213.837C502.858 214.347 502.93 214.803 503.075 215.203C503.22 215.603 503.423 215.943 503.675 216.22C503.926 216.491 504.232 216.706 504.572 216.849C504.927 216.995 505.308 217.069 505.692 217.066C505.912 217.067 506.131 217.054 506.349 217.026C506.534 216.999 506.716 216.953 506.892 216.889C507.055 216.831 507.21 216.754 507.355 216.66C507.499 216.565 507.642 216.452 507.783 216.323C507.848 216.266 507.913 216.237 507.978 216.237Z" fill="#14FF00"/>
<path d="M395 219C397.209 219 399 217.209 399 215C399 212.791 397.209 211 395 211C392.791 211 391 212.791 391 215C391 217.209 392.791 219 395 219Z" fill="#14FF00"/>
<path d="M41.7614 59V44.4545H46.8466C47.8598 44.4545 48.6955 44.6297 49.3537 44.9801C50.0118 45.3258 50.5019 45.7921 50.8239 46.3793C51.1458 46.9616 51.3068 47.608 51.3068 48.3182C51.3068 48.9432 51.1955 49.4593 50.973 49.8665C50.7552 50.2737 50.4664 50.5956 50.1065 50.8324C49.7514 51.0691 49.3655 51.2443 48.9489 51.358V51.5C49.3939 51.5284 49.8414 51.6847 50.2912 51.9688C50.741 52.2528 51.1174 52.66 51.4205 53.1903C51.7235 53.7206 51.875 54.3693 51.875 55.1364C51.875 55.8655 51.7093 56.5213 51.3778 57.1037C51.0464 57.6861 50.5232 58.1477 49.8082 58.4886C49.0933 58.8295 48.1629 59 47.017 59H41.7614ZM43.5227 57.4375H47.017C48.1676 57.4375 48.9844 57.215 49.4673 56.7699C49.955 56.3201 50.1989 55.7756 50.1989 55.1364C50.1989 54.6439 50.0734 54.1894 49.8224 53.7727C49.5715 53.3513 49.214 53.0152 48.75 52.7642C48.286 52.5085 47.7367 52.3807 47.1023 52.3807H43.5227V57.4375ZM43.5227 50.8466H46.7898C47.3201 50.8466 47.7983 50.7424 48.2244 50.5341C48.6553 50.3258 48.9962 50.0322 49.2472 49.6534C49.5028 49.2746 49.6307 48.8295 49.6307 48.3182C49.6307 47.679 49.4081 47.1368 48.9631 46.6918C48.518 46.242 47.8125 46.017 46.8466 46.017H43.5227V50.8466ZM62.2169 54.5398V48.0909H63.893V59H62.2169V57.1534H62.1033C61.8476 57.7074 61.4499 58.1785 60.9101 58.5668C60.3703 58.9503 59.6885 59.142 58.8646 59.142C58.1828 59.142 57.5768 58.9929 57.0464 58.6946C56.5161 58.3916 56.0995 57.937 55.7964 57.331C55.4934 56.7202 55.3419 55.9508 55.3419 55.0227V48.0909H57.018V54.9091C57.018 55.7045 57.2406 56.339 57.6857 56.8125C58.1355 57.286 58.7084 57.5227 59.4044 57.5227C59.8211 57.5227 60.2448 57.4162 60.6757 57.2031C61.1113 56.9901 61.4759 56.6634 61.7695 56.223C62.0678 55.7827 62.2169 55.2216 62.2169 54.5398ZM75.4903 50.5341L73.9846 50.9602C73.8899 50.7093 73.7502 50.4654 73.5656 50.2287C73.3856 49.9872 73.1394 49.7884 72.8269 49.6321C72.5144 49.4759 72.1143 49.3977 71.6266 49.3977C70.959 49.3977 70.4027 49.5516 69.9576 49.8594C69.5173 50.1624 69.2971 50.5483 69.2971 51.017C69.2971 51.4337 69.4486 51.7628 69.7516 52.0043C70.0547 52.2457 70.5281 52.447 71.1721 52.608L72.7914 53.0057C73.7668 53.2424 74.4936 53.6046 74.9718 54.0923C75.45 54.5753 75.6891 55.1979 75.6891 55.9602C75.6891 56.5852 75.5092 57.1439 75.1494 57.6364C74.7942 58.1288 74.2971 58.517 73.6579 58.8011C73.0187 59.0852 72.2753 59.2273 71.4278 59.2273C70.3151 59.2273 69.3942 58.9858 68.665 58.5028C67.9358 58.0199 67.4742 57.3144 67.28 56.3864L68.871 55.9886C69.0225 56.5758 69.3089 57.0161 69.7303 57.3097C70.1565 57.6032 70.7128 57.75 71.3994 57.75C72.1806 57.75 72.8009 57.5843 73.2602 57.2528C73.7242 56.9167 73.9562 56.5142 73.9562 56.0455C73.9562 55.6667 73.8236 55.3494 73.5585 55.0938C73.2933 54.8333 72.8861 54.6392 72.3369 54.5114L70.5187 54.0852C69.5196 53.8485 68.7857 53.4815 68.317 52.9844C67.853 52.4825 67.621 51.8551 67.621 51.1023C67.621 50.4867 67.7938 49.9422 68.1394 49.4688C68.4898 48.9953 68.9656 48.6236 69.567 48.3537C70.173 48.0838 70.8596 47.9489 71.6266 47.9489C72.7062 47.9489 73.5537 48.1856 74.1692 48.6591C74.7895 49.1326 75.2299 49.7576 75.4903 50.5341ZM79.0122 59V48.0909H80.6884V59H79.0122ZM79.8645 46.2727C79.5378 46.2727 79.2561 46.1615 79.0193 45.9389C78.7873 45.7164 78.6713 45.4489 78.6713 45.1364C78.6713 44.8239 78.7873 44.5563 79.0193 44.3338C79.2561 44.1113 79.5378 44 79.8645 44C80.1912 44 80.4706 44.1113 80.7026 44.3338C80.9393 44.5563 81.0577 44.8239 81.0577 45.1364C81.0577 45.4489 80.9393 45.7164 80.7026 45.9389C80.4706 46.1615 80.1912 46.2727 79.8645 46.2727ZM86.2344 52.4375V59H84.5583V48.0909H86.1776V49.7955H86.3197C86.5754 49.2415 86.9636 48.7964 87.4844 48.4602C88.0053 48.1193 88.6776 47.9489 89.5015 47.9489C90.2401 47.9489 90.8864 48.1004 91.4404 48.4034C91.9944 48.7017 92.4253 49.1562 92.733 49.767C93.0408 50.3731 93.1947 51.1402 93.1947 52.0682V59H91.5185V52.1818C91.5185 51.3248 91.296 50.6572 90.8509 50.179C90.4058 49.696 89.7951 49.4545 89.0185 49.4545C88.4835 49.4545 88.0053 49.5705 87.5839 49.8026C87.1672 50.0346 86.8381 50.3731 86.5967 50.8182C86.3552 51.2633 86.2344 51.803 86.2344 52.4375ZM101.631 59.2273C100.58 59.2273 99.6735 58.9953 98.9112 58.5312C98.1536 58.0625 97.5689 57.4091 97.157 56.571C96.7498 55.7282 96.5462 54.7481 96.5462 53.6307C96.5462 52.5133 96.7498 51.5284 97.157 50.6761C97.5689 49.8191 98.1418 49.1515 98.8757 48.6733C99.6143 48.1903 100.476 47.9489 101.461 47.9489C102.029 47.9489 102.59 48.0436 103.144 48.233C103.698 48.4223 104.202 48.7301 104.657 49.1562C105.112 49.5777 105.474 50.1364 105.744 50.8324C106.013 51.5284 106.148 52.3854 106.148 53.4034V54.1136H97.7393V52.6648H104.444C104.444 52.0492 104.321 51.5 104.075 51.017C103.833 50.5341 103.487 50.1529 103.038 49.8736C102.593 49.5942 102.067 49.4545 101.461 49.4545C100.793 49.4545 100.216 49.6203 99.728 49.9517C99.245 50.2784 98.8733 50.7045 98.6129 51.2301C98.3525 51.7557 98.2223 52.3191 98.2223 52.9205V53.8864C98.2223 54.7102 98.3643 55.4086 98.6484 55.9815C98.9373 56.5497 99.3374 56.983 99.8487 57.2812C100.36 57.5748 100.954 57.7216 101.631 57.7216C102.072 57.7216 102.469 57.66 102.825 57.5369C103.184 57.4091 103.495 57.2197 103.755 56.9688C104.015 56.7131 104.217 56.3958 104.359 56.017L105.978 56.4716C105.808 57.0208 105.521 57.5038 105.119 57.9205C104.716 58.3324 104.219 58.6544 103.627 58.8864C103.035 59.1136 102.37 59.2273 101.631 59.2273ZM117.225 50.5341L115.72 50.9602C115.625 50.7093 115.485 50.4654 115.301 50.2287C115.121 49.9872 114.875 49.7884 114.562 49.6321C114.25 49.4759 113.849 49.3977 113.362 49.3977C112.694 49.3977 112.138 49.5516 111.693 49.8594C111.252 50.1624 111.032 50.5483 111.032 51.017C111.032 51.4337 111.184 51.7628 111.487 52.0043C111.79 52.2457 112.263 52.447 112.907 52.608L114.527 53.0057C115.502 53.2424 116.229 53.6046 116.707 54.0923C117.185 54.5753 117.424 55.1979 117.424 55.9602C117.424 56.5852 117.244 57.1439 116.885 57.6364C116.529 58.1288 116.032 58.517 115.393 58.8011C114.754 59.0852 114.01 59.2273 113.163 59.2273C112.05 59.2273 111.129 58.9858 110.4 58.5028C109.671 58.0199 109.209 57.3144 109.015 56.3864L110.606 55.9886C110.758 56.5758 111.044 57.0161 111.465 57.3097C111.892 57.6032 112.448 57.75 113.135 57.75C113.916 57.75 114.536 57.5843 114.995 57.2528C115.459 56.9167 115.691 56.5142 115.691 56.0455C115.691 55.6667 115.559 55.3494 115.294 55.0938C115.028 54.8333 114.621 54.6392 114.072 54.5114L112.254 54.0852C111.255 53.8485 110.521 53.4815 110.052 52.9844C109.588 52.4825 109.356 51.8551 109.356 51.1023C109.356 50.4867 109.529 49.9422 109.875 49.4688C110.225 48.9953 110.701 48.6236 111.302 48.3537C111.908 48.0838 112.595 47.9489 113.362 47.9489C114.441 47.9489 115.289 48.1856 115.904 48.6591C116.525 49.1326 116.965 49.7576 117.225 50.5341ZM128.475 50.5341L126.969 50.9602C126.874 50.7093 126.735 50.4654 126.55 50.2287C126.37 49.9872 126.124 49.7884 125.811 49.6321C125.499 49.4759 125.099 49.3977 124.611 49.3977C123.943 49.3977 123.387 49.5516 122.942 49.8594C122.502 50.1624 122.281 50.5483 122.281 51.017C122.281 51.4337 122.433 51.7628 122.736 52.0043C123.039 52.2457 123.513 52.447 124.156 52.608L125.776 53.0057C126.751 53.2424 127.478 53.6046 127.956 54.0923C128.434 54.5753 128.674 55.1979 128.674 55.9602C128.674 56.5852 128.494 57.1439 128.134 57.6364C127.779 58.1288 127.281 58.517 126.642 58.8011C126.003 59.0852 125.26 59.2273 124.412 59.2273C123.299 59.2273 122.379 58.9858 121.649 58.5028C120.92 58.0199 120.459 57.3144 120.264 56.3864L121.855 55.9886C122.007 56.5758 122.293 57.0161 122.715 57.3097C123.141 57.6032 123.697 57.75 124.384 57.75C125.165 57.75 125.785 57.5843 126.245 57.2528C126.709 56.9167 126.941 56.5142 126.941 56.0455C126.941 55.6667 126.808 55.3494 126.543 55.0938C126.278 54.8333 125.87 54.6392 125.321 54.5114L123.503 54.0852C122.504 53.8485 121.77 53.4815 121.301 52.9844C120.837 52.4825 120.605 51.8551 120.605 51.1023C120.605 50.4867 120.778 49.9422 121.124 49.4688C121.474 48.9953 121.95 48.6236 122.551 48.3537C123.157 48.0838 123.844 47.9489 124.611 47.9489C125.691 47.9489 126.538 48.1856 127.154 48.6591C127.774 49.1326 128.214 49.7576 128.475 50.5341ZM138.422 59V48.0909H140.041V49.7386H140.155C140.353 49.1989 140.713 48.7609 141.234 48.4247C141.755 48.0885 142.342 47.9205 142.995 47.9205C143.119 47.9205 143.272 47.9228 143.457 47.9276C143.642 47.9323 143.781 47.9394 143.876 47.9489V49.6534C143.819 49.6392 143.689 49.6179 143.486 49.5895C143.287 49.5563 143.076 49.5398 142.853 49.5398C142.323 49.5398 141.85 49.651 141.433 49.8736C141.021 50.0914 140.694 50.3944 140.453 50.7827C140.216 51.1662 140.098 51.6042 140.098 52.0966V59H138.422ZM146.663 59V48.0909H148.339V59H146.663ZM147.515 46.2727C147.189 46.2727 146.907 46.1615 146.67 45.9389C146.438 45.7164 146.322 45.4489 146.322 45.1364C146.322 44.8239 146.438 44.5563 146.67 44.3338C146.907 44.1113 147.189 44 147.515 44C147.842 44 148.121 44.1113 148.353 44.3338C148.59 44.5563 148.708 44.8239 148.708 45.1364C148.708 45.4489 148.59 45.7164 148.353 45.9389C148.121 46.1615 147.842 46.2727 147.515 46.2727ZM159.936 50.5341L158.431 50.9602C158.336 50.7093 158.196 50.4654 158.012 50.2287C157.832 49.9872 157.586 49.7884 157.273 49.6321C156.961 49.4759 156.56 49.3977 156.073 49.3977C155.405 49.3977 154.849 49.5516 154.404 49.8594C153.963 50.1624 153.743 50.5483 153.743 51.017C153.743 51.4337 153.895 51.7628 154.198 52.0043C154.501 52.2457 154.974 52.447 155.618 52.608L157.238 53.0057C158.213 53.2424 158.94 53.6046 159.418 54.0923C159.896 54.5753 160.135 55.1979 160.135 55.9602C160.135 56.5852 159.955 57.1439 159.595 57.6364C159.24 58.1288 158.743 58.517 158.104 58.8011C157.465 59.0852 156.721 59.2273 155.874 59.2273C154.761 59.2273 153.84 58.9858 153.111 58.5028C152.382 58.0199 151.92 57.3144 151.726 56.3864L153.317 55.9886C153.469 56.5758 153.755 57.0161 154.176 57.3097C154.603 57.6032 155.159 57.75 155.845 57.75C156.627 57.75 157.247 57.5843 157.706 57.2528C158.17 56.9167 158.402 56.5142 158.402 56.0455C158.402 55.6667 158.27 55.3494 158.005 55.0938C157.739 54.8333 157.332 54.6392 156.783 54.5114L154.965 54.0852C153.966 53.8485 153.232 53.4815 152.763 52.9844C152.299 52.4825 152.067 51.8551 152.067 51.1023C152.067 50.4867 152.24 49.9422 152.586 49.4688C152.936 48.9953 153.412 48.6236 154.013 48.3537C154.619 48.0838 155.306 47.9489 156.073 47.9489C157.152 47.9489 158 48.1856 158.615 48.6591C159.236 49.1326 159.676 49.7576 159.936 50.5341ZM165.021 55.0227L164.992 52.9489H165.333L170.106 48.0909H172.18L167.095 53.233H166.953L165.021 55.0227ZM163.458 59V44.4545H165.134V59H163.458ZM170.39 59L166.129 53.6023L167.322 52.4375L172.521 59H170.39ZM181.562 59V48.0909H183.182V49.7386H183.295C183.494 49.1989 183.854 48.7609 184.375 48.4247C184.896 48.0885 185.483 47.9205 186.136 47.9205C186.259 47.9205 186.413 47.9228 186.598 47.9276C186.782 47.9323 186.922 47.9394 187.017 47.9489V49.6534C186.96 49.6392 186.83 49.6179 186.626 49.5895C186.427 49.5563 186.217 49.5398 185.994 49.5398C185.464 49.5398 184.99 49.651 184.574 49.8736C184.162 50.0914 183.835 50.3944 183.593 50.7827C183.357 51.1662 183.238 51.6042 183.238 52.0966V59H181.562ZM193.014 59.2557C192.323 59.2557 191.695 59.1255 191.132 58.8651C190.568 58.5999 190.121 58.2188 189.789 57.7216C189.458 57.2197 189.292 56.6136 189.292 55.9034C189.292 55.2784 189.415 54.7718 189.662 54.3835C189.908 53.9905 190.237 53.6828 190.649 53.4602C191.061 53.2377 191.515 53.072 192.012 52.9631C192.514 52.8494 193.019 52.7595 193.525 52.6932C194.188 52.608 194.725 52.544 195.137 52.5014C195.554 52.4541 195.857 52.3759 196.047 52.267C196.241 52.1581 196.338 51.9687 196.338 51.6989V51.642C196.338 50.9413 196.146 50.3968 195.762 50.0085C195.384 49.6203 194.808 49.4261 194.037 49.4261C193.236 49.4261 192.609 49.6013 192.154 49.9517C191.7 50.3021 191.38 50.6761 191.196 51.0739L189.605 50.5057C189.889 49.8428 190.268 49.3267 190.741 48.9574C191.219 48.5833 191.74 48.3229 192.304 48.1761C192.872 48.0246 193.431 47.9489 193.98 47.9489C194.33 47.9489 194.733 47.9915 195.187 48.0767C195.646 48.1572 196.089 48.3253 196.515 48.581C196.946 48.8366 197.304 49.2225 197.588 49.7386C197.872 50.2547 198.014 50.946 198.014 51.8125V59H196.338V57.5227H196.252C196.139 57.7595 195.949 58.0128 195.684 58.2827C195.419 58.5526 195.066 58.7822 194.626 58.9716C194.186 59.161 193.648 59.2557 193.014 59.2557ZM193.27 57.75C193.932 57.75 194.491 57.6198 194.946 57.3594C195.405 57.099 195.751 56.7628 195.983 56.3509C196.219 55.9389 196.338 55.5057 196.338 55.0511V53.517C196.267 53.6023 196.11 53.6804 195.869 53.7514C195.632 53.8177 195.358 53.8769 195.045 53.929C194.737 53.9763 194.437 54.0189 194.143 54.0568C193.854 54.09 193.62 54.1184 193.44 54.142C193.004 54.1989 192.597 54.2912 192.218 54.419C191.844 54.5421 191.541 54.7292 191.309 54.9801C191.082 55.2263 190.968 55.5625 190.968 55.9886C190.968 56.571 191.184 57.0114 191.615 57.3097C192.05 57.6032 192.602 57.75 193.27 57.75ZM206.617 48.0909V49.5114H200.964V48.0909H206.617ZM202.612 45.4773H204.288V55.875C204.288 56.3485 204.357 56.7036 204.494 56.9403C204.636 57.1723 204.816 57.3286 205.034 57.4091C205.256 57.4848 205.491 57.5227 205.737 57.5227C205.921 57.5227 206.073 57.5133 206.191 57.4943C206.31 57.4706 206.404 57.4517 206.475 57.4375L206.816 58.9432C206.703 58.9858 206.544 59.0284 206.34 59.071C206.137 59.1184 205.879 59.142 205.566 59.142C205.093 59.142 204.629 59.0402 204.174 58.8366C203.724 58.633 203.35 58.3229 203.052 57.9062C202.759 57.4896 202.612 56.964 202.612 56.3295V45.4773ZM209.939 59V48.0909H211.615V59H209.939ZM210.791 46.2727C210.464 46.2727 210.183 46.1615 209.946 45.9389C209.714 45.7164 209.598 45.4489 209.598 45.1364C209.598 44.8239 209.714 44.5563 209.946 44.3338C210.183 44.1113 210.464 44 210.791 44C211.118 44 211.397 44.1113 211.629 44.3338C211.866 44.5563 211.984 44.8239 211.984 45.1364C211.984 45.4489 211.866 45.7164 211.629 45.9389C211.397 46.1615 211.118 46.2727 210.791 46.2727ZM217.161 52.4375V59H215.485V48.0909H217.104V49.7955H217.246C217.502 49.2415 217.89 48.7964 218.411 48.4602C218.932 48.1193 219.604 47.9489 220.428 47.9489C221.167 47.9489 221.813 48.1004 222.367 48.4034C222.921 48.7017 223.352 49.1562 223.66 49.767C223.967 50.3731 224.121 51.1402 224.121 52.0682V59H222.445V52.1818C222.445 51.3248 222.223 50.6572 221.777 50.179C221.332 49.696 220.722 49.4545 219.945 49.4545C219.41 49.4545 218.932 49.5705 218.51 49.8026C218.094 50.0346 217.765 50.3731 217.523 50.8182C217.282 51.2633 217.161 51.803 217.161 52.4375ZM232.387 63.3182C231.578 63.3182 230.882 63.214 230.299 63.0057C229.717 62.8021 229.232 62.5322 228.843 62.196C228.46 61.8646 228.155 61.5095 227.927 61.1307L229.262 60.1932C229.414 60.392 229.606 60.6193 229.838 60.875C230.07 61.1354 230.387 61.3603 230.789 61.5497C231.197 61.7438 231.729 61.8409 232.387 61.8409C233.268 61.8409 233.995 61.6278 234.568 61.2017C235.141 60.7756 235.427 60.108 235.427 59.1989V56.983H235.285C235.162 57.1818 234.987 57.428 234.76 57.7216C234.537 58.0104 234.215 58.2685 233.794 58.4957C233.377 58.7183 232.814 58.8295 232.103 58.8295C231.223 58.8295 230.432 58.6212 229.731 58.2045C229.035 57.7879 228.484 57.1818 228.076 56.3864C227.674 55.5909 227.473 54.625 227.473 53.4886C227.473 52.3712 227.669 51.3982 228.062 50.5696C228.455 49.7363 229.002 49.0923 229.703 48.6378C230.404 48.1785 231.213 47.9489 232.132 47.9489C232.842 47.9489 233.405 48.0672 233.822 48.304C234.244 48.536 234.566 48.8011 234.788 49.0994C235.015 49.393 235.191 49.6345 235.314 49.8239H235.484V48.0909H237.103V59.3125C237.103 60.25 236.89 61.0123 236.464 61.5994C236.043 62.1913 235.475 62.6245 234.76 62.8991C234.049 63.1785 233.259 63.3182 232.387 63.3182ZM232.331 57.3239C233.003 57.3239 233.571 57.17 234.035 56.8622C234.499 56.5545 234.852 56.1117 235.093 55.5341C235.335 54.9564 235.456 54.2652 235.456 53.4602C235.456 52.6742 235.337 51.9806 235.101 51.3793C234.864 50.7779 234.513 50.3068 234.049 49.9659C233.585 49.625 233.012 49.4545 232.331 49.4545C231.62 49.4545 231.029 49.6345 230.555 49.9943C230.086 50.3542 229.734 50.8371 229.497 51.4432C229.265 52.0492 229.149 52.7216 229.149 53.4602C229.149 54.2178 229.267 54.8878 229.504 55.4702C229.745 56.0478 230.101 56.5024 230.569 56.8338C231.043 57.1605 231.63 57.3239 232.331 57.3239ZM248.699 50.5341L247.193 50.9602C247.098 50.7093 246.959 50.4654 246.774 50.2287C246.594 49.9872 246.348 49.7884 246.036 49.6321C245.723 49.4759 245.323 49.3977 244.835 49.3977C244.168 49.3977 243.611 49.5516 243.166 49.8594C242.726 50.1624 242.506 50.5483 242.506 51.017C242.506 51.4337 242.657 51.7628 242.96 52.0043C243.263 52.2457 243.737 52.447 244.381 52.608L246 53.0057C246.975 53.2424 247.702 53.6046 248.18 54.0923C248.659 54.5753 248.898 55.1979 248.898 55.9602C248.898 56.5852 248.718 57.1439 248.358 57.6364C248.003 58.1288 247.506 58.517 246.866 58.8011C246.227 59.0852 245.484 59.2273 244.636 59.2273C243.524 59.2273 242.603 58.9858 241.874 58.5028C241.144 58.0199 240.683 57.3144 240.489 56.3864L242.08 55.9886C242.231 56.5758 242.518 57.0161 242.939 57.3097C243.365 57.6032 243.921 57.75 244.608 57.75C245.389 57.75 246.009 57.5843 246.469 57.2528C246.933 56.9167 247.165 56.5142 247.165 56.0455C247.165 55.6667 247.032 55.3494 246.767 55.0938C246.502 54.8333 246.095 54.6392 245.545 54.5114L243.727 54.0852C242.728 53.8485 241.994 53.4815 241.526 52.9844C241.062 52.4825 240.83 51.8551 240.83 51.1023C240.83 50.4867 241.002 49.9422 241.348 49.4688C241.698 48.9953 242.174 48.6236 242.776 48.3537C243.382 48.0838 244.068 47.9489 244.835 47.9489C245.915 47.9489 246.762 48.1856 247.378 48.6591C247.998 49.1326 248.438 49.7576 248.699 50.5341ZM263.078 59.2273C262.093 59.2273 261.229 58.9929 260.485 58.5241C259.747 58.0554 259.169 57.3996 258.752 56.5568C258.34 55.714 258.134 54.7292 258.134 53.6023C258.134 52.4659 258.34 51.474 258.752 50.6264C259.169 49.7789 259.747 49.1207 260.485 48.652C261.229 48.1832 262.093 47.9489 263.078 47.9489C264.062 47.9489 264.924 48.1832 265.663 48.652C266.406 49.1207 266.984 49.7789 267.396 50.6264C267.812 51.474 268.021 52.4659 268.021 53.6023C268.021 54.7292 267.812 55.714 267.396 56.5568C266.984 57.3996 266.406 58.0554 265.663 58.5241C264.924 58.9929 264.062 59.2273 263.078 59.2273ZM263.078 57.7216C263.826 57.7216 264.441 57.5298 264.924 57.1463C265.407 56.7628 265.765 56.2585 265.997 55.6335C266.229 55.0085 266.345 54.3314 266.345 53.6023C266.345 52.8731 266.229 52.1937 265.997 51.5639C265.765 50.9342 265.407 50.4252 264.924 50.0369C264.441 49.6487 263.826 49.4545 263.078 49.4545C262.33 49.4545 261.714 49.6487 261.231 50.0369C260.748 50.4252 260.391 50.9342 260.159 51.5639C259.927 52.1937 259.811 52.8731 259.811 53.6023C259.811 54.3314 259.927 55.0085 260.159 55.6335C260.391 56.2585 260.748 56.7628 261.231 57.1463C261.714 57.5298 262.33 57.7216 263.078 57.7216ZM279.909 48.0909L275.875 59H274.171L270.136 48.0909H271.955L274.966 56.7841H275.08L278.091 48.0909H279.909ZM287.105 59.2273C286.054 59.2273 285.147 58.9953 284.385 58.5312C283.627 58.0625 283.042 57.4091 282.63 56.571C282.223 55.7282 282.02 54.7481 282.02 53.6307C282.02 52.5133 282.223 51.5284 282.63 50.6761C283.042 49.8191 283.615 49.1515 284.349 48.6733C285.088 48.1903 285.95 47.9489 286.934 47.9489C287.503 47.9489 288.064 48.0436 288.618 48.233C289.172 48.4223 289.676 48.7301 290.13 49.1562C290.585 49.5777 290.947 50.1364 291.217 50.8324C291.487 51.5284 291.622 52.3854 291.622 53.4034V54.1136H283.213V52.6648H289.917C289.917 52.0492 289.794 51.5 289.548 51.017C289.307 50.5341 288.961 50.1529 288.511 49.8736C288.066 49.5942 287.54 49.4545 286.934 49.4545C286.267 49.4545 285.689 49.6203 285.201 49.9517C284.718 50.2784 284.347 50.7045 284.086 51.2301C283.826 51.7557 283.696 52.3191 283.696 52.9205V53.8864C283.696 54.7102 283.838 55.4086 284.122 55.9815C284.411 56.5497 284.811 56.983 285.322 57.2812C285.834 57.5748 286.428 57.7216 287.105 57.7216C287.545 57.7216 287.943 57.66 288.298 57.5369C288.658 57.4091 288.968 57.2197 289.228 56.9688C289.489 56.7131 289.69 56.3958 289.832 56.017L291.451 56.4716C291.281 57.0208 290.995 57.5038 290.592 57.9205C290.19 58.3324 289.692 58.6544 289.101 58.8864C288.509 59.1136 287.843 59.2273 287.105 59.2273ZM294.972 59V48.0909H296.591V49.7386H296.705C296.903 49.1989 297.263 48.7609 297.784 48.4247C298.305 48.0885 298.892 47.9205 299.545 47.9205C299.669 47.9205 299.822 47.9228 300.007 47.9276C300.192 47.9323 300.331 47.9394 300.426 47.9489V49.6534C300.369 49.6392 300.239 49.6179 300.036 49.5895C299.837 49.5563 299.626 49.5398 299.403 49.5398C298.873 49.5398 298.4 49.651 297.983 49.8736C297.571 50.0914 297.244 50.3944 297.003 50.7827C296.766 51.1662 296.648 51.6042 296.648 52.0966V59H294.972ZM314.382 48.0909V49.5114H308.729V48.0909H314.382ZM310.377 45.4773H312.053V55.875C312.053 56.3485 312.121 56.7036 312.259 56.9403C312.401 57.1723 312.581 57.3286 312.799 57.4091C313.021 57.4848 313.255 57.5227 313.502 57.5227C313.686 57.5227 313.838 57.5133 313.956 57.4943C314.075 57.4706 314.169 57.4517 314.24 57.4375L314.581 58.9432C314.468 58.9858 314.309 59.0284 314.105 59.071C313.902 59.1184 313.644 59.142 313.331 59.142C312.858 59.142 312.394 59.0402 311.939 58.8366C311.489 58.633 311.115 58.3229 310.817 57.9062C310.523 57.4896 310.377 56.964 310.377 56.3295V45.4773ZM317.704 59V48.0909H319.38V59H317.704ZM318.556 46.2727C318.229 46.2727 317.947 46.1615 317.711 45.9389C317.479 45.7164 317.363 45.4489 317.363 45.1364C317.363 44.8239 317.479 44.5563 317.711 44.3338C317.947 44.1113 318.229 44 318.556 44C318.883 44 319.162 44.1113 319.394 44.3338C319.631 44.5563 319.749 44.8239 319.749 45.1364C319.749 45.4489 319.631 45.7164 319.394 45.9389C319.162 46.1615 318.883 46.2727 318.556 46.2727ZM323.25 59V48.0909H324.869V49.7955H325.011C325.238 49.2131 325.605 48.7609 326.112 48.4389C326.619 48.1122 327.227 47.9489 327.937 47.9489C328.657 47.9489 329.256 48.1122 329.734 48.4389C330.217 48.7609 330.593 49.2131 330.863 49.7955H330.977C331.256 49.232 331.675 48.7846 332.234 48.4531C332.793 48.117 333.463 47.9489 334.244 47.9489C335.219 47.9489 336.017 48.2543 336.638 48.8651C337.258 49.4711 337.568 50.4157 337.568 51.6989V59H335.892V51.6989C335.892 50.8939 335.672 50.3187 335.231 49.973C334.791 49.6274 334.272 49.4545 333.676 49.4545C332.909 49.4545 332.315 49.6866 331.893 50.1506C331.472 50.6098 331.261 51.1922 331.261 51.8977V59H329.557V51.5284C329.557 50.9081 329.355 50.4086 328.953 50.0298C328.55 49.6463 328.032 49.4545 327.397 49.4545C326.962 49.4545 326.555 49.5705 326.176 49.8026C325.802 50.0346 325.499 50.3565 325.267 50.7685C325.04 51.1757 324.926 51.6468 324.926 52.1818V59H323.25ZM346.006 59.2273C344.955 59.2273 344.049 58.9953 343.286 58.5312C342.529 58.0625 341.944 57.4091 341.532 56.571C341.125 55.7282 340.921 54.7481 340.921 53.6307C340.921 52.5133 341.125 51.5284 341.532 50.6761C341.944 49.8191 342.517 49.1515 343.251 48.6733C343.989 48.1903 344.851 47.9489 345.836 47.9489C346.404 47.9489 346.965 48.0436 347.519 48.233C348.073 48.4223 348.577 48.7301 349.032 49.1562C349.487 49.5777 349.849 50.1364 350.119 50.8324C350.388 51.5284 350.523 52.3854 350.523 53.4034V54.1136H342.114V52.6648H348.819C348.819 52.0492 348.696 51.5 348.45 51.017C348.208 50.5341 347.862 50.1529 347.413 49.8736C346.968 49.5942 346.442 49.4545 345.836 49.4545C345.168 49.4545 344.591 49.6203 344.103 49.9517C343.62 50.2784 343.248 50.7045 342.988 51.2301C342.728 51.7557 342.597 52.3191 342.597 52.9205V53.8864C342.597 54.7102 342.739 55.4086 343.023 55.9815C343.312 56.5497 343.712 56.983 344.224 57.2812C344.735 57.5748 345.329 57.7216 346.006 57.7216C346.447 57.7216 346.844 57.66 347.2 57.5369C347.559 57.4091 347.87 57.2197 348.13 56.9688C348.39 56.7131 348.592 56.3958 348.734 56.017L350.353 56.4716C350.183 57.0208 349.896 57.5038 349.494 57.9205C349.091 58.3324 348.594 58.6544 348.002 58.8864C347.41 59.1136 346.745 59.2273 346.006 59.2273Z" fill="black"/>
<path d="M408.799 155V147.727H409.896V150.888H413.522V147.727H414.623V155H413.522V151.829H409.896V155H408.799ZM416.136 155V149.545H417.197V155H416.136ZM416.672 148.704C416.487 148.704 416.329 148.642 416.196 148.519C416.066 148.394 416.001 148.245 416.001 148.072C416.001 147.897 416.066 147.747 416.196 147.624C416.329 147.499 416.487 147.436 416.672 147.436C416.857 147.436 417.014 147.499 417.144 147.624C417.277 147.747 417.343 147.897 417.343 148.072C417.343 148.245 417.277 148.394 417.144 148.519C417.014 148.642 416.857 148.704 416.672 148.704ZM420.913 157.159C420.48 157.159 420.107 157.102 419.794 156.989C419.484 156.875 419.231 156.725 419.034 156.538C418.838 156.351 418.691 156.146 418.594 155.923L419.507 155.547C419.57 155.651 419.656 155.761 419.762 155.877C419.871 155.996 420.018 156.096 420.203 156.179C420.39 156.262 420.63 156.303 420.923 156.303C421.326 156.303 421.659 156.205 421.921 156.009C422.184 155.814 422.316 155.504 422.316 155.078V154.006H422.248C422.184 154.122 422.092 154.251 421.971 154.393C421.853 154.535 421.689 154.658 421.481 154.762C421.273 154.866 421.002 154.918 420.668 154.918C420.237 154.918 419.849 154.818 419.503 154.616C419.16 154.413 418.887 154.113 418.686 153.718C418.487 153.32 418.388 152.831 418.388 152.251C418.388 151.671 418.486 151.174 418.683 150.76C418.882 150.346 419.154 150.028 419.499 149.808C419.845 149.586 420.237 149.474 420.675 149.474C421.013 149.474 421.287 149.531 421.495 149.645C421.704 149.756 421.866 149.886 421.982 150.036C422.1 150.185 422.191 150.316 422.255 150.43H422.333V149.545H423.374V155.121C423.374 155.589 423.265 155.974 423.047 156.275C422.829 156.576 422.535 156.798 422.163 156.942C421.794 157.087 421.377 157.159 420.913 157.159ZM420.902 154.038C421.208 154.038 421.466 153.967 421.676 153.825C421.889 153.68 422.05 153.474 422.159 153.207C422.271 152.937 422.326 152.614 422.326 152.237C422.326 151.87 422.272 151.547 422.163 151.268C422.054 150.988 421.894 150.771 421.683 150.614C421.473 150.456 421.212 150.376 420.902 150.376C420.583 150.376 420.316 150.459 420.103 150.625C419.89 150.788 419.729 151.011 419.62 151.293C419.514 151.574 419.46 151.889 419.46 152.237C419.46 152.595 419.515 152.908 419.624 153.178C419.733 153.448 419.894 153.659 420.107 153.81C420.322 153.962 420.587 154.038 420.902 154.038ZM425.86 151.761V155H424.798V147.727H425.845V150.433H425.913C426.041 150.14 426.236 149.906 426.499 149.734C426.762 149.561 427.105 149.474 427.529 149.474C427.903 149.474 428.229 149.551 428.509 149.705C428.79 149.859 429.008 150.089 429.162 150.394C429.318 150.697 429.396 151.076 429.396 151.531V155H428.335V151.658C428.335 151.258 428.232 150.948 428.026 150.728C427.82 150.505 427.533 150.394 427.166 150.394C426.915 150.394 426.691 150.447 426.492 150.554C426.295 150.661 426.14 150.817 426.026 151.023C425.915 151.226 425.86 151.473 425.86 151.761ZM433.545 155V147.727H436.137C436.701 147.727 437.168 147.824 437.54 148.018C437.914 148.213 438.194 148.481 438.378 148.825C438.563 149.165 438.655 149.56 438.655 150.007C438.655 150.452 438.562 150.844 438.375 151.183C438.19 151.519 437.911 151.78 437.537 151.967C437.165 152.154 436.697 152.248 436.134 152.248H434.17V151.303H436.034C436.39 151.303 436.678 151.252 436.901 151.151C437.126 151.049 437.29 150.901 437.395 150.707C437.499 150.513 437.551 150.279 437.551 150.007C437.551 149.732 437.498 149.495 437.391 149.293C437.287 149.092 437.122 148.938 436.897 148.832C436.675 148.723 436.382 148.668 436.02 148.668H434.642V155H433.545ZM437.135 151.719L438.932 155H437.682L435.921 151.719H437.135ZM439.905 155V149.545H440.967V155H439.905ZM440.441 148.704C440.257 148.704 440.098 148.642 439.966 148.519C439.835 148.394 439.77 148.245 439.77 148.072C439.77 147.897 439.835 147.747 439.966 147.624C440.098 147.499 440.257 147.436 440.441 147.436C440.626 147.436 440.783 147.499 440.914 147.624C441.046 147.747 441.113 147.897 441.113 148.072C441.113 148.245 441.046 148.394 440.914 148.519C440.783 148.642 440.626 148.704 440.441 148.704ZM446.483 150.877L445.52 151.048C445.48 150.924 445.416 150.807 445.329 150.696C445.243 150.585 445.127 150.494 444.981 150.423C444.834 150.352 444.65 150.316 444.43 150.316C444.13 150.316 443.879 150.384 443.677 150.518C443.476 150.651 443.376 150.823 443.376 151.033C443.376 151.216 443.443 151.362 443.578 151.474C443.713 151.585 443.931 151.676 444.231 151.747L445.098 151.946C445.6 152.062 445.974 152.241 446.22 152.482C446.466 152.724 446.589 153.037 446.589 153.423C446.589 153.75 446.495 154.041 446.305 154.297C446.118 154.55 445.857 154.749 445.52 154.893C445.187 155.038 444.8 155.11 444.359 155.11C443.748 155.11 443.25 154.98 442.864 154.719C442.478 154.457 442.242 154.084 442.154 153.601L443.18 153.445C443.244 153.712 443.376 153.915 443.574 154.052C443.773 154.187 444.032 154.254 444.352 154.254C444.7 154.254 444.978 154.182 445.187 154.038C445.395 153.891 445.499 153.712 445.499 153.501C445.499 153.331 445.435 153.188 445.307 153.072C445.182 152.956 444.989 152.868 444.729 152.809L443.805 152.607C443.296 152.491 442.92 152.306 442.676 152.053C442.434 151.799 442.314 151.478 442.314 151.09C442.314 150.768 442.404 150.487 442.584 150.245C442.764 150.004 443.012 149.815 443.329 149.68C443.647 149.543 444.01 149.474 444.42 149.474C445.009 149.474 445.473 149.602 445.812 149.858C446.15 150.111 446.374 150.451 446.483 150.877ZM448.733 153.15L448.726 151.854H448.911L451.084 149.545H452.355L449.877 152.173H449.71L448.733 153.15ZM447.757 155V147.727H448.819V155H447.757ZM451.201 155L449.248 152.408L449.98 151.665L452.505 155H451.201Z" fill="black"/>
<path d="M408.799 179.727H410.131L412.446 185.381H412.531L414.847 179.727H416.178V187H415.134V181.737H415.067L412.922 186.989H412.055L409.911 181.734H409.843V187H408.799V179.727ZM420.039 187.11C419.502 187.11 419.039 186.995 418.651 186.766C418.265 186.534 417.967 186.208 417.756 185.789C417.548 185.368 417.443 184.874 417.443 184.308C417.443 183.75 417.548 183.257 417.756 182.831C417.967 182.405 418.26 182.072 418.637 181.833C419.015 181.594 419.458 181.474 419.965 181.474C420.272 181.474 420.571 181.525 420.86 181.627C421.148 181.729 421.408 181.889 421.637 182.107C421.867 182.324 422.048 182.607 422.181 182.955C422.313 183.301 422.379 183.721 422.379 184.216V184.592H418.044V183.797H421.339C421.339 183.518 421.282 183.27 421.169 183.055C421.055 182.837 420.895 182.665 420.689 182.54C420.485 182.414 420.246 182.352 419.972 182.352C419.673 182.352 419.413 182.425 419.191 182.572C418.97 182.716 418.8 182.906 418.679 183.14C418.561 183.372 418.502 183.624 418.502 183.896V184.518C418.502 184.882 418.566 185.192 418.693 185.448C418.824 185.704 419.005 185.899 419.237 186.034C419.469 186.167 419.74 186.233 420.05 186.233C420.251 186.233 420.435 186.205 420.6 186.148C420.766 186.089 420.909 186.001 421.03 185.885C421.151 185.769 421.243 185.626 421.307 185.455L422.312 185.636C422.231 185.932 422.087 186.192 421.879 186.414C421.673 186.634 421.414 186.806 421.101 186.929C420.791 187.05 420.437 187.11 420.039 187.11ZM425.599 187.107C425.159 187.107 424.766 186.994 424.42 186.769C424.077 186.542 423.807 186.219 423.611 185.8C423.417 185.378 423.32 184.873 423.32 184.283C423.32 183.694 423.418 183.19 423.614 182.771C423.813 182.352 424.085 182.031 424.431 181.808C424.777 181.586 425.169 181.474 425.607 181.474C425.945 181.474 426.217 181.531 426.423 181.645C426.632 181.756 426.793 181.886 426.906 182.036C427.022 182.185 427.112 182.316 427.176 182.43H427.24V179.727H428.302V187H427.265V186.151H427.176C427.112 186.267 427.02 186.4 426.899 186.549C426.781 186.698 426.617 186.828 426.409 186.94C426.201 187.051 425.931 187.107 425.599 187.107ZM425.834 186.201C426.139 186.201 426.397 186.121 426.608 185.96C426.821 185.796 426.982 185.57 427.091 185.281C427.202 184.992 427.258 184.656 427.258 184.273C427.258 183.894 427.203 183.562 427.094 183.278C426.986 182.994 426.826 182.773 426.615 182.614C426.404 182.456 426.144 182.376 425.834 182.376C425.514 182.376 425.248 182.459 425.035 182.625C424.822 182.791 424.661 183.017 424.552 183.303C424.445 183.59 424.392 183.913 424.392 184.273C424.392 184.637 424.446 184.965 424.555 185.256C424.664 185.548 424.825 185.778 425.038 185.949C425.254 186.117 425.519 186.201 425.834 186.201ZM429.817 187V181.545H430.879V187H429.817ZM430.354 180.704C430.169 180.704 430.01 180.642 429.878 180.519C429.747 180.394 429.682 180.245 429.682 180.072C429.682 179.897 429.747 179.747 429.878 179.624C430.01 179.499 430.169 179.436 430.354 179.436C430.538 179.436 430.696 179.499 430.826 179.624C430.958 179.747 431.025 179.897 431.025 180.072C431.025 180.245 430.958 180.394 430.826 180.519C430.696 180.642 430.538 180.704 430.354 180.704ZM435.763 184.738V181.545H436.828V187H435.784V186.055H435.727C435.602 186.347 435.401 186.589 435.124 186.783C434.849 186.975 434.507 187.071 434.097 187.071C433.747 187.071 433.437 186.994 433.167 186.84C432.899 186.684 432.689 186.453 432.535 186.148C432.383 185.842 432.308 185.465 432.308 185.015V181.545H433.369V184.887C433.369 185.259 433.472 185.555 433.678 185.775C433.884 185.995 434.152 186.105 434.481 186.105C434.68 186.105 434.877 186.055 435.074 185.956C435.273 185.857 435.437 185.706 435.567 185.505C435.7 185.304 435.765 185.048 435.763 184.738ZM438.255 187V181.545H439.274V182.433H439.341C439.455 182.133 439.641 181.898 439.899 181.73C440.157 181.56 440.466 181.474 440.826 181.474C441.19 181.474 441.496 181.56 441.742 181.73C441.991 181.901 442.174 182.135 442.292 182.433H442.349C442.479 182.142 442.687 181.91 442.971 181.737C443.255 181.562 443.593 181.474 443.986 181.474C444.481 181.474 444.885 181.629 445.197 181.94C445.512 182.25 445.67 182.717 445.67 183.342V187H444.608V183.442C444.608 183.072 444.507 182.805 444.306 182.639C444.105 182.473 443.864 182.391 443.585 182.391C443.239 182.391 442.971 182.497 442.779 182.71C442.587 182.921 442.491 183.192 442.491 183.523V187H441.433V183.374C441.433 183.078 441.341 182.84 441.156 182.661C440.971 182.481 440.731 182.391 440.435 182.391C440.234 182.391 440.048 182.444 439.878 182.55C439.71 182.655 439.573 182.8 439.469 182.987C439.367 183.174 439.317 183.391 439.317 183.637V187H438.255ZM449.824 187V179.727H452.417C452.98 179.727 453.448 179.824 453.819 180.018C454.193 180.213 454.473 180.481 454.657 180.825C454.842 181.165 454.934 181.56 454.934 182.007C454.934 182.452 454.841 182.844 454.654 183.183C454.469 183.519 454.19 183.78 453.816 183.967C453.444 184.154 452.977 184.248 452.413 184.248H450.449V183.303H452.314C452.669 183.303 452.958 183.252 453.18 183.151C453.405 183.049 453.57 182.901 453.674 182.707C453.778 182.513 453.83 182.279 453.83 182.007C453.83 181.732 453.777 181.495 453.67 181.293C453.566 181.092 453.402 180.938 453.177 180.832C452.954 180.723 452.662 180.668 452.3 180.668H450.922V187H449.824ZM453.415 183.719L455.211 187H453.961L452.2 183.719H453.415ZM456.184 187V181.545H457.246V187H456.184ZM456.721 180.704C456.536 180.704 456.377 180.642 456.245 180.519C456.115 180.394 456.05 180.245 456.05 180.072C456.05 179.897 456.115 179.747 456.245 179.624C456.377 179.499 456.536 179.436 456.721 179.436C456.905 179.436 457.063 179.499 457.193 179.624C457.326 179.747 457.392 179.897 457.392 180.072C457.392 180.245 457.326 180.394 457.193 180.519C457.063 180.642 456.905 180.704 456.721 180.704ZM462.762 182.877L461.8 183.048C461.759 182.924 461.696 182.807 461.608 182.696C461.523 182.585 461.407 182.494 461.26 182.423C461.113 182.352 460.93 182.316 460.71 182.316C460.409 182.316 460.158 182.384 459.957 182.518C459.755 182.651 459.655 182.823 459.655 183.033C459.655 183.216 459.722 183.362 459.857 183.474C459.992 183.585 460.21 183.676 460.511 183.747L461.377 183.946C461.879 184.062 462.253 184.241 462.499 184.482C462.746 184.724 462.869 185.037 462.869 185.423C462.869 185.75 462.774 186.041 462.585 186.297C462.397 186.55 462.136 186.749 461.8 186.893C461.466 187.038 461.079 187.11 460.638 187.11C460.028 187.11 459.529 186.98 459.143 186.719C458.758 186.457 458.521 186.084 458.433 185.601L459.46 185.445C459.523 185.712 459.655 185.915 459.854 186.052C460.053 186.187 460.312 186.254 460.631 186.254C460.979 186.254 461.258 186.182 461.466 186.038C461.674 185.891 461.778 185.712 461.778 185.501C461.778 185.331 461.714 185.188 461.587 185.072C461.461 184.956 461.268 184.868 461.008 184.809L460.085 184.607C459.576 184.491 459.199 184.306 458.955 184.053C458.714 183.799 458.593 183.478 458.593 183.09C458.593 182.768 458.683 182.487 458.863 182.245C459.043 182.004 459.291 181.815 459.609 181.68C459.926 181.543 460.289 181.474 460.699 181.474C461.288 181.474 461.752 181.602 462.091 181.858C462.429 182.111 462.653 182.451 462.762 182.877ZM465.013 185.15L465.006 183.854H465.19L467.363 181.545H468.635L466.156 184.173H465.989L465.013 185.15ZM464.036 187V179.727H465.098V187H464.036ZM467.481 187L465.528 184.408L466.259 183.665L468.784 187H467.481Z" fill="black"/>
<path d="M408.799 218V210.727H409.896V217.055H413.192V218H408.799ZM416.656 218.11C416.145 218.11 415.698 217.993 415.317 217.759C414.936 217.524 414.64 217.196 414.429 216.775C414.219 216.353 414.113 215.861 414.113 215.298C414.113 214.732 414.219 214.237 414.429 213.813C414.64 213.389 414.936 213.06 415.317 212.826C415.698 212.592 416.145 212.474 416.656 212.474C417.167 212.474 417.614 212.592 417.995 212.826C418.376 213.06 418.672 213.389 418.882 213.813C419.093 214.237 419.199 214.732 419.199 215.298C419.199 215.861 419.093 216.353 418.882 216.775C418.672 217.196 418.376 217.524 417.995 217.759C417.614 217.993 417.167 218.11 416.656 218.11ZM416.659 217.219C416.991 217.219 417.266 217.131 417.483 216.956C417.701 216.781 417.862 216.548 417.966 216.256C418.073 215.965 418.126 215.644 418.126 215.294C418.126 214.946 418.073 214.626 417.966 214.335C417.862 214.042 417.701 213.806 417.483 213.629C417.266 213.451 416.991 213.362 416.659 213.362C416.326 213.362 416.049 213.451 415.828 213.629C415.611 213.806 415.449 214.042 415.342 214.335C415.238 214.626 415.186 214.946 415.186 215.294C415.186 215.644 415.238 215.965 415.342 216.256C415.449 216.548 415.611 216.781 415.828 216.956C416.049 217.131 416.326 217.219 416.659 217.219ZM421.4 218L419.795 212.545H420.892L421.961 216.551H422.015L423.087 212.545H424.184L425.25 216.533H425.303L426.365 212.545H427.462L425.86 218H424.777L423.669 214.062H423.588L422.48 218H421.4ZM431.201 218V210.727H433.794C434.357 210.727 434.825 210.824 435.196 211.018C435.57 211.213 435.85 211.481 436.034 211.825C436.219 212.165 436.311 212.56 436.311 213.007C436.311 213.452 436.218 213.844 436.031 214.183C435.846 214.519 435.567 214.78 435.193 214.967C434.821 215.154 434.354 215.248 433.79 215.248H431.826V214.303H433.691C434.046 214.303 434.335 214.252 434.557 214.151C434.782 214.049 434.947 213.901 435.051 213.707C435.155 213.513 435.207 213.279 435.207 213.007C435.207 212.732 435.154 212.495 435.047 212.293C434.943 212.092 434.779 211.938 434.554 211.832C434.331 211.723 434.039 211.668 433.676 211.668H432.299V218H431.201ZM434.792 214.719L436.588 218H435.338L433.577 214.719H434.792ZM437.561 218V212.545H438.623V218H437.561ZM438.098 211.704C437.913 211.704 437.754 211.642 437.622 211.519C437.492 211.394 437.426 211.245 437.426 211.072C437.426 210.897 437.492 210.747 437.622 210.624C437.754 210.499 437.913 210.436 438.098 210.436C438.282 210.436 438.44 210.499 438.57 210.624C438.703 210.747 438.769 210.897 438.769 211.072C438.769 211.245 438.703 211.394 438.57 211.519C438.44 211.642 438.282 211.704 438.098 211.704ZM444.139 213.877L443.177 214.048C443.136 213.924 443.073 213.807 442.985 213.696C442.9 213.585 442.784 213.494 442.637 213.423C442.49 213.352 442.307 213.316 442.086 213.316C441.786 213.316 441.535 213.384 441.334 213.518C441.132 213.651 441.032 213.823 441.032 214.033C441.032 214.216 441.099 214.362 441.234 214.474C441.369 214.585 441.587 214.676 441.888 214.747L442.754 214.946C443.256 215.062 443.63 215.241 443.876 215.482C444.122 215.724 444.246 216.037 444.246 216.423C444.246 216.75 444.151 217.041 443.961 217.297C443.774 217.55 443.513 217.749 443.177 217.893C442.843 218.038 442.456 218.11 442.015 218.11C441.405 218.11 440.906 217.98 440.52 217.719C440.135 217.457 439.898 217.084 439.81 216.601L440.836 216.445C440.9 216.712 441.032 216.915 441.231 217.052C441.43 217.187 441.689 217.254 442.008 217.254C442.356 217.254 442.635 217.182 442.843 217.038C443.051 216.891 443.155 216.712 443.155 216.501C443.155 216.331 443.091 216.188 442.964 216.072C442.838 215.956 442.645 215.868 442.385 215.809L441.461 215.607C440.952 215.491 440.576 215.306 440.332 215.053C440.091 214.799 439.97 214.478 439.97 214.09C439.97 213.768 440.06 213.487 440.24 213.245C440.42 213.004 440.668 212.815 440.986 212.68C441.303 212.543 441.666 212.474 442.076 212.474C442.665 212.474 443.129 212.602 443.468 212.858C443.806 213.111 444.03 213.451 444.139 213.877ZM446.39 216.15L446.382 214.854H446.567L448.74 212.545H450.012L447.533 215.173H447.366L446.39 216.15ZM445.413 218V210.727H446.475V218H445.413ZM448.858 218L446.904 215.408L447.636 214.665L450.161 218H448.858Z" fill="black"/>
<path d="M71.2093 190.205L70.8509 182.941L73.6316 182.804C74.1565 182.778 74.5969 182.84 74.9526 182.988C75.3106 183.134 75.5829 183.344 75.7695 183.62C75.9585 183.895 76.0619 184.212 76.0796 184.571C76.0942 184.867 76.0499 185.123 75.9468 185.339C75.8436 185.553 75.6994 185.729 75.5143 185.869C75.3292 186.008 75.1198 186.112 74.8862 186.18L74.8897 186.251C75.1481 186.253 75.3991 186.32 75.6427 186.452C75.8885 186.583 76.0935 186.774 76.2576 187.027C76.4218 187.279 76.513 187.59 76.5312 187.959C76.5497 188.335 76.4754 188.677 76.3081 188.987C76.1408 189.294 75.8781 189.542 75.5201 189.733C75.1621 189.924 74.7053 190.033 74.1496 190.06L71.2093 190.205ZM72.4709 189.041L73.8861 188.971C74.3637 188.948 74.7033 188.839 74.9048 188.647C75.1085 188.452 75.2032 188.21 75.189 187.922C75.1784 187.707 75.1156 187.515 75.0007 187.348C74.8856 187.178 74.7275 187.049 74.5264 186.959C74.3251 186.867 74.0885 186.828 73.8166 186.841L72.3659 186.913L72.4709 189.041ZM72.3192 185.966L73.6209 185.902C73.8479 185.89 74.0504 185.839 74.2283 185.747C74.4062 185.653 74.5434 185.527 74.6398 185.368C74.7385 185.206 74.7826 185.019 74.7721 184.807C74.7583 184.525 74.6475 184.298 74.4399 184.126C74.2347 183.954 73.9381 183.877 73.5504 183.896L72.2203 183.962L72.3192 185.966ZM81.0761 187.422L80.9204 184.265L82.2043 184.202L82.4731 189.65L81.2282 189.711L81.1804 188.743L81.1237 188.745C81.0158 189.057 80.8259 189.316 80.5541 189.524C80.2846 189.731 79.9454 189.845 79.5363 189.866C79.1793 189.883 78.8597 189.82 78.5776 189.675C78.2977 189.527 78.0734 189.305 77.9047 189.007C77.7358 188.708 77.6407 188.34 77.6192 187.905L77.448 184.436L78.732 184.373L78.8933 187.643C78.9104 187.988 79.0185 188.258 79.2177 188.452C79.4169 188.646 79.6702 188.735 79.9776 188.72C80.1667 188.711 80.3477 188.656 80.5205 188.555C80.6933 188.454 80.8319 188.31 80.9365 188.122C81.0432 187.932 81.0898 187.698 81.0761 187.422ZM87.9015 185.364L86.7374 185.549C86.6984 185.433 86.635 185.325 86.5471 185.225C86.4616 185.125 86.3487 185.046 86.2084 184.989C86.0681 184.932 85.8986 184.908 85.7 184.918C85.4328 184.931 85.211 185 85.0347 185.125C84.8607 185.25 84.7794 185.404 84.7909 185.589C84.7963 185.747 84.8606 185.873 84.9838 185.967C85.1093 186.06 85.3119 186.132 85.5917 186.182L86.5308 186.335C87.0517 186.42 87.4435 186.578 87.706 186.807C87.9709 187.035 88.1142 187.345 88.1358 187.735C88.1504 188.078 88.0648 188.385 87.8791 188.657C87.6957 188.927 87.4326 189.144 87.0899 189.308C86.7472 189.472 86.3489 189.565 85.8949 189.587C85.2281 189.62 84.6844 189.507 84.2639 189.248C83.8434 188.987 83.5817 188.608 83.4789 188.11L84.725 187.928C84.7939 188.171 84.9236 188.351 85.1142 188.467C85.3049 188.583 85.548 188.634 85.8435 188.619C86.1486 188.604 86.3902 188.529 86.5684 188.395C86.7491 188.261 86.8348 188.101 86.8257 187.917C86.818 187.761 86.7514 187.635 86.6258 187.539C86.5025 187.443 86.3142 187.374 86.0609 187.332L85.122 187.183C84.5941 187.1 84.1984 186.936 83.9351 186.69C83.6716 186.443 83.5312 186.12 83.514 185.723C83.4951 185.387 83.5717 185.092 83.744 184.837C83.9186 184.579 84.1681 184.375 84.4924 184.224C84.8191 184.07 85.1999 183.983 85.635 183.961C86.2734 183.93 86.7826 184.041 87.1625 184.295C87.5448 184.548 87.7911 184.905 87.9015 185.364ZM89.275 189.314L89.0062 183.866L90.2902 183.803L90.559 189.251L89.275 189.314ZM89.6136 183.061C89.4102 183.071 89.2319 183.012 89.0787 182.885C88.9253 182.755 88.8439 182.594 88.8344 182.402C88.8249 182.209 88.8901 182.041 89.03 181.899C89.1699 181.754 89.3414 181.677 89.5448 181.667C89.7505 181.657 89.9289 181.717 90.0799 181.847C90.2331 181.974 90.3145 182.135 90.3241 182.329C90.3336 182.521 90.2684 182.688 90.1285 182.833C89.9909 182.975 89.8193 183.051 89.6136 183.061ZM93.0057 185.93L93.1632 189.122L91.8793 189.185L91.6105 183.737L92.8377 183.677L92.8833 184.603L92.9472 184.599C93.0575 184.288 93.2453 184.036 93.5107 183.843C93.7785 183.649 94.1158 183.543 94.5225 183.523C94.8984 183.504 95.2299 183.568 95.5168 183.715C95.8061 183.862 96.0352 184.084 96.2039 184.382C96.375 184.679 96.4701 185.045 96.4892 185.481L96.6604 188.949L95.3765 189.013L95.2151 185.743C95.1971 185.379 95.0885 185.098 94.8892 184.902C94.6922 184.705 94.4282 184.615 94.0972 184.632C93.8726 184.643 93.6752 184.702 93.5051 184.81C93.3373 184.916 93.2083 185.063 93.1181 185.252C93.0302 185.442 92.9928 185.667 93.0057 185.93ZM100.383 188.872C99.8365 188.899 99.3592 188.809 98.9507 188.602C98.5446 188.392 98.2247 188.083 97.9913 187.675C97.7577 187.265 97.6268 186.774 97.5987 186.205C97.5711 185.644 97.6532 185.147 97.8451 184.713C98.0393 184.277 98.3233 183.931 98.697 183.676C99.0706 183.418 99.5176 183.276 100.038 183.251C100.374 183.234 100.693 183.273 100.996 183.367C101.302 183.458 101.575 183.611 101.815 183.824C102.058 184.037 102.254 184.314 102.404 184.655C102.553 184.994 102.64 185.402 102.663 185.88L102.683 186.274L98.2174 186.494L98.1747 185.629L101.409 185.469C101.395 185.223 101.331 185.007 101.217 184.821C101.104 184.632 100.951 184.487 100.759 184.385C100.569 184.283 100.351 184.238 100.105 184.25C99.8424 184.263 99.615 184.338 99.4227 184.475C99.2302 184.611 99.0835 184.784 98.9825 184.995C98.8838 185.204 98.8393 185.43 98.8489 185.674L98.8862 186.429C98.9018 186.746 98.9732 187.015 99.1002 187.236C99.2272 187.455 99.3977 187.62 99.6117 187.73C99.8256 187.838 100.072 187.885 100.351 187.871C100.538 187.862 100.706 187.828 100.854 187.768C101.003 187.706 101.13 187.621 101.236 187.511C101.342 187.402 101.42 187.269 101.469 187.112L102.675 187.188C102.615 187.508 102.484 187.792 102.283 188.039C102.084 188.284 101.823 188.479 101.501 188.625C101.179 188.769 100.806 188.852 100.383 188.872ZM107.994 184.373L106.83 184.558C106.791 184.441 106.728 184.333 106.64 184.233C106.554 184.133 106.441 184.054 106.301 183.997C106.161 183.94 105.991 183.917 105.793 183.926C105.526 183.94 105.304 184.009 105.127 184.134C104.953 184.258 104.872 184.413 104.884 184.597C104.889 184.756 104.953 184.882 105.077 184.975C105.202 185.069 105.405 185.14 105.684 185.19L106.624 185.343C107.144 185.429 107.536 185.586 107.799 185.815C108.064 186.044 108.207 186.353 108.229 186.743C108.243 187.086 108.158 187.394 107.972 187.666C107.788 187.936 107.525 188.153 107.183 188.316C106.84 188.48 106.442 188.573 105.988 188.596C105.321 188.629 104.777 188.516 104.357 188.257C103.936 187.995 103.674 187.616 103.572 187.119L104.818 186.936C104.887 187.179 105.016 187.359 105.207 187.475C105.398 187.592 105.641 187.642 105.936 187.628C106.241 187.613 106.483 187.538 106.661 187.404C106.842 187.269 106.928 187.11 106.918 186.925C106.911 186.769 106.844 186.643 106.718 186.547C106.595 186.452 106.407 186.383 106.154 186.341L105.215 186.191C104.687 186.108 104.291 185.944 104.028 185.699C103.764 185.451 103.624 185.129 103.607 184.731C103.588 184.396 103.664 184.1 103.837 183.845C104.011 183.588 104.261 183.383 104.585 183.232C104.912 183.079 105.293 182.991 105.728 182.97C106.366 182.938 106.875 183.049 107.255 183.303C107.638 183.557 107.884 183.913 107.994 184.373ZM113.476 184.102L112.312 184.287C112.273 184.171 112.209 184.063 112.121 183.963C112.036 183.863 111.923 183.784 111.783 183.727C111.642 183.67 111.473 183.646 111.274 183.656C111.007 183.669 110.785 183.738 110.609 183.863C110.435 183.988 110.354 184.142 110.365 184.327C110.371 184.485 110.435 184.611 110.558 184.705C110.684 184.798 110.886 184.87 111.166 184.92L112.105 185.073C112.626 185.158 113.018 185.316 113.28 185.545C113.545 185.773 113.689 186.083 113.71 186.473C113.725 186.816 113.639 187.123 113.453 187.395C113.27 187.665 113.007 187.882 112.664 188.046C112.322 188.21 111.923 188.303 111.469 188.325C110.802 188.358 110.259 188.245 109.838 187.986C109.418 187.725 109.156 187.346 109.053 186.848L110.299 186.666C110.368 186.909 110.498 187.089 110.689 187.205C110.879 187.321 111.122 187.372 111.418 187.357C111.723 187.342 111.965 187.267 112.143 187.133C112.323 186.999 112.409 186.839 112.4 186.655C112.392 186.499 112.326 186.373 112.2 186.277C112.077 186.181 111.889 186.112 111.635 186.07L110.696 185.921C110.168 185.838 109.773 185.674 109.509 185.428C109.246 185.181 109.106 184.858 109.088 184.461C109.069 184.125 109.146 183.83 109.318 183.575C109.493 183.317 109.742 183.113 110.067 182.962C110.393 182.808 110.774 182.721 111.209 182.699C111.848 182.668 112.357 182.779 112.737 183.033C113.119 183.286 113.365 183.643 113.476 184.102ZM117.384 187.927L117.025 180.663L119.749 180.529C120.307 180.501 120.78 180.575 121.168 180.75C121.558 180.925 121.859 181.183 122.07 181.523C122.284 181.861 122.402 182.262 122.425 182.725C122.448 183.191 122.368 183.6 122.186 183.953C122.007 184.303 121.73 184.581 121.357 184.787C120.983 184.99 120.517 185.106 119.959 185.133L118.018 185.229L117.965 184.137L119.727 184.05C120.054 184.033 120.319 183.975 120.522 183.875C120.726 183.773 120.873 183.632 120.964 183.452C121.056 183.269 121.097 183.049 121.084 182.792C121.071 182.534 121.009 182.316 120.899 182.139C120.788 181.96 120.626 181.828 120.414 181.744C120.201 181.657 119.93 181.622 119.601 181.638L118.395 181.698L118.699 187.862L117.384 187.927ZM120.974 184.45L122.934 187.653L121.466 187.725L119.537 184.521L120.974 184.45ZM123.823 187.609L123.554 182.161L124.838 182.098L125.107 187.546L123.823 187.609ZM124.161 181.356C123.958 181.366 123.78 181.307 123.626 181.18C123.473 181.05 123.392 180.889 123.382 180.698C123.373 180.504 123.438 180.336 123.578 180.194C123.718 180.049 123.889 179.972 124.093 179.962C124.298 179.952 124.477 180.012 124.628 180.142C124.781 180.27 124.862 180.43 124.872 180.624C124.881 180.816 124.816 180.984 124.676 181.128C124.539 181.27 124.367 181.346 124.161 181.356ZM130.535 183.26L129.371 183.446C129.332 183.329 129.269 183.221 129.181 183.121C129.095 183.021 128.982 182.942 128.842 182.885C128.702 182.828 128.532 182.804 128.334 182.814C128.066 182.827 127.845 182.896 127.668 183.021C127.494 183.146 127.413 183.301 127.425 183.485C127.43 183.643 127.494 183.769 127.617 183.863C127.743 183.956 127.946 184.028 128.225 184.078L129.164 184.231C129.685 184.317 130.077 184.474 130.34 184.703C130.605 184.931 130.748 185.241 130.769 185.631C130.784 185.974 130.698 186.281 130.513 186.554C130.329 186.823 130.066 187.04 129.724 187.204C129.381 187.368 128.983 187.461 128.529 187.484C127.862 187.516 127.318 187.403 126.898 187.145C126.477 186.883 126.215 186.504 126.113 186.006L127.359 185.824C127.428 186.067 127.557 186.247 127.748 186.363C127.939 186.479 128.182 186.53 128.477 186.515C128.782 186.5 129.024 186.426 129.202 186.291C129.383 186.157 129.468 185.997 129.459 185.813C129.452 185.657 129.385 185.531 129.259 185.435C129.136 185.339 128.948 185.27 128.695 185.228L127.756 185.079C127.228 184.996 126.832 184.832 126.569 184.587C126.305 184.339 126.165 184.016 126.148 183.619C126.129 183.283 126.205 182.988 126.378 182.733C126.552 182.475 126.802 182.271 127.126 182.12C127.453 181.966 127.834 181.879 128.269 181.857C128.907 181.826 129.416 181.937 129.796 182.191C130.178 182.445 130.425 182.801 130.535 183.26ZM132.995 185.443L132.915 183.893L133.12 183.883L134.97 181.598L136.471 181.524L134.195 184.324L133.929 184.337L132.995 185.443ZM131.909 187.21L131.55 179.946L132.834 179.883L133.193 187.147L131.909 187.21ZM135.328 187.041L133.432 184.65L134.253 183.703L136.864 186.966L135.328 187.041Z" fill="#859EED"/>
</g>
<defs>
<filter id="filter0_dd_858_22" x="354" y="116" width="233" height="150" filterUnits="userSpaceOnUse" color-interpolation-filters="sRGB">
<feFlood flood-opacity="0" result="BackgroundImageFix"/>
<feColorMatrix in="SourceAlpha" type="matrix" values="0 0 0 0 0 0 0 0 0 0 0 0 0 0 0 0 0 0 127 0" result="hardAlpha"/>
<feOffset dy="4"/>
<feGaussianBlur stdDeviation="3"/>
<feColorMatrix type="matrix" values="0 0 0 0 0.25098 0 0 0 0 0.27451 0 0 0 0 0.407843 0 0 0 0.05 0"/>
<feBlend mode="normal" in2="BackgroundImageFix" result="effect1_dropShadow_858_22"/>
<feColorMatrix in="SourceAlpha" type="matrix" values="0 0 0 0 0 0 0 0 0 0 0 0 0 0 0 0 0 0 127 0" result="hardAlpha"/>
<feOffset dy="10"/>
<feGaussianBlur stdDeviation="7.5"/>
<feColorMatrix type="matrix" values="0 0 0 0 0.25098 0 0 0 0 0.27451 0 0 0 0 0.407843 0 0 0 0.1 0"/>
<feBlend mode="normal" in2="effect1_dropShadow_858_22" result="effect2_dropShadow_858_22"/>
<feBlend mode="normal" in="SourceGraphic" in2="effect2_dropShadow_858_22" result="shape"/>
</filter>
<linearGradient id="paint0_linear_858_22" x1="362.5" y1="191" x2="362.5" y2="395" gradientUnits="userSpaceOnUse">
<stop stop-color="#1EA7FF"/>
<stop offset="1" stop-color="#1EA7FF" stop-opacity="0"/>
</linearGradient>
<linearGradient id="paint1_linear_858_22" x1="362.5" y1="235" x2="362.468" y2="373" gradientUnits="userSpaceOnUse">
<stop stop-color="#280830"/>
<stop offset="1" stop-color="#0D0A6E" stop-opacity="0"/>
</linearGradient>
<linearGradient id="paint2_linear_858_22" x1="362.5" y1="113" x2="362.5" y2="368" gradientUnits="userSpaceOnUse">
<stop stop-color="#1757C2"/>
<stop offset="1" stop-color="#1757C2" stop-opacity="0"/>
</linearGradient>
<clipPath id="clip0_858_22">
<rect width="672" height="400" fill="white"/>
</clipPath>
</defs>
</svg>
