<svg width="139" height="20" viewBox="0 0 139 20" fill="none" xmlns="http://www.w3.org/2000/svg">
<g clip-path="url(#clip0)">
<path d="M22.7714 17.6212V2.37886C22.7714 1.5859 22.9471 0.99119 23.3204 0.594714C23.6718 0.198238 24.1549 0 24.7258 0C25.3187 0 25.8018 0.198238 26.1531 0.594714C26.5264 0.99119 26.7021 1.5859 26.7021 2.37886V17.6212C26.7021 18.4141 26.5264 19.0308 26.1531 19.4273C25.7798 19.8238 25.3187 20.022 24.7258 20.022C24.1549 20.022 23.6937 19.8238 23.3424 19.4273C22.9691 19.0088 22.7714 18.4141 22.7714 17.6212Z" fill="#131520"/>
<path d="M129.031 20C123.541 20 119.061 15.5066 119.061 10C119.061 4.49339 123.541 0 129.031 0C134.52 0 139 4.49339 139 10C139 15.5286 134.542 20 129.031 20ZM129.031 4.05286C125.759 4.05286 123.102 6.71806 123.102 10C123.102 13.2819 125.759 15.9471 129.031 15.9471C132.303 15.9471 134.96 13.2819 134.96 10C134.96 6.74009 132.303 4.05286 129.031 4.05286Z" fill="#131520"/>
<path d="M84.3003 20C78.8106 20 74.331 15.5066 74.331 10C74.331 4.49339 78.8106 0 84.3003 0C89.79 0 94.2697 4.49339 94.2697 10C94.2697 15.5286 89.79 20 84.3003 20ZM84.3003 4.05286C81.0284 4.05286 78.3714 6.71806 78.3714 10C78.3714 13.2819 81.0284 15.9471 84.3003 15.9471C87.5722 15.9471 90.2292 13.2819 90.2292 10C90.2292 6.74009 87.5722 4.05286 84.3003 4.05286Z" fill="#131520"/>
<path d="M115.877 10C115.877 7.79736 115.153 5.7489 113.945 4.09692C112.188 1.69604 109.377 0.110132 106.193 0C106.084 0 105.996 0 105.886 0H100.879C100.023 0 99.408 0.198238 99.0347 0.594714C98.6614 0.99119 98.4638 1.60793 98.4638 2.48899V17.533C98.4638 18.4141 98.6614 19.0308 99.0347 19.4273C99.408 19.8238 100.045 20.022 100.879 20.022H105.886C105.996 20.022 106.084 20.022 106.193 20.022C109.377 19.9339 112.166 18.348 113.945 15.9251C115.153 14.2511 115.877 12.2026 115.877 10ZM106.611 15.9031C106.127 15.9251 105.6 15.9471 105.051 15.9471H102.438V4.05286H105.051C105.6 4.05286 106.127 4.05287 106.611 4.09692C108.345 4.29516 109.839 5.26432 110.783 6.62996C111.442 7.5771 111.837 8.7445 111.837 10C111.837 11.2555 111.442 12.4009 110.783 13.348C109.839 14.7577 108.345 15.7049 106.611 15.9031Z" fill="#131520"/>
<path d="M68.6875 0.0880533C67.9628 -0.132211 67.1723 0.154132 66.7551 0.792899L60.7384 9.97792L54.7216 0.792899C54.3044 0.154132 53.5139 -0.132211 52.7892 0.0880533C52.0646 0.308318 51.5595 1.01316 51.5595 1.78409V18.1057C51.5595 19.0748 52.3281 19.8898 53.2943 19.8898C54.2385 19.8898 55.029 19.0969 55.029 18.1057V7.59907L59.2891 14.1189C59.2891 14.1189 59.2891 14.1189 59.2891 14.1409C59.2891 14.1409 59.2891 14.1629 59.311 14.1629C59.333 14.207 59.3549 14.2511 59.3989 14.2731C59.4208 14.2951 59.4208 14.2951 59.4428 14.3171C59.4647 14.3392 59.4867 14.3832 59.5087 14.4052C59.5306 14.4273 59.5526 14.4493 59.5745 14.4713C59.5965 14.4933 59.6184 14.4933 59.6184 14.5154C59.6624 14.5374 59.6843 14.5594 59.7282 14.6035L59.7502 14.6255C59.7941 14.6475 59.838 14.6696 59.86 14.6916C59.882 14.6916 59.882 14.7136 59.882 14.7136C59.9039 14.7356 59.9478 14.7356 59.9698 14.7577C60.1455 14.8458 60.3211 14.8898 60.5188 14.9118C60.5627 14.9118 60.5846 14.9118 60.6286 14.9118C60.6505 14.9118 60.6725 14.9118 60.6944 14.9118C60.7164 14.9118 60.7384 14.9118 60.7603 14.9118C60.8042 14.9118 60.8262 14.9118 60.8701 14.9118C61.0458 14.8898 61.2434 14.8458 61.4191 14.7577C61.441 14.7356 61.485 14.7356 61.5069 14.7136L61.5289 14.6916C61.5728 14.6696 61.6167 14.6475 61.6387 14.6255C61.6606 14.6255 61.6606 14.6035 61.6606 14.6035C61.7045 14.5814 61.7265 14.5594 61.7704 14.5154C61.7924 14.4933 61.8143 14.4933 61.8143 14.4713C61.8363 14.4493 61.8583 14.4273 61.8802 14.4052C61.9022 14.3832 61.9241 14.3612 61.9461 14.3171C61.9681 14.2951 61.968 14.2951 61.99 14.2731C62.012 14.229 62.0559 14.207 62.0778 14.1629L62.0998 14.1409C62.0998 14.1409 62.0998 14.1409 62.0998 14.1189L66.3598 7.59907V18.1057C66.3598 19.0748 67.1284 19.8898 68.0946 19.8898C69.0388 19.8898 69.8293 19.0969 69.8293 18.1057V1.78409C69.9172 1.01316 69.4121 0.308318 68.6875 0.0880533Z" fill="#131520"/>
<path d="M45.6746 19.4053H32.7408C32.06 19.4053 31.3134 18.9868 31.028 18.326C30.7425 17.6652 30.6986 16.7621 31.2915 16.0352L41.8537 3.72247H33.1141C32.1698 3.72247 31.3793 2.88546 31.3793 1.87225C31.3793 0.859031 32.1479 0.220264 33.1141 0.220264H44.884C45.5648 0.220264 46.2674 0.330396 46.8823 1.01322C47.4532 1.62996 47.4093 2.97357 46.7945 3.76652L36.5836 15.7048H45.6746C46.6407 15.7048 47.3215 16.5418 47.3215 17.5551C47.3215 18.5683 46.6407 19.4053 45.6746 19.4053Z" fill="#131520"/>
<path d="M9.90348 20C7.02686 20 4.4357 18.8546 2.56919 16.7841C0.944234 14.978 0 12.5771 0 10.1982C0 2.77533 6.1485 0 10.0352 0C13.8561 0 16.6449 1.87225 16.7766 1.96035C17.633 2.55507 17.8746 3.72247 17.2817 4.60352C16.7107 5.48458 15.5469 5.70485 14.6905 5.13216C14.6466 5.11013 12.6483 3.81057 10.0352 3.81057C7.59779 3.81057 4.23807 5.4185 4.23807 10.1982C4.23807 12.9075 6.25829 16.1233 9.94739 16.1233C12.0335 16.1233 13.4828 15.5727 14.3392 15.022V12.2026H11.4845C10.4524 12.2026 9.61801 11.3436 9.61801 10.3084C9.61801 9.2511 10.4524 8.4141 11.4845 8.4141H16.2496C17.2817 8.4141 18.1161 9.27313 18.1161 10.3084V15.9692C18.1161 16.4758 17.9185 16.9824 17.5452 17.3348C16.2935 18.5683 13.5267 20 9.90348 20Z" fill="#131520"/>
</g>
<defs>
<clipPath id="clip0">
<rect width="139" height="20" fill="white"/>
</clipPath>
</defs>
</svg>
