<svg width="129" height="28" viewBox="0 0 129 28" fill="none" xmlns="http://www.w3.org/2000/svg">
<path fill-rule="evenodd" clip-rule="evenodd" d="M0 20.4442C0 21.836 1.12801 22.9387 2.50668 22.9387H12.6408V20.408H2.45296V17.8773H12.5334C13.9121 17.8773 15.1475 16.7205 15.1475 15.3286V15.3828V10.3215C15.1475 8.92963 13.9121 7.59199 12.5334 7.59199H2.50668C1.12801 7.59199 0 8.91156 0 10.3215V20.4442ZM2.45296 10.1227H12.6408V15.3467H2.45296V10.1227Z" fill="#131520"/>
<path fill-rule="evenodd" clip-rule="evenodd" d="M46.5168 7.59199H36.49C35.1114 7.59199 33.8043 8.92963 33.8043 10.3215V20.4442V20.3899C33.8043 21.7818 35.1114 22.9387 36.49 22.9387H46.4989V25.4693H36.311V28H46.5168C47.8954 28 49.0055 26.9154 49.0055 25.5055V10.3215C49.0055 8.92963 47.8954 7.59199 46.5168 7.59199ZM36.311 10.1227H46.4989V20.408H36.311V10.1227Z" fill="#131520"/>
<path fill-rule="evenodd" clip-rule="evenodd" d="M27.0184 7.59199H19.4984C18.1197 7.59199 16.8843 8.92963 16.8843 10.3215V22.9387H19.3909V10.1227H27.0184C28.3971 10.1227 29.5788 11.4603 29.5788 12.8522V22.9387H32.0855V12.8522C32.0676 10.0684 29.7758 7.59199 27.0184 7.59199Z" fill="#131520"/>
<path fill-rule="evenodd" clip-rule="evenodd" d="M63.419 20.408H53.2311V12.8522C53.2311 11.4603 54.5919 10.1227 55.9885 10.1227H63.419V22.9387H65.9256V10.3215C65.9256 8.92963 64.8872 7.59199 63.5085 7.59199H55.9885C53.2132 7.59199 50.7244 10.0684 50.7244 12.8522V20.4442C50.7244 21.836 52.0852 22.9387 53.4818 22.9387H57.9043C60.1245 22.9387 62.4879 21.9987 63.419 20.4442V22.9387" fill="#131520"/>
<path fill-rule="evenodd" clip-rule="evenodd" d="M120.911 0H118.405V22.9387H120.911V10.1227H128.593V7.59199H120.911V0Z" fill="#131520"/>
<path fill-rule="evenodd" clip-rule="evenodd" d="M80.1779 7.59199H70.4556C69.0769 7.59199 67.6445 8.92963 67.6445 10.3215V20.4442V20.3899C67.6445 21.7818 69.0769 22.9387 70.4556 22.9387H82.8278V0H80.16V7.59199H80.1779ZM70.1512 10.1227H80.1779V20.408H70.1512V10.1227Z" fill="#131520"/>
<path fill-rule="evenodd" clip-rule="evenodd" d="M101.485 20.4442C101.485 21.836 102.935 22.9387 104.314 22.9387H114.179V20.408H103.991V17.8773H114.34C115.719 17.8773 116.686 16.7205 116.686 15.3286V15.3828V10.3215C116.686 8.92963 115.737 7.59199 114.34 7.59199H104.314C102.935 7.59199 101.485 8.92963 101.485 10.3215V20.4442ZM103.991 10.1227H114.179V15.3467H103.991V10.1227Z" fill="#131520"/>
<path fill-rule="evenodd" clip-rule="evenodd" d="M97.3486 7.59199H87.3219C85.9432 7.59199 84.5645 8.92963 84.5645 10.3215V20.4442V20.3899C84.5645 21.7818 85.9432 22.9387 87.3219 22.9387H97.2591V25.4693H87.2324V28H97.3486C98.7273 28 99.7658 26.9154 99.7658 25.5055V10.3215C99.7658 8.92963 98.7273 7.59199 97.3486 7.59199ZM87.2324 10.1227H97.2591V20.408H87.2324V10.1227Z" fill="#131520"/>
</svg>
