<svg width="190" height="27" viewBox="0 0 190 27" fill="none" xmlns="http://www.w3.org/2000/svg">
<g clip-path="url(#clip0)">
<path d="M71.5463 10.4957V22.3811H67.2064V10.4957H62.8169V6.71177H75.9234V10.4957H71.5463Z" fill="#131520"/>
<path d="M86.0664 17.6546H79.1721C79.3085 18.9572 80.0649 19.5279 81.1685 19.5279C82.1977 19.5279 83.0533 19.3046 84.2064 18.6967L85.744 21.2772C84.2932 22.1333 82.7929 22.6171 80.9577 22.6171C77.4238 22.6171 75.477 20.111 75.477 16.5008C75.477 12.4438 77.7586 10.372 80.8461 10.372C84.07 10.372 86.0788 12.4935 86.0788 16.8605C86.0788 17.2079 86.0788 17.456 86.0664 17.6546ZM80.7345 13.3619C79.8169 13.3619 79.3085 13.9946 79.1721 15.1484H82.5325C82.3217 13.9574 81.9249 13.3619 80.7345 13.3619Z" fill="#131520"/>
<path d="M93.5558 22.6292C90.1087 22.6292 88.0503 20.4333 88.0503 16.4756C88.0503 12.8654 89.8855 10.3841 93.6426 10.3841C95.8622 10.3841 97.1269 11.4138 98.1561 13.0639L95.3786 15.173C94.8206 14.1432 94.4362 13.647 93.5682 13.647C92.539 13.647 92.0182 14.6767 92.0182 16.5377C92.0182 18.3986 92.5762 19.3539 93.6798 19.3539C94.4362 19.3539 94.9818 18.9321 95.7134 17.8279L98.2677 19.8254C96.9037 21.8352 95.639 22.6292 93.5558 22.6292Z" fill="#131520"/>
<path d="M107.282 22.3813V15.7066C107.282 14.1806 106.774 13.7836 105.943 13.7836C105.088 13.7836 104.579 14.1806 104.579 15.6694V22.3813H100.549V7.66719L104.579 6.05435V11.4139C105.323 10.8557 106.141 10.3842 107.53 10.3842C110.109 10.3842 111.337 12.1087 111.337 15.1979V22.3813H107.282Z" fill="#131520"/>
<path d="M120.972 22.6294C116.322 22.6294 113.829 19.1804 113.829 14.5528C113.829 9.51578 116.78 6.4762 120.984 6.4762C124.828 6.4762 126.353 8.13866 127.432 11.0914L123.501 12.6174C122.943 11.1658 122.41 10.2478 120.972 10.2478C119.161 10.2478 118.38 12.0591 118.38 14.5404C118.38 16.9349 119.136 18.833 121.021 18.833C122.385 18.833 122.968 18.0887 123.811 16.6123L127.481 18.5601C126.44 20.632 124.691 22.6294 120.972 22.6294Z" fill="#131520"/>
<path d="M137.389 15.0616C136.88 14.5033 136.298 14.0814 135.516 14.0814C134.537 14.0814 133.929 14.5529 133.929 15.9796V22.3814H129.899V10.6324H133.929V11.4885C134.624 10.8185 135.405 10.3967 136.434 10.3967C137.29 10.3967 137.86 10.5952 138.331 10.893L137.389 15.0616Z" fill="#131520"/>
<path d="M146.961 22.3813V21.5997C146.242 22.158 145.399 22.6294 144.035 22.6294C141.456 22.6294 140.228 20.9049 140.228 17.8157V10.6324H144.283V17.3071C144.283 18.8331 144.791 19.2301 145.622 19.2301C146.453 19.2301 146.961 18.8331 146.961 17.3443V10.6324H151.016V22.3813H146.961Z" fill="#131520"/>
<path d="M160.651 22.3811V15.7064C160.651 14.1804 160.142 13.7834 159.311 13.7834C158.456 13.7834 157.947 14.1804 157.947 15.6692V22.3811H153.918V10.6322H157.947V11.4138C158.691 10.8555 159.51 10.3841 160.899 10.3841C163.478 10.3841 164.705 12.1086 164.705 15.1978V22.3811H160.651Z" fill="#131520"/>
<path d="M172.554 22.6292C169.107 22.6292 167.049 20.4333 167.049 16.4756C167.049 12.8654 168.884 10.3841 172.641 10.3841C174.861 10.3841 176.125 11.4138 177.155 13.0639L174.377 15.173C173.819 14.1432 173.435 13.647 172.567 13.647C171.538 13.647 171.017 14.6767 171.017 16.5377C171.017 18.3986 171.575 19.3539 172.678 19.3539C173.435 19.3539 173.98 18.9321 174.712 17.8279L177.266 19.8254C175.902 21.8352 174.638 22.6292 172.554 22.6292Z" fill="#131520"/>
<path d="M186.281 22.3813V15.7066C186.281 14.1806 185.772 13.7836 184.942 13.7836C184.086 13.7836 183.578 14.1806 183.578 15.6694V22.3813H179.548V7.66719L183.578 6.05435V11.4139C184.322 10.8557 185.14 10.3842 186.529 10.3842C189.108 10.3842 190.336 12.1087 190.336 15.1979V22.3813H186.281Z" fill="#131520"/>
<path d="M0 0V8.95747H8.95259V26.86H17.8928V8.95747H26.8454V0H0Z" fill="#131520"/>
<path d="M35.7855 17.9026V8.95755L26.8454 8.95747L26.8454 26.8601H53.6783V17.9026H35.7855Z" fill="#131520"/>
<path d="M53.6783 0H35.7855L35.7855 8.95755L53.6783 8.95747V0Z" fill="#131520"/>
</g>
<defs>
<clipPath id="clip0">
<rect width="190" height="27" fill="white"/>
</clipPath>
</defs>
</svg>
