<svg width="216" height="30" viewBox="0 0 216 30" fill="none" xmlns="http://www.w3.org/2000/svg">
<g clip-path="url(#clip0)">
<path d="M6.18114 16.6108V8.56205L3.7392 9.65961C3.7392 9.65961 3.11022 11.0499 3.22122 13.062C3.29522 14.6352 4.18319 16.5011 4.88617 17.306L6.18114 16.6108ZM13.3589 0.0376584C13.9509 0.0742438 14.9129 0.366927 15.6159 0.988878C16.3929 1.72059 16.5408 2.81815 16.2819 3.84254C16.0599 4.72059 15.7639 5.1962 14.8389 5.81815C13.9139 6.4401 12.767 6.40351 12.767 6.40351V10.2816L14.6909 11.8181L12.767 13.3547V18.6596C12.767 18.6596 14.6909 17.562 15.8749 15.1474C15.8749 15.1474 15.9119 15.0011 16.0229 14.7816C16.1339 15.4401 16.0599 16.7572 15.3199 18.4401C14.8019 19.6474 13.7659 20.8547 12.508 21.5864C10.251 22.8303 8.54907 22.9401 6.69912 22.5742C4.55318 22.1352 2.62923 20.9645 1.29727 18.8791C0.372297 17.4157 -0.0346919 15.7328 0.00230711 13.9035C0.0763051 10.3181 2.77723 7.24498 5.88514 6.07424C6.25513 5.9279 6.40313 5.85473 6.95811 5.78156C6.69912 5.96449 6.44013 6.14742 6.07014 6.40351C5.07117 7.06205 4.22019 8.34254 3.8502 9.33034L9.88103 6.65961V15.0011L4.99717 17.4157C5.55215 18.184 7.25411 19.3181 8.66007 19.5011C11.102 19.7572 12.545 18.6962 12.545 18.6962V13.2816L10.658 11.745L12.545 10.2084V6.40351C11.509 6.29376 10.251 5.96449 9.51104 5.78156C8.47507 5.48888 4.84917 4.50107 4.29419 4.39132C3.7392 4.31815 3.03622 4.31815 2.59224 4.72059C2.18525 5.08644 1.88925 5.74498 2.07425 6.36693C2.18525 6.6962 2.40724 6.91571 2.59224 7.09863C2.59224 7.09863 2.37024 7.09863 2.00025 6.84254C1.33427 6.4401 0.816284 5.63522 0.742287 4.684C0.668289 3.40351 1.22327 2.23278 2.29624 1.46449C3.22122 0.879122 4.25719 0.513268 5.47816 0.65961C7.25411 0.915707 9.65904 1.90351 11.768 2.41571C12.582 2.59863 13.2479 2.6718 13.8029 2.34254C14.0619 2.15961 14.5429 1.64741 14.1729 0.988878C13.7289 0.220585 12.841 0.220585 12.101 0.110829C12.73 0.00107306 12.8779 0.00107305 13.3589 0.0376584Z" fill="#131520"/>
<path d="M36.8164 14.5245L34.0785 16.5001V9.87817L36.8164 14.5245ZM36.7424 8.15866C36.7424 8.15866 34.8925 9.25622 33.6345 9.98793C32.3765 10.7196 30.7116 11.5245 30.7116 11.5245V19.2074L29.6016 20.0855L29.7496 20.2684L30.8226 19.3904L34.2265 22.427L40.1463 17.7806L39.9983 17.5977L36.7424 20.1221L34.0415 17.6343V16.7196L39.4433 12.805L36.7424 8.15866Z" fill="#131520"/>
<path d="M21.2769 25.3537C22.0538 25.5366 23.4228 25.6463 25.0877 24.8415C26.9007 23.9268 27.8257 22.0244 27.8257 20.0488L27.8997 17.2683V11.1585L29.0836 10.2805L28.9356 10.0976L27.7517 10.939L25.0877 8.01219L21.6838 10.9024V1.09756L17.429 4.35366C17.614 4.46341 18.2059 4.57317 18.2429 5.41463V19.1707L16.467 20.4878L16.578 20.6707L17.466 20.0122L19.8709 22.2439L23.6818 19.2805L23.5338 19.0976L22.6458 19.7927L21.6838 18.878V11.2317L22.7938 10.2805L24.4588 12.3293C24.4588 12.3293 24.4588 17.3049 24.4588 18.9512C24.4588 20.7073 24.4588 22.9024 23.4968 23.9634C22.6088 24.9878 22.2018 25.061 21.2769 25.3537Z" fill="#131520"/>
<path d="M47.7311 24.6585C46.2142 24.4756 45.5852 23.561 45.5852 22.8659C45.5852 22.3902 46.0292 21.5122 46.9541 21.3659C47.8791 21.2561 48.8411 21.6585 49.6181 22.6098L53.133 18.7683L52.948 18.622L51.986 19.6829C51.024 18.5854 49.6551 17.9268 48.3231 17.7073V6L57.4618 22.4634C57.4618 22.4634 57.5358 22.6463 57.9428 22.6463C58.2758 22.6463 58.2018 22.3902 58.2018 22.3902V5.81707C58.9418 5.78049 60.0888 5.37805 60.6437 4.82927C62.4197 3.03658 61.6797 1.09756 61.4947 0.914633C61.3837 1.7561 60.7178 2.63415 59.6078 2.63415C58.1648 2.63415 57.2768 1.57317 57.2768 1.57317L53.7249 5.4878L53.9099 5.63415L54.9089 4.5C56.1299 5.63415 57.0548 5.70732 57.9798 5.78049V15.4024L51.172 3.21951C50.543 2.23171 49.6181 1.31707 48.1751 1.31707C46.4731 1.31707 45.2892 2.78049 45.1412 4.02439C44.9932 5.45122 45.1412 5.78049 45.1412 5.78049C45.1412 5.78049 45.4002 4.20732 46.3991 4.20732C47.2871 4.20732 47.7681 5.04878 48.1011 5.63415V9.14634C47.1761 9.21951 44.7712 9.32927 44.6232 11.7805C44.6232 12.6951 45.1782 13.6463 45.6962 13.9756C46.3621 14.4146 46.8431 14.378 46.8431 14.378C46.8431 14.378 46.0662 13.9756 46.2882 13.1707C46.5101 12.439 48.0271 12.3293 48.0641 12.622V17.5976C47.3241 17.5976 44.9932 17.6707 43.9202 19.6463C43.2912 20.8537 43.3282 22.2073 43.9942 23.1585C44.6232 24 45.7702 24.9878 47.7311 24.6585Z" fill="#131520"/>
<path d="M67.0816 14.5245L64.3436 16.5001V9.87817L67.0816 14.5245ZM67.0076 8.15866C67.0076 8.15866 65.1576 9.25622 63.8996 9.98793C62.6417 10.7196 60.9767 11.5245 60.9767 11.5245V19.2074L59.8668 20.0855L60.0148 20.2684L61.0877 19.3904L64.4916 22.427L70.4115 17.7806L70.2635 17.5977L67.0076 20.1221L64.3066 17.6343V16.7196L69.7085 12.805L67.0076 8.15866Z" fill="#131520"/>
<path d="M75.2954 22.5001L72.4094 20.1221L71.1515 21.0367L71.0405 20.8538L72.3354 19.9026V13.2806C72.4094 10.5367 69.7825 11.2318 69.9305 8.305C70.0045 7.02451 71.2255 6.07329 71.8914 5.74403C72.5574 5.41476 73.2974 5.41476 73.2974 5.41476C73.2974 5.41476 72.1134 6.14646 72.4094 7.20744C72.8534 8.8172 75.6653 8.96354 75.7023 11.1587V18.6587L77.7743 20.305L78.3293 19.866V11.7074L77.2193 10.6099L80.1052 8.08549L82.7322 10.3904L81.7332 11.4513V18.6952L84.2121 20.7074L84.6561 20.4148V11.744L83.5461 10.7196L86.4321 8.12207L89.133 10.3172L90.2059 9.36598L90.3539 9.5489L87.912 11.6709V18.7684L81.6962 22.5367L78.5143 20.0489L75.2954 22.5001Z" fill="#131520"/>
<path d="M202.313 14.5245L199.575 16.5001V9.87817L202.313 14.5245ZM202.239 8.15866C202.239 8.15866 200.389 9.25622 199.131 9.98793C197.873 10.7196 196.208 11.5245 196.208 11.5245V19.2074L195.098 20.0855L195.246 20.2684L196.319 19.3904L199.723 22.427L205.643 17.7806L205.495 17.5977L202.239 20.1221L199.538 17.6343V16.7196L204.977 12.8416L202.239 8.15866Z" fill="#131520"/>
<path d="M174.49 11.3781L174.638 11.561L175.748 10.6098L177.413 12.4391V18.8049L176.599 19.5366L179.188 22.3903L181.815 19.8293L180.742 18.6952V11.0488L181.408 10.5001L183.221 12.622V18.9513L182.518 19.6464L184.96 22.3171L187.55 19.7562L186.588 18.7684V11.0488L187.291 10.5001L189.178 12.5854V18.8781L188.549 19.5001L191.213 22.3903L194.839 19.0976L194.654 18.9513L193.803 19.7196L192.471 18.2562V11.0854L193.766 10.0976L193.618 9.9147L192.323 10.9025L189.881 8.19518L186.366 10.9025L183.924 8.26835L180.557 10.9025L178.079 8.30494L174.49 11.3781Z" fill="#131520"/>
<path d="M167.201 11.1951L167.349 11.3415L168.274 10.5366L169.754 12.2561V19.5366L168.718 20.4146L168.866 20.5976L169.939 19.6829L172.307 22.3902L175.748 19.3537L175.6 19.1707L174.601 20.0488L173.158 18.439V11.3415L174.379 10.3171L174.231 10.1707L173.084 11.122L170.605 8.23171L167.201 11.1951Z" fill="#131520"/>
<path d="M168.163 5.15872L170.753 2.81726L172.862 5.12214L170.272 7.4636L168.163 5.15872Z" fill="#131520"/>
<path d="M157.544 16.6098V8.56098L155.102 9.65854C155.102 9.65854 154.473 11.0488 154.584 13.061C154.658 14.6342 155.546 16.5 156.249 17.3049L157.544 16.6098ZM164.722 0.0365915C165.314 0.0731769 166.276 0.36586 166.979 0.987811C167.756 1.71952 167.904 2.81708 167.645 3.84147C167.423 4.71952 167.127 5.19513 166.202 5.81708C165.277 6.43903 164.13 6.40245 164.13 6.40245V10.2805L166.054 11.8171L164.13 13.3537V18.6585C164.13 18.6585 166.054 17.561 167.238 15.1463C167.238 15.1463 167.275 15 167.386 14.7805C167.497 15.439 167.423 16.7561 166.683 18.439C166.128 19.7195 165.092 20.9268 163.834 21.622C161.577 22.8659 159.875 22.9756 158.062 22.6098C155.916 22.1707 153.992 21 152.66 18.9146C151.735 17.4512 151.328 15.7683 151.365 13.939C151.439 10.3537 154.14 7.28049 157.248 6.10976C157.618 5.96342 157.766 5.89025 158.321 5.81708C158.062 6.00001 157.803 6.18293 157.433 6.43903C156.434 7.09757 155.583 8.37805 155.213 9.36586L161.244 6.69513V15.0366L156.397 17.4512C156.952 18.2195 158.654 19.3537 160.06 19.5366C162.502 19.7927 163.945 18.7317 163.945 18.7317V13.3171L162.058 11.7805L163.945 10.2439V6.40245C162.909 6.29269 161.651 5.96342 160.911 5.78049C159.838 5.5244 156.212 4.50001 155.657 4.42684C155.102 4.35366 154.399 4.35366 153.955 4.7561C153.548 5.12196 153.252 5.78049 153.437 6.40245C153.548 6.73171 153.77 6.95123 153.955 7.13415C153.955 7.13415 153.733 7.13415 153.363 6.87805C152.697 6.47562 152.179 5.67074 152.105 4.71952C152.031 3.43903 152.549 2.30488 153.622 1.50001C154.547 0.91464 155.583 0.548787 156.804 0.695128C158.58 0.951226 160.985 1.93903 163.094 2.45123C163.908 2.63415 164.574 2.70732 165.129 2.37806C165.388 2.19513 165.869 1.68293 165.499 1.0244C165.055 0.256104 164.167 0.256104 163.427 0.146348C164.093 6.15418e-06 164.241 6.14859e-06 164.722 0.0365915Z" fill="#131520"/>
<path d="M209.935 9.65866V13.4635L211.23 14.5611C211.23 14.5611 214.005 12.366 215.04 10.3172C215.04 10.3172 213.783 12.0001 212.081 11.4879C210.675 11.0489 209.935 9.65866 209.935 9.65866ZM206.827 19.7562C206.827 19.7562 208.048 17.744 210.157 18.1831C212.155 18.5855 212.858 20.7074 212.858 20.7074V15.8782L211.452 14.6709C209.898 16.2074 207.16 18.4026 206.827 19.7562ZM208.825 23.4513C208.418 23.5611 206.716 23.1587 206.309 21.4026C205.902 19.7196 207.123 18.5489 208.899 16.7562L206.753 14.8172V11.1587C206.753 11.1587 208.307 10.3904 209.528 9.62207C210.749 8.85378 212.007 8.0489 212.007 8.0489C212.007 8.0489 212.932 9.18305 213.967 9.10988C215.595 8.96354 215.521 7.71964 215.447 7.42695C215.706 7.90256 216.446 9.36598 213.635 12.6221L215.965 14.4879V19.244C215.965 19.244 213.265 20.6343 210.749 22.4635C210.749 22.4635 209.343 20.7074 208.085 21.5489C207.271 22.0611 207.641 23.0123 208.825 23.4513Z" fill="#131520"/>
<path d="M115.772 18.0368L118.769 20.7075V12.5124L115.772 9.76848V18.0368ZM121.914 11.3416L122.95 10.3904L123.098 10.5734L122.099 11.488V19.0612C122.099 19.0612 120.175 20.0856 118.806 20.8173C117.474 21.5856 116.031 22.4636 116.031 22.4636L112.479 19.5002L111.554 20.3051L111.406 20.1221L112.405 19.2807V11.1587C112.405 11.1587 114.07 10.427 115.476 9.62214C116.734 8.92702 118.14 8.12214 118.14 8.12214L121.914 11.3416Z" fill="#131520"/>
<path d="M128.87 10.5734L131.127 8.30513C131.127 8.30513 131.423 8.56122 131.719 8.70757C131.867 8.78074 132.57 9.14659 133.199 8.78074C133.532 8.59781 133.569 8.56122 133.939 8.19537C134.013 9.95147 133.162 11.1954 132.089 11.7076C131.645 11.9271 130.387 12.3295 129.018 10.7198V18.8783L130.424 20.1222L131.608 19.1344L131.756 19.3173L128.019 22.3905L125.207 19.8295L124.171 20.7807L123.986 20.5978L125.54 19.2076V12.1466L124.356 10.5734L123.32 11.4515L123.172 11.3051L126.761 8.08561L128.87 10.5734Z" fill="#131520"/>
<path d="M138.342 13.9757L142.485 8.01232C142.485 8.01232 143.04 8.67085 144.002 8.89037C145.297 9.21963 146.444 7.97573 146.444 7.97573C146.222 9.58549 145.408 11.3782 143.706 11.6709C142.226 11.927 140.82 10.7562 140.82 10.7562L140.562 11.1587L146.333 19.7928L147.48 18.805L147.628 18.9879L143.669 22.427L138.342 13.9757Z" fill="#131520"/>
<path d="M134.938 6.00012C134.938 4.71964 134.42 3.91476 133.717 3.98793L138.268 0.841587V18.6587L139.452 19.9026L140.377 19.1343L140.525 19.3172L136.862 22.4635L134.383 20.1587L133.384 21.0367L133.236 20.8538L134.975 19.3538V6.00012" fill="#131520"/>
<path d="M105.819 11.0123C105.819 11.0123 105.301 11.5611 104.525 11.5611C103.748 11.5611 103.23 11.0123 103.23 11.0123V13.4635C103.23 13.4635 103.748 12.9148 104.525 12.9148C105.301 12.9148 105.819 13.4635 105.819 13.4635V11.0123ZM105.819 5.78061L104.081 4.24403L103.23 4.90256V10.6099C103.23 10.6099 103.748 11.2684 104.525 11.2684C105.301 11.2684 105.819 10.6465 105.819 10.6465V5.78061ZM103.23 21.9879C103.23 21.9879 104.303 22.2806 105.042 21.6587C105.893 20.9635 105.819 19.9757 105.819 19.9757V13.7928C105.819 13.7928 105.338 13.1709 104.525 13.1709C103.748 13.1709 103.23 13.8294 103.23 13.8294V21.9879ZM97.0137 5.70744C97.0137 4.50012 96.5327 3.84159 95.7188 3.805C94.5718 3.76841 94.2758 5.37817 94.2758 5.37817C94.2758 5.37817 94.0538 4.13427 95.1268 3.00012C95.7188 2.37817 96.8287 1.50012 98.5307 1.90256C100.307 2.34159 100.825 3.69524 100.825 4.90256V21.4757C100.825 21.4757 101.491 21.5489 101.972 21.6587C102.49 21.7684 103.008 21.9148 103.008 21.9148V1.93915H103.23V4.64646L106.855 1.75622L109.519 4.09768L110.777 3.03671L110.925 3.21964L109.63 4.3172V19.7196C109.556 20.7074 109.408 21.7318 108.446 22.3538C106.3 23.5977 103.711 22.1709 101.417 21.8416C99.7147 21.5855 97.0137 21.2562 96.3477 22.8294C96.1258 23.3416 96.1258 24.1099 96.9027 24.6221C98.4567 25.6465 105.375 22.9026 107.743 24.0001C109.926 24.9879 109.889 26.5611 109.556 27.6587C109.001 29.7074 106.411 30.0367 106.411 30.0367C106.411 30.0367 107.669 29.305 107.336 28.0977C107.151 27.4757 106.744 27.3294 105.375 27.4757C102.416 27.805 98.8637 29.2318 96.4588 28.244C95.2378 27.7318 94.3498 26.2318 94.4608 24.7318C94.5348 22.5733 97.0137 21.7318 97.0137 21.7318V13.7928C96.9397 13.4635 95.6078 13.5733 95.3118 14.1587C94.8678 15.0367 95.8668 15.4391 95.8668 15.4391C95.8668 15.4391 95.0528 15.5489 94.3498 14.7806C94.0168 14.3782 93.3138 13.0245 94.2388 11.7806C94.9788 10.7562 95.9038 10.5733 97.0507 10.4635V5.70744H97.0137Z" fill="#131520"/>
</g>
<defs>
<clipPath id="clip0">
<rect width="216" height="30" fill="white"/>
</clipPath>
</defs>
</svg>
