<svg width="92" height="23" viewBox="0 0 92 23" fill="none" xmlns="http://www.w3.org/2000/svg">
<g clip-path="url(#clip0)">
<path fill-rule="evenodd" clip-rule="evenodd" d="M56.0425 6.51058C54.5773 6.51058 53.4174 6.81482 52.2575 7.48413C52.2575 4.13757 52.2575 1.03439 52.3796 0L45.2369 1.27778V1.88624L45.9695 2.00794C46.9462 2.19048 47.2515 2.7381 47.4346 4.01587C47.6178 6.57143 47.5567 20.0185 47.4346 22.2698C49.3271 22.6958 51.3417 23 53.3563 23C58.9728 23 62.3305 19.5317 62.3305 14.0556C62.3915 9.6746 59.6443 6.51058 56.0425 6.51058ZM53.6005 21.7831C53.1732 21.7831 52.6237 21.7831 52.3185 21.6614C52.1964 20.2011 52.1354 13.9947 52.1964 8.51852C52.8069 8.33598 53.2342 8.21429 53.7837 8.21429C56.1035 8.21429 57.3855 10.9524 57.3855 14.2989C57.3855 18.5582 55.7983 21.7831 53.6005 21.7831Z" fill="#131520"/>
<path fill-rule="evenodd" clip-rule="evenodd" d="M18.6198 0.425821H0V1.39937L1.03782 1.52106C2.44194 1.7036 2.93033 2.55545 3.17452 4.56339C3.47976 8.33587 3.35766 15.2115 3.17452 18.4972C2.99137 20.5052 2.44194 21.4179 1.03782 21.5396L0 21.7221V22.574H11.9655V21.7221L10.6835 21.5396C9.27936 21.4179 8.79098 20.5052 8.54678 18.4972C8.42469 17.0978 8.36364 14.9073 8.36364 12.1692L10.9277 12.2909C12.5149 12.2909 13.2475 13.5687 13.5528 15.3332H14.5295V7.78825H13.5528C13.2475 9.5528 12.5149 10.8306 10.9277 10.8306L8.36364 10.9523C8.36364 7.36233 8.48573 4.01577 8.54678 2.00783H12.2707C15.14 2.00783 16.6052 3.77238 17.643 6.9364L18.6808 6.63217L18.6198 0.425821Z" fill="#131520"/>
<path fill-rule="evenodd" clip-rule="evenodd" d="M24.6025 6.32808C29.9137 6.32808 32.5388 9.91803 32.5388 14.6641C32.5388 19.1667 29.6085 23 24.2973 23C18.9861 23 16.361 19.4101 16.361 14.6641C16.361 10.1006 19.3524 6.32808 24.6025 6.32808ZM24.2973 7.36247C21.9774 7.36247 21.367 10.5265 21.367 14.6032C21.367 18.6191 22.4048 21.844 24.5415 21.844C26.9834 21.844 27.5939 18.6799 27.5939 14.6032C27.5939 10.6482 26.5561 7.36247 24.2973 7.36247Z" fill="#131520"/>
<path fill-rule="evenodd" clip-rule="evenodd" d="M63.7346 14.725C63.7346 10.4048 66.4818 6.26728 71.854 6.26728C76.3106 6.26728 78.3862 9.55299 78.3862 13.8731H68.5574C68.4353 17.7673 70.3278 20.6271 74.1739 20.6271C75.8832 20.6271 76.7379 20.2011 77.7757 19.471L78.2031 20.0186C77.1652 21.4789 74.8454 22.9392 71.854 22.9392C67.1533 23.0001 63.7346 19.5927 63.7346 14.725ZM68.6185 12.7779L73.5634 12.6562C73.5634 10.5265 73.2581 7.36252 71.4267 7.36252C69.6563 7.36252 68.7406 10.344 68.6185 12.7779Z" fill="#131520"/>
<path fill-rule="evenodd" clip-rule="evenodd" d="M91.0232 7.17993C89.7412 6.63231 88.0929 6.32808 86.1394 6.32808C82.2323 6.32808 79.7903 8.64025 79.7903 11.3783C79.7903 14.1164 81.5607 15.2725 84.1247 16.1244C86.7498 17.0979 87.4824 17.8281 87.4824 19.045C87.4824 20.3228 86.5056 21.4789 84.8573 21.4789C82.8427 21.4789 81.3776 20.3228 80.2176 17.1588L79.4851 17.3413L79.6072 21.9656C80.8892 22.5133 83.209 22.9392 85.2236 22.9392C89.3749 22.9392 92 20.8096 92 17.5847C92 15.3942 90.8401 14.1164 88.0929 13.0821C85.1626 11.926 84.0637 11.1958 84.0637 9.79634C84.0637 8.39686 85.0405 7.48417 86.2614 7.48417C88.1539 7.48417 89.436 8.64025 90.4127 11.5L91.1453 11.3175L91.0232 7.17993Z" fill="#131520"/>
<path fill-rule="evenodd" clip-rule="evenodd" d="M46.2747 6.75408C44.5043 5.71969 41.3298 6.20646 39.6204 10.0398L39.7425 6.32815L32.6609 7.72762V8.33609L33.3935 8.45778C34.3703 8.57947 34.7976 9.06625 34.8587 10.4657C35.0418 13.0213 34.9808 17.4022 34.8587 19.6535C34.7366 20.9313 34.3092 21.5398 33.3935 21.6615L32.6609 21.7832V22.635H42.4897V21.7832L41.2077 21.6615C40.1699 21.5398 39.8036 20.9313 39.7425 19.6535C39.5594 17.6456 39.5594 13.6297 39.6204 11.135C40.1699 10.4049 42.4897 9.73556 44.5654 11.135L46.2747 6.75408Z" fill="#131520"/>
</g>
<defs>
<clipPath id="clip0">
<rect width="92" height="23" fill="white"/>
</clipPath>
</defs>
</svg>
