<svg width="144" height="27" viewBox="0 0 144 27" fill="none" xmlns="http://www.w3.org/2000/svg">
<g clip-path="url(#clip0)">
<path d="M128.963 21.5319H134.165C134.367 22.1879 135.054 22.8439 136.34 22.8439C138.082 22.8439 138.682 21.7621 138.682 20.1625V19.0231H138.566C137.707 20.0244 136.565 20.7609 134.881 20.7609C131.564 20.7609 128.68 18.3096 128.68 13.5164C128.68 9.12604 131.051 5.70234 134.627 5.70234C136.686 5.70234 137.944 6.53093 138.774 7.84287H138.861V6.16267H144.006V19.4489C144.006 21.9002 143.146 23.8106 141.86 24.9556C140.516 26.1525 138.601 26.6358 136.427 26.6358C132.337 26.6358 129.482 24.9499 128.963 21.5319ZM138.913 13.2575C138.913 11.3471 138.001 9.80503 136.427 9.80503C134.91 9.80503 133.94 11.1745 133.94 13.2575C133.94 15.3117 134.915 16.7905 136.427 16.7905C137.995 16.7963 138.913 15.283 138.913 13.2575ZM122.935 8.7808H123.022C124.135 6.64026 125.594 5.84619 127.451 5.84619C127.878 5.84619 128.167 5.90373 128.34 5.99004V10.6969H128.224C125.052 10.1273 123.195 11.6406 123.195 15.0873V21.5032H117.79V6.16267H122.935V8.7808ZM0 0H10.5786C12.5802 0 14.1202 0.483346 15.2104 1.36948C16.439 2.36495 17.0966 3.84951 17.0966 5.61603C17.0966 7.67025 16.266 8.95342 14.5529 9.75324V9.83955C16.7851 10.5818 18.0714 12.5785 18.0714 15.001C18.0714 17.3084 17.1831 19.1094 15.7295 20.1912C14.5009 21.0774 12.9032 21.5032 10.7863 21.5032H0V0ZM10.0653 16.7387C11.3516 16.7387 12.2918 15.9677 12.2918 14.5407C12.2918 13.0561 11.2651 12.3426 10.0365 12.3426H5.86036V16.733H10.0653V16.7387ZM9.51732 8.41253C10.6594 8.41253 11.49 7.78533 11.49 6.53093C11.49 5.3053 10.6306 4.70687 9.48848 4.70687H5.86036V8.41253H9.51732Z" fill="#131520"/>
<path d="M19.0404 0H24.5835V21.5032H19.0404V0ZM25.6448 13.8559C25.6448 9.01096 28.7884 5.73111 33.6509 5.73111C38.5134 5.73111 41.5993 9.01096 41.5993 13.8559C41.5993 18.7354 38.5134 21.9808 33.6509 21.9808C28.7884 21.9865 25.6448 18.7354 25.6448 13.8559ZM36.1081 13.8559C36.1081 11.1745 35.2487 9.4943 33.5932 9.4943C31.9378 9.4943 31.136 11.1745 31.136 13.8559C31.136 16.5661 31.9378 18.2463 33.5932 18.2463C35.2487 18.2521 36.1081 16.5661 36.1081 13.8559ZM42.228 13.8559C42.228 9.01096 45.3716 5.73111 50.2341 5.73111C55.0966 5.73111 58.1825 9.01096 58.1825 13.8559C58.1825 18.7354 55.0966 21.9808 50.2341 21.9808C45.3716 21.9865 42.228 18.7354 42.228 13.8559ZM52.6913 13.8559C52.6913 11.1745 51.8319 9.4943 50.1765 9.4943C48.521 9.4943 47.7193 11.1745 47.7193 13.8559C47.7193 16.5661 48.521 18.2463 50.1765 18.2463C51.8319 18.2521 52.6913 16.5661 52.6913 13.8559ZM59.2381 6.16267H64.3832V8.47007H64.4697C65.4965 6.67478 66.8981 5.70234 69.1015 5.70234C71.0453 5.70234 72.5047 6.66903 73.2487 8.35499H73.3353C74.5927 6.32954 76.2251 5.70234 78.1112 5.70234C81.6874 5.70234 83.2275 8.32622 83.2275 11.8592V21.4974H77.8228V12.8317C77.8228 11.2608 77.3383 10.2366 75.9655 10.2366C74.6215 10.2366 73.9352 11.491 73.9352 13.1482V21.5032H68.5247V12.8317C68.5247 11.2608 68.0402 10.2366 66.6674 10.2366C65.3234 10.2366 64.637 11.491 64.637 13.1482V21.5032H59.2381V6.16267ZM89.8262 19.5065H89.7685V21.5032H84.6234V0H90.0281V7.75656H90.1146C91.1413 6.41585 92.5141 5.70234 94.4868 5.70234C98.3456 5.70234 100.578 9.18358 100.578 13.7984C100.578 19.0174 98.1495 22.0095 94.1465 22.0095C92.4853 22.0153 90.7722 21.2155 89.8262 19.5065ZM95.0867 13.7466C95.0867 11.2666 94.1753 9.66693 92.543 9.66693C90.8875 9.66693 89.8262 11.2666 89.8262 13.7466C89.8262 16.1979 90.8817 17.8263 92.543 17.8263C94.1984 17.8205 95.0867 16.2266 95.0867 13.7466ZM101.264 13.8041C101.264 9.01096 104.437 5.67932 109.04 5.67932C111.324 5.67932 113.1 6.39283 114.444 7.676C116.215 9.38498 117.017 12.0664 116.959 15.2312H106.64C106.871 17.1415 107.782 18.114 109.415 18.114C110.361 18.114 111.185 17.6882 111.531 16.6582H116.734C115.823 20.1624 113.106 21.9347 109.247 21.9347C104.466 21.929 101.264 18.7067 101.264 13.8041ZM106.64 12.2045H111.555C111.468 10.3517 110.441 9.37922 109.155 9.37922C107.667 9.37922 106.836 10.438 106.64 12.2045Z" fill="#131520"/>
</g>
<defs>
<clipPath id="clip0">
<rect width="144" height="27" fill="white"/>
</clipPath>
</defs>
</svg>
