<svg width="60" height="40" viewBox="0 0 60 40" fill="none" xmlns="http://www.w3.org/2000/svg">
<g clip-path="url(#clip0)">
<path fill-rule="evenodd" clip-rule="evenodd" d="M39.7352 26.8676L13.0463 40L0 13.1324L26.6889 0L34.7452 16.5913V9.67294H37.101L42.0114 18.3078V9.67294H44.2628V22.6027H41.83L36.9967 14.1705V21.2279L39.7352 26.8676ZM54.1307 20.0363L51.8371 19.6235C51.7128 20.0913 51.5265 20.4315 51.2829 20.6491C51.0369 20.8592 50.7362 20.9643 50.3759 20.9643C49.8466 20.9643 49.4043 20.7592 49.0489 20.3489C48.6936 19.9412 48.5097 19.3709 48.4923 18.6355H54.2525C54.2823 16.7369 53.9245 15.3261 53.179 14.4056C52.4285 13.4851 51.4097 13.0248 50.1175 13.0248C48.9669 13.0248 48.0151 13.4651 47.2647 14.3431C46.5117 15.2236 46.134 16.4392 46.134 17.9926C46.134 19.2884 46.4223 20.3665 46.9938 21.2194C47.7194 22.285 48.8377 22.8153 50.3486 22.8153C51.3053 22.8153 52.1005 22.5802 52.7342 22.1049C53.3703 21.6322 53.835 20.9418 54.1307 20.0363ZM51.4519 15.4787C51.7799 15.8539 51.9489 16.3967 51.9663 17.1171L48.5295 17.1146C48.5246 16.4392 48.6861 15.9039 49.0141 15.5112C49.3397 15.1185 49.7546 14.9184 50.2566 14.9184C50.7263 14.9184 51.1239 15.106 51.4519 15.4787ZM60.1072 15.2111V13.2374H58.5366V9.92808L56.2306 11.3739V13.2374H55.1744V15.2111H56.2306V19.2934C56.2306 20.1688 56.2554 20.7542 56.3026 21.0393C56.3623 21.4446 56.4691 21.7672 56.6257 22.0049C56.7822 22.2425 57.0258 22.4376 57.3588 22.5877C57.6917 22.7353 58.067 22.8103 58.4795 22.8103C59.1604 22.8103 59.7618 22.6878 60.2985 22.4401L60.1022 20.519C59.6971 20.6741 59.3915 20.7567 59.1753 20.7567C59.0237 20.7567 58.8945 20.7142 58.7876 20.6341C58.6808 20.5491 58.6137 20.4465 58.5839 20.3214C58.554 20.1964 58.5391 19.7511 58.5391 18.9857V15.2111H60.1072ZM23.6249 18.9707V12.8072H25.2575C28.8334 12.8072 28.8707 15.4612 28.8707 16.1841C28.8707 16.852 28.8334 19.561 25.2575 19.561H24.1069V22.6778H25.9583C30.5853 22.6778 32.5957 19.6711 32.5957 16.1841C32.5957 13.27 31.2687 9.69045 25.9583 9.69045H20.0117V19.561H12.6561L18.7741 9.69045H8.6229L6.56532 12.8072H12.9145L6.36155 22.6778H20.8044L23.6249 18.9707Z" fill="#131520"/>
</g>
<defs>
<clipPath id="clip0">
<rect width="60" height="40" fill="white"/>
</clipPath>
</defs>
</svg>
