<svg width="111" height="36" viewBox="0 0 111 36" fill="none" xmlns="http://www.w3.org/2000/svg">
<g clip-path="url(#clip0)">
<path d="M25.1951 19.2027L27.1135 18.1999V3.19426H25.6464L22.0729 7.87423H21.6591L21.9224 2.59998H37.4203L37.646 7.87423H37.2322L33.6963 3.19426H32.1917V18.1627L34.1477 19.1656V19.6856H25.1951V19.2027ZM39.1507 18.5342V1.89427L37.646 1.29999V1.00285L43.0628 0H43.6646V7.91137L43.7775 7.79994C45.094 6.72281 46.7115 6.09138 48.4419 6.09138C50.8117 6.09138 51.865 7.42852 51.865 9.87993V18.5342L53.1439 19.2027V19.6856H46.0344V19.2027L47.3134 18.5342V9.84279C47.3134 8.46851 46.7115 7.94851 45.583 7.94851C44.9059 7.94851 44.2289 8.13423 43.7022 8.5428V18.5342L44.9436 19.2027V19.6856H37.8341V19.2399L39.1507 18.5342ZM57.0184 13.4085C57.1688 16.157 58.4102 18.2742 61.3819 18.2742C62.8113 18.2742 63.8269 17.6056 64.7673 17.1227V17.6799C63.4884 19.2399 61.5699 20.0941 59.5387 20.0941C54.9495 20.0941 52.6173 17.5684 52.6173 13.2228C52.6173 8.95136 55.1752 6.31424 59.313 6.31424C63.225 6.31424 65.2187 8.24566 65.2187 13.297V13.4085H57.0184ZM56.9431 12.7771L60.9681 12.5171C60.9681 9.09993 60.3662 6.83424 59.2001 6.83424C57.9212 6.87138 56.9431 9.5085 56.9431 12.7771ZM-0.0078125 26.3341C-0.0078125 19.0913 4.84468 16.5285 10.2614 16.5285C12.556 16.5285 14.7377 16.8999 15.9415 17.3827L16.0543 22.4341H15.5277L12.3679 17.5313C11.7284 17.2713 11.0514 17.1599 10.3743 17.197C7.51543 17.197 6.01078 20.4656 6.08601 25.8512C6.12363 32.2769 7.28973 35.2112 9.92287 35.2112C10.4495 35.2112 11.0137 35.1369 11.5027 34.9512V28.0798L9.69717 27.1141V26.5198H18.1232V27.1512L16.3929 28.1169V34.914C14.3616 35.6197 12.2175 35.9912 10.0357 35.9912C3.90427 35.954 -0.0078125 33.1312 -0.0078125 26.3341ZM17.3333 22.9541V22.5456L22.9757 21.5427L23.6152 21.5798V32.5741C23.6152 33.9112 24.2546 34.3198 25.3455 34.3198C26.0602 34.3198 26.7373 34.0226 27.1887 33.4655V23.6227L25.6088 22.9541V22.5084L31.2513 21.5427L31.8155 21.5798V34.2083L33.3578 34.8398V35.2483L27.8282 35.9169L27.2639 35.8797V34.2083H27.1135C25.985 35.3226 24.4803 35.9169 22.8628 35.954C20.1545 35.954 18.9131 34.3569 18.9131 31.9798V23.6227L17.3333 22.9541ZM52.8054 21.5427L53.2567 21.5798V25.6655H53.3696C53.9715 22.6941 55.288 21.5798 56.9431 21.5798C57.1688 21.5798 57.4321 21.617 57.6578 21.6913V25.8141C57.2817 25.7398 56.8679 25.7027 56.4917 25.7027C55.4385 25.6655 54.3852 25.8884 53.4072 26.297V34.3569L54.6862 35.0626V35.6569H47.351V35.0998L48.6676 34.394V23.3998L47.1253 22.9541V22.5827L52.8054 21.5427ZM66.9867 21.877V17.5684L65.4444 17.0484V16.7142L71.1621 15.6742L71.6887 15.7485V34.2083L73.2686 34.7655V35.2483L67.6261 35.9912L67.1748 35.954V34.4312H67.0619C66.0839 35.434 64.7297 36.0283 63.3003 35.9912C60.2157 35.9912 57.9964 33.6883 57.9964 28.9341C57.9964 23.9198 60.5919 21.4684 64.5416 21.4684C65.3692 21.4313 66.1967 21.5798 66.9867 21.877ZM66.9867 33.6883V22.657C66.5729 22.2856 66.0086 22.137 65.4444 22.1741C63.9021 22.2113 62.9617 24.5141 62.9617 28.5627C62.9617 32.2026 63.6388 34.2455 65.6701 34.1712C66.1591 34.1712 66.6105 34.0226 66.9867 33.6883ZM79.4376 21.5427L79.9266 21.5798V34.394L81.2056 35.0998V35.6569H73.8704V35.0998L75.187 34.394V23.5855L73.6071 22.9541V22.5084L79.4376 21.5427ZM79.9643 18.0884C79.9266 19.4256 78.7982 20.4656 77.444 20.4284C76.5412 20.4656 75.7136 20.0199 75.2622 19.277C74.8108 18.5342 74.8108 17.6056 75.2622 16.8256C75.7136 16.0827 76.5412 15.637 77.444 15.6742C78.8358 15.637 79.9643 16.7142 79.9643 18.0884ZM96.4402 34.394V23.4741L94.8979 22.9541V22.4341L100.54 21.3941L101.105 21.4313V23.0655H101.255C102.609 21.9513 104.302 21.3198 106.07 21.3198C108.515 21.3198 109.606 22.4713 109.606 25.0341V34.394L110.922 35.1369V35.6569H103.587V35.0998L104.904 34.394V25.257C104.904 23.8455 104.302 23.2884 103.136 23.2884C102.421 23.2513 101.744 23.4741 101.217 23.8827V34.3569L102.496 35.0626V35.6569H95.1612V35.0998L96.4402 34.394ZM88.4655 27.5227V25.7027C88.4655 22.9541 87.8637 22.0627 86.1333 22.0627C85.9452 22.0627 85.7572 22.0998 85.5315 22.0998L82.4469 26.2227H82.0331V22.4341C83.6883 21.877 85.4186 21.5798 87.1866 21.5427C90.9482 21.5427 93.1299 22.5827 93.1299 25.6655V34.5798L94.4841 34.914V35.2855C93.619 35.7312 92.6785 35.9169 91.7005 35.9169C89.8573 35.9169 88.9545 35.3226 88.5408 34.3198H88.4279C87.638 35.3597 86.5095 35.954 84.7791 35.954C82.5598 35.954 81.0175 34.5798 81.0175 32.2026C81.0175 29.8998 82.4845 28.6369 85.4186 28.0798L88.4655 27.5227ZM88.4655 33.6883V28.1912L87.5251 28.2655C86.0581 28.3769 85.5315 29.3055 85.5315 31.3855C85.5315 33.614 86.2838 34.2083 87.2994 34.2083C87.7508 34.2083 88.1646 34.0598 88.4655 33.6883ZM40.8434 27.5227V25.7027C40.8434 22.9541 40.2415 22.0627 38.5112 22.0627C38.3231 22.0627 38.135 22.0998 37.9093 22.0998L34.8248 26.2227H34.411V22.4341C36.0661 21.877 37.7965 21.5798 39.5644 21.5427C43.3261 21.5427 45.5078 22.5827 45.5078 25.6655V34.5798L46.862 34.914V35.2855C45.9968 35.7312 45.0564 35.9169 44.0784 35.9169C42.2352 35.9169 41.3324 35.3226 40.9186 34.3198H40.8058C40.0158 35.3597 38.8874 35.954 37.157 35.954C34.9376 35.954 33.3954 34.5798 33.3954 32.2026C33.3954 29.8998 34.8248 28.6369 37.7965 28.0798L40.8434 27.5227ZM40.8434 33.6883V28.1912L39.903 28.2655C38.436 28.3769 37.9093 29.3055 37.9093 31.3855C37.9093 33.614 38.6617 34.2083 39.6773 34.2083C40.0911 34.2083 40.5425 34.0598 40.8434 33.6883Z" fill="#131520"/>
</g>
<defs>
<clipPath id="clip0">
<rect width="111" height="36" fill="white"/>
</clipPath>
</defs>
</svg>
