<svg width="147" height="88" viewBox="0 0 147 88" fill="none" xmlns="http://www.w3.org/2000/svg">
<g clip-path="url(#clip0)">
<path fill-rule="evenodd" clip-rule="evenodd" d="M136.488 63.654H144.76L135.017 80.1613V88H127.756V80.1613L118.198 63.654H126.929L131.525 72.8759L136.488 63.654ZM110.477 71.7693C110.477 70.386 109.466 69.6483 107.904 69.6483H102.849V74.167H107.904C109.466 74.167 110.477 73.2448 110.477 71.9538V71.7693ZM112.04 88L108.087 80.1613H102.849V88H95.6795V63.654H109.374C115.165 63.654 118.106 67.7116 118.106 71.4004V71.8615C118.106 73.8904 117.095 76.4725 114.797 78.0403L120.312 88H112.04ZM71.6907 63.654H93.106V70.7549H78.7678V73.5215H87.5913V79.608H78.7678V88H71.6907V63.654ZM137.223 43.9189C137.223 42.5356 136.212 41.7978 134.65 41.7978H129.595V46.3166H134.65C136.212 46.3166 137.223 45.3944 137.223 44.1033V43.9189ZM138.786 60.0574L134.834 52.2187H129.595V60.0574H122.426V35.8035H136.12C141.911 35.8035 144.852 39.8612 144.852 43.4578V43.9189C144.852 45.9477 143.841 48.5299 141.543 50.0976L147.058 60.0574H138.786ZM111.948 46.8699C111.948 43.9189 111.121 41.1523 106.893 41.1523C102.665 41.1523 101.838 43.8267 101.838 46.8699V48.991C101.838 51.942 102.665 54.6164 106.893 54.6164C111.121 54.6164 111.948 51.942 111.948 48.991V46.8699ZM106.893 60.5185C97.4258 60.5185 94.5765 55.2619 94.5765 49.3599V46.5933C94.5765 40.599 97.4258 35.4347 106.893 35.4347C116.268 35.4347 119.209 40.6912 119.209 46.5933V49.3599C119.209 55.3542 116.268 60.5185 106.893 60.5185ZM71.7826 60.1496V35.8958H78.9516V53.0487H93.106V60.1496H71.7826ZM60.5694 52.3109V60.1496H53.3084V52.3109L43.7497 35.8035H52.3893L56.9849 45.0255L62.04 35.8035H70.312L60.5694 52.3109ZM28.7682 60.0574H21.5072L28.8601 35.8035H39.9813L47.2423 60.0574H39.6137L38.0512 54.8008H30.2388L28.7682 60.0574ZM33.7314 41.7978L31.8012 49.0832H36.4887L34.6505 41.7978H33.7314ZM0 35.8035H23.0697V42.9045H15.1653V60.1496H7.90436V42.9045H0V35.8035Z" fill="#231F20"/>
<path fill-rule="evenodd" clip-rule="evenodd" d="M71.7812 0.391113H93.1046V7.49204H78.8584V28.7948H71.7812V0.391113Z" fill="#0E7BBB"/>
<path fill-rule="evenodd" clip-rule="evenodd" d="M57.7207 7.49204V0.391113H64.7979V7.49204H57.7207ZM86.0293 21.6939V14.593H93.1065V21.6939H86.0293Z" fill="#56C5D0"/>
</g>
<defs>
<clipPath id="clip0">
<rect width="146.667" height="88" fill="white"/>
</clipPath>
</defs>
</svg>
