<svg width="212" height="72" viewBox="0 0 212 72" fill="none" xmlns="http://www.w3.org/2000/svg">
<path d="M42.6813 9.63268L48.1841 0.101648C60.4301 16.8149 51.9898 36.6803 47.547 47.1372L47.5183 47.2047C52.6141 29.1886 46.3217 13.6549 42.6813 9.63268Z" fill="#13B4D1"/>
<path d="M36.5856 22.0303L42.0884 12.4993C54.3344 29.2125 45.8941 49.078 41.4513 59.5349L41.4226 59.6023C46.5184 41.5862 40.226 26.0525 36.5856 22.0303Z" fill="#13B4D1"/>
<path d="M30.4879 34.428L35.9907 24.897C48.2368 41.6102 39.7965 61.4756 35.3536 71.9326L35.325 72C40.4207 53.9839 34.1284 38.4502 30.4879 34.428Z" fill="#13B4D1"/>
<path d="M0 70.0947C0.0754233 69.8121 0.144561 69.4621 0.207414 69.0449C0.270267 68.6277 0.326834 68.1096 0.377117 67.4905C0.427399 66.8714 0.465111 66.138 0.490252 65.2901C0.515393 64.4288 0.527963 63.4261 0.527963 62.2822V49.1403C0.527963 47.9963 0.515393 47.0004 0.490252 46.1526C0.465111 45.2913 0.427399 44.5511 0.377117 43.932C0.326834 43.2994 0.270267 42.7746 0.207414 42.3574C0.144561 41.9402 0.0754233 41.5903 0 41.3076V41.2269H4.50654V41.3076C4.43112 41.5903 4.3557 41.9402 4.28027 42.3574C4.21742 42.7746 4.16085 43.2994 4.11057 43.932C4.07286 44.5511 4.03515 45.2913 3.99744 46.1526C3.9723 47.0004 3.95973 47.9963 3.95973 49.1403V62.2822C3.95973 63.4261 3.9723 64.4288 3.99744 65.2901C4.03515 66.138 4.07286 66.8714 4.11057 67.4905C4.16085 68.1096 4.21742 68.6277 4.28027 69.0449C4.3557 69.4621 4.43112 69.8121 4.50654 70.0947V70.1754H0V70.0947Z" fill="#1B67A1"/>
<path d="M29.2751 56.5692C29.2751 54.7927 28.942 53.4873 28.2758 52.6529C27.6096 51.8185 26.717 51.4013 25.5983 51.4013C25.196 51.4013 24.7435 51.4955 24.2406 51.6839C23.7378 51.8588 23.2224 52.1011 22.6945 52.4106C22.1665 52.7067 21.6385 53.0566 21.1106 53.4604C20.5826 53.8641 20.0861 54.2948 19.621 54.7524L19.5832 57.3969V62.2822C19.5832 63.4261 19.5958 64.4288 19.621 65.2901C19.6461 66.138 19.6838 66.8714 19.7341 67.4905C19.7844 68.1096 19.8409 68.6277 19.9038 69.0449C19.9667 69.4621 20.0358 69.8121 20.1112 70.0947V70.1754H15.7555V70.0947C15.8309 69.8121 15.9001 69.4621 15.9629 69.0449C16.0384 68.6277 16.0949 68.1096 16.1326 67.4905C16.1829 66.8714 16.2206 66.138 16.2458 65.2901C16.2835 64.4288 16.3023 63.4261 16.3023 62.2822V57.3969C16.3023 56.2529 16.2835 55.257 16.2458 54.4092C16.2206 53.5478 16.1829 52.8076 16.1326 52.1886C16.0949 51.5695 16.0384 51.0514 15.9629 50.6342C15.9001 50.2169 15.8309 49.867 15.7555 49.5844V49.5037H20.1112V49.5844C20.0106 49.9209 19.9289 50.3515 19.8661 50.8764C19.8158 51.3878 19.7592 52.0607 19.6964 52.8951C20.2118 52.4375 20.7649 51.98 21.3557 51.5224C21.9591 51.0648 22.5813 50.6611 23.2224 50.3112C23.8635 49.9478 24.5172 49.6584 25.1834 49.4431C25.8497 49.2143 26.5033 49.0999 27.1444 49.0999C28.1249 49.0999 28.9546 49.2816 29.6334 49.645C30.3248 50.0083 30.8842 50.4861 31.3116 51.0783C31.7515 51.6704 32.0658 52.3501 32.2544 53.1172C32.4555 53.8708 32.5561 54.638 32.5561 55.4185V62.2822C32.5561 63.4261 32.5686 64.4288 32.5938 65.2901C32.6189 66.138 32.6566 66.8714 32.7069 67.4905C32.7572 68.1096 32.8138 68.6277 32.8766 69.0449C32.9395 69.4621 33.0086 69.8121 33.084 70.0947V70.1754H28.7283V70.0947C28.8038 69.8121 28.8729 69.4621 28.9357 69.0449C29.0112 68.6277 29.0677 68.1096 29.1054 67.4905C29.1557 66.8714 29.1934 66.138 29.2186 65.2901C29.2563 64.4288 29.2751 63.4261 29.2751 62.2822V56.5692Z" fill="#1B67A1"/>
<path d="M71.5016 45.5175L71.3336 45.5982C70.3629 44.6298 69.1931 43.8564 67.8242 43.2781C66.4677 42.6997 64.9743 42.4106 63.3441 42.4106C61.776 42.4106 60.3386 42.6796 59.0319 43.2176C57.7252 43.7421 56.599 44.5087 55.6532 45.5175C54.7198 46.5262 53.9918 47.7636 53.4691 49.2296C52.9464 50.6956 52.6851 52.3634 52.6851 54.2329C52.6851 56.2907 52.934 58.2141 53.4318 60.0029C53.9296 61.7782 54.67 63.3182 55.6532 64.6229C56.6363 65.9275 57.8621 66.9564 59.3306 67.7096C60.8115 68.4493 62.5351 68.8192 64.5014 68.8192C65.2108 68.8192 65.9201 68.7385 66.6295 68.5771C67.3388 68.4157 68.0171 68.1803 68.6642 67.871C69.3238 67.5482 69.9398 67.1649 70.5123 66.721C71.0972 66.2637 71.6261 65.7459 72.099 65.1676L72.3043 65.3088L70.8109 69.4244C69.8776 69.8145 68.8447 70.1104 67.7122 70.3121C66.5921 70.5273 65.4597 70.6349 64.3148 70.6349C62.0125 70.6349 59.9031 70.2785 57.9866 69.5657C56.0825 68.8394 54.4398 67.8172 53.0584 66.4991C51.6895 65.181 50.6193 63.6007 49.8477 61.7581C49.0886 59.902 48.709 57.8442 48.709 55.5846C48.709 54.3069 48.8583 53.0493 49.157 51.812C49.4681 50.5746 49.9161 49.3977 50.501 48.2814C51.0859 47.1651 51.8077 46.1429 52.6664 45.2148C53.5251 44.2734 54.502 43.4597 55.5972 42.7737C56.7048 42.0878 57.9181 41.5565 59.2373 41.1799C60.5689 40.7899 62.0062 40.5949 63.5494 40.5949C65.9512 40.5949 68.1789 40.9916 70.2323 41.7852L71.5016 45.5175Z" fill="#1B67A1"/>
<path d="M80.3047 59.6397C80.3047 58.1199 80.566 56.7144 81.0887 55.4232C81.6114 54.1186 82.3269 52.9888 83.2354 52.0339C84.1563 51.0789 85.239 50.3325 86.4835 49.7945C87.728 49.2565 89.0658 48.9875 90.4969 48.9875C91.9032 48.9875 93.2223 49.2431 94.4544 49.7541C95.6989 50.2518 96.7816 50.9646 97.7025 51.8927C98.6234 52.8207 99.3452 53.9505 99.8679 55.282C100.403 56.6135 100.671 58.1065 100.671 59.7608C100.671 61.1461 100.447 62.4776 99.9985 63.7554C99.5505 65.0331 98.8909 66.1629 98.0198 67.1447C97.1487 68.1265 96.0784 68.9133 94.8091 69.5051C93.5521 70.0835 92.1023 70.3726 90.4596 70.3726C89.0658 70.3726 87.7529 70.1238 86.5208 69.6262C85.2888 69.1285 84.2123 68.4157 83.2914 67.4877C82.3705 66.5596 81.6425 65.4366 81.1073 64.1185C80.5722 62.787 80.3047 61.2941 80.3047 59.6397ZM90.8889 68.8999C91.7725 68.8999 92.5814 68.7116 93.3157 68.335C94.0624 67.9584 94.7033 67.4137 95.2384 66.7009C95.7735 65.988 96.1904 65.1205 96.4891 64.0983C96.7878 63.0761 96.9371 61.9195 96.9371 60.6283C96.9371 59.1757 96.794 57.8307 96.5078 56.5934C96.2215 55.3425 95.7922 54.2665 95.2197 53.3654C94.6597 52.4508 93.9504 51.738 93.0917 51.2269C92.233 50.7158 91.2312 50.4603 90.0863 50.4603C89.2027 50.4603 88.3938 50.6486 87.6595 51.0252C86.9253 51.3883 86.2844 51.9196 85.7368 52.6189C85.2017 53.3183 84.7848 54.1791 84.4861 55.2013C84.1874 56.21 84.0381 57.36 84.0381 58.6512C84.0381 60.1037 84.1812 61.4554 84.4674 62.7063C84.7661 63.9571 85.2017 65.0465 85.7741 65.9746C86.3466 66.8892 87.056 67.6087 87.9022 68.1333C88.7609 68.6444 89.7565 68.8999 90.8889 68.8999Z" fill="#1B67A1"/>
<path d="M123.661 56.4118C123.661 54.6364 123.331 53.3318 122.671 52.4979C122.012 51.664 121.128 51.2471 120.021 51.2471C119.622 51.2471 119.174 51.3412 118.677 51.5295C118.179 51.7044 117.668 51.9465 117.146 52.2558C116.623 52.5517 116.1 52.9014 115.578 53.3049C115.055 53.7084 114.564 54.1388 114.103 54.5961L114.066 57.2389V62.1212C114.066 63.2644 114.078 64.2665 114.103 65.1272C114.128 65.9746 114.165 66.7076 114.215 67.3263C114.265 67.945 114.321 68.4628 114.383 68.8797C114.445 69.2967 114.514 69.6464 114.588 69.9288V70.0095H110.276V69.9288C110.351 69.6464 110.419 69.2967 110.482 68.8797C110.556 68.4628 110.612 67.945 110.65 67.3263C110.699 66.7076 110.737 65.9746 110.762 65.1272C110.799 64.2665 110.818 63.2644 110.818 62.1212V57.2389C110.818 56.0957 110.799 55.1004 110.762 54.2531C110.737 53.3923 110.699 52.6526 110.65 52.0339C110.612 51.4152 110.556 50.8974 110.482 50.4804C110.419 50.0635 110.351 49.7138 110.276 49.4314V49.3507H114.588V49.4314C114.489 49.7676 114.408 50.198 114.346 50.7225C114.296 51.2336 114.24 51.9061 114.178 52.74C114.688 52.2827 115.236 51.8254 115.82 51.3681C116.418 50.9108 117.034 50.5073 117.668 50.1576C118.303 49.7945 118.95 49.5053 119.61 49.2901C120.269 49.0615 120.917 48.9472 121.551 48.9472C122.522 48.9472 123.343 49.1287 124.015 49.4919C124.7 49.855 125.254 50.3325 125.677 50.9243C126.112 51.5161 126.423 52.1953 126.61 52.9619C126.809 53.7151 126.909 54.4817 126.909 55.2618V62.1212C126.909 63.2644 126.921 64.2665 126.946 65.1272C126.971 65.9746 127.008 66.7076 127.058 67.3263C127.108 67.945 127.164 68.4628 127.226 68.8797C127.288 69.2967 127.357 69.6464 127.431 69.9288V70.0095H123.119V69.9288C123.194 69.6464 123.262 69.2967 123.325 68.8797C123.399 68.4628 123.455 67.945 123.493 67.3263C123.542 66.7076 123.58 65.9746 123.605 65.1272C123.642 64.2665 123.661 63.2644 123.661 62.1212V56.4118Z" fill="#1B67A1"/>
<path d="M146.931 53.4058L146.669 53.4461C146.582 53.1368 146.439 52.8072 146.24 52.4576C146.053 52.1079 145.804 51.7851 145.493 51.4892C145.195 51.1933 144.828 50.9512 144.392 50.7629C143.969 50.5611 143.477 50.4603 142.917 50.4603C142.532 50.4603 142.164 50.5208 141.816 50.6418C141.48 50.7629 141.181 50.9445 140.92 51.1865C140.671 51.4152 140.472 51.7044 140.323 52.0541C140.173 52.4038 140.099 52.814 140.099 53.2847C140.099 53.9438 140.285 54.5759 140.659 55.1811C141.044 55.7729 141.523 56.3647 142.096 56.9565C142.668 57.5348 143.284 58.1199 143.944 58.7117C144.616 59.3035 145.238 59.9222 145.811 60.5678C146.383 61.2134 146.856 61.906 147.229 62.6458C147.615 63.372 147.808 64.1589 147.808 65.0062C147.808 65.6921 147.696 66.3646 147.472 67.0237C147.248 67.6692 146.9 68.2476 146.427 68.7587C145.966 69.2698 145.369 69.6867 144.635 70.0095C143.913 70.3189 143.048 70.4735 142.04 70.4735C141.443 70.4735 140.883 70.413 140.36 70.292C139.85 70.1709 139.377 70.023 138.941 69.8481C138.518 69.6598 138.132 69.4581 137.784 69.2429C137.448 69.0142 137.149 68.799 136.888 68.5973L137.074 64.7641H137.373C137.498 65.3962 137.684 65.9746 137.933 66.4991C138.182 67.0237 138.487 67.4742 138.848 67.8508C139.221 68.214 139.644 68.5031 140.117 68.7183C140.59 68.9201 141.107 69.0209 141.667 69.0209C142.588 69.0209 143.316 68.7452 143.851 68.1938C144.398 67.6423 144.672 66.9228 144.672 66.0351C144.672 65.3223 144.485 64.6699 144.112 64.0782C143.751 63.4729 143.291 62.8946 142.731 62.3431C142.171 61.7917 141.567 61.2403 140.92 60.6888C140.285 60.1374 139.688 59.5523 139.128 58.9336C138.568 58.3015 138.101 57.6155 137.728 56.8758C137.367 56.1226 137.186 55.2686 137.186 54.3136C137.186 53.5335 137.317 52.8207 137.578 52.1751C137.852 51.5161 138.226 50.9579 138.699 50.5006C139.184 50.0299 139.756 49.6667 140.416 49.4112C141.075 49.1556 141.797 49.0279 142.581 49.0279C143.614 49.0279 144.473 49.1489 145.157 49.391C145.854 49.6196 146.383 49.8416 146.744 50.0568L146.931 53.4058Z" fill="#1B67A1"/>
<path d="M161.129 62.9484C161.129 64.7237 161.452 66.0284 162.099 66.8623C162.759 67.6961 163.642 68.1131 164.75 68.1131C165.148 68.1131 165.596 68.0257 166.094 67.8508C166.592 67.6625 167.102 67.4204 167.625 67.1245C168.16 66.8152 168.689 66.4588 169.211 66.0553C169.747 65.6518 170.238 65.2214 170.686 64.7641C170.711 64.3741 170.724 63.9638 170.724 63.5334C170.724 63.0896 170.724 62.6189 170.724 62.1212V57.2389C170.724 56.0957 170.705 55.1004 170.668 54.2531C170.643 53.3923 170.605 52.6526 170.556 52.0339C170.518 51.4152 170.462 50.8974 170.388 50.4804C170.325 50.0635 170.257 49.7138 170.182 49.4314V49.3507H174.494V49.4314C174.42 49.7138 174.351 50.0635 174.289 50.4804C174.227 50.8974 174.171 51.4152 174.121 52.0339C174.071 52.6526 174.034 53.3923 174.009 54.2531C173.984 55.1004 173.972 56.0957 173.972 57.2389V62.1212C173.972 63.2644 173.984 64.2665 174.009 65.1272C174.034 65.9746 174.071 66.7076 174.121 67.3263C174.171 67.945 174.227 68.4628 174.289 68.8797C174.351 69.2967 174.42 69.6464 174.494 69.9288V70.0095H170.182V69.9288C170.257 69.5926 170.332 69.1622 170.406 68.6376C170.493 68.1131 170.556 67.4271 170.593 66.5798C170.083 67.0506 169.529 67.5146 168.931 67.9719C168.347 68.4292 167.731 68.8394 167.083 69.2025C166.449 69.5657 165.802 69.8548 165.142 70.07C164.495 70.2987 163.854 70.413 163.219 70.413C162.249 70.413 161.421 70.2314 160.737 69.8683C160.065 69.5051 159.511 69.0277 159.075 68.4359C158.652 67.8441 158.341 67.1716 158.142 66.4184C157.955 65.6652 157.862 64.8919 157.862 64.0983V57.2389C157.862 56.0957 157.849 55.1004 157.825 54.2531C157.8 53.3923 157.762 52.6526 157.713 52.0339C157.663 51.4152 157.607 50.8974 157.544 50.4804C157.482 50.0635 157.414 49.7138 157.339 49.4314V49.3507H161.651V49.4314C161.577 49.7138 161.508 50.0635 161.446 50.4804C161.384 50.8974 161.328 51.4152 161.278 52.0339C161.228 52.6526 161.191 53.3923 161.166 54.2531C161.141 55.1004 161.129 56.0957 161.129 57.2389V62.9484Z" fill="#1B67A1"/>
<path d="M185.78 47.7367C185.78 46.5935 185.761 45.5982 185.724 44.7508C185.699 43.89 185.662 43.1503 185.612 42.5316C185.575 41.9129 185.519 41.3951 185.444 40.9782C185.382 40.5612 185.313 40.2115 185.239 39.9291V39.8484H189.551V39.9291C189.476 40.2115 189.408 40.5612 189.346 40.9782C189.283 41.3951 189.227 41.9129 189.177 42.5316C189.128 43.1503 189.09 43.89 189.065 44.7508C189.041 45.5982 189.028 46.5935 189.028 47.7367V62.1212C189.028 63.2644 189.041 64.2665 189.065 65.1272C189.09 65.9746 189.128 66.7076 189.177 67.3263C189.227 67.945 189.283 68.4628 189.346 68.8797C189.408 69.2967 189.476 69.6464 189.551 69.9288V70.0095H185.239V69.9288C185.313 69.6464 185.382 69.2967 185.444 68.8797C185.519 68.4628 185.575 67.945 185.612 67.3263C185.662 66.7076 185.699 65.9746 185.724 65.1272C185.761 64.2665 185.78 63.2644 185.78 62.1212V47.7367Z" fill="#1B67A1"/>
<path d="M207.594 68.8192C207.967 68.8192 208.335 68.7452 208.696 68.5973C209.069 68.4493 209.424 68.2476 209.76 67.992C210.108 67.7365 210.438 67.4473 210.749 67.1245C211.072 66.7883 211.371 66.4386 211.645 66.0754L211.832 66.1763L210.618 69.4244C210.469 69.5051 210.282 69.606 210.058 69.7271C209.847 69.8347 209.585 69.9355 209.274 70.0297C208.976 70.1373 208.621 70.2247 208.21 70.292C207.799 70.3726 207.314 70.413 206.754 70.413C205.087 70.413 203.786 69.9288 202.853 68.9604C201.932 67.9786 201.471 66.452 201.471 64.3808V50.9243L198.335 51.0453V49.27C198.721 49.2969 199.181 49.317 199.717 49.3305C200.252 49.3439 200.837 49.3507 201.471 49.3507C201.459 48.3957 201.434 47.5551 201.397 46.8288C201.372 46.0891 201.334 45.4502 201.285 44.9122C201.247 44.3608 201.198 43.8968 201.135 43.5202C201.073 43.1436 201.011 42.8275 200.949 42.572V42.4913H205.261V42.572C205.186 42.8275 205.118 43.1436 205.055 43.5202C204.993 43.8968 204.937 44.3541 204.887 44.8921C204.85 45.43 204.813 46.0689 204.775 46.8086C204.751 47.5349 204.732 48.3823 204.719 49.3507C205.503 49.3372 206.269 49.3238 207.015 49.3103C207.775 49.2834 208.459 49.2565 209.069 49.2296C209.691 49.1893 210.214 49.1556 210.637 49.1287C211.072 49.0884 211.359 49.0548 211.496 49.0279L211.16 51.0857C210.525 51.0722 209.859 51.052 209.162 51.0252C208.565 50.9983 207.88 50.9781 207.109 50.9646C206.337 50.9512 205.541 50.9377 204.719 50.9243V64.8044C204.719 65.6383 204.8 66.3175 204.962 66.8421C205.136 67.3532 205.354 67.7567 205.615 68.0526C205.889 68.3485 206.194 68.5502 206.53 68.6578C206.879 68.7654 207.233 68.8192 207.594 68.8192Z" fill="#1B67A1"/>
</svg>
