<svg width="277" height="72" viewBox="0 0 277 72" fill="none" xmlns="http://www.w3.org/2000/svg">
<path d="M21.0205 35.0112C27.5288 33.9103 38.901 27.9704 49.3109 22.5331C56.551 18.7515 63.3257 15.2129 67.6748 13.7146C61.0559 5.36551 50.856 0 39.3962 0C31.0305 0 23.2365 2.72904 17.2145 7.64044C9.31815 14.0784 6.87442 23.6929 8.88888 29.5143C10.0979 33.0153 13.0493 36.36 21.0205 35.0112Z" fill="url(#paint0_linear)"/>
<path d="M87.0717 14.9394C86.285 12.5186 85.1796 10.1594 83.7272 7.92378C82.2692 5.68946 80.5634 3.72281 78.6687 2.026C79.5242 2.21157 85.4408 3.48483 85.4792 3.46038C90.4576 0.203435 94.9328 0.588994 94.9328 0.588994C94.9328 0.588994 93.483 4.85372 88.5046 8.11023L88.1736 9.68826C87.7892 11.5223 87.192 14.371 87.0717 14.9394Z" fill="url(#paint1_linear)"/>
<path d="M0 62.0418L80.8901 9.48486C80.8901 9.48486 78.5169 13.8701 71.9899 20.6063C74.2577 25.3399 75.5368 30.6421 75.5368 36.2478C75.5368 54.2425 62.4596 69.1627 45.3182 72C55.36 68.333 62.649 59.0041 57.677 50.2458C54.0817 43.9075 44.605 44.5703 34.7408 48.7534C13.2218 57.8858 0 62.0418 0 62.0418Z" fill="url(#paint2_linear)"/>
<path d="M106.106 43.2444V45.6322H116C118.629 45.6322 120.61 43.678 120.61 41.0981V38.5347C120.61 37.4776 119.866 36.3991 118.91 36.0832L109.65 33.0631V30.7365C109.65 30.0429 110.281 29.7311 110.859 29.7311H119.142C119.679 29.7311 120.1 29.3076 120.1 28.777V26.3909H110.859C108.058 26.3909 106.106 28.1363 106.106 30.6461V33.4884C106.106 34.5259 106.885 35.5871 107.879 35.9161L117.142 38.9434V41.1195C117.142 41.7715 116.64 42.2944 116 42.2944H107.068C106.532 42.2944 106.106 42.7114 106.106 43.2444Z" fill="url(#paint3_linear)"/>
<path fill-rule="evenodd" clip-rule="evenodd" d="M127.102 45.6322V28.4153C127.102 27.2957 128.022 26.3909 129.151 26.3909H136.706C139.326 26.3909 141.462 28.4998 141.462 31.0964V33.4634C141.462 36.0648 139.326 38.173 136.706 38.173H131.421C131.159 38.173 130.906 38.132 130.664 38.0535V44.6822C130.664 45.2009 130.227 45.6322 129.706 45.6322H127.102ZM136.706 34.8286C137.361 34.8286 137.895 34.3063 137.895 33.6537V30.9042C137.895 30.2534 137.361 29.7311 136.706 29.7311H130.664V34.8286H136.706Z" fill="url(#paint4_linear)"/>
<path fill-rule="evenodd" clip-rule="evenodd" d="M160.425 44.8559C160.559 45.3122 160.987 45.6322 161.481 45.6322H164.374L157.715 26.9031C157.55 26.589 157.211 26.3909 156.845 26.3909H153.974C152.858 26.3909 151.841 27.1012 151.45 28.1571L145.26 45.6322H148.154C148.627 45.6322 149.077 45.3086 149.201 44.8904L150.664 40.712H158.973L160.425 44.8559ZM157.793 37.3657L155.104 29.7311H154.518L151.837 37.3657H157.793Z" fill="url(#paint5_linear)"/>
<path d="M169.648 40.9244C169.648 43.5216 171.775 45.6322 174.406 45.6322H183.014V43.2444C183.014 42.728 182.574 42.2944 182.058 42.2944H174.406C173.747 42.2944 173.212 41.7637 173.212 41.1195V30.9042C173.212 30.2534 173.747 29.7311 174.406 29.7311H182.058C182.574 29.7311 183.014 29.2951 183.014 28.777V26.3909H174.406C171.775 26.3909 169.648 28.4998 169.648 31.0964V40.9244Z" fill="url(#paint6_linear)"/>
<path d="M194.655 45.6322C192.029 45.6322 189.902 43.5216 189.902 40.9244V31.0964C189.902 28.4998 192.029 26.3909 194.655 26.3909H203.436V28.777C203.436 29.2951 202.991 29.7311 202.473 29.7311H194.655C193.997 29.7311 193.466 30.2534 193.466 30.9042V34.3849C193.64 34.3545 193.818 34.3254 194.002 34.3254H202.591V36.7168C202.591 37.2331 202.149 37.6692 201.635 37.6692H193.466V41.1195C193.466 41.7637 193.997 42.2944 194.655 42.2944H202.473C202.991 42.2944 203.436 42.728 203.436 43.2444V45.6322H194.655Z" fill="url(#paint7_linear)"/>
<path d="M209.93 43.2444V45.6322H219.819C222.455 45.6322 224.432 43.678 224.432 41.0981V38.5347C224.432 37.4604 223.698 36.4075 222.73 36.0832L213.473 33.0631V30.7365C213.473 30.0429 214.093 29.7311 214.68 29.7311H222.965C223.502 29.7311 223.925 29.3076 223.925 28.777V26.3909H214.68C211.882 26.3909 209.93 28.1363 209.93 30.6461V33.4884C209.93 34.5259 210.707 35.5871 211.702 35.9161L220.96 38.9434V41.1195C220.96 41.7715 220.463 42.2944 219.819 42.2944H210.896C210.357 42.2944 209.93 42.7114 209.93 43.2444Z" fill="url(#paint8_linear)"/>
<path d="M242.821 45.6322C242.297 45.6322 241.858 45.2009 241.858 44.6822V37.6692H234.483V44.6822C234.483 45.2009 234.043 45.6322 233.52 45.6322H230.922V26.3909H233.52C234.043 26.3909 234.483 26.8222 234.483 27.3409V34.3254H241.858V27.3409C241.858 26.8222 242.297 26.3909 242.821 26.3909H245.423V45.6322H242.821Z" fill="url(#paint9_linear)"/>
<path d="M251.914 44.6822C251.914 45.2009 252.358 45.6322 252.877 45.6322H255.487V27.3409C255.487 26.8222 255.044 26.3909 254.52 26.3909H251.914V44.6822Z" fill="url(#paint10_linear)"/>
<path fill-rule="evenodd" clip-rule="evenodd" d="M271.583 34.8285C272.241 34.8285 272.774 34.3062 272.774 33.6536V30.9041C272.774 30.2533 272.241 29.731 271.583 29.731H265.546V34.8285H271.583ZM261.981 45.6322V28.4153C261.981 27.2957 262.898 26.3909 264.027 26.3909H271.58C274.201 26.3909 276.341 28.4997 276.341 31.0964V33.4634C276.341 36.0648 274.201 38.173 271.58 38.173H266.291C266.036 38.173 265.777 38.132 265.542 38.0535V44.6822C265.542 45.2009 265.1 45.6322 264.576 45.6322H261.981Z" fill="url(#paint11_linear)"/>
<defs>
<linearGradient id="paint0_linear" x1="148.709" y1="-25.1023" x2="112.28" y2="99.0654" gradientUnits="userSpaceOnUse">
<stop stop-color="#5B0192"/>
<stop offset="1" stop-color="#0E0044"/>
</linearGradient>
<linearGradient id="paint1_linear" x1="148.709" y1="-25.1023" x2="112.28" y2="99.0654" gradientUnits="userSpaceOnUse">
<stop stop-color="#5B0192"/>
<stop offset="1" stop-color="#0E0044"/>
</linearGradient>
<linearGradient id="paint2_linear" x1="148.709" y1="-25.1023" x2="112.28" y2="99.0654" gradientUnits="userSpaceOnUse">
<stop stop-color="#5B0192"/>
<stop offset="1" stop-color="#0E0044"/>
</linearGradient>
<linearGradient id="paint3_linear" x1="148.709" y1="-25.1023" x2="112.28" y2="99.0654" gradientUnits="userSpaceOnUse">
<stop stop-color="#5B0192"/>
<stop offset="1" stop-color="#0E0044"/>
</linearGradient>
<linearGradient id="paint4_linear" x1="148.709" y1="-25.1023" x2="112.28" y2="99.0654" gradientUnits="userSpaceOnUse">
<stop stop-color="#5B0192"/>
<stop offset="1" stop-color="#0E0044"/>
</linearGradient>
<linearGradient id="paint5_linear" x1="148.709" y1="-25.1023" x2="112.28" y2="99.0654" gradientUnits="userSpaceOnUse">
<stop stop-color="#5B0192"/>
<stop offset="1" stop-color="#0E0044"/>
</linearGradient>
<linearGradient id="paint6_linear" x1="148.709" y1="-25.1023" x2="112.28" y2="99.0654" gradientUnits="userSpaceOnUse">
<stop stop-color="#5B0192"/>
<stop offset="1" stop-color="#0E0044"/>
</linearGradient>
<linearGradient id="paint7_linear" x1="148.709" y1="-25.1023" x2="112.28" y2="99.0654" gradientUnits="userSpaceOnUse">
<stop stop-color="#5B0192"/>
<stop offset="1" stop-color="#0E0044"/>
</linearGradient>
<linearGradient id="paint8_linear" x1="148.709" y1="-25.1023" x2="112.28" y2="99.0654" gradientUnits="userSpaceOnUse">
<stop stop-color="#5B0192"/>
<stop offset="1" stop-color="#0E0044"/>
</linearGradient>
<linearGradient id="paint9_linear" x1="148.709" y1="-25.1023" x2="112.28" y2="99.0654" gradientUnits="userSpaceOnUse">
<stop stop-color="#5B0192"/>
<stop offset="1" stop-color="#0E0044"/>
</linearGradient>
<linearGradient id="paint10_linear" x1="148.709" y1="-25.1023" x2="112.28" y2="99.0654" gradientUnits="userSpaceOnUse">
<stop stop-color="#5B0192"/>
<stop offset="1" stop-color="#0E0044"/>
</linearGradient>
<linearGradient id="paint11_linear" x1="148.709" y1="-25.1023" x2="112.28" y2="99.0654" gradientUnits="userSpaceOnUse">
<stop stop-color="#5B0192"/>
<stop offset="1" stop-color="#0E0044"/>
</linearGradient>
</defs>
</svg>
