<svg width="283" height="64" viewBox="0 0 283 64" fill="none" xmlns="http://www.w3.org/2000/svg">
<g clip-path="url(#clip0)">
<path d="M50.3063 17.9765C49.9769 9.69413 46.9651 3.20001 41.5063 0.941181C35.7181 -1.45882 28.5181 1.3647 22.1181 7.67059C11.8593 7.01176 3.52985 10.0706 0.847498 16.4235C-1.5525 22.2118 1.27103 29.4118 7.57691 35.8118C5.08279 48.7059 8.00044 59.8588 15.5298 63.0118C23.2475 66.2588 33.5063 60.1412 40.9887 48.8C41.0357 48.753 41.0357 48.7059 41.0828 48.6588C41.5063 48 41.9769 47.2941 42.4004 46.5412C42.4475 46.4941 42.4946 46.4471 42.4946 46.353L42.5416 46.3059C42.5416 46.3059 41.9298 48.2824 40.8475 51.0118C51.4828 51.9059 60.1887 48.8471 62.9181 42.3059C66.0239 34.9647 60.6122 25.3177 50.3063 17.9765ZM34.2593 38.9177C33.8828 39.7177 33.5063 40.4706 33.1298 41.2235C33.0828 41.3177 32.9887 41.4588 32.9416 41.5529C32.5651 42.2118 32.2357 42.8706 31.8593 43.5294C31.8122 43.5765 31.8122 43.6706 31.7651 43.7177L31.671 43.8588C31.671 43.8588 32.424 41.5529 32.9416 38.4941C31.5769 38.0235 30.1651 37.4588 28.7534 36.8941C23.1063 34.5412 18.071 31.6706 14.1651 28.753C14.4475 28 14.7769 27.2 15.1063 26.4C17.5063 20.6588 20.3769 15.6235 23.3416 11.6706C27.7181 12.5176 32.5651 13.9294 37.5063 16C38.6828 16.4706 39.7651 16.9882 40.8945 17.5059C40.2828 22.7294 38.6357 28.8471 36.0004 35.1059C35.4357 36.3765 34.871 37.6471 34.2593 38.9177ZM37.1298 2.9647C39.7651 4.04706 41.0828 7.67059 41.1298 12.7059C40.5181 12.4235 39.8593 12.1412 39.2004 11.8588C34.824 10.0235 30.4004 8.8 26.2593 8.14118C30.2593 3.81176 34.2122 1.74118 37.1298 2.9647ZM5.36515 14.8235C6.72985 11.5294 12.0004 10.3059 19.0593 11.0118C15.9534 14.7765 13.1769 19.4353 10.9651 24.6588C10.824 25.0353 10.6828 25.3647 10.5416 25.7412C6.2122 21.6941 4.14162 17.6941 5.36515 14.8235ZM27.671 49.9294C22.7298 56.5177 17.5534 60 13.9298 58.4941C9.78867 56.7529 8.89456 48.8941 11.0593 38.9647C14.824 42.0235 19.3887 44.753 24.5651 46.9177C25.9769 47.4824 27.3416 48 28.7063 48.4706C28.7534 48.4706 28.8004 48.5177 28.8946 48.5177C29.6004 48.753 30.3534 48.9882 31.0593 49.1765C31.2946 49.2235 31.4828 49.3177 31.7181 49.3647C32.3769 49.553 33.0828 49.7412 33.7416 49.8824C33.8357 49.9294 33.9769 49.9294 34.071 49.9765C33.6475 49.9294 31.0593 50.0706 27.671 49.9294ZM60.8945 38.0235C59.3416 41.6941 52.9887 42.7765 44.6122 41.5059C44.0475 41.4118 43.4828 41.3177 42.9181 41.2235C42.6357 41.1765 42.3534 41.1294 42.024 41.0353C41.5063 40.9412 40.9416 40.8 40.424 40.6588C40.2357 40.6118 40.0475 40.5647 39.8122 40.5177C40.6593 40.5177 42.9651 40.4706 45.6945 40.0471C45.7887 39.8118 45.9298 39.5765 46.024 39.2941C48.3769 33.6 49.7416 27.9529 50.1651 22.7294C58.1181 28.1412 62.5416 34.0235 60.8945 38.0235Z" fill="#E3000F"/>
<path d="M99.483 27.2471C99.483 24.3765 98.7301 22.353 97.2242 21.2235C95.7654 20.1412 93.7418 19.5765 91.2007 19.5765C90.3065 19.5765 89.4595 19.6235 88.7536 19.7647C88.0477 19.8588 87.436 20.0471 86.9183 20.2353L86.9654 20.1882C86.4477 20.4235 85.9771 20.6588 85.6477 20.9412C85.2713 21.2235 84.9889 21.5529 84.7065 21.8353C84.236 22.4471 83.9536 23.0588 83.8124 23.5765C83.6713 24.1882 83.5771 24.5647 83.5771 24.8C83.5771 25.4118 83.6242 25.9765 83.7654 26.4C83.8595 26.8706 84.0477 27.2471 84.3301 27.6235C84.8477 28.3294 85.5065 28.8 86.3065 29.0824C87.2477 29.4118 88.3301 29.7882 89.5065 30.1177C90.683 30.4471 91.9536 30.8235 93.2242 31.1059L93.1771 31.0588C93.6948 31.153 94.2595 31.2941 94.7771 31.4353C95.2948 31.5765 95.8595 31.7177 96.3771 31.9059H96.3301C96.8948 32.0471 97.4124 32.2353 97.9301 32.4235C98.4007 32.6118 98.8713 32.8941 99.3418 33.1765H99.2948C100.283 33.7412 100.989 34.4471 101.507 35.3412C102.024 36.2824 102.307 37.4588 102.307 38.8706C102.212 41.6941 101.083 43.7647 98.9183 45.1294C96.8477 46.353 94.4948 46.9647 91.9065 46.9647C84.1889 47.0118 80.3771 43.3412 80.3301 35.953H82.4477C82.5418 41.9294 85.6948 44.8941 91.9065 44.8471C92.8948 44.8471 93.883 44.753 94.8242 44.5177C95.7654 44.2824 96.6595 43.9059 97.5536 43.4353C99.2477 42.5412 100.095 41.0353 100.189 38.9647V39.0118C100.189 37.8824 99.9536 36.9883 99.5301 36.3294L99.5771 36.3765C99.3418 36.0471 99.0124 35.7177 98.683 35.4824C98.3536 35.2 97.9771 34.9647 97.5536 34.7765C97.1301 34.5412 96.7065 34.353 96.236 34.1647C95.7654 33.9765 95.2477 33.7882 94.683 33.6471C94.2124 33.5059 93.6948 33.3647 93.036 33.2235H93.083C92.8007 33.1765 92.4713 33.1294 92.1889 33.0824C91.9065 33.0353 91.5771 32.9882 91.2948 32.9412C90.0242 32.6588 88.8948 32.3765 87.8595 32.0471C86.8242 31.7177 85.883 31.3882 85.036 31.0588L85.083 31.1059C82.683 30.1177 81.4595 28.0941 81.4595 24.9882C81.4595 23.2471 82.2124 21.6 83.7654 20.0471C84.6124 19.2941 85.6007 18.6824 86.8242 18.2118C87.3889 18.0235 88.0477 17.8824 88.8007 17.7882C89.5536 17.6941 90.3536 17.6471 91.2477 17.6471C98.0242 17.553 101.459 20.8 101.648 27.3883H99.483V27.2471Z" fill="#100E09"/>
<path d="M123.719 46.6824C123.719 46.4471 123.719 43.3882 123.719 43.153C123.719 42.9177 123.719 42.6353 123.766 42.3529V41.8824C123.201 43.0118 122.401 44 121.366 44.8471V44.8C119.578 46.3059 117.272 47.0588 114.448 47.0588C111.53 47.0588 109.083 46.1177 107.154 44.3294C105.225 42.5882 104.236 40.0471 104.236 36.7529V18.1177H106.354V36.6118C106.354 38.0706 106.589 39.3412 106.966 40.4235C107.342 41.5059 107.954 42.3529 108.754 43.0118C110.26 44.3294 112.142 44.9882 114.448 44.9882C117.554 44.9882 119.907 43.8588 121.46 41.6941C123.06 39.6235 123.86 37.0824 123.86 34.0706V18.1177H125.978V36.9882C125.978 37.6941 125.978 38.3059 125.978 38.8706C125.978 39.4353 125.978 39.9529 125.978 40.4235C125.978 40.7529 125.978 41.0353 125.978 41.3176C125.978 41.6 125.978 41.8353 125.978 42.0706C125.978 42.5882 125.978 46.4 126.025 46.6824H123.719Z" fill="#100E09"/>
<path d="M140.801 47.0118C135.625 46.9177 132.096 44.8471 130.26 40.8941V56.9882H128.143V42.8706C128.143 42.6824 128.143 42.4471 128.143 42.1647C128.143 41.8824 128.143 41.553 128.143 41.2235C128.143 40.753 128.143 40.2353 128.143 39.7177C128.143 39.1529 128.143 38.5883 128.143 37.9765C128.143 36.9412 128.143 35.8588 128.19 34.7294C128.237 33.6 128.284 32.5177 128.331 31.4353C128.425 30.3529 128.519 29.3647 128.66 28.4235C128.801 27.4824 128.99 26.6824 129.272 26.0235V26.0706C130.119 23.5294 131.531 21.4588 133.46 19.9059V19.9529C135.484 18.3059 137.931 17.4588 140.801 17.4118C144.613 17.5059 147.578 18.9177 149.743 21.6941C151.86 24.3765 152.895 27.8588 152.895 32.1412C152.895 36.2824 151.86 39.7647 149.79 42.5412C147.813 45.4118 144.801 46.9177 140.801 47.0118ZM130.26 32.1412C130.354 36.2824 131.296 39.4353 133.084 41.5529C134.872 43.6706 137.46 44.8 140.801 44.8941C142.543 44.8471 144.095 44.4706 145.366 43.8118C146.637 43.153 147.672 42.2118 148.472 40.9412C150.072 38.353 150.825 35.3883 150.825 32.0941C150.825 28.6118 149.978 25.6471 148.331 23.2C146.684 20.7059 144.19 19.4824 140.801 19.4353C137.413 19.4824 134.872 20.7529 133.084 23.2471C131.201 25.7412 130.26 28.7059 130.26 32.1412Z" fill="#100E09"/>
<path d="M156.659 33.0353C156.706 34.8235 156.894 36.3765 157.317 37.7412C157.694 39.1059 158.306 40.3294 159.106 41.4588C160.659 43.8118 163.294 44.9882 166.917 45.0353C172.517 45.0353 175.953 42.0235 177.129 36H179.247C178.776 39.6706 177.459 42.4471 175.294 44.2824C173.082 46.1647 170.306 47.1059 167.059 47.1529C162.729 47.1059 159.529 45.6941 157.553 42.8235V42.8706C155.529 40.0941 154.541 36.6118 154.541 32.3765C154.635 27.6706 155.906 24 158.447 21.4118H158.4C160.8 18.8235 163.67 17.5529 167.012 17.5529C169.223 17.6 171.106 18.0235 172.753 18.8235C174.4 19.6235 175.717 20.7529 176.753 22.2118C177.129 22.8706 177.506 23.5765 177.835 24.3294C178.165 25.0824 178.447 25.8824 178.729 26.6824C178.965 27.4824 179.153 28.3294 179.294 29.1765C179.435 30.0235 179.529 30.8706 179.529 31.6706C179.529 31.8118 179.529 32 179.529 32.1882C179.529 32.3765 179.482 32.7059 179.482 33.1765H156.659V33.0353ZM177.412 30.9177C177.365 29.3177 177.129 27.8588 176.706 26.5882C176.282 25.2706 175.67 24.0941 174.823 23.0118C173.082 20.8 170.541 19.6706 167.106 19.6235C164.282 19.6706 161.882 20.7059 159.953 22.7294C159.012 23.7647 158.259 24.9412 157.741 26.2588C157.223 27.6235 156.847 29.1765 156.659 30.9177H177.412Z" fill="#100E09"/>
<path d="M183.624 46.4471H181.506V18.1176H183.624V22.8706C184.235 21.6471 185.129 20.6118 186.212 19.7176C187.106 18.9647 188.282 18.4 189.647 18.0235C191.059 17.6471 192.612 17.4588 194.447 17.5059V19.6235C190.588 19.5294 187.812 20.5647 186.165 22.7294C184.471 24.9412 183.624 27.5294 183.624 30.5412V46.4471Z" fill="#100E09"/>
<path d="M200.705 8.28236H196.705V46.4471H200.705V8.28236Z" fill="#100E09"/>
<path d="M202.307 32.2824C202.307 30.3059 202.589 28.4706 203.201 26.7765C203.813 25.0353 204.613 23.4824 205.601 22.1176C206.73 20.7059 208.095 19.5765 209.742 18.7765C211.342 17.9765 213.177 17.5529 215.248 17.5059C217.318 17.5529 219.154 17.9765 220.801 18.7765C222.448 19.5765 223.813 20.7059 224.942 22.1176C225.977 23.4824 226.777 25.0353 227.295 26.7765C227.813 28.5176 228.095 30.3529 228.095 32.2824C228.095 34.2588 227.86 36.0471 227.295 37.7412C226.777 39.4353 225.977 40.9882 224.895 42.4C222.636 45.3647 219.389 46.9176 215.107 47.0118C213.083 46.9647 211.248 46.5412 209.648 45.7412C208.048 44.9412 206.683 43.8118 205.554 42.4C204.471 40.9882 203.671 39.4353 203.107 37.7412C202.589 36.0471 202.307 34.2118 202.307 32.2824ZM206.354 32.2824C206.354 33.7882 206.542 35.1529 206.965 36.3765C207.389 37.6471 207.954 38.7765 208.754 39.8588C210.26 41.9294 212.424 42.9647 215.295 43.0588C218.213 43.0118 220.424 41.9294 221.93 39.8588C223.483 37.7882 224.236 35.2471 224.236 32.2824C224.236 29.3177 223.483 26.7765 221.93 24.6588C220.471 22.6353 218.26 21.5529 215.295 21.5059C212.377 21.5529 210.213 22.5882 208.754 24.6588C208.001 25.7412 207.389 26.9176 206.965 28.1882C206.542 29.4588 206.354 30.8235 206.354 32.2824Z" fill="#100E09"/>
<path d="M229.602 32.2824C229.602 30.3059 229.884 28.4706 230.496 26.7765C231.107 25.0353 231.907 23.4824 232.896 22.1176C234.025 20.7059 235.39 19.5765 236.99 18.7765C238.59 17.9765 240.425 17.5529 242.496 17.5059C244.566 17.5529 246.402 17.9765 248.049 18.7765C249.696 19.5765 251.06 20.7059 252.19 22.1176C253.225 23.4824 254.025 25.0353 254.543 26.7765C255.061 28.5176 255.343 30.3529 255.343 32.2824C255.343 34.2588 255.061 36.0471 254.543 37.7412C254.025 39.4353 253.225 40.9882 252.143 42.4C249.884 45.3647 246.637 46.9176 242.355 47.0118C240.331 46.9647 238.496 46.5412 236.896 45.7412C235.296 44.9412 233.931 43.8118 232.802 42.4C231.719 40.9882 230.919 39.4353 230.355 37.7412C229.884 36.0471 229.602 34.2118 229.602 32.2824ZM233.602 32.2824C233.602 33.7882 233.79 35.1529 234.213 36.3765C234.637 37.6471 235.202 38.7765 236.002 39.8588C237.507 41.9294 239.672 42.9647 242.543 43.0588C245.46 43.0118 247.672 41.9294 249.178 39.8588C250.731 37.7882 251.484 35.2471 251.484 32.2824C251.484 29.3177 250.731 26.7765 249.178 24.6588C247.719 22.6353 245.508 21.5529 242.543 21.5059C239.625 21.5529 237.46 22.5882 236.002 24.6588C235.249 25.7412 234.637 26.9176 234.213 28.1882C233.837 29.4588 233.602 30.8235 233.602 32.2824Z" fill="#100E09"/>
<path d="M270.071 46.9647C268.236 46.9177 266.542 46.6353 265.083 46.0235C263.624 45.4118 262.353 44.6118 261.318 43.5294V56.2353H257.365V41.1294C257.365 41.0353 257.365 40.9412 257.365 40.8471C257.365 40.7529 257.365 40.6588 257.365 40.5647V38.4471C257.365 38.3059 257.365 38.1647 257.365 37.9765C257.365 37.8353 257.365 37.6471 257.365 37.5059C257.365 36.5177 257.365 35.4824 257.412 34.4471C257.459 33.3647 257.506 32.3294 257.553 31.2941C257.648 30.2588 257.742 29.3177 257.883 28.4235C258.024 27.5294 258.212 26.7765 258.448 26.1647V26.2118C258.871 24.8941 259.436 23.7177 260.142 22.6824C260.848 21.6471 261.695 20.753 262.636 20H262.589C263.624 19.2 264.753 18.5882 265.977 18.1177C267.248 17.6941 268.612 17.4588 270.071 17.4118C272.001 17.4588 273.695 17.8353 275.248 18.5882C276.753 19.3412 278.071 20.4235 279.2 21.7882C280.189 23.0588 280.942 24.6118 281.506 26.353C282.071 28.0941 282.353 30.0235 282.353 32.0471C282.353 34.0706 282.118 35.953 281.6 37.6471C281.083 39.3412 280.33 40.8941 279.295 42.3059V42.2588C277.177 45.3647 274.118 46.8706 270.071 46.9647ZM263.718 24.5647C262.118 26.6824 261.318 29.1765 261.318 32.1412C261.365 33.8353 261.601 35.3412 262.024 36.6588C262.448 37.9765 263.059 39.0588 263.812 39.9529C264.565 40.8471 265.506 41.5529 266.542 42.0706C267.577 42.5882 268.801 42.8706 270.118 43.0118C271.53 42.9647 272.753 42.6353 273.789 42.1177C274.824 41.553 275.671 40.8 276.283 39.8588V39.9059C276.895 38.7765 277.412 37.6 277.789 36.2824C278.165 34.9647 278.353 33.6471 278.353 32.1882C278.353 29.1765 277.648 26.6353 276.189 24.5177C274.871 22.4941 272.848 21.5059 270.071 21.4588C268.706 21.4588 267.483 21.7412 266.448 22.2588C265.365 22.7294 264.471 23.5294 263.718 24.5647Z" fill="#100E09"/>
</g>
<defs>
<clipPath id="clip0">
<rect width="282.353" height="64" fill="white"/>
</clipPath>
</defs>
</svg>
