<svg width="225" height="80" viewBox="0 0 225 80" fill="none" xmlns="http://www.w3.org/2000/svg">
<path d="M62.1621 23.3779H76.3377C79.7339 23.3779 82.3623 24.3082 84.2228 26.1688C84.9021 26.8775 85.4337 27.7044 85.8176 28.6495C86.231 29.5945 86.4378 30.6725 86.4378 31.8833C86.4378 33.6848 85.9505 35.1614 84.9759 36.3132C84.0013 37.4649 82.6281 38.2918 80.8561 38.7939V38.9268C81.8602 39.163 82.7757 39.5027 83.6027 39.9456C84.4591 40.3886 85.1974 40.9497 85.8176 41.629C86.4378 42.2787 86.9103 43.0465 87.2351 43.9325C87.5895 44.789 87.7667 45.7635 87.7667 46.8562C87.7667 48.1852 87.5452 49.396 87.1023 50.4887C86.6593 51.5519 86.0391 52.4822 85.2417 53.2795C84.2967 54.2541 83.1301 55.0072 81.7421 55.5388C80.3541 56.0704 78.7741 56.3361 77.0022 56.3361H62.1621V23.3779ZM75.7175 37.4206C77.6666 37.4206 79.1728 36.9776 80.236 36.0917C81.3287 35.1762 81.875 33.8767 81.875 32.1934C81.875 30.6282 81.373 29.4173 80.3689 28.5609C79.3943 27.7044 78.021 27.2762 76.2491 27.2762H66.6806V37.4206H75.7175ZM76.7364 52.3493C78.9513 52.3493 80.6051 51.8029 81.6978 50.7102C82.6724 49.7947 83.1597 48.5543 83.1597 46.9891C83.1597 45.0105 82.5247 43.5338 81.2548 42.5593C80.0145 41.5847 78.4197 41.0974 76.4706 41.0974H66.6806V52.3493H76.7364Z" fill="#330047"/>
<path d="M106.928 56.3361V53.0137H106.839C105.982 54.195 104.993 55.1401 103.871 55.8489C102.778 56.5281 101.375 56.8677 99.6625 56.8677C97.1818 56.8677 95.2179 56.1737 93.7708 54.7857C92.3237 53.3977 91.6002 51.4485 91.6002 48.9383V32.5478H95.72V48.7168C95.72 50.2229 96.1629 51.4042 97.0489 52.2607C97.9644 53.0876 99.2491 53.501 100.903 53.501C101.818 53.501 102.645 53.3386 103.384 53.0137C104.122 52.6889 104.742 52.2459 105.244 51.6848C105.776 51.0941 106.174 50.4001 106.44 49.6027C106.736 48.8054 106.883 47.9489 106.883 47.0334V32.5478H111.003V56.3361H106.928Z" fill="#330047"/>
<path d="M120.332 36.8447H120.464C121.203 35.4567 122.163 34.3492 123.344 33.5223C124.525 32.6659 125.913 32.2377 127.508 32.2377C127.833 32.2377 128.099 32.2672 128.305 32.3263C128.542 32.3558 128.778 32.4149 129.014 32.5035V36.4017H128.881C128.586 36.3132 128.32 36.2541 128.084 36.2246C127.848 36.195 127.552 36.1803 127.198 36.1803C126.282 36.1803 125.411 36.3575 124.584 36.7118C123.757 37.0367 123.034 37.5092 122.414 38.1294C121.793 38.7496 121.291 39.5027 120.907 40.3886C120.553 41.2746 120.376 42.2787 120.376 43.4009V56.3361H116.256V32.5478H120.332V36.8447Z" fill="#330047"/>
<path d="M141.75 64.6643C138.62 64.6643 136.183 64.0736 134.441 62.8923C132.728 61.7406 131.753 60.1015 131.517 57.9752H135.371C135.548 59.2156 136.198 60.1015 137.32 60.6331C138.443 61.1942 139.89 61.4748 141.662 61.4748C143.788 61.4748 145.412 60.9875 146.534 60.0129C147.686 59.0679 148.262 57.5765 148.262 55.5388V54.8743C148.262 54.195 148.262 53.5601 148.262 52.9694C148.292 52.3493 148.321 51.8472 148.351 51.4633H148.262C147.435 52.6446 146.461 53.5749 145.338 54.2541C144.246 54.9334 142.858 55.273 141.174 55.273C139.668 55.273 138.265 54.9924 136.966 54.4313C135.696 53.8702 134.603 53.0728 133.688 52.0392C132.772 51.0055 132.049 49.7799 131.517 48.3624C131.015 46.9448 130.764 45.3648 130.764 43.6224C130.764 41.7914 131.03 40.1524 131.562 38.7053C132.093 37.2582 132.817 36.0474 133.732 35.0728C134.677 34.0687 135.77 33.3008 137.01 32.7693C138.251 32.2377 139.565 31.9719 140.953 31.9719C142.666 31.9719 144.098 32.2967 145.25 32.9465C146.431 33.5666 147.406 34.4821 148.174 35.693H148.262V32.5478H152.338V55.3616C152.338 56.9563 152.087 58.3296 151.585 59.4813C151.082 60.6626 150.374 61.6372 149.458 62.4051C148.513 63.1729 147.391 63.734 146.091 64.0884C144.792 64.4723 143.345 64.6643 141.75 64.6643ZM141.573 51.9063C142.872 51.9063 143.965 51.6996 144.851 51.2861C145.737 50.8431 146.446 50.2525 146.977 49.5142C147.539 48.7463 147.937 47.8456 148.174 46.8119C148.41 45.7783 148.528 44.6561 148.528 43.4452C148.528 40.935 147.952 38.9711 146.8 37.5535C145.678 36.1064 143.921 35.3829 141.529 35.3829C139.343 35.3829 137.704 36.136 136.612 37.6421C135.519 39.1483 134.973 41.1565 134.973 43.6667C134.973 46.2065 135.534 48.2147 136.656 49.6913C137.778 51.168 139.417 51.9063 141.573 51.9063Z" fill="#330047"/>
<path d="M167.88 57.0006C166.049 57.0006 164.41 56.6758 162.963 56.0261C161.545 55.3763 160.335 54.4904 159.33 53.3681C158.326 52.2164 157.558 50.8874 157.027 49.3813C156.525 47.8456 156.274 46.2065 156.274 44.4641C156.274 42.7512 156.54 41.1417 157.071 39.6356C157.632 38.0999 158.4 36.7709 159.375 35.6487C160.379 34.4969 161.575 33.5962 162.963 32.9465C164.38 32.2967 165.946 31.9719 167.659 31.9719C169.431 31.9719 170.996 32.2967 172.354 32.9465C173.713 33.5962 174.864 34.4969 175.81 35.6487C176.784 36.83 177.508 38.2475 177.98 39.9013C178.482 41.5552 178.733 43.4009 178.733 45.4387H160.482C160.571 46.5904 160.792 47.6684 161.147 48.6725C161.501 49.6766 161.988 50.5478 162.609 51.2861C163.229 52.0244 163.982 52.6003 164.868 53.0137C165.754 53.4272 166.773 53.6339 167.924 53.6339C169.578 53.6339 170.937 53.2795 172 52.5708C173.093 51.8324 173.831 50.8283 174.215 49.5584H178.246C177.714 51.7734 176.533 53.5749 174.702 54.9629C172.901 56.3214 170.627 57.0006 167.88 57.0006ZM167.659 35.1614C166.595 35.1614 165.65 35.3533 164.823 35.7373C163.997 36.0917 163.288 36.5937 162.697 37.2434C162.106 37.8931 161.634 38.661 161.28 39.547C160.925 40.4329 160.689 41.4075 160.571 42.4707H174.348C174.23 40.1671 173.595 38.3804 172.443 37.1105C171.321 35.8111 169.726 35.1614 167.659 35.1614Z" fill="#330047"/>
<path d="M191.769 57.0449C188.462 57.0449 185.907 56.3361 184.106 54.9186C182.304 53.4715 181.315 51.5371 181.138 49.1155H185.302C185.42 49.9719 185.671 50.6954 186.055 51.2861C186.439 51.8767 186.911 52.3493 187.472 52.7037C188.063 53.058 188.728 53.3238 189.466 53.501C190.204 53.6487 191.002 53.7225 191.858 53.7225C193.748 53.7225 195.107 53.3681 195.933 52.6594C196.79 51.921 197.218 51.0203 197.218 49.9571C197.218 48.6577 196.701 47.757 195.668 47.2549C194.664 46.7233 193.113 46.2508 191.016 45.8374C189.865 45.6011 188.742 45.3353 187.65 45.04C186.586 44.7447 185.641 44.346 184.815 43.8439C184.017 43.3419 183.367 42.6774 182.865 41.8505C182.393 41.0236 182.157 39.9604 182.157 38.661C182.157 36.6232 182.91 35.0137 184.416 33.8324C185.952 32.6216 188.107 32.0162 190.883 32.0162C193.866 32.0162 196.125 32.6511 197.661 33.921C199.197 35.1909 200.098 36.8595 200.363 38.9268H196.244C196.066 37.6864 195.535 36.7414 194.649 36.0917C193.792 35.4419 192.508 35.1171 190.795 35.1171C189.171 35.1171 187.989 35.4419 187.251 36.0917C186.542 36.7414 186.188 37.524 186.188 38.4395C186.188 39.0597 186.321 39.5765 186.586 39.9899C186.882 40.3739 187.295 40.6987 187.827 40.9645C188.388 41.2303 189.052 41.4518 189.82 41.629C190.618 41.8062 191.518 41.9981 192.522 42.2049C193.704 42.4411 194.826 42.7069 195.889 43.0022C196.952 43.2976 197.883 43.711 198.68 44.2426C199.507 44.7742 200.157 45.483 200.629 46.3689C201.102 47.2254 201.338 48.3476 201.338 49.7356C201.338 50.9465 201.102 52.0096 200.629 52.9251C200.157 53.8407 199.492 54.6085 198.636 55.2287C197.809 55.8193 196.805 56.2623 195.623 56.5576C194.442 56.8825 193.157 57.0449 191.769 57.0449Z" fill="#330047"/>
<path d="M214.432 57.0449C211.125 57.0449 208.57 56.3361 206.769 54.9186C204.967 53.4715 203.978 51.5371 203.801 49.1155H207.965C208.083 49.9719 208.334 50.6954 208.718 51.2861C209.102 51.8767 209.574 52.3493 210.135 52.7037C210.726 53.058 211.39 53.3238 212.129 53.501C212.867 53.6487 213.664 53.7225 214.521 53.7225C216.411 53.7225 217.769 53.3681 218.596 52.6594C219.453 51.921 219.881 51.0203 219.881 49.9571C219.881 48.6577 219.364 47.757 218.33 47.2549C217.326 46.7233 215.776 46.2508 213.679 45.8374C212.527 45.6011 211.405 45.3353 210.312 45.04C209.249 44.7447 208.304 44.346 207.477 43.8439C206.68 43.3419 206.03 42.6774 205.528 41.8505C205.056 41.0236 204.819 39.9604 204.819 38.661C204.819 36.6232 205.572 35.0137 207.079 33.8324C208.614 32.6216 210.77 32.0162 213.546 32.0162C216.529 32.0162 218.788 32.6511 220.324 33.921C221.86 35.1909 222.76 36.8595 223.026 38.9268H218.906C218.729 37.6864 218.198 36.7414 217.312 36.0917C216.455 35.4419 215.171 35.1171 213.458 35.1171C211.833 35.1171 210.652 35.4419 209.914 36.0917C209.205 36.7414 208.851 37.524 208.851 38.4395C208.851 39.0597 208.983 39.5765 209.249 39.9899C209.545 40.3739 209.958 40.6987 210.49 40.9645C211.051 41.2303 211.715 41.4518 212.483 41.629C213.28 41.8062 214.181 41.9981 215.185 42.2049C216.367 42.4411 217.489 42.7069 218.552 43.0022C219.615 43.2976 220.545 43.711 221.343 44.2426C222.17 44.7742 222.819 45.483 223.292 46.3689C223.764 47.2254 224.001 48.3476 224.001 49.7356C224.001 50.9465 223.764 52.0096 223.292 52.9251C222.819 53.8407 222.155 54.6085 221.298 55.2287C220.472 55.8193 219.467 56.2623 218.286 56.5576C217.105 56.8825 215.82 57.0449 214.432 57.0449Z" fill="#330047"/>
<path fill-rule="evenodd" clip-rule="evenodd" d="M14.4452 2.46982L14.4452 31.7154L17.8158 29.7695L17.8158 0.52637L18.7287 0L43.7031 14.5633L43.7708 14.5692V17.287C43.5366 17.2816 43.3005 17.219 43.0834 17.0936L20.7048 4.17336V7.57848L43.7708 20.8956V24.0281C43.5366 24.0227 43.3005 23.9601 43.0834 23.8347L20.7048 10.9145V14.3196L43.7708 27.6367V30.7692C43.5366 30.7638 43.3005 30.7012 43.0834 30.5758L20.7048 17.6556V21.2409L43.7708 34.5581V38.5239L40.3398 40.5048L43.7708 42.4857V46.0374L40.8526 47.7222L43.7708 49.407V52.7785L40.8526 54.4633L43.7708 56.1481V59.5196L40.8526 61.2044L43.7708 62.8892V65.5419L18.7286 80L17.8158 79.4715L17.8158 46.7679L14.4452 48.7139L14.4452 77.5202L11.5562 75.8477L11.5562 43.6408L8.66713 45.3088L8.66713 74.1751L5.77808 72.5026L5.77808 40.0554L2.88904 41.7234L2.88904 70.83L0 69.1575V10.763L0.0540406 10.7677L2.88905 9.13308L2.88904 38.3874L5.77808 36.7194L5.77809 7.46727L8.66713 5.80145L8.66713 35.0514L11.5562 33.3834L11.5562 4.13564L14.4452 2.46982ZM14.4452 35.0514L17.8158 33.1054V36.6908L14.4452 38.6368V35.0514ZM20.7048 31.4374V35.0228L29.7512 29.7999L26.6462 28.0072L20.7048 31.4374ZM14.4452 41.9728L17.8158 40.0268V43.4319L14.4452 45.3779V41.9728ZM20.7048 38.3588V41.7639L35.5892 33.1704L32.6403 31.4679L20.7048 38.3588ZM20.7048 48.505V45.0999L38.4782 34.8384L41.4272 36.541L20.7048 48.505ZM23.3985 54.4633L20.7048 56.0185V52.9081L23.3985 54.4633ZM20.7048 59.3545L26.2876 56.1313L29.2365 57.8339L20.7048 62.7596V59.3545ZM29.1766 54.4633L32.1256 56.1659L35.0745 54.4633L32.1256 52.7608L29.1766 54.4633ZM20.7048 66.0956L32.1256 59.5019L35.0745 61.2044L20.7048 69.5007V66.0956ZM35.0146 57.8339L37.9635 59.5364L40.9124 57.8339L37.9635 56.1313L35.0146 57.8339ZM20.7048 72.8367L37.9635 62.8724L40.9124 64.575L20.7048 76.2418V72.8367ZM40.9125 51.0928L37.9635 52.7953L35.0146 51.0928L37.9635 49.3902L40.9125 51.0928ZM35.0745 47.7222L32.1256 49.4248L28.5077 47.336L31.5218 45.5958C31.6183 45.7004 31.7321 45.7925 31.8618 45.8674L35.0745 47.7222ZM22.6698 50.7066L25.6838 48.9664C25.7804 49.071 25.8941 49.163 26.0239 49.2379L29.2365 51.0928L26.2876 52.7953L22.6698 50.7066ZM37.9635 46.0542L34.3457 43.9655L37.4545 42.1706C37.4833 42.1901 37.5131 42.2088 37.5437 42.2264L41.0686 44.2615L37.9635 46.0542ZM20.7048 28.1015L23.7572 26.3392L20.7048 24.5769V28.1015ZM11.5562 36.7194L11.5562 40.3048L8.66713 41.9728V38.3874L11.5562 36.7194Z" fill="#FE433A"/>
</svg>
