<svg width="382" height="48" viewBox="0 0 382 48" fill="none" xmlns="http://www.w3.org/2000/svg">
<path d="M21.9951 0L0 14.363V23.9936L21.9951 9.6161L44 24.0612V14.4306L21.9951 0Z" fill="url(#paint0_linear)"/>
<path d="M22 19.1807L0 33.542L22 48L44 33.5356L22 19.1807ZM14.7775 33.629L21.9459 28.9417L29.2225 33.6435L22 38.1085L14.7775 33.629Z" fill="url(#paint1_linear)"/>
<path d="M70.6561 35.384C69.0561 35.384 67.6054 35.0746 66.3041 34.456C65.0241 33.816 64.0001 32.8453 63.2321 31.544C62.4854 30.2426 62.1121 28.5893 62.1121 26.584V12.6H65.5041V26.616C65.5041 28.5786 65.9734 30.0186 66.9121 30.936C67.8507 31.8533 69.1201 32.312 70.7201 32.312C72.2987 32.312 73.5574 31.8533 74.4961 30.936C75.4347 30.0186 75.9041 28.5786 75.9041 26.616V12.6H79.2961V26.584C79.2961 28.5893 78.9014 30.2426 78.1121 31.544C77.3441 32.8453 76.2987 33.816 74.9761 34.456C73.6747 35.0746 72.2347 35.384 70.6561 35.384Z" fill="#131520"/>
<path d="M83.5191 42.04V19.128H86.5591L86.9111 21.592C87.4231 20.8453 88.1271 20.184 89.0231 19.608C89.9191 19.032 91.0711 18.744 92.4791 18.744C94.0151 18.744 95.3697 19.1066 96.5431 19.832C97.7164 20.5573 98.6337 21.5493 99.2951 22.808C99.9777 24.0666 100.319 25.496 100.319 27.096C100.319 28.696 99.9777 30.1253 99.2951 31.384C98.6337 32.6213 97.7164 33.6026 96.5431 34.328C95.3697 35.032 94.0044 35.384 92.4471 35.384C91.2097 35.384 90.1111 35.1386 89.1511 34.648C88.2124 34.1573 87.4657 33.464 86.9111 32.568V42.04H83.5191ZM91.8711 32.44C93.3217 32.44 94.5164 31.9493 95.4551 30.968C96.3937 29.9653 96.8631 28.664 96.8631 27.064C96.8631 26.0186 96.6497 25.0906 96.2231 24.28C95.7964 23.4693 95.2097 22.84 94.4631 22.392C93.7164 21.9226 92.8524 21.688 91.8711 21.688C90.4204 21.688 89.2257 22.1893 88.2871 23.192C87.3697 24.1946 86.9111 25.4853 86.9111 27.064C86.9111 28.664 87.3697 29.9653 88.2871 30.968C89.2257 31.9493 90.4204 32.44 91.8711 32.44Z" fill="#131520"/>
<path d="M113.844 35.384C111.732 35.384 109.886 34.904 108.308 33.944C106.729 32.984 105.502 31.64 104.628 29.912C103.753 28.184 103.316 26.168 103.316 23.864C103.316 21.5813 103.764 19.5653 104.66 17.816C105.556 16.0666 106.825 14.7013 108.468 13.72C110.132 12.7173 112.094 12.216 114.356 12.216C116.916 12.216 119.049 12.8346 120.756 14.072C122.462 15.3093 123.572 17.016 124.084 19.192H120.244C119.902 17.9973 119.23 17.0586 118.228 16.376C117.225 15.6933 115.934 15.352 114.356 15.352C112.009 15.352 110.164 16.1093 108.82 17.624C107.476 19.1386 106.804 21.2293 106.804 23.896C106.804 26.5626 107.465 28.6426 108.788 30.136C110.11 31.6293 111.87 32.376 114.068 32.376C116.286 32.376 117.95 31.7466 119.06 30.488C120.19 29.2293 120.852 27.5546 121.044 25.464H114.964V22.84H124.468V35H121.364L121.076 31.704C120.329 32.8773 119.39 33.784 118.26 34.424C117.129 35.064 115.657 35.384 113.844 35.384Z" fill="#131520"/>
<path d="M134.313 35.384C132.393 35.384 130.878 34.7866 129.769 33.592C128.681 32.3973 128.137 30.616 128.137 28.248V19.128H131.529V27.896C131.529 30.968 132.787 32.504 135.305 32.504C136.563 32.504 137.598 32.056 138.409 31.16C139.219 30.264 139.625 28.984 139.625 27.32V19.128H143.017V35H140.009L139.753 32.216C139.262 33.1973 138.537 33.976 137.577 34.552C136.638 35.1066 135.55 35.384 134.313 35.384Z" fill="#131520"/>
<path d="M152.708 35.384C151.364 35.384 150.254 35.16 149.38 34.712C148.505 34.264 147.854 33.6773 147.428 32.952C147.001 32.2053 146.788 31.3946 146.788 30.52C146.788 28.984 147.385 27.768 148.58 26.872C149.774 25.976 151.481 25.528 153.7 25.528H157.86V25.24C157.86 24.0026 157.518 23.0746 156.836 22.456C156.174 21.8373 155.31 21.528 154.244 21.528C153.305 21.528 152.484 21.7626 151.78 22.232C151.097 22.68 150.681 23.352 150.532 24.248H147.14C147.246 23.096 147.63 22.1146 148.292 21.304C148.974 20.472 149.828 19.8426 150.852 19.416C151.897 18.968 153.038 18.744 154.276 18.744C156.494 18.744 158.212 19.3306 159.428 20.504C160.644 21.656 161.252 23.2346 161.252 25.24V35H158.308L158.02 32.28C157.572 33.1546 156.921 33.8906 156.068 34.488C155.214 35.0853 154.094 35.384 152.708 35.384ZM153.38 32.632C154.297 32.632 155.065 32.4186 155.684 31.992C156.324 31.544 156.814 30.9573 157.156 30.232C157.518 29.5066 157.742 28.7066 157.828 27.832H154.052C152.708 27.832 151.748 28.0666 151.172 28.536C150.617 29.0053 150.34 29.592 150.34 30.296C150.34 31.0213 150.606 31.5973 151.14 32.024C151.694 32.4293 152.441 32.632 153.38 32.632Z" fill="#131520"/>
<path d="M165.207 35V19.128H168.247L168.535 22.136C169.089 21.0906 169.857 20.2693 170.839 19.672C171.841 19.0533 173.047 18.744 174.455 18.744V22.296H173.527C172.588 22.296 171.745 22.456 170.999 22.776C170.273 23.0746 169.687 23.5973 169.239 24.344C168.812 25.0693 168.599 26.0826 168.599 27.384V35H165.207Z" fill="#131520"/>
<path d="M184.157 35.384C182.621 35.384 181.267 35.0213 180.093 34.296C178.92 33.5706 178.003 32.5786 177.341 31.32C176.68 30.0613 176.349 28.632 176.349 27.032C176.349 25.432 176.68 24.0133 177.341 22.776C178.003 21.5173 178.92 20.536 180.093 19.832C181.288 19.1066 182.653 18.744 184.189 18.744C185.448 18.744 186.547 18.9893 187.485 19.48C188.445 19.9706 189.192 20.664 189.725 21.56V11.96H193.117V35H190.077L189.725 32.536C189.213 33.2826 188.509 33.944 187.613 34.52C186.717 35.096 185.565 35.384 184.157 35.384ZM184.765 32.44C186.216 32.44 187.4 31.9386 188.317 30.936C189.256 29.9333 189.725 28.6426 189.725 27.064C189.725 25.464 189.256 24.1733 188.317 23.192C187.4 22.1893 186.216 21.688 184.765 21.688C183.315 21.688 182.12 22.1893 181.181 23.192C180.243 24.1733 179.773 25.464 179.773 27.064C179.773 28.1093 179.987 29.0373 180.413 29.848C180.84 30.6586 181.427 31.2986 182.173 31.768C182.941 32.216 183.805 32.44 184.765 32.44Z" fill="#131520"/>
<path d="M212.209 35L203.921 12.6H207.537L214.257 31.48L221.009 12.6H224.593L216.305 35H212.209Z" fill="#131520"/>
<path d="M232.787 35.384C231.229 35.384 229.843 35.0426 228.627 34.36C227.432 33.656 226.493 32.6853 225.811 31.448C225.128 30.2106 224.787 28.7706 224.787 27.128C224.787 25.464 225.117 24.0026 225.779 22.744C226.461 21.4853 227.4 20.504 228.595 19.8C229.811 19.096 231.219 18.744 232.819 18.744C234.376 18.744 235.731 19.096 236.883 19.8C238.035 20.4826 238.931 21.4 239.571 22.552C240.211 23.704 240.531 24.9733 240.531 26.36C240.531 26.5733 240.52 26.808 240.499 27.064C240.499 27.2986 240.488 27.5653 240.467 27.864H228.115C228.221 29.4 228.723 30.5733 229.619 31.384C230.536 32.1733 231.592 32.568 232.787 32.568C233.747 32.568 234.547 32.3546 235.187 31.928C235.848 31.48 236.339 30.8826 236.659 30.136H240.051C239.624 31.6293 238.771 32.8773 237.491 33.88C236.232 34.8826 234.664 35.384 232.787 35.384ZM232.787 21.528C231.656 21.528 230.653 21.8693 229.779 22.552C228.904 23.2133 228.371 24.216 228.179 25.56H237.139C237.075 24.3226 236.637 23.3413 235.827 22.616C235.016 21.8906 234.003 21.528 232.787 21.528Z" fill="#131520"/>
<path d="M244.05 35V19.128H247.058L247.314 21.912C247.805 20.9306 248.52 20.1626 249.458 19.608C250.418 19.032 251.517 18.744 252.754 18.744C254.674 18.744 256.178 19.3413 257.266 20.536C258.376 21.7306 258.93 23.512 258.93 25.88V35H255.57V26.232C255.57 23.16 254.312 21.624 251.794 21.624C250.536 21.624 249.49 22.072 248.658 22.968C247.848 23.864 247.442 25.144 247.442 26.808V35H244.05Z" fill="#131520"/>
<path d="M270.157 35.384C268.621 35.384 267.267 35.0213 266.093 34.296C264.92 33.5706 264.003 32.5786 263.341 31.32C262.68 30.0613 262.349 28.632 262.349 27.032C262.349 25.432 262.68 24.0133 263.341 22.776C264.003 21.5173 264.92 20.536 266.093 19.832C267.288 19.1066 268.653 18.744 270.189 18.744C271.448 18.744 272.547 18.9893 273.485 19.48C274.445 19.9706 275.192 20.664 275.725 21.56V11.96H279.117V35H276.077L275.725 32.536C275.213 33.2826 274.509 33.944 273.613 34.52C272.717 35.096 271.565 35.384 270.157 35.384ZM270.765 32.44C272.216 32.44 273.4 31.9386 274.317 30.936C275.256 29.9333 275.725 28.6426 275.725 27.064C275.725 25.464 275.256 24.1733 274.317 23.192C273.4 22.1893 272.216 21.688 270.765 21.688C269.315 21.688 268.12 22.1893 267.181 23.192C266.243 24.1733 265.773 25.464 265.773 27.064C265.773 28.1093 265.987 29.0373 266.413 29.848C266.84 30.6586 267.427 31.2986 268.173 31.768C268.941 32.216 269.805 32.44 270.765 32.44Z" fill="#131520"/>
<path d="M290.818 35.384C289.303 35.384 287.938 35.0426 286.722 34.36C285.527 33.656 284.578 32.6853 283.874 31.448C283.17 30.1893 282.818 28.728 282.818 27.064C282.818 25.4 283.17 23.9493 283.874 22.712C284.599 21.4533 285.57 20.4826 286.786 19.8C288.002 19.096 289.357 18.744 290.85 18.744C292.365 18.744 293.719 19.096 294.914 19.8C296.13 20.4826 297.09 21.4533 297.794 22.712C298.519 23.9493 298.882 25.4 298.882 27.064C298.882 28.728 298.519 30.1893 297.794 31.448C297.09 32.6853 296.13 33.656 294.914 34.36C293.698 35.0426 292.333 35.384 290.818 35.384ZM290.818 32.472C291.629 32.472 292.375 32.2693 293.058 31.864C293.762 31.4586 294.327 30.8613 294.754 30.072C295.181 29.2613 295.394 28.2586 295.394 27.064C295.394 25.8693 295.181 24.8773 294.754 24.088C294.349 23.2773 293.794 22.6693 293.09 22.264C292.407 21.8586 291.661 21.656 290.85 21.656C290.039 21.656 289.282 21.8586 288.578 22.264C287.895 22.6693 287.341 23.2773 286.914 24.088C286.487 24.8773 286.274 25.8693 286.274 27.064C286.274 28.2586 286.487 29.2613 286.914 30.072C287.341 30.8613 287.895 31.4586 288.578 31.864C289.261 32.2693 290.007 32.472 290.818 32.472Z" fill="#131520"/>
<path d="M302.55 35V19.128H305.59L305.878 22.136C306.433 21.0906 307.201 20.2693 308.182 19.672C309.185 19.0533 310.39 18.744 311.798 18.744V22.296H310.87C309.932 22.296 309.089 22.456 308.342 22.776C307.617 23.0746 307.03 23.5973 306.582 24.344C306.156 25.0693 305.942 26.0826 305.942 27.384V35H302.55Z" fill="#131520"/>
<path d="M322.897 35V12.6H330.609C332.38 12.6 333.83 12.8986 334.961 13.496C336.113 14.0933 336.966 14.904 337.521 15.928C338.076 16.9306 338.353 18.0506 338.353 19.288C338.353 20.6746 337.98 21.9333 337.233 23.064C336.508 24.1946 335.366 25.0053 333.809 25.496L338.577 35H334.641L330.289 25.976H326.289V35H322.897ZM326.289 23.416H330.417C331.953 23.416 333.073 23.0426 333.777 22.296C334.502 21.5493 334.865 20.5786 334.865 19.384C334.865 18.1893 334.513 17.24 333.809 16.536C333.105 15.8106 331.964 15.448 330.385 15.448H326.289V23.416Z" fill="#131520"/>
<path d="M344.158 16.12C343.518 16.12 342.984 15.928 342.558 15.544C342.152 15.1386 341.95 14.6373 341.95 14.04C341.95 13.4426 342.152 12.952 342.558 12.568C342.984 12.1626 343.518 11.96 344.158 11.96C344.798 11.96 345.32 12.1626 345.726 12.568C346.152 12.952 346.366 13.4426 346.366 14.04C346.366 14.6373 346.152 15.1386 345.726 15.544C345.32 15.928 344.798 16.12 344.158 16.12ZM342.462 35V19.128H345.854V35H342.462Z" fill="#131520"/>
<path d="M356.668 35.384C354.662 35.384 353.009 34.8933 351.708 33.912C350.406 32.9306 349.66 31.6293 349.468 30.008H352.892C353.062 30.7333 353.468 31.3626 354.108 31.896C354.748 32.408 355.59 32.664 356.636 32.664C357.66 32.664 358.406 32.4506 358.876 32.024C359.345 31.5973 359.58 31.1066 359.58 30.552C359.58 29.7413 359.249 29.1973 358.588 28.92C357.948 28.6213 357.052 28.3546 355.9 28.12C355.004 27.928 354.108 27.672 353.212 27.352C352.337 27.032 351.601 26.584 351.004 26.008C350.428 25.4106 350.14 24.6106 350.14 23.608C350.14 22.2213 350.673 21.0693 351.74 20.152C352.806 19.2133 354.3 18.744 356.22 18.744C357.99 18.744 359.42 19.1706 360.508 20.024C361.617 20.8773 362.268 22.0826 362.46 23.64H359.196C359.089 22.9573 358.769 22.424 358.236 22.04C357.724 21.656 357.03 21.464 356.156 21.464C355.302 21.464 354.641 21.6453 354.172 22.008C353.702 22.3493 353.468 22.7973 353.468 23.352C353.468 23.9066 353.788 24.344 354.428 24.664C355.089 24.984 355.953 25.272 357.02 25.528C358.086 25.7626 359.068 26.04 359.964 26.36C360.881 26.6586 361.617 27.1066 362.172 27.704C362.726 28.3013 363.004 29.176 363.004 30.328C363.025 31.7786 362.46 32.984 361.308 33.944C360.177 34.904 358.63 35.384 356.668 35.384Z" fill="#131520"/>
<path d="M366.707 35V11.96H370.099V25.688L376.179 19.128H380.243L373.491 26.328L381.235 35H376.947L370.099 26.872V35H366.707Z" fill="#131520"/>
<defs>
<linearGradient id="paint0_linear" x1="0" y1="48" x2="47.8189" y2="4.16603" gradientUnits="userSpaceOnUse">
<stop stop-color="#1757C2"/>
<stop offset="1" stop-color="#1EA7FF"/>
</linearGradient>
<linearGradient id="paint1_linear" x1="0" y1="48" x2="47.8189" y2="4.16603" gradientUnits="userSpaceOnUse">
<stop stop-color="#1757C2"/>
<stop offset="1" stop-color="#1EA7FF"/>
</linearGradient>
</defs>
</svg>
