<svg width="211" height="68" viewBox="0 0 211 68" fill="none" xmlns="http://www.w3.org/2000/svg">
<g clip-path="url(#clip0)">
<path d="M175.255 19.7336C178.386 19.7336 181.949 22.4876 181.949 26.2907C181.949 28.4334 181.275 30.0887 180.283 31.6003C179.647 32.5639 179.162 33.6729 178.963 34.4766C178.748 35.3829 178.275 37.5777 180.924 37.6145C182.647 37.6581 186.887 36.1387 190.312 31.9535C192.947 28.5924 194.514 24.3285 194.514 19.6781C194.514 8.81174 185.902 0 175.255 0C164.607 0 155.979 8.81174 155.979 19.6781C155.979 24.3285 157.544 28.5915 160.181 31.9535C163.611 36.1387 167.848 37.6581 169.569 37.6145C172.218 37.5777 171.738 35.3829 171.533 34.4766C171.338 33.6737 170.851 32.5639 170.21 31.6003C169.221 30.0887 168.544 28.4334 168.544 26.2907C168.553 22.4868 172.111 19.7336 175.255 19.7336ZM209.321 39.622C208.531 38.9594 207.147 37.9932 204.303 37.5495C200.359 36.9518 196.839 37.8889 194.718 38.7414C191.931 39.8589 188.499 42.4 186.127 45.7089C183.625 49.2058 182.33 54.4838 183.571 59.9867C183.922 61.5351 184.302 62.4072 184.869 63.4939C185.61 64.9697 187.563 67.0294 189.273 67.4013C190.624 67.6843 191.681 66.8969 192.199 66.3026C195.644 62.2584 208.7 46.5955 210.115 44.5956C211.505 42.6069 210.597 40.6976 209.321 39.622ZM155.785 38.7414C153.666 37.8889 150.148 36.9518 146.203 37.5495C143.36 37.9941 141.962 38.9603 141.183 39.622C139.907 40.6976 138.991 42.6077 140.389 44.5939C141.796 46.5946 154.849 62.2576 158.295 66.3009C158.813 66.896 159.87 67.6843 161.223 67.4005C162.944 67.0285 164.889 64.968 165.627 63.4931C166.202 62.4072 166.573 61.5342 166.934 59.9867C168.173 54.4838 166.858 49.2059 164.38 45.708C162.004 42.4 158.567 39.8589 155.785 38.7414ZM132.813 53.0662H116.721L123.325 44.2545H105.446L99.0762 52.7396C96.6943 56.1109 96.4639 59.5139 96.4639 61.8763V63.2118C96.4639 64.7551 97.4072 65.5938 98.807 65.5938H132.813C134.185 65.5938 135.11 64.8277 135.11 63.2579V55.4107C135.11 53.8306 134.184 53.0662 132.813 53.0662ZM41.207 21.937C40.9505 20.4613 39.9633 19.7336 38.68 19.7336H34.1313C29.3988 19.7336 25.2222 22.2773 22.8825 26.1197C22.8825 26.1197 18.5423 33.1522 13.6789 41.0679H44.555L41.207 21.937ZM92.0646 22.0695C92.0646 20.5006 91.1416 19.7336 89.7604 19.7336H80.5019C79.1309 19.7336 78.2053 20.5006 78.2053 22.0695V39.8495L69.4303 23.8642C67.6762 20.9187 64.7239 19.7986 61.278 19.7336H54.4352C53.0768 19.7336 52.1479 20.4997 52.1479 22.0695V41.0773H63.649L65.4174 44.2553H52.1487V63.2588C52.1487 64.8277 53.0768 65.6075 54.4361 65.6075H63.7165C65.0951 65.6075 66.0089 64.8277 66.0089 63.2588L66.0039 45.3677L74.8615 61.4821C76.5971 64.4122 79.5603 65.5323 82.9834 65.6075H89.7612C91.1424 65.6075 92.0655 64.8277 92.0655 63.2588V44.2553H80.6454L78.882 41.0773H92.0638L92.0646 22.0695ZM45.1043 44.2545H29.8552C30.245 46.416 33.0581 62.4867 33.2243 63.4213C33.4833 64.8679 34.3735 65.6058 35.6779 65.6058H46.1691C47.1301 65.6058 47.6144 65.2997 48.0667 64.744C48.3738 64.3566 48.502 63.7692 48.3586 62.9091L45.1043 44.2545ZM0.335934 62.7304C-0.0800327 63.4495 -0.0800327 64.2062 0.173935 64.6969C0.466715 65.2706 1.11724 65.6067 1.82008 65.6067H12.7154C14.0898 65.6067 15.3175 64.856 16.0018 63.7333L28.0252 44.2545H11.7155C6.11644 53.3501 0.47684 62.5209 0.335934 62.7304ZM99.1116 32.245H114.442L107.831 41.067H125.704L132.223 32.3775C134.236 29.6911 134.702 27.2859 134.702 25.1578V22.1311C134.702 20.5801 133.776 19.7328 132.367 19.7328H99.1116C97.7397 19.7328 96.8225 20.4997 96.8225 22.0687V29.916C96.8225 31.4815 97.7397 32.245 99.1116 32.245Z" fill="url(#paint0_linear)"/>
</g>
<defs>
<linearGradient id="paint0_linear" x1="105.407" y1="0" x2="105.407" y2="67.4608" gradientUnits="userSpaceOnUse">
<stop stop-color="#60BCDD"/>
<stop offset="1" stop-color="#004D77"/>
</linearGradient>
<clipPath id="clip0">
<rect width="210.476" height="68" fill="white"/>
</clipPath>
</defs>
</svg>
