<svg width="318" height="68" viewBox="0 0 318 68" fill="none" xmlns="http://www.w3.org/2000/svg">
<path d="M44.6556 1C43.6543 0.6 42.4528 0.4 41.2513 0.2L41.051 0L36.8457 31L41.2513 28.4V28.2L45.0561 1H44.6556Z" fill="#587ABC"/>
<path d="M48.0587 2H47.6582L44.2539 26.6L48.6595 24V23.8L51.463 3.8H51.2628C50.2615 3 49.06 2.6 48.0587 2Z" fill="#587ABC"/>
<path d="M57.6726 8.20001C56.6713 7.40001 55.67 6.40001 54.4685 5.80001L54.068 5.60001L51.8652 22L56.2708 19.4V19.2L57.6726 8.20001Z" fill="#587ABC"/>
<path d="M15.8193 5.60001H15.619C14.6178 6.40001 13.8168 7.00001 12.8155 7.80001L12.6152 8.00001L34.0423 30.6L34.6431 25.6V25.4L15.8193 5.60001Z" fill="#0091D0"/>
<path d="M22.0275 2.19999C20.6257 2.79999 19.6244 3.19999 18.6232 3.79999L18.2227 3.99999L35.2442 22L35.8449 17V16.8L22.0275 2.19999Z" fill="#0091D0"/>
<path d="M37.0455 8L29.4359 0H29.2357C27.8339 0.2 26.6324 0.6 25.2306 1L24.8301 1.2L36.4448 13.4L37.0455 8Z" fill="#0091D0"/>
<path d="M68.4859 27.8C68.2857 26.6 68.0854 25.4 67.6849 24.4L67.4847 24L46.2578 36.8L51.0639 38.6H51.2641L68.4859 28.2V27.8Z" fill="#00A881"/>
<path d="M66.683 20.8C66.2825 19.8 65.6817 18.6 65.2812 17.6L65.081 17.4L38.4473 33.4L43.2533 35.2H43.4536L66.8832 21.2L66.683 20.8Z" fill="#00A881"/>
<path d="M69.0862 31.6V31.2L54.668 39.8L59.4741 41.6H59.6743L69.2865 35.8V35.6C69.2865 35 69.2865 34.4 69.2865 33.8C69.0862 33 69.0862 32.2 69.0862 31.6Z" fill="#00A881"/>
<path d="M22.2266 56L25.6309 66.8H25.8311C27.0326 67.2 28.4344 67.4 29.8362 67.6H30.2367L25.0301 51.6L22.2266 56Z" fill="#00A881"/>
<path d="M34.6434 37L31.8398 41.2V41.4L40.2505 67.6H40.4507C41.6523 67.4 42.6535 67.2 43.855 66.8H44.2555L34.6434 37Z" fill="#00A881"/>
<path d="M27.0332 48.6L33.2411 68H33.4413C34.0421 68 34.4426 68 35.0433 68C35.6441 68 36.4451 68 37.0459 68H37.4464L29.8367 44.4L27.0332 48.6Z" fill="#00A881"/>
<path d="M9.81137 37.4L3.60352 46.8V47C4.20428 48.2 4.80504 49.4 5.4058 50.6L5.60605 51L14.8177 37L9.81137 37.4Z" fill="#587ABC"/>
<path d="M27.2329 35.8L12.0137 59L12.2139 59.2C13.0149 60 13.816 60.6 14.8172 61.4L15.0175 61.6L32.2393 35.6L27.2329 35.8Z" fill="#587ABC"/>
<path d="M18.6224 36.6L7.4082 53.6L7.60846 53.8C8.20922 54.8 9.01023 55.8 9.81124 56.6L10.0115 56.8L23.6287 36L18.6224 36.6Z" fill="#587ABC"/>
<path d="M28.4347 28.8L1 31.4V31.6C1 32.4 1 33 1 33.8C1 34.2 1 34.6 1 35V35.4L32.0393 32.6L28.4347 28.8Z" fill="#00A881"/>
<path d="M16.4198 16.2L5.20566 17.2V17.4C4.6049 18.6 4.00414 19.8 3.40338 21L3.20312 21.4L20.0244 20L16.4198 16.2Z" fill="#00A881"/>
<path d="M22.4279 22.6L2.40258 24.4V24.6C2.00207 25.8 1.80182 27 1.60156 28.2V28.6L26.2327 26.4L22.4279 22.6Z" fill="#00A881"/>
<path d="M37.2461 36.2L38.8481 41H39.0484L64.6808 50.8L64.881 50.6C65.4818 49.6 65.8823 48.6 66.4831 47.6L66.6833 47.4L37.2461 36.2Z" fill="#0091D0"/>
<path d="M41.4506 49.4L60.4747 56.6L60.6749 56.4C61.4759 55.6 62.2769 54.6 62.8777 53.6L63.078 53.2L40.0488 44.4L41.4506 49.4Z" fill="#0091D0"/>
<path d="M44.2553 57.8L54.8687 61.8H55.069C56.0702 61 57.2717 60.2 58.273 59.2L58.6735 58.8L42.8535 52.8L44.2553 57.8Z" fill="#0091D0"/>
<path d="M107.134 48C105.132 48.4 102.929 48.8 100.726 48.8C91.7148 48.8 85.3066 44.2 85.3066 34.8C85.3066 25.2 91.114 19.8 100.726 19.8C102.528 19.8 104.931 20.2 107.134 21L106.734 25.8C104.531 24.6 102.729 24.4 100.726 24.4C94.9188 24.4 91.3142 28.8 91.3142 34.6C91.3142 40.2 94.9188 44.6 100.726 44.6C102.929 44.6 105.532 44.2 106.934 43.4L107.134 48Z" fill="#7B7A80"/>
<path d="M111.139 20.4H126.758V24.8H116.746V31.6H126.158V36H116.746V48.2H111.139V20.4Z" fill="#7B7A80"/>
<path d="M135.771 20.4H142.179L153.193 48.4H146.985L144.382 42H133.167L130.764 48.4H124.957L135.771 20.4ZM138.775 26L134.569 37.6H142.78L138.775 26Z" fill="#7B7A80"/>
<path d="M164.406 20.4H170.013V48.4H164.406V20.4Z" fill="#7B7A80"/>
<path d="M176.021 27.8H181.027V30.6C182.629 28.2 185.032 27.4 187.836 27.4C192.642 27.4 194.844 30.8 194.844 35.4V48.4H189.438V37.4C189.438 34.8 189.438 31.4 186.033 31.4C182.228 31.4 181.227 35.6 181.227 38.2V48.2H175.82L176.021 27.8Z" fill="#7B7A80"/>
<path d="M212.868 32C211.266 31.4 210.065 31.2 208.062 31.2C206.66 31.2 204.858 31.8 204.858 33.4C204.858 36.6 214.27 34.6 214.27 42C214.27 46.8 210.065 48.8 205.659 48.8C203.656 48.8 201.454 48.4 199.651 48L200.052 43.6C201.654 44.4 203.456 45 205.259 45C206.66 45 208.863 44.4 208.863 42.4C208.863 38.4 199.451 41.2 199.451 33.6C199.451 29.2 203.256 27.2 207.461 27.2C210.065 27.2 211.667 27.6 213.269 28L212.868 32Z" fill="#7B7A80"/>
<path d="M219.677 31.6H215.672V27.6H219.677V23.4L225.084 21.6V27.4H229.89V31.4H225.084V41C225.084 42.8 225.484 44.4 227.687 44.4C228.688 44.4 229.489 44.2 230.09 43.8L230.29 48C229.089 48.4 227.887 48.4 226.285 48.4C222.08 48.4 219.677 45.8 219.677 41.8V31.6Z" fill="#7B7A80"/>
<path d="M234.096 27.8H239.503V48.4H234.096V27.8ZM234.296 18.8H239.703V24H234.296V18.8Z" fill="#7B7A80"/>
<path d="M246.31 31.6H242.305V27.6H246.31V23.4L251.717 21.6V27.4H256.523V31.4H251.717V41C251.717 42.8 252.117 44.4 254.32 44.4C255.321 44.4 256.122 44.2 256.723 43.8L256.923 48C255.722 48.4 254.52 48.4 252.918 48.4C248.713 48.4 246.31 45.8 246.31 41.8V31.6Z" fill="#7B7A80"/>
<path d="M279.152 48.4H274.146V45.6C272.544 47.6 270.141 48.8 267.337 48.8C262.531 48.8 260.328 45.4 260.328 40.8V27.8H265.735V38.8C265.735 41.4 265.735 44.8 269.139 44.8C272.944 44.8 273.945 40.6 273.945 38V28H279.352L279.152 48.4Z" fill="#7B7A80"/>
<path d="M285.56 31.8H281.555V27.8H285.56V23.6L290.967 21.8V27.6H295.773V31.6H290.967V41.2C290.967 43 291.367 44.6 293.57 44.6C294.571 44.6 295.372 44.4 295.973 44L296.173 48.2C294.972 48.6 293.77 48.6 292.168 48.6C287.963 48.6 285.56 46 285.56 42V31.8Z" fill="#7B7A80"/>
<path d="M315.598 47.2C313.595 48.2 311.393 48.8 308.589 48.8C301.78 48.8 297.775 44.8 297.775 38.2C297.775 32.2 300.979 27.4 307.388 27.4C314.997 27.4 317.2 32.6 317.2 39.8H302.982C303.182 43.2 305.585 45 308.789 45C311.393 45 313.595 44 315.598 43V47.2V47.2ZM311.993 36C311.793 33.4 310.592 31.2 307.588 31.2C304.584 31.2 302.982 33.2 302.782 36H311.993Z" fill="#7B7A80"/>
</svg>
