<svg width="386" height="48" viewBox="0 0 386 48" fill="none" xmlns="http://www.w3.org/2000/svg">
<g clip-path="url(#clip0)">
<path d="M22 19.1807L0 33.542L22 48L44 33.5356L22 19.1807ZM14.7775 33.629L21.9459 28.9417L29.2225 33.6435L22 38.1085L14.7775 33.629Z" fill="url(#paint0_linear)"/>
<path d="M22 0L0 14.3614L22 28.8193L44 14.3549L22 0ZM14.7775 14.4483L21.9459 9.76102L29.2225 14.4628L22 18.9279L14.7775 14.4483Z" fill="url(#paint1_linear)"/>
</g>
<path d="M70.6561 35.384C69.0561 35.384 67.6054 35.0746 66.3041 34.456C65.0241 33.816 64.0001 32.8453 63.2321 31.544C62.4854 30.2426 62.1121 28.5893 62.1121 26.584V12.6H65.5041V26.616C65.5041 28.5786 65.9734 30.0186 66.9121 30.936C67.8507 31.8533 69.1201 32.312 70.7201 32.312C72.2987 32.312 73.5574 31.8533 74.4961 30.936C75.4347 30.0186 75.9041 28.5786 75.9041 26.616V12.6H79.2961V26.584C79.2961 28.5893 78.9014 30.2426 78.1121 31.544C77.3441 32.8453 76.2987 33.816 74.9761 34.456C73.6747 35.0746 72.2347 35.384 70.6561 35.384Z" fill="#131520"/>
<path d="M83.5191 42.04V19.128H86.5591L86.9111 21.592C87.4231 20.8453 88.1271 20.184 89.0231 19.608C89.9191 19.032 91.0711 18.744 92.4791 18.744C94.0151 18.744 95.3697 19.1066 96.5431 19.832C97.7164 20.5573 98.6337 21.5493 99.2951 22.808C99.9777 24.0666 100.319 25.496 100.319 27.096C100.319 28.696 99.9777 30.1253 99.2951 31.384C98.6337 32.6213 97.7164 33.6026 96.5431 34.328C95.3697 35.032 94.0044 35.384 92.4471 35.384C91.2097 35.384 90.1111 35.1386 89.1511 34.648C88.2124 34.1573 87.4657 33.464 86.9111 32.568V42.04H83.5191ZM91.8711 32.44C93.3217 32.44 94.5164 31.9493 95.4551 30.968C96.3937 29.9653 96.8631 28.664 96.8631 27.064C96.8631 26.0186 96.6497 25.0906 96.2231 24.28C95.7964 23.4693 95.2097 22.84 94.4631 22.392C93.7164 21.9226 92.8524 21.688 91.8711 21.688C90.4204 21.688 89.2257 22.1893 88.2871 23.192C87.3697 24.1946 86.9111 25.4853 86.9111 27.064C86.9111 28.664 87.3697 29.9653 88.2871 30.968C89.2257 31.9493 90.4204 32.44 91.8711 32.44Z" fill="#131520"/>
<path d="M113.844 35.384C111.732 35.384 109.886 34.904 108.308 33.944C106.729 32.984 105.502 31.64 104.628 29.912C103.753 28.184 103.316 26.168 103.316 23.864C103.316 21.5813 103.764 19.5653 104.66 17.816C105.556 16.0666 106.825 14.7013 108.468 13.72C110.132 12.7173 112.094 12.216 114.356 12.216C116.916 12.216 119.049 12.8346 120.756 14.072C122.462 15.3093 123.572 17.016 124.084 19.192H120.244C119.902 17.9973 119.23 17.0586 118.228 16.376C117.225 15.6933 115.934 15.352 114.356 15.352C112.009 15.352 110.164 16.1093 108.82 17.624C107.476 19.1386 106.804 21.2293 106.804 23.896C106.804 26.5626 107.465 28.6426 108.788 30.136C110.11 31.6293 111.87 32.376 114.068 32.376C116.286 32.376 117.95 31.7466 119.06 30.488C120.19 29.2293 120.852 27.5546 121.044 25.464H114.964V22.84H124.468V35H121.364L121.076 31.704C120.329 32.8773 119.39 33.784 118.26 34.424C117.129 35.064 115.657 35.384 113.844 35.384Z" fill="#131520"/>
<path d="M134.313 35.384C132.393 35.384 130.878 34.7866 129.769 33.592C128.681 32.3973 128.137 30.616 128.137 28.248V19.128H131.529V27.896C131.529 30.968 132.787 32.504 135.305 32.504C136.563 32.504 137.598 32.056 138.409 31.16C139.219 30.264 139.625 28.984 139.625 27.32V19.128H143.017V35H140.009L139.753 32.216C139.262 33.1973 138.537 33.976 137.577 34.552C136.638 35.1066 135.55 35.384 134.313 35.384Z" fill="#131520"/>
<path d="M152.708 35.384C151.364 35.384 150.254 35.16 149.38 34.712C148.505 34.264 147.854 33.6773 147.428 32.952C147.001 32.2053 146.788 31.3946 146.788 30.52C146.788 28.984 147.385 27.768 148.58 26.872C149.774 25.976 151.481 25.528 153.7 25.528H157.86V25.24C157.86 24.0026 157.518 23.0746 156.836 22.456C156.174 21.8373 155.31 21.528 154.244 21.528C153.305 21.528 152.484 21.7626 151.78 22.232C151.097 22.68 150.681 23.352 150.532 24.248H147.14C147.246 23.096 147.63 22.1146 148.292 21.304C148.974 20.472 149.828 19.8426 150.852 19.416C151.897 18.968 153.038 18.744 154.276 18.744C156.494 18.744 158.212 19.3306 159.428 20.504C160.644 21.656 161.252 23.2346 161.252 25.24V35H158.308L158.02 32.28C157.572 33.1546 156.921 33.8906 156.068 34.488C155.214 35.0853 154.094 35.384 152.708 35.384ZM153.38 32.632C154.297 32.632 155.065 32.4186 155.684 31.992C156.324 31.544 156.814 30.9573 157.156 30.232C157.518 29.5066 157.742 28.7066 157.828 27.832H154.052C152.708 27.832 151.748 28.0666 151.172 28.536C150.617 29.0053 150.34 29.592 150.34 30.296C150.34 31.0213 150.606 31.5973 151.14 32.024C151.694 32.4293 152.441 32.632 153.38 32.632Z" fill="#131520"/>
<path d="M165.207 35V19.128H168.247L168.535 22.136C169.089 21.0906 169.857 20.2693 170.839 19.672C171.841 19.0533 173.047 18.744 174.455 18.744V22.296H173.527C172.588 22.296 171.745 22.456 170.999 22.776C170.273 23.0746 169.687 23.5973 169.239 24.344C168.812 25.0693 168.599 26.0826 168.599 27.384V35H165.207Z" fill="#131520"/>
<path d="M184.157 35.384C182.621 35.384 181.267 35.0213 180.093 34.296C178.92 33.5706 178.003 32.5786 177.341 31.32C176.68 30.0613 176.349 28.632 176.349 27.032C176.349 25.432 176.68 24.0133 177.341 22.776C178.003 21.5173 178.92 20.536 180.093 19.832C181.288 19.1066 182.653 18.744 184.189 18.744C185.448 18.744 186.547 18.9893 187.485 19.48C188.445 19.9706 189.192 20.664 189.725 21.56V11.96H193.117V35H190.077L189.725 32.536C189.213 33.2826 188.509 33.944 187.613 34.52C186.717 35.096 185.565 35.384 184.157 35.384ZM184.765 32.44C186.216 32.44 187.4 31.9386 188.317 30.936C189.256 29.9333 189.725 28.6426 189.725 27.064C189.725 25.464 189.256 24.1733 188.317 23.192C187.4 22.1893 186.216 21.688 184.765 21.688C183.315 21.688 182.12 22.1893 181.181 23.192C180.243 24.1733 179.773 25.464 179.773 27.064C179.773 28.1093 179.987 29.0373 180.413 29.848C180.84 30.6586 181.427 31.2986 182.173 31.768C182.941 32.216 183.805 32.44 184.765 32.44Z" fill="#131520"/>
<path d="M205.585 35V12.6H214.033C216.358 12.6 218.118 13.144 219.313 14.232C220.507 15.32 221.105 16.6853 221.105 18.328C221.105 19.7573 220.721 20.8986 219.953 21.752C219.185 22.584 218.257 23.1493 217.169 23.448C218.022 23.6186 218.779 23.96 219.441 24.472C220.123 24.984 220.657 25.624 221.041 26.392C221.425 27.16 221.617 27.992 221.617 28.888C221.617 30.04 221.329 31.0853 220.753 32.024C220.198 32.9413 219.377 33.6666 218.289 34.2C217.201 34.7333 215.867 35 214.289 35H205.585ZM208.977 22.2H213.617C214.918 22.2 215.91 21.9013 216.593 21.304C217.275 20.6853 217.617 19.8426 217.617 18.776C217.617 17.7306 217.275 16.8986 216.593 16.28C215.931 15.6613 214.918 15.352 213.553 15.352H208.977V22.2ZM208.977 32.216H213.841C215.206 32.216 216.262 31.896 217.009 31.256C217.777 30.616 218.161 29.72 218.161 28.568C218.161 27.416 217.766 26.5093 216.977 25.848C216.187 25.1653 215.121 24.824 213.777 24.824H208.977V32.216Z" fill="#131520"/>
<path d="M225.207 35V19.128H228.247L228.535 22.136C229.089 21.0906 229.857 20.2693 230.839 19.672C231.841 19.0533 233.047 18.744 234.455 18.744V22.296H233.527C232.588 22.296 231.745 22.456 230.999 22.776C230.273 23.0746 229.687 23.5973 229.239 24.344C228.812 25.0693 228.599 26.0826 228.599 27.384V35H225.207Z" fill="#131520"/>
<path d="M244.349 35.384C242.792 35.384 241.405 35.0426 240.189 34.36C238.995 33.656 238.056 32.6853 237.373 31.448C236.691 30.2106 236.349 28.7706 236.349 27.128C236.349 25.464 236.68 24.0026 237.341 22.744C238.024 21.4853 238.963 20.504 240.157 19.8C241.373 19.096 242.781 18.744 244.381 18.744C245.939 18.744 247.293 19.096 248.445 19.8C249.597 20.4826 250.493 21.4 251.133 22.552C251.773 23.704 252.093 24.9733 252.093 26.36C252.093 26.5733 252.083 26.808 252.061 27.064C252.061 27.2986 252.051 27.5653 252.029 27.864H239.677C239.784 29.4 240.285 30.5733 241.181 31.384C242.099 32.1733 243.155 32.568 244.349 32.568C245.309 32.568 246.109 32.3546 246.749 31.928C247.411 31.48 247.901 30.8826 248.221 30.136H251.613C251.187 31.6293 250.333 32.8773 249.053 33.88C247.795 34.8826 246.227 35.384 244.349 35.384ZM244.349 21.528C243.219 21.528 242.216 21.8693 241.341 22.552C240.467 23.2133 239.933 24.216 239.741 25.56H248.701C248.637 24.3226 248.2 23.3413 247.389 22.616C246.579 21.8906 245.565 21.528 244.349 21.528Z" fill="#131520"/>
<path d="M260.989 35.384C259.645 35.384 258.535 35.16 257.661 34.712C256.786 34.264 256.135 33.6773 255.709 32.952C255.282 32.2053 255.069 31.3946 255.069 30.52C255.069 28.984 255.666 27.768 256.861 26.872C258.055 25.976 259.762 25.528 261.981 25.528H266.141V25.24C266.141 24.0026 265.799 23.0746 265.117 22.456C264.455 21.8373 263.591 21.528 262.525 21.528C261.586 21.528 260.765 21.7626 260.061 22.232C259.378 22.68 258.962 23.352 258.813 24.248H255.421C255.527 23.096 255.911 22.1146 256.573 21.304C257.255 20.472 258.109 19.8426 259.133 19.416C260.178 18.968 261.319 18.744 262.557 18.744C264.775 18.744 266.493 19.3306 267.709 20.504C268.925 21.656 269.533 23.2346 269.533 25.24V35H266.589L266.301 32.28C265.853 33.1546 265.202 33.8906 264.349 34.488C263.495 35.0853 262.375 35.384 260.989 35.384ZM261.661 32.632C262.578 32.632 263.346 32.4186 263.965 31.992C264.605 31.544 265.095 30.9573 265.437 30.232C265.799 29.5066 266.023 28.7066 266.109 27.832H262.333C260.989 27.832 260.029 28.0666 259.453 28.536C258.898 29.0053 258.621 29.592 258.621 30.296C258.621 31.0213 258.887 31.5973 259.421 32.024C259.975 32.4293 260.722 32.632 261.661 32.632Z" fill="#131520"/>
<path d="M281.008 35.384C279.45 35.384 278.053 35.032 276.816 34.328C275.6 33.624 274.64 32.6533 273.936 31.416C273.253 30.1573 272.912 28.7066 272.912 27.064C272.912 25.4213 273.253 23.9813 273.936 22.744C274.64 21.4853 275.6 20.504 276.816 19.8C278.053 19.096 279.45 18.744 281.008 18.744C282.97 18.744 284.613 19.256 285.936 20.28C287.28 21.304 288.144 22.6906 288.528 24.44H284.976C284.762 23.5653 284.293 22.8826 283.568 22.392C282.842 21.9013 281.989 21.656 281.008 21.656C280.176 21.656 279.408 21.8693 278.704 22.296C278 22.7013 277.434 23.3093 277.008 24.12C276.581 24.9093 276.368 25.8906 276.368 27.064C276.368 28.2373 276.581 29.2293 277.008 30.04C277.434 30.8293 278 31.4373 278.704 31.864C279.408 32.2906 280.176 32.504 281.008 32.504C281.989 32.504 282.842 32.2586 283.568 31.768C284.293 31.2773 284.762 30.584 284.976 29.688H288.528C288.165 31.3946 287.312 32.7706 285.968 33.816C284.624 34.8613 282.97 35.384 281.008 35.384Z" fill="#131520"/>
<path d="M292.207 35V11.96H295.599V21.688C296.132 20.7706 296.868 20.056 297.807 19.544C298.767 19.0106 299.823 18.744 300.975 18.744C302.873 18.744 304.367 19.3413 305.455 20.536C306.543 21.7306 307.087 23.512 307.087 25.88V35H303.727V26.232C303.727 23.16 302.5 21.624 300.047 21.624C298.767 21.624 297.7 22.072 296.847 22.968C296.015 23.864 295.599 25.144 295.599 26.808V35H292.207Z" fill="#131520"/>
<path d="M318.602 35.384C316.959 35.384 315.519 35.096 314.282 34.52C313.044 33.944 312.074 33.1226 311.37 32.056C310.687 30.9893 310.335 29.72 310.314 28.248H313.898C313.919 29.4426 314.335 30.456 315.146 31.288C315.956 32.12 317.098 32.536 318.57 32.536C319.871 32.536 320.884 32.2266 321.61 31.608C322.356 30.968 322.73 30.1573 322.73 29.176C322.73 28.3866 322.548 27.7466 322.186 27.256C321.844 26.7653 321.364 26.36 320.746 26.04C320.148 25.72 319.455 25.432 318.666 25.176C317.876 24.92 317.044 24.6426 316.17 24.344C314.442 23.768 313.14 23.0213 312.266 22.104C311.412 21.1866 310.986 19.9813 310.986 18.488C310.964 17.2293 311.252 16.1306 311.85 15.192C312.468 14.2533 313.322 13.528 314.41 13.016C315.519 12.4826 316.81 12.216 318.282 12.216C319.732 12.216 321.002 12.4826 322.09 13.016C323.199 13.5493 324.063 14.296 324.682 15.256C325.3 16.1946 325.62 17.2933 325.642 18.552H322.058C322.058 17.976 321.908 17.432 321.61 16.92C321.311 16.3866 320.874 15.9493 320.298 15.608C319.722 15.2666 319.018 15.096 318.186 15.096C317.119 15.0746 316.234 15.3413 315.53 15.896C314.847 16.4506 314.506 17.2186 314.506 18.2C314.506 19.0746 314.762 19.7466 315.274 20.216C315.786 20.6853 316.49 21.08 317.386 21.4C318.282 21.6986 319.306 22.0506 320.458 22.456C321.567 22.8186 322.559 23.256 323.434 23.768C324.308 24.28 325.002 24.952 325.514 25.784C326.047 26.616 326.314 27.672 326.314 28.952C326.314 30.0826 326.026 31.1386 325.45 32.12C324.874 33.08 324.01 33.8693 322.858 34.488C321.706 35.0853 320.287 35.384 318.602 35.384Z" fill="#131520"/>
<path d="M331.814 16.12C331.174 16.12 330.641 15.928 330.214 15.544C329.809 15.1386 329.606 14.6373 329.606 14.04C329.606 13.4426 329.809 12.952 330.214 12.568C330.641 12.1626 331.174 11.96 331.814 11.96C332.454 11.96 332.977 12.1626 333.382 12.568C333.809 12.952 334.022 13.4426 334.022 14.04C334.022 14.6373 333.809 15.1386 333.382 15.544C332.977 15.928 332.454 16.12 331.814 16.12ZM330.118 35V19.128H333.51V35H330.118Z" fill="#131520"/>
<path d="M344.484 30.136C343.652 30.136 342.884 30.04 342.18 29.848L340.804 31.192C341.038 31.3413 341.326 31.4693 341.668 31.576C342.009 31.6826 342.489 31.7786 343.108 31.864C343.726 31.9493 344.569 32.0346 345.636 32.12C347.748 32.312 349.273 32.824 350.212 33.656C351.15 34.4666 351.62 35.5546 351.62 36.92C351.62 37.8586 351.364 38.744 350.852 39.576C350.361 40.4293 349.582 41.112 348.516 41.624C347.47 42.1573 346.126 42.424 344.484 42.424C342.265 42.424 340.462 41.9973 339.076 41.144C337.71 40.312 337.028 39.0426 337.028 37.336C337.028 36.6746 337.198 36.0133 337.54 35.352C337.902 34.712 338.468 34.104 339.236 33.528C338.788 33.336 338.393 33.1333 338.052 32.92C337.732 32.6853 337.444 32.4506 337.188 32.216V31.448L339.94 28.632C338.702 27.5653 338.084 26.168 338.084 24.44C338.084 23.3946 338.329 22.4453 338.82 21.592C339.332 20.7173 340.068 20.024 341.028 19.512C341.988 19 343.14 18.744 344.484 18.744C345.38 18.744 346.212 18.872 346.98 19.128H352.9V21.368L350.084 21.528C350.596 22.4026 350.852 23.3733 350.852 24.44C350.852 25.5066 350.596 26.4666 350.084 27.32C349.593 28.1733 348.868 28.856 347.908 29.368C346.969 29.88 345.828 30.136 344.484 30.136ZM344.484 27.48C345.465 27.48 346.254 27.224 346.852 26.712C347.47 26.1786 347.78 25.432 347.78 24.472C347.78 23.4906 347.47 22.744 346.852 22.232C346.254 21.72 345.465 21.464 344.484 21.464C343.481 21.464 342.67 21.72 342.052 22.232C341.454 22.744 341.156 23.4906 341.156 24.472C341.156 25.432 341.454 26.1786 342.052 26.712C342.67 27.224 343.481 27.48 344.484 27.48ZM340.228 37.016C340.228 37.9333 340.633 38.616 341.444 39.064C342.254 39.5333 343.268 39.768 344.484 39.768C345.657 39.768 346.606 39.512 347.332 39C348.057 38.5093 348.42 37.848 348.42 37.016C348.42 36.3973 348.174 35.864 347.684 35.416C347.193 34.9893 346.265 34.7226 344.9 34.616C343.876 34.552 342.969 34.456 342.18 34.328C341.433 34.7333 340.921 35.1706 340.644 35.64C340.366 36.1093 340.228 36.568 340.228 37.016Z" fill="#131520"/>
<path d="M355.925 35V11.96H359.317V21.688C359.851 20.7706 360.587 20.056 361.525 19.544C362.485 19.0106 363.541 18.744 364.693 18.744C366.592 18.744 368.085 19.3413 369.173 20.536C370.261 21.7306 370.805 23.512 370.805 25.88V35H367.445V26.232C367.445 23.16 366.219 21.624 363.765 21.624C362.485 21.624 361.419 22.072 360.565 22.968C359.733 23.864 359.317 25.144 359.317 26.808V35H355.925Z" fill="#131520"/>
<path d="M381.456 35C379.899 35 378.662 34.6266 377.744 33.88C376.827 33.112 376.368 31.7573 376.368 29.816V21.976H373.648V19.128H376.368L376.784 15.096H379.76V19.128H384.24V21.976H379.76V29.816C379.76 30.6906 379.942 31.2986 380.304 31.64C380.688 31.96 381.339 32.12 382.256 32.12H384.08V35H381.456Z" fill="#131520"/>
<defs>
<linearGradient id="paint0_linear" x1="0" y1="48" x2="47.8189" y2="4.16604" gradientUnits="userSpaceOnUse">
<stop stop-color="#B71029"/>
<stop offset="1" stop-color="#E43838"/>
</linearGradient>
<linearGradient id="paint1_linear" x1="0" y1="48" x2="47.8189" y2="4.16604" gradientUnits="userSpaceOnUse">
<stop stop-color="#B71029"/>
<stop offset="1" stop-color="#E43838"/>
</linearGradient>
<clipPath id="clip0">
<rect width="44" height="48" fill="white"/>
</clipPath>
</defs>
</svg>
