<svg width="190" height="96" viewBox="0 0 190 96" fill="none" xmlns="http://www.w3.org/2000/svg">
<path fill-rule="evenodd" clip-rule="evenodd" d="M56.0564 0H40.8421V38.9529C39.9922 38.7045 39.0935 38.5714 38.1635 38.5714C37.1551 38.5714 36.1831 38.7281 35.2706 39.0182V15.8571H1.19922V32.1429H6.98493V96H22.1992V80.7857H35.2706V57.1961C36.1831 57.4862 37.1551 57.6429 38.1635 57.6429C39.0935 57.6429 39.9922 57.5098 40.8421 57.2614V80.1429H56.0564V32.1429H73.1992V15.8571H56.0564V0ZM44.0564 55.6046V62.3571C49.0269 62.3571 53.0564 58.3277 53.0564 53.3571V3.21429H44.0564V40.6097C46.2746 42.3557 47.6992 45.0651 47.6992 48.1071C47.6992 51.1491 46.2746 53.8586 44.0564 55.6046ZM44.0564 46.4979C43.5911 44.7902 42.4034 43.3804 40.8421 42.6171C40.0334 42.2218 39.1244 42 38.1635 42C37.1169 42 36.1316 42.2634 35.2706 42.7273C33.3569 43.7584 32.0564 45.7809 32.0564 48.1071C32.0564 50.4334 33.3569 52.4559 35.2706 53.487C36.1316 53.9509 37.1169 54.2143 38.1635 54.2143C39.1244 54.2143 40.0334 53.9925 40.8421 53.5971C42.4034 52.8339 43.5911 51.4241 44.0564 49.7164C44.1961 49.2039 44.2706 48.6641 44.2706 48.1071C44.2706 47.5502 44.1961 47.0104 44.0564 46.4979ZM32.0564 55.4308C29.9611 53.6818 28.6278 51.0501 28.6278 48.1071C28.6278 45.1641 29.9611 42.5325 32.0564 40.7835V33C32.0564 28.0294 28.0269 24 23.0564 24V53.3571C23.0564 58.3277 27.0858 62.3571 32.0564 62.3571V55.4308ZM10.1992 33C10.1992 28.0294 14.2286 24 19.1992 24V92.7857H10.1992V33Z" fill="#EE353A"/>
<path d="M90.3443 43.5V66.4723C90.3443 68.9254 89.8977 71.1465 89.0048 73.1353C88.1389 75.0911 86.8129 76.6491 85.027 77.8093C83.2682 78.9364 81.0357 79.5 78.3297 79.5C74.4872 79.5 71.5647 78.3066 69.5622 75.9199C67.5597 73.5 66.5586 70.3176 66.5586 66.3729V43.5H72.6876V65.2292C72.6876 68.1465 73.1747 70.2017 74.149 71.3951C75.1232 72.5884 76.5709 73.185 78.4919 73.185C80.4944 73.185 81.9422 72.5387 82.8351 71.2459C83.7552 69.9531 84.2153 67.9309 84.2153 65.1795V43.5H90.3443Z" fill="#414495"/>
<path d="M110.418 79.0714H103.695V49.7773H97.1992V43.5H116.913V49.7773H110.418V79.0714Z" fill="#414495"/>
<path d="M188.056 69.177C188.056 72.3202 187.007 74.8348 184.908 76.7207C182.84 78.5737 179.89 79.5 176.057 79.5C172.621 79.5 169.549 78.7886 166.842 77.366V70.368C168.393 71.096 169.99 71.7742 171.632 72.4029C173.305 72.9984 174.963 73.2962 176.605 73.2962C178.308 73.2962 179.51 72.9489 180.209 72.254C180.939 71.526 181.304 70.6162 181.304 69.5244C181.304 68.631 181.015 67.8701 180.437 67.2414C179.89 66.6127 179.145 66.0337 178.202 65.5044C177.259 64.9419 176.179 64.3462 174.963 63.7177C174.202 63.3206 173.381 62.8573 172.499 62.328C171.617 61.7655 170.765 61.0873 169.944 60.2932C169.153 59.466 168.499 58.4735 167.982 57.3152C167.465 56.1572 167.207 54.7676 167.207 53.1463C167.207 49.97 168.195 47.505 170.172 45.7515C172.149 43.9648 174.841 43.0715 178.247 43.0715C179.951 43.0715 181.563 43.2866 183.083 43.7167C184.634 44.1467 186.246 44.759 187.919 45.5529L185.684 51.4093C184.193 50.7476 182.855 50.2348 181.669 49.8707C180.483 49.5069 179.266 49.325 178.019 49.325C176.711 49.325 175.708 49.6558 175.008 50.3175C174.309 50.9792 173.959 51.8394 173.959 52.8982C173.959 54.1556 174.476 55.1482 175.51 55.8761C176.544 56.604 178.08 57.4974 180.118 58.5562C181.791 59.4163 183.205 60.3097 184.361 61.236C185.547 62.1626 186.459 63.2544 187.098 64.5116C187.737 65.769 188.056 67.3241 188.056 69.177Z" fill="#414495"/>
<path fill-rule="evenodd" clip-rule="evenodd" d="M141.128 73.5C147.874 73.5 153.343 68.0315 153.343 61.2857C153.343 54.54 147.874 49.0715 141.128 49.0715C134.383 49.0715 128.914 54.54 128.914 61.2857C128.914 68.0315 134.383 73.5 141.128 73.5ZM141.128 79.5C151.188 79.5 159.343 71.3452 159.343 61.2857C159.343 51.2263 151.188 43.0715 141.128 43.0715C131.069 43.0715 122.914 51.2263 122.914 61.2857C122.914 71.3452 131.069 79.5 141.128 79.5Z" fill="#414495"/>
<path d="M37.023 92.2564V86.4527H34.9708V92.2564C34.9708 92.9537 34.8315 93.4677 34.5525 93.7988C34.2737 94.1213 33.7682 94.2824 33.0362 94.2824C32.6179 94.2824 32.2826 94.2259 32.0297 94.1125C31.7859 93.9906 31.5941 93.838 31.4546 93.655C31.3153 93.4634 31.2238 93.2455 31.1801 93.0014C31.1366 92.7576 31.1147 92.5092 31.1147 92.2564V86.4527H29.0625V92.2564C29.0625 93.5288 29.4069 94.4699 30.0951 95.0798C30.7924 95.6899 31.7728 95.9948 33.0362 95.9948C34.2825 95.9948 35.2584 95.6899 35.9642 95.0798C36.6701 94.4612 37.023 93.52 37.023 92.2564Z" fill="#282828"/>
<path d="M39.2188 86.4527V95.7857H41.1402V89.5375H41.1664L45.0486 95.7857H47.1008V86.4527H45.1793V92.7139H45.1532L41.2579 86.4527H39.2188Z" fill="#282828"/>
<path d="M49.3359 86.4527V95.7857H51.3882V86.4527H49.3359Z" fill="#282828"/>
<path d="M55.686 88.1781V95.7857H57.7382V88.1781H60.5354V86.4527H52.8887V88.1781H55.686Z" fill="#282828"/>
<path d="M68.1723 88.1781V95.7857H70.2245V88.1781H73.0218V86.4527H65.375V88.1781H68.1723Z" fill="#282828"/>
<path d="M76.5756 90.6747V88.0474H78.8239C79.2945 88.0474 79.6474 88.1519 79.8827 88.3611C80.118 88.5617 80.2356 88.8884 80.2356 89.3414C80.2356 89.812 80.118 90.1519 79.8827 90.361C79.6474 90.5702 79.2945 90.6747 78.8239 90.6747H76.5756ZM74.5234 86.4527V95.7857H76.5756V92.1387H78.6279C79.1419 92.1387 79.5124 92.2521 79.7389 92.4786C79.9654 92.7053 80.1137 93.0625 80.1834 93.5504C80.2356 93.9252 80.2749 94.3174 80.301 94.7269C80.3271 95.1366 80.3968 95.4895 80.5101 95.7857H82.5624C82.4666 95.6549 82.3924 95.4981 82.3401 95.3151C82.2966 95.1235 82.2617 94.9229 82.2356 94.7138C82.2182 94.5047 82.2051 94.3 82.1964 94.0994C82.1876 93.8991 82.179 93.7249 82.1702 93.5766C82.1529 93.3413 82.1179 93.106 82.0656 92.8707C82.0221 92.6354 81.948 92.422 81.8434 92.2302C81.7389 92.0299 81.6039 91.8599 81.4382 91.7204C81.2726 91.5724 81.0634 91.4635 80.8108 91.3937V91.3675C81.3336 91.1584 81.7084 90.8534 81.9349 90.4525C82.1702 90.0518 82.2879 89.5767 82.2879 89.0277C82.2879 88.6705 82.2225 88.3394 82.0918 88.0343C81.9699 87.7206 81.7869 87.4461 81.5428 87.2108C81.3075 86.9755 81.0199 86.7925 80.6801 86.6618C80.349 86.5225 79.9742 86.4527 79.5559 86.4527H74.5234Z" fill="#282828"/>
<path d="M92.3101 92.2564V86.4527H90.2579V92.2564C90.2579 92.9537 90.1186 93.4677 89.8396 93.7988C89.5608 94.1213 89.0553 94.2824 88.3233 94.2824C87.905 94.2824 87.5697 94.2259 87.3168 94.1125C87.073 93.9906 86.8812 93.838 86.7417 93.655C86.6024 93.4634 86.5109 93.2455 86.4672 93.0014C86.4237 92.7576 86.4018 92.5092 86.4018 92.2564V86.4527H84.3496V92.2564C84.3496 93.5288 84.694 94.4699 85.3823 95.0798C86.0795 95.6899 87.0599 95.9948 88.3233 95.9948C89.5696 95.9948 90.5455 95.6899 91.2513 95.0798C91.9572 94.4612 92.3101 93.52 92.3101 92.2564Z" fill="#282828"/>
<path d="M95.9034 92.6879H93.9165C93.9079 93.263 94.0125 93.7597 94.2302 94.178C94.4481 94.5963 94.74 94.9407 95.106 95.2107C95.4808 95.4809 95.9079 95.6769 96.387 95.7989C96.8751 95.9296 97.3761 95.9949 97.8902 95.9949C98.5264 95.9949 99.0842 95.921 99.5633 95.7727C100.051 95.6247 100.457 95.4198 100.779 95.1584C101.11 94.8884 101.359 94.5702 101.524 94.2042C101.69 93.8382 101.772 93.4417 101.772 93.0147C101.772 92.4918 101.659 92.0649 101.433 91.7337C101.215 91.3938 100.953 91.1238 100.648 90.9232C100.343 90.7229 100.034 90.5791 99.7202 90.4919C99.4153 90.3961 99.1757 90.3307 99.0013 90.2958C98.4176 90.1477 97.9425 90.0258 97.5765 89.9298C97.2193 89.834 96.936 89.7382 96.7269 89.6422C96.5265 89.5464 96.3915 89.4419 96.3216 89.3285C96.252 89.2154 96.2171 89.0671 96.2171 88.8841C96.2171 88.6837 96.2608 88.5181 96.3478 88.3874C96.435 88.2567 96.5439 88.1478 96.6746 88.0606C96.8141 87.9736 96.9666 87.9125 97.1321 87.8776C97.2977 87.8429 97.4634 87.8253 97.6288 87.8253C97.8816 87.8253 98.1124 87.8472 98.3216 87.8907C98.5395 87.9344 98.7313 88.0083 98.8967 88.1129C99.0624 88.2174 99.1931 88.3612 99.2888 88.5442C99.3934 88.7272 99.4545 88.9582 99.4718 89.237H101.459C101.459 88.6968 101.354 88.2393 101.145 87.8645C100.945 87.4812 100.67 87.1674 100.321 86.9234C99.9731 86.6795 99.5721 86.5051 99.1189 86.4005C98.6745 86.2874 98.2084 86.2306 97.7203 86.2306C97.302 86.2306 96.8837 86.2874 96.4654 86.4005C96.0471 86.5139 95.6726 86.6881 95.3413 86.9234C95.0102 87.1587 94.74 87.455 94.5309 87.8122C94.3305 88.1609 94.2302 88.5749 94.2302 89.054C94.2302 89.4811 94.3086 89.8471 94.4655 90.152C94.6311 90.4484 94.8446 90.6967 95.106 90.8971C95.3674 91.0977 95.6638 91.2631 95.9949 91.3938C96.3261 91.5159 96.666 91.6205 97.0144 91.7075C97.3543 91.8035 97.6899 91.8905 98.0209 91.9689C98.3522 92.0474 98.6484 92.1389 98.9098 92.2434C99.1712 92.348 99.3803 92.4787 99.5372 92.6356C99.7028 92.7924 99.7856 92.9973 99.7856 93.2499C99.7856 93.4852 99.7247 93.6813 99.6026 93.8382C99.4806 93.9864 99.3281 94.1041 99.1451 94.1911C98.9621 94.2783 98.766 94.3394 98.5569 94.3741C98.3477 94.4002 98.1516 94.4133 97.9686 94.4133C97.6986 94.4133 97.4372 94.3829 97.1844 94.3218C96.9317 94.2522 96.7095 94.1519 96.5177 94.0212C96.3347 93.8819 96.1866 93.7032 96.0733 93.4852C95.9601 93.2675 95.9034 93.0016 95.9034 92.6879Z" fill="#282828"/>
<path d="M105.487 88.1781V95.7857H107.539V88.1781H110.336V86.4527H102.689V88.1781H105.487Z" fill="#282828"/>
<path d="M117.556 91.1585C117.556 90.749 117.6 90.3526 117.687 89.969C117.783 89.5857 117.931 89.2458 118.131 88.9494C118.332 88.6445 118.593 88.4049 118.916 88.2305C119.238 88.0475 119.63 87.956 120.092 87.956C120.554 87.956 120.946 88.0475 121.268 88.2305C121.591 88.4049 121.852 88.6445 122.053 88.9494C122.253 89.2458 122.397 89.5857 122.484 89.969C122.58 90.3526 122.628 90.749 122.628 91.1585C122.628 91.5507 122.58 91.9342 122.484 92.3088C122.397 92.6748 122.253 93.0061 122.053 93.3022C121.852 93.5986 121.591 93.8382 121.268 94.0212C120.946 94.1956 120.554 94.2826 120.092 94.2826C119.63 94.2826 119.238 94.1956 118.916 94.0212C118.593 93.8382 118.332 93.5986 118.131 93.3022C117.931 93.0061 117.783 92.6748 117.687 92.3088C117.6 91.9342 117.556 91.5507 117.556 91.1585ZM115.504 91.1585C115.504 91.8382 115.608 92.4744 115.818 93.0669C116.027 93.6509 116.327 94.1607 116.72 94.5963C117.112 95.0322 117.591 95.3763 118.157 95.6289C118.733 95.873 119.377 95.9949 120.092 95.9949C120.815 95.9949 121.46 95.873 122.027 95.6289C122.593 95.3763 123.072 95.0322 123.464 94.5963C123.857 94.1607 124.157 93.6509 124.366 93.0669C124.575 92.4744 124.68 91.8382 124.68 91.1585C124.68 90.4614 124.575 89.8167 124.366 89.2239C124.157 88.6227 123.857 88.0998 123.464 87.6554C123.072 87.211 122.593 86.8625 122.027 86.6097C121.46 86.357 120.815 86.2306 120.092 86.2306C119.377 86.2306 118.733 86.357 118.157 86.6097C117.591 86.8625 117.112 87.211 116.72 87.6554C116.327 88.0998 116.027 88.6227 115.818 89.2239C115.608 89.8167 115.504 90.4614 115.504 91.1585Z" fill="#282828"/>
<path d="M126.512 86.4527V95.7857H128.564V91.9296H132.472V90.3349H128.564V88.1781H133.074V86.4527H126.512Z" fill="#282828"/>
<path d="M140.153 92.6879H138.167C138.158 93.263 138.263 93.7597 138.48 94.178C138.698 94.5963 138.99 94.9407 139.356 95.2107C139.731 95.4809 140.158 95.6769 140.637 95.7989C141.125 95.9296 141.626 95.9949 142.14 95.9949C142.776 95.9949 143.334 95.921 143.813 95.7727C144.302 95.6247 144.707 95.4198 145.029 95.1584C145.36 94.8884 145.609 94.5702 145.774 94.2042C145.94 93.8382 146.022 93.4417 146.022 93.0147C146.022 92.4918 145.909 92.0649 145.683 91.7337C145.465 91.3938 145.203 91.1238 144.898 90.9232C144.593 90.7229 144.284 90.5791 143.97 90.4919C143.665 90.3961 143.426 90.3307 143.251 90.2958C142.668 90.1477 142.193 90.0258 141.827 89.9298C141.469 89.834 141.186 89.7382 140.977 89.6422C140.777 89.5464 140.642 89.4419 140.572 89.3285C140.502 89.2154 140.467 89.0671 140.467 88.8841C140.467 88.6837 140.511 88.5181 140.598 88.3874C140.685 88.2567 140.794 88.1478 140.925 88.0606C141.064 87.9736 141.217 87.9125 141.382 87.8776C141.548 87.8429 141.713 87.8253 141.879 87.8253C142.132 87.8253 142.362 87.8472 142.572 87.8907C142.79 87.9344 142.981 88.0083 143.147 88.1129C143.312 88.2174 143.443 88.3612 143.539 88.5442C143.643 88.7272 143.705 88.9582 143.722 89.237H145.709C145.709 88.6968 145.604 88.2393 145.395 87.8645C145.195 87.4812 144.92 87.1674 144.572 86.9234C144.223 86.6795 143.822 86.5051 143.369 86.4005C142.925 86.2874 142.458 86.2306 141.97 86.2306C141.552 86.2306 141.134 86.2874 140.715 86.4005C140.297 86.5139 139.923 86.6881 139.591 86.9234C139.26 87.1587 138.99 87.455 138.781 87.8122C138.581 88.1609 138.48 88.5749 138.48 89.054C138.48 89.4811 138.559 89.8471 138.716 90.152C138.881 90.4484 139.095 90.6967 139.356 90.8971C139.617 91.0977 139.914 91.2631 140.245 91.3938C140.576 91.5159 140.916 91.6205 141.264 91.7075C141.604 91.8035 141.94 91.8905 142.271 91.9689C142.602 92.0474 142.898 92.1389 143.16 92.2434C143.421 92.348 143.63 92.4787 143.787 92.6356C143.953 92.7924 144.036 92.9973 144.036 93.2499C144.036 93.4852 143.975 93.6813 143.853 93.8382C143.731 93.9864 143.578 94.1041 143.395 94.1911C143.212 94.2783 143.016 94.3394 142.807 94.3741C142.598 94.4002 142.402 94.4133 142.219 94.4133C141.949 94.4133 141.687 94.3829 141.434 94.3218C141.182 94.2522 140.96 94.1519 140.768 94.0212C140.585 93.8819 140.437 93.7032 140.323 93.4852C140.21 93.2675 140.153 93.0016 140.153 92.6879Z" fill="#282828"/>
<path d="M150.025 92.1779L151.24 88.7532H151.266L152.443 92.1779H150.025ZM150.221 86.4527L146.691 95.7857H148.757L149.489 93.7073H152.979L153.685 95.7857H155.815L152.325 86.4527H150.221Z" fill="#282828"/>
<path d="M157.047 86.4527V95.7857H158.968V89.2369H158.995L161.282 95.7857H162.864L165.151 89.1715H165.177V95.7857H167.099V86.4527H164.21L162.145 92.8707H162.119L159.936 86.4527H157.047Z" fill="#282828"/>
<path d="M170.982 91.1585C170.982 90.749 171.025 90.3526 171.113 89.969C171.209 89.5857 171.357 89.2458 171.557 88.9494C171.758 88.6445 172.019 88.4049 172.341 88.2305C172.664 88.0475 173.056 87.956 173.518 87.956C173.98 87.956 174.372 88.0475 174.694 88.2305C175.017 88.4049 175.278 88.6445 175.478 88.9494C175.679 89.2458 175.823 89.5857 175.91 89.969C176.006 90.3526 176.054 90.749 176.054 91.1585C176.054 91.5507 176.006 91.9342 175.91 92.3088C175.823 92.6748 175.679 93.0061 175.478 93.3022C175.278 93.5986 175.017 93.8382 174.694 94.0212C174.372 94.1956 173.98 94.2826 173.518 94.2826C173.056 94.2826 172.664 94.1956 172.341 94.0212C172.019 93.8382 171.758 93.5986 171.557 93.3022C171.357 93.0061 171.209 92.6748 171.113 92.3088C171.025 91.9342 170.982 91.5507 170.982 91.1585ZM168.93 91.1585C168.93 91.8382 169.034 92.4744 169.243 93.0669C169.453 93.6509 169.753 94.1607 170.145 94.5963C170.537 95.0322 171.017 95.3763 171.583 95.6289C172.158 95.873 172.803 95.9949 173.518 95.9949C174.241 95.9949 174.886 95.873 175.452 95.6289C176.019 95.3763 176.498 95.0322 176.89 94.5963C177.282 94.1607 177.583 93.6509 177.792 93.0669C178.001 92.4744 178.106 91.8382 178.106 91.1585C178.106 90.4614 178.001 89.8167 177.792 89.2239C177.583 88.6227 177.282 88.0998 176.89 87.6554C176.498 87.211 176.019 86.8625 175.452 86.6097C174.886 86.357 174.241 86.2306 173.518 86.2306C172.803 86.2306 172.158 86.357 171.583 86.6097C171.017 86.8625 170.537 87.211 170.145 87.6554C169.753 88.0998 169.453 88.6227 169.243 89.2239C169.034 89.8167 168.93 90.4614 168.93 91.1585Z" fill="#282828"/>
<path d="M182.29 92.1779L183.506 88.7532H183.532L184.708 92.1779H182.29ZM182.486 86.4527L178.957 95.7857H181.022L181.754 93.7073H185.244L185.95 95.7857H188.081L184.591 86.4527H182.486Z" fill="#282828"/>
</svg>
