<svg width="276" height="74" viewBox="0 0 276 74" fill="none" xmlns="http://www.w3.org/2000/svg">
<circle cx="37" cy="37" r="36" fill="#F9FCF5" stroke="#90CA2F" stroke-width="2"/>
<path d="M37.8128 47.9749C38.9511 47.9749 39.9316 47.8446 40.7545 47.5841C41.5773 47.3235 42.2493 46.9601 42.7705 46.4938C43.3053 46.0138 43.6962 45.4515 43.943 44.8069C44.1899 44.1486 44.3133 43.4286 44.3133 42.6469C44.3133 41.1246 43.7716 39.9246 42.6882 39.0469C41.6048 38.1555 39.9796 37.7098 37.8128 37.7098H31.4356V47.9749H37.8128ZM31.4356 24.8115V34.8709H36.7019C37.8265 34.8709 38.8002 34.7475 39.623 34.5006C40.4596 34.2538 41.1453 33.9109 41.6802 33.4721C42.2288 33.0332 42.6333 32.5052 42.8939 31.8881C43.1545 31.2572 43.2848 30.5715 43.2848 29.8309C43.2848 28.0892 42.7636 26.8206 41.7213 26.0252C40.679 25.2161 39.0608 24.8115 36.8665 24.8115H31.4356ZM36.8665 21.6641C38.6768 21.6641 40.2333 21.8423 41.5362 22.1989C42.8528 22.5555 43.9293 23.0629 44.7659 23.7212C45.6162 24.3795 46.2402 25.1886 46.6379 26.1486C47.0356 27.0949 47.2345 28.1646 47.2345 29.3578C47.2345 30.0846 47.1179 30.7841 46.8848 31.4561C46.6653 32.1143 46.3293 32.7315 45.8768 33.3075C45.4242 33.8835 44.8482 34.4046 44.1488 34.8709C43.463 35.3235 42.6539 35.6938 41.7213 35.9818C43.8882 36.3932 45.5133 37.1681 46.5968 38.3063C47.6939 39.4309 48.2425 40.9121 48.2425 42.7498C48.2425 43.9978 48.0093 45.1361 47.543 46.1646C47.0905 47.1932 46.4185 48.0778 45.5271 48.8183C44.6493 49.5589 43.5659 50.1349 42.2768 50.5463C40.9876 50.9441 39.5202 51.1429 37.8745 51.1429H27.4653V21.6641H36.8665Z" fill="#90CA2F"/>
<path d="M99.5601 67.9991L121.8 17.7591H91.0801V11.9991H128.68V17.0391L106.68 67.9991H99.5601Z" fill="#90CA2F"/>
<path d="M152.907 68.9591C149.334 68.9591 146.107 68.3191 143.227 67.0391C140.347 65.7057 138.027 63.7324 136.267 61.1191C134.56 58.5057 133.654 55.2524 133.547 51.3591H140.347C140.4 54.5591 141.52 57.3324 143.707 59.6791C145.894 61.9724 148.96 63.1191 152.907 63.1191C156.854 63.1191 159.814 62.0257 161.787 59.8391C163.814 57.6524 164.827 55.0124 164.827 51.9191C164.827 49.3057 164.187 47.1724 162.907 45.5191C161.68 43.8657 160 42.6391 157.867 41.8391C155.787 41.0391 153.494 40.6391 150.987 40.6391H146.827V34.9591H150.987C154.614 34.9591 157.44 34.1324 159.467 32.4791C161.547 30.8257 162.587 28.5057 162.587 25.5191C162.587 23.0124 161.76 20.9591 160.107 19.3591C158.507 17.7057 156.107 16.8791 152.907 16.8791C149.814 16.8791 147.334 17.8124 145.467 19.6791C143.6 21.4924 142.56 23.7857 142.347 26.5591H135.547C135.707 23.5191 136.507 20.8257 137.947 18.4791C139.44 16.1324 141.467 14.3191 144.027 13.0391C146.587 11.7057 149.547 11.0391 152.907 11.0391C156.534 11.0391 159.547 11.6791 161.947 12.9591C164.4 14.2391 166.24 15.9457 167.467 18.0791C168.747 20.2124 169.387 22.5591 169.387 25.1191C169.387 27.9457 168.614 30.5324 167.067 32.8791C165.52 35.1724 163.2 36.7191 160.107 37.5191C163.414 38.2124 166.16 39.7857 168.347 42.2391C170.534 44.6924 171.627 47.9191 171.627 51.9191C171.627 55.0124 170.907 57.8657 169.467 60.4791C168.08 63.0391 166 65.0924 163.227 66.6391C160.454 68.1857 157.014 68.9591 152.907 68.9591Z" fill="#90CA2F"/>
<path d="M181.618 67.9991V63.2791C185.405 60.2924 188.978 57.2791 192.338 54.2391C195.752 51.1457 198.765 48.1057 201.378 45.1191C204.045 42.1324 206.125 39.1991 207.618 36.3191C209.165 33.4391 209.938 30.6657 209.938 27.9991C209.938 26.0257 209.592 24.1857 208.898 22.4791C208.258 20.7724 207.192 19.4124 205.698 18.3991C204.205 17.3324 202.178 16.7991 199.618 16.7991C197.165 16.7991 195.112 17.3591 193.458 18.4791C191.805 19.5457 190.552 20.9857 189.698 22.7991C188.898 24.6124 188.498 26.5591 188.498 28.6391H182.018C182.018 24.9591 182.792 21.8124 184.338 19.1991C185.885 16.5324 187.992 14.5057 190.658 13.1191C193.325 11.7324 196.338 11.0391 199.698 11.0391C204.658 11.0391 208.712 12.4524 211.858 15.2791C215.058 18.0524 216.658 22.2124 216.658 27.7591C216.658 31.0657 215.832 34.3457 214.178 37.5991C212.525 40.7991 210.418 43.9191 207.858 46.9591C205.298 49.9457 202.552 52.7457 199.618 55.3591C196.738 57.9724 194.045 60.3191 191.538 62.3991H218.578V67.9991H181.618Z" fill="#90CA2F"/>
<path d="M229.504 68.71L234.022 53.248H235.516L230.998 68.71H229.504Z" fill="#4A5078"/>
<path d="M246.267 54.184C247.179 54.184 247.947 54.358 248.571 54.706C249.195 55.042 249.693 55.498 250.065 56.074C250.449 56.65 250.725 57.298 250.893 58.018C251.073 58.726 251.163 59.452 251.163 60.196C251.163 61.588 250.971 62.812 250.587 63.868C250.203 64.912 249.645 65.734 248.913 66.334C248.193 66.922 247.317 67.216 246.285 67.216C245.493 67.216 244.815 67.06 244.251 66.748C243.687 66.436 243.237 66.022 242.901 65.506C242.577 64.978 242.373 64.396 242.289 63.76H243.693C243.825 64.444 244.119 64.972 244.575 65.344C245.031 65.716 245.607 65.902 246.303 65.902C247.251 65.902 248.043 65.458 248.679 64.57C249.327 63.67 249.675 62.272 249.723 60.376C249.435 60.94 248.973 61.432 248.337 61.852C247.713 62.26 246.957 62.464 246.069 62.464C245.349 62.464 244.671 62.296 244.035 61.96C243.411 61.624 242.901 61.156 242.505 60.556C242.109 59.944 241.911 59.23 241.911 58.414C241.911 57.706 242.085 57.028 242.433 56.38C242.781 55.732 243.279 55.204 243.927 54.796C244.587 54.388 245.367 54.184 246.267 54.184ZM246.375 55.516C245.811 55.516 245.307 55.636 244.863 55.876C244.419 56.116 244.071 56.452 243.819 56.884C243.567 57.304 243.441 57.79 243.441 58.342C243.441 59.194 243.717 59.878 244.269 60.394C244.833 60.898 245.535 61.15 246.375 61.15C246.939 61.15 247.443 61.024 247.887 60.772C248.331 60.508 248.679 60.16 248.931 59.728C249.195 59.296 249.327 58.828 249.327 58.324C249.327 57.784 249.195 57.304 248.931 56.884C248.679 56.452 248.331 56.116 247.887 55.876C247.443 55.636 246.939 55.516 246.375 55.516Z" fill="#4A5078"/>
<path d="M257.749 67.216C256.885 67.216 256.135 67.06 255.499 66.748C254.863 66.436 254.353 66.01 253.969 65.47C253.597 64.918 253.369 64.294 253.285 63.598H254.761C254.905 64.294 255.241 64.858 255.769 65.29C256.297 65.71 256.963 65.92 257.767 65.92C258.367 65.92 258.883 65.782 259.315 65.506C259.747 65.218 260.077 64.834 260.305 64.354C260.545 63.874 260.665 63.34 260.665 62.752C260.665 61.816 260.401 61.06 259.873 60.484C259.345 59.908 258.661 59.62 257.821 59.62C257.125 59.62 256.531 59.776 256.039 60.088C255.547 60.4 255.187 60.808 254.959 61.312H253.519L254.599 54.4H261.205V55.714H255.769L255.031 59.548C255.319 59.2 255.715 58.912 256.219 58.684C256.735 58.456 257.323 58.342 257.983 58.342C258.811 58.342 259.531 58.534 260.143 58.918C260.767 59.302 261.253 59.824 261.601 60.484C261.949 61.144 262.123 61.894 262.123 62.734C262.123 63.538 261.949 64.282 261.601 64.966C261.265 65.65 260.767 66.196 260.107 66.604C259.459 67.012 258.673 67.216 257.749 67.216Z" fill="#4A5078"/>
<path d="M269.4 67.216C268.284 67.216 267.318 66.946 266.502 66.406C265.698 65.854 265.08 65.092 264.648 64.12C264.216 63.136 264 61.996 264 60.7C264 59.404 264.216 58.27 264.648 57.298C265.08 56.314 265.698 55.552 266.502 55.012C267.318 54.46 268.284 54.184 269.4 54.184C270.516 54.184 271.476 54.46 272.28 55.012C273.084 55.552 273.702 56.314 274.134 57.298C274.566 58.27 274.782 59.404 274.782 60.7C274.782 61.996 274.566 63.136 274.134 64.12C273.702 65.092 273.084 65.854 272.28 66.406C271.476 66.946 270.516 67.216 269.4 67.216ZM269.4 65.884C270.132 65.884 270.786 65.68 271.362 65.272C271.95 64.852 272.406 64.258 272.73 63.49C273.066 62.71 273.234 61.78 273.234 60.7C273.234 59.62 273.066 58.696 272.73 57.928C272.406 57.16 271.95 56.572 271.362 56.164C270.786 55.744 270.132 55.534 269.4 55.534C268.656 55.534 267.996 55.744 267.42 56.164C266.844 56.572 266.388 57.16 266.052 57.928C265.716 58.696 265.548 59.62 265.548 60.7C265.548 61.78 265.716 62.71 266.052 63.49C266.388 64.258 266.844 64.852 267.42 65.272C267.996 65.68 268.656 65.884 269.4 65.884Z" fill="#4A5078"/>
</svg>
