<svg width="176" height="43" viewBox="0 0 176 43" fill="none" xmlns="http://www.w3.org/2000/svg">
<g clip-path="url(#clip0)">
<path d="M29.665 2.38998C26.64 5.41498 26.64 10.323 29.665 13.347L35.144 18.826L40.623 13.347C43.648 10.323 43.648 5.41498 40.623 2.38998C37.598 -0.636017 32.69 -0.636017 29.665 2.38998Z" fill="#E31C71"/>
<path d="M13.227 40.73C16.252 37.706 16.252 32.797 13.227 29.773L7.74799 24.294L2.26899 29.773C-0.756006 32.797 -0.756006 37.706 2.26899 40.73C5.29299 43.756 10.202 43.756 13.227 40.73Z" fill="#E31C71"/>
<path d="M54.613 36.897C54.613 36.584 54.863 36.332 55.187 36.332C55.501 36.332 55.751 36.584 55.751 36.897V39.072H58.842V36.897C58.842 36.584 59.092 36.332 59.406 36.332C59.73 36.332 59.981 36.584 59.981 36.897V42.339C59.981 42.652 59.73 42.903 59.406 42.903C59.092 42.903 58.842 42.652 58.842 42.339V40.127H55.751V42.339C55.751 42.652 55.501 42.903 55.187 42.903C54.863 42.903 54.613 42.652 54.613 42.339V36.897Z" fill="#3E3E3D"/>
<path d="M66.9399 39.637V39.618C66.9399 38.36 66.0239 37.314 64.7369 37.314C63.4509 37.314 62.5529 38.34 62.5529 39.599V39.618C62.5529 40.877 63.4689 41.914 64.7559 41.914C66.0419 41.914 66.9399 40.895 66.9399 39.637ZM61.3589 39.637V39.618C61.3589 37.795 62.7659 36.267 64.7559 36.267C66.7449 36.267 68.1339 37.776 68.1339 39.599V39.618C68.1339 41.442 66.7279 42.968 64.7369 42.968C62.7469 42.968 61.3589 41.46 61.3589 39.637Z" fill="#3E3E3D"/>
<path d="M68.8829 37.11C68.8549 37.046 68.8359 36.963 68.8359 36.887C68.8359 36.573 69.1049 36.333 69.4199 36.333C69.6979 36.333 69.9099 36.508 69.9839 36.748L71.4739 41.2L72.9359 36.767C73.0289 36.497 73.2229 36.313 73.5099 36.313H73.5929C73.8799 36.313 74.0839 36.498 74.1669 36.767L75.6299 41.2L77.1189 36.739C77.2019 36.508 77.3969 36.333 77.6749 36.333C77.9799 36.333 78.2399 36.572 78.2399 36.878C78.2399 36.952 78.2119 37.045 78.1839 37.109L76.2679 42.477C76.1669 42.763 75.9529 42.948 75.6759 42.948H75.5639C75.2869 42.948 75.0829 42.772 74.9809 42.477L73.5379 38.247L72.0939 42.477C71.9929 42.772 71.7789 42.948 71.5019 42.948H71.3909C71.1129 42.948 70.9089 42.772 70.7989 42.477L68.8829 37.11Z" fill="#3E3E3D"/>
<path d="M82.228 36.916C82.228 36.602 82.478 36.342 82.802 36.342H82.922C83.172 36.342 83.338 36.472 83.449 36.649L85.411 39.72L87.383 36.638C87.503 36.445 87.67 36.342 87.901 36.342H88.021C88.345 36.342 88.595 36.602 88.595 36.916V42.339C88.595 42.654 88.345 42.904 88.021 42.904C87.716 42.904 87.457 42.644 87.457 42.339V38.452L85.874 40.831C85.754 41.016 85.606 41.127 85.393 41.127C85.189 41.127 85.041 41.016 84.921 40.831L83.348 38.471V42.348C83.348 42.663 83.098 42.905 82.784 42.905C82.468 42.905 82.228 42.664 82.228 42.348V36.916V36.916Z" fill="#3E3E3D"/>
<path d="M95.5539 39.637V39.618C95.5539 38.36 94.6379 37.314 93.3509 37.314C92.0659 37.314 91.1679 38.34 91.1679 39.599V39.618C91.1679 40.877 92.0839 41.914 93.3689 41.914C94.6559 41.914 95.5539 40.895 95.5539 39.637ZM89.9739 39.637V39.618C89.9739 37.795 91.3799 36.267 93.3699 36.267C95.3599 36.267 96.7479 37.776 96.7479 39.599V39.618C96.7479 41.442 95.3429 42.968 93.3519 42.968C91.3599 42.968 89.9739 41.46 89.9739 39.637Z" fill="#3E3E3D"/>
<path d="M98.126 36.916C98.126 36.602 98.376 36.342 98.7 36.342H98.82C99.098 36.342 99.255 36.482 99.412 36.676L102.652 40.867V36.888C102.652 36.583 102.902 36.333 103.207 36.333C103.522 36.333 103.772 36.583 103.772 36.888V42.33C103.772 42.644 103.53 42.894 103.215 42.894H103.168C102.901 42.894 102.733 42.755 102.576 42.551L99.245 38.239V42.346C99.245 42.653 98.995 42.903 98.69 42.903C98.375 42.903 98.125 42.653 98.125 42.346V36.916H98.126Z" fill="#3E3E3D"/>
<path d="M105.438 42.284V36.954C105.438 36.629 105.688 36.379 106.011 36.379H109.779C110.055 36.379 110.287 36.61 110.287 36.888C110.287 37.175 110.056 37.398 109.779 37.398H106.576V39.083H109.362C109.638 39.083 109.871 39.313 109.871 39.601C109.871 39.879 109.639 40.101 109.362 40.101H106.576V41.841H109.824C110.102 41.841 110.333 42.071 110.333 42.35C110.333 42.637 110.103 42.859 109.824 42.859H106.011C105.688 42.857 105.438 42.607 105.438 42.284Z" fill="#3E3E3D"/>
<path d="M113.461 40.341L111.231 37.278C111.156 37.167 111.101 37.037 111.101 36.881C111.101 36.574 111.351 36.333 111.675 36.333C111.925 36.333 112.091 36.4739 112.231 36.6769L114.035 39.277L115.867 36.6679C116.007 36.4639 116.173 36.325 116.413 36.325C116.746 36.325 116.969 36.575 116.969 36.882C116.969 37.038 116.895 37.1769 116.812 37.2879L114.6 40.3139V42.34C114.6 42.654 114.35 42.9039 114.027 42.9039C113.713 42.9039 113.463 42.654 113.463 42.34V40.341H113.461Z" fill="#3E3E3D"/>
<path d="M120.688 42.136C120.558 42.043 120.465 41.886 120.465 41.701C120.465 41.404 120.707 41.173 121.003 41.173C121.16 41.173 121.262 41.22 121.336 41.275C121.872 41.702 122.446 41.941 123.149 41.941C123.852 41.941 124.296 41.608 124.296 41.128V41.108C124.296 40.645 124.037 40.395 122.834 40.118C121.455 39.785 120.678 39.378 120.678 38.184V38.165C120.678 37.054 121.603 36.286 122.89 36.286C123.704 36.286 124.362 36.499 124.945 36.888C125.074 36.962 125.195 37.119 125.195 37.342C125.195 37.637 124.954 37.869 124.658 37.869C124.547 37.869 124.454 37.841 124.362 37.785C123.862 37.461 123.381 37.295 122.872 37.295C122.205 37.295 121.816 37.637 121.816 38.063V38.083C121.816 38.582 122.113 38.805 123.363 39.1C124.731 39.433 125.435 39.924 125.435 40.998V41.016C125.435 42.229 124.481 42.952 123.122 42.952C122.243 42.951 121.409 42.673 120.688 42.136Z" fill="#3E3E3D"/>
<path d="M126.777 36.897C126.777 36.584 127.027 36.332 127.351 36.332C127.665 36.332 127.914 36.584 127.914 36.897V39.072H131.005V36.897C131.005 36.584 131.255 36.332 131.569 36.332C131.894 36.332 132.144 36.584 132.144 36.897V42.339C132.144 42.652 131.894 42.903 131.569 42.903C131.255 42.903 131.005 42.652 131.005 42.339V40.127H127.914V42.339C127.914 42.652 127.665 42.903 127.351 42.903C127.027 42.903 126.777 42.652 126.777 42.339V36.897Z" fill="#3E3E3D"/>
<path d="M139.104 39.637V39.618C139.104 38.36 138.188 37.314 136.901 37.314C135.615 37.314 134.718 38.34 134.718 39.599V39.618C134.718 40.877 135.634 41.914 136.92 41.914C138.206 41.914 139.104 40.895 139.104 39.637ZM133.523 39.637V39.618C133.523 37.795 134.929 36.267 136.919 36.267C138.909 36.267 140.297 37.776 140.297 39.599V39.618C140.297 41.442 138.89 42.968 136.9 42.968C134.911 42.968 133.523 41.46 133.523 39.637Z" fill="#3E3E3D"/>
<path d="M141.574 40.109V36.897C141.574 36.583 141.824 36.333 142.148 36.333C142.462 36.333 142.712 36.583 142.712 36.897V40.062C142.712 41.265 143.332 41.904 144.35 41.904C145.359 41.904 145.979 41.302 145.979 40.109V36.897C145.979 36.583 146.229 36.333 146.553 36.333C146.867 36.333 147.117 36.583 147.117 36.897V40.053C147.117 41.987 146.024 42.958 144.331 42.958C142.647 42.959 141.574 41.987 141.574 40.109Z" fill="#3E3E3D"/>
<path d="M148.682 36.897C148.682 36.584 148.932 36.332 149.256 36.332C149.569 36.332 149.819 36.584 149.819 36.897V41.82H152.754C153.04 41.82 153.272 42.052 153.272 42.34C153.272 42.628 153.041 42.858 152.754 42.858H149.256C148.932 42.858 148.682 42.608 148.682 42.284V36.897Z" fill="#3E3E3D"/>
<path d="M156.825 41.82C158.185 41.82 159.074 40.904 159.074 39.636V39.616C159.074 38.349 158.185 37.415 156.825 37.415H155.548V41.819H156.825V41.82ZM154.41 36.953C154.41 36.63 154.66 36.38 154.984 36.38H156.825C158.861 36.38 160.267 37.776 160.267 39.601V39.618C160.267 41.442 158.861 42.858 156.825 42.858H154.984C154.66 42.858 154.41 42.608 154.41 42.284V36.953Z" fill="#3E3E3D"/>
<path d="M167.431 41.849C168.208 41.849 168.68 41.543 168.68 40.961V40.942C168.68 40.396 168.245 40.072 167.347 40.072H165.543V41.848H167.431V41.849ZM167.098 39.109C167.829 39.109 168.32 38.822 168.32 38.23V38.21C168.32 37.701 167.913 37.388 167.181 37.388H165.543V39.109H167.098V39.109ZM164.423 36.953C164.423 36.629 164.673 36.379 164.997 36.379H167.329C168.069 36.379 168.652 36.583 169.022 36.953C169.308 37.24 169.458 37.592 169.458 38.026V38.045C169.458 38.822 169.013 39.239 168.532 39.488C169.291 39.747 169.818 40.183 169.818 41.062V41.08C169.818 42.237 168.865 42.857 167.421 42.857H164.997C164.673 42.857 164.423 42.608 164.423 42.283V36.953V36.953Z" fill="#3E3E3D"/>
<path d="M171.104 42.284V36.954C171.104 36.629 171.354 36.379 171.678 36.379H175.444C175.722 36.379 175.953 36.61 175.953 36.888C175.953 37.175 175.723 37.398 175.444 37.398H172.242V39.083H175.027C175.305 39.083 175.536 39.313 175.536 39.601C175.536 39.879 175.306 40.101 175.027 40.101H172.242V41.841H175.49C175.768 41.841 175.999 42.071 175.999 42.35C175.999 42.637 175.769 42.859 175.49 42.859H171.678C171.354 42.857 171.104 42.607 171.104 42.284Z" fill="#3E3E3D"/>
<path d="M55.6461 25.762L63.9031 15.627L56.1271 6.14698C55.6021 5.49198 55.1221 4.61798 55.1221 3.65698C55.1221 1.77798 56.5201 0.336975 58.4421 0.336975C59.8831 0.336975 60.7131 0.904975 61.5441 1.99698L68.2271 10.909L74.8671 2.17198C75.7861 0.991975 76.6591 0.336975 78.1441 0.336975C79.6301 0.336975 81.2021 1.51597 81.2021 3.43897C81.2021 4.39997 80.8531 5.18598 80.1971 6.01597L72.4221 15.539L80.6341 25.63C81.1581 26.286 81.6391 27.16 81.6391 28.121C81.6391 30 80.2411 31.441 78.3181 31.441C76.8771 31.441 76.0471 30.874 75.2171 29.781L68.0531 20.389L60.9761 29.606C60.0581 30.786 59.1841 31.441 57.6991 31.441C56.2131 31.441 54.6411 30.261 54.6411 28.339C54.6411 27.378 54.9911 26.592 55.6461 25.762Z" fill="#3E3E3D"/>
<path d="M84.3479 3.70097C84.3479 1.82297 85.8329 0.336975 87.7119 0.336975C89.5899 0.336975 91.0739 1.82297 91.0739 3.70097V28.078C91.0739 29.956 89.5899 31.441 87.7119 31.441C85.8329 31.441 84.3479 29.956 84.3479 28.078V3.70097Z" fill="#3E3E3D"/>
<path d="M94.3521 3.78798C94.3521 1.90998 95.8371 0.423975 97.7161 0.423975H98.4151C100.03 0.423975 100.992 1.21098 101.909 2.38998L114.884 19.427V3.65698C114.884 1.82198 116.369 0.336975 118.204 0.336975C120.039 0.336975 121.523 1.82198 121.523 3.65698V27.99C121.523 29.868 120.039 31.354 118.161 31.354H117.941C116.326 31.354 115.364 30.568 114.446 29.387L100.992 11.739V28.121C100.992 29.956 99.5071 31.441 97.6721 31.441C95.8371 31.441 94.3521 29.956 94.3521 28.121V3.78798Z" fill="#3E3E3D"/>
<path d="M125.324 28.951C124.626 28.426 124.057 27.422 124.057 26.374C124.057 24.582 125.454 23.141 127.245 23.141C128.075 23.141 128.6 23.36 129.256 23.839C130.61 24.845 131.789 25.369 133.319 25.369C135.94 25.369 137.512 23.839 137.512 20.301V3.70097C137.512 1.82197 138.997 0.336975 140.876 0.336975C142.755 0.336975 144.239 1.82197 144.239 3.70097V20.607C144.239 24.233 143.19 26.942 141.355 28.776C139.478 30.654 136.725 31.615 133.405 31.615C129.911 31.615 127.246 30.437 125.324 28.951Z" fill="#3E3E3D"/>
<path d="M165.035 18.379L160.798 8.28798L156.56 18.379H165.035ZM146.119 26.854L156.777 2.78298C157.52 1.12298 158.876 0.117981 160.71 0.117981H161.103C162.938 0.117981 164.249 1.12298 164.992 2.78298L175.651 26.854C175.871 27.333 176.001 27.771 176.001 28.208C176.001 29.999 174.604 31.441 172.812 31.441C171.24 31.441 170.192 30.524 169.58 29.125L167.526 24.32H154.071L151.931 29.343C151.362 30.655 150.227 31.441 148.829 31.441C147.081 31.441 145.726 30.043 145.726 28.295C145.726 27.815 145.9 27.334 146.119 26.854Z" fill="#3E3E3D"/>
<path d="M2.37488 2.48796C5.53388 -0.671037 10.6579 -0.671037 13.8169 2.48796L40.5149 29.186C43.6739 32.346 43.6739 37.469 40.5149 40.627C37.3559 43.786 32.2329 43.786 29.0729 40.627L2.37488 13.93C-0.785117 10.771 -0.785117 5.64696 2.37488 2.48796Z" fill="#E31C71"/>
</g>
<defs>
<clipPath id="clip0">
<rect width="176" height="43" fill="white"/>
</clipPath>
</defs>
</svg>
