<svg width="163" height="37" viewBox="0 0 163 37" fill="none" xmlns="http://www.w3.org/2000/svg">
<g clip-path="url(#clip0)">
<path fill-rule="evenodd" clip-rule="evenodd" d="M3.86015 13.16C3.56237 12.857 3.18114 12.6495 2.76501 12.5639C2.34889 12.4783 1.9167 12.5185 1.5235 12.6794C1.1303 12.8402 0.793883 13.1145 0.55709 13.4672C0.320297 13.82 0.193848 14.2352 0.193848 14.66C0.193848 15.0849 0.320297 15.5001 0.55709 15.8528C0.793883 16.2055 1.1303 16.4798 1.5235 16.6407C1.9167 16.8015 2.34889 16.8417 2.76501 16.7561C3.18114 16.6705 3.56237 16.463 3.86015 16.16C4.25346 15.7598 4.47385 15.2211 4.47385 14.66C4.47385 14.0989 4.25346 13.5602 3.86015 13.16" fill="black"/>
<path fill-rule="evenodd" clip-rule="evenodd" d="M8.07988 8.93004C7.78209 8.62704 7.40086 8.41952 6.98474 8.33393C6.56862 8.24833 6.13643 8.28853 5.74323 8.4494C5.35003 8.61027 5.01361 8.88453 4.77682 9.23726C4.54002 9.58998 4.41357 10.0052 4.41357 10.43C4.41357 10.8549 4.54002 11.2701 4.77682 11.6228C5.01361 11.9755 5.35003 12.2498 5.74323 12.4107C6.13643 12.5716 6.56862 12.6118 6.98474 12.5262C7.40086 12.4406 7.78209 12.233 8.07988 11.93C8.47319 11.5298 8.69357 10.9912 8.69357 10.43C8.69357 9.86892 8.47319 9.33025 8.07988 8.93004Z" fill="black"/>
<path fill-rule="evenodd" clip-rule="evenodd" d="M13.0999 13.9501C12.8021 13.6471 12.4209 13.4395 12.0048 13.3539C11.5886 13.2683 11.1565 13.3085 10.7633 13.4694C10.3701 13.6303 10.0336 13.9046 9.79684 14.2573C9.56004 14.61 9.43359 15.0252 9.43359 15.4501C9.43359 15.8749 9.56004 16.2901 9.79684 16.6428C10.0336 16.9956 10.3701 17.2698 10.7633 17.4307C11.1565 17.5916 11.5886 17.6318 12.0048 17.5462C12.4209 17.4606 12.8021 17.2531 13.0999 16.9501C13.4885 16.5474 13.7057 16.0097 13.7057 15.4501C13.7057 14.8905 13.4885 14.3527 13.0999 13.9501" fill="black"/>
<path fill-rule="evenodd" clip-rule="evenodd" d="M12.3099 4.70006C12.0121 4.39706 11.6308 4.18954 11.2147 4.10394C10.7986 4.01835 10.3664 4.05855 9.97321 4.21942C9.58001 4.38029 9.24359 4.65455 9.0068 5.00728C8.77 5.36 8.64355 5.77522 8.64355 6.20006C8.64355 6.6249 8.77 7.04012 9.0068 7.39284C9.24359 7.74557 9.58001 8.01983 9.97321 8.1807C10.3664 8.34157 10.7986 8.38177 11.2147 8.29617C11.6308 8.21058 12.0121 8.00306 12.3099 7.70006C12.6985 7.29741 12.9156 6.75965 12.9156 6.20006C12.9156 5.64047 12.6985 5.10271 12.3099 4.70006" fill="black"/>
<path fill-rule="evenodd" clip-rule="evenodd" d="M28.54 18.5599C28.8377 18.8629 29.219 19.0704 29.6351 19.156C30.0512 19.2416 30.4834 19.2014 30.8766 19.0406C31.2698 18.8797 31.6062 18.6054 31.843 18.2527C32.0798 17.9 32.2063 17.4848 32.2063 17.0599C32.2063 16.6351 32.0798 16.2199 31.843 15.8671C31.6062 15.5144 31.2698 15.2402 30.8766 15.0793C30.4834 14.9184 30.0512 14.8782 29.6351 14.9638C29.219 15.0494 28.8377 15.2569 28.54 15.5599C28.1467 15.9601 27.9263 16.4988 27.9263 17.0599C27.9263 17.621 28.1467 18.1597 28.54 18.5599" fill="black"/>
<path fill-rule="evenodd" clip-rule="evenodd" d="M24.3201 22.8199C24.6179 23.1229 24.9991 23.3305 25.4153 23.416C25.8314 23.5016 26.2636 23.4614 26.6568 23.3006C27.05 23.1397 27.3864 22.8654 27.6232 22.5127C27.86 22.16 27.9864 21.7448 27.9864 21.3199C27.9864 20.8951 27.86 20.4799 27.6232 20.1271C27.3864 19.7744 27.05 19.5002 26.6568 19.3393C26.2636 19.1784 25.8314 19.1382 25.4153 19.2238C24.9991 19.3094 24.6179 19.5169 24.3201 19.8199C23.9315 20.2226 23.7144 20.7603 23.7144 21.3199C23.7144 21.8795 23.9315 22.4173 24.3201 22.8199" fill="black"/>
<path fill-rule="evenodd" clip-rule="evenodd" d="M3.84009 26.2501C3.66938 26.4733 3.45636 26.6608 3.2132 26.8017C2.97004 26.9426 2.70151 27.0342 2.42294 27.0714C2.14436 27.1085 1.8612 27.0904 1.58961 27.0182C1.31803 26.9459 1.06334 26.8208 0.840093 26.6501C0.616846 26.4794 0.429411 26.2663 0.288488 26.0232C0.147566 25.78 0.0559166 25.5115 0.0187732 25.2329C-0.0183702 24.9543 -0.000280403 24.6712 0.0720099 24.3996C0.1443 24.128 0.269375 23.8733 0.440094 23.6501C0.555315 23.4998 0.689802 23.3653 0.840093 23.2501L5.84009 18.2501C6.25202 17.9349 6.76441 17.78 7.28197 17.8142C7.79953 17.8485 8.28703 18.0696 8.6538 18.4364C9.02057 18.8031 9.24165 19.2906 9.27592 19.8082C9.31019 20.3258 9.15531 20.8381 8.84009 21.2501L3.84009 26.2501Z" fill="black"/>
<path fill-rule="evenodd" clip-rule="evenodd" d="M26.5802 0.440015C26.1682 0.124799 25.6558 -0.0300774 25.1383 0.0041894C24.6207 0.0384562 24.1332 0.259534 23.7664 0.626306C23.3997 0.993078 23.1786 1.48058 23.1443 1.99814C23.1101 2.5157 23.2649 3.02809 23.5802 3.44001C23.9921 3.75523 24.5045 3.91011 25.022 3.87584C25.5396 3.84157 26.0271 3.6205 26.3939 3.25372C26.7606 2.88695 26.9817 2.39945 27.016 1.88189C27.0502 1.36433 26.8954 0.85194 26.5802 0.440015" fill="black"/>
<path fill-rule="evenodd" clip-rule="evenodd" d="M17.3199 12.7501C16.908 13.0653 16.3956 13.2202 15.878 13.1859C15.3605 13.1516 14.873 12.9306 14.5062 12.5638C14.1394 12.197 13.9183 11.7095 13.8841 11.192C13.8498 10.6744 14.0047 10.162 14.3199 9.75007L19.3199 4.75007C19.7318 4.43486 20.2442 4.27998 20.7618 4.31425C21.2793 4.34851 21.7668 4.56959 22.1336 4.93636C22.5004 5.30314 22.7215 5.79064 22.7557 6.3082C22.79 6.82576 22.6351 7.33815 22.3199 7.75007L17.3199 12.7501Z" fill="black"/>
<path fill-rule="evenodd" clip-rule="evenodd" d="M18.1102 18.9701C17.8124 18.6671 17.4311 18.4596 17.015 18.374C16.5989 18.2884 16.1667 18.3286 15.7735 18.4894C15.3803 18.6503 15.0439 18.9246 14.8071 19.2773C14.5703 19.63 14.4438 20.0452 14.4438 20.4701C14.4438 20.8949 14.5703 21.3101 14.8071 21.6629C15.0439 22.0156 15.3803 22.2899 15.7735 22.4507C16.1667 22.6116 16.5989 22.6518 17.015 22.5662C17.4311 22.4806 17.8124 22.2731 18.1102 21.9701C18.5035 21.5699 18.7238 21.0312 18.7238 20.4701C18.7238 19.909 18.5035 19.3703 18.1102 18.9701" fill="black"/>
<path fill-rule="evenodd" clip-rule="evenodd" d="M28.1902 29.0399C27.8924 28.7369 27.5112 28.5294 27.0951 28.4438C26.679 28.3582 26.2468 28.3984 25.8536 28.5593C25.4604 28.7201 25.124 28.9944 24.8872 29.3471C24.6504 29.6998 24.5239 30.1151 24.5239 30.5399C24.5239 30.9647 24.6504 31.38 24.8872 31.7327C25.124 32.0854 25.4604 32.3597 25.8536 32.5205C26.2468 32.6814 26.679 32.7216 27.0951 32.636C27.5112 32.5504 27.8924 32.3429 28.1902 32.0399C28.5835 31.6397 28.8039 31.101 28.8039 30.5399C28.8039 29.9788 28.5835 29.4401 28.1902 29.0399" fill="black"/>
<path fill-rule="evenodd" clip-rule="evenodd" d="M22.3302 17.8201C21.9182 18.1353 21.4058 18.2902 20.8883 18.2559C20.3707 18.2217 19.8832 18.0006 19.5164 17.6338C19.1497 17.267 18.9286 16.7795 18.8943 16.262C18.8601 15.7444 19.0149 15.232 19.3302 14.8201L24.3302 9.82011C24.527 9.62297 24.7609 9.46658 25.0183 9.35987C25.2756 9.25317 25.5515 9.19824 25.8302 9.19824C26.1088 9.19824 26.3847 9.25317 26.6421 9.35987C26.8994 9.46658 27.1333 9.62297 27.3302 9.82011C27.7188 10.2228 27.9359 10.7605 27.9359 11.3201C27.9359 11.8797 27.7188 12.4175 27.3302 12.8201L22.3302 17.8201Z" fill="black"/>
<path fill-rule="evenodd" clip-rule="evenodd" d="M13.8602 33.2601C13.5624 32.9571 13.1811 32.7496 12.765 32.664C12.3489 32.5784 11.9167 32.6186 11.5235 32.7795C11.1303 32.9403 10.7939 33.2146 10.5571 33.5673C10.3203 33.9201 10.1938 34.3353 10.1938 34.7601C10.1938 35.185 10.3203 35.6002 10.5571 35.9529C10.7939 36.3056 11.1303 36.5799 11.5235 36.7408C11.9167 36.9016 12.3489 36.9418 12.765 36.8562C13.1811 36.7706 13.5624 36.5631 13.8602 36.2601C14.2535 35.8599 14.4738 35.3212 14.4738 34.7601C14.4738 34.199 14.2535 33.6603 13.8602 33.2601Z" fill="black"/>
<path fill-rule="evenodd" clip-rule="evenodd" d="M18.0901 32.0601C17.7453 32.5109 17.2356 32.8064 16.6729 32.8814C16.1103 32.9564 15.541 32.8048 15.0901 32.4601C14.6392 32.1153 14.3438 31.6055 14.2688 31.0429C14.1938 30.4803 14.3453 29.9109 14.6901 29.4601C14.8053 29.3098 14.9398 29.1753 15.0901 29.0601L20.0901 24.0601C20.2608 23.8368 20.4738 23.6494 20.717 23.5085C20.9602 23.3675 21.2287 23.2759 21.5073 23.2387C21.7858 23.2016 22.069 23.2197 22.3406 23.292C22.6122 23.3643 22.8669 23.4893 23.0901 23.6601C23.3133 23.8308 23.5008 24.0438 23.6417 24.287C23.7826 24.5301 23.8743 24.7986 23.9114 25.0772C23.9486 25.3558 23.9305 25.639 23.8582 25.9105C23.7859 26.1821 23.6608 26.4368 23.4901 26.6601C23.3749 26.8104 23.2404 26.9448 23.0901 27.0601L18.0901 32.0601Z" fill="black"/>
<path fill-rule="evenodd" clip-rule="evenodd" d="M52.4201 8.94C51.2707 8.89173 50.1306 9.1658 49.1287 9.73126C48.1268 10.2967 47.3029 11.131 46.7501 12.14V9.27H43.1201V30.82H46.7501V22.37C47.3029 23.379 48.1268 24.2133 49.1287 24.7788C50.1306 25.3442 51.2707 25.6183 52.4201 25.57C56.6701 25.57 60.0301 21.88 60.0301 17.27C60.0301 12.66 56.6701 8.94 52.4201 8.94ZM51.6401 22.11C51.0163 22.1287 50.3949 22.0242 49.8114 21.8026C49.228 21.5809 48.6939 21.2465 48.2398 20.8184C47.7856 20.3902 47.4203 19.8768 47.1647 19.3074C46.9091 18.738 46.7682 18.1239 46.7501 17.5V17.27C46.7409 16.6449 46.8548 16.0241 47.0855 15.443C47.3162 14.862 47.6591 14.332 48.0946 13.8835C48.5302 13.435 49.0498 13.0767 49.6238 12.829C50.1978 12.5813 50.815 12.4491 51.4401 12.44H51.6401C52.8896 12.4967 54.0692 13.033 54.9333 13.9373C55.7975 14.8416 56.2797 16.0442 56.2797 17.295C56.2797 18.5458 55.7975 19.7484 54.9333 20.6527C54.0692 21.557 52.8896 22.0933 51.6401 22.15V22.11Z" fill="black"/>
<path fill-rule="evenodd" clip-rule="evenodd" d="M65.0502 17.27C65.0185 17.8872 65.1091 18.5046 65.3168 19.0867C65.5245 19.6688 65.8453 20.2041 66.2606 20.6619C66.6758 21.1196 67.1775 21.4907 67.7367 21.7539C68.2959 22.0171 68.9016 22.1672 69.519 22.1955C70.1364 22.2239 70.7533 22.1299 71.3343 21.919C71.9152 21.7081 72.4488 21.3845 72.9042 20.9667C73.3597 20.549 73.7281 20.0453 73.9883 19.4847C74.2484 18.9241 74.3952 18.3175 74.4202 17.7C74.4302 17.5568 74.4302 17.4132 74.4202 17.27C74.4799 16.0275 74.0435 14.8121 73.2071 13.8913C72.7929 13.4354 72.293 13.0655 71.7359 12.8027C71.1788 12.54 70.5754 12.3896 69.9602 12.36C69.3449 12.3305 68.7299 12.4224 68.1502 12.6305C67.5705 12.8387 67.0374 13.159 66.5815 13.5731C65.6607 14.4095 65.1098 15.5775 65.0502 16.82C65.0402 16.9632 65.0402 17.1068 65.0502 17.25V17.27ZM78.0502 17.25C78.1151 19.4382 77.3109 21.5631 75.8133 23.1599C74.3157 24.7567 72.2467 25.6954 70.0588 25.7708C67.8709 25.8461 65.7423 25.0519 64.1384 23.562C62.5345 22.072 61.5859 20.0075 61.5002 17.82C61.4902 17.6268 61.4902 17.4332 61.5002 17.24C61.4621 16.1533 61.6384 15.0698 62.0191 14.0512C62.3998 13.0327 62.9773 12.0991 63.7188 11.3038C65.2163 9.69751 67.2905 8.75192 69.4852 8.67501C71.6798 8.59809 73.8152 9.39616 75.4214 10.8936C77.0277 12.3911 77.9733 14.4653 78.0502 16.66C78.0602 16.8532 78.0602 17.0468 78.0502 17.24" fill="black"/>
<path fill-rule="evenodd" clip-rule="evenodd" d="M79.77 25.2401H83.39V2.37012H79.77V25.2401Z" fill="black"/>
<path fill-rule="evenodd" clip-rule="evenodd" d="M86.29 25.2401H89.92V2.37012H86.29V25.2401Z" fill="black"/>
<path fill-rule="evenodd" clip-rule="evenodd" d="M92.8203 25.24H96.4403V9.26001H92.8203V25.24Z" fill="black"/>
<path fill-rule="evenodd" clip-rule="evenodd" d="M95.7002 2.68007C95.3339 2.46756 94.9128 2.3685 94.4901 2.39545C94.0675 2.4224 93.6624 2.57414 93.326 2.83147C92.9897 3.08879 92.7372 3.44013 92.6007 3.841C92.4641 4.24187 92.4495 4.67424 92.5588 5.08339C92.6681 5.49254 92.8963 5.86006 93.2146 6.13943C93.5329 6.4188 93.9269 6.59746 94.3468 6.65278C94.7666 6.7081 95.1935 6.6376 95.5733 6.45021C95.953 6.26281 96.2687 5.96695 96.4802 5.60007C96.6219 5.35873 96.7143 5.09174 96.7523 4.81449C96.7902 4.53724 96.7729 4.25522 96.7013 3.9847C96.6297 3.71417 96.5053 3.46049 96.3352 3.2383C96.1651 3.0161 95.9527 2.82977 95.7102 2.69007" fill="black"/>
<path fill-rule="evenodd" clip-rule="evenodd" d="M114.36 16.13V25.24H110.7V16.59C110.7 14.07 109.17 12.44 106.85 12.44C105.843 12.3882 104.856 12.7381 104.106 13.413C103.356 14.0879 102.905 15.0326 102.85 16.04C102.835 16.223 102.835 16.4069 102.85 16.59V25.24H99.2803V9.23997H102.9V11.76C103.364 10.8864 104.061 10.1585 104.914 9.65711C105.766 9.15576 106.741 8.9006 107.73 8.91997C111.81 8.91997 114.36 11.66 114.36 16.11" fill="black"/>
<path fill-rule="evenodd" clip-rule="evenodd" d="M129.3 17.2401C129.307 16.6163 129.191 15.9973 128.958 15.4185C128.725 14.8396 128.381 14.3123 127.944 13.8666C127.508 13.4209 126.988 13.0655 126.414 12.8207C125.84 12.5759 125.224 12.4466 124.6 12.4401H124.43C123.181 12.4968 122.001 13.0331 121.137 13.9373C120.273 14.8416 119.791 16.0443 119.791 17.2951C119.791 18.5459 120.273 19.7485 121.137 20.6528C122.001 21.5571 123.181 22.0933 124.43 22.1501C125.055 22.1647 125.677 22.056 126.26 21.8302C126.844 21.6044 127.376 21.2659 127.829 20.8341C128.281 20.4022 128.644 19.8855 128.896 19.3135C129.149 18.7414 129.286 18.1252 129.3 17.5001V17.2401ZM132.95 9.24006V25.2401H129.3V22.4401C128.738 23.4325 127.914 24.2506 126.917 24.8046C125.92 25.3586 124.79 25.6269 123.65 25.5801C119.41 25.5801 116.01 21.8601 116.01 17.2501C116.01 12.6401 119.41 8.95006 123.65 8.95006C124.79 8.9032 125.92 9.17152 126.917 9.7255C127.914 10.2795 128.738 11.0977 129.3 12.0901V9.27006L132.95 9.24006Z" fill="black"/>
<path fill-rule="evenodd" clip-rule="evenodd" d="M141.27 12.73V19.17C141.27 21.17 142.51 22.01 144.27 22.01C144.667 22.0168 145.064 21.9731 145.45 21.88V25.25C144.792 25.383 144.122 25.4467 143.45 25.44C139.93 25.44 137.58 23.28 137.58 19.23V12.73H134.58V9.25998H137.58V4.97998H141.19V9.25998H145.37V12.73H141.27Z" fill="black"/>
<path fill-rule="evenodd" clip-rule="evenodd" d="M158.19 15.34C158.077 14.3723 157.602 13.4834 156.86 12.8525C156.117 12.2216 155.163 11.8955 154.19 11.94C153.194 11.9245 152.223 12.2548 151.442 12.8747C150.662 13.4946 150.121 14.3658 149.91 15.34H158.19ZM162.04 18.12H149.74C149.822 19.2955 150.366 20.3911 151.251 21.1683C152.137 21.9454 153.294 22.3414 154.47 22.27C156.47 22.27 157.97 21.36 158.29 19.98H161.95C161.36 23.35 158.32 25.57 154.41 25.57C153.332 25.5819 152.261 25.3808 151.261 24.9784C150.26 24.5761 149.349 23.9802 148.578 23.225C147.808 22.4698 147.195 21.5701 146.773 20.5774C146.351 19.5847 146.129 18.5185 146.12 17.44V17.17C146.094 15.0189 146.92 12.9448 148.42 11.4022C149.919 9.85961 151.969 8.97422 154.12 8.93998H154.31C155.324 8.9281 156.329 9.11611 157.27 9.49325C158.211 9.87039 159.068 10.4293 159.792 11.1379C160.517 11.8466 161.094 12.6911 161.492 13.6232C161.89 14.5553 162.1 15.5566 162.11 16.57V16.94C162.117 17.3456 162.084 17.751 162.01 18.15L162.04 18.12Z" fill="black"/>
</g>
<defs>
<clipPath id="clip0">
<rect width="162.14" height="36.9" fill="white"/>
</clipPath>
</defs>
</svg>
