<svg width="252" height="57" viewBox="0 0 252 57" fill="none" xmlns="http://www.w3.org/2000/svg">
<g clip-path="url(#clip0)">
<path fill-rule="evenodd" clip-rule="evenodd" d="M5.89223 20.2735C5.43349 19.8067 4.84619 19.4871 4.20512 19.3552C3.56407 19.2233 2.89826 19.2853 2.29252 19.5331C1.68678 19.7809 1.16852 20.2034 0.80373 20.7468C0.43894 21.2903 0.244141 21.9299 0.244141 22.5843C0.244141 23.2389 0.43894 23.8785 0.80373 24.4219C1.16852 24.9652 1.68678 25.3878 2.29252 25.6357C2.89826 25.8834 3.56407 25.9453 4.20512 25.8135C4.84619 25.6816 5.43349 25.3619 5.89223 24.8951C6.49814 24.2786 6.83766 23.4487 6.83766 22.5843C6.83766 21.7199 6.49814 20.89 5.89223 20.2735Z" fill="#A6ABC9"/>
<path fill-rule="evenodd" clip-rule="evenodd" d="M12.3942 13.7572C11.9354 13.2904 11.3481 12.9707 10.7071 12.8389C10.066 12.707 9.40023 12.7689 8.79449 13.0167C8.18875 13.2646 7.67048 13.6871 7.3057 14.2305C6.9409 14.7738 6.74609 15.4135 6.74609 16.0679C6.74609 16.7225 6.9409 17.3621 7.3057 17.9055C7.67048 18.4488 8.18875 18.8714 8.79449 19.1193C9.40023 19.3672 10.066 19.4291 10.7071 19.2972C11.3481 19.1653 11.9354 18.8455 12.3942 18.3787C13.0001 17.7622 13.3396 16.9325 13.3396 16.0679C13.3396 15.2036 13.0001 14.3737 12.3942 13.7572Z" fill="#A6ABC9"/>
<path fill-rule="evenodd" clip-rule="evenodd" d="M20.1266 21.4907C19.6678 21.0239 19.0806 20.7041 18.4396 20.5722C17.7984 20.4404 17.1327 20.5023 16.527 20.7502C15.9212 20.9981 15.4029 21.4206 15.0381 21.964C14.6733 22.5073 14.4785 23.147 14.4785 23.8015C14.4785 24.456 14.6733 25.0956 15.0381 25.6389C15.4029 26.1824 15.9212 26.6049 16.527 26.8527C17.1327 27.1006 17.7984 27.1625 18.4396 27.0307C19.0806 26.8988 19.6678 26.5791 20.1266 26.1123C20.7253 25.492 21.0599 24.6636 21.0599 23.8015C21.0599 22.9394 20.7253 22.1109 20.1266 21.4907Z" fill="#A6ABC9"/>
<path fill-rule="evenodd" clip-rule="evenodd" d="M18.9079 7.24059C18.4492 6.7738 17.8617 6.45411 17.2207 6.32224C16.5797 6.19039 15.9139 6.25231 15.3082 6.50014C14.7024 6.74797 14.1842 7.17048 13.8194 7.71387C13.4546 8.25725 13.2598 8.89691 13.2598 9.5514C13.2598 10.2059 13.4546 10.8455 13.8194 11.3889C14.1842 11.9323 14.7024 12.3548 15.3082 12.6027C15.9139 12.8505 16.5797 12.9124 17.2207 12.7805C17.8617 12.6487 18.4492 12.329 18.9079 11.8622C19.5066 11.2419 19.841 10.4135 19.841 9.5514C19.841 8.68933 19.5066 7.86089 18.9079 7.24059Z" fill="#A6ABC9"/>
<path fill-rule="evenodd" clip-rule="evenodd" d="M43.9122 28.5924C44.3708 29.0592 44.9583 29.3789 45.5993 29.5107C46.2403 29.6426 46.9061 29.5807 47.5119 29.3329C48.1176 29.0851 48.6358 28.6625 49.0006 28.1192C49.3654 27.5758 49.5603 26.9362 49.5603 26.2816C49.5603 25.6272 49.3654 24.9875 49.0006 24.444C48.6358 23.9007 48.1176 23.4783 47.5119 23.2304C46.9061 22.9825 46.2403 22.9206 45.5993 23.0525C44.9583 23.1843 44.3708 23.504 43.9122 23.9708C43.3063 24.5873 42.9668 25.4172 42.9668 26.2816C42.9668 27.146 43.3063 27.9759 43.9122 28.5924Z" fill="#A6ABC9"/>
<path fill-rule="evenodd" clip-rule="evenodd" d="M37.4116 35.1549C37.8704 35.6217 38.4576 35.9415 39.0988 36.0732C39.7398 36.2051 40.4057 36.1432 41.0114 35.8954C41.6171 35.6476 42.1354 35.225 42.5002 34.6817C42.865 34.1383 43.0597 33.4987 43.0597 32.8441C43.0597 32.1897 42.865 31.55 42.5002 31.0065C42.1354 30.4632 41.6171 30.0408 41.0114 29.7929C40.4057 29.545 39.7398 29.4831 39.0988 29.615C38.4576 29.7468 37.8704 30.0665 37.4116 30.5333C36.813 31.1537 36.4785 31.982 36.4785 32.8441C36.4785 33.7062 36.813 34.5347 37.4116 35.1549Z" fill="#A6ABC9"/>
<path fill-rule="evenodd" clip-rule="evenodd" d="M5.86113 40.4393C5.59814 40.7832 5.26998 41.072 4.89538 41.2891C4.52078 41.5061 4.1071 41.6472 3.67795 41.7046C3.24879 41.7617 2.81257 41.7338 2.39417 41.6226C1.97579 41.5112 1.58343 41.3185 1.23951 41.0555C0.895589 40.7926 0.606838 40.4643 0.38974 40.0898C0.172644 39.7151 0.0314543 39.3015 -0.0257666 38.8723C-0.0829876 38.4431 -0.0551195 38.0069 0.0562466 37.5885C0.167612 37.1701 0.360296 36.7777 0.623295 36.4339C0.800798 36.2024 1.00798 35.9952 1.23951 35.8177L8.94221 28.115C9.5768 27.6294 10.3662 27.3908 11.1635 27.4435C11.9608 27.4963 12.7118 27.8369 13.2768 28.402C13.8419 28.9669 14.1824 29.7179 14.2352 30.5153C14.288 31.3127 14.0494 32.1019 13.5638 32.7366L5.86113 40.4393Z" fill="#A6ABC9"/>
<path fill-rule="evenodd" clip-rule="evenodd" d="M40.8921 0.677881C40.2574 0.192278 39.468 -0.0463157 38.6708 0.00647374C37.8734 0.0592631 37.1224 0.399842 36.5573 0.96487C35.9924 1.5299 35.6518 2.28091 35.599 3.07824C35.5463 3.87556 35.7848 4.66492 36.2705 5.29949C36.905 5.7851 37.6944 6.0237 38.4917 5.97091C39.289 5.91811 40.04 5.57755 40.6051 5.01251C41.17 4.44748 41.5107 3.69647 41.5635 2.89915C41.6162 2.10183 41.3777 1.31247 40.8921 0.677881Z" fill="#A6ABC9"/>
<path fill-rule="evenodd" clip-rule="evenodd" d="M26.6264 19.6421C25.9918 20.1277 25.2025 20.3663 24.4051 20.3135C23.6078 20.2607 22.8568 19.9202 22.2918 19.3551C21.7267 18.7901 21.3861 18.039 21.3334 17.2418C21.2805 16.4444 21.5192 15.6551 22.0048 15.0205L29.7075 7.31777C30.342 6.83217 31.1314 6.59357 31.9288 6.64637C32.726 6.69915 33.477 7.03973 34.0421 7.60475C34.6072 8.16979 34.9478 8.92081 35.0004 9.71813C35.0533 10.5154 34.8147 11.3048 34.3291 11.9394L26.6264 19.6421Z" fill="#A6ABC9"/>
<path fill-rule="evenodd" clip-rule="evenodd" d="M27.8436 29.2242C27.3848 28.7574 26.7974 28.4378 26.1563 28.3059C25.5153 28.174 24.8495 28.236 24.2438 28.4837C23.638 28.7315 23.1198 29.1541 22.755 29.6975C22.3902 30.2408 22.1953 30.8804 22.1953 31.535C22.1953 32.1894 22.3902 32.8291 22.755 33.3726C23.1198 33.9159 23.638 34.3385 24.2438 34.5862C24.8495 34.8341 25.5153 34.896 26.1563 34.7642C26.7974 34.6323 27.3848 34.3126 27.8436 33.8458C28.4494 33.2293 28.7888 32.3994 28.7888 31.535C28.7888 30.6706 28.4494 29.8407 27.8436 29.2242Z" fill="#A6ABC9"/>
<path fill-rule="evenodd" clip-rule="evenodd" d="M43.3727 44.7371C42.9139 44.2704 42.3267 43.9507 41.6856 43.8188C41.0446 43.687 40.3788 43.7489 39.7731 43.9968C39.1673 44.2445 38.6491 44.6671 38.2843 45.2104C37.9195 45.7537 37.7246 46.3935 37.7246 47.048C37.7246 47.7024 37.9195 48.3422 38.2843 48.8855C38.6491 49.4289 39.1673 49.8514 39.7731 50.0992C40.3788 50.347 41.0446 50.409 41.6856 50.2771C42.3267 50.1452 42.9139 49.8256 43.3727 49.3588C43.9786 48.7422 44.3181 47.9124 44.3181 47.048C44.3181 46.1836 43.9786 45.3537 43.3727 44.7371Z" fill="#A6ABC9"/>
<path fill-rule="evenodd" clip-rule="evenodd" d="M34.3452 27.4525C33.7105 27.9381 32.9212 28.1767 32.1239 28.1239C31.3266 28.0712 30.5755 27.7306 30.0105 27.1655C29.4456 26.6004 29.1049 25.8494 29.0521 25.0522C28.9994 24.2548 29.2379 23.4654 29.7236 22.8309L37.4263 15.1282C37.7295 14.8245 38.0898 14.5836 38.4864 14.4192C38.8828 14.2548 39.3078 14.1702 39.7371 14.1702C40.1663 14.1702 40.5914 14.2548 40.9879 14.4192C41.3843 14.5836 41.7446 14.8245 42.048 15.1282C42.6466 15.7485 42.9811 16.5769 42.9811 17.439C42.9811 18.3011 42.6466 19.1296 42.048 19.7498L34.3452 27.4525Z" fill="#A6ABC9"/>
<path fill-rule="evenodd" clip-rule="evenodd" d="M21.2967 51.2386C20.8379 50.7718 20.2505 50.4522 19.6095 50.3203C18.9685 50.1884 18.3026 50.2504 17.6969 50.4982C17.0912 50.7459 16.5729 51.1685 16.2081 51.7119C15.8433 52.2554 15.6484 52.895 15.6484 53.5494C15.6484 54.204 15.8433 54.8436 16.2081 55.387C16.5729 55.9303 17.0912 56.3529 17.6969 56.6008C18.3026 56.8485 18.9685 56.9104 19.6095 56.7786C20.2505 56.6467 20.8379 56.327 21.2967 55.8602C21.9026 55.2437 22.242 54.4138 22.242 53.5494C22.242 52.685 21.9026 51.8551 21.2967 51.2386Z" fill="#A6ABC9"/>
<path fill-rule="evenodd" clip-rule="evenodd" d="M27.8142 49.3898C27.2831 50.0843 26.4978 50.5395 25.631 50.6551C24.7643 50.7706 23.8872 50.5371 23.1926 50.006C22.498 49.4749 22.0429 48.6895 21.9274 47.8228C21.8118 46.9561 22.0452 46.0789 22.5764 45.3844C22.7539 45.1529 22.9611 44.9457 23.1926 44.7682L30.8953 37.0655C31.1583 36.7215 31.4864 36.4328 31.8611 36.2157C32.2357 35.9985 32.6494 35.8574 33.0786 35.8001C33.5076 35.743 33.9439 35.7708 34.3623 35.8822C34.7807 35.9936 35.1731 36.1862 35.5169 36.4493C35.8608 36.7123 36.1496 37.0404 36.3667 37.4151C36.5838 37.7896 36.725 38.2032 36.7822 38.6324C36.8395 39.0616 36.8116 39.4979 36.7002 39.9161C36.5888 40.3345 36.3961 40.7269 36.1332 41.0709C35.9557 41.3025 35.7485 41.5095 35.5169 41.6871L27.8142 49.3898Z" fill="#A6ABC9"/>
<path fill-rule="evenodd" clip-rule="evenodd" d="M80.7001 13.7725C78.9294 13.6982 77.173 14.1204 75.6295 14.9915C74.0861 15.8626 72.8168 17.1479 71.9652 18.7023V14.2809H66.373V47.4796H71.9652V34.462C72.8168 36.0164 74.0861 37.3017 75.6295 38.1728C77.173 39.0439 78.9294 39.4661 80.7001 39.3917C87.2474 39.3917 92.4236 33.7071 92.4236 26.6052C92.4236 19.5033 87.2474 13.7725 80.7001 13.7725ZM79.4985 34.0615C78.5375 34.0903 77.5802 33.9293 76.6813 33.5879C75.7825 33.2464 74.9597 32.7312 74.2602 32.0717C73.5604 31.412 72.9977 30.6211 72.6039 29.7439C72.2102 28.8667 71.9931 27.9207 71.9652 26.9596V26.6052C71.951 25.6422 72.1265 24.6859 72.4819 23.7907C72.8373 22.8956 73.3656 22.0791 74.0365 21.3882C74.7075 20.6973 75.508 20.1453 76.3923 19.7637C77.2765 19.3821 78.2274 19.1784 79.1903 19.1644H79.4985C81.4234 19.2518 83.2406 20.078 84.5718 21.4711C85.9031 22.8642 86.6459 24.7168 86.6459 26.6437C86.6459 28.5707 85.9031 30.4233 84.5718 31.8164C83.2406 33.2095 81.4234 34.0357 79.4985 34.1231V34.0615Z" fill="#A6ABC9"/>
<path fill-rule="evenodd" clip-rule="evenodd" d="M100.156 26.6052C100.107 27.556 100.247 28.5072 100.567 29.4039C100.887 30.3007 101.381 31.1253 102.021 31.8306C102.661 32.5357 103.433 33.1074 104.295 33.5128C105.156 33.9183 106.089 34.1495 107.041 34.1931C107.992 34.2369 108.942 34.0921 109.837 33.7672C110.732 33.4423 111.554 32.9438 112.256 32.3001C112.957 31.6566 113.525 30.8807 113.926 30.017C114.326 29.1534 114.553 28.2189 114.591 27.2676C114.607 27.047 114.607 26.8258 114.591 26.6052C114.683 24.6911 114.011 22.8187 112.722 21.4002C112.084 20.6979 111.314 20.128 110.456 19.7232C109.598 19.3185 108.668 19.0868 107.72 19.0412C106.772 18.9957 105.825 19.1373 104.932 19.4579C104.039 19.7786 103.218 20.2721 102.515 20.91C101.097 22.1985 100.248 23.9978 100.156 25.912C100.141 26.1326 100.141 26.3538 100.156 26.5744V26.6052ZM120.183 26.5744C120.283 29.9454 119.044 33.2189 116.737 35.6788C114.43 38.1388 111.243 39.5849 107.872 39.701C104.502 39.817 101.222 38.5935 98.7516 36.2983C96.2807 34.0029 94.8194 30.8224 94.6873 27.4525C94.6719 27.1549 94.6719 26.8566 94.6873 26.559C94.6286 24.8849 94.9002 23.2157 95.4867 21.6465C96.0732 20.0775 96.9629 18.6392 98.1052 17.414C100.412 14.9395 103.608 13.4828 106.989 13.3643C110.369 13.2458 113.659 14.4752 116.134 16.7821C118.608 19.0891 120.065 22.2845 120.183 25.6655C120.199 25.9631 120.199 26.2614 120.183 26.559" fill="#A6ABC9"/>
<path fill-rule="evenodd" clip-rule="evenodd" d="M122.834 38.8835H128.411V3.65137H122.834V38.8835Z" fill="#A6ABC9"/>
<path fill-rule="evenodd" clip-rule="evenodd" d="M132.877 38.8835H138.469V3.65137H132.877V38.8835Z" fill="#A6ABC9"/>
<path fill-rule="evenodd" clip-rule="evenodd" d="M142.939 38.8832H148.516V14.2654H142.939V38.8832Z" fill="#A6ABC9"/>
<path fill-rule="evenodd" clip-rule="evenodd" d="M147.375 4.12875C146.811 3.80137 146.162 3.64876 145.511 3.69028C144.86 3.73179 144.236 3.96556 143.717 4.36198C143.199 4.7584 142.81 5.29965 142.6 5.91721C142.39 6.53476 142.367 7.20085 142.535 7.83116C142.704 8.46147 143.055 9.02765 143.546 9.45803C144.036 9.88841 144.643 10.1636 145.29 10.2489C145.937 10.3341 146.594 10.2255 147.179 9.9368C147.764 9.6481 148.251 9.19232 148.577 8.62712C148.795 8.25533 148.937 7.84402 148.996 7.41691C149.054 6.98979 149.027 6.55533 148.917 6.13858C148.807 5.72182 148.615 5.33101 148.353 4.98872C148.091 4.64641 147.764 4.35936 147.39 4.14415" fill="#A6ABC9"/>
<path fill-rule="evenodd" clip-rule="evenodd" d="M176.123 24.8489V38.8832H170.485V25.5576C170.485 21.6754 168.128 19.1643 164.554 19.1643C163.003 19.0845 161.482 19.6236 160.327 20.6633C159.171 21.703 158.477 23.1583 158.392 24.7103C158.369 24.9922 158.369 25.2755 158.392 25.5576V38.8832H152.893V14.2345H158.469V18.1168C159.184 16.7709 160.257 15.6496 161.572 14.8772C162.884 14.1048 164.386 13.7117 165.91 13.7416C172.195 13.7416 176.123 17.9627 176.123 24.8181" fill="#A6ABC9"/>
<path fill-rule="evenodd" clip-rule="evenodd" d="M199.136 26.559C199.147 25.598 198.968 24.6444 198.609 23.7527C198.25 22.8609 197.72 22.0486 197.047 21.362C196.375 20.6754 195.574 20.1279 194.69 19.7507C193.806 19.3736 192.857 19.1744 191.895 19.1644H191.633C189.709 19.2518 187.891 20.0779 186.56 21.4709C185.229 22.864 184.487 24.7168 184.487 26.6437C184.487 28.5706 185.229 30.4233 186.56 31.8164C187.891 33.2095 189.709 34.0355 191.633 34.1231C192.596 34.1455 193.555 33.9781 194.453 33.6302C195.352 33.2824 196.172 32.7609 196.87 32.0957C197.566 31.4303 198.125 30.6343 198.514 29.7532C198.903 28.8718 199.114 27.9225 199.136 26.9595V26.559ZM204.759 14.2346V38.8833H199.136V34.5698C198.27 36.0986 197.001 37.359 195.465 38.2124C193.929 39.0659 192.188 39.4792 190.432 39.4071C183.9 39.4071 178.662 33.6763 178.662 26.5744C178.662 19.4725 183.9 13.7879 190.432 13.7879C192.188 13.7157 193.929 14.129 195.465 14.9825C197.001 15.8359 198.27 17.0964 199.136 18.6252V14.2808L204.759 14.2346Z" fill="#A6ABC9"/>
<path fill-rule="evenodd" clip-rule="evenodd" d="M217.578 19.6111V29.5322C217.578 32.6133 219.488 33.9073 222.199 33.9073C222.811 33.9178 223.423 33.8505 224.017 33.707V38.8987C223.003 39.1036 221.971 39.2017 220.936 39.1914C215.513 39.1914 211.893 35.8638 211.893 29.6246V19.6111H207.271V14.2654H211.893V7.67188H217.454V14.2654H223.894V19.6111H217.578Z" fill="#A6ABC9"/>
<path fill-rule="evenodd" clip-rule="evenodd" d="M243.642 23.632C243.468 22.1413 242.736 20.7719 241.593 19.7999C240.449 18.828 238.979 18.3256 237.48 18.3942C235.946 18.3703 234.45 18.8792 233.247 19.8341C232.045 20.7891 231.212 22.1312 230.886 23.632H243.642ZM249.573 27.9147H230.625C230.751 29.7256 231.589 31.4135 232.952 32.6108C234.317 33.8079 236.1 34.418 237.911 34.308C240.992 34.308 243.303 32.9061 243.796 30.7801H249.435C248.526 35.9718 243.842 39.3918 237.819 39.3918C236.158 39.4101 234.508 39.1003 232.968 38.4804C231.426 37.8606 230.022 36.9426 228.834 35.7792C227.648 34.6158 226.704 33.2298 226.054 31.7005C225.404 30.1712 225.062 28.5286 225.048 26.8672V26.4512C225.008 23.1374 226.28 19.9421 228.591 17.5657C230.9 15.1893 234.058 13.8253 237.372 13.7725H237.665C239.227 13.7542 240.775 14.0439 242.225 14.6249C243.674 15.2059 244.995 16.0669 246.11 17.1585C247.227 18.2503 248.116 19.5513 248.729 20.9872C249.342 22.4232 249.666 23.9657 249.681 25.5269V26.0969C249.692 26.7217 249.641 27.3463 249.527 27.961L249.573 27.9147Z" fill="#A6ABC9"/>
</g>
<defs>
<clipPath id="clip0">
<rect width="252" height="57" fill="white"/>
</clipPath>
</defs>
</svg>
