<svg width="252" height="72" viewBox="0 0 252 72" fill="none" xmlns="http://www.w3.org/2000/svg">
<path d="M43.1369 71.7783H39V50.9871H43.1369L51.5783 64.2067V50.9871H55.7153V71.7783H51.8475L43.1369 58.1024V71.7783Z" fill="#A6ABC9"/>
<path d="M58.6992 50.9871H63.7455L68.379 58.5974L73.0334 50.9871H78.1664L70.449 62.8081V71.7783H66.312V62.7038L58.6992 50.9871Z" fill="#A6ABC9"/>
<path d="M90.9993 56.8525L93.153 53.4887C93.153 53.4887 90.6852 50.8108 86.1415 50.8108C81.5319 50.8108 79.4021 53.9062 79.4021 56.9688C79.4021 60.0374 82.3725 62.0832 84.3766 62.8704C87.4487 63.95 89.6203 64.4808 89.6203 66.0195C89.6203 67.1885 88.4298 68.0623 86.7577 68.0623C83.6198 68.0623 81.1371 65.5096 81.1371 65.5096L78.8906 68.9987C78.8906 68.9987 81.8879 71.9987 86.6859 71.9987C90.404 71.9987 93.7184 69.4162 93.7184 65.602C93.7184 62.1667 90.7899 60.273 88.2324 59.5484C86.0158 58.9042 83.6767 58.2869 83.6767 56.7273C83.6767 55.7074 84.5322 54.768 86.0278 54.768C88.5614 54.771 90.9993 56.8525 90.9993 56.8525Z" fill="#A6ABC9"/>
<path d="M97.4258 71.7783V50.9871H110.997V54.6163H101.563V59.5666H109.672V63.1958H101.563V68.1461H110.997V71.7753H97.4258V71.7783Z" fill="#A6ABC9"/>
<path d="M39 46.2028V0.000976562H48.27V46.2028H39Z" fill="#A6ABC9"/>
<path d="M51.5801 46.2035V0.00170898H60.85V46.2035H51.5801Z" fill="#A6ABC9"/>
<path d="M64.0957 46.2035V0.00170898H73.3657V46.2035H64.0957Z" fill="#A6ABC9"/>
<path d="M76.7363 46.2035V0.00170898H86.0063V46.2035H76.7363Z" fill="#A6ABC9"/>
<path d="M89.1504 46.2035V0.00170898H98.4203V46.2035H89.1504Z" fill="#A6ABC9"/>
<path d="M101.73 46.2035V0.00170898H111V46.2035H101.73Z" fill="#A6ABC9"/>
<g clip-path="url(#clip0)">
<path d="M161.929 50.1841H157.553V71.8561H161.929V50.1841Z" fill="#A6ABC9"/>
<path d="M177.014 52.8624C179.188 52.8624 180.555 53.3808 181.332 53.8272L181.635 54L182.671 50.4864L182.469 50.3856C181.433 49.8672 179.389 49.2625 177.028 49.2625C173.603 49.2625 170.695 50.3857 168.579 52.5168C166.535 54.576 165.412 57.4992 165.412 60.7536C165.412 64.008 166.434 66.7872 168.363 68.7744C170.306 70.7904 173.012 71.8416 176.208 71.8416C178.943 71.8416 181.26 71.136 182.397 70.5456L182.585 70.4448L181.807 67.0464L181.505 67.176C180.382 67.6656 179 68.1984 176.899 68.1984C172.681 68.1984 169.846 65.1312 169.846 60.5664C169.846 58.4064 170.508 56.4624 171.688 55.0944C172.955 53.64 174.797 52.8624 177.014 52.8624Z" fill="#A6ABC9"/>
<path d="M193.984 52.5168C195.423 52.5168 196.589 52.9632 197.453 53.8272C198.82 55.2096 199.022 57.2976 199.036 58.2048H188.413C188.744 55.9584 190.256 52.5168 193.984 52.5168ZM201.455 52.8624C199.886 50.4864 197.41 49.2192 194.286 49.2192C191.249 49.2192 188.672 50.4 186.816 52.6176C185.074 54.72 184.109 57.6432 184.109 60.8832C184.109 64.1232 185.088 66.8593 186.945 68.8033C188.831 70.7905 191.537 71.8417 194.776 71.8417C198.158 71.8417 200.519 71.0929 201.915 70.4593L202.117 70.3729L201.339 67.0897L201.037 67.2193C199.727 67.7809 198.13 68.2849 195.294 68.2849C193.322 68.2849 191.652 67.7089 190.443 66.6433C189.133 65.4624 188.413 63.7345 188.327 61.5024H203.124L203.168 61.0848C203.211 60.6816 203.283 60.1344 203.283 59.4432C203.283 58.2912 203.11 55.3536 201.455 52.8624Z" fill="#A6ABC9"/>
<path d="M131.572 0V72H145.837V65.8224H137.747V6.192H197.513V38.9232H203.544V0H131.572Z" fill="#A6ABC9"/>
<path d="M208.914 50.1985C210.08 50.1985 211.073 51.1057 211.073 52.3297C211.073 53.5681 210.08 54.4753 208.914 54.4753C207.733 54.4753 206.74 53.5681 206.74 52.3297C206.74 51.1057 207.748 50.1985 208.914 50.1985ZM208.914 50.5585C207.921 50.5585 207.158 51.3217 207.158 52.3441C207.158 53.3953 207.921 54.1441 208.914 54.1441C209.893 54.1441 210.655 53.3953 210.655 52.3441C210.67 51.3217 209.893 50.5585 208.914 50.5585ZM208.468 53.5825H208.093V51.1057H209.043C209.633 51.1057 209.921 51.3217 209.921 51.8113C209.921 52.2577 209.648 52.4449 209.274 52.4881L209.979 53.5681H209.562L208.899 52.4881H208.468V53.5825ZM208.468 52.2001H208.914C209.374 52.2001 209.518 52.0705 209.518 51.7969C209.518 51.5665 209.403 51.4225 208.971 51.4225H208.453V52.2001H208.468V52.2001Z" fill="#A6ABC9"/>
</g>
<defs>
<clipPath id="clip0">
<rect width="81" height="72" fill="white" transform="translate(131.572)"/>
</clipPath>
</defs>
</svg>
