<svg width="252" height="88" viewBox="0 0 252 88" fill="none" xmlns="http://www.w3.org/2000/svg">
<path fill-rule="evenodd" clip-rule="evenodd" d="M188.488 63.6539H196.76L187.017 80.1612V87.9999H179.756V80.1612L170.198 63.6539H178.929L183.525 72.8759L188.488 63.6539ZM162.477 71.7692C162.477 70.3859 161.466 69.6482 159.904 69.6482H154.849V74.1669H159.904C161.466 74.1669 162.477 73.2447 162.477 71.9537V71.7692ZM164.04 87.9999L160.087 80.1612H154.849V87.9999H147.679V63.6539H161.374C167.165 63.6539 170.106 67.7115 170.106 71.4003V71.8614C170.106 73.8903 169.095 76.4724 166.797 78.0402L172.312 87.9999H164.04ZM123.691 63.6539H145.106V70.7548H130.768V73.5214H139.591V79.6079H130.768V87.9999H123.691V63.6539ZM189.223 43.9188C189.223 42.5355 188.212 41.7977 186.65 41.7977H181.595V46.3165H186.65C188.212 46.3165 189.223 45.3943 189.223 44.1032V43.9188ZM190.786 60.0573L186.834 52.2186H181.595V60.0573H174.426V35.8035H188.12C193.911 35.8035 196.852 39.8611 196.852 43.4577V43.9188C196.852 45.9476 195.841 48.5298 193.543 50.0975L199.058 60.0573H190.786ZM163.948 46.8698C163.948 43.9188 163.121 41.1522 158.893 41.1522C154.665 41.1522 153.838 43.8266 153.838 46.8698V48.9909C153.838 51.9419 154.665 54.6163 158.893 54.6163C163.121 54.6163 163.948 51.9419 163.948 48.9909V46.8698ZM158.893 60.5184C149.426 60.5184 146.577 55.2619 146.577 49.3598V46.5932C146.577 40.5989 149.426 35.4346 158.893 35.4346C168.268 35.4346 171.209 40.6911 171.209 46.5932V49.3598C171.209 55.3541 168.268 60.5184 158.893 60.5184ZM123.783 60.1495V35.8957H130.952V53.0486H145.106V60.1495H123.783ZM112.569 52.3108V60.1495H105.308V52.3108L95.7497 35.8035H104.389L108.985 45.0254L114.04 35.8035H122.312L112.569 52.3108ZM80.7682 60.0573H73.5072L80.8601 35.8035H91.9813L99.2423 60.0573H91.6137L90.0512 54.8008H82.2388L80.7682 60.0573ZM85.7314 41.7977L83.8012 49.0831H88.4887L86.6505 41.7977H85.7314ZM52 35.8035H75.0697V42.9044H67.1653V60.1495H59.9044V42.9044H52V35.8035Z" fill="#A6ABC9"/>
<path fill-rule="evenodd" clip-rule="evenodd" d="M123.781 0.391113H145.105V7.49204H130.858V28.7948H123.781V0.391113Z" fill="#A6ABC9"/>
<path fill-rule="evenodd" clip-rule="evenodd" d="M109.721 7.49204V0.391113H116.798V7.49204H109.721ZM138.029 21.6939V14.593H145.107V21.6939H138.029Z" fill="#A6ABC9"/>
</svg>
