<svg width="293" height="75" viewBox="0 0 293 75" fill="none" xmlns="http://www.w3.org/2000/svg">
<path d="M74 37.5C74 57.3823 57.8823 73.5 38 73.5C18.1177 73.5 2 57.3823 2 37.5C2 17.6177 18.1177 1.5 38 1.5C57.8823 1.5 74 17.6177 74 37.5Z" fill="#F4FBF7"/>
<path fill-rule="evenodd" clip-rule="evenodd" d="M38 3C18.9462 3 3.5 18.4462 3.5 37.5C3.5 56.5538 18.9462 72 38 72C57.0538 72 72.5 56.5538 72.5 37.5C72.5 18.4462 57.0538 3 38 3ZM0.5 37.5C0.5 16.7893 17.2893 0 38 0C58.7107 0 75.5 16.7893 75.5 37.5C75.5 58.2107 58.7107 75 38 75C17.2893 75 0.5 58.2107 0.5 37.5Z" fill="#20AF5D"/>
<path d="M28.3778 52.5005H24.5L35.7159 21.9551H39.5341L50.75 52.5005H46.8722L37.7443 26.7875H37.5057L28.3778 52.5005ZM29.8097 40.5687H45.4403V43.85H29.8097V40.5687Z" fill="#20AF5D"/>
<path d="M114.659 67.7955C126.278 67.7955 134.375 61.0057 134.432 51.5455C134.375 44.1875 129.46 37.9375 123.182 36.7727V36.4318C128.636 35.0114 132.216 29.6705 132.273 23.4773C132.216 14.6136 124.773 8.02273 114.659 8.02273C104.432 8.02273 96.9886 14.6136 97.0455 23.4773C96.9886 29.6705 100.568 35.0114 106.136 36.4318V36.7727C99.7443 37.9375 94.8295 44.1875 94.8864 51.5455C94.8295 61.0057 102.926 67.7955 114.659 67.7955ZM114.659 61.5455C106.676 61.5455 101.761 57.4545 101.818 51.2045C101.761 44.642 107.188 39.9545 114.659 39.9545C122.017 39.9545 127.443 44.642 127.5 51.2045C127.443 57.4545 122.528 61.5455 114.659 61.5455ZM114.659 33.9318C108.295 33.9318 103.807 29.9545 103.864 23.9318C103.807 18.0227 108.125 14.1591 114.659 14.1591C121.08 14.1591 125.398 18.0227 125.455 23.9318C125.398 29.9545 120.909 33.9318 114.659 33.9318ZM143.956 55.0682H171.342V67H178.047V55.0682H186.001V48.8182H178.047V8.81818H169.524L143.956 49.2727V55.0682ZM171.342 48.8182H151.57V48.3636L170.888 17.7955H171.342V48.8182ZM215.284 67.7955C226.903 67.7955 235 61.0057 235.057 51.5455C235 44.1875 230.085 37.9375 223.807 36.7727V36.4318C229.261 35.0114 232.841 29.6705 232.898 23.4773C232.841 14.6136 225.398 8.02273 215.284 8.02273C205.057 8.02273 197.614 14.6136 197.67 23.4773C197.614 29.6705 201.193 35.0114 206.761 36.4318V36.7727C200.369 37.9375 195.455 44.1875 195.511 51.5455C195.455 61.0057 203.551 67.7955 215.284 67.7955ZM215.284 61.5455C207.301 61.5455 202.386 57.4545 202.443 51.2045C202.386 44.642 207.812 39.9545 215.284 39.9545C222.642 39.9545 228.068 44.642 228.125 51.2045C228.068 57.4545 223.153 61.5455 215.284 61.5455ZM215.284 33.9318C208.92 33.9318 204.432 29.9545 204.489 23.9318C204.432 18.0227 208.75 14.1591 215.284 14.1591C221.705 14.1591 226.023 18.0227 226.08 23.9318C226.023 29.9545 221.534 33.9318 215.284 33.9318Z" fill="#20AF5D"/>
<path d="M246.504 68.544L251.022 53.082H252.516L247.998 68.544H246.504ZM263.285 67.05C262.493 67.05 261.815 66.894 261.251 66.582C260.687 66.27 260.237 65.856 259.901 65.34C259.577 64.812 259.379 64.23 259.307 63.594H260.711C260.831 64.278 261.119 64.806 261.575 65.178C262.031 65.55 262.607 65.736 263.303 65.736C264.263 65.736 265.061 65.292 265.697 64.404C266.333 63.504 266.675 62.106 266.723 60.21C266.435 60.774 265.973 61.266 265.337 61.686C264.713 62.094 263.957 62.298 263.069 62.298C262.361 62.298 261.689 62.13 261.053 61.794C260.417 61.458 259.901 60.99 259.505 60.39C259.109 59.778 258.911 59.064 258.911 58.248C258.911 57.54 259.085 56.862 259.433 56.214C259.793 55.566 260.297 55.038 260.945 54.63C261.593 54.222 262.367 54.018 263.267 54.018C264.179 54.018 264.947 54.192 265.571 54.54C266.195 54.876 266.693 55.332 267.065 55.908C267.449 56.484 267.725 57.132 267.893 57.852C268.073 58.56 268.163 59.286 268.163 60.03C268.163 61.422 267.971 62.646 267.587 63.702C267.203 64.746 266.645 65.568 265.913 66.168C265.193 66.756 264.317 67.05 263.285 67.05ZM263.375 60.984C263.939 60.984 264.443 60.858 264.887 60.606C265.331 60.342 265.685 59.994 265.949 59.562C266.213 59.13 266.345 58.662 266.345 58.158C266.345 57.618 266.213 57.138 265.949 56.718C265.685 56.286 265.331 55.95 264.887 55.71C264.443 55.47 263.939 55.35 263.375 55.35C262.811 55.35 262.307 55.47 261.863 55.71C261.419 55.95 261.071 56.286 260.819 56.718C260.567 57.138 260.441 57.624 260.441 58.176C260.441 59.028 260.717 59.712 261.269 60.228C261.833 60.732 262.535 60.984 263.375 60.984ZM274.749 67.05C273.885 67.05 273.135 66.894 272.499 66.582C271.863 66.27 271.353 65.844 270.969 65.304C270.597 64.752 270.369 64.128 270.285 63.432H271.761C271.905 64.128 272.241 64.692 272.769 65.124C273.297 65.544 273.963 65.754 274.767 65.754C275.367 65.754 275.883 65.616 276.315 65.34C276.747 65.052 277.077 64.668 277.305 64.188C277.545 63.708 277.665 63.174 277.665 62.586C277.665 61.65 277.401 60.894 276.873 60.318C276.345 59.742 275.661 59.454 274.821 59.454C274.125 59.454 273.531 59.61 273.039 59.922C272.547 60.234 272.187 60.642 271.959 61.146H270.519L271.599 54.234H278.205V55.548H272.769L272.031 59.382C272.319 59.034 272.715 58.746 273.219 58.518C273.735 58.29 274.323 58.176 274.983 58.176C275.811 58.176 276.531 58.368 277.143 58.752C277.767 59.136 278.253 59.658 278.601 60.318C278.949 60.978 279.123 61.728 279.123 62.568C279.123 63.372 278.949 64.116 278.601 64.8C278.265 65.484 277.767 66.03 277.107 66.438C276.459 66.846 275.673 67.05 274.749 67.05ZM286.4 67.05C285.284 67.05 284.318 66.78 283.502 66.24C282.698 65.688 282.08 64.926 281.648 63.954C281.216 62.97 281 61.83 281 60.534C281 59.238 281.216 58.104 281.648 57.132C282.08 56.148 282.698 55.386 283.502 54.846C284.318 54.294 285.284 54.018 286.4 54.018C287.516 54.018 288.476 54.294 289.28 54.846C290.084 55.386 290.702 56.148 291.134 57.132C291.566 58.104 291.782 59.238 291.782 60.534C291.782 61.83 291.566 62.97 291.134 63.954C290.702 64.926 290.084 65.688 289.28 66.24C288.476 66.78 287.516 67.05 286.4 67.05ZM286.4 65.718C287.132 65.718 287.786 65.514 288.362 65.106C288.95 64.686 289.406 64.092 289.73 63.324C290.066 62.544 290.234 61.614 290.234 60.534C290.234 59.454 290.066 58.53 289.73 57.762C289.406 56.994 288.95 56.406 288.362 55.998C287.786 55.578 287.132 55.368 286.4 55.368C285.656 55.368 284.996 55.578 284.42 55.998C283.844 56.406 283.388 56.994 283.052 57.762C282.716 58.53 282.548 59.454 282.548 60.534C282.548 61.614 282.716 62.544 283.052 63.324C283.388 64.092 283.844 64.686 284.42 65.106C284.996 65.514 285.656 65.718 286.4 65.718Z" fill="#4A5078"/>
</svg>
