<svg width="291" height="75" viewBox="0 0 291 75" fill="none" xmlns="http://www.w3.org/2000/svg">
<path d="M74 37.5C74 57.3823 57.8823 73.5 38 73.5C18.1177 73.5 2 57.3823 2 37.5C2 17.6177 18.1177 1.5 38 1.5C57.8823 1.5 74 17.6177 74 37.5Z" fill="#F4FBF7"/>
<path fill-rule="evenodd" clip-rule="evenodd" d="M38 3C18.9462 3 3.5 18.4462 3.5 37.5C3.5 56.5538 18.9462 72 38 72C57.0538 72 72.5 56.5538 72.5 37.5C72.5 18.4462 57.0538 3 38 3ZM0.5 37.5C0.5 16.7893 17.2893 0 38 0C58.7107 0 75.5 16.7893 75.5 37.5C75.5 58.2107 58.7107 75 38 75C17.2893 75 0.5 58.2107 0.5 37.5Z" fill="#20AF5D"/>
<path d="M28.3778 52.5005H24.5L35.7159 21.9551H39.5341L50.75 52.5005H46.8722L37.7443 26.7875H37.5057L28.3778 52.5005ZM29.8097 40.5687H45.4403V43.85H29.8097V40.5687Z" fill="#20AF5D"/>
<path d="M114.659 67.7955C126.278 67.7955 134.375 61.0057 134.432 51.5455C134.375 44.1875 129.46 37.9375 123.182 36.7727V36.4318C128.636 35.0114 132.216 29.6705 132.273 23.4773C132.216 14.6136 124.773 8.02273 114.659 8.02273C104.432 8.02273 96.9886 14.6136 97.0455 23.4773C96.9886 29.6705 100.568 35.0114 106.136 36.4318V36.7727C99.7443 37.9375 94.8295 44.1875 94.8864 51.5455C94.8295 61.0057 102.926 67.7955 114.659 67.7955ZM114.659 61.5455C106.676 61.5455 101.761 57.4545 101.818 51.2045C101.761 44.642 107.188 39.9545 114.659 39.9545C122.017 39.9545 127.443 44.642 127.5 51.2045C127.443 57.4545 122.528 61.5455 114.659 61.5455ZM114.659 33.9318C108.295 33.9318 103.807 29.9545 103.864 23.9318C103.807 18.0227 108.125 14.1591 114.659 14.1591C121.08 14.1591 125.398 18.0227 125.455 23.9318C125.398 29.9545 120.909 33.9318 114.659 33.9318ZM163.956 67.7955C175.575 67.7955 183.672 61.0057 183.729 51.5455C183.672 44.1875 178.757 37.9375 172.479 36.7727V36.4318C177.933 35.0114 181.513 29.6705 181.57 23.4773C181.513 14.6136 174.07 8.02273 163.956 8.02273C153.729 8.02273 146.286 14.6136 146.342 23.4773C146.286 29.6705 149.865 35.0114 155.433 36.4318V36.7727C149.041 37.9375 144.126 44.1875 144.183 51.5455C144.126 61.0057 152.223 67.7955 163.956 67.7955ZM163.956 61.5455C155.973 61.5455 151.058 57.4545 151.115 51.2045C151.058 44.642 156.484 39.9545 163.956 39.9545C171.314 39.9545 176.74 44.642 176.797 51.2045C176.74 57.4545 171.825 61.5455 163.956 61.5455ZM163.956 33.9318C157.592 33.9318 153.104 29.9545 153.161 23.9318C153.104 18.0227 157.422 14.1591 163.956 14.1591C170.376 14.1591 174.695 18.0227 174.751 23.9318C174.695 29.9545 170.206 33.9318 163.956 33.9318ZM212.798 67.7955C223.878 67.7955 232.003 59.6136 232.003 48.4773C232.003 37.1989 224.162 28.9318 213.48 28.9318C209.56 28.9318 205.753 30.3239 203.366 32.2273H203.026L205.071 15.0682H229.389V8.81818H199.162L195.639 37.4545L202.23 38.25C204.645 36.517 208.764 35.267 212.344 35.2955C219.759 35.3523 225.185 40.9773 225.185 48.5909C225.185 56.0625 219.957 61.5455 212.798 61.5455C206.832 61.5455 202.088 57.7102 201.548 52.4545H194.73C195.156 61.3182 202.798 67.7955 212.798 67.7955Z" fill="#20AF5D"/>
<path d="M244.504 68.544L249.022 53.082H250.516L245.998 68.544H244.504ZM261.285 67.05C260.493 67.05 259.815 66.894 259.251 66.582C258.687 66.27 258.237 65.856 257.901 65.34C257.577 64.812 257.379 64.23 257.307 63.594H258.711C258.831 64.278 259.119 64.806 259.575 65.178C260.031 65.55 260.607 65.736 261.303 65.736C262.263 65.736 263.061 65.292 263.697 64.404C264.333 63.504 264.675 62.106 264.723 60.21C264.435 60.774 263.973 61.266 263.337 61.686C262.713 62.094 261.957 62.298 261.069 62.298C260.361 62.298 259.689 62.13 259.053 61.794C258.417 61.458 257.901 60.99 257.505 60.39C257.109 59.778 256.911 59.064 256.911 58.248C256.911 57.54 257.085 56.862 257.433 56.214C257.793 55.566 258.297 55.038 258.945 54.63C259.593 54.222 260.367 54.018 261.267 54.018C262.179 54.018 262.947 54.192 263.571 54.54C264.195 54.876 264.693 55.332 265.065 55.908C265.449 56.484 265.725 57.132 265.893 57.852C266.073 58.56 266.163 59.286 266.163 60.03C266.163 61.422 265.971 62.646 265.587 63.702C265.203 64.746 264.645 65.568 263.913 66.168C263.193 66.756 262.317 67.05 261.285 67.05ZM261.375 60.984C261.939 60.984 262.443 60.858 262.887 60.606C263.331 60.342 263.685 59.994 263.949 59.562C264.213 59.13 264.345 58.662 264.345 58.158C264.345 57.618 264.213 57.138 263.949 56.718C263.685 56.286 263.331 55.95 262.887 55.71C262.443 55.47 261.939 55.35 261.375 55.35C260.811 55.35 260.307 55.47 259.863 55.71C259.419 55.95 259.071 56.286 258.819 56.718C258.567 57.138 258.441 57.624 258.441 58.176C258.441 59.028 258.717 59.712 259.269 60.228C259.833 60.732 260.535 60.984 261.375 60.984ZM272.749 67.05C271.885 67.05 271.135 66.894 270.499 66.582C269.863 66.27 269.353 65.844 268.969 65.304C268.597 64.752 268.369 64.128 268.285 63.432H269.761C269.905 64.128 270.241 64.692 270.769 65.124C271.297 65.544 271.963 65.754 272.767 65.754C273.367 65.754 273.883 65.616 274.315 65.34C274.747 65.052 275.077 64.668 275.305 64.188C275.545 63.708 275.665 63.174 275.665 62.586C275.665 61.65 275.401 60.894 274.873 60.318C274.345 59.742 273.661 59.454 272.821 59.454C272.125 59.454 271.531 59.61 271.039 59.922C270.547 60.234 270.187 60.642 269.959 61.146H268.519L269.599 54.234H276.205V55.548H270.769L270.031 59.382C270.319 59.034 270.715 58.746 271.219 58.518C271.735 58.29 272.323 58.176 272.983 58.176C273.811 58.176 274.531 58.368 275.143 58.752C275.767 59.136 276.253 59.658 276.601 60.318C276.949 60.978 277.123 61.728 277.123 62.568C277.123 63.372 276.949 64.116 276.601 64.8C276.265 65.484 275.767 66.03 275.107 66.438C274.459 66.846 273.673 67.05 272.749 67.05ZM284.4 67.05C283.284 67.05 282.318 66.78 281.502 66.24C280.698 65.688 280.08 64.926 279.648 63.954C279.216 62.97 279 61.83 279 60.534C279 59.238 279.216 58.104 279.648 57.132C280.08 56.148 280.698 55.386 281.502 54.846C282.318 54.294 283.284 54.018 284.4 54.018C285.516 54.018 286.476 54.294 287.28 54.846C288.084 55.386 288.702 56.148 289.134 57.132C289.566 58.104 289.782 59.238 289.782 60.534C289.782 61.83 289.566 62.97 289.134 63.954C288.702 64.926 288.084 65.688 287.28 66.24C286.476 66.78 285.516 67.05 284.4 67.05ZM284.4 65.718C285.132 65.718 285.786 65.514 286.362 65.106C286.95 64.686 287.406 64.092 287.73 63.324C288.066 62.544 288.234 61.614 288.234 60.534C288.234 59.454 288.066 58.53 287.73 57.762C287.406 56.994 286.95 56.406 286.362 55.998C285.786 55.578 285.132 55.368 284.4 55.368C283.656 55.368 282.996 55.578 282.42 55.998C281.844 56.406 281.388 56.994 281.052 57.762C280.716 58.53 280.548 59.454 280.548 60.534C280.548 61.614 280.716 62.544 281.052 63.324C281.388 64.092 281.844 64.686 282.42 65.106C282.996 65.514 283.656 65.718 284.4 65.718Z" fill="#4A5078"/>
</svg>
