<svg width="294" height="75" viewBox="0 0 294 75" fill="none" xmlns="http://www.w3.org/2000/svg">
<path d="M74 37.5C74 57.3823 57.8823 73.5 38 73.5C18.1177 73.5 2 57.3823 2 37.5C2 17.6177 18.1177 1.5 38 1.5C57.8823 1.5 74 17.6177 74 37.5Z" fill="#F9FCF5"/>
<path fill-rule="evenodd" clip-rule="evenodd" d="M38 3C18.9462 3 3.5 18.4462 3.5 37.5C3.5 56.5538 18.9462 72 38 72C57.0538 72 72.5 56.5538 72.5 37.5C72.5 18.4462 57.0538 3 38 3ZM0.5 37.5C0.5 16.7893 17.2893 0 38 0C58.7107 0 75.5 16.7893 75.5 37.5C75.5 58.2107 58.7107 75 38 75C17.2893 75 0.5 58.2107 0.5 37.5Z" fill="#90CA2F"/>
<path d="M28.1987 52.5005V21.9551H38.8777C41.0055 21.9551 42.7605 22.323 44.1426 23.0588C45.5247 23.7846 46.5538 24.764 47.23 25.997C47.9061 27.22 48.2442 28.5772 48.2442 30.0687C48.2442 31.3812 48.0105 32.465 47.5432 33.3201C47.0858 34.1753 46.4793 34.8514 45.7236 35.3485C44.9779 35.8457 44.1675 36.2136 43.2925 36.4522V36.7505C44.2271 36.8102 45.1668 37.1383 46.1114 37.7349C47.056 38.3315 47.8465 39.1866 48.4828 40.3002C49.1192 41.4139 49.4374 42.7761 49.4374 44.3869C49.4374 45.9181 49.0894 47.2953 48.3933 48.5183C47.6973 49.7413 46.5986 50.7108 45.0972 51.4267C43.5957 52.1426 41.6419 52.5005 39.2357 52.5005H28.1987ZM31.8976 49.2193H39.2357C41.6519 49.2193 43.3671 48.752 44.3813 47.8173C45.4054 46.8727 45.9175 45.7292 45.9175 44.3869C45.9175 43.3528 45.654 42.3983 45.127 41.5233C44.6 40.6383 43.8493 39.9324 42.8749 39.4054C41.9004 38.8684 40.747 38.6 39.4146 38.6H31.8976V49.2193ZM31.8976 35.3784H38.7584C39.872 35.3784 40.8763 35.1596 41.7712 34.7221C42.676 34.2846 43.3919 33.6681 43.9189 32.8727C44.4558 32.0772 44.7243 31.1426 44.7243 30.0687C44.7243 28.7264 44.257 27.5879 43.3223 26.6532C42.3877 25.7086 40.9061 25.2363 38.8777 25.2363H31.8976V35.3784Z" fill="#90CA2F"/>
<path d="M115.341 67.7955C127.102 67.9375 134.773 59.0739 134.773 48.25C134.773 37 126.449 28.9318 116.477 28.9318C110.483 28.9318 105.341 31.858 102.159 36.6591H101.705C101.733 22.483 107.244 14.2727 116.25 14.2727C122.386 14.2727 126.08 18.1364 127.386 23.3636H134.318C132.898 14.3295 126.023 8.02273 116.25 8.02273C103.153 8.02273 95.1136 19.6136 95.1136 40.1818C95.1136 61.6875 105.795 67.6818 115.341 67.7955ZM115.341 61.5455C108.04 61.5455 102.699 55.3239 102.727 48.3636C102.756 41.4034 108.352 35.1818 115.568 35.1818C122.699 35.1818 127.955 41.0341 127.955 48.25C127.955 55.6364 122.472 61.5455 115.341 61.5455ZM164.581 67.7955C176.2 67.7955 184.297 61.0057 184.354 51.5455C184.297 44.1875 179.382 37.9375 173.104 36.7727V36.4318C178.558 35.0114 182.138 29.6705 182.195 23.4773C182.138 14.6136 174.695 8.02273 164.581 8.02273C154.354 8.02273 146.911 14.6136 146.967 23.4773C146.911 29.6705 150.49 35.0114 156.058 36.4318V36.7727C149.666 37.9375 144.751 44.1875 144.808 51.5455C144.751 61.0057 152.848 67.7955 164.581 67.7955ZM164.581 61.5455C156.598 61.5455 151.683 57.4545 151.74 51.2045C151.683 44.642 157.109 39.9545 164.581 39.9545C171.939 39.9545 177.365 44.642 177.422 51.2045C177.365 57.4545 172.45 61.5455 164.581 61.5455ZM164.581 33.9318C158.217 33.9318 153.729 29.9545 153.786 23.9318C153.729 18.0227 158.047 14.1591 164.581 14.1591C171.001 14.1591 175.32 18.0227 175.376 23.9318C175.32 29.9545 170.831 33.9318 164.581 33.9318ZM193.878 55.0682H221.264V67H227.969V55.0682H235.923V48.8182H227.969V8.81818H219.446L193.878 49.2727V55.0682ZM221.264 48.8182H201.491V48.3636L220.81 17.7955H221.264V48.8182Z" fill="#90CA2F"/>
<path d="M247.504 68.544L252.022 53.082H253.516L248.998 68.544H247.504ZM264.285 67.05C263.493 67.05 262.815 66.894 262.251 66.582C261.687 66.27 261.237 65.856 260.901 65.34C260.577 64.812 260.379 64.23 260.307 63.594H261.711C261.831 64.278 262.119 64.806 262.575 65.178C263.031 65.55 263.607 65.736 264.303 65.736C265.263 65.736 266.061 65.292 266.697 64.404C267.333 63.504 267.675 62.106 267.723 60.21C267.435 60.774 266.973 61.266 266.337 61.686C265.713 62.094 264.957 62.298 264.069 62.298C263.361 62.298 262.689 62.13 262.053 61.794C261.417 61.458 260.901 60.99 260.505 60.39C260.109 59.778 259.911 59.064 259.911 58.248C259.911 57.54 260.085 56.862 260.433 56.214C260.793 55.566 261.297 55.038 261.945 54.63C262.593 54.222 263.367 54.018 264.267 54.018C265.179 54.018 265.947 54.192 266.571 54.54C267.195 54.876 267.693 55.332 268.065 55.908C268.449 56.484 268.725 57.132 268.893 57.852C269.073 58.56 269.163 59.286 269.163 60.03C269.163 61.422 268.971 62.646 268.587 63.702C268.203 64.746 267.645 65.568 266.913 66.168C266.193 66.756 265.317 67.05 264.285 67.05ZM264.375 60.984C264.939 60.984 265.443 60.858 265.887 60.606C266.331 60.342 266.685 59.994 266.949 59.562C267.213 59.13 267.345 58.662 267.345 58.158C267.345 57.618 267.213 57.138 266.949 56.718C266.685 56.286 266.331 55.95 265.887 55.71C265.443 55.47 264.939 55.35 264.375 55.35C263.811 55.35 263.307 55.47 262.863 55.71C262.419 55.95 262.071 56.286 261.819 56.718C261.567 57.138 261.441 57.624 261.441 58.176C261.441 59.028 261.717 59.712 262.269 60.228C262.833 60.732 263.535 60.984 264.375 60.984ZM275.749 67.05C274.885 67.05 274.135 66.894 273.499 66.582C272.863 66.27 272.353 65.844 271.969 65.304C271.597 64.752 271.369 64.128 271.285 63.432H272.761C272.905 64.128 273.241 64.692 273.769 65.124C274.297 65.544 274.963 65.754 275.767 65.754C276.367 65.754 276.883 65.616 277.315 65.34C277.747 65.052 278.077 64.668 278.305 64.188C278.545 63.708 278.665 63.174 278.665 62.586C278.665 61.65 278.401 60.894 277.873 60.318C277.345 59.742 276.661 59.454 275.821 59.454C275.125 59.454 274.531 59.61 274.039 59.922C273.547 60.234 273.187 60.642 272.959 61.146H271.519L272.599 54.234H279.205V55.548H273.769L273.031 59.382C273.319 59.034 273.715 58.746 274.219 58.518C274.735 58.29 275.323 58.176 275.983 58.176C276.811 58.176 277.531 58.368 278.143 58.752C278.767 59.136 279.253 59.658 279.601 60.318C279.949 60.978 280.123 61.728 280.123 62.568C280.123 63.372 279.949 64.116 279.601 64.8C279.265 65.484 278.767 66.03 278.107 66.438C277.459 66.846 276.673 67.05 275.749 67.05ZM287.4 67.05C286.284 67.05 285.318 66.78 284.502 66.24C283.698 65.688 283.08 64.926 282.648 63.954C282.216 62.97 282 61.83 282 60.534C282 59.238 282.216 58.104 282.648 57.132C283.08 56.148 283.698 55.386 284.502 54.846C285.318 54.294 286.284 54.018 287.4 54.018C288.516 54.018 289.476 54.294 290.28 54.846C291.084 55.386 291.702 56.148 292.134 57.132C292.566 58.104 292.782 59.238 292.782 60.534C292.782 61.83 292.566 62.97 292.134 63.954C291.702 64.926 291.084 65.688 290.28 66.24C289.476 66.78 288.516 67.05 287.4 67.05ZM287.4 65.718C288.132 65.718 288.786 65.514 289.362 65.106C289.95 64.686 290.406 64.092 290.73 63.324C291.066 62.544 291.234 61.614 291.234 60.534C291.234 59.454 291.066 58.53 290.73 57.762C290.406 56.994 289.95 56.406 289.362 55.998C288.786 55.578 288.132 55.368 287.4 55.368C286.656 55.368 285.996 55.578 285.42 55.998C284.844 56.406 284.388 56.994 284.052 57.762C283.716 58.53 283.548 59.454 283.548 60.534C283.548 61.614 283.716 62.544 284.052 63.324C284.388 64.092 284.844 64.686 285.42 65.106C285.996 65.514 286.656 65.718 287.4 65.718Z" fill="#4A5078"/>
</svg>
