<svg width="276" height="75" viewBox="0 0 276 75" fill="none" xmlns="http://www.w3.org/2000/svg">
<path d="M74 37.5C74 57.3823 57.8823 73.5 38 73.5C18.1177 73.5 2 57.3823 2 37.5C2 17.6177 18.1177 1.5 38 1.5C57.8823 1.5 74 17.6177 74 37.5Z" fill="#F4FBF7"/>
<path fill-rule="evenodd" clip-rule="evenodd" d="M38 3C18.9462 3 3.5 18.4462 3.5 37.5C3.5 56.5538 18.9462 72 38 72C57.0538 72 72.5 56.5538 72.5 37.5C72.5 18.4462 57.0538 3 38 3ZM0.5 37.5C0.5 16.7893 17.2893 0 38 0C58.7107 0 75.5 16.7893 75.5 37.5C75.5 58.2107 58.7107 75 38 75C17.2893 75 0.5 58.2107 0.5 37.5Z" fill="#20AF5D"/>
<path d="M28.3778 52.5005H24.5L35.7159 21.9551H39.5341L50.75 52.5005H46.8722L37.7443 26.7875H37.5057L28.3778 52.5005ZM29.8097 40.5687H45.4403V43.85H29.8097V40.5687Z" fill="#20AF5D"/>
<path d="M114.659 67.7955C126.278 67.7955 134.375 61.0057 134.432 51.5455C134.375 44.1875 129.46 37.9375 123.182 36.7727V36.4318C128.636 35.0114 132.216 29.6705 132.273 23.4773C132.216 14.6136 124.773 8.02273 114.659 8.02273C104.432 8.02273 96.9886 14.6136 97.0455 23.4773C96.9886 29.6705 100.568 35.0114 106.136 36.4318V36.7727C99.7443 37.9375 94.8295 44.1875 94.8864 51.5455C94.8295 61.0057 102.926 67.7955 114.659 67.7955ZM114.659 61.5455C106.676 61.5455 101.761 57.4545 101.818 51.2045C101.761 44.642 107.188 39.9545 114.659 39.9545C122.017 39.9545 127.443 44.642 127.5 51.2045C127.443 57.4545 122.528 61.5455 114.659 61.5455ZM114.659 33.9318C108.295 33.9318 103.807 29.9545 103.864 23.9318C103.807 18.0227 108.125 14.1591 114.659 14.1591C121.08 14.1591 125.398 18.0227 125.455 23.9318C125.398 29.9545 120.909 33.9318 114.659 33.9318ZM165.774 8.81818H158.729L144.183 18.4773V25.6364L158.388 16.2045H158.729V67H165.774V8.81818ZM184.325 67H191.712L217.621 15.4091V8.81818H180.348V15.0682H210.348V15.5227L184.325 67Z" fill="#20AF5D"/>
<path d="M229.504 68.544L234.022 53.082H235.516L230.998 68.544H229.504ZM246.285 67.05C245.493 67.05 244.815 66.894 244.251 66.582C243.687 66.27 243.237 65.856 242.901 65.34C242.577 64.812 242.379 64.23 242.307 63.594H243.711C243.831 64.278 244.119 64.806 244.575 65.178C245.031 65.55 245.607 65.736 246.303 65.736C247.263 65.736 248.061 65.292 248.697 64.404C249.333 63.504 249.675 62.106 249.723 60.21C249.435 60.774 248.973 61.266 248.337 61.686C247.713 62.094 246.957 62.298 246.069 62.298C245.361 62.298 244.689 62.13 244.053 61.794C243.417 61.458 242.901 60.99 242.505 60.39C242.109 59.778 241.911 59.064 241.911 58.248C241.911 57.54 242.085 56.862 242.433 56.214C242.793 55.566 243.297 55.038 243.945 54.63C244.593 54.222 245.367 54.018 246.267 54.018C247.179 54.018 247.947 54.192 248.571 54.54C249.195 54.876 249.693 55.332 250.065 55.908C250.449 56.484 250.725 57.132 250.893 57.852C251.073 58.56 251.163 59.286 251.163 60.03C251.163 61.422 250.971 62.646 250.587 63.702C250.203 64.746 249.645 65.568 248.913 66.168C248.193 66.756 247.317 67.05 246.285 67.05ZM246.375 60.984C246.939 60.984 247.443 60.858 247.887 60.606C248.331 60.342 248.685 59.994 248.949 59.562C249.213 59.13 249.345 58.662 249.345 58.158C249.345 57.618 249.213 57.138 248.949 56.718C248.685 56.286 248.331 55.95 247.887 55.71C247.443 55.47 246.939 55.35 246.375 55.35C245.811 55.35 245.307 55.47 244.863 55.71C244.419 55.95 244.071 56.286 243.819 56.718C243.567 57.138 243.441 57.624 243.441 58.176C243.441 59.028 243.717 59.712 244.269 60.228C244.833 60.732 245.535 60.984 246.375 60.984ZM257.749 67.05C256.885 67.05 256.135 66.894 255.499 66.582C254.863 66.27 254.353 65.844 253.969 65.304C253.597 64.752 253.369 64.128 253.285 63.432H254.761C254.905 64.128 255.241 64.692 255.769 65.124C256.297 65.544 256.963 65.754 257.767 65.754C258.367 65.754 258.883 65.616 259.315 65.34C259.747 65.052 260.077 64.668 260.305 64.188C260.545 63.708 260.665 63.174 260.665 62.586C260.665 61.65 260.401 60.894 259.873 60.318C259.345 59.742 258.661 59.454 257.821 59.454C257.125 59.454 256.531 59.61 256.039 59.922C255.547 60.234 255.187 60.642 254.959 61.146H253.519L254.599 54.234H261.205V55.548H255.769L255.031 59.382C255.319 59.034 255.715 58.746 256.219 58.518C256.735 58.29 257.323 58.176 257.983 58.176C258.811 58.176 259.531 58.368 260.143 58.752C260.767 59.136 261.253 59.658 261.601 60.318C261.949 60.978 262.123 61.728 262.123 62.568C262.123 63.372 261.949 64.116 261.601 64.8C261.265 65.484 260.767 66.03 260.107 66.438C259.459 66.846 258.673 67.05 257.749 67.05ZM269.4 67.05C268.284 67.05 267.318 66.78 266.502 66.24C265.698 65.688 265.08 64.926 264.648 63.954C264.216 62.97 264 61.83 264 60.534C264 59.238 264.216 58.104 264.648 57.132C265.08 56.148 265.698 55.386 266.502 54.846C267.318 54.294 268.284 54.018 269.4 54.018C270.516 54.018 271.476 54.294 272.28 54.846C273.084 55.386 273.702 56.148 274.134 57.132C274.566 58.104 274.782 59.238 274.782 60.534C274.782 61.83 274.566 62.97 274.134 63.954C273.702 64.926 273.084 65.688 272.28 66.24C271.476 66.78 270.516 67.05 269.4 67.05ZM269.4 65.718C270.132 65.718 270.786 65.514 271.362 65.106C271.95 64.686 272.406 64.092 272.73 63.324C273.066 62.544 273.234 61.614 273.234 60.534C273.234 59.454 273.066 58.53 272.73 57.762C272.406 56.994 271.95 56.406 271.362 55.998C270.786 55.578 270.132 55.368 269.4 55.368C268.656 55.368 267.996 55.578 267.42 55.998C266.844 56.406 266.388 56.994 266.052 57.762C265.716 58.53 265.548 59.454 265.548 60.534C265.548 61.614 265.716 62.544 266.052 63.324C266.388 64.092 266.844 64.686 267.42 65.106C267.996 65.514 268.656 65.718 269.4 65.718Z" fill="#4A5078"/>
</svg>
