<svg width="289" height="75" viewBox="0 0 289 75" fill="none" xmlns="http://www.w3.org/2000/svg">
<path d="M74 37.5C74 57.3823 57.8823 73.5 38 73.5C18.1177 73.5 2 57.3823 2 37.5C2 17.6177 18.1177 1.5 38 1.5C57.8823 1.5 74 17.6177 74 37.5Z" fill="#F9FCF5"/>
<path fill-rule="evenodd" clip-rule="evenodd" d="M38 3C18.9462 3 3.5 18.4462 3.5 37.5C3.5 56.5538 18.9462 72 38 72C57.0538 72 72.5 56.5538 72.5 37.5C72.5 18.4462 57.0538 3 38 3ZM0.5 37.5C0.5 16.7893 17.2893 0 38 0C58.7107 0 75.5 16.7893 75.5 37.5C75.5 58.2107 58.7107 75 38 75C17.2893 75 0.5 58.2107 0.5 37.5Z" fill="#90CA2F"/>
<path d="M28.1987 52.5005V21.9551H38.8777C41.0055 21.9551 42.7605 22.323 44.1426 23.0588C45.5247 23.7846 46.5538 24.764 47.23 25.997C47.9061 27.22 48.2442 28.5772 48.2442 30.0687C48.2442 31.3812 48.0105 32.465 47.5432 33.3201C47.0858 34.1753 46.4793 34.8514 45.7236 35.3485C44.9779 35.8457 44.1675 36.2136 43.2925 36.4522V36.7505C44.2271 36.8102 45.1668 37.1383 46.1114 37.7349C47.056 38.3315 47.8465 39.1866 48.4828 40.3002C49.1192 41.4139 49.4374 42.7761 49.4374 44.3869C49.4374 45.9181 49.0894 47.2953 48.3933 48.5183C47.6973 49.7413 46.5986 50.7108 45.0972 51.4267C43.5957 52.1426 41.6419 52.5005 39.2357 52.5005H28.1987ZM31.8976 49.2193H39.2357C41.6519 49.2193 43.3671 48.752 44.3813 47.8173C45.4054 46.8727 45.9175 45.7292 45.9175 44.3869C45.9175 43.3528 45.654 42.3983 45.127 41.5233C44.6 40.6383 43.8493 39.9324 42.8749 39.4054C41.9004 38.8684 40.747 38.6 39.4146 38.6H31.8976V49.2193ZM31.8976 35.3784H38.7584C39.872 35.3784 40.8763 35.1596 41.7712 34.7221C42.676 34.2846 43.3919 33.6681 43.9189 32.8727C44.4558 32.0772 44.7243 31.1426 44.7243 30.0687C44.7243 28.7264 44.257 27.5879 43.3223 26.6532C42.3877 25.7086 40.9061 25.2363 38.8777 25.2363H31.8976V35.3784Z" fill="#90CA2F"/>
<path d="M97.8409 67H105.227L131.136 15.4091V8.81818H93.8636V15.0682H123.864V15.5227L97.8409 67ZM159.453 67.7955C172.294 67.7955 179.68 56.9148 179.68 37.9091C179.68 19.0455 172.18 8.02273 159.453 8.02273C146.726 8.02273 139.226 19.0455 139.226 37.9091C139.226 56.9148 146.612 67.7955 159.453 67.7955ZM159.453 61.5455C150.987 61.5455 146.044 53.0511 146.044 37.9091C146.044 22.7955 151.044 14.1591 159.453 14.1591C167.862 14.1591 172.862 22.7955 172.862 37.9091C172.862 53.0511 167.919 61.5455 159.453 61.5455ZM210.135 67.7955C221.413 67.7955 229.794 60.7216 229.794 51.2045C229.794 43.8182 225.419 38.4489 218.089 37.2273V36.7727C223.97 34.983 227.635 30.1534 227.635 23.5909C227.635 15.3523 221.129 8.02273 210.362 8.02273C200.305 8.02273 191.953 14.2159 191.612 23.3636H198.43C198.686 17.5682 204.197 14.1591 210.249 14.1591C216.669 14.1591 220.817 18.0511 220.817 23.9318C220.817 30.0682 216.016 34.0455 209.112 34.0455H204.453V40.2955H209.112C217.947 40.2955 222.862 44.7841 222.862 51.2045C222.862 57.3693 217.493 61.5455 210.021 61.5455C203.288 61.5455 197.947 58.0795 197.521 52.4545H190.362C190.788 61.6023 198.857 67.7955 210.135 67.7955Z" fill="#90CA2F"/>
<path d="M242.504 68.544L247.022 53.082H248.516L243.998 68.544H242.504ZM259.285 67.05C258.493 67.05 257.815 66.894 257.251 66.582C256.687 66.27 256.237 65.856 255.901 65.34C255.577 64.812 255.379 64.23 255.307 63.594H256.711C256.831 64.278 257.119 64.806 257.575 65.178C258.031 65.55 258.607 65.736 259.303 65.736C260.263 65.736 261.061 65.292 261.697 64.404C262.333 63.504 262.675 62.106 262.723 60.21C262.435 60.774 261.973 61.266 261.337 61.686C260.713 62.094 259.957 62.298 259.069 62.298C258.361 62.298 257.689 62.13 257.053 61.794C256.417 61.458 255.901 60.99 255.505 60.39C255.109 59.778 254.911 59.064 254.911 58.248C254.911 57.54 255.085 56.862 255.433 56.214C255.793 55.566 256.297 55.038 256.945 54.63C257.593 54.222 258.367 54.018 259.267 54.018C260.179 54.018 260.947 54.192 261.571 54.54C262.195 54.876 262.693 55.332 263.065 55.908C263.449 56.484 263.725 57.132 263.893 57.852C264.073 58.56 264.163 59.286 264.163 60.03C264.163 61.422 263.971 62.646 263.587 63.702C263.203 64.746 262.645 65.568 261.913 66.168C261.193 66.756 260.317 67.05 259.285 67.05ZM259.375 60.984C259.939 60.984 260.443 60.858 260.887 60.606C261.331 60.342 261.685 59.994 261.949 59.562C262.213 59.13 262.345 58.662 262.345 58.158C262.345 57.618 262.213 57.138 261.949 56.718C261.685 56.286 261.331 55.95 260.887 55.71C260.443 55.47 259.939 55.35 259.375 55.35C258.811 55.35 258.307 55.47 257.863 55.71C257.419 55.95 257.071 56.286 256.819 56.718C256.567 57.138 256.441 57.624 256.441 58.176C256.441 59.028 256.717 59.712 257.269 60.228C257.833 60.732 258.535 60.984 259.375 60.984ZM270.749 67.05C269.885 67.05 269.135 66.894 268.499 66.582C267.863 66.27 267.353 65.844 266.969 65.304C266.597 64.752 266.369 64.128 266.285 63.432H267.761C267.905 64.128 268.241 64.692 268.769 65.124C269.297 65.544 269.963 65.754 270.767 65.754C271.367 65.754 271.883 65.616 272.315 65.34C272.747 65.052 273.077 64.668 273.305 64.188C273.545 63.708 273.665 63.174 273.665 62.586C273.665 61.65 273.401 60.894 272.873 60.318C272.345 59.742 271.661 59.454 270.821 59.454C270.125 59.454 269.531 59.61 269.039 59.922C268.547 60.234 268.187 60.642 267.959 61.146H266.519L267.599 54.234H274.205V55.548H268.769L268.031 59.382C268.319 59.034 268.715 58.746 269.219 58.518C269.735 58.29 270.323 58.176 270.983 58.176C271.811 58.176 272.531 58.368 273.143 58.752C273.767 59.136 274.253 59.658 274.601 60.318C274.949 60.978 275.123 61.728 275.123 62.568C275.123 63.372 274.949 64.116 274.601 64.8C274.265 65.484 273.767 66.03 273.107 66.438C272.459 66.846 271.673 67.05 270.749 67.05ZM282.4 67.05C281.284 67.05 280.318 66.78 279.502 66.24C278.698 65.688 278.08 64.926 277.648 63.954C277.216 62.97 277 61.83 277 60.534C277 59.238 277.216 58.104 277.648 57.132C278.08 56.148 278.698 55.386 279.502 54.846C280.318 54.294 281.284 54.018 282.4 54.018C283.516 54.018 284.476 54.294 285.28 54.846C286.084 55.386 286.702 56.148 287.134 57.132C287.566 58.104 287.782 59.238 287.782 60.534C287.782 61.83 287.566 62.97 287.134 63.954C286.702 64.926 286.084 65.688 285.28 66.24C284.476 66.78 283.516 67.05 282.4 67.05ZM282.4 65.718C283.132 65.718 283.786 65.514 284.362 65.106C284.95 64.686 285.406 64.092 285.73 63.324C286.066 62.544 286.234 61.614 286.234 60.534C286.234 59.454 286.066 58.53 285.73 57.762C285.406 56.994 284.95 56.406 284.362 55.998C283.786 55.578 283.132 55.368 282.4 55.368C281.656 55.368 280.996 55.578 280.42 55.998C279.844 56.406 279.388 56.994 279.052 57.762C278.716 58.53 278.548 59.454 278.548 60.534C278.548 61.614 278.716 62.544 279.052 63.324C279.388 64.092 279.844 64.686 280.42 65.106C280.996 65.514 281.656 65.718 282.4 65.718Z" fill="#4A5078"/>
</svg>
