<svg width="288" height="75" viewBox="0 0 288 75" fill="none" xmlns="http://www.w3.org/2000/svg">
<path d="M74 37.5C74 57.3823 57.8823 73.5 38 73.5C18.1177 73.5 2 57.3823 2 37.5C2 17.6177 18.1177 1.5 38 1.5C57.8823 1.5 74 17.6177 74 37.5Z" fill="#F9FCF5"/>
<path fill-rule="evenodd" clip-rule="evenodd" d="M38 3C18.9462 3 3.5 18.4462 3.5 37.5C3.5 56.5538 18.9462 72 38 72C57.0538 72 72.5 56.5538 72.5 37.5C72.5 18.4462 57.0538 3 38 3ZM0.5 37.5C0.5 16.7893 17.2893 0 38 0C58.7107 0 75.5 16.7893 75.5 37.5C75.5 58.2107 58.7107 75 38 75C17.2893 75 0.5 58.2107 0.5 37.5Z" fill="#90CA2F"/>
<path d="M28.1987 52.5005V21.9551H38.8777C41.0055 21.9551 42.7605 22.323 44.1426 23.0588C45.5247 23.7846 46.5538 24.764 47.23 25.997C47.9061 27.22 48.2442 28.5772 48.2442 30.0687C48.2442 31.3812 48.0105 32.465 47.5432 33.3201C47.0858 34.1753 46.4793 34.8514 45.7236 35.3485C44.9779 35.8457 44.1675 36.2136 43.2925 36.4522V36.7505C44.2271 36.8102 45.1668 37.1383 46.1114 37.7349C47.056 38.3315 47.8465 39.1866 48.4828 40.3002C49.1192 41.4139 49.4374 42.7761 49.4374 44.3869C49.4374 45.9181 49.0894 47.2953 48.3933 48.5183C47.6973 49.7413 46.5986 50.7108 45.0972 51.4267C43.5957 52.1426 41.6419 52.5005 39.2357 52.5005H28.1987ZM31.8976 49.2193H39.2357C41.6519 49.2193 43.3671 48.752 44.3813 47.8173C45.4054 46.8727 45.9175 45.7292 45.9175 44.3869C45.9175 43.3528 45.654 42.3983 45.127 41.5233C44.6 40.6383 43.8493 39.9324 42.8749 39.4054C41.9004 38.8684 40.747 38.6 39.4146 38.6H31.8976V49.2193ZM31.8976 35.3784H38.7584C39.872 35.3784 40.8763 35.1596 41.7712 34.7221C42.676 34.2846 43.3919 33.6681 43.9189 32.8727C44.4558 32.0772 44.7243 31.1426 44.7243 30.0687C44.7243 28.7264 44.257 27.5879 43.3223 26.6532C42.3877 25.7086 40.9061 25.2363 38.8777 25.2363H31.8976V35.3784Z" fill="#90CA2F"/>
<path d="M97.8409 67H105.227L131.136 15.4091V8.81818H93.8636V15.0682H123.864V15.5227L97.8409 67ZM159.794 67.7955C171.555 67.9375 179.226 59.0739 179.226 48.25C179.226 37 170.902 28.9318 160.93 28.9318C154.936 28.9318 149.794 31.858 146.612 36.6591H146.158C146.186 22.483 151.697 14.2727 160.703 14.2727C166.839 14.2727 170.533 18.1364 171.839 23.3636H178.771C177.351 14.3295 170.476 8.02273 160.703 8.02273C147.607 8.02273 139.567 19.6136 139.567 40.1818C139.567 61.6875 150.249 67.6818 159.794 67.7955ZM159.794 61.5455C152.493 61.5455 147.152 55.3239 147.18 48.3636C147.209 41.4034 152.805 35.1818 160.021 35.1818C167.152 35.1818 172.408 41.0341 172.408 48.25C172.408 55.6364 166.925 61.5455 159.794 61.5455ZM209.375 67.7955C222.216 67.7955 229.602 56.9148 229.602 37.9091C229.602 19.0455 222.102 8.02273 209.375 8.02273C196.648 8.02273 189.148 19.0455 189.148 37.9091C189.148 56.9148 196.534 67.7955 209.375 67.7955ZM209.375 61.5455C200.909 61.5455 195.966 53.0511 195.966 37.9091C195.966 22.7955 200.966 14.1591 209.375 14.1591C217.784 14.1591 222.784 22.7955 222.784 37.9091C222.784 53.0511 217.841 61.5455 209.375 61.5455Z" fill="#90CA2F"/>
<path d="M241.504 68.544L246.022 53.082H247.516L242.998 68.544H241.504ZM258.285 67.05C257.493 67.05 256.815 66.894 256.251 66.582C255.687 66.27 255.237 65.856 254.901 65.34C254.577 64.812 254.379 64.23 254.307 63.594H255.711C255.831 64.278 256.119 64.806 256.575 65.178C257.031 65.55 257.607 65.736 258.303 65.736C259.263 65.736 260.061 65.292 260.697 64.404C261.333 63.504 261.675 62.106 261.723 60.21C261.435 60.774 260.973 61.266 260.337 61.686C259.713 62.094 258.957 62.298 258.069 62.298C257.361 62.298 256.689 62.13 256.053 61.794C255.417 61.458 254.901 60.99 254.505 60.39C254.109 59.778 253.911 59.064 253.911 58.248C253.911 57.54 254.085 56.862 254.433 56.214C254.793 55.566 255.297 55.038 255.945 54.63C256.593 54.222 257.367 54.018 258.267 54.018C259.179 54.018 259.947 54.192 260.571 54.54C261.195 54.876 261.693 55.332 262.065 55.908C262.449 56.484 262.725 57.132 262.893 57.852C263.073 58.56 263.163 59.286 263.163 60.03C263.163 61.422 262.971 62.646 262.587 63.702C262.203 64.746 261.645 65.568 260.913 66.168C260.193 66.756 259.317 67.05 258.285 67.05ZM258.375 60.984C258.939 60.984 259.443 60.858 259.887 60.606C260.331 60.342 260.685 59.994 260.949 59.562C261.213 59.13 261.345 58.662 261.345 58.158C261.345 57.618 261.213 57.138 260.949 56.718C260.685 56.286 260.331 55.95 259.887 55.71C259.443 55.47 258.939 55.35 258.375 55.35C257.811 55.35 257.307 55.47 256.863 55.71C256.419 55.95 256.071 56.286 255.819 56.718C255.567 57.138 255.441 57.624 255.441 58.176C255.441 59.028 255.717 59.712 256.269 60.228C256.833 60.732 257.535 60.984 258.375 60.984ZM269.749 67.05C268.885 67.05 268.135 66.894 267.499 66.582C266.863 66.27 266.353 65.844 265.969 65.304C265.597 64.752 265.369 64.128 265.285 63.432H266.761C266.905 64.128 267.241 64.692 267.769 65.124C268.297 65.544 268.963 65.754 269.767 65.754C270.367 65.754 270.883 65.616 271.315 65.34C271.747 65.052 272.077 64.668 272.305 64.188C272.545 63.708 272.665 63.174 272.665 62.586C272.665 61.65 272.401 60.894 271.873 60.318C271.345 59.742 270.661 59.454 269.821 59.454C269.125 59.454 268.531 59.61 268.039 59.922C267.547 60.234 267.187 60.642 266.959 61.146H265.519L266.599 54.234H273.205V55.548H267.769L267.031 59.382C267.319 59.034 267.715 58.746 268.219 58.518C268.735 58.29 269.323 58.176 269.983 58.176C270.811 58.176 271.531 58.368 272.143 58.752C272.767 59.136 273.253 59.658 273.601 60.318C273.949 60.978 274.123 61.728 274.123 62.568C274.123 63.372 273.949 64.116 273.601 64.8C273.265 65.484 272.767 66.03 272.107 66.438C271.459 66.846 270.673 67.05 269.749 67.05ZM281.4 67.05C280.284 67.05 279.318 66.78 278.502 66.24C277.698 65.688 277.08 64.926 276.648 63.954C276.216 62.97 276 61.83 276 60.534C276 59.238 276.216 58.104 276.648 57.132C277.08 56.148 277.698 55.386 278.502 54.846C279.318 54.294 280.284 54.018 281.4 54.018C282.516 54.018 283.476 54.294 284.28 54.846C285.084 55.386 285.702 56.148 286.134 57.132C286.566 58.104 286.782 59.238 286.782 60.534C286.782 61.83 286.566 62.97 286.134 63.954C285.702 64.926 285.084 65.688 284.28 66.24C283.476 66.78 282.516 67.05 281.4 67.05ZM281.4 65.718C282.132 65.718 282.786 65.514 283.362 65.106C283.95 64.686 284.406 64.092 284.73 63.324C285.066 62.544 285.234 61.614 285.234 60.534C285.234 59.454 285.066 58.53 284.73 57.762C284.406 56.994 283.95 56.406 283.362 55.998C282.786 55.578 282.132 55.368 281.4 55.368C280.656 55.368 279.996 55.578 279.42 55.998C278.844 56.406 278.388 56.994 278.052 57.762C277.716 58.53 277.548 59.454 277.548 60.534C277.548 61.614 277.716 62.544 278.052 63.324C278.388 64.092 278.844 64.686 279.42 65.106C279.996 65.514 280.656 65.718 281.4 65.718Z" fill="#4A5078"/>
</svg>
