<svg width="279" height="75" viewBox="0 0 279 75" fill="none" xmlns="http://www.w3.org/2000/svg">
<path d="M74 37.5C74 57.3823 57.8823 73.5 38 73.5C18.1177 73.5 2 57.3823 2 37.5C2 17.6177 18.1177 1.5 38 1.5C57.8823 1.5 74 17.6177 74 37.5Z" fill="#F4FBF7"/>
<path fill-rule="evenodd" clip-rule="evenodd" d="M38 3C18.9462 3 3.5 18.4462 3.5 37.5C3.5 56.5538 18.9462 72 38 72C57.0538 72 72.5 56.5538 72.5 37.5C72.5 18.4462 57.0538 3 38 3ZM0.5 37.5C0.5 16.7893 17.2893 0 38 0C58.7107 0 75.5 16.7893 75.5 37.5C75.5 58.2107 58.7107 75 38 75C17.2893 75 0.5 58.2107 0.5 37.5Z" fill="#20AF5D"/>
<path d="M28.3778 52.5005H24.5L35.7159 21.9551H39.5341L50.75 52.5005H46.8722L37.7443 26.7875H37.5057L28.3778 52.5005ZM29.8097 40.5687H45.4403V43.85H29.8097V40.5687Z" fill="#20AF5D"/>
<path d="M114.545 8.02273C102.727 7.88068 95.1136 16.7727 95.1136 27.4545C95.1136 38.7045 103.409 46.7727 113.409 46.7727C119.432 46.7727 124.545 43.8182 127.727 39.0455H128.182C128.182 53.3636 122.614 61.5455 113.636 61.5455C107.5 61.5455 103.75 57.6818 102.5 52.3409H95.5682C96.9318 61.5455 103.864 67.7955 113.636 67.7955C126.705 67.7955 134.773 56.2045 134.773 35.5227C134.773 14.1591 124.091 8.13636 114.545 8.02273ZM114.545 14.2727C121.818 14.2727 127.159 20.5227 127.159 27.3409C127.159 34.2727 121.477 40.5227 114.318 40.5227C107.159 40.5227 101.932 34.7273 101.932 27.4545C101.932 20.1818 107.386 14.2727 114.545 14.2727ZM166.399 8.81818H159.354L144.808 18.4773V25.6364L159.013 16.2045H159.354V67H166.399V8.81818ZM183.132 67H219.837V60.75H192.791V60.2955L205.859 46.3182C215.859 35.608 218.814 30.608 218.814 24.1591C218.814 15.1818 211.541 8.02273 201.314 8.02273C191.115 8.02273 183.359 14.9545 183.359 25.1818H190.064C190.064 18.5625 194.354 14.1591 201.087 14.1591C207.393 14.1591 212.223 18.0227 212.223 24.1591C212.223 29.5284 209.07 33.5057 202.337 40.8636L183.132 61.8864V67Z" fill="#20AF5D"/>
<path d="M238.009 54.1294H236.628L232.409 69.8027H233.79L238.009 54.1294ZM249.001 54.5641C246.342 54.5321 244.629 56.5328 244.629 58.9363C244.629 61.4675 246.496 63.2828 248.746 63.2828C250.101 63.2828 251.251 62.6181 251.967 61.5442H252.069C252.069 64.7658 250.817 66.6067 248.797 66.6067C247.416 66.6067 246.572 65.7374 246.291 64.5357H244.731C245.038 66.6067 246.598 68.013 248.797 68.013C251.737 68.013 253.552 65.405 253.552 60.7516C253.552 55.9448 251.149 54.5897 249.001 54.5641ZM249.001 55.9703C250.638 55.9703 251.839 57.3766 251.839 58.9107C251.839 60.4703 250.561 61.8766 248.95 61.8766C247.339 61.8766 246.163 60.5726 246.163 58.9363C246.163 57.2999 247.39 55.9703 249.001 55.9703ZM260.157 68.013C262.65 68.013 264.478 66.1721 264.478 63.6664C264.478 61.1287 262.714 59.2686 260.31 59.2686C259.428 59.2686 258.572 59.5819 258.035 60.0101H257.958L258.418 56.1493H263.89V54.7431H257.089L256.296 61.1863L257.779 61.3652C258.322 60.9753 259.249 60.6941 260.055 60.7005C261.723 60.7132 262.944 61.9789 262.944 63.6919C262.944 65.373 261.768 66.6067 260.157 66.6067C258.815 66.6067 257.747 65.7438 257.626 64.5613H256.092C256.188 66.5556 257.907 68.013 260.157 68.013ZM271.287 68.013C274.176 68.013 275.838 65.5648 275.838 61.2885C275.838 57.0442 274.151 54.5641 271.287 54.5641C268.423 54.5641 266.736 57.0442 266.736 61.2885C266.736 65.5648 268.398 68.013 271.287 68.013ZM271.287 66.6067C269.382 66.6067 268.27 64.6955 268.27 61.2885C268.27 57.888 269.395 55.9448 271.287 55.9448C273.179 55.9448 274.304 57.888 274.304 61.2885C274.304 64.6955 273.192 66.6067 271.287 66.6067Z" fill="#4A5078"/>
</svg>
