<svg width="294" height="75" viewBox="0 0 294 75" fill="none" xmlns="http://www.w3.org/2000/svg">
<path d="M74 37.5C74 57.3823 57.8823 73.5 38 73.5C18.1177 73.5 2 57.3823 2 37.5C2 17.6177 18.1177 1.5 38 1.5C57.8823 1.5 74 17.6177 74 37.5Z" fill="#F4FBF7"/>
<path fill-rule="evenodd" clip-rule="evenodd" d="M38 3C18.9462 3 3.5 18.4462 3.5 37.5C3.5 56.5538 18.9462 72 38 72C57.0538 72 72.5 56.5538 72.5 37.5C72.5 18.4462 57.0538 3 38 3ZM0.5 37.5C0.5 16.7893 17.2893 0 38 0C58.7107 0 75.5 16.7893 75.5 37.5C75.5 58.2107 58.7107 75 38 75C17.2893 75 0.5 58.2107 0.5 37.5Z" fill="#20AF5D"/>
<path d="M28.3778 52.5005H24.5L35.7159 21.9551H39.5341L50.75 52.5005H46.8722L37.7443 26.7875H37.5057L28.3778 52.5005ZM29.8097 40.5687H45.4403V43.85H29.8097V40.5687Z" fill="#20AF5D"/>
<path d="M114.659 67.7955C126.278 67.7955 134.375 61.0057 134.432 51.5455C134.375 44.1875 129.46 37.9375 123.182 36.7727V36.4318C128.636 35.0114 132.216 29.6705 132.273 23.4773C132.216 14.6136 124.773 8.02273 114.659 8.02273C104.432 8.02273 96.9886 14.6136 97.0455 23.4773C96.9886 29.6705 100.568 35.0114 106.136 36.4318V36.7727C99.7443 37.9375 94.8295 44.1875 94.8864 51.5455C94.8295 61.0057 102.926 67.7955 114.659 67.7955ZM114.659 61.5455C106.676 61.5455 101.761 57.4545 101.818 51.2045C101.761 44.642 107.188 39.9545 114.659 39.9545C122.017 39.9545 127.443 44.642 127.5 51.2045C127.443 57.4545 122.528 61.5455 114.659 61.5455ZM114.659 33.9318C108.295 33.9318 103.807 29.9545 103.864 23.9318C103.807 18.0227 108.125 14.1591 114.659 14.1591C121.08 14.1591 125.398 18.0227 125.455 23.9318C125.398 29.9545 120.909 33.9318 114.659 33.9318ZM163.842 8.02273C152.024 7.88068 144.411 16.7727 144.411 27.4545C144.411 38.7045 152.706 46.7727 162.706 46.7727C168.729 46.7727 173.842 43.8182 177.024 39.0455H177.479C177.479 53.3636 171.911 61.5455 162.933 61.5455C156.797 61.5455 153.047 57.6818 151.797 52.3409H144.865C146.229 61.5455 153.161 67.7955 162.933 67.7955C176.001 67.7955 184.07 56.2045 184.07 35.5227C184.07 14.1591 173.388 8.13636 163.842 8.02273ZM163.842 14.2727C171.115 14.2727 176.456 20.5227 176.456 27.3409C176.456 34.2727 170.774 40.5227 163.615 40.5227C156.456 40.5227 151.229 34.7273 151.229 27.4545C151.229 20.1818 156.683 14.2727 163.842 14.2727ZM214.901 67.7955C226.179 67.7955 234.56 60.7216 234.56 51.2045C234.56 43.8182 230.185 38.4489 222.855 37.2273V36.7727C228.736 34.983 232.401 30.1534 232.401 23.5909C232.401 15.3523 225.895 8.02273 215.128 8.02273C205.071 8.02273 196.719 14.2159 196.378 23.3636H203.196C203.452 17.5682 208.963 14.1591 215.014 14.1591C221.435 14.1591 225.582 18.0511 225.582 23.9318C225.582 30.0682 220.781 34.0455 213.878 34.0455H209.219V40.2955H213.878C222.713 40.2955 227.628 44.7841 227.628 51.2045C227.628 57.3693 222.259 61.5455 214.787 61.5455C208.054 61.5455 202.713 58.0795 202.287 52.4545H195.128C195.554 61.6023 203.622 67.7955 214.901 67.7955Z" fill="#20AF5D"/>
<path d="M253.009 54.1294H251.628L247.409 69.8027H248.79L253.009 54.1294ZM264.001 54.5641C261.342 54.5321 259.629 56.5328 259.629 58.9363C259.629 61.4675 261.496 63.2828 263.746 63.2828C265.101 63.2828 266.251 62.6181 266.967 61.5442H267.069C267.069 64.7658 265.817 66.6067 263.797 66.6067C262.416 66.6067 261.572 65.7374 261.291 64.5357H259.731C260.038 66.6067 261.598 68.013 263.797 68.013C266.737 68.013 268.552 65.405 268.552 60.7516C268.552 55.9448 266.149 54.5897 264.001 54.5641ZM264.001 55.9703C265.638 55.9703 266.839 57.3766 266.839 58.9107C266.839 60.4703 265.561 61.8766 263.95 61.8766C262.339 61.8766 261.163 60.5726 261.163 58.9363C261.163 57.2999 262.39 55.9703 264.001 55.9703ZM275.157 68.013C277.65 68.013 279.478 66.1721 279.478 63.6664C279.478 61.1287 277.714 59.2686 275.31 59.2686C274.428 59.2686 273.572 59.5819 273.035 60.0101H272.958L273.418 56.1493H278.89V54.7431H272.089L271.296 61.1863L272.779 61.3652C273.322 60.9753 274.249 60.6941 275.055 60.7005C276.723 60.7132 277.944 61.9789 277.944 63.6919C277.944 65.373 276.768 66.6067 275.157 66.6067C273.815 66.6067 272.747 65.7438 272.626 64.5613H271.092C271.188 66.5556 272.907 68.013 275.157 68.013ZM286.287 68.013C289.176 68.013 290.838 65.5648 290.838 61.2885C290.838 57.0442 289.151 54.5641 286.287 54.5641C283.423 54.5641 281.736 57.0442 281.736 61.2885C281.736 65.5648 283.398 68.013 286.287 68.013ZM286.287 66.6067C284.382 66.6067 283.27 64.6955 283.27 61.2885C283.27 57.888 284.395 55.9448 286.287 55.9448C288.179 55.9448 289.304 57.888 289.304 61.2885C289.304 64.6955 288.192 66.6067 286.287 66.6067Z" fill="#4A5078"/>
</svg>
