<svg width="426" height="70" viewBox="0 0 426 70" fill="none" xmlns="http://www.w3.org/2000/svg">
<g clip-path="url(#clip0)">
<path d="M134.4 68.2998V61.3998C131.1 65.8998 126.5 69.1998 119.4 69.1998C108.2 69.1998 97.5 60.3998 97.5 44.3998V44.1998C97.5 28.1998 108 19.3998 119.4 19.3998C126.7 19.3998 131.1 22.6998 134.4 26.5998V2.7998H148V68.2998H134.4ZM134.6 44.1998C134.6 36.1998 129.3 30.8998 123 30.8998C116.6 30.8998 111.2 36.0998 111.2 44.1998V44.3998C111.2 52.3998 116.6 57.6998 123 57.6998C129.4 57.6998 134.6 52.3998 134.6 44.3998V44.1998Z" fill="#A6ABC9"/>
<path d="M178.4 69.3999C163.5 69.3999 152.5 58.3999 152.5 44.5999V44.3999C152.5 30.5999 163.6 19.3999 178.6 19.3999C193.5 19.3999 204.5 30.3999 204.5 44.1999V44.3999C204.5 58.1999 193.4 69.3999 178.4 69.3999ZM191.1 44.3999C191.1 37.2999 186 31.0999 178.4 31.0999C170.6 31.0999 165.9 37.0999 165.9 44.1999V44.3999C165.9 51.4999 171 57.6999 178.6 57.6999C186.4 57.6999 191.1 51.6999 191.1 44.5999V44.3999Z" fill="#A6ABC9"/>
<path d="M237.3 33.5999C228.2 33.5999 222.7 39.0999 222.7 50.5999V68.3999H209V20.1999H222.6V29.8999C225.4 23.2999 229.9 18.9999 237.9 19.2999V33.5999H237.3V33.5999Z" fill="#A6ABC9"/>
<path d="M259.8 69.2001C253.1 69.2001 245.5 67.0001 239.2 61.9001L245 52.9001C250.2 56.7001 255.7 58.6001 260.2 58.6001C264.1 58.6001 265.9 57.2001 265.9 55.0001V55.0001C265.9 52.0001 261.2 51.1001 256 49.4001C249.3 47.4001 241.6 44.3001 241.6 35.0001V34.8001C241.6 25.0001 249.5 19.6001 259.2 19.6001C265.3 19.6001 271.9 21.7001 277.1 25.2001L271.9 34.6001C267.1 31.8001 262.4 30.1001 258.9 30.1001C255.6 30.1001 253.9 31.5001 253.9 33.4001V33.6001C253.9 36.3001 258.5 37.5001 263.7 39.3001C270.4 41.5001 278.2 44.8001 278.2 53.6001V53.8001C278.2 64.4001 270.2 69.2001 259.8 69.2001Z" fill="#A6ABC9"/>
<path d="M312.5 68.2998V63.0998C309.2 66.7998 304.6 69.1998 298 69.1998C288.9 69.1998 281.5 63.9998 281.5 54.4998V54.2998C281.5 43.7998 289.5 38.9998 300.9 38.9998C305.8 38.9998 309.2 39.7998 312.7 40.9998V40.1998C312.7 34.4998 309.2 31.3998 302.4 31.3998C297.2 31.3998 293.5 32.3998 289.1 33.9998L285.7 23.5998C291 21.2998 296.2 19.7998 304.3 19.7998C319.2 19.7998 325.7 27.4998 325.7 40.4998V68.3998H312.5V68.2998ZM312.8 48.8998C310.5 47.7998 307.4 47.0998 304.1 47.0998C298.3 47.0998 294.7 49.3998 294.7 53.6998V53.9998C294.7 57.6998 297.8 59.7998 302.1 59.7998C308.5 59.7998 312.8 56.2998 312.8 51.3998V48.8998Z" fill="#A6ABC9"/>
<path d="M362.8 68.8H350.6L325.2 5.5H340.5L356.9 49.8L373.3 5.5H388.2L362.8 68.8Z" fill="#A6ABC9"/>
<path d="M393.2 5.5H407.5V17.1H393.2V5.5ZM393.5 22.2H407.1V68.3H393.5V22.2Z" fill="#A6ABC9"/>
<path d="M52.1 32.7998C51.3 32.8998 50.5 33.3998 50.1 34.0998L49.9 34.4998L39.4 52.5998L45.8 63.6998L47.8 67.0998L48.1 67.5998C48.3 67.7998 48.5 67.8998 48.8 67.8998C49.1 67.8998 49.5 67.6998 49.7 67.4998C49.8 67.3998 49.9 67.2998 49.9 67.1998L50 67.0998L69.8 32.7998H52.1Z" fill="#A6ABC9"/>
<path d="M48.9 67.8999C48.6 67.8999 48.4 67.7999 48.2 67.5999L45.9 63.5999L39.5 52.4999L18.6 16.3999H5.70002H1.70002H1.30002C1.00002 16.3999 0.600024 16.6999 0.500024 16.9999C0.400024 17.0999 0.400024 17.2999 0.400024 17.3999C0.400024 17.4999 0.400024 17.6999 0.500024 17.7999V17.8999L28.9 66.9999L29.3 67.6999C29.8 68.2999 30.4 68.6999 31.2 68.7999H31.9H47.2H47.5C47.9 68.7999 48.3 68.5999 48.7 68.4999C49.1 68.2999 49.4 67.9999 49.7 67.5999C49.5 67.7999 49.2 67.8999 48.9 67.8999Z" fill="#A6ABC9"/>
<path d="M11.1 0H10.4C9.4 0.1 8.6 0.7 8.2 1.6L0.6 14.8L0.2 15.4C0.1 15.7 0 16 0 16.4C0 16.7 0.1 17.1 0.2 17.4L0.5 17.9C0.4 17.8 0.4 17.6 0.4 17.5C0.4 17.4 0.4 17.2 0.5 17.1C0.6 16.8 1 16.6 1.3 16.5C1.3 16.5 39.6 16.5 39.7 16.5C39.8 16.5 39.8 16.5 39.9 16.5C40.7 16.4 41.4 16 41.9 15.4L42.4 14.6L50.7 0H11.1Z" fill="#A6ABC9"/>
<path d="M71.8 0H70.6C70 0.1 69.5 0.4 69.1 0.9L68.5 1.9L60.2 16.4H77.3H77.9C78.7 16.3 79.4 15.9 79.9 15.2L80.3 14.6L88.7 0H71.8Z" fill="#A6ABC9"/>
<path d="M417.2 5.5V6.5H415.2V11.7H414V6.6H412V5.6H417.2V5.5ZM423.9 11.8L423.7 8.1C423.7 7.6 423.7 7 423.7 6.4H423.6C423.4 6.9 423.2 7.7 423.1 8.3L422 11.8H420.7L419.6 8.3C419.5 7.8 419.3 7.1 419.2 6.5H419C419 7.1 419 7.7 419 8.2L418.8 11.9H417.6L418.1 5.7H420L421.1 8.7C421.3 9.2 421.4 9.6 421.5 10.3C421.7 9.8 421.8 9.2 421.9 8.8L423 5.7H424.8L425.3 11.9H423.9V11.8Z" fill="#A6ABC9"/>
</g>
<defs>
<clipPath id="clip0">
<rect width="425.1" height="69.4" fill="white"/>
</clipPath>
</defs>
</svg>
