<svg width="283" height="64" viewBox="0 0 283 64" fill="none" xmlns="http://www.w3.org/2000/svg">
<g clip-path="url(#clip0)">
<path d="M50.3063 17.9766C49.9769 9.6942 46.9651 3.20007 41.5063 0.94125C35.7181 -1.45875 28.5181 1.36477 22.1181 7.67066C11.8593 7.01183 3.52985 10.0707 0.847498 16.4236C-1.5525 22.2118 1.27103 29.4118 7.57691 35.8118C5.08279 48.706 8.00044 59.8589 15.5298 63.0118C23.2475 66.2589 33.5063 60.1413 40.9887 48.8001C41.0357 48.753 41.0357 48.706 41.0828 48.6589C41.5063 48.0001 41.9769 47.2942 42.4004 46.5413C42.4475 46.4942 42.4946 46.4471 42.4946 46.353L42.5416 46.306C42.5416 46.306 41.9298 48.2824 40.8475 51.0118C51.4828 51.906 60.1887 48.8471 62.9181 42.306C66.0239 34.9648 60.6122 25.3177 50.3063 17.9766ZM34.2593 38.9177C33.8828 39.7177 33.5063 40.4707 33.1298 41.2236C33.0828 41.3177 32.9887 41.4589 32.9416 41.553C32.5651 42.2118 32.2357 42.8707 31.8593 43.5295C31.8122 43.5766 31.8122 43.6707 31.7651 43.7177L31.671 43.8589C31.671 43.8589 32.424 41.553 32.9416 38.4942C31.5769 38.0236 30.1651 37.4589 28.7534 36.8942C23.1063 34.5413 18.071 31.6707 14.1651 28.753C14.4475 28.0001 14.7769 27.2001 15.1063 26.4001C17.5063 20.6589 20.3769 15.6236 23.3416 11.6707C27.7181 12.5177 32.5651 13.9295 37.5063 16.0001C38.6828 16.4707 39.7651 16.9883 40.8945 17.506C40.2828 22.7295 38.6357 28.8471 36.0004 35.106C35.4357 36.3766 34.871 37.6471 34.2593 38.9177ZM37.1298 2.96477C39.7651 4.04713 41.0828 7.67066 41.1298 12.706C40.5181 12.4236 39.8593 12.1413 39.2004 11.8589C34.824 10.0236 30.4004 8.80007 26.2593 8.14124C30.2593 3.81183 34.2122 1.74124 37.1298 2.96477ZM5.36515 14.8236C6.72985 11.5295 12.0004 10.306 19.0593 11.0118C15.9534 14.7765 13.1769 19.4354 10.9651 24.6589C10.824 25.0354 10.6828 25.3648 10.5416 25.7413C6.2122 21.6942 4.14162 17.6942 5.36515 14.8236ZM27.671 49.9295C22.7298 56.5177 17.5534 60.0001 13.9298 58.4942C9.78867 56.753 8.89456 48.8942 11.0593 38.9648C14.824 42.0236 19.3887 44.753 24.5651 46.9177C25.9769 47.4824 27.3416 48.0001 28.7063 48.4707C28.7534 48.4707 28.8004 48.5177 28.8946 48.5177C29.6004 48.753 30.3534 48.9883 31.0593 49.1766C31.2946 49.2236 31.4828 49.3177 31.7181 49.3648C32.3769 49.553 33.0828 49.7413 33.7416 49.8824C33.8357 49.9295 33.9769 49.9295 34.071 49.9766C33.6475 49.9295 31.0593 50.0707 27.671 49.9295ZM60.8945 38.0236C59.3416 41.6942 52.9887 42.7766 44.6122 41.506C44.0475 41.4119 43.4828 41.3177 42.9181 41.2236C42.6357 41.1766 42.3534 41.1295 42.024 41.0354C41.5063 40.9413 40.9416 40.8001 40.424 40.6589C40.2357 40.6118 40.0475 40.5648 39.8122 40.5177C40.6593 40.5177 42.9651 40.4707 45.6945 40.0471C45.7887 39.8118 45.9298 39.5766 46.024 39.2942C48.3769 33.6001 49.7416 27.953 50.1651 22.7295C58.1181 28.1412 62.5416 34.0236 60.8945 38.0236Z" fill="#A6ABC9"/>
<path d="M99.483 27.2473C99.483 24.3767 98.7301 22.3531 97.2242 21.2237C95.7654 20.1414 93.7418 19.5767 91.2007 19.5767C90.3065 19.5767 89.4595 19.6237 88.7536 19.7649C88.0477 19.859 87.436 20.0473 86.9183 20.2355L86.9654 20.1884C86.4477 20.4237 85.9771 20.659 85.6477 20.9414C85.2713 21.2237 84.9889 21.5531 84.7065 21.8355C84.236 22.4472 83.9536 23.059 83.8124 23.5767C83.6713 24.1884 83.5771 24.5649 83.5771 24.8002C83.5771 25.412 83.6242 25.9767 83.7654 26.4002C83.8595 26.8708 84.0477 27.2473 84.3301 27.6237C84.8477 28.3296 85.5065 28.8002 86.3065 29.0825C87.2477 29.412 88.3301 29.7884 89.5065 30.1178C90.683 30.4473 91.9536 30.8237 93.2242 31.1061L93.1771 31.059C93.6948 31.1531 94.2595 31.2943 94.7771 31.4355C95.2948 31.5767 95.8595 31.7178 96.3771 31.9061H96.3301C96.8948 32.0472 97.4124 32.2355 97.9301 32.4237C98.4007 32.612 98.8713 32.8943 99.3418 33.1767H99.2948C100.283 33.7414 100.989 34.4473 101.507 35.3414C102.024 36.2826 102.307 37.459 102.307 38.8708C102.212 41.6943 101.083 43.7649 98.9183 45.1296C96.8477 46.3531 94.4948 46.9649 91.9065 46.9649C84.1889 47.012 80.3771 43.3414 80.3301 35.9531H82.4477C82.5418 41.9296 85.6948 44.8943 91.9065 44.8473C92.8948 44.8473 93.883 44.7531 94.8242 44.5178C95.7654 44.2826 96.6595 43.9061 97.5536 43.4355C99.2477 42.5414 100.095 41.0355 100.189 38.9649V39.012C100.189 37.8825 99.9536 36.9884 99.5301 36.3296L99.5771 36.3767C99.3418 36.0472 99.0124 35.7178 98.683 35.4825C98.3536 35.2002 97.9771 34.9649 97.5536 34.7767C97.1301 34.5414 96.7065 34.3531 96.236 34.1649C95.7654 33.9767 95.2477 33.7884 94.683 33.6473C94.2124 33.5061 93.6948 33.3649 93.036 33.2237H93.083C92.8007 33.1767 92.4713 33.1296 92.1889 33.0825C91.9065 33.0355 91.5771 32.9884 91.2948 32.9414C90.0242 32.659 88.8948 32.3767 87.8595 32.0473C86.8242 31.7178 85.883 31.3884 85.036 31.059L85.083 31.1061C82.683 30.1178 81.4595 28.0943 81.4595 24.9884C81.4595 23.2473 82.2124 21.6002 83.7654 20.0473C84.6124 19.2943 85.6007 18.6826 86.8242 18.212C87.3889 18.0237 88.0477 17.8825 88.8007 17.7884C89.5536 17.6943 90.3536 17.6473 91.2477 17.6473C98.0242 17.5531 101.459 20.8002 101.648 27.3884H99.483V27.2473Z" fill="#A6ABC9"/>
<path d="M123.719 46.6824C123.719 46.4471 123.719 43.3883 123.719 43.153C123.719 42.9177 123.719 42.6353 123.766 42.353V41.8824C123.201 43.0118 122.401 44 121.366 44.8471V44.8C119.578 46.3059 117.272 47.0589 114.448 47.0589C111.53 47.0589 109.083 46.1177 107.154 44.3294C105.225 42.5883 104.236 40.0471 104.236 36.753V18.1177H106.354V36.6118C106.354 38.0706 106.589 39.3412 106.966 40.4236C107.342 41.5059 107.954 42.353 108.754 43.0118C110.26 44.3294 112.142 44.9883 114.448 44.9883C117.554 44.9883 119.907 43.8589 121.46 41.6941C123.06 39.6236 123.86 37.0824 123.86 34.0706V18.1177H125.978V36.9883C125.978 37.6941 125.978 38.3059 125.978 38.8706C125.978 39.4353 125.978 39.953 125.978 40.4236C125.978 40.753 125.978 41.0353 125.978 41.3177C125.978 41.6 125.978 41.8353 125.978 42.0706C125.978 42.5883 125.978 46.4 126.025 46.6824H123.719Z" fill="#A6ABC9"/>
<path d="M140.801 47.0119C135.625 46.9177 132.096 44.8472 130.26 40.8942V56.9883H128.143V42.8707C128.143 42.6825 128.143 42.4472 128.143 42.1648C128.143 41.8825 128.143 41.553 128.143 41.2236C128.143 40.753 128.143 40.2354 128.143 39.7177C128.143 39.153 128.143 38.5883 128.143 37.9766C128.143 36.9413 128.143 35.8589 128.19 34.7295C128.237 33.6001 128.284 32.5177 128.331 31.4354C128.425 30.353 128.519 29.3648 128.66 28.4236C128.801 27.4825 128.99 26.6824 129.272 26.0236V26.0707C130.119 23.5295 131.531 21.4589 133.46 19.906V19.953C135.484 18.306 137.931 17.4589 140.801 17.4119C144.613 17.506 147.578 18.9178 149.743 21.6942C151.86 24.3766 152.895 27.8589 152.895 32.1413C152.895 36.2824 151.86 39.7648 149.79 42.5413C147.813 45.4119 144.801 46.9177 140.801 47.0119ZM130.26 32.1413C130.354 36.2824 131.296 39.4354 133.084 41.553C134.872 43.6707 137.46 44.8001 140.801 44.8942C142.543 44.8472 144.095 44.4707 145.366 43.8119C146.637 43.153 147.672 42.2119 148.472 40.9413C150.072 38.353 150.825 35.3883 150.825 32.0942C150.825 28.6119 149.978 25.6472 148.331 23.2001C146.684 20.706 144.19 19.4824 140.801 19.4354C137.413 19.4824 134.872 20.753 133.084 23.2472C131.201 25.7413 130.26 28.706 130.26 32.1413Z" fill="#A6ABC9"/>
<path d="M156.659 33.0353C156.706 34.8236 156.894 36.3765 157.317 37.7412C157.694 39.1059 158.306 40.3295 159.106 41.4589C160.659 43.8118 163.294 44.9883 166.917 45.0353C172.517 45.0353 175.953 42.0236 177.129 36H179.247C178.776 39.6706 177.459 42.4471 175.294 44.2824C173.082 46.1648 170.306 47.1059 167.059 47.153C162.729 47.1059 159.529 45.6942 157.553 42.8236V42.8706C155.529 40.0942 154.541 36.6118 154.541 32.3765C154.635 27.6706 155.906 24 158.447 21.4118H158.4C160.8 18.8236 163.67 17.553 167.012 17.553C169.223 17.6 171.106 18.0236 172.753 18.8236C174.4 19.6236 175.717 20.753 176.753 22.2118C177.129 22.8706 177.506 23.5765 177.835 24.3295C178.165 25.0824 178.447 25.8824 178.729 26.6824C178.965 27.4824 179.153 28.3295 179.294 29.1765C179.435 30.0236 179.529 30.8706 179.529 31.6706C179.529 31.8118 179.529 32 179.529 32.1883C179.529 32.3765 179.482 32.7059 179.482 33.1765H156.659V33.0353ZM177.412 30.9177C177.365 29.3177 177.129 27.8589 176.706 26.5883C176.282 25.2706 175.67 24.0942 174.823 23.0118C173.082 20.8 170.541 19.6706 167.106 19.6236C164.282 19.6706 161.882 20.7059 159.953 22.7294C159.012 23.7647 158.259 24.9412 157.741 26.2589C157.223 27.6236 156.847 29.1765 156.659 30.9177H177.412Z" fill="#A6ABC9"/>
<path d="M183.624 46.4471H181.506V18.1176H183.624V22.8706C184.235 21.6471 185.129 20.6118 186.212 19.7176C187.106 18.9647 188.282 18.4 189.647 18.0235C191.059 17.6471 192.612 17.4588 194.447 17.5059V19.6235C190.588 19.5294 187.812 20.5647 186.165 22.7294C184.471 24.9412 183.624 27.5294 183.624 30.5412V46.4471Z" fill="#A6ABC9"/>
<path d="M200.705 8.28247H196.705V46.4472H200.705V8.28247Z" fill="#A6ABC9"/>
<path d="M202.307 32.2823C202.307 30.3059 202.589 28.4706 203.201 26.7764C203.813 25.0353 204.613 23.4823 205.601 22.1176C206.73 20.7059 208.095 19.5764 209.742 18.7764C211.342 17.9764 213.177 17.5529 215.248 17.5059C217.318 17.5529 219.154 17.9764 220.801 18.7764C222.448 19.5764 223.813 20.7059 224.942 22.1176C225.977 23.4823 226.777 25.0353 227.295 26.7764C227.813 28.5176 228.095 30.3529 228.095 32.2823C228.095 34.2588 227.86 36.047 227.295 37.7412C226.777 39.4353 225.977 40.9882 224.895 42.4C222.636 45.3647 219.389 46.9176 215.107 47.0117C213.083 46.9647 211.248 46.5411 209.648 45.7412C208.048 44.9412 206.683 43.8117 205.554 42.4C204.471 40.9882 203.671 39.4353 203.107 37.7412C202.589 36.047 202.307 34.2117 202.307 32.2823ZM206.354 32.2823C206.354 33.7882 206.542 35.1529 206.965 36.3764C207.389 37.647 207.954 38.7764 208.754 39.8588C210.26 41.9294 212.424 42.9647 215.295 43.0588C218.213 43.0117 220.424 41.9294 221.93 39.8588C223.483 37.7882 224.236 35.247 224.236 32.2823C224.236 29.3176 223.483 26.7764 221.93 24.6588C220.471 22.6353 218.26 21.5529 215.295 21.5059C212.377 21.5529 210.213 22.5882 208.754 24.6588C208.001 25.7411 207.389 26.9176 206.965 28.1882C206.542 29.4588 206.354 30.8235 206.354 32.2823Z" fill="#A6ABC9"/>
<path d="M229.602 32.2823C229.602 30.3059 229.884 28.4706 230.496 26.7764C231.107 25.0353 231.907 23.4823 232.896 22.1176C234.025 20.7059 235.39 19.5764 236.99 18.7764C238.59 17.9764 240.425 17.5529 242.496 17.5059C244.566 17.5529 246.402 17.9764 248.049 18.7764C249.696 19.5764 251.06 20.7059 252.19 22.1176C253.225 23.4823 254.025 25.0353 254.543 26.7764C255.061 28.5176 255.343 30.3529 255.343 32.2823C255.343 34.2588 255.061 36.047 254.543 37.7412C254.025 39.4353 253.225 40.9882 252.143 42.4C249.884 45.3647 246.637 46.9176 242.355 47.0117C240.331 46.9647 238.496 46.5411 236.896 45.7412C235.296 44.9412 233.931 43.8117 232.802 42.4C231.719 40.9882 230.919 39.4353 230.355 37.7412C229.884 36.047 229.602 34.2117 229.602 32.2823ZM233.602 32.2823C233.602 33.7882 233.79 35.1529 234.213 36.3764C234.637 37.647 235.202 38.7764 236.002 39.8588C237.507 41.9294 239.672 42.9647 242.543 43.0588C245.46 43.0117 247.672 41.9294 249.178 39.8588C250.731 37.7882 251.484 35.247 251.484 32.2823C251.484 29.3176 250.731 26.7764 249.178 24.6588C247.719 22.6353 245.508 21.5529 242.543 21.5059C239.625 21.5529 237.46 22.5882 236.002 24.6588C235.249 25.7411 234.637 26.9176 234.213 28.1882C233.837 29.4588 233.602 30.8235 233.602 32.2823Z" fill="#A6ABC9"/>
<path d="M270.071 46.9648C268.236 46.9177 266.542 46.6354 265.083 46.0236C263.624 45.4119 262.353 44.6119 261.318 43.5295V56.2354H257.365V41.1295C257.365 41.0354 257.365 40.9413 257.365 40.8472C257.365 40.753 257.365 40.6589 257.365 40.5648V38.4472C257.365 38.306 257.365 38.1648 257.365 37.9766C257.365 37.8354 257.365 37.6472 257.365 37.506C257.365 36.5178 257.365 35.4825 257.412 34.4472C257.459 33.3648 257.506 32.3295 257.553 31.2942C257.648 30.2589 257.742 29.3177 257.883 28.4236C258.024 27.5295 258.212 26.7766 258.448 26.1648V26.2119C258.871 24.8942 259.436 23.7178 260.142 22.6825C260.848 21.6472 261.695 20.753 262.636 20.0001H262.589C263.624 19.2001 264.753 18.5883 265.977 18.1177C267.248 17.6942 268.612 17.4589 270.071 17.4119C272.001 17.4589 273.695 17.8354 275.248 18.5883C276.753 19.3413 278.071 20.4236 279.2 21.7883C280.189 23.0589 280.942 24.6119 281.506 26.353C282.071 28.0942 282.353 30.0236 282.353 32.0472C282.353 34.0707 282.118 35.953 281.6 37.6472C281.083 39.3413 280.33 40.8942 279.295 42.306V42.2589C277.177 45.3648 274.118 46.8707 270.071 46.9648ZM263.718 24.5648C262.118 26.6825 261.318 29.1766 261.318 32.1413C261.365 33.8354 261.601 35.3413 262.024 36.6589C262.448 37.9766 263.059 39.0589 263.812 39.953C264.565 40.8472 265.506 41.553 266.542 42.0707C267.577 42.5883 268.801 42.8707 270.118 43.0119C271.53 42.9648 272.753 42.6354 273.789 42.1177C274.824 41.553 275.671 40.8001 276.283 39.8589V39.906C276.895 38.7766 277.412 37.6001 277.789 36.2825C278.165 34.9648 278.353 33.6472 278.353 32.1883C278.353 29.1766 277.648 26.6354 276.189 24.5178C274.871 22.4942 272.848 21.506 270.071 21.4589C268.706 21.4589 267.483 21.7413 266.448 22.2589C265.365 22.7295 264.471 23.5295 263.718 24.5648Z" fill="#A6ABC9"/>
</g>
<defs>
<clipPath id="clip0">
<rect width="282.353" height="64" fill="white"/>
</clipPath>
</defs>
</svg>
