<svg width="24" height="24" viewBox="0 0 24 24" fill="none" xmlns="http://www.w3.org/2000/svg">
<g clip-path="url(#clip0)">
<path d="M24 12C24 18.6274 18.6274 24 12 24C5.37262 24 0 18.6274 0 12C0 12.0028 12 0.00135937 12 0C18.6274 0 24 5.37262 24 12Z" fill="#0052B4"/>
<path d="M11.9678 12.0004H11.9999C11.9999 11.9895 11.9999 11.9791 11.9999 11.9683C11.9892 11.979 11.9785 11.9897 11.9678 12.0004Z" fill="#F0F0F0"/>
<path d="M11.9998 6.26183C11.9998 4.15035 11.9998 2.76674 11.9998 0.000976562H11.9977C5.37126 0.00205469 -0.000241127 5.37416 -0.000241127 12.0009H6.26061V8.47537L9.78617 12.0009H11.9677C11.9784 11.9902 11.9891 11.9796 11.9998 11.9688C11.9998 11.1604 11.9998 10.439 11.9998 9.78744L8.47419 6.26183H11.9998Z" fill="#F0F0F0"/>
<path d="M6.07113 1.56592C4.1943 2.63462 2.63402 4.1949 1.56532 6.07173V12.0007H4.69577V4.69642V4.69637H12.0001C12.0001 3.70904 12.0001 2.76845 12.0001 1.56592H6.07113V1.56592Z" fill="#D80027"/>
<path d="M12.0004 10.5251L7.73697 6.26174H6.2613C6.2613 6.26169 6.2613 6.26174 6.2613 6.26174L12.0003 12.0008H12.0004C12.0004 12.0008 12.0004 10.9834 12.0004 10.5251Z" fill="#D80027"/>
<path d="M7.23755 14.0864L7.89615 15.4635L9.38335 15.1198L8.71735 16.4933L9.91332 17.4417L8.42424 17.7774L8.42841 19.3038L7.23755 18.3488L6.04674 19.3038L6.05091 17.7774L4.56179 17.4417L5.7578 16.4933L5.09171 15.1198L6.579 15.4635L7.23755 14.0864Z" fill="#F0F0F0"/>
<path d="M17.9671 16.6953L18.2964 17.3839L19.04 17.212L18.707 17.8987L19.305 18.373L18.5604 18.5408L18.5625 19.304L17.9671 18.8265L17.3717 19.304L17.3738 18.5408L16.6292 18.373L17.2272 17.8987L16.8942 17.212L17.6378 17.3839L17.9671 16.6953Z" fill="#F0F0F0"/>
<path d="M14.9034 9.3916L15.2327 10.0802L15.9763 9.90826L15.6433 10.595L16.2413 11.0693L15.4968 11.2371L15.4988 12.0003L14.9034 11.5228L14.308 12.0003L14.31 11.2371L13.5655 11.0693L14.1635 10.595L13.8305 9.90826L14.5741 10.0802L14.9034 9.3916Z" fill="#F0F0F0"/>
<path d="M17.9671 5.21777L18.2964 5.90637L19.04 5.73448L18.707 6.42124L19.305 6.89543L18.5604 7.06329L18.5625 7.82651L17.9671 7.34899L17.3717 7.82651L17.3738 7.06329L16.6292 6.89543L17.2272 6.42124L16.8942 5.73448L17.6378 5.90637L17.9671 5.21777Z" fill="#F0F0F0"/>
<path d="M20.6422 8.34814L20.9714 9.03674L21.7151 8.8648L21.3821 9.55157L21.9801 10.0258L21.2355 10.1937L21.2376 10.9568L20.6422 10.4794L20.0468 10.9568L20.0488 10.1937L19.3043 10.0258L19.9023 9.55157L19.5693 8.8648L20.3129 9.03674L20.6422 8.34814Z" fill="#F0F0F0"/>
<path d="M18.7292 12.0005L18.9882 12.7976H19.8264L19.1483 13.2903L19.4074 14.0875L18.7292 13.5948L18.0511 14.0875L18.3101 13.2903L17.632 12.7976H18.4702L18.7292 12.0005Z" fill="#F0F0F0"/>
</g>
<defs>
<clipPath id="clip0">
<rect width="24" height="24" fill="white"/>
</clipPath>
</defs>
</svg>
