<svg width="462" height="174" viewBox="0 0 462 174" fill="none" xmlns="http://www.w3.org/2000/svg">
<path fill-rule="evenodd" clip-rule="evenodd" d="M16.4075 14.6495C19.0865 13.2176 22.4189 14.2286 23.8507 16.9075L66.9202 97.4891L146.182 21.0414C148.368 18.9327 151.85 18.9956 153.959 21.1819C156.068 23.3683 156.005 26.8501 153.818 28.9588L74.5407 105.422L152.78 151.254C155.401 152.79 156.281 156.159 154.746 158.78C153.21 161.401 149.841 162.281 147.22 160.746L66.2396 113.307L22.7343 153.538C20.5041 155.601 17.0243 155.464 14.962 153.234C12.8997 151.004 13.0358 147.524 15.266 145.462L58.647 105.346L14.1495 22.0927C12.7176 19.4138 13.7286 16.0813 16.4075 14.6495Z" fill="#1A6838"/>
<path d="M38 19C38 29.4934 29.4934 38 19 38C8.50659 38 0 29.4934 0 19C0 8.50659 8.50659 0 19 0C29.4934 0 38 8.50659 38 19Z" fill="#E21F27"/>
<path d="M38 149C38 159.493 29.4934 168 19 168C8.50659 168 0 159.493 0 149C0 138.507 8.50659 130 19 130C29.4934 130 38 138.507 38 149Z" fill="#E21F27"/>
<path d="M85 105C85 115.493 76.4934 124 66 124C55.5066 124 47 115.493 47 105C47 94.5066 55.5066 86 66 86C76.4934 86 85 94.5066 85 105Z" fill="#E21F27"/>
<path d="M168 25C168 35.4934 159.493 44 149 44C138.507 44 130 35.4934 130 25C130 14.5066 138.507 6 149 6C159.493 6 168 14.5066 168 25Z" fill="#E21F27"/>
<path d="M168 155C168 165.493 159.493 174 149 174C138.507 174 130 165.493 130 155C130 144.507 138.507 136 149 136C159.493 136 168 144.507 168 155Z" fill="#E21F27"/>
<path d="M231.032 105V70.888C230.928 64.44 229.68 59.864 227.392 56.12C223.232 49.672 215.952 45.824 207.008 45.824C204.72 45.824 195.984 45.824 190.16 53.52H189.952V47.384H179.864V105H190.68V73.592C190.68 62.048 196.816 55.704 205.864 55.704C220.216 55.704 220.216 69.224 220.216 73.696V105H231.032Z" fill="#1A6838"/>
<path d="M296.347 80.872C296.451 80.144 296.659 77.232 296.659 75.36C296.555 58.512 282.931 45.824 267.331 45.824C251.107 45.824 237.795 58.824 237.795 76.088C237.795 92.416 250.795 106.456 267.123 106.456C276.067 106.456 289.275 101.776 294.787 86.904H283.971C281.371 91.896 275.547 96.576 267.539 96.576C260.259 96.576 251.315 92 248.611 80.872H296.347ZM248.611 72.552C249.131 64.128 256.827 55.704 267.227 55.704C277.627 55.704 285.323 64.128 285.843 72.552H248.611Z" fill="#1A6838"/>
<path d="M335.617 47.384L323.033 66.312L310.345 47.384H297.241L316.481 75.464L296.513 105H309.097L323.033 84.512L337.281 105H349.969L329.897 75.464L348.721 47.384H335.617Z" fill="#1A6838"/>
<path d="M352.837 47.384V78.584C352.837 90.128 355.645 96.576 360.429 100.736C364.589 104.376 370.309 106.456 376.861 106.456C384.141 106.456 390.901 103.752 393.813 98.76H394.021V105H403.901V47.384H393.085V78.272C393.085 90.856 386.949 96.576 378.005 96.576C369.997 96.576 363.653 92.832 363.653 78.584V47.384H352.837Z" fill="#1A6838"/>
<path d="M447.168 62.672C446.856 49.88 436.04 45.824 429.488 45.824C418.568 45.824 411.392 53.936 411.392 62.464C411.392 74.736 421.376 77.544 427.616 79.832C433.232 81.808 437.704 83.576 437.704 88.672C437.704 93.56 434.272 96.576 429.384 96.576C423.352 96.576 420.024 92.52 419.608 86.072H408.792C408.792 101.88 421.896 106.456 429.176 106.456C441.448 106.456 448.52 98.24 448.52 88.048C448.52 74.32 435.624 70.68 431.152 69.328C426.368 67.872 422.208 66.624 422.208 61.84C422.208 58.2 425.016 55.704 428.968 55.704C432.92 55.704 435.728 57.992 436.352 62.672H447.168Z" fill="#1A6838"/>
<path d="M181.673 125.771H184.494V122.826H181.673V117.06H178.449V122.826H176.124V125.771H178.449V140H181.673V125.771Z" fill="#1A6838"/>
<path d="M205.74 132.808C205.771 132.591 205.833 131.723 205.833 131.165C205.802 126.143 201.741 122.361 197.091 122.361C192.255 122.361 188.287 126.236 188.287 131.382C188.287 136.249 192.162 140.434 197.029 140.434C199.695 140.434 203.632 139.039 205.275 134.606H202.051C201.276 136.094 199.54 137.489 197.153 137.489C194.983 137.489 192.317 136.125 191.511 132.808H205.74ZM191.511 130.328C191.666 127.817 193.96 125.306 197.06 125.306C200.16 125.306 202.454 127.817 202.609 130.328H191.511Z" fill="#1A6838"/>
<path d="M227.892 128.53C227.241 125.988 224.327 122.361 219.46 122.361C214.035 122.361 210.625 126.732 210.625 131.382C210.625 135.815 213.787 140.434 219.429 140.434C223.242 140.434 226.59 138.14 227.892 134.327H224.296C223.49 136.094 221.847 137.489 219.429 137.489C215.74 137.489 213.849 134.358 213.849 131.382C213.849 128.778 215.337 125.306 219.491 125.306C222.56 125.306 223.8 127.445 224.327 128.53H227.892Z" fill="#1A6838"/>
<path d="M248.661 140V129.832C248.63 127.91 248.258 126.546 247.576 125.43C246.336 123.508 244.166 122.361 241.5 122.361C240.818 122.361 238.245 122.361 236.695 124.655H236.633V117.06H233.409V140H236.633V130.638C236.633 127.197 238.462 125.306 241.159 125.306C245.437 125.306 245.437 129.336 245.437 130.669V140H248.661Z" fill="#1A6838"/>
<path d="M270.425 140V129.832C270.394 127.91 270.022 126.546 269.34 125.43C268.1 123.508 265.93 122.361 263.264 122.361C262.582 122.361 259.978 122.361 258.242 124.655H258.18V122.826H255.173V140H258.397V130.638C258.397 127.197 260.226 125.306 262.923 125.306C267.201 125.306 267.201 129.336 267.201 130.669V140H270.425Z" fill="#1A6838"/>
<path d="M280.253 117.06H277.029V140H280.253V117.06Z" fill="#1A6838"/>
<path d="M304.535 131.351C304.535 126.453 300.473 122.361 295.265 122.361C289.933 122.361 285.996 126.608 285.996 131.289C285.996 135.629 289.499 140.434 295.265 140.434C301.093 140.434 304.535 135.536 304.535 131.351ZM301.31 131.351C301.31 134.606 298.737 137.489 295.265 137.489C291.669 137.489 289.22 134.482 289.22 131.382C289.22 128.313 291.638 125.306 295.265 125.306C298.892 125.306 301.31 128.313 301.31 131.351Z" fill="#1A6838"/>
<path d="M327.778 122.826H324.554V124.81C323.407 123.508 321.175 122.361 318.633 122.361C312.402 122.361 309.395 127.538 309.395 131.351C309.395 135.536 312.898 140.434 318.571 140.434C322.198 140.434 323.903 138.543 324.492 137.737H324.554C324.554 142.201 321.919 143.782 318.509 143.813C315.44 143.813 314.107 142.015 313.611 141.333H310.015C311.441 144.588 314.479 146.758 318.478 146.758C324.337 146.758 327.778 143.317 327.778 137.675V122.826ZM324.554 131.444C324.554 133.645 322.756 137.489 318.54 137.489C315.099 137.489 312.619 134.513 312.619 131.413C312.619 128.158 315.161 125.306 318.571 125.306C320.555 125.306 324.554 126.608 324.554 131.444Z" fill="#1A6838"/>
<path d="M337.614 122.826H334.39V140H337.614V122.826ZM337.614 117.06H334.39V120.842H337.614V117.06Z" fill="#1A6838"/>
<path d="M360.841 132.808C360.872 132.591 360.934 131.723 360.934 131.165C360.903 126.143 356.842 122.361 352.192 122.361C347.356 122.361 343.388 126.236 343.388 131.382C343.388 136.249 347.263 140.434 352.13 140.434C354.796 140.434 358.733 139.039 360.376 134.606H357.152C356.377 136.094 354.641 137.489 352.254 137.489C350.084 137.489 347.418 136.125 346.612 132.808H360.841ZM346.612 130.328C346.767 127.817 349.061 125.306 352.161 125.306C355.261 125.306 357.555 127.817 357.71 130.328H346.612Z" fill="#1A6838"/>
<path d="M376.608 127.383C376.515 123.57 373.291 122.361 371.338 122.361C368.083 122.361 365.944 124.779 365.944 127.321C365.944 130.979 368.92 131.816 370.78 132.498C372.454 133.087 373.787 133.614 373.787 135.133C373.787 136.59 372.764 137.489 371.307 137.489C369.509 137.489 368.517 136.28 368.393 134.358H365.169C365.169 139.07 369.075 140.434 371.245 140.434C374.903 140.434 377.011 137.985 377.011 134.947C377.011 130.855 373.167 129.77 371.834 129.367C370.408 128.933 369.168 128.561 369.168 127.135C369.168 126.05 370.005 125.306 371.183 125.306C372.361 125.306 373.198 125.988 373.384 127.383H376.608Z" fill="#1A6838"/>
<path d="M406.05 122.826H402.826V140H406.05V122.826ZM406.05 117.06H402.826V120.842H406.05V117.06Z" fill="#1A6838"/>
<path d="M427.914 140V129.832C427.883 127.91 427.511 126.546 426.829 125.43C425.589 123.508 423.419 122.361 420.753 122.361C420.071 122.361 417.467 122.361 415.731 124.655H415.669V122.826H412.662V140H415.886V130.638C415.886 127.197 417.715 125.306 420.412 125.306C424.69 125.306 424.69 129.336 424.69 130.669V140H427.914Z" fill="#1A6838"/>
<path d="M450.885 128.53C450.234 125.988 447.32 122.361 442.453 122.361C437.028 122.361 433.618 126.732 433.618 131.382C433.618 135.815 436.78 140.434 442.422 140.434C446.235 140.434 449.583 138.14 450.885 134.327H447.289C446.483 136.094 444.84 137.489 442.422 137.489C438.733 137.489 436.842 134.358 436.842 131.382C436.842 128.778 438.33 125.306 442.484 125.306C445.553 125.306 446.793 127.445 447.32 128.53H450.885Z" fill="#1A6838"/>
<path d="M460.277 140V136.218H457.053V140H460.277Z" fill="#1A6838"/>
<path d="M386.191 136H384.309C384.12 136 383.946 136.107 383.862 136.276L381.362 141.276C381.196 141.609 381.437 142 381.809 142H383.691C383.88 142 384.054 141.893 384.138 141.724L386.638 136.724C386.804 136.391 386.563 136 386.191 136Z" fill="#1A6838"/>
</svg>
