<svg fill="none" height="190" viewBox="0 0 199 190" width="199" xmlns="http://www.w3.org/2000/svg" xmlns:xlink="http://www.w3.org/1999/xlink"><radialGradient id="a" cx="0" cy="0" gradientTransform="matrix(0 78 -58 0 99 78)" gradientUnits="userSpaceOnUse" r="1"><stop offset=".178352" stop-color="#2cbde9"/><stop offset="1" stop-color="#0f4e77"/></radialGradient><path clip-rule="evenodd" d="m99 64c-9.6675 0-21.5286 1.4302-32 3.0811v-19.0811c0-17.6731 14.3269-32 32-32 17.673 0 32 14.3269 32 32v19.0811c-10.471-1.651-22.332-3.0811-32-3.0811zm-53.3265 6.9928c1.4879-.31 3.2857-.6761 5.3265-1.0755v-21.9173c0-26.5097 21.4903-48 48-48 26.51 0 48 21.4903 48 48v21.9173c2.041.3994 3.839.7655 5.327 1.0755 2.741.5712 4.673 2.9941 4.673 5.7946v66.4256c0 2.8-1.932 5.223-4.673 5.794-10.318 2.15-35.537 6.993-53.327 6.993-17.7904 0-43.0091-4.843-53.3265-6.993-2.7416-.571-4.6735-2.994-4.6735-5.794v-66.4256c0-2.8005 1.9319-5.2234 4.6735-5.7946zm32.7134-30.9588c4.7616-6.1114 12.1844-10.034 20.5222-10.034 8.3379 0 15.7609 3.9226 20.5219 10.034.679.8713 1.914 1.1286 2.835.5184l1.667-1.1048c.921-.6102 1.178-1.8557.511-2.7365-5.838-7.7167-15.103-12.7111-25.5349-12.7111-10.4324 0-19.697 4.9944-25.535 12.7111-.6664.8808-.4098 2.1263.5109 2.7365l1.6671 1.1048c.9207.6102 2.1559.3529 2.8348-.5184zm20.9398 1.966c-6.0066 0-11.374 2.7408-14.9186 7.05-.7017.853-1.9353 1.1126-2.856.5024l-1.6671-1.1048c-.9207-.6102-1.1784-1.857-.4976-2.7268 4.6285-5.9128 11.8386-9.7208 19.9393-9.7208 8.1003 0 15.3103 3.808 19.9393 9.7208.681.8698.423 2.1166-.498 2.7268l-1.667 1.1048c-.92.6102-2.154.3506-2.856-.5024-3.544-4.3092-8.912-7.05-14.9183-7.05zm-7.8503 16.1057c1.8866-1.92 4.5088-3.1057 7.407-3.1057 2.8986 0 5.5206 1.1857 7.4066 3.1057.775.7879 2.004 1.0569 2.925.4467l1.667-1.1048c.921-.6102 1.181-1.8609.463-2.7007-3.002-3.5131-7.47-5.7469-12.4616-5.7469-4.9914 0-9.46 2.2338-12.4619 5.7469-.7175.8398-.4572 2.0905.4635 2.7007l1.6671 1.1048c.9207.6102 2.1502.3412 2.9243-.4467zm7.9123 39.8943c4.9703 0 9.0003-4.0294 9.0003-9s-4.03-9-9.0003-9c-4.9705 0-9 4.0294-9 9s4.0295 9 9 9zm0 0h9.3883c2.434 0 4.304 2.156 3.959 4.566l-4.857 34c-.281 1.97-1.969 3.434-3.959 3.434h-9.0621c-1.9906 0-3.6783-1.464-3.9598-3.434l-4.8571-34c-.3443-2.41 1.5256-4.566 3.9598-4.566z" fill="url(#a)" fill-rule="evenodd"/><g fill="#000"><path d="m28.1666 171.389c0-.388-.1367-.684-.4102-.889-.2734-.21-.7656-.428-1.4765-.656-.711-.233-1.2738-.461-1.6885-.684-1.1302-.611-1.6953-1.433-1.6953-2.468 0-.537.1504-1.016.4512-1.435.3053-.424.7405-.754 1.3056-.991.5697-.237 1.2077-.356 1.9141-.356.7109 0 1.3444.13 1.9004.39.556.255.9866.617 1.292 1.087.3099.469.4648 1.002.4648 1.599h-2.0508c0-.455-.1435-.809-.4306-1.059-.2871-.255-.6905-.383-1.21-.383-.5013 0-.8909.107-1.1689.321-.278.21-.417.488-.417.834 0 .324.1618.595.4853.814.3281.218.8089.424 1.4424.615 1.1667.351 2.0166.786 2.5498 1.306.5332.519.7998 1.166.7998 1.941 0 .861-.3258 1.538-.9775 2.03-.6517.488-1.529.732-2.6319.732-.7656 0-1.4629-.139-2.0918-.417-.6289-.283-1.1097-.668-1.4423-1.156-.3282-.487-.4922-1.052-.4922-1.695h2.0576c0 1.098.6562 1.648 1.9687 1.648.4877 0 .8682-.098 1.1416-.294.2735-.201.4102-.479.4102-.834z"/><path d="m37.7979 171.949h-3.5957l-.6836 2.051h-2.1807l3.7051-9.953h1.9004l3.7256 9.953h-2.1807zm-3.042-1.661h2.4883l-1.251-3.726z"/><path d="m44.8384 164.047 2.5566 7.219 2.543-7.219h2.6933v9.953h-2.0576v-2.721l.2051-4.696-2.6865 7.417h-1.4082l-2.6797-7.41.205 4.689v2.721h-2.0507v-9.953z"/><path d="m63.1581 169.249c0 .98-.1732 1.839-.5195 2.577-.3464.738-.8431 1.308-1.4902 1.709-.6426.401-1.3809.602-2.2149.602-.8249 0-1.5609-.199-2.208-.595s-1.1484-.962-1.5039-1.695c-.3555-.739-.5355-1.586-.54-2.543v-.492c0-.98.1754-1.842.5263-2.584.3555-.748.8545-1.32 1.4971-1.716.6471-.401 1.3854-.602 2.2148-.602.8295 0 1.5655.201 2.208.602.6472.396 1.1462.968 1.4971 1.716.3555.742.5332 1.601.5332 2.577zm-2.0781-.451c0-1.044-.1869-1.837-.5606-2.379s-.9069-.814-1.5996-.814c-.6881 0-1.219.269-1.5927.807-.3737.533-.5629 1.317-.5674 2.352v.485c0 1.016.1868 1.805.5605 2.365.3737.561.9115.841 1.6133.841.6882 0 1.2168-.269 1.5859-.807.3692-.542.556-1.33.5606-2.365z"/><path d="m70.6771 171.949h-3.5957l-.6836 2.051h-2.1807l3.7051-9.953h1.9004l3.7256 9.953h-2.1807zm-3.042-1.661h2.4883l-1.251-3.726z"/><path d="m81.2649 174h-2.0508v-9.953h2.0508z"/><path d="m91.8259 174h-2.0508l-3.9922-6.549v6.549h-2.0508v-9.953h2.0508l3.999 6.562v-6.562h2.044z"/><path d="m100.165 169.933h-3.9373v4.067h-2.0508v-9.953h6.4801v1.661h-4.4293v2.57h3.9373z"/><path d="m110.583 169.249c0 .98-.174 1.839-.52 2.577s-.843 1.308-1.49 1.709c-.643.401-1.381.602-2.215.602-.825 0-1.561-.199-2.208-.595s-1.148-.962-1.504-1.695c-.355-.739-.535-1.586-.54-2.543v-.492c0-.98.175-1.842.526-2.584.356-.748.855-1.32 1.497-1.716.648-.401 1.386-.602 2.215-.602.83 0 1.566.201 2.208.602.647.396 1.146.968 1.497 1.716.356.742.534 1.601.534 2.577zm-2.079-.451c0-1.044-.186-1.837-.56-2.379s-.907-.814-1.6-.814c-.688 0-1.219.269-1.592.807-.374.533-.563 1.317-.568 2.352v.485c0 1.016.187 1.805.561 2.365.373.561.911.841 1.613.841.688 0 1.217-.269 1.586-.807.369-.542.556-1.33.56-2.365z"/><path d="m116.317 170.356h-1.633v3.644h-2.051v-9.953h3.698c1.176 0 2.083.262 2.721.786s.957 1.265.957 2.222c0 .679-.148 1.246-.445 1.702-.291.451-.736.811-1.333 1.08l2.154 4.067v.096h-2.201zm-1.633-1.661h1.654c.515 0 .914-.13 1.196-.389.283-.265.424-.627.424-1.087 0-.47-.134-.839-.403-1.108-.265-.269-.673-.403-1.224-.403h-1.647z"/><path d="m124.814 164.047 2.557 7.219 2.543-7.219h2.693v9.953h-2.058v-2.721l.205-4.696-2.686 7.417h-1.408l-2.68-7.41.205 4.689v2.721h-2.051v-9.953z"/><path d="m140.7 171.949h-3.596l-.683 2.051h-2.181l3.705-9.953h1.901l3.725 9.953h-2.18zm-3.042-1.661h2.488l-1.251-3.726z"/><path d="m151.733 165.708h-3.049v8.292h-2.051v-8.292h-3.008v-1.661h8.108z"/><path d="m155.649 174h-2.051v-9.953h2.051z"/><path d="m166.292 169.249c0 .98-.173 1.839-.519 2.577-.347.738-.843 1.308-1.491 1.709-.642.401-1.38.602-2.214.602-.825 0-1.561-.199-2.208-.595-.648-.396-1.149-.962-1.504-1.695-.356-.739-.536-1.586-.54-2.543v-.492c0-.98.175-1.842.526-2.584.355-.748.854-1.32 1.497-1.716.647-.401 1.385-.602 2.215-.602.829 0 1.565.201 2.208.602.647.396 1.146.968 1.497 1.716.355.742.533 1.601.533 2.577zm-2.078-.451c0-1.044-.187-1.837-.56-2.379-.374-.542-.907-.814-1.6-.814-.688 0-1.219.269-1.593.807-.374.533-.563 1.317-.567 2.352v.485c0 1.016.187 1.805.56 2.365.374.561.912.841 1.614.841.688 0 1.216-.269 1.586-.807.369-.542.555-1.33.56-2.365z"/><path d="m176.436 174h-2.051l-3.992-6.549v6.549h-2.051v-9.953h2.051l3.999 6.562v-6.562h2.044z"/><path d="m10.1074 179.708h-3.04881v8.292h-2.05078v-8.292h-3.00781v-1.661h8.1074z"/><path d="m17.8315 183.687h-3.9375v2.666h4.6211v1.647h-6.6719v-9.953h6.6582v1.661h-4.6074v2.372h3.9375z"/><path d="m28.0917 184.685c-.0775 1.071-.474 1.914-1.1895 2.529-.7109.615-1.6497.923-2.8164.923-1.276 0-2.2809-.429-3.0146-1.285-.7292-.862-1.0938-2.042-1.0938-3.541v-.609c0-.957.1686-1.8.5059-2.529.3372-.729.818-1.288 1.4424-1.675.6289-.392 1.358-.588 2.1875-.588 1.1484 0 2.0735.308 2.7754.923.7018.615 1.1074 1.479 1.2168 2.591h-2.0508c-.0502-.643-.2302-1.108-.5401-1.395-.3053-.291-.7724-.437-1.4013-.437-.6836 0-1.1963.246-1.5381.738-.3373.488-.5104 1.246-.5196 2.276v.752c0 1.076.1618 1.862.4854 2.359.3281.497.8431.745 1.5449.745.6335 0 1.1052-.144 1.4151-.431.3144-.291.4944-.74.54-1.346z"/><path d="m38.0989 188h-2.0507v-4.266h-3.9991v4.266h-2.0507v-9.953h2.0507v4.033h3.9991v-4.033h2.0507z"/><path d="m48.5505 188h-2.0507l-3.9922-6.549v6.549h-2.0508v-9.953h2.0508l3.999 6.562v-6.562h2.0439z"/><path d="m59.0773 183.249c0 .98-.1731 1.839-.5195 2.577-.3463.738-.8431 1.308-1.4902 1.709-.6426.401-1.3809.602-2.2149.602-.8248 0-1.5608-.199-2.208-.595-.6471-.396-1.1484-.962-1.5039-1.695-.3554-.739-.5355-1.586-.54-2.543v-.492c0-.98.1754-1.842.5263-2.584.3555-.748.8545-1.32 1.4971-1.716.6472-.401 1.3854-.602 2.2149-.602.8294 0 1.5654.201 2.208.602.6471.396 1.1461.968 1.497 1.716.3555.742.5332 1.601.5332 2.577zm-2.0781-.451c0-1.044-.1868-1.837-.5605-2.379s-.9069-.814-1.5996-.814c-.6882 0-1.2191.269-1.5928.807-.3737.533-.5628 1.317-.5674 2.352v.485c0 1.016.1869 1.805.5606 2.365.3737.561.9114.841 1.6132.841.6882 0 1.2168-.269 1.586-.807.3691-.542.556-1.33.5605-2.365z"/><path d="m63.1784 186.353h4.3545v1.647h-6.4053v-9.953h2.0508z"/><path d="m77.0137 183.249c0 .98-.1731 1.839-.5195 2.577-.3463.738-.8431 1.308-1.4902 1.709-.6426.401-1.3809.602-2.2149.602-.8248 0-1.5608-.199-2.208-.595-.6471-.396-1.1484-.962-1.5039-1.695-.3554-.739-.5355-1.586-.54-2.543v-.492c0-.98.1754-1.842.5264-2.584.3554-.748.8544-1.32 1.497-1.716.6472-.401 1.3854-.602 2.2149-.602.8294 0 1.5654.201 2.208.602.6471.396 1.1461.968 1.497 1.716.3555.742.5332 1.601.5332 2.577zm-2.0781-.451c0-1.044-.1868-1.837-.5605-2.379s-.9069-.814-1.5996-.814c-.6882 0-1.2191.269-1.5928.807-.3737.533-.5628 1.317-.5674 2.352v.485c0 1.016.1869 1.805.5606 2.365.3737.561.9114.841 1.6132.841.6882 0 1.2168-.269 1.586-.807.3691-.542.556-1.33.5605-2.365z"/><path d="m86.939 186.742c-.3692.442-.891.786-1.5654 1.032-.6745.242-1.4219.363-2.2422.363-.8614 0-1.6179-.187-2.2696-.561-.6471-.378-1.1484-.925-1.5039-1.64-.3509-.716-.5309-1.557-.54-2.523v-.677c0-.993.1663-1.852.499-2.577.3373-.729.8203-1.285 1.4492-1.668.6335-.387 1.3741-.581 2.2217-.581 1.1804 0 2.1032.283 2.7686.848.6653.56 1.0595 1.378 1.1826 2.454h-1.9961c-.0912-.57-.294-.987-.6084-1.251-.3099-.264-.7383-.397-1.2852-.397-.6972 0-1.2282.262-1.5927.787-.3646.524-.5492 1.303-.5537 2.337v.636c0 1.044.1982 1.832.5947 2.365.3965.534.9775.8 1.7431.8.7702 0 1.3194-.164 1.6475-.492v-1.716h-1.8662v-1.51h3.917z"/><path d="m92.5986 182.531 2.0713-4.484h2.2422l-3.2676 6.344v3.609h-2.085v-3.609l-3.2675-6.344h2.249z"/><path d="m108.047 185.949h-3.596l-.684 2.051h-2.18l3.705-9.953h1.9l3.726 9.953h-2.181zm-3.042-1.661h2.488l-1.251-3.726z"/><path d="m117.569 185.389c0-.388-.137-.684-.411-.889-.273-.21-.765-.428-1.476-.656-.711-.233-1.274-.461-1.689-.684-1.13-.611-1.695-1.433-1.695-2.468 0-.537.151-1.016.451-1.435.306-.424.741-.754 1.306-.991.57-.237 1.208-.356 1.914-.356.711 0 1.344.13 1.9.39.556.255.987.617 1.292 1.087.31.469.465 1.002.465 1.599h-2.051c0-.455-.143-.809-.43-1.059-.287-.255-.691-.383-1.21-.383-.501 0-.891.107-1.169.321-.278.21-.417.488-.417.834 0 .324.162.595.485.814.328.218.809.424 1.443.615 1.166.351 2.016.786 2.549 1.306.534.519.8 1.166.8 1.941 0 .861-.326 1.538-.977 2.03-.652.488-1.529.732-2.632.732-.766 0-1.463-.139-2.092-.417-.629-.283-1.11-.668-1.442-1.156-.328-.487-.492-1.052-.492-1.695h2.057c0 1.098.656 1.648 1.969 1.648.488 0 .868-.098 1.141-.294.274-.201.411-.479.411-.834z"/><path d="m126.742 185.389c0-.388-.137-.684-.41-.889-.274-.21-.766-.428-1.477-.656-.711-.233-1.274-.461-1.688-.684-1.13-.611-1.696-1.433-1.696-2.468 0-.537.151-1.016.452-1.435.305-.424.74-.754 1.305-.991.57-.237 1.208-.356 1.914-.356.711 0 1.345.13 1.901.39.556.255.986.617 1.292 1.087.31.469.465 1.002.465 1.599h-2.051c0-.455-.144-.809-.431-1.059-.287-.255-.69-.383-1.21-.383-.501 0-.891.107-1.169.321-.278.21-.417.488-.417.834 0 .324.162.595.486.814.328.218.808.424 1.442.615 1.167.351 2.017.786 2.55 1.306.533.519.8 1.166.8 1.941 0 .861-.326 1.538-.978 2.03-.652.488-1.529.732-2.632.732-.765 0-1.463-.139-2.092-.417-.629-.283-1.109-.668-1.442-1.156-.328-.487-.492-1.052-.492-1.695h2.057c0 1.098.657 1.648 1.969 1.648.488 0 .868-.098 1.142-.294.273-.201.41-.479.41-.834z"/><path d="m138.93 183.249c0 .98-.173 1.839-.52 2.577-.346.738-.843 1.308-1.49 1.709-.643.401-1.381.602-2.215.602-.825 0-1.561-.199-2.208-.595s-1.148-.962-1.504-1.695c-.355-.739-.535-1.586-.54-2.543v-.492c0-.98.176-1.842.527-2.584.355-.748.854-1.32 1.497-1.716.647-.401 1.385-.602 2.215-.602.829 0 1.565.201 2.208.602.647.396 1.146.968 1.497 1.716.355.742.533 1.601.533 2.577zm-2.078-.451c0-1.044-.187-1.837-.561-2.379s-.907-.814-1.599-.814c-.689 0-1.22.269-1.593.807-.374.533-.563 1.317-.568 2.352v.485c0 1.016.187 1.805.561 2.365.374.561.911.841 1.613.841.688 0 1.217-.269 1.586-.807.369-.542.556-1.33.561-2.365z"/><path d="m148.794 184.685c-.078 1.071-.474 1.914-1.19 2.529-.711.615-1.65.923-2.816.923-1.276 0-2.281-.429-3.015-1.285-.729-.862-1.094-2.042-1.094-3.541v-.609c0-.957.169-1.8.506-2.529s.818-1.288 1.443-1.675c.628-.392 1.358-.588 2.187-.588 1.148 0 2.074.308 2.775.923.702.615 1.108 1.479 1.217 2.591h-2.051c-.05-.643-.23-1.108-.54-1.395-.305-.291-.772-.437-1.401-.437-.684 0-1.196.246-1.538.738-.337.488-.51 1.246-.52 2.276v.752c0 1.076.162 1.862.486 2.359.328.497.843.745 1.545.745.633 0 1.105-.144 1.415-.431.314-.291.494-.74.54-1.346z"/><path d="m152.881 188h-2.051v-9.953h2.051z"/><path d="m161.09 185.949h-3.595l-.684 2.051h-2.181l3.705-9.953h1.901l3.725 9.953h-2.18zm-3.042-1.661h2.489l-1.251-3.726z"/><path d="m172.123 179.708h-3.049v8.292h-2.051v-8.292h-3.007v-1.661h8.107z"/><path d="m176.039 188h-2.05v-9.953h2.05z"/><path d="m186.682 183.249c0 .98-.173 1.839-.519 2.577s-.843 1.308-1.49 1.709c-.643.401-1.381.602-2.215.602-.825 0-1.561-.199-2.208-.595s-1.149-.962-1.504-1.695c-.356-.739-.536-1.586-.54-2.543v-.492c0-.98.175-1.842.526-2.584.356-.748.855-1.32 1.497-1.716.647-.401 1.386-.602 2.215-.602.83 0 1.566.201 2.208.602.647.396 1.146.968 1.497 1.716.356.742.533 1.601.533 2.577zm-2.078-.451c0-1.044-.187-1.837-.56-2.379-.374-.542-.907-.814-1.6-.814-.688 0-1.219.269-1.593.807-.373.533-.562 1.317-.567 2.352v.485c0 1.016.187 1.805.561 2.365.373.561.911.841 1.613.841.688 0 1.217-.269 1.586-.807.369-.542.556-1.33.56-2.365z"/><path d="m196.826 188h-2.05l-3.993-6.549v6.549h-2.05v-9.953h2.05l3.999 6.562v-6.562h2.044z"/></g></svg>