<svg width="995" height="135" viewBox="0 0 995 135" fill="none" xmlns="http://www.w3.org/2000/svg">
<g clip-path="url(#clip0)">
<path d="M10.445 112.196C12.6965 115.672 15.891 118.435 19.655 120.162C23.2792 121.846 27.2266 122.721 31.223 122.726C33.5248 122.713 35.8124 122.364 38.013 121.689C40.2765 121.019 42.4077 119.964 44.313 118.571C46.194 117.198 47.7733 115.454 48.953 113.447C50.1857 111.299 50.8094 108.856 50.757 106.38C50.8606 104.757 50.5896 103.132 49.9648 101.631C49.34 100.13 48.3783 98.7928 47.154 97.7228C44.4714 95.5795 41.4526 93.8947 38.22 92.7368C34.6627 91.3995 30.784 90.1065 26.584 88.8578C22.4882 87.6607 18.5735 85.9138 14.947 83.6648C11.3364 81.3948 8.28299 78.3414 6.013 74.7308C3.39055 70.121 2.14045 64.8576 2.41 59.5608C2.56791 52.7828 5.35111 46.3309 10.173 41.5648C13.1543 38.6874 16.6582 36.4065 20.496 34.8448C25.3186 32.9302 30.479 32.0121 35.666 32.1458C40.8709 32.1246 46.0506 32.8706 51.038 34.3598C56.145 35.9864 60.6373 39.126 63.92 43.3628L53.114 53.1968C51.356 50.5275 48.9184 48.3749 46.052 46.9608C42.8328 45.3538 39.2735 44.547 35.676 44.6088C32.5418 44.5172 29.4179 45.0113 26.465 46.0658C24.2599 46.8802 22.2537 48.1552 20.58 49.8058C19.1875 51.1922 18.1222 52.8721 17.462 54.7228C16.897 56.2782 16.5929 57.9163 16.562 59.5708C16.4464 61.3286 16.7081 63.0908 17.3295 64.7391C17.951 66.3875 18.9177 67.8838 20.165 69.1278C22.7776 71.4727 25.8084 73.3046 29.099 74.5278C32.9038 75.9948 36.7891 77.2438 40.736 78.2688C44.7946 79.3194 48.7042 80.8784 52.372 82.9088C55.9131 84.8858 58.9659 87.6315 61.306 90.9438C63.9243 95.0982 65.1836 99.9649 64.909 104.868C64.9754 109.265 64.0515 113.62 62.206 117.612C60.4941 121.282 58.0134 124.541 54.932 127.169C51.7472 129.832 48.0775 131.853 44.125 133.123C39.8344 134.531 35.3437 135.233 30.828 135.203C24.7157 135.235 18.6527 134.109 12.96 131.883C7.56025 129.86 2.87786 126.288 -0.5 121.615L10.445 112.196Z" fill="#0C5AA5"/>
<path d="M149.361 55.8158C146.594 52.2174 142.977 49.3614 138.836 47.5038C134.712 45.5913 130.222 44.5983 125.677 44.5938C120.498 44.5181 115.367 45.5826 110.646 47.7118C106.261 49.7188 102.344 52.6206 99.1468 56.2308C95.8922 59.9454 93.3765 64.247 91.7348 68.9048C89.9538 73.9062 89.0627 79.1809 89.1018 84.4898C89.0656 89.4898 89.9014 94.4579 91.5718 99.1708C93.1585 103.664 95.6058 107.804 98.7767 111.361C101.976 114.916 105.895 117.75 110.275 119.673C115.124 121.772 120.365 122.811 125.648 122.722C130.802 122.839 135.902 121.649 140.472 119.262C144.773 116.904 148.472 113.585 151.279 109.562L162.495 118.012C161.298 119.549 160.002 121.007 158.616 122.376C156.422 124.544 153.979 126.445 151.338 128.038C147.873 130.124 144.177 131.799 140.324 133.029C135.508 134.537 130.481 135.261 125.435 135.174C118.195 135.279 111.024 133.759 104.449 130.727C95.6747 126.581 88.2537 120.036 83.0446 111.848C77.8355 103.66 75.0512 94.165 75.0138 84.4608C74.9403 77.2934 76.2088 70.1756 78.7537 63.4748C81.0987 57.2935 84.6534 51.6421 89.2098 46.8518C93.7683 42.1375 99.2668 38.4341 105.349 35.9818C111.952 33.3349 119.013 32.0165 126.127 32.1018C132.656 32.1143 139.122 33.3841 145.171 35.8418C151.232 38.2027 156.53 42.1802 160.489 47.3418L149.361 55.8158Z" fill="#0C5AA5"/>
<path d="M175.14 34.6218H188.443V75.3438H239.279V34.6218H252.577V132.693H239.279V87.8108H188.443V132.693H175.14V34.6218Z" fill="#0C5AA5"/>
<path d="M274.323 34.6219H308.813C314.104 34.4499 319.376 35.3215 324.33 37.1869C327.982 38.614 331.27 40.8372 333.955 43.6949C336.258 46.2292 337.941 49.2635 338.872 52.5588C339.768 55.6428 340.236 58.8354 340.261 62.0468C340.269 65.1471 339.707 68.2223 338.601 71.1188C337.501 74.0224 335.882 76.7014 333.822 79.0248C331.66 81.4484 329.081 83.4653 326.207 84.9799C323.091 86.6256 319.678 87.6333 316.167 87.9439L344.007 132.688H327.383L302.44 89.4709H287.616V132.693H274.323V34.6219ZM287.62 77.8388H305.073C307.649 77.8403 310.22 77.6323 312.762 77.2169C315.141 76.8565 317.439 76.0839 319.552 74.9338C321.554 73.8099 323.207 72.1564 324.33 70.1549C325.518 67.6193 326.134 64.8537 326.134 62.0538C326.134 59.254 325.518 56.4884 324.33 53.9529C323.207 51.9513 321.554 50.2978 319.552 49.1739C317.44 48.0223 315.142 47.2499 312.762 46.8918C310.22 46.4758 307.649 46.2674 305.073 46.2689H287.616L287.62 77.8388Z" fill="#0C5AA5"/>
<path d="M400.516 135.184C393.441 135.261 386.422 133.916 379.876 131.231C373.81 128.747 368.318 125.048 363.737 120.36C359.198 115.649 355.623 110.096 353.212 104.014C348.133 90.9135 348.133 76.3876 353.212 63.287C355.622 57.205 359.198 51.6524 363.737 46.941C368.319 42.2548 373.811 38.5553 379.876 36.07C393.131 30.8093 407.895 30.8093 421.151 36.07C427.214 38.5562 432.706 42.2552 437.289 46.94C441.827 51.6525 445.402 57.2053 447.814 63.287C452.893 76.3876 452.893 90.9135 447.814 104.014C445.403 110.096 441.827 115.648 437.289 120.36C432.707 125.046 427.215 128.745 421.151 131.23C414.605 133.916 407.586 135.26 400.511 135.184H400.516ZM400.511 122.717C405.548 122.808 410.547 121.83 415.179 119.848C419.81 117.866 423.969 114.925 427.381 111.218C430.666 107.619 433.207 103.405 434.858 98.82C438.367 89.0128 438.367 78.2923 434.858 68.485C432.82 62.7741 429.39 57.6617 424.878 53.6107C420.366 49.5598 414.915 46.6983 409.018 45.2853C403.122 43.8724 396.966 43.9527 391.108 45.5189C385.25 47.0851 379.876 50.0878 375.471 54.255C374.839 54.8444 374.229 55.455 373.64 56.087C370.352 59.6844 367.811 63.8985 366.164 68.485C362.655 78.2923 362.655 89.0128 366.164 98.82C367.813 103.406 370.353 107.62 373.64 111.218C377.052 114.925 381.211 117.866 385.842 119.848C390.474 121.83 395.473 122.808 400.51 122.717" fill="#0C5AA5"/>
<path d="M465.054 34.6219H499.268C505.421 34.5189 511.557 35.3112 517.482 36.9739C522.305 38.3607 526.884 40.4859 531.056 43.2739C534.722 45.7477 537.952 48.8139 540.612 52.3469C543.053 55.59 545.078 59.1259 546.64 62.8719C548.081 66.3516 549.15 69.9741 549.828 73.6789C550.451 76.9669 550.782 80.3036 550.816 83.6499C550.825 89.8854 549.651 96.066 547.356 101.864C545.047 107.729 541.557 113.057 537.104 117.518C532.291 122.282 526.567 126.028 520.274 128.533C512.881 131.433 504.989 132.845 497.049 132.688H465.054V34.6219ZM478.356 120.226H495.117C500.534 120.258 505.926 119.488 511.117 117.943C515.929 116.534 520.422 114.205 524.346 111.085C528.164 107.996 531.241 104.09 533.349 99.6549C535.657 94.6432 536.793 89.1713 536.669 83.6549C536.592 79.9369 536.082 76.2406 535.148 72.6409C534.062 68.2991 532.107 64.2227 529.401 60.6579C526.271 56.6131 522.272 53.3234 517.7 51.0319C511.649 48.1684 504.994 46.8121 498.305 47.0789H478.356V120.226Z" fill="#0C5AA5"/>
<path d="M566.451 34.6218H579.748V132.693H566.451V34.6218Z" fill="#0C5AA5"/>
<path d="M601.5 34.6218H618.953L672.972 115.24H673.253V34.6218H686.551V132.693H669.651L615.074 52.0648H614.797V132.683H601.499L601.5 34.6218Z" fill="#0C5AA5"/>
<path d="M791.821 77.84V126.18C789.235 127.747 786.497 129.047 783.648 130.06C780.542 131.186 777.374 132.133 774.16 132.896C770.876 133.682 767.546 134.26 764.189 134.626C761.039 134.982 757.871 135.166 754.701 135.179C747.084 135.311 739.52 133.898 732.465 131.023C726.335 128.524 720.793 124.777 716.191 120.02C711.588 115.263 708.026 109.6 705.732 103.391C703.363 97.0807 702.166 90.3912 702.199 83.651C702.138 76.6803 703.432 69.7642 706.009 63.287C708.419 57.205 711.995 51.6524 716.534 46.941C721.116 42.255 726.608 38.5558 732.673 36.071C739.219 33.3853 746.238 32.0407 753.313 32.117C760.846 31.8709 768.36 33.022 775.475 35.512C780.887 37.5711 785.798 40.758 789.884 44.861L780.465 54.971C776.821 51.3528 772.422 48.5854 767.583 46.867C762.984 45.3325 758.166 44.5613 753.318 44.584C748.281 44.4927 743.281 45.4703 738.649 47.4524C734.018 49.4345 729.859 52.376 726.447 56.083C723.157 59.6801 720.614 63.8941 718.965 68.481C717.193 73.341 716.303 78.4782 716.336 83.651C716.287 88.9404 717.276 94.1879 719.246 99.097C721.092 103.712 723.82 107.923 727.276 111.495C730.707 115.014 734.804 117.816 739.328 119.737C744.105 121.752 749.245 122.761 754.429 122.702C758.918 122.724 763.397 122.282 767.795 121.382C771.547 120.666 775.168 119.381 778.533 117.573V90.287H756.79V77.82H791.829L791.821 77.84Z" fill="#0C5AA5"/>
<path d="M812.6 34.6218H875.903V47.0888H825.897V76.3118H872.439V88.7788H825.897V120.221H878.394V132.688H812.599L812.6 34.6218Z" fill="#0C5AA5"/>
<path d="M893.767 34.6219H928.257C933.547 34.4499 938.82 35.3215 943.773 37.1869C947.425 38.6133 950.714 40.8367 953.398 43.6949C955.7 46.2301 957.383 49.264 958.316 52.5588C959.212 55.6429 959.679 58.8355 959.704 62.0468C959.712 65.1471 959.149 68.2223 958.044 71.1188C956.944 74.0222 955.325 76.7011 953.266 79.0248C951.103 81.4484 948.524 83.4653 945.651 84.9799C942.535 86.6255 939.121 87.6332 935.611 87.9439L963.45 132.688H946.827L921.894 89.4659H907.07V132.688H893.767V34.6219ZM907.068 77.8388H924.521C927.096 77.8403 929.667 77.6323 932.209 77.2169C934.588 76.8567 936.886 76.0841 938.999 74.9338C941.001 73.8102 942.654 72.1566 943.777 70.1549C944.962 67.6187 945.576 64.8533 945.576 62.0538C945.576 59.2544 944.962 56.489 943.777 53.9529C942.654 51.9511 941.001 50.2975 938.999 49.1739C936.886 48.0223 934.588 47.2499 932.209 46.8918C929.668 46.476 927.096 46.2676 924.521 46.2689H907.068V77.8388Z" fill="#0C5AA5"/>
<path d="M973.624 123.443C973.614 122.047 973.897 120.665 974.454 119.386C975.526 116.891 977.514 114.903 980.008 113.832C981.29 113.285 982.669 113.003 984.063 113.003C985.456 113.003 986.835 113.285 988.117 113.832C990.611 114.904 992.599 116.892 993.671 119.386C994.218 120.668 994.5 122.047 994.5 123.44C994.5 124.834 994.218 126.213 993.671 127.495C993.136 128.728 992.375 129.851 991.427 130.805C990.476 131.755 989.352 132.517 988.117 133.049C986.835 133.596 985.456 133.878 984.062 133.878C982.669 133.878 981.289 133.596 980.007 133.049C977.513 131.977 975.525 129.989 974.454 127.495C973.899 126.216 973.617 124.836 973.624 123.443V123.443ZM975.477 123.443C975.469 124.591 975.699 125.728 976.153 126.783C976.592 127.823 977.231 128.766 978.034 129.558C978.837 130.351 979.789 130.978 980.834 131.402C981.879 131.827 982.998 132.042 984.126 132.035C985.255 132.027 986.371 131.798 987.41 131.359C988.431 130.925 989.36 130.302 990.147 129.521C991.044 128.624 991.732 127.54 992.161 126.346C992.589 125.152 992.748 123.878 992.626 122.615C992.504 121.353 992.104 120.133 991.454 119.043C990.805 117.954 989.922 117.021 988.87 116.313C987.818 115.605 986.622 115.138 985.368 114.947C984.114 114.756 982.833 114.844 981.617 115.207C980.402 115.569 979.281 116.196 978.336 117.042C977.392 117.889 976.646 118.934 976.153 120.103C975.702 121.158 975.472 122.295 975.477 123.443V123.443ZM980.052 117.41H984.652C985.792 117.315 986.928 117.644 987.84 118.334C988.193 118.677 988.467 119.093 988.644 119.553C988.821 120.013 988.895 120.505 988.863 120.997C988.895 121.424 988.84 121.853 988.702 122.258C988.563 122.663 988.344 123.036 988.057 123.354C987.506 123.885 986.79 124.211 986.027 124.278L989.11 129.328H986.812L983.846 124.446H982.246V129.328H980.056V117.405L980.052 117.41ZM982.236 122.598H983.836C984.166 122.605 984.497 122.591 984.825 122.558C985.138 122.535 985.445 122.463 985.735 122.346C985.997 122.244 986.226 122.074 986.397 121.852C986.581 121.58 986.67 121.255 986.649 120.928C986.665 120.601 986.577 120.277 986.397 120.004C986.224 119.783 985.995 119.612 985.734 119.509C985.444 119.392 985.136 119.326 984.824 119.312C984.488 119.312 984.148 119.282 983.837 119.282H982.236V122.598Z" fill="#0C5AA5"/>
<path d="M392.679 10.1719C392.679 12.2243 392.071 14.2307 390.93 15.9373C389.79 17.644 388.17 18.9741 386.274 19.7597C384.377 20.5453 382.291 20.7509 380.278 20.3506C378.265 19.9504 376.416 18.9621 374.965 17.5109C373.513 16.0597 372.525 14.2107 372.124 12.1977C371.724 10.1848 371.929 8.09823 372.715 6.20203C373.5 4.30582 374.83 2.68511 376.537 1.54483C378.243 0.404547 380.249 -0.204102 382.302 -0.204102C385.054 -0.204102 387.693 0.889051 389.639 2.8349C391.585 4.78075 392.679 7.41993 392.679 10.1719" fill="#E5823F"/>
<path d="M430.816 10.1719C430.816 12.2243 430.208 14.2307 429.068 15.9373C427.928 17.644 426.307 18.9741 424.411 19.7597C422.515 20.5453 420.428 20.7509 418.415 20.3506C416.402 19.9504 414.553 18.9621 413.102 17.5109C411.65 16.0597 410.662 14.2107 410.261 12.1977C409.861 10.1848 410.066 8.09823 410.852 6.20203C411.637 4.30582 412.967 2.68511 414.674 1.54483C416.38 0.404547 418.387 -0.204102 420.439 -0.204102C423.191 -0.204102 425.83 0.889051 427.776 2.8349C429.722 4.78075 430.816 7.41993 430.816 10.1719" fill="#E5823F"/>
</g>
<defs>
<clipPath id="clip0">
<rect width="995" height="135" fill="white"/>
</clipPath>
</defs>
</svg>
