<svg width="108" height="40" viewBox="0 0 108 40" fill="none" xmlns="http://www.w3.org/2000/svg">
<path d="M54.8131 5.51425H58.7856V25.6779C58.7856 31.0198 56.4483 34.7064 50.971 34.7064C49.3512 34.7309 47.7393 34.4764 46.2059 33.9541V30.0919C47.5139 30.599 48.906 30.8543 50.3089 30.8442C53.6645 30.8442 54.8231 28.8379 54.8231 25.9438L54.8131 5.51425Z" fill="#253858"/>
<path d="M66.0235 3.96436C66.3778 3.939 66.7334 3.99012 67.0662 4.11425C67.399 4.23838 67.7013 4.43261 67.9524 4.68378C68.2036 4.93495 68.3978 5.23718 68.522 5.57C68.6461 5.90281 68.6972 6.25842 68.6719 6.61272C68.6719 7.31511 68.3928 7.98873 67.8962 8.4854C67.3995 8.98206 66.7259 9.26108 66.0235 9.26108C65.3211 9.26108 64.6475 8.98206 64.1508 8.4854C63.6542 7.98873 63.3751 7.31511 63.3751 6.61272C63.3498 6.25842 63.4009 5.90281 63.525 5.57C63.6491 5.23718 63.8434 4.93495 64.0945 4.68378C64.3457 4.43261 64.648 4.23838 64.9808 4.11425C65.3136 3.99012 65.6692 3.939 66.0235 3.96436ZM64.0824 12.4411H67.8794V34.5108H64.0824V12.4411Z" fill="#253858"/>
<path d="M73.6125 12.4361H77.3192V16.3184C78.5982 13.7151 80.8303 11.8593 85.1339 12.1251V15.8318C80.2785 15.3302 77.3192 16.8049 77.3192 21.4797V34.5208H73.6125V12.4361Z" fill="#253858"/>
<path d="M102.92 30.5333C101.506 33.4475 98.8572 34.9472 95.4615 34.9472C89.5929 34.9472 86.6336 29.9614 86.6336 23.471C86.6336 17.2463 89.7233 11.9947 95.9029 11.9947C99.123 11.9947 101.596 13.4493 102.925 16.3184V12.4361H106.722V34.5058H102.925L102.92 30.5333ZM96.4747 31.416C99.8754 31.416 102.92 29.2542 102.92 24.3537V22.5681C102.92 17.6676 100.141 15.5058 96.901 15.5058C92.6175 15.5058 90.4105 18.3297 90.4105 23.4509C90.4306 28.7677 92.5473 31.416 96.4797 31.416H96.4747Z" fill="#253858"/>
<path d="M36.3147 18.9366L19.9631 2.58501L18.3781 1L6.06924 13.3089L0.441464 18.9366C0.159673 19.2188 0.00139427 19.6012 0.00139427 20C0.00139427 20.3988 0.159673 20.7812 0.441464 21.0634L11.687 32.3089L18.3781 39L30.687 26.6911L30.8776 26.5005L36.3147 21.0634C36.5965 20.7812 36.7548 20.3988 36.7548 20C36.7548 19.6012 36.5965 19.2188 36.3147 18.9366ZM18.3781 25.6177L12.7604 20L18.3781 14.3823L23.9958 20L18.3781 25.6177Z" fill="#2684FF"/>
<path d="M18.378 14.3823C16.6112 12.6152 15.6153 10.2208 15.6077 7.72197C15.6002 5.22312 16.5817 2.8228 18.3379 1.04514L6.04409 13.3339L12.7352 20.0251L18.378 14.3823Z" fill="url(#paint0_linear)"/>
<path d="M24.0108 19.9849L18.378 25.6177C19.2571 26.4962 19.9544 27.5393 20.4301 28.6874C20.9059 29.8355 21.1508 31.0661 21.1508 32.3089C21.1508 33.5516 20.9059 34.7822 20.4301 35.9303C19.9544 37.0784 19.2571 38.1215 18.378 39L30.702 26.6761L24.0108 19.9849Z" fill="url(#paint1_linear)"/>
<defs>
<linearGradient id="paint0_linear" x1="17.3749" y1="8.69931" x2="9.5301" y2="16.5441" gradientUnits="userSpaceOnUse">
<stop offset="0.18" stop-color="#0052CC"/>
<stop offset="1" stop-color="#2684FF"/>
</linearGradient>
<linearGradient id="paint1_linear" x1="496.3" y1="1166.21" x2="767.242" y2="990.61" gradientUnits="userSpaceOnUse">
<stop offset="0.18" stop-color="#0052CC"/>
<stop offset="1" stop-color="#2684FF"/>
</linearGradient>
</defs>
</svg>
