<svg width="32" height="32" viewBox="0 0 32 32" fill="none" xmlns="http://www.w3.org/2000/svg">
<path d="M2.125 11.9556C2.125 10.2111 2.1251 8.91029 2.20936 7.87899C2.2935 6.84915 2.46094 6.09909 2.78956 5.45414C3.37412 4.30688 4.30688 3.37412 5.45414 2.78956C6.09909 2.46094 6.84915 2.2935 7.87899 2.20936C8.91029 2.1251 10.2111 2.125 11.9556 2.125H20.0444C21.7889 2.125 23.0897 2.1251 24.121 2.20936C25.1508 2.2935 25.9009 2.46094 26.5459 2.78956C27.6931 3.37412 28.6259 4.30688 29.2104 5.45414C29.5391 6.09909 29.7065 6.84915 29.7906 7.87899C29.8749 8.91029 29.875 10.2111 29.875 11.9556V20.0444C29.875 21.7889 29.8749 23.0897 29.7906 24.121C29.7065 25.1508 29.5391 25.9009 29.2104 26.5459C28.6259 27.6931 27.6931 28.6259 26.5459 29.2104C25.9009 29.5391 25.1508 29.7065 24.121 29.7906C23.0897 29.8749 21.7889 29.875 20.0444 29.875H11.9556C10.2111 29.875 8.91029 29.8749 7.87899 29.7906C6.84915 29.7065 6.09909 29.5391 5.45414 29.2104C4.30688 28.6259 3.37412 27.6931 2.78956 26.5459C2.46094 25.9009 2.2935 25.1508 2.20936 24.121C2.1251 23.0897 2.125 21.7889 2.125 20.0444V11.9556Z" fill="white" stroke="#ECEDF3" stroke-width="0.25"/>
<path d="M16.002 12.4509L12.5411 6.34322C12.6561 6.22622 12.7883 6.14948 12.9205 6.0979C11.8999 6.43379 11.4316 7.57986 11.4316 7.57986L5.10908 18.7348C5.02011 19.0845 4.9954 19.4003 5.00652 19.6783H11.9073L16.002 12.4509Z" fill="#34A853"/>
<path d="M16.002 12.4509L20.0967 19.6783H26.9975C27.0086 19.4003 26.9839 19.0845 26.8949 18.7348L20.5724 7.57986C20.5724 7.57986 20.1029 6.43379 19.0835 6.0979C19.2145 6.14948 19.3479 6.22622 19.4628 6.34322L16.002 12.4509Z" fill="#FBBC05"/>
<path d="M16.0019 12.4512L19.4628 6.34346C19.3479 6.22646 19.2144 6.14973 19.0835 6.09815C18.9327 6.04908 18.7709 6.01637 18.5954 6.00757H18.4125H13.5913H13.4084C13.2342 6.01512 13.0711 6.04783 12.9203 6.09815C12.7894 6.14973 12.6559 6.22646 12.541 6.34346L16.0019 12.4512Z" fill="#188038"/>
<path d="M11.9085 19.6783L8.48712 25.7168C8.48712 25.7168 8.37344 25.6615 8.21899 25.547C8.70458 25.9206 9.17658 25.9999 9.17658 25.9999H22.6136C23.355 25.9999 23.5094 25.7168 23.5094 25.7168C23.5119 25.7156 23.5131 25.7143 23.5156 25.7131L20.0967 19.6783H11.9085Z" fill="#4285F4"/>
<path d="M11.9087 19.6783H5.00793C5.04253 20.4985 5.39838 20.9779 5.39838 20.9779L5.65786 21.4282C5.67639 21.4546 5.68751 21.4697 5.68751 21.4697L6.25217 22.4611L7.51989 24.6676C7.55695 24.757 7.6002 24.8387 7.64592 24.9167C7.66322 24.9432 7.67928 24.9721 7.69781 24.9973C7.70275 25.0048 7.7077 25.0123 7.71264 25.0199C7.86956 25.2413 8.04501 25.4124 8.22047 25.547C8.37492 25.6627 8.48859 25.7168 8.48859 25.7168L11.9087 19.6783Z" fill="#1967D2"/>
<path d="M20.0967 19.6783H26.9974C26.9628 20.4985 26.607 20.9779 26.607 20.9779L26.3475 21.4282C26.329 21.4546 26.3179 21.4697 26.3179 21.4697L25.7532 22.4611L24.4855 24.6676C24.4484 24.757 24.4052 24.8387 24.3595 24.9167C24.3422 24.9432 24.3261 24.9721 24.3076 24.9973C24.3026 25.0048 24.2977 25.0123 24.2927 25.0199C24.1358 25.2413 23.9604 25.4124 23.7849 25.547C23.6305 25.6627 23.5168 25.7168 23.5168 25.7168L20.0967 19.6783Z" fill="#EA4335"/>
</svg>
