<svg width="221" height="40" viewBox="0 0 221 40" fill="none" xmlns="http://www.w3.org/2000/svg">
<path d="M30.6503 14.9986H41.7531C42.8072 14.9986 43.6551 15.8465 43.6551 16.9006V27.018C43.6551 30.8794 40.5271 33.996 36.6772 33.996H36.6428C32.7815 33.996 29.6649 30.8679 29.6649 27.018V15.9954C29.6534 15.4454 30.1003 14.9986 30.6503 14.9986Z" fill="#5059C9"/>
<path d="M38.1553 13.0049C40.6422 13.0049 42.6583 10.9888 42.6583 8.50188C42.6583 6.01494 40.6422 3.99887 38.1553 3.99887C35.6683 3.99887 33.6523 6.01494 33.6523 8.50188C33.6523 10.9888 35.6683 13.0049 38.1553 13.0049Z" fill="#5059C9"/>
<path d="M24.1536 12.9934C27.7416 12.9934 30.6503 10.0847 30.6503 6.4967C30.6503 2.90867 27.7416 0 24.1536 0C20.5655 0 17.6569 2.90867 17.6569 6.4967C17.6569 10.0847 20.5655 12.9934 24.1536 12.9934Z" fill="#7B83EB"/>
<path d="M32.8272 14.9986H14.4944C13.4631 15.0215 12.6382 15.8808 12.6611 16.9235V28.4618C12.5121 34.6835 17.4391 39.851 23.6608 40C29.8825 39.851 34.8095 34.6835 34.6605 28.4618V16.9235C34.6834 15.8808 33.8584 15.0215 32.8272 14.9986Z" fill="#7B83EB"/>
<path opacity="0.1" d="M24.6577 14.9986V31.1658C24.6577 31.9106 24.1994 32.5752 23.5234 32.8502C23.3057 32.9418 23.0651 32.9877 22.8359 32.9877H13.5434C13.4174 32.6554 13.2914 32.3231 13.1882 31.9908C12.833 30.845 12.6612 29.6534 12.6612 28.4503V16.9235C12.6383 15.8923 13.4518 15.0329 14.4945 14.9986H24.6577Z" fill="black"/>
<path opacity="0.2" d="M23.6609 14.9986V32.1627C23.6609 32.4033 23.6151 32.6325 23.5234 32.8502C23.237 33.5377 22.5724 33.9845 21.8391 33.9845H14.0247C13.8528 33.6522 13.6924 33.32 13.5549 32.9877C13.4174 32.6554 13.3028 32.3231 13.1997 31.9908C12.8445 30.845 12.6727 29.6534 12.6727 28.4503V16.9235C12.6497 15.8923 13.4633 15.0329 14.5059 14.9986H23.6609Z" fill="black"/>
<path opacity="0.2" d="M23.6609 14.9986V30.169C23.6494 31.1773 22.8359 31.9908 21.8276 32.0023H13.1882C12.833 30.8565 12.6612 29.6648 12.6612 28.4618V16.9235C12.6383 15.8923 13.4518 15.0329 14.4945 14.9986H23.6609Z" fill="black"/>
<path opacity="0.2" d="M22.6526 14.9986V30.169C22.6411 31.1773 21.8276 31.9908 20.8193 32.0023H13.1768C12.8216 30.8565 12.6497 29.6648 12.6497 28.4618V16.9235C12.6268 15.8923 13.4403 15.0329 14.483 14.9986H22.6526Z" fill="black"/>
<path opacity="0.1" d="M24.6577 9.83098V12.9819C24.4859 12.9934 24.3254 13.0049 24.1536 13.0049C23.9817 13.0049 23.8213 12.9934 23.6494 12.9819C23.3171 12.959 22.9734 12.9017 22.6526 12.8215C20.6245 12.3403 18.9516 10.9195 18.1496 9.006C18.0121 8.68517 17.9089 8.35289 17.8287 8.00915H22.813C23.8327 7.99769 24.6577 8.82267 24.6577 9.83098Z" fill="black"/>
<path opacity="0.2" d="M23.6609 10.8278V12.982C23.3286 12.959 22.9848 12.9017 22.664 12.8215C20.6359 12.3403 18.9631 10.9195 18.161 9.00601H21.8276C22.8359 9.00601 23.6494 9.81953 23.6609 10.8278Z" fill="black"/>
<path opacity="0.2" d="M23.6609 10.8278V12.982C23.3286 12.959 22.9848 12.9017 22.664 12.8215C20.6359 12.3403 18.9631 10.9195 18.161 9.00601H21.8276C22.8359 9.00601 23.6494 9.81953 23.6609 10.8278Z" fill="black"/>
<path opacity="0.2" d="M22.6525 10.8278V12.8215C20.6244 12.3403 18.9515 10.9195 18.1495 9.00601H20.8192C21.839 9.00601 22.6525 9.81953 22.6525 10.8278Z" fill="black"/>
<path d="M2.49784 8.99457H20.8307C21.839 8.99457 22.664 9.81955 22.664 10.8279V29.1607C22.664 30.169 21.839 30.994 20.8307 30.994H2.49784C1.48953 30.994 0.664551 30.169 0.664551 29.1607V10.8279C0.664551 9.81955 1.47807 8.99457 2.49784 8.99457Z" fill="url(#paint0_linear)"/>
<path d="M16.4767 15.9725H12.8102V25.9524H10.4842V15.9725H6.84052V14.0361H16.4882V15.9725H16.4767Z" fill="white"/>
<path d="M72.6176 28.6594H69.9173V18.024C69.9173 17.146 69.967 16.0858 70.083 14.8267H70.0333C69.8676 15.5391 69.7185 16.0526 69.586 16.3674L64.6825 28.6428H62.8105L57.8904 16.4502C57.7579 16.0858 57.6088 15.5391 57.4597 14.8102H57.41C57.4762 15.4728 57.5094 16.533 57.5094 18.024V28.6262H54.9913V12.1928H58.8347L63.1584 23.1429C63.4897 23.9878 63.7051 24.6173 63.8045 25.0148H63.8542C64.1358 24.1534 64.3677 23.5073 64.5334 23.0932L68.9399 12.1928H72.6341V28.6594H72.6176ZM77.2229 14.4623C76.7922 14.4623 76.4112 14.3132 76.113 14.0316C75.7982 13.75 75.6492 13.3855 75.6492 12.9548C75.6492 12.5241 75.7982 12.1596 76.113 11.8614C76.4278 11.5632 76.7922 11.4307 77.2229 11.4307C77.6702 11.4307 78.0512 11.5798 78.366 11.8614C78.6807 12.1596 78.8298 12.5075 78.8298 12.9548C78.8298 13.3689 78.6807 13.7168 78.366 14.015C78.0512 14.3132 77.6702 14.4623 77.2229 14.4623ZM78.5316 28.6594H75.8811V16.9306H78.5316V28.6594ZM89.9125 28.1293C88.9682 28.6759 87.8583 28.941 86.5827 28.941C84.8433 28.941 83.4352 28.3943 82.3584 27.301C81.2816 26.2076 80.7515 24.7995 80.7515 23.0601C80.7515 21.1218 81.3313 19.5812 82.4744 18.405C83.6174 17.2288 85.1581 16.649 87.0797 16.649C88.1565 16.649 89.0842 16.8312 89.9125 17.2123V19.6806C89.1008 19.0676 88.2228 18.7695 87.2951 18.7695C86.1686 18.7695 85.2574 19.1505 84.5285 19.9125C83.8162 20.6746 83.4517 21.6685 83.4517 22.8944C83.4517 24.1037 83.7831 25.0645 84.4623 25.7769C85.1415 26.4727 86.0526 26.8371 87.1791 26.8371C88.1399 26.8371 89.0345 26.4892 89.8794 25.81V28.1293H89.9125ZM98.8581 19.4652C98.5434 19.2167 98.0795 19.0842 97.4666 19.0842C96.688 19.0842 96.0254 19.4321 95.4952 20.1444C94.9651 20.8568 94.7001 21.8176 94.7001 23.0435V28.6594H92.0495V16.9306H94.7001V19.3493H94.7498C95.0148 18.521 95.4124 17.8749 95.9425 17.411C96.4892 16.9472 97.0856 16.7153 97.7482 16.7153C98.2286 16.7153 98.5931 16.7815 98.8416 16.9306V19.4652H98.8581ZM105.236 28.941C103.43 28.941 101.973 28.3943 100.896 27.301C99.819 26.2076 99.2723 24.7498 99.2723 22.9441C99.2723 20.9727 99.8355 19.4321 100.962 18.3222C102.089 17.2123 103.613 16.6656 105.518 16.6656C107.357 16.6656 108.781 17.2123 109.808 18.289C110.835 19.3658 111.349 20.8568 111.349 22.7619C111.349 24.6338 110.802 26.1248 109.692 27.2513C108.599 28.3778 107.108 28.941 105.236 28.941ZM105.369 18.7695C104.325 18.7695 103.513 19.1339 102.9 19.8628C102.304 20.5917 101.989 21.5857 101.989 22.8613C101.989 24.0872 102.287 25.0645 102.9 25.7603C103.513 26.4727 104.325 26.8205 105.352 26.8205C106.396 26.8205 107.207 26.4727 107.771 25.7769C108.334 25.0811 108.616 24.0872 108.616 22.8116C108.616 21.5194 108.334 20.5255 107.771 19.8131C107.224 19.1173 106.412 18.7695 105.369 18.7695ZM112.823 28.2949V25.8266C113.817 26.5886 114.911 26.9531 116.103 26.9531C117.71 26.9531 118.505 26.4727 118.505 25.5284C118.505 25.2633 118.439 25.0314 118.307 24.8492C118.174 24.667 117.992 24.5013 117.743 24.3522C117.511 24.2031 117.23 24.0706 116.915 23.9546C116.6 23.8387 116.252 23.7061 115.855 23.557C115.374 23.3582 114.944 23.1595 114.563 22.9441C114.182 22.7287 113.85 22.4802 113.602 22.2152C113.353 21.9501 113.155 21.6354 113.022 21.2875C112.89 20.9396 112.823 20.542 112.823 20.0782C112.823 19.5149 112.956 19.018 113.221 18.5872C113.486 18.1565 113.85 17.7921 114.298 17.4939C114.745 17.1957 115.258 16.9803 115.838 16.8312C116.418 16.6821 116.998 16.6159 117.611 16.6159C118.688 16.6159 119.665 16.7815 120.526 17.1129V19.4321C119.698 18.8689 118.754 18.5872 117.677 18.5872C117.346 18.5872 117.031 18.6204 116.766 18.6866C116.501 18.7529 116.269 18.8523 116.07 18.9683C115.871 19.0842 115.722 19.2333 115.623 19.4155C115.524 19.5812 115.457 19.78 115.457 19.9788C115.457 20.2273 115.507 20.4426 115.623 20.6249C115.722 20.8071 115.888 20.9562 116.103 21.0887C116.319 21.2212 116.567 21.3372 116.865 21.4532C117.164 21.5691 117.495 21.6851 117.876 21.8176C118.373 22.0164 118.837 22.2318 119.234 22.4471C119.632 22.6625 119.98 22.911 120.261 23.176C120.543 23.4411 120.758 23.7558 120.908 24.1203C121.057 24.4682 121.139 24.8989 121.139 25.3793C121.139 25.9757 121.007 26.4892 120.725 26.9365C120.448 27.3791 120.075 27.7529 119.632 28.0299C119.168 28.3281 118.638 28.5434 118.042 28.6759C117.445 28.825 116.816 28.8913 116.153 28.8913C114.877 28.941 113.768 28.7256 112.823 28.2949ZM128.395 28.941C126.59 28.941 125.132 28.3943 124.055 27.301C122.978 26.2076 122.432 24.7498 122.432 22.9441C122.432 20.9727 122.995 19.4321 124.121 18.3222C125.248 17.2123 126.772 16.6656 128.677 16.6656C130.516 16.6656 131.94 17.2123 132.968 18.289C133.995 19.3658 134.508 20.8568 134.508 22.7619C134.508 24.6338 133.962 26.1248 132.852 27.2513C131.742 28.3778 130.251 28.941 128.395 28.941ZM128.511 18.7695C127.468 18.7695 126.656 19.1339 126.043 19.8628C125.447 20.5917 125.132 21.5857 125.132 22.8613C125.132 24.0872 125.43 25.0645 126.043 25.7603C126.656 26.4727 127.468 26.8205 128.495 26.8205C129.538 26.8205 130.35 26.4727 130.913 25.7769C131.477 25.0811 131.758 24.0872 131.758 22.8116C131.758 21.5194 131.477 20.5255 130.913 19.8131C130.367 19.1173 129.555 18.7695 128.511 18.7695ZM142.957 13.4518C142.592 13.253 142.195 13.137 141.731 13.137C140.439 13.137 139.793 13.8659 139.793 15.3237V16.9141H142.526V19.0014H139.809V28.6428H137.159V19.0014H135.154V16.9141H137.159V15.009C137.159 13.7665 137.556 12.7891 138.368 12.0768C139.18 11.3645 140.19 11 141.4 11C142.062 11 142.576 11.0663 142.957 11.2154V13.4518ZM150.528 28.5268C150.014 28.7919 149.318 28.9244 148.473 28.9244C146.204 28.9244 145.061 27.8311 145.061 25.6444V19.018H143.106V16.9306H145.061V14.2138L147.711 13.4518V16.9306H150.511V19.018H147.711V24.8823C147.711 25.5781 147.844 26.0751 148.092 26.3733C148.341 26.6715 148.772 26.8205 149.351 26.8205C149.799 26.8205 150.196 26.688 150.528 26.423V28.5268ZM169.131 14.5451H164.41V28.6594H161.676V14.5451H156.972V12.2259H169.131V14.5451ZM178.392 23.5073H170.407C170.44 24.5841 170.771 25.429 171.417 26.0088C172.047 26.6052 172.925 26.8868 174.051 26.8868C175.31 26.8868 176.453 26.5058 177.497 25.7603V27.8973C176.42 28.5765 175.012 28.9079 173.256 28.9079C171.533 28.9079 170.175 28.3778 169.197 27.3175C168.22 26.2573 167.723 24.7498 167.723 22.8281C167.723 21.0059 168.27 19.5149 169.347 18.3719C170.423 17.2288 171.765 16.649 173.372 16.649C174.979 16.649 176.221 17.1626 177.099 18.1897C177.977 19.2167 178.425 20.658 178.425 22.4802V23.5073H178.392ZM175.84 21.6354C175.84 20.6746 175.608 19.9456 175.161 19.399C174.714 18.8689 174.101 18.6038 173.322 18.6038C172.56 18.6038 171.914 18.8854 171.384 19.4321C170.854 19.9953 170.523 20.7243 170.407 21.6188H175.84V21.6354ZM189.441 28.6594H186.857V26.8205H186.807C185.995 28.2287 184.803 28.9244 183.245 28.9244C182.086 28.9244 181.191 28.6097 180.529 27.9802C179.883 27.3507 179.551 26.5224 179.551 25.4953C179.551 23.2754 180.827 21.9833 183.378 21.6188L186.857 21.1218C186.857 19.4487 186.062 18.6204 184.471 18.6204C183.08 18.6204 181.821 19.1008 180.694 20.0616V17.7424C181.937 17.0135 183.361 16.649 184.985 16.649C187.95 16.649 189.425 18.1068 189.425 21.0224V28.6594H189.441ZM186.873 22.8944L184.405 23.2423C183.643 23.3417 183.063 23.5239 182.682 23.8055C182.301 24.0706 182.102 24.551 182.102 25.2302C182.102 25.7272 182.285 26.1413 182.632 26.4561C182.98 26.7708 183.461 26.9365 184.057 26.9365C184.869 26.9365 185.532 26.6549 186.062 26.0751C186.592 25.5118 186.857 24.7829 186.857 23.9215V22.8944H186.873ZM209.734 28.6594H207.084V22.2649C207.084 21.039 206.918 20.1444 206.57 19.5978C206.223 19.0511 205.643 18.7695 204.814 18.7695C204.119 18.7695 203.522 19.1173 203.042 19.8131C202.561 20.5089 202.313 21.3372 202.313 22.3146V28.6594H199.646V22.0495C199.646 19.8628 198.867 18.7695 197.327 18.7695C196.614 18.7695 196.018 19.1008 195.554 19.7469C195.09 20.4095 194.858 21.2544 194.858 22.298V28.6428H192.208V16.9141H194.858V18.7695H194.908C195.753 17.3448 196.995 16.6324 198.602 16.6324C199.414 16.6324 200.126 16.8478 200.723 17.2951C201.336 17.7424 201.75 18.3222 201.965 19.0511C202.843 17.4276 204.135 16.6159 205.858 16.6159C208.442 16.6159 209.734 18.2062 209.734 21.3869V28.6594ZM211.756 28.2949V25.8266C212.749 26.5886 213.843 26.9531 215.036 26.9531C216.643 26.9531 217.438 26.4727 217.438 25.5284C217.438 25.2633 217.371 25.0314 217.239 24.8492C217.106 24.667 216.924 24.5013 216.676 24.3522C216.444 24.2031 216.162 24.0706 215.847 23.9546C215.533 23.8387 215.185 23.7061 214.787 23.557C214.307 23.3582 213.876 23.1595 213.495 22.9441C213.114 22.7287 212.783 22.4802 212.534 22.2152C212.286 21.9501 212.087 21.6354 211.954 21.2875C211.822 20.9396 211.756 20.542 211.756 20.0782C211.756 19.5149 211.888 19.018 212.153 18.5872C212.418 18.1565 212.783 17.7921 213.23 17.4939C213.677 17.1957 214.191 16.9803 214.771 16.8312C215.35 16.6821 215.93 16.6159 216.543 16.6159C217.62 16.6159 218.597 16.7815 219.459 17.1129V19.4321C218.63 18.8689 217.686 18.5872 216.609 18.5872C216.278 18.5872 215.963 18.6204 215.698 18.6866C215.433 18.7529 215.201 18.8523 215.002 18.9683C214.804 19.0842 214.655 19.2333 214.555 19.4155C214.456 19.5812 214.39 19.78 214.39 19.9788C214.39 20.2273 214.439 20.4426 214.555 20.6249C214.655 20.8071 214.82 20.9562 215.036 21.0887C215.251 21.2212 215.499 21.3372 215.798 21.4532C216.096 21.5691 216.427 21.6851 216.808 21.8176C217.305 22.0164 217.769 22.2318 218.167 22.4471C218.564 22.6625 218.912 22.911 219.194 23.176C219.475 23.4411 219.691 23.7558 219.84 24.1203C219.989 24.4682 220.072 24.8989 220.072 25.3793C220.072 25.9757 219.939 26.4892 219.658 26.9365C219.381 27.3791 219.007 27.7529 218.564 28.0299C218.1 28.3281 217.57 28.5434 216.974 28.6759C216.377 28.825 215.748 28.8913 215.085 28.8913C213.81 28.941 212.683 28.7256 211.756 28.2949Z" fill="#5059C9"/>
<defs>
<linearGradient id="paint0_linear" x1="4.481" y1="7.56713" x2="18.8362" y2="32.4298" gradientUnits="userSpaceOnUse">
<stop stop-color="#5A62C3"/>
<stop offset="0.5" stop-color="#4D55BD"/>
<stop offset="1" stop-color="#3940AB"/>
</linearGradient>
</defs>
</svg>
