<svg width="32" height="32" viewBox="0 0 32 32" fill="none" xmlns="http://www.w3.org/2000/svg">
<path d="M2 11.6C2 8.23969 2 6.55953 2.65396 5.27606C3.2292 4.14708 4.14708 3.2292 5.27606 2.65396C6.55953 2 8.23969 2 11.6 2H20.4C23.7603 2 25.4405 2 26.7239 2.65396C27.8529 3.2292 28.7708 4.14708 29.346 5.27606C30 6.55953 30 8.23969 30 11.6V20.4C30 23.7603 30 25.4405 29.346 26.7239C28.7708 27.8529 27.8529 28.7708 26.7239 29.346C25.4405 30 23.7603 30 20.4 30H11.6C8.23969 30 6.55953 30 5.27606 29.346C4.14708 28.7708 3.2292 27.8529 2.65396 26.7239C2 25.4405 2 23.7603 2 20.4V11.6Z" fill="#293E40"/>
<path fill-rule="evenodd" clip-rule="evenodd" d="M16.0023 8C11.3082 8 7.62 11.6612 7.62 16.3209C7.62 18.7617 8.62587 20.9806 10.1906 22.5339C10.7494 23.0886 11.7553 23.0886 12.4259 22.6448C13.32 21.8682 14.6612 21.4244 16.0023 21.4244C17.4553 21.4244 18.5729 21.8682 19.5788 22.6448C20.2494 23.1995 21.1435 23.0886 21.8141 22.4229C23.3788 20.8697 24.3847 18.7617 24.3847 16.3209C24.2729 11.7722 20.5847 8 16.0023 8ZM15.8906 20.6478C13.32 20.6478 11.6435 18.7617 11.6435 16.4319C11.6435 14.102 13.32 12.2159 15.8906 12.2159C18.4612 12.2159 20.1376 14.102 20.1376 16.4319C20.1376 18.7617 18.4612 20.6478 15.8906 20.6478Z" fill="#81B5A1"/>
</svg>
