<svg width="32" height="32" viewBox="0 0 32 32" fill="none" xmlns="http://www.w3.org/2000/svg">
<path d="M2.125 11.9556C2.125 10.2111 2.1251 8.91029 2.20936 7.87899C2.2935 6.84915 2.46094 6.09909 2.78956 5.45414C3.37412 4.30688 4.30688 3.37412 5.45414 2.78956C6.09909 2.46094 6.84915 2.2935 7.87899 2.20936C8.91029 2.1251 10.2111 2.125 11.9556 2.125H20.0444C21.7889 2.125 23.0897 2.1251 24.121 2.20936C25.1508 2.2935 25.9009 2.46094 26.5459 2.78956C27.6931 3.37412 28.6259 4.30688 29.2104 5.45414C29.5391 6.09909 29.7065 6.84915 29.7906 7.87899C29.8749 8.91029 29.875 10.2111 29.875 11.9556V20.0444C29.875 21.7889 29.8749 23.0897 29.7906 24.121C29.7065 25.1508 29.5391 25.9009 29.2104 26.5459C28.6259 27.6931 27.6931 28.6259 26.5459 29.2104C25.9009 29.5391 25.1508 29.7065 24.121 29.7906C23.0897 29.8749 21.7889 29.875 20.0444 29.875H11.9556C10.2111 29.875 8.91029 29.8749 7.87899 29.7906C6.84915 29.7065 6.09909 29.5391 5.45414 29.2104C4.30688 28.6259 3.37412 27.6931 2.78956 26.5459C2.46094 25.9009 2.2935 25.1508 2.20936 24.121C2.1251 23.0897 2.125 21.7889 2.125 20.0444V11.9556Z" fill="white" stroke="#ECEDF3" stroke-width="0.25"/>
<path d="M24.4925 6H21.2412V10.7112H25.9987V7.32845C26 7.32845 25.7636 6.12848 24.4925 6Z" fill="#1967D2"/>
<path d="M21.2426 25.9781V25.9897V25.9999L26 21.2887H25.9574L21.2426 25.9781Z" fill="#1967D2"/>
<path d="M25.9996 21.2885V21.2463L25.9574 21.2885H25.9996Z" fill="#FBBC05"/>
<path d="M26 10.7113H21.2426V21.2464H26V10.7113Z" fill="#FBBC05"/>
<path d="M25.9574 21.2887H21.2426V25.9781L25.9574 21.2887Z" fill="#EA4335"/>
<path d="M21.2426 21.2885H25.9574L26 21.2463H21.2426V21.2885Z" fill="#EA4335"/>
<path d="M21.231 25.9897H21.2425V25.9782L21.231 25.9897Z" fill="#34A853"/>
<path d="M10.6503 21.2463V25.9896H21.2309L21.2425 21.2463H10.6503Z" fill="#34A853"/>
<path d="M21.2425 21.2887V21.2463L21.231 25.9896L21.2425 25.9781V21.2887Z" fill="#34A853"/>
<path d="M6 21.2463V24.5443C6.04263 25.6145 7.20002 25.9896 7.20002 25.9896H10.6503V21.2463H6Z" fill="#188038"/>
<path d="M10.6503 10.7114H21.2425V6.00012H7.33437C7.33437 6.00012 6.08525 6.1286 6 7.45577V21.2465H10.6503V10.7114Z" fill="#4285F4"/>
<path d="M14.1156 19.1139C13.8733 19.1139 13.6396 19.0823 13.4146 19.0192C13.1954 18.9561 12.9934 18.8614 12.8088 18.7351C12.6241 18.6031 12.4597 18.4396 12.3155 18.2445C12.177 18.0494 12.0702 17.8227 11.9952 17.5645L13.0598 17.1427C13.1348 17.4296 13.2617 17.6477 13.4406 17.7969C13.6194 17.9403 13.8445 18.0121 14.1156 18.0121C14.2368 18.0121 14.3522 17.9949 14.4618 17.9604C14.5714 17.9203 14.6666 17.8657 14.7474 17.7969C14.8282 17.728 14.8917 17.6477 14.9378 17.5558C14.9897 17.4583 15.0157 17.3493 15.0157 17.2287C15.0157 16.9762 14.9205 16.7783 14.7301 16.6348C14.5455 16.4913 14.2887 16.4196 13.9598 16.4196H13.4492V15.3953H13.9166C14.032 15.3953 14.1445 15.3809 14.2541 15.3522C14.3637 15.3235 14.4589 15.2805 14.5397 15.2231C14.6263 15.16 14.6926 15.0825 14.7388 14.9907C14.7907 14.8931 14.8167 14.7812 14.8167 14.655C14.8167 14.4599 14.7474 14.302 14.6089 14.1815C14.4705 14.0553 14.283 13.9922 14.0464 13.9922C13.7925 13.9922 13.5963 14.061 13.4579 14.1987C13.3252 14.3307 13.2329 14.4799 13.1809 14.6464L12.1424 14.2246C12.1943 14.0811 12.2722 13.9348 12.376 13.7856C12.4799 13.6306 12.6097 13.4929 12.7655 13.3724C12.9271 13.2461 13.1146 13.1457 13.3281 13.0711C13.5415 12.9908 13.7868 12.9506 14.0637 12.9506C14.3464 12.9506 14.6032 12.9908 14.834 13.0711C15.0705 13.1514 15.2725 13.2633 15.4398 13.4068C15.6071 13.5445 15.7369 13.711 15.8293 13.9061C15.9216 14.0954 15.9677 14.302 15.9677 14.5258C15.9677 14.698 15.9446 14.8529 15.8985 14.9907C15.8581 15.1284 15.8033 15.2518 15.734 15.3608C15.6648 15.4699 15.584 15.5645 15.4917 15.6449C15.4052 15.7195 15.3157 15.7797 15.2234 15.8256V15.8945C15.5004 16.0035 15.7283 16.1786 15.9071 16.4196C16.0918 16.6606 16.1841 16.9648 16.1841 17.332C16.1841 17.5903 16.135 17.8284 16.037 18.0465C15.9389 18.2588 15.7975 18.4453 15.6129 18.606C15.434 18.7667 15.2177 18.8901 14.9638 18.9762C14.7099 19.068 14.4272 19.1139 14.1156 19.1139Z" fill="#4285F4"/>
<path d="M18.2509 18.9762V14.4139L17.2036 14.8529L16.7882 13.8975L18.5278 13.0883H19.3846V18.9762H18.2509Z" fill="#4285F4"/>
</svg>
