<svg width="32" height="32" viewBox="0 0 32 32" fill="none" xmlns="http://www.w3.org/2000/svg">
<path d="M2.125 11.9556C2.125 10.2111 2.1251 8.91029 2.20936 7.87899C2.2935 6.84915 2.46094 6.09909 2.78956 5.45414C3.37412 4.30688 4.30688 3.37412 5.45414 2.78956C6.09909 2.46094 6.84915 2.2935 7.87899 2.20936C8.91029 2.1251 10.2111 2.125 11.9556 2.125H20.0444C21.7889 2.125 23.0897 2.1251 24.121 2.20936C25.1508 2.2935 25.9009 2.46094 26.5459 2.78956C27.6931 3.37412 28.6259 4.30688 29.2104 5.45414C29.5391 6.09909 29.7065 6.84915 29.7906 7.87899C29.8749 8.91029 29.875 10.2111 29.875 11.9556V20.0444C29.875 21.7889 29.8749 23.0897 29.7906 24.121C29.7065 25.1508 29.5391 25.9009 29.2104 26.5459C28.6259 27.6931 27.6931 28.6259 26.5459 29.2104C25.9009 29.5391 25.1508 29.7065 24.121 29.7906C23.0897 29.8749 21.7889 29.875 20.0444 29.875H11.9556C10.2111 29.875 8.91029 29.8749 7.87899 29.7906C6.84915 29.7065 6.09909 29.5391 5.45414 29.2104C4.30688 28.6259 3.37412 27.6931 2.78956 26.5459C2.46094 25.9009 2.2935 25.1508 2.20936 24.121C2.1251 23.0897 2.125 21.7889 2.125 20.0444V11.9556Z" fill="white" stroke="#ECEDF3" stroke-width="0.25"/>
<path d="M8 21.5287V25.5225C8 26.3366 8.66692 26.9966 9.48832 26.9966H13.4555V21.5287H8Z" fill="#188038"/>
<path d="M18.5482 26.9978H22.5117C23.3331 26.9978 24.0001 26.3379 24.0001 25.5237V21.5287H18.5482V26.9978Z" fill="#1967D2"/>
<path d="M18.547 21.5287H13.4556V26.9978H18.547V21.5287Z" fill="#34A853"/>
<path d="M9.48832 5C8.66692 5 8 5.65992 8 6.47411V21.5286H13.4555V10.5095H18.5469V5H9.48832Z" fill="#FBBC05"/>
<path d="M23.9999 10.5096H18.5481V21.5286H23.9999V10.5096Z" fill="#4285F4"/>
<path d="M18.5482 10.5095H23.9988L18.5482 5V10.5095Z" fill="#EA4335"/>
</svg>
