<svg width="202" height="40" viewBox="0 0 202 40" fill="none" xmlns="http://www.w3.org/2000/svg">
<g clip-path="url(#clip0)">
<path fill-rule="evenodd" clip-rule="evenodd" d="M49.2131 13.1581C47.0396 13.1581 45.1767 13.9343 43.6242 15.1763V13.4686H38.3458V33.4953H43.7794V20.7651C44.5557 19.6784 46.4186 18.2812 48.7473 18.2812C49.5235 18.2812 50.2998 18.4365 50.9208 18.5917V13.4686C50.2998 13.3133 49.6788 13.1581 49.2131 13.1581Z" fill="#293E40"/>
<path fill-rule="evenodd" clip-rule="evenodd" d="M2.48394 27.2824C3.88115 28.5244 6.0546 29.3006 7.91755 29.3006C9.31477 29.3006 10.5567 28.5244 10.5567 27.5929C10.5567 24.488 0.776231 25.5747 0.776231 19.2096C0.776231 15.3284 4.50214 12.9998 8.38329 12.9998C11.0225 12.9998 13.8169 13.9312 15.2141 15.018L12.7302 18.8991C11.6435 18.2781 10.4015 17.5019 8.84903 17.5019C7.29657 17.5019 6.20985 18.1229 6.20985 19.2096C6.20985 21.8488 15.9904 20.7621 15.9904 27.7481C15.9904 31.6293 12.2644 33.958 8.0728 33.958C5.27837 33.958 2.32869 33.0265 0 31.3188L2.48394 27.2824Z" fill="#293E40"/>
<path fill-rule="evenodd" clip-rule="evenodd" d="M36.0171 23.246C36.0171 17.6571 32.136 12.9998 26.5471 12.9998C20.6478 12.9998 16.7666 17.9676 16.7666 23.4013C16.7666 29.7663 21.2687 33.8027 27.1681 33.8027C30.273 33.8027 33.3779 32.5608 35.3961 30.2321L32.2912 27.1272C31.3597 28.2139 29.4968 29.4559 27.3233 29.4559C24.5289 29.4559 22.2002 27.4377 21.8897 24.6432H35.7066C36.0171 24.3327 36.0171 23.867 36.0171 23.246ZM22.3555 20.9173C22.666 19.0544 24.5289 17.3466 26.7024 17.3466C28.8758 17.3466 30.4283 19.0544 30.7388 20.9173H22.3555Z" fill="#293E40"/>
<path fill-rule="evenodd" clip-rule="evenodd" d="M74.5182 13.4687L65.3586 33.4955H61.6327L52.4732 13.4687H57.9068L63.4957 25.7332L68.9293 13.4687H74.5182Z" fill="#293E40"/>
<path fill-rule="evenodd" clip-rule="evenodd" d="M79.0203 3.99875C81.0385 3.99875 82.5909 5.55121 82.5909 7.41416C82.5909 9.43236 81.0385 10.8296 79.0203 10.8296C77.0021 10.8296 75.6049 9.27712 75.6049 7.41416C75.6049 5.39596 77.0021 3.99875 79.0203 3.99875Z" fill="#293E40"/>
<path d="M81.8147 13.4686H76.3811V33.4954H81.8147V13.4686Z" fill="#293E40"/>
<path fill-rule="evenodd" clip-rule="evenodd" d="M103.86 29.3006C101.531 32.4055 98.5813 33.8027 94.8554 33.8027C88.6455 33.8027 84.1434 29.1454 84.1434 23.4013C84.1434 17.5019 88.8008 12.9998 94.8554 12.9998C98.426 12.9998 101.376 14.7075 103.239 17.0362L99.668 20.2963C98.5813 18.8991 97.0288 17.9676 95.1658 17.9676C92.0609 17.9676 89.7322 20.4516 89.7322 23.4013C89.7322 26.5062 91.9057 28.8349 95.1658 28.8349C97.3393 28.8349 99.047 27.5929 99.9785 26.1957L103.86 29.3006Z" fill="#293E40"/>
<path fill-rule="evenodd" clip-rule="evenodd" d="M123.265 30.2321C121.247 32.5608 118.142 33.8027 115.037 33.8027C109.138 33.8027 104.636 29.7663 104.636 23.4013C104.636 17.8124 108.362 12.9998 114.416 12.9998C119.85 12.9998 123.886 17.6571 123.886 23.246C123.886 23.867 123.886 24.3327 123.731 24.7985H109.759C110.069 27.5929 112.398 29.6111 115.193 29.6111C117.366 29.6111 119.229 28.3691 120.16 27.2824L123.265 30.2321ZM118.298 20.9173C118.142 19.2096 116.59 17.3466 114.261 17.3466C112.088 17.3466 110.225 19.0544 109.914 20.9173H118.298Z" fill="#293E40"/>
<path fill-rule="evenodd" clip-rule="evenodd" d="M125.905 33.4922V13.4655H131.028V15.1732C132.58 13.9312 134.443 13.155 136.617 13.155C139.411 13.155 141.895 14.397 143.603 16.4152C144.845 17.9676 145.776 19.9858 145.776 23.4012V33.6475H140.342V22.9355C140.342 20.9173 139.877 19.8306 139.101 19.2096C138.324 18.4334 137.393 17.9676 135.996 17.9676C133.822 17.9676 131.959 19.3648 131.028 20.4516V33.4922H125.905Z" fill="#293E40"/>
<path fill-rule="evenodd" clip-rule="evenodd" d="M159.593 13.0029C153.073 13.0029 147.95 18.126 147.95 24.6463C147.95 28.0617 149.347 31.1666 151.52 33.3401C152.296 34.1163 153.694 34.1163 154.625 33.4953C155.867 32.4086 157.73 31.7876 159.593 31.7876C161.611 31.7876 163.164 32.4086 164.561 33.4953C165.492 34.2716 166.734 34.1163 167.666 33.1848C169.839 31.0114 171.236 28.0617 171.236 24.6463C171.081 18.2812 165.958 13.0029 159.593 13.0029ZM159.438 30.7009C155.867 30.7009 153.538 28.0617 153.538 24.8016C153.538 21.5414 155.867 18.9022 159.438 18.9022C163.008 18.9022 165.337 21.5414 165.337 24.8016C165.337 28.0617 163.008 30.7009 159.438 30.7009Z" fill="#81B5A1"/>
<path fill-rule="evenodd" clip-rule="evenodd" d="M169.839 13.4687H175.118L179.465 24.9569L183.811 13.4687H188.314L192.505 24.9569L196.852 13.4687H202.286L194.368 33.4955H190.332L185.985 22.1625L181.793 33.4955H177.757L169.839 13.4687Z" fill="#293E40"/>
</g>
<defs>
<clipPath id="clip0">
<rect width="202" height="40" fill="white"/>
</clipPath>
</defs>
</svg>
