<svg width="209" height="40" viewBox="0 0 209 40" fill="none" xmlns="http://www.w3.org/2000/svg">
<path d="M25.9332 35.8337C25.9328 36.3723 25.7187 36.8886 25.3379 37.2694C24.9571 37.6502 24.4407 37.8644 23.9022 37.8648H2.23044C1.6919 37.8648 1.17537 37.6511 0.794258 37.2706C0.413148 36.8901 0.198612 36.3739 0.197755 35.8353V4.11508C0.197542 3.84809 0.249973 3.58367 0.35205 3.33696C0.454126 3.09024 0.603845 2.86608 0.792639 2.67728C0.981434 2.48849 1.2056 2.33877 1.45231 2.23669C1.69903 2.13462 1.96344 2.08219 2.23044 2.0824H16.1388L25.9332 12.071V35.8337Z" fill="#23A566"/>
<path d="M17.2167 11.8105L25.9333 20.1419V12.0128H18.212C17.8749 12.0166 17.5426 11.9329 17.2474 11.77L17.2167 11.8105Z" fill="#1C8F5A"/>
<path d="M25.9332 12.0549H18.1909C17.6524 12.0544 17.136 11.8403 16.7552 11.4595C16.3744 11.0787 16.1603 10.5623 16.1599 10.0238V2.02737L25.9332 12.0549Z" fill="#8ED1B1"/>
<path fill-rule="evenodd" clip-rule="evenodd" d="M19.7365 31.2683H6.34436V19.6564H19.7365V31.2683ZM13.8731 21.3314V23.3641H18.0906V21.3346L13.8731 21.3314ZM13.8731 24.6442V26.5863H18.0906V24.6345L13.8731 24.6442ZM13.8731 27.8243V29.6224H18.0906V27.8146L13.8731 27.8243ZM12.2175 29.6127V27.8146H8.00158V29.6127H12.2175ZM12.2175 26.5652V24.6345H8.00158V26.575L12.2175 26.5652ZM12.2175 23.3851V21.3314H8.00158V23.3641L12.2175 23.3851Z" fill="white"/>
<path d="M71.7561 22.9833C71.7561 20.436 69.8367 18.6946 67.6082 18.6946C65.3797 18.6946 63.4586 20.436 63.4586 22.9833C63.4586 25.5047 65.3797 27.272 67.6082 27.272C69.8367 27.272 71.7561 25.5015 71.7561 22.9833ZM74.9864 22.9833C74.9864 27.0584 71.6735 30.0621 67.6065 30.0621C63.5412 30.0621 60.2283 27.0584 60.2283 22.9833C60.2283 18.8791 63.5412 15.9045 67.6082 15.9045C71.6735 15.9045 74.9864 18.8791 74.9864 22.9833ZM87.6728 22.9833C87.6728 20.436 85.7534 18.6946 83.5249 18.6946C81.2964 18.6946 79.377 20.436 79.377 22.9833C79.377 25.5047 81.2964 27.272 83.5249 27.272C85.7534 27.272 87.6728 25.5015 87.6728 22.9833ZM90.9031 22.9833C90.9031 27.0584 87.5903 30.0621 83.5249 30.0621C79.4596 30.0621 76.1451 27.0584 76.1451 22.9833C76.1451 18.8823 79.4596 15.9045 83.5249 15.9045C87.5903 15.9045 90.9047 18.8791 90.9047 22.9833H90.9031ZM103.321 23.0076C103.321 20.5153 101.593 18.693 99.3948 18.693C97.1646 18.693 95.2986 20.5153 95.2986 23.0076C95.2986 25.4756 97.1646 27.272 99.3931 27.272C101.593 27.272 103.321 25.4756 103.321 23.0092V23.0076ZM106.16 16.3317V29.0409C106.16 34.2683 102.955 36.4045 99.1682 36.4045C97.7918 36.427 96.4393 36.0432 95.2798 35.3011C94.1204 34.559 93.2054 33.4916 92.6494 32.2323L95.4605 31.1059C95.9622 32.2582 97.1889 33.6177 99.1666 33.6177C101.589 33.6177 103.091 32.1773 103.091 29.4681V28.4486H102.978C102.256 29.3079 100.863 30.0588 99.1051 30.0588C95.4281 30.0588 92.0586 26.9758 92.0586 23.0092C92.0586 19.0118 95.4281 15.9045 99.1051 15.9045C100.859 15.9045 102.253 16.6538 102.979 17.4873H103.093V16.335H106.16V16.3317ZM111.217 8.87911H108.066V29.6267H111.215L111.217 8.87911ZM115.776 22.7632L122.35 20.1366C121.989 19.2513 120.9 18.6363 119.621 18.6363C117.979 18.6363 115.693 20.0314 115.776 22.7632ZM123.494 25.3089L126.001 26.9176C125.311 27.8991 124.393 28.6978 123.325 29.2446C122.257 29.7914 121.072 30.0697 119.872 30.0556C115.693 30.0556 112.573 26.9483 112.573 22.9768C112.573 18.7674 115.721 15.898 119.511 15.898C123.327 15.898 125.195 18.8208 125.807 20.4004L126.14 21.2047L116.307 25.1244C117.059 26.5453 118.231 27.2688 119.872 27.2688C121.518 27.2688 122.657 26.4919 123.494 25.3105V25.3089ZM48.3025 21.1383V18.1346H58.8187C58.9207 18.6574 58.9741 19.2772 58.9741 19.9472C58.9741 22.2 58.3348 24.9868 56.2714 26.971C54.2646 28.9826 51.7011 30.0556 48.3057 30.0556C42.0102 30.0556 36.7181 25.1196 36.7181 19.0636C36.7181 13.0076 42.0102 8.07153 48.3057 8.07153C51.7885 8.07153 54.2679 9.38566 56.1322 11.0995L53.9312 13.2196C52.5944 12.0123 50.7835 11.0752 48.3025 11.0752C43.7063 11.0752 40.1119 14.6389 40.1119 19.0636C40.1119 23.4882 43.7063 27.0519 48.3025 27.0519C51.2836 27.0519 52.9812 25.8996 54.0688 24.8525C54.9524 24.0029 55.5318 22.7907 55.7616 21.1351L48.3025 21.1383ZM145.046 25.2684C145.046 26.9079 144.444 28.2252 143.242 29.2189C142.02 30.1964 140.539 30.6852 138.794 30.6852C137.241 30.6852 135.873 30.232 134.687 29.3241C133.501 28.4178 132.68 27.1781 132.227 25.6083L134.53 24.668C134.687 25.2247 134.904 25.7313 135.184 26.1844C135.462 26.6376 135.786 27.0309 136.151 27.3626C136.535 27.6766 136.954 27.9291 137.407 28.12C137.86 28.2948 138.339 28.3822 138.846 28.3822C139.945 28.3822 140.843 28.1038 141.541 27.5455C142.238 26.9694 142.588 26.2103 142.588 25.2684C142.588 24.4835 142.3 23.8119 141.723 23.2552C141.183 22.7146 140.171 22.1903 138.689 21.6853C137.189 21.1448 136.257 20.7791 135.889 20.5848C133.902 19.575 132.907 18.0828 132.907 16.1116C132.907 14.7344 133.457 13.5578 134.556 12.5803C135.672 11.6045 137.042 11.1157 138.663 11.1157C140.094 11.1157 141.332 11.4815 142.377 12.2146C143.424 12.9299 144.122 13.8281 144.472 14.9092L142.222 15.8511C142.01 15.1499 141.567 14.5413 140.964 14.1243C140.354 13.6533 139.605 13.417 138.715 13.417C137.773 13.417 136.98 13.6792 136.336 14.202C135.689 14.6907 135.365 15.3267 135.365 16.1116C135.365 16.759 135.619 17.3157 136.126 17.7867C136.684 18.256 137.896 18.816 139.762 19.4617C141.662 20.1058 143.015 20.9004 143.816 21.8407C144.637 22.7664 145.046 23.909 145.046 25.2684V25.2684ZM147.525 11.5332H149.932V17.4468L149.827 19.227H149.932C150.298 18.5975 150.856 18.0747 151.607 17.6572C152.334 17.2486 153.153 17.032 153.988 17.0277C155.556 17.0277 156.76 17.4808 157.597 18.3871C158.451 19.2772 158.878 20.5509 158.878 22.2065V30.266H156.472V22.679C156.472 20.3761 155.452 19.2254 153.411 19.2254C152.434 19.2254 151.607 19.6349 150.926 20.4554C150.266 21.2477 149.914 22.2505 149.932 23.2811V30.266H147.525V11.5332ZM167.461 30.6852C165.577 30.6852 164.025 30.0378 162.803 28.748C161.583 27.4581 160.973 25.8268 160.973 23.8556C160.973 21.9022 161.565 20.2806 162.751 18.9907C163.937 17.6815 165.454 17.0277 167.304 17.0277C169.204 17.0277 170.714 17.6475 171.829 18.8855C172.963 20.1058 173.53 21.8245 173.53 24.0385L173.504 24.3007H163.431C163.466 25.5565 163.884 26.568 164.687 27.3351C165.489 28.1022 166.449 28.4874 167.564 28.4874C169.1 28.4874 170.302 27.7203 171.175 26.1844L173.321 27.2315C172.771 28.2851 171.937 29.164 170.914 29.7692C169.901 30.3793 168.75 30.6852 167.461 30.6852V30.6852ZM163.614 22.3133H170.966C170.941 21.8917 170.83 21.4797 170.641 21.102C170.453 20.7243 170.189 20.3887 169.867 20.1155C169.221 19.5216 168.349 19.2254 167.25 19.2254C166.344 19.2254 165.559 19.5038 164.895 20.0621C164.251 20.6205 163.824 21.3714 163.614 22.3117V22.3133ZM181.615 30.6852C179.731 30.6852 178.178 30.0378 176.957 28.748C175.737 27.4581 175.125 25.8268 175.125 23.8556C175.125 21.9022 175.719 20.2806 176.905 18.9907C178.092 17.6815 179.608 17.0277 181.458 17.0277C183.358 17.0277 184.866 17.6475 185.983 18.8855C187.117 20.1058 187.684 21.8245 187.684 24.0385L187.658 24.3007H177.585C177.621 25.5565 178.038 26.568 178.841 27.3351C179.644 28.1022 180.602 28.4874 181.719 28.4874C183.254 28.4874 184.457 27.7203 185.329 26.1844L187.475 27.2315C186.925 28.2855 186.091 29.1645 185.067 29.7692C184.055 30.3793 182.905 30.6852 181.615 30.6852V30.6852ZM177.768 22.3133H185.12C185.095 21.8917 184.985 21.4797 184.796 21.102C184.607 20.7243 184.344 20.3887 184.021 20.1155C183.376 19.5216 182.503 19.2254 181.405 19.2254C180.498 19.2254 179.713 19.5038 179.05 20.0621C178.406 20.6205 177.977 21.3714 177.768 22.3117V22.3133ZM194.577 30.4748C193.531 30.4748 192.659 30.1511 191.961 29.507C191.28 28.8612 190.932 27.963 190.914 26.8124V19.6429H188.665V17.4468H190.914V13.5222H193.321V17.4468H196.46V19.6446H193.321V26.0275C193.321 26.882 193.487 27.4678 193.819 27.7802C194.149 28.0763 194.525 28.2252 194.944 28.2252C195.135 28.2252 195.318 28.209 195.493 28.1734C195.685 28.12 195.858 28.0601 196.015 27.9906L196.774 30.1349C196.146 30.3615 195.415 30.4748 194.577 30.4748V30.4748ZM208.817 26.7072C208.817 27.8239 208.328 28.7658 207.352 29.5329C206.375 30.3 205.145 30.6852 203.662 30.6852C202.372 30.6852 201.238 30.3534 200.262 29.6899C199.306 29.0372 198.575 28.1051 198.169 27.0211L200.314 26.1068C200.628 26.8739 201.081 27.4759 201.675 27.9113C202.285 28.3304 202.947 28.5392 203.662 28.5392C204.431 28.5392 205.067 28.3741 205.572 28.0423C206.096 27.7106 206.357 27.3189 206.357 26.8642C206.357 26.0453 205.729 25.4432 204.473 25.0597L202.277 24.5094C199.781 23.8831 198.535 22.679 198.535 20.9004C198.535 19.732 199.006 18.7982 199.948 18.1006C200.908 17.3853 202.128 17.0277 203.61 17.0277C204.743 17.0277 205.764 17.2979 206.671 17.8385C207.596 18.379 208.241 19.104 208.608 20.0103L206.462 20.9004C206.215 20.357 205.79 19.914 205.258 19.6446C204.701 19.3263 204.069 19.1636 203.427 19.1736C202.8 19.1736 202.233 19.3306 201.727 19.6429C201.238 19.9585 200.993 20.3421 200.993 20.7952C200.993 21.5284 201.683 22.0511 203.062 22.3651L204.997 22.8619C207.543 23.4898 208.817 24.7716 208.817 26.7072V26.7072Z" fill="#787879"/>
</svg>
