<svg width="140" height="40" viewBox="0 0 140 40" fill="none" xmlns="http://www.w3.org/2000/svg">
<path fill-rule="evenodd" clip-rule="evenodd" d="M24.9443 5.67242H3.58976C1.75269 5.67242 0.262753 7.16035 0.26025 8.99742V30.3205C0.256698 31.2059 0.605901 32.0562 1.23069 32.6835C1.85548 33.3108 2.70439 33.6635 3.58976 33.6635H24.9443C25.8288 33.6623 26.6766 33.3091 27.3004 32.6819C27.9242 32.0547 28.2728 31.2051 28.2693 30.3205V8.99742C28.2668 7.1621 26.7796 5.6749 24.9443 5.67242V5.67242ZM12.3398 25.8333C12.3386 26.1292 12.2196 26.4125 12.0091 26.6205C11.7986 26.8285 11.5139 26.944 11.218 26.9417H6.5513C5.94094 26.9392 5.44746 26.4437 5.44746 25.8333V11.9455C5.44746 11.3351 5.94094 10.8396 6.5513 10.8372H11.218C11.8291 10.8396 12.3238 11.3344 12.3263 11.9455L12.3398 25.8333ZM23.109 19.457C23.109 19.7533 22.9904 20.0373 22.7796 20.2455C22.5689 20.4538 22.2835 20.569 21.9872 20.5655H17.3205C16.7094 20.5629 16.2147 20.0681 16.2122 19.457V11.9455C16.2147 11.3344 16.7094 10.8396 17.3205 10.8372H21.9872C22.5976 10.8396 23.091 11.3351 23.091 11.9455L23.109 19.457Z" fill="url(#paint0_linear)"/>
<path d="M58.2975 7.72305V13.1346H51.8853V33.6634H45.7019V13.1346H39.2898V7.72305H58.2975Z" fill="#293856"/>
<path d="M66.168 33.6634H60.4513V13.4711H66.168V17.3391C67.2539 14.6154 68.9904 12.9955 72.0821 13.1929V19.1743C68.0436 18.8602 66.168 19.8474 66.168 23.0827V33.6634Z" fill="#293856"/>
<path d="M103.313 33.8205C99.5661 33.8205 97.2103 32.0256 97.2103 27.7808V5.67242H102.967V26.991C102.967 28.216 103.775 28.6513 104.762 28.6513C105.047 28.657 105.332 28.6435 105.615 28.6109V33.5872C104.862 33.7706 104.087 33.8491 103.313 33.8205V33.8205Z" fill="#293856"/>
<path d="M115.321 33.8205C111.574 33.8205 109.213 32.0256 109.213 27.7808V5.67242H114.971V26.991C114.971 28.216 115.783 28.6513 116.788 28.6513C117.071 28.6572 117.354 28.6437 117.636 28.6109V33.5872C116.879 33.7724 116.099 33.8509 115.321 33.8205V33.8205Z" fill="#293856"/>
<path d="M120.396 23.5583C120.396 17.3212 123.985 13.0538 130.169 13.0538C136.352 13.0538 139.865 17.3077 139.865 23.5583C139.865 29.809 136.312 34.1391 130.169 34.1391C124.026 34.1391 120.396 29.7551 120.396 23.5583V23.5583ZM126 23.5583C126 26.5962 127.274 29.0058 130.169 29.0058C133.063 29.0058 134.265 26.5962 134.265 23.5583C134.265 20.5205 133.031 18.1737 130.169 18.1737C127.306 18.1737 126 20.516 126 23.5583Z" fill="#293856"/>
<path d="M79.8 25.3846C81.4006 25.5605 83.0091 25.6548 84.6193 25.6673C88.9988 25.6673 92.6962 24.4917 92.6962 20.2513C92.6962 16.1365 88.8956 13.0449 84.3231 13.0449C78.1667 13.0449 74.2225 17.5096 74.2225 23.7468C74.2225 30.2218 77.6238 34.0673 85.3103 34.0673C87.5906 34.0859 89.8546 33.6811 91.9872 32.8737V28.0365C90.0129 28.6692 87.7917 29.2974 85.5122 29.2974C82.452 29.2974 80.3205 28.2923 79.8 25.3846V25.3846ZM84.2065 17.4513C85.8263 17.4513 87.1276 18.5506 87.1276 20.0538C87.1276 21.9878 85.0859 22.5936 82.7347 22.5936C81.734 22.589 80.735 22.5095 79.7462 22.3558C79.8209 21.4129 80.0914 20.4959 80.5404 19.6635C81.274 18.32 82.6759 17.4775 84.2065 17.4602V17.4513Z" fill="#293856"/>
<defs>
<linearGradient id="paint0_linear" x1="14.2782" y1="33.6635" x2="14.2782" y2="5.67242" gradientUnits="userSpaceOnUse">
<stop stop-color="#0052CC"/>
<stop offset="1" stop-color="#2684FF"/>
</linearGradient>
</defs>
</svg>
