<?xml version="1.0" encoding="UTF-8"?>
<svg xmlns="http://www.w3.org/2000/svg" xmlns:xlink="http://www.w3.org/1999/xlink" width="293px" height="83px" viewBox="0 0 291 83" version="1.1">
<g id="surface1">
<path style=" stroke:none;fill-rule:nonzero;fill:rgb(97.647059%,98.823529%,96.078431%);fill-opacity:1;" d="M 69.898438 41.5 C 69.898438 60.46875 54.570312 75.84375 35.660156 75.84375 C 16.753906 75.84375 1.425781 60.46875 1.425781 41.5 C 1.425781 22.53125 16.753906 7.15625 35.660156 7.15625 C 54.570312 7.15625 69.898438 22.53125 69.898438 41.5 Z M 69.898438 41.5 "/>
<path style=" stroke:none;fill-rule:evenodd;fill:rgb(56.470588%,79.215686%,18.431373%);fill-opacity:1;" d="M 35.660156 8.585938 C 17.542969 8.585938 2.851562 23.324219 2.851562 41.5 C 2.851562 59.675781 17.542969 74.414062 35.660156 74.414062 C 53.78125 74.414062 68.46875 59.675781 68.46875 41.5 C 68.46875 23.324219 53.78125 8.585938 35.660156 8.585938 Z M 0 41.5 C 0 21.742188 15.964844 5.722656 35.660156 5.722656 C 55.355469 5.722656 71.324219 21.742188 71.324219 41.5 C 71.324219 61.257812 55.355469 77.277344 35.660156 77.277344 C 15.964844 77.277344 0 61.257812 0 41.5 Z M 0 41.5 "/>
<path style=" stroke:none;fill-rule:nonzero;fill:rgb(56.470588%,79.215686%,18.431373%);fill-opacity:1;" d="M 26.339844 55.808594 L 26.339844 26.667969 L 36.496094 26.667969 C 38.519531 26.667969 40.1875 27.019531 41.503906 27.722656 C 42.816406 28.414062 43.796875 29.347656 44.4375 30.527344 C 45.082031 31.691406 45.402344 32.988281 45.402344 34.410156 C 45.402344 35.660156 45.183594 36.695312 44.738281 37.511719 C 44.300781 38.328125 43.726562 38.972656 43.007812 39.445312 C 42.296875 39.921875 41.527344 40.273438 40.695312 40.5 L 40.695312 40.785156 C 41.582031 40.839844 42.476562 41.15625 43.375 41.722656 C 44.273438 42.292969 45.027344 43.109375 45.628906 44.171875 C 46.234375 45.234375 46.539062 46.53125 46.539062 48.070312 C 46.539062 49.53125 46.207031 50.84375 45.546875 52.011719 C 44.882812 53.179688 43.839844 54.101562 42.410156 54.785156 C 40.984375 55.46875 39.125 55.808594 36.835938 55.808594 Z M 29.859375 52.679688 L 36.835938 52.679688 C 39.136719 52.679688 40.765625 52.234375 41.730469 51.34375 C 42.703125 50.441406 43.191406 49.351562 43.191406 48.070312 C 43.191406 47.082031 42.941406 46.171875 42.441406 45.335938 C 41.9375 44.492188 41.222656 43.820312 40.296875 43.316406 C 39.371094 42.804688 38.273438 42.546875 37.007812 42.546875 L 29.859375 42.546875 Z M 29.859375 39.476562 L 36.382812 39.476562 C 37.441406 39.476562 38.398438 39.265625 39.25 38.847656 C 40.109375 38.433594 40.789062 37.84375 41.289062 37.085938 C 41.800781 36.324219 42.054688 35.433594 42.054688 34.410156 C 42.054688 33.128906 41.613281 32.042969 40.722656 31.152344 C 39.835938 30.25 38.425781 29.800781 36.496094 29.800781 L 29.859375 29.800781 Z M 29.859375 39.476562 "/>
<path style=" stroke:none;fill-rule:nonzero;fill:rgb(56.470588%,79.215686%,18.431373%);fill-opacity:1;" d="M 99.429688 65.828125 L 105.753906 65.828125 L 127.929688 21.53125 L 127.929688 15.871094 L 96.027344 15.871094 L 96.027344 21.238281 L 121.703125 21.238281 L 121.703125 21.628906 Z M 139.886719 65.828125 L 146.207031 65.828125 L 168.382812 21.53125 L 168.382812 15.871094 L 136.480469 15.871094 L 136.480469 21.238281 L 162.160156 21.238281 L 162.160156 21.628906 Z M 192.617188 66.511719 C 203.609375 66.511719 209.929688 57.167969 209.929688 40.847656 C 209.929688 24.652344 203.511719 15.1875 192.617188 15.1875 C 181.726562 15.1875 175.304688 24.652344 175.304688 40.847656 C 175.304688 57.167969 181.628906 66.511719 192.617188 66.511719 Z M 192.617188 61.144531 C 185.371094 61.144531 181.140625 53.851562 181.140625 40.847656 C 181.140625 27.871094 185.421875 20.457031 192.617188 20.457031 C 199.816406 20.457031 204.09375 27.871094 204.09375 40.847656 C 204.09375 53.851562 199.863281 61.144531 192.617188 61.144531 Z M 192.617188 61.144531 "/>
<path style=" stroke:none;fill-rule:nonzero;fill:rgb(36.470588%,39.607843%,59.607843%);fill-opacity:1;" d="M 235.378906 44.785156 L 233.410156 44.785156 L 227.390625 67.214844 L 229.363281 67.214844 Z M 251.058594 45.40625 C 247.265625 45.359375 244.824219 48.222656 244.824219 51.664062 C 244.824219 55.285156 247.488281 57.882812 250.695312 57.882812 C 252.628906 57.882812 254.269531 56.933594 255.292969 55.394531 L 255.4375 55.394531 C 255.4375 60.003906 253.652344 62.640625 250.769531 62.640625 C 248.800781 62.640625 247.59375 61.394531 247.195312 59.675781 L 244.96875 59.675781 C 245.40625 62.640625 247.632812 64.652344 250.769531 64.652344 C 254.964844 64.652344 257.550781 60.921875 257.550781 54.261719 C 257.550781 47.382812 254.125 45.445312 251.058594 45.40625 Z M 251.058594 47.417969 C 253.394531 47.417969 255.109375 49.433594 255.109375 51.628906 C 255.109375 53.859375 253.285156 55.871094 250.988281 55.871094 C 248.691406 55.871094 247.011719 54.003906 247.011719 51.664062 C 247.011719 49.320312 248.761719 47.417969 251.058594 47.417969 Z M 266.972656 64.652344 C 270.53125 64.652344 273.136719 62.019531 273.136719 58.433594 C 273.136719 54.800781 270.621094 52.140625 267.191406 52.140625 C 265.933594 52.140625 264.714844 52.585938 263.945312 53.199219 L 263.835938 53.199219 L 264.492188 47.675781 L 272.300781 47.675781 L 272.300781 45.664062 L 262.597656 45.664062 L 261.464844 54.882812 L 263.582031 55.140625 C 264.355469 54.582031 265.679688 54.179688 266.828125 54.1875 C 269.207031 54.207031 270.949219 56.019531 270.949219 58.46875 C 270.949219 60.875 269.273438 62.640625 266.972656 62.640625 C 265.058594 62.640625 263.535156 61.40625 263.363281 59.714844 L 261.175781 59.714844 C 261.3125 62.566406 263.765625 64.652344 266.972656 64.652344 Z M 282.851562 64.652344 C 286.972656 64.652344 289.34375 61.148438 289.34375 55.03125 C 289.34375 48.957031 286.9375 45.40625 282.851562 45.40625 C 278.765625 45.40625 276.359375 48.957031 276.359375 55.03125 C 276.359375 61.148438 278.730469 64.652344 282.851562 64.652344 Z M 282.851562 62.640625 C 280.132812 62.640625 278.546875 59.90625 278.546875 55.03125 C 278.546875 50.164062 280.152344 47.382812 282.851562 47.382812 C 285.550781 47.382812 287.152344 50.164062 287.152344 55.03125 C 287.152344 59.90625 285.566406 62.640625 282.851562 62.640625 Z M 282.851562 62.640625 "/>
</g>
</svg>
