<svg width="209" height="58" viewBox="0 0 209 58" fill="none" xmlns="http://www.w3.org/2000/svg">
<path d="M49 29C49 42.2548 38.2548 53 25 53C11.7452 53 1 42.2548 1 29C1 15.7452 11.7452 5 25 5C38.2548 5 49 15.7452 49 29Z" fill="#F4FBF7"/>
<path fill-rule="evenodd" clip-rule="evenodd" d="M25 6C12.2975 6 2 16.2975 2 29C2 41.7025 12.2975 52 25 52C37.7025 52 48 41.7025 48 29C48 16.2975 37.7025 6 25 6ZM0 29C0 15.1929 11.1929 4 25 4C38.8071 4 50 15.1929 50 29C50 42.8071 38.8071 54 25 54C11.1929 54 0 42.8071 0 29Z" fill="#20AF5D"/>
<path d="M18.5852 39.0001H16L23.4773 18.6365H26.0227L33.5 39.0001H30.9148L24.8295 21.8581H24.6705L18.5852 39.0001ZM19.5398 31.0456H29.9602V33.2331H19.5398V31.0456Z" fill="#20AF5D"/>
<path d="M79.7273 10.6136C72.6364 10.5284 68.0682 15.8636 68.0682 22.2727C68.0682 29.0227 73.0455 33.8636 79.0455 33.8636C82.6591 33.8636 85.7273 32.0909 87.6364 29.2273H87.9091C87.9091 37.8182 84.5682 42.7273 79.1818 42.7273C75.5 42.7273 73.25 40.4091 72.5 37.2045H68.3409C69.1591 42.7273 73.3182 46.4773 79.1818 46.4773C87.0227 46.4773 91.8636 39.5227 91.8636 27.1136C91.8636 14.2955 85.4545 10.6818 79.7273 10.6136ZM79.7273 14.3636C84.0909 14.3636 87.2955 18.1136 87.2955 22.2045C87.2955 26.3636 83.8864 30.1136 79.5909 30.1136C75.2955 30.1136 72.1591 26.6364 72.1591 22.2727C72.1591 17.9091 75.4318 14.3636 79.7273 14.3636ZM109.953 46.4773C117.658 46.4773 122.089 39.9489 122.089 28.5455C122.089 17.2273 117.589 10.6136 109.953 10.6136C102.317 10.6136 97.8168 17.2273 97.8168 28.5455C97.8168 39.9489 102.249 46.4773 109.953 46.4773ZM109.953 42.7273C104.874 42.7273 101.908 37.6307 101.908 28.5455C101.908 19.4773 104.908 14.2955 109.953 14.2955C114.999 14.2955 117.999 19.4773 117.999 28.5455C117.999 37.6307 115.033 42.7273 109.953 42.7273ZM140.362 46.4773C147.129 46.4773 152.158 42.233 152.158 36.5227C152.158 32.0909 149.533 28.8693 145.135 28.1364V27.8636C148.663 26.7898 150.862 23.892 150.862 19.9545C150.862 15.0114 146.959 10.6136 140.499 10.6136C134.464 10.6136 129.453 14.3295 129.249 19.8182H133.339C133.493 16.3409 136.8 14.2955 140.43 14.2955C144.283 14.2955 146.771 16.6307 146.771 20.1591C146.771 23.8409 143.891 26.2273 139.749 26.2273H136.953V29.9773H139.749C145.05 29.9773 147.999 32.6705 147.999 36.5227C147.999 40.2216 144.777 42.7273 140.294 42.7273C136.254 42.7273 133.05 40.6477 132.794 37.2727H128.499C128.754 42.7614 133.595 46.4773 140.362 46.4773Z" fill="#20AF5D"/>
<path d="M170.009 31.2955H168.628L164.409 46.9688H165.79L170.009 31.2955ZM181.001 31.7301C178.342 31.6982 176.629 33.6989 176.629 36.1023C176.629 38.6335 178.496 40.4489 180.746 40.4489C182.101 40.4489 183.251 39.7841 183.967 38.7102H184.069C184.069 41.9318 182.817 43.7727 180.797 43.7727C179.416 43.7727 178.572 42.9034 178.291 41.7017H176.731C177.038 43.7727 178.598 45.179 180.797 45.179C183.737 45.179 185.552 42.571 185.552 37.9176C185.552 33.1108 183.149 31.7557 181.001 31.7301ZM181.001 33.1364C182.638 33.1364 183.839 34.5426 183.839 36.0767C183.839 37.6364 182.561 39.0426 180.95 39.0426C179.339 39.0426 178.163 37.7386 178.163 36.1023C178.163 34.4659 179.39 33.1364 181.001 33.1364ZM192.157 45.179C194.65 45.179 196.478 43.3381 196.478 40.8324C196.478 38.2947 194.714 36.4347 192.31 36.4347C191.428 36.4347 190.572 36.7479 190.035 37.1761H189.958L190.418 33.3153H195.89V31.9091H189.089L188.296 38.3523L189.779 38.5312C190.322 38.1413 191.249 37.8601 192.055 37.8665C193.723 37.8793 194.944 39.1449 194.944 40.858C194.944 42.5391 193.768 43.7727 192.157 43.7727C190.815 43.7727 189.747 42.9098 189.626 41.7273H188.092C188.188 43.7216 189.907 45.179 192.157 45.179ZM203.287 45.179C206.176 45.179 207.838 42.7308 207.838 38.4545C207.838 34.2102 206.151 31.7301 203.287 31.7301C200.423 31.7301 198.736 34.2102 198.736 38.4545C198.736 42.7308 200.398 45.179 203.287 45.179ZM203.287 43.7727C201.382 43.7727 200.27 41.8615 200.27 38.4545C200.27 35.054 201.395 33.1108 203.287 33.1108C205.179 33.1108 206.304 35.054 206.304 38.4545C206.304 41.8615 205.192 43.7727 203.287 43.7727Z" fill="#5D6598"/>
</svg>
