<svg width="97" height="31" viewBox="0 0 97 31" fill="none" xmlns="http://www.w3.org/2000/svg">
<path fill-rule="evenodd" clip-rule="evenodd" d="M26.4987 25.3019C23.5349 28.1192 19.5875 29.6667 15.4987 29.6144C11.3895 29.6764 7.41916 28.1287 4.43617 25.3019C3.03263 23.9409 1.91675 22.3118 1.15471 20.5113C0.392667 18.7109 0 16.7757 0 14.8206C0 12.8656 0.392667 10.9304 1.15471 9.12994C1.91675 7.32949 3.03263 5.70043 4.43617 4.33939C7.41537 1.49587 11.3933 -0.0620707 15.5112 0.0018946C19.6 -0.0504199 23.5474 1.49714 26.5112 4.31439C27.9163 5.67453 29.0336 7.30331 29.7966 9.10388C30.5596 10.9045 30.9528 12.8401 30.9528 14.7956C30.9528 16.7512 30.5596 18.6868 29.7966 20.4874C29.0336 22.288 27.9163 23.9168 26.5112 25.2769L26.4987 25.3019ZM15.5112 4.82689C14.206 4.81428 12.9119 5.06621 11.7067 5.56749C10.5016 6.06878 9.41058 6.80902 8.49941 7.74355C7.58825 8.67808 6.87586 9.78752 6.40524 11.0049C5.93462 12.2223 5.71552 13.5225 5.76117 14.8269C5.76117 16.104 6.01272 17.3686 6.50145 18.5485C6.99017 19.7284 7.70651 20.8005 8.60956 21.7035C9.51261 22.6066 10.5847 23.3229 11.7646 23.8116C12.9445 24.3003 14.2091 24.5519 15.4862 24.5519C16.7633 24.5519 18.0279 24.3003 19.2078 23.8116C20.3877 23.3229 21.4597 22.6066 22.3628 21.7035C23.2658 20.8005 23.9822 19.7284 24.4709 18.5485C24.9596 17.3686 25.2112 16.104 25.2112 14.8269C25.2566 13.5267 25.0391 12.2308 24.5715 11.0167C24.104 9.80266 23.3961 8.69553 22.4902 7.7617C21.5844 6.82788 20.4994 6.08659 19.3001 5.58229C18.1009 5.07798 16.8121 4.82105 15.5112 4.82689V4.82689ZM63.0112 3.48939L51.1237 30.0019L50.4487 29.8769C47.0487 29.2644 46.3612 28.4144 44.7737 24.9644L35.8612 5.55189H32.5112V0.839395H45.1737V5.55189H42.1487L49.3112 21.6144L56.2612 5.55189H52.5112V0.839395H63.0112V3.48939ZM91.7612 25.3019C88.7591 28.0744 84.8227 29.6141 80.7362 29.6141C76.6497 29.6141 72.7133 28.0744 69.7112 25.3019C68.3077 23.9409 67.1918 22.3118 66.4297 20.5113C65.6677 18.7109 65.275 16.7757 65.275 14.8206C65.275 12.8656 65.6677 10.9304 66.4297 9.12994C67.1918 7.32949 68.3077 5.70043 69.7112 4.33939C72.7133 1.56688 76.6497 0.0272284 80.7362 0.0272284C84.8227 0.0272284 88.7591 1.56688 91.7612 4.33939C93.1694 5.69773 94.2895 7.32592 95.0545 9.12674C95.8195 10.9276 96.2138 12.8641 96.2138 14.8206C96.2138 16.7772 95.8195 18.7137 95.0545 20.5146C94.2895 22.3154 93.1694 23.9436 91.7612 25.3019ZM80.8237 4.82689C79.518 4.81435 78.2233 5.06623 77.0175 5.56738C75.8117 6.06852 74.7199 6.80855 73.8077 7.74289C72.8956 8.67723 72.182 9.78655 71.71 11.004C71.238 12.2215 71.0173 13.5219 71.0612 14.8269C71.0612 16.104 71.3127 17.3686 71.8015 18.5485C72.2902 19.7284 73.0065 20.8005 73.9096 21.7035C74.8126 22.6066 75.8847 23.3229 77.0646 23.8116C78.2445 24.3003 79.5091 24.5519 80.7862 24.5519C82.0633 24.5519 83.3279 24.3003 84.5078 23.8116C85.6877 23.3229 86.7598 22.6066 87.6628 21.7035C88.5659 20.8005 89.2822 19.7284 89.7709 18.5485C90.2597 17.3686 90.5112 16.104 90.5112 14.8269C90.5584 13.5273 90.3424 12.2316 89.8763 11.0176C89.4101 9.80364 88.7034 8.69638 87.7986 7.76237C86.8937 6.82836 85.8095 6.08686 84.6109 5.58242C83.4123 5.07797 82.1241 4.82098 80.8237 4.82689" fill="#06B3BA"/>
</svg>
