<svg width="53" height="72" viewBox="0 0 53 72" fill="none" xmlns="http://www.w3.org/2000/svg">
<path d="M19.9409 48.7588H17.0664V62.9058H19.9409V48.7588Z" fill="#BBC2CC"/>
<path d="M29.8506 50.5072C31.2783 50.5072 32.1766 50.8456 32.6872 51.137L32.8858 51.2498L33.5665 48.9562L33.4342 48.8904C32.7534 48.552 31.4107 48.1572 29.86 48.1572C27.6096 48.1572 25.6996 48.8904 24.3097 50.2816C22.967 51.6258 22.2295 53.534 22.2295 55.6584C22.2295 57.7828 22.9008 59.597 24.1679 60.8942C25.4443 62.2102 27.222 62.8964 29.3211 62.8964C31.1176 62.8964 32.6399 62.4358 33.3869 62.0504L33.5098 61.9846L32.9992 59.7662L32.8007 59.8508C32.0631 60.1704 31.1554 60.5182 29.7749 60.5182C27.0045 60.5182 25.1418 58.516 25.1418 55.5362C25.1418 54.1262 25.5767 52.8572 26.3521 51.9642C27.1841 51.0148 28.3944 50.5072 29.8506 50.5072Z" fill="#BBC2CC"/>
<path d="M40.9991 50.2815C41.9447 50.2815 42.7105 50.5729 43.2779 51.1369C44.1761 52.0393 44.3085 53.4023 44.318 53.9945H37.3399C37.5573 52.5281 38.5502 50.2815 40.9991 50.2815ZM45.9065 50.5071C44.8758 48.9561 43.2495 48.1289 41.1977 48.1289C39.2026 48.1289 37.5101 48.8997 36.2903 50.3473C35.1462 51.7197 34.5127 53.6279 34.5127 55.7429C34.5127 57.8579 35.1557 59.6439 36.3754 60.9129C37.6141 62.2101 39.3917 62.8963 41.5192 62.8963C43.7412 62.8963 45.2919 62.4075 46.2091 61.9939L46.3414 61.9375L45.8308 59.7943L45.6323 59.8789C44.7718 60.2455 43.7223 60.5745 41.8596 60.5745C40.5642 60.5745 39.4673 60.1985 38.6731 59.5029C37.8126 58.7321 37.3399 57.6041 37.2831 56.1471H47.0033L47.0317 55.8745C47.06 55.6113 47.1073 55.2541 47.1073 54.8029C47.1073 54.0509 46.9939 52.1333 45.9065 50.5071Z" fill="#BBC2CC"/>
<path d="M0 16V63H9.37031V58.9674H4.05637V20.042H43.3152V41.4082H47.277V16H0Z" fill="#BBC2CC"/>
<path d="M50.8037 48.7686C51.5696 48.7686 52.222 49.3608 52.222 50.1598C52.222 50.9681 51.5696 51.5603 50.8037 51.5603C50.0284 51.5603 49.376 50.9681 49.376 50.1598C49.376 49.3608 50.0378 48.7686 50.8037 48.7686ZM50.8037 49.0036C50.1513 49.0036 49.6502 49.5018 49.6502 50.1692C49.6502 50.8554 50.1513 51.3441 50.8037 51.3441C51.4467 51.3441 51.9478 50.8554 51.9478 50.1692C51.9573 49.5018 51.4467 49.0036 50.8037 49.0036ZM50.5106 50.9776H50.2648V49.3608H50.8888C51.2765 49.3608 51.4656 49.5018 51.4656 49.8214C51.4656 50.1128 51.286 50.235 51.0401 50.2632L51.5034 50.9682H51.2292L50.7943 50.2632H50.5106V50.9776ZM50.5106 50.0752H50.8037C51.1063 50.0752 51.2009 49.9906 51.2009 49.812C51.2009 49.6616 51.1252 49.5676 50.8416 49.5676H50.5012V50.0752H50.5106Z" fill="#BBC2CC"/>
</svg>
