<svg width="200" height="27" viewBox="0 0 200 27" fill="none" xmlns="http://www.w3.org/2000/svg">
<path d="M2.2 22.4121C2.65256 23.1051 3.29467 23.6561 4.05126 24.0005C4.77974 24.3363 5.57319 24.5107 6.37648 24.5117C6.83916 24.5092 7.29897 24.4395 7.74131 24.3049C8.19628 24.1714 8.62466 23.9611 9.00764 23.6832C9.38573 23.4096 9.70317 23.0618 9.9403 22.6615C10.1881 22.2332 10.3135 21.746 10.3029 21.2524C10.3237 20.9288 10.2693 20.6048 10.1437 20.3055C10.0181 20.0062 9.82479 19.7395 9.5787 19.5262C9.03947 19.0988 8.43268 18.7629 7.78292 18.532C7.06787 18.2653 6.28824 18.0075 5.44402 17.7585C4.62073 17.5198 3.83387 17.1715 3.10493 16.7231C2.37918 16.2704 1.76542 15.6616 1.30915 14.9416C0.782021 14.0224 0.530744 12.9729 0.584925 11.9168C0.616666 10.5653 1.1761 9.27877 2.14533 8.32842C2.74459 7.75468 3.44888 7.29987 4.2203 6.98847C5.18967 6.60671 6.22693 6.42364 7.26955 6.4503C8.31577 6.44607 9.3569 6.59482 10.3594 6.89176C11.3859 7.21609 12.2889 7.84213 12.9487 8.68694L10.7767 10.6478C10.4233 10.1156 9.93334 9.68634 9.35719 9.40437C8.71011 9.08393 7.99467 8.92306 7.27156 8.93539C6.64156 8.91712 6.01366 9.01565 5.4201 9.22591C4.97686 9.3883 4.5736 9.64253 4.23719 9.97166C3.95728 10.2481 3.74316 10.5831 3.61045 10.9521C3.49689 11.2622 3.43576 11.5889 3.42955 11.9188C3.40631 12.2693 3.45892 12.6206 3.58383 12.9493C3.70873 13.278 3.90306 13.5764 4.15377 13.8244C4.67892 14.292 5.28813 14.6573 5.94955 14.9012C6.71434 15.1937 7.4953 15.4427 8.28864 15.6471C9.10443 15.8566 9.89029 16.1674 10.6275 16.5723C11.3393 16.9665 11.9529 17.514 12.4233 18.1745C12.9496 19.0028 13.2027 19.9732 13.1475 20.9509C13.1609 21.8276 12.9752 22.6961 12.6042 23.492C12.2601 24.2238 11.7615 24.8737 11.1421 25.3976C10.5019 25.9286 9.76432 26.3317 8.96985 26.5848C8.10742 26.8656 7.20476 27.0057 6.29709 26.9996C5.06849 27.0061 3.84978 26.7814 2.70553 26.3376C1.62015 25.9343 0.678966 25.222 0 24.2902L2.2 22.4121Z" fill="#BBC2CC"/>
<path d="M30.1234 11.1702C29.5673 10.4527 28.8404 9.88322 28.0079 9.51281C27.179 9.13146 26.2765 8.93347 25.3628 8.93257C24.322 8.91748 23.2905 9.12974 22.3415 9.55429C21.4601 9.95449 20.6728 10.5331 20.0302 11.253C19.376 11.9936 18.8703 12.8514 18.5403 13.7801C18.1823 14.7774 18.0032 15.8291 18.0111 16.8877C18.0038 17.8847 18.1718 18.8753 18.5076 19.8151C18.8265 20.7109 19.3184 21.5366 19.9558 22.2457C20.5988 22.9547 21.3867 23.5197 22.267 23.9031C23.2416 24.3217 24.2951 24.5289 25.357 24.5111C26.393 24.5344 27.4181 24.2971 28.3367 23.8212C29.2013 23.3511 29.9447 22.6891 30.509 21.887L32.7634 23.5719C32.5228 23.8784 32.2624 24.1691 31.9837 24.4421C31.5428 24.8745 31.0518 25.2535 30.5208 25.5711C29.8244 25.9871 29.0814 26.3211 28.307 26.5663C27.3389 26.867 26.3284 27.0114 25.3142 26.994C23.8589 27.015 22.4175 26.712 21.0959 26.1073C19.3323 25.2806 17.8406 23.9755 16.7936 22.3429C15.7465 20.7103 15.1868 18.8169 15.1793 16.8819C15.1646 15.4528 15.4195 14.0335 15.9311 12.6974C16.4024 11.4648 17.1169 10.338 18.0328 9.38281C18.9491 8.44279 20.0543 7.70435 21.2768 7.21536C22.6041 6.68758 24.0234 6.42468 25.4533 6.44169C26.7657 6.44419 28.0653 6.69739 29.2812 7.18744C30.4996 7.65821 31.5645 8.45131 32.3602 9.48051L30.1234 11.1702Z" fill="#BBC2CC"/>
<path d="M35.3037 6.94385H37.9777V15.0637H48.196V6.94385H50.8689V26.4989H48.196V17.5496H37.9777V26.4989H35.3037V6.94385Z" fill="#BBC2CC"/>
<path d="M55.2393 6.9437H62.1719C63.2354 6.90941 64.2952 7.0832 65.2909 7.45515C66.025 7.73971 66.6859 8.18302 67.2256 8.75283C67.6885 9.25818 68.0268 9.8632 68.2139 10.5203C68.394 11.1352 68.488 11.7718 68.4931 12.4122C68.4948 13.0303 68.3817 13.6435 68.1595 14.2211C67.9384 14.8001 67.6129 15.3342 67.1989 15.7975C66.7642 16.2808 66.2458 16.683 65.6682 16.985C65.0418 17.3131 64.3557 17.514 63.6501 17.576L69.2461 26.4978H65.9046L60.8909 17.8804H57.9112V26.4988H55.2393V6.9437ZM57.912 15.5611H61.4202C61.9379 15.5613 62.4548 15.5199 62.9657 15.437C63.4439 15.3652 63.9057 15.2111 64.3305 14.9818C64.7328 14.7577 65.0651 14.428 65.2909 14.0289C65.5296 13.5233 65.6534 12.9718 65.6534 12.4136C65.6534 11.8553 65.5296 11.3038 65.2909 10.7982C65.0651 10.3991 64.7328 10.0694 64.3305 9.84533C63.9059 9.61571 63.4439 9.4617 62.9657 9.3903C62.4548 9.30734 61.9379 9.26579 61.4202 9.26608H57.9112L57.912 15.5611Z" fill="#BBC2CC"/>
<path d="M80.6051 26.9961C79.183 27.0114 77.7722 26.7434 76.4564 26.2079C75.2372 25.7126 74.1332 24.9749 73.2124 24.0402C72.3 23.1008 71.5813 21.9936 71.0968 20.7809C70.0758 18.1687 70.0758 15.2722 71.0968 12.66C71.5813 11.4473 72.3 10.3401 73.2124 9.40067C74.1334 8.46624 75.2374 7.72857 76.4564 7.23302C79.1208 6.18405 82.0885 6.18405 84.7529 7.23302C85.9717 7.72874 87.0756 8.46631 87.9967 9.40047C88.9089 10.3401 89.6275 11.4473 90.1123 12.66C91.1332 15.2722 91.1332 18.1687 90.1123 20.7809C89.6276 21.9935 88.909 23.1007 87.9967 24.0402C87.0758 24.9746 85.9718 25.7122 84.7529 26.2077C83.4371 26.7432 82.0263 27.0113 80.6041 26.9961H80.6051ZM80.6041 24.5102C81.6166 24.5283 82.6214 24.3333 83.5524 23.9381C84.4834 23.5429 85.3193 22.9564 86.0051 22.2173C86.6655 21.4996 87.1763 20.6595 87.508 19.7452C88.2133 17.7897 88.2133 15.652 87.508 13.6965C87.0984 12.5577 86.409 11.5383 85.5021 10.7306C84.5952 9.92284 83.4995 9.35226 82.3142 9.07053C81.1289 8.78879 79.8916 8.8048 78.7141 9.1171C77.5366 9.4294 76.4563 10.0281 75.571 10.8591C75.4441 10.9766 75.3214 11.0983 75.2029 11.2244C74.5421 11.9417 74.0313 12.7819 73.7002 13.6965C72.9949 15.652 72.9949 17.7897 73.7002 19.7452C74.0316 20.6596 74.5423 21.4998 75.2029 22.2173C75.8887 22.9564 76.7247 23.5429 77.6556 23.9381C78.5866 24.3333 79.5915 24.5283 80.6039 24.5102" fill="#BBC2CC"/>
<path d="M93.5791 6.94416H100.456C101.693 6.92361 102.926 7.08159 104.117 7.41314C105.087 7.68966 106.007 8.11341 106.846 8.66934C107.583 9.16261 108.232 9.77399 108.767 10.4785C109.257 11.1251 109.664 11.8302 109.978 12.5771C110.268 13.271 110.483 13.9933 110.619 14.732C110.744 15.3876 110.811 16.053 110.818 16.7202C110.82 17.9636 110.584 19.196 110.122 20.352C109.658 21.5215 108.957 22.5839 108.062 23.4734C107.094 24.4234 105.943 25.1704 104.679 25.6698C103.193 26.2481 101.606 26.5296 100.01 26.4983H93.5791V6.94416ZM96.2529 24.0134H99.6219C100.711 24.0197 101.794 23.8663 102.838 23.5581C103.805 23.2772 104.708 22.8128 105.497 22.1907C106.265 21.5748 106.883 20.796 107.307 19.9116C107.771 18.9122 107.999 17.8212 107.974 16.7212C107.959 15.9798 107.856 15.2428 107.668 14.525C107.45 13.6593 107.057 12.8465 106.513 12.1357C105.884 11.3291 105.08 10.6732 104.161 10.2163C102.945 9.64528 101.607 9.37484 100.263 9.42805H96.2529V24.0134Z" fill="#BBC2CC"/>
<path d="M113.961 6.94434H116.634V26.4994H113.961V6.94434Z" fill="#BBC2CC"/>
<path d="M121.005 6.94434H124.513L135.371 23.0194H135.428V6.94434H138.101V26.4994H134.704L123.734 10.4224H123.678V26.4974H121.005L121.005 6.94434Z" fill="#BBC2CC"/>
<path d="M159.261 15.562V25.2009C158.741 25.5134 158.191 25.7726 157.618 25.9745C156.994 26.1991 156.357 26.3879 155.711 26.54C155.051 26.6967 154.382 26.8119 153.707 26.885C153.074 26.9559 152.437 26.9927 151.8 26.9953C150.269 27.0217 148.748 26.7397 147.33 26.1666C146.098 25.6684 144.984 24.9212 144.059 23.9726C143.134 23.024 142.418 21.8948 141.957 20.6568C141.481 19.3986 141.24 18.0647 141.247 16.7207C141.234 15.3308 141.494 13.9517 142.012 12.6602C142.497 11.4474 143.216 10.3403 144.128 9.40084C145.049 8.46645 146.153 7.72884 147.372 7.23339C148.688 6.69785 150.099 6.42975 151.521 6.44497C153.035 6.39589 154.545 6.62541 155.975 7.12192C157.063 7.53249 158.05 8.16795 158.872 8.98609L156.978 11.002C156.246 10.2805 155.362 9.72871 154.389 9.38608C153.465 9.0801 152.496 8.92633 151.522 8.93086C150.509 8.91264 149.504 9.10757 148.573 9.50279C147.642 9.89802 146.806 10.4846 146.12 11.2237C145.459 11.941 144.948 12.7812 144.617 13.6959C144.26 14.6649 144.081 15.6893 144.088 16.7207C144.078 17.7754 144.277 18.8217 144.673 19.8006C145.044 20.7208 145.592 21.5604 146.287 22.2727C146.977 22.9745 147.8 23.5331 148.71 23.9162C149.67 24.3179 150.703 24.5191 151.745 24.5074C152.647 24.5118 153.548 24.4236 154.432 24.2442C155.186 24.1014 155.914 23.8452 156.59 23.4847V18.0439H152.22V15.558H159.263L159.261 15.562Z" fill="#BBC2CC"/>
<path d="M163.438 6.94385H176.162V9.42973H166.11V15.2567H175.466V17.7426H166.11V24.0121H176.663V26.4979H163.438L163.438 6.94385Z" fill="#BBC2CC"/>
<path d="M179.752 6.94369H186.685C187.748 6.90941 188.808 7.0832 189.803 7.45515C190.538 7.73958 191.198 8.18291 191.738 8.75283C192.201 9.25834 192.539 9.8633 192.727 10.5203C192.907 11.1352 193 11.7718 193.006 12.4122C193.007 13.0303 192.894 13.6435 192.672 14.2211C192.451 14.8 192.125 15.3342 191.712 15.7975C191.277 16.2808 190.758 16.6829 190.181 16.985C189.554 17.3131 188.868 17.514 188.163 17.576L193.759 26.4978H190.417L185.406 17.8794H182.426V26.4978H179.752V6.94369ZM182.426 15.561H185.934C186.451 15.5613 186.968 15.5199 187.479 15.437C187.957 15.3652 188.419 15.2112 188.844 14.9818C189.246 14.7577 189.578 14.428 189.804 14.0289C190.042 13.5232 190.166 12.9718 190.166 12.4136C190.166 11.8554 190.042 11.304 189.804 10.7982C189.578 10.3991 189.246 10.0694 188.844 9.84533C188.419 9.61571 187.957 9.4617 187.479 9.3903C186.968 9.30738 186.451 9.26583 185.934 9.26608H182.426V15.561Z" fill="#BBC2CC"/>
<path d="M195.805 24.6549C195.803 24.3766 195.86 24.1011 195.972 23.8459C196.187 23.3485 196.587 22.9521 197.088 22.7385C197.346 22.6295 197.623 22.5732 197.903 22.5732C198.183 22.5732 198.46 22.6295 198.718 22.7385C199.219 22.9523 199.619 23.3487 199.834 23.8459C199.944 24.1015 200.001 24.3765 200.001 24.6544C200.001 24.9323 199.944 25.2073 199.834 25.4628C199.727 25.7088 199.574 25.9327 199.383 26.1229C199.192 26.3124 198.966 26.4642 198.718 26.5703C198.46 26.6794 198.183 26.7356 197.903 26.7356C197.623 26.7356 197.345 26.6794 197.088 26.5703C196.586 26.3566 196.187 25.9602 195.972 25.4628C195.86 25.2079 195.803 24.9328 195.805 24.6549ZM196.177 24.6549C196.176 24.8838 196.222 25.1106 196.313 25.3209C196.401 25.5282 196.53 25.7162 196.691 25.8743C196.853 26.0323 197.044 26.1573 197.254 26.242C197.464 26.3267 197.689 26.3696 197.916 26.3681C198.143 26.3666 198.367 26.3208 198.576 26.2333C198.781 26.1469 198.968 26.0225 199.126 25.8668C199.306 25.688 199.444 25.4718 199.531 25.2338C199.617 24.9957 199.649 24.7417 199.624 24.4899C199.6 24.2381 199.519 23.9949 199.389 23.7776C199.258 23.5603 199.081 23.3744 198.869 23.2332C198.658 23.092 198.417 22.9989 198.165 22.9608C197.913 22.9227 197.656 22.9404 197.411 23.0126C197.167 23.0848 196.942 23.2098 196.752 23.3786C196.562 23.5474 196.412 23.7558 196.313 23.9889C196.222 24.1994 196.176 24.426 196.177 24.6549ZM197.097 23.4519H198.021C198.251 23.4329 198.479 23.4985 198.662 23.6362C198.733 23.7047 198.788 23.7876 198.824 23.8793C198.859 23.971 198.874 24.0692 198.868 24.1672C198.874 24.2523 198.863 24.3378 198.835 24.4186C198.808 24.4994 198.763 24.5737 198.706 24.6371C198.595 24.743 198.451 24.8081 198.298 24.8214L198.917 25.8283H198.456L197.859 24.8549H197.538V25.8283H197.098V23.4509L197.097 23.4519ZM197.536 24.4864H197.857C197.924 24.4878 197.99 24.4851 198.056 24.4784C198.119 24.4739 198.181 24.4596 198.239 24.4362C198.292 24.4159 198.338 24.3819 198.372 24.3376C198.409 24.2835 198.427 24.2187 198.423 24.1534C198.426 24.0882 198.408 24.0237 198.372 23.9692C198.337 23.9251 198.291 23.891 198.239 23.8705C198.181 23.8472 198.119 23.834 198.056 23.8312C197.988 23.8312 197.92 23.8252 197.858 23.8252H197.536V24.4864Z" fill="#BBC2CC"/>
<path d="M79.031 2.06895C79.0311 2.4782 78.9088 2.87827 78.6796 3.21856C78.4504 3.55886 78.1247 3.82409 77.7436 3.98073C77.3624 4.13737 76.943 4.17838 76.5384 4.09856C76.1338 4.01875 75.7621 3.82169 75.4704 3.53232C75.1786 3.24296 74.98 2.87427 74.8995 2.47289C74.819 2.07151 74.8603 1.65546 75.0181 1.27737C75.176 0.899267 75.4433 0.576102 75.7864 0.348733C76.1294 0.121363 76.5327 1.90026e-09 76.9452 0C77.4984 -2.54795e-09 78.0289 0.217972 78.42 0.605969C78.8112 0.993966 79.031 1.52021 79.031 2.06895Z" fill="#BBC2CC"/>
<path d="M86.697 2.06895C86.6971 2.4782 86.5748 2.87827 86.3456 3.21856C86.1165 3.55886 85.7907 3.82409 85.4096 3.98073C85.0284 4.13737 84.609 4.17838 84.2044 4.09856C83.7998 4.01875 83.4281 3.82169 83.1364 3.53232C82.8447 3.24296 82.646 2.87427 82.5655 2.47289C82.485 2.07151 82.5263 1.65546 82.6841 1.27737C82.842 0.899267 83.1094 0.576102 83.4524 0.348733C83.7954 0.121363 84.1987 1.90025e-09 84.6112 0C85.1644 -2.54793e-09 85.6949 0.217972 86.0861 0.605969C86.4772 0.993966 86.697 1.52021 86.697 2.06895Z" fill="#BBC2CC"/>
</svg>
