<svg width="47" height="72" viewBox="0 0 47 72" fill="none" xmlns="http://www.w3.org/2000/svg">
<path d="M2.70226 62.8569H0V49.2817H2.70226L8.21401 57.9078V49.2817H10.9163V62.8569H8.38559L2.70226 53.9315V62.8569Z" fill="#BBC2CC"/>
<path d="M12.8574 49.2817H16.1495L19.1734 54.2522L22.2081 49.2817H25.5537L20.5138 56.9993V62.8569H17.8116V56.9351L12.8574 49.2817Z" fill="#BBC2CC"/>
<path d="M33.9499 53.1083L35.3547 50.9171C35.3547 50.9171 33.7462 49.1641 30.7758 49.1641C27.7626 49.1641 26.3793 51.1843 26.3793 53.1832C26.3793 55.182 28.3202 56.5182 29.6285 57.0312C31.6337 57.7367 33.0492 58.0788 33.0492 59.0836C33.0492 59.8425 32.2771 60.4197 31.1833 60.4197C29.1352 60.4197 27.516 58.7522 27.516 58.7522L26.0469 61.029C26.0469 61.029 27.9985 62.9851 31.1404 62.9851C33.5639 62.9851 35.73 61.2962 35.73 58.8056C35.73 56.5609 33.8212 55.3317 32.1484 54.8507C30.7008 54.4338 29.1781 54.0276 29.1781 53.0121C29.1781 52.3494 29.7357 51.7295 30.7115 51.7295C32.3522 51.7508 33.9499 53.1083 33.9499 53.1083Z" fill="#BBC2CC"/>
<path d="M38.1426 62.8569V49.2817H47V51.6547H40.8448V54.8828H46.1421V57.2558H40.8448V60.4839H47V62.8569H38.1426Z" fill="#BBC2CC"/>
<path d="M0 46.1617V15.9971H6.04791V46.1617H0Z" fill="#BBC2CC"/>
<path d="M8.21387 46.1603V15.9956H14.2618V46.1603H8.21387Z" fill="#BBC2CC"/>
<path d="M16.3857 46.1603V15.9956H22.4337V46.1603H16.3857Z" fill="#BBC2CC"/>
<path d="M24.6426 46.1603V15.9956H30.6905V46.1603H24.6426Z" fill="#BBC2CC"/>
<path d="M32.7383 46.1603V15.9956H38.7862V46.1603H32.7383Z" fill="#BBC2CC"/>
<path d="M40.9521 46.1603V15.9956H47.0001V46.1603H40.9521Z" fill="#BBC2CC"/>
</svg>
