<svg width="156" height="72" viewBox="0 0 156 72" fill="none" xmlns="http://www.w3.org/2000/svg">
<g clip-path="url(#clip0_4004_54661)">
<path d="M121.832 26.549C123.699 26.549 125.159 25.0908 125.159 23.2262C125.159 21.4094 123.699 19.9512 121.832 19.9512C119.988 19.9512 118.456 21.4094 118.456 23.2262C118.408 25.0669 119.988 26.549 121.832 26.549ZM93.1035 28.8439H98.107V31.856C99.3758 30.0392 102.177 28.3897 105.457 28.3897C111.705 28.3897 116.445 33.625 116.445 40.0794C116.445 46.486 111.705 51.769 105.457 51.769C102.153 51.769 99.3998 50.1196 98.107 48.3028V60.7096H93.1035V28.8439ZM104.547 32.86C100.477 32.86 97.7 35.9916 97.7 40.0555C97.7 44.0955 100.501 47.2509 104.547 47.2509C108.569 47.2509 111.37 44.1194 111.37 40.0555C111.37 36.0394 108.569 32.86 104.547 32.86ZM128.032 28.8439H133.036V31.9038C134.424 29.6328 137.01 28.3897 139.954 28.3897C145.245 28.3897 148.693 32.095 148.693 37.7845V51.3148H143.689V38.5972C143.689 35.0593 141.846 32.9078 138.949 32.9078C135.621 32.9078 133.06 35.4657 133.06 40.2467V51.2909H128.056V28.8439H128.032ZM54.8949 28.3897C51.9502 28.3897 49.3408 29.6328 47.9762 31.9038V19.9512H42.9727V51.3148H47.9762V40.2706C47.9762 35.4896 50.5378 32.9317 53.8655 32.9317C56.7862 32.9317 58.6056 35.0832 58.6056 38.6212V51.3148H63.6091V37.7845C63.5852 32.0711 60.1857 28.3897 54.8949 28.3897ZM124.274 28.8439H119.27V51.3148H124.274V28.8439ZM78.3802 51.7451C71.653 51.7451 66.4341 46.5816 66.4341 40.0555C66.4341 33.5293 71.6291 28.3658 78.3802 28.3658C85.1314 28.3658 90.3264 33.5293 90.3264 40.0555C90.3264 46.5816 85.1074 51.7451 78.3802 51.7451ZM78.3802 47.1553C82.4022 47.1553 85.2271 44.0715 85.2271 40.0794C85.2271 36.0872 82.4022 33.0034 78.3802 33.0034C74.3104 33.0034 71.4855 36.0872 71.4855 40.0794C71.4855 44.0715 74.3104 47.1553 78.3802 47.1553Z" fill="#BBC2CC"/>
<path d="M24.7299 25.9758C24.682 27.4818 23.6286 29.6333 21.8092 29.6333C20.7079 29.6333 19.7743 28.7249 19.7743 27.6252V27.6013C19.7264 25.8323 18.9363 24.2785 17.6675 23.2028C16.7099 22.4139 15.5129 21.888 14.2201 21.7445C15.3214 20.621 16.9014 19.9277 18.6251 19.9277C20.8037 19.9277 22.7907 21.1708 23.9399 22.9876C24.5144 23.8721 24.7778 24.9478 24.7299 25.9758ZM17.6196 26.1192C18.5772 27.3145 19.1518 29.6333 17.7633 30.7568C16.8775 31.474 15.6087 31.3544 14.8904 30.5417C13.6934 29.2269 12.0655 28.5336 10.4136 28.5097C9.14479 28.4619 7.87595 28.8444 6.82258 29.5615C6.94229 28.0077 7.66049 26.4778 9.00115 25.3781C10.7248 23.9916 13.1428 23.5613 15.2017 24.398C16.1593 24.7327 16.9972 25.3303 17.6196 26.1192ZM12.257 30.7329C13.7413 31.0437 15.7523 32.478 15.4411 34.1992C15.2495 35.2988 14.1722 36.016 13.071 35.8247H13.0231C11.2515 35.5618 9.52783 36.0877 8.28294 37.1156C7.32533 37.8806 6.55924 38.9563 6.22408 40.1994C5.31435 38.9085 4.88343 37.3068 5.14677 35.6096C5.57769 33.4581 7.13381 31.6413 9.28843 30.9241C10.2221 30.6134 11.2994 30.5417 12.257 30.7329ZM11.1558 37.6654C12.4964 36.9483 14.9383 36.8048 15.8241 38.3109C16.3987 39.2432 16.0635 40.4862 15.1059 41.06C13.5737 41.9684 12.6161 43.4266 12.281 45.0521C12.0416 46.2474 12.1613 47.5383 12.7358 48.7096C11.2036 48.3271 9.79117 47.347 8.95327 45.8888C7.85201 43.9764 7.87595 41.5859 9.02509 39.6974C9.52783 38.8368 10.27 38.1196 11.1558 37.6654ZM14.8186 43.6417C15.3932 42.2552 17.1648 40.5818 18.7927 41.1795C19.87 41.562 20.3967 42.7333 20.0137 43.7373C19.4391 45.3868 19.6785 47.1319 20.4685 48.5662C21.091 49.6658 22.0007 50.5264 23.1977 51.1001C21.7374 51.7695 20.0615 51.9368 18.4575 51.3153C16.3508 50.5503 14.8186 48.7096 14.4835 46.5343C14.3638 45.578 14.4835 44.5501 14.8186 43.6417ZM21.5698 45.9127C21.067 44.4784 21.3304 42.1118 23.0301 41.5142C24.1074 41.1317 25.2566 41.6576 25.6396 42.7094C26.286 44.335 27.6027 45.5302 29.1588 46.1518C30.308 46.606 31.6486 46.6777 32.9174 46.3669C32.2711 47.8012 31.0501 48.9726 29.4222 49.5702C27.3154 50.3352 24.8975 49.881 23.2695 48.3989C22.4795 47.6817 21.8571 46.845 21.5698 45.9127ZM28.2252 43.3788C26.9324 42.5899 25.5438 40.5819 26.4536 39.0758C27.0281 38.1435 28.2491 37.7849 29.2546 38.3109C30.8346 39.1475 32.5823 39.2432 34.1863 38.7172C35.3833 38.3109 36.4367 37.5459 37.2027 36.4941C37.6337 38.0001 37.4661 39.6495 36.5803 41.1317C35.479 43.0441 33.3244 44.2154 31.098 44.1437C30.0686 44.1915 29.0152 43.9047 28.2252 43.3788ZM31.6725 37.2351C30.1404 37.4503 27.7942 36.7809 27.5069 35.0597C27.2675 34.0079 28.0336 32.9561 29.1588 32.7648H29.2067C30.9783 32.4302 32.3908 31.3783 33.2287 29.9679C33.8751 28.9161 34.1863 27.673 34.0666 26.3821C35.3593 27.2427 36.3648 28.6531 36.6282 30.3026C37.0112 32.4541 36.1254 34.7012 34.4017 36.0638C33.5878 36.6853 32.6302 37.1395 31.6725 37.2351ZM30.284 30.3743C29.2546 31.4979 27.0281 32.478 25.6635 31.3544C24.7778 30.6373 24.6581 29.3942 25.4002 28.5336C26.5015 27.171 26.9324 25.4498 26.669 23.8243C26.4775 22.629 25.903 21.4577 24.9932 20.5015C26.5733 20.358 28.2012 20.8122 29.5419 21.888C31.2656 23.2745 32.0795 25.5933 31.6007 27.7208C31.4092 28.7249 30.9304 29.6572 30.284 30.3743Z" fill="#BBC2CC"/>
</g>
<defs>
<clipPath id="clip0_4004_54661">
<rect width="156" height="72" fill="white"/>
</clipPath>
</defs>
</svg>
