<svg width="193" height="72" viewBox="0 0 193 72" fill="none" xmlns="http://www.w3.org/2000/svg">
<path d="M7.19347 11.3962V17.3871L0.368164 27.2205H6.93912V52.7881H25.085L31.1143 42.712H19.2877V5.85303" fill="#BBC2CC"/>
<path d="M95.0882 37.9831L94.9828 37.9922V37.9857H93.5885C93.3091 38.0562 93.0903 38.2154 92.9308 38.4621L91.1293 41.7551V40.8349C91.1293 39.4567 89.9933 37.9818 88.6003 37.9818H86.688L86.5826 37.9909V37.9844H85.1896C84.9089 38.0549 84.6888 38.2141 84.5294 38.4608L82.7291 41.7538V38.59C82.7291 38.2533 82.4511 37.9805 82.1124 37.9805H78.2866C78.0256 37.9805 77.8029 38.1436 77.7133 38.3694L77.6711 38.3733L76.3506 40.9002H77.6711V52.0075C77.6711 52.3416 77.9479 52.6183 78.2866 52.6183H82.1124C82.4511 52.6183 82.7291 52.3416 82.7291 52.0075V42.0749H85.104C85.5705 42.1597 85.925 42.4599 86.0713 42.8397V52.0075C86.0713 52.3416 86.348 52.6183 86.688 52.6183H90.5152C90.8525 52.6183 91.1293 52.3416 91.1293 52.0075V42.0749H93.5054C93.968 42.161 94.3239 42.4612 94.4715 42.841V52.0088C94.4715 52.3429 94.7495 52.6196 95.0882 52.6196H98.914C99.254 52.6196 99.5308 52.3429 99.5308 52.0088V40.8349C99.5308 39.4567 98.3922 37.9818 97.0031 37.9818H95.0882" fill="#BBC2CC"/>
<path d="M132.064 42.0282C131.804 42.0282 131.58 42.19 131.491 42.4171L131.447 42.4197L130.128 44.9479H131.447V52.009C131.447 52.3445 131.725 52.6199 132.064 52.6199H135.89C136.226 52.6199 136.506 52.3445 136.506 52.009V42.6403C136.506 42.3036 136.226 42.0282 135.89 42.0282H132.064ZM132.201 38.1465C131.777 38.1465 131.429 38.5185 131.429 38.974V40.351C131.429 40.8039 131.777 41.1759 132.201 41.1759H135.378C135.804 41.1759 136.153 40.8039 136.153 40.351V38.974C136.153 38.5185 135.804 38.1465 135.378 38.1465H132.201Z" fill="#BBC2CC"/>
<path d="M60.9225 17.8921L60.6734 17.913V17.9012H57.3497C56.6842 18.067 56.161 18.4455 55.7801 19.0381L51.4865 26.8876V24.6935C51.4865 21.4096 48.773 17.8921 45.4572 17.8921H40.896L40.6469 17.913V17.9012H37.3232C36.6564 18.067 36.1318 18.4455 35.7523 19.0381L31.4573 26.8876V19.3461C31.4573 18.5447 30.7984 17.8921 29.9932 17.8921H20.8668C20.2474 17.8921 19.7137 18.2784 19.5002 18.8188L19.4013 18.8253L16.2529 24.8501H19.4013V42.8789H31.1199L25.1895 52.7854H29.9945C30.7997 52.7854 31.4586 52.1315 31.4586 51.3301V27.6537H37.1229C38.2299 27.856 39.0773 28.5687 39.4292 29.4758V51.3288C39.4292 52.1302 40.0908 52.7841 40.8986 52.7841H50.0197C50.8275 52.7841 51.4891 52.1302 51.4891 51.3288V27.6524H57.1507C58.2577 27.8547 59.1051 28.5673 59.4583 29.4745V51.3275C59.4583 52.1289 60.1199 52.7828 60.9265 52.7828H70.0501C70.8567 52.7828 71.5183 52.1289 71.5183 51.3275V24.6948C71.5183 21.4109 68.8034 17.8934 65.4876 17.8934H60.9225" fill="#D0D5DE"/>
<path d="M115.677 17.7485L113.741 20.667H115.062V32.1645H119.203V18.3594C119.203 18.0239 118.926 17.7498 118.587 17.7498H115.677" fill="#BBC2CC"/>
<path d="M116.473 37.9834C116.213 37.9834 115.991 38.1439 115.898 38.3723L115.856 38.375L114.537 40.9031H115.856V52.0104C115.856 52.3446 116.133 52.6213 116.473 52.6213H120.299C120.639 52.6213 120.914 52.3446 120.914 52.0104V44.8605H122.671C123.136 44.9454 123.491 45.2455 123.64 45.6254V52.0104C123.64 52.3446 123.915 52.6213 124.256 52.6213H128.081C128.421 52.6213 128.696 52.3446 128.696 52.0104V43.6206C128.696 42.2423 127.559 40.7661 126.169 40.7661H124.256L124.151 40.7739V40.7713H122.755C122.477 40.8405 122.256 40.9997 122.098 41.2464L120.914 43.4078V38.5929C120.914 38.2562 120.639 37.9834 120.299 37.9834H116.473Z" fill="#BBC2CC"/>
<path d="M161.712 37.9834C161.453 37.9834 161.23 38.1465 161.138 38.3723L161.097 38.3763L159.776 40.9031H161.097V49.5357L159.029 49.4927C158.517 49.4235 158.092 49.3439 157.814 48.5816C157.453 47.0245 157.676 44.6125 159.726 45.2325L160.941 42.6378H154.983C153.95 43.1115 153.18 44.0604 153.155 45.4961L153.062 50.4376C153.042 51.4701 153.879 52.5756 154.512 52.894H159.471L161.098 49.5605V52.0104C161.098 52.3446 161.375 52.6213 161.714 52.6213H165.538C165.878 52.6213 166.155 52.3446 166.155 52.0104V38.5929C166.155 38.2562 165.878 37.9834 165.538 37.9834H161.712Z" fill="#BBC2CC"/>
<path d="M120.956 22.1929L119.021 24.8503H122.231V32.1659H126.375V24.5448C126.375 23.5124 125.702 22.1929 123.56 22.1929H120.956Z" fill="#BBC2CC"/>
<path d="M78.8233 17.7485L76.8887 20.6683H80.8753V32.1645H85.0187V20.6683H88.3766L90.3113 17.7485" fill="#BBC2CC"/>
<path d="M100.113 25.9307V25.9046V25.9307ZM92.8318 25.6214V24.6516C92.8318 24.3253 93.1007 24.0591 93.4288 24.0591H95.9209C96.2491 24.0591 96.5192 24.3253 96.5192 24.6516V25.6214C96.5192 25.9464 96.2491 26.2126 95.9209 26.2126H93.4288C93.1007 26.2113 92.8318 25.9464 92.8318 25.6214ZM91.5469 21.959C90.2764 21.959 89.2393 22.9862 89.2393 24.2431V29.567C89.2393 30.8239 90.2764 31.8524 91.5469 31.8524H97.8042C99.0733 31.8524 100.113 30.8239 100.113 29.567V29.3608L92.9715 29.4182V28.19H97.8042C99.0733 28.19 100.113 27.1615 100.113 25.9046V24.2431C100.113 22.9862 99.0733 21.959 97.8042 21.959H91.5469Z" fill="#BBC2CC"/>
<path d="M104.935 21.9658C103.741 21.9658 102.765 22.9343 102.765 24.1168V29.8962C102.765 31.0801 103.741 32.0472 104.935 32.0472H111.368L112.893 29.4407H106.984V24.5723H111.605L112.806 21.9658H104.935Z" fill="#BBC2CC"/>
<path d="M109.728 42.0283C107.954 42.0283 105.527 42.0936 103.412 42.1079C103.118 42.1105 102.82 42.1301 102.609 42.4238L101.444 44.7927H109.111V46.1763H103.405C100.528 47.4971 100.914 50.4364 102.22 52.62H107.512L108.608 50.3399L106.53 50.2955C105.781 48.4577 106.282 47.5311 108.608 47.9435L109.113 48.1419V52.0092C109.113 52.3459 109.391 52.62 109.73 52.62H113.554C113.895 52.62 114.172 52.3459 114.172 52.0092V43.9483C114.172 42.9263 113.218 42.0283 112.234 42.0283H109.728Z" fill="#BBC2CC"/>
<path d="M188.225 42.0283C186.453 42.0283 184.025 42.0936 181.909 42.1079C181.616 42.1105 181.317 42.1301 181.107 42.4238L179.942 44.7927H187.61V46.1763H181.902C179.027 47.4971 179.413 50.4364 180.717 52.62H186.01L187.108 50.3399L185.027 50.2955C184.278 48.4577 184.779 47.5311 187.108 47.9435L187.611 48.1419V52.0092C187.611 52.3459 187.889 52.62 188.227 52.62H192.052C192.391 52.62 192.668 52.3459 192.668 52.0092V43.9483C192.668 42.9263 191.716 42.0283 190.732 42.0283H188.225Z" fill="#BBC2CC"/>
<path d="M169.538 42.0296C169.279 42.0296 169.054 42.1902 168.964 42.4186L168.923 42.4212L167.604 44.9494H168.923V52.0092C168.923 52.3459 169.199 52.6213 169.538 52.6213H173.365C173.704 52.6213 173.981 52.3459 173.981 52.0092V45.2404H176.746C177.526 45.2404 178.509 44.6152 178.932 43.8517L179.7 42.4616H176.394C175.612 42.4616 174.63 43.0881 174.207 43.8504L173.981 44.2602V42.6392C173.981 42.3037 173.704 42.0283 173.365 42.0283H169.538" fill="#BBC2CC"/>
<path d="M139.108 42.0296C138.848 42.0296 138.624 42.1902 138.532 42.4186L138.492 42.4212L137.172 44.9507H138.492V52.0092C138.492 52.3459 138.769 52.6213 139.108 52.6213H142.932C143.274 52.6213 143.549 52.3459 143.549 52.0092V46.2937H145.306C145.771 46.3786 146.127 46.6761 146.273 47.0586V52.0092C146.273 52.3459 146.55 52.6213 146.891 52.6213H150.714C151.054 52.6213 151.33 52.3459 151.33 52.0092V45.0525C151.33 43.6755 150.195 42.1993 148.802 42.1993H146.891L146.786 42.2071V42.2006H145.389C145.111 42.2711 144.889 42.4316 144.731 42.6796L143.549 44.841V42.6392C143.549 42.3037 143.274 42.0283 142.932 42.0283H139.108" fill="#BBC2CC"/>
<path d="M99.7196 60.4743C99.6484 60.6792 99.5746 60.8881 99.4943 61.0969C99.4152 61.3083 99.3308 61.5198 99.2412 61.7338L98.2897 63.9749L97.4318 61.5041C97.3988 61.4075 97.3567 61.2744 97.3026 61.1008C97.2552 60.9246 97.1998 60.7158 97.1366 60.4743H96.3472C96.8203 61.7469 97.1577 62.6697 97.3527 63.2413C97.5504 63.813 97.6822 64.2398 97.752 64.5178H98.7167C98.8182 64.2124 99.0211 63.7047 99.3243 62.9934C99.6287 62.2794 100.006 61.4428 100.446 60.4743H99.7196ZM100.878 60.4743V60.7014C100.878 61.3162 100.862 61.9388 100.835 62.5731C100.806 63.2048 100.758 63.8522 100.697 64.5178H101.476V64.2907C101.476 63.6747 101.495 63.0521 101.522 62.4178C101.55 61.7834 101.598 61.1374 101.66 60.4743H100.878ZM174.84 60.4743V60.798C174.84 62.1411 174.727 63.0273 174.503 63.4619C174.277 63.8953 173.875 64.1093 173.292 64.1093C172.949 64.1093 172.706 64.0323 172.564 63.8757C172.421 63.719 172.348 63.4332 172.348 63.0208C172.348 62.7271 172.363 62.359 172.39 61.9113C172.418 61.4624 172.457 60.9833 172.504 60.473H171.751V60.8894C171.751 61.3501 171.742 61.8539 171.723 62.4073C171.705 62.9555 171.696 63.2714 171.696 63.3536C171.696 63.7921 171.813 64.1145 172.052 64.3194C172.287 64.527 172.655 64.6275 173.153 64.6275C173.51 64.6275 173.816 64.5687 174.072 64.4487C174.326 64.3273 174.548 64.1406 174.733 63.8861V64.5139H175.373C175.373 63.8235 175.39 63.1395 175.423 62.4661C175.454 61.7913 175.499 61.1256 175.561 60.4717H174.84V60.4743ZM179.143 60.4743V60.7014C179.143 61.3162 179.126 61.9388 179.098 62.5731C179.068 63.2048 179.023 63.8522 178.961 64.5178H179.741V64.2907C179.741 63.6747 179.757 63.0521 179.785 62.4178C179.815 61.7847 179.861 61.1374 179.922 60.4743H179.143ZM94.912 60.5304C94.7499 60.6322 94.6076 60.7993 94.4837 61.0329L94.5074 60.4743H93.8142V60.7602C93.8142 61.3906 93.7984 62.0197 93.7746 62.6449C93.7483 63.2701 93.7088 63.8952 93.6547 64.5178H94.3532L94.3558 64.3978C94.3782 62.1071 94.7697 60.9612 95.5406 60.9612L95.6764 60.969L95.907 60.9938L95.8675 60.4195L95.7409 60.3895L95.534 60.379C95.2836 60.3777 95.0754 60.4312 94.912 60.5304ZM116.697 60.4208C116.459 60.456 116.229 60.5096 116.001 60.58L115.91 61.1883C116.16 61.0812 116.401 61.0003 116.639 60.9455C116.872 60.8894 117.095 60.862 117.304 60.862C117.599 60.862 117.817 60.9063 117.956 60.9925C118.094 61.0786 118.162 61.2131 118.162 61.3945C118.162 61.5472 118.104 61.6751 117.983 61.7756C117.863 61.8787 117.631 61.9923 117.286 62.1176L116.354 62.4491C116.013 62.5731 115.769 62.7219 115.621 62.8955C115.475 63.0717 115.401 63.2988 115.401 63.5755C115.401 63.8952 115.521 64.1485 115.762 64.339C116.006 64.5309 116.33 64.6249 116.739 64.6249C116.838 64.6249 116.951 64.6196 117.075 64.6027C117.2 64.5883 117.391 64.5609 117.648 64.5204L117.728 63.9749C117.557 64.0206 117.395 64.0558 117.246 64.0793C117.096 64.1028 116.965 64.1119 116.863 64.1119C116.619 64.1119 116.436 64.0649 116.306 63.9696C116.177 63.8731 116.114 63.7334 116.114 63.552C116.114 63.3862 116.161 63.2479 116.259 63.1382C116.354 63.0286 116.528 62.9268 116.769 62.8393L117.665 62.5078L117.95 62.376L118.148 62.2298L118.075 63.5207L118.068 63.6668C118.046 64.0388 118.022 64.3234 117.989 64.5204H118.739V63.8378L118.818 61.7704L118.825 61.6451V61.4454C118.825 61.0538 118.72 60.7758 118.505 60.6127C118.291 60.4521 117.93 60.3699 117.427 60.3699C117.179 60.3673 116.934 60.3856 116.697 60.4208ZM90.6816 61.1569C90.8885 60.9964 91.1481 60.9155 91.4578 60.9155C91.7688 60.9155 92.0113 60.9938 92.1774 61.1478C92.3434 61.3031 92.4278 61.5276 92.4278 61.8226H90.2783C90.3376 61.5381 90.472 61.3162 90.6816 61.1569ZM90.074 60.9742C89.7103 61.3827 89.5258 61.9309 89.5258 62.6188C89.5258 63.2492 89.6958 63.7425 90.0319 64.0989C90.3706 64.4539 90.8411 64.6301 91.4433 64.6301C91.5857 64.6301 91.7464 64.617 91.927 64.5896C92.1049 64.5622 92.3263 64.5178 92.5912 64.4539L92.6624 63.8195C92.3698 63.9409 92.1392 64.0206 91.9744 64.0571C91.8044 64.0936 91.6384 64.1106 91.467 64.1106C91.0414 64.1106 90.7238 63.9958 90.5089 63.7582C90.2968 63.5194 90.19 63.1683 90.19 62.6971C90.19 62.6501 90.1913 62.5639 90.1992 62.4452L90.2072 62.3486H93.1078L93.1144 62.1698L93.1249 62.0092C93.1249 61.4741 92.9879 61.0669 92.7124 60.785C92.4383 60.5004 92.0469 60.3608 91.5303 60.3608C90.9241 60.3595 90.4391 60.5644 90.074 60.9742ZM102.954 60.9546C102.579 61.354 102.391 61.8996 102.391 62.594C102.391 63.2387 102.561 63.7386 102.902 64.0963C103.244 64.4526 103.722 64.6288 104.34 64.6288C104.493 64.6288 104.662 64.6157 104.841 64.5844C105.023 64.5544 105.215 64.5087 105.418 64.4526L105.559 63.8274C105.265 63.92 105.031 63.9879 104.846 64.0271C104.662 64.0636 104.498 64.0832 104.355 64.0832C103.924 64.0832 103.597 63.9605 103.379 63.7138C103.163 63.4658 103.054 63.0991 103.054 62.6096C103.054 62.0523 103.175 61.6307 103.415 61.3397C103.657 61.0486 104.009 60.905 104.471 60.905C104.708 60.905 105.072 60.9781 105.562 61.1243L105.574 61.1308V60.52C105.346 60.4639 105.145 60.4247 104.974 60.396C104.8 60.3699 104.641 60.3582 104.494 60.3582C103.845 60.3595 103.329 60.5591 102.954 60.9546ZM107.15 61.1569C107.358 60.9964 107.618 60.9155 107.929 60.9155C108.24 60.9155 108.48 60.9938 108.646 61.1478C108.812 61.3031 108.896 61.5276 108.896 61.8226H106.747C106.805 61.5381 106.942 61.3162 107.15 61.1569ZM106.544 60.9742C106.179 61.3827 105.997 61.9309 105.997 62.6188C105.997 63.2492 106.164 63.7425 106.503 64.0989C106.839 64.4539 107.311 64.6301 107.912 64.6301C108.055 64.6301 108.217 64.617 108.394 64.5896C108.576 64.5622 108.797 64.5178 109.059 64.4539L109.133 63.8195C108.838 63.9409 108.61 64.0206 108.443 64.0571C108.275 64.0936 108.107 64.1106 107.935 64.1106C107.511 64.1106 107.192 63.9958 106.98 63.7582C106.765 63.5194 106.658 63.1683 106.658 62.6971C106.658 62.6501 106.662 62.5639 106.669 62.4452L106.675 62.3486H109.577L109.584 62.1698L109.593 62.0092C109.593 61.4741 109.457 61.0669 109.185 60.785C108.908 60.5004 108.514 60.3608 108 60.3608C107.395 60.3595 106.909 60.5644 106.544 60.9742ZM110.518 60.627C110.282 60.8058 110.164 61.0356 110.164 61.3188C110.164 61.4898 110.213 61.6529 110.307 61.8043C110.405 61.957 110.564 62.1228 110.787 62.3003L111.682 62.9973H111.685C111.946 63.2035 112.08 63.3927 112.08 63.565C112.08 63.7373 112.001 63.8691 111.847 63.967C111.695 64.0623 111.482 64.1093 111.209 64.1093C111.02 64.1093 110.823 64.0819 110.611 64.0232C110.396 63.9644 110.156 63.8757 109.89 63.7504L109.919 64.4082C110.145 64.4852 110.365 64.54 110.576 64.5766C110.791 64.6105 110.998 64.6301 111.201 64.6301C111.69 64.6301 112.069 64.5361 112.338 64.3416C112.607 64.1498 112.743 63.877 112.743 63.5259C112.743 63.3366 112.702 63.1748 112.624 63.039C112.545 62.9007 112.362 62.7206 112.069 62.4961L111.241 61.8774C111.086 61.7625 110.98 61.666 110.918 61.585L110.828 61.341C110.828 61.2026 110.889 61.093 111.005 61.0055C111.122 60.922 111.276 60.8776 111.469 60.8776C111.606 60.8776 111.765 60.8972 111.95 60.9364C112.134 60.9742 112.332 61.0329 112.543 61.1073L112.504 60.5109C112.292 60.4613 112.1 60.4247 111.926 60.396C111.752 60.3699 111.588 60.3582 111.44 60.3582C111.06 60.3595 110.753 60.4495 110.518 60.627ZM121.114 60.5435C120.854 60.6636 120.632 60.8515 120.443 61.1099V60.4756H119.803C119.803 61.1974 119.787 61.8957 119.761 62.5692C119.73 63.2426 119.684 63.8913 119.624 64.5191H120.337V64.2007C120.337 62.8654 120.451 61.9766 120.679 61.5381C120.906 61.0982 121.31 60.8815 121.893 60.8815C122.238 60.8815 122.481 60.9598 122.62 61.1152C122.76 61.2705 122.83 61.5563 122.83 61.9701C122.83 62.2938 122.818 62.6788 122.793 63.1213C122.768 63.5637 122.73 64.0297 122.684 64.5191H123.426V64.0976C123.426 63.629 123.434 63.1213 123.456 62.5783C123.474 62.0366 123.484 61.7247 123.484 61.6438C123.484 61.2026 123.368 60.8789 123.13 60.6727C122.895 60.4652 122.528 60.3621 122.03 60.3621C121.677 60.3595 121.37 60.4195 121.114 60.5435ZM135.447 61.1569C135.657 60.9964 135.915 60.9155 136.226 60.9155C136.539 60.9155 136.778 60.9938 136.944 61.1478C137.112 61.3031 137.195 61.5276 137.195 61.8226H135.045C135.105 61.5381 135.238 61.3162 135.447 61.1569ZM134.84 60.9742C134.476 61.3827 134.294 61.9309 134.294 62.6188C134.294 63.2492 134.463 63.7425 134.802 64.0989C135.136 64.4539 135.608 64.6301 136.209 64.6301C136.354 64.6301 136.514 64.617 136.694 64.5896C136.875 64.5622 137.095 64.5178 137.36 64.4539L137.431 63.8195C137.137 63.9409 136.909 64.0206 136.743 64.0571C136.574 64.0936 136.407 64.1106 136.234 64.1106C135.81 64.1106 135.492 63.9958 135.279 63.7582C135.064 63.5194 134.957 63.1683 134.957 62.6971C134.957 62.6501 134.96 62.5639 134.966 62.4452L134.974 62.3486H137.875L137.881 62.1698L137.892 62.0092C137.892 61.4741 137.755 61.0669 137.482 60.785C137.208 60.5004 136.814 60.3608 136.3 60.3608C135.692 60.3595 135.208 60.5644 134.84 60.9742ZM141.249 61.1569C141.458 60.9964 141.717 60.9155 142.028 60.9155C142.339 60.9155 142.58 60.9938 142.747 61.1478C142.912 61.3031 142.998 61.5276 142.998 61.8226H140.845C140.905 61.5381 141.039 61.3162 141.249 61.1569ZM140.644 60.9742C140.277 61.3827 140.094 61.9309 140.094 62.6188C140.094 63.2492 140.266 63.7425 140.603 64.0989C140.939 64.4539 141.409 64.6301 142.01 64.6301C142.155 64.6301 142.317 64.617 142.495 64.5896C142.676 64.5622 142.896 64.5178 143.16 64.4539L143.232 63.8195C142.938 63.9409 142.71 64.0206 142.542 64.0571C142.374 64.0936 142.205 64.1106 142.037 64.1106C141.611 64.1106 141.292 63.9958 141.079 63.7582C140.866 63.5194 140.76 63.1683 140.76 62.6971C140.76 62.6501 140.761 62.5639 140.768 62.4452L140.774 62.3486H143.675L143.684 62.1698L143.692 62.0092C143.692 61.4741 143.558 61.0669 143.283 60.785C143.008 60.5004 142.614 60.3608 142.099 60.3608C141.492 60.3595 141.01 60.5644 140.644 60.9742ZM144.7 60.9546C144.326 61.354 144.136 61.8996 144.136 62.594C144.136 63.2387 144.305 63.7386 144.649 64.0963C144.989 64.4526 145.469 64.6288 146.087 64.6288C146.241 64.6288 146.407 64.6157 146.587 64.5844C146.767 64.5544 146.962 64.5087 147.165 64.4526L147.306 63.8274C147.013 63.92 146.777 63.9879 146.594 64.0271C146.41 64.0636 146.245 64.0832 146.101 64.0832C145.668 64.0832 145.345 63.9605 145.126 63.7138C144.91 63.4658 144.8 63.0991 144.8 62.6096C144.8 62.0523 144.922 61.6307 145.163 61.3397C145.404 61.0486 145.755 60.905 146.217 60.905C146.456 60.905 146.818 60.9781 147.308 61.1243L147.321 61.1308V60.52C147.092 60.4639 146.891 60.4247 146.718 60.396C146.547 60.3699 146.386 60.3582 146.242 60.3582C145.59 60.3595 145.077 60.5591 144.7 60.9546ZM148.746 63.719C148.523 63.4737 148.414 63.1082 148.414 62.6266C148.414 62.068 148.534 61.6399 148.771 61.3488C149.014 61.0577 149.36 60.9155 149.824 60.9155C150.26 60.9155 150.587 61.0356 150.809 61.2783C151.026 61.5237 151.135 61.8944 151.135 62.389C151.135 62.9425 151.018 63.3653 150.774 63.6512C150.534 63.9409 150.185 64.0845 149.721 64.0845C149.292 64.0845 148.966 63.9618 148.746 63.719ZM148.314 60.9546C147.938 61.354 147.751 61.8996 147.751 62.594C147.751 63.2492 147.922 63.753 148.273 64.1028C148.622 64.4565 149.12 64.6288 149.777 64.6288C150.397 64.6288 150.892 64.4317 151.258 64.0323C151.626 63.6342 151.808 63.0965 151.808 62.4151C151.808 61.7547 151.639 61.2457 151.303 60.8907C150.964 60.5357 150.48 60.3595 149.854 60.3595C149.203 60.3595 148.688 60.5591 148.314 60.9546ZM166.137 63.719C165.917 63.4737 165.807 63.1082 165.807 62.6266C165.807 62.068 165.927 61.6399 166.165 61.3488C166.406 61.0577 166.754 60.9155 167.216 60.9155C167.655 60.9155 167.982 61.0356 168.203 61.2783C168.419 61.5237 168.53 61.8944 168.53 62.389C168.53 62.9425 168.409 63.3653 168.169 63.6512C167.929 63.9409 167.579 64.0845 167.116 64.0845C166.682 64.0845 166.357 63.9618 166.137 63.719ZM165.705 60.9546C165.33 61.354 165.145 61.8996 165.145 62.594C165.145 63.2492 165.316 63.753 165.666 64.1028C166.014 64.4565 166.515 64.6288 167.17 64.6288C167.792 64.6288 168.286 64.4317 168.653 64.0323C169.016 63.6342 169.202 63.0965 169.202 62.4151C169.202 61.7547 169.034 61.2457 168.695 60.8907C168.357 60.5357 167.875 60.3595 167.248 60.3595C166.595 60.3595 166.081 60.5591 165.705 60.9546ZM181.656 63.719C181.436 63.4737 181.327 63.1082 181.327 62.6266C181.327 62.068 181.444 61.6399 181.684 61.3488C181.924 61.0577 182.274 60.9155 182.734 60.9155C183.173 60.9155 183.499 61.0356 183.719 61.2783C183.939 61.5237 184.048 61.8944 184.048 62.389C184.048 62.9425 183.928 63.3653 183.688 63.6512C183.447 63.9409 183.098 64.0845 182.634 64.0845C182.202 64.0845 181.875 63.9618 181.656 63.719ZM181.224 60.9546C180.85 61.354 180.66 61.8996 180.66 62.594C180.66 63.2492 180.835 63.753 181.182 64.1028C181.531 64.4565 182.032 64.6288 182.687 64.6288C183.308 64.6288 183.804 64.4317 184.167 64.0323C184.534 63.6342 184.719 63.0965 184.719 62.4151C184.719 61.7547 184.548 61.2457 184.212 60.8907C183.874 60.5357 183.391 60.3595 182.766 60.3595C182.112 60.3595 181.598 60.5591 181.224 60.9546ZM186.862 60.5435C186.604 60.6636 186.382 60.8515 186.19 61.1099V60.4756H185.552C185.552 61.1974 185.537 61.8957 185.511 62.5692C185.478 63.2426 185.432 63.8913 185.371 64.5191H186.084V64.2007C186.084 62.8654 186.198 61.9766 186.427 61.5381C186.655 61.0982 187.06 60.8815 187.641 60.8815C187.987 60.8815 188.228 60.9598 188.371 61.1152C188.508 61.2705 188.578 61.5563 188.578 61.9701C188.578 62.2938 188.566 62.6788 188.54 63.1213C188.514 63.5637 188.479 64.0297 188.43 64.5191H189.173V64.0976C189.173 63.629 189.184 63.1213 189.204 62.5783C189.225 62.0366 189.235 61.7247 189.235 61.6438C189.235 61.2026 189.114 60.8789 188.878 60.6727C188.642 60.4652 188.277 60.3621 187.78 60.3621C187.425 60.3595 187.119 60.4195 186.862 60.5435ZM190.441 60.627C190.204 60.8058 190.087 61.0356 190.087 61.3188C190.087 61.4898 190.135 61.6529 190.23 61.8043C190.327 61.957 190.485 62.1228 190.71 62.3003L191.604 62.9973H191.608C191.868 63.2035 191.999 63.3927 191.999 63.565C191.999 63.7373 191.924 63.8691 191.77 63.967C191.617 64.0623 191.405 64.1093 191.13 64.1093C190.945 64.1093 190.746 64.0819 190.53 64.0232C190.317 63.9644 190.076 63.8757 189.81 63.7504L189.843 64.4082C190.07 64.4852 190.29 64.54 190.502 64.5766C190.715 64.6105 190.92 64.6301 191.124 64.6301C191.614 64.6301 191.992 64.5361 192.263 64.3416C192.53 64.1498 192.664 63.877 192.664 63.5259C192.664 63.3366 192.624 63.1748 192.547 63.039C192.468 62.9007 192.284 62.7206 191.992 62.4961L191.162 61.8774C191.008 61.7625 190.9 61.666 190.839 61.585L190.75 61.341C190.75 61.2026 190.81 61.093 190.928 61.0055C191.046 60.922 191.199 60.8776 191.393 60.8776C191.526 60.8776 191.687 60.8972 191.872 60.9364C192.056 60.9742 192.255 61.0329 192.465 61.1073L192.426 60.5109C192.215 60.4613 192.02 60.4247 191.846 60.396C191.671 60.3699 191.51 60.3582 191.361 60.3582C190.982 60.3595 190.676 60.4495 190.441 60.627ZM156.394 60.5357C156.157 60.6583 155.962 60.8463 155.798 61.0995C155.735 60.8541 155.599 60.6688 155.395 60.5435C155.189 60.4143 154.915 60.3516 154.571 60.3516C154.279 60.3516 154.026 60.4038 153.809 60.5043C153.593 60.6048 153.4 60.768 153.224 60.9938L153.24 60.4756H152.633V60.7288C152.633 61.3305 152.619 61.9492 152.594 62.5783C152.567 63.21 152.526 63.8574 152.468 64.5178H153.189C153.195 62.9124 153.285 61.9074 153.464 61.4989C153.642 61.0904 153.968 60.8894 154.438 60.8894C154.724 60.8894 154.928 60.9625 155.042 61.1073C155.159 61.2509 155.214 61.5459 155.214 61.991C155.214 62.3917 155.206 62.8015 155.184 63.2257C155.163 63.6499 155.131 64.0806 155.092 64.5165H155.832L155.827 64.4304L155.823 64.2907L155.827 64.0741L155.832 63.8652C155.832 62.6723 155.922 61.8787 156.101 61.4832C156.282 61.0865 156.598 60.8907 157.051 60.8907C157.333 60.8907 157.531 60.9664 157.652 61.1178C157.774 61.2705 157.834 61.5328 157.834 61.9061C157.834 62.3055 157.821 62.7245 157.801 63.1656C157.78 63.6081 157.75 64.0584 157.708 64.5191H158.438V64.185C158.438 63.7321 158.451 63.2348 158.473 62.6892C158.498 62.1463 158.51 61.8239 158.51 61.7234C158.51 61.2627 158.402 60.922 158.189 60.6936C157.975 60.4665 157.652 60.3516 157.217 60.3516C156.897 60.3516 156.626 60.4117 156.394 60.5357ZM176.659 59.8021L176.64 60.4756H176.062L176.037 60.986H176.61L176.509 63.2348L176.49 63.4985L176.476 63.7295C176.476 64.0414 176.559 64.2711 176.726 64.4173C176.892 64.5648 177.148 64.6405 177.492 64.6405C177.622 64.6405 177.763 64.6314 177.912 64.6157C178.06 64.6001 178.218 64.5779 178.387 64.5479L178.483 63.9501L178.405 63.9657C178.143 64.0245 177.938 64.0532 177.795 64.0532C177.558 64.0532 177.393 64.0166 177.301 63.9383C177.208 63.86 177.164 63.723 177.164 63.5272L177.168 63.4632L177.171 63.3549L177.278 60.986H178.489L178.509 60.4756H177.305L177.336 59.6703L176.659 59.8021ZM78.0378 59.1469C78.0247 60.2224 77.9943 61.2196 77.9469 62.1371C77.8981 63.0521 77.8362 63.8483 77.7598 64.5178H78.5769C78.5834 64.232 78.5887 63.9462 78.5966 63.659C78.6072 63.3706 78.619 63.0756 78.6401 62.7741L78.7666 60.255C78.7772 60.118 78.7851 59.9692 78.7983 59.81C78.8128 59.6533 78.8338 59.4301 78.8681 59.1404L78.0378 59.1469ZM79.4796 59.1417L79.4532 59.746C79.6641 59.7277 79.9013 59.7121 80.1583 59.7029C80.4166 59.6925 80.7224 59.6847 81.0756 59.6794C81.0426 60.6583 81.0018 61.5681 80.9464 62.4125C80.895 63.2557 80.837 63.9566 80.7738 64.5178H81.6146L81.6119 64.2046C81.6106 64.0976 81.6106 63.9696 81.6106 63.8195C81.6106 63.5389 81.6106 63.3249 81.6146 63.1813C81.6172 63.0377 81.6225 62.8942 81.6343 62.761L81.8149 59.6834C82.2867 59.6886 82.628 59.6964 82.8389 59.7056C83.0497 59.7147 83.2316 59.7277 83.3871 59.7434L83.4043 59.143H79.4796V59.1417ZM100.986 59.1417L100.97 59.823H101.681L101.698 59.1417H100.986ZM125.177 63.753C124.977 63.5076 124.877 63.1709 124.877 62.7388C124.877 62.1463 125.022 61.6908 125.317 61.3697C125.613 61.0512 126.034 60.892 126.579 60.892C126.743 60.892 126.897 60.9024 127.046 60.9233C127.193 60.9442 127.331 60.9742 127.457 61.0173L127.406 62.4634C127.386 63.0077 127.262 63.4202 127.025 63.7008C126.79 63.9788 126.454 64.1184 126.011 64.1184C125.657 64.1197 125.38 63.9971 125.177 63.753ZM127.522 59.1417V59.6821C127.516 59.8295 127.51 59.9822 127.503 60.1389L127.497 60.5004C127.345 60.456 127.192 60.426 127.043 60.4025C126.894 60.3777 126.747 60.3686 126.604 60.3686C125.856 60.3686 125.267 60.5853 124.84 61.0173C124.407 61.4519 124.193 62.0419 124.193 62.7897C124.193 63.3706 124.347 63.8235 124.653 64.1406C124.958 64.4565 125.395 64.6144 125.964 64.6144C126.226 64.6144 126.471 64.5583 126.697 64.4474C126.919 64.3338 127.13 64.1628 127.324 63.9318L127.3 64.5165H127.943C127.962 63.4985 127.988 62.5339 128.032 61.6255C128.073 60.7132 128.125 59.887 128.192 59.1404H127.522V59.1417ZM130.986 59.1417L130.959 59.746C131.17 59.7277 131.407 59.7121 131.664 59.7029C131.922 59.6925 132.23 59.6847 132.581 59.6794C132.549 60.6583 132.507 61.5681 132.453 62.4125C132.399 63.257 132.342 63.9566 132.279 64.5178H133.12V64.2046C133.119 64.0976 133.119 63.9696 133.119 63.8195C133.119 63.5389 133.119 63.3249 133.12 63.1813C133.123 63.0377 133.129 62.8942 133.141 62.761L133.322 59.6834C133.795 59.6886 134.135 59.6964 134.344 59.7056C134.556 59.7147 134.74 59.7277 134.894 59.7434L134.911 59.143H130.986V59.1417ZM138.712 59.1469C138.693 60.3555 138.663 61.4232 138.616 62.3551C138.567 63.2857 138.506 64.0075 138.428 64.5178H139.173C139.19 63.3092 139.222 62.2389 139.271 61.3057C139.321 60.3725 139.38 59.652 139.452 59.1417L138.712 59.1469ZM170.172 59.1469C170.155 60.3555 170.126 61.4232 170.077 62.3551C170.033 63.2857 169.968 64.0075 169.891 64.5178H170.636C170.653 63.3092 170.685 62.2389 170.735 61.3057C170.784 60.3725 170.844 59.652 170.917 59.1417L170.172 59.1469ZM179.25 59.1417L179.233 59.823H179.946L179.96 59.1417H179.25ZM86.351 59.4067C86.0585 59.6455 85.9122 59.9731 85.9122 60.3856C85.9122 60.6127 85.9649 60.8163 86.0716 61.0029C86.1784 61.187 86.3998 61.4206 86.7345 61.7077L87.69 62.5287C87.8798 62.6919 88.0155 62.8406 88.1038 62.9764C88.1895 63.1095 88.2343 63.2453 88.2343 63.3823C88.2343 63.6016 88.1473 63.7739 87.9747 63.8992C87.7994 64.0258 87.5648 64.0871 87.267 64.0871C87.0535 64.0871 86.8347 64.0545 86.6133 63.9866C86.3919 63.9187 86.0993 63.7934 85.7422 63.6055L85.7817 64.309C86.0334 64.4186 86.2891 64.4996 86.5434 64.5557C86.7991 64.6131 87.0535 64.6405 87.2973 64.6405C87.8073 64.6405 88.2079 64.5191 88.5031 64.279C88.7996 64.0349 88.9446 63.7086 88.9446 63.2936C88.9446 63.0691 88.8866 62.8589 88.7693 62.6592C88.6494 62.4634 88.4491 62.2442 88.1671 62.0014L87.1009 61.0865C86.923 60.9337 86.7991 60.7993 86.7279 60.6818C86.6528 60.5657 86.6172 60.4456 86.6172 60.3242C86.6172 60.1154 86.7003 59.947 86.869 59.8152C87.0403 59.6808 87.2577 59.6181 87.5384 59.6181C87.7058 59.6181 87.8943 59.6416 88.1012 59.6873C88.3094 59.733 88.5585 59.8087 88.8431 59.9118L88.7812 59.2761C88.598 59.2017 88.4043 59.1469 88.1934 59.1078C87.9813 59.0712 87.7704 59.0503 87.5543 59.0503C87.0429 59.0477 86.6436 59.1665 86.351 59.4067ZM161.959 59.4067C161.668 59.6455 161.52 59.9731 161.52 60.3856C161.52 60.6127 161.576 60.8163 161.682 61.0029C161.788 61.187 162.008 61.4206 162.341 61.7077L163.298 62.5287C163.488 62.6919 163.625 62.8406 163.713 62.9764C163.798 63.1095 163.844 63.2453 163.844 63.3823C163.844 63.6016 163.757 63.7739 163.583 63.8992C163.409 64.0258 163.174 64.0871 162.875 64.0871C162.662 64.0871 162.445 64.0545 162.223 63.9866C162.003 63.9187 161.709 63.7934 161.35 63.6055L161.39 64.309C161.642 64.4186 161.899 64.4996 162.156 64.5557C162.41 64.6131 162.662 64.6405 162.907 64.6405C163.415 64.6405 163.816 64.5191 164.111 64.279C164.408 64.0349 164.554 63.7086 164.554 63.2936C164.554 63.0691 164.496 62.8589 164.376 62.6592C164.259 62.4634 164.057 62.2442 163.775 62.0014L162.712 61.0865C162.532 60.9337 162.41 60.7993 162.337 60.6818C162.261 60.5657 162.227 60.4456 162.227 60.3242C162.227 60.1154 162.31 59.947 162.477 59.8152C162.644 59.6808 162.869 59.6181 163.147 59.6181C163.315 59.6181 163.504 59.6416 163.711 59.6873C163.919 59.733 164.167 59.8087 164.454 59.9118L164.389 59.2761C164.206 59.2017 164.011 59.1469 163.802 59.1078C163.591 59.0712 163.38 59.0503 163.165 59.0503C162.654 59.0477 162.252 59.1665 161.959 59.4067Z" fill="#BBC2CC"/>
<path d="M73.5699 59.0479H7.09863V64.5715H73.5699V59.0479Z" fill="#D0D5DE"/>
</svg>
