<svg width="59" height="72" viewBox="0 0 59 72" fill="none" xmlns="http://www.w3.org/2000/svg">
<path d="M16.3386 52.7921L6.95304 41.7236H2.97656V59.0487H6.84964V48.0047L16.209 59.0487H20.2109V41.7236H16.3386V52.7921ZM53.525 41.7254L50.9555 52.8166L48.2579 41.7254H44.5472L41.8051 52.6905L39.3129 41.7254H35.2576L39.745 59.0458H43.7357L46.3685 48.0881L49.045 59.0458H52.9643L53.0037 58.8979L57.5218 41.7254H53.525Z" fill="#BBC2CC"/>
<path d="M2.56348 64.3614V64.3469C2.56348 62.845 3.70749 61.5742 5.31617 61.5742C6.2483 61.5742 6.81941 61.8337 7.3697 62.3021L6.77445 63.0139C6.36186 62.6608 5.95766 62.4396 5.27933 62.4396C4.29563 62.4396 3.54769 63.3042 3.54769 64.3305V64.3471C3.54769 65.4495 4.27175 66.2618 5.36266 66.2618C5.86645 66.2618 6.32451 66.1011 6.6525 65.8546V64.8517H5.28644V64.0315H7.56075V66.2832C7.03384 66.7358 6.27853 67.1198 5.33268 67.1198C3.66252 67.1195 2.56348 65.9235 2.56348 64.3614Z" fill="#BBC2CC"/>
<path d="M8.12695 64.3614V64.3469C8.12695 62.8373 9.28722 61.5742 10.9269 61.5742C12.5678 61.5742 13.7103 62.8215 13.7103 64.3303V64.3469C13.7103 65.8544 12.5521 67.1195 10.9104 67.1195C9.27147 67.1195 8.12695 65.871 8.12695 64.3614ZM12.7274 64.3614V64.3469C12.7274 63.3042 11.9713 62.4396 10.9104 62.4396C9.85021 62.4396 9.11193 63.2884 9.11193 64.3305V64.3471C9.11193 65.389 9.86673 66.2536 10.9269 66.2536C11.9868 66.2536 12.7274 65.4033 12.7274 64.3614Z" fill="#BBC2CC"/>
<path d="M13.6436 61.665H14.6806L16.2901 65.7868L17.8924 61.665H18.9066L16.6869 67.0665H15.8627L13.6436 61.665Z" fill="#BBC2CC"/>
<path d="M19.5391 61.665H23.4988V62.5085H20.4778V63.903H23.1558V64.7456H20.4778V66.1853H23.5376V67.0267H19.5391V61.665Z" fill="#BBC2CC"/>
<path d="M24.4475 61.6646H26.8267C27.499 61.6646 28.0254 61.8651 28.3681 62.2011C28.6511 62.4922 28.8099 62.8899 28.8099 63.3575V63.3739C28.8099 64.2543 28.2843 64.7829 27.5363 64.9977L28.9781 67.0262H27.8722L26.56 65.1579H25.3852V67.0262H24.4473V61.6646H24.4475ZM26.7587 64.3237C27.4296 64.3237 27.8575 63.9703 27.8575 63.4267V63.4116C27.8575 62.8373 27.4451 62.523 26.7503 62.523H25.3855V64.3237H26.7587Z" fill="#BBC2CC"/>
<path d="M29.6387 61.665H30.5058L33.3672 65.3714V61.665H34.2909V67.0267H33.5041L30.5599 63.2113V67.0267H29.6387V61.665Z" fill="#BBC2CC"/>
<path d="M35.2422 61.665H36.2416L37.8661 64.2015L39.4913 61.665H40.4907V67.0267H39.5527V63.182L37.8661 65.7102H37.8361L36.1664 63.197V67.0267H35.2422V61.665Z" fill="#BBC2CC"/>
<path d="M41.3857 61.665H45.3439V62.5085H42.3237V63.903H45.0017V64.7456H42.3237V66.1853H45.3836V67.0267H41.3857V61.665Z" fill="#BBC2CC"/>
<path d="M46.3057 61.665H47.1756L50.0355 65.3714V61.665H50.9592V67.0267H50.1739L47.2294 63.2113V67.0267H46.3057V61.665Z" fill="#BBC2CC"/>
<path d="M53.3969 62.5391H51.7041V61.6646H56.0368V62.5391H54.3437V67.0264H53.3969V62.5391Z" fill="#BBC2CC"/>
<path d="M21.2773 56.6357L23.5557 53.8952C25.1332 55.2022 26.7858 56.0326 28.788 56.0326C30.3662 56.0326 31.3186 55.4035 31.3186 54.3733V54.3218C31.3186 53.3421 30.7176 52.839 27.7873 52.0846C24.2564 51.1802 21.9788 50.2 21.9788 46.7049V46.6544C21.9788 43.4615 24.5326 41.3496 28.1137 41.3496C30.6662 41.3496 32.8458 42.1545 34.6237 43.5873L32.6207 46.5038C31.0671 45.4229 29.54 44.769 28.0619 44.769C26.5853 44.769 25.8094 45.4474 25.8094 46.3025V46.3533C25.8094 47.5095 26.5594 47.8868 29.5898 48.666C33.1458 49.5956 35.1488 50.8787 35.1488 53.9457V53.9957C35.1488 57.4906 32.4954 59.452 28.7138 59.452C26.0589 59.4518 23.3804 58.5213 21.2773 56.6357Z" fill="#BBC2CC"/>
<path d="M12.2001 8.84521C11.8368 8.85746 11.6213 9.06972 11.5428 9.49348C11.5428 9.49348 11.4557 10.1239 11.3574 11.1977C11.2667 12.1786 11.1582 13.7361 11.1582 15.5873C11.1582 19.7578 11.7004 25.6824 14.2846 30.2246C16.2678 33.6894 19.0705 35.6406 22.1969 35.7426C20.9787 34.8074 19.5273 33.2554 18.7562 30.841C18.0296 28.551 17.66 25.8427 17.66 22.7922C17.66 18.5811 18.3622 14.9707 18.5776 13.9642C18.583 13.9377 18.587 13.9206 18.5878 13.9134C18.7146 13.3262 19.052 12.8601 19.5029 12.6225C16.3143 10.5673 13.5725 9.35979 13.042 9.13299C12.725 8.98579 12.5525 8.92354 12.5512 8.92277L12.5464 8.92201L12.5423 8.91997C12.4257 8.87124 12.3106 8.84598 12.2001 8.84521Z" fill="#BBC2CC"/>
<path d="M39.3589 13.7153C39.2779 13.7153 39.19 13.7528 39.0896 13.8296C39.0871 13.8317 38.9895 13.9057 38.8101 14.0618C38.6287 14.2077 38.3696 14.4322 38.0117 14.7504C37.5333 15.1782 36.5597 16.0826 35.4246 17.336C33.6269 19.3466 31.2449 22.5137 30.1126 26.1818C29.4594 28.3213 29.1344 30.1745 29.1451 31.6894C29.1329 32.8231 29.3128 33.7809 29.6776 34.5401C30.0239 35.2822 30.5521 35.8086 31.2947 36.1517C31.6061 36.2907 32.0022 36.3619 32.4722 36.3619H32.4946C34.6754 36.3619 38.3125 34.5347 39.5682 30.4722C40.2425 28.2827 40.5855 25.6991 40.5855 22.7923C40.5855 19.1828 40.0634 16.038 39.8383 14.8537C39.7517 14.4174 39.7019 14.1794 39.7019 14.1794C39.648 13.972 39.5444 13.7153 39.3589 13.7153Z" fill="#BBC2CC"/>
<path d="M20.1721 13.7153C19.9806 13.7153 19.866 13.9694 19.8027 14.1863C19.7943 14.2268 19.7461 14.4595 19.6668 14.856C19.6069 15.1586 19.4862 15.8027 19.3561 16.7161C19.1513 18.1422 18.9082 20.3541 18.9082 22.7925C18.9082 25.7453 19.2545 28.3241 19.9369 30.4579C21.2171 34.5307 24.9471 36.3619 27.1864 36.3619H27.2082C27.68 36.3619 28.0946 36.2859 28.4409 36.1374C28.6236 36.0622 28.8001 35.9662 28.9978 35.8328C28.8329 35.6075 28.6863 35.3598 28.5527 35.0797C28.117 34.1699 27.8987 33.0614 27.8853 31.6929C27.8977 30.0028 28.2493 28.0263 28.9312 25.815C28.9896 25.6129 29.0605 25.4063 29.1301 25.207C29.1573 25.1269 29.1848 25.0483 29.2112 24.969C26.8332 19.0333 21.3682 14.5588 20.7514 14.0666C20.5558 13.9072 20.4562 13.8319 20.4549 13.8312C20.3467 13.7559 20.2491 13.7153 20.1721 13.7153Z" fill="#BBC2CC"/>
<path d="M29.7454 4C29.6138 4 29.4777 4.1046 29.3397 4.3115C29.3377 4.31558 29.2267 4.47733 29.0445 4.78169C28.7711 5.23912 28.51 5.68533 28.246 6.14684C27.6571 7.19565 26.7613 8.89093 25.8416 11C25.2103 12.4384 24.6349 13.9354 24.1318 15.4514C25.9016 17.228 28.276 19.9997 29.8562 23.3647C31.0764 20.7283 32.9303 18.1033 35.3723 15.5542C33.7069 10.4757 31.3671 6.3341 30.4339 4.78195C30.2363 4.47121 30.1347 4.30691 30.1347 4.30691C29.9467 4.02245 29.7891 4 29.7454 4Z" fill="#BBC2CC"/>
<path d="M47.2681 8.84521C47.1972 8.84598 47.0826 8.85899 46.9373 8.91997L46.9332 8.92201L46.9299 8.92277C46.9276 8.92354 46.7559 8.98579 46.4436 9.13095C46.1383 9.25621 45.7338 9.44577 45.2234 9.68686L45.0448 9.77028C43.4707 10.5356 41.9382 11.39 40.4886 12.3082C40.3237 12.4026 40.1588 12.5075 39.9957 12.6149C40.4436 12.8422 40.7886 13.316 40.9154 13.9061C40.919 13.9211 40.9223 13.9374 40.9279 13.9647C41.1397 14.9712 41.8318 18.5809 41.8318 22.7919C41.8318 25.8253 41.4718 28.5329 40.7622 30.8387C40.0008 33.2641 38.5855 34.8109 37.3965 35.7386C40.4764 35.5939 43.2362 33.6478 45.1957 30.2241C47.78 25.6824 48.3221 19.7578 48.3221 15.5873C48.3221 14.1112 48.2553 12.6299 48.123 11.1852C48.0249 10.1226 47.9375 9.4922 47.9367 9.48608C47.859 9.06998 47.6402 8.85695 47.2681 8.84521Z" fill="#BBC2CC"/>
<path d="M38.7201 5.31885C38.68 5.31885 38.6391 5.32216 38.5977 5.32854L38.5928 5.32931L38.588 5.33007C38.4938 5.33951 38.3957 5.38008 38.2956 5.44972L38.2915 5.45304L38.2867 5.45585C38.2798 5.46018 37.6036 5.87629 36.5599 6.62864C35.9804 7.04551 35.0622 7.7328 33.9365 8.66731C34.7533 10.3725 35.4852 12.1109 36.1145 13.8435C37.4577 12.7809 38.9295 11.7693 40.6019 10.756C40.1281 8.34892 39.5867 6.55721 39.3733 5.89185C39.3652 5.86838 39.3606 5.85205 39.3563 5.83955C39.2259 5.49412 39.012 5.31885 38.7201 5.31885Z" fill="#BBC2CC"/>
<path d="M20.7604 5.31885C20.4693 5.31885 20.2551 5.49412 20.1245 5.83981C20.1202 5.85205 20.1156 5.86863 20.108 5.8921C19.8946 6.55746 19.352 8.34918 18.8789 10.7562C20.5511 11.7693 22.0231 12.7811 23.3655 13.843C23.9633 12.1622 24.6955 10.4236 25.5443 8.66731C24.6554 7.92721 23.7733 7.24195 22.9212 6.62864C21.8773 5.87629 21.2012 5.46018 21.1944 5.45585L21.1903 5.45304L21.1855 5.44972C21.0859 5.37982 20.9878 5.33951 20.8931 5.33007L20.8882 5.32931L20.8839 5.32854C20.8417 5.32216 20.8001 5.31885 20.7604 5.31885Z" fill="#BBC2CC"/>
<path d="M5.68026 16.5874C4.77481 16.5874 4.24917 16.6142 4.24383 16.615C3.8879 16.6361 3.55865 16.8321 3.34117 17.1538C3.21364 17.3454 3.14809 17.5831 3.15825 17.8212C3.22177 18.4477 3.6374 20.715 6.33319 24.129C7.71525 23.4405 9.0869 22.8351 10.4148 22.3279C10.1389 20.6252 9.97457 18.7672 9.92757 16.8004C8.27849 16.6451 6.979 16.5999 6.17034 16.5902C5.99656 16.5882 5.83295 16.5874 5.68026 16.5874Z" fill="#BBC2CC"/>
<path d="M53.7965 16.5874C53.6446 16.5874 53.4823 16.5882 53.3105 16.5902C52.5013 16.5999 51.2018 16.6451 49.5533 16.8004C49.5078 18.696 49.3434 20.554 49.0645 22.3279C50.3932 22.8343 51.7653 23.4405 53.1474 24.129C55.8503 20.7061 56.2614 18.4352 56.3229 17.8163C56.344 17.6048 56.2286 17.2836 56.1402 17.155C55.922 16.8321 55.5935 16.6361 55.2355 16.615C55.2314 16.6142 54.6964 16.5874 53.7965 16.5874Z" fill="#BBC2CC"/>
<path d="M48.8389 23.5918C48.2861 26.3844 47.4228 28.8248 46.2709 30.8485C45.0703 32.9667 43.5683 34.5732 41.7998 35.6353C54.6288 34.9358 58.2496 30.7898 58.6274 30.3112L58.6295 30.3084C58.757 30.1135 58.821 29.8992 58.821 29.6698C58.821 29.2994 58.647 28.9394 58.3668 28.7307C58.366 28.7307 58.2156 28.6307 57.9463 28.4465L57.9435 28.4432L57.9402 28.4404C57.737 28.2865 57.4425 28.0926 57.0708 27.8482C56.9728 27.7839 56.8691 27.7153 56.7621 27.6441C55.844 27.0528 54.3664 26.1545 52.555 25.2447C51.304 24.61 50.0551 24.0548 48.8389 23.5918Z" fill="#BBC2CC"/>
<path d="M10.6415 23.5918C6.31446 25.2383 2.83135 27.5278 1.52246 28.445C1.26205 28.632 1.11267 28.732 1.10708 28.7361C0.833208 28.9394 0.65918 29.2994 0.65918 29.6698C0.65918 29.8984 0.722694 30.1114 0.848705 30.3051C0.858867 30.3176 0.866489 30.3298 0.871824 30.3392C0.8985 30.3681 0.924414 30.3997 0.955662 30.438C0.970652 30.4563 0.987674 30.4778 1.00622 30.4997C1.09412 30.5977 1.2994 30.8112 1.62129 31.0801C2.16243 31.5442 3.13266 32.244 4.6946 32.9504C7.92492 34.4209 12.4039 35.3493 17.6812 35.647C15.9325 34.5885 14.3972 32.944 13.2088 30.848C12.0574 28.8243 11.1944 26.3838 10.6415 23.5918Z" fill="#BBC2CC"/>
<path d="M47.2309 36.5771C46.5737 36.5771 45.6014 36.7113 44.1304 36.9154C43.9122 36.9455 43.6846 36.9772 43.4437 37.0106C42.7994 37.1017 42.0149 37.1443 40.9746 37.1443C40.3371 37.1443 39.6763 37.1292 38.9764 37.1134L38.9144 37.1121C38.249 37.0971 37.495 37.08 36.7389 37.08C35.1668 37.08 33.1339 37.1445 31.3431 37.6456C31.2531 37.6724 31.1876 37.7696 31.1972 37.8326C31.2061 37.8908 31.3166 37.9107 31.4099 37.9107C31.4366 37.9107 31.4637 37.9094 31.493 37.9073C32.2033 37.8436 32.8905 37.8122 33.5381 37.8122C35.8757 37.8122 37.4716 38.2176 39.0158 38.6084C40.468 38.9768 41.8396 39.3248 43.7458 39.3248C45.778 39.3248 47.3877 38.8906 48.0505 38.1622C48.2726 37.9178 48.3729 37.651 48.3477 37.368C48.2944 36.8216 48.1206 36.5771 47.2309 36.5771Z" fill="#BBC2CC"/>
<path d="M12.2439 36.5771C11.359 36.5771 11.1857 36.8218 11.1326 37.3685C11.1047 37.6492 11.2015 37.915 11.4202 38.1566C12.0698 38.8768 13.723 39.3238 15.7343 39.3238C17.6398 39.3238 19.0122 38.976 20.4643 38.6074C22.0085 38.2158 23.6045 37.8112 25.942 37.8112C26.5891 37.8112 27.2776 37.8425 27.9867 37.9063C28.0174 37.9084 28.0446 37.9096 28.0705 37.9096C28.164 37.9096 28.275 37.89 28.2839 37.8316C28.2928 37.7686 28.228 37.6714 28.1345 37.6446C26.347 37.1435 24.3133 37.079 22.742 37.079H22.7412C21.9859 37.079 21.2311 37.0961 20.5657 37.1111L20.5022 37.1124C19.8028 37.1282 19.1427 37.1433 18.5056 37.1433C17.4645 37.1433 16.6797 37.1009 16.0349 37.0096C15.79 36.9754 15.5555 36.9432 15.3327 36.9124C13.867 36.7106 12.8983 36.5771 12.2439 36.5771Z" fill="#BBC2CC"/>
</svg>
