<svg width="155" height="72" viewBox="0 0 155 72" fill="none" xmlns="http://www.w3.org/2000/svg">
<path d="M51.6154 29.8118V55H60.4103V29.8118H75V23H37V29.8118H51.6154Z" fill="#BBC2CC"/>
<path d="M85.2975 48.0861V29.5591H98.4133C101.918 29.5591 106.788 33.2954 106.788 38.887C106.788 44.3498 101.866 48.0603 98.4133 48.0603H85.2975V48.0861ZM76.8457 22.6533V55.0949H96.79C109.571 55.0949 115.034 46.1793 115.034 38.887C115.034 31.5947 109.571 22.6533 96.79 22.6533H76.8457Z" fill="#BBC2CC"/>
<path d="M125.392 22.6533H116.528V55.1207H125.392V22.6533Z" fill="#BBC2CC"/>
<path d="M125.65 38.1655L142.322 22.6533H154.046L136.576 38.1655L155 55.0949H142.734L125.65 38.1655Z" fill="#BBC2CC"/>
<path d="M19.1267 48.2407L7.24779 55.0949H31.0057L19.1267 48.2407ZM0.393555 43.216L12.2725 22.6533V36.3618L0.393555 43.216ZM37.8599 43.216L25.981 22.6533V36.3618L37.8599 43.216Z" fill="#BBC2CC"/>
<path d="M12.2471 22.6533L19.1013 29.5076L25.9555 22.6533H12.2471ZM25.9813 36.3618L19.1271 29.5076L12.2728 36.3618H25.9813Z" fill="#BBC2CC"/>
<path d="M19.126 48.2408L28.5054 45.7413L26.006 36.3618L19.126 48.2408ZM37.8591 43.216L28.4797 45.7155L30.9792 55.095L37.8591 43.216Z" fill="#BBC2CC"/>
<path d="M12.2467 36.3618L9.74726 45.7413L19.1267 48.2408L12.2467 36.3618ZM7.24778 55.095L9.74726 45.7155L0.393555 43.216L7.24778 55.095Z" fill="#BBC2CC"/>
</svg>
