<svg width="70" height="64" viewBox="0 0 70 64" fill="none" xmlns="http://www.w3.org/2000/svg">
<path d="M2.2666 44.2764H18.0271V49.0511H13.5058V60.5263H6.93843V49.0511H2.2666V44.2764Z" fill="#BBC2CC"/>
<path d="M26.0089 50.842L22.6907 60.5263H16.3838L22.5694 44.2764H29.4189L35.7535 60.5263H29.3691L26.0089 50.842Z" fill="#BBC2CC"/>
<path d="M34.2471 44.2764H50.007V49.0511H45.487V60.5263H38.92V49.0511H34.2471V44.2764Z" fill="#BBC2CC"/>
<path d="M57.9916 50.842L54.6722 60.5263H48.3652L54.5529 44.2764H61.4003L67.7328 60.5263H61.3507L57.9916 50.842Z" fill="#BBC2CC"/>
<path fill-rule="evenodd" clip-rule="evenodd" d="M58.2241 14.4273C57.6356 13.2752 56.8606 12.171 55.8964 11.1355C53.7298 8.80744 50.6729 6.87018 47.0553 5.53404C43.4079 4.18756 39.2478 3.4751 35.0202 3.4751C30.7926 3.4751 26.6324 4.18756 22.9869 5.53404C19.3675 6.87033 16.3104 8.80759 14.1438 11.1355C13.1803 12.1709 12.4028 13.2766 11.8145 14.4293C16.5241 13.2955 24.5803 11.7984 32.0605 11.6401C32.7821 11.6247 33.2789 11.8548 33.606 12.2675C34.0044 12.7701 33.9745 14.5618 33.9647 15.3634L33.7521 36.0809C34.1733 36.0948 34.5966 36.1038 35.0202 36.1038C35.4473 36.1038 35.8729 36.0968 36.2942 36.0829L36.0815 15.3632C36.0705 14.5618 36.0397 12.77 36.4395 12.2674C36.7674 11.8548 37.2625 11.6247 37.9839 11.64C45.461 11.797 53.5153 13.2944 58.2241 14.4273Z" fill="#BBC2CC"/>
<path fill-rule="evenodd" clip-rule="evenodd" d="M59.2296 17.1212C52.3366 15.5698 47.7333 15.2829 43.1913 15.032C39.2322 14.8129 39.1805 16.2204 39.5757 18.9101C39.6016 19.0742 39.6334 19.2812 39.6711 19.5171C40.9991 27.3477 42.6528 34.0863 42.9369 35.23C52.5889 33.0335 59.5497 26.9436 59.5497 19.7896C59.5497 18.8888 59.4404 17.9963 59.2296 17.1212Z" fill="#BBC2CC"/>
<path fill-rule="evenodd" clip-rule="evenodd" d="M30.4689 18.9101C30.8646 16.2205 30.8139 14.8129 26.8552 15.032C22.3116 15.2829 17.7073 15.5697 10.8116 17.1221C10.601 17.9972 10.4902 18.8886 10.4902 19.7895C10.4902 22.8814 11.7537 25.8734 14.1444 28.4439C16.3111 30.772 19.3681 32.7092 22.9876 34.0463C24.2976 34.5291 25.68 34.9249 27.104 35.2414C27.3712 34.17 29.0629 27.2912 30.4053 19.3205C30.4301 19.1678 30.4531 19.0268 30.4689 18.9101Z" fill="#BBC2CC"/>
</svg>
