<svg width="173" height="72" viewBox="0 0 173 72" fill="none" xmlns="http://www.w3.org/2000/svg">
<path d="M0 43.5315H4.09921V50.9846H0V43.5315ZM15.4386 24.3664C13.2381 23.1952 11.712 23 8.10969 23H0V39.9647H8.0742C11.2861 39.9647 13.6818 39.7695 15.7935 38.3676C18.1004 36.8415 19.2894 34.3039 19.2894 31.3759C19.2894 28.1994 17.8165 25.6618 15.4386 24.3664ZM9.01471 36.4156H4.09921V26.6378L8.73078 26.6023C12.9542 26.5491 15.0659 28.0397 15.0659 31.4114C15.0659 35.0314 12.4573 36.4156 9.01471 36.4156Z" fill="#BBC2CC"/>
<path d="M168.671 30.4354L164.767 41.5086C164.058 43.4961 163.703 44.6318 163.046 46.5483H162.975C162.46 44.8979 161.981 43.567 161.325 41.615L157.545 30.4176H153.002L160.863 50.9669C160.686 51.4105 160.508 51.8719 160.313 52.3511C159.657 53.9482 158.095 54.9951 156.374 54.9951H154.422V58.491H156.427C159.674 58.491 162.602 56.5035 163.809 53.4868C166.311 47.2226 170.57 36.5576 173.001 30.4354H168.671ZM59.6608 47.0274C59.6608 54.4628 56.2536 58.491 49.3684 58.491C44.2399 58.491 41.1522 55.7937 40.052 51.73H44.2044C44.9143 53.611 46.4049 55.2968 49.4394 55.2968C54.1419 55.2968 55.81 52.3688 55.81 46.7967C55.7745 46.7967 55.7745 46.7612 55.739 46.7612C54.7275 48.518 52.4561 50.0796 48.8538 50.0796C43.0687 50.0796 39.3954 45.8917 39.3954 40.0179C39.3954 33.9135 43.3881 29.8143 48.907 29.8143C52.4738 29.8143 54.621 31.3404 55.7922 33.0262C55.7568 32.6003 55.7568 32.1744 55.7568 31.7308V30.4354H59.6608V47.0274ZM43.6898 39.9824C43.6898 43.9752 45.9258 46.8322 49.7588 46.8322C53.2014 46.8322 55.8632 44.4011 55.8632 39.876C55.8632 35.8477 53.5208 33.1504 49.7588 33.1504C45.9967 33.1504 43.6898 35.83 43.6898 39.9824ZM66.1379 41.7392C66.2976 45.3416 68.6045 48.1986 72.5972 48.1986C75.4188 48.1986 76.7852 46.8677 77.8322 45.1109H81.7894C80.6182 48.8197 77.3708 51.4815 72.4375 51.4815C66.1024 51.4815 62.1451 47.2226 62.1451 40.7987C62.1451 34.3749 66.2443 29.8498 72.4375 29.8498C79.1276 29.8498 82.2153 34.9427 82.2153 40.4616V41.757L66.1379 41.7392ZM78.0983 38.616C77.7434 35.3686 75.7027 33.0617 72.3488 33.0617C69.1369 33.0617 66.6702 35.1734 66.2798 38.616H78.0983ZM88.5504 30.4354V33.0617C89.207 31.1452 91.2123 29.9207 93.5192 29.9207C93.8563 29.9207 94.1935 29.9385 94.5307 29.9917V33.5941C94.0693 33.5053 93.6256 33.4698 93.1643 33.4698C89.4377 33.4698 88.7456 36.2027 88.7456 40.3196V50.9669H84.7884V34.1087C84.7884 32.8133 84.7884 31.6775 84.7529 30.4354H88.5504ZM135.168 48.0389C134.103 49.7957 132.116 51.4815 128.638 51.4815C123.864 51.4815 121.522 48.5535 121.522 43.2299V30.4354H125.461V41.7392C125.461 45.7675 126.792 48.1986 130.004 48.1986C134.227 48.1986 134.973 44.3656 134.973 39.8582V30.4354H138.93V47.8792C138.93 48.9439 138.93 49.9554 138.965 50.9669H135.168V48.0389ZM147.82 30.4354H151.653V33.4876H147.82V45.8207C147.82 47.7727 148.796 48.3583 150.323 48.3583C150.642 48.3583 150.979 48.3228 151.299 48.2873V51.2153C150.802 51.3041 150.287 51.3573 149.772 51.3751C146.135 51.3751 143.828 50.1684 143.828 46.0514V33.4876H140.722V30.4354H143.81V24.881H147.82V30.4354ZM96.9441 23H103.794C114.051 23.071 118.984 28.0752 119.019 37.0544C119.055 44.7027 115.098 50.8959 104.468 50.9847H96.9441V23ZM101.097 47.4888H103.492C110.928 47.4888 114.814 44.6495 114.814 37.0367C114.796 30.3466 110.945 26.5136 103.883 26.5136C102.516 26.5136 101.097 26.5491 101.097 26.5491V47.4888ZM33.6636 50.9847C33.5394 50.1684 33.5394 49.6537 33.4684 48.1631C31.9068 50.3991 29.8306 51.3751 26.5477 51.3751C22.2355 51.3751 19.1123 49.2633 19.1123 45.4303C19.1123 41.0117 23.3357 39.5566 28.8191 38.8112C30.1855 38.616 31.7116 38.4563 33.0425 38.3499C33.0425 34.2861 30.7888 33.0617 28.4287 33.0617C26.0685 33.0617 24.3472 34.7298 24.3472 36.877H20.5142C20.5142 32.7068 23.7971 29.9207 28.4997 29.9207C33.2022 29.9207 36.8578 31.8727 36.8578 39.3968V43.3896C36.8578 46.7257 37.0175 49.1391 37.3724 51.0201H33.6636V50.9847ZM23.3712 45.3771C23.3712 47.2936 24.9328 48.5003 27.4349 48.5003C31.1083 48.5003 33.078 46.2643 33.078 42.2716C33.0603 41.899 33.078 41.544 33.1135 41.1714C26.4235 41.8635 23.3712 42.52 23.3712 45.3771Z" fill="#BBC2CC"/>
</svg>
