<svg width="64" height="73" viewBox="0 0 64 73" fill="none" xmlns="http://www.w3.org/2000/svg">
<path d="M3.90203 20C4.14147 20.053 4.38091 20.0972 4.61149 20.1678C6.23438 20.6448 7.27196 22.1641 7.15667 23.8865C7.05025 25.4765 5.78209 26.8279 4.16807 27.0841C2.16385 27.3932 0.336993 26.0506 0.0532095 24.0544C0.0443412 23.9925 0.0177365 23.9395 0 23.8865C0 23.6745 0 23.4625 0 23.2594C0.0177365 23.2064 0.0443412 23.1446 0.0532095 23.0916C0.310389 21.5988 1.17061 20.6183 2.60726 20.159C2.83784 20.0883 3.07728 20.053 3.31672 20C3.51182 20 3.70693 20 3.90203 20Z" fill="#BBC2CC"/>
<path d="M46.2654 53.3801C45.7244 53.1416 45.2278 52.9561 44.7578 52.7176C41.1218 50.845 38.754 47.939 37.9825 43.9376C37.0336 38.9999 38.6032 34.8484 42.4787 31.6155C44.1902 30.1846 46.1945 29.3454 48.3938 29.0098C49.1564 28.895 49.928 28.8685 50.6995 28.8685C54.637 28.8508 58.5834 28.8596 62.5209 28.8596C62.645 28.8596 62.7781 28.8596 62.92 28.8596C62.92 30.9884 62.92 33.073 62.92 35.1929C62.4056 35.1929 61.9001 35.1929 61.3325 35.1929C63.186 38.6466 63.5407 42.1887 62.175 45.819C60.8093 49.4494 58.2109 51.905 54.5572 53.3183C58.0424 55.1555 60.0555 57.9468 60.2329 61.8951C60.3659 64.7482 59.3461 67.2214 57.2886 69.2089C53.1205 73.2279 46.5581 72.8657 42.8777 68.4492C41.5741 66.8858 40.838 65.0839 40.6607 63.0611C40.4833 61.0383 40.909 59.1392 41.92 57.3726C42.9487 55.606 44.3942 54.2987 46.2654 53.3801ZM57.1467 41.4467C57.1822 37.7633 54.1493 34.7159 50.4157 34.6718C46.7265 34.6276 43.6227 37.622 43.5517 41.2347C43.4719 45.0947 46.6024 48.1863 50.3093 48.204C54.0517 48.2128 57.1113 45.2184 57.1467 41.4467ZM50.2827 58.2648C48.0834 58.3354 46.2122 60.3052 46.5048 62.7078C46.7532 64.757 48.5889 66.3381 50.7705 66.1703C52.9432 66.0025 54.5927 64.0769 54.4153 61.9393C54.2291 59.6692 52.3047 58.1764 50.2827 58.2648Z" fill="#BBC2CC"/>
<path d="M35.1539 53.6097C33.0255 53.6097 30.9149 53.6097 28.7776 53.6097C28.7776 53.062 28.7776 52.532 28.7776 51.9667C25.0618 54.2191 21.1864 54.6696 17.1425 53.115C14.5441 52.1169 12.5399 50.3768 11.0589 48.0272C8.21216 43.5047 8.65558 37.4452 12.1231 33.3732C14.1894 30.953 16.7966 29.4602 19.9537 28.992C23.1019 28.5327 26.0373 29.1775 28.7687 30.9176C28.7687 30.3523 28.7687 29.84 28.7687 29.3012C30.9149 29.3012 33.0255 29.3012 35.1539 29.3012C35.1539 37.4099 35.1539 45.5009 35.1539 53.6097ZM28.6801 41.4466C28.6889 37.6749 25.6205 34.601 21.8338 34.5922C18.0737 34.5833 14.9609 37.6572 14.952 41.3936C14.9343 45.1741 18.0116 48.2657 21.8072 48.2833C25.5762 48.301 28.6712 45.2271 28.6801 41.4466Z" fill="#BBC2CC"/>
<path d="M6.76665 53.6097C4.64714 53.6097 2.54537 53.6097 0.416992 53.6097C0.416992 45.5187 0.416992 37.4276 0.416992 29.3101C2.5365 29.3101 4.63828 29.3101 6.76665 29.3101C6.76665 37.4099 6.76665 45.4922 6.76665 53.6097Z" fill="#BBC2CC"/>
</svg>
