<svg width="201" height="72" viewBox="0 0 201 72" fill="none" xmlns="http://www.w3.org/2000/svg">
<g clip-path="url(#clip0_4004_54501)">
<path d="M175.707 41.1237C174.467 41.1281 173.918 40.1158 173.958 39.1637C173.992 38.4959 174.297 37.9438 174.81 37.7126L177.357 36.5464L177.361 39.2618C177.361 40.4176 176.803 41.1149 175.707 41.1237ZM180.724 39.9295V34.2139C180.724 32.3585 178.392 30.9868 176.398 30.9934C174.196 30.9956 171.602 32.2193 171.396 35.2497C172.608 33.4951 174.372 32.714 176.246 33.4951C177.46 33.9997 177.726 35.534 176.786 35.8167L173.033 36.9506C171.488 37.4195 170.681 38.56 170.743 39.9038C170.75 40.0407 170.767 40.1799 170.793 40.3272C168.801 41.207 167.949 40.1048 167.949 38.3179L167.963 32.1574H171.441L171.454 31.0043H167.988L167.997 25.8107L167.501 25.6891C166.898 28.9074 166.052 29.883 163.479 30.9419L163.505 25.8474C159.979 24.4051 156.303 25.0257 154.844 25.6656C151.464 27.1353 150.46 31.3533 153.595 33.9186L158.196 37.6649C160.758 39.7619 159.608 43.494 157.162 44.0675C154.943 44.6153 152.707 43.1582 151.767 41.6414L151.149 41.975C152.464 44.4187 154.971 45.9037 157.52 45.7986C159.913 45.7087 162.977 44.3135 163.72 41.9131C164.61 38.9857 163.104 36.1952 161.816 35.1917L156.475 31.0038C155.629 30.336 155.359 29.7926 155.4 28.8811C155.503 26.8932 157.537 25.9668 158.752 25.9367C161.286 25.8896 162.947 28.7891 163.003 32.1399L164.323 32.1251V38.6816C164.323 40.9583 165.295 42.5973 167.359 42.7194C168.518 42.7857 170.196 42.4713 171.13 41.2749C171.581 42.1119 172.436 42.7709 173.795 42.7238C175.117 42.6767 176.357 42.0988 177.46 40.9884C177.947 42.2291 178.818 42.7709 179.795 42.7364C180.664 42.715 181.752 41.9514 182.069 40.8794C181.194 41.3116 180.724 40.8991 180.724 39.9295ZM194.894 31.9991C195.939 31.9991 196.868 33.281 196.808 34.8898H192.651C192.752 33.1506 193.847 31.9991 194.894 31.9991ZM195.967 41.0311C194.055 40.9479 192.46 38.5726 192.523 36.0155H200.509C200.248 33.0777 198.747 30.9397 195.304 30.989C191.527 31.0383 188.626 33.1889 188.744 37.2289C188.776 38.2456 189.057 39.1013 189.499 39.8161C188.076 41.3483 186.3 40.9309 186.3 38.6093L186.291 32.1492L189.761 32.1514L189.757 31.0065L186.291 31.0169L186.297 25.8239L185.842 25.6721V25.6913C185.323 28.9457 183.383 30.3837 181.02 31.0065L181.016 32.1514H182.51V39.0498C182.51 40.8816 183.58 41.9514 184.694 42.405C186.827 43.2826 188.786 42.3776 189.887 40.3661C191.222 42.0029 193.449 42.7238 195.121 42.7156C198.561 42.7024 200.361 40.7813 201.001 38.7994L200.636 38.4379C198.863 40.9632 197.511 41.0974 195.967 41.0311ZM76.317 41.6841C74.5102 41.6841 73.0208 39.4716 73.0208 36.7989C73.0208 34.124 74.5102 31.946 76.317 31.946C78.1238 31.946 79.5813 34.124 79.5813 36.7989C79.5813 39.4716 78.1238 41.6841 76.317 41.6841ZM76.3752 31.0131C72.6989 31.0131 69.7291 33.6277 69.7291 36.8526C69.7291 37.4666 69.8362 38.0572 70.034 38.6137C68.3469 40.4023 66.3126 41.0618 64.9909 40.9714C58.3876 40.5671 58.3255 28.0282 65.1733 28.118C69.094 28.1843 69.5637 31.3166 69.8428 32.8679L70.4372 32.6844L70.3707 27.2191H69.873C69.7807 27.5615 69.5637 27.9038 69.0358 27.9038C68.7545 27.8074 66.1687 26.9408 64.2097 27.0033C61.6903 27.0608 55.8941 28.6784 55.804 34.8235C55.7117 41.001 60.8449 42.8049 64.0553 42.7364C67.0125 42.6833 69.0188 40.9583 70.4372 39.471C71.5249 41.3883 73.7696 42.7046 76.3752 42.7046C80.0169 42.7046 82.9955 40.0873 82.9955 36.852C82.9955 33.6272 80.0169 31.0131 76.3752 31.0131ZM130.643 40.4368C130.643 41.0147 130.186 41.6545 129.33 41.6222C127.072 41.5625 125.521 39.0739 125.426 36.6389C125.371 34.8153 126.253 32.1985 128.324 32.1684C129.634 32.1366 130.643 32.6543 130.643 34.2078V40.4368ZM134.115 40.227V27.0285H128.781V27.4201C130.216 27.5445 130.643 27.4842 130.643 28.9693L130.607 32.1985C129.731 31.3188 128.51 31.0175 127.289 31.0175C124.057 31.0175 121.954 34.0216 121.954 36.6959C121.954 39.9208 123.596 42.4778 128.205 42.4778H135.761V42.0182C134.575 41.7482 134.115 41.0465 134.115 40.227ZM116.015 41.1023C114.746 41.1023 114.201 40.1092 114.233 39.1484C114.266 38.4812 114.596 37.9416 115.107 37.7L117.706 36.525L117.735 39.2366C117.735 40.4088 117.162 41.1023 116.015 41.1023ZM121.178 39.9295V34.2078C121.178 32.342 118.793 30.9917 116.738 30.9917C114.478 30.9917 111.819 32.2221 111.604 35.2327C112.843 33.4847 114.654 32.7036 116.585 33.4847C117.824 33.998 118.098 35.5346 117.133 35.8063L113.295 36.949C111.697 37.3982 110.881 38.5452 110.941 39.8999C111.002 41.1944 111.937 42.7863 114.085 42.6942C115.409 42.6668 116.678 42.0933 117.824 40.9824C118.31 42.2149 119.216 42.7589 120.212 42.7309C121.113 42.6942 122.233 41.9476 122.536 40.8608C121.658 41.31 121.178 40.892 121.178 39.9295ZM87.3833 40.1349V27.0285H81.8831V27.5056C83.2653 27.5998 83.6256 27.8354 83.6861 29.0356V39.987C83.6861 41.5148 83.3229 41.9322 81.9715 41.9646V42.4778H89.1577V41.9985C87.8063 41.9043 87.4135 41.4573 87.3833 40.1349ZM141.849 41.6841C140.045 41.6841 138.553 39.4672 138.553 36.7989C138.553 34.1262 140.045 31.9482 141.849 31.9482C143.654 31.9482 145.111 34.1262 145.111 36.7989C145.111 39.4672 143.654 41.6841 141.849 41.6841ZM141.877 31.0147C138.238 31.0147 135.264 33.6299 135.264 36.852C135.264 40.0834 138.238 42.6981 141.877 42.6981C145.551 42.6981 148.526 40.0834 148.526 36.852C148.526 33.6299 145.551 31.0147 141.877 31.0147ZM94.8748 41.6841C93.068 41.6841 91.5765 39.4672 91.5765 36.7989C91.5765 34.1262 93.068 31.9482 94.8748 31.9482C96.6773 31.9482 98.1347 34.1262 98.1347 36.7989C98.1347 39.4672 96.6773 41.6841 94.8748 41.6841ZM94.9309 31.0147C91.259 31.0147 88.2869 33.6299 88.2869 36.852C88.2869 40.0834 91.259 42.6981 94.9309 42.6981C98.5726 42.6981 101.547 40.0834 101.547 36.852C101.547 33.6299 98.5726 31.0147 94.9309 31.0147ZM111.819 31.5735C110.357 30.4242 108.969 30.5677 108.37 31.2782L106.083 33.9849V30.989H100.542V31.4535C101.939 31.4897 102.457 31.8047 102.457 33.127V40.0577C102.457 41.4721 102.053 41.9279 100.639 41.9492L100.619 42.4778H107.931V41.9898C106.512 41.8851 106.083 41.4294 106.083 40.0577V36.1673C106.083 34.6587 107.066 34.0106 108.028 34.0062C109.061 33.9997 110.19 34.7699 111.002 35.8912L111.819 31.5729" fill="#BBC2CC"/>
<path d="M50.024 35.9415C50.024 49.7174 38.8264 60.8831 25.0112 60.8831C11.1976 60.8831 0 49.718 0 35.9415C0 22.1678 11.1976 11 25.0106 11C38.8259 11 50.0234 22.1678 50.0234 35.9415" fill="#BBC2CC"/>
<path d="M48.9864 35.9414C48.9864 49.1443 38.2547 59.8498 25.0097 59.8498C11.7691 59.8498 1.03516 49.1443 1.03516 35.9414C1.03516 22.7368 11.7691 12.0352 25.0097 12.0352C38.2541 12.0352 48.9864 22.7363 48.9864 35.9414Z" fill="#BBC2CC"/>
<path d="M40.977 34.5487C40.8633 33.6114 40.0348 33.3205 39.3075 33.0937C37.2002 32.4342 36.3075 33.2559 35.6938 33.3205C36.3569 32.5629 36.1937 31.3025 35.3203 31.1551C33.6826 30.896 34.1358 32.6615 34.5264 33.4832C34.7857 34.0009 35.1077 34.8565 35.9213 34.7903C36.9084 34.7114 36.7601 33.9045 38.1896 33.7911C38.1896 33.7911 39.9706 33.9193 39.9426 34.4868C39.8739 35.3254 38.9488 35.6311 38.3522 35.8431C37.4595 36.134 36.4382 35.6974 35.7087 36.5213C35.4834 36.7974 35.3032 37.1354 35.3823 37.4416C35.4664 37.7522 35.5004 37.6191 36.4876 37.7007C35.9361 38.381 35.6098 39.4147 35.5949 40.3197C35.5669 42.759 34.9489 44.6505 35.1917 45.4936C36.3761 44.0688 36.3569 41.9203 36.5519 40.2063C36.6656 39.3161 36.9876 38.3317 37.4276 37.6831C37.9297 36.9261 38.8867 36.8916 39.5179 36.4254C40.1184 35.9866 41.0561 35.2438 40.977 34.5487Z" fill="white"/>
<path d="M19.0955 37.9641C18.7714 37.3949 17.9474 37.5083 17.5568 37.2815C16.9283 36.8767 16.958 36.0041 17.542 35.4711C18.3034 34.7754 20.2822 37.0054 19.8421 38.7512C19.6493 38.8153 19.5526 38.7063 19.0955 37.9641ZM21.2369 41.563C21.9 40.5469 22.5999 38.3322 22.1939 37.3949C21.5462 37.1358 20.765 36.6351 20.2948 35.9224C19.8273 35.2443 19.5526 34.4867 18.7264 34.2599C18.1748 34.0632 17.5568 34.1805 17.1041 34.4226C16.3746 34.8416 16.1988 35.8436 16.0829 36.6351C16.0356 38.2675 16.34 40.6751 17.0547 42.1941C17.4755 43.3237 18.4495 45.1982 19.6641 46.9593C19.323 44.1645 20.8788 42.3223 21.2369 41.5625" fill="white"/>
<path d="M27.5069 49.0456C26.6851 49.1267 25.7814 49.3195 25.054 49.3042C24.3267 49.3195 23.4208 49.1267 22.599 49.0456C22.466 49.0303 22.3715 49.1267 22.3715 49.1267C21.8908 50.1494 24.6464 50.7125 25.0453 50.6928C25.4446 50.7125 28.215 50.1494 27.7344 49.1267C27.7344 49.1267 27.6399 49.0303 27.5069 49.0456Z" fill="white"/>
<path d="M14.9161 31.1551C14.0575 31.3025 13.8949 32.5629 14.5448 33.3205C13.9438 33.2564 13.0511 32.4347 10.9459 33.0937C10.2186 33.3205 9.39015 33.6114 9.27643 34.5487C9.19512 35.2438 10.1351 35.9866 10.7355 36.4254C11.3536 36.8916 12.3259 36.9261 12.828 37.6837C13.2466 38.3317 13.5878 39.3161 13.7037 40.2063C13.8949 41.9203 13.8647 44.0688 15.0639 45.4936C15.2897 44.6505 14.6739 42.759 14.6607 40.3197C14.6393 39.4147 14.3003 38.381 13.768 37.7007C14.753 37.6196 14.7722 37.7522 14.8519 37.4416C14.9486 37.1359 14.753 36.7979 14.5299 36.5218C13.8152 35.6979 12.794 36.1345 11.8859 35.8431C11.2854 35.6317 10.3647 35.3254 10.3131 34.4868C10.2829 33.9198 12.0661 33.7911 12.0661 33.7911C13.4911 33.9045 13.3279 34.7114 14.3173 34.7903C15.1287 34.8571 15.4677 34.0009 15.7292 33.4832C16.1159 32.6615 16.5686 30.896 14.9161 31.1551Z" fill="white"/>
<path d="M25.0595 40.0945V40.0923C25.0551 40.0923 25.0485 40.0945 25.0441 40.0945L25.0293 40.0923V40.0945C24.2525 40.1136 23.8361 40.7661 23.1153 41.5149C21.8683 42.8718 19.3061 46.2506 21.1711 47.8485C21.9974 48.5612 23.0829 49.0449 24.5744 48.5913C24.9458 48.3344 24.7376 47.5746 24.542 47.2322C23.8449 46.3295 22.7588 46.6866 22.45 46.2352C22.1583 45.7986 22.3556 45.4563 22.5335 45.2317C22.7912 44.9085 23.2098 44.9901 23.568 45.0865C24.2008 45.2295 24.6321 45.4952 25.0293 45.8781V45.9098C25.0337 45.9038 25.0403 45.8994 25.0441 45.8951C25.0485 45.8994 25.0551 45.9038 25.0595 45.9098V45.8781C25.4435 45.493 25.8879 45.2295 26.5186 45.0865C26.8597 44.9901 27.2976 44.9085 27.5398 45.2317C27.7332 45.4563 27.9112 45.7986 27.6217 46.2352C27.3124 46.6866 26.2439 46.3295 25.5468 47.2322C25.3512 47.5746 25.1238 48.3344 25.4973 48.5913C27.0037 49.0449 28.0744 48.5612 28.9006 47.8485C30.7805 46.25 28.2205 42.8718 26.9564 41.5149C26.2549 40.7661 25.8171 40.1136 25.0595 40.0945Z" fill="white"/>
<path d="M32.4527 37.2814C32.0791 37.5082 31.2507 37.3948 30.9117 37.9639C30.4613 38.7062 30.3602 38.8157 30.1652 38.7511C29.7295 37.0053 31.7034 34.7758 32.4675 35.4709C33.0663 36.0039 33.0834 36.8766 32.4527 37.2814ZM32.9032 34.4224C32.4527 34.1809 31.8369 34.0631 31.2853 34.2598C30.4613 34.4865 30.197 35.2441 29.7103 35.9223C29.2422 36.635 28.4633 37.1357 27.815 37.3948C27.4074 38.332 28.1095 40.5468 28.7725 41.5629C29.1434 42.3227 30.6821 44.1649 30.3602 46.9598C31.5748 45.1986 32.5472 43.3241 32.9526 42.1945C33.6673 40.6749 33.9914 38.268 33.9244 36.6355C33.8283 35.8434 33.6327 34.8421 32.9032 34.4224Z" fill="white"/>
<path d="M41.9511 49.3466C41.1979 50.3655 40.3327 51.2042 39.2362 51.5937C38.5473 51.8676 37.8265 51.9832 37.1228 51.6578C36.5691 51.4162 36.2235 50.8662 36.1246 50.25C35.9961 49.3466 36.5026 48.279 36.9426 47.5685C37.5497 46.5524 38.9401 44.7764 40.5453 43.5948C42.8202 41.9131 44.4078 41.4447 43.8178 41.0574C43.4102 40.7814 41.2512 41.9624 40.8244 42.1892C38.3995 43.4343 35.0583 47.0382 34.6677 49.7043C34.3974 51.5422 36.2169 52.9226 37.7859 52.8585C32.5818 57.0245 26.9212 57.1614 25.0221 57.2042H25.0051C23.0906 57.1593 17.4173 57.0179 12.2347 52.8585C13.8009 52.9248 15.6275 51.5422 15.3528 49.7043C14.9595 47.0382 11.6057 43.4349 9.20004 42.1897C8.77264 41.9629 6.60982 40.7819 6.2022 41.058C5.61164 41.4453 7.19983 41.9136 9.47692 43.5954C11.0816 44.777 12.455 46.5529 13.0604 47.5691C13.5196 48.2795 14.0283 49.3472 13.8949 50.2505C13.7987 50.8668 13.4378 51.4167 12.8972 51.6583C12.1913 51.9837 11.4744 51.8681 10.7685 51.5942C9.69117 51.2048 8.82208 50.3661 8.06891 49.3472C6.64388 47.4239 5.25565 45.2114 4.54973 42.8679C5.15237 44.2078 8.98524 49.8183 10.6872 49.8972C12.438 49.9958 8.98524 45.3417 6.60982 43.4009C6.03904 42.9325 5.382 42.3826 5.25565 41.5094C5.15292 40.8761 5.48089 40.4587 6.10331 40.4291C7.0559 40.3946 9.52636 41.6721 9.55603 41.625C5.27048 33.9471 11.8331 30.0676 9.11599 28.3881C8.1656 27.7894 6.15495 28.3881 5.05624 28.5508C15.1595 22.6001 16.9235 28.5338 19.9686 31.2618C20.4448 31.7006 22.5884 31.2618 22.9961 30.7633C23.5372 30.1153 24.6167 27.7894 23.3911 26.255C21.6957 24.117 14.8848 17.9822 8.44028 22.6089C10.0092 20.4561 12.3737 18.5087 15.1979 17.0647C18.3804 15.4361 21.8699 14.5887 25.0177 14.6785H25.0347C31.2128 14.5054 38.1226 17.8672 41.5797 22.6089C35.1204 17.9828 28.3243 24.1175 26.6141 26.255C25.4039 27.7894 26.4686 30.1153 27.0091 30.7639C27.4321 31.2624 29.5757 31.7012 30.052 31.2624C33.0971 28.5338 34.8655 22.6007 44.9621 28.5513C43.8678 28.3887 41.8379 27.7894 40.9062 28.3887C38.1853 30.0682 44.7347 33.9477 40.4624 41.6255C40.4964 41.6726 42.9685 40.3952 43.9173 40.4291C44.5375 40.4593 44.8655 40.8767 44.7693 41.5099C44.6358 42.3831 43.9667 42.9325 43.4108 43.4015C41.0375 45.3423 37.5848 49.9963 39.3164 49.8977C41.0375 49.8183 44.866 44.2078 45.4708 42.8684C44.7688 45.2114 43.3613 47.4239 41.9517 49.3477L41.9511 49.3466ZM25.0177 13.332C12.5242 13.332 2.3457 23.481 2.3457 35.9405C2.3457 48.3858 12.5237 58.5479 25.0177 58.5479C37.4964 58.5479 47.6743 48.3858 47.6743 35.9405C47.6743 23.481 37.4964 13.332 25.0177 13.332Z" fill="white"/>
</g>
<defs>
<clipPath id="clip0_4004_54501">
<rect width="201" height="72" fill="white"/>
</clipPath>
</defs>
</svg>
