<svg width="201" height="72" viewBox="0 0 201 72" fill="none" xmlns="http://www.w3.org/2000/svg">
<path d="M96.4275 35.3289C95.8013 33.8895 94.2035 32.948 92.3898 32.948C91.3317 32.948 90.2197 33.2077 89.2157 33.7921C88.514 34.1926 87.9958 34.6255 87.0133 35.4263C87.0133 34.3874 86.8298 33.6515 86.4195 32.8506L86.3979 32.8614L83.7637 34.5281C84.0012 35.3398 84.0984 36.1515 84.0984 37.6558V50.1558H87.2076V37.6991C88.352 36.4978 90.209 35.5562 91.4289 35.5562C92.2062 35.5562 92.8216 35.7943 93.1671 36.2272C93.5773 36.7575 93.7069 37.2986 93.7069 38.803V50.1341H96.8162V37.4285C96.8378 36.6601 96.6866 35.9242 96.4275 35.3289Z" fill="#BBC2CC"/>
<path d="M143.152 32.8076C141.338 32.8076 139.87 33.7816 138.499 35.7297V35.4267C138.499 34.5933 138.24 33.4894 137.927 32.8509L137.884 32.8617L135.195 34.5609C135.422 35.3726 135.53 36.3574 135.53 37.8076V50.1453H138.682V39.3228C138.682 37.4829 140.313 35.9029 142.224 35.9029C142.558 35.9029 142.796 35.9786 143.109 36.076L144.199 32.9916C143.929 32.8726 143.562 32.8076 143.152 32.8076Z" fill="#BBC2CC"/>
<path d="M131.59 42.3963V41.866C131.558 38.0023 131.018 36.13 129.517 34.6257C128.319 33.4244 126.775 32.8184 124.864 32.8184C122.759 32.8184 121.085 33.5543 119.714 35.1344C118.257 36.8443 117.674 38.7275 117.674 41.6387C117.674 47.1365 120.567 50.524 125.307 50.524C127.347 50.524 129.215 49.9288 130.813 48.7058L129.647 46.8443C128.513 47.7101 127.272 48.143 125.825 48.143C124.195 48.143 122.78 47.5045 121.895 46.1625C121.398 45.3617 121.183 44.2469 121.183 42.8075V42.4071H131.59V42.3963ZM124.799 35.156C125.879 35.156 126.71 35.6647 127.25 36.3249C127.941 37.1582 128.308 38.5002 128.308 40.1127H121.204C121.204 37.0608 122.413 35.156 124.799 35.156Z" fill="#BBC2CC"/>
<path d="M62.7535 47.9587C62.4188 47.6556 62.3108 47.2552 62.3108 45.4803V30.3613C62.3108 28.2833 62.3108 26.6708 62.0085 25.5669L61.933 25.5777L58.9316 27.4717C59.0612 28.3916 59.1044 29.4305 59.1044 31.0539V46.2703C59.1044 47.9154 59.2555 48.4781 59.7522 49.1924C60.3783 50.069 61.1449 50.4478 62.3108 50.4587L63.7359 48.1968C63.3797 48.2725 62.9586 48.1751 62.7535 47.9587Z" fill="#BBC2CC"/>
<path d="M108.94 46.4223H106.306C105.496 46.4223 105.086 46.0868 105.086 45.5781C105.086 44.8422 106.716 44.0738 107.774 43.7383C112.244 43.7383 113.928 40.9569 113.928 38.5435C113.928 37.472 113.571 36.5629 112.686 35.4591C113.517 35.6863 113.647 35.7296 114.154 35.7296C115.223 35.7296 116.044 35.4591 116.994 34.7231L115.396 32.8184C114.468 33.4569 113.615 33.7924 112.6 33.7924C111.844 33.7924 110.926 33.5218 110.041 33.2513C109.026 32.9482 108.292 32.8833 107.374 32.8833C103.466 32.8833 100.832 35.1344 100.832 38.511C100.832 40.827 102.225 42.5694 104.859 43.3378C102.916 44.0413 101.523 44.7123 101.523 46.2816C101.523 47.5153 102.408 48.3595 103.92 48.5218C104.546 48.5976 105.917 48.6842 107.126 48.6842C110.495 48.6842 111.812 49.6257 111.812 51.2274C111.812 53.0023 110.419 54.1062 107.623 54.1062C107.342 54.1062 107.105 54.0954 106.845 54.0738L105.14 56.2274C105.971 56.379 106.899 56.4547 107.936 56.4547C112.092 56.4547 115.126 54.6474 115.126 51.0218C115.115 48.4244 113.291 46.4223 108.94 46.4223ZM104.2 38.5002C104.2 36.3573 105.291 35.2859 107.31 35.2859C109.458 35.2859 110.441 36.2924 110.441 38.4352C110.441 40.5132 109.383 41.6171 107.331 41.6171C105.323 41.6279 104.2 40.5889 104.2 38.5002Z" fill="#BBC2CC"/>
<path d="M54.4731 47.9587C54.1385 47.6556 54.0305 47.2552 54.0305 45.4803V30.3613C54.0305 28.2833 54.0305 26.6708 53.739 25.5669L53.5555 25.5994L50.6621 27.4392C50.7701 28.3699 50.8241 29.4197 50.8241 31.0647V46.2812C50.8241 47.9262 50.9752 48.489 51.4718 49.2032C52.0872 50.0582 52.8213 50.437 53.9549 50.4695L55.3584 48.2292C55.0237 48.2617 54.6567 48.1535 54.4731 47.9587Z" fill="#BBC2CC"/>
<path d="M29.2956 35.4587C28.7774 33.9544 27.0176 32.9371 24.9987 32.9371C23.7356 32.9371 22.548 33.2726 21.2741 34.0735C20.6047 34.5064 20.2161 34.7769 19.4711 35.4479C19.5467 34.5713 19.5683 33.8029 19.5683 33.1968V29.4414C19.5683 27.7964 19.4388 26.5626 19.2012 25.5562L19.0393 25.5886L16.2539 27.3635C16.3511 28.0562 16.4051 28.8245 16.4051 29.7228V50.1341H19.5683V38.067C20.8962 36.5626 22.6452 35.6211 24.1027 35.6211C24.9232 35.6211 25.6789 35.9133 25.9704 36.2596C26.3267 36.6276 26.5642 37.4284 26.5642 38.6081V50.1341H29.6195V38.1752C29.6303 36.66 29.5763 36.2271 29.2956 35.4587Z" fill="#BBC2CC"/>
<path d="M8.28736 48.1212C7.30491 48.1212 6.45202 47.7533 5.83665 47.1147C4.95137 46.1732 4.46554 44.6364 4.46554 42.2879C4.46554 39.9719 4.70306 38.3052 5.27525 37.158C5.86904 36.0217 6.98103 35.3507 8.27656 35.3507C9.34538 35.3507 10.1227 35.6753 11.2239 36.5952L12.649 34.3117C11.4398 33.2944 10.0039 32.7749 8.28736 32.7749C6.61397 32.7749 5.11331 33.381 3.86096 34.4849C2.21996 35.9243 1 38.0996 1 41.8983C1 44.4416 1.49662 46.3896 2.63021 47.9697C3.81778 49.6472 5.67471 50.4805 8.11462 50.4805C10.2091 50.4805 11.6018 49.9286 13.1564 48.5L11.8177 46.4004C10.8028 47.526 9.53971 48.1212 8.28736 48.1212Z" fill="#BBC2CC"/>
<path d="M45.9773 44.7013C45.9773 42.2554 46.1068 39.6797 46.1068 38.4675C46.1068 36.8225 46.0313 36.2598 45.7722 35.5238C45.1244 33.7489 43.3107 32.8398 40.8276 32.8398C37.7939 32.8398 35.7102 33.9113 34.1016 34.8095L35.4727 37.0065C36.8438 36.0866 38.7007 35.3615 40.3525 35.3615C42.7385 35.3615 43.0192 36.7035 43.0192 38.684V39.7879C42.5765 39.7554 42.2203 39.7554 41.81 39.7554C36.2824 39.7554 33.1191 41.8333 33.1191 45.7186C33.1191 48.9437 35.2352 50.6429 38.6467 50.6429C41.6157 50.6429 43.0623 48.9654 43.505 48.4351C43.9152 49.6147 44.7249 50.4481 45.783 50.8485L45.8046 50.8268L47.1757 48.6407C46.0421 47.8507 45.9773 46.8875 45.9773 44.7013ZM42.8464 46.184C42.0475 47.526 40.698 48.3918 39.2513 48.3918C37.5132 48.3918 36.5631 47.3204 36.5631 45.4805C36.5631 44.3766 36.8006 43.7706 37.4484 43.0346C38.1285 42.2662 39.5644 41.8333 41.918 41.8333C42.1987 41.8333 42.4578 41.8658 42.9328 41.9091L42.8464 46.184Z" fill="#BBC2CC"/>
<path d="M80.1564 42.3963V41.866C80.1132 38.0023 79.5626 36.13 78.062 34.6257C76.8744 33.4244 75.3413 32.8184 73.4304 32.8184C71.3144 32.8184 69.6518 33.5543 68.2807 35.1344C66.8124 36.8443 66.2402 38.7275 66.2402 41.6387C66.2402 47.1365 69.1336 50.524 73.8731 50.524C75.8919 50.524 77.7273 49.9396 79.3035 48.7491L78.1375 46.8876C77.0255 47.721 75.8056 48.143 74.3913 48.143C72.7395 48.143 71.3468 47.5045 70.4615 46.1625C69.9433 45.3617 69.7382 44.2469 69.7382 42.8075V42.4071H80.1564V42.3963ZM73.3765 35.156C74.4561 35.156 75.2874 35.6647 75.8272 36.3249C76.5073 37.1582 76.8852 38.5002 76.8852 40.1127H69.7706C69.7706 37.0608 70.9797 35.156 73.3765 35.156Z" fill="#BBC2CC"/>
<path d="M165.791 64.1062L168.058 58.6733L175.367 65.9894C175.259 65.9894 175.151 65.9894 175.043 65.9894C171.459 66.0002 168.35 65.1993 165.791 64.1062Z" fill="#BBC2CC"/>
<path d="M185.689 30.6427L192.977 28.9761V33.6839L185.689 30.6427Z" fill="#BBC2CC"/>
<path d="M175.357 55.6426L182.656 58.6837L175.357 65.9889V55.6426Z" fill="#BBC2CC"/>
<path d="M182.656 58.6841L181.889 65.1235C179.805 65.6862 177.614 65.9893 175.357 65.9893L182.656 58.6841Z" fill="#BBC2CC"/>
<path d="M182.656 58.6841H192.988C190.689 60.9784 187.936 62.8399 184.891 64.0953L182.656 58.6841Z" fill="#BBC2CC"/>
<path d="M165.812 17.8939C168.76 16.6818 171.977 16 175.356 16L168.047 23.3268L165.812 17.8939Z" fill="#BBC2CC"/>
<path d="M157.715 23.3269C160.004 21.0325 162.757 19.1818 165.801 17.9156L165.812 17.9048L168.057 23.3269H157.715Z" fill="#BBC2CC"/>
<path d="M152.307 50.567C153.57 53.6189 155.416 56.3787 157.716 58.6731V48.3159L152.307 50.567Z" fill="#BBC2CC"/>
<path d="M152.317 31.4219L152.403 31.476L157.715 33.6838L150.428 40.989C150.428 37.6124 151.086 34.3764 152.317 31.4219Z" fill="#BBC2CC"/>
<path d="M157.716 33.6838L153.096 29.7336C154.294 27.3526 155.87 25.199 157.716 23.3267V33.6838Z" fill="#BBC2CC"/>
<path d="M192.986 48.316L200.295 41C200.295 44.3874 199.594 47.6991 198.384 50.6429L192.986 48.316Z" fill="#BBC2CC"/>
<path d="M175.357 16L180.842 21.4978L175.357 26.3571V16Z" fill="#BBC2CC"/>
<path d="M184.901 17.894L182.656 23.3269L175.357 26.3572L184.901 17.894Z" fill="#BBC2CC"/>
<path d="M165.024 30.6427L157.726 23.3267L157.715 28.2942L165.024 30.6427Z" fill="#BBC2CC"/>
<path d="M185.689 51.357L192.988 58.673V48.3267L185.689 51.357Z" fill="#BBC2CC"/>
<path d="M150.428 41H160.749L157.715 48.316L150.428 41Z" fill="#BBC2CC"/>
<path d="M180.528 53.4894L177.311 45.7729L184.943 53.1431L182.665 58.6734L182.655 58.6842L180.528 53.4894Z" fill="#BBC2CC"/>
<path d="M187.827 35.8266L192.988 33.6729L185.689 30.6426L187.827 35.8266Z" fill="#BBC2CC"/>
<path d="M168.059 23.3267L170.186 28.4998L165.025 30.6427L168.059 23.3267Z" fill="#BBC2CC"/>
<path d="M175.357 55.6429L180.529 53.4893L182.656 58.6841L175.357 55.6429Z" fill="#BBC2CC"/>
<path d="M175.357 55.6426L182.645 58.6837L175.357 55.6426Z" fill="#BBC2CC"/>
<path d="M162.887 46.1733L157.727 48.327L165.025 51.3573L162.887 46.1733Z" fill="#BBC2CC"/>
<path d="M170.197 28.5001L172.778 27.4287L173.328 36.0759L170.197 28.5001Z" fill="#BBC2CC"/>
<path d="M168.059 23.3267L175.357 26.3678L170.196 28.4998L168.059 23.3267Z" fill="#BBC2CC"/>
<path d="M170.185 53.4893L175.357 55.6429L168.059 58.6841L170.185 53.4893Z" fill="#BBC2CC"/>
<path d="M180.529 28.4998L182.656 23.3267H182.667L185.69 30.6427L180.529 28.4998Z" fill="#BBC2CC"/>
<path d="M187.826 46.1732L192.987 48.316L189.964 41L187.826 46.1732Z" fill="#BBC2CC"/>
<path d="M162.887 35.8266L165.025 30.6426L157.727 33.6729V33.6837L162.887 35.8266Z" fill="#BBC2CC"/>
<path d="M175.357 26.357L182.656 23.3267L180.529 28.4998L175.357 26.357Z" fill="#BBC2CC"/>
<path d="M180.529 28.4998L182.656 23.3267L180.529 28.4998Z" fill="#BBC2CC"/>
<path d="M170.186 53.5003L165.025 51.3574L168.048 58.6734L170.186 53.5003Z" fill="#BBC2CC"/>
<path d="M162.887 46.173L165.024 51.357L170.725 42.9263L162.887 46.173Z" fill="#BBC2CC"/>
<path d="M159.507 37.9914L157.715 33.6841L162.875 35.8161L161.677 38.7382L159.507 37.9914Z" fill="#BBC2CC"/>
<path d="M160.749 40.9999L159.508 37.9912L161.678 38.7488V38.738L168.199 40.9999H160.749Z" fill="#BBC2CC"/>
<path d="M159.508 37.9912L161.678 38.738V38.7488L159.508 37.9912Z" fill="#BBC2CC"/>
<path d="M165.025 51.357L170.186 53.4999L173.479 45.5562L165.025 51.357Z" fill="#BBC2CC"/>
<path d="M180.119 39.0193L189.965 40.9998L187.828 35.8267L180.119 39.0193Z" fill="#BBC2CC"/>
<path d="M177.451 35.9673L178.963 32.2984L185.689 30.6426L177.451 35.9673Z" fill="#BBC2CC"/>
<path d="M200.296 41.0001L192.987 33.6841L191.055 38.3811L200.296 41.0001Z" fill="#BBC2CC"/>
<path d="M191.044 38.3809L189.965 40.9999H200.297L191.044 38.3809Z" fill="#BBC2CC"/>
<path d="M165.791 64.1063C161.441 62.2665 158.634 59.6258 157.705 58.6626L168.059 58.6842L165.791 64.1063Z" fill="#BBC2CC"/>
<path d="M184.9 17.9048C184.9 17.9048 188.485 18.8247 192.997 23.316L184.9 23.3269V17.9048Z" fill="#BBC2CC"/>
<path d="M198.417 31.4652C197.154 28.4024 195.297 25.6427 192.997 23.3267L192.986 33.6946L198.417 31.4652Z" fill="#BBC2CC"/>
</svg>
