<svg width="159" height="57" viewBox="0 0 159 57" fill="none" xmlns="http://www.w3.org/2000/svg">
<path d="M157.377 13.0859C154.608 10.0395 150.176 9.34708 146.507 9.41632C143.183 9.34708 140.345 9.97022 139.514 10.2472C134.183 11.7704 132.452 14.1245 131.136 16.5478C129.128 20.3559 128.921 24.3024 128.436 26.6565C126.843 26.3795 122.897 25.8256 118.604 25.8949C115.558 25.8949 112.303 26.1026 109.534 26.9334C94.5094 31.5724 91.8784 45.143 99.2868 52.2744C102.333 55.1824 106.834 56.9134 111.68 56.7749C116.527 56.8441 121.789 55.2516 126.636 51.3051C133.075 46.1123 134.183 37.2499 134.806 32.2647C135.013 30.3261 135.152 29.0798 135.221 28.7336C136.19 28.8721 137.991 29.0106 140.206 29.0106C144.776 29.0798 151.63 28.3182 156.269 24.3024C160.908 20.2174 159.247 15.163 157.377 13.0859ZM127.951 30.3261C127.328 35.3112 127.12 42.4427 121.789 48.6048C118.119 52.8976 112.996 54.9747 108.565 55.1132C105.726 55.0439 103.233 54.1438 101.71 52.4129C95.548 45.5584 100.533 36.9037 102.679 34.4111C106.972 29.5645 113.896 27.2104 121.651 27.1412C123.797 27.1412 126.013 27.3489 128.297 27.6951C128.09 28.9413 128.09 29.5645 127.951 30.3261ZM151.769 19.9404C149.553 25.4795 144.707 27.8335 138.96 27.972C137.783 27.972 136.606 27.8335 135.36 27.6258L135.706 24.7178C136.121 21.1867 137.368 17.4479 139.999 13.986C141.314 12.2551 143.46 10.9395 145.607 10.4549C145.607 10.4549 146.784 10.1087 148.099 10.3164C148.584 10.3856 148.999 10.5241 149.484 10.7318C149.553 10.7318 149.623 10.8011 149.623 10.8011C149.761 10.8703 149.9 10.9395 149.969 11.0088C150.038 11.078 150.107 11.078 150.176 11.1473C152.946 13.0167 153.154 16.4786 151.769 19.9404ZM2.63103 0.692377H0V0H9.34708C13.0859 0 15.2323 1.73094 15.2323 5.67749C15.2323 9.62403 12.8782 11.2857 9.90099 11.2857H5.8852V19.6635H8.44699V20.3559H0V19.6635H2.63103V0.692377ZM5.8852 10.3856H8.10081C11.4242 10.3856 11.8396 8.72394 11.8396 5.40054C11.8396 2.70027 11.078 0.692377 8.30852 0.692377H5.8852V10.3856ZM19.1096 12.532V12.7397C19.1096 16.7555 19.6635 19.802 23.2639 19.802C25.8256 19.802 27.1412 18.2095 27.9028 16.1324L28.5259 16.3401C27.2796 19.6635 25.4102 20.6328 22.2945 20.6328C18.071 20.6328 15.9247 17.3094 15.9247 13.2936C15.9247 9.41632 18.4172 5.95444 22.5022 5.95444C26.1026 5.95444 28.5952 8.58547 28.5952 12.3935H19.1096V12.532ZM25.2025 11.6319C25.2025 9.5548 25.064 6.78529 22.2253 6.78529C19.802 6.78529 19.1788 9.83175 19.1788 11.6319H25.2025ZM32.5417 7.13148H30.1184V6.4391H35.4497V9.69327H35.5189C36.1421 8.03157 37.3191 6.09291 39.4655 6.09291C41.1272 6.09291 42.0273 7.20072 42.0273 8.79318C42.0273 9.90098 41.5426 10.7318 40.5733 10.7318C39.8117 10.7318 39.1885 10.1779 39.1885 9.27785C39.1885 8.86242 39.327 8.17004 39.327 7.82386C39.327 7.40843 39.05 7.13148 38.6346 7.13148C37.1806 7.13148 35.5189 10.3856 35.5189 13.4321V19.6635H37.873V20.3559H30.1184V19.6635H32.5417V7.13148ZM42.7196 25.8949H45.2122V7.13148H42.8581V6.4391H48.1202V8.51623H48.1894C49.0203 6.71605 50.405 6.09291 52.2744 6.09291C55.2517 6.09291 57.6057 8.17004 57.6057 13.4321C57.6057 17.3094 56.221 20.8405 51.7898 20.7713C50.1973 20.7713 48.7433 20.1482 48.1202 18.8326H48.0509V26.0334H50.5435V26.7257H42.7196V25.8949ZM47.9125 14.4014C47.9125 16.894 48.3971 19.8712 51.2359 19.8712C53.5207 19.8712 54.4208 17.5171 54.4208 13.4321C54.4208 9.76251 53.8669 6.993 51.2359 6.993C49.9896 6.993 47.9125 7.89309 47.9125 12.1166V14.4014ZM63.214 12.532V12.7397C63.214 16.7555 63.7679 19.802 67.3682 19.802C69.93 19.802 71.2456 18.2095 72.0072 16.1324L72.6303 16.3401C71.384 19.6635 69.5146 20.6328 66.3989 20.6328C62.1754 20.6328 60.029 17.3094 60.029 13.2936C60.029 9.41632 62.5216 5.95444 66.6066 5.95444C70.207 5.95444 72.6995 8.58547 72.6995 12.3935H63.214V12.532ZM69.3069 11.6319C69.3069 9.5548 69.1684 6.78529 66.3297 6.78529C63.9064 6.78529 63.2832 9.83175 63.2832 11.6319H69.3069ZM74.1535 6.4391H76.0922V2.63103H79.0002V6.4391H82.1159V7.13148H79.0002V17.0325C79.0002 18.6942 79.3464 19.525 80.5234 19.525C81.6312 19.525 82.0466 18.6942 82.5313 17.7941L83.1544 18.071L82.8775 18.5557C82.3236 19.5943 81.3542 20.4943 79.3464 20.4943C76.4384 20.4943 76.1614 18.8326 76.1614 16.9632V7.13148H74.2228V6.4391H74.1535ZM95.6172 17.6556C94.7171 19.5943 92.9862 20.7021 90.7013 20.7021C87.9318 20.7021 86.5471 19.525 86.5471 16.6863V7.13148H84.3315V6.4391H89.4551V16.5478C89.4551 18.1403 89.732 19.6635 91.7399 19.6635C94.3709 19.6635 95.6864 17.1709 95.6864 14.5399V7.13148H93.1247V6.4391H98.5944V19.6635H101.018V20.3559H95.6864V17.6556H95.6172ZM107.942 12.1166C109.119 11.8396 109.949 11.5627 111.057 11.2165V10.0395C111.057 8.10081 110.711 6.78529 108.842 6.78529C107.457 6.78529 106.488 7.20072 106.488 9.07013C106.488 10.1779 106.072 10.5241 105.103 10.5241C104.341 10.5241 103.787 10.3164 103.787 9.48556C103.787 6.78529 106.557 6.02368 108.772 6.02368C113.065 6.02368 113.965 7.82385 113.965 10.1779V17.3787C113.965 19.525 114.588 19.5943 116.181 19.5943V20.2866H114.034C112.442 20.2866 111.334 20.1482 110.919 18.4172C109.811 20.1482 108.426 20.6328 106.557 20.6328C103.649 20.6328 102.679 19.1096 102.679 16.4786C102.679 14.1245 103.926 13.0167 106.28 12.4628L107.942 12.1166ZM108.149 12.8782C106.418 13.3629 105.934 13.986 105.934 16.5478C105.934 18.2787 106.211 19.802 107.803 19.802C110.296 19.802 111.126 16.6863 111.126 14.7476V12.0474L108.149 12.8782Z" fill="#BBC2CC"/>
<path d="M117.288 0H122.55V19.6635H124.973V20.3559H117.288V19.6635H119.711V0.692377H117.288V0Z" fill="#BBC2CC"/>
</svg>
