<svg width="231" height="57" viewBox="0 0 231 57" fill="none" xmlns="http://www.w3.org/2000/svg">
<g clip-path="url(#clip0_4335_54836)">
<path d="M213.145 15.4292C213.66 15.409 214.17 15.5432 214.608 15.8148C215.047 16.0863 215.394 16.4828 215.605 16.9532C215.817 17.4235 215.883 17.9464 215.795 18.4546C215.707 18.9627 215.469 19.4329 215.111 19.8049C214.754 20.1768 214.294 20.4333 213.789 20.5417C213.285 20.65 212.76 20.605 212.282 20.4126C211.803 20.2203 211.393 19.8892 211.104 19.462C210.815 19.0348 210.661 18.531 210.66 18.0153C210.656 17.3456 210.913 16.7007 211.377 16.2178C211.841 15.7348 212.475 15.4519 213.145 15.4292V15.4292Z" fill="#A6ABC9"/>
<path d="M206.752 6.43613C206.758 7.11275 206.63 7.78384 206.376 8.41096C206.122 9.03809 205.747 9.60891 205.272 10.0907C204.797 10.5725 204.231 10.9559 203.608 11.2188C202.984 11.4817 202.315 11.6189 201.638 11.6227C199.931 11.6227 198.294 12.3008 197.087 13.5078C195.88 14.7148 195.202 16.3518 195.202 18.0588C195.202 19.7657 195.88 21.4028 197.087 22.6097C198.294 23.8167 199.931 24.4948 201.638 24.4948C202.312 24.4948 202.98 24.628 203.602 24.8869C204.224 25.1457 204.789 25.525 205.265 26.0029C205.74 26.4809 206.116 27.0481 206.371 27.6719C206.627 28.2957 206.756 28.9638 206.752 29.6378C206.711 30.502 206.846 31.3655 207.148 32.1761C207.45 32.9867 207.914 33.7275 208.511 34.3536C209.108 34.9798 209.826 35.4782 210.621 35.8188C211.416 36.1593 212.272 36.3349 213.137 36.3349C214.003 36.3349 214.859 36.1593 215.654 35.8188C216.449 35.4782 217.167 34.9798 217.764 34.3536C218.361 33.7275 218.825 32.9867 219.127 32.1761C219.429 31.3655 219.564 30.502 219.523 29.6378C219.519 28.965 219.648 28.2981 219.902 27.6752C220.157 27.0524 220.531 26.4858 221.005 26.0081C221.479 25.5303 222.042 25.1507 222.663 24.891C223.283 24.6314 223.949 24.4967 224.622 24.4948C225.9 24.5063 227.153 24.1378 228.222 23.4361C229.29 22.7343 230.126 21.7309 230.623 20.5533C231.12 19.3757 231.256 18.0769 231.014 16.8218C230.772 15.5667 230.162 14.4119 229.262 13.504C228.362 12.596 227.213 11.9759 225.96 11.7222C224.707 11.4686 223.407 11.5929 222.225 12.0793C221.043 12.5658 220.032 13.3925 219.321 14.4545C218.609 15.5166 218.23 16.766 218.23 18.0442C218.239 18.7214 218.115 19.3937 217.863 20.0224C217.611 20.6512 217.238 21.2238 216.764 21.7074C216.29 22.1909 215.724 22.5758 215.101 22.8398C214.477 23.1038 213.807 23.2416 213.13 23.2454C212.457 23.2416 211.791 23.1052 211.17 22.8439C210.549 22.5826 209.986 22.2017 209.512 21.7228C209.039 21.2438 208.664 20.6763 208.41 20.0526C208.156 19.429 208.027 18.7613 208.031 18.0878C208.027 17.415 208.156 16.7481 208.41 16.1252C208.665 15.5024 209.039 14.9358 209.513 14.4581C209.987 13.9803 210.55 13.6007 211.171 13.341C211.792 13.0814 212.457 12.9467 213.13 12.9448C214.406 12.9563 215.656 12.5887 216.722 11.8885C217.788 11.1883 218.622 10.1872 219.118 9.01228C219.614 7.8373 219.749 6.54144 219.508 5.28917C219.266 4.0369 218.658 2.88468 217.76 1.97876C216.862 1.07284 215.715 0.45407 214.465 0.200988C213.215 -0.0520948 211.918 0.0719214 210.739 0.557295C209.56 1.04267 208.551 1.86752 207.841 2.92714C207.131 3.98676 206.752 5.23338 206.752 6.50878V6.43613ZM222.094 18.0588C222.097 17.5531 222.25 17.0596 222.533 16.6407C222.817 16.2218 223.218 15.8963 223.686 15.7055C224.154 15.5146 224.669 15.4669 225.164 15.5684C225.66 15.6699 226.114 15.916 226.469 16.2756C226.825 16.6352 227.066 17.0922 227.162 17.5888C227.258 18.0853 227.204 18.5991 227.008 19.0652C226.812 19.5314 226.482 19.9288 226.06 20.2074C225.638 20.486 225.142 20.6332 224.637 20.6303C224.297 20.6284 223.961 20.559 223.649 20.426C223.337 20.293 223.054 20.0992 222.817 19.8558C222.58 19.6123 222.395 19.3242 222.271 19.0082C222.146 18.6922 222.086 18.3546 222.094 18.0152V18.0588Z" fill="#A6ABC9"/>
<path d="M8.84774 56.6604C7.69205 56.6778 6.54445 56.4651 5.47172 56.0348C4.39899 55.6045 3.42255 54.9652 2.5992 54.154C1.77585 53.3428 1.12205 52.376 0.675823 51.3098C0.2296 50.2436 -0.000129982 49.0993 5.51737e-08 47.9435V39.3718C-0.000129982 38.2159 0.2296 37.0716 0.675823 36.0054C1.12205 34.9392 1.77585 33.9724 2.5992 33.1612C3.42255 32.3501 4.39899 31.7107 5.47172 31.2804C6.54445 30.8501 7.69205 30.6374 8.84774 30.6548C10.4687 30.5858 12.0742 30.9953 13.4641 31.8323C14.854 32.6694 15.9668 33.8969 16.664 35.3619C16.8212 35.6222 16.8756 35.9319 16.8164 36.2302C16.7573 36.5285 16.589 36.7939 16.3443 36.9746L15.0513 37.8899C14.9389 38.0006 14.8019 38.0833 14.6515 38.1311C14.5011 38.179 14.3416 38.1906 14.1858 38.1651C14.0301 38.1396 13.8825 38.0778 13.7552 37.9845C13.6279 37.8912 13.5244 37.7692 13.4532 37.6284C13.0541 36.7253 12.4095 35.9523 11.5927 35.3975C10.7759 34.8427 9.81984 34.5284 8.83321 34.4902C8.20127 34.4938 7.57644 34.6238 6.99552 34.8726C6.4146 35.1214 5.88934 35.4839 5.45069 35.9388C5.01203 36.3937 4.66885 36.9318 4.44135 37.5214C4.21385 38.111 4.10664 38.7401 4.12604 39.3718V47.9435C4.10068 48.5787 4.20347 49.2125 4.42828 49.8072C4.65309 50.4019 4.99532 50.9452 5.43458 51.4048C5.87384 51.8644 6.40113 52.2309 6.98503 52.4823C7.56892 52.7338 8.19747 52.8652 8.83321 52.8686C9.80769 52.8425 10.7558 52.5461 11.5716 52.0125C12.3874 51.4789 13.0388 50.7291 13.4532 49.8467C13.9326 49.1348 14.4702 49.0331 15.0513 49.4108L16.2862 50.2825C16.4326 50.3471 16.5632 50.4428 16.669 50.5629C16.7748 50.683 16.8531 50.8246 16.8988 50.978C16.9444 51.1314 16.9561 51.2929 16.9331 51.4512C16.9101 51.6096 16.853 51.7611 16.7657 51.8952C16.0596 53.3792 14.9322 54.6225 13.5241 55.4699C12.1161 56.3173 10.4896 56.7314 8.84774 56.6604V56.6604ZM29.754 56.6604C28.5995 56.6758 27.4535 56.4617 26.3824 56.0306C25.3114 55.5994 24.3366 54.9597 23.5149 54.1488C22.6931 53.3378 22.0406 52.3716 21.5952 51.3064C21.1499 50.2411 20.9206 49.098 20.9208 47.9435V39.3718C20.9206 38.2172 21.1499 37.0741 21.5952 36.0089C22.0406 34.9436 22.6931 33.9774 23.5149 33.1665C24.3366 32.3555 25.3114 31.7158 26.3824 31.2847C27.4535 30.8535 28.5995 30.6394 29.754 30.6548C30.9096 30.6374 32.0572 30.8501 33.13 31.2804C34.2027 31.7107 35.1791 32.3501 36.0025 33.1612C36.8258 33.9724 37.4796 34.9392 37.9259 36.0054C38.3721 37.0716 38.6018 38.2159 38.6017 39.3718V47.9435C38.6018 49.0993 38.3721 50.2436 37.9259 51.3098C37.4796 52.376 36.8258 53.3428 36.0025 54.154C35.1791 54.9652 34.2027 55.6045 33.13 56.0348C32.0572 56.4651 30.9096 56.6778 29.754 56.6604V56.6604ZM34.4757 39.3718C34.4757 38.1195 33.9782 36.9185 33.0927 36.033C32.2072 35.1475 31.0062 34.6501 29.754 34.6501C28.5017 34.6501 27.3007 35.1475 26.4152 36.033C25.5297 36.9185 25.0323 38.1195 25.0323 39.3718V47.9435C25.0323 49.1957 25.5297 50.3967 26.4152 51.2822C27.3007 52.1677 28.5017 52.6652 29.754 52.6652C31.0062 52.6652 32.2072 52.1677 33.0927 51.2822C33.9782 50.3967 34.4757 49.1957 34.4757 47.9435V39.3718ZM59.566 56.1229H57.7209C57.5611 56.1391 57.3997 56.1193 57.2486 56.065C57.0974 56.0106 56.9604 55.9231 56.8475 55.8088C56.7346 55.6946 56.6487 55.5564 56.5963 55.4046C56.5438 55.2528 56.526 55.0912 56.5441 54.9316V39.3718C56.5797 38.7306 56.4842 38.089 56.2634 37.486C56.0425 36.8831 55.701 36.3315 55.2598 35.8651C54.8185 35.3986 54.2867 35.0271 53.697 34.7731C53.1072 34.5192 52.4718 34.3882 51.8297 34.3882C51.1876 34.3882 50.5522 34.5192 49.9625 34.7731C49.3727 35.0271 48.8409 35.3986 48.3997 35.8651C47.9584 36.3315 47.6169 36.8831 47.396 37.486C47.1752 38.089 47.0797 38.7306 47.1153 39.3718V54.9316C47.1335 55.0912 47.1157 55.2528 47.0632 55.4046C47.0107 55.5564 46.9248 55.6946 46.812 55.8088C46.6991 55.9231 46.562 56.0106 46.4109 56.065C46.2597 56.1193 46.0983 56.1391 45.9385 56.1229H44.166C44.0062 56.1391 43.8448 56.1193 43.6937 56.065C43.5425 56.0106 43.4055 55.9231 43.2926 55.8088C43.1797 55.6946 43.0938 55.5564 43.0414 55.4046C42.9889 55.2528 42.9711 55.0912 42.9892 54.9316V32.3401C42.9711 32.1805 42.9889 32.0188 43.0414 31.867C43.0938 31.7152 43.1797 31.5771 43.2926 31.4628C43.4055 31.3485 43.5425 31.261 43.6937 31.2067C43.8448 31.1523 44.0062 31.1325 44.166 31.1487H45.6189C45.7937 31.1421 45.967 31.1849 46.1186 31.2723C46.2702 31.3596 46.3941 31.488 46.476 31.6427C46.5026 31.7146 46.5459 31.7791 46.6025 31.8307C46.6591 31.8824 46.7272 31.9198 46.8012 31.9397C46.8752 31.9596 46.9529 31.9615 47.0277 31.9452C47.1026 31.9289 47.1725 31.895 47.2315 31.8461C48.6428 31.0132 50.2566 30.5859 51.8951 30.6112C53.0496 30.5958 54.1956 30.8099 55.2666 31.2411C56.3377 31.6722 57.3124 32.3119 58.1342 33.1229C58.956 33.9339 59.6085 34.9 60.0538 35.9653C60.4991 37.0305 60.7284 38.1736 60.7283 39.3282V54.9316C60.7461 55.0898 60.7286 55.2501 60.6769 55.4007C60.6252 55.5514 60.5407 55.6887 60.4295 55.8027C60.3183 55.9167 60.1831 56.0045 60.0338 56.0599C59.8845 56.1153 59.7247 56.1368 59.566 56.1229V56.1229ZM82.6515 56.1229H80.879C80.7192 56.1391 80.5578 56.1193 80.4067 56.065C80.2555 56.0106 80.1185 55.9231 80.0056 55.8088C79.8927 55.6946 79.8069 55.5564 79.7544 55.4046C79.7019 55.2528 79.6841 55.0912 79.7023 54.9316V39.3718C79.7023 38.7517 79.5801 38.1377 79.3428 37.5648C79.1056 36.992 78.7578 36.4715 78.3193 36.033C77.8809 35.5946 77.3603 35.2468 76.7875 35.0095C76.2146 34.7722 75.6006 34.6501 74.9806 34.6501C74.3605 34.6501 73.7465 34.7722 73.1736 35.0095C72.6008 35.2468 72.0803 35.5946 71.6418 36.033C71.2034 36.4715 70.8556 36.992 70.6183 37.5648C70.381 38.1377 70.2589 38.7517 70.2589 39.3718V54.9316C70.2771 55.0912 70.2592 55.2528 70.2068 55.4046C70.1543 55.5564 70.0684 55.6946 69.9555 55.8088C69.8427 55.9231 69.7056 56.0106 69.5544 56.065C69.4033 56.1193 69.2419 56.1391 69.0821 56.1229H67.3241C67.1643 56.1391 67.0029 56.1193 66.8518 56.065C66.7006 56.0106 66.5636 55.9231 66.4507 55.8088C66.3378 55.6946 66.252 55.5564 66.1995 55.4046C66.147 55.2528 66.1292 55.0912 66.1474 54.9316V32.3401C66.1292 32.1805 66.147 32.0188 66.1995 31.867C66.252 31.7152 66.3378 31.5771 66.4507 31.4628C66.5636 31.3485 66.7006 31.261 66.8518 31.2067C67.0029 31.1523 67.1643 31.1325 67.3241 31.1487H68.777C68.9516 31.1438 69.1241 31.1873 69.2754 31.2745C69.4267 31.3617 69.5509 31.4892 69.6341 31.6427C69.6587 31.7143 69.7004 31.7789 69.7556 31.8308C69.8108 31.8826 69.8778 31.9202 69.9509 31.9402C70.0239 31.9603 70.1007 31.9622 70.1747 31.9458C70.2486 31.9294 70.3174 31.8952 70.3751 31.8461C71.7873 31.0153 73.4004 30.5882 75.0387 30.6112C76.1944 30.5939 77.342 30.8065 78.4147 31.2368C79.4874 31.6671 80.4639 32.3065 81.2872 33.1176C82.1106 33.9288 82.7644 34.8956 83.2106 35.9619C83.6568 37.0281 83.8865 38.1724 83.8864 39.3282V54.9316C83.9064 55.0967 83.8879 55.2642 83.8322 55.4209C83.7765 55.5776 83.6852 55.7192 83.5656 55.8347C83.4459 55.9501 83.301 56.0363 83.1424 56.0863C82.9838 56.1363 82.8158 56.1488 82.6515 56.1229ZM103.543 45.4155H93.5187C93.3589 45.3993 93.1975 45.4191 93.0463 45.4734C92.8951 45.5278 92.7581 45.6153 92.6452 45.7296C92.5323 45.8439 92.4465 45.982 92.394 46.1338C92.3415 46.2856 92.3237 46.4473 92.3419 46.6069V47.9435C92.3165 48.5799 92.4197 49.215 92.6454 49.8106C92.8711 50.4062 93.2147 50.9502 93.6555 51.41C94.0963 51.8698 94.6253 52.236 95.2109 52.4866C95.7965 52.7372 96.4266 52.8671 97.0636 52.8686C98.1479 52.8114 99.2021 52.492 100.136 51.9378C101.07 51.3837 101.855 50.6113 102.425 49.6869C102.505 49.5561 102.611 49.4438 102.738 49.3572C102.864 49.2706 103.008 49.2116 103.159 49.1842C103.309 49.1568 103.464 49.1615 103.613 49.1981C103.762 49.2346 103.902 49.3021 104.023 49.3963L105.199 50.2535C105.45 50.4443 105.618 50.7235 105.669 51.0341C105.72 51.3446 105.651 51.663 105.475 51.9242C104.621 53.3901 103.391 54.6017 101.912 55.4341C100.434 56.2666 98.7601 56.6899 97.0636 56.6604C95.9079 56.6778 94.7603 56.4651 93.6876 56.0348C92.6148 55.6045 91.6384 54.9652 90.815 54.154C89.9917 53.3428 89.3379 52.376 88.8917 51.3098C88.4454 50.2436 88.2157 49.0993 88.2158 47.9435V39.3718C88.3084 37.0891 89.2803 34.9308 90.9281 33.3484C92.5758 31.7661 94.7718 30.8825 97.0563 30.8825C99.3408 30.8825 101.537 31.7661 103.185 33.3484C104.832 34.9308 105.804 37.0891 105.897 39.3718V43.0474C105.931 43.3655 105.893 43.6871 105.787 43.9889C105.681 44.2907 105.509 44.565 105.284 44.7919C105.058 45.0188 104.785 45.1925 104.484 45.3004C104.183 45.4083 103.861 45.4476 103.543 45.4155V45.4155ZM101.785 39.3718C101.785 38.1195 101.288 36.9185 100.402 36.033C99.5168 35.1475 98.3158 34.6501 97.0636 34.6501C95.8113 34.6501 94.6103 35.1475 93.7248 36.033C92.8393 36.9185 92.3419 38.1195 92.3419 39.3718V40.6793C92.3237 40.8389 92.3415 41.0005 92.394 41.1524C92.4465 41.3042 92.5323 41.4423 92.6452 41.5566C92.7581 41.6708 92.8951 41.7584 93.0463 41.8127C93.1975 41.8671 93.3589 41.8869 93.5187 41.8706H100.594C100.754 41.8864 100.916 41.8665 101.068 41.8122C101.22 41.7579 101.357 41.6707 101.471 41.5567C101.585 41.4428 101.673 41.305 101.727 41.1533C101.781 41.0015 101.801 40.8397 101.785 40.6793V39.3718ZM119.045 56.6604C117.889 56.6778 116.742 56.4651 115.669 56.0348C114.596 55.6045 113.62 54.9652 112.796 54.154C111.973 53.3428 111.319 52.376 110.873 51.3098C110.427 50.2436 110.197 49.0993 110.197 47.9435V39.3718C110.197 38.2159 110.427 37.0716 110.873 36.0054C111.319 34.9392 111.973 33.9724 112.796 33.1612C113.62 32.3501 114.596 31.7107 115.669 31.2804C116.742 30.8501 117.889 30.6374 119.045 30.6548C120.667 30.5886 122.274 30.9991 123.665 31.8356C125.057 32.6722 126.173 33.8981 126.876 35.3619C127.031 35.6239 127.083 35.9347 127.022 36.2331C126.96 36.5316 126.789 36.7961 126.541 36.9746L125.263 37.8899C125.149 38.0006 125.011 38.0832 124.86 38.131C124.708 38.1788 124.548 38.1904 124.391 38.165C124.234 38.1396 124.085 38.0778 123.957 37.9846C123.828 37.8914 123.723 37.7694 123.65 37.6284C123.257 36.7243 122.615 35.9501 121.8 35.3948C120.986 34.8396 120.03 34.526 119.045 34.4902C118.408 34.4917 117.778 34.6216 117.192 34.8722C116.607 35.1228 116.078 35.489 115.637 35.9488C115.196 36.4086 114.852 36.9526 114.627 37.5482C114.401 38.1438 114.298 38.7789 114.323 39.4153V47.9435C114.298 48.5799 114.401 49.215 114.627 49.8106C114.852 50.4062 115.196 50.9502 115.637 51.41C116.078 51.8698 116.607 52.236 117.192 52.4866C117.778 52.7372 118.408 52.8671 119.045 52.8686C120.018 52.8465 120.966 52.5516 121.781 52.0173C122.595 51.4831 123.243 50.731 123.65 49.8467C124.13 49.1348 124.667 49.0331 125.263 49.4108L126.498 50.2825C126.643 50.349 126.771 50.4457 126.876 50.566C126.98 50.6863 127.058 50.8275 127.103 50.9802C127.148 51.1329 127.161 51.2935 127.139 51.4513C127.117 51.609 127.062 51.7604 126.977 51.8952C126.266 53.378 125.135 54.6196 123.725 55.4666C122.315 56.3135 120.688 56.7286 119.045 56.6604V56.6604ZM142.116 56.6604C140.96 56.6778 139.813 56.4651 138.74 56.0348C137.667 55.6045 136.691 54.9652 135.867 54.154C135.044 53.3428 134.39 52.376 133.944 51.3098C133.498 50.2436 133.268 49.0993 133.268 47.9435V35.8995C133.287 35.7405 133.269 35.5793 133.217 35.428C133.164 35.2767 133.078 35.1394 132.965 35.0261C132.851 34.9129 132.714 34.8268 132.563 34.7742C132.412 34.7217 132.25 34.7041 132.091 34.7227H130.915C130.755 34.7389 130.593 34.7191 130.442 34.6648C130.291 34.6104 130.154 34.5229 130.041 34.4086C129.928 34.2944 129.842 34.1562 129.79 34.0044C129.737 33.8526 129.72 33.691 129.738 33.5314V32.3401C129.72 32.1805 129.737 32.0188 129.79 31.867C129.842 31.7152 129.928 31.5771 130.041 31.4628C130.154 31.3485 130.291 31.261 130.442 31.2067C130.593 31.1523 130.755 31.1325 130.915 31.1487H132.091C132.251 31.165 132.413 31.1452 132.564 31.0908C132.715 31.0365 132.852 30.949 132.965 30.8347C133.078 30.7204 133.163 30.5823 133.216 30.4305C133.268 30.2787 133.286 30.117 133.268 29.9574V25.2067C133.252 25.0463 133.272 24.8844 133.327 24.7327C133.381 24.581 133.468 24.4432 133.582 24.3292C133.696 24.2153 133.834 24.128 133.985 24.0738C134.137 24.0195 134.299 23.9995 134.459 24.0153H136.217C136.377 23.9991 136.539 24.0189 136.69 24.0733C136.841 24.1276 136.978 24.2151 137.091 24.3294C137.204 24.4437 137.29 24.5818 137.342 24.7336C137.395 24.8854 137.412 25.0471 137.394 25.2067V29.9574C137.376 30.117 137.394 30.2787 137.446 30.4305C137.499 30.5823 137.585 30.7204 137.697 30.8347C137.81 30.949 137.947 31.0365 138.099 31.0908C138.25 31.1452 138.411 31.165 138.571 31.1487H144.469C144.629 31.1325 144.791 31.1523 144.942 31.2067C145.093 31.261 145.23 31.3485 145.343 31.4628C145.456 31.5771 145.542 31.7152 145.594 31.867C145.647 32.0188 145.664 32.1805 145.646 32.3401V33.5314C145.664 33.691 145.647 33.8526 145.594 34.0044C145.542 34.1562 145.456 34.2944 145.343 34.4086C145.23 34.5229 145.093 34.6104 144.942 34.6648C144.791 34.7191 144.629 34.7389 144.469 34.7227H138.571C138.412 34.7068 138.252 34.7264 138.102 34.7799C137.953 34.8335 137.816 34.9196 137.704 35.0322C137.591 35.1449 137.505 35.2811 137.451 35.4311C137.398 35.581 137.378 35.741 137.394 35.8995V47.9435C137.369 48.5799 137.472 49.215 137.698 49.8106C137.923 50.4062 138.267 50.9502 138.708 51.41C139.149 51.8698 139.678 52.236 140.263 52.4866C140.849 52.7372 141.479 52.8671 142.116 52.8686C142.723 52.8707 143.325 52.7524 143.886 52.5204C144.447 52.2885 144.956 51.9476 145.385 51.5174C145.625 51.2368 145.963 51.0581 146.33 51.0176C146.697 50.9772 147.065 51.0779 147.361 51.2995L148.436 52.055C148.568 52.1435 148.681 52.2595 148.765 52.395C148.849 52.5306 148.903 52.6826 148.924 52.8409C148.945 52.9991 148.931 53.1599 148.885 53.3126C148.838 53.4652 148.759 53.6061 148.654 53.7257C147.854 54.6741 146.851 55.4303 145.719 55.9383C144.587 56.4464 143.356 56.6932 142.116 56.6604V56.6604ZM164.954 55.3093C163.516 56.1789 161.87 56.6456 160.189 56.6604C159.033 56.6778 157.886 56.4651 156.813 56.0348C155.74 55.6045 154.764 54.9652 153.941 54.154C153.117 53.3428 152.463 52.376 152.017 51.3098C151.571 50.2436 151.341 49.0993 151.341 47.9435V32.3401C151.325 32.1797 151.345 32.0178 151.4 31.8661C151.454 31.7144 151.541 31.5766 151.655 31.4626C151.769 31.3487 151.907 31.2614 152.059 31.2071C152.21 31.1529 152.372 31.1329 152.533 31.1487H154.291C154.45 31.1325 154.612 31.1523 154.763 31.2067C154.914 31.261 155.051 31.3485 155.164 31.4628C155.277 31.5771 155.363 31.7152 155.415 31.867C155.468 32.0188 155.486 32.1805 155.467 32.3401V47.9435C155.442 48.5799 155.545 49.215 155.771 49.8106C155.997 50.4062 156.34 50.9502 156.781 51.41C157.222 51.8698 157.751 52.236 158.336 52.4866C158.922 52.7372 159.552 52.8671 160.189 52.8686C161.052 52.8457 161.898 52.6218 162.659 52.2148C163.298 51.8952 163.836 51.837 164.315 52.4327L165.274 53.6821C165.37 53.8065 165.438 53.9499 165.474 54.1026C165.509 54.2554 165.512 54.414 165.482 54.568C165.452 54.722 165.389 54.8677 165.298 54.9956C165.207 55.1234 165.09 55.2303 164.954 55.3093V55.3093ZM174.441 54.6119C174.122 55.687 173.526 56.6604 172.407 56.6604C171.289 56.6604 170.693 55.687 170.373 54.6119L163.719 32.3982C163.683 32.2368 163.686 32.0691 163.729 31.9092C163.771 31.7493 163.851 31.6019 163.962 31.4795C164.073 31.357 164.212 31.263 164.367 31.2054C164.522 31.1479 164.689 31.1284 164.853 31.1487H166.611C166.949 31.1639 167.273 31.2882 167.535 31.5029C167.797 31.7176 167.982 32.0113 168.063 32.3401L171.986 46.0693C172.088 46.447 172.189 46.7667 172.465 46.7667C172.741 46.7667 172.843 46.447 172.945 46.0693L176.853 32.3401C176.938 32.0135 177.125 31.7224 177.386 31.5084C177.647 31.2943 177.969 31.1685 178.306 31.1487H180.078C180.239 31.14 180.4 31.1676 180.548 31.2292C180.697 31.2909 180.83 31.3852 180.937 31.5051C181.045 31.625 181.124 31.7676 181.169 31.9221C181.214 32.0767 181.223 32.2394 181.197 32.3982L174.441 54.6119ZM199.198 45.4155H189.173C189.013 45.3993 188.852 45.4191 188.701 45.4734C188.549 45.5278 188.412 45.6153 188.3 45.7296C188.187 45.8439 188.101 45.982 188.048 46.1338C187.996 46.2856 187.978 46.4473 187.996 46.6069V47.9435C187.971 48.5787 188.074 49.2125 188.298 49.8072C188.523 50.4019 188.866 50.9452 189.305 51.4048C189.744 51.8644 190.271 52.2309 190.855 52.4823C191.439 52.7338 192.068 52.8652 192.703 52.8686C193.788 52.8126 194.843 52.4937 195.777 51.9395C196.711 51.3852 197.496 50.6121 198.064 49.6869C198.153 49.563 198.266 49.4586 198.397 49.3801C198.527 49.3016 198.673 49.2505 198.824 49.2301C198.975 49.2097 199.128 49.2204 199.275 49.2614C199.422 49.3025 199.558 49.3731 199.677 49.4689L200.854 50.3261C201.104 50.517 201.272 50.7962 201.323 51.1067C201.375 51.4172 201.305 51.7356 201.13 51.9969C200.264 53.4472 199.029 54.6425 197.552 55.4616C196.075 56.2807 194.407 56.6943 192.718 56.6604C191.562 56.6778 190.415 56.4651 189.342 56.0348C188.269 55.6045 187.293 54.9652 186.469 54.154C185.646 53.3428 184.992 52.376 184.546 51.3098C184.1 50.2436 183.87 49.0993 183.87 47.9435V39.3718C183.963 37.0891 184.935 34.9308 186.582 33.3484C188.23 31.7661 190.426 30.8825 192.711 30.8825C194.995 30.8825 197.191 31.7661 198.839 33.3484C200.487 34.9308 201.459 37.0891 201.551 39.3718V43.0474C201.585 43.3655 201.548 43.6871 201.442 43.9889C201.336 44.2907 201.164 44.565 200.938 44.7919C200.713 45.0188 200.439 45.1925 200.138 45.3004C199.837 45.4083 199.516 45.4476 199.198 45.4155V45.4155ZM197.425 39.3718C197.461 38.7306 197.365 38.089 197.144 37.486C196.923 36.8831 196.582 36.3315 196.141 35.8651C195.699 35.3986 195.168 35.0271 194.578 34.7731C193.988 34.5192 193.353 34.3882 192.711 34.3882C192.069 34.3882 191.433 34.5192 190.843 34.7731C190.254 35.0271 189.722 35.3986 189.281 35.8651C188.839 36.3315 188.498 36.8831 188.277 37.486C188.056 38.089 187.961 38.7306 187.996 39.3718V40.6793C187.978 40.8389 187.996 41.0005 188.048 41.1524C188.101 41.3042 188.187 41.4423 188.3 41.5566C188.412 41.6708 188.549 41.7584 188.701 41.8127C188.852 41.8671 189.013 41.8869 189.173 41.8706H196.248C196.408 41.8869 196.569 41.8671 196.721 41.8127C196.872 41.7584 197.009 41.6708 197.122 41.5566C197.235 41.4423 197.32 41.3042 197.373 41.1524C197.425 41.0005 197.443 40.8389 197.425 40.6793V39.3718ZM153.361 16.3444C153.872 16.3387 154.373 16.4853 154.8 16.7657C155.228 17.046 155.562 17.4473 155.76 17.9183C155.958 18.3894 156.011 18.9088 155.913 19.4103C155.815 19.9119 155.569 20.3727 155.208 20.7341C154.847 21.0955 154.386 21.341 153.884 21.4392C153.383 21.5375 152.863 21.4842 152.392 21.2859C151.921 21.0877 151.52 20.7536 151.24 20.3263C150.959 19.899 150.813 19.3979 150.818 18.8869C150.822 18.2137 151.091 17.5693 151.567 17.0933C152.043 16.6173 152.688 16.3482 153.361 16.3444Z" fill="#A6ABC9"/>
</g>
<defs>
<clipPath id="clip0_4335_54836">
<rect width="231" height="56.6604" fill="white"/>
</clipPath>
</defs>
</svg>
