<svg width="111" height="83" viewBox="0 0 111 83" fill="none" xmlns="http://www.w3.org/2000/svg">
<g clip-path="url(#clip0_4335_54823)">
<path d="M40.5682 6.66439L37.008 3L16.2981 23.2758L22.0122 22.3053L40.5682 6.66439Z" fill="#A6ABC9"/>
<path d="M38.3047 28.5642L0 25.0916V32.766H15.1636V66.9584H25.601V32.766H42.8355L38.3047 28.5642Z" fill="#A6ABC9"/>
<path d="M39.0983 49.5856C39.4669 45.6567 41.736 43.3858 45.2354 43.3858C48.674 43.3858 51.0048 45.7175 51.3744 49.5856H39.0983ZM58.7418 58.1816C54.5678 61.1889 51.8038 62.2303 48.2445 62.2303C42.6557 62.2303 39.2218 59.2811 38.9121 54.2509H59.2331C59.6589 43.9406 52.8453 38.1067 44.6197 38.1067C35.902 38.1067 29.6995 44.2475 29.6995 52.8997C29.6995 61.7419 36.1509 67.5131 46.0897 67.5131C50.6035 67.6922 55.05 66.3752 58.7382 63.7667L58.7418 58.1816Z" fill="#A6ABC9"/>
<path d="M71.4253 25.0923H62.5242V66.96H71.4253V25.0923Z" fill="#A6ABC9"/>
<path d="M81.1881 24.5393C80.2171 24.5399 79.268 24.8283 78.4609 25.3681C77.6537 25.908 77.0248 26.675 76.6535 27.5723C76.2823 28.4696 76.1854 29.4568 76.3751 30.4091C76.5648 31.3614 77.0326 32.2361 77.7193 32.9226C78.4061 33.6091 79.281 34.0766 80.2333 34.2659C81.1857 34.4553 82.1729 34.358 83.07 33.9864C83.9671 33.6148 84.7339 32.9856 85.2735 32.1782C85.8131 31.3709 86.1011 30.4217 86.1013 29.4507C86.0974 28.149 85.5785 26.9017 84.6579 25.9815C83.7372 25.0612 82.4898 24.5427 81.1881 24.5393M85.67 38.6577H76.7643V66.96H85.6654L85.67 38.6577Z" fill="#A6ABC9"/>
<path d="M111 38.6576H100.688V29.7593H99.582L87.7344 43.0178V44.7367H91.7831V56.8893C91.7831 64.8097 96.8788 67.5129 102.773 67.5129C105.61 67.5053 108.414 66.8982 111 65.7314V59.28C109.188 60.3278 107.139 60.8985 105.046 60.9389C102.281 60.9389 100.687 59.1601 100.687 56.3962V44.7376H110.999L111 38.6576Z" fill="#A6ABC9"/>
</g>
<defs>
<clipPath id="clip0_4335_54823">
<rect width="111" height="82.3918" fill="white" transform="translate(0 0.608154)"/>
</clipPath>
</defs>
</svg>
