<svg width="141" height="24" viewBox="0 0 141 24" fill="none" xmlns="http://www.w3.org/2000/svg">
<mask id="mask0_46_17275" style="mask-type:luminance" maskUnits="userSpaceOnUse" x="0" y="0" width="25" height="24">
<path d="M24.5 0H0.5V24H24.5V0Z" fill="white"/>
</mask>
<g mask="url(#mask0_46_17275)">
<path d="M12.5 2.5L15.435 8.493L22 9.46L17.25 14.122L18.371 20.708L12.5 17.597L6.62902 20.708L7.75002 14.122L3.00002 9.46L9.56402 8.493L12.5 2.5Z" fill="#1757C2"/>
<path fill-rule="evenodd" clip-rule="evenodd" d="M12.5001 1.75C12.7864 1.75002 13.0477 1.91302 13.1736 2.17013L15.9349 7.80854L22.1093 8.71801C22.391 8.7595 22.6249 8.95695 22.7131 9.22771C22.8013 9.49846 22.7286 9.7958 22.5254 9.99527L18.0552 14.3826L19.1104 20.5822C19.1583 20.8639 19.042 21.1483 18.8105 21.3158C18.5789 21.4832 18.2724 21.5045 18.0199 21.3707L12.5 18.4458L6.98019 21.3707C6.72769 21.5045 6.42111 21.4832 6.18956 21.3158C5.958 21.1483 5.84171 20.8639 5.88966 20.5822L6.94487 14.3826L2.47467 9.99527C2.27145 9.79581 2.19871 9.49847 2.2869 9.22772C2.37509 8.95696 2.609 8.75951 2.89071 8.71801L9.06417 7.80854L11.8265 2.17004C11.9525 1.91295 12.2138 1.74998 12.5001 1.75ZM12.4999 4.20499L10.2375 8.82296C10.1288 9.04486 9.91779 9.19898 9.67333 9.23499L4.6026 9.98201L8.27537 13.5867C8.45065 13.7588 8.5306 14.0057 8.48939 14.2478L7.62402 19.332L12.1489 16.9343C12.3685 16.8179 12.6315 16.8179 12.8512 16.9343L17.376 19.332L16.5107 14.2478C16.4694 14.0057 16.5494 13.7588 16.7247 13.5867L20.3974 9.98203L15.3257 9.23499C15.0812 9.19898 14.8702 9.04482 14.7615 8.82287L12.4999 4.20499Z" fill="#1757C2"/>
</g>
<mask id="mask1_46_17275" style="mask-type:luminance" maskUnits="userSpaceOnUse" x="29" y="0" width="25" height="24">
<path d="M53.5 0H29.5V24H53.5V0Z" fill="white"/>
</mask>
<g mask="url(#mask1_46_17275)">
<path d="M41.5 2.5L44.435 8.493L51 9.46L46.25 14.122L47.371 20.708L41.5 17.597L35.629 20.708L36.75 14.122L32 9.46L38.564 8.493L41.5 2.5Z" fill="#1757C2"/>
<path fill-rule="evenodd" clip-rule="evenodd" d="M41.5001 1.75C41.7864 1.75002 42.0477 1.91302 42.1736 2.17013L44.9349 7.80854L51.1093 8.71801C51.391 8.7595 51.6249 8.95695 51.7131 9.22771C51.8013 9.49846 51.7286 9.7958 51.5254 9.99527L47.0552 14.3826L48.1104 20.5822C48.1583 20.8639 48.042 21.1483 47.8105 21.3158C47.5789 21.4832 47.2724 21.5045 47.0199 21.3707L41.5 18.4458L35.9802 21.3707C35.7277 21.5045 35.4211 21.4832 35.1896 21.3158C34.958 21.1483 34.8417 20.8639 34.8897 20.5822L35.9449 14.3826L31.4747 9.99527C31.2714 9.79581 31.1987 9.49847 31.2869 9.22772C31.3751 8.95696 31.609 8.75951 31.8907 8.71801L38.0642 7.80854L40.8265 2.17004C40.9525 1.91295 41.2138 1.74998 41.5001 1.75ZM41.4999 4.20499L39.2375 8.82296C39.1288 9.04486 38.9178 9.19898 38.6733 9.23499L33.6026 9.98201L37.2754 13.5867C37.4507 13.7588 37.5306 14.0057 37.4894 14.2478L36.624 19.332L41.1489 16.9343C41.3685 16.8179 41.6315 16.8179 41.8512 16.9343L46.376 19.332L45.5107 14.2478C45.4694 14.0057 45.5494 13.7588 45.7247 13.5867L49.3974 9.98203L44.3257 9.23499C44.0812 9.19898 43.8702 9.04482 43.7615 8.82287L41.4999 4.20499Z" fill="#1757C2"/>
</g>
<mask id="mask2_46_17275" style="mask-type:luminance" maskUnits="userSpaceOnUse" x="58" y="0" width="25" height="24">
<path d="M82.5 0H58.5V24H82.5V0Z" fill="white"/>
</mask>
<g mask="url(#mask2_46_17275)">
<path d="M70.5 2.5L73.435 8.493L80 9.46L75.25 14.122L76.371 20.708L70.5 17.597L64.629 20.708L65.75 14.122L61 9.46L67.564 8.493L70.5 2.5Z" fill="#1757C2"/>
<path fill-rule="evenodd" clip-rule="evenodd" d="M70.5001 1.75C70.7864 1.75002 71.0477 1.91302 71.1736 2.17013L73.9349 7.80854L80.1093 8.71801C80.391 8.7595 80.6249 8.95695 80.7131 9.22771C80.8013 9.49846 80.7286 9.7958 80.5254 9.99527L76.0552 14.3826L77.1104 20.5822C77.1583 20.8639 77.042 21.1483 76.8105 21.3158C76.5789 21.4832 76.2724 21.5045 76.0199 21.3707L70.5 18.4458L64.9802 21.3707C64.7277 21.5045 64.4211 21.4832 64.1896 21.3158C63.958 21.1483 63.8417 20.8639 63.8897 20.5822L64.9449 14.3826L60.4747 9.99527C60.2714 9.79581 60.1987 9.49847 60.2869 9.22772C60.3751 8.95696 60.609 8.75951 60.8907 8.71801L67.0642 7.80854L69.8265 2.17004C69.9525 1.91295 70.2138 1.74998 70.5001 1.75ZM70.4999 4.20499L68.2375 8.82296C68.1288 9.04486 67.9178 9.19898 67.6733 9.23499L62.6026 9.98201L66.2754 13.5867C66.4507 13.7588 66.5306 14.0057 66.4894 14.2478L65.624 19.332L70.1489 16.9343C70.3685 16.8179 70.6315 16.8179 70.8512 16.9343L75.376 19.332L74.5107 14.2478C74.4694 14.0057 74.5494 13.7588 74.7247 13.5867L78.3974 9.98203L73.3257 9.23499C73.0812 9.19898 72.8702 9.04482 72.7615 8.82287L70.4999 4.20499Z" fill="#1757C2"/>
</g>
<mask id="mask3_46_17275" style="mask-type:luminance" maskUnits="userSpaceOnUse" x="87" y="0" width="25" height="24">
<path d="M111.5 0H87.5V24H111.5V0Z" fill="white"/>
</mask>
<g mask="url(#mask3_46_17275)">
<path d="M99.5 2.5L102.435 8.493L109 9.46L104.25 14.122L105.371 20.708L99.5 17.597L93.629 20.708L94.75 14.122L90 9.46L96.564 8.493L99.5 2.5Z" fill="#1757C2"/>
<path fill-rule="evenodd" clip-rule="evenodd" d="M99.5001 1.75C99.7864 1.75002 100.048 1.91302 100.174 2.17013L102.935 7.80854L109.109 8.71801C109.391 8.7595 109.625 8.95695 109.713 9.22771C109.801 9.49846 109.729 9.7958 109.525 9.99527L105.055 14.3826L106.11 20.5822C106.158 20.8639 106.042 21.1483 105.81 21.3158C105.579 21.4832 105.272 21.5045 105.02 21.3707L99.5 18.4458L93.9802 21.3707C93.7277 21.5045 93.4211 21.4832 93.1896 21.3158C92.958 21.1483 92.8417 20.8639 92.8897 20.5822L93.9449 14.3826L89.4747 9.99527C89.2714 9.79581 89.1987 9.49847 89.2869 9.22772C89.3751 8.95696 89.609 8.75951 89.8907 8.71801L96.0642 7.80854L98.8265 2.17004C98.9525 1.91295 99.2138 1.74998 99.5001 1.75ZM99.4999 4.20499L97.2375 8.82296C97.1288 9.04486 96.9178 9.19898 96.6733 9.23499L91.6026 9.98201L95.2754 13.5867C95.4507 13.7588 95.5306 14.0057 95.4894 14.2478L94.624 19.332L99.1489 16.9343C99.3685 16.8179 99.6315 16.8179 99.8512 16.9343L104.376 19.332L103.511 14.2478C103.469 14.0057 103.549 13.7588 103.725 13.5867L107.397 9.98203L102.326 9.23499C102.081 9.19898 101.87 9.04482 101.761 8.82287L99.4999 4.20499Z" fill="#1757C2"/>
</g>
<path d="M128.469 2.5L131.404 8.493L137.969 9.46L133.219 14.122L134.34 20.708L128.469 17.597L122.598 20.708L123.719 14.122L118.969 9.46L125.533 8.493L128.469 2.5Z" fill="#D0D0E0"/>
<path fill-rule="evenodd" clip-rule="evenodd" d="M128.469 1.75C128.755 1.75002 129.016 1.91302 129.142 2.17013L131.904 7.80854L138.078 8.71801C138.36 8.7595 138.594 8.95695 138.682 9.22771C138.77 9.49846 138.698 9.7958 138.494 9.99527L134.024 14.3826L135.079 20.5822C135.127 20.8639 135.011 21.1483 134.779 21.3158C134.548 21.4832 134.241 21.5045 133.989 21.3707L128.469 18.4458L122.949 21.3707C122.696 21.5045 122.39 21.4832 122.158 21.3158C121.927 21.1483 121.81 20.8639 121.858 20.5822L122.914 14.3826L118.443 9.99527C118.24 9.79581 118.167 9.49847 118.256 9.22772C118.344 8.95696 118.578 8.75951 118.859 8.71801L125.033 7.80854L127.795 2.17004C127.921 1.91295 128.183 1.74998 128.469 1.75ZM128.469 4.20499L126.206 8.82296C126.098 9.04486 125.887 9.19898 125.642 9.23499L120.571 9.98201L124.244 13.5867C124.419 13.7588 124.499 14.0057 124.458 14.2478L123.593 19.332L128.118 16.9343C128.337 16.8179 128.6 16.8179 128.82 16.9343L133.345 19.332L132.48 14.2478C132.438 14.0057 132.518 13.7588 132.694 13.5867L136.366 9.98203L131.295 9.23499C131.05 9.19898 130.839 9.04482 130.73 8.82287L128.469 4.20499Z" fill="#D0D0E0"/>
</svg>
