<svg width="92" height="12" viewBox="0 0 92 12" fill="none" xmlns="http://www.w3.org/2000/svg">
<g clip-path="url(#clip0_80_17609)">
<path d="M6 12C9.31371 12 12 9.31371 12 6C12 2.68629 9.31371 0 6 0C2.68629 0 0 2.68629 0 6C0 9.31371 2.68629 12 6 12Z" fill="#1757C2"/>
<path d="M26 12C29.3137 12 32 9.31371 32 6C32 2.68629 29.3137 0 26 0C22.6863 0 20 2.68629 20 6C20 9.31371 22.6863 12 26 12Z" fill="#1757C2"/>
<path d="M66 12C69.3137 12 72 9.31371 72 6C72 2.68629 69.3137 0 66 0C62.6863 0 60 2.68629 60 6C60 9.31371 62.6863 12 66 12Z" fill="#CCCFE0"/>
<path d="M46 12C49.3137 12 52 9.31371 52 6C52 2.68629 49.3137 0 46 0C42.6863 0 40 2.68629 40 6C40 9.31371 42.6863 12 46 12Z" fill="#CCCFE0"/>
<mask id="mask0_80_17609" style="mask-type:luminance" maskUnits="userSpaceOnUse" x="40" y="0" width="5" height="12">
<path d="M45 0H40V12H45V0Z" fill="white"/>
</mask>
<g mask="url(#mask0_80_17609)">
<path d="M46 12C49.3137 12 52 9.31371 52 6C52 2.68629 49.3137 0 46 0C42.6863 0 40 2.68629 40 6C40 9.31371 42.6863 12 46 12Z" fill="#1757C2"/>
</g>
<path d="M86 12C89.3137 12 92 9.31371 92 6C92 2.68629 89.3137 0 86 0C82.6863 0 80 2.68629 80 6C80 9.31371 82.6863 12 86 12Z" fill="#CCCFE0"/>
</g>
<defs>
<clipPath id="clip0_80_17609">
<rect width="92" height="12" fill="white"/>
</clipPath>
</defs>
</svg>
