<svg width="921" height="359" viewBox="0 0 921 359" fill="none" xmlns="http://www.w3.org/2000/svg">
<rect width="920" height="358.685" transform="translate(0.461914)" fill="white"/>
<path d="M59.0729 304.405L105.59 212.413V211.632H51.7885V197.844H122.24V212.1L75.8793 304.405H59.0729ZM169.244 305.862C162.722 305.862 156.86 304.613 151.657 302.116C146.488 299.584 142.36 296.115 139.273 291.709C136.186 287.304 134.538 282.274 134.33 276.62H149.94C150.321 281.199 152.35 284.963 156.027 287.911C159.704 290.86 164.11 292.334 169.244 292.334C173.337 292.334 176.962 291.397 180.118 289.524C183.309 287.616 185.807 284.997 187.611 281.667C189.449 278.337 190.368 274.539 190.368 270.272C190.368 265.936 189.432 262.068 187.559 258.669C185.686 255.27 183.101 252.599 179.806 250.656C176.545 248.714 172.799 247.725 168.567 247.69C165.341 247.69 162.098 248.245 158.837 249.355C155.576 250.465 152.94 251.922 150.928 253.726L136.203 251.541L142.187 197.844H200.775V211.632H155.559L152.177 241.446H152.801C154.883 239.435 157.64 237.752 161.074 236.399C164.543 235.047 168.255 234.37 172.209 234.37C178.696 234.37 184.472 235.914 189.536 239.001C194.635 242.088 198.642 246.303 201.555 251.645C204.504 256.952 205.961 263.057 205.926 269.96C205.961 276.863 204.4 283.02 201.243 288.431C198.121 293.843 193.785 298.109 188.235 301.231C182.72 304.318 176.389 305.862 169.244 305.862ZM275.72 284.425V278.805C275.72 274.782 276.552 271.105 278.217 267.775C279.917 264.41 282.38 261.722 285.606 259.71C288.867 257.663 292.804 256.64 297.417 256.64C302.135 256.64 306.089 257.646 309.28 259.658C312.472 261.67 314.883 264.358 316.513 267.723C318.178 271.087 319.01 274.782 319.01 278.805V284.425C319.01 288.449 318.178 292.143 316.513 295.508C314.848 298.838 312.402 301.526 309.176 303.573C305.985 305.585 302.065 306.591 297.417 306.591C292.734 306.591 288.78 305.585 285.554 303.573C282.328 301.526 279.882 298.838 278.217 295.508C276.552 292.143 275.72 288.449 275.72 284.425ZM287.843 278.805V284.425C287.843 287.408 288.554 290.114 289.977 292.542C291.399 294.97 293.879 296.184 297.417 296.184C300.921 296.184 303.366 294.97 304.754 292.542C306.141 290.114 306.835 287.408 306.835 284.425V278.805C306.835 275.822 306.159 273.117 304.806 270.688C303.488 268.26 301.025 267.046 297.417 267.046C293.948 267.046 291.485 268.26 290.029 270.688C288.572 273.117 287.843 275.822 287.843 278.805ZM222.127 223.443V217.824C222.127 213.8 222.959 210.106 224.624 206.741C226.324 203.376 228.787 200.688 232.013 198.676C235.274 196.664 239.211 195.658 243.824 195.658C248.542 195.658 252.496 196.664 255.687 198.676C258.879 200.688 261.29 203.376 262.92 206.741C264.55 210.106 265.365 213.8 265.365 217.824V223.443C265.365 227.467 264.533 231.161 262.868 234.526C261.238 237.856 258.809 240.545 255.583 242.591C252.392 244.603 248.472 245.609 243.824 245.609C239.107 245.609 235.135 244.603 231.909 242.591C228.718 240.545 226.289 237.856 224.624 234.526C222.959 231.161 222.127 227.467 222.127 223.443ZM234.302 217.824V223.443C234.302 226.427 234.996 229.132 236.384 231.56C237.806 233.989 240.286 235.203 243.824 235.203C247.293 235.203 249.721 233.989 251.109 231.56C252.531 229.132 253.242 226.427 253.242 223.443V217.824C253.242 214.841 252.566 212.135 251.213 209.707C249.86 207.279 247.397 206.065 243.824 206.065C240.355 206.065 237.893 207.279 236.436 209.707C235.013 212.135 234.302 214.841 234.302 217.824ZM227.07 304.405L300.331 197.844H312.767L239.506 304.405H227.07Z" fill="#1757C2"/>
<circle cx="55.2557" cy="47.0401" r="2.26545" fill="#C0C5CB"/>
<circle cx="74.7308" cy="47.0401" r="2.26545" fill="#C0C5CB"/>
<circle cx="94.2044" cy="47.0401" r="2.26545" fill="#C0C5CB"/>
<circle cx="113.68" cy="47.0401" r="2.26545" fill="#C0C5CB"/>
<circle cx="133.155" cy="47.0401" r="2.26545" fill="#C0C5CB"/>
<circle cx="152.63" cy="47.0401" r="2.26545" fill="#C0C5CB"/>
<circle cx="172.104" cy="47.0401" r="2.26545" fill="#C0C5CB"/>
<circle cx="191.579" cy="47.0401" r="2.26545" fill="#C0C5CB"/>
<circle cx="211.055" cy="47.0401" r="2.26545" fill="#C0C5CB"/>
<circle cx="230.528" cy="47.0401" r="2.26545" fill="#C0C5CB"/>
<circle cx="250.003" cy="47.0401" r="2.26545" fill="#C0C5CB"/>
<circle cx="269.479" cy="47.0401" r="2.26545" fill="#C0C5CB"/>
<circle cx="288.954" cy="47.0401" r="2.26545" fill="#C0C5CB"/>
<circle cx="308.428" cy="47.0401" r="2.26545" fill="#C0C5CB"/>
<circle cx="327.903" cy="47.0401" r="2.26545" fill="#C0C5CB"/>
<circle cx="347.378" cy="47.0401" r="2.26545" fill="#C0C5CB"/>
<circle cx="795.299" cy="106.879" r="2.26545" fill="#1757C2"/>
<circle cx="814.775" cy="106.879" r="2.26545" fill="#C0C5CB"/>
<circle cx="834.249" cy="106.879" r="2.26545" fill="#C0C5CB"/>
<circle cx="853.723" cy="106.879" r="2.26545" fill="#C0C5CB"/>
<circle cx="873.198" cy="106.879" r="2.26545" fill="#C0C5CB"/>
<circle cx="738.516" cy="47.0361" r="2.26545" transform="rotate(-90 738.516 47.0361)" fill="#C0C5CB"/>
<circle cx="55.2557" cy="66.5149" r="2.26545" fill="#C0C5CB"/>
<circle cx="74.7308" cy="66.5149" r="2.26545" fill="#C0C5CB"/>
<circle cx="94.2044" cy="66.5149" r="2.26545" fill="#C0C5CB"/>
<circle cx="113.68" cy="66.5149" r="2.26545" fill="#C0C5CB"/>
<circle cx="133.155" cy="66.5149" r="2.26545" fill="#C0C5CB"/>
<circle cx="152.63" cy="66.5149" r="2.26545" fill="#C0C5CB"/>
<circle cx="172.104" cy="66.5149" r="2.26545" fill="#C0C5CB"/>
<circle cx="191.579" cy="66.5149" r="2.26545" fill="#C0C5CB"/>
<circle cx="211.055" cy="66.5149" r="2.26545" fill="#C0C5CB"/>
<circle cx="230.528" cy="66.5149" r="2.26545" fill="#C0C5CB"/>
<circle cx="250.003" cy="66.5149" r="2.26545" fill="#C0C5CB"/>
<circle cx="269.479" cy="66.5149" r="2.26545" fill="#C0C5CB"/>
<circle cx="288.954" cy="66.5149" r="2.26545" fill="#C0C5CB"/>
<circle cx="308.428" cy="66.5149" r="2.26545" fill="#C0C5CB"/>
<circle cx="327.903" cy="66.5149" r="2.26545" fill="#C0C5CB"/>
<circle cx="347.378" cy="66.5149" r="2.26545" fill="#C0C5CB"/>
<circle cx="698.153" cy="47.0401" r="2.26545" transform="rotate(-90 698.153 47.0401)" fill="#C0C5CB"/>
<circle cx="814.775" cy="126.353" r="2.26545" fill="#C0C5CB"/>
<circle cx="834.249" cy="126.353" r="2.26545" fill="#C0C5CB"/>
<circle cx="853.723" cy="126.353" r="2.26545" fill="#C0C5CB"/>
<circle cx="873.198" cy="126.353" r="2.26545" fill="#C0C5CB"/>
<circle cx="757.992" cy="47.0361" r="2.26545" transform="rotate(-90 757.992 47.0361)" fill="#C0C5CB"/>
<circle cx="367.082" cy="47.0401" r="2.26545" fill="#C0C5CB"/>
<circle cx="386.557" cy="47.0401" r="2.26545" fill="#C0C5CB"/>
<circle cx="406.031" cy="47.0401" r="2.26545" fill="#C0C5CB"/>
<circle cx="425.506" cy="47.0401" r="2.26545" fill="#C0C5CB"/>
<circle cx="444.982" cy="47.0401" r="2.26545" fill="#C0C5CB"/>
<circle cx="464.457" cy="47.0401" r="2.26545" fill="#C0C5CB"/>
<circle cx="483.93" cy="47.0401" r="2.26545" fill="#C0C5CB"/>
<circle cx="503.406" cy="47.0401" r="2.26545" fill="#C0C5CB"/>
<circle cx="522.881" cy="47.0401" r="2.26545" fill="#C0C5CB"/>
<circle cx="542.355" cy="47.0401" r="2.26545" fill="#C0C5CB"/>
<circle cx="561.83" cy="47.0401" r="2.26545" fill="#C0C5CB"/>
<circle cx="581.305" cy="47.0401" r="2.26545" fill="#C0C5CB"/>
<circle cx="600.781" cy="47.0401" r="2.26545" fill="#C0C5CB"/>
<circle cx="620.254" cy="47.0401" r="2.26545" fill="#C0C5CB"/>
<circle cx="639.729" cy="47.0401" r="2.26545" fill="#C0C5CB"/>
<circle cx="659.204" cy="47.0401" r="2.26545" fill="#C0C5CB"/>
<circle cx="678.678" cy="47.0401" r="2.26545" fill="#C0C5CB"/>
<circle cx="814.775" cy="145.828" r="2.26545" fill="#C0C5CB"/>
<circle cx="834.249" cy="145.828" r="2.26545" fill="#C0C5CB"/>
<circle cx="853.723" cy="145.828" r="2.26545" fill="#C0C5CB"/>
<circle cx="873.198" cy="145.828" r="2.26545" fill="#C0C5CB"/>
<circle cx="777.467" cy="47.0361" r="2.26545" transform="rotate(-90 777.467 47.0361)" fill="#C0C5CB"/>
<circle cx="367.082" cy="66.5149" r="2.26545" fill="#C0C5CB"/>
<circle cx="386.557" cy="66.5149" r="2.26545" fill="#C0C5CB"/>
<circle cx="406.031" cy="66.5149" r="2.26545" fill="#C0C5CB"/>
<circle cx="425.506" cy="66.5149" r="2.26545" fill="#C0C5CB"/>
<circle cx="444.982" cy="66.5149" r="2.26545" fill="#C0C5CB"/>
<circle cx="464.457" cy="66.5149" r="2.26545" fill="#C0C5CB"/>
<circle cx="483.93" cy="66.5149" r="2.26545" fill="#C0C5CB"/>
<circle cx="503.406" cy="66.5149" r="2.26545" fill="#C0C5CB"/>
<circle cx="522.881" cy="66.5149" r="2.26545" fill="#C0C5CB"/>
<circle cx="542.355" cy="66.5149" r="2.26545" fill="#C0C5CB"/>
<circle cx="561.83" cy="66.5149" r="2.26545" fill="#C0C5CB"/>
<circle cx="581.305" cy="66.5149" r="2.26545" fill="#C0C5CB"/>
<circle cx="600.781" cy="66.5149" r="2.26545" fill="#C0C5CB"/>
<circle cx="620.254" cy="66.5149" r="2.26545" fill="#C0C5CB"/>
<circle cx="639.729" cy="66.5149" r="2.26545" fill="#C0C5CB"/>
<circle cx="659.204" cy="66.5149" r="2.26545" fill="#C0C5CB"/>
<circle cx="678.678" cy="66.5149" r="2.26545" fill="#C0C5CB"/>
<circle cx="814.775" cy="47.0361" r="2.26545" fill="#C0C5CB"/>
<circle cx="834.249" cy="47.0361" r="2.26545" fill="#C0C5CB"/>
<circle cx="853.723" cy="47.0361" r="2.26545" fill="#C0C5CB"/>
<circle cx="873.198" cy="47.0361" r="2.26545" fill="#C0C5CB"/>
<circle cx="796.941" cy="47.0361" r="2.26545" transform="rotate(-90 796.941 47.0361)" fill="#C0C5CB"/>
<circle cx="698.153" cy="66.5149" r="2.26545" fill="#C0C5CB"/>
<circle cx="717.628" cy="66.5149" r="2.26545" fill="#C0C5CB"/>
<circle cx="737.102" cy="66.5149" r="2.26545" fill="#C0C5CB"/>
<circle cx="756.577" cy="66.5149" r="2.26545" fill="#C0C5CB"/>
<circle cx="776.053" cy="66.5149" r="2.26545" fill="#C0C5CB"/>
<circle cx="795.527" cy="66.5149" r="2.26545" fill="#C0C5CB"/>
<circle cx="815.001" cy="66.5149" r="2.26545" fill="#C0C5CB"/>
<circle cx="834.477" cy="66.5149" r="2.26545" fill="#C0C5CB"/>
<circle cx="853.952" cy="66.5149" r="2.26545" fill="#C0C5CB"/>
<circle cx="873.426" cy="66.5149" r="2.26545" fill="#C0C5CB"/>
<circle cx="814.775" cy="184.778" r="2.26545" fill="#1757C2"/>
<circle cx="834.249" cy="184.778" r="2.26545" fill="#1757C2"/>
<circle cx="853.723" cy="184.778" r="2.26545" fill="#1757C2"/>
<circle cx="873.198" cy="184.778" r="2.26545" fill="#1757C2"/>
<circle cx="503.177" cy="107.109" r="2.26545" fill="#C0C5CB"/>
<circle cx="522.652" cy="107.109" r="2.26545" fill="#C0C5CB"/>
<circle cx="542.126" cy="107.109" r="2.26545" fill="#C0C5CB"/>
<circle cx="561.601" cy="107.109" r="2.26545" fill="#C0C5CB"/>
<circle cx="581.076" cy="107.109" r="2.26545" fill="#C0C5CB"/>
<circle cx="600.552" cy="107.109" r="2.26545" fill="#C0C5CB"/>
<circle cx="620.025" cy="107.109" r="2.26545" fill="#C0C5CB"/>
<circle cx="639.501" cy="107.109" r="2.26545" fill="#C0C5CB"/>
<circle cx="658.975" cy="107.109" r="2.26545" fill="#C0C5CB"/>
<circle cx="678.45" cy="107.109" r="2.26545" fill="#C0C5CB"/>
<circle cx="697.925" cy="107.109" r="2.26545" fill="#C0C5CB"/>
<circle cx="717.399" cy="107.109" r="2.26545" fill="#C0C5CB"/>
<circle cx="736.873" cy="107.109" r="2.26545" fill="#C0C5CB"/>
<circle cx="756.349" cy="107.109" r="2.26545" fill="#C0C5CB"/>
<circle cx="775.824" cy="107.109" r="2.26545" fill="#C0C5CB"/>
<circle cx="503.177" cy="126.584" r="2.26545" fill="#C0C5CB"/>
<circle cx="522.652" cy="126.584" r="2.26545" fill="#C0C5CB"/>
<circle cx="542.126" cy="126.584" r="2.26545" fill="#C0C5CB"/>
<circle cx="561.601" cy="126.584" r="2.26545" fill="#C0C5CB"/>
<circle cx="581.076" cy="126.584" r="2.26545" fill="#C0C5CB"/>
<circle cx="600.552" cy="126.584" r="2.26545" fill="#C0C5CB"/>
<circle cx="620.025" cy="126.584" r="2.26545" fill="#C0C5CB"/>
<circle cx="639.501" cy="126.584" r="2.26545" fill="#C0C5CB"/>
<circle cx="658.975" cy="126.584" r="2.26545" fill="#C0C5CB"/>
<circle cx="678.45" cy="126.584" r="2.26545" fill="#C0C5CB"/>
<circle cx="697.925" cy="126.584" r="2.26545" fill="#C0C5CB"/>
<circle cx="717.399" cy="126.584" r="2.26545" fill="#C0C5CB"/>
<circle cx="736.873" cy="126.584" r="2.26545" fill="#C0C5CB"/>
<circle cx="756.349" cy="126.584" r="2.26545" fill="#C0C5CB"/>
<circle cx="775.824" cy="126.584" r="2.26545" fill="#C0C5CB"/>
<circle cx="795.299" cy="126.584" r="2.26545" fill="#C0C5CB"/>
<circle cx="503.177" cy="146.059" r="2.26545" fill="#C0C5CB"/>
<circle cx="522.652" cy="146.059" r="2.26545" fill="#C0C5CB"/>
<circle cx="542.126" cy="146.059" r="2.26545" fill="#C0C5CB"/>
<circle cx="561.601" cy="146.059" r="2.26545" fill="#C0C5CB"/>
<circle cx="581.076" cy="146.059" r="2.26545" fill="#C0C5CB"/>
<circle cx="600.552" cy="146.059" r="2.26545" fill="#C0C5CB"/>
<circle cx="620.025" cy="146.059" r="2.26545" fill="#C0C5CB"/>
<circle cx="639.501" cy="146.059" r="2.26545" fill="#C0C5CB"/>
<circle cx="658.975" cy="146.059" r="2.26545" fill="#C0C5CB"/>
<circle cx="678.45" cy="146.059" r="2.26545" fill="#C0C5CB"/>
<circle cx="697.925" cy="146.059" r="2.26545" fill="#C0C5CB"/>
<circle cx="717.399" cy="146.059" r="2.26545" fill="#C0C5CB"/>
<circle cx="736.873" cy="146.059" r="2.26545" fill="#C0C5CB"/>
<circle cx="756.349" cy="146.059" r="2.26545" fill="#C0C5CB"/>
<circle cx="775.824" cy="146.059" r="2.26545" fill="#C0C5CB"/>
<circle cx="795.299" cy="146.059" r="2.26545" fill="#C0C5CB"/>
<circle cx="503.177" cy="165.534" r="2.26545" fill="#C0C5CB"/>
<circle cx="522.652" cy="165.534" r="2.26545" fill="#C0C5CB"/>
<circle cx="542.126" cy="165.534" r="2.26545" fill="#C0C5CB"/>
<circle cx="561.601" cy="165.534" r="2.26545" fill="#C0C5CB"/>
<circle cx="581.076" cy="165.534" r="2.26545" fill="#C0C5CB"/>
<circle cx="600.552" cy="165.534" r="2.26545" fill="#C0C5CB"/>
<circle cx="620.025" cy="165.534" r="2.26545" fill="#C0C5CB"/>
<circle cx="639.501" cy="165.534" r="2.26545" fill="#C0C5CB"/>
<circle cx="658.975" cy="165.534" r="2.26545" fill="#C0C5CB"/>
<circle cx="678.45" cy="165.534" r="2.26545" fill="#C0C5CB"/>
<circle cx="697.925" cy="165.534" r="2.26545" fill="#C0C5CB"/>
<circle cx="717.399" cy="165.534" r="2.26545" fill="#C0C5CB"/>
<circle cx="736.873" cy="165.534" r="2.26545" fill="#C0C5CB"/>
<circle cx="756.349" cy="165.534" r="2.26545" fill="#C0C5CB"/>
<circle cx="775.824" cy="165.534" r="2.26545" fill="#C0C5CB"/>
<circle cx="795.299" cy="165.534" r="2.26545" fill="#C0C5CB"/>
<circle cx="503.177" cy="185.008" r="2.26545" fill="#C0C5CB"/>
<circle cx="522.652" cy="185.008" r="2.26545" fill="#C0C5CB"/>
<circle cx="542.126" cy="185.008" r="2.26545" fill="#C0C5CB"/>
<circle cx="561.601" cy="185.008" r="2.26545" fill="#C0C5CB"/>
<circle cx="581.076" cy="185.008" r="2.26545" fill="#C0C5CB"/>
<circle cx="600.552" cy="185.008" r="2.26545" fill="#C0C5CB"/>
<circle cx="620.025" cy="185.008" r="2.26545" fill="#C0C5CB"/>
<circle cx="639.501" cy="185.008" r="2.26545" fill="#C0C5CB"/>
<circle cx="658.975" cy="185.008" r="2.26545" fill="#C0C5CB"/>
<circle cx="678.45" cy="185.008" r="2.26545" fill="#C0C5CB"/>
<circle cx="697.925" cy="185.008" r="2.26545" fill="#C0C5CB"/>
<circle cx="717.399" cy="185.008" r="2.26545" fill="#C0C5CB"/>
<circle cx="736.873" cy="185.008" r="2.26545" fill="#C0C5CB"/>
<circle cx="756.349" cy="185.008" r="2.26545" fill="#C0C5CB"/>
<circle cx="775.824" cy="185.008" r="2.26545" fill="#C0C5CB"/>
<circle cx="795.299" cy="185.008" r="2.26545" fill="#C0C5CB"/>
<circle cx="55.2557" cy="87.6345" r="2.26545" fill="#C0C5CB"/>
<circle cx="74.7308" cy="87.6345" r="2.26545" fill="#C0C5CB"/>
<circle cx="94.2044" cy="87.6345" r="2.26545" fill="#C0C5CB"/>
<circle cx="113.68" cy="87.6345" r="2.26545" fill="#C0C5CB"/>
<circle cx="133.155" cy="87.6345" r="2.26545" fill="#C0C5CB"/>
<circle cx="152.63" cy="87.6345" r="2.26545" fill="#C0C5CB"/>
<circle cx="172.104" cy="87.6345" r="2.26545" fill="#C0C5CB"/>
<circle cx="191.579" cy="87.6345" r="2.26545" fill="#C0C5CB"/>
<circle cx="211.055" cy="87.6345" r="2.26545" fill="#C0C5CB"/>
<circle cx="230.528" cy="87.6345" r="2.26545" fill="#C0C5CB"/>
<circle cx="250.003" cy="87.6345" r="2.26545" fill="#C0C5CB"/>
<circle cx="269.479" cy="87.6345" r="2.26545" fill="#C0C5CB"/>
<circle cx="288.954" cy="87.6345" r="2.26545" fill="#C0C5CB"/>
<circle cx="308.428" cy="87.6345" r="2.26545" fill="#C0C5CB"/>
<circle cx="327.903" cy="87.6345" r="2.26545" fill="#C0C5CB"/>
<circle cx="347.378" cy="87.6345" r="2.26545" fill="#C0C5CB"/>
<circle cx="366.852" cy="87.6345" r="2.26545" fill="#C0C5CB"/>
<circle cx="386.327" cy="87.6345" r="2.26545" fill="#C0C5CB"/>
<circle cx="405.802" cy="87.6345" r="2.26545" fill="#C0C5CB"/>
<circle cx="425.276" cy="87.6345" r="2.26545" fill="#C0C5CB"/>
<circle cx="444.751" cy="87.6345" r="2.26545" fill="#C0C5CB"/>
<circle cx="464.226" cy="87.6345" r="2.26545" fill="#C0C5CB"/>
<circle cx="483.701" cy="87.6345" r="2.26545" fill="#C0C5CB"/>
<circle cx="55.2557" cy="107.109" r="2.26545" fill="#C0C5CB"/>
<circle cx="74.7308" cy="107.109" r="2.26545" fill="#C0C5CB"/>
<circle cx="94.2044" cy="107.109" r="2.26545" fill="#C0C5CB"/>
<circle cx="113.68" cy="107.109" r="2.26545" fill="#C0C5CB"/>
<circle cx="133.155" cy="107.109" r="2.26545" fill="#C0C5CB"/>
<circle cx="152.63" cy="107.109" r="2.26545" fill="#C0C5CB"/>
<circle cx="172.104" cy="107.109" r="2.26545" fill="#C0C5CB"/>
<circle cx="191.579" cy="107.109" r="2.26545" fill="#C0C5CB"/>
<circle cx="211.055" cy="107.109" r="2.26545" fill="#C0C5CB"/>
<circle cx="230.528" cy="107.109" r="2.26545" fill="#C0C5CB"/>
<circle cx="250.003" cy="107.109" r="2.26545" fill="#C0C5CB"/>
<circle cx="269.479" cy="107.109" r="2.26545" fill="#C0C5CB"/>
<circle cx="288.954" cy="107.109" r="2.26545" fill="#C0C5CB"/>
<circle cx="308.428" cy="107.109" r="2.26545" fill="#C0C5CB"/>
<circle cx="327.903" cy="107.109" r="2.26545" fill="#C0C5CB"/>
<circle cx="347.378" cy="107.109" r="2.26545" fill="#C0C5CB"/>
<circle cx="366.852" cy="107.109" r="2.26545" fill="#C0C5CB"/>
<circle cx="386.327" cy="107.109" r="2.26545" fill="#C0C5CB"/>
<circle cx="405.802" cy="107.109" r="2.26545" fill="#C0C5CB"/>
<circle cx="425.276" cy="107.109" r="2.26545" fill="#C0C5CB"/>
<circle cx="444.751" cy="107.109" r="2.26545" fill="#C0C5CB"/>
<circle cx="464.226" cy="107.109" r="2.26545" fill="#C0C5CB"/>
<circle cx="483.701" cy="107.109" r="2.26545" fill="#C0C5CB"/>
<circle cx="55.2557" cy="126.584" r="2.26545" fill="#C0C5CB"/>
<circle cx="74.7308" cy="126.584" r="2.26545" fill="#C0C5CB"/>
<circle cx="94.2044" cy="126.584" r="2.26545" fill="#C0C5CB"/>
<circle cx="113.68" cy="126.584" r="2.26545" fill="#C0C5CB"/>
<circle cx="133.155" cy="126.584" r="2.26545" fill="#C0C5CB"/>
<circle cx="152.63" cy="126.584" r="2.26545" fill="#C0C5CB"/>
<circle cx="172.104" cy="126.584" r="2.26545" fill="#C0C5CB"/>
<circle cx="191.579" cy="126.584" r="2.26545" fill="#C0C5CB"/>
<circle cx="211.055" cy="126.584" r="2.26545" fill="#C0C5CB"/>
<circle cx="230.528" cy="126.584" r="2.26545" fill="#C0C5CB"/>
<circle cx="250.003" cy="126.584" r="2.26545" fill="#C0C5CB"/>
<circle cx="269.479" cy="126.584" r="2.26545" fill="#C0C5CB"/>
<circle cx="288.954" cy="126.584" r="2.26545" fill="#C0C5CB"/>
<circle cx="308.428" cy="126.584" r="2.26545" fill="#C0C5CB"/>
<circle cx="327.903" cy="126.584" r="2.26545" fill="#C0C5CB"/>
<circle cx="347.378" cy="126.584" r="2.26545" fill="#C0C5CB"/>
<circle cx="366.852" cy="126.584" r="2.26545" fill="#C0C5CB"/>
<circle cx="386.327" cy="126.584" r="2.26545" fill="#C0C5CB"/>
<circle cx="405.802" cy="126.584" r="2.26545" fill="#C0C5CB"/>
<circle cx="425.276" cy="126.584" r="2.26545" fill="#C0C5CB"/>
<circle cx="444.751" cy="126.584" r="2.26545" fill="#C0C5CB"/>
<circle cx="464.226" cy="126.584" r="2.26545" fill="#C0C5CB"/>
<circle cx="483.701" cy="126.584" r="2.26545" fill="#C0C5CB"/>
<circle cx="55.2557" cy="146.059" r="2.26545" fill="#C0C5CB"/>
<circle cx="74.7308" cy="146.059" r="2.26545" fill="#C0C5CB"/>
<circle cx="94.2044" cy="146.059" r="2.26545" fill="#C0C5CB"/>
<circle cx="113.68" cy="146.059" r="2.26545" fill="#C0C5CB"/>
<circle cx="133.155" cy="146.059" r="2.26545" fill="#C0C5CB"/>
<circle cx="152.63" cy="146.059" r="2.26545" fill="#C0C5CB"/>
<circle cx="172.104" cy="146.059" r="2.26545" fill="#C0C5CB"/>
<circle cx="191.579" cy="146.059" r="2.26545" fill="#C0C5CB"/>
<circle cx="211.055" cy="146.059" r="2.26545" fill="#C0C5CB"/>
<circle cx="230.528" cy="146.059" r="2.26545" fill="#C0C5CB"/>
<circle cx="250.003" cy="146.059" r="2.26545" fill="#C0C5CB"/>
<circle cx="269.479" cy="146.059" r="2.26545" fill="#C0C5CB"/>
<circle cx="288.954" cy="146.059" r="2.26545" fill="#C0C5CB"/>
<circle cx="308.428" cy="146.059" r="2.26545" fill="#C0C5CB"/>
<circle cx="327.903" cy="146.059" r="2.26545" fill="#C0C5CB"/>
<circle cx="347.378" cy="146.059" r="2.26545" fill="#C0C5CB"/>
<circle cx="366.852" cy="146.059" r="2.26545" fill="#C0C5CB"/>
<circle cx="386.327" cy="146.059" r="2.26545" fill="#C0C5CB"/>
<circle cx="405.802" cy="146.059" r="2.26545" fill="#C0C5CB"/>
<circle cx="425.276" cy="146.059" r="2.26545" fill="#C0C5CB"/>
<circle cx="444.751" cy="146.059" r="2.26545" fill="#C0C5CB"/>
<circle cx="464.226" cy="146.059" r="2.26545" fill="#C0C5CB"/>
<circle cx="483.701" cy="146.059" r="2.26545" fill="#C0C5CB"/>
<circle cx="55.2557" cy="165.534" r="2.26545" fill="#C0C5CB"/>
<circle cx="74.7308" cy="165.534" r="2.26545" fill="#C0C5CB"/>
<circle cx="94.2044" cy="165.534" r="2.26545" fill="#C0C5CB"/>
<circle cx="113.68" cy="165.534" r="2.26545" fill="#C0C5CB"/>
<circle cx="133.155" cy="165.534" r="2.26545" fill="#C0C5CB"/>
<circle cx="152.63" cy="165.534" r="2.26545" fill="#C0C5CB"/>
<circle cx="172.104" cy="165.534" r="2.26545" fill="#C0C5CB"/>
<circle cx="191.579" cy="165.534" r="2.26545" fill="#C0C5CB"/>
<circle cx="211.055" cy="165.534" r="2.26545" fill="#C0C5CB"/>
<circle cx="230.528" cy="165.534" r="2.26545" fill="#C0C5CB"/>
<circle cx="250.003" cy="165.534" r="2.26545" fill="#C0C5CB"/>
<circle cx="269.479" cy="165.534" r="2.26545" fill="#C0C5CB"/>
<circle cx="288.954" cy="165.534" r="2.26545" fill="#C0C5CB"/>
<circle cx="308.428" cy="165.534" r="2.26545" fill="#C0C5CB"/>
<circle cx="327.903" cy="165.534" r="2.26545" fill="#C0C5CB"/>
<circle cx="347.378" cy="165.534" r="2.26545" fill="#C0C5CB"/>
<circle cx="366.852" cy="165.534" r="2.26545" fill="#C0C5CB"/>
<circle cx="386.327" cy="165.534" r="2.26545" fill="#C0C5CB"/>
<circle cx="405.802" cy="165.534" r="2.26545" fill="#C0C5CB"/>
<circle cx="425.276" cy="165.534" r="2.26545" fill="#C0C5CB"/>
<circle cx="444.751" cy="165.534" r="2.26545" fill="#C0C5CB"/>
<circle cx="464.226" cy="165.534" r="2.26545" fill="#C0C5CB"/>
<circle cx="483.701" cy="165.534" r="2.26545" fill="#C0C5CB"/>
<circle cx="639.499" cy="87.6345" r="2.26545" fill="#C0C5CB"/>
<circle cx="658.973" cy="87.6345" r="2.26545" fill="#C0C5CB"/>
<circle cx="678.448" cy="87.6345" r="2.26545" fill="#C0C5CB"/>
<circle cx="697.922" cy="87.6345" r="2.26545" fill="#C0C5CB"/>
<circle cx="717.398" cy="87.6345" r="2.26545" fill="#C0C5CB"/>
<circle cx="736.873" cy="87.6345" r="2.26545" fill="#C0C5CB"/>
<circle cx="756.347" cy="87.6345" r="2.26545" fill="#C0C5CB"/>
<circle cx="775.822" cy="87.6345" r="2.26545" fill="#C0C5CB"/>
<circle cx="795.297" cy="87.6345" r="2.26545" fill="#C0C5CB"/>
<circle cx="814.771" cy="87.6345" r="2.26545" fill="#C0C5CB"/>
<circle cx="834.246" cy="87.6345" r="2.26545" fill="#C0C5CB"/>
<circle cx="853.721" cy="87.6345" r="2.26545" fill="#C0C5CB"/>
<circle cx="873.196" cy="87.6345" r="2.26545" fill="#C0C5CB"/>
<circle cx="719.273" cy="47.0401" r="2.26545" transform="rotate(-90 719.273 47.0401)" fill="#C0C5CB"/>
<circle cx="347.378" cy="185.008" r="2.26545" fill="#C0C5CB"/>
<circle cx="366.852" cy="185.008" r="2.26545" fill="#C0C5CB"/>
<circle cx="386.327" cy="185.008" r="2.26545" fill="#C0C5CB"/>
<circle cx="405.802" cy="185.008" r="2.26545" fill="#C0C5CB"/>
<circle cx="425.276" cy="185.008" r="2.26545" fill="#C0C5CB"/>
<circle cx="444.751" cy="185.008" r="2.26545" fill="#C0C5CB"/>
<circle cx="464.226" cy="185.008" r="2.26545" fill="#C0C5CB"/>
<circle cx="483.701" cy="185.008" r="2.26545" fill="#C0C5CB"/>
<circle cx="503.177" cy="204.483" r="2.26545" fill="#C0C5CB"/>
<circle cx="522.652" cy="204.483" r="2.26545" fill="#C0C5CB"/>
<circle cx="542.126" cy="204.483" r="2.26545" fill="#C0C5CB"/>
<circle cx="561.601" cy="204.483" r="2.26545" fill="#C0C5CB"/>
<circle cx="581.076" cy="204.483" r="2.26545" fill="#C0C5CB"/>
<circle cx="600.552" cy="204.483" r="2.26545" fill="#C0C5CB"/>
<circle cx="620.025" cy="204.483" r="2.26545" fill="#C0C5CB"/>
<circle cx="639.501" cy="204.483" r="2.26545" fill="#C0C5CB"/>
<circle cx="658.975" cy="204.483" r="2.26545" fill="#C0C5CB"/>
<circle cx="678.45" cy="204.483" r="2.26545" fill="#C0C5CB"/>
<circle cx="697.925" cy="204.483" r="2.26545" fill="#C0C5CB"/>
<circle cx="717.4" cy="204.483" r="2.26545" fill="#C0C5CB"/>
<circle cx="736.875" cy="204.483" r="2.26545" fill="#C0C5CB"/>
<circle cx="756.349" cy="204.483" r="2.26545" fill="#C0C5CB"/>
<circle cx="347.378" cy="204.483" r="2.26545" fill="#C0C5CB"/>
<circle cx="366.852" cy="204.483" r="2.26545" fill="#C0C5CB"/>
<circle cx="386.327" cy="204.483" r="2.26545" fill="#C0C5CB"/>
<circle cx="405.802" cy="204.483" r="2.26545" fill="#C0C5CB"/>
<circle cx="425.276" cy="204.483" r="2.26545" fill="#C0C5CB"/>
<circle cx="444.751" cy="204.483" r="2.26545" fill="#C0C5CB"/>
<circle cx="464.226" cy="204.483" r="2.26545" fill="#C0C5CB"/>
<circle cx="483.701" cy="204.483" r="2.26545" fill="#C0C5CB"/>
<circle cx="503.177" cy="223.958" r="2.26545" fill="#C0C5CB"/>
<circle cx="522.652" cy="223.958" r="2.26545" fill="#C0C5CB"/>
<circle cx="542.126" cy="223.958" r="2.26545" fill="#C0C5CB"/>
<circle cx="561.601" cy="223.958" r="2.26545" fill="#C0C5CB"/>
<circle cx="581.076" cy="223.958" r="2.26545" fill="#C0C5CB"/>
<circle cx="600.552" cy="223.958" r="2.26545" fill="#C0C5CB"/>
<circle cx="620.025" cy="223.958" r="2.26545" fill="#C0C5CB"/>
<circle cx="639.501" cy="223.958" r="2.26545" fill="#C0C5CB"/>
<circle cx="658.975" cy="223.958" r="2.26545" fill="#C0C5CB"/>
<circle cx="678.45" cy="223.958" r="2.26545" fill="#C0C5CB"/>
<circle cx="697.925" cy="223.958" r="2.26545" fill="#C0C5CB"/>
<circle cx="717.4" cy="223.958" r="2.26545" fill="#C0C5CB"/>
<circle cx="736.875" cy="223.958" r="2.26545" fill="#C0C5CB"/>
<circle cx="756.349" cy="223.958" r="2.26545" fill="#C0C5CB"/>
<circle cx="347.378" cy="223.958" r="2.26545" fill="#C0C5CB"/>
<circle cx="366.852" cy="223.958" r="2.26545" fill="#C0C5CB"/>
<circle cx="386.327" cy="223.958" r="2.26545" fill="#C0C5CB"/>
<circle cx="405.802" cy="223.958" r="2.26545" fill="#C0C5CB"/>
<circle cx="425.276" cy="223.958" r="2.26545" fill="#C0C5CB"/>
<circle cx="444.751" cy="223.958" r="2.26545" fill="#C0C5CB"/>
<circle cx="464.226" cy="223.958" r="2.26545" fill="#C0C5CB"/>
<circle cx="483.701" cy="223.958" r="2.26545" fill="#C0C5CB"/>
<circle cx="503.177" cy="243.433" r="2.26545" fill="#C0C5CB"/>
<circle cx="522.652" cy="243.433" r="2.26545" fill="#C0C5CB"/>
<circle cx="542.126" cy="243.433" r="2.26545" fill="#C0C5CB"/>
<circle cx="561.601" cy="243.433" r="2.26545" fill="#C0C5CB"/>
<circle cx="581.076" cy="243.433" r="2.26545" fill="#C0C5CB"/>
<circle cx="600.552" cy="243.433" r="2.26545" fill="#C0C5CB"/>
<circle cx="620.025" cy="243.433" r="2.26545" fill="#C0C5CB"/>
<circle cx="639.501" cy="243.433" r="2.26545" fill="#C0C5CB"/>
<circle cx="658.975" cy="243.433" r="2.26545" fill="#C0C5CB"/>
<circle cx="678.45" cy="243.433" r="2.26545" fill="#C0C5CB"/>
<circle cx="697.925" cy="243.433" r="2.26545" fill="#C0C5CB"/>
<circle cx="717.4" cy="243.433" r="2.26545" fill="#C0C5CB"/>
<circle cx="736.875" cy="243.433" r="2.26545" fill="#C0C5CB"/>
<circle cx="756.349" cy="243.433" r="2.26545" fill="#C0C5CB"/>
<circle cx="347.378" cy="243.433" r="2.26545" fill="#C0C5CB"/>
<circle cx="366.852" cy="243.433" r="2.26545" fill="#C0C5CB"/>
<circle cx="386.327" cy="243.433" r="2.26545" fill="#C0C5CB"/>
<circle cx="405.802" cy="243.433" r="2.26545" fill="#C0C5CB"/>
<circle cx="425.276" cy="243.433" r="2.26545" fill="#C0C5CB"/>
<circle cx="444.751" cy="243.433" r="2.26545" fill="#C0C5CB"/>
<circle cx="464.226" cy="243.433" r="2.26545" fill="#C0C5CB"/>
<circle cx="483.701" cy="243.433" r="2.26545" fill="#C0C5CB"/>
<circle cx="503.177" cy="262.908" r="2.26545" fill="#C0C5CB"/>
<circle cx="522.652" cy="262.908" r="2.26545" fill="#C0C5CB"/>
<circle cx="542.126" cy="262.908" r="2.26545" fill="#C0C5CB"/>
<circle cx="561.601" cy="262.908" r="2.26545" fill="#C0C5CB"/>
<circle cx="581.076" cy="262.908" r="2.26545" fill="#C0C5CB"/>
<circle cx="600.552" cy="262.908" r="2.26545" fill="#C0C5CB"/>
<circle cx="620.025" cy="262.908" r="2.26545" fill="#C0C5CB"/>
<circle cx="639.501" cy="262.908" r="2.26545" fill="#C0C5CB"/>
<circle cx="658.975" cy="262.908" r="2.26545" fill="#C0C5CB"/>
<circle cx="678.45" cy="262.908" r="2.26545" fill="#C0C5CB"/>
<circle cx="697.925" cy="262.908" r="2.26545" fill="#C0C5CB"/>
<circle cx="717.4" cy="262.908" r="2.26545" fill="#C0C5CB"/>
<circle cx="736.875" cy="262.908" r="2.26545" fill="#C0C5CB"/>
<circle cx="756.349" cy="262.908" r="2.26545" fill="#C0C5CB"/>
<circle cx="347.378" cy="262.908" r="2.26545" fill="#C0C5CB"/>
<circle cx="366.852" cy="262.908" r="2.26545" fill="#C0C5CB"/>
<circle cx="386.327" cy="262.908" r="2.26545" fill="#C0C5CB"/>
<circle cx="405.802" cy="262.908" r="2.26545" fill="#C0C5CB"/>
<circle cx="425.276" cy="262.908" r="2.26545" fill="#C0C5CB"/>
<circle cx="444.751" cy="262.908" r="2.26545" fill="#C0C5CB"/>
<circle cx="464.226" cy="262.908" r="2.26545" fill="#C0C5CB"/>
<circle cx="483.701" cy="262.908" r="2.26545" fill="#C0C5CB"/>
<circle cx="503.177" cy="282.382" r="2.26545" fill="#C0C5CB"/>
<circle cx="522.652" cy="282.382" r="2.26545" fill="#C0C5CB"/>
<circle cx="542.126" cy="282.382" r="2.26545" fill="#C0C5CB"/>
<circle cx="561.601" cy="282.382" r="2.26545" fill="#C0C5CB"/>
<circle cx="581.076" cy="282.382" r="2.26545" fill="#C0C5CB"/>
<circle cx="600.552" cy="282.382" r="2.26545" fill="#C0C5CB"/>
<circle cx="620.025" cy="282.382" r="2.26545" fill="#C0C5CB"/>
<circle cx="639.501" cy="282.382" r="2.26545" fill="#C0C5CB"/>
<circle cx="658.975" cy="282.382" r="2.26545" fill="#C0C5CB"/>
<circle cx="678.45" cy="282.382" r="2.26545" fill="#C0C5CB"/>
<circle cx="697.925" cy="282.382" r="2.26545" fill="#C0C5CB"/>
<circle cx="717.4" cy="282.382" r="2.26545" fill="#C0C5CB"/>
<circle cx="736.875" cy="282.382" r="2.26545" fill="#C0C5CB"/>
<circle cx="756.349" cy="282.382" r="2.26545" fill="#C0C5CB"/>
<circle cx="347.378" cy="282.382" r="2.26545" fill="#C0C5CB"/>
<circle cx="366.852" cy="282.382" r="2.26545" fill="#C0C5CB"/>
<circle cx="386.327" cy="282.382" r="2.26545" fill="#C0C5CB"/>
<circle cx="405.802" cy="282.382" r="2.26545" fill="#C0C5CB"/>
<circle cx="425.276" cy="282.382" r="2.26545" fill="#C0C5CB"/>
<circle cx="444.751" cy="282.382" r="2.26545" fill="#C0C5CB"/>
<circle cx="464.226" cy="282.382" r="2.26545" fill="#C0C5CB"/>
<circle cx="483.701" cy="282.382" r="2.26545" fill="#C0C5CB"/>
<circle cx="503.177" cy="301.857" r="2.26545" fill="#C0C5CB"/>
<circle cx="522.652" cy="301.857" r="2.26545" fill="#C0C5CB"/>
<circle cx="542.126" cy="301.857" r="2.26545" fill="#C0C5CB"/>
<circle cx="561.601" cy="301.857" r="2.26545" fill="#C0C5CB"/>
<circle cx="581.076" cy="301.857" r="2.26545" fill="#C0C5CB"/>
<circle cx="600.552" cy="301.857" r="2.26545" fill="#C0C5CB"/>
<circle cx="620.025" cy="301.857" r="2.26545" fill="#C0C5CB"/>
<circle cx="639.501" cy="301.857" r="2.26545" fill="#C0C5CB"/>
<circle cx="658.975" cy="301.857" r="2.26545" fill="#C0C5CB"/>
<circle cx="678.45" cy="301.857" r="2.26545" fill="#C0C5CB"/>
<circle cx="697.925" cy="301.857" r="2.26545" fill="#C0C5CB"/>
<circle cx="717.4" cy="301.857" r="2.26545" fill="#C0C5CB"/>
<circle cx="736.875" cy="301.857" r="2.26545" fill="#C0C5CB"/>
<circle cx="756.349" cy="301.857" r="2.26545" fill="#C0C5CB"/>
<circle cx="347.378" cy="301.857" r="2.26545" fill="#C0C5CB"/>
<circle cx="366.852" cy="301.857" r="2.26545" fill="#C0C5CB"/>
<circle cx="386.327" cy="301.857" r="2.26545" fill="#C0C5CB"/>
<circle cx="405.802" cy="301.857" r="2.26545" fill="#C0C5CB"/>
<circle cx="425.276" cy="301.857" r="2.26545" fill="#C0C5CB"/>
<circle cx="444.751" cy="301.857" r="2.26545" fill="#C0C5CB"/>
<circle cx="464.226" cy="301.857" r="2.26545" fill="#C0C5CB"/>
<circle cx="483.701" cy="301.857" r="2.26545" fill="#C0C5CB"/>
<circle cx="503.177" cy="107.109" r="2.26545" fill="#1757C2"/>
<circle cx="522.652" cy="107.109" r="2.26545" fill="#1757C2"/>
<circle cx="542.126" cy="107.109" r="2.26545" fill="#1757C2"/>
<circle cx="561.601" cy="107.109" r="2.26545" fill="#1757C2"/>
<circle cx="581.076" cy="107.109" r="2.26545" fill="#1757C2"/>
<circle cx="600.552" cy="107.109" r="2.26545" fill="#1757C2"/>
<circle cx="620.025" cy="107.109" r="2.26545" fill="#1757C2"/>
<circle cx="639.501" cy="107.109" r="2.26545" fill="#1757C2"/>
<circle cx="658.975" cy="107.109" r="2.26545" fill="#1757C2"/>
<circle cx="678.45" cy="107.109" r="2.26545" fill="#1757C2"/>
<circle cx="697.925" cy="107.109" r="2.26545" fill="#1757C2"/>
<circle cx="717.399" cy="107.109" r="2.26545" fill="#1757C2"/>
<circle cx="736.873" cy="107.109" r="2.26545" fill="#1757C2"/>
<circle cx="756.349" cy="107.109" r="2.26545" fill="#1757C2"/>
<circle cx="775.824" cy="107.109" r="2.26545" fill="#1757C2"/>
<circle cx="503.177" cy="126.584" r="2.26545" fill="#1757C2"/>
<circle cx="522.652" cy="126.584" r="2.26545" fill="#1757C2"/>
<circle cx="542.126" cy="126.584" r="2.26545" fill="#1757C2"/>
<circle cx="561.601" cy="126.584" r="2.26545" fill="#1757C2"/>
<circle cx="581.076" cy="126.584" r="2.26545" fill="#1757C2"/>
<circle cx="600.552" cy="126.584" r="2.26545" fill="#1757C2"/>
<circle cx="620.025" cy="126.584" r="2.26545" fill="#1757C2"/>
<circle cx="639.501" cy="126.584" r="2.26545" fill="#1757C2"/>
<circle cx="658.975" cy="126.584" r="2.26545" fill="#1757C2"/>
<circle cx="678.45" cy="126.584" r="2.26545" fill="#1757C2"/>
<circle cx="697.925" cy="126.584" r="2.26545" fill="#1757C2"/>
<circle cx="717.399" cy="126.584" r="2.26545" fill="#1757C2"/>
<circle cx="736.873" cy="126.584" r="2.26545" fill="#1757C2"/>
<circle cx="756.349" cy="126.584" r="2.26545" fill="#1757C2"/>
<circle cx="775.824" cy="126.584" r="2.26545" fill="#1757C2"/>
<circle cx="795.299" cy="126.584" r="2.26545" fill="#1757C2"/>
<circle cx="503.177" cy="146.059" r="2.26545" fill="#1757C2"/>
<circle cx="522.652" cy="146.059" r="2.26545" fill="#1757C2"/>
<circle cx="542.126" cy="146.059" r="2.26545" fill="#1757C2"/>
<circle cx="561.601" cy="146.059" r="2.26545" fill="#1757C2"/>
<circle cx="581.076" cy="146.059" r="2.26545" fill="#1757C2"/>
<circle cx="600.552" cy="146.059" r="2.26545" fill="#1757C2"/>
<circle cx="620.025" cy="146.059" r="2.26545" fill="#1757C2"/>
<circle cx="639.501" cy="146.059" r="2.26545" fill="#1757C2"/>
<circle cx="658.975" cy="146.059" r="2.26545" fill="#1757C2"/>
<circle cx="678.45" cy="146.059" r="2.26545" fill="#1757C2"/>
<circle cx="697.925" cy="146.059" r="2.26545" fill="#1757C2"/>
<circle cx="717.399" cy="146.059" r="2.26545" fill="#1757C2"/>
<circle cx="736.873" cy="146.059" r="2.26545" fill="#1757C2"/>
<circle cx="756.349" cy="146.059" r="2.26545" fill="#1757C2"/>
<circle cx="775.824" cy="146.059" r="2.26545" fill="#1757C2"/>
<circle cx="795.299" cy="146.059" r="2.26545" fill="#1757C2"/>
<circle cx="503.177" cy="165.534" r="2.26545" fill="#1757C2"/>
<circle cx="522.652" cy="165.534" r="2.26545" fill="#1757C2"/>
<circle cx="542.126" cy="165.534" r="2.26545" fill="#1757C2"/>
<circle cx="561.601" cy="165.534" r="2.26545" fill="#1757C2"/>
<circle cx="581.076" cy="165.534" r="2.26545" fill="#1757C2"/>
<circle cx="600.552" cy="165.534" r="2.26545" fill="#1757C2"/>
<circle cx="620.025" cy="165.534" r="2.26545" fill="#1757C2"/>
<circle cx="639.501" cy="165.534" r="2.26545" fill="#1757C2"/>
<circle cx="658.975" cy="165.534" r="2.26545" fill="#1757C2"/>
<circle cx="678.45" cy="165.534" r="2.26545" fill="#1757C2"/>
<circle cx="697.925" cy="165.534" r="2.26545" fill="#1757C2"/>
<circle cx="717.399" cy="165.534" r="2.26545" fill="#1757C2"/>
<circle cx="736.873" cy="165.534" r="2.26545" fill="#1757C2"/>
<circle cx="756.349" cy="165.534" r="2.26545" fill="#1757C2"/>
<circle cx="775.824" cy="165.534" r="2.26545" fill="#1757C2"/>
<circle cx="795.299" cy="165.534" r="2.26545" fill="#1757C2"/>
<circle cx="503.177" cy="185.008" r="2.26545" fill="#1757C2"/>
<circle cx="522.652" cy="185.008" r="2.26545" fill="#1757C2"/>
<circle cx="542.126" cy="185.008" r="2.26545" fill="#1757C2"/>
<circle cx="561.601" cy="185.008" r="2.26545" fill="#1757C2"/>
<circle cx="581.076" cy="185.008" r="2.26545" fill="#1757C2"/>
<circle cx="600.552" cy="185.008" r="2.26545" fill="#1757C2"/>
<circle cx="620.025" cy="185.008" r="2.26545" fill="#1757C2"/>
<circle cx="639.501" cy="185.008" r="2.26545" fill="#1757C2"/>
<circle cx="658.975" cy="185.008" r="2.26545" fill="#1757C2"/>
<circle cx="678.45" cy="185.008" r="2.26545" fill="#1757C2"/>
<circle cx="697.925" cy="185.008" r="2.26545" fill="#1757C2"/>
<circle cx="717.399" cy="185.008" r="2.26545" fill="#1757C2"/>
<circle cx="736.873" cy="185.008" r="2.26545" fill="#1757C2"/>
<circle cx="756.349" cy="185.008" r="2.26545" fill="#1757C2"/>
<circle cx="775.824" cy="185.008" r="2.26545" fill="#1757C2"/>
<circle cx="795.299" cy="185.008" r="2.26545" fill="#1757C2"/>
<circle cx="55.2557" cy="87.6345" r="2.26545" fill="#1757C2"/>
<circle cx="74.7308" cy="87.6345" r="2.26545" fill="#1757C2"/>
<circle cx="94.2044" cy="87.6345" r="2.26545" fill="#1757C2"/>
<circle cx="113.68" cy="87.6345" r="2.26545" fill="#1757C2"/>
<circle cx="133.155" cy="87.6345" r="2.26545" fill="#1757C2"/>
<circle cx="152.63" cy="87.6345" r="2.26545" fill="#1757C2"/>
<circle cx="172.104" cy="87.6345" r="2.26545" fill="#1757C2"/>
<circle cx="191.579" cy="87.6345" r="2.26545" fill="#1757C2"/>
<circle cx="211.055" cy="87.6345" r="2.26545" fill="#1757C2"/>
<circle cx="230.528" cy="87.6345" r="2.26545" fill="#1757C2"/>
<circle cx="250.003" cy="87.6345" r="2.26545" fill="#1757C2"/>
<circle cx="269.479" cy="87.6345" r="2.26545" fill="#1757C2"/>
<circle cx="288.954" cy="87.6345" r="2.26545" fill="#1757C2"/>
<circle cx="308.428" cy="87.6345" r="2.26545" fill="#1757C2"/>
<circle cx="327.903" cy="87.6345" r="2.26545" fill="#1757C2"/>
<circle cx="347.378" cy="87.6345" r="2.26545" fill="#1757C2"/>
<circle cx="366.852" cy="87.6345" r="2.26545" fill="#1757C2"/>
<circle cx="386.327" cy="87.6345" r="2.26545" fill="#1757C2"/>
<circle cx="405.802" cy="87.6345" r="2.26545" fill="#1757C2"/>
<circle cx="425.276" cy="87.6345" r="2.26545" fill="#1757C2"/>
<circle cx="444.751" cy="87.6345" r="2.26545" fill="#1757C2"/>
<circle cx="464.226" cy="87.6345" r="2.26545" fill="#1757C2"/>
<circle cx="483.701" cy="87.6345" r="2.26545" fill="#1757C2"/>
<circle cx="55.2557" cy="107.109" r="2.26545" fill="#1757C2"/>
<circle cx="74.7308" cy="107.109" r="2.26545" fill="#1757C2"/>
<circle cx="94.2044" cy="107.109" r="2.26545" fill="#1757C2"/>
<circle cx="113.68" cy="107.109" r="2.26545" fill="#1757C2"/>
<circle cx="133.155" cy="107.109" r="2.26545" fill="#1757C2"/>
<circle cx="152.63" cy="107.109" r="2.26545" fill="#1757C2"/>
<circle cx="172.104" cy="107.109" r="2.26545" fill="#1757C2"/>
<circle cx="191.579" cy="107.109" r="2.26545" fill="#1757C2"/>
<circle cx="211.055" cy="107.109" r="2.26545" fill="#1757C2"/>
<circle cx="230.528" cy="107.109" r="2.26545" fill="#1757C2"/>
<circle cx="250.003" cy="107.109" r="2.26545" fill="#1757C2"/>
<circle cx="269.479" cy="107.109" r="2.26545" fill="#1757C2"/>
<circle cx="288.954" cy="107.109" r="2.26545" fill="#1757C2"/>
<circle cx="308.428" cy="107.109" r="2.26545" fill="#1757C2"/>
<circle cx="327.903" cy="107.109" r="2.26545" fill="#1757C2"/>
<circle cx="347.378" cy="107.109" r="2.26545" fill="#1757C2"/>
<circle cx="366.852" cy="107.109" r="2.26545" fill="#1757C2"/>
<circle cx="386.327" cy="107.109" r="2.26545" fill="#1757C2"/>
<circle cx="405.802" cy="107.109" r="2.26545" fill="#1757C2"/>
<circle cx="425.276" cy="107.109" r="2.26545" fill="#1757C2"/>
<circle cx="444.751" cy="107.109" r="2.26545" fill="#1757C2"/>
<circle cx="464.226" cy="107.109" r="2.26545" fill="#1757C2"/>
<circle cx="483.701" cy="107.109" r="2.26545" fill="#1757C2"/>
<circle cx="55.2557" cy="126.584" r="2.26545" fill="#1757C2"/>
<circle cx="74.7308" cy="126.584" r="2.26545" fill="#1757C2"/>
<circle cx="94.2044" cy="126.584" r="2.26545" fill="#1757C2"/>
<circle cx="113.68" cy="126.584" r="2.26545" fill="#1757C2"/>
<circle cx="133.155" cy="126.584" r="2.26545" fill="#1757C2"/>
<circle cx="152.63" cy="126.584" r="2.26545" fill="#1757C2"/>
<circle cx="172.104" cy="126.584" r="2.26545" fill="#1757C2"/>
<circle cx="191.579" cy="126.584" r="2.26545" fill="#1757C2"/>
<circle cx="211.055" cy="126.584" r="2.26545" fill="#1757C2"/>
<circle cx="230.528" cy="126.584" r="2.26545" fill="#1757C2"/>
<circle cx="250.003" cy="126.584" r="2.26545" fill="#1757C2"/>
<circle cx="269.479" cy="126.584" r="2.26545" fill="#1757C2"/>
<circle cx="288.954" cy="126.584" r="2.26545" fill="#1757C2"/>
<circle cx="308.428" cy="126.584" r="2.26545" fill="#1757C2"/>
<circle cx="327.903" cy="126.584" r="2.26545" fill="#1757C2"/>
<circle cx="347.378" cy="126.584" r="2.26545" fill="#1757C2"/>
<circle cx="366.852" cy="126.584" r="2.26545" fill="#1757C2"/>
<circle cx="386.327" cy="126.584" r="2.26545" fill="#1757C2"/>
<circle cx="405.802" cy="126.584" r="2.26545" fill="#1757C2"/>
<circle cx="425.276" cy="126.584" r="2.26545" fill="#1757C2"/>
<circle cx="444.751" cy="126.584" r="2.26545" fill="#1757C2"/>
<circle cx="464.226" cy="126.584" r="2.26545" fill="#1757C2"/>
<circle cx="483.701" cy="126.584" r="2.26545" fill="#1757C2"/>
<circle cx="55.2557" cy="146.059" r="2.26545" fill="#1757C2"/>
<circle cx="74.7308" cy="146.059" r="2.26545" fill="#1757C2"/>
<circle cx="94.2044" cy="146.059" r="2.26545" fill="#1757C2"/>
<circle cx="113.68" cy="146.059" r="2.26545" fill="#1757C2"/>
<circle cx="133.155" cy="146.059" r="2.26545" fill="#1757C2"/>
<circle cx="152.63" cy="146.059" r="2.26545" fill="#1757C2"/>
<circle cx="172.104" cy="146.059" r="2.26545" fill="#1757C2"/>
<circle cx="191.579" cy="146.059" r="2.26545" fill="#1757C2"/>
<circle cx="211.055" cy="146.059" r="2.26545" fill="#1757C2"/>
<circle cx="230.528" cy="146.059" r="2.26545" fill="#1757C2"/>
<circle cx="250.003" cy="146.059" r="2.26545" fill="#1757C2"/>
<circle cx="269.479" cy="146.059" r="2.26545" fill="#1757C2"/>
<circle cx="288.954" cy="146.059" r="2.26545" fill="#1757C2"/>
<circle cx="308.428" cy="146.059" r="2.26545" fill="#1757C2"/>
<circle cx="327.903" cy="146.059" r="2.26545" fill="#1757C2"/>
<circle cx="347.378" cy="146.059" r="2.26545" fill="#1757C2"/>
<circle cx="366.852" cy="146.059" r="2.26545" fill="#1757C2"/>
<circle cx="386.327" cy="146.059" r="2.26545" fill="#1757C2"/>
<circle cx="405.802" cy="146.059" r="2.26545" fill="#1757C2"/>
<circle cx="425.276" cy="146.059" r="2.26545" fill="#1757C2"/>
<circle cx="444.751" cy="146.059" r="2.26545" fill="#1757C2"/>
<circle cx="464.226" cy="146.059" r="2.26545" fill="#1757C2"/>
<circle cx="483.701" cy="146.059" r="2.26545" fill="#1757C2"/>
<circle cx="55.2557" cy="165.534" r="2.26545" fill="#1757C2"/>
<circle cx="74.7308" cy="165.534" r="2.26545" fill="#1757C2"/>
<circle cx="94.2044" cy="165.534" r="2.26545" fill="#1757C2"/>
<circle cx="113.68" cy="165.534" r="2.26545" fill="#1757C2"/>
<circle cx="133.155" cy="165.534" r="2.26545" fill="#1757C2"/>
<circle cx="152.63" cy="165.534" r="2.26545" fill="#1757C2"/>
<circle cx="172.104" cy="165.534" r="2.26545" fill="#1757C2"/>
<circle cx="191.579" cy="165.534" r="2.26545" fill="#1757C2"/>
<circle cx="211.055" cy="165.534" r="2.26545" fill="#1757C2"/>
<circle cx="230.528" cy="165.534" r="2.26545" fill="#1757C2"/>
<circle cx="250.003" cy="165.534" r="2.26545" fill="#1757C2"/>
<circle cx="269.479" cy="165.534" r="2.26545" fill="#1757C2"/>
<circle cx="288.954" cy="165.534" r="2.26545" fill="#1757C2"/>
<circle cx="308.428" cy="165.534" r="2.26545" fill="#1757C2"/>
<circle cx="327.903" cy="165.534" r="2.26545" fill="#1757C2"/>
<circle cx="347.378" cy="165.534" r="2.26545" fill="#1757C2"/>
<circle cx="366.852" cy="165.534" r="2.26545" fill="#1757C2"/>
<circle cx="386.327" cy="165.534" r="2.26545" fill="#1757C2"/>
<circle cx="405.802" cy="165.534" r="2.26545" fill="#1757C2"/>
<circle cx="425.276" cy="165.534" r="2.26545" fill="#1757C2"/>
<circle cx="444.751" cy="165.534" r="2.26545" fill="#1757C2"/>
<circle cx="464.226" cy="165.534" r="2.26545" fill="#1757C2"/>
<circle cx="483.701" cy="165.534" r="2.26545" fill="#1757C2"/>
<circle cx="639.499" cy="87.6345" r="2.26545" fill="#1757C2"/>
<circle cx="658.973" cy="87.6345" r="2.26545" fill="#1757C2"/>
<circle cx="678.448" cy="87.6345" r="2.26545" fill="#1757C2"/>
<circle cx="697.922" cy="87.6345" r="2.26545" fill="#1757C2"/>
<circle cx="717.398" cy="87.6345" r="2.26545" fill="#1757C2"/>
<circle cx="736.873" cy="87.6345" r="2.26545" fill="#1757C2"/>
<circle cx="756.347" cy="87.6345" r="2.26545" fill="#1757C2"/>
<circle cx="775.822" cy="87.6345" r="2.26545" fill="#1757C2"/>
<circle cx="814.771" cy="87.6345" r="2.26545" fill="#C0C5CB"/>
<circle cx="834.246" cy="87.6345" r="2.26545" fill="#C0C5CB"/>
<circle cx="853.721" cy="87.6345" r="2.26545" fill="#C0C5CB"/>
<circle cx="873.196" cy="87.6345" r="2.26545" fill="#C0C5CB"/>
<circle cx="719.273" cy="47.0401" r="2.26545" transform="rotate(-90 719.273 47.0401)" fill="#C0C5CB"/>
<circle cx="347.378" cy="185.008" r="2.26545" fill="#1757C2"/>
<circle cx="366.852" cy="185.008" r="2.26545" fill="#1757C2"/>
<circle cx="386.327" cy="185.008" r="2.26545" fill="#1757C2"/>
<circle cx="405.802" cy="185.008" r="2.26545" fill="#1757C2"/>
<circle cx="425.276" cy="185.008" r="2.26545" fill="#1757C2"/>
<circle cx="444.751" cy="185.008" r="2.26545" fill="#1757C2"/>
<circle cx="464.226" cy="185.008" r="2.26545" fill="#1757C2"/>
<circle cx="483.701" cy="185.008" r="2.26545" fill="#1757C2"/>
<circle cx="503.177" cy="204.483" r="2.26545" fill="#1757C2"/>
<circle cx="522.652" cy="204.483" r="2.26545" fill="#1757C2"/>
<circle cx="542.126" cy="204.483" r="2.26545" fill="#1757C2"/>
<circle cx="561.601" cy="204.483" r="2.26545" fill="#1757C2"/>
<circle cx="581.076" cy="204.483" r="2.26545" fill="#1757C2"/>
<circle cx="600.552" cy="204.483" r="2.26545" fill="#1757C2"/>
<circle cx="620.025" cy="204.483" r="2.26545" fill="#1757C2"/>
<circle cx="639.501" cy="204.483" r="2.26545" fill="#1757C2"/>
<circle cx="658.975" cy="204.483" r="2.26545" fill="#1757C2"/>
<circle cx="678.45" cy="204.483" r="2.26545" fill="#1757C2"/>
<circle cx="697.925" cy="204.483" r="2.26545" fill="#1757C2"/>
<circle cx="717.4" cy="204.483" r="2.26545" fill="#1757C2"/>
<circle cx="736.875" cy="204.483" r="2.26545" fill="#1757C2"/>
<circle cx="756.349" cy="204.483" r="2.26545" fill="#1757C2"/>
<circle cx="347.378" cy="204.483" r="2.26545" fill="#1757C2"/>
<circle cx="366.852" cy="204.483" r="2.26545" fill="#1757C2"/>
<circle cx="386.327" cy="204.483" r="2.26545" fill="#1757C2"/>
<circle cx="405.802" cy="204.483" r="2.26545" fill="#1757C2"/>
<circle cx="425.276" cy="204.483" r="2.26545" fill="#1757C2"/>
<circle cx="444.751" cy="204.483" r="2.26545" fill="#1757C2"/>
<circle cx="464.226" cy="204.483" r="2.26545" fill="#1757C2"/>
<circle cx="483.701" cy="204.483" r="2.26545" fill="#1757C2"/>
<circle cx="503.177" cy="223.958" r="2.26545" fill="#1757C2"/>
<circle cx="522.652" cy="223.958" r="2.26545" fill="#1757C2"/>
<circle cx="542.126" cy="223.958" r="2.26545" fill="#1757C2"/>
<circle cx="561.601" cy="223.958" r="2.26545" fill="#1757C2"/>
<circle cx="581.076" cy="223.958" r="2.26545" fill="#1757C2"/>
<circle cx="600.552" cy="223.958" r="2.26545" fill="#1757C2"/>
<circle cx="620.025" cy="223.958" r="2.26545" fill="#1757C2"/>
<circle cx="639.501" cy="223.958" r="2.26545" fill="#1757C2"/>
<circle cx="658.975" cy="223.958" r="2.26545" fill="#1757C2"/>
<circle cx="678.45" cy="223.958" r="2.26545" fill="#1757C2"/>
<circle cx="697.925" cy="223.958" r="2.26545" fill="#1757C2"/>
<circle cx="717.4" cy="223.958" r="2.26545" fill="#1757C2"/>
<circle cx="736.875" cy="223.958" r="2.26545" fill="#1757C2"/>
<circle cx="756.349" cy="223.958" r="2.26545" fill="#1757C2"/>
<circle cx="347.378" cy="223.958" r="2.26545" fill="#1757C2"/>
<circle cx="366.852" cy="223.958" r="2.26545" fill="#1757C2"/>
<circle cx="386.327" cy="223.958" r="2.26545" fill="#1757C2"/>
<circle cx="405.802" cy="223.958" r="2.26545" fill="#1757C2"/>
<circle cx="425.276" cy="223.958" r="2.26545" fill="#1757C2"/>
<circle cx="444.751" cy="223.958" r="2.26545" fill="#1757C2"/>
<circle cx="464.226" cy="223.958" r="2.26545" fill="#1757C2"/>
<circle cx="483.701" cy="223.958" r="2.26545" fill="#1757C2"/>
<circle cx="503.177" cy="243.433" r="2.26545" fill="#1757C2"/>
<circle cx="522.652" cy="243.433" r="2.26545" fill="#1757C2"/>
<circle cx="542.126" cy="243.433" r="2.26545" fill="#1757C2"/>
<circle cx="561.601" cy="243.433" r="2.26545" fill="#1757C2"/>
<circle cx="581.076" cy="243.433" r="2.26545" fill="#1757C2"/>
<circle cx="600.552" cy="243.433" r="2.26545" fill="#1757C2"/>
<circle cx="620.025" cy="243.433" r="2.26545" fill="#1757C2"/>
<circle cx="639.501" cy="243.433" r="2.26545" fill="#1757C2"/>
<circle cx="658.975" cy="243.433" r="2.26545" fill="#1757C2"/>
<circle cx="678.45" cy="243.433" r="2.26545" fill="#1757C2"/>
<circle cx="697.925" cy="243.433" r="2.26545" fill="#1757C2"/>
<circle cx="717.4" cy="243.433" r="2.26545" fill="#1757C2"/>
<circle cx="736.875" cy="243.433" r="2.26545" fill="#1757C2"/>
<circle cx="756.349" cy="243.433" r="2.26545" fill="#1757C2"/>
<circle cx="347.378" cy="243.433" r="2.26545" fill="#1757C2"/>
<circle cx="366.852" cy="243.433" r="2.26545" fill="#1757C2"/>
<circle cx="386.327" cy="243.433" r="2.26545" fill="#1757C2"/>
<circle cx="405.802" cy="243.433" r="2.26545" fill="#1757C2"/>
<circle cx="425.276" cy="243.433" r="2.26545" fill="#1757C2"/>
<circle cx="444.751" cy="243.433" r="2.26545" fill="#1757C2"/>
<circle cx="464.226" cy="243.433" r="2.26545" fill="#1757C2"/>
<circle cx="483.701" cy="243.433" r="2.26545" fill="#1757C2"/>
<circle cx="503.177" cy="262.908" r="2.26545" fill="#1757C2"/>
<circle cx="522.652" cy="262.908" r="2.26545" fill="#1757C2"/>
<circle cx="542.126" cy="262.908" r="2.26545" fill="#1757C2"/>
<circle cx="561.601" cy="262.908" r="2.26545" fill="#1757C2"/>
<circle cx="581.076" cy="262.908" r="2.26545" fill="#1757C2"/>
<circle cx="600.552" cy="262.908" r="2.26545" fill="#1757C2"/>
<circle cx="620.025" cy="262.908" r="2.26545" fill="#1757C2"/>
<circle cx="639.501" cy="262.908" r="2.26545" fill="#1757C2"/>
<circle cx="658.975" cy="262.908" r="2.26545" fill="#1757C2"/>
<circle cx="678.45" cy="262.908" r="2.26545" fill="#1757C2"/>
<circle cx="697.925" cy="262.908" r="2.26545" fill="#1757C2"/>
<circle cx="717.4" cy="262.908" r="2.26545" fill="#1757C2"/>
<circle cx="736.875" cy="262.908" r="2.26545" fill="#1757C2"/>
<circle cx="756.349" cy="262.908" r="2.26545" fill="#1757C2"/>
<circle cx="347.378" cy="262.908" r="2.26545" fill="#1757C2"/>
<circle cx="366.852" cy="262.908" r="2.26545" fill="#1757C2"/>
<circle cx="386.327" cy="262.908" r="2.26545" fill="#1757C2"/>
<circle cx="405.802" cy="262.908" r="2.26545" fill="#1757C2"/>
<circle cx="425.276" cy="262.908" r="2.26545" fill="#1757C2"/>
<circle cx="444.751" cy="262.908" r="2.26545" fill="#1757C2"/>
<circle cx="464.226" cy="262.908" r="2.26545" fill="#1757C2"/>
<circle cx="483.701" cy="262.908" r="2.26545" fill="#1757C2"/>
<circle cx="503.177" cy="282.382" r="2.26545" fill="#1757C2"/>
<circle cx="522.652" cy="282.382" r="2.26545" fill="#1757C2"/>
<circle cx="542.126" cy="282.382" r="2.26545" fill="#1757C2"/>
<circle cx="561.601" cy="282.382" r="2.26545" fill="#1757C2"/>
<circle cx="581.076" cy="282.382" r="2.26545" fill="#1757C2"/>
<circle cx="600.552" cy="282.382" r="2.26545" fill="#1757C2"/>
<circle cx="620.025" cy="282.382" r="2.26545" fill="#1757C2"/>
<circle cx="639.501" cy="282.382" r="2.26545" fill="#1757C2"/>
<circle cx="658.975" cy="282.382" r="2.26545" fill="#1757C2"/>
<circle cx="678.45" cy="282.382" r="2.26545" fill="#1757C2"/>
<circle cx="697.925" cy="282.382" r="2.26545" fill="#1757C2"/>
<circle cx="717.4" cy="282.382" r="2.26545" fill="#1757C2"/>
<circle cx="736.875" cy="282.382" r="2.26545" fill="#1757C2"/>
<circle cx="756.349" cy="282.382" r="2.26545" fill="#1757C2"/>
<circle cx="347.378" cy="282.382" r="2.26545" fill="#1757C2"/>
<circle cx="366.852" cy="282.382" r="2.26545" fill="#1757C2"/>
<circle cx="386.327" cy="282.382" r="2.26545" fill="#1757C2"/>
<circle cx="405.802" cy="282.382" r="2.26545" fill="#1757C2"/>
<circle cx="425.276" cy="282.382" r="2.26545" fill="#1757C2"/>
<circle cx="444.751" cy="282.382" r="2.26545" fill="#1757C2"/>
<circle cx="464.226" cy="282.382" r="2.26545" fill="#1757C2"/>
<circle cx="483.701" cy="282.382" r="2.26545" fill="#1757C2"/>
<circle cx="503.177" cy="301.857" r="2.26545" fill="#1757C2"/>
<circle cx="522.652" cy="301.857" r="2.26545" fill="#1757C2"/>
<circle cx="542.126" cy="301.857" r="2.26545" fill="#1757C2"/>
<circle cx="561.601" cy="301.857" r="2.26545" fill="#1757C2"/>
<circle cx="581.076" cy="301.857" r="2.26545" fill="#1757C2"/>
<circle cx="600.552" cy="301.857" r="2.26545" fill="#1757C2"/>
<circle cx="620.025" cy="301.857" r="2.26545" fill="#1757C2"/>
<circle cx="639.501" cy="301.857" r="2.26545" fill="#1757C2"/>
<circle cx="658.975" cy="301.857" r="2.26545" fill="#1757C2"/>
<circle cx="678.45" cy="301.857" r="2.26545" fill="#1757C2"/>
<circle cx="697.925" cy="301.857" r="2.26545" fill="#1757C2"/>
<circle cx="717.4" cy="301.857" r="2.26545" fill="#1757C2"/>
<circle cx="736.875" cy="301.857" r="2.26545" fill="#1757C2"/>
<circle cx="756.349" cy="301.857" r="2.26545" fill="#1757C2"/>
<circle cx="347.378" cy="301.857" r="2.26545" fill="#1757C2"/>
<circle cx="366.852" cy="301.857" r="2.26545" fill="#1757C2"/>
<circle cx="386.327" cy="301.857" r="2.26545" fill="#1757C2"/>
<circle cx="405.802" cy="301.857" r="2.26545" fill="#1757C2"/>
<circle cx="425.276" cy="301.857" r="2.26545" fill="#1757C2"/>
<circle cx="444.751" cy="301.857" r="2.26545" fill="#1757C2"/>
<circle cx="464.226" cy="301.857" r="2.26545" fill="#1757C2"/>
<circle cx="483.701" cy="301.857" r="2.26545" fill="#1757C2"/>
<circle cx="775.822" cy="204.253" r="2.26545" fill="#C0C5CB"/>
<circle cx="795.298" cy="204.253" r="2.26545" fill="#C0C5CB"/>
<circle cx="814.772" cy="204.253" r="2.26545" fill="#C0C5CB"/>
<circle cx="834.246" cy="204.253" r="2.26545" fill="#C0C5CB"/>
<circle cx="853.721" cy="204.253" r="2.26545" fill="#C0C5CB"/>
<circle cx="873.197" cy="204.253" r="2.26545" fill="#C0C5CB"/>
<circle cx="775.822" cy="223.728" r="2.26545" fill="#C0C5CB"/>
<circle cx="795.298" cy="223.728" r="2.26545" fill="#C0C5CB"/>
<circle cx="814.772" cy="223.728" r="2.26545" fill="#C0C5CB"/>
<circle cx="834.246" cy="223.728" r="2.26545" fill="#C0C5CB"/>
<circle cx="853.721" cy="223.728" r="2.26545" fill="#C0C5CB"/>
<circle cx="873.197" cy="223.728" r="2.26545" fill="#C0C5CB"/>
<circle cx="775.822" cy="243.203" r="2.26545" fill="#C0C5CB"/>
<circle cx="795.298" cy="243.203" r="2.26545" fill="#C0C5CB"/>
<circle cx="814.772" cy="243.203" r="2.26545" fill="#C0C5CB"/>
<circle cx="834.246" cy="243.203" r="2.26545" fill="#C0C5CB"/>
<circle cx="853.721" cy="243.203" r="2.26545" fill="#C0C5CB"/>
<circle cx="873.197" cy="243.203" r="2.26545" fill="#C0C5CB"/>
<circle cx="815.001" cy="165.534" r="2.26545" transform="rotate(-90 815.001 165.534)" fill="#C0C5CB"/>
<circle cx="775.822" cy="262.677" r="2.26545" fill="#C0C5CB"/>
<circle cx="795.298" cy="262.677" r="2.26545" fill="#C0C5CB"/>
<circle cx="814.772" cy="262.677" r="2.26545" fill="#C0C5CB"/>
<circle cx="834.246" cy="262.677" r="2.26545" fill="#C0C5CB"/>
<circle cx="853.721" cy="262.677" r="2.26545" fill="#C0C5CB"/>
<circle cx="873.197" cy="262.677" r="2.26545" fill="#C0C5CB"/>
<circle cx="834.476" cy="165.534" r="2.26545" transform="rotate(-90 834.476 165.534)" fill="#C0C5CB"/>
<circle cx="775.822" cy="282.152" r="2.26545" fill="#C0C5CB"/>
<circle cx="795.298" cy="282.152" r="2.26545" fill="#C0C5CB"/>
<circle cx="814.772" cy="282.152" r="2.26545" fill="#C0C5CB"/>
<circle cx="834.246" cy="282.152" r="2.26545" fill="#C0C5CB"/>
<circle cx="853.721" cy="282.152" r="2.26545" fill="#C0C5CB"/>
<circle cx="873.197" cy="282.152" r="2.26545" fill="#C0C5CB"/>
<circle cx="853.951" cy="165.534" r="2.26545" transform="rotate(-90 853.951 165.534)" fill="#C0C5CB"/>
<circle cx="775.822" cy="301.627" r="2.26545" fill="#C0C5CB"/>
<circle cx="795.298" cy="301.627" r="2.26545" fill="#C0C5CB"/>
<circle cx="814.772" cy="301.627" r="2.26545" fill="#C0C5CB"/>
<circle cx="834.246" cy="301.627" r="2.26545" fill="#C0C5CB"/>
<circle cx="853.721" cy="301.627" r="2.26545" fill="#C0C5CB"/>
<circle cx="873.197" cy="301.627" r="2.26545" fill="#C0C5CB"/>
<circle cx="873.426" cy="165.534" r="2.26545" transform="rotate(-90 873.426 165.534)" fill="#C0C5CB"/>
<circle cx="775.822" cy="223.728" r="2.26545" fill="#1757C2"/>
<circle cx="775.822" cy="204.253" r="2.26545" fill="#1757C2"/>
<circle cx="795.298" cy="223.728" r="2.26545" fill="#1757C2"/>
<circle cx="795.298" cy="204.253" r="2.26545" fill="#1757C2"/>
<circle cx="814.772" cy="223.728" r="2.26545" fill="#1757C2"/>
<circle cx="814.772" cy="204.253" r="2.26545" fill="#1757C2"/>
<circle cx="834.246" cy="223.728" r="2.26545" fill="#1757C2"/>
<circle cx="834.246" cy="204.253" r="2.26545" fill="#1757C2"/>
<circle cx="853.721" cy="223.728" r="2.26545" fill="#1757C2"/>
<circle cx="853.721" cy="204.253" r="2.26545" fill="#1757C2"/>
<circle cx="873.197" cy="223.728" r="2.26545" fill="#1757C2"/>
<circle cx="873.197" cy="204.253" r="2.26545" fill="#1757C2"/>
<circle cx="775.822" cy="243.203" r="2.26545" fill="#1757C2"/>
<circle cx="795.298" cy="243.203" r="2.26545" fill="#1757C2"/>
<circle cx="814.772" cy="243.203" r="2.26545" fill="#1757C2"/>
<circle cx="834.246" cy="243.203" r="2.26545" fill="#1757C2"/>
<circle cx="853.721" cy="243.203" r="2.26545" fill="#1757C2"/>
<circle cx="873.197" cy="243.203" r="2.26545" fill="#1757C2"/>
<circle cx="815.001" cy="165.534" r="2.26545" transform="rotate(-90 815.001 165.534)" fill="#1757C2"/>
<circle cx="775.822" cy="262.677" r="2.26545" fill="#1757C2"/>
<circle cx="795.298" cy="262.677" r="2.26545" fill="#1757C2"/>
<circle cx="814.772" cy="262.677" r="2.26545" fill="#1757C2"/>
<circle cx="834.246" cy="262.677" r="2.26545" fill="#1757C2"/>
<circle cx="853.721" cy="262.677" r="2.26545" fill="#1757C2"/>
<circle cx="873.197" cy="262.677" r="2.26545" fill="#1757C2"/>
<circle cx="834.476" cy="165.534" r="2.26545" transform="rotate(-90 834.476 165.534)" fill="#1757C2"/>
<circle cx="775.822" cy="282.152" r="2.26545" fill="#1757C2"/>
<circle cx="795.298" cy="282.152" r="2.26545" fill="#1757C2"/>
<circle cx="814.772" cy="282.152" r="2.26545" fill="#1757C2"/>
<circle cx="834.246" cy="282.152" r="2.26545" fill="#1757C2"/>
<circle cx="853.721" cy="282.152" r="2.26545" fill="#1757C2"/>
<circle cx="873.197" cy="282.152" r="2.26545" fill="#1757C2"/>
<circle cx="853.951" cy="165.534" r="2.26545" transform="rotate(-90 853.951 165.534)" fill="#1757C2"/>
<circle cx="775.822" cy="301.627" r="2.26545" fill="#1757C2"/>
<circle cx="795.298" cy="301.627" r="2.26545" fill="#1757C2"/>
<circle cx="814.772" cy="301.627" r="2.26545" fill="#1757C2"/>
<circle cx="834.246" cy="301.627" r="2.26545" fill="#1757C2"/>
<circle cx="853.721" cy="301.627" r="2.26545" fill="#1757C2"/>
<circle cx="873.197" cy="301.627" r="2.26545" fill="#1757C2"/>
<circle cx="873.426" cy="165.534" r="2.26545" transform="rotate(-90 873.426 165.534)" fill="#1757C2"/>
<circle cx="503.176" cy="87.6345" r="2.26545" transform="rotate(-90 503.176 87.6345)" fill="#C0C5CB"/>
<circle cx="522.65" cy="87.6345" r="2.26545" transform="rotate(-90 522.65 87.6345)" fill="#C0C5CB"/>
<circle cx="542.125" cy="87.6345" r="2.26545" transform="rotate(-90 542.125 87.6345)" fill="#C0C5CB"/>
<circle cx="561.6" cy="87.6345" r="2.26545" transform="rotate(-90 561.6 87.6345)" fill="#C0C5CB"/>
<circle cx="581.075" cy="87.6345" r="2.26545" transform="rotate(-90 581.075 87.6345)" fill="#C0C5CB"/>
<circle cx="600.55" cy="87.6345" r="2.26545" transform="rotate(-90 600.55 87.6345)" fill="#C0C5CB"/>
<circle cx="620.025" cy="87.6345" r="2.26545" transform="rotate(-90 620.025 87.6345)" fill="#C0C5CB"/>
<circle cx="503.176" cy="87.6345" r="2.26545" transform="rotate(-90 503.176 87.6345)" fill="#1757C2"/>
<circle cx="522.65" cy="87.6345" r="2.26545" transform="rotate(-90 522.65 87.6345)" fill="#1757C2"/>
<circle cx="542.125" cy="87.6345" r="2.26545" transform="rotate(-90 542.125 87.6345)" fill="#1757C2"/>
<circle cx="561.6" cy="87.6345" r="2.26545" transform="rotate(-90 561.6 87.6345)" fill="#1757C2"/>
<circle cx="581.075" cy="87.6345" r="2.26545" transform="rotate(-90 581.075 87.6345)" fill="#1757C2"/>
<circle cx="600.55" cy="87.6345" r="2.26545" transform="rotate(-90 600.55 87.6345)" fill="#1757C2"/>
<circle cx="620.025" cy="87.6345" r="2.26545" transform="rotate(-90 620.025 87.6345)" fill="#1757C2"/>
</svg>
