<svg width="919" height="441" viewBox="0 0 919 441" fill="none" xmlns="http://www.w3.org/2000/svg">
<rect width="918" height="439.79" transform="translate(0.147949 0.416992)" fill="white"/>
<path d="M874.148 353.947L112.231 353.947" stroke="#B1B5CF" stroke-width="1.13383"/>
<path d="M73.7424 360.125C72.7245 360.121 71.8548 359.852 71.1333 359.32C70.4118 358.787 69.8599 358.012 69.4777 356.994C69.0954 355.976 68.9043 354.75 68.9043 353.315C68.9043 351.885 69.0954 350.663 69.4777 349.65C69.8642 348.636 70.4182 347.863 71.1397 347.331C71.8656 346.798 72.7331 346.532 73.7424 346.532C74.7517 346.532 75.6171 346.8 76.3386 347.337C77.0601 347.87 77.612 348.643 77.9943 349.656C78.3808 350.666 78.5741 351.885 78.5741 353.315C78.5741 354.754 78.383 355.983 78.0007 357C77.6185 358.014 77.0666 358.789 76.3451 359.326C75.6235 359.859 74.756 360.125 73.7424 360.125ZM73.7424 358.405C74.6357 358.405 75.3336 357.969 75.8361 357.097C76.3429 356.225 76.5963 354.965 76.5963 353.315C76.5963 352.22 76.4803 351.295 76.2484 350.539C76.0208 349.779 75.6923 349.203 75.2628 348.812C74.8376 348.417 74.3308 348.22 73.7424 348.22C72.8534 348.22 72.1555 348.658 71.6487 349.534C71.1419 350.41 70.8864 351.671 70.8821 353.315C70.8821 354.415 70.9959 355.345 71.2235 356.105C71.4554 356.861 71.784 357.434 72.2092 357.825C72.6343 358.212 73.1454 358.405 73.7424 358.405Z" fill="#131520"/>
<path d="M874.148 279.627L112.23 278.819" stroke="#B1B5CF" stroke-width="1.13383"/>
<path d="M48.4289 285.533V284.09L52.8934 279.465C53.3701 278.962 53.7631 278.522 54.0723 278.144C54.3858 277.762 54.6199 277.399 54.7745 277.055C54.9291 276.712 55.0064 276.347 55.0064 275.96C55.0064 275.522 54.9034 275.144 54.6972 274.826C54.4911 274.504 54.2097 274.257 53.8533 274.085C53.4968 273.909 53.0952 273.821 52.6486 273.821C52.1761 273.821 51.7638 273.918 51.4117 274.111C51.0595 274.305 50.7889 274.577 50.5999 274.929C50.411 275.282 50.3165 275.694 50.3165 276.166H48.416C48.416 275.363 48.6007 274.661 48.9701 274.06C49.3394 273.458 49.8462 272.992 50.4904 272.662C51.1347 272.327 51.8669 272.159 52.6872 272.159C53.5161 272.159 54.2462 272.325 54.8776 272.655C55.5132 272.982 56.0093 273.428 56.3657 273.995C56.7222 274.558 56.9004 275.194 56.9004 275.902C56.9004 276.392 56.8081 276.871 56.6234 277.339C56.443 277.807 56.1274 278.329 55.6764 278.904C55.2255 279.475 54.5984 280.169 53.7953 280.985L51.1733 283.73V283.826H57.113V285.533H48.4289ZM63.9096 285.714C63.1022 285.714 62.3763 285.559 61.7321 285.25C61.0922 284.936 60.5811 284.507 60.1989 283.961C59.8166 283.416 59.6126 282.793 59.5869 282.093H61.5195C61.5668 282.66 61.818 283.126 62.2733 283.491C62.7285 283.856 63.274 284.039 63.9096 284.039C64.4164 284.039 64.8652 283.923 65.256 283.691C65.6511 283.455 65.9604 283.13 66.1837 282.718C66.4113 282.306 66.5251 281.835 66.5251 281.307C66.5251 280.77 66.4092 280.292 66.1772 279.871C65.9453 279.45 65.6254 279.119 65.2174 278.879C64.8136 278.638 64.3498 278.516 63.8258 278.511C63.4264 278.511 63.0249 278.58 62.6211 278.717C62.2174 278.855 61.891 279.035 61.6419 279.259L59.8188 278.988L60.5596 272.34H67.8136V274.047H62.2153L61.7965 277.738H61.8738C62.1315 277.489 62.473 277.281 62.8982 277.113C63.3276 276.946 63.7872 276.862 64.2768 276.862C65.0799 276.862 65.795 277.053 66.4221 277.435C67.0534 277.818 67.5494 278.34 67.9102 279.001C68.2753 279.658 68.4556 280.414 68.4514 281.269C68.4556 282.123 68.2624 282.886 67.8716 283.556C67.485 284.226 66.9482 284.754 66.261 285.14C65.5781 285.523 64.7943 285.714 63.9096 285.714ZM75.3977 285.752C74.3798 285.748 73.5101 285.48 72.7886 284.947C72.067 284.415 71.5152 283.639 71.1329 282.621C70.7507 281.604 70.5596 280.377 70.5596 278.943C70.5596 277.513 70.7507 276.291 71.1329 275.277C71.5195 274.264 72.0735 273.491 72.795 272.958C73.5208 272.426 74.3884 272.159 75.3977 272.159C76.407 272.159 77.2724 272.428 77.9939 272.965C78.7154 273.497 79.2673 274.27 79.6495 275.284C80.0361 276.293 80.2293 277.513 80.2293 278.943C80.2293 280.382 80.0382 281.61 79.656 282.628C79.2738 283.641 78.7219 284.417 78.0003 284.954C77.2788 285.486 76.4113 285.752 75.3977 285.752ZM75.3977 284.032C76.291 284.032 76.9889 283.596 77.4914 282.725C77.9982 281.853 78.2516 280.592 78.2516 278.943C78.2516 277.848 78.1356 276.922 77.9037 276.166C77.6761 275.406 77.3475 274.831 76.918 274.44C76.4929 274.045 75.9861 273.847 75.3977 273.847C74.5087 273.847 73.8107 274.285 73.304 275.161C72.7972 276.037 72.5416 277.298 72.5373 278.943C72.5373 280.042 72.6511 280.972 72.8788 281.732C73.1107 282.488 73.4392 283.062 73.8644 283.452C74.2896 283.839 74.8007 284.032 75.3977 284.032Z" fill="#131520"/>
<path d="M874.147 206.011L112.23 205.203" stroke="#B1B5CF" stroke-width="1.13383"/>
<path d="M51.0025 211.342C50.195 211.342 49.4692 211.187 48.825 210.878C48.1851 210.564 47.674 210.135 47.2917 209.589C46.9095 209.044 46.7055 208.421 46.6797 207.721H48.6124C48.6596 208.288 48.9109 208.754 49.3661 209.119C49.8214 209.484 50.3668 209.667 51.0025 209.667C51.5092 209.667 51.958 209.551 52.3489 209.319C52.744 209.083 53.0532 208.758 53.2766 208.346C53.5042 207.934 53.618 207.463 53.618 206.935C53.618 206.398 53.502 205.919 53.2701 205.499C53.0382 205.078 52.7182 204.747 52.3102 204.506C51.9065 204.266 51.4427 204.144 50.9187 204.139C50.5193 204.139 50.1177 204.208 49.714 204.345C49.3103 204.483 48.9839 204.663 48.7348 204.887L46.9116 204.616L47.6525 197.968H54.9064V199.675H49.3081L48.8894 203.366H48.9667C49.2244 203.117 49.5658 202.909 49.991 202.741C50.4205 202.574 50.8801 202.49 51.3697 202.49C52.1728 202.49 52.8879 202.681 53.5149 203.063C54.1463 203.446 54.6423 203.967 55.0031 204.629C55.3681 205.286 55.5485 206.042 55.5442 206.897C55.5485 207.751 55.3552 208.514 54.9644 209.183C54.5779 209.853 54.041 210.382 53.3539 210.768C52.671 211.151 51.8872 211.342 51.0025 211.342ZM62.4905 211.38C61.4727 211.376 60.603 211.108 59.8814 210.575C59.1599 210.042 58.608 209.267 58.2258 208.249C57.8436 207.231 57.6524 206.005 57.6524 204.571C57.6524 203.141 57.8436 201.919 58.2258 200.905C58.6123 199.892 59.1664 199.119 59.8879 198.586C60.6137 198.053 61.4813 197.787 62.4905 197.787C63.4998 197.787 64.3652 198.056 65.0868 198.592C65.8083 199.125 66.3602 199.898 66.7424 200.912C67.1289 201.921 67.3222 203.141 67.3222 204.571C67.3222 206.01 67.1311 207.238 66.7489 208.256C66.3666 209.269 65.8147 210.045 65.0932 210.581C64.3717 211.114 63.5041 211.38 62.4905 211.38ZM62.4905 209.66C63.3839 209.66 64.0818 209.224 64.5843 208.352C65.0911 207.481 65.3445 206.22 65.3445 204.571C65.3445 203.476 65.2285 202.55 64.9966 201.794C64.7689 201.034 64.4404 200.459 64.0109 200.068C63.5857 199.673 63.0789 199.475 62.4905 199.475C61.6015 199.475 60.9036 199.913 60.3968 200.789C59.89 201.665 59.6345 202.926 59.6302 204.571C59.6302 205.67 59.744 206.6 59.9716 207.36C60.2036 208.116 60.5321 208.69 60.9573 209.08C61.3825 209.467 61.8936 209.66 62.4905 209.66ZM74.2009 211.38C73.183 211.376 72.3133 211.108 71.5918 210.575C70.8703 210.042 70.3184 209.267 69.9361 208.249C69.5539 207.231 69.3628 206.005 69.3628 204.571C69.3628 203.141 69.5539 201.919 69.9361 200.905C70.3227 199.892 70.8767 199.119 71.5982 198.586C72.3241 198.053 73.1916 197.787 74.2009 197.787C75.2102 197.787 76.0756 198.056 76.7971 198.592C77.5186 199.125 78.0705 199.898 78.4528 200.912C78.8393 201.921 79.0326 203.141 79.0326 204.571C79.0326 206.01 78.8414 207.238 78.4592 208.256C78.077 209.269 77.5251 210.045 76.8036 210.581C76.082 211.114 75.2145 211.38 74.2009 211.38ZM74.2009 209.66C75.0942 209.66 75.7921 209.224 76.2946 208.352C76.8014 207.481 77.0548 206.22 77.0548 204.571C77.0548 203.476 76.9388 202.55 76.7069 201.794C76.4793 201.034 76.1507 200.459 75.7213 200.068C75.2961 199.673 74.7893 199.475 74.2009 199.475C73.3119 199.475 72.614 199.913 72.1072 200.789C71.6004 201.665 71.3448 202.926 71.3406 204.571C71.3406 205.67 71.4544 206.6 71.682 207.36C71.9139 208.116 72.2425 208.69 72.6677 209.08C73.0928 209.467 73.6039 209.66 74.2009 209.66Z" fill="#131520"/>
<path d="M874.148 131.639L112.23 130.831" stroke="#B1B5CF" stroke-width="1.13383"/>
<path d="M48.5457 136.789L54.305 125.399V125.303H47.6437V123.595H56.3665V125.361L50.6265 136.789H48.5457ZM62.7846 136.969C61.9772 136.969 61.2513 136.815 60.6071 136.506C59.9672 136.192 59.4561 135.763 59.0739 135.217C58.6916 134.672 58.4876 134.049 58.4618 133.349H60.3945C60.4418 133.916 60.693 134.382 61.1483 134.747C61.6035 135.112 62.1489 135.294 62.7846 135.294C63.2914 135.294 63.7402 135.179 64.131 134.947C64.5261 134.71 64.8354 134.386 65.0587 133.974C65.2863 133.562 65.4001 133.091 65.4001 132.563C65.4001 132.026 65.2842 131.547 65.0522 131.126C64.8203 130.705 64.5004 130.375 64.0924 130.134C63.6886 129.894 63.2248 129.771 62.7008 129.767C62.3014 129.767 61.8998 129.836 61.4961 129.973C61.0924 130.111 60.766 130.291 60.5169 130.514L58.6938 130.244L59.4346 123.595H66.6886V125.303H61.0903L60.6715 128.994H60.7488C61.0065 128.745 61.348 128.537 61.7732 128.369C62.2026 128.202 62.6622 128.118 63.1518 128.118C63.9549 128.118 64.67 128.309 65.297 128.691C65.9284 129.073 66.4244 129.595 66.7852 130.257C67.1503 130.914 67.3306 131.67 67.3263 132.524C67.3306 133.379 67.1374 134.141 66.7465 134.811C66.36 135.481 65.8232 136.01 65.136 136.396C64.4531 136.778 63.6693 136.969 62.7846 136.969ZM74.2727 137.008C73.2548 137.004 72.3851 136.735 71.6636 136.203C70.942 135.67 70.3902 134.895 70.0079 133.877C69.6257 132.859 69.4346 131.633 69.4346 130.199C69.4346 128.768 69.6257 127.547 70.0079 126.533C70.3945 125.519 70.9485 124.746 71.67 124.214C72.3958 123.681 73.2634 123.415 74.2727 123.415C75.282 123.415 76.1474 123.683 76.8689 124.22C77.5904 124.753 78.1423 125.526 78.5245 126.539C78.9111 127.549 79.1043 128.768 79.1043 130.199C79.1043 131.637 78.9132 132.866 78.531 133.884C78.1487 134.897 77.5969 135.672 76.8753 136.209C76.1538 136.742 75.2863 137.008 74.2727 137.008ZM74.2727 135.288C75.166 135.288 75.8639 134.852 76.3664 133.98C76.8732 133.108 77.1266 131.848 77.1266 130.199C77.1266 129.103 77.0106 128.178 76.7787 127.422C76.5511 126.662 76.2225 126.086 75.793 125.696C75.3679 125.3 74.8611 125.103 74.2727 125.103C73.3836 125.103 72.6857 125.541 72.179 126.417C71.6722 127.293 71.4166 128.554 71.4123 130.199C71.4123 131.298 71.5261 132.228 71.7538 132.988C71.9857 133.744 72.3142 134.317 72.7394 134.708C73.1646 135.095 73.6757 135.288 74.2727 135.288Z" fill="#131520"/>
<path d="M874.148 57.2672L112.23 56.4585" stroke="#B1B5CF" stroke-width="1.13383"/>
<path d="M50.717 49.2233V62.417H48.7199V51.2204H48.6426L45.4859 53.2819V51.375L48.7779 49.2233H50.717ZM58.8793 62.636C57.8614 62.6317 56.9917 62.3633 56.2702 61.8307C55.5487 61.2982 54.9968 60.523 54.6146 59.5051C54.2323 58.4872 54.0412 57.2611 54.0412 55.8266C54.0412 54.3964 54.2323 53.1745 54.6146 52.161C55.0011 51.1474 55.5551 50.3743 56.2767 49.8418C57.0025 49.3092 57.87 49.0429 58.8793 49.0429C59.8886 49.0429 60.754 49.3114 61.4755 49.8482C62.1971 50.3808 62.7489 51.1538 63.1312 52.1674C63.5177 53.1767 63.711 54.3964 63.711 55.8266C63.711 57.2654 63.5199 58.4937 63.1376 59.5115C62.7554 60.5251 62.2035 61.3003 61.482 61.8372C60.7604 62.3697 59.8929 62.636 58.8793 62.636ZM58.8793 60.916C59.7726 60.916 60.4705 60.48 60.973 59.6082C61.4798 58.7363 61.7332 57.4758 61.7332 55.8266C61.7332 54.7314 61.6173 53.8059 61.3853 53.05C61.1577 52.2898 60.8292 51.7143 60.3997 51.3235C59.9745 50.9284 59.4677 50.7308 58.8793 50.7308C57.9903 50.7308 57.2924 51.1689 56.7856 52.045C56.2788 52.9212 56.0233 54.1817 56.019 55.8266C56.019 56.9261 56.1328 57.8559 56.3604 58.6161C56.5923 59.372 56.9209 59.9453 57.3461 60.3362C57.7713 60.7227 58.2823 60.916 58.8793 60.916ZM70.5897 62.636C69.5718 62.6317 68.7021 62.3633 67.9806 61.8307C67.259 61.2982 66.7072 60.523 66.3249 59.5051C65.9427 58.4872 65.7516 57.2611 65.7516 55.8266C65.7516 54.3964 65.9427 53.1745 66.3249 52.161C66.7114 51.1474 67.2655 50.3743 67.987 49.8418C68.7128 49.3092 69.5804 49.0429 70.5897 49.0429C71.5989 49.0429 72.4644 49.3114 73.1859 49.8482C73.9074 50.3808 74.4593 51.1538 74.8415 52.1674C75.2281 53.1767 75.4213 54.3964 75.4213 55.8266C75.4213 57.2654 75.2302 58.4937 74.848 59.5115C74.4657 60.5251 73.9139 61.3003 73.1923 61.8372C72.4708 62.3697 71.6032 62.636 70.5897 62.636ZM70.5897 60.916C71.483 60.916 72.1809 60.48 72.6834 59.6082C73.1902 58.7363 73.4436 57.4758 73.4436 55.8266C73.4436 54.7314 73.3276 53.8059 73.0957 53.05C72.8681 52.2898 72.5395 51.7143 72.11 51.3235C71.6848 50.9284 71.1781 50.7308 70.5897 50.7308C69.7006 50.7308 69.0027 51.1689 68.4959 52.045C67.9892 52.9212 67.7336 54.1817 67.7293 55.8266C67.7293 56.9261 67.8431 57.8559 68.0708 58.6161C68.3027 59.372 68.6312 59.9453 69.0564 60.3362C69.4816 60.7227 69.9927 60.916 70.5897 60.916ZM82.3 62.636C81.2821 62.6317 80.4124 62.3633 79.6909 61.8307C78.9694 61.2982 78.4175 60.523 78.0353 59.5051C77.653 58.4872 77.4619 57.2611 77.4619 55.8266C77.4619 54.3964 77.653 53.1745 78.0353 52.161C78.4218 51.1474 78.9758 50.3743 79.6974 49.8418C80.4232 49.3092 81.2907 49.0429 82.3 49.0429C83.3093 49.0429 84.1747 49.3114 84.8962 49.8482C85.6178 50.3808 86.1696 51.1538 86.5519 52.1674C86.9384 53.1767 87.1317 54.3964 87.1317 55.8266C87.1317 57.2654 86.9406 58.4937 86.5583 59.5115C86.1761 60.5251 85.6242 61.3003 84.9027 61.8372C84.1811 62.3697 83.3136 62.636 82.3 62.636ZM82.3 60.916C83.1933 60.916 83.8912 60.48 84.3937 59.6082C84.9005 58.7363 85.1539 57.4758 85.1539 55.8266C85.1539 54.7314 85.038 53.8059 84.806 53.05C84.5784 52.2898 84.2499 51.7143 83.8204 51.3235C83.3952 50.9284 82.8884 50.7308 82.3 50.7308C81.411 50.7308 80.7131 51.1689 80.2063 52.045C79.6995 52.9212 79.444 54.1817 79.4397 55.8266C79.4397 56.9261 79.5535 57.8559 79.7811 58.6161C80.013 59.372 80.3416 59.9453 80.7668 60.3362C81.192 60.7227 81.703 60.916 82.3 60.916Z" fill="#131520"/>
<path d="M165.516 391.208L162.2 379.248H164.097L166.427 388.51H166.538L168.962 379.248H170.842L173.266 388.515H173.376L175.701 379.248H177.604L174.282 391.208H172.466L169.949 382.25H169.855L167.338 391.208H165.516ZM182.092 391.389C181.208 391.389 180.447 391.2 179.809 390.822C179.174 390.441 178.684 389.905 178.337 389.216C177.995 388.523 177.823 387.712 177.823 386.781C177.823 385.862 177.995 385.053 178.337 384.352C178.684 383.651 179.166 383.104 179.785 382.711C180.408 382.318 181.136 382.121 181.969 382.121C182.476 382.121 182.966 382.205 183.441 382.372C183.916 382.54 184.342 382.802 184.72 383.161C185.098 383.519 185.395 383.984 185.613 384.556C185.831 385.125 185.94 385.816 185.94 386.629V387.248H178.81V385.94H184.229C184.229 385.481 184.136 385.074 183.949 384.72C183.762 384.362 183.499 384.079 183.161 383.873C182.826 383.667 182.433 383.564 181.981 383.564C181.491 383.564 181.062 383.684 180.696 383.926C180.334 384.163 180.054 384.474 179.856 384.86C179.661 385.241 179.564 385.656 179.564 386.104V387.126C179.564 387.725 179.669 388.235 179.879 388.656C180.093 389.076 180.391 389.397 180.772 389.619C181.154 389.837 181.6 389.946 182.11 389.946C182.441 389.946 182.742 389.899 183.015 389.806C183.287 389.709 183.523 389.565 183.721 389.374C183.92 389.183 184.072 388.948 184.177 388.667L185.829 388.965C185.697 389.452 185.46 389.878 185.117 390.244C184.778 390.606 184.352 390.888 183.838 391.091C183.328 391.289 182.746 391.389 182.092 391.389ZM188.018 391.208V379.248H189.764V383.692H189.869C189.97 383.505 190.116 383.289 190.307 383.044C190.498 382.799 190.762 382.584 191.101 382.401C191.44 382.215 191.887 382.121 192.444 382.121C193.168 382.121 193.815 382.304 194.383 382.67C194.951 383.036 195.397 383.564 195.72 384.253C196.047 384.942 196.211 385.771 196.211 386.74C196.211 387.71 196.049 388.541 195.726 389.234C195.403 389.923 194.959 390.454 194.395 390.828C193.83 391.198 193.186 391.383 192.462 391.383C191.917 391.383 191.471 391.291 191.124 391.108C190.782 390.925 190.513 390.711 190.319 390.466C190.124 390.221 189.974 390.003 189.869 389.812H189.723V391.208H188.018ZM189.729 386.723C189.729 387.353 189.82 387.906 190.003 388.381C190.186 388.856 190.451 389.228 190.797 389.497C191.144 389.761 191.568 389.894 192.07 389.894C192.592 389.894 193.028 389.755 193.379 389.479C193.729 389.199 193.994 388.819 194.173 388.34C194.356 387.861 194.447 387.322 194.447 386.723C194.447 386.131 194.358 385.6 194.179 385.129C194.003 384.657 193.739 384.286 193.384 384.013C193.034 383.741 192.596 383.604 192.07 383.604C191.564 383.604 191.136 383.735 190.786 383.996C190.439 384.256 190.176 384.62 189.997 385.088C189.818 385.555 189.729 386.1 189.729 386.723ZM204.893 384.428L203.31 384.708C203.244 384.506 203.139 384.313 202.995 384.13C202.855 383.947 202.664 383.797 202.423 383.68C202.181 383.564 201.879 383.505 201.517 383.505C201.023 383.505 200.61 383.616 200.279 383.838C199.949 384.056 199.783 384.338 199.783 384.685C199.783 384.984 199.894 385.226 200.116 385.409C200.338 385.592 200.696 385.742 201.19 385.858L202.615 386.185C203.441 386.376 204.056 386.67 204.461 387.067C204.865 387.464 205.068 387.98 205.068 388.615C205.068 389.152 204.912 389.631 204.601 390.051C204.293 390.468 203.863 390.795 203.31 391.032C202.761 391.27 202.125 391.389 201.401 391.389C200.396 391.389 199.577 391.174 198.942 390.746C198.308 390.314 197.918 389.701 197.774 388.907L199.462 388.65C199.567 389.09 199.783 389.423 200.11 389.648C200.437 389.87 200.863 389.981 201.389 389.981C201.961 389.981 202.419 389.862 202.761 389.625C203.104 389.384 203.275 389.09 203.275 388.743C203.275 388.463 203.17 388.227 202.96 388.037C202.753 387.846 202.436 387.702 202.008 387.604L200.49 387.272C199.653 387.081 199.034 386.777 198.633 386.361C198.236 385.944 198.037 385.417 198.037 384.778C198.037 384.249 198.185 383.785 198.481 383.388C198.777 382.991 199.186 382.682 199.707 382.46C200.229 382.234 200.826 382.121 201.5 382.121C202.469 382.121 203.232 382.331 203.789 382.752C204.346 383.168 204.714 383.727 204.893 384.428ZM206.988 391.208V382.238H208.734V391.208H206.988ZM207.869 380.854C207.566 380.854 207.305 380.753 207.087 380.55C206.873 380.344 206.766 380.099 206.766 379.814C206.766 379.526 206.873 379.281 207.087 379.079C207.305 378.872 207.566 378.769 207.869 378.769C208.173 378.769 208.432 378.872 208.646 379.079C208.864 379.281 208.973 379.526 208.973 379.814C208.973 380.099 208.864 380.344 208.646 380.55C208.432 380.753 208.173 380.854 207.869 380.854ZM215.27 382.238V383.639H210.37V382.238H215.27ZM211.684 380.089H213.43V388.574C213.43 388.913 213.481 389.168 213.582 389.339C213.683 389.506 213.814 389.621 213.973 389.683C214.137 389.742 214.314 389.771 214.505 389.771C214.645 389.771 214.767 389.761 214.873 389.742C214.978 389.722 215.059 389.707 215.118 389.695L215.433 391.137C215.332 391.176 215.188 391.215 215.001 391.254C214.814 391.297 214.581 391.32 214.3 391.324C213.841 391.332 213.413 391.25 213.016 391.079C212.618 390.908 212.297 390.643 212.052 390.285C211.807 389.927 211.684 389.477 211.684 388.936V380.089ZM220.971 391.389C220.087 391.389 219.326 391.2 218.687 390.822C218.053 390.441 217.562 389.905 217.216 389.216C216.873 388.523 216.702 387.712 216.702 386.781C216.702 385.862 216.873 385.053 217.216 384.352C217.562 383.651 218.045 383.104 218.664 382.711C219.287 382.318 220.015 382.121 220.848 382.121C221.354 382.121 221.845 382.205 222.319 382.372C222.794 382.54 223.221 382.802 223.598 383.161C223.976 383.519 224.274 383.984 224.492 384.556C224.71 385.125 224.819 385.816 224.819 386.629V387.248H217.689V385.94H223.108C223.108 385.481 223.014 385.074 222.828 384.72C222.641 384.362 222.378 384.079 222.039 383.873C221.704 383.667 221.311 383.564 220.86 383.564C220.369 383.564 219.941 383.684 219.575 383.926C219.213 384.163 218.933 384.474 218.734 384.86C218.539 385.241 218.442 385.656 218.442 386.104V387.126C218.442 387.725 218.547 388.235 218.757 388.656C218.971 389.076 219.269 389.397 219.651 389.619C220.032 389.837 220.478 389.946 220.988 389.946C221.319 389.946 221.621 389.899 221.893 389.806C222.166 389.709 222.401 389.565 222.6 389.374C222.798 389.183 222.95 388.948 223.055 388.667L224.708 388.965C224.576 389.452 224.338 389.878 223.995 390.244C223.657 390.606 223.23 390.888 222.717 391.091C222.207 391.289 221.625 391.389 220.971 391.389ZM237.771 382.39C237.709 381.837 237.452 381.409 237 381.105C236.549 380.797 235.98 380.644 235.295 380.644C234.805 380.644 234.38 380.722 234.022 380.877C233.664 381.029 233.386 381.239 233.187 381.508C232.992 381.773 232.895 382.074 232.895 382.413C232.895 382.697 232.961 382.943 233.094 383.149C233.23 383.355 233.407 383.528 233.625 383.669C233.847 383.805 234.084 383.92 234.337 384.013C234.59 384.103 234.834 384.177 235.067 384.235L236.235 384.539C236.617 384.632 237.008 384.759 237.409 384.918C237.81 385.078 238.182 385.288 238.524 385.549C238.867 385.81 239.143 386.133 239.354 386.518C239.568 386.904 239.675 387.365 239.675 387.902C239.675 388.58 239.5 389.181 239.149 389.707C238.803 390.232 238.299 390.647 237.637 390.951C236.979 391.254 236.183 391.406 235.248 391.406C234.353 391.406 233.578 391.264 232.924 390.98C232.27 390.696 231.758 390.293 231.388 389.771C231.019 389.245 230.814 388.623 230.775 387.902H232.585C232.621 388.334 232.761 388.695 233.006 388.983C233.255 389.267 233.572 389.479 233.958 389.619C234.347 389.755 234.773 389.824 235.237 389.824C235.747 389.824 236.2 389.744 236.597 389.584C236.998 389.421 237.314 389.195 237.543 388.907C237.773 388.615 237.888 388.274 237.888 387.885C237.888 387.531 237.787 387.24 237.584 387.015C237.386 386.789 237.115 386.602 236.772 386.454C236.434 386.306 236.05 386.176 235.622 386.063L234.209 385.677C233.251 385.417 232.492 385.033 231.931 384.527C231.375 384.021 231.096 383.351 231.096 382.518C231.096 381.829 231.283 381.228 231.657 380.714C232.031 380.2 232.537 379.801 233.175 379.517C233.814 379.229 234.534 379.085 235.336 379.085C236.146 379.085 236.86 379.227 237.479 379.511C238.102 379.795 238.592 380.186 238.951 380.685C239.309 381.179 239.496 381.747 239.511 382.39H237.771ZM245.557 391.389C244.673 391.389 243.912 391.2 243.273 390.822C242.639 390.441 242.148 389.905 241.802 389.216C241.459 388.523 241.288 387.712 241.288 386.781C241.288 385.862 241.459 385.053 241.802 384.352C242.148 383.651 242.631 383.104 243.25 382.711C243.873 382.318 244.601 382.121 245.434 382.121C245.94 382.121 246.431 382.205 246.906 382.372C247.381 382.54 247.807 382.802 248.184 383.161C248.562 383.519 248.86 383.984 249.078 384.556C249.296 385.125 249.405 385.816 249.405 386.629V387.248H242.275V385.94H247.694C247.694 385.481 247.601 385.074 247.414 384.72C247.227 384.362 246.964 384.079 246.625 383.873C246.29 383.667 245.897 383.564 245.446 383.564C244.955 383.564 244.527 383.684 244.161 383.926C243.799 384.163 243.519 384.474 243.32 384.86C243.125 385.241 243.028 385.656 243.028 386.104V387.126C243.028 387.725 243.133 388.235 243.343 388.656C243.558 389.076 243.855 389.397 244.237 389.619C244.618 389.837 245.064 389.946 245.574 389.946C245.905 389.946 246.207 389.899 246.479 389.806C246.752 389.709 246.987 389.565 247.186 389.374C247.384 389.183 247.536 388.948 247.641 388.667L249.294 388.965C249.162 389.452 248.924 389.878 248.582 390.244C248.243 390.606 247.817 390.888 247.303 391.091C246.793 391.289 246.211 391.389 245.557 391.389ZM255.12 391.389C254.252 391.389 253.505 391.192 252.878 390.799C252.255 390.402 251.776 389.855 251.441 389.158C251.107 388.461 250.939 387.663 250.939 386.764C250.939 385.853 251.111 385.049 251.453 384.352C251.796 383.651 252.278 383.104 252.901 382.711C253.524 382.318 254.258 382.121 255.103 382.121C255.784 382.121 256.392 382.248 256.925 382.501C257.458 382.75 257.888 383.1 258.215 383.552C258.546 384.003 258.743 384.531 258.805 385.134H257.106C257.012 384.714 256.798 384.352 256.464 384.048C256.133 383.745 255.689 383.593 255.132 383.593C254.645 383.593 254.219 383.721 253.853 383.978C253.491 384.231 253.209 384.593 253.006 385.064C252.804 385.531 252.703 386.084 252.703 386.723C252.703 387.377 252.802 387.941 253.001 388.416C253.199 388.891 253.48 389.259 253.842 389.52C254.208 389.781 254.638 389.911 255.132 389.911C255.463 389.911 255.763 389.851 256.031 389.73C256.304 389.606 256.532 389.428 256.715 389.199C256.901 388.969 257.032 388.693 257.106 388.369H258.805C258.743 388.95 258.554 389.467 258.239 389.923C257.923 390.378 257.501 390.736 256.972 390.997C256.446 391.258 255.829 391.389 255.12 391.389ZM266.354 387.488V382.238H268.106V391.208H266.389V389.654H266.296C266.09 390.133 265.759 390.532 265.303 390.851C264.852 391.167 264.289 391.324 263.616 391.324C263.039 391.324 262.529 391.198 262.086 390.945C261.646 390.688 261.299 390.308 261.046 389.806C260.797 389.304 260.672 388.683 260.672 387.943V382.238H262.418V387.733C262.418 388.344 262.588 388.831 262.926 389.193C263.265 389.555 263.705 389.736 264.246 389.736C264.573 389.736 264.898 389.654 265.221 389.491C265.548 389.327 265.819 389.08 266.033 388.749C266.251 388.418 266.358 387.998 266.354 387.488ZM270.452 391.208V382.238H272.14V383.663H272.233C272.397 383.18 272.685 382.8 273.098 382.524C273.514 382.244 273.985 382.104 274.511 382.104C274.62 382.104 274.748 382.108 274.896 382.115C275.048 382.123 275.167 382.133 275.252 382.144V383.815C275.182 383.795 275.058 383.774 274.879 383.75C274.7 383.723 274.52 383.709 274.341 383.709C273.929 383.709 273.561 383.797 273.238 383.972C272.919 384.144 272.665 384.383 272.479 384.691C272.292 384.994 272.198 385.341 272.198 385.73V391.208H270.452ZM276.763 391.208V382.238H278.509V391.208H276.763ZM277.645 380.854C277.341 380.854 277.081 380.753 276.863 380.55C276.649 380.344 276.541 380.099 276.541 379.814C276.541 379.526 276.649 379.281 276.863 379.079C277.081 378.872 277.341 378.769 277.645 378.769C277.949 378.769 278.208 378.872 278.422 379.079C278.64 379.281 278.749 379.526 278.749 379.814C278.749 380.099 278.64 380.344 278.422 380.55C278.208 380.753 277.949 380.854 277.645 380.854ZM285.045 382.238V383.639H280.146V382.238H285.045ZM281.46 380.089H283.206V388.574C283.206 388.913 283.257 389.168 283.358 389.339C283.459 389.506 283.589 389.621 283.749 389.683C283.912 389.742 284.09 389.771 284.28 389.771C284.421 389.771 284.543 389.761 284.648 389.742C284.753 389.722 284.835 389.707 284.894 389.695L285.209 391.137C285.108 391.176 284.964 391.215 284.777 391.254C284.59 391.297 284.356 391.32 284.076 391.324C283.617 391.332 283.188 391.25 282.791 391.079C282.394 390.908 282.073 390.643 281.828 390.285C281.582 389.927 281.46 389.477 281.46 388.936V380.089ZM288.08 394.571C287.82 394.571 287.582 394.55 287.368 394.507C287.154 394.468 286.994 394.425 286.889 394.378L287.31 392.948C287.629 393.033 287.913 393.07 288.162 393.059C288.411 393.047 288.631 392.954 288.822 392.778C289.017 392.603 289.188 392.317 289.336 391.92L289.552 391.324L286.27 382.238H288.139L290.41 389.199H290.504L292.776 382.238H294.65L290.954 392.405C290.782 392.872 290.564 393.267 290.3 393.59C290.035 393.917 289.719 394.162 289.354 394.326C288.988 394.489 288.563 394.571 288.08 394.571Z" fill="#131520"/>
<path d="M345.2 379.248V391.208H343.542L337.463 382.436H337.352V391.208H335.547V379.248H337.217L343.302 388.031H343.413V379.248H345.2ZM351.558 391.389C350.674 391.389 349.913 391.2 349.275 390.822C348.64 390.441 348.15 389.905 347.803 389.216C347.46 388.523 347.289 387.712 347.289 386.781C347.289 385.862 347.46 385.053 347.803 384.352C348.15 383.651 348.632 383.104 349.251 382.711C349.874 382.318 350.602 382.121 351.435 382.121C351.941 382.121 352.432 382.205 352.907 382.372C353.382 382.54 353.808 382.802 354.186 383.161C354.563 383.519 354.861 383.984 355.079 384.556C355.297 385.125 355.406 385.816 355.406 386.629V387.248H348.276V385.94H353.695C353.695 385.481 353.602 385.074 353.415 384.72C353.228 384.362 352.965 384.079 352.627 383.873C352.292 383.667 351.899 383.564 351.447 383.564C350.956 383.564 350.528 383.684 350.162 383.926C349.8 384.163 349.52 384.474 349.321 384.86C349.127 385.241 349.029 385.656 349.029 386.104V387.126C349.029 387.725 349.134 388.235 349.345 388.656C349.559 389.076 349.857 389.397 350.238 389.619C350.62 389.837 351.065 389.946 351.575 389.946C351.906 389.946 352.208 389.899 352.481 389.806C352.753 389.709 352.989 389.565 353.187 389.374C353.386 389.183 353.538 388.948 353.643 388.667L355.295 388.965C355.163 389.452 354.925 389.878 354.583 390.244C354.244 390.606 353.818 390.888 353.304 391.091C352.794 391.289 352.212 391.389 351.558 391.389ZM361.53 382.238V383.639H356.631V382.238H361.53ZM357.945 380.089H359.691V388.574C359.691 388.913 359.742 389.168 359.843 389.339C359.944 389.506 360.074 389.621 360.234 389.683C360.398 389.742 360.575 389.771 360.765 389.771C360.906 389.771 361.028 389.761 361.133 389.742C361.238 389.722 361.32 389.707 361.379 389.695L361.694 391.137C361.593 391.176 361.449 391.215 361.262 391.254C361.075 391.297 360.841 391.32 360.561 391.324C360.102 391.332 359.673 391.25 359.276 391.079C358.879 390.908 358.558 390.643 358.313 390.285C358.068 389.927 357.945 389.477 357.945 388.936V380.089ZM365.406 391.208L362.767 382.238H364.571L366.329 388.825H366.417L368.18 382.238H369.985L371.737 388.796H371.824L373.57 382.238H375.375L372.741 391.208H370.96L369.138 384.731H369.004L367.182 391.208H365.406ZM380.537 391.389C379.696 391.389 378.962 391.196 378.335 390.81C377.709 390.425 377.222 389.886 376.875 389.193C376.529 388.5 376.356 387.69 376.356 386.764C376.356 385.833 376.529 385.02 376.875 384.323C377.222 383.626 377.709 383.085 378.335 382.699C378.962 382.314 379.696 382.121 380.537 382.121C381.378 382.121 382.112 382.314 382.738 382.699C383.365 383.085 383.852 383.626 384.198 384.323C384.545 385.02 384.718 385.833 384.718 386.764C384.718 387.69 384.545 388.5 384.198 389.193C383.852 389.886 383.365 390.425 382.738 390.81C382.112 391.196 381.378 391.389 380.537 391.389ZM380.543 389.923C381.088 389.923 381.539 389.779 381.897 389.491C382.256 389.203 382.52 388.819 382.692 388.34C382.867 387.861 382.954 387.334 382.954 386.758C382.954 386.185 382.867 385.66 382.692 385.181C382.52 384.698 382.256 384.311 381.897 384.019C381.539 383.727 381.088 383.581 380.543 383.581C379.994 383.581 379.538 383.727 379.176 384.019C378.818 384.311 378.551 384.698 378.376 385.181C378.205 385.66 378.119 386.185 378.119 386.758C378.119 387.334 378.205 387.861 378.376 388.34C378.551 388.819 378.818 389.203 379.176 389.491C379.538 389.779 379.994 389.923 380.543 389.923ZM386.667 391.208V382.238H388.355V383.663H388.448C388.612 383.18 388.9 382.8 389.312 382.524C389.729 382.244 390.2 382.104 390.725 382.104C390.834 382.104 390.963 382.108 391.111 382.115C391.263 382.123 391.381 382.133 391.467 382.144V383.815C391.397 383.795 391.272 383.774 391.093 383.75C390.914 383.723 390.735 383.709 390.556 383.709C390.143 383.709 389.776 383.797 389.452 383.972C389.133 384.144 388.88 384.383 388.693 384.691C388.506 384.994 388.413 385.341 388.413 385.73V391.208H386.667ZM394.584 388.165L394.572 386.034H394.876L398.45 382.238H400.54L396.464 386.559H396.19L394.584 388.165ZM392.978 391.208V379.248H394.724V391.208H392.978ZM398.642 391.208L395.431 386.945L396.634 385.724L400.786 391.208H398.642ZM413.147 382.39C413.084 381.837 412.827 381.409 412.376 381.105C411.924 380.797 411.356 380.644 410.671 380.644C410.18 380.644 409.756 380.722 409.398 380.877C409.039 381.029 408.761 381.239 408.562 381.508C408.368 381.773 408.27 382.074 408.27 382.413C408.27 382.697 408.337 382.943 408.469 383.149C408.605 383.355 408.782 383.528 409 383.669C409.222 383.805 409.46 383.92 409.713 384.013C409.966 384.103 410.209 384.177 410.443 384.235L411.611 384.539C411.992 384.632 412.383 384.759 412.784 384.918C413.185 385.078 413.557 385.288 413.9 385.549C414.242 385.81 414.519 386.133 414.729 386.518C414.943 386.904 415.05 387.365 415.05 387.902C415.05 388.58 414.875 389.181 414.525 389.707C414.178 390.232 413.674 390.647 413.012 390.951C412.354 391.254 411.558 391.406 410.624 391.406C409.728 391.406 408.954 391.264 408.3 390.98C407.646 390.696 407.134 390.293 406.764 389.771C406.394 389.245 406.19 388.623 406.151 387.902H407.961C407.996 388.334 408.136 388.695 408.381 388.983C408.631 389.267 408.948 389.479 409.333 389.619C409.723 389.755 410.149 389.824 410.612 389.824C411.122 389.824 411.576 389.744 411.973 389.584C412.374 389.421 412.689 389.195 412.919 388.907C413.148 388.615 413.263 388.274 413.263 387.885C413.263 387.531 413.162 387.24 412.96 387.015C412.761 386.789 412.491 386.602 412.148 386.454C411.809 386.306 411.426 386.176 410.998 386.063L409.584 385.677C408.627 385.417 407.868 385.033 407.307 384.527C406.75 384.021 406.472 383.351 406.472 382.518C406.472 381.829 406.659 381.228 407.032 380.714C407.406 380.2 407.912 379.801 408.551 379.517C409.189 379.229 409.909 379.085 410.711 379.085C411.521 379.085 412.236 379.227 412.855 379.511C413.477 379.795 413.968 380.186 414.326 380.685C414.684 381.179 414.871 381.747 414.887 382.39H413.147ZM420.932 391.389C420.048 391.389 419.287 391.2 418.649 390.822C418.014 390.441 417.524 389.905 417.177 389.216C416.835 388.523 416.663 387.712 416.663 386.781C416.663 385.862 416.835 385.053 417.177 384.352C417.524 383.651 418.007 383.104 418.626 382.711C419.248 382.318 419.976 382.121 420.81 382.121C421.316 382.121 421.806 382.205 422.281 382.372C422.756 382.54 423.182 382.802 423.56 383.161C423.938 383.519 424.235 383.984 424.453 384.556C424.671 385.125 424.78 385.816 424.78 386.629V387.248H417.65V385.94H423.069C423.069 385.481 422.976 385.074 422.789 384.72C422.602 384.362 422.339 384.079 422.001 383.873C421.666 383.667 421.273 383.564 420.821 383.564C420.331 383.564 419.902 383.684 419.536 383.926C419.174 384.163 418.894 384.474 418.696 384.86C418.501 385.241 418.404 385.656 418.404 386.104V387.126C418.404 387.725 418.509 388.235 418.719 388.656C418.933 389.076 419.231 389.397 419.612 389.619C419.994 389.837 420.44 389.946 420.95 389.946C421.281 389.946 421.582 389.899 421.855 389.806C422.127 389.709 422.363 389.565 422.561 389.374C422.76 389.183 422.912 388.948 423.017 388.667L424.669 388.965C424.537 389.452 424.3 389.878 423.957 390.244C423.618 390.606 423.192 390.888 422.678 391.091C422.168 391.289 421.586 391.389 420.932 391.389ZM430.496 391.389C429.628 391.389 428.88 391.192 428.254 390.799C427.631 390.402 427.152 389.855 426.817 389.158C426.482 388.461 426.315 387.663 426.315 386.764C426.315 385.853 426.486 385.049 426.829 384.352C427.171 383.651 427.654 383.104 428.277 382.711C428.9 382.318 429.634 382.121 430.478 382.121C431.16 382.121 431.767 382.248 432.3 382.501C432.834 382.75 433.264 383.1 433.591 383.552C433.922 384.003 434.118 384.531 434.181 385.134H432.481C432.388 384.714 432.174 384.352 431.839 384.048C431.508 383.745 431.064 383.593 430.508 383.593C430.021 383.593 429.595 383.721 429.229 383.978C428.867 384.231 428.584 384.593 428.382 385.064C428.18 385.531 428.078 386.084 428.078 386.723C428.078 387.377 428.178 387.941 428.376 388.416C428.575 388.891 428.855 389.259 429.217 389.52C429.583 389.781 430.013 389.911 430.508 389.911C430.838 389.911 431.138 389.851 431.407 389.73C431.679 389.606 431.907 389.428 432.09 389.199C432.277 388.969 432.407 388.693 432.481 388.369H434.181C434.118 388.95 433.93 389.467 433.614 389.923C433.299 390.378 432.877 390.736 432.347 390.997C431.821 391.258 431.204 391.389 430.496 391.389ZM441.73 387.488V382.238H443.482V391.208H441.765V389.654H441.671C441.465 390.133 441.134 390.532 440.679 390.851C440.227 391.167 439.665 391.324 438.991 391.324C438.415 391.324 437.905 391.198 437.461 390.945C437.021 390.688 436.675 390.308 436.422 389.806C436.172 389.304 436.048 388.683 436.048 387.943V382.238H437.794V387.733C437.794 388.344 437.963 388.831 438.302 389.193C438.641 389.555 439.081 389.736 439.622 389.736C439.949 389.736 440.274 389.654 440.597 389.491C440.924 389.327 441.195 389.08 441.409 388.749C441.627 388.418 441.734 387.998 441.73 387.488ZM445.828 391.208V382.238H447.515V383.663H447.609C447.772 383.18 448.06 382.8 448.473 382.524C448.89 382.244 449.361 382.104 449.886 382.104C449.995 382.104 450.124 382.108 450.272 382.115C450.423 382.123 450.542 382.133 450.628 382.144V383.815C450.558 383.795 450.433 383.774 450.254 383.75C450.075 383.723 449.896 383.709 449.717 383.709C449.304 383.709 448.936 383.797 448.613 383.972C448.294 384.144 448.041 384.383 447.854 384.691C447.667 384.994 447.574 385.341 447.574 385.73V391.208H445.828ZM452.139 391.208V382.238H453.885V391.208H452.139ZM453.021 380.854C452.717 380.854 452.456 380.753 452.238 380.55C452.024 380.344 451.917 380.099 451.917 379.814C451.917 379.526 452.024 379.281 452.238 379.079C452.456 378.872 452.717 378.769 453.021 378.769C453.324 378.769 453.583 378.872 453.797 379.079C454.015 379.281 454.124 379.526 454.124 379.814C454.124 380.099 454.015 380.344 453.797 380.55C453.583 380.753 453.324 380.854 453.021 380.854ZM460.421 382.238V383.639H455.521V382.238H460.421ZM456.835 380.089H458.581V388.574C458.581 388.913 458.632 389.168 458.733 389.339C458.834 389.506 458.965 389.621 459.124 389.683C459.288 389.742 459.465 389.771 459.656 389.771C459.796 389.771 459.919 389.761 460.024 389.742C460.129 389.722 460.211 389.707 460.269 389.695L460.584 391.137C460.483 391.176 460.339 391.215 460.152 391.254C459.965 391.297 459.732 391.32 459.451 391.324C458.992 391.332 458.564 391.25 458.167 391.079C457.77 390.908 457.449 390.643 457.203 390.285C456.958 389.927 456.835 389.477 456.835 388.936V380.089ZM463.456 394.571C463.195 394.571 462.958 394.55 462.744 394.507C462.529 394.468 462.37 394.425 462.265 394.378L462.685 392.948C463.004 393.033 463.289 393.07 463.538 393.059C463.787 393.047 464.007 392.954 464.198 392.778C464.392 392.603 464.564 392.317 464.711 391.92L464.928 391.324L461.646 382.238H463.514L465.786 389.199H465.879L468.151 382.238H470.026L466.329 392.405C466.158 392.872 465.94 393.267 465.675 393.59C465.41 393.917 465.095 394.162 464.729 394.326C464.363 394.489 463.939 394.571 463.456 394.571Z" fill="#131520"/>
<path d="M511.641 391.208V379.248H516.021C516.869 379.248 517.572 379.388 518.129 379.669C518.685 379.945 519.102 380.321 519.378 380.796C519.655 381.267 519.793 381.798 519.793 382.39C519.793 382.888 519.701 383.309 519.518 383.651C519.336 383.99 519.09 384.262 518.783 384.469C518.479 384.671 518.144 384.819 517.778 384.912V385.029C518.175 385.049 518.563 385.177 518.94 385.415C519.322 385.648 519.637 385.981 519.886 386.413C520.136 386.845 520.26 387.371 520.26 387.99C520.26 388.601 520.116 389.15 519.828 389.637C519.544 390.119 519.104 390.503 518.508 390.787C517.913 391.067 517.152 391.208 516.225 391.208H511.641ZM513.445 389.66H516.05C516.914 389.66 517.533 389.493 517.907 389.158C518.28 388.823 518.467 388.405 518.467 387.902C518.467 387.525 518.372 387.178 518.181 386.863C517.99 386.548 517.718 386.296 517.364 386.11C517.013 385.923 516.597 385.829 516.114 385.829H513.445V389.66ZM513.445 384.422H515.863C516.268 384.422 516.632 384.344 516.955 384.188C517.282 384.033 517.541 383.815 517.732 383.534C517.926 383.25 518.024 382.915 518.024 382.53C518.024 382.035 517.85 381.621 517.504 381.286C517.157 380.951 516.626 380.784 515.91 380.784H513.445V384.422ZM522.26 391.208V382.238H523.948V383.663H524.041C524.205 383.18 524.493 382.8 524.905 382.524C525.322 382.244 525.793 382.104 526.319 382.104C526.428 382.104 526.556 382.108 526.704 382.115C526.856 382.123 526.975 382.133 527.06 382.144V383.815C526.99 383.795 526.866 383.774 526.687 383.75C526.507 383.723 526.328 383.709 526.149 383.709C525.737 383.709 525.369 383.797 525.046 383.972C524.726 384.144 524.473 384.383 524.287 384.691C524.1 384.994 524.006 385.341 524.006 385.73V391.208H522.26ZM531.101 391.406C530.533 391.406 530.019 391.301 529.56 391.091C529.1 390.877 528.736 390.567 528.468 390.162C528.203 389.757 528.071 389.261 528.071 388.673C528.071 388.167 528.168 387.75 528.363 387.423C528.557 387.096 528.82 386.838 529.151 386.647C529.482 386.456 529.852 386.312 530.26 386.215C530.669 386.117 531.086 386.043 531.51 385.993C532.047 385.93 532.483 385.88 532.818 385.841C533.153 385.798 533.396 385.73 533.548 385.637C533.7 385.543 533.776 385.391 533.776 385.181V385.14C533.776 384.63 533.632 384.235 533.344 383.955C533.06 383.674 532.635 383.534 532.071 383.534C531.483 383.534 531.02 383.665 530.681 383.926C530.346 384.183 530.114 384.469 529.986 384.784L528.345 384.41C528.54 383.865 528.824 383.425 529.198 383.091C529.575 382.752 530.009 382.507 530.5 382.355C530.99 382.199 531.506 382.121 532.047 382.121C532.405 382.121 532.785 382.164 533.186 382.25C533.591 382.331 533.969 382.483 534.319 382.705C534.673 382.927 534.963 383.244 535.189 383.657C535.415 384.066 535.528 384.597 535.528 385.251V391.208H533.823V389.981H533.752C533.64 390.207 533.47 390.429 533.244 390.647C533.019 390.865 532.729 391.046 532.374 391.19C532.02 391.334 531.596 391.406 531.101 391.406ZM531.481 390.005C531.964 390.005 532.376 389.909 532.719 389.718C533.065 389.528 533.328 389.279 533.507 388.971C533.69 388.66 533.782 388.327 533.782 387.972V386.816C533.719 386.878 533.599 386.937 533.42 386.991C533.244 387.042 533.044 387.087 532.818 387.126C532.592 387.161 532.372 387.194 532.158 387.225C531.944 387.252 531.765 387.276 531.621 387.295C531.282 387.338 530.973 387.41 530.693 387.511C530.416 387.612 530.194 387.758 530.027 387.949C529.863 388.136 529.782 388.385 529.782 388.696C529.782 389.129 529.941 389.456 530.26 389.678C530.58 389.896 530.986 390.005 531.481 390.005ZM539.599 385.882V391.208H537.853V382.238H539.529V383.698H539.64C539.847 383.223 540.17 382.841 540.61 382.553C541.053 382.265 541.612 382.121 542.286 382.121C542.897 382.121 543.432 382.25 543.891 382.507C544.351 382.76 544.707 383.137 544.96 383.639C545.213 384.142 545.34 384.763 545.34 385.502V391.208H543.594V385.712C543.594 385.062 543.424 384.554 543.086 384.188C542.747 383.819 542.282 383.634 541.69 383.634C541.285 383.634 540.925 383.721 540.61 383.896C540.298 384.072 540.051 384.328 539.868 384.667C539.689 385.002 539.599 385.407 539.599 385.882ZM551.039 391.383C550.315 391.383 549.669 391.198 549.1 390.828C548.536 390.454 548.092 389.923 547.769 389.234C547.45 388.541 547.29 387.71 547.29 386.74C547.29 385.771 547.452 384.942 547.775 384.253C548.102 383.564 548.549 383.036 549.118 382.67C549.686 382.304 550.331 382.121 551.051 382.121C551.607 382.121 552.055 382.215 552.394 382.401C552.736 382.584 553.001 382.799 553.188 383.044C553.379 383.289 553.527 383.505 553.632 383.692H553.737V379.248H555.483V391.208H553.778V389.812H553.632C553.527 390.003 553.375 390.221 553.176 390.466C552.982 390.711 552.713 390.925 552.371 391.108C552.028 391.291 551.584 391.383 551.039 391.383ZM551.425 389.894C551.927 389.894 552.351 389.761 552.698 389.497C553.048 389.228 553.313 388.856 553.492 388.381C553.675 387.906 553.766 387.353 553.766 386.723C553.766 386.1 553.677 385.555 553.498 385.088C553.318 384.62 553.056 384.256 552.709 383.996C552.363 383.735 551.934 383.604 551.425 383.604C550.899 383.604 550.461 383.741 550.111 384.013C549.76 384.286 549.495 384.657 549.316 385.129C549.141 385.6 549.054 386.131 549.054 386.723C549.054 387.322 549.143 387.861 549.322 388.34C549.501 388.819 549.766 389.199 550.116 389.479C550.471 389.755 550.907 389.894 551.425 389.894ZM562.467 391.208V379.248H566.73C567.66 379.248 568.431 379.417 569.043 379.756C569.654 380.095 570.111 380.558 570.415 381.146C570.718 381.73 570.87 382.388 570.87 383.12C570.87 383.855 570.717 384.517 570.409 385.105C570.105 385.689 569.646 386.152 569.031 386.495C568.42 386.834 567.651 387.003 566.724 387.003H563.793V385.473H566.561C567.149 385.473 567.625 385.372 567.991 385.169C568.357 384.963 568.626 384.683 568.797 384.328C568.969 383.974 569.054 383.571 569.054 383.12C569.054 382.668 568.969 382.267 568.797 381.917C568.626 381.566 568.355 381.292 567.986 381.093C567.62 380.895 567.137 380.796 566.537 380.796H564.272V391.208H562.467ZM572.846 391.208V382.238H574.533V383.663H574.627C574.79 383.18 575.078 382.8 575.491 382.524C575.907 382.244 576.378 382.104 576.904 382.104C577.013 382.104 577.142 382.108 577.289 382.115C577.441 382.123 577.56 382.133 577.646 382.144V383.815C577.576 383.795 577.451 383.774 577.272 383.75C577.093 383.723 576.914 383.709 576.735 383.709C576.322 383.709 575.954 383.797 575.631 383.972C575.312 384.144 575.059 384.383 574.872 384.691C574.685 384.994 574.592 385.341 574.592 385.73V391.208H572.846ZM582.614 391.389C581.773 391.389 581.039 391.196 580.412 390.81C579.785 390.425 579.299 389.886 578.952 389.193C578.606 388.5 578.433 387.69 578.433 386.764C578.433 385.833 578.606 385.02 578.952 384.323C579.299 383.626 579.785 383.085 580.412 382.699C581.039 382.314 581.773 382.121 582.614 382.121C583.455 382.121 584.188 382.314 584.815 382.699C585.442 383.085 585.929 383.626 586.275 384.323C586.622 385.02 586.795 385.833 586.795 386.764C586.795 387.69 586.622 388.5 586.275 389.193C585.929 389.886 585.442 390.425 584.815 390.81C584.188 391.196 583.455 391.389 582.614 391.389ZM582.62 389.923C583.165 389.923 583.616 389.779 583.974 389.491C584.332 389.203 584.597 388.819 584.769 388.34C584.944 387.861 585.031 387.334 585.031 386.758C585.031 386.185 584.944 385.66 584.769 385.181C584.597 384.698 584.332 384.311 583.974 384.019C583.616 383.727 583.165 383.581 582.62 383.581C582.071 383.581 581.615 383.727 581.253 384.019C580.895 384.311 580.628 384.698 580.453 385.181C580.282 385.66 580.196 386.185 580.196 386.758C580.196 387.334 580.282 387.861 580.453 388.34C580.628 388.819 580.895 389.203 581.253 389.491C581.615 389.779 582.071 389.923 582.62 389.923ZM592.931 382.238V383.639H588.031V382.238H592.931ZM589.345 380.089H591.091V388.574C591.091 388.913 591.142 389.168 591.243 389.339C591.344 389.506 591.475 389.621 591.634 389.683C591.798 389.742 591.975 389.771 592.166 389.771C592.306 389.771 592.429 389.761 592.534 389.742C592.639 389.722 592.721 389.707 592.779 389.695L593.094 391.137C592.993 391.176 592.849 391.215 592.662 391.254C592.475 391.297 592.242 391.32 591.961 391.324C591.502 391.332 591.074 391.25 590.677 391.079C590.28 390.908 589.958 390.643 589.713 390.285C589.468 389.927 589.345 389.477 589.345 388.936V380.089ZM598.632 391.389C597.748 391.389 596.987 391.2 596.348 390.822C595.714 390.441 595.223 389.905 594.877 389.216C594.534 388.523 594.363 387.712 594.363 386.781C594.363 385.862 594.534 385.053 594.877 384.352C595.223 383.651 595.706 383.104 596.325 382.711C596.948 382.318 597.676 382.121 598.509 382.121C599.015 382.121 599.506 382.205 599.981 382.372C600.456 382.54 600.882 382.802 601.259 383.161C601.637 383.519 601.935 383.984 602.153 384.556C602.371 385.125 602.48 385.816 602.48 386.629V387.248H595.35V385.94H600.769C600.769 385.481 600.676 385.074 600.489 384.72C600.302 384.362 600.039 384.079 599.7 383.873C599.366 383.667 598.972 383.564 598.521 383.564C598.03 383.564 597.602 383.684 597.236 383.926C596.874 384.163 596.594 384.474 596.395 384.86C596.2 385.241 596.103 385.656 596.103 386.104V387.126C596.103 387.725 596.208 388.235 596.418 388.656C596.633 389.076 596.93 389.397 597.312 389.619C597.693 389.837 598.139 389.946 598.649 389.946C598.98 389.946 599.282 389.899 599.554 389.806C599.827 389.709 600.062 389.565 600.261 389.374C600.459 389.183 600.611 388.948 600.716 388.667L602.369 388.965C602.237 389.452 601.999 389.878 601.657 390.244C601.318 390.606 600.892 390.888 600.378 391.091C599.868 391.289 599.286 391.389 598.632 391.389ZM608.195 391.389C607.327 391.389 606.58 391.192 605.953 390.799C605.33 390.402 604.851 389.855 604.517 389.158C604.182 388.461 604.014 387.663 604.014 386.764C604.014 385.853 604.186 385.049 604.528 384.352C604.871 383.651 605.354 383.104 605.976 382.711C606.599 382.318 607.333 382.121 608.178 382.121C608.859 382.121 609.467 382.248 610 382.501C610.533 382.75 610.963 383.1 611.29 383.552C611.621 384.003 611.818 384.531 611.88 385.134H610.181C610.087 384.714 609.873 384.352 609.539 384.048C609.208 383.745 608.764 383.593 608.207 383.593C607.721 383.593 607.294 383.721 606.928 383.978C606.566 384.231 606.284 384.593 606.082 385.064C605.879 385.531 605.778 386.084 605.778 386.723C605.778 387.377 605.877 387.941 606.076 388.416C606.274 388.891 606.555 389.259 606.917 389.52C607.283 389.781 607.713 389.911 608.207 389.911C608.538 389.911 608.838 389.851 609.106 389.73C609.379 389.606 609.607 389.428 609.79 389.199C609.977 388.969 610.107 388.693 610.181 388.369H611.88C611.818 388.95 611.629 389.467 611.314 389.923C610.998 390.378 610.576 390.736 610.047 390.997C609.521 391.258 608.904 391.389 608.195 391.389ZM617.934 382.238V383.639H613.035V382.238H617.934ZM614.349 380.089H616.095V388.574C616.095 388.913 616.146 389.168 616.247 389.339C616.348 389.506 616.478 389.621 616.638 389.683C616.802 389.742 616.979 389.771 617.169 389.771C617.31 389.771 617.432 389.761 617.537 389.742C617.642 389.722 617.724 389.707 617.783 389.695L618.098 391.137C617.997 391.176 617.853 391.215 617.666 391.254C617.479 391.297 617.245 391.32 616.965 391.324C616.506 391.332 616.077 391.25 615.68 391.079C615.283 390.908 614.962 390.643 614.717 390.285C614.472 389.927 614.349 389.477 614.349 388.936V380.089ZM619.866 391.208V382.238H621.612V391.208H619.866ZM620.748 380.854C620.444 380.854 620.183 380.753 619.965 380.55C619.751 380.344 619.644 380.099 619.644 379.814C619.644 379.526 619.751 379.281 619.965 379.079C620.183 378.872 620.444 378.769 620.748 378.769C621.051 378.769 621.31 378.872 621.524 379.079C621.742 379.281 621.851 379.526 621.851 379.814C621.851 380.099 621.742 380.344 621.524 380.55C621.31 380.753 621.051 380.854 620.748 380.854ZM627.739 391.389C626.898 391.389 626.164 391.196 625.538 390.81C624.911 390.425 624.424 389.886 624.078 389.193C623.731 388.5 623.558 387.69 623.558 386.764C623.558 385.833 623.731 385.02 624.078 384.323C624.424 383.626 624.911 383.085 625.538 382.699C626.164 382.314 626.898 382.121 627.739 382.121C628.58 382.121 629.314 382.314 629.941 382.699C630.567 383.085 631.054 383.626 631.4 384.323C631.747 385.02 631.92 385.833 631.92 386.764C631.92 387.69 631.747 388.5 631.4 389.193C631.054 389.886 630.567 390.425 629.941 390.81C629.314 391.196 628.58 391.389 627.739 391.389ZM627.745 389.923C628.29 389.923 628.742 389.779 629.1 389.491C629.458 389.203 629.723 388.819 629.894 388.34C630.069 387.861 630.157 387.334 630.157 386.758C630.157 386.185 630.069 385.66 629.894 385.181C629.723 384.698 629.458 384.311 629.1 384.019C628.742 383.727 628.29 383.581 627.745 383.581C627.196 383.581 626.741 383.727 626.378 384.019C626.02 384.311 625.754 384.698 625.578 385.181C625.407 385.66 625.321 386.185 625.321 386.758C625.321 387.334 625.407 387.861 625.578 388.34C625.754 388.819 626.02 389.203 626.378 389.491C626.741 389.779 627.196 389.923 627.745 389.923ZM635.615 385.882V391.208H633.869V382.238H635.545V383.698H635.656C635.862 383.223 636.186 382.841 636.625 382.553C637.069 382.265 637.628 382.121 638.301 382.121C638.913 382.121 639.448 382.25 639.907 382.507C640.367 382.76 640.723 383.137 640.976 383.639C641.229 384.142 641.356 384.763 641.356 385.502V391.208H639.609V385.712C639.609 385.062 639.44 384.554 639.101 384.188C638.763 383.819 638.298 383.634 637.706 383.634C637.301 383.634 636.941 383.721 636.625 383.896C636.314 384.072 636.067 384.328 635.884 384.667C635.705 385.002 635.615 385.407 635.615 385.882Z" fill="#131520"/>
<path d="M695.562 391.208V379.248H703.06V380.801H697.366V384.445H702.668V385.993H697.366V389.654H703.13V391.208H695.562ZM705.33 391.208V382.238H707.006V383.698H707.117C707.303 383.203 707.609 382.818 708.033 382.542C708.458 382.261 708.966 382.121 709.558 382.121C710.157 382.121 710.659 382.261 711.064 382.542C711.473 382.822 711.775 383.207 711.969 383.698H712.063C712.277 383.219 712.618 382.837 713.085 382.553C713.552 382.265 714.109 382.121 714.755 382.121C715.568 382.121 716.232 382.376 716.746 382.886C717.264 383.396 717.523 384.165 717.523 385.193V391.208H715.777V385.356C715.777 384.749 715.611 384.309 715.28 384.037C714.949 383.764 714.554 383.628 714.095 383.628C713.527 383.628 713.085 383.803 712.769 384.153C712.454 384.5 712.296 384.946 712.296 385.491V391.208H710.556V385.245C710.556 384.759 710.404 384.367 710.101 384.072C709.797 383.776 709.402 383.628 708.915 383.628C708.584 383.628 708.279 383.715 707.998 383.891C707.722 384.062 707.498 384.301 707.327 384.609C707.159 384.916 707.076 385.273 707.076 385.677V391.208H705.33ZM722.473 391.406C721.905 391.406 721.391 391.301 720.932 391.091C720.472 390.877 720.108 390.567 719.84 390.162C719.575 389.757 719.443 389.261 719.443 388.673C719.443 388.167 719.54 387.75 719.735 387.423C719.929 387.096 720.192 386.838 720.523 386.647C720.854 386.456 721.224 386.312 721.632 386.215C722.041 386.117 722.458 386.043 722.882 385.993C723.419 385.93 723.855 385.88 724.19 385.841C724.525 385.798 724.768 385.73 724.92 385.637C725.072 385.543 725.148 385.391 725.148 385.181V385.14C725.148 384.63 725.004 384.235 724.716 383.955C724.431 383.674 724.007 383.534 723.443 383.534C722.855 383.534 722.392 383.665 722.053 383.926C721.718 384.183 721.486 384.469 721.358 384.784L719.717 384.41C719.912 383.865 720.196 383.425 720.57 383.091C720.947 382.752 721.381 382.507 721.872 382.355C722.362 382.199 722.878 382.121 723.419 382.121C723.777 382.121 724.157 382.164 724.558 382.25C724.963 382.331 725.341 382.483 725.691 382.705C726.045 382.927 726.335 383.244 726.561 383.657C726.787 384.066 726.9 384.597 726.9 385.251V391.208H725.195V389.981H725.124C725.012 390.207 724.842 390.429 724.616 390.647C724.391 390.865 724.101 391.046 723.746 391.19C723.392 391.334 722.968 391.406 722.473 391.406ZM722.853 390.005C723.336 390.005 723.748 389.909 724.091 389.718C724.437 389.528 724.7 389.279 724.879 388.971C725.062 388.66 725.154 388.327 725.154 387.972V386.816C725.091 386.878 724.971 386.937 724.792 386.991C724.616 387.042 724.416 387.087 724.19 387.126C723.964 387.161 723.744 387.194 723.53 387.225C723.316 387.252 723.137 387.276 722.993 387.295C722.654 387.338 722.345 387.41 722.064 387.511C721.788 387.612 721.566 387.758 721.399 387.949C721.235 388.136 721.154 388.385 721.154 388.696C721.154 389.129 721.313 389.456 721.632 389.678C721.952 389.896 722.358 390.005 722.853 390.005ZM729.225 391.208V382.238H730.971V391.208H729.225ZM730.107 380.854C729.803 380.854 729.543 380.753 729.325 380.55C729.11 380.344 729.003 380.099 729.003 379.814C729.003 379.526 729.11 379.281 729.325 379.079C729.543 378.872 729.803 378.769 730.107 378.769C730.411 378.769 730.67 378.872 730.884 379.079C731.102 379.281 731.211 379.526 731.211 379.814C731.211 380.099 731.102 380.344 730.884 380.55C730.67 380.753 730.411 380.854 730.107 380.854ZM735.066 379.248V391.208H733.32V379.248H735.066ZM748.43 382.39C748.368 381.837 748.111 381.409 747.659 381.105C747.208 380.797 746.639 380.644 745.954 380.644C745.464 380.644 745.039 380.722 744.681 380.877C744.323 381.029 744.045 381.239 743.846 381.508C743.651 381.773 743.554 382.074 743.554 382.413C743.554 382.697 743.62 382.943 743.753 383.149C743.889 383.355 744.066 383.528 744.284 383.669C744.506 383.805 744.743 383.92 744.997 384.013C745.25 384.103 745.493 384.177 745.726 384.235L746.894 384.539C747.276 384.632 747.667 384.759 748.068 384.918C748.469 385.078 748.841 385.288 749.184 385.549C749.526 385.81 749.803 386.133 750.013 386.518C750.227 386.904 750.334 387.365 750.334 387.902C750.334 388.58 750.159 389.181 749.808 389.707C749.462 390.232 748.958 390.647 748.296 390.951C747.638 391.254 746.842 391.406 745.908 391.406C745.012 391.406 744.237 391.264 743.583 390.98C742.929 390.696 742.417 390.293 742.048 389.771C741.678 389.245 741.473 388.623 741.434 387.902H743.245C743.28 388.334 743.42 388.695 743.665 388.983C743.914 389.267 744.232 389.479 744.617 389.619C745.006 389.755 745.433 389.824 745.896 389.824C746.406 389.824 746.859 389.744 747.256 389.584C747.657 389.421 747.973 389.195 748.202 388.907C748.432 388.615 748.547 388.274 748.547 387.885C748.547 387.531 748.446 387.24 748.243 387.015C748.045 386.789 747.774 386.602 747.432 386.454C747.093 386.306 746.709 386.176 746.281 386.063L744.868 385.677C743.91 385.417 743.151 385.033 742.591 384.527C742.034 384.021 741.756 383.351 741.756 382.518C741.756 381.829 741.942 381.228 742.316 380.714C742.69 380.2 743.196 379.801 743.834 379.517C744.473 379.229 745.193 379.085 745.995 379.085C746.805 379.085 747.519 379.227 748.138 379.511C748.761 379.795 749.252 380.186 749.61 380.685C749.968 381.179 750.155 381.747 750.17 382.39H748.43ZM756.216 391.389C755.332 391.389 754.571 391.2 753.933 390.822C753.298 390.441 752.807 389.905 752.461 389.216C752.118 388.523 751.947 387.712 751.947 386.781C751.947 385.862 752.118 385.053 752.461 384.352C752.807 383.651 753.29 383.104 753.909 382.711C754.532 382.318 755.26 382.121 756.093 382.121C756.599 382.121 757.09 382.205 757.565 382.372C758.04 382.54 758.466 382.802 758.844 383.161C759.221 383.519 759.519 383.984 759.737 384.556C759.955 385.125 760.064 385.816 760.064 386.629V387.248H752.934V385.94H758.353C758.353 385.481 758.26 385.074 758.073 384.72C757.886 384.362 757.623 384.079 757.284 383.873C756.95 383.667 756.556 383.564 756.105 383.564C755.614 383.564 755.186 383.684 754.82 383.926C754.458 384.163 754.178 384.474 753.979 384.86C753.785 385.241 753.687 385.656 753.687 386.104V387.126C753.687 387.725 753.792 388.235 754.003 388.656C754.217 389.076 754.515 389.397 754.896 389.619C755.278 389.837 755.723 389.946 756.233 389.946C756.564 389.946 756.866 389.899 757.138 389.806C757.411 389.709 757.647 389.565 757.845 389.374C758.044 389.183 758.195 388.948 758.301 388.667L759.953 388.965C759.821 389.452 759.583 389.878 759.241 390.244C758.902 390.606 758.476 390.888 757.962 391.091C757.452 391.289 756.87 391.389 756.216 391.389ZM765.78 391.389C764.911 391.389 764.164 391.192 763.537 390.799C762.914 390.402 762.435 389.855 762.101 389.158C761.766 388.461 761.598 387.663 761.598 386.764C761.598 385.853 761.77 385.049 762.112 384.352C762.455 383.651 762.938 383.104 763.561 382.711C764.183 382.318 764.917 382.121 765.762 382.121C766.443 382.121 767.051 382.248 767.584 382.501C768.117 382.75 768.548 383.1 768.875 383.552C769.205 384.003 769.402 384.531 769.464 385.134H767.765C767.672 384.714 767.458 384.352 767.123 384.048C766.792 383.745 766.348 383.593 765.791 383.593C765.305 383.593 764.878 383.721 764.512 383.978C764.15 384.231 763.868 384.593 763.666 385.064C763.463 385.531 763.362 386.084 763.362 386.723C763.362 387.377 763.461 387.941 763.66 388.416C763.858 388.891 764.139 389.259 764.501 389.52C764.867 389.781 765.297 389.911 765.791 389.911C766.122 389.911 766.422 389.851 766.691 389.73C766.963 389.606 767.191 389.428 767.374 389.199C767.561 388.969 767.691 388.693 767.765 388.369H769.464C769.402 388.95 769.213 389.467 768.898 389.923C768.583 390.378 768.16 390.736 767.631 390.997C767.105 391.258 766.488 391.389 765.78 391.389ZM777.014 387.488V382.238H778.765V391.208H777.049V389.654H776.955C776.749 390.133 776.418 390.532 775.962 390.851C775.511 391.167 774.948 391.324 774.275 391.324C773.699 391.324 773.189 391.198 772.745 390.945C772.305 390.688 771.958 390.308 771.705 389.806C771.456 389.304 771.332 388.683 771.332 387.943V382.238H773.078V387.733C773.078 388.344 773.247 388.831 773.586 389.193C773.924 389.555 774.364 389.736 774.905 389.736C775.232 389.736 775.558 389.654 775.881 389.491C776.208 389.327 776.478 389.08 776.692 388.749C776.91 388.418 777.017 387.998 777.014 387.488ZM781.111 391.208V382.238H782.799V383.663H782.893C783.056 383.18 783.344 382.8 783.757 382.524C784.173 382.244 784.644 382.104 785.17 382.104C785.279 382.104 785.407 382.108 785.555 382.115C785.707 382.123 785.826 382.133 785.912 382.144V383.815C785.842 383.795 785.717 383.774 785.538 383.75C785.359 383.723 785.18 383.709 785.001 383.709C784.588 383.709 784.22 383.797 783.897 383.972C783.578 384.144 783.325 384.383 783.138 384.691C782.951 384.994 782.857 385.341 782.857 385.73V391.208H781.111ZM787.423 391.208V382.238H789.169V391.208H787.423ZM788.304 380.854C788.001 380.854 787.74 380.753 787.522 380.55C787.308 380.344 787.201 380.099 787.201 379.814C787.201 379.526 787.308 379.281 787.522 379.079C787.74 378.872 788.001 378.769 788.304 378.769C788.608 378.769 788.867 378.872 789.081 379.079C789.299 379.281 789.408 379.526 789.408 379.814C789.408 380.099 789.299 380.344 789.081 380.55C788.867 380.753 788.608 380.854 788.304 380.854ZM795.705 382.238V383.639H790.805V382.238H795.705ZM792.119 380.089H793.865V388.574C793.865 388.913 793.916 389.168 794.017 389.339C794.118 389.506 794.249 389.621 794.408 389.683C794.572 389.742 794.749 389.771 794.94 389.771C795.08 389.771 795.202 389.761 795.307 389.742C795.413 389.722 795.494 389.707 795.553 389.695L795.868 391.137C795.767 391.176 795.623 391.215 795.436 391.254C795.249 391.297 795.015 391.32 794.735 391.324C794.276 391.332 793.848 391.25 793.45 391.079C793.053 390.908 792.732 390.643 792.487 390.285C792.242 389.927 792.119 389.477 792.119 388.936V380.089ZM798.74 394.571C798.479 394.571 798.241 394.55 798.027 394.507C797.813 394.468 797.654 394.425 797.548 394.378L797.969 392.948C798.288 393.033 798.572 393.07 798.821 393.059C799.071 393.047 799.291 392.954 799.481 392.778C799.676 392.603 799.847 392.317 799.995 391.92L800.211 391.324L796.929 382.238H798.798L801.07 389.199H801.163L803.435 382.238H805.309L801.613 392.405C801.441 392.872 801.223 393.267 800.959 393.59C800.694 393.917 800.379 394.162 800.013 394.326C799.647 394.489 799.222 394.571 798.74 394.571Z" fill="#131520"/>
<path d="M349.539 354.096L349.539 94.695C349.539 90.6586 352.811 87.3864 356.847 87.3864L447.174 87.3864C451.21 87.3864 454.482 90.6586 454.482 94.695L454.482 354.096L349.539 354.096Z" fill="#5D89D4"/>
<path d="M697.946 354.096L697.946 181.484C697.946 177.448 701.218 174.176 705.255 174.176L795.581 174.176C799.617 174.176 802.889 177.448 802.889 181.484L802.89 354.096L697.946 354.096Z" fill="#CAD9F1"/>
<path d="M175.336 354.096L175.336 138.948C175.336 134.912 178.608 131.64 182.645 131.64L272.971 131.64C277.008 131.64 280.28 134.912 280.28 138.948L280.28 354.096L175.336 354.096Z" fill="#8BABE1"/>
<path d="M523.743 354.096L523.742 87.3864C523.742 83.35 527.014 80.0779 531.051 80.0779L621.377 80.0779C625.413 80.0779 628.686 83.35 628.686 87.3864L628.686 354.096L523.743 354.096Z" fill="#1757C2"/>
</svg>
