<svg version="1.2" xmlns="http://www.w3.org/2000/svg" viewBox="0 0 904 288" width="904" height="288">
	<title>CSU-Signature-Stacked-357-617-ai</title>
	<style>
		.s0 { fill: #cac46d;stroke: #cac46d;stroke-width: 8.3 } 
		.s1 { fill: #004c23;stroke: #004c23;stroke-width: 3.7 } 
		.s2 { fill: #ffffff } 
		.s3 { fill: none;stroke: #ffffff;stroke-width: 1.5 } 
		.s4 { fill: #004c23 } 
	</style>
	<g id="Layer 1">
		<g id="&lt;Group&gt;">
			<g id="&lt;Group&gt;">
				<path id="&lt;Compound Path&gt;" fill-rule="evenodd" class="s0" d="m145.9 237.4c-52.2 0-94.7-42.5-94.7-94.7 0-52.2 42.5-94.7 94.7-94.7 52.2 0 94.6 42.5 94.6 94.7 0 52.2-42.4 94.7-94.6 94.7zm0-185.8c-50.2 0-91.1 40.9-91.1 91.1 0 50.2 40.9 91.1 91.1 91.1 50.2 0 91.1-40.9 91.1-91.1 0-50.2-40.9-91.1-91.1-91.1z"/>
				<path id="&lt;Path&gt;" class="s1" d="m145.9 49.8c-51.1 0-92.9 41.7-92.9 92.9 0 51.1 41.8 92.9 92.9 92.9 51.2 0 92.9-41.8 92.9-92.9 0-51.2-41.7-92.9-92.9-92.9z"/>
				<path id="&lt;Compound Path&gt;" fill-rule="evenodd" class="s2" d="m235.4 142.7c0 49.3-40.2 89.6-89.5 89.6-49.3 0-89.6-40.3-89.6-89.6 0-49.4 40.3-89.6 89.6-89.6 49.3 0 89.5 40.2 89.5 89.6zm-22.6 53.1c5.6-7.6 11.1-16.4 13.9-25.7-2.4 5.4-17.5 27.6-24.3 27.9-6.8 0.4 6.8-18.1 16.2-25.7 2.2-1.9 4.8-4.1 5.3-7.5 0.4-2.5-0.9-4.2-3.3-4.3-3.8-0.2-13.5 4.9-13.7 4.7 16.9-30.4-9-45.8 1.8-52.4 3.7-2.4 11.7 0 16 0.6-39.9-23.6-46.9 0-58.9 10.8-1.9 1.7-10.3 0-12-2-2.2-2.6-6.4-11.8-1.6-17.9 7.1-8.8 36-34.9 62.4-11.8-12.8-20.8-42.5-36-68.6-35.3-26.2-0.7-56.1 14.5-68.9 35.3 26.4-23.1 55.4 3 62.4 11.8 4.8 6.1 0.6 15.3-1.6 17.9-1.6 2-10.1 3.7-11.9 2-12.1-10.8-19-34.4-58.9-10.8 4.3-0.6 12.2-3 16-0.6 10.7 6.6-15.2 22 1.7 52.4-0.1 0.2-9.8-4.9-13.6-4.7-2.5 0.1-3.8 1.8-3.4 4.3 0.5 3.4 3.1 5.6 5.4 7.5 9.4 7.6 23 26.1 16.1 25.7-6.7-0.3-21.9-22.5-24.2-27.9 2.7 9.3 8.2 18.1 13.9 25.7 2.9 4.1 6.4 7.4 10.6 8.9 2.8 1.1 5.7 1.6 8.4 0.3 2.2-1 3.6-3.2 4-5.6 0.5-3.6-1.5-7.8-3.3-10.6-2.4-4.1-7.8-11.1-14.2-15.8-9-6.6-15.2-8.5-12.9-10 1.6-1.1 10.1 3.6 11.8 4.5 9.5 4.9 22.8 19.2 24.3 29.7 1.3 8.3-8.3 14.3-14.8 12.1 21.1 18 44.7 18.7 53 18.9h0.1c8.2-0.2 31.7-0.9 52.9-18.9-6.5 2.2-16.1-3.8-14.9-12.1 1.6-10.5 14.8-24.8 24.4-29.7 1.6-0.9 10.2-5.6 11.8-4.5 2.3 1.5-4 3.4-12.9 10-6.4 4.7-11.9 11.7-14.3 15.8-1.7 2.8-3.7 7-3.2 10.6 0.4 2.4 1.7 4.6 3.9 5.6 2.8 1.3 5.7 0.8 8.4-0.3 4.3-1.5 7.7-4.8 10.7-8.9zm-56.1-0.9c1.8 4.1-9.1 6.3-10.7 6.3-1.5 0-12.4-2.2-10.5-6.3 0 0 0.3-0.3 0.9-0.3 3.2 0.3 6.8 1.1 9.7 1 2.8 0.1 6.4-0.7 9.7-1 0.5 0 0.9 0.3 0.9 0.3zm-3.1-30.1c5 5.4 15.1 18.7 7.7 25.1-3.3 2.8-7.5 4.7-13.5 2.9-1.5-1-0.6-4 0.2-5.4 2.8-3.5 7-2.1 8.2-3.9 1.2-1.7 0.5-3.1-0.3-4-1-1.3-2.7-0.9-4.1-0.6-2.4 0.6-4.2 1.6-5.7 3.2v0.1q0 0-0.1-0.1 0 0.1 0 0.1v-0.1c-1.6-1.6-3.3-2.6-5.8-3.2-1.4-0.3-3.1-0.7-4.1 0.6-0.7 0.9-1.5 2.3-0.3 4 1.2 1.8 5.5 0.4 8.2 3.9 0.8 1.4 1.6 4.4 0.2 5.4-5.9 1.8-10.2-0.1-13.5-2.9-7.3-6.4 2.8-19.7 7.7-25.1 2.8-3 4.5-5.6 7.6-5.6q0.1 0 0.1 0c3 0 4.7 2.6 7.5 5.6zm49.6-20.2c-2.5 1.9-6.3 2-8.3 5-1.7 2.6-3 6.5-3.4 10-0.8 6.8-0.7 15.3-5.4 20.9-1-3.3 1.5-10.8 1.6-20.5 0.1-3.5 1.3-7.6 3.5-10.3-3.9-0.3-4 0.2-4.3-1.1-0.4-1.2 0.4-2.5 1.3-3.6 2.8-3.3 6.9-1.5 10.4-2.7 2.4-0.8 6-2 6.3-5.4 0.1-2.2-7-2.7-7-2.7-5.6 0.4-5 3.6-8.9 3.9-3.2 0.3-4.5-3.1-5.5-5.1-1.6-3.3-3.4-10.3 3.1-9.3 3.5 0.6 4.1 5.6 1.5 8.6 2.4-0.2 5.9-3.5 14.3-0.9 2.8 0.9 6.1 2.1 6.6 5.8 0.3 2.7-3.4 5.7-5.8 7.4zm-94-11.6c-1 2-2.4 5.4-5.6 5.1-3.9-0.3-3.2-3.5-8.9-3.9 0 0-7 0.5-6.9 2.7 0.2 3.4 3.9 4.6 6.2 5.4 3.6 1.2 7.7-0.6 10.5 2.7 0.9 1.1 1.6 2.4 1.3 3.6-0.4 1.3-0.4 0.8-4.3 1.1 2.1 2.7 3.4 6.8 3.5 10.3 0 9.7 2.5 17.2 1.6 20.5-4.8-5.6-4.6-14.1-5.4-20.9-0.4-3.5-1.8-7.4-3.5-10-1.9-3-5.8-3.1-8.2-5-2.4-1.7-6.1-4.7-5.8-7.4 0.5-3.7 3.7-4.9 6.6-5.8 8.3-2.6 11.9 0.7 14.2 0.9-2.5-3-1.9-8 1.5-8.6 6.5-1 4.7 6 3.2 9.3zm15.6 53.4c-4.8-7-8.7-14.4-10.3-18.9-2.9-6-4.1-15.6-3.9-22.1 0.5-3.1 1.2-7.1 4.1-8.7 1.7-1 4.2-1.4 6.4-0.7 3.2 0.9 4.3 3.9 6.2 6.6 1.8 2.8 4.9 4.8 7.5 5.9 1.6 3.7-1.2 12.4-3.8 16.5-1.4 3-7.6 10.3-6.2 21.4zm0.7-32.6c1.7-6.9-6.1-15.7-9.1-13-2.3 2.1-2.5 5.6 0 7.2 1.6 0.9 4.8 0.5 6.1 2.7 1.8 2.9 2.2 3.4 3 3.1zm55.6-8.4c0.3 6.5-1 16.1-3.8 22.1-1.6 4.5-5.5 11.9-10.3 18.9 1.3-11.1-4.8-18.4-6.2-21.4-2.7-4.1-5.4-12.8-3.8-16.5 2.5-1.1 5.6-3.1 7.5-5.9 1.9-2.7 2.9-5.7 6.2-6.6 2.2-0.7 4.6-0.3 6.4 0.7 2.9 1.6 3.6 5.6 4 8.7zm-5.8-4.6c-3-2.7-10.8 6.1-9 13 0.7 0.3 1.1-0.2 2.9-3.1 1.3-2.2 4.6-1.8 6.1-2.7 2.5-1.6 2.4-5.1 0-7.2z"/>
			</g>
			<g id="&lt;Group&gt;">
				<path id="&lt;Path&gt;" class="s3" d="m198.9 209.3c-21.2 18-44.7 18.7-53 18.9-8.3-0.2-31.9-0.9-53-18.9"/>
				<path id="&lt;Path&gt;" class="s3" d="m77.1 92.5c12.8-20.8 42.7-36 68.8-35.3 26.2-0.7 55.9 14.5 68.7 35.3"/>
			</g>
		</g>
		<g id="&lt;Group&gt;">
			<path id="&lt;Path&gt;" class="s4" d="m289 132.5h15c6.7 0 10.3-3.3 10.3-9.4v-7h-9.9v6.6c0 0.6-0.1 1.3-1.6 1.3h-12.7c-1.3 0-1.5-0.7-1.5-1.3v-25.7c0-0.7 0.2-1.3 1.5-1.3h12.7c1.5 0 1.6 0.7 1.6 1.3v6.6h9.9v-7c0-6.1-3.6-9.4-10.3-9.4h-15c-6.7 0-10.4 3.3-10.4 9.4v26.5c0 6.1 3.7 9.4 10.4 9.4z"/>
			<path id="&lt;Compound Path&gt;" fill-rule="evenodd" class="s4" d="m324 123.1v-26.5c0-6.1 3.6-9.4 10.3-9.4h15.9c6.7 0 10.4 3.3 10.4 9.4v26.5c0 6.1-3.7 9.4-10.4 9.4h-15.9c-6.7 0-10.3-3.3-10.3-9.4zm11.4 0.9h13.6c1.5 0 1.6-0.7 1.6-1.3v-25.7c0-0.6-0.1-1.3-1.6-1.3h-13.6c-1.3 0-1.5 0.6-1.5 1.3v25.7c0 0.6 0.2 1.3 1.5 1.3z"/>
			<path id="&lt;Path&gt;" class="s4" d="m401.4 124h-21.2v-36.8h-10v45.3h31.2z"/>
			<path id="&lt;Compound Path&gt;" fill-rule="evenodd" class="s4" d="m435.1 132.5h-15.9c-6.7 0-10.4-3.3-10.4-9.4v-26.5c0-6.1 3.7-9.4 10.4-9.4h15.9c6.7 0 10.3 3.3 10.3 9.4v26.5c0 6.1-3.6 9.4-10.3 9.4zm-1.2-36.8h-13.6c-1.3 0-1.5 0.6-1.5 1.3v25.7c0 0.6 0.2 1.3 1.5 1.3h13.6c1.4 0 1.6-0.7 1.6-1.3v-25.7c0-0.6-0.2-1.3-1.6-1.3z"/>
			<path id="&lt;Compound Path&gt;" fill-rule="evenodd" class="s4" d="m492.6 132.5h-10.9l-8.6-16.8h-8v16.8h-10v-45.3h25c6.7 0 10.4 3.3 10.4 9.4v9.7c0 4.8-2.4 8-6.8 9.1zm-27.6-25.2h14c1.3 0 1.5-0.6 1.5-1.3v-9.1c0-0.7-0.2-1.3-1.5-1.3h-14z"/>
			<path id="&lt;Compound Path&gt;" fill-rule="evenodd" class="s4" d="m509.3 132.5h-10.5l16.7-45.3h10.9l16.7 45.3h-10.9l-3.6-10.7h-15.7zm16.5-19.3l-5-14.8-5 14.8z"/>
			<path id="&lt;Compound Path&gt;" fill-rule="evenodd" class="s4" d="m586.8 96.6v26.5c0 6.1-3.7 9.4-10.4 9.4h-25.5v-45.3h25.5c6.7 0 10.4 3.3 10.4 9.4zm-26 27.4h14.5c1.3 0 1.5-0.7 1.5-1.3v-25.7c0-0.7-0.2-1.3-1.5-1.3h-14.5z"/>
			<path id="&lt;Compound Path&gt;" fill-rule="evenodd" class="s4" d="m596.3 123.1v-26.5c0-6.1 3.6-9.4 10.3-9.4h15.9c6.7 0 10.4 3.3 10.4 9.4v26.5c0 6.1-3.7 9.4-10.4 9.4h-15.9c-6.7 0-10.3-3.3-10.3-9.4zm11.5 0.9h13.5c1.4 0 1.6-0.7 1.6-1.3v-25.7c0-0.6-0.1-1.3-1.6-1.3h-13.5c-1.4 0-1.6 0.6-1.6 1.3v25.7c0 0.6 0.2 1.3 1.6 1.3z"/>
			<path id="&lt;Path&gt;" class="s4" d="m683 106.5l-12.4-2.5c-2.2-0.5-2.4-0.9-2.4-2.1v-5c0-0.7 0.1-1.4 1.6-1.4h11.6c1.3 0 1.5 0.5 1.5 1.4v5.2h9.8v-5.5c0-6.1-3.6-9.4-10.3-9.4h-13.8c-6.7 0-10.4 3.3-10.4 9.4v6.3c0 6.6 5 8.6 10.4 9.7l12.5 2.5c2.2 0.5 2.4 0.8 2.4 2v5.7c0 0.8-0.2 1.3-1.5 1.3h-12.6c-1.2 0-1.5-0.5-1.5-1.3v-5.7h-9.8v6c0 6.1 3.7 9.4 10.3 9.4h14.7c6.7 0 10.4-3.3 10.4-9.4v-7c0-6.6-5-8.5-10.5-9.6z"/>
			<path id="&lt;Path&gt;" class="s4" d="m736.7 87.2h-36.4v8.4h13.3v36.9h9.9v-36.9h13.2z"/>
			<path id="&lt;Compound Path&gt;" fill-rule="evenodd" class="s4" d="m762.9 87.2l16.8 45.3h-10.9l-3.7-10.7h-15.6l-3.7 10.7h-10.5l16.7-45.3zm-5.6 11.2l-5 14.8h9.9z"/>
			<path id="&lt;Path&gt;" class="s4" d="m778.1 95.6h13.2v36.9h10v-36.9h13.2v-8.4h-36.4z"/>
			<path id="&lt;Path&gt;" class="s4" d="m854.4 95.7v-8.5h-32.9v45.3h32.9v-8.5h-22.9v-10.4h18.8v-8.5h-18.8v-9.4z"/>
			<path id="&lt;Path&gt;" class="s4" d="m305 190.1c0 0.6-0.2 1.3-1.5 1.3h-13.3c-1.4 0-1.6-0.7-1.6-1.3v-35.5h-10v35.9c0 6.1 3.7 9.4 10.4 9.4h15.6c6.7 0 10.3-3.3 10.3-9.4v-35.9h-9.9z"/>
			<path id="&lt;Path&gt;" class="s4" d="m353.4 183.6l-18.9-29h-9.9v45.3h9.4v-29.9l19.5 29.9h9.4v-45.3h-9.5z"/>
			<path id="&lt;Path&gt;" class="s4" d="m372.6 199.9h9.9v-45.3h-9.9z"/>
			<path id="&lt;Path&gt;" class="s4" d="m411.6 187.8l-10.4-33.2h-10.8l15.7 45.3h10.7l15.8-45.3h-10.6z"/>
			<path id="&lt;Path&gt;" class="s4" d="m440.3 199.9h32.8v-8.5h-22.8v-10.4h18.8v-8.5h-18.8v-9.4h22.8v-8.5h-32.8z"/>
			<path id="&lt;Compound Path&gt;" fill-rule="evenodd" class="s4" d="m511 182.8l8.9 17.1h-10.9l-8.6-16.8h-8v16.8h-10v-45.3h25c6.7 0 10.4 3.3 10.4 9.4v9.7c0 4.8-2.4 8-6.8 9.1zm-18.6-8h13.9c1.4 0 1.5-0.6 1.5-1.3v-9.2c0-0.6-0.1-1.3-1.5-1.3h-13.9z"/>
			<path id="&lt;Path&gt;" class="s4" d="m551.8 173.9l-12.4-2.5c-2.2-0.5-2.4-0.9-2.4-2.1v-5c0-0.7 0.1-1.4 1.6-1.4h11.6c1.2 0 1.5 0.6 1.5 1.4v5.2h9.8v-5.5c0-6.1-3.7-9.4-10.3-9.4h-13.9c-6.6 0-10.3 3.3-10.3 9.4v6.4c0 6.6 5 8.5 10.4 9.6l12.5 2.5c2.2 0.5 2.4 0.8 2.4 2v5.7c0 0.8-0.3 1.3-1.5 1.3h-12.6c-1.2 0-1.5-0.5-1.5-1.3v-5.7h-9.8v6c0 6.1 3.6 9.4 10.3 9.4h14.7c6.7 0 10.4-3.3 10.4-9.4v-7c0-6.6-5.1-8.5-10.5-9.6z"/>
			<path id="&lt;Path&gt;" class="s4" d="m571.6 199.9h10v-45.3h-10z"/>
			<path id="&lt;Path&gt;" class="s4" d="m588.4 163h13.3v36.9h9.9v-36.9h13.2v-8.4h-36.4z"/>
			<path id="&lt;Path&gt;" class="s4" d="m649.8 174.3l-10.6-19.7h-10.9l16.4 29.4v15.9h10v-15.9l16.4-29.4h-10.8z"/>
		</g>
	</g>
</svg>