<svg width="208" height="58" viewBox="0 0 208 58" fill="none" xmlns="http://www.w3.org/2000/svg">
<path d="M49 29C49 42.2548 38.2548 53 25 53C11.7452 53 1 42.2548 1 29C1 15.7452 11.7452 5 25 5C38.2548 5 49 15.7452 49 29Z" fill="#F4FBF7"/>
<path fill-rule="evenodd" clip-rule="evenodd" d="M25 6C12.2975 6 2 16.2975 2 29C2 41.7025 12.2975 52 25 52C37.7025 52 48 41.7025 48 29C48 16.2975 37.7025 6 25 6ZM0 29C0 15.1929 11.1929 4 25 4C38.8071 4 50 15.1929 50 29C50 42.8071 38.8071 54 25 54C11.1929 54 0 42.8071 0 29Z" fill="#20AF5D"/>
<path d="M18.5852 39.0001H16L23.4773 18.6365H26.0227L33.5 39.0001H30.9148L24.8295 21.8581H24.6705L18.5852 39.0001ZM19.5398 31.0456H29.9602V33.2331H19.5398V31.0456Z" fill="#20AF5D"/>
<path d="M79.7955 46.4773C77.4545 46.4773 75.3864 46.0625 73.5909 45.233C71.8068 44.392 70.4148 43.2386 69.4148 41.7727C68.4148 40.2955 67.9205 38.6136 67.9318 36.7273C67.9205 35.25 68.2102 33.8864 68.8011 32.6364C69.392 31.375 70.1989 30.3239 71.2216 29.483C72.2557 28.6307 73.4091 28.0909 74.6818 27.8636V27.6591C73.0114 27.2273 71.6818 26.2898 70.6932 24.8466C69.7045 23.392 69.2159 21.7386 69.2273 19.8864C69.2159 18.1136 69.6648 16.5284 70.5739 15.1307C71.483 13.733 72.733 12.6307 74.3239 11.8239C75.9261 11.017 77.75 10.6136 79.7955 10.6136C81.8182 10.6136 83.625 11.017 85.2159 11.8239C86.8068 12.6307 88.0568 13.733 88.9659 15.1307C89.8864 16.5284 90.3523 18.1136 90.3636 19.8864C90.3523 21.7386 89.8466 23.392 88.8466 24.8466C87.858 26.2898 86.5455 27.2273 84.9091 27.6591V27.8636C86.1705 28.0909 87.3068 28.6307 88.3182 29.483C89.3295 30.3239 90.1364 31.375 90.7386 32.6364C91.3409 33.8864 91.6477 35.25 91.6591 36.7273C91.6477 38.6136 91.1364 40.2955 90.125 41.7727C89.125 43.2386 87.733 44.392 85.9489 45.233C84.1761 46.0625 82.125 46.4773 79.7955 46.4773ZM79.7955 42.7273C81.375 42.7273 82.7386 42.4716 83.8864 41.9602C85.0341 41.4489 85.9205 40.7273 86.5455 39.7955C87.1705 38.8636 87.4886 37.7727 87.5 36.5227C87.4886 35.2045 87.1477 34.0398 86.4773 33.0284C85.8068 32.017 84.892 31.2216 83.733 30.642C82.5852 30.0625 81.2727 29.7727 79.7955 29.7727C78.3068 29.7727 76.9773 30.0625 75.8068 30.642C74.6477 31.2216 73.733 32.017 73.0625 33.0284C72.4034 34.0398 72.0795 35.2045 72.0909 36.5227C72.0795 37.7727 72.3807 38.8636 72.9943 39.7955C73.6193 40.7273 74.5114 41.4489 75.6705 41.9602C76.8295 42.4716 78.2045 42.7273 79.7955 42.7273ZM79.7955 26.1591C81.0455 26.1591 82.1534 25.9091 83.1193 25.4091C84.0966 24.9091 84.8636 24.2102 85.4205 23.3125C85.9773 22.4148 86.2614 21.3636 86.2727 20.1591C86.2614 18.9773 85.983 17.9489 85.4375 17.0739C84.892 16.1875 84.1364 15.5057 83.1705 15.0284C82.2045 14.5398 81.0795 14.2955 79.7955 14.2955C78.4886 14.2955 77.3466 14.5398 76.3693 15.0284C75.392 15.5057 74.6364 16.1875 74.1023 17.0739C73.5682 17.9489 73.3068 18.9773 73.3182 20.1591C73.3068 21.3636 73.5739 22.4148 74.1193 23.3125C74.6761 24.2102 75.4432 24.9091 76.4205 25.4091C77.3977 25.9091 78.5227 26.1591 79.7955 26.1591ZM109.578 46.4773C107.01 46.4773 104.822 45.7784 103.016 44.3807C101.209 42.9716 99.8281 40.9318 98.8736 38.2614C97.919 35.5795 97.4418 32.3409 97.4418 28.5455C97.4418 24.7727 97.919 21.5511 98.8736 18.8807C99.8395 16.1989 101.226 14.1534 103.033 12.7443C104.851 11.3239 107.033 10.6136 109.578 10.6136C112.124 10.6136 114.3 11.3239 116.107 12.7443C117.925 14.1534 119.311 16.1989 120.266 18.8807C121.232 21.5511 121.714 24.7727 121.714 28.5455C121.714 32.3409 121.237 35.5795 120.283 38.2614C119.328 40.9318 117.947 42.9716 116.141 44.3807C114.334 45.7784 112.146 46.4773 109.578 46.4773ZM109.578 42.7273C112.124 42.7273 114.101 41.5 115.51 39.0455C116.919 36.5909 117.624 33.0909 117.624 28.5455C117.624 25.5227 117.3 22.9489 116.652 20.8239C116.016 18.6989 115.095 17.0795 113.891 15.9659C112.697 14.8523 111.26 14.2955 109.578 14.2955C107.055 14.2955 105.084 15.5398 103.663 18.0284C102.243 20.5057 101.533 24.0114 101.533 28.5455C101.533 31.5682 101.851 34.1364 102.487 36.25C103.124 38.3636 104.038 39.9716 105.232 41.0739C106.436 42.1761 107.885 42.7273 109.578 42.7273ZM139.374 46.4773C137.033 46.4773 134.964 46.0625 133.169 45.233C131.385 44.392 129.993 43.2386 128.993 41.7727C127.993 40.2955 127.499 38.6136 127.51 36.7273C127.499 35.25 127.788 33.8864 128.379 32.6364C128.97 31.375 129.777 30.3239 130.8 29.483C131.834 28.6307 132.987 28.0909 134.26 27.8636V27.6591C132.589 27.2273 131.26 26.2898 130.271 24.8466C129.283 23.392 128.794 21.7386 128.805 19.8864C128.794 18.1136 129.243 16.5284 130.152 15.1307C131.061 13.733 132.311 12.6307 133.902 11.8239C135.504 11.017 137.328 10.6136 139.374 10.6136C141.396 10.6136 143.203 11.017 144.794 11.8239C146.385 12.6307 147.635 13.733 148.544 15.1307C149.464 16.5284 149.93 18.1136 149.942 19.8864C149.93 21.7386 149.425 23.392 148.425 24.8466C147.436 26.2898 146.124 27.2273 144.487 27.6591V27.8636C145.749 28.0909 146.885 28.6307 147.896 29.483C148.908 30.3239 149.714 31.375 150.317 32.6364C150.919 33.8864 151.226 35.25 151.237 36.7273C151.226 38.6136 150.714 40.2955 149.703 41.7727C148.703 43.2386 147.311 44.392 145.527 45.233C143.754 46.0625 141.703 46.4773 139.374 46.4773ZM139.374 42.7273C140.953 42.7273 142.317 42.4716 143.464 41.9602C144.612 41.4489 145.499 40.7273 146.124 39.7955C146.749 38.8636 147.067 37.7727 147.078 36.5227C147.067 35.2045 146.726 34.0398 146.055 33.0284C145.385 32.017 144.47 31.2216 143.311 30.642C142.163 30.0625 140.851 29.7727 139.374 29.7727C137.885 29.7727 136.555 30.0625 135.385 30.642C134.226 31.2216 133.311 32.017 132.641 33.0284C131.982 34.0398 131.658 35.2045 131.669 36.5227C131.658 37.7727 131.959 38.8636 132.572 39.7955C133.197 40.7273 134.089 41.4489 135.249 41.9602C136.408 42.4716 137.783 42.7273 139.374 42.7273ZM139.374 26.1591C140.624 26.1591 141.732 25.9091 142.697 25.4091C143.675 24.9091 144.442 24.2102 144.999 23.3125C145.555 22.4148 145.839 21.3636 145.851 20.1591C145.839 18.9773 145.561 17.9489 145.016 17.0739C144.47 16.1875 143.714 15.5057 142.749 15.0284C141.783 14.5398 140.658 14.2955 139.374 14.2955C138.067 14.2955 136.925 14.5398 135.947 15.0284C134.97 15.5057 134.214 16.1875 133.68 17.0739C133.146 17.9489 132.885 18.9773 132.896 20.1591C132.885 21.3636 133.152 22.4148 133.697 23.3125C134.254 24.2102 135.021 24.9091 135.999 25.4091C136.976 25.9091 138.101 26.1591 139.374 26.1591Z" fill="#20AF5D"/>
<path d="M169.009 31.2955L164.79 46.9688H163.409L167.628 31.2955H169.009ZM180.001 31.7301C180.538 31.7344 181.075 31.8366 181.612 32.0369C182.149 32.2372 182.639 32.5696 183.082 33.0341C183.525 33.4943 183.881 34.1229 184.15 34.9197C184.418 35.7166 184.552 36.7159 184.552 37.9176C184.552 39.081 184.442 40.1143 184.22 41.0178C184.003 41.9169 183.687 42.6754 183.274 43.2933C182.865 43.9112 182.366 44.38 181.778 44.6996C181.194 45.0192 180.534 45.179 179.797 45.179C179.064 45.179 178.41 45.0341 177.834 44.7443C177.263 44.4503 176.795 44.0433 176.428 43.5234C176.066 42.9993 175.834 42.392 175.731 41.7017H177.291C177.432 42.3026 177.711 42.799 178.128 43.1911C178.55 43.5788 179.106 43.7727 179.797 43.7727C180.807 43.7727 181.604 43.3317 182.187 42.4496C182.775 41.5675 183.069 40.321 183.069 38.7102H182.967C182.729 39.0682 182.445 39.3771 182.117 39.6371C181.789 39.897 181.425 40.0973 181.024 40.2379C180.623 40.3786 180.197 40.4489 179.746 40.4489C178.996 40.4489 178.307 40.2635 177.681 39.8928C177.059 39.5178 176.56 39.0043 176.185 38.3523C175.814 37.696 175.629 36.946 175.629 36.1023C175.629 35.3011 175.808 34.5682 176.166 33.9034C176.528 33.2344 177.035 32.7017 177.687 32.3054C178.344 31.9091 179.115 31.7173 180.001 31.7301ZM180.001 33.1364C179.464 33.1364 178.981 33.2706 178.55 33.5391C178.124 33.8033 177.785 34.1612 177.534 34.6129C177.287 35.0604 177.163 35.5568 177.163 36.1023C177.163 36.6477 177.282 37.1442 177.521 37.5916C177.764 38.0348 178.094 38.3885 178.512 38.6527C178.934 38.9126 179.413 39.0426 179.95 39.0426C180.355 39.0426 180.732 38.9638 181.081 38.8061C181.431 38.6442 181.736 38.4247 181.996 38.1477C182.26 37.8665 182.466 37.549 182.616 37.1953C182.765 36.8374 182.839 36.4645 182.839 36.0767C182.839 35.5653 182.716 35.0859 182.469 34.6385C182.226 34.1911 181.889 33.8288 181.459 33.5518C181.032 33.2749 180.547 33.1364 180.001 33.1364ZM191.157 45.179C190.407 45.179 189.732 45.0298 189.131 44.7315C188.53 44.4332 188.048 44.0241 187.686 43.5043C187.324 42.9844 187.126 42.392 187.092 41.7273H188.626C188.685 42.3196 188.954 42.8097 189.431 43.1974C189.913 43.581 190.488 43.7727 191.157 43.7727C191.694 43.7727 192.171 43.647 192.589 43.3956C193.011 43.1442 193.341 42.799 193.58 42.3601C193.822 41.9169 193.944 41.4162 193.944 40.858C193.944 40.2869 193.818 39.7777 193.567 39.3303C193.32 38.8786 192.979 38.5227 192.544 38.2628C192.109 38.0028 191.613 37.8707 191.055 37.8665C190.654 37.8622 190.243 37.924 189.821 38.0518C189.399 38.1754 189.052 38.3352 188.779 38.5312L187.296 38.3523L188.089 31.9091H194.89V33.3153H189.418L188.958 37.1761H189.035C189.303 36.9631 189.64 36.7862 190.045 36.6456C190.45 36.505 190.871 36.4347 191.31 36.4347C192.112 36.4347 192.825 36.6264 193.452 37.0099C194.082 37.3892 194.577 37.9091 194.935 38.5696C195.297 39.2301 195.478 39.9844 195.478 40.8324C195.478 41.6676 195.29 42.4134 194.915 43.0696C194.545 43.7216 194.033 44.2372 193.381 44.6165C192.729 44.9915 191.988 45.179 191.157 45.179ZM202.287 45.179C201.324 45.179 200.504 44.9169 199.826 44.3928C199.149 43.8643 198.631 43.0994 198.273 42.098C197.915 41.0923 197.736 39.8778 197.736 38.4545C197.736 37.0398 197.915 35.8317 198.273 34.8303C198.635 33.8246 199.155 33.0575 199.833 32.5291C200.514 31.9964 201.333 31.7301 202.287 31.7301C203.242 31.7301 204.058 31.9964 204.735 32.5291C205.417 33.0575 205.937 33.8246 206.295 34.8303C206.657 35.8317 206.838 37.0398 206.838 38.4545C206.838 39.8778 206.659 41.0923 206.301 42.098C205.943 43.0994 205.426 43.8643 204.748 44.3928C204.07 44.9169 203.25 45.179 202.287 45.179ZM202.287 43.7727C203.242 43.7727 203.983 43.3125 204.512 42.392C205.04 41.4716 205.304 40.1591 205.304 38.4545C205.304 37.321 205.183 36.3558 204.94 35.5589C204.701 34.7621 204.356 34.1548 203.904 33.7372C203.457 33.3196 202.918 33.1108 202.287 33.1108C201.341 33.1108 200.602 33.5774 200.069 34.5107C199.536 35.4396 199.27 36.7543 199.27 38.4545C199.27 39.5881 199.389 40.5511 199.628 41.3438C199.867 42.1364 200.21 42.7393 200.657 43.1527C201.109 43.5661 201.652 43.7727 202.287 43.7727Z" fill="#5D6598"/>
</svg>
