<svg width="188" height="23" viewBox="0 0 188 23" fill="none" xmlns="http://www.w3.org/2000/svg">
<rect width="188" height="23" rx="11.5" fill="#E5E4ED"/>
<path d="M13.696 16H12.2983L15.4389 7.27273H16.9602L20.1009 16H18.7031L16.2358 8.85795H16.1676L13.696 16ZM13.9304 12.5824H18.4645V13.6903H13.9304V12.5824ZM23.9041 9.45455V10.4773H20.3288V9.45455H23.9041ZM21.2876 7.88636H22.5618V14.0781C22.5618 14.3253 22.5987 14.5114 22.6726 14.6364C22.7464 14.7585 22.8416 14.8423 22.9581 14.8878C23.0774 14.9304 23.2067 14.9517 23.3459 14.9517C23.4482 14.9517 23.5376 14.9446 23.6143 14.9304C23.6911 14.9162 23.7507 14.9048 23.7933 14.8963L24.0234 15.9489C23.9496 15.9773 23.8445 16.0057 23.7081 16.0341C23.5717 16.0653 23.4013 16.0824 23.1967 16.0852C22.8615 16.0909 22.549 16.0312 22.2592 15.9062C21.9695 15.7812 21.7351 15.5881 21.5561 15.3267C21.3771 15.0653 21.2876 14.7372 21.2876 14.3423V7.88636ZM28.369 9.45455V10.4773H24.7937V9.45455H28.369ZM25.7525 7.88636H27.0266V14.0781C27.0266 14.3253 27.0636 14.5114 27.1374 14.6364C27.2113 14.7585 27.3065 14.8423 27.4229 14.8878C27.5423 14.9304 27.6715 14.9517 27.8107 14.9517C27.913 14.9517 28.0025 14.9446 28.0792 14.9304C28.1559 14.9162 28.2156 14.9048 28.2582 14.8963L28.4883 15.9489C28.4144 15.9773 28.3093 16.0057 28.1729 16.0341C28.0366 16.0653 27.8661 16.0824 27.6616 16.0852C27.3263 16.0909 27.0138 16.0312 26.7241 15.9062C26.4343 15.7812 26.1999 15.5881 26.021 15.3267C25.842 15.0653 25.7525 14.7372 25.7525 14.3423V7.88636ZM31.6832 16.1449C31.2685 16.1449 30.8935 16.0682 30.5582 15.9148C30.223 15.7585 29.9574 15.5327 29.7614 15.2372C29.5682 14.9418 29.4716 14.5795 29.4716 14.1506C29.4716 13.7812 29.5426 13.4773 29.6847 13.2386C29.8267 13 30.0185 12.8111 30.2599 12.6719C30.5014 12.5327 30.7713 12.4276 31.0696 12.3565C31.3679 12.2855 31.6719 12.2315 31.9815 12.1946C32.3736 12.1491 32.6918 12.1122 32.9361 12.0838C33.1804 12.0526 33.358 12.0028 33.4688 11.9347C33.5795 11.8665 33.6349 11.7557 33.6349 11.6023V11.5724C33.6349 11.2003 33.5298 10.9119 33.3196 10.7074C33.1122 10.5028 32.8026 10.4006 32.3906 10.4006C31.9616 10.4006 31.6236 10.4957 31.3764 10.6861C31.1321 10.8736 30.9631 11.0824 30.8693 11.3125L29.6719 11.0398C29.8139 10.642 30.0213 10.321 30.294 10.0767C30.5696 9.82955 30.8864 9.65057 31.2443 9.53977C31.6023 9.42614 31.9787 9.36932 32.3736 9.36932C32.6349 9.36932 32.9119 9.40057 33.2045 9.46307C33.5 9.52273 33.7756 9.63352 34.0312 9.79545C34.2898 9.95739 34.5014 10.1889 34.6662 10.4901C34.831 10.7884 34.9134 11.1761 34.9134 11.6534V16H33.669V15.1051H33.6179C33.5355 15.2699 33.4119 15.4318 33.2472 15.5909C33.0824 15.75 32.8707 15.8821 32.6122 15.9872C32.3537 16.0923 32.044 16.1449 31.6832 16.1449ZM31.9602 15.1222C32.3125 15.1222 32.6136 15.0526 32.8636 14.9134C33.1165 14.7741 33.3082 14.5923 33.4389 14.3679C33.5724 14.1406 33.6392 13.8977 33.6392 13.6392V12.7955C33.5938 12.8409 33.5057 12.8835 33.375 12.9233C33.2472 12.9602 33.1009 12.9929 32.9361 13.0213C32.7713 13.0469 32.6108 13.071 32.4545 13.0938C32.2983 13.1136 32.1676 13.1307 32.0625 13.1449C31.8153 13.1761 31.5895 13.2287 31.3849 13.3026C31.1832 13.3764 31.0213 13.483 30.8991 13.6222C30.7798 13.7585 30.7202 13.9403 30.7202 14.1676C30.7202 14.483 30.8366 14.7216 31.0696 14.8835C31.3026 15.0426 31.5994 15.1222 31.9602 15.1222ZM39.3675 16.1321C38.734 16.1321 38.1886 15.9886 37.7312 15.7017C37.2766 15.4119 36.9272 15.0128 36.6829 14.5043C36.4386 13.9957 36.3164 13.4134 36.3164 12.7571C36.3164 12.0923 36.4414 11.5057 36.6914 10.9972C36.9414 10.4858 37.2937 10.0866 37.7482 9.79972C38.2028 9.51278 38.7383 9.36932 39.3548 9.36932C39.8519 9.36932 40.2951 9.46165 40.6843 9.64631C41.0735 9.82812 41.3874 10.0838 41.6261 10.4134C41.8675 10.7429 42.011 11.1278 42.0565 11.5682H40.8164C40.7482 11.2614 40.592 10.9972 40.3477 10.7756C40.1062 10.554 39.7823 10.4432 39.3761 10.4432C39.021 10.4432 38.7099 10.5369 38.4428 10.7244C38.1786 10.9091 37.9727 11.1733 37.8249 11.517C37.6772 11.858 37.6033 12.2614 37.6033 12.7273C37.6033 13.2045 37.6758 13.6165 37.8207 13.9631C37.9656 14.3097 38.1701 14.5781 38.4343 14.7685C38.7013 14.9588 39.0153 15.054 39.3761 15.054C39.6175 15.054 39.8363 15.0099 40.0323 14.9219C40.2312 14.831 40.3974 14.7017 40.5309 14.5341C40.6673 14.3665 40.7624 14.1648 40.8164 13.929H42.0565C42.011 14.3523 41.8732 14.7301 41.6431 15.0625C41.413 15.3949 41.1048 15.6562 40.7184 15.8466C40.3349 16.0369 39.8846 16.1321 39.3675 16.1321ZM44.5909 13.7798L44.5824 12.2244H44.804L47.4119 9.45455H48.9375L45.9631 12.608H45.7628L44.5909 13.7798ZM43.419 16V7.27273H44.6932V16H43.419ZM47.5526 16L45.2088 12.8892L46.0866 11.9986L49.1165 16H47.5526ZM58.1367 9.56534C58.0913 9.16193 57.9038 8.84943 57.5742 8.62784C57.2447 8.40341 56.8299 8.29119 56.3299 8.29119C55.9719 8.29119 55.6623 8.34801 55.4009 8.46165C55.1396 8.57244 54.9364 8.72585 54.7915 8.92188C54.6495 9.11506 54.5785 9.33523 54.5785 9.58239C54.5785 9.78977 54.6268 9.96875 54.7234 10.1193C54.8228 10.2699 54.9521 10.3963 55.1112 10.4986C55.2731 10.598 55.4464 10.6818 55.631 10.75C55.8157 10.8153 55.9933 10.8693 56.1637 10.9119L57.016 11.1335C57.2944 11.2017 57.5799 11.294 57.8725 11.4105C58.1651 11.527 58.4364 11.6804 58.6864 11.8707C58.9364 12.0611 59.1381 12.2969 59.2915 12.5781C59.4478 12.8594 59.5259 13.196 59.5259 13.5881C59.5259 14.0824 59.3981 14.5213 59.1424 14.9048C58.8896 15.2884 58.5217 15.5909 58.0387 15.8125C57.5586 16.0341 56.9776 16.1449 56.2958 16.1449C55.6424 16.1449 55.0771 16.0412 54.5998 15.8338C54.1225 15.6264 53.7489 15.3324 53.479 14.9517C53.2092 14.5682 53.06 14.1136 53.0316 13.5881H54.3526C54.3782 13.9034 54.4805 14.1662 54.6594 14.3764C54.8413 14.5838 55.0728 14.7386 55.354 14.8409C55.6381 14.9403 55.9492 14.9901 56.2873 14.9901C56.6594 14.9901 56.9904 14.9318 57.2802 14.8153C57.5728 14.696 57.8029 14.5312 57.9705 14.321C58.1381 14.108 58.2219 13.8594 58.2219 13.5753C58.2219 13.3168 58.1481 13.1051 58.0004 12.9403C57.8555 12.7756 57.658 12.6392 57.408 12.5312C57.1609 12.4233 56.881 12.3281 56.5685 12.2457L55.5373 11.9645C54.8384 11.7741 54.2844 11.4943 53.8754 11.125C53.4691 10.7557 53.266 10.267 53.266 9.65909C53.266 9.15625 53.4023 8.71733 53.6751 8.34233C53.9478 7.96733 54.3171 7.67614 54.783 7.46875C55.2489 7.25852 55.7745 7.15341 56.3597 7.15341C56.9506 7.15341 57.4719 7.2571 57.9237 7.46449C58.3782 7.67188 58.7362 7.95739 58.9975 8.32102C59.2589 8.68182 59.3952 9.09659 59.4066 9.56534H58.1367ZM65.1435 13.2855V9.45455H66.4219V16H65.169V14.8665H65.1009C64.9503 15.2159 64.7088 15.5071 64.3764 15.7401C64.0469 15.9702 63.6364 16.0852 63.1449 16.0852C62.7244 16.0852 62.3523 15.9929 62.0284 15.8082C61.7074 15.6207 61.4545 15.3438 61.2699 14.9773C61.0881 14.6108 60.9972 14.1577 60.9972 13.6179V9.45455H62.2713V13.4645C62.2713 13.9105 62.3949 14.2656 62.642 14.5298C62.8892 14.794 63.2102 14.9261 63.6051 14.9261C63.8438 14.9261 64.081 14.8665 64.3168 14.7472C64.5554 14.6278 64.7528 14.4474 64.9091 14.206C65.0682 13.9645 65.1463 13.6577 65.1435 13.2855ZM68.1339 16V9.45455H69.3654V10.4943H69.4336C69.5529 10.142 69.7631 9.86506 70.0643 9.66335C70.3683 9.45881 70.712 9.35653 71.0955 9.35653C71.1751 9.35653 71.2688 9.35937 71.3768 9.36506C71.4876 9.37074 71.5742 9.37784 71.6367 9.38636V10.6051C71.5856 10.5909 71.4947 10.5753 71.364 10.5582C71.2333 10.5384 71.1026 10.5284 70.9719 10.5284C70.6708 10.5284 70.4023 10.5923 70.1665 10.7202C69.9336 10.8452 69.7489 11.0199 69.6126 11.2443C69.4762 11.4659 69.408 11.7187 69.408 12.0028V16H68.1339ZM76.2411 9.45455V10.4773H72.5423V9.45455H76.2411ZM73.5565 16V8.69602C73.5565 8.28693 73.646 7.94744 73.8249 7.67756C74.0039 7.40483 74.2411 7.2017 74.5366 7.06818C74.832 6.93182 75.1531 6.86364 75.4996 6.86364C75.7553 6.86364 75.9741 6.88494 76.1559 6.92756C76.3377 6.96733 76.4727 7.00426 76.5607 7.03835L76.2624 8.0696C76.2028 8.05256 76.1261 8.03267 76.0323 8.00994C75.9386 7.98437 75.8249 7.97159 75.6914 7.97159C75.3817 7.97159 75.1602 8.0483 75.0266 8.2017C74.896 8.35511 74.8306 8.5767 74.8306 8.86648V16H73.5565ZM79.2614 16.1449C78.8466 16.1449 78.4716 16.0682 78.1364 15.9148C77.8011 15.7585 77.5355 15.5327 77.3395 15.2372C77.1463 14.9418 77.0497 14.5795 77.0497 14.1506C77.0497 13.7812 77.1207 13.4773 77.2628 13.2386C77.4048 13 77.5966 12.8111 77.8381 12.6719C78.0795 12.5327 78.3494 12.4276 78.6477 12.3565C78.946 12.2855 79.25 12.2315 79.5597 12.1946C79.9517 12.1491 80.2699 12.1122 80.5142 12.0838C80.7585 12.0526 80.9361 12.0028 81.0469 11.9347C81.1577 11.8665 81.2131 11.7557 81.2131 11.6023V11.5724C81.2131 11.2003 81.108 10.9119 80.8977 10.7074C80.6903 10.5028 80.3807 10.4006 79.9688 10.4006C79.5398 10.4006 79.2017 10.4957 78.9545 10.6861C78.7102 10.8736 78.5412 11.0824 78.4474 11.3125L77.25 11.0398C77.392 10.642 77.5994 10.321 77.8722 10.0767C78.1477 9.82955 78.4645 9.65057 78.8224 9.53977C79.1804 9.42614 79.5568 9.36932 79.9517 9.36932C80.2131 9.36932 80.4901 9.40057 80.7827 9.46307C81.0781 9.52273 81.3537 9.63352 81.6094 9.79545C81.8679 9.95739 82.0795 10.1889 82.2443 10.4901C82.4091 10.7884 82.4915 11.1761 82.4915 11.6534V16H81.2472V15.1051H81.196C81.1136 15.2699 80.9901 15.4318 80.8253 15.5909C80.6605 15.75 80.4489 15.8821 80.1903 15.9872C79.9318 16.0923 79.6222 16.1449 79.2614 16.1449ZM79.5384 15.1222C79.8906 15.1222 80.1918 15.0526 80.4418 14.9134C80.6946 14.7741 80.8864 14.5923 81.017 14.3679C81.1506 14.1406 81.2173 13.8977 81.2173 13.6392V12.7955C81.1719 12.8409 81.0838 12.8835 80.9531 12.9233C80.8253 12.9602 80.679 12.9929 80.5142 13.0213C80.3494 13.0469 80.1889 13.071 80.0327 13.0938C79.8764 13.1136 79.7457 13.1307 79.6406 13.1449C79.3935 13.1761 79.1676 13.2287 78.9631 13.3026C78.7614 13.3764 78.5994 13.483 78.4773 13.6222C78.358 13.7585 78.2983 13.9403 78.2983 14.1676C78.2983 14.483 78.4148 14.7216 78.6477 14.8835C78.8807 15.0426 79.1776 15.1222 79.5384 15.1222ZM86.9457 16.1321C86.3121 16.1321 85.7667 15.9886 85.3093 15.7017C84.8548 15.4119 84.5053 15.0128 84.261 14.5043C84.0167 13.9957 83.8945 13.4134 83.8945 12.7571C83.8945 12.0923 84.0195 11.5057 84.2695 10.9972C84.5195 10.4858 84.8718 10.0866 85.3263 9.79972C85.7809 9.51278 86.3164 9.36932 86.9329 9.36932C87.43 9.36932 87.8732 9.46165 88.2624 9.64631C88.6516 9.82812 88.9656 10.0838 89.2042 10.4134C89.4457 10.7429 89.5891 11.1278 89.6346 11.5682H88.3945C88.3263 11.2614 88.1701 10.9972 87.9258 10.7756C87.6843 10.554 87.3604 10.4432 86.9542 10.4432C86.5991 10.4432 86.288 10.5369 86.021 10.7244C85.7567 10.9091 85.5508 11.1733 85.4031 11.517C85.2553 11.858 85.1815 12.2614 85.1815 12.7273C85.1815 13.2045 85.2539 13.6165 85.3988 13.9631C85.5437 14.3097 85.7482 14.5781 86.0124 14.7685C86.2795 14.9588 86.5934 15.054 86.9542 15.054C87.1957 15.054 87.4144 15.0099 87.6104 14.9219C87.8093 14.831 87.9755 14.7017 88.109 14.5341C88.2454 14.3665 88.3406 14.1648 88.3945 13.929H89.6346C89.5891 14.3523 89.4513 14.7301 89.2212 15.0625C88.9911 15.3949 88.6829 15.6562 88.2965 15.8466C87.913 16.0369 87.4627 16.1321 86.9457 16.1321ZM93.8182 16.1321C93.1733 16.1321 92.6179 15.9943 92.152 15.7188C91.6889 15.4403 91.331 15.0497 91.0781 14.5469C90.8281 14.0412 90.7031 13.4489 90.7031 12.7699C90.7031 12.0994 90.8281 11.5085 91.0781 10.9972C91.331 10.4858 91.6832 10.0866 92.1349 9.79972C92.5895 9.51278 93.1207 9.36932 93.7287 9.36932C94.098 9.36932 94.456 9.4304 94.8026 9.55256C95.1491 9.67472 95.4602 9.86648 95.7358 10.1278C96.0114 10.3892 96.2287 10.7287 96.3878 11.1463C96.5469 11.5611 96.6264 12.0653 96.6264 12.6591V13.1108H91.4233V12.1562H95.3778C95.3778 11.821 95.3097 11.5241 95.1733 11.2656C95.0369 11.0043 94.8452 10.7983 94.598 10.6477C94.3537 10.4972 94.0668 10.4219 93.7372 10.4219C93.3793 10.4219 93.0668 10.5099 92.7997 10.6861C92.5355 10.8594 92.331 11.0866 92.1861 11.3679C92.044 11.6463 91.973 11.9489 91.973 12.2756V13.0213C91.973 13.4588 92.0497 13.831 92.2031 14.1378C92.3594 14.4446 92.5767 14.679 92.8551 14.8409C93.1335 15 93.4588 15.0795 93.831 15.0795C94.0724 15.0795 94.2926 15.0455 94.4915 14.9773C94.6903 14.9062 94.8622 14.8011 95.0071 14.6619C95.152 14.5227 95.2628 14.3509 95.3395 14.1463L96.5455 14.3636C96.4489 14.7187 96.2756 15.0298 96.0256 15.2969C95.7784 15.5611 95.4673 15.767 95.0923 15.9148C94.7202 16.0597 94.2955 16.1321 93.8182 16.1321ZM101.318 7.27273H102.916L105.695 14.0568H105.797L108.575 7.27273H110.173V16H108.92V9.68466H108.839L106.266 15.9872H105.226L102.652 9.6804H102.571V16H101.318V7.27273ZM113.89 16.1449C113.475 16.1449 113.1 16.0682 112.765 15.9148C112.43 15.7585 112.164 15.5327 111.968 15.2372C111.775 14.9418 111.679 14.5795 111.679 14.1506C111.679 13.7812 111.75 13.4773 111.892 13.2386C112.034 13 112.225 12.8111 112.467 12.6719C112.708 12.5327 112.978 12.4276 113.277 12.3565C113.575 12.2855 113.879 12.2315 114.189 12.1946C114.581 12.1491 114.899 12.1122 115.143 12.0838C115.387 12.0526 115.565 12.0028 115.676 11.9347C115.787 11.8665 115.842 11.7557 115.842 11.6023V11.5724C115.842 11.2003 115.737 10.9119 115.527 10.7074C115.319 10.5028 115.01 10.4006 114.598 10.4006C114.169 10.4006 113.831 10.4957 113.583 10.6861C113.339 10.8736 113.17 11.0824 113.076 11.3125L111.879 11.0398C112.021 10.642 112.228 10.321 112.501 10.0767C112.777 9.82955 113.093 9.65057 113.451 9.53977C113.809 9.42614 114.186 9.36932 114.581 9.36932C114.842 9.36932 115.119 9.40057 115.412 9.46307C115.707 9.52273 115.983 9.63352 116.238 9.79545C116.497 9.95739 116.708 10.1889 116.873 10.4901C117.038 10.7884 117.12 11.1761 117.12 11.6534V16H115.876V15.1051H115.825C115.743 15.2699 115.619 15.4318 115.454 15.5909C115.289 15.75 115.078 15.8821 114.819 15.9872C114.561 16.0923 114.251 16.1449 113.89 16.1449ZM114.167 15.1222C114.52 15.1222 114.821 15.0526 115.071 14.9134C115.324 14.7741 115.515 14.5923 115.646 14.3679C115.779 14.1406 115.846 13.8977 115.846 13.6392V12.7955C115.801 12.8409 115.713 12.8835 115.582 12.9233C115.454 12.9602 115.308 12.9929 115.143 13.0213C114.978 13.0469 114.818 13.071 114.662 13.0938C114.505 13.1136 114.375 13.1307 114.27 13.1449C114.022 13.1761 113.797 13.2287 113.592 13.3026C113.39 13.3764 113.228 13.483 113.106 13.6222C112.987 13.7585 112.927 13.9403 112.927 14.1676C112.927 14.483 113.044 14.7216 113.277 14.8835C113.51 15.0426 113.806 15.1222 114.167 15.1222ZM120.092 12.1136V16H118.817V9.45455H120.04V10.5199H120.121C120.272 10.1733 120.508 9.89489 120.829 9.68466C121.153 9.47443 121.56 9.36932 122.052 9.36932C122.498 9.36932 122.888 9.46307 123.224 9.65057C123.559 9.83523 123.819 10.1108 124.004 10.4773C124.188 10.8437 124.281 11.2969 124.281 11.8366V16H123.006V11.9901C123.006 11.5156 122.883 11.1449 122.636 10.8778C122.388 10.608 122.049 10.473 121.617 10.473C121.322 10.473 121.059 10.5369 120.829 10.6648C120.602 10.7926 120.421 10.9801 120.288 11.2273C120.157 11.4716 120.092 11.767 120.092 12.1136ZM127.894 16.1449C127.479 16.1449 127.104 16.0682 126.769 15.9148C126.434 15.7585 126.168 15.5327 125.972 15.2372C125.779 14.9418 125.683 14.5795 125.683 14.1506C125.683 13.7812 125.754 13.4773 125.896 13.2386C126.038 13 126.229 12.8111 126.471 12.6719C126.712 12.5327 126.982 12.4276 127.281 12.3565C127.579 12.2855 127.883 12.2315 128.192 12.1946C128.585 12.1491 128.903 12.1122 129.147 12.0838C129.391 12.0526 129.569 12.0028 129.68 11.9347C129.79 11.8665 129.846 11.7557 129.846 11.6023V11.5724C129.846 11.2003 129.741 10.9119 129.531 10.7074C129.323 10.5028 129.013 10.4006 128.602 10.4006C128.173 10.4006 127.835 10.4957 127.587 10.6861C127.343 10.8736 127.174 11.0824 127.08 11.3125L125.883 11.0398C126.025 10.642 126.232 10.321 126.505 10.0767C126.781 9.82955 127.097 9.65057 127.455 9.53977C127.813 9.42614 128.19 9.36932 128.585 9.36932C128.846 9.36932 129.123 9.40057 129.415 9.46307C129.711 9.52273 129.987 9.63352 130.242 9.79545C130.501 9.95739 130.712 10.1889 130.877 10.4901C131.042 10.7884 131.124 11.1761 131.124 11.6534V16H129.88V15.1051H129.829C129.746 15.2699 129.623 15.4318 129.458 15.5909C129.293 15.75 129.082 15.8821 128.823 15.9872C128.565 16.0923 128.255 16.1449 127.894 16.1449ZM128.171 15.1222C128.523 15.1222 128.825 15.0526 129.075 14.9134C129.327 14.7741 129.519 14.5923 129.65 14.3679C129.783 14.1406 129.85 13.8977 129.85 13.6392V12.7955C129.805 12.8409 129.717 12.8835 129.586 12.9233C129.458 12.9602 129.312 12.9929 129.147 13.0213C128.982 13.0469 128.822 13.071 128.665 13.0938C128.509 13.1136 128.379 13.1307 128.273 13.1449C128.026 13.1761 127.8 13.2287 127.596 13.3026C127.394 13.3764 127.232 13.483 127.11 13.6222C126.991 13.7585 126.931 13.9403 126.931 14.1676C126.931 14.483 127.048 14.7216 127.281 14.8835C127.513 15.0426 127.81 15.1222 128.171 15.1222ZM135.566 18.5909C135.046 18.5909 134.598 18.5227 134.223 18.3864C133.851 18.25 133.547 18.0696 133.311 17.8452C133.076 17.6207 132.9 17.375 132.783 17.108L133.878 16.6562C133.955 16.7812 134.057 16.9134 134.185 17.0526C134.316 17.1946 134.492 17.3153 134.713 17.4148C134.938 17.5142 135.226 17.5639 135.578 17.5639C136.061 17.5639 136.461 17.446 136.776 17.2102C137.091 16.9773 137.249 16.6051 137.249 16.0938V14.8068H137.168C137.091 14.946 136.98 15.1009 136.836 15.2713C136.694 15.4418 136.498 15.5895 136.248 15.7145C135.998 15.8395 135.672 15.902 135.272 15.902C134.755 15.902 134.289 15.7812 133.874 15.5398C133.462 15.2955 133.135 14.9361 132.894 14.4616C132.655 13.9844 132.536 13.3977 132.536 12.7017C132.536 12.0057 132.654 11.4091 132.89 10.9119C133.128 10.4148 133.455 10.0341 133.87 9.76989C134.284 9.50284 134.755 9.36932 135.28 9.36932C135.686 9.36932 136.015 9.4375 136.265 9.57386C136.515 9.70739 136.709 9.86364 136.848 10.0426C136.99 10.2216 137.1 10.3793 137.176 10.5156H137.27V9.45455H138.519V16.1449C138.519 16.7074 138.388 17.169 138.127 17.5298C137.865 17.8906 137.512 18.1577 137.066 18.331C136.623 18.5043 136.123 18.5909 135.566 18.5909ZM135.553 14.8452C135.919 14.8452 136.229 14.7599 136.482 14.5895C136.738 14.4162 136.931 14.169 137.061 13.848C137.195 13.5241 137.262 13.1364 137.262 12.6847C137.262 12.2443 137.196 11.8565 137.066 11.5213C136.935 11.1861 136.743 10.9247 136.49 10.7372C136.238 10.5469 135.925 10.4517 135.553 10.4517C135.169 10.4517 134.85 10.5511 134.594 10.75C134.338 10.946 134.145 11.2131 134.015 11.5511C133.887 11.8892 133.823 12.267 133.823 12.6847C133.823 13.1136 133.888 13.4901 134.019 13.8139C134.15 14.1378 134.343 14.3906 134.598 14.5724C134.857 14.7543 135.175 14.8452 135.553 14.8452ZM143.049 16.1321C142.404 16.1321 141.848 15.9943 141.382 15.7188C140.919 15.4403 140.561 15.0497 140.309 14.5469C140.059 14.0412 139.934 13.4489 139.934 12.7699C139.934 12.0994 140.059 11.5085 140.309 10.9972C140.561 10.4858 140.914 10.0866 141.365 9.79972C141.82 9.51278 142.351 9.36932 142.959 9.36932C143.328 9.36932 143.686 9.4304 144.033 9.55256C144.38 9.67472 144.691 9.86648 144.966 10.1278C145.242 10.3892 145.459 10.7287 145.618 11.1463C145.777 11.5611 145.857 12.0653 145.857 12.6591V13.1108H140.654V12.1562H144.608C144.608 11.821 144.54 11.5241 144.404 11.2656C144.267 11.0043 144.076 10.7983 143.828 10.6477C143.584 10.4972 143.297 10.4219 142.968 10.4219C142.61 10.4219 142.297 10.5099 142.03 10.6861C141.766 10.8594 141.561 11.0866 141.417 11.3679C141.275 11.6463 141.203 11.9489 141.203 12.2756V13.0213C141.203 13.4588 141.28 13.831 141.434 14.1378C141.59 14.4446 141.807 14.679 142.086 14.8409C142.364 15 142.689 15.0795 143.061 15.0795C143.303 15.0795 143.523 15.0455 143.722 14.9773C143.921 14.9062 144.093 14.8011 144.238 14.6619C144.382 14.5227 144.493 14.3509 144.57 14.1463L145.776 14.3636C145.679 14.7187 145.506 15.0298 145.256 15.2969C145.009 15.5611 144.698 15.767 144.323 15.9148C143.951 16.0597 143.526 16.1321 143.049 16.1321ZM147.271 16V9.45455H148.494V10.5199H148.575C148.711 10.1591 148.934 9.87784 149.244 9.67614C149.553 9.47159 149.924 9.36932 150.356 9.36932C150.793 9.36932 151.16 9.47159 151.455 9.67614C151.754 9.88068 151.974 10.1619 152.116 10.5199H152.184C152.34 10.1705 152.589 9.89205 152.93 9.68466C153.271 9.47443 153.677 9.36932 154.148 9.36932C154.742 9.36932 155.227 9.5554 155.602 9.92756C155.979 10.2997 156.168 10.8608 156.168 11.6108V16H154.894V11.7301C154.894 11.2869 154.773 10.9659 154.532 10.767C154.29 10.5682 154.002 10.4688 153.667 10.4688C153.252 10.4688 152.93 10.5966 152.7 10.8523C152.469 11.1051 152.354 11.4304 152.354 11.8281V16H151.085V11.6491C151.085 11.294 150.974 11.0085 150.752 10.7926C150.531 10.5767 150.242 10.4688 149.887 10.4688C149.646 10.4688 149.423 10.5327 149.218 10.6605C149.016 10.7855 148.853 10.9602 148.728 11.1847C148.606 11.4091 148.545 11.669 148.545 11.9645V16H147.271ZM160.697 16.1321C160.052 16.1321 159.497 15.9943 159.031 15.7188C158.568 15.4403 158.21 15.0497 157.957 14.5469C157.707 14.0412 157.582 13.4489 157.582 12.7699C157.582 12.0994 157.707 11.5085 157.957 10.9972C158.21 10.4858 158.562 10.0866 159.014 9.79972C159.468 9.51278 160 9.36932 160.608 9.36932C160.977 9.36932 161.335 9.4304 161.681 9.55256C162.028 9.67472 162.339 9.86648 162.615 10.1278C162.89 10.3892 163.108 10.7287 163.267 11.1463C163.426 11.5611 163.505 12.0653 163.505 12.6591V13.1108H158.302V12.1562H162.257C162.257 11.821 162.189 11.5241 162.052 11.2656C161.916 11.0043 161.724 10.7983 161.477 10.6477C161.233 10.4972 160.946 10.4219 160.616 10.4219C160.258 10.4219 159.946 10.5099 159.679 10.6861C159.414 10.8594 159.21 11.0866 159.065 11.3679C158.923 11.6463 158.852 11.9489 158.852 12.2756V13.0213C158.852 13.4588 158.929 13.831 159.082 14.1378C159.238 14.4446 159.456 14.679 159.734 14.8409C160.012 15 160.338 15.0795 160.71 15.0795C160.951 15.0795 161.172 15.0455 161.37 14.9773C161.569 14.9062 161.741 14.8011 161.886 14.6619C162.031 14.5227 162.142 14.3509 162.218 14.1463L163.424 14.3636C163.328 14.7187 163.154 15.0298 162.904 15.2969C162.657 15.5611 162.346 15.767 161.971 15.9148C161.599 16.0597 161.174 16.1321 160.697 16.1321ZM166.193 12.1136V16H164.919V9.45455H166.142V10.5199H166.223C166.374 10.1733 166.609 9.89489 166.93 9.68466C167.254 9.47443 167.662 9.36932 168.153 9.36932C168.599 9.36932 168.99 9.46307 169.325 9.65057C169.661 9.83523 169.92 10.1108 170.105 10.4773C170.29 10.8437 170.382 11.2969 170.382 11.8366V16H169.108V11.9901C169.108 11.5156 168.984 11.1449 168.737 10.8778C168.49 10.608 168.151 10.473 167.719 10.473C167.423 10.473 167.161 10.5369 166.93 10.6648C166.703 10.7926 166.523 10.9801 166.389 11.2273C166.259 11.4716 166.193 11.767 166.193 12.1136ZM175.146 9.45455V10.4773H171.571V9.45455H175.146ZM172.53 7.88636H173.804V14.0781C173.804 14.3253 173.841 14.5114 173.915 14.6364C173.989 14.7585 174.084 14.8423 174.2 14.8878C174.32 14.9304 174.449 14.9517 174.588 14.9517C174.69 14.9517 174.78 14.9446 174.857 14.9304C174.933 14.9162 174.993 14.9048 175.036 14.8963L175.266 15.9489C175.192 15.9773 175.087 16.0057 174.95 16.0341C174.814 16.0653 174.643 16.0824 174.439 16.0852C174.104 16.0909 173.791 16.0312 173.501 15.9062C173.212 15.7812 172.977 15.5881 172.798 15.3267C172.619 15.0653 172.53 14.7372 172.53 14.3423V7.88636Z" fill="#5D6598"/>
</svg>
