<svg width="106" height="23" viewBox="0 0 106 23" fill="none" xmlns="http://www.w3.org/2000/svg">
<rect width="106" height="23" rx="11.5" fill="#F3F7FC"/>
<path d="M20.2074 10.1108H18.8778C18.8267 9.8267 18.7315 9.5767 18.5923 9.3608C18.4531 9.14489 18.2827 8.96165 18.081 8.81108C17.8793 8.66051 17.6534 8.54687 17.4034 8.47017C17.1563 8.39347 16.8935 8.35511 16.6151 8.35511C16.1122 8.35511 15.6619 8.48153 15.2642 8.73438C14.8693 8.98722 14.5568 9.35795 14.3267 9.84659C14.0994 10.3352 13.9858 10.9318 13.9858 11.6364C13.9858 12.3466 14.0994 12.946 14.3267 13.4347C14.5568 13.9233 14.8707 14.2926 15.2685 14.5426C15.6662 14.7926 16.1136 14.9176 16.6108 14.9176C16.8864 14.9176 17.1477 14.8807 17.3949 14.8068C17.6449 14.7301 17.8707 14.6179 18.0724 14.4702C18.2741 14.3224 18.4446 14.142 18.5838 13.929C18.7259 13.7131 18.8239 13.4659 18.8778 13.1875L20.2074 13.1918C20.1364 13.6207 19.9986 14.0156 19.794 14.3764C19.5923 14.7344 19.3324 15.044 19.0142 15.3054C18.6989 15.5639 18.3381 15.7642 17.9318 15.9062C17.5256 16.0483 17.0824 16.1193 16.6023 16.1193C15.8466 16.1193 15.1733 15.9403 14.5824 15.5824C13.9915 15.2216 13.5256 14.706 13.1847 14.0355C12.8466 13.3651 12.6776 12.5653 12.6776 11.6364C12.6776 10.7045 12.848 9.90483 13.1889 9.23722C13.5298 8.56676 13.9957 8.05256 14.5866 7.6946C15.1776 7.33381 15.8494 7.15341 16.6023 7.15341C17.0653 7.15341 17.4972 7.22017 17.8977 7.35369C18.3011 7.48437 18.6634 7.67756 18.9844 7.93324C19.3054 8.18608 19.571 8.49574 19.7812 8.86222C19.9915 9.22585 20.1335 9.64205 20.2074 10.1108ZM22.5096 18.4545C22.3192 18.4545 22.146 18.4389 21.9897 18.4077C21.8335 18.3793 21.717 18.348 21.6403 18.3139L21.9471 17.2699C22.18 17.3324 22.3874 17.3594 22.5692 17.3509C22.7511 17.3423 22.9116 17.2741 23.0508 17.1463C23.1928 17.0185 23.3178 16.8097 23.4258 16.5199L23.5835 16.0852L21.1886 9.45455H22.5522L24.2099 14.5341H24.2781L25.9357 9.45455H27.3036L24.6062 16.8736C24.4812 17.2145 24.3221 17.5028 24.1289 17.7386C23.9357 17.9773 23.7056 18.1563 23.4386 18.2756C23.1715 18.3949 22.8619 18.4545 22.5096 18.4545ZM28.6033 16V7.27273H29.8775V10.5156H29.9542C30.0281 10.3793 30.1346 10.2216 30.2738 10.0426C30.413 9.86364 30.6062 9.70739 30.8533 9.57386C31.1005 9.4375 31.4272 9.36932 31.8335 9.36932C32.3619 9.36932 32.8335 9.50284 33.2482 9.76989C33.663 10.0369 33.9883 10.4219 34.2241 10.9247C34.4627 11.4276 34.582 12.0327 34.582 12.7401C34.582 13.4474 34.4641 14.054 34.2283 14.5597C33.9925 15.0625 33.6687 15.4503 33.2567 15.723C32.8448 15.9929 32.3746 16.1278 31.8462 16.1278C31.4485 16.1278 31.1232 16.0611 30.8704 15.9276C30.6204 15.794 30.4244 15.6378 30.2823 15.4588C30.1403 15.2798 30.0309 15.1207 29.9542 14.9815H29.8477V16H28.6033ZM29.8519 12.7273C29.8519 13.1875 29.9187 13.5909 30.0522 13.9375C30.1857 14.2841 30.3789 14.5554 30.6317 14.7514C30.8846 14.9446 31.1942 15.0412 31.5607 15.0412C31.9414 15.0412 32.2596 14.9403 32.5153 14.7386C32.771 14.5341 32.9641 14.2571 33.0948 13.9077C33.2283 13.5582 33.2951 13.1648 33.2951 12.7273C33.2951 12.2955 33.2298 11.9077 33.0991 11.5639C32.9712 11.2202 32.7781 10.9489 32.5195 10.75C32.2638 10.5511 31.9442 10.4517 31.5607 10.4517C31.1914 10.4517 30.8789 10.5469 30.6232 10.7372C30.3704 10.9276 30.1786 11.1932 30.0479 11.5341C29.9173 11.875 29.8519 12.2727 29.8519 12.7273ZM38.8338 16.1321C38.1889 16.1321 37.6335 15.9943 37.1676 15.7188C36.7045 15.4403 36.3466 15.0497 36.0938 14.5469C35.8438 14.0412 35.7188 13.4489 35.7188 12.7699C35.7188 12.0994 35.8438 11.5085 36.0938 10.9972C36.3466 10.4858 36.6989 10.0866 37.1506 9.79972C37.6051 9.51278 38.1364 9.36932 38.7443 9.36932C39.1136 9.36932 39.4716 9.4304 39.8182 9.55256C40.1648 9.67472 40.4759 9.86648 40.7514 10.1278C41.027 10.3892 41.2443 10.7287 41.4034 11.1463C41.5625 11.5611 41.642 12.0653 41.642 12.6591V13.1108H36.4389V12.1562H40.3935C40.3935 11.821 40.3253 11.5241 40.1889 11.2656C40.0526 11.0043 39.8608 10.7983 39.6136 10.6477C39.3693 10.4972 39.0824 10.4219 38.7528 10.4219C38.3949 10.4219 38.0824 10.5099 37.8153 10.6861C37.5511 10.8594 37.3466 11.0866 37.2017 11.3679C37.0597 11.6463 36.9886 11.9489 36.9886 12.2756V13.0213C36.9886 13.4588 37.0653 13.831 37.2188 14.1378C37.375 14.4446 37.5923 14.679 37.8707 14.8409C38.1491 15 38.4744 15.0795 38.8466 15.0795C39.0881 15.0795 39.3082 15.0455 39.5071 14.9773C39.706 14.9062 39.8778 14.8011 40.0227 14.6619C40.1676 14.5227 40.2784 14.3509 40.3551 14.1463L41.5611 14.3636C41.4645 14.7187 41.2912 15.0298 41.0412 15.2969C40.794 15.5611 40.483 15.767 40.108 15.9148C39.7358 16.0597 39.3111 16.1321 38.8338 16.1321ZM43.0558 16V9.45455H44.2873V10.4943H44.3555C44.4748 10.142 44.685 9.86506 44.9862 9.66335C45.2901 9.45881 45.6339 9.35653 46.0174 9.35653C46.0969 9.35653 46.1907 9.35937 46.2987 9.36506C46.4094 9.37074 46.4961 9.37784 46.5586 9.38636V10.6051C46.5075 10.5909 46.4165 10.5753 46.2859 10.5582C46.1552 10.5384 46.0245 10.5284 45.8938 10.5284C45.5927 10.5284 45.3242 10.5923 45.0884 10.7202C44.8555 10.8452 44.6708 11.0199 44.5344 11.2443C44.3981 11.4659 44.3299 11.7187 44.3299 12.0028V16H43.0558ZM52.5661 11.0526L51.4112 11.2571C51.3629 11.1094 51.2862 10.9687 51.1811 10.8352C51.0788 10.7017 50.9396 10.5923 50.7635 10.5071C50.5874 10.4219 50.3672 10.3793 50.103 10.3793C49.7422 10.3793 49.4411 10.4602 49.1996 10.6222C48.9581 10.7812 48.8374 10.9872 48.8374 11.2401C48.8374 11.4588 48.9183 11.6349 49.0803 11.7685C49.2422 11.902 49.5036 12.0114 49.8643 12.0966L50.9041 12.3352C51.5064 12.4744 51.9553 12.6889 52.2507 12.9787C52.5462 13.2685 52.6939 13.6449 52.6939 14.108C52.6939 14.5 52.5803 14.8494 52.353 15.1562C52.1286 15.4602 51.8146 15.6989 51.4112 15.8722C51.0107 16.0455 50.5462 16.1321 50.0178 16.1321C49.2848 16.1321 48.6868 15.9759 48.2237 15.6634C47.7607 15.348 47.4766 14.9006 47.3714 14.321L48.603 14.1335C48.6797 14.4545 48.8374 14.6974 49.076 14.8622C49.3146 15.0241 49.6257 15.1051 50.0092 15.1051C50.4268 15.1051 50.7607 15.0185 51.0107 14.8452C51.2607 14.669 51.3857 14.4545 51.3857 14.2017C51.3857 13.9972 51.3089 13.8253 51.1555 13.6861C51.005 13.5469 50.7734 13.4418 50.4609 13.3707L49.353 13.1278C48.7422 12.9886 48.2905 12.767 47.9979 12.4631C47.7081 12.1591 47.5632 11.7741 47.5632 11.3082C47.5632 10.9219 47.6712 10.5838 47.8871 10.294C48.103 10.0043 48.4013 9.77841 48.782 9.61648C49.1626 9.4517 49.5987 9.36932 50.0902 9.36932C50.7976 9.36932 51.3544 9.52273 51.7607 9.82955C52.1669 10.1335 52.4354 10.5412 52.5661 11.0526ZM56.9158 16.1321C56.271 16.1321 55.7156 15.9943 55.2496 15.7188C54.7866 15.4403 54.4286 15.0497 54.1758 14.5469C53.9258 14.0412 53.8008 13.4489 53.8008 12.7699C53.8008 12.0994 53.9258 11.5085 54.1758 10.9972C54.4286 10.4858 54.7809 10.0866 55.2326 9.79972C55.6871 9.51278 56.2184 9.36932 56.8263 9.36932C57.1957 9.36932 57.5536 9.4304 57.9002 9.55256C58.2468 9.67472 58.5579 9.86648 58.8335 10.1278C59.109 10.3892 59.3263 10.7287 59.4854 11.1463C59.6445 11.5611 59.7241 12.0653 59.7241 12.6591V13.1108H54.521V12.1562H58.4755C58.4755 11.821 58.4073 11.5241 58.271 11.2656C58.1346 11.0043 57.9428 10.7983 57.6957 10.6477C57.4513 10.4972 57.1644 10.4219 56.8349 10.4219C56.4769 10.4219 56.1644 10.5099 55.8974 10.6861C55.6332 10.8594 55.4286 11.0866 55.2837 11.3679C55.1417 11.6463 55.0707 11.9489 55.0707 12.2756V13.0213C55.0707 13.4588 55.1474 13.831 55.3008 14.1378C55.457 14.4446 55.6744 14.679 55.9528 14.8409C56.2312 15 56.5565 15.0795 56.9286 15.0795C57.1701 15.0795 57.3903 15.0455 57.5891 14.9773C57.788 14.9062 57.9599 14.8011 58.1048 14.6619C58.2496 14.5227 58.3604 14.3509 58.4371 14.1463L59.6431 14.3636C59.5465 14.7187 59.3732 15.0298 59.1232 15.2969C58.8761 15.5611 58.565 15.767 58.19 15.9148C57.8178 16.0597 57.3931 16.1321 56.9158 16.1321ZM63.8949 16.1321C63.2614 16.1321 62.7159 15.9886 62.2585 15.7017C61.804 15.4119 61.4545 15.0128 61.2102 14.5043C60.9659 13.9957 60.8438 13.4134 60.8438 12.7571C60.8438 12.0923 60.9688 11.5057 61.2188 10.9972C61.4688 10.4858 61.821 10.0866 62.2756 9.79972C62.7301 9.51278 63.2656 9.36932 63.8821 9.36932C64.3793 9.36932 64.8224 9.46165 65.2116 9.64631C65.6009 9.82812 65.9148 10.0838 66.1534 10.4134C66.3949 10.7429 66.5384 11.1278 66.5838 11.5682H65.3438C65.2756 11.2614 65.1193 10.9972 64.875 10.7756C64.6335 10.554 64.3097 10.4432 63.9034 10.4432C63.5483 10.4432 63.2372 10.5369 62.9702 10.7244C62.706 10.9091 62.5 11.1733 62.3523 11.517C62.2045 11.858 62.1307 12.2614 62.1307 12.7273C62.1307 13.2045 62.2031 13.6165 62.348 13.9631C62.4929 14.3097 62.6974 14.5781 62.9616 14.7685C63.2287 14.9588 63.5426 15.054 63.9034 15.054C64.1449 15.054 64.3636 15.0099 64.5597 14.9219C64.7585 14.831 64.9247 14.7017 65.0582 14.5341C65.1946 14.3665 65.2898 14.1648 65.3438 13.929H66.5838C66.5384 14.3523 66.4006 14.7301 66.1705 15.0625C65.9403 15.3949 65.6321 15.6562 65.2457 15.8466C64.8622 16.0369 64.4119 16.1321 63.8949 16.1321ZM72.0927 13.2855V9.45455H73.3711V16H72.1183V14.8665H72.0501C71.8995 15.2159 71.658 15.5071 71.3256 15.7401C70.9961 15.9702 70.5856 16.0852 70.0941 16.0852C69.6737 16.0852 69.3015 15.9929 68.9776 15.8082C68.6566 15.6207 68.4038 15.3438 68.2191 14.9773C68.0373 14.6108 67.9464 14.1577 67.9464 13.6179V9.45455H69.2205V13.4645C69.2205 13.9105 69.3441 14.2656 69.5913 14.5298C69.8384 14.794 70.1594 14.9261 70.5543 14.9261C70.793 14.9261 71.0302 14.8665 71.266 14.7472C71.5046 14.6278 71.7021 14.4474 71.8583 14.206C72.0174 13.9645 72.0955 13.6577 72.0927 13.2855ZM75.0831 16V9.45455H76.3146V10.4943H76.3828C76.5021 10.142 76.7124 9.86506 77.0135 9.66335C77.3175 9.45881 77.6612 9.35653 78.0447 9.35653C78.1243 9.35653 78.218 9.35937 78.326 9.36506C78.4368 9.37074 78.5234 9.37784 78.5859 9.38636V10.6051C78.5348 10.5909 78.4439 10.5753 78.3132 10.5582C78.1825 10.5384 78.0518 10.5284 77.9212 10.5284C77.62 10.5284 77.3516 10.5923 77.1158 10.7202C76.8828 10.8452 76.6982 11.0199 76.5618 11.2443C76.4254 11.4659 76.3572 11.7187 76.3572 12.0028V16H75.0831ZM79.6886 16V9.45455H80.9627V16H79.6886ZM80.332 8.4446C80.1104 8.4446 79.9201 8.37074 79.761 8.22301C79.6048 8.07244 79.5266 7.89347 79.5266 7.68608C79.5266 7.47585 79.6048 7.29687 79.761 7.14915C79.9201 6.99858 80.1104 6.9233 80.332 6.9233C80.5536 6.9233 80.7425 6.99858 80.8988 7.14915C81.0579 7.29687 81.1374 7.47585 81.1374 7.68608C81.1374 7.89347 81.0579 8.07244 80.8988 8.22301C80.7425 8.37074 80.5536 8.4446 80.332 8.4446ZM85.7322 9.45455V10.4773H82.157V9.45455H85.7322ZM83.1158 7.88636H84.3899V14.0781C84.3899 14.3253 84.4268 14.5114 84.5007 14.6364C84.5746 14.7585 84.6697 14.8423 84.7862 14.8878C84.9055 14.9304 85.0348 14.9517 85.174 14.9517C85.2763 14.9517 85.3658 14.9446 85.4425 14.9304C85.5192 14.9162 85.5788 14.9048 85.6214 14.8963L85.8516 15.9489C85.7777 15.9773 85.6726 16.0057 85.5362 16.0341C85.3999 16.0653 85.2294 16.0824 85.0249 16.0852C84.6896 16.0909 84.3771 16.0312 84.0874 15.9062C83.7976 15.7812 83.5632 15.5881 83.3842 15.3267C83.2053 15.0653 83.1158 14.7372 83.1158 14.3423V7.88636ZM87.9471 18.4545C87.7567 18.4545 87.5835 18.4389 87.4272 18.4077C87.271 18.3793 87.1545 18.348 87.0778 18.3139L87.3846 17.2699C87.6175 17.3324 87.8249 17.3594 88.0067 17.3509C88.1886 17.3423 88.3491 17.2741 88.4883 17.1463C88.6303 17.0185 88.7553 16.8097 88.8633 16.5199L89.021 16.0852L86.6261 9.45455H87.9897L89.6474 14.5341H89.7156L91.3732 9.45455H92.7411L90.0437 16.8736C89.9187 17.2145 89.7596 17.5028 89.5664 17.7386C89.3732 17.9773 89.1431 18.1563 88.8761 18.2756C88.609 18.3949 88.2994 18.4545 87.9471 18.4545Z" fill="#1757C2"/>
</svg>
