<svg width="108" height="23" viewBox="0 0 108 23" fill="none" xmlns="http://www.w3.org/2000/svg">
<rect width="108" height="23" rx="11.5" fill="#FBE3DB"/>
<path d="M15.7841 16H12.9588V7.27273H15.8736C16.7287 7.27273 17.4631 7.44744 18.0767 7.79688C18.6903 8.14347 19.1605 8.64205 19.4872 9.29261C19.8168 9.94034 19.9815 10.7173 19.9815 11.6236C19.9815 12.5327 19.8153 13.3139 19.483 13.9673C19.1534 14.6207 18.6761 15.1236 18.0511 15.4759C17.4261 15.8253 16.6705 16 15.7841 16ZM14.2756 14.8494H15.7116C16.3764 14.8494 16.929 14.7244 17.3693 14.4744C17.8097 14.2216 18.1392 13.8565 18.358 13.3793C18.5767 12.8991 18.6861 12.3139 18.6861 11.6236C18.6861 10.9389 18.5767 10.358 18.358 9.88068C18.142 9.40341 17.8196 9.04119 17.3906 8.79403C16.9616 8.54687 16.429 8.4233 15.7926 8.4233H14.2756V14.8494ZM23.4215 16.1449C23.0067 16.1449 22.6317 16.0682 22.2965 15.9148C21.9613 15.7585 21.6957 15.5327 21.4996 15.2372C21.3065 14.9418 21.2099 14.5795 21.2099 14.1506C21.2099 13.7812 21.2809 13.4773 21.4229 13.2386C21.565 13 21.7567 12.8111 21.9982 12.6719C22.2397 12.5327 22.5096 12.4276 22.8079 12.3565C23.1062 12.2855 23.4102 12.2315 23.7198 12.1946C24.1119 12.1491 24.43 12.1122 24.6744 12.0838C24.9187 12.0526 25.0962 12.0028 25.207 11.9347C25.3178 11.8665 25.3732 11.7557 25.3732 11.6023V11.5724C25.3732 11.2003 25.2681 10.9119 25.0579 10.7074C24.8505 10.5028 24.5408 10.4006 24.1289 10.4006C23.6999 10.4006 23.3619 10.4957 23.1147 10.6861C22.8704 10.8736 22.7013 11.0824 22.6076 11.3125L21.4102 11.0398C21.5522 10.642 21.7596 10.321 22.0323 10.0767C22.3079 9.82955 22.6246 9.65057 22.9826 9.53977C23.3406 9.42614 23.717 9.36932 24.1119 9.36932C24.3732 9.36932 24.6502 9.40057 24.9428 9.46307C25.2383 9.52273 25.5138 9.63352 25.7695 9.79545C26.0281 9.95739 26.2397 10.1889 26.4045 10.4901C26.5692 10.7884 26.6516 11.1761 26.6516 11.6534V16H25.4073V15.1051H25.3562C25.2738 15.2699 25.1502 15.4318 24.9854 15.5909C24.8207 15.75 24.609 15.8821 24.3505 15.9872C24.092 16.0923 23.7823 16.1449 23.4215 16.1449ZM23.6985 15.1222C24.0508 15.1222 24.3519 15.0526 24.6019 14.9134C24.8548 14.7741 25.0465 14.5923 25.1772 14.3679C25.3107 14.1406 25.3775 13.8977 25.3775 13.6392V12.7955C25.332 12.8409 25.244 12.8835 25.1133 12.9233C24.9854 12.9602 24.8391 12.9929 24.6744 13.0213C24.5096 13.0469 24.3491 13.071 24.1928 13.0938C24.0366 13.1136 23.9059 13.1307 23.8008 13.1449C23.5536 13.1761 23.3278 13.2287 23.1232 13.3026C22.9215 13.3764 22.7596 13.483 22.6374 13.6222C22.5181 13.7585 22.4585 13.9403 22.4585 14.1676C22.4585 14.483 22.5749 14.7216 22.8079 14.8835C23.0408 15.0426 23.3377 15.1222 23.6985 15.1222ZM31.4041 9.45455V10.4773H27.8288V9.45455H31.4041ZM28.7876 7.88636H30.0618V14.0781C30.0618 14.3253 30.0987 14.5114 30.1726 14.6364C30.2464 14.7585 30.3416 14.8423 30.4581 14.8878C30.5774 14.9304 30.7067 14.9517 30.8459 14.9517C30.9482 14.9517 31.0376 14.9446 31.1143 14.9304C31.1911 14.9162 31.2507 14.9048 31.2933 14.8963L31.5234 15.9489C31.4496 15.9773 31.3445 16.0057 31.2081 16.0341C31.0717 16.0653 30.9013 16.0824 30.6967 16.0852C30.3615 16.0909 30.049 16.0312 29.7592 15.9062C29.4695 15.7812 29.2351 15.5881 29.0561 15.3267C28.8771 15.0653 28.7876 14.7372 28.7876 14.3423V7.88636ZM34.7184 16.1449C34.3036 16.1449 33.9286 16.0682 33.5934 15.9148C33.2582 15.7585 32.9925 15.5327 32.7965 15.2372C32.6033 14.9418 32.5067 14.5795 32.5067 14.1506C32.5067 13.7812 32.5778 13.4773 32.7198 13.2386C32.8619 13 33.0536 12.8111 33.2951 12.6719C33.5366 12.5327 33.8065 12.4276 34.1048 12.3565C34.4031 12.2855 34.707 12.2315 35.0167 12.1946C35.4087 12.1491 35.7269 12.1122 35.9712 12.0838C36.2156 12.0526 36.3931 12.0028 36.5039 11.9347C36.6147 11.8665 36.6701 11.7557 36.6701 11.6023V11.5724C36.6701 11.2003 36.565 10.9119 36.3548 10.7074C36.1474 10.5028 35.8377 10.4006 35.4258 10.4006C34.9968 10.4006 34.6587 10.4957 34.4116 10.6861C34.1673 10.8736 33.9982 11.0824 33.9045 11.3125L32.707 11.0398C32.8491 10.642 33.0565 10.321 33.3292 10.0767C33.6048 9.82955 33.9215 9.65057 34.2795 9.53977C34.6374 9.42614 35.0138 9.36932 35.4087 9.36932C35.6701 9.36932 35.9471 9.40057 36.2397 9.46307C36.5352 9.52273 36.8107 9.63352 37.0664 9.79545C37.3249 9.95739 37.5366 10.1889 37.7013 10.4901C37.8661 10.7884 37.9485 11.1761 37.9485 11.6534V16H36.7042V15.1051H36.6531C36.5707 15.2699 36.4471 15.4318 36.2823 15.5909C36.1175 15.75 35.9059 15.8821 35.6474 15.9872C35.3888 16.0923 35.0792 16.1449 34.7184 16.1449ZM34.9954 15.1222C35.3477 15.1222 35.6488 15.0526 35.8988 14.9134C36.1516 14.7741 36.3434 14.5923 36.4741 14.3679C36.6076 14.1406 36.6744 13.8977 36.6744 13.6392V12.7955C36.6289 12.8409 36.5408 12.8835 36.4102 12.9233C36.2823 12.9602 36.136 12.9929 35.9712 13.0213C35.8065 13.0469 35.646 13.071 35.4897 13.0938C35.3335 13.1136 35.2028 13.1307 35.0977 13.1449C34.8505 13.1761 34.6246 13.2287 34.4201 13.3026C34.2184 13.3764 34.0565 13.483 33.9343 13.6222C33.815 13.7585 33.7553 13.9403 33.7553 14.1676C33.7553 14.483 33.8718 14.7216 34.1048 14.8835C34.3377 15.0426 34.6346 15.1222 34.9954 15.1222ZM42.9237 16V7.27273H46.1197C46.739 7.27273 47.2518 7.375 47.658 7.57955C48.0643 7.78125 48.3683 8.0554 48.57 8.40199C48.7717 8.74574 48.8725 9.13352 48.8725 9.56534C48.8725 9.92898 48.8058 10.2358 48.6722 10.4858C48.5387 10.733 48.3597 10.9318 48.1353 11.0824C47.9137 11.2301 47.6694 11.3381 47.4023 11.4062V11.4915C47.6921 11.5057 47.9748 11.5994 48.2504 11.7727C48.5288 11.9432 48.7589 12.1861 48.9407 12.5014C49.1225 12.8168 49.2134 13.2003 49.2134 13.652C49.2134 14.098 49.1083 14.4986 48.8981 14.8537C48.6907 15.206 48.3697 15.4858 47.935 15.6932C47.5004 15.8977 46.945 16 46.2688 16H42.9237ZM44.2404 14.8707H46.141C46.7717 14.8707 47.2234 14.7486 47.4961 14.5043C47.7688 14.2599 47.9052 13.9545 47.9052 13.5881C47.9052 13.3125 47.8356 13.0597 47.6964 12.8295C47.5572 12.5994 47.3583 12.4162 47.0998 12.2798C46.8441 12.1435 46.5401 12.0753 46.1879 12.0753H44.2404V14.8707ZM44.2404 11.0483H46.0046C46.3001 11.0483 46.5657 10.9915 46.8015 10.8778C47.0401 10.7642 47.229 10.6051 47.3683 10.4006C47.5103 10.1932 47.5813 9.94886 47.5813 9.66761C47.5813 9.30682 47.4549 9.00426 47.2021 8.75994C46.9492 8.51562 46.5614 8.39347 46.0387 8.39347H44.2404V11.0483ZM50.6729 16V9.45455H51.9045V10.4943H51.9727C52.092 10.142 52.3022 9.86506 52.6033 9.66335C52.9073 9.45881 53.2511 9.35653 53.6346 9.35653C53.7141 9.35653 53.8079 9.35937 53.9158 9.36506C54.0266 9.37074 54.1133 9.37784 54.1758 9.38636V10.6051C54.1246 10.5909 54.0337 10.5753 53.9031 10.5582C53.7724 10.5384 53.6417 10.5284 53.511 10.5284C53.2099 10.5284 52.9414 10.5923 52.7056 10.7202C52.4727 10.8452 52.288 11.0199 52.1516 11.2443C52.0153 11.4659 51.9471 11.7187 51.9471 12.0028V16H50.6729ZM57.8651 16.1321C57.2202 16.1321 56.6648 15.9943 56.1989 15.7188C55.7358 15.4403 55.3778 15.0497 55.125 14.5469C54.875 14.0412 54.75 13.4489 54.75 12.7699C54.75 12.0994 54.875 11.5085 55.125 10.9972C55.3778 10.4858 55.7301 10.0866 56.1818 9.79972C56.6364 9.51278 57.1676 9.36932 57.7756 9.36932C58.1449 9.36932 58.5028 9.4304 58.8494 9.55256C59.196 9.67472 59.5071 9.86648 59.7827 10.1278C60.0582 10.3892 60.2756 10.7287 60.4347 11.1463C60.5938 11.5611 60.6733 12.0653 60.6733 12.6591V13.1108H55.4702V12.1562H59.4247C59.4247 11.821 59.3565 11.5241 59.2202 11.2656C59.0838 11.0043 58.892 10.7983 58.6449 10.6477C58.4006 10.4972 58.1136 10.4219 57.7841 10.4219C57.4261 10.4219 57.1136 10.5099 56.8466 10.6861C56.5824 10.8594 56.3778 11.0866 56.233 11.3679C56.0909 11.6463 56.0199 11.9489 56.0199 12.2756V13.0213C56.0199 13.4588 56.0966 13.831 56.25 14.1378C56.4062 14.4446 56.6236 14.679 56.902 14.8409C57.1804 15 57.5057 15.0795 57.8778 15.0795C58.1193 15.0795 58.3395 15.0455 58.5384 14.9773C58.7372 14.9062 58.9091 14.8011 59.054 14.6619C59.1989 14.5227 59.3097 14.3509 59.3864 14.1463L60.5923 14.3636C60.4957 14.7187 60.3224 15.0298 60.0724 15.2969C59.8253 15.5611 59.5142 15.767 59.1392 15.9148C58.767 16.0597 58.3423 16.1321 57.8651 16.1321ZM63.9918 16.1449C63.5771 16.1449 63.2021 16.0682 62.8668 15.9148C62.5316 15.7585 62.266 15.5327 62.07 15.2372C61.8768 14.9418 61.7802 14.5795 61.7802 14.1506C61.7802 13.7812 61.8512 13.4773 61.9933 13.2386C62.1353 13 62.3271 12.8111 62.5685 12.6719C62.81 12.5327 63.0799 12.4276 63.3782 12.3565C63.6765 12.2855 63.9805 12.2315 64.2901 12.1946C64.6822 12.1491 65.0004 12.1122 65.2447 12.0838C65.489 12.0526 65.6665 12.0028 65.7773 11.9347C65.8881 11.8665 65.9435 11.7557 65.9435 11.6023V11.5724C65.9435 11.2003 65.8384 10.9119 65.6282 10.7074C65.4208 10.5028 65.1112 10.4006 64.6992 10.4006C64.2702 10.4006 63.9322 10.4957 63.685 10.6861C63.4407 10.8736 63.2717 11.0824 63.1779 11.3125L61.9805 11.0398C62.1225 10.642 62.3299 10.321 62.6026 10.0767C62.8782 9.82955 63.195 9.65057 63.5529 9.53977C63.9109 9.42614 64.2873 9.36932 64.6822 9.36932C64.9435 9.36932 65.2205 9.40057 65.5131 9.46307C65.8086 9.52273 66.0842 9.63352 66.3398 9.79545C66.5984 9.95739 66.81 10.1889 66.9748 10.4901C67.1396 10.7884 67.2219 11.1761 67.2219 11.6534V16H65.9776V15.1051H65.9265C65.8441 15.2699 65.7205 15.4318 65.5558 15.5909C65.391 15.75 65.1793 15.8821 64.9208 15.9872C64.6623 16.0923 64.3526 16.1449 63.9918 16.1449ZM64.2688 15.1222C64.6211 15.1222 64.9222 15.0526 65.1722 14.9134C65.4251 14.7741 65.6168 14.5923 65.7475 14.3679C65.881 14.1406 65.9478 13.8977 65.9478 13.6392V12.7955C65.9023 12.8409 65.8143 12.8835 65.6836 12.9233C65.5558 12.9602 65.4094 12.9929 65.2447 13.0213C65.0799 13.0469 64.9194 13.071 64.7631 13.0938C64.6069 13.1136 64.4762 13.1307 64.3711 13.1449C64.1239 13.1761 63.8981 13.2287 63.6935 13.3026C63.4918 13.3764 63.3299 13.483 63.2077 13.6222C63.0884 13.7585 63.0288 13.9403 63.0288 14.1676C63.0288 14.483 63.1452 14.7216 63.3782 14.8835C63.6112 15.0426 63.908 15.1222 64.2688 15.1222ZM71.6761 16.1321C71.0426 16.1321 70.4972 15.9886 70.0398 15.7017C69.5852 15.4119 69.2358 15.0128 68.9915 14.5043C68.7472 13.9957 68.625 13.4134 68.625 12.7571C68.625 12.0923 68.75 11.5057 69 10.9972C69.25 10.4858 69.6023 10.0866 70.0568 9.79972C70.5114 9.51278 71.0469 9.36932 71.6634 9.36932C72.1605 9.36932 72.6037 9.46165 72.9929 9.64631C73.3821 9.82812 73.696 10.0838 73.9347 10.4134C74.1761 10.7429 74.3196 11.1278 74.3651 11.5682H73.125C73.0568 11.2614 72.9006 10.9972 72.6562 10.7756C72.4148 10.554 72.0909 10.4432 71.6847 10.4432C71.3295 10.4432 71.0185 10.5369 70.7514 10.7244C70.4872 10.9091 70.2813 11.1733 70.1335 11.517C69.9858 11.858 69.9119 12.2614 69.9119 12.7273C69.9119 13.2045 69.9844 13.6165 70.1293 13.9631C70.2741 14.3097 70.4787 14.5781 70.7429 14.7685C71.0099 14.9588 71.3239 15.054 71.6847 15.054C71.9261 15.054 72.1449 15.0099 72.3409 14.9219C72.5398 14.831 72.706 14.7017 72.8395 14.5341C72.9759 14.3665 73.071 14.1648 73.125 13.929H74.3651C74.3196 14.3523 74.1818 14.7301 73.9517 15.0625C73.7216 15.3949 73.4134 15.6562 73.027 15.8466C72.6435 16.0369 72.1932 16.1321 71.6761 16.1321ZM77.0018 12.1136V16H75.7276V7.27273H76.9847V10.5199H77.0657C77.2191 10.1676 77.4535 9.88778 77.7688 9.6804C78.0842 9.47301 78.4961 9.36932 79.0046 9.36932C79.4535 9.36932 79.8455 9.46165 80.1808 9.64631C80.5188 9.83097 80.7802 10.1065 80.9648 10.473C81.1523 10.8366 81.2461 11.2912 81.2461 11.8366V16H79.9719V11.9901C79.9719 11.5099 79.8484 11.1378 79.6012 10.8736C79.354 10.6065 79.0103 10.473 78.57 10.473C78.2688 10.473 77.9989 10.5369 77.7603 10.6648C77.5245 10.7926 77.3384 10.9801 77.2021 11.2273C77.0685 11.4716 77.0018 11.767 77.0018 12.1136ZM85.7674 16.1321C85.1225 16.1321 84.5671 15.9943 84.1012 15.7188C83.6381 15.4403 83.2802 15.0497 83.0273 14.5469C82.7773 14.0412 82.6523 13.4489 82.6523 12.7699C82.6523 12.0994 82.7773 11.5085 83.0273 10.9972C83.2802 10.4858 83.6325 10.0866 84.0842 9.79972C84.5387 9.51278 85.07 9.36932 85.6779 9.36932C86.0472 9.36932 86.4052 9.4304 86.7518 9.55256C87.0984 9.67472 87.4094 9.86648 87.685 10.1278C87.9606 10.3892 88.1779 10.7287 88.337 11.1463C88.4961 11.5611 88.5756 12.0653 88.5756 12.6591V13.1108H83.3725V12.1562H87.3271C87.3271 11.821 87.2589 11.5241 87.1225 11.2656C86.9862 11.0043 86.7944 10.7983 86.5472 10.6477C86.3029 10.4972 86.016 10.4219 85.6864 10.4219C85.3285 10.4219 85.016 10.5099 84.7489 10.6861C84.4847 10.8594 84.2802 11.0866 84.1353 11.3679C83.9933 11.6463 83.9222 11.9489 83.9222 12.2756V13.0213C83.9222 13.4588 83.9989 13.831 84.1523 14.1378C84.3086 14.4446 84.5259 14.679 84.8043 14.8409C85.0827 15 85.408 15.0795 85.7802 15.0795C86.0217 15.0795 86.2418 15.0455 86.4407 14.9773C86.6396 14.9062 86.8114 14.8011 86.9563 14.6619C87.1012 14.5227 87.212 14.3509 87.2887 14.1463L88.4947 14.3636C88.3981 14.7187 88.2248 15.0298 87.9748 15.2969C87.7276 15.5611 87.4165 15.767 87.0415 15.9148C86.6694 16.0597 86.2447 16.1321 85.7674 16.1321ZM94.8942 11.0526L93.7393 11.2571C93.6911 11.1094 93.6143 10.9687 93.5092 10.8352C93.407 10.7017 93.2678 10.5923 93.0916 10.5071C92.9155 10.4219 92.6953 10.3793 92.4311 10.3793C92.0703 10.3793 91.7692 10.4602 91.5277 10.6222C91.2862 10.7812 91.1655 10.9872 91.1655 11.2401C91.1655 11.4588 91.2464 11.6349 91.4084 11.7685C91.5703 11.902 91.8317 12.0114 92.1925 12.0966L93.2322 12.3352C93.8345 12.4744 94.2834 12.6889 94.5788 12.9787C94.8743 13.2685 95.022 13.6449 95.022 14.108C95.022 14.5 94.9084 14.8494 94.6811 15.1562C94.4567 15.4602 94.1428 15.6989 93.7393 15.8722C93.3388 16.0455 92.8743 16.1321 92.3459 16.1321C91.6129 16.1321 91.0149 15.9759 90.5518 15.6634C90.0888 15.348 89.8047 14.9006 89.6996 14.321L90.9311 14.1335C91.0078 14.4545 91.1655 14.6974 91.4041 14.8622C91.6428 15.0241 91.9538 15.1051 92.3374 15.1051C92.755 15.1051 93.0888 15.0185 93.3388 14.8452C93.5888 14.669 93.7138 14.4545 93.7138 14.2017C93.7138 13.9972 93.6371 13.8253 93.4837 13.6861C93.3331 13.5469 93.1016 13.4418 92.7891 13.3707L91.6811 13.1278C91.0703 12.9886 90.6186 12.767 90.326 12.4631C90.0362 12.1591 89.8913 11.7741 89.8913 11.3082C89.8913 10.9219 89.9993 10.5838 90.2152 10.294C90.4311 10.0043 90.7294 9.77841 91.1101 9.61648C91.4908 9.4517 91.9268 9.36932 92.4183 9.36932C93.1257 9.36932 93.6825 9.52273 94.0888 9.82955C94.495 10.1335 94.7635 10.5412 94.8942 11.0526Z" fill="#EF4E3E"/>
</svg>
