<svg width="150" height="23" viewBox="0 0 150 23" fill="none" xmlns="http://www.w3.org/2000/svg">
<rect width="150" height="23" rx="11.5" fill="#E9E2F0"/>
<path d="M12.9588 16V7.27273H16.0696C16.7457 7.27273 17.3068 7.3892 17.7528 7.62216C18.2017 7.85511 18.5369 8.17756 18.7585 8.58949C18.9801 8.99858 19.0909 9.47159 19.0909 10.0085C19.0909 10.5426 18.9787 11.0128 18.7543 11.419C18.5327 11.8224 18.1974 12.1364 17.7486 12.3608C17.3026 12.5852 16.7415 12.6974 16.0653 12.6974H13.7088V11.5639H15.946C16.3722 11.5639 16.7188 11.5028 16.9858 11.3807C17.2557 11.2585 17.4531 11.081 17.5781 10.848C17.7031 10.6151 17.7656 10.3352 17.7656 10.0085C17.7656 9.67898 17.7017 9.39347 17.5739 9.15199C17.4489 8.91051 17.2514 8.72585 16.9815 8.59801C16.7145 8.46733 16.3636 8.40199 15.929 8.40199H14.2756V16H12.9588ZM17.267 12.0625L19.4233 16H17.9233L15.8097 12.0625H17.267ZM20.5909 16V9.45455H21.8651V16H20.5909ZM21.2344 8.4446C21.0128 8.4446 20.8224 8.37074 20.6634 8.22301C20.5071 8.07244 20.429 7.89347 20.429 7.68608C20.429 7.47585 20.5071 7.29687 20.6634 7.14915C20.8224 6.99858 21.0128 6.9233 21.2344 6.9233C21.456 6.9233 21.6449 6.99858 21.8011 7.14915C21.9602 7.29687 22.0398 7.47585 22.0398 7.68608C22.0398 7.89347 21.9602 8.07244 21.8011 8.22301C21.6449 8.37074 21.456 8.4446 21.2344 8.4446ZM28.484 11.0526L27.3292 11.2571C27.2809 11.1094 27.2042 10.9687 27.0991 10.8352C26.9968 10.7017 26.8576 10.5923 26.6815 10.5071C26.5053 10.4219 26.2852 10.3793 26.021 10.3793C25.6602 10.3793 25.359 10.4602 25.1175 10.6222C24.8761 10.7812 24.7553 10.9872 24.7553 11.2401C24.7553 11.4588 24.8363 11.6349 24.9982 11.7685C25.1602 11.902 25.4215 12.0114 25.7823 12.0966L26.8221 12.3352C27.4244 12.4744 27.8732 12.6889 28.1687 12.9787C28.4641 13.2685 28.6119 13.6449 28.6119 14.108C28.6119 14.5 28.4982 14.8494 28.271 15.1562C28.0465 15.4602 27.7326 15.6989 27.3292 15.8722C26.9286 16.0455 26.4641 16.1321 25.9357 16.1321C25.2028 16.1321 24.6048 15.9759 24.1417 15.6634C23.6786 15.348 23.3945 14.9006 23.2894 14.321L24.521 14.1335C24.5977 14.4545 24.7553 14.6974 24.994 14.8622C25.2326 15.0241 25.5437 15.1051 25.9272 15.1051C26.3448 15.1051 26.6786 15.0185 26.9286 14.8452C27.1786 14.669 27.3036 14.4545 27.3036 14.2017C27.3036 13.9972 27.2269 13.8253 27.0735 13.6861C26.9229 13.5469 26.6914 13.4418 26.3789 13.3707L25.271 13.1278C24.6602 12.9886 24.2085 12.767 23.9158 12.4631C23.6261 12.1591 23.4812 11.7741 23.4812 11.3082C23.4812 10.9219 23.5891 10.5838 23.805 10.294C24.021 10.0043 24.3192 9.77841 24.6999 9.61648C25.0806 9.4517 25.5167 9.36932 26.0082 9.36932C26.7156 9.36932 27.2724 9.52273 27.6786 9.82955C28.0849 10.1335 28.3533 10.5412 28.484 11.0526ZM31.1847 13.7798L31.1761 12.2244H31.3977L34.0057 9.45455H35.5312L32.5568 12.608H32.3565L31.1847 13.7798ZM30.0128 16V7.27273H31.2869V16H30.0128ZM34.1463 16L31.8026 12.8892L32.6804 11.9986L35.7102 16H34.1463ZM41.5973 11.0526L40.4425 11.2571C40.3942 11.1094 40.3175 10.9687 40.2124 10.8352C40.1101 10.7017 39.9709 10.5923 39.7947 10.5071C39.6186 10.4219 39.3984 10.3793 39.1342 10.3793C38.7734 10.3793 38.4723 10.4602 38.2308 10.6222C37.9893 10.7812 37.8686 10.9872 37.8686 11.2401C37.8686 11.4588 37.9496 11.6349 38.1115 11.7685C38.2734 11.902 38.5348 12.0114 38.8956 12.0966L39.9354 12.3352C40.5376 12.4744 40.9865 12.6889 41.282 12.9787C41.5774 13.2685 41.7251 13.6449 41.7251 14.108C41.7251 14.5 41.6115 14.8494 41.3842 15.1562C41.1598 15.4602 40.8459 15.6989 40.4425 15.8722C40.0419 16.0455 39.5774 16.1321 39.049 16.1321C38.3161 16.1321 37.718 15.9759 37.255 15.6634C36.7919 15.348 36.5078 14.9006 36.4027 14.321L37.6342 14.1335C37.7109 14.4545 37.8686 14.6974 38.1072 14.8622C38.3459 15.0241 38.657 15.1051 39.0405 15.1051C39.4581 15.1051 39.7919 15.0185 40.0419 14.8452C40.2919 14.669 40.4169 14.4545 40.4169 14.2017C40.4169 13.9972 40.3402 13.8253 40.1868 13.6861C40.0362 13.5469 39.8047 13.4418 39.4922 13.3707L38.3842 13.1278C37.7734 12.9886 37.3217 12.767 37.0291 12.4631C36.7393 12.1591 36.5945 11.7741 36.5945 11.3082C36.5945 10.9219 36.7024 10.5838 36.9183 10.294C37.1342 10.0043 37.4325 9.77841 37.8132 9.61648C38.1939 9.4517 38.63 9.36932 39.1214 9.36932C39.8288 9.36932 40.3857 9.52273 40.7919 9.82955C41.1982 10.1335 41.4666 10.5412 41.5973 11.0526ZM48.8416 16.1236C48.2564 16.1236 47.7521 16.017 47.3288 15.804C46.9084 15.5909 46.5845 15.3011 46.3572 14.9347C46.13 14.5653 46.0163 14.1477 46.0163 13.6818C46.0163 13.3267 46.0902 13.0114 46.2379 12.7358C46.3857 12.4574 46.5916 12.2003 46.8558 11.9645C47.12 11.7287 47.4254 11.4915 47.772 11.2528L49.1783 10.2599C49.4169 10.1037 49.603 9.93892 49.7365 9.76562C49.87 9.58949 49.9368 9.37216 49.9368 9.11364C49.9368 8.90909 49.8487 8.71307 49.6726 8.52557C49.4964 8.33807 49.2607 8.24432 48.9652 8.24432C48.7607 8.24432 48.5803 8.29403 48.424 8.39347C48.2706 8.4929 48.1499 8.62074 48.0618 8.77699C47.9766 8.9304 47.9339 9.09233 47.9339 9.26278C47.9339 9.46165 47.9879 9.66193 48.0959 9.86364C48.2067 10.0653 48.3487 10.2741 48.522 10.4901C48.6953 10.7031 48.8771 10.9247 49.0675 11.1548L53.12 16H51.6797L48.326 12.0582C48.0447 11.7259 47.7834 11.4134 47.5419 11.1207C47.3004 10.8253 47.1044 10.527 46.9538 10.2259C46.8061 9.92188 46.7322 9.59375 46.7322 9.24148C46.7322 8.84091 46.8232 8.4858 47.005 8.17614C47.1896 7.86364 47.4467 7.61932 47.7763 7.44318C48.1058 7.26705 48.4922 7.17898 48.9354 7.17898C49.3842 7.17898 49.7692 7.26705 50.0902 7.44318C50.4141 7.61648 50.6626 7.84801 50.8359 8.13778C51.0121 8.42472 51.1001 8.73864 51.1001 9.07955C51.1001 9.49432 50.9964 9.8608 50.7891 10.179C50.5845 10.4943 50.3018 10.7841 49.9411 11.0483L48.1896 12.3395C47.8487 12.5895 47.6115 12.8366 47.478 13.081C47.3473 13.3224 47.282 13.5114 47.282 13.6477C47.282 13.8977 47.3459 14.1293 47.4737 14.3423C47.6044 14.5554 47.7862 14.7259 48.0192 14.8537C48.255 14.9815 48.5305 15.0455 48.8459 15.0455C49.1697 15.0455 49.4851 14.9759 49.7919 14.8366C50.1016 14.6946 50.3814 14.4915 50.6314 14.2273C50.8842 13.9631 51.0845 13.6463 51.2322 13.277C51.38 12.9077 51.4538 12.4943 51.4538 12.0369H52.6044C52.6044 12.5994 52.5405 13.0753 52.4126 13.4645C52.2848 13.8509 52.13 14.1662 51.9482 14.4105C51.7692 14.652 51.6001 14.8409 51.4411 14.9773C51.3899 15.0227 51.3416 15.0682 51.2962 15.1136C51.2507 15.1591 51.2024 15.2045 51.1513 15.25C50.8558 15.5483 50.4979 15.7685 50.0774 15.9105C49.6598 16.0526 49.2479 16.1236 48.8416 16.1236ZM58.1591 7.27273L60.5881 14.3807H60.6861L63.1151 7.27273H64.5384L61.3977 16H59.8764L56.7358 7.27273H58.1591ZM69.8427 13.2855V9.45455H71.1211V16H69.8683V14.8665H69.8001C69.6495 15.2159 69.408 15.5071 69.0756 15.7401C68.7461 15.9702 68.3356 16.0852 67.8441 16.0852C67.4237 16.0852 67.0515 15.9929 66.7276 15.8082C66.4066 15.6207 66.1538 15.3438 65.9691 14.9773C65.7873 14.6108 65.6964 14.1577 65.6964 13.6179V9.45455H66.9705V13.4645C66.9705 13.9105 67.0941 14.2656 67.3413 14.5298C67.5884 14.794 67.9094 14.9261 68.3043 14.9261C68.543 14.9261 68.7802 14.8665 69.016 14.7472C69.2546 14.6278 69.4521 14.4474 69.6083 14.206C69.7674 13.9645 69.8455 13.6577 69.8427 13.2855ZM74.1072 7.27273V16H72.8331V7.27273H74.1072ZM77.0955 12.1136V16H75.8214V9.45455H77.0444V10.5199H77.1254C77.2759 10.1733 77.5117 9.89489 77.8327 9.68466C78.1566 9.47443 78.5643 9.36932 79.0558 9.36932C79.5018 9.36932 79.8924 9.46307 80.2276 9.65057C80.5629 9.83523 80.8228 10.1108 81.0075 10.4773C81.1921 10.8437 81.2844 11.2969 81.2844 11.8366V16H80.0103V11.9901C80.0103 11.5156 79.8867 11.1449 79.6396 10.8778C79.3924 10.608 79.0529 10.473 78.6211 10.473C78.3256 10.473 78.0629 10.5369 77.8327 10.6648C77.6055 10.7926 77.4251 10.9801 77.2915 11.2273C77.1609 11.4716 77.0955 11.767 77.0955 12.1136ZM85.8143 16.1321C85.1694 16.1321 84.614 15.9943 84.1481 15.7188C83.685 15.4403 83.3271 15.0497 83.0742 14.5469C82.8242 14.0412 82.6992 13.4489 82.6992 12.7699C82.6992 12.0994 82.8242 11.5085 83.0742 10.9972C83.3271 10.4858 83.6793 10.0866 84.131 9.79972C84.5856 9.51278 85.1168 9.36932 85.7248 9.36932C86.0941 9.36932 86.4521 9.4304 86.7987 9.55256C87.1452 9.67472 87.4563 9.86648 87.7319 10.1278C88.0075 10.3892 88.2248 10.7287 88.3839 11.1463C88.543 11.5611 88.6225 12.0653 88.6225 12.6591V13.1108H83.4194V12.1562H87.3739C87.3739 11.821 87.3058 11.5241 87.1694 11.2656C87.033 11.0043 86.8413 10.7983 86.5941 10.6477C86.3498 10.4972 86.0629 10.4219 85.7333 10.4219C85.3754 10.4219 85.0629 10.5099 84.7958 10.6861C84.5316 10.8594 84.3271 11.0866 84.1822 11.3679C84.0401 11.6463 83.9691 11.9489 83.9691 12.2756V13.0213C83.9691 13.4588 84.0458 13.831 84.1992 14.1378C84.3555 14.4446 84.5728 14.679 84.8512 14.8409C85.1296 15 85.4549 15.0795 85.8271 15.0795C86.0685 15.0795 86.2887 15.0455 86.4876 14.9773C86.6864 14.9062 86.8583 14.8011 87.0032 14.6619C87.1481 14.5227 87.2589 14.3509 87.3356 14.1463L88.5415 14.3636C88.445 14.7187 88.2717 15.0298 88.0217 15.2969C87.7745 15.5611 87.4634 15.767 87.0884 15.9148C86.7163 16.0597 86.2915 16.1321 85.8143 16.1321ZM90.0362 16V9.45455H91.2678V10.4943H91.3359C91.4553 10.142 91.6655 9.86506 91.9666 9.66335C92.2706 9.45881 92.6143 9.35653 92.9979 9.35653C93.0774 9.35653 93.1712 9.35937 93.2791 9.36506C93.3899 9.37074 93.4766 9.37784 93.5391 9.38636V10.6051C93.4879 10.5909 93.397 10.5753 93.2663 10.5582C93.1357 10.5384 93.005 10.5284 92.8743 10.5284C92.5732 10.5284 92.3047 10.5923 92.0689 10.7202C91.8359 10.8452 91.6513 11.0199 91.5149 11.2443C91.3786 11.4659 91.3104 11.7187 91.3104 12.0028V16H90.0362ZM96.4879 16.1449C96.0732 16.1449 95.6982 16.0682 95.3629 15.9148C95.0277 15.7585 94.7621 15.5327 94.5661 15.2372C94.3729 14.9418 94.2763 14.5795 94.2763 14.1506C94.2763 13.7812 94.3473 13.4773 94.4893 13.2386C94.6314 13 94.8232 12.8111 95.0646 12.6719C95.3061 12.5327 95.576 12.4276 95.8743 12.3565C96.1726 12.2855 96.4766 12.2315 96.7862 12.1946C97.1783 12.1491 97.4964 12.1122 97.7408 12.0838C97.9851 12.0526 98.1626 12.0028 98.2734 11.9347C98.3842 11.8665 98.4396 11.7557 98.4396 11.6023V11.5724C98.4396 11.2003 98.3345 10.9119 98.1243 10.7074C97.9169 10.5028 97.6072 10.4006 97.1953 10.4006C96.7663 10.4006 96.4283 10.4957 96.1811 10.6861C95.9368 10.8736 95.7678 11.0824 95.674 11.3125L94.4766 11.0398C94.6186 10.642 94.826 10.321 95.0987 10.0767C95.3743 9.82955 95.6911 9.65057 96.049 9.53977C96.407 9.42614 96.7834 9.36932 97.1783 9.36932C97.4396 9.36932 97.7166 9.40057 98.0092 9.46307C98.3047 9.52273 98.5803 9.63352 98.8359 9.79545C99.0945 9.95739 99.3061 10.1889 99.4709 10.4901C99.6357 10.7884 99.718 11.1761 99.718 11.6534V16H98.4737V15.1051H98.4226C98.3402 15.2699 98.2166 15.4318 98.0518 15.5909C97.8871 15.75 97.6754 15.8821 97.4169 15.9872C97.1584 16.0923 96.8487 16.1449 96.4879 16.1449ZM96.7649 15.1222C97.1172 15.1222 97.4183 15.0526 97.6683 14.9134C97.9212 14.7741 98.1129 14.5923 98.2436 14.3679C98.3771 14.1406 98.4439 13.8977 98.4439 13.6392V12.7955C98.3984 12.8409 98.3104 12.8835 98.1797 12.9233C98.0518 12.9602 97.9055 12.9929 97.7408 13.0213C97.576 13.0469 97.4155 13.071 97.2592 13.0938C97.103 13.1136 96.9723 13.1307 96.8672 13.1449C96.62 13.1761 96.3942 13.2287 96.1896 13.3026C95.9879 13.3764 95.826 13.483 95.7038 13.6222C95.5845 13.7585 95.5249 13.9403 95.5249 14.1676C95.5249 14.483 95.6413 14.7216 95.8743 14.8835C96.1072 15.0426 96.4041 15.1222 96.7649 15.1222ZM101.517 16V7.27273H102.792V10.5156H102.868C102.942 10.3793 103.049 10.2216 103.188 10.0426C103.327 9.86364 103.52 9.70739 103.767 9.57386C104.015 9.4375 104.341 9.36932 104.748 9.36932C105.276 9.36932 105.748 9.50284 106.162 9.76989C106.577 10.0369 106.902 10.4219 107.138 10.9247C107.377 11.4276 107.496 12.0327 107.496 12.7401C107.496 13.4474 107.378 14.054 107.142 14.5597C106.907 15.0625 106.583 15.4503 106.171 15.723C105.759 15.9929 105.289 16.1278 104.76 16.1278C104.363 16.1278 104.037 16.0611 103.784 15.9276C103.534 15.794 103.338 15.6378 103.196 15.4588C103.054 15.2798 102.945 15.1207 102.868 14.9815H102.762V16H101.517ZM102.766 12.7273C102.766 13.1875 102.833 13.5909 102.966 13.9375C103.1 14.2841 103.293 14.5554 103.546 14.7514C103.799 14.9446 104.108 15.0412 104.475 15.0412C104.855 15.0412 105.174 14.9403 105.429 14.7386C105.685 14.5341 105.878 14.2571 106.009 13.9077C106.142 13.5582 106.209 13.1648 106.209 12.7273C106.209 12.2955 106.144 11.9077 106.013 11.5639C105.885 11.2202 105.692 10.9489 105.434 10.75C105.178 10.5511 104.858 10.4517 104.475 10.4517C104.105 10.4517 103.793 10.5469 103.537 10.7372C103.284 10.9276 103.093 11.1932 102.962 11.5341C102.831 11.875 102.766 12.2727 102.766 12.7273ZM108.927 16V9.45455H110.201V16H108.927ZM109.57 8.4446C109.349 8.4446 109.158 8.37074 108.999 8.22301C108.843 8.07244 108.765 7.89347 108.765 7.68608C108.765 7.47585 108.843 7.29687 108.999 7.14915C109.158 6.99858 109.349 6.9233 109.57 6.9233C109.792 6.9233 109.981 6.99858 110.137 7.14915C110.296 7.29687 110.376 7.47585 110.376 7.68608C110.376 7.89347 110.296 8.07244 110.137 8.22301C109.981 8.37074 109.792 8.4446 109.57 8.4446ZM113.189 7.27273V16H111.915V7.27273H113.189ZM114.903 16V9.45455H116.178V16H114.903ZM115.547 8.4446C115.325 8.4446 115.135 8.37074 114.976 8.22301C114.82 8.07244 114.741 7.89347 114.741 7.68608C114.741 7.47585 114.82 7.29687 114.976 7.14915C115.135 6.99858 115.325 6.9233 115.547 6.9233C115.768 6.9233 115.957 6.99858 116.114 7.14915C116.273 7.29687 116.352 7.47585 116.352 7.68608C116.352 7.89347 116.273 8.07244 116.114 8.22301C115.957 8.37074 115.768 8.4446 115.547 8.4446ZM120.947 9.45455V10.4773H117.372V9.45455H120.947ZM118.331 7.88636H119.605V14.0781C119.605 14.3253 119.642 14.5114 119.716 14.6364C119.789 14.7585 119.885 14.8423 120.001 14.8878C120.12 14.9304 120.25 14.9517 120.389 14.9517C120.491 14.9517 120.581 14.9446 120.657 14.9304C120.734 14.9162 120.794 14.9048 120.836 14.8963L121.066 15.9489C120.993 15.9773 120.887 16.0057 120.751 16.0341C120.615 16.0653 120.444 16.0824 120.24 16.0852C119.904 16.0909 119.592 16.0312 119.302 15.9062C119.012 15.7812 118.778 15.5881 118.599 15.3267C118.42 15.0653 118.331 14.7372 118.331 14.3423V7.88636ZM122.357 16V9.45455H123.631V16H122.357ZM123 8.4446C122.778 8.4446 122.588 8.37074 122.429 8.22301C122.273 8.07244 122.195 7.89347 122.195 7.68608C122.195 7.47585 122.273 7.29687 122.429 7.14915C122.588 6.99858 122.778 6.9233 123 6.9233C123.222 6.9233 123.411 6.99858 123.567 7.14915C123.726 7.29687 123.805 7.47585 123.805 7.68608C123.805 7.89347 123.726 8.07244 123.567 8.22301C123.411 8.37074 123.222 8.4446 123 8.4446ZM128.166 16.1321C127.521 16.1321 126.966 15.9943 126.5 15.7188C126.037 15.4403 125.679 15.0497 125.426 14.5469C125.176 14.0412 125.051 13.4489 125.051 12.7699C125.051 12.0994 125.176 11.5085 125.426 10.9972C125.679 10.4858 126.031 10.0866 126.483 9.79972C126.937 9.51278 127.468 9.36932 128.076 9.36932C128.446 9.36932 128.804 9.4304 129.15 9.55256C129.497 9.67472 129.808 9.86648 130.083 10.1278C130.359 10.3892 130.576 10.7287 130.735 11.1463C130.895 11.5611 130.974 12.0653 130.974 12.6591V13.1108H125.771V12.1562H129.725C129.725 11.821 129.657 11.5241 129.521 11.2656C129.385 11.0043 129.193 10.7983 128.946 10.6477C128.701 10.4972 128.414 10.4219 128.085 10.4219C127.727 10.4219 127.414 10.5099 127.147 10.6861C126.883 10.8594 126.679 11.0866 126.534 11.3679C126.392 11.6463 126.321 11.9489 126.321 12.2756V13.0213C126.321 13.4588 126.397 13.831 126.551 14.1378C126.707 14.4446 126.924 14.679 127.203 14.8409C127.481 15 127.806 15.0795 128.179 15.0795C128.42 15.0795 128.64 15.0455 128.839 14.9773C129.038 14.9062 129.21 14.8011 129.355 14.6619C129.5 14.5227 129.61 14.3509 129.687 14.1463L130.893 14.3636C130.797 14.7187 130.623 15.0298 130.373 15.2969C130.126 15.5611 129.815 15.767 129.44 15.9148C129.068 16.0597 128.643 16.1321 128.166 16.1321ZM137.293 11.0526L136.138 11.2571C136.089 11.1094 136.013 10.9687 135.908 10.8352C135.805 10.7017 135.666 10.5923 135.49 10.5071C135.314 10.4219 135.094 10.3793 134.83 10.3793C134.469 10.3793 134.168 10.4602 133.926 10.6222C133.685 10.7812 133.564 10.9872 133.564 11.2401C133.564 11.4588 133.645 11.6349 133.807 11.7685C133.969 11.902 134.23 12.0114 134.591 12.0966L135.631 12.3352C136.233 12.4744 136.682 12.6889 136.977 12.9787C137.273 13.2685 137.42 13.6449 137.42 14.108C137.42 14.5 137.307 14.8494 137.08 15.1562C136.855 15.4602 136.541 15.6989 136.138 15.8722C135.737 16.0455 135.273 16.1321 134.744 16.1321C134.011 16.1321 133.413 15.9759 132.95 15.6634C132.487 15.348 132.203 14.9006 132.098 14.321L133.33 14.1335C133.406 14.4545 133.564 14.6974 133.803 14.8622C134.041 15.0241 134.352 15.1051 134.736 15.1051C135.153 15.1051 135.487 15.0185 135.737 14.8452C135.987 14.669 136.112 14.4545 136.112 14.2017C136.112 13.9972 136.036 13.8253 135.882 13.6861C135.732 13.5469 135.5 13.4418 135.188 13.3707L134.08 13.1278C133.469 12.9886 133.017 12.767 132.724 12.4631C132.435 12.1591 132.29 11.7741 132.29 11.3082C132.29 10.9219 132.398 10.5838 132.614 10.294C132.83 10.0043 133.128 9.77841 133.509 9.61648C133.889 9.4517 134.325 9.36932 134.817 9.36932C135.524 9.36932 136.081 9.52273 136.487 9.82955C136.893 10.1335 137.162 10.5412 137.293 11.0526Z" fill="#985FA6"/>
</svg>
