<svg width="174" height="23" viewBox="0 0 174 23" fill="none" xmlns="http://www.w3.org/2000/svg">
<rect width="174" height="23" rx="11.5" fill="#E2EEE4"/>
<path d="M20.2074 10.1108H18.8778C18.8267 9.8267 18.7315 9.5767 18.5923 9.3608C18.4531 9.14489 18.2827 8.96165 18.081 8.81108C17.8793 8.66051 17.6534 8.54687 17.4034 8.47017C17.1563 8.39347 16.8935 8.35511 16.6151 8.35511C16.1122 8.35511 15.6619 8.48153 15.2642 8.73438C14.8693 8.98722 14.5568 9.35795 14.3267 9.84659C14.0994 10.3352 13.9858 10.9318 13.9858 11.6364C13.9858 12.3466 14.0994 12.946 14.3267 13.4347C14.5568 13.9233 14.8707 14.2926 15.2685 14.5426C15.6662 14.7926 16.1136 14.9176 16.6108 14.9176C16.8864 14.9176 17.1477 14.8807 17.3949 14.8068C17.6449 14.7301 17.8707 14.6179 18.0724 14.4702C18.2741 14.3224 18.4446 14.142 18.5838 13.929C18.7259 13.7131 18.8239 13.4659 18.8778 13.1875L20.2074 13.1918C20.1364 13.6207 19.9986 14.0156 19.794 14.3764C19.5923 14.7344 19.3324 15.044 19.0142 15.3054C18.6989 15.5639 18.3381 15.7642 17.9318 15.9062C17.5256 16.0483 17.0824 16.1193 16.6023 16.1193C15.8466 16.1193 15.1733 15.9403 14.5824 15.5824C13.9915 15.2216 13.5256 14.706 13.1847 14.0355C12.8466 13.3651 12.6776 12.5653 12.6776 11.6364C12.6776 10.7045 12.848 9.90483 13.1889 9.23722C13.5298 8.56676 13.9957 8.05256 14.5866 7.6946C15.1776 7.33381 15.8494 7.15341 16.6023 7.15341C17.0653 7.15341 17.4972 7.22017 17.8977 7.35369C18.3011 7.48437 18.6634 7.67756 18.9844 7.93324C19.3054 8.18608 19.571 8.49574 19.7812 8.86222C19.9915 9.22585 20.1335 9.64205 20.2074 10.1108ZM24.4379 16.1321C23.8242 16.1321 23.2887 15.9915 22.8313 15.7102C22.3739 15.429 22.0188 15.0355 21.766 14.5298C21.5131 14.0241 21.3867 13.4332 21.3867 12.7571C21.3867 12.0781 21.5131 11.4844 21.766 10.9759C22.0188 10.4673 22.3739 10.0724 22.8313 9.79119C23.2887 9.50994 23.8242 9.36932 24.4379 9.36932C25.0515 9.36932 25.587 9.50994 26.0444 9.79119C26.5018 10.0724 26.8569 10.4673 27.1097 10.9759C27.3626 11.4844 27.489 12.0781 27.489 12.7571C27.489 13.4332 27.3626 14.0241 27.1097 14.5298C26.8569 15.0355 26.5018 15.429 26.0444 15.7102C25.587 15.9915 25.0515 16.1321 24.4379 16.1321ZM24.4421 15.0625C24.8398 15.0625 25.1694 14.9574 25.4308 14.7472C25.6921 14.5369 25.8853 14.2571 26.0103 13.9077C26.1381 13.5582 26.2021 13.1733 26.2021 12.7528C26.2021 12.3352 26.1381 11.9517 26.0103 11.6023C25.8853 11.25 25.6921 10.9673 25.4308 10.7543C25.1694 10.5412 24.8398 10.4347 24.4421 10.4347C24.0415 10.4347 23.7092 10.5412 23.445 10.7543C23.1836 10.9673 22.989 11.25 22.8612 11.6023C22.7362 11.9517 22.6737 12.3352 22.6737 12.7528C22.6737 13.1733 22.7362 13.5582 22.8612 13.9077C22.989 14.2571 23.1836 14.5369 23.445 14.7472C23.7092 14.9574 24.0415 15.0625 24.4421 15.0625ZM28.9112 16V9.45455H30.1342V10.5199H30.2152C30.3516 10.1591 30.5746 9.87784 30.8842 9.67614C31.1939 9.47159 31.5646 9.36932 31.9964 9.36932C32.4339 9.36932 32.8004 9.47159 33.0959 9.67614C33.3942 9.88068 33.6143 10.1619 33.7564 10.5199H33.8246C33.9808 10.1705 34.2294 9.89205 34.5703 9.68466C34.9112 9.47443 35.3175 9.36932 35.7891 9.36932C36.3828 9.36932 36.8672 9.5554 37.2422 9.92756C37.62 10.2997 37.8089 10.8608 37.8089 11.6108V16H36.5348V11.7301C36.5348 11.2869 36.4141 10.9659 36.1726 10.767C35.9311 10.5682 35.6428 10.4688 35.3075 10.4688C34.8928 10.4688 34.5703 10.5966 34.3402 10.8523C34.1101 11.1051 33.995 11.4304 33.995 11.8281V16H32.7251V11.6491C32.7251 11.294 32.6143 11.0085 32.3928 10.7926C32.1712 10.5767 31.8828 10.4688 31.5277 10.4688C31.2862 10.4688 31.0632 10.5327 30.8587 10.6605C30.657 10.7855 30.4936 10.9602 30.3686 11.1847C30.2464 11.4091 30.1854 11.669 30.1854 11.9645V16H28.9112ZM39.5167 18.4545V9.45455H40.761V10.5156H40.8675C40.9414 10.3793 41.0479 10.2216 41.1871 10.0426C41.3263 9.86364 41.5195 9.70739 41.7667 9.57386C42.0138 9.4375 42.3406 9.36932 42.7468 9.36932C43.2752 9.36932 43.7468 9.50284 44.1616 9.76989C44.5763 10.0369 44.9016 10.4219 45.1374 10.9247C45.3761 11.4276 45.4954 12.0327 45.4954 12.7401C45.4954 13.4474 45.3775 14.054 45.1417 14.5597C44.9059 15.0625 44.582 15.4503 44.1701 15.723C43.7582 15.9929 43.288 16.1278 42.7596 16.1278C42.3619 16.1278 42.0366 16.0611 41.7837 15.9276C41.5337 15.794 41.3377 15.6378 41.1957 15.4588C41.0536 15.2798 40.9442 15.1207 40.8675 14.9815H40.7908V18.4545H39.5167ZM40.7653 12.7273C40.7653 13.1875 40.832 13.5909 40.9656 13.9375C41.0991 14.2841 41.2923 14.5554 41.5451 14.7514C41.7979 14.9446 42.1076 15.0412 42.4741 15.0412C42.8548 15.0412 43.1729 14.9403 43.4286 14.7386C43.6843 14.5341 43.8775 14.2571 44.0082 13.9077C44.1417 13.5582 44.2085 13.1648 44.2085 12.7273C44.2085 12.2955 44.1431 11.9077 44.0124 11.5639C43.8846 11.2202 43.6914 10.9489 43.4329 10.75C43.1772 10.5511 42.8576 10.4517 42.4741 10.4517C42.1048 10.4517 41.7923 10.5469 41.5366 10.7372C41.2837 10.9276 41.092 11.1932 40.9613 11.5341C40.8306 11.875 40.7653 12.2727 40.7653 12.7273ZM48.1971 7.27273V16H46.9229V7.27273H48.1971ZM49.9112 16V9.45455H51.1854V16H49.9112ZM50.5547 8.4446C50.3331 8.4446 50.1428 8.37074 49.9837 8.22301C49.8274 8.07244 49.7493 7.89347 49.7493 7.68608C49.7493 7.47585 49.8274 7.29687 49.9837 7.14915C50.1428 6.99858 50.3331 6.9233 50.5547 6.9233C50.7763 6.9233 50.9652 6.99858 51.1214 7.14915C51.2805 7.29687 51.3601 7.47585 51.3601 7.68608C51.3601 7.89347 51.2805 8.07244 51.1214 8.22301C50.9652 8.37074 50.7763 8.4446 50.5547 8.4446ZM54.8043 16.1449C54.3896 16.1449 54.0146 16.0682 53.6793 15.9148C53.3441 15.7585 53.0785 15.5327 52.8825 15.2372C52.6893 14.9418 52.5927 14.5795 52.5927 14.1506C52.5927 13.7812 52.6637 13.4773 52.8058 13.2386C52.9478 13 53.1396 12.8111 53.381 12.6719C53.6225 12.5327 53.8924 12.4276 54.1907 12.3565C54.489 12.2855 54.793 12.2315 55.1026 12.1946C55.4947 12.1491 55.8129 12.1122 56.0572 12.0838C56.3015 12.0526 56.479 12.0028 56.5898 11.9347C56.7006 11.8665 56.756 11.7557 56.756 11.6023V11.5724C56.756 11.2003 56.6509 10.9119 56.4407 10.7074C56.2333 10.5028 55.9237 10.4006 55.5117 10.4006C55.0827 10.4006 54.7447 10.4957 54.4975 10.6861C54.2532 10.8736 54.0842 11.0824 53.9904 11.3125L52.793 11.0398C52.935 10.642 53.1424 10.321 53.4151 10.0767C53.6907 9.82955 54.0075 9.65057 54.3654 9.53977C54.7234 9.42614 55.0998 9.36932 55.4947 9.36932C55.756 9.36932 56.033 9.40057 56.3256 9.46307C56.6211 9.52273 56.8967 9.63352 57.1523 9.79545C57.4109 9.95739 57.6225 10.1889 57.7873 10.4901C57.9521 10.7884 58.0344 11.1761 58.0344 11.6534V16H56.7901V15.1051H56.739C56.6566 15.2699 56.533 15.4318 56.3683 15.5909C56.2035 15.75 55.9918 15.8821 55.7333 15.9872C55.4748 16.0923 55.1651 16.1449 54.8043 16.1449ZM55.0813 15.1222C55.4336 15.1222 55.7347 15.0526 55.9847 14.9134C56.2376 14.7741 56.4293 14.5923 56.56 14.3679C56.6935 14.1406 56.7603 13.8977 56.7603 13.6392V12.7955C56.7148 12.8409 56.6268 12.8835 56.4961 12.9233C56.3683 12.9602 56.2219 12.9929 56.0572 13.0213C55.8924 13.0469 55.7319 13.071 55.5756 13.0938C55.4194 13.1136 55.2887 13.1307 55.1836 13.1449C54.9364 13.1761 54.7106 13.2287 54.506 13.3026C54.3043 13.3764 54.1424 13.483 54.0202 13.6222C53.9009 13.7585 53.8413 13.9403 53.8413 14.1676C53.8413 14.483 53.9577 14.7216 54.1907 14.8835C54.4237 15.0426 54.7205 15.1222 55.0813 15.1222ZM61.0057 12.1136V16H59.7315V9.45455H60.9545V10.5199H61.0355C61.1861 10.1733 61.4219 9.89489 61.7429 9.68466C62.0668 9.47443 62.4744 9.36932 62.9659 9.36932C63.4119 9.36932 63.8026 9.46307 64.1378 9.65057C64.473 9.83523 64.733 10.1108 64.9176 10.4773C65.1023 10.8437 65.1946 11.2969 65.1946 11.8366V16H63.9205V11.9901C63.9205 11.5156 63.7969 11.1449 63.5497 10.8778C63.3026 10.608 62.9631 10.473 62.5312 10.473C62.2358 10.473 61.973 10.5369 61.7429 10.6648C61.5156 10.7926 61.3352 10.9801 61.2017 11.2273C61.071 11.4716 61.0057 11.767 61.0057 12.1136ZM69.6605 16.1321C69.027 16.1321 68.4815 15.9886 68.0241 15.7017C67.5696 15.4119 67.2202 15.0128 66.9759 14.5043C66.7315 13.9957 66.6094 13.4134 66.6094 12.7571C66.6094 12.0923 66.7344 11.5057 66.9844 10.9972C67.2344 10.4858 67.5866 10.0866 68.0412 9.79972C68.4957 9.51278 69.0313 9.36932 69.6477 9.36932C70.1449 9.36932 70.5881 9.46165 70.9773 9.64631C71.3665 9.82812 71.6804 10.0838 71.919 10.4134C72.1605 10.7429 72.304 11.1278 72.3494 11.5682H71.1094C71.0412 11.2614 70.8849 10.9972 70.6406 10.7756C70.3991 10.554 70.0753 10.4432 69.669 10.4432C69.3139 10.4432 69.0028 10.5369 68.7358 10.7244C68.4716 10.9091 68.2656 11.1733 68.1179 11.517C67.9702 11.858 67.8963 12.2614 67.8963 12.7273C67.8963 13.2045 67.9688 13.6165 68.1136 13.9631C68.2585 14.3097 68.4631 14.5781 68.7273 14.7685C68.9943 14.9588 69.3082 15.054 69.669 15.054C69.9105 15.054 70.1293 15.0099 70.3253 14.9219C70.5241 14.831 70.6903 14.7017 70.8239 14.5341C70.9602 14.3665 71.0554 14.1648 71.1094 13.929H72.3494C72.304 14.3523 72.1662 14.7301 71.9361 15.0625C71.706 15.3949 71.3977 15.6562 71.0114 15.8466C70.6278 16.0369 70.1776 16.1321 69.6605 16.1321ZM76.533 16.1321C75.8881 16.1321 75.3327 15.9943 74.8668 15.7188C74.4038 15.4403 74.0458 15.0497 73.793 14.5469C73.543 14.0412 73.418 13.4489 73.418 12.7699C73.418 12.0994 73.543 11.5085 73.793 10.9972C74.0458 10.4858 74.3981 10.0866 74.8498 9.79972C75.3043 9.51278 75.8356 9.36932 76.4435 9.36932C76.8129 9.36932 77.1708 9.4304 77.5174 9.55256C77.864 9.67472 78.1751 9.86648 78.4506 10.1278C78.7262 10.3892 78.9435 10.7287 79.1026 11.1463C79.2617 11.5611 79.3413 12.0653 79.3413 12.6591V13.1108H74.1381V12.1562H78.0927C78.0927 11.821 78.0245 11.5241 77.8881 11.2656C77.7518 11.0043 77.56 10.7983 77.3129 10.6477C77.0685 10.4972 76.7816 10.4219 76.4521 10.4219C76.0941 10.4219 75.7816 10.5099 75.5146 10.6861C75.2504 10.8594 75.0458 11.0866 74.9009 11.3679C74.7589 11.6463 74.6879 11.9489 74.6879 12.2756V13.0213C74.6879 13.4588 74.7646 13.831 74.918 14.1378C75.0742 14.4446 75.2915 14.679 75.57 14.8409C75.8484 15 76.1737 15.0795 76.5458 15.0795C76.7873 15.0795 77.0075 15.0455 77.2063 14.9773C77.4052 14.9062 77.5771 14.8011 77.7219 14.6619C77.8668 14.5227 77.9776 14.3509 78.0543 14.1463L79.2603 14.3636C79.1637 14.7187 78.9904 15.0298 78.7404 15.2969C78.4933 15.5611 78.1822 15.767 77.8072 15.9148C77.435 16.0597 77.0103 16.1321 76.533 16.1321ZM86.4705 16.1236C85.8853 16.1236 85.381 16.017 84.9577 15.804C84.5373 15.5909 84.2134 15.3011 83.9862 14.9347C83.7589 14.5653 83.6452 14.1477 83.6452 13.6818C83.6452 13.3267 83.7191 13.0114 83.8668 12.7358C84.0146 12.4574 84.2205 12.2003 84.4847 11.9645C84.7489 11.7287 85.0543 11.4915 85.4009 11.2528L86.8072 10.2599C87.0458 10.1037 87.2319 9.93892 87.3654 9.76562C87.4989 9.58949 87.5657 9.37216 87.5657 9.11364C87.5657 8.90909 87.4776 8.71307 87.3015 8.52557C87.1254 8.33807 86.8896 8.24432 86.5941 8.24432C86.3896 8.24432 86.2092 8.29403 86.0529 8.39347C85.8995 8.4929 85.7788 8.62074 85.6907 8.77699C85.6055 8.9304 85.5629 9.09233 85.5629 9.26278C85.5629 9.46165 85.6168 9.66193 85.7248 9.86364C85.8356 10.0653 85.9776 10.2741 86.1509 10.4901C86.3242 10.7031 86.506 10.9247 86.6964 11.1548L90.7489 16H89.3086L85.9549 12.0582C85.6737 11.7259 85.4123 11.4134 85.1708 11.1207C84.9293 10.8253 84.7333 10.527 84.5827 10.2259C84.435 9.92188 84.3612 9.59375 84.3612 9.24148C84.3612 8.84091 84.4521 8.4858 84.6339 8.17614C84.8185 7.86364 85.0756 7.61932 85.4052 7.44318C85.7347 7.26705 86.1211 7.17898 86.5643 7.17898C87.0131 7.17898 87.3981 7.26705 87.7191 7.44318C88.043 7.61648 88.2915 7.84801 88.4648 8.13778C88.641 8.42472 88.729 8.73864 88.729 9.07955C88.729 9.49432 88.6254 9.8608 88.418 10.179C88.2134 10.4943 87.9308 10.7841 87.57 11.0483L85.8185 12.3395C85.4776 12.5895 85.2404 12.8366 85.1069 13.081C84.9762 13.3224 84.9109 13.5114 84.9109 13.6477C84.9109 13.8977 84.9748 14.1293 85.1026 14.3423C85.2333 14.5554 85.4151 14.7259 85.6481 14.8537C85.8839 14.9815 86.1594 15.0455 86.4748 15.0455C86.7987 15.0455 87.114 14.9759 87.4208 14.8366C87.7305 14.6946 88.0103 14.4915 88.2603 14.2273C88.5131 13.9631 88.7134 13.6463 88.8612 13.277C89.0089 12.9077 89.0827 12.4943 89.0827 12.0369H90.2333C90.2333 12.5994 90.1694 13.0753 90.0415 13.4645C89.9137 13.8509 89.7589 14.1662 89.5771 14.4105C89.3981 14.652 89.229 14.8409 89.07 14.9773C89.0188 15.0227 88.9705 15.0682 88.9251 15.1136C88.8796 15.1591 88.8313 15.2045 88.7802 15.25C88.4847 15.5483 88.1268 15.7685 87.7063 15.9105C87.2887 16.0526 86.8768 16.1236 86.4705 16.1236ZM95.0252 16V7.27273H98.136C98.8121 7.27273 99.3732 7.3892 99.8192 7.62216C100.268 7.85511 100.603 8.17756 100.825 8.58949C101.047 8.99858 101.157 9.47159 101.157 10.0085C101.157 10.5426 101.045 11.0128 100.821 11.419C100.599 11.8224 100.264 12.1364 99.815 12.3608C99.369 12.5852 98.8079 12.6974 98.1317 12.6974H95.7752V11.5639H98.0124C98.4386 11.5639 98.7852 11.5028 99.0522 11.3807C99.3221 11.2585 99.5195 11.081 99.6445 10.848C99.7695 10.6151 99.832 10.3352 99.832 10.0085C99.832 9.67898 99.7681 9.39347 99.6403 9.15199C99.5153 8.91051 99.3178 8.72585 99.0479 8.59801C98.7809 8.46733 98.43 8.40199 97.9954 8.40199H96.342V16H95.0252ZM99.3335 12.0625L101.49 16H99.9897L97.8761 12.0625H99.3335ZM105.396 16.1321C104.751 16.1321 104.196 15.9943 103.73 15.7188C103.267 15.4403 102.909 15.0497 102.656 14.5469C102.406 14.0412 102.281 13.4489 102.281 12.7699C102.281 12.0994 102.406 11.5085 102.656 10.9972C102.909 10.4858 103.261 10.0866 103.713 9.79972C104.168 9.51278 104.699 9.36932 105.307 9.36932C105.676 9.36932 106.034 9.4304 106.381 9.55256C106.727 9.67472 107.038 9.86648 107.314 10.1278C107.589 10.3892 107.807 10.7287 107.966 11.1463C108.125 11.5611 108.205 12.0653 108.205 12.6591V13.1108H103.001V12.1562H106.956C106.956 11.821 106.888 11.5241 106.751 11.2656C106.615 11.0043 106.423 10.7983 106.176 10.6477C105.932 10.4972 105.645 10.4219 105.315 10.4219C104.957 10.4219 104.645 10.5099 104.378 10.6861C104.114 10.8594 103.909 11.0866 103.764 11.3679C103.622 11.6463 103.551 11.9489 103.551 12.2756V13.0213C103.551 13.4588 103.628 13.831 103.781 14.1378C103.938 14.4446 104.155 14.679 104.433 14.8409C104.712 15 105.037 15.0795 105.409 15.0795C105.651 15.0795 105.871 15.0455 106.07 14.9773C106.268 14.9062 106.44 14.8011 106.585 14.6619C106.73 14.5227 106.841 14.3509 106.918 14.1463L108.124 14.3636C108.027 14.7187 107.854 15.0298 107.604 15.2969C107.357 15.5611 107.045 15.767 106.67 15.9148C106.298 16.0597 105.874 16.1321 105.396 16.1321ZM112.363 18.5909C111.843 18.5909 111.395 18.5227 111.02 18.3864C110.648 18.25 110.344 18.0696 110.108 17.8452C109.873 17.6207 109.696 17.375 109.58 17.108L110.675 16.6562C110.752 16.7812 110.854 16.9134 110.982 17.0526C111.113 17.1946 111.289 17.3153 111.51 17.4148C111.735 17.5142 112.023 17.5639 112.375 17.5639C112.858 17.5639 113.257 17.446 113.573 17.2102C113.888 16.9773 114.046 16.6051 114.046 16.0938V14.8068H113.965C113.888 14.946 113.777 15.1009 113.632 15.2713C113.49 15.4418 113.294 15.5895 113.044 15.7145C112.794 15.8395 112.469 15.902 112.069 15.902C111.551 15.902 111.086 15.7812 110.671 15.5398C110.259 15.2955 109.932 14.9361 109.691 14.4616C109.452 13.9844 109.333 13.3977 109.333 12.7017C109.333 12.0057 109.451 11.4091 109.686 10.9119C109.925 10.4148 110.252 10.0341 110.667 9.76989C111.081 9.50284 111.551 9.36932 112.077 9.36932C112.483 9.36932 112.811 9.4375 113.061 9.57386C113.311 9.70739 113.506 9.86364 113.645 10.0426C113.787 10.2216 113.897 10.3793 113.973 10.5156H114.067V9.45455H115.316V16.1449C115.316 16.7074 115.185 17.169 114.924 17.5298C114.662 17.8906 114.309 18.1577 113.863 18.331C113.419 18.5043 112.919 18.5909 112.363 18.5909ZM112.35 14.8452C112.716 14.8452 113.026 14.7599 113.279 14.5895C113.534 14.4162 113.728 14.169 113.858 13.848C113.992 13.5241 114.059 13.1364 114.059 12.6847C114.059 12.2443 113.993 11.8565 113.863 11.5213C113.732 11.1861 113.54 10.9247 113.287 10.7372C113.034 10.5469 112.722 10.4517 112.35 10.4517C111.966 10.4517 111.647 10.5511 111.391 10.75C111.135 10.946 110.942 11.2131 110.811 11.5511C110.684 11.8892 110.62 12.267 110.62 12.6847C110.62 13.1136 110.685 13.4901 110.816 13.8139C110.946 14.1378 111.14 14.3906 111.395 14.5724C111.654 14.7543 111.972 14.8452 112.35 14.8452ZM121.171 13.2855V9.45455H122.449V16H121.196V14.8665H121.128C120.978 15.2159 120.736 15.5071 120.404 15.7401C120.074 15.9702 119.664 16.0852 119.172 16.0852C118.752 16.0852 118.38 15.9929 118.056 15.8082C117.735 15.6207 117.482 15.3438 117.297 14.9773C117.115 14.6108 117.025 14.1577 117.025 13.6179V9.45455H118.299V13.4645C118.299 13.9105 118.422 14.2656 118.669 14.5298C118.917 14.794 119.238 14.9261 119.632 14.9261C119.871 14.9261 120.108 14.8665 120.344 14.7472C120.583 14.6278 120.78 14.4474 120.936 14.206C121.096 13.9645 121.174 13.6577 121.171 13.2855ZM125.435 7.27273V16H124.161V7.27273H125.435ZM129.054 16.1449C128.64 16.1449 128.265 16.0682 127.929 15.9148C127.594 15.7585 127.328 15.5327 127.132 15.2372C126.939 14.9418 126.843 14.5795 126.843 14.1506C126.843 13.7812 126.914 13.4773 127.056 13.2386C127.198 13 127.39 12.8111 127.631 12.6719C127.873 12.5327 128.142 12.4276 128.441 12.3565C128.739 12.2855 129.043 12.2315 129.353 12.1946C129.745 12.1491 130.063 12.1122 130.307 12.0838C130.551 12.0526 130.729 12.0028 130.84 11.9347C130.951 11.8665 131.006 11.7557 131.006 11.6023V11.5724C131.006 11.2003 130.901 10.9119 130.691 10.7074C130.483 10.5028 130.174 10.4006 129.762 10.4006C129.333 10.4006 128.995 10.4957 128.748 10.6861C128.503 10.8736 128.334 11.0824 128.24 11.3125L127.043 11.0398C127.185 10.642 127.392 10.321 127.665 10.0767C127.941 9.82955 128.257 9.65057 128.615 9.53977C128.973 9.42614 129.35 9.36932 129.745 9.36932C130.006 9.36932 130.283 9.40057 130.576 9.46307C130.871 9.52273 131.147 9.63352 131.402 9.79545C131.661 9.95739 131.873 10.1889 132.037 10.4901C132.202 10.7884 132.284 11.1761 132.284 11.6534V16H131.04V15.1051H130.989C130.907 15.2699 130.783 15.4318 130.618 15.5909C130.453 15.75 130.242 15.8821 129.983 15.9872C129.725 16.0923 129.415 16.1449 129.054 16.1449ZM129.331 15.1222C129.684 15.1222 129.985 15.0526 130.235 14.9134C130.488 14.7741 130.679 14.5923 130.81 14.3679C130.944 14.1406 131.01 13.8977 131.01 13.6392V12.7955C130.965 12.8409 130.877 12.8835 130.746 12.9233C130.618 12.9602 130.472 12.9929 130.307 13.0213C130.142 13.0469 129.982 13.071 129.826 13.0938C129.669 13.1136 129.539 13.1307 129.434 13.1449C129.186 13.1761 128.961 13.2287 128.756 13.3026C128.554 13.3764 128.392 13.483 128.27 13.6222C128.151 13.7585 128.091 13.9403 128.091 14.1676C128.091 14.483 128.208 14.7216 128.441 14.8835C128.674 15.0426 128.971 15.1222 129.331 15.1222ZM137.037 9.45455V10.4773H133.462V9.45455H137.037ZM134.42 7.88636H135.695V14.0781C135.695 14.3253 135.732 14.5114 135.805 14.6364C135.879 14.7585 135.974 14.8423 136.091 14.8878C136.21 14.9304 136.339 14.9517 136.479 14.9517C136.581 14.9517 136.67 14.9446 136.747 14.9304C136.824 14.9162 136.884 14.9048 136.926 14.8963L137.156 15.9489C137.082 15.9773 136.977 16.0057 136.841 16.0341C136.705 16.0653 136.534 16.0824 136.33 16.0852C135.994 16.0909 135.682 16.0312 135.392 15.9062C135.102 15.7812 134.868 15.5881 134.689 15.3267C134.51 15.0653 134.42 14.7372 134.42 14.3423V7.88636ZM138.446 16V9.45455H139.721V16H138.446ZM139.09 8.4446C138.868 8.4446 138.678 8.37074 138.519 8.22301C138.363 8.07244 138.284 7.89347 138.284 7.68608C138.284 7.47585 138.363 7.29687 138.519 7.14915C138.678 6.99858 138.868 6.9233 139.09 6.9233C139.311 6.9233 139.5 6.99858 139.657 7.14915C139.816 7.29687 139.895 7.47585 139.895 7.68608C139.895 7.89347 139.816 8.07244 139.657 8.22301C139.5 8.37074 139.311 8.4446 139.09 8.4446ZM144.192 16.1321C143.578 16.1321 143.043 15.9915 142.585 15.7102C142.128 15.429 141.773 15.0355 141.52 14.5298C141.267 14.0241 141.141 13.4332 141.141 12.7571C141.141 12.0781 141.267 11.4844 141.52 10.9759C141.773 10.4673 142.128 10.0724 142.585 9.79119C143.043 9.50994 143.578 9.36932 144.192 9.36932C144.805 9.36932 145.341 9.50994 145.798 9.79119C146.256 10.0724 146.611 10.4673 146.864 10.9759C147.116 11.4844 147.243 12.0781 147.243 12.7571C147.243 13.4332 147.116 14.0241 146.864 14.5298C146.611 15.0355 146.256 15.429 145.798 15.7102C145.341 15.9915 144.805 16.1321 144.192 16.1321ZM144.196 15.0625C144.594 15.0625 144.923 14.9574 145.185 14.7472C145.446 14.5369 145.639 14.2571 145.764 13.9077C145.892 13.5582 145.956 13.1733 145.956 12.7528C145.956 12.3352 145.892 11.9517 145.764 11.6023C145.639 11.25 145.446 10.9673 145.185 10.7543C144.923 10.5412 144.594 10.4347 144.196 10.4347C143.795 10.4347 143.463 10.5412 143.199 10.7543C142.938 10.9673 142.743 11.25 142.615 11.6023C142.49 11.9517 142.428 12.3352 142.428 12.7528C142.428 13.1733 142.49 13.5582 142.615 13.9077C142.743 14.2571 142.938 14.5369 143.199 14.7472C143.463 14.9574 143.795 15.0625 144.196 15.0625ZM149.939 12.1136V16H148.665V9.45455H149.888V10.5199H149.969C150.12 10.1733 150.355 9.89489 150.676 9.68466C151 9.47443 151.408 9.36932 151.9 9.36932C152.346 9.36932 152.736 9.46307 153.071 9.65057C153.407 9.83523 153.667 10.1108 153.851 10.4773C154.036 10.8437 154.128 11.2969 154.128 11.8366V16H152.854V11.9901C152.854 11.5156 152.73 11.1449 152.483 10.8778C152.236 10.608 151.897 10.473 151.465 10.473C151.169 10.473 150.907 10.5369 150.676 10.6648C150.449 10.7926 150.269 10.9801 150.135 11.2273C150.005 11.4716 149.939 11.767 149.939 12.1136ZM160.742 11.0526L159.587 11.2571C159.539 11.1094 159.462 10.9687 159.357 10.8352C159.255 10.7017 159.115 10.5923 158.939 10.5071C158.763 10.4219 158.543 10.3793 158.279 10.3793C157.918 10.3793 157.617 10.4602 157.375 10.6222C157.134 10.7812 157.013 10.9872 157.013 11.2401C157.013 11.4588 157.094 11.6349 157.256 11.7685C157.418 11.902 157.679 12.0114 158.04 12.0966L159.08 12.3352C159.682 12.4744 160.131 12.6889 160.426 12.9787C160.722 13.2685 160.87 13.6449 160.87 14.108C160.87 14.5 160.756 14.8494 160.529 15.1562C160.304 15.4602 159.99 15.6989 159.587 15.8722C159.186 16.0455 158.722 16.1321 158.194 16.1321C157.461 16.1321 156.863 15.9759 156.4 15.6634C155.936 15.348 155.652 14.9006 155.547 14.321L156.779 14.1335C156.855 14.4545 157.013 14.6974 157.252 14.8622C157.49 15.0241 157.801 15.1051 158.185 15.1051C158.603 15.1051 158.936 15.0185 159.186 14.8452C159.436 14.669 159.561 14.4545 159.561 14.2017C159.561 13.9972 159.485 13.8253 159.331 13.6861C159.181 13.5469 158.949 13.4418 158.637 13.3707L157.529 13.1278C156.918 12.9886 156.466 12.767 156.174 12.4631C155.884 12.1591 155.739 11.7741 155.739 11.3082C155.739 10.9219 155.847 10.5838 156.063 10.294C156.279 10.0043 156.577 9.77841 156.958 9.61648C157.338 9.4517 157.775 9.36932 158.266 9.36932C158.973 9.36932 159.53 9.52273 159.936 9.82955C160.343 10.1335 160.611 10.5412 160.742 11.0526Z" fill="#58AD75"/>
</svg>
