<svg width="672" height="398" viewBox="0 0 672 398" fill="none" xmlns="http://www.w3.org/2000/svg">
<rect width="672" height="398" fill="white"/>
<path d="M632 305.988L88.5968 305.988" stroke="#B1B5CF" stroke-width="0.808654"/>
<path d="M61.5888 310.556C60.8628 310.553 60.2426 310.361 59.728 309.982C59.2134 309.602 58.8198 309.049 58.5471 308.323C58.2745 307.597 58.1382 306.722 58.1382 305.699C58.1382 304.679 58.2745 303.808 58.5471 303.085C58.8228 302.362 59.218 301.811 59.7326 301.431C60.2502 301.051 60.869 300.861 61.5888 300.861C62.3086 300.861 62.9258 301.053 63.4404 301.436C63.955 301.815 64.3486 302.367 64.6212 303.09C64.8969 303.809 65.0348 304.679 65.0348 305.699C65.0348 306.725 64.8984 307.602 64.6258 308.327C64.3532 309.05 63.9596 309.603 63.445 309.986C62.9304 310.366 62.3117 310.556 61.5888 310.556ZM61.5888 309.329C62.2259 309.329 62.7237 309.018 63.082 308.396C63.4435 307.775 63.6242 306.876 63.6242 305.699C63.6242 304.918 63.5415 304.258 63.3761 303.719C63.2138 303.177 62.9794 302.766 62.6731 302.488C62.3699 302.206 62.0084 302.065 61.5888 302.065C60.9547 302.065 60.457 302.377 60.0955 303.002C59.7341 303.627 59.5518 304.526 59.5488 305.699C59.5488 306.484 59.6299 307.147 59.7923 307.689C59.9577 308.228 60.192 308.637 60.4953 308.916C60.7985 309.191 61.163 309.329 61.5888 309.329Z" fill="#131520"/>
<path d="M632 252.982L88.5967 252.405" stroke="#B1B5CF" stroke-width="0.808654"/>
<path d="M43.1309 257.356V256.327L46.315 253.028C46.655 252.67 46.9353 252.356 47.1558 252.086C47.3794 251.814 47.5464 251.555 47.6566 251.31C47.7669 251.065 47.8221 250.805 47.8221 250.529C47.8221 250.216 47.7485 249.947 47.6015 249.72C47.4545 249.49 47.2539 249.314 46.9996 249.192C46.7454 249.066 46.459 249.003 46.1404 249.003C45.8035 249.003 45.5094 249.072 45.2583 249.21C45.0071 249.348 44.8141 249.543 44.6793 249.794C44.5446 250.045 44.4772 250.339 44.4772 250.676H43.1218C43.1218 250.103 43.2535 249.602 43.5169 249.173C43.7803 248.745 44.1418 248.412 44.6012 248.176C45.0607 247.937 45.5829 247.818 46.168 247.818C46.7592 247.818 47.2799 247.936 47.7302 248.172C48.1835 248.405 48.5373 248.723 48.7915 249.127C49.0458 249.529 49.1729 249.982 49.1729 250.487C49.1729 250.837 49.107 251.178 48.9753 251.512C48.8467 251.846 48.6215 252.218 48.2999 252.629C47.9783 253.036 47.5311 253.531 46.9583 254.113L45.0883 256.07V256.139H49.3245V257.356H43.1309ZM54.1718 257.485C53.596 257.485 53.0783 257.375 52.6188 257.154C52.1624 256.931 51.7979 256.624 51.5253 256.235C51.2527 255.846 51.1072 255.402 51.0888 254.903H52.4672C52.5009 255.307 52.6801 255.64 53.0048 255.9C53.3295 256.16 53.7185 256.29 54.1718 256.29C54.5333 256.29 54.8534 256.208 55.1321 256.042C55.4139 255.874 55.6344 255.643 55.7937 255.349C55.9561 255.055 56.0372 254.719 56.0372 254.342C56.0372 253.959 55.9545 253.618 55.7891 253.318C55.6237 253.018 55.3955 252.782 55.1045 252.61C54.8166 252.439 54.4858 252.351 54.1121 252.348C53.8272 252.348 53.5408 252.397 53.2529 252.495C52.965 252.593 52.7322 252.722 52.5545 252.881L51.2542 252.688L51.7826 247.947H56.9562V249.164H52.9634L52.6648 251.797H52.7199C52.9037 251.619 53.1472 251.471 53.4505 251.351C53.7568 251.232 54.0845 251.172 54.4337 251.172C55.0065 251.172 55.5165 251.308 55.9637 251.581C56.414 251.854 56.7678 252.226 57.0251 252.697C57.2855 253.166 57.4141 253.705 57.411 254.315C57.4141 254.924 57.2763 255.468 56.9975 255.946C56.7218 256.424 56.339 256.8 55.8489 257.076C55.3618 257.349 54.8028 257.485 54.1718 257.485ZM62.3652 257.513C61.6392 257.51 61.019 257.318 60.5044 256.938C59.9898 256.559 59.5962 256.006 59.3235 255.28C59.0509 254.554 58.9146 253.679 58.9146 252.656C58.9146 251.636 59.0509 250.765 59.3235 250.042C59.5992 249.319 59.9944 248.768 60.509 248.388C61.0266 248.008 61.6454 247.818 62.3652 247.818C63.085 247.818 63.7022 248.009 64.2168 248.392C64.7314 248.772 65.125 249.324 65.3976 250.046C65.6733 250.766 65.8112 251.636 65.8112 252.656C65.8112 253.682 65.6749 254.558 65.4022 255.284C65.1296 256.007 64.736 256.56 64.2214 256.943C63.7068 257.323 63.0881 257.513 62.3652 257.513ZM62.3652 256.286C63.0023 256.286 63.5001 255.975 63.8584 255.353C64.2199 254.731 64.4006 253.832 64.4006 252.656C64.4006 251.875 64.3179 251.215 64.1525 250.676C63.9902 250.134 63.7558 249.723 63.4495 249.445C63.1463 249.163 62.7848 249.022 62.3652 249.022C61.7311 249.022 61.2334 249.334 60.8719 249.959C60.5105 250.584 60.3282 251.483 60.3252 252.656C60.3252 253.44 60.4063 254.103 60.5687 254.646C60.7341 255.185 60.9684 255.594 61.2717 255.872C61.5749 256.148 61.9394 256.286 62.3652 256.286Z" fill="#131520"/>
<path d="M632 200.479L88.5967 199.902" stroke="#B1B5CF" stroke-width="0.808654"/>
<path d="M44.9667 204.443C44.3908 204.443 43.8732 204.332 43.4137 204.112C42.9573 203.888 42.5928 203.582 42.3202 203.193C42.0476 202.804 41.9021 202.36 41.8837 201.86H43.2621C43.2958 202.265 43.475 202.597 43.7996 202.857C44.1243 203.118 44.5133 203.248 44.9667 203.248C45.3281 203.248 45.6482 203.165 45.927 203C46.2088 202.831 46.4293 202.6 46.5886 202.306C46.7509 202.012 46.8321 201.677 46.8321 201.3C46.8321 200.917 46.7494 200.575 46.584 200.275C46.4186 199.975 46.1904 199.739 45.8994 199.568C45.6115 199.396 45.2806 199.309 44.907 199.306C44.6221 199.306 44.3357 199.355 44.0478 199.453C43.7598 199.551 43.527 199.68 43.3494 199.839L42.0491 199.646L42.5775 194.904H47.751V196.122H43.7583L43.4596 198.754H43.5148C43.6986 198.577 43.9421 198.428 44.2453 198.309C44.5516 198.189 44.8794 198.13 45.2286 198.13C45.8014 198.13 46.3114 198.266 46.7586 198.539C47.2089 198.811 47.5626 199.183 47.8199 199.655C48.0803 200.124 48.209 200.663 48.2059 201.272C48.209 201.882 48.0711 202.426 47.7924 202.903C47.5167 203.381 47.1338 203.758 46.6437 204.034C46.1567 204.306 45.5977 204.443 44.9667 204.443ZM53.16 204.47C52.4341 204.467 51.8138 204.276 51.2992 203.896C50.7846 203.516 50.391 202.963 50.1184 202.237C49.8458 201.511 49.7095 200.637 49.7095 199.614C49.7095 198.594 49.8458 197.722 50.1184 196.999C50.3941 196.276 50.7892 195.725 51.3038 195.345C51.8215 194.965 52.4402 194.776 53.16 194.776C53.8799 194.776 54.4971 194.967 55.0117 195.35C55.5263 195.73 55.9199 196.281 56.1925 197.004C56.4682 197.724 56.606 198.594 56.606 199.614C56.606 200.64 56.4697 201.516 56.1971 202.242C55.9245 202.965 55.5309 203.518 55.0163 203.9C54.5017 204.28 53.8829 204.47 53.16 204.47ZM53.16 203.243C53.7972 203.243 54.2949 202.933 54.6533 202.311C55.0147 201.689 55.1955 200.79 55.1955 199.614C55.1955 198.833 55.1128 198.172 54.9474 197.633C54.785 197.091 54.5507 196.681 54.2444 196.402C53.9411 196.12 53.5797 195.979 53.16 195.979C52.526 195.979 52.0282 196.292 51.6668 196.917C51.3053 197.541 51.1231 198.441 51.12 199.614C51.12 200.398 51.2012 201.061 51.3635 201.603C51.529 202.142 51.7633 202.551 52.0665 202.83C52.3698 203.106 52.7343 203.243 53.16 203.243ZM61.5119 204.47C60.786 204.467 60.1657 204.276 59.6511 203.896C59.1365 203.516 58.7429 202.963 58.4703 202.237C58.1977 201.511 58.0614 200.637 58.0614 199.614C58.0614 198.594 58.1977 197.722 58.4703 196.999C58.746 196.276 59.1411 195.725 59.6557 195.345C60.1734 194.965 60.7921 194.776 61.5119 194.776C62.2317 194.776 62.849 194.967 63.3636 195.35C63.8782 195.73 64.2718 196.281 64.5444 197.004C64.8201 197.724 64.9579 198.594 64.9579 199.614C64.9579 200.64 64.8216 201.516 64.549 202.242C64.2764 202.965 63.8827 203.518 63.3682 203.9C62.8536 204.28 62.2348 204.47 61.5119 204.47ZM61.5119 203.243C62.149 203.243 62.6468 202.933 63.0052 202.311C63.3666 201.689 63.5473 200.79 63.5473 199.614C63.5473 198.833 63.4646 198.172 63.2992 197.633C63.1369 197.091 62.9026 196.681 62.5963 196.402C62.293 196.12 61.9316 195.979 61.5119 195.979C60.8779 195.979 60.3801 196.292 60.0187 196.917C59.6572 197.541 59.475 198.441 59.4719 199.614C59.4719 200.398 59.5531 201.061 59.7154 201.603C59.8808 202.142 60.1152 202.551 60.4184 202.83C60.7216 203.106 61.0862 203.243 61.5119 203.243Z" fill="#131520"/>
<path d="M632 147.436L88.5967 146.859" stroke="#B1B5CF" stroke-width="0.808654"/>
<path d="M42.9275 151.271L47.0351 143.148V143.079H42.2842V141.861H48.5054V143.12L44.4115 151.271H42.9275ZM53.0827 151.4C52.5069 151.4 51.9892 151.29 51.5298 151.069C51.0734 150.845 50.7089 150.539 50.4362 150.15C50.1636 149.761 50.0181 149.317 49.9998 148.818H51.3781C51.4118 149.222 51.591 149.554 51.9157 149.815C52.2404 150.075 52.6294 150.205 53.0827 150.205C53.4442 150.205 53.7643 150.123 54.043 149.957C54.3248 149.789 54.5454 149.557 54.7046 149.263C54.867 148.969 54.9482 148.634 54.9482 148.257C54.9482 147.874 54.8655 147.533 54.7001 147.233C54.5346 146.932 54.3064 146.697 54.0155 146.525C53.7275 146.353 53.3967 146.266 53.023 146.263C52.7381 146.263 52.4518 146.312 52.1638 146.41C51.8759 146.508 51.6431 146.637 51.4654 146.796L50.1652 146.603L50.6935 141.861H55.8671V143.079H51.8744L51.5757 145.712H51.6308C51.8146 145.534 52.0581 145.386 52.3614 145.266C52.6677 145.147 52.9954 145.087 53.3446 145.087C53.9174 145.087 54.4274 145.223 54.8746 145.496C55.3249 145.768 55.6787 146.141 55.936 146.612C56.1964 147.081 56.325 147.62 56.322 148.23C56.325 148.839 56.1872 149.383 55.9084 149.861C55.6328 150.339 55.2499 150.715 54.7598 150.991C54.2728 151.264 53.7137 151.4 53.0827 151.4ZM61.2761 151.427C60.5502 151.424 59.9299 151.233 59.4153 150.853C58.9007 150.473 58.5071 149.92 58.2345 149.194C57.9619 148.469 57.8255 147.594 57.8255 146.571C57.8255 145.551 57.9619 144.679 58.2345 143.957C58.5101 143.234 58.9053 142.682 59.4199 142.303C59.9375 141.923 60.5563 141.733 61.2761 141.733C61.9959 141.733 62.6131 141.924 63.1277 142.307C63.6423 142.687 64.0359 143.238 64.3086 143.961C64.5842 144.681 64.7221 145.551 64.7221 146.571C64.7221 147.597 64.5858 148.473 64.3132 149.199C64.0405 149.922 63.6469 150.475 63.1323 150.858C62.6177 151.238 61.999 151.427 61.2761 151.427ZM61.2761 150.201C61.9132 150.201 62.411 149.89 62.7694 149.268C63.1308 148.646 63.3115 147.747 63.3115 146.571C63.3115 145.79 63.2288 145.13 63.0634 144.591C62.9011 144.048 62.6667 143.638 62.3604 143.359C62.0572 143.077 61.6958 142.937 61.2761 142.937C60.6421 142.937 60.1443 143.249 59.7829 143.874C59.4214 144.499 59.2392 145.398 59.2361 146.571C59.2361 147.355 59.3173 148.018 59.4796 148.56C59.645 149.1 59.8793 149.508 60.1826 149.787C60.4858 150.063 60.8503 150.201 61.2761 150.201Z" fill="#131520"/>
<path d="M632 94.3936L88.5968 93.8168" stroke="#B1B5CF" stroke-width="0.808654"/>
<path d="M45.3441 88.819V98.2288H43.9198V90.2433H43.8647L41.6133 91.7136V90.3536L43.9611 88.819H45.3441ZM51.1655 98.385C50.4396 98.3819 49.8193 98.1905 49.3047 97.8106C48.7901 97.4308 48.3965 96.8779 48.1239 96.152C47.8513 95.426 47.7149 94.5515 47.7149 93.5285C47.7149 92.5085 47.8513 91.637 48.1239 90.9141C48.3995 90.1912 48.7947 89.6399 49.3093 89.2601C49.8269 88.8802 50.4457 88.6903 51.1655 88.6903C51.8853 88.6903 52.5025 88.8818 53.0171 89.2646C53.5317 89.6445 53.9254 90.1958 54.198 90.9187C54.4736 91.6385 54.6115 92.5085 54.6115 93.5285C54.6115 94.5546 54.4752 95.4306 54.2026 96.1566C53.9299 96.8795 53.5363 97.4324 53.0217 97.8152C52.5071 98.1951 51.8884 98.385 51.1655 98.385ZM51.1655 97.1582C51.8026 97.1582 52.3004 96.8473 52.6588 96.2255C53.0202 95.6037 53.2009 94.7047 53.2009 93.5285C53.2009 92.7474 53.1182 92.0873 52.9528 91.5482C52.7905 91.006 52.5562 90.5956 52.2498 90.3168C51.9466 90.035 51.5852 89.8941 51.1655 89.8941C50.5315 89.8941 50.0337 90.2065 49.6723 90.8314C49.3108 91.4563 49.1286 92.3553 49.1255 93.5285C49.1255 94.3126 49.2067 94.9758 49.369 95.5179C49.5344 96.057 49.7687 96.466 50.072 96.7447C50.3752 97.0204 50.7397 97.1582 51.1655 97.1582ZM59.5174 98.385C58.7914 98.3819 58.1712 98.1905 57.6566 97.8106C57.142 97.4308 56.7484 96.8779 56.4757 96.152C56.2031 95.426 56.0668 94.5515 56.0668 93.5285C56.0668 92.5085 56.2031 91.637 56.4757 90.9141C56.7514 90.1912 57.1466 89.6399 57.6612 89.2601C58.1788 88.8802 58.7976 88.6903 59.5174 88.6903C60.2372 88.6903 60.8544 88.8818 61.369 89.2646C61.8836 89.6445 62.2772 90.1958 62.5498 90.9187C62.8255 91.6385 62.9634 92.5085 62.9634 93.5285C62.9634 94.5546 62.8271 95.4306 62.5544 96.1566C62.2818 96.8795 61.8882 97.4324 61.3736 97.8152C60.859 98.1951 60.2403 98.385 59.5174 98.385ZM59.5174 97.1582C60.1545 97.1582 60.6523 96.8473 61.0106 96.2255C61.3721 95.6037 61.5528 94.7047 61.5528 93.5285C61.5528 92.7474 61.4701 92.0873 61.3047 91.5482C61.1424 91.006 60.908 90.5956 60.6017 90.3168C60.2985 90.035 59.937 89.8941 59.5174 89.8941C58.8833 89.8941 58.3856 90.2065 58.0241 90.8314C57.6627 91.4563 57.4804 92.3553 57.4774 93.5285C57.4774 94.3126 57.5585 94.9758 57.7209 95.5179C57.8863 96.057 58.1206 96.466 58.4239 96.7447C58.7271 97.0204 59.0916 97.1582 59.5174 97.1582ZM67.8693 98.385C67.1433 98.3819 66.523 98.1905 66.0084 97.8106C65.4938 97.4308 65.1002 96.8779 64.8276 96.152C64.555 95.426 64.4187 94.5515 64.4187 93.5285C64.4187 92.5085 64.555 91.637 64.8276 90.9141C65.1033 90.1912 65.4984 89.6399 66.013 89.2601C66.5307 88.8802 67.1494 88.6903 67.8693 88.6903C68.5891 88.6903 69.2063 88.8818 69.7209 89.2646C70.2355 89.6445 70.6291 90.1958 70.9017 90.9187C71.1774 91.6385 71.3152 92.5085 71.3152 93.5285C71.3152 94.5546 71.1789 95.4306 70.9063 96.1566C70.6337 96.8795 70.2401 97.4324 69.7255 97.8152C69.2109 98.1951 68.5922 98.385 67.8693 98.385ZM67.8693 97.1582C68.5064 97.1582 69.0041 96.8473 69.3625 96.2255C69.724 95.6037 69.9047 94.7047 69.9047 93.5285C69.9047 92.7474 69.822 92.0873 69.6566 91.5482C69.4942 91.006 69.2599 90.5956 68.9536 90.3168C68.6504 90.035 68.2889 89.8941 67.8693 89.8941C67.2352 89.8941 66.7375 90.2065 66.376 90.8314C66.0146 91.4563 65.8323 92.3553 65.8293 93.5285C65.8293 94.3126 65.9104 94.9758 66.0728 95.5179C66.2382 96.057 66.4725 96.466 66.7757 96.7447C67.079 97.0204 67.4435 97.1582 67.8693 97.1582Z" fill="#131520"/>
<path d="M116.89 336.661L114.524 328.131H115.878L117.54 334.737H117.619L119.347 328.131H120.688L122.417 334.741H122.496L124.153 328.131H125.511L123.141 336.661H121.846L120.051 330.272H119.984L118.189 336.661H116.89ZM128.712 336.79C128.081 336.79 127.539 336.655 127.083 336.386C126.631 336.114 126.281 335.732 126.034 335.241C125.789 334.746 125.667 334.168 125.667 333.504C125.667 332.849 125.789 332.271 126.034 331.771C126.281 331.272 126.625 330.882 127.067 330.601C127.511 330.321 128.03 330.18 128.624 330.18C128.985 330.18 129.335 330.24 129.674 330.36C130.013 330.479 130.317 330.666 130.586 330.922C130.855 331.177 131.068 331.509 131.223 331.917C131.379 332.323 131.456 332.815 131.456 333.396V333.837H126.371V332.904H130.236C130.236 332.577 130.169 332.286 130.036 332.034C129.903 331.778 129.715 331.577 129.474 331.43C129.235 331.283 128.955 331.209 128.633 331.209C128.283 331.209 127.977 331.295 127.716 331.467C127.458 331.637 127.258 331.859 127.117 332.134C126.978 332.406 126.908 332.702 126.908 333.021V333.75C126.908 334.177 126.983 334.541 127.133 334.841C127.286 335.141 127.498 335.37 127.77 335.528C128.043 335.684 128.36 335.761 128.724 335.761C128.96 335.761 129.175 335.728 129.37 335.661C129.564 335.592 129.732 335.489 129.874 335.353C130.015 335.217 130.124 335.049 130.199 334.849L131.377 335.062C131.283 335.409 131.113 335.713 130.869 335.974C130.628 336.232 130.323 336.433 129.957 336.578C129.593 336.719 129.178 336.79 128.712 336.79ZM132.938 336.661V328.131H134.183V331.301H134.258C134.33 331.167 134.435 331.013 134.571 330.838C134.707 330.664 134.895 330.511 135.137 330.38C135.379 330.247 135.698 330.18 136.095 330.18C136.611 330.18 137.072 330.311 137.478 330.572C137.883 330.833 138.201 331.209 138.431 331.701C138.665 332.192 138.781 332.783 138.781 333.475C138.781 334.166 138.666 334.759 138.436 335.253C138.205 335.745 137.889 336.124 137.486 336.39C137.083 336.654 136.624 336.786 136.107 336.786C135.719 336.786 135.401 336.721 135.154 336.59C134.909 336.46 134.718 336.307 134.579 336.132C134.44 335.957 134.333 335.802 134.258 335.665H134.154V336.661H132.938ZM134.158 333.462C134.158 333.912 134.223 334.306 134.354 334.645C134.484 334.984 134.673 335.249 134.92 335.441C135.168 335.629 135.47 335.724 135.828 335.724C136.2 335.724 136.511 335.625 136.761 335.428C137.011 335.228 137.2 334.957 137.328 334.616C137.458 334.274 137.523 333.89 137.523 333.462C137.523 333.04 137.46 332.661 137.332 332.325C137.207 331.989 137.018 331.724 136.765 331.53C136.516 331.335 136.203 331.238 135.828 331.238C135.467 331.238 135.162 331.331 134.912 331.517C134.665 331.703 134.478 331.963 134.35 332.296C134.222 332.629 134.158 333.018 134.158 333.462ZM144.973 331.826L143.845 332.025C143.797 331.881 143.722 331.744 143.62 331.613C143.52 331.483 143.384 331.376 143.212 331.292C143.039 331.209 142.824 331.167 142.566 331.167C142.213 331.167 141.919 331.247 141.683 331.405C141.447 331.56 141.329 331.762 141.329 332.009C141.329 332.223 141.408 332.395 141.566 332.525C141.725 332.656 141.98 332.763 142.333 332.846L143.349 333.079C143.938 333.215 144.376 333.425 144.665 333.708C144.954 333.991 145.098 334.359 145.098 334.812C145.098 335.195 144.987 335.536 144.765 335.836C144.546 336.133 144.239 336.367 143.845 336.536C143.453 336.705 142.999 336.79 142.483 336.79C141.766 336.79 141.182 336.637 140.729 336.332C140.277 336.024 139.999 335.586 139.896 335.02L141.1 334.837C141.175 335.15 141.329 335.388 141.562 335.549C141.795 335.707 142.1 335.786 142.474 335.786C142.882 335.786 143.209 335.702 143.453 335.532C143.697 335.36 143.82 335.15 143.82 334.903C143.82 334.703 143.745 334.535 143.595 334.399C143.448 334.263 143.221 334.161 142.916 334.091L141.833 333.854C141.236 333.718 140.795 333.501 140.509 333.204C140.225 332.907 140.084 332.531 140.084 332.075C140.084 331.698 140.189 331.367 140.4 331.084C140.611 330.801 140.903 330.58 141.275 330.422C141.647 330.261 142.073 330.18 142.553 330.18C143.245 330.18 143.789 330.33 144.186 330.63C144.583 330.927 144.846 331.326 144.973 331.826ZM146.467 336.661V330.264H147.713V336.661H146.467ZM147.096 329.277C146.88 329.277 146.694 329.204 146.538 329.06C146.385 328.913 146.309 328.738 146.309 328.535C146.309 328.33 146.385 328.155 146.538 328.011C146.694 327.863 146.88 327.79 147.096 327.79C147.313 327.79 147.497 327.863 147.65 328.011C147.806 328.155 147.883 328.33 147.883 328.535C147.883 328.738 147.806 328.913 147.65 329.06C147.497 329.204 147.313 329.277 147.096 329.277ZM152.374 330.264V331.263H148.88V330.264H152.374ZM149.817 328.731H151.062V334.783C151.062 335.024 151.098 335.206 151.17 335.328C151.243 335.448 151.336 335.529 151.45 335.574C151.566 335.616 151.692 335.636 151.829 335.636C151.928 335.636 152.016 335.629 152.091 335.616C152.166 335.602 152.224 335.591 152.266 335.582L152.491 336.611C152.419 336.639 152.316 336.666 152.183 336.694C152.049 336.725 151.883 336.741 151.683 336.744C151.355 336.75 151.05 336.691 150.766 336.569C150.483 336.447 150.254 336.258 150.079 336.003C149.904 335.747 149.817 335.427 149.817 335.041V328.731ZM156.44 336.79C155.81 336.79 155.267 336.655 154.812 336.386C154.359 336.114 154.009 335.732 153.762 335.241C153.518 334.746 153.396 334.168 153.396 333.504C153.396 332.849 153.518 332.271 153.762 331.771C154.009 331.272 154.353 330.882 154.795 330.601C155.239 330.321 155.758 330.18 156.353 330.18C156.713 330.18 157.063 330.24 157.402 330.36C157.741 330.479 158.045 330.666 158.314 330.922C158.584 331.177 158.796 331.509 158.951 331.917C159.107 332.323 159.185 332.815 159.185 333.396V333.837H154.099V332.904H157.964C157.964 332.577 157.898 332.286 157.764 332.034C157.631 331.778 157.444 331.577 157.202 331.43C156.963 331.283 156.683 331.209 156.361 331.209C156.011 331.209 155.706 331.295 155.445 331.467C155.186 331.637 154.986 331.859 154.845 332.134C154.706 332.406 154.637 332.702 154.637 333.021V333.75C154.637 334.177 154.712 334.541 154.862 334.841C155.014 335.141 155.227 335.37 155.499 335.528C155.771 335.684 156.089 335.761 156.453 335.761C156.689 335.761 156.904 335.728 157.098 335.661C157.292 335.592 157.46 335.489 157.602 335.353C157.744 335.217 157.852 335.049 157.927 334.849L159.105 335.062C159.011 335.409 158.842 335.713 158.597 335.974C158.356 336.232 158.052 336.433 157.685 336.578C157.322 336.719 156.906 336.79 156.44 336.79ZM168.422 330.372C168.378 329.978 168.195 329.672 167.872 329.456C167.55 329.236 167.145 329.127 166.656 329.127C166.306 329.127 166.004 329.182 165.748 329.293C165.493 329.402 165.294 329.552 165.153 329.743C165.014 329.932 164.945 330.147 164.945 330.389C164.945 330.591 164.992 330.766 165.086 330.913C165.183 331.061 165.31 331.184 165.465 331.284C165.623 331.381 165.793 331.463 165.973 331.53C166.154 331.594 166.327 331.646 166.494 331.688L167.327 331.905C167.599 331.971 167.878 332.062 168.164 332.175C168.45 332.289 168.715 332.439 168.959 332.625C169.204 332.811 169.401 333.042 169.551 333.317C169.704 333.591 169.78 333.92 169.78 334.304C169.78 334.787 169.655 335.216 169.405 335.591C169.158 335.965 168.798 336.261 168.326 336.478C167.857 336.694 167.289 336.802 166.623 336.802C165.984 336.802 165.432 336.701 164.965 336.498C164.499 336.296 164.134 336.008 163.87 335.636C163.606 335.262 163.461 334.817 163.433 334.304H164.724C164.749 334.612 164.849 334.869 165.024 335.074C165.201 335.277 165.428 335.428 165.703 335.528C165.98 335.625 166.284 335.674 166.615 335.674C166.978 335.674 167.302 335.617 167.585 335.503C167.871 335.386 168.096 335.225 168.26 335.02C168.424 334.812 168.505 334.569 168.505 334.291C168.505 334.038 168.433 333.832 168.289 333.671C168.147 333.51 167.954 333.376 167.71 333.271C167.468 333.165 167.195 333.072 166.89 332.992L165.882 332.717C165.199 332.531 164.657 332.257 164.257 331.896C163.86 331.535 163.662 331.058 163.662 330.464C163.662 329.972 163.795 329.543 164.062 329.177C164.328 328.81 164.689 328.526 165.144 328.323C165.6 328.117 166.113 328.015 166.685 328.015C167.263 328.015 167.772 328.116 168.214 328.319C168.658 328.521 169.008 328.8 169.263 329.156C169.519 329.509 169.652 329.914 169.663 330.372H168.422ZM173.975 336.79C173.345 336.79 172.802 336.655 172.346 336.386C171.894 336.114 171.544 335.732 171.297 335.241C171.053 334.746 170.93 334.168 170.93 333.504C170.93 332.849 171.053 332.271 171.297 331.771C171.544 331.272 171.888 330.882 172.33 330.601C172.774 330.321 173.293 330.18 173.887 330.18C174.248 330.18 174.598 330.24 174.937 330.36C175.276 330.479 175.58 330.666 175.849 330.922C176.118 331.177 176.331 331.509 176.486 331.917C176.642 332.323 176.72 332.815 176.72 333.396V333.837H171.634V332.904H175.499C175.499 332.577 175.433 332.286 175.299 332.034C175.166 331.778 174.979 331.577 174.737 331.43C174.498 331.283 174.218 331.209 173.896 331.209C173.546 331.209 173.241 331.295 172.98 331.467C172.721 331.637 172.521 331.859 172.38 332.134C172.241 332.406 172.172 332.702 172.172 333.021V333.75C172.172 334.177 172.247 334.541 172.396 334.841C172.549 335.141 172.762 335.37 173.034 335.528C173.306 335.684 173.624 335.761 173.987 335.761C174.223 335.761 174.439 335.728 174.633 335.661C174.827 335.592 174.995 335.489 175.137 335.353C175.279 335.217 175.387 335.049 175.462 334.849L176.64 335.062C176.546 335.409 176.377 335.713 176.132 335.974C175.891 336.232 175.587 336.433 175.22 336.578C174.856 336.719 174.441 336.79 173.975 336.79ZM180.796 336.79C180.177 336.79 179.644 336.65 179.197 336.369C178.752 336.086 178.411 335.696 178.172 335.199C177.933 334.702 177.814 334.133 177.814 333.491C177.814 332.842 177.936 332.268 178.18 331.771C178.425 331.272 178.769 330.882 179.213 330.601C179.657 330.321 180.181 330.18 180.783 330.18C181.269 330.18 181.702 330.271 182.083 330.451C182.463 330.629 182.77 330.879 183.003 331.201C183.239 331.523 183.379 331.899 183.424 332.329H182.212C182.145 332.03 181.993 331.771 181.754 331.555C181.518 331.338 181.201 331.23 180.804 331.23C180.457 331.23 180.153 331.322 179.892 331.505C179.634 331.685 179.433 331.944 179.288 332.28C179.144 332.613 179.072 333.007 179.072 333.462C179.072 333.929 179.142 334.331 179.284 334.67C179.426 335.009 179.626 335.271 179.884 335.457C180.145 335.643 180.452 335.736 180.804 335.736C181.04 335.736 181.254 335.693 181.446 335.607C181.64 335.518 181.802 335.392 181.933 335.228C182.066 335.064 182.159 334.867 182.212 334.637H183.424C183.379 335.05 183.245 335.42 183.02 335.745C182.795 336.069 182.494 336.325 182.116 336.511C181.741 336.697 181.301 336.79 180.796 336.79ZM188.808 334.008V330.264H190.057V336.661H188.833V335.553H188.766C188.619 335.895 188.383 336.179 188.058 336.407C187.736 336.632 187.335 336.744 186.855 336.744C186.444 336.744 186.08 336.654 185.763 336.473C185.45 336.29 185.203 336.02 185.022 335.661C184.844 335.303 184.756 334.86 184.756 334.333V330.264H186.001V334.183C186.001 334.619 186.122 334.966 186.363 335.224C186.605 335.482 186.918 335.611 187.304 335.611C187.538 335.611 187.77 335.553 188 335.436C188.233 335.32 188.426 335.144 188.579 334.908C188.734 334.671 188.811 334.372 188.808 334.008ZM191.731 336.661V330.264H192.934V331.28H193.001C193.117 330.936 193.323 330.665 193.617 330.468C193.914 330.268 194.25 330.168 194.625 330.168C194.703 330.168 194.795 330.171 194.9 330.176C195.008 330.182 195.093 330.189 195.154 330.197V331.388C195.104 331.374 195.015 331.359 194.888 331.342C194.76 331.323 194.632 331.313 194.504 331.313C194.21 331.313 193.948 331.376 193.717 331.501C193.49 331.623 193.309 331.794 193.176 332.013C193.043 332.23 192.976 332.477 192.976 332.754V336.661H191.731ZM196.232 336.661V330.264H197.477V336.661H196.232ZM196.861 329.277C196.644 329.277 196.458 329.204 196.303 329.06C196.15 328.913 196.073 328.738 196.073 328.535C196.073 328.33 196.15 328.155 196.303 328.011C196.458 327.863 196.644 327.79 196.861 327.79C197.077 327.79 197.262 327.863 197.415 328.011C197.57 328.155 197.648 328.33 197.648 328.535C197.648 328.738 197.57 328.913 197.415 329.06C197.262 329.204 197.077 329.277 196.861 329.277ZM202.138 330.264V331.263H198.644V330.264H202.138ZM199.581 328.731H200.827V334.783C200.827 335.024 200.863 335.206 200.935 335.328C201.007 335.448 201.1 335.529 201.214 335.574C201.33 335.616 201.457 335.636 201.593 335.636C201.693 335.636 201.78 335.629 201.855 335.616C201.93 335.602 201.989 335.591 202.03 335.582L202.255 336.611C202.183 336.639 202.08 336.666 201.947 336.694C201.814 336.725 201.647 336.741 201.447 336.744C201.119 336.75 200.814 336.691 200.531 336.569C200.248 336.447 200.019 336.258 199.844 336.003C199.669 335.747 199.581 335.427 199.581 335.041V328.731ZM204.303 339.06C204.117 339.06 203.948 339.045 203.795 339.014C203.642 338.986 203.528 338.956 203.454 338.922L203.753 337.902C203.981 337.963 204.184 337.989 204.361 337.981C204.539 337.973 204.696 337.906 204.832 337.781C204.971 337.656 205.093 337.452 205.199 337.169L205.353 336.744L203.012 330.264H204.345L205.965 335.228H206.032L207.652 330.264H208.989L206.352 337.515C206.23 337.848 206.075 338.13 205.886 338.36C205.697 338.593 205.472 338.768 205.211 338.885C204.95 339.002 204.647 339.06 204.303 339.06Z" fill="#131520"/>
<path d="M248.463 328.503V337.032H247.28L242.944 330.777H242.865V337.032H241.578V328.503H242.769L247.109 334.767H247.188V328.503H248.463ZM252.997 337.162C252.367 337.162 251.824 337.027 251.369 336.758C250.916 336.485 250.566 336.104 250.319 335.612C250.075 335.118 249.953 334.539 249.953 333.876C249.953 333.22 250.075 332.643 250.319 332.143C250.566 331.643 250.91 331.253 251.352 330.973C251.796 330.692 252.315 330.552 252.91 330.552C253.271 330.552 253.62 330.612 253.959 330.731C254.298 330.85 254.602 331.038 254.871 331.293C255.141 331.549 255.353 331.881 255.508 332.289C255.664 332.694 255.742 333.187 255.742 333.767V334.209H250.656V333.276H254.521C254.521 332.948 254.455 332.658 254.321 332.405C254.188 332.15 254.001 331.949 253.759 331.801C253.52 331.654 253.24 331.581 252.918 331.581C252.568 331.581 252.263 331.667 252.002 331.839C251.743 332.008 251.544 332.23 251.402 332.505C251.263 332.777 251.194 333.073 251.194 333.392V334.121C251.194 334.549 251.269 334.913 251.419 335.212C251.571 335.512 251.784 335.741 252.056 335.9C252.328 336.055 252.646 336.133 253.01 336.133C253.246 336.133 253.461 336.1 253.655 336.033C253.849 335.964 254.017 335.861 254.159 335.725C254.301 335.589 254.409 335.421 254.484 335.221L255.663 335.433C255.568 335.78 255.399 336.084 255.154 336.345C254.913 336.603 254.609 336.805 254.242 336.949C253.879 337.091 253.464 337.162 252.997 337.162ZM260.11 330.635V331.635H256.615V330.635H260.11ZM257.552 329.103H258.798V335.154C258.798 335.396 258.834 335.578 258.906 335.7C258.978 335.819 259.071 335.901 259.185 335.945C259.302 335.987 259.428 336.008 259.564 336.008C259.664 336.008 259.751 336.001 259.826 335.987C259.901 335.973 259.96 335.962 260.001 335.954L260.226 336.982C260.154 337.01 260.051 337.038 259.918 337.066C259.785 337.096 259.618 337.113 259.418 337.116C259.091 337.121 258.785 337.063 258.502 336.941C258.219 336.819 257.99 336.63 257.815 336.374C257.64 336.119 257.552 335.798 257.552 335.412V329.103ZM262.874 337.032L260.991 330.635H262.278L263.532 335.333H263.594L264.852 330.635H266.139L267.389 335.312H267.451L268.696 330.635H269.983L268.105 337.032H266.835L265.535 332.414H265.439L264.14 337.032H262.874ZM273.665 337.162C273.065 337.162 272.542 337.024 272.095 336.749C271.648 336.474 271.301 336.09 271.054 335.596C270.807 335.101 270.683 334.524 270.683 333.863C270.683 333.199 270.807 332.619 271.054 332.122C271.301 331.625 271.648 331.239 272.095 330.964C272.542 330.689 273.065 330.552 273.665 330.552C274.265 330.552 274.788 330.689 275.235 330.964C275.682 331.239 276.029 331.625 276.276 332.122C276.523 332.619 276.647 333.199 276.647 333.863C276.647 334.524 276.523 335.101 276.276 335.596C276.029 336.09 275.682 336.474 275.235 336.749C274.788 337.024 274.265 337.162 273.665 337.162ZM273.669 336.116C274.058 336.116 274.38 336.013 274.635 335.808C274.891 335.603 275.08 335.329 275.202 334.988C275.327 334.646 275.389 334.27 275.389 333.859C275.389 333.451 275.327 333.076 275.202 332.734C275.08 332.39 274.891 332.114 274.635 331.906C274.38 331.697 274.058 331.593 273.669 331.593C273.278 331.593 272.953 331.697 272.695 331.906C272.439 332.114 272.249 332.39 272.124 332.734C272.002 333.076 271.941 333.451 271.941 333.859C271.941 334.27 272.002 334.646 272.124 334.988C272.249 335.329 272.439 335.603 272.695 335.808C272.953 336.013 273.278 336.116 273.669 336.116ZM278.037 337.032V330.635H279.241V331.652H279.307C279.424 331.307 279.629 331.037 279.924 330.839C280.221 330.639 280.557 330.54 280.932 330.54C281.009 330.54 281.101 330.542 281.206 330.548C281.315 330.553 281.399 330.56 281.46 330.569V331.76C281.41 331.746 281.322 331.731 281.194 331.714C281.066 331.695 280.938 331.685 280.811 331.685C280.516 331.685 280.254 331.747 280.024 331.872C279.796 331.994 279.615 332.165 279.482 332.385C279.349 332.601 279.282 332.848 279.282 333.126V337.032H278.037ZM283.683 334.863L283.675 333.342H283.892L286.441 330.635H287.932L285.025 333.717H284.829L283.683 334.863ZM282.538 337.032V328.503H283.783V337.032H282.538ZM286.578 337.032L284.287 333.992L285.145 333.122L288.106 337.032H286.578ZM296.922 330.744C296.878 330.349 296.695 330.044 296.373 329.827C296.051 329.608 295.645 329.498 295.156 329.498C294.807 329.498 294.504 329.554 294.249 329.665C293.993 329.773 293.795 329.923 293.653 330.115C293.514 330.304 293.445 330.519 293.445 330.76C293.445 330.963 293.492 331.138 293.586 331.285C293.684 331.432 293.81 331.556 293.965 331.656C294.124 331.753 294.293 331.835 294.473 331.901C294.654 331.965 294.827 332.018 294.994 332.06L295.827 332.276C296.099 332.343 296.378 332.433 296.664 332.547C296.95 332.661 297.215 332.811 297.46 332.997C297.704 333.183 297.901 333.413 298.051 333.688C298.204 333.963 298.28 334.292 298.28 334.675C298.28 335.158 298.155 335.587 297.905 335.962C297.658 336.337 297.299 336.633 296.827 336.849C296.357 337.066 295.79 337.174 295.123 337.174C294.485 337.174 293.932 337.073 293.466 336.87C292.999 336.667 292.634 336.38 292.37 336.008C292.106 335.633 291.961 335.189 291.933 334.675H293.224C293.249 334.983 293.349 335.24 293.524 335.446C293.702 335.648 293.928 335.8 294.203 335.9C294.48 335.997 294.784 336.045 295.115 336.045C295.479 336.045 295.802 335.988 296.085 335.875C296.371 335.758 296.596 335.597 296.76 335.392C296.924 335.183 297.006 334.94 297.006 334.663C297.006 334.41 296.933 334.203 296.789 334.042C296.647 333.881 296.455 333.748 296.21 333.642C295.969 333.537 295.695 333.444 295.39 333.363L294.382 333.088C293.699 332.902 293.157 332.629 292.758 332.268C292.36 331.907 292.162 331.429 292.162 330.835C292.162 330.344 292.295 329.915 292.562 329.548C292.828 329.182 293.189 328.897 293.645 328.695C294.1 328.489 294.614 328.386 295.186 328.386C295.763 328.386 296.273 328.488 296.714 328.69C297.158 328.893 297.508 329.172 297.764 329.527C298.019 329.88 298.152 330.285 298.163 330.744H296.922ZM302.475 337.162C301.845 337.162 301.302 337.027 300.847 336.758C300.394 336.485 300.044 336.104 299.797 335.612C299.553 335.118 299.431 334.539 299.431 333.876C299.431 333.22 299.553 332.643 299.797 332.143C300.044 331.643 300.389 331.253 300.83 330.973C301.274 330.692 301.793 330.552 302.388 330.552C302.749 330.552 303.098 330.612 303.437 330.731C303.776 330.85 304.08 331.038 304.349 331.293C304.619 331.549 304.831 331.881 304.986 332.289C305.142 332.694 305.22 333.187 305.22 333.767V334.209H300.134V333.276H303.999C303.999 332.948 303.933 332.658 303.8 332.405C303.666 332.15 303.479 331.949 303.237 331.801C302.998 331.654 302.718 331.581 302.396 331.581C302.046 331.581 301.741 331.667 301.48 331.839C301.221 332.008 301.022 332.23 300.88 332.505C300.741 332.777 300.672 333.073 300.672 333.392V334.121C300.672 334.549 300.747 334.913 300.897 335.212C301.049 335.512 301.262 335.741 301.534 335.9C301.806 336.055 302.124 336.133 302.488 336.133C302.724 336.133 302.939 336.1 303.133 336.033C303.328 335.964 303.495 335.861 303.637 335.725C303.779 335.589 303.887 335.421 303.962 335.221L305.141 335.433C305.046 335.78 304.877 336.084 304.632 336.345C304.391 336.603 304.087 336.805 303.72 336.949C303.357 337.091 302.942 337.162 302.475 337.162ZM309.296 337.162C308.677 337.162 308.144 337.021 307.697 336.741C307.252 336.458 306.911 336.068 306.672 335.571C306.433 335.074 306.314 334.504 306.314 333.863C306.314 333.213 306.436 332.64 306.681 332.143C306.925 331.643 307.269 331.253 307.713 330.973C308.158 330.692 308.681 330.552 309.284 330.552C309.769 330.552 310.203 330.642 310.583 330.823C310.963 331 311.27 331.25 311.503 331.572C311.739 331.894 311.88 332.271 311.924 332.701H310.712C310.645 332.401 310.493 332.143 310.254 331.926C310.018 331.71 309.701 331.602 309.304 331.602C308.957 331.602 308.653 331.693 308.392 331.876C308.134 332.057 307.933 332.315 307.788 332.651C307.644 332.984 307.572 333.379 307.572 333.834C307.572 334.3 307.643 334.703 307.784 335.042C307.926 335.38 308.126 335.643 308.384 335.829C308.645 336.015 308.952 336.108 309.304 336.108C309.54 336.108 309.754 336.065 309.946 335.979C310.14 335.89 310.303 335.764 310.433 335.6C310.566 335.436 310.659 335.239 310.712 335.008H311.924C311.88 335.422 311.745 335.791 311.52 336.116C311.295 336.441 310.994 336.697 310.616 336.883C310.241 337.069 309.801 337.162 309.296 337.162ZM317.308 334.379V330.635H318.558V337.032H317.333V335.925H317.266C317.119 336.266 316.883 336.551 316.558 336.778C316.236 337.003 315.835 337.116 315.355 337.116C314.944 337.116 314.58 337.026 314.264 336.845C313.95 336.662 313.703 336.391 313.522 336.033C313.345 335.675 313.256 335.232 313.256 334.704V330.635H314.501V334.554C314.501 334.99 314.622 335.337 314.863 335.596C315.105 335.854 315.419 335.983 315.805 335.983C316.038 335.983 316.27 335.925 316.5 335.808C316.733 335.691 316.926 335.515 317.079 335.279C317.235 335.043 317.311 334.743 317.308 334.379ZM320.231 337.032V330.635H321.434V331.652H321.501C321.618 331.307 321.823 331.037 322.117 330.839C322.415 330.639 322.75 330.54 323.125 330.54C323.203 330.54 323.295 330.542 323.4 330.548C323.508 330.553 323.593 330.56 323.654 330.569V331.76C323.604 331.746 323.515 331.731 323.388 331.714C323.26 331.695 323.132 331.685 323.005 331.685C322.71 331.685 322.448 331.747 322.217 331.872C321.99 331.994 321.809 332.165 321.676 332.385C321.543 332.601 321.476 332.848 321.476 333.126V337.032H320.231ZM324.732 337.032V330.635H325.977V337.032H324.732ZM325.361 329.648C325.144 329.648 324.958 329.576 324.803 329.432C324.65 329.285 324.574 329.11 324.574 328.907C324.574 328.701 324.65 328.527 324.803 328.382C324.958 328.235 325.144 328.161 325.361 328.161C325.577 328.161 325.762 328.235 325.915 328.382C326.07 328.527 326.148 328.701 326.148 328.907C326.148 329.11 326.07 329.285 325.915 329.432C325.762 329.576 325.577 329.648 325.361 329.648ZM330.639 330.635V331.635H327.144V330.635H330.639ZM328.081 329.103H329.327V335.154C329.327 335.396 329.363 335.578 329.435 335.7C329.507 335.819 329.6 335.901 329.714 335.945C329.831 335.987 329.957 336.008 330.093 336.008C330.193 336.008 330.28 336.001 330.355 335.987C330.43 335.973 330.489 335.962 330.53 335.954L330.755 336.982C330.683 337.01 330.58 337.038 330.447 337.066C330.314 337.096 330.147 337.113 329.947 337.116C329.62 337.121 329.314 337.063 329.031 336.941C328.748 336.819 328.519 336.63 328.344 336.374C328.169 336.119 328.081 335.798 328.081 335.412V329.103ZM332.803 339.431C332.617 339.431 332.448 339.416 332.295 339.386C332.142 339.358 332.029 339.327 331.954 339.294L332.254 338.274C332.481 338.335 332.684 338.361 332.862 338.353C333.039 338.344 333.196 338.278 333.332 338.153C333.471 338.028 333.593 337.824 333.699 337.541L333.853 337.116L331.512 330.635H332.845L334.465 335.6H334.532L336.152 330.635H337.489L334.852 337.886C334.73 338.219 334.575 338.501 334.386 338.732C334.197 338.965 333.972 339.14 333.711 339.256C333.45 339.373 333.148 339.431 332.803 339.431Z" fill="#131520"/>
<path d="M374.046 336.661V328.131H379.394V329.239H375.333V331.838H379.115V332.942H375.333V335.553H379.444V336.661H374.046ZM381.013 336.661V330.264H382.208V331.305H382.287C382.421 330.952 382.639 330.677 382.941 330.48C383.244 330.28 383.606 330.18 384.028 330.18C384.456 330.18 384.814 330.28 385.103 330.48C385.394 330.68 385.609 330.955 385.748 331.305H385.815C385.968 330.963 386.211 330.691 386.544 330.489C386.877 330.283 387.274 330.18 387.735 330.18C388.315 330.18 388.789 330.362 389.155 330.726C389.524 331.09 389.709 331.638 389.709 332.371V336.661H388.464V332.488C388.464 332.055 388.346 331.741 388.11 331.546C387.874 331.352 387.592 331.255 387.264 331.255C386.859 331.255 386.544 331.38 386.319 331.63C386.094 331.877 385.982 332.195 385.982 332.584V336.661H384.74V332.409C384.74 332.062 384.632 331.782 384.416 331.571C384.199 331.36 383.917 331.255 383.57 331.255C383.334 331.255 383.116 331.317 382.916 331.442C382.719 331.565 382.559 331.735 382.437 331.955C382.318 332.174 382.258 332.428 382.258 332.717V336.661H381.013ZM393.24 336.802C392.834 336.802 392.468 336.728 392.14 336.578C391.813 336.425 391.553 336.204 391.361 335.915C391.173 335.627 391.078 335.273 391.078 334.853C391.078 334.492 391.148 334.195 391.286 333.962C391.425 333.729 391.613 333.544 391.849 333.408C392.085 333.272 392.348 333.169 392.64 333.1C392.932 333.031 393.229 332.978 393.531 332.942C393.914 332.897 394.225 332.861 394.464 332.833C394.703 332.803 394.877 332.754 394.985 332.688C395.093 332.621 395.147 332.513 395.147 332.363V332.334C395.147 331.97 395.045 331.688 394.839 331.488C394.636 331.288 394.334 331.188 393.931 331.188C393.512 331.188 393.181 331.281 392.94 331.467C392.701 331.651 392.536 331.855 392.444 332.08L391.274 331.813C391.413 331.424 391.615 331.111 391.882 330.872C392.151 330.63 392.461 330.455 392.811 330.347C393.161 330.236 393.529 330.18 393.914 330.18C394.17 330.18 394.441 330.211 394.727 330.272C395.015 330.33 395.285 330.439 395.535 330.597C395.787 330.755 395.994 330.981 396.155 331.276C396.316 331.567 396.397 331.946 396.397 332.413V336.661H395.181V335.786H395.131C395.05 335.947 394.929 336.106 394.768 336.261C394.607 336.417 394.4 336.546 394.148 336.648C393.895 336.751 393.592 336.802 393.24 336.802ZM393.51 335.803C393.855 335.803 394.149 335.735 394.393 335.599C394.641 335.463 394.828 335.285 394.956 335.066C395.086 334.844 395.151 334.606 395.151 334.354V333.529C395.107 333.573 395.021 333.615 394.893 333.654C394.768 333.69 394.625 333.722 394.464 333.75C394.303 333.775 394.146 333.798 393.994 333.82C393.841 333.84 393.713 333.857 393.61 333.87C393.369 333.901 393.148 333.952 392.948 334.025C392.751 334.097 392.593 334.201 392.473 334.337C392.357 334.47 392.299 334.648 392.299 334.87C392.299 335.178 392.412 335.411 392.64 335.57C392.868 335.725 393.158 335.803 393.51 335.803ZM398.055 336.661V330.264H399.301V336.661H398.055ZM398.684 329.277C398.468 329.277 398.282 329.204 398.126 329.06C397.973 328.913 397.897 328.738 397.897 328.535C397.897 328.33 397.973 328.155 398.126 328.011C398.282 327.863 398.468 327.79 398.684 327.79C398.901 327.79 399.085 327.863 399.238 328.011C399.394 328.155 399.471 328.33 399.471 328.535C399.471 328.738 399.394 328.913 399.238 329.06C399.085 329.204 398.901 329.277 398.684 329.277ZM402.221 328.131V336.661H400.976V328.131H402.221ZM411.752 330.372C411.708 329.978 411.525 329.672 411.203 329.456C410.881 329.236 410.475 329.127 409.986 329.127C409.637 329.127 409.334 329.182 409.079 329.293C408.823 329.402 408.625 329.552 408.483 329.743C408.344 329.932 408.275 330.147 408.275 330.389C408.275 330.591 408.322 330.766 408.416 330.913C408.514 331.061 408.64 331.184 408.795 331.284C408.954 331.381 409.123 331.463 409.303 331.53C409.484 331.594 409.657 331.646 409.824 331.688L410.657 331.905C410.929 331.971 411.208 332.062 411.494 332.175C411.78 332.289 412.045 332.439 412.29 332.625C412.534 332.811 412.731 333.042 412.881 333.317C413.034 333.591 413.11 333.92 413.11 334.304C413.11 334.787 412.985 335.216 412.735 335.591C412.488 335.965 412.129 336.261 411.657 336.478C411.187 336.694 410.62 336.802 409.953 336.802C409.315 336.802 408.762 336.701 408.296 336.498C407.829 336.296 407.464 336.008 407.2 335.636C406.936 335.262 406.791 334.817 406.763 334.304H408.054C408.079 334.612 408.179 334.869 408.354 335.074C408.532 335.277 408.758 335.428 409.033 335.528C409.31 335.625 409.614 335.674 409.945 335.674C410.309 335.674 410.632 335.617 410.915 335.503C411.201 335.386 411.426 335.225 411.59 335.02C411.754 334.812 411.836 334.569 411.836 334.291C411.836 334.038 411.763 333.832 411.619 333.671C411.477 333.51 411.285 333.376 411.04 333.271C410.799 333.165 410.525 333.072 410.22 332.992L409.212 332.717C408.529 332.531 407.987 332.257 407.588 331.896C407.191 331.535 406.992 331.058 406.992 330.464C406.992 329.972 407.125 329.543 407.392 329.177C407.658 328.81 408.019 328.526 408.475 328.323C408.93 328.117 409.444 328.015 410.016 328.015C410.593 328.015 411.103 328.116 411.544 328.319C411.988 328.521 412.338 328.8 412.594 329.156C412.849 329.509 412.982 329.914 412.993 330.372H411.752ZM417.305 336.79C416.675 336.79 416.132 336.655 415.677 336.386C415.224 336.114 414.874 335.732 414.627 335.241C414.383 334.746 414.261 334.168 414.261 333.504C414.261 332.849 414.383 332.271 414.627 331.771C414.874 331.272 415.219 330.882 415.66 330.601C416.104 330.321 416.623 330.18 417.218 330.18C417.579 330.18 417.928 330.24 418.267 330.36C418.606 330.479 418.91 330.666 419.179 330.922C419.449 331.177 419.661 331.509 419.816 331.917C419.972 332.323 420.05 332.815 420.05 333.396V333.837H414.964V332.904H418.829C418.829 332.577 418.763 332.286 418.63 332.034C418.496 331.778 418.309 331.577 418.067 331.43C417.828 331.283 417.548 331.209 417.226 331.209C416.876 331.209 416.571 331.295 416.31 331.467C416.052 331.637 415.852 331.859 415.71 332.134C415.571 332.406 415.502 332.702 415.502 333.021V333.75C415.502 334.177 415.577 334.541 415.727 334.841C415.879 335.141 416.092 335.37 416.364 335.528C416.636 335.684 416.954 335.761 417.318 335.761C417.554 335.761 417.769 335.728 417.963 335.661C418.158 335.592 418.325 335.489 418.467 335.353C418.609 335.217 418.717 335.049 418.792 334.849L419.971 335.062C419.876 335.409 419.707 335.713 419.462 335.974C419.221 336.232 418.917 336.433 418.55 336.578C418.187 336.719 417.772 336.79 417.305 336.79ZM424.126 336.79C423.507 336.79 422.974 336.65 422.527 336.369C422.083 336.086 421.741 335.696 421.502 335.199C421.263 334.702 421.144 334.133 421.144 333.491C421.144 332.842 421.266 332.268 421.511 331.771C421.755 331.272 422.099 330.882 422.543 330.601C422.988 330.321 423.511 330.18 424.114 330.18C424.599 330.18 425.033 330.271 425.413 330.451C425.793 330.629 426.1 330.879 426.333 331.201C426.569 331.523 426.71 331.899 426.754 332.329H425.542C425.475 332.03 425.323 331.771 425.084 331.555C424.848 331.338 424.531 331.23 424.134 331.23C423.787 331.23 423.483 331.322 423.222 331.505C422.964 331.685 422.763 331.944 422.618 332.28C422.474 332.613 422.402 333.007 422.402 333.462C422.402 333.929 422.473 334.331 422.614 334.67C422.756 335.009 422.956 335.271 423.214 335.457C423.475 335.643 423.782 335.736 424.134 335.736C424.37 335.736 424.584 335.693 424.776 335.607C424.97 335.518 425.133 335.392 425.263 335.228C425.396 335.064 425.489 334.867 425.542 334.637H426.754C426.71 335.05 426.575 335.42 426.35 335.745C426.125 336.069 425.824 336.325 425.446 336.511C425.071 336.697 424.631 336.79 424.126 336.79ZM432.138 334.008V330.264H433.388V336.661H432.163V335.553H432.096C431.949 335.895 431.713 336.179 431.388 336.407C431.066 336.632 430.665 336.744 430.185 336.744C429.774 336.744 429.41 336.654 429.094 336.473C428.78 336.29 428.533 336.02 428.352 335.661C428.175 335.303 428.086 334.86 428.086 334.333V330.264H429.331V334.183C429.331 334.619 429.452 334.966 429.693 335.224C429.935 335.482 430.249 335.611 430.635 335.611C430.868 335.611 431.1 335.553 431.33 335.436C431.563 335.32 431.756 335.144 431.909 334.908C432.065 334.671 432.141 334.372 432.138 334.008ZM435.061 336.661V330.264H436.264V331.28H436.331C436.448 330.936 436.653 330.665 436.947 330.468C437.245 330.268 437.58 330.168 437.955 330.168C438.033 330.168 438.125 330.171 438.23 330.176C438.338 330.182 438.423 330.189 438.484 330.197V331.388C438.434 331.374 438.345 331.359 438.218 331.342C438.09 331.323 437.962 331.313 437.835 331.313C437.54 331.313 437.278 331.376 437.047 331.501C436.82 331.623 436.639 331.794 436.506 332.013C436.373 332.23 436.306 332.477 436.306 332.754V336.661H435.061ZM439.562 336.661V330.264H440.807V336.661H439.562ZM440.191 329.277C439.974 329.277 439.788 329.204 439.633 329.06C439.48 328.913 439.404 328.738 439.404 328.535C439.404 328.33 439.48 328.155 439.633 328.011C439.788 327.863 439.974 327.79 440.191 327.79C440.407 327.79 440.592 327.863 440.745 328.011C440.9 328.155 440.978 328.33 440.978 328.535C440.978 328.738 440.9 328.913 440.745 329.06C440.592 329.204 440.407 329.277 440.191 329.277ZM445.469 330.264V331.263H441.974V330.264H445.469ZM442.911 328.731H444.157V334.783C444.157 335.024 444.193 335.206 444.265 335.328C444.337 335.448 444.43 335.529 444.544 335.574C444.661 335.616 444.787 335.636 444.923 335.636C445.023 335.636 445.11 335.629 445.185 335.616C445.26 335.602 445.319 335.591 445.36 335.582L445.585 336.611C445.513 336.639 445.41 336.666 445.277 336.694C445.144 336.725 444.977 336.741 444.777 336.744C444.45 336.75 444.144 336.691 443.861 336.569C443.578 336.447 443.349 336.258 443.174 336.003C442.999 335.747 442.911 335.427 442.911 335.041V328.731ZM447.633 339.06C447.447 339.06 447.278 339.045 447.125 339.014C446.972 338.986 446.859 338.956 446.784 338.922L447.084 337.902C447.311 337.963 447.514 337.989 447.692 337.981C447.869 337.973 448.026 337.906 448.162 337.781C448.301 337.656 448.423 337.452 448.529 337.169L448.683 336.744L446.342 330.264H447.675L449.295 335.228H449.362L450.982 330.264H452.319L449.682 337.515C449.56 337.848 449.405 338.13 449.216 338.36C449.027 338.593 448.802 338.768 448.541 338.885C448.28 339.002 447.978 339.06 447.633 339.06Z" fill="#131520"/>
<path d="M500.973 336.661V328.131H504.097C504.702 328.131 505.203 328.231 505.6 328.431C505.997 328.628 506.294 328.896 506.491 329.235C506.689 329.571 506.787 329.95 506.787 330.372C506.787 330.727 506.722 331.027 506.591 331.272C506.461 331.513 506.286 331.708 506.067 331.855C505.85 331.999 505.611 332.105 505.35 332.171V332.255C505.633 332.268 505.91 332.36 506.179 332.529C506.451 332.696 506.676 332.933 506.854 333.242C507.031 333.55 507.12 333.925 507.12 334.366C507.12 334.802 507.018 335.193 506.812 335.541C506.609 335.885 506.296 336.158 505.871 336.361C505.446 336.561 504.903 336.661 504.242 336.661H500.973ZM502.26 335.557H504.118C504.734 335.557 505.175 335.438 505.442 335.199C505.708 334.96 505.842 334.662 505.842 334.304C505.842 334.034 505.774 333.787 505.638 333.562C505.502 333.337 505.307 333.158 505.055 333.025C504.805 332.892 504.508 332.825 504.163 332.825H502.26V335.557ZM502.26 331.821H503.984C504.273 331.821 504.533 331.766 504.763 331.655C504.996 331.544 505.181 331.388 505.317 331.188C505.456 330.986 505.525 330.747 505.525 330.472C505.525 330.119 505.402 329.824 505.155 329.585C504.907 329.346 504.528 329.227 504.018 329.227H502.26V331.821ZM508.547 336.661V330.264H509.75V331.28H509.817C509.934 330.936 510.139 330.665 510.433 330.468C510.731 330.268 511.066 330.168 511.441 330.168C511.519 330.168 511.611 330.171 511.716 330.176C511.824 330.182 511.909 330.189 511.97 330.197V331.388C511.92 331.374 511.831 331.359 511.704 331.342C511.576 331.323 511.448 331.313 511.321 331.313C511.026 331.313 510.764 331.376 510.533 331.501C510.306 331.623 510.125 331.794 509.992 332.013C509.859 332.23 509.792 332.477 509.792 332.754V336.661H508.547ZM514.852 336.802C514.447 336.802 514.08 336.728 513.753 336.578C513.425 336.425 513.166 336.204 512.974 335.915C512.785 335.627 512.691 335.273 512.691 334.853C512.691 334.492 512.76 334.195 512.899 333.962C513.038 333.729 513.225 333.544 513.461 333.408C513.697 333.272 513.961 333.169 514.253 333.1C514.544 333.031 514.841 332.978 515.144 332.942C515.527 332.897 515.838 332.861 516.077 332.833C516.316 332.803 516.489 332.754 516.597 332.688C516.706 332.621 516.76 332.513 516.76 332.363V332.334C516.76 331.97 516.657 331.688 516.452 331.488C516.249 331.288 515.946 331.188 515.544 331.188C515.124 331.188 514.794 331.281 514.552 331.467C514.314 331.651 514.148 331.855 514.057 332.08L512.887 331.813C513.025 331.424 513.228 331.111 513.495 330.872C513.764 330.63 514.073 330.455 514.423 330.347C514.773 330.236 515.141 330.18 515.527 330.18C515.782 330.18 516.053 330.211 516.339 330.272C516.628 330.33 516.897 330.439 517.147 330.597C517.4 330.755 517.607 330.981 517.768 331.276C517.929 331.567 518.009 331.946 518.009 332.413V336.661H516.793V335.786H516.743C516.663 335.947 516.542 336.106 516.381 336.261C516.22 336.417 516.013 336.546 515.76 336.648C515.508 336.751 515.205 336.802 514.852 336.802ZM515.123 335.803C515.467 335.803 515.762 335.735 516.006 335.599C516.253 335.463 516.441 335.285 516.568 335.066C516.699 334.844 516.764 334.606 516.764 334.354V333.529C516.72 333.573 516.633 333.615 516.506 333.654C516.381 333.69 516.238 333.722 516.077 333.75C515.916 333.775 515.759 333.798 515.606 333.82C515.453 333.84 515.326 333.857 515.223 333.87C514.981 333.901 514.761 333.952 514.561 334.025C514.364 334.097 514.205 334.201 514.086 334.337C513.969 334.47 513.911 334.648 513.911 334.87C513.911 335.178 514.025 335.411 514.253 335.57C514.48 335.725 514.77 335.803 515.123 335.803ZM520.913 332.863V336.661H519.668V330.264H520.863V331.305H520.942C521.089 330.966 521.32 330.694 521.634 330.489C521.95 330.283 522.349 330.18 522.829 330.18C523.265 330.18 523.647 330.272 523.974 330.455C524.302 330.636 524.556 330.905 524.736 331.263C524.917 331.621 525.007 332.064 525.007 332.592V336.661H523.762V332.742C523.762 332.278 523.641 331.916 523.4 331.655C523.158 331.391 522.826 331.259 522.404 331.259C522.115 331.259 521.859 331.322 521.634 331.447C521.412 331.571 521.235 331.755 521.105 331.996C520.977 332.235 520.913 332.524 520.913 332.863ZM529.072 336.786C528.556 336.786 528.095 336.654 527.689 336.39C527.287 336.124 526.97 335.745 526.74 335.253C526.512 334.759 526.398 334.166 526.398 333.475C526.398 332.783 526.513 332.192 526.744 331.701C526.977 331.209 527.296 330.833 527.702 330.572C528.107 330.311 528.567 330.18 529.08 330.18C529.477 330.18 529.797 330.247 530.038 330.38C530.283 330.511 530.471 330.664 530.605 330.838C530.741 331.013 530.846 331.167 530.921 331.301H530.996V328.131H532.241V336.661H531.025V335.665H530.921C530.846 335.802 530.738 335.957 530.596 336.132C530.458 336.307 530.266 336.46 530.022 336.59C529.777 336.721 529.461 336.786 529.072 336.786ZM529.347 335.724C529.705 335.724 530.008 335.629 530.255 335.441C530.505 335.249 530.694 334.984 530.821 334.645C530.952 334.306 531.017 333.912 531.017 333.462C531.017 333.018 530.953 332.629 530.825 332.296C530.698 331.963 530.51 331.703 530.263 331.517C530.016 331.331 529.711 331.238 529.347 331.238C528.972 331.238 528.66 331.335 528.41 331.53C528.16 331.724 527.971 331.989 527.843 332.325C527.718 332.661 527.656 333.04 527.656 333.462C527.656 333.89 527.72 334.274 527.848 334.616C527.975 334.957 528.164 335.228 528.414 335.428C528.667 335.625 528.978 335.724 529.347 335.724ZM537.223 336.661V328.131H540.263C540.927 328.131 541.476 328.252 541.912 328.494C542.348 328.735 542.674 329.066 542.891 329.485C543.107 329.901 543.216 330.371 543.216 330.893C543.216 331.417 543.106 331.889 542.887 332.309C542.67 332.725 542.343 333.056 541.904 333.3C541.468 333.541 540.92 333.662 540.259 333.662H538.168V332.571H540.142C540.561 332.571 540.902 332.499 541.163 332.354C541.424 332.207 541.615 332.007 541.737 331.755C541.859 331.502 541.921 331.215 541.921 330.893C541.921 330.571 541.859 330.285 541.737 330.035C541.615 329.785 541.422 329.589 541.158 329.447C540.897 329.306 540.553 329.235 540.125 329.235H538.51V336.661H537.223ZM544.625 336.661V330.264H545.828V331.28H545.895C546.011 330.936 546.217 330.665 546.511 330.468C546.808 330.268 547.144 330.168 547.519 330.168C547.597 330.168 547.688 330.171 547.794 330.176C547.902 330.182 547.987 330.189 548.048 330.197V331.388C547.998 331.374 547.909 331.359 547.781 331.342C547.654 331.323 547.526 331.313 547.398 331.313C547.104 331.313 546.842 331.376 546.611 331.501C546.383 331.623 546.203 331.794 546.07 332.013C545.936 332.23 545.87 332.477 545.87 332.754V336.661H544.625ZM551.591 336.79C550.991 336.79 550.468 336.653 550.021 336.378C549.574 336.103 549.227 335.718 548.98 335.224C548.733 334.73 548.609 334.152 548.609 333.491C548.609 332.828 548.733 332.248 548.98 331.751C549.227 331.254 549.574 330.868 550.021 330.593C550.468 330.318 550.991 330.18 551.591 330.18C552.191 330.18 552.714 330.318 553.161 330.593C553.608 330.868 553.955 331.254 554.203 331.751C554.45 332.248 554.573 332.828 554.573 333.491C554.573 334.152 554.45 334.73 554.203 335.224C553.955 335.718 553.608 336.103 553.161 336.378C552.714 336.653 552.191 336.79 551.591 336.79ZM551.595 335.745C551.984 335.745 552.306 335.642 552.562 335.436C552.817 335.231 553.006 334.957 553.128 334.616C553.253 334.274 553.315 333.898 553.315 333.487C553.315 333.079 553.253 332.704 553.128 332.363C553.006 332.019 552.817 331.742 552.562 331.534C552.306 331.326 551.984 331.222 551.595 331.222C551.204 331.222 550.879 331.326 550.621 331.534C550.365 331.742 550.175 332.019 550.05 332.363C549.928 332.704 549.867 333.079 549.867 333.487C549.867 333.898 549.928 334.274 550.05 334.616C550.175 334.957 550.365 335.231 550.621 335.436C550.879 335.642 551.204 335.745 551.595 335.745ZM558.949 330.264V331.263H555.455V330.264H558.949ZM556.392 328.731H557.637V334.783C557.637 335.024 557.674 335.206 557.746 335.328C557.818 335.448 557.911 335.529 558.025 335.574C558.141 335.616 558.268 335.636 558.404 335.636C558.504 335.636 558.591 335.629 558.666 335.616C558.741 335.602 558.799 335.591 558.841 335.582L559.066 336.611C558.994 336.639 558.891 336.666 558.758 336.694C558.625 336.725 558.458 336.741 558.258 336.744C557.93 336.75 557.625 336.691 557.342 336.569C557.059 336.447 556.83 336.258 556.655 336.003C556.48 335.747 556.392 335.427 556.392 335.041V328.731ZM563.015 336.79C562.385 336.79 561.842 336.655 561.387 336.386C560.934 336.114 560.584 335.732 560.337 335.241C560.093 334.746 559.971 334.168 559.971 333.504C559.971 332.849 560.093 332.271 560.337 331.771C560.584 331.272 560.929 330.882 561.37 330.601C561.814 330.321 562.334 330.18 562.928 330.18C563.289 330.18 563.639 330.24 563.977 330.36C564.316 330.479 564.62 330.666 564.889 330.922C565.159 331.177 565.371 331.509 565.527 331.917C565.682 332.323 565.76 332.815 565.76 333.396V333.837H560.675V332.904H564.54C564.54 332.577 564.473 332.286 564.34 332.034C564.206 331.778 564.019 331.577 563.777 331.43C563.539 331.283 563.258 331.209 562.936 331.209C562.586 331.209 562.281 331.295 562.02 331.467C561.762 331.637 561.562 331.859 561.42 332.134C561.281 332.406 561.212 332.702 561.212 333.021V333.75C561.212 334.177 561.287 334.541 561.437 334.841C561.59 335.141 561.802 335.37 562.074 335.528C562.346 335.684 562.664 335.761 563.028 335.761C563.264 335.761 563.479 335.728 563.673 335.661C563.868 335.592 564.036 335.489 564.177 335.353C564.319 335.217 564.427 335.049 564.502 334.849L565.681 335.062C565.586 335.409 565.417 335.713 565.173 335.974C564.931 336.232 564.627 336.433 564.261 336.578C563.897 336.719 563.482 336.79 563.015 336.79ZM569.836 336.79C569.217 336.79 568.684 336.65 568.237 336.369C567.793 336.086 567.451 335.696 567.212 335.199C566.974 334.702 566.854 334.133 566.854 333.491C566.854 332.842 566.976 332.268 567.221 331.771C567.465 331.272 567.809 330.882 568.254 330.601C568.698 330.321 569.221 330.18 569.824 330.18C570.31 330.18 570.743 330.271 571.123 330.451C571.504 330.629 571.81 330.879 572.044 331.201C572.28 331.523 572.42 331.899 572.464 332.329H571.252C571.186 332.03 571.033 331.771 570.794 331.555C570.558 331.338 570.242 331.23 569.845 331.23C569.498 331.23 569.193 331.322 568.932 331.505C568.674 331.685 568.473 331.944 568.329 332.28C568.184 332.613 568.112 333.007 568.112 333.462C568.112 333.929 568.183 334.331 568.324 334.67C568.466 335.009 568.666 335.271 568.924 335.457C569.185 335.643 569.492 335.736 569.845 335.736C570.081 335.736 570.294 335.693 570.486 335.607C570.68 335.518 570.843 335.392 570.973 335.228C571.107 335.064 571.2 334.867 571.252 334.637H572.464C572.42 335.05 572.285 335.42 572.06 335.745C571.835 336.069 571.534 336.325 571.156 336.511C570.782 336.697 570.342 336.79 569.836 336.79ZM576.782 330.264V331.263H573.288V330.264H576.782ZM574.225 328.731H575.47V334.783C575.47 335.024 575.506 335.206 575.578 335.328C575.651 335.448 575.744 335.529 575.858 335.574C575.974 335.616 576.1 335.636 576.237 335.636C576.336 335.636 576.424 335.629 576.499 335.616C576.574 335.602 576.632 335.591 576.674 335.582L576.899 336.611C576.827 336.639 576.724 336.666 576.591 336.694C576.457 336.725 576.291 336.741 576.091 336.744C575.763 336.75 575.458 336.691 575.174 336.569C574.891 336.447 574.662 336.258 574.487 336.003C574.312 335.747 574.225 335.427 574.225 335.041V328.731ZM578.16 336.661V330.264H579.405V336.661H578.16ZM578.789 329.277C578.572 329.277 578.386 329.204 578.23 329.06C578.078 328.913 578.001 328.738 578.001 328.535C578.001 328.33 578.078 328.155 578.23 328.011C578.386 327.863 578.572 327.79 578.789 327.79C579.005 327.79 579.19 327.863 579.342 328.011C579.498 328.155 579.576 328.33 579.576 328.535C579.576 328.738 579.498 328.913 579.342 329.06C579.19 329.204 579.005 329.277 578.789 329.277ZM583.775 336.79C583.175 336.79 582.652 336.653 582.205 336.378C581.758 336.103 581.411 335.718 581.164 335.224C580.916 334.73 580.793 334.152 580.793 333.491C580.793 332.828 580.916 332.248 581.164 331.751C581.411 331.254 581.758 330.868 582.205 330.593C582.652 330.318 583.175 330.18 583.775 330.18C584.375 330.18 584.898 330.318 585.345 330.593C585.792 330.868 586.139 331.254 586.386 331.751C586.633 332.248 586.757 332.828 586.757 333.491C586.757 334.152 586.633 334.73 586.386 335.224C586.139 335.718 585.792 336.103 585.345 336.378C584.898 336.653 584.375 336.79 583.775 336.79ZM583.779 335.745C584.168 335.745 584.49 335.642 584.745 335.436C585.001 335.231 585.189 334.957 585.312 334.616C585.437 334.274 585.499 333.898 585.499 333.487C585.499 333.079 585.437 332.704 585.312 332.363C585.189 332.019 585.001 331.742 584.745 331.534C584.49 331.326 584.168 331.222 583.779 331.222C583.388 331.222 583.063 331.326 582.804 331.534C582.549 331.742 582.359 332.019 582.234 332.363C582.112 332.704 582.051 333.079 582.051 333.487C582.051 333.898 582.112 334.274 582.234 334.616C582.359 334.957 582.549 335.231 582.804 335.436C583.063 335.642 583.388 335.745 583.779 335.745ZM589.392 332.863V336.661H588.147V330.264H589.342V331.305H589.421C589.568 330.966 589.799 330.694 590.113 330.489C590.429 330.283 590.828 330.18 591.308 330.18C591.744 330.18 592.126 330.272 592.453 330.455C592.781 330.636 593.035 330.905 593.215 331.263C593.396 331.621 593.486 332.064 593.486 332.592V336.661H592.241V332.742C592.241 332.278 592.12 331.916 591.879 331.655C591.637 331.391 591.305 331.259 590.883 331.259C590.594 331.259 590.338 331.322 590.113 331.447C589.891 331.571 589.714 331.755 589.584 331.996C589.456 332.235 589.392 332.524 589.392 332.863Z" fill="#131520"/>
<path d="M522.016 70.9678V69.9386L525.2 66.6396C525.54 66.2813 525.821 65.9673 526.041 65.6977C526.265 65.4251 526.432 65.1663 526.542 64.9212C526.652 64.6762 526.707 64.4158 526.707 64.1402C526.707 63.8277 526.634 63.5582 526.487 63.3315C526.34 63.1018 526.139 62.9256 525.885 62.8031C525.631 62.6775 525.344 62.6147 525.026 62.6147C524.689 62.6147 524.395 62.6837 524.144 62.8215C523.892 62.9593 523.699 63.1538 523.565 63.405C523.43 63.6562 523.362 63.9503 523.362 64.2872H522.007C522.007 63.7144 522.139 63.2136 522.402 62.7847C522.666 62.3559 523.027 62.0236 523.487 61.7877C523.946 61.5488 524.468 61.4293 525.053 61.4293C525.644 61.4293 526.165 61.5473 526.615 61.7831C527.069 62.0159 527.423 62.3345 527.677 62.7388C527.931 63.1401 528.058 63.5934 528.058 64.0988C528.058 64.448 527.992 64.7895 527.861 65.1234C527.732 65.4573 527.507 65.8295 527.185 66.2399C526.864 66.6473 526.416 67.142 525.844 67.724L523.974 69.6813V69.7502H528.21V70.9678H522.016ZM533.227 71.124C532.501 71.1209 531.881 70.9295 531.366 70.5497C530.852 70.1698 530.458 69.617 530.185 68.891C529.913 68.1651 529.777 67.2905 529.777 66.2675C529.777 65.2475 529.913 64.376 530.185 63.6531C530.461 62.9302 530.856 62.3789 531.371 61.9991C531.889 61.6192 532.507 61.4293 533.227 61.4293C533.947 61.4293 534.564 61.6208 535.079 62.0037C535.593 62.3835 535.987 62.9348 536.26 63.6577C536.535 64.3776 536.673 65.2475 536.673 66.2675C536.673 67.2936 536.537 68.1696 536.264 68.8956C535.992 69.6185 535.598 70.1714 535.083 70.5543C534.569 70.9341 533.95 71.124 533.227 71.124ZM533.227 69.8972C533.864 69.8972 534.362 69.5863 534.72 68.9645C535.082 68.3427 535.263 67.4437 535.263 66.2675C535.263 65.4864 535.18 64.8263 535.014 64.2872C534.852 63.745 534.618 63.3346 534.311 63.0558C534.008 62.774 533.647 62.6331 533.227 62.6331C532.593 62.6331 532.095 62.9456 531.734 63.5704C531.372 64.1953 531.19 65.0943 531.187 66.2675C531.187 67.0516 531.268 67.7148 531.431 68.2569C531.596 68.796 531.83 69.205 532.134 69.4837C532.437 69.7594 532.801 69.8972 533.227 69.8972ZM538.303 70.9678V69.9386L541.487 66.6396C541.827 66.2813 542.107 65.9673 542.328 65.6977C542.552 65.4251 542.718 65.1663 542.829 64.9212C542.939 64.6762 542.994 64.4158 542.994 64.1402C542.994 63.8277 542.921 63.5582 542.774 63.3315C542.627 63.1018 542.426 62.9256 542.172 62.8031C541.917 62.6775 541.631 62.6147 541.313 62.6147C540.976 62.6147 540.682 62.6837 540.43 62.8215C540.179 62.9593 539.986 63.1538 539.851 63.405C539.717 63.6562 539.649 63.9503 539.649 64.2872H538.294C538.294 63.7144 538.426 63.2136 538.689 62.7847C538.952 62.3559 539.314 62.0236 539.773 61.7877C540.233 61.5488 540.755 61.4293 541.34 61.4293C541.931 61.4293 542.452 61.5473 542.902 61.7831C543.356 62.0159 543.709 62.3345 543.964 62.7388C544.218 63.1401 544.345 63.5934 544.345 64.0988C544.345 64.448 544.279 64.7895 544.147 65.1234C544.019 65.4573 543.794 65.8295 543.472 66.2399C543.15 66.6473 542.703 67.142 542.13 67.724L540.26 69.6813V69.7502H544.497V70.9678H538.303ZM546.238 70.9678V69.9386L549.422 66.6396C549.762 66.2813 550.042 65.9673 550.263 65.6977C550.486 65.4251 550.653 65.1663 550.764 64.9212C550.874 64.6762 550.929 64.4158 550.929 64.1402C550.929 63.8277 550.856 63.5582 550.709 63.3315C550.561 63.1018 550.361 62.9256 550.107 62.8031C549.852 62.6775 549.566 62.6147 549.247 62.6147C548.91 62.6147 548.616 62.6837 548.365 62.8215C548.114 62.9593 547.921 63.1538 547.786 63.405C547.652 63.6562 547.584 63.9503 547.584 64.2872H546.229C546.229 63.7144 546.36 63.2136 546.624 62.7847C546.887 62.3559 547.249 62.0236 547.708 61.7877C548.168 61.5488 548.69 61.4293 549.275 61.4293C549.866 61.4293 550.387 61.5473 550.837 61.7831C551.291 62.0159 551.644 62.3345 551.899 62.7388C552.153 63.1401 552.28 63.5934 552.28 64.0988C552.28 64.448 552.214 64.7895 552.082 65.1234C551.954 65.4573 551.729 65.8295 551.407 66.2399C551.085 66.6473 550.638 67.142 550.065 67.724L548.195 69.6813V69.7502H552.432V70.9678H546.238Z" fill="#131520"/>
<path d="M600.344 70.9678V69.9386L603.528 66.6396C603.868 66.2813 604.148 65.9673 604.369 65.6977C604.593 65.4251 604.759 65.1663 604.87 64.9212C604.98 64.6762 605.035 64.4158 605.035 64.1402C605.035 63.8277 604.962 63.5582 604.815 63.3315C604.668 63.1018 604.467 62.9256 604.213 62.8031C603.959 62.6775 603.672 62.6147 603.354 62.6147C603.017 62.6147 602.723 62.6837 602.471 62.8215C602.22 62.9593 602.027 63.1538 601.892 63.405C601.758 63.6562 601.69 63.9503 601.69 64.2872H600.335C600.335 63.7144 600.467 63.2136 600.73 62.7847C600.993 62.3559 601.355 62.0236 601.814 61.7877C602.274 61.5488 602.796 61.4293 603.381 61.4293C603.972 61.4293 604.493 61.5473 604.943 61.7831C605.397 62.0159 605.75 62.3345 606.005 62.7388C606.259 63.1401 606.386 63.5934 606.386 64.0988C606.386 64.448 606.32 64.7895 606.188 65.1234C606.06 65.4573 605.835 65.8295 605.513 66.2399C605.191 66.6473 604.744 67.142 604.171 67.724L602.301 69.6813V69.7502H606.538V70.9678H600.344ZM611.555 71.124C610.829 71.1209 610.209 70.9295 609.694 70.5497C609.18 70.1698 608.786 69.617 608.513 68.891C608.241 68.1651 608.104 67.2905 608.104 66.2675C608.104 65.2475 608.241 64.376 608.513 63.6531C608.789 62.9302 609.184 62.3789 609.699 61.9991C610.216 61.6192 610.835 61.4293 611.555 61.4293C612.275 61.4293 612.892 61.6208 613.407 62.0037C613.921 62.3835 614.315 62.9348 614.587 63.6577C614.863 64.3776 615.001 65.2475 615.001 66.2675C615.001 67.2936 614.865 68.1696 614.592 68.8956C614.319 69.6185 613.926 70.1714 613.411 70.5543C612.897 70.9341 612.278 71.124 611.555 71.124ZM611.555 69.8972C612.192 69.8972 612.69 69.5863 613.048 68.9645C613.41 68.3427 613.59 67.4437 613.59 66.2675C613.59 65.4864 613.508 64.8263 613.342 64.2872C613.18 63.745 612.946 63.3346 612.639 63.0558C612.336 62.774 611.975 62.6331 611.555 62.6331C610.921 62.6331 610.423 62.9456 610.062 63.5704C609.7 64.1953 609.518 65.0943 609.515 66.2675C609.515 67.0516 609.596 67.7148 609.758 68.2569C609.924 68.796 610.158 69.205 610.461 69.4837C610.765 69.7594 611.129 69.8972 611.555 69.8972ZM616.631 70.9678V69.9386L619.815 66.6396C620.155 66.2813 620.435 65.9673 620.656 65.6977C620.879 65.4251 621.046 65.1663 621.157 64.9212C621.267 64.6762 621.322 64.4158 621.322 64.1402C621.322 63.8277 621.248 63.5582 621.101 63.3315C620.954 63.1018 620.754 62.9256 620.5 62.8031C620.245 62.6775 619.959 62.6147 619.64 62.6147C619.303 62.6147 619.009 62.6837 618.758 62.8215C618.507 62.9593 618.314 63.1538 618.179 63.405C618.044 63.6562 617.977 63.9503 617.977 64.2872H616.622C616.622 63.7144 616.753 63.2136 617.017 62.7847C617.28 62.3559 617.642 62.0236 618.101 61.7877C618.561 61.5488 619.083 61.4293 619.668 61.4293C620.259 61.4293 620.78 61.5473 621.23 61.7831C621.683 62.0159 622.037 62.3345 622.291 62.7388C622.546 63.1401 622.673 63.5934 622.673 64.0988C622.673 64.448 622.607 64.7895 622.475 65.1234C622.347 65.4573 622.121 65.8295 621.8 66.2399C621.478 66.6473 621.031 67.142 620.458 67.724L618.588 69.6813V69.7502H622.824V70.9678H616.631ZM627.842 71.0964C627.211 71.0964 626.647 70.9877 626.151 70.7702C625.658 70.5527 625.267 70.251 624.979 69.8651C624.694 69.4761 624.541 69.0258 624.52 68.5142H625.963C625.981 68.793 626.074 69.035 626.243 69.2402C626.414 69.4424 626.638 69.5986 626.914 69.7088C627.189 69.8191 627.496 69.8743 627.833 69.8743C628.203 69.8743 628.531 69.8099 628.816 69.6813C629.104 69.5526 629.329 69.3734 629.491 69.1437C629.654 68.9109 629.735 68.6429 629.735 68.3396C629.735 68.0242 629.654 67.7469 629.491 67.508C629.332 67.266 629.098 67.0761 628.788 66.9383C628.482 66.8004 628.111 66.7315 627.676 66.7315H626.881V65.5737H627.676C628.026 65.5737 628.332 65.5109 628.595 65.3853C628.862 65.2597 629.07 65.0851 629.22 64.8615C629.37 64.6348 629.445 64.3699 629.445 64.0666C629.445 63.7757 629.379 63.523 629.248 63.3085C629.119 63.0911 628.935 62.9211 628.696 62.7985C628.46 62.676 628.182 62.6147 627.86 62.6147C627.554 62.6147 627.267 62.6714 627.001 62.7847C626.737 62.895 626.523 63.0543 626.358 63.2626C626.192 63.4678 626.103 63.7144 626.091 64.0023H624.717C624.733 63.4939 624.883 63.0466 625.168 62.6607C625.456 62.2747 625.835 61.973 626.307 61.7556C626.779 61.5381 627.303 61.4293 627.878 61.4293C628.482 61.4293 629.003 61.5473 629.441 61.7831C629.882 62.0159 630.222 62.3268 630.461 62.7158C630.703 63.1048 630.822 63.5306 630.819 63.9931C630.822 64.52 630.675 64.9672 630.378 65.3348C630.084 65.7023 629.692 65.9489 629.202 66.0745V66.148C629.827 66.243 630.311 66.4911 630.654 66.8923C631 67.2936 631.171 67.7914 631.168 68.3856C631.171 68.9033 631.027 69.3673 630.736 69.7778C630.448 70.1882 630.055 70.5114 629.556 70.7472C629.056 70.98 628.485 71.0964 627.842 71.0964Z" fill="#131520"/>
<rect x="495.436" y="59.1245" width="14.6261" height="14.6261" rx="5.2125" fill="#CAD9F1"/>
<rect x="573.949" y="59.1245" width="14.6261" height="14.6261" rx="5.2125" fill="#1757C2"/>
<path d="M117.751 305.988L117.751 145.617C117.751 142.738 120.085 140.405 122.964 140.405L145.317 140.405C148.196 140.405 150.529 142.738 150.529 145.617L150.53 305.988L117.751 305.988Z" fill="#CAD9F1"/>
<path d="M159.382 305.988L159.382 154.317C159.382 151.438 161.716 149.104 164.595 149.104L186.948 149.104C189.827 149.104 192.161 151.438 192.161 154.317L192.161 305.988L159.382 305.988Z" fill="#1757C2"/>
<path d="M248.394 305.988L248.394 120.904C248.394 118.026 250.727 115.692 253.606 115.692L275.959 115.692C278.838 115.692 281.172 118.026 281.172 120.904L281.172 305.988L248.394 305.988Z" fill="#CAD9F1"/>
<path d="M290.025 305.988L290.025 118.073C290.025 115.195 292.359 112.861 295.237 112.861L317.59 112.861C320.469 112.861 322.803 115.195 322.803 118.073L322.803 305.988L290.025 305.988Z" fill="#1757C2"/>
<path d="M379.036 305.988L379.036 205.691C379.036 202.812 381.37 200.479 384.249 200.479L406.602 200.479C409.481 200.479 411.814 202.812 411.814 205.691L411.814 305.988L379.036 305.988Z" fill="#CAD9F1"/>
<path d="M420.667 305.988L420.667 198.542C420.667 195.663 423.001 193.329 425.88 193.329L448.233 193.329C451.112 193.329 453.445 195.663 453.445 198.542L453.446 305.988L420.667 305.988Z" fill="#1757C2"/>
<path d="M509.679 305.988L509.679 120.904C509.679 118.026 512.012 115.692 514.891 115.692L537.244 115.692C540.123 115.692 542.457 118.026 542.457 120.904L542.457 305.988L509.679 305.988Z" fill="#CAD9F1"/>
<path d="M551.31 305.988L551.31 113.024C551.31 110.145 553.643 107.811 556.522 107.811L578.875 107.811C581.754 107.811 584.088 110.145 584.088 113.024L584.088 305.988L551.31 305.988Z" fill="#1757C2"/>
</svg>
