<svg width="877" height="719" viewBox="0 0 877 719" fill="none" xmlns="http://www.w3.org/2000/svg">
<g filter="url(#filter0_d_570_661)">
<g clip-path="url(#clip0_570_661)">
<rect x="140.51" y="24" width="595" height="623" rx="16" fill="#E8EEF9"/>
<rect x="140.51" y="24" width="595" height="623" rx="16" fill="#1757C2"/>
<g clip-path="url(#clip1_570_661)">
<path d="M314.944 76.17V75.7185H316.748V76.17H316.087V78.1865H315.606V76.17H314.944Z" fill="white"/>
<path d="M317.079 78.1865V75.7185H317.921L318.342 77.5243L318.763 75.7185H319.605V78.1865H319.094V76.2904H319.034L318.553 78.0962H318.042L317.56 76.2904H317.5V78.1865H317.079Z" fill="white"/>
<path d="M218.373 89.1719C218.373 91.5797 219.636 92.8137 222.193 92.8137C224.749 92.8137 226.012 91.6098 226.012 89.1719V76.4709H229.05V89.1117C229.05 91.3088 228.478 92.904 227.306 93.9273C226.163 94.9506 224.448 95.4321 222.163 95.4321C219.877 95.4321 218.163 94.9205 217.02 93.9273C215.877 92.904 215.306 91.3088 215.306 89.1117V76.4709H218.343V89.1719H218.373Z" fill="white"/>
<path d="M232.749 101V81.4973H235.696V82.34C236.96 81.5876 238.132 81.1963 239.215 81.1963C241.02 81.1963 242.343 81.738 243.155 82.8516C243.997 83.9652 244.418 85.8011 244.418 88.3895C244.418 90.9778 243.937 92.8138 242.975 93.8672C242.012 94.9206 240.448 95.4623 238.313 95.4623C237.561 95.4623 236.719 95.372 235.726 95.2215V101H232.749ZM238.674 83.8448C237.832 83.8448 236.96 84.0254 236.117 84.4167L235.696 84.5973V92.6332C236.418 92.7837 237.23 92.8439 238.102 92.8439C239.335 92.8439 240.178 92.4827 240.659 91.7905C241.14 91.0681 241.381 89.8643 241.381 88.1487C241.381 85.2895 240.478 83.8448 238.674 83.8448Z" fill="white"/>
<path d="M255.335 87.9981V85.3194H260.658V94.8C260.177 94.9204 259.185 95.0709 257.681 95.2214C256.177 95.3719 255.094 95.4321 254.433 95.4321C251.606 95.4321 249.651 94.6495 248.568 93.0845C247.485 91.5194 246.974 89.0816 246.974 85.7408C246.974 82.4 247.515 79.9622 248.628 78.4573C249.741 76.9223 251.636 76.1699 254.342 76.1699C255.936 76.1699 257.741 76.3505 259.726 76.7117L260.688 76.8923L260.568 79.3C258.373 78.9991 256.388 78.8787 254.643 78.8787C252.899 78.8787 251.696 79.3602 251.064 80.3534C250.433 81.3466 250.102 83.1525 250.102 85.801C250.102 88.4495 250.403 90.2855 251.004 91.3088C251.606 92.3321 252.839 92.8136 254.703 92.8136C256.027 92.8136 257.019 92.7233 257.681 92.5728V87.9981H255.335Z" fill="white"/>
<path d="M272.327 81.4971H275.275V95.1311H272.327V94.2883C271.004 95.0408 269.771 95.432 268.658 95.432C266.794 95.432 265.53 94.9204 264.899 93.9272C264.267 92.9039 263.937 91.1582 263.937 88.6301V81.4971H266.914V88.6602C266.914 90.2854 267.064 91.399 267.335 91.9709C267.606 92.5427 268.237 92.8136 269.23 92.8136C270.222 92.8136 271.124 92.633 271.936 92.2718L272.357 92.1214V81.4971H272.327Z" fill="white"/>
<path d="M288.959 85.7107V91.9408C288.989 92.3321 289.079 92.6331 289.259 92.8137C289.44 92.9942 289.741 93.1146 290.132 93.1748L290.041 95.4321C288.477 95.4321 287.274 95.101 286.402 94.4088C284.959 95.0709 283.485 95.4321 282.011 95.4321C279.305 95.4321 277.951 93.9874 277.951 91.0981C277.951 89.7137 278.312 88.7205 279.064 88.0884C279.786 87.4564 280.929 87.0952 282.462 86.9748L285.981 86.6739V85.6806C285.981 84.9583 285.831 84.4467 285.5 84.1457C285.169 83.8447 284.718 83.6942 284.086 83.6942C282.914 83.6942 281.47 83.7544 279.726 83.9049L278.853 83.9651L278.733 81.8583C280.718 81.3768 282.523 81.136 284.207 81.136C285.861 81.136 287.064 81.4972 287.816 82.2195C288.598 83.002 288.959 84.1457 288.959 85.7107ZM282.853 89.0816C281.59 89.202 280.959 89.8641 280.959 91.1282C280.959 92.3923 281.5 93.0243 282.613 93.0243C283.515 93.0243 284.477 92.8739 285.5 92.603L285.981 92.4525V88.7807L282.853 89.0816Z" fill="white"/>
<path d="M292.688 95.1313V81.4973H295.635V83.1225C297.169 82.1293 298.733 81.4672 300.267 81.1963V84.1759C298.703 84.4769 297.38 84.8982 296.267 85.3798L295.665 85.6206V95.1313H292.688Z" fill="white"/>
<path d="M313.5 75.8389V95.1311H310.552V94.4088C309.229 95.0709 307.996 95.4321 306.913 95.4321C305.139 95.4321 303.816 94.8903 303.004 93.8369C302.192 92.7534 301.771 90.9777 301.771 88.4496C301.771 85.9214 302.222 84.0855 303.154 82.9418C304.056 81.7981 305.5 81.2262 307.455 81.2262C308.116 81.2262 309.139 81.3466 310.552 81.5874V75.869H313.5V75.8389ZM310.071 92.302L310.522 92.1214V84.0253C309.44 83.8447 308.417 83.7544 307.485 83.7544C305.65 83.7544 304.718 85.2894 304.718 88.3292C304.718 90.0146 304.928 91.1583 305.349 91.8204C305.77 92.4525 306.462 92.7835 307.395 92.7835C308.327 92.7835 309.229 92.6331 310.071 92.302Z" fill="white"/>
<path d="M207.2 85.3966C206.358 87.2326 205.395 88.918 204.523 90.3627C203.621 91.9277 202.749 93.3423 201.636 94.9073C201.215 95.5093 200.734 96.1714 200.192 96.8636C198.809 98.5792 196.704 100.144 194.388 99.5122C192.042 98.85 190.779 96.7131 189.456 94.8471C187.411 92.018 185.486 88.918 183.922 85.4869C182.418 82.1762 181.035 77.9927 183.17 74.6219C183.741 73.719 184.493 72.9966 185.335 72.3947C185.907 72.0034 186.538 71.7024 187.17 71.4316C191.561 69.6257 197.034 69.6859 201.576 70.7393C202.989 71.0704 204.313 71.552 205.486 72.2743C206.267 72.7558 206.959 73.3879 207.531 74.1403C208.403 75.284 208.824 76.4879 208.944 77.7219C209.275 80.2801 208.313 82.9889 207.2 85.3966Z" fill="white"/>
</g>
<path d="M187.826 292V239.636H220.297V246.438H195.726V262.392H217.97V269.168H195.726V292H187.826ZM224.931 246.438V239.636H265.456V246.438H249.118V292H241.243V246.438H224.931ZM300.471 253.392C300.198 250.972 299.073 249.097 297.096 247.767C295.119 246.42 292.63 245.747 289.63 245.747C287.483 245.747 285.625 246.088 284.056 246.77C282.488 247.435 281.269 248.355 280.4 249.531C279.548 250.69 279.122 252.011 279.122 253.494C279.122 254.739 279.412 255.812 279.991 256.716C280.588 257.619 281.363 258.378 282.318 258.991C283.289 259.588 284.329 260.091 285.437 260.5C286.545 260.892 287.61 261.216 288.633 261.472L293.747 262.801C295.417 263.21 297.13 263.764 298.886 264.463C300.642 265.162 302.269 266.082 303.769 267.224C305.269 268.366 306.48 269.781 307.4 271.469C308.338 273.156 308.806 275.176 308.806 277.528C308.806 280.494 308.039 283.128 306.505 285.429C304.988 287.73 302.781 289.545 299.883 290.875C297.002 292.205 293.517 292.869 289.426 292.869C285.505 292.869 282.113 292.247 279.25 291.003C276.386 289.759 274.144 287.994 272.525 285.71C270.906 283.409 270.011 280.682 269.841 277.528H277.767C277.92 279.42 278.534 280.997 279.608 282.259C280.698 283.503 282.088 284.432 283.775 285.045C285.48 285.642 287.346 285.94 289.375 285.94C291.608 285.94 293.593 285.591 295.332 284.892C297.088 284.176 298.468 283.187 299.474 281.926C300.48 280.648 300.983 279.156 300.983 277.452C300.983 275.901 300.539 274.631 299.653 273.642C298.784 272.653 297.599 271.835 296.099 271.188C294.616 270.54 292.937 269.969 291.062 269.474L284.875 267.787C280.681 266.645 277.358 264.966 274.903 262.75C272.466 260.534 271.247 257.602 271.247 253.955C271.247 250.937 272.065 248.304 273.701 246.054C275.338 243.804 277.554 242.057 280.349 240.812C283.144 239.551 286.298 238.92 289.809 238.92C293.355 238.92 296.483 239.543 299.193 240.787C301.92 242.031 304.068 243.744 305.636 245.926C307.204 248.091 308.022 250.58 308.091 253.392H300.471ZM315.747 292V239.636H348.577V246.438H323.648V262.392H346.864V269.168H323.648V285.199H348.884V292H315.747ZM392.336 239.636V292H384.409V247.562H384.103L371.574 255.744V248.176L384.64 239.636H392.336ZM422.23 292.869C418.191 292.852 414.739 291.787 411.875 289.673C409.012 287.56 406.821 284.483 405.304 280.443C403.787 276.403 403.029 271.537 403.029 265.844C403.029 260.168 403.787 255.318 405.304 251.295C406.838 247.273 409.037 244.205 411.901 242.091C414.782 239.977 418.225 238.92 422.23 238.92C426.236 238.92 429.671 239.986 432.534 242.116C435.398 244.23 437.588 247.298 439.105 251.321C440.64 255.327 441.407 260.168 441.407 265.844C441.407 271.554 440.648 276.429 439.131 280.469C437.614 284.491 435.424 287.568 432.56 289.699C429.696 291.813 426.253 292.869 422.23 292.869ZM422.23 286.043C425.776 286.043 428.546 284.312 430.54 280.852C432.551 277.392 433.557 272.389 433.557 265.844C433.557 261.497 433.097 257.824 432.176 254.824C431.273 251.807 429.969 249.523 428.265 247.972C426.577 246.403 424.566 245.619 422.23 245.619C418.702 245.619 415.932 247.358 413.921 250.835C411.909 254.312 410.895 259.315 410.878 265.844C410.878 270.207 411.33 273.898 412.233 276.915C413.154 279.915 414.458 282.19 416.145 283.741C417.833 285.276 419.861 286.043 422.23 286.043ZM466.207 292.869C462.167 292.852 458.716 291.787 455.852 289.673C452.988 287.56 450.798 284.483 449.281 280.443C447.764 276.403 447.005 271.537 447.005 265.844C447.005 260.168 447.764 255.318 449.281 251.295C450.815 247.273 453.014 244.205 455.877 242.091C458.758 239.977 462.201 238.92 466.207 238.92C470.213 238.92 473.647 239.986 476.511 242.116C479.375 244.23 481.565 247.298 483.082 251.321C484.616 255.327 485.383 260.168 485.383 265.844C485.383 271.554 484.625 276.429 483.108 280.469C481.591 284.491 479.4 287.568 476.537 289.699C473.673 291.813 470.23 292.869 466.207 292.869ZM466.207 286.043C469.752 286.043 472.522 284.312 474.517 280.852C476.528 277.392 477.534 272.389 477.534 265.844C477.534 261.497 477.073 257.824 476.153 254.824C475.25 251.807 473.946 249.523 472.241 247.972C470.554 246.403 468.542 245.619 466.207 245.619C462.679 245.619 459.909 247.358 457.897 250.835C455.886 254.312 454.872 259.315 454.855 265.844C454.855 270.207 455.306 273.898 456.21 276.915C457.13 279.915 458.434 282.19 460.122 283.741C461.809 285.276 463.838 286.043 466.207 286.043Z" fill="#F3F7FC"/>
<path d="M-194.99 445H735.51V647H-194.99V445Z" fill="#E8EEF9"/>
<path d="M193.289 196.38C193.199 195.589 192.832 194.976 192.185 194.541C191.539 194.101 190.726 193.881 189.745 193.881C189.043 193.881 188.436 193.993 187.923 194.215C187.41 194.433 187.012 194.734 186.728 195.118C186.449 195.497 186.31 195.929 186.31 196.414C186.31 196.82 186.405 197.171 186.594 197.467C186.789 197.762 187.043 198.01 187.355 198.21C187.672 198.405 188.012 198.57 188.374 198.703C188.737 198.832 189.085 198.937 189.419 199.021L191.091 199.456C191.637 199.589 192.197 199.77 192.77 199.999C193.344 200.227 193.876 200.528 194.367 200.902C194.857 201.275 195.253 201.737 195.553 202.289C195.86 202.84 196.013 203.501 196.013 204.27C196.013 205.239 195.762 206.1 195.261 206.852C194.765 207.604 194.044 208.198 193.096 208.632C192.155 209.067 191.015 209.284 189.678 209.284C188.397 209.284 187.288 209.081 186.352 208.674C185.416 208.267 184.683 207.691 184.154 206.944C183.624 206.192 183.332 205.3 183.276 204.27H185.867C185.917 204.888 186.118 205.403 186.469 205.816C186.825 206.223 187.28 206.526 187.831 206.727C188.388 206.922 188.998 207.019 189.661 207.019C190.391 207.019 191.04 206.905 191.609 206.677C192.183 206.443 192.634 206.119 192.963 205.707C193.291 205.289 193.456 204.802 193.456 204.245C193.456 203.738 193.311 203.322 193.021 202.999C192.737 202.676 192.35 202.409 191.859 202.197C191.375 201.985 190.826 201.799 190.213 201.637L188.19 201.085C186.82 200.712 185.733 200.163 184.931 199.439C184.134 198.715 183.736 197.756 183.736 196.564C183.736 195.578 184.003 194.717 184.538 193.981C185.073 193.246 185.797 192.675 186.711 192.268C187.625 191.856 188.656 191.65 189.803 191.65C190.962 191.65 191.985 191.853 192.871 192.26C193.762 192.667 194.464 193.227 194.977 193.94C195.489 194.647 195.757 195.461 195.779 196.38H193.289ZM204.056 209.259C202.792 209.259 201.702 208.989 200.789 208.448C199.88 207.902 199.178 207.136 198.682 206.15C198.192 205.158 197.947 203.997 197.947 202.665C197.947 201.35 198.192 200.191 198.682 199.188C199.178 198.185 199.869 197.402 200.755 196.84C201.647 196.277 202.688 195.996 203.881 195.996C204.605 195.996 205.307 196.115 205.987 196.355C206.667 196.595 207.277 196.971 207.817 197.483C208.358 197.996 208.784 198.662 209.096 199.481C209.408 200.294 209.564 201.283 209.564 202.448V203.334H199.359V201.461H207.115C207.115 200.804 206.981 200.222 206.714 199.715C206.447 199.202 206.07 198.798 205.586 198.503C205.107 198.208 204.544 198.06 203.898 198.06C203.195 198.06 202.583 198.233 202.059 198.578C201.541 198.918 201.14 199.364 200.855 199.915C200.577 200.461 200.437 201.055 200.437 201.695V203.158C200.437 204.016 200.588 204.746 200.889 205.348C201.195 205.949 201.621 206.409 202.168 206.727C202.714 207.039 203.351 207.195 204.081 207.195C204.555 207.195 204.987 207.128 205.377 206.994C205.767 206.855 206.104 206.649 206.388 206.376C206.672 206.103 206.89 205.766 207.04 205.364L209.405 205.791C209.216 206.487 208.876 207.097 208.386 207.621C207.901 208.139 207.291 208.543 206.555 208.833C205.825 209.117 204.992 209.259 204.056 209.259ZM217.369 209.259C216.126 209.259 215.057 208.978 214.16 208.415C213.268 207.847 212.583 207.064 212.104 206.066C211.624 205.069 211.385 203.927 211.385 202.64C211.385 201.336 211.63 200.186 212.12 199.188C212.611 198.185 213.302 197.402 214.193 196.84C215.085 196.277 216.135 195.996 217.344 195.996C218.319 195.996 219.188 196.177 219.951 196.539C220.715 196.895 221.33 197.397 221.798 198.043C222.272 198.69 222.553 199.445 222.643 200.308H220.21C220.077 199.706 219.77 199.188 219.291 198.754C218.818 198.319 218.182 198.102 217.386 198.102C216.689 198.102 216.079 198.286 215.555 198.653C215.037 199.016 214.633 199.534 214.343 200.208C214.054 200.876 213.909 201.668 213.909 202.581C213.909 203.517 214.051 204.325 214.335 205.005C214.619 205.685 215.02 206.211 215.539 206.585C216.062 206.958 216.678 207.145 217.386 207.145C217.859 207.145 218.288 207.058 218.673 206.886C219.063 206.707 219.389 206.454 219.651 206.125C219.918 205.796 220.105 205.401 220.21 204.938H222.643C222.553 205.768 222.283 206.509 221.832 207.161C221.381 207.813 220.776 208.326 220.018 208.699C219.266 209.072 218.383 209.259 217.369 209.259ZM233.072 203.676V196.163H235.579V209H233.122V206.777H232.988C232.693 207.462 232.219 208.033 231.567 208.49C230.921 208.941 230.116 209.167 229.152 209.167C228.327 209.167 227.598 208.986 226.962 208.624C226.333 208.256 225.837 207.713 225.475 206.994C225.118 206.275 224.94 205.387 224.94 204.328V196.163H227.439V204.027C227.439 204.902 227.681 205.598 228.166 206.117C228.651 206.635 229.28 206.894 230.055 206.894C230.523 206.894 230.988 206.777 231.45 206.543C231.918 206.309 232.306 205.955 232.612 205.481C232.924 205.008 233.077 204.406 233.072 203.676ZM238.562 209V196.163H240.977V198.202H241.111C241.345 197.511 241.757 196.968 242.348 196.572C242.944 196.171 243.618 195.971 244.37 195.971C244.526 195.971 244.71 195.976 244.922 195.987C245.139 195.998 245.309 196.012 245.432 196.029V198.419C245.331 198.391 245.153 198.361 244.897 198.327C244.64 198.288 244.384 198.269 244.128 198.269C243.537 198.269 243.011 198.394 242.548 198.645C242.091 198.89 241.729 199.233 241.462 199.673C241.194 200.108 241.061 200.603 241.061 201.161V209H238.562ZM247.219 209V196.163H249.718V209H247.219ZM248.481 194.182C248.047 194.182 247.673 194.037 247.361 193.747C247.055 193.452 246.902 193.101 246.902 192.694C246.902 192.282 247.055 191.931 247.361 191.641C247.673 191.346 248.047 191.198 248.481 191.198C248.916 191.198 249.286 191.346 249.593 191.641C249.905 191.931 250.061 192.282 250.061 192.694C250.061 193.101 249.905 193.452 249.593 193.747C249.286 194.037 248.916 194.182 248.481 194.182ZM258.697 196.163V198.169H251.685V196.163H258.697ZM253.566 193.087H256.065V205.231C256.065 205.715 256.137 206.08 256.282 206.326C256.427 206.565 256.613 206.73 256.842 206.819C257.076 206.902 257.329 206.944 257.602 206.944C257.803 206.944 257.978 206.93 258.129 206.902C258.279 206.874 258.396 206.852 258.48 206.835L258.931 208.9C258.786 208.955 258.58 209.011 258.313 209.067C258.045 209.128 257.711 209.162 257.31 209.167C256.652 209.178 256.04 209.061 255.471 208.816C254.903 208.571 254.443 208.192 254.092 207.68C253.741 207.167 253.566 206.523 253.566 205.749V193.087ZM262.666 213.814C262.293 213.814 261.953 213.783 261.646 213.722C261.34 213.666 261.112 213.605 260.961 213.538L261.563 211.491C262.02 211.613 262.426 211.666 262.783 211.649C263.14 211.633 263.454 211.499 263.727 211.248C264.006 210.997 264.251 210.588 264.463 210.02L264.772 209.167L260.075 196.163H262.75L266.001 206.125H266.134L269.386 196.163H272.068L266.778 210.713C266.533 211.382 266.221 211.947 265.842 212.41C265.463 212.878 265.012 213.229 264.488 213.463C263.964 213.697 263.357 213.814 262.666 213.814ZM280.096 209V191.884H286.197C287.523 191.884 288.623 192.112 289.498 192.569C290.378 193.026 291.036 193.658 291.47 194.466C291.905 195.269 292.122 196.196 292.122 197.249C292.122 198.297 291.902 199.219 291.462 200.016C291.028 200.807 290.37 201.422 289.49 201.863C288.615 202.303 287.515 202.523 286.188 202.523H281.567V200.3H285.954C286.79 200.3 287.47 200.18 287.994 199.94C288.523 199.701 288.91 199.353 289.155 198.896C289.401 198.439 289.523 197.89 289.523 197.249C289.523 196.603 289.398 196.043 289.147 195.569C288.902 195.096 288.515 194.734 287.985 194.483C287.462 194.227 286.774 194.098 285.921 194.098H282.678V209H280.096ZM288.545 201.278L292.774 209H289.832L285.687 201.278H288.545ZM300.061 209.259C298.796 209.259 297.707 208.989 296.793 208.448C295.885 207.902 295.183 207.136 294.687 206.15C294.197 205.158 293.952 203.997 293.952 202.665C293.952 201.35 294.197 200.191 294.687 199.188C295.183 198.185 295.874 197.402 296.76 196.84C297.651 196.277 298.693 195.996 299.886 195.996C300.61 195.996 301.312 196.115 301.992 196.355C302.671 196.595 303.281 196.971 303.822 197.483C304.362 197.996 304.789 198.662 305.101 199.481C305.413 200.294 305.569 201.283 305.569 202.448V203.334H295.364V201.461H303.12C303.12 200.804 302.986 200.222 302.719 199.715C302.451 199.202 302.075 198.798 301.59 198.503C301.111 198.208 300.549 198.06 299.902 198.06C299.2 198.06 298.587 198.233 298.064 198.578C297.545 198.918 297.144 199.364 296.86 199.915C296.582 200.461 296.442 201.055 296.442 201.695V203.158C296.442 204.016 296.593 204.746 296.894 205.348C297.2 205.949 297.626 206.409 298.172 206.727C298.718 207.039 299.356 207.195 300.086 207.195C300.56 207.195 300.992 207.128 301.382 206.994C301.772 206.855 302.109 206.649 302.393 206.376C302.677 206.103 302.894 205.766 303.045 205.364L305.41 205.791C305.22 206.487 304.881 207.097 304.39 207.621C303.906 208.139 303.295 208.543 302.56 208.833C301.83 209.117 300.997 209.259 300.061 209.259ZM307.966 213.814V196.163H310.407V198.244H310.616C310.761 197.976 310.969 197.667 311.242 197.316C311.515 196.965 311.894 196.659 312.379 196.397C312.864 196.129 313.505 195.996 314.301 195.996C315.338 195.996 316.263 196.258 317.076 196.781C317.89 197.305 318.527 198.06 318.99 199.046C319.458 200.032 319.692 201.219 319.692 202.606C319.692 203.994 319.461 205.183 318.998 206.175C318.536 207.161 317.901 207.922 317.093 208.457C316.285 208.986 315.363 209.251 314.326 209.251C313.546 209.251 312.908 209.12 312.413 208.858C311.922 208.596 311.538 208.29 311.259 207.939C310.981 207.588 310.766 207.276 310.616 207.003H310.465V213.814H307.966ZM310.415 202.581C310.415 203.484 310.546 204.275 310.808 204.955C311.07 205.635 311.449 206.167 311.944 206.551C312.44 206.93 313.048 207.12 313.766 207.12C314.513 207.12 315.137 206.922 315.639 206.526C316.14 206.125 316.519 205.582 316.775 204.896C317.037 204.211 317.168 203.439 317.168 202.581C317.168 201.734 317.04 200.974 316.784 200.3C316.533 199.626 316.154 199.094 315.647 198.703C315.145 198.313 314.519 198.118 313.766 198.118C313.042 198.118 312.429 198.305 311.928 198.678C311.432 199.052 311.056 199.573 310.8 200.241C310.543 200.91 310.415 201.69 310.415 202.581ZM327.524 209.259C326.321 209.259 325.27 208.983 324.373 208.432C323.476 207.88 322.78 207.108 322.284 206.117C321.788 205.125 321.54 203.966 321.54 202.64C321.54 201.308 321.788 200.144 322.284 199.146C322.78 198.149 323.476 197.375 324.373 196.823C325.27 196.271 326.321 195.996 327.524 195.996C328.728 195.996 329.778 196.271 330.675 196.823C331.572 197.375 332.268 198.149 332.764 199.146C333.26 200.144 333.508 201.308 333.508 202.64C333.508 203.966 333.26 205.125 332.764 206.117C332.268 207.108 331.572 207.88 330.675 208.432C329.778 208.983 328.728 209.259 327.524 209.259ZM327.532 207.161C328.312 207.161 328.959 206.955 329.471 206.543C329.984 206.131 330.363 205.582 330.608 204.896C330.859 204.211 330.984 203.456 330.984 202.632C330.984 201.812 330.859 201.06 330.608 200.375C330.363 199.684 329.984 199.13 329.471 198.712C328.959 198.294 328.312 198.085 327.532 198.085C326.747 198.085 326.095 198.294 325.577 198.712C325.064 199.13 324.682 199.684 324.432 200.375C324.187 201.06 324.064 201.812 324.064 202.632C324.064 203.456 324.187 204.211 324.432 204.896C324.682 205.582 325.064 206.131 325.577 206.543C326.095 206.955 326.747 207.161 327.532 207.161ZM335.922 209V196.163H338.338V198.202H338.471C338.705 197.511 339.118 196.968 339.708 196.572C340.305 196.171 340.979 195.971 341.731 195.971C341.887 195.971 342.071 195.976 342.283 195.987C342.5 195.998 342.67 196.012 342.792 196.029V198.419C342.692 198.391 342.514 198.361 342.257 198.327C342.001 198.288 341.745 198.269 341.489 198.269C340.898 198.269 340.371 198.394 339.909 198.645C339.452 198.89 339.09 199.233 338.822 199.673C338.555 200.108 338.421 200.603 338.421 201.161V209H335.922ZM351.331 196.163V198.169H344.319V196.163H351.331ZM346.199 193.087H348.698V205.231C348.698 205.715 348.77 206.08 348.915 206.326C349.06 206.565 349.247 206.73 349.475 206.819C349.709 206.902 349.963 206.944 350.236 206.944C350.436 206.944 350.612 206.93 350.762 206.902C350.913 206.874 351.03 206.852 351.113 206.835L351.565 208.9C351.42 208.955 351.214 209.011 350.946 209.067C350.679 209.128 350.344 209.162 349.943 209.167C349.286 209.178 348.673 209.061 348.105 208.816C347.536 208.571 347.077 208.192 346.726 207.68C346.375 207.167 346.199 206.523 346.199 205.749V193.087Z" fill="#CAD9F1"/>
<path d="M-194.99 445H585.51C668.353 445 735.51 512.157 735.51 595V866H-194.99V445Z" fill="#CAD9F1"/>
</g>
</g>
<rect x="0.0102539" y="403.194" width="876" height="310.806" fill="url(#paint0_linear_570_661)"/>
<defs>
<filter id="filter0_d_570_661" x="92.5103" y="0" width="691" height="719" filterUnits="userSpaceOnUse" color-interpolation-filters="sRGB">
<feFlood flood-opacity="0" result="BackgroundImageFix"/>
<feColorMatrix in="SourceAlpha" type="matrix" values="0 0 0 0 0 0 0 0 0 0 0 0 0 0 0 0 0 0 127 0" result="hardAlpha"/>
<feOffset dy="24"/>
<feGaussianBlur stdDeviation="24"/>
<feColorMatrix type="matrix" values="0 0 0 0 0.25098 0 0 0 0 0.27451 0 0 0 0 0.407843 0 0 0 0.25 0"/>
<feBlend mode="normal" in2="BackgroundImageFix" result="effect1_dropShadow_570_661"/>
<feBlend mode="normal" in="SourceGraphic" in2="effect1_dropShadow_570_661" result="shape"/>
</filter>
<linearGradient id="paint0_linear_570_661" x1="438.01" y1="403.194" x2="438.01" y2="714" gradientUnits="userSpaceOnUse">
<stop stop-color="#F3F7FC" stop-opacity="0"/>
<stop offset="0.684691" stop-color="#F3F7FC"/>
</linearGradient>
<clipPath id="clip0_570_661">
<rect x="140.51" y="24" width="595" height="623" rx="16" fill="white"/>
</clipPath>
<clipPath id="clip1_570_661">
<path d="M182.073 70H288.635C305.756 70 319.635 83.8792 319.635 101V101H182.073V70Z" fill="white"/>
</clipPath>
</defs>
</svg>
