<svg width="672" height="390" viewBox="0 0 672 390" fill="none" xmlns="http://www.w3.org/2000/svg">
<rect width="672" height="390" fill="white"/>
<path d="M332 189.787C195.937 154.782 156 145.034 40 155.994V314H632V218.1C446 215.36 451.5 225.407 332 189.787Z" fill="url(#paint0_linear_570_12449)"/>
<path d="M40 155.994C156 145.034 195.937 154.782 332 189.787C451.5 225.407 446 215.36 632 218.1" stroke="#1757C2" stroke-width="2" stroke-linecap="round"/>
<path d="M491.448 127.5C491.448 137.289 483.513 145.224 473.724 145.224C463.935 145.224 456 137.289 456 127.5C456 117.711 463.935 109.776 473.724 109.776C483.513 109.776 491.448 117.711 491.448 127.5Z" fill="#F9FCF5"/>
<path fill-rule="evenodd" clip-rule="evenodd" d="M473.724 110.515C464.343 110.515 456.738 118.12 456.738 127.5C456.738 136.881 464.343 144.486 473.724 144.486C483.105 144.486 490.709 136.881 490.709 127.5C490.709 118.12 483.105 110.515 473.724 110.515ZM455.261 127.5C455.261 117.304 463.527 109.038 473.724 109.038C483.921 109.038 492.186 117.304 492.186 127.5C492.186 137.697 483.921 145.963 473.724 145.963C463.527 145.963 455.261 137.697 455.261 127.5Z" fill="#90CA2F"/>
<path d="M468.899 134.885V119.847H474.156C475.204 119.847 476.068 120.028 476.748 120.39C477.429 120.747 477.935 121.23 478.268 121.837C478.601 122.439 478.768 123.107 478.768 123.841C478.768 124.487 478.653 125.021 478.422 125.442C478.197 125.863 477.899 126.196 477.527 126.441C477.159 126.685 476.761 126.867 476.33 126.984V127.131C476.79 127.16 477.252 127.322 477.718 127.616C478.183 127.909 478.572 128.33 478.885 128.879C479.198 129.427 479.355 130.098 479.355 130.891C479.355 131.644 479.184 132.322 478.841 132.925C478.498 133.527 477.957 134.004 477.218 134.357C476.479 134.709 475.517 134.885 474.332 134.885H468.899ZM470.72 133.27H474.332C475.522 133.27 476.366 133.04 476.866 132.58C477.37 132.114 477.622 131.551 477.622 130.891C477.622 130.381 477.492 129.912 477.233 129.481C476.973 129.045 476.604 128.697 476.124 128.438C475.644 128.174 475.076 128.042 474.421 128.042H470.72V133.27ZM470.72 126.455H474.097C474.646 126.455 475.14 126.348 475.581 126.132C476.026 125.917 476.379 125.613 476.638 125.222C476.902 124.83 477.035 124.37 477.035 123.841C477.035 123.18 476.805 122.62 476.344 122.16C475.884 121.695 475.155 121.462 474.156 121.462H470.72V126.455Z" fill="#90CA2F"/>
<path d="M506.738 140L518.269 117.19V116.989H504.976V114.22H521.491V117.14L510.011 140H506.738ZM534.045 113.867C535.102 113.876 536.16 114.077 537.217 114.471C538.274 114.866 539.24 115.52 540.112 116.435C540.985 117.341 541.686 118.579 542.215 120.149C542.743 121.718 543.008 123.686 543.008 126.052C543.008 128.343 542.789 130.379 542.353 132.158C541.925 133.928 541.304 135.422 540.49 136.639C539.684 137.856 538.702 138.779 537.544 139.408C536.395 140.038 535.094 140.352 533.642 140.352C532.199 140.352 530.91 140.067 529.778 139.496C528.653 138.917 527.73 138.116 527.008 137.092C526.295 136.06 525.837 134.864 525.636 133.505H528.708C528.984 134.688 529.534 135.666 530.357 136.438C531.187 137.201 532.283 137.583 533.642 137.583C535.631 137.583 537.2 136.715 538.35 134.977C539.508 133.24 540.087 130.786 540.087 127.613H539.886C539.416 128.318 538.858 128.927 538.212 129.439C537.565 129.951 536.848 130.345 536.059 130.622C535.27 130.899 534.431 131.037 533.541 131.037C532.064 131.037 530.709 130.672 529.475 129.942C528.25 129.204 527.268 128.192 526.53 126.908C525.8 125.616 525.435 124.139 525.435 122.477C525.435 120.9 525.787 119.456 526.492 118.147C527.205 116.83 528.204 115.781 529.488 115C530.78 114.22 532.299 113.842 534.045 113.867ZM534.045 116.637C532.987 116.637 532.035 116.901 531.187 117.43C530.348 117.95 529.681 118.655 529.186 119.544C528.699 120.426 528.456 121.403 528.456 122.477C528.456 123.552 528.691 124.529 529.161 125.41C529.639 126.283 530.289 126.98 531.112 127.5C531.943 128.012 532.887 128.268 533.944 128.268C534.741 128.268 535.484 128.113 536.172 127.802C536.86 127.483 537.46 127.051 537.972 126.506C538.493 125.952 538.9 125.327 539.193 124.63C539.487 123.925 539.634 123.191 539.634 122.427C539.634 121.42 539.391 120.476 538.904 119.595C538.426 118.714 537.763 118 536.915 117.455C536.076 116.909 535.119 116.637 534.045 116.637ZM547.958 140V137.734L556.467 128.419C557.466 127.328 558.288 126.38 558.935 125.574C559.581 124.76 560.059 123.996 560.37 123.283C560.689 122.561 560.848 121.806 560.848 121.017C560.848 120.111 560.63 119.326 560.193 118.663C559.765 118 559.178 117.488 558.431 117.127C557.684 116.767 556.845 116.586 555.913 116.586C554.923 116.586 554.059 116.792 553.32 117.203C552.59 117.606 552.024 118.172 551.621 118.902C551.227 119.633 551.029 120.489 551.029 121.47H548.059C548.059 119.96 548.407 118.634 549.103 117.493C549.8 116.351 550.748 115.462 551.948 114.824C553.157 114.186 554.512 113.867 556.014 113.867C557.525 113.867 558.863 114.186 560.03 114.824C561.196 115.462 562.111 116.322 562.774 117.404C563.437 118.487 563.768 119.691 563.768 121.017C563.768 121.966 563.596 122.893 563.252 123.799C562.917 124.697 562.329 125.7 561.49 126.808C560.659 127.907 559.505 129.25 558.028 130.836L552.238 137.029V137.231H564.222V140H547.958Z" fill="#90CA2F"/>
<path d="M577.609 128.804L574.494 140.379H573.474L576.59 128.804H577.609ZM585.727 129.125C586.124 129.128 586.52 129.204 586.917 129.352C587.313 129.5 587.675 129.745 588.003 130.088C588.33 130.428 588.593 130.892 588.791 131.481C588.989 132.069 589.088 132.807 589.088 133.695C589.088 134.554 589.006 135.317 588.843 135.984C588.682 136.648 588.449 137.208 588.144 137.665C587.842 138.121 587.474 138.467 587.04 138.703C586.608 138.939 586.121 139.057 585.576 139.057C585.035 139.057 584.552 138.95 584.127 138.736C583.705 138.519 583.359 138.219 583.089 137.835C582.821 137.448 582.65 136.999 582.574 136.489H583.726C583.83 136.933 584.036 137.3 584.344 137.589C584.656 137.876 585.066 138.019 585.576 138.019C586.322 138.019 586.911 137.693 587.342 137.042C587.776 136.39 587.993 135.47 587.993 134.28H587.918C587.741 134.544 587.532 134.773 587.29 134.965C587.047 135.156 586.778 135.304 586.483 135.408C586.187 135.512 585.872 135.564 585.538 135.564C584.985 135.564 584.476 135.427 584.014 135.153C583.554 134.876 583.186 134.497 582.909 134.016C582.635 133.531 582.498 132.977 582.498 132.354C582.498 131.762 582.631 131.221 582.895 130.73C583.162 130.236 583.537 129.843 584.018 129.55C584.503 129.257 585.073 129.116 585.727 129.125ZM585.727 130.164C585.331 130.164 584.974 130.263 584.656 130.461C584.341 130.656 584.091 130.921 583.905 131.254C583.723 131.585 583.631 131.951 583.631 132.354C583.631 132.757 583.719 133.124 583.896 133.454C584.075 133.781 584.319 134.042 584.627 134.238C584.939 134.43 585.293 134.526 585.69 134.526C585.988 134.526 586.267 134.467 586.525 134.351C586.783 134.231 587.008 134.069 587.2 133.865C587.395 133.657 587.548 133.422 587.658 133.161C587.768 132.897 587.823 132.622 587.823 132.335C587.823 131.958 587.732 131.604 587.549 131.273C587.37 130.943 587.121 130.675 586.804 130.471C586.489 130.266 586.13 130.164 585.727 130.164ZM593.966 139.057C593.412 139.057 592.913 138.947 592.469 138.727C592.026 138.506 591.67 138.204 591.403 137.82C591.135 137.437 590.989 136.999 590.964 136.508H592.096C592.141 136.946 592.339 137.307 592.691 137.594C593.047 137.877 593.472 138.019 593.966 138.019C594.362 138.019 594.715 137.926 595.023 137.74C595.335 137.555 595.579 137.3 595.755 136.975C595.934 136.648 596.024 136.278 596.024 135.866C596.024 135.444 595.931 135.068 595.745 134.738C595.563 134.404 595.311 134.142 594.99 133.95C594.669 133.758 594.303 133.66 593.89 133.657C593.594 133.654 593.291 133.699 592.979 133.794C592.668 133.885 592.411 134.003 592.21 134.148L591.115 134.016L591.7 129.257H596.723V130.296H592.682L592.342 133.147H592.399C592.597 132.99 592.845 132.859 593.144 132.755C593.443 132.651 593.755 132.6 594.079 132.6C594.671 132.6 595.198 132.741 595.66 133.024C596.126 133.304 596.491 133.688 596.756 134.176C597.023 134.664 597.157 135.221 597.157 135.847C597.157 136.464 597.018 137.015 596.741 137.499C596.468 137.981 596.09 138.362 595.609 138.642C595.127 138.919 594.579 139.057 593.966 139.057ZM602.185 139.057C601.474 139.057 600.868 138.864 600.368 138.477C599.868 138.086 599.485 137.521 599.221 136.782C598.957 136.039 598.824 135.142 598.824 134.091C598.824 133.046 598.957 132.154 599.221 131.415C599.488 130.672 599.872 130.106 600.373 129.715C600.876 129.322 601.48 129.125 602.185 129.125C602.89 129.125 603.493 129.322 603.993 129.715C604.497 130.106 604.881 130.672 605.145 131.415C605.413 132.154 605.546 133.046 605.546 134.091C605.546 135.142 605.414 136.039 605.15 136.782C604.886 137.521 604.503 138.086 604.003 138.477C603.502 138.864 602.897 139.057 602.185 139.057ZM602.185 138.019C602.89 138.019 603.438 137.679 603.828 136.999C604.218 136.319 604.413 135.35 604.413 134.091C604.413 133.254 604.324 132.541 604.144 131.953C603.968 131.364 603.713 130.916 603.38 130.607C603.049 130.299 602.651 130.145 602.185 130.145C601.487 130.145 600.941 130.489 600.547 131.179C600.154 131.865 599.957 132.836 599.957 134.091C599.957 134.928 600.045 135.64 600.222 136.225C600.398 136.81 600.651 137.256 600.982 137.561C601.315 137.866 601.716 138.019 602.185 138.019Z" fill="#5D6598"/>
<path d="M473.724 151V314" stroke="#DDE1E6" stroke-width="2" stroke-linecap="round" stroke-dasharray="4 4"/>
<path d="M110.04 109.038L110.04 312.532" stroke="#DDE1E6" stroke-width="2" stroke-linecap="round" stroke-dasharray="4 4"/>
<path d="M129.978 84.8677C129.978 94.5265 122.148 102.356 112.489 102.356C102.83 102.356 95 94.5265 95 84.8677C95 75.2089 102.83 67.3789 112.489 67.3789C122.148 67.3789 129.978 75.2089 129.978 84.8677Z" fill="#F4FBF7"/>
<path fill-rule="evenodd" clip-rule="evenodd" d="M112.489 68.1075C103.232 68.1075 95.7287 75.6113 95.7287 84.8676C95.7287 94.124 103.232 101.628 112.489 101.628C121.745 101.628 129.249 94.124 129.249 84.8676C129.249 75.6113 121.745 68.1075 112.489 68.1075ZM94.2713 84.8676C94.2713 74.8064 102.428 66.6501 112.489 66.6501C122.55 66.6501 130.706 74.8064 130.706 84.8676C130.706 94.9289 122.55 103.085 112.489 103.085C102.428 103.085 94.2713 94.9289 94.2713 84.8676Z" fill="#20AF5D"/>
<path d="M107.814 92.1546H105.93L111.379 77.3157H113.234L118.683 92.1546H116.799L112.365 79.6632H112.249L107.814 92.1546ZM108.51 86.3582H116.103V87.9522H108.51V86.3582Z" fill="#20AF5D"/>
<path d="M152.418 98.0831C150.712 98.0831 149.205 97.7809 147.897 97.1764C146.597 96.5636 145.582 95.7231 144.854 94.6549C144.125 93.5785 143.765 92.3529 143.773 90.9783C143.765 89.9018 143.976 88.9082 144.407 87.9973C144.837 87.0781 145.425 86.3122 146.17 85.6994C146.924 85.0783 147.764 84.685 148.692 84.5194V84.3703C147.475 84.0557 146.506 83.3725 145.785 82.3209C145.065 81.261 144.709 80.0561 144.717 78.7064C144.709 77.4146 145.036 76.2594 145.698 75.2409C146.361 74.2224 147.272 73.4192 148.431 72.8312C149.599 72.2433 150.928 71.9493 152.418 71.9493C153.892 71.9493 155.209 72.2433 156.368 72.8312C157.527 73.4192 158.438 74.2224 159.101 75.2409C159.771 76.2594 160.111 77.4146 160.119 78.7064C160.111 80.0561 159.742 81.261 159.014 82.3209C158.293 83.3725 157.337 84.0557 156.144 84.3703V84.5194C157.064 84.685 157.892 85.0783 158.629 85.6994C159.366 86.3122 159.954 87.0781 160.392 87.9973C160.831 88.9082 161.055 89.9018 161.063 90.9783C161.055 92.3529 160.682 93.5785 159.945 94.6549C159.217 95.7231 158.202 96.5636 156.902 97.1764C155.61 97.7809 154.116 98.0831 152.418 98.0831ZM152.418 95.3505C153.569 95.3505 154.563 95.1642 155.399 94.7916C156.236 94.4189 156.881 93.8931 157.337 93.2141C157.792 92.5351 158.024 91.7401 158.032 90.8293C158.024 89.8687 157.776 89.0199 157.287 88.283C156.799 87.546 156.132 86.9663 155.287 86.544C154.451 86.1217 153.495 85.9106 152.418 85.9106C151.333 85.9106 150.365 86.1217 149.512 86.544C148.667 86.9663 148 87.546 147.512 88.283C147.032 89.0199 146.796 89.8687 146.804 90.8293C146.796 91.7401 147.015 92.5351 147.462 93.2141C147.918 93.8931 148.568 94.4189 149.412 94.7916C150.257 95.1642 151.259 95.3505 152.418 95.3505ZM152.418 83.2773C153.329 83.2773 154.136 83.0951 154.84 82.7308C155.552 82.3664 156.111 81.8572 156.517 81.203C156.923 80.5488 157.13 79.7829 157.138 78.9051C157.13 78.0439 156.927 77.2945 156.53 76.6569C156.132 76.011 155.581 75.5142 154.878 75.1664C154.174 74.8103 153.354 74.6323 152.418 74.6323C151.466 74.6323 150.634 74.8103 149.922 75.1664C149.209 75.5142 148.659 76.011 148.27 76.6569C147.88 77.2945 147.69 78.0439 147.698 78.9051C147.69 79.7829 147.884 80.5488 148.282 81.203C148.688 81.8572 149.247 82.3664 149.959 82.7308C150.671 83.0951 151.491 83.2773 152.418 83.2773ZM165.824 97.7354V95.4996L174.22 86.308C175.206 85.2315 176.017 84.2958 176.655 83.5009C177.292 82.6977 177.764 81.9441 178.071 81.2403C178.385 80.5281 178.543 79.7829 178.543 79.0045C178.543 78.1102 178.327 77.3359 177.897 76.6817C177.474 76.0276 176.895 75.5224 176.158 75.1664C175.421 74.8103 174.593 74.6323 173.674 74.6323C172.696 74.6323 171.844 74.8352 171.115 75.2409C170.394 75.6384 169.836 76.1973 169.438 76.9177C169.049 77.6382 168.854 78.4828 168.854 79.4516H165.923C165.923 77.9611 166.267 76.6528 166.954 75.5266C167.641 74.4004 168.577 73.5227 169.761 72.8933C170.953 72.264 172.291 71.9493 173.773 71.9493C175.263 71.9493 176.584 72.264 177.735 72.8933C178.886 73.5227 179.789 74.3714 180.443 75.4396C181.097 76.5078 181.424 77.6961 181.424 79.0045C181.424 79.9402 181.255 80.8552 180.915 81.7495C180.584 82.6355 180.004 83.6251 179.176 84.7181C178.356 85.8029 177.218 87.1278 175.76 88.6929L170.047 94.804V95.0027H181.871V97.7354H165.824ZM187.001 97.7354V95.4996L195.398 86.308C196.383 85.2315 197.195 84.2958 197.832 83.5009C198.47 82.6977 198.942 81.9441 199.248 81.2403C199.563 80.5281 199.72 79.7829 199.72 79.0045C199.72 78.1102 199.505 77.3359 199.075 76.6817C198.652 76.0276 198.073 75.5224 197.336 75.1664C196.599 74.8103 195.771 74.6323 194.851 74.6323C193.874 74.6323 193.021 74.8352 192.293 75.2409C191.572 75.6384 191.013 76.1973 190.616 76.9177C190.227 77.6382 190.032 78.4828 190.032 79.4516H187.101C187.101 77.9611 187.444 76.6528 188.132 75.5266C188.819 74.4004 189.755 73.5227 190.939 72.8933C192.131 72.264 193.469 71.9493 194.951 71.9493C196.441 71.9493 197.762 72.264 198.913 72.8933C200.064 73.5227 200.967 74.3714 201.621 75.4396C202.275 76.5078 202.602 77.6961 202.602 79.0045C202.602 79.9402 202.432 80.8552 202.093 81.7495C201.762 82.6355 201.182 83.6251 200.354 84.7181C199.534 85.8029 198.396 87.1278 196.938 88.6929L191.224 94.804V95.0027H203.049V97.7354H187.001Z" fill="#20AF5D"/>
<path d="M215.845 86.1839L212.771 97.605H211.764L214.839 86.1839H215.845ZM223.855 86.5007C224.246 86.5038 224.638 86.5783 225.029 86.7242C225.42 86.8702 225.777 87.1124 226.1 87.4509C226.423 87.7862 226.682 88.2443 226.878 88.8249C227.074 89.4056 227.172 90.1338 227.172 91.0095C227.172 91.8572 227.091 92.6102 226.929 93.2686C226.771 93.9238 226.541 94.4765 226.24 94.9268C225.942 95.377 225.579 95.7186 225.15 95.9515C224.725 96.1844 224.243 96.3008 223.706 96.3008C223.172 96.3008 222.695 96.1953 222.276 95.9841C221.86 95.7698 221.518 95.4733 221.251 95.0944C220.987 94.7125 220.818 94.27 220.744 93.7669H221.88C221.983 94.2048 222.186 94.5665 222.49 94.8522C222.798 95.1348 223.203 95.2761 223.706 95.2761C224.442 95.2761 225.023 94.9547 225.448 94.3119C225.877 93.6691 226.091 92.7608 226.091 91.5871H226.016C225.842 91.8479 225.636 92.073 225.397 92.2625C225.158 92.4519 224.892 92.5978 224.6 92.7003C224.308 92.8028 223.998 92.854 223.669 92.854C223.122 92.854 222.621 92.7189 222.164 92.4488C221.711 92.1755 221.348 91.8013 221.074 91.3262C220.804 90.848 220.669 90.3015 220.669 89.6866C220.669 89.1029 220.8 88.5688 221.06 88.0843C221.324 87.5968 221.694 87.2087 222.169 86.9199C222.647 86.6311 223.209 86.4913 223.855 86.5007ZM223.855 87.5254C223.464 87.5254 223.111 87.6232 222.798 87.8188C222.487 88.0114 222.24 88.2722 222.057 88.6014C221.877 88.9274 221.787 89.2892 221.787 89.6866C221.787 90.0841 221.874 90.4459 222.048 90.7719C222.225 91.0949 222.465 91.3526 222.77 91.5451C223.077 91.7346 223.427 91.8293 223.818 91.8293C224.113 91.8293 224.388 91.7718 224.642 91.6569C224.897 91.5389 225.119 91.379 225.308 91.1772C225.501 90.9722 225.651 90.7409 225.76 90.4831C225.869 90.2223 225.923 89.9506 225.923 89.668C225.923 89.2954 225.833 88.946 225.653 88.62C225.476 88.2939 225.231 88.03 224.917 87.8281C224.607 87.6263 224.253 87.5254 223.855 87.5254ZM231.984 96.3008C231.438 96.3008 230.946 96.1921 230.508 95.9748C230.07 95.7574 229.719 95.4593 229.455 95.0805C229.191 94.7016 229.047 94.27 229.022 93.7856H230.14C230.183 94.2172 230.379 94.5743 230.727 94.8569C231.078 95.1364 231.497 95.2761 231.984 95.2761C232.376 95.2761 232.723 95.1845 233.028 95.0013C233.335 94.8181 233.576 94.5665 233.75 94.2467C233.927 93.9238 234.015 93.5589 234.015 93.1521C234.015 92.736 233.923 92.3649 233.74 92.0389C233.56 91.7097 233.312 91.4504 232.995 91.261C232.678 91.0716 232.317 90.9753 231.91 90.9722C231.618 90.9691 231.318 91.0141 231.011 91.1073C230.703 91.1973 230.45 91.3138 230.252 91.4566L229.171 91.3262L229.748 86.6311H234.704V87.6558H230.717L230.382 90.4692H230.438C230.633 90.3139 230.879 90.185 231.174 90.0826C231.469 89.9801 231.776 89.9289 232.096 89.9289C232.68 89.9289 233.2 90.0686 233.656 90.3481C234.116 90.6244 234.476 91.0033 234.737 91.4846C235.001 91.9659 235.133 92.5155 235.133 93.1335C235.133 93.7421 234.996 94.2855 234.723 94.7637C234.453 95.2388 234.08 95.6146 233.605 95.8909C233.13 96.1642 232.59 96.3008 231.984 96.3008ZM240.095 96.3008C239.393 96.3008 238.795 96.1099 238.302 95.7279C237.808 95.3429 237.43 94.7855 237.17 94.0557C236.909 93.3229 236.778 92.4379 236.778 91.4007C236.778 90.3698 236.909 89.4895 237.17 88.7597C237.434 88.0269 237.812 87.4679 238.306 87.0829C238.803 86.6947 239.399 86.5007 240.095 86.5007C240.79 86.5007 241.385 86.6947 241.879 87.0829C242.376 87.4679 242.754 88.0269 243.015 88.7597C243.279 89.4895 243.411 90.3698 243.411 91.4007C243.411 92.4379 243.281 93.3229 243.02 94.0557C242.759 94.7855 242.382 95.3429 241.888 95.7279C241.394 96.1099 240.797 96.3008 240.095 96.3008ZM240.095 95.2761C240.79 95.2761 241.331 94.9407 241.716 94.27C242.101 93.5993 242.293 92.6428 242.293 91.4007C242.293 90.5747 242.205 89.8714 242.028 89.2907C241.854 88.71 241.602 88.2675 241.273 87.9632C240.947 87.6589 240.554 87.5068 240.095 87.5068C239.405 87.5068 238.867 87.8468 238.479 88.5268C238.09 89.2038 237.896 90.1617 237.896 91.4007C237.896 92.2267 237.983 92.9285 238.157 93.5061C238.331 94.0837 238.581 94.5231 238.907 94.8243C239.236 95.1255 239.632 95.2761 240.095 95.2761Z" fill="#20AF5D"/>
<path d="M632 312.532H40" stroke="#F2F4F8" stroke-width="2" stroke-linecap="round"/>
<path d="M86.4392 345V343.409L91.3611 338.31C91.8866 337.756 92.3199 337.27 92.6608 336.854C93.0064 336.432 93.2645 336.032 93.4349 335.653C93.6054 335.275 93.6906 334.872 93.6906 334.446C93.6906 333.963 93.577 333.546 93.3497 333.196C93.1224 332.841 92.8123 332.569 92.4193 332.379C92.0263 332.185 91.5836 332.088 91.0912 332.088C90.5703 332.088 90.1158 332.195 89.7275 332.408C89.3393 332.621 89.041 332.921 88.8327 333.31C88.6243 333.698 88.5202 334.152 88.5202 334.673H86.425C86.425 333.788 86.6286 333.014 87.0358 332.351C87.443 331.688 88.0017 331.174 88.7119 330.81C89.4221 330.44 90.2294 330.256 91.1338 330.256C92.0476 330.256 92.8525 330.438 93.5486 330.803C94.2493 331.162 94.7962 331.655 95.1892 332.28C95.5822 332.9 95.7787 333.601 95.7787 334.382C95.7787 334.922 95.6769 335.45 95.4733 335.966C95.2744 336.482 94.9264 337.057 94.4292 337.692C93.9321 338.321 93.2408 339.086 92.3554 339.986L89.4648 343.011V343.118H96.0131V345H86.4392ZM103.769 345.241C102.647 345.237 101.688 344.941 100.892 344.354C100.097 343.767 99.4884 342.912 99.067 341.79C98.6456 340.668 98.4349 339.316 98.4349 337.734C98.4349 336.158 98.6456 334.811 99.067 333.693C99.4932 332.576 100.104 331.723 100.899 331.136C101.7 330.549 102.656 330.256 103.769 330.256C104.881 330.256 105.835 330.552 106.631 331.143C107.426 331.731 108.035 332.583 108.456 333.7C108.882 334.813 109.095 336.158 109.095 337.734C109.095 339.321 108.885 340.675 108.463 341.797C108.042 342.914 107.434 343.769 106.638 344.361C105.843 344.948 104.886 345.241 103.769 345.241ZM103.769 343.345C104.754 343.345 105.523 342.865 106.077 341.903C106.636 340.942 106.915 339.553 106.915 337.734C106.915 336.527 106.787 335.507 106.532 334.673C106.281 333.835 105.918 333.201 105.445 332.77C104.976 332.334 104.417 332.116 103.769 332.116C102.789 332.116 102.019 332.599 101.46 333.565C100.902 334.531 100.62 335.921 100.615 337.734C100.615 338.946 100.741 339.972 100.992 340.81C101.247 341.643 101.61 342.275 102.078 342.706C102.547 343.132 103.111 343.345 103.769 343.345ZM111.615 345V343.409L116.537 338.31C117.062 337.756 117.496 337.27 117.837 336.854C118.182 336.432 118.44 336.032 118.611 335.653C118.781 335.275 118.866 334.872 118.866 334.446C118.866 333.963 118.753 333.546 118.525 333.196C118.298 332.841 117.988 332.569 117.595 332.379C117.202 332.185 116.759 332.088 116.267 332.088C115.746 332.088 115.292 332.195 114.903 332.408C114.515 332.621 114.217 332.921 114.008 333.31C113.8 333.698 113.696 334.152 113.696 334.673H111.601C111.601 333.788 111.804 333.014 112.212 332.351C112.619 331.688 113.177 331.174 113.888 330.81C114.598 330.44 115.405 330.256 116.31 330.256C117.223 330.256 118.028 330.438 118.724 330.803C119.425 331.162 119.972 331.655 120.365 332.28C120.758 332.9 120.954 333.601 120.954 334.382C120.954 334.922 120.853 335.45 120.649 335.966C120.45 336.482 120.102 337.057 119.605 337.692C119.108 338.321 118.417 339.086 117.531 339.986L114.641 343.011V343.118H121.189V345H111.615ZM123.881 345V343.409L128.802 338.31C129.328 337.756 129.761 337.27 130.102 336.854C130.448 336.432 130.706 336.032 130.876 335.653C131.047 335.275 131.132 334.872 131.132 334.446C131.132 333.963 131.018 333.546 130.791 333.196C130.564 332.841 130.254 332.569 129.861 332.379C129.468 332.185 129.025 332.088 128.533 332.088C128.012 332.088 127.557 332.195 127.169 332.408C126.781 332.621 126.482 332.921 126.274 333.31C126.066 333.698 125.962 334.152 125.962 334.673H123.866C123.866 333.788 124.07 333.014 124.477 332.351C124.884 331.688 125.443 331.174 126.153 330.81C126.864 330.44 127.671 330.256 128.575 330.256C129.489 330.256 130.294 330.438 130.99 330.803C131.691 331.162 132.238 331.655 132.631 332.28C133.024 332.9 133.22 333.601 133.22 334.382C133.22 334.922 133.118 335.45 132.915 335.966C132.716 336.482 132.368 337.057 131.871 337.692C131.373 338.321 130.682 339.086 129.797 339.986L126.906 343.011V343.118H133.454V345H123.881Z" fill="#20AF5D"/>
<path d="M449.623 345V343.409L454.545 338.31C455.07 337.756 455.504 337.27 455.845 336.854C456.19 336.432 456.448 336.032 456.619 335.653C456.789 335.275 456.874 334.872 456.874 334.446C456.874 333.963 456.761 333.546 456.534 333.196C456.306 332.841 455.996 332.569 455.603 332.379C455.21 332.185 454.767 332.088 454.275 332.088C453.754 332.088 453.3 332.195 452.911 332.408C452.523 332.621 452.225 332.921 452.016 333.31C451.808 333.698 451.704 334.152 451.704 334.673H449.609C449.609 333.788 449.812 333.014 450.22 332.351C450.627 331.688 451.186 331.174 451.896 330.81C452.606 330.44 453.413 330.256 454.318 330.256C455.231 330.256 456.036 330.438 456.732 330.803C457.433 331.162 457.98 331.655 458.373 332.28C458.766 332.9 458.963 333.601 458.963 334.382C458.963 334.922 458.861 335.45 458.657 335.966C458.458 336.482 458.11 337.057 457.613 337.692C457.116 338.321 456.425 339.086 455.539 339.986L452.649 343.011V343.118H459.197V345H449.623ZM466.953 345.241C465.83 345.237 464.872 344.941 464.076 344.354C463.281 343.767 462.672 342.912 462.251 341.79C461.829 340.668 461.619 339.316 461.619 337.734C461.619 336.158 461.829 334.811 462.251 333.693C462.677 332.576 463.288 331.723 464.083 331.136C464.883 330.549 465.84 330.256 466.953 330.256C468.065 330.256 469.019 330.552 469.815 331.143C470.61 331.731 471.219 332.583 471.64 333.7C472.066 334.813 472.279 336.158 472.279 337.734C472.279 339.321 472.069 340.675 471.647 341.797C471.226 342.914 470.617 343.769 469.822 344.361C469.026 344.948 468.07 345.241 466.953 345.241ZM466.953 343.345C467.937 343.345 468.707 342.865 469.261 341.903C469.82 340.942 470.099 339.553 470.099 337.734C470.099 336.527 469.971 335.507 469.715 334.673C469.464 333.835 469.102 333.201 468.629 332.77C468.16 332.334 467.601 332.116 466.953 332.116C465.972 332.116 465.203 332.599 464.644 333.565C464.086 334.531 463.804 335.921 463.799 337.734C463.799 338.946 463.925 339.972 464.176 340.81C464.431 341.643 464.793 342.275 465.262 342.706C465.731 343.132 466.294 343.345 466.953 343.345ZM474.799 345V343.409L479.721 338.31C480.246 337.756 480.679 337.27 481.02 336.854C481.366 336.432 481.624 336.032 481.795 335.653C481.965 335.275 482.05 334.872 482.05 334.446C482.05 333.963 481.937 333.546 481.709 333.196C481.482 332.841 481.172 332.569 480.779 332.379C480.386 332.185 479.943 332.088 479.451 332.088C478.93 332.088 478.475 332.195 478.087 332.408C477.699 332.621 477.401 332.921 477.192 333.31C476.984 333.698 476.88 334.152 476.88 334.673H474.785C474.785 333.788 474.988 333.014 475.395 332.351C475.803 331.688 476.361 331.174 477.072 330.81C477.782 330.44 478.589 330.256 479.493 330.256C480.407 330.256 481.212 330.438 481.908 330.803C482.609 331.162 483.156 331.655 483.549 332.28C483.942 332.9 484.138 333.601 484.138 334.382C484.138 334.922 484.036 335.45 483.833 335.966C483.634 336.482 483.286 337.057 482.789 337.692C482.292 338.321 481.6 339.086 480.715 339.986L477.824 343.011V343.118H484.373V345H474.799ZM492.128 345.199C491.153 345.199 490.282 345.031 489.515 344.695C488.752 344.358 488.149 343.892 487.704 343.295C487.263 342.694 487.027 341.998 486.993 341.207H489.224C489.252 341.638 489.396 342.012 489.657 342.33C489.922 342.642 490.268 342.884 490.694 343.054C491.12 343.224 491.593 343.31 492.114 343.31C492.687 343.31 493.194 343.21 493.634 343.011C494.079 342.812 494.427 342.536 494.678 342.18C494.929 341.821 495.054 341.406 495.054 340.938C495.054 340.45 494.929 340.021 494.678 339.652C494.432 339.278 494.07 338.984 493.591 338.771C493.118 338.558 492.545 338.452 491.873 338.452H490.644V336.662H491.873C492.412 336.662 492.886 336.565 493.293 336.371C493.705 336.177 494.027 335.907 494.259 335.561C494.491 335.211 494.607 334.801 494.607 334.332C494.607 333.883 494.505 333.492 494.302 333.161C494.103 332.824 493.819 332.562 493.449 332.372C493.085 332.183 492.654 332.088 492.157 332.088C491.683 332.088 491.241 332.176 490.829 332.351C490.421 332.521 490.09 332.768 489.834 333.089C489.579 333.407 489.441 333.788 489.422 334.233H487.299C487.322 333.447 487.554 332.756 487.995 332.159C488.44 331.562 489.027 331.096 489.756 330.76C490.485 330.424 491.295 330.256 492.185 330.256C493.118 330.256 493.923 330.438 494.6 330.803C495.282 331.162 495.807 331.643 496.177 332.244C496.551 332.846 496.735 333.504 496.731 334.219C496.735 335.033 496.508 335.724 496.049 336.293C495.594 336.861 494.988 337.242 494.231 337.436V337.55C495.197 337.696 495.945 338.08 496.475 338.7C497.01 339.321 497.275 340.09 497.27 341.009C497.275 341.809 497.053 342.526 496.603 343.161C496.158 343.795 495.549 344.295 494.777 344.659C494.006 345.019 493.123 345.199 492.128 345.199Z" fill="#90CA2F"/>
<defs>
<linearGradient id="paint0_linear_570_12449" x1="326" y1="145.719" x2="324.046" y2="271.601" gradientUnits="userSpaceOnUse">
<stop stop-color="#CAD9F1"/>
<stop offset="1" stop-color="#F3F7FC" stop-opacity="0.5"/>
</linearGradient>
</defs>
</svg>
