<svg width="196" height="23" viewBox="0 0 196 23" fill="none" xmlns="http://www.w3.org/2000/svg">
<rect width="196" height="23" rx="11.5" fill="#FFEBDC"/>
<path d="M12.5284 8.40625V7.27273H19.2827V8.40625H16.5597V16H15.2472V8.40625H12.5284ZM21.9471 12.1136V16H20.6729V7.27273H21.93V10.5199H22.011C22.1644 10.1676 22.3988 9.88778 22.7141 9.6804C23.0295 9.47301 23.4414 9.36932 23.9499 9.36932C24.3988 9.36932 24.7908 9.46165 25.1261 9.64631C25.4641 9.83097 25.7255 10.1065 25.9102 10.473C26.0977 10.8366 26.1914 11.2912 26.1914 11.8366V16H24.9173V11.9901C24.9173 11.5099 24.7937 11.1378 24.5465 10.8736C24.2994 10.6065 23.9556 10.473 23.5153 10.473C23.2141 10.473 22.9442 10.5369 22.7056 10.6648C22.4698 10.7926 22.2837 10.9801 22.1474 11.2273C22.0138 11.4716 21.9471 11.767 21.9471 12.1136ZM27.8917 16V9.45455H29.1658V16H27.8917ZM28.5352 8.4446C28.3136 8.4446 28.1232 8.37074 27.9641 8.22301C27.8079 8.07244 27.7298 7.89347 27.7298 7.68608C27.7298 7.47585 27.8079 7.29687 27.9641 7.14915C28.1232 6.99858 28.3136 6.9233 28.5352 6.9233C28.7567 6.9233 28.9457 6.99858 29.1019 7.14915C29.261 7.29687 29.3406 7.47585 29.3406 7.68608C29.3406 7.89347 29.261 8.07244 29.1019 8.22301C28.9457 8.37074 28.7567 8.4446 28.5352 8.4446ZM30.88 16V9.45455H32.1115V10.4943H32.1797C32.299 10.142 32.5092 9.86506 32.8104 9.66335C33.1143 9.45881 33.4581 9.35653 33.8416 9.35653C33.9212 9.35653 34.0149 9.35937 34.1229 9.36506C34.2337 9.37074 34.3203 9.37784 34.3828 9.38636V10.6051C34.3317 10.5909 34.2408 10.5753 34.1101 10.5582C33.9794 10.5384 33.8487 10.5284 33.718 10.5284C33.4169 10.5284 33.1484 10.5923 32.9126 10.7202C32.6797 10.8452 32.495 11.0199 32.3587 11.2443C32.2223 11.4659 32.1541 11.7187 32.1541 12.0028V16H30.88ZM37.7013 16.1278C37.1729 16.1278 36.7013 15.9929 36.2866 15.723C35.8746 15.4503 35.5508 15.0625 35.315 14.5597C35.082 14.054 34.9656 13.4474 34.9656 12.7401C34.9656 12.0327 35.0835 11.4276 35.3192 10.9247C35.5579 10.4219 35.8846 10.0369 36.2994 9.76989C36.7141 9.50284 37.1843 9.36932 37.7099 9.36932C38.1161 9.36932 38.4428 9.4375 38.69 9.57386C38.94 9.70739 39.1332 9.86364 39.2695 10.0426C39.4087 10.2216 39.5167 10.3793 39.5934 10.5156H39.6701V7.27273H40.9442V16H39.6999V14.9815H39.5934C39.5167 15.1207 39.4059 15.2798 39.261 15.4588C39.119 15.6378 38.9229 15.794 38.6729 15.9276C38.4229 16.0611 38.0991 16.1278 37.7013 16.1278ZM37.9826 15.0412C38.3491 15.0412 38.6587 14.9446 38.9116 14.7514C39.1673 14.5554 39.3604 14.2841 39.4911 13.9375C39.6246 13.5909 39.6914 13.1875 39.6914 12.7273C39.6914 12.2727 39.6261 11.875 39.4954 11.5341C39.3647 11.1932 39.1729 10.9276 38.9201 10.7372C38.6673 10.5469 38.3548 10.4517 37.9826 10.4517C37.5991 10.4517 37.2795 10.5511 37.0238 10.75C36.7681 10.9489 36.5749 11.2202 36.4442 11.5639C36.3164 11.9077 36.2525 12.2955 36.2525 12.7273C36.2525 13.1648 36.3178 13.5582 36.4485 13.9077C36.5792 14.2571 36.7724 14.5341 37.0281 14.7386C37.2866 14.9403 37.6048 15.0412 37.9826 15.0412ZM46.6193 11.7599V12.8636H42.75V11.7599H46.6193ZM48.3175 18.4545V9.45455H49.5618V10.5156H49.6683C49.7422 10.3793 49.8487 10.2216 49.9879 10.0426C50.1271 9.86364 50.3203 9.70739 50.5675 9.57386C50.8146 9.4375 51.1413 9.36932 51.5476 9.36932C52.076 9.36932 52.5476 9.50284 52.9624 9.76989C53.3771 10.0369 53.7024 10.4219 53.9382 10.9247C54.1768 11.4276 54.2962 12.0327 54.2962 12.7401C54.2962 13.4474 54.1783 14.054 53.9425 14.5597C53.7067 15.0625 53.3828 15.4503 52.9709 15.723C52.5589 15.9929 52.0888 16.1278 51.5604 16.1278C51.1626 16.1278 50.8374 16.0611 50.5845 15.9276C50.3345 15.794 50.1385 15.6378 49.9964 15.4588C49.8544 15.2798 49.745 15.1207 49.6683 14.9815H49.5916V18.4545H48.3175ZM49.5661 12.7273C49.5661 13.1875 49.6328 13.5909 49.7663 13.9375C49.8999 14.2841 50.093 14.5554 50.3459 14.7514C50.5987 14.9446 50.9084 15.0412 51.2749 15.0412C51.6555 15.0412 51.9737 14.9403 52.2294 14.7386C52.4851 14.5341 52.6783 14.2571 52.8089 13.9077C52.9425 13.5582 53.0092 13.1648 53.0092 12.7273C53.0092 12.2955 52.9439 11.9077 52.8132 11.5639C52.6854 11.2202 52.4922 10.9489 52.2337 10.75C51.978 10.5511 51.6584 10.4517 51.2749 10.4517C50.9055 10.4517 50.593 10.5469 50.3374 10.7372C50.0845 10.9276 49.8928 11.1932 49.7621 11.5341C49.6314 11.875 49.5661 12.2727 49.5661 12.7273ZM57.6286 16.1449C57.2138 16.1449 56.8388 16.0682 56.5036 15.9148C56.1683 15.7585 55.9027 15.5327 55.7067 15.2372C55.5135 14.9418 55.4169 14.5795 55.4169 14.1506C55.4169 13.7812 55.4879 13.4773 55.63 13.2386C55.772 13 55.9638 12.8111 56.2053 12.6719C56.4467 12.5327 56.7166 12.4276 57.0149 12.3565C57.3132 12.2855 57.6172 12.2315 57.9268 12.1946C58.3189 12.1491 58.6371 12.1122 58.8814 12.0838C59.1257 12.0526 59.3033 12.0028 59.4141 11.9347C59.5249 11.8665 59.5803 11.7557 59.5803 11.6023V11.5724C59.5803 11.2003 59.4751 10.9119 59.2649 10.7074C59.0575 10.5028 58.7479 10.4006 58.3359 10.4006C57.907 10.4006 57.5689 10.4957 57.3217 10.6861C57.0774 10.8736 56.9084 11.0824 56.8146 11.3125L55.6172 11.0398C55.7592 10.642 55.9666 10.321 56.2393 10.0767C56.5149 9.82955 56.8317 9.65057 57.1896 9.53977C57.5476 9.42614 57.924 9.36932 58.3189 9.36932C58.5803 9.36932 58.8572 9.40057 59.1499 9.46307C59.4453 9.52273 59.7209 9.63352 59.9766 9.79545C60.2351 9.95739 60.4467 10.1889 60.6115 10.4901C60.7763 10.7884 60.8587 11.1761 60.8587 11.6534V16H59.6143V15.1051H59.5632C59.4808 15.2699 59.3572 15.4318 59.1925 15.5909C59.0277 15.75 58.8161 15.8821 58.5575 15.9872C58.299 16.0923 57.9893 16.1449 57.6286 16.1449ZM57.9055 15.1222C58.2578 15.1222 58.5589 15.0526 58.8089 14.9134C59.0618 14.7741 59.2536 14.5923 59.3842 14.3679C59.5178 14.1406 59.5845 13.8977 59.5845 13.6392V12.7955C59.5391 12.8409 59.451 12.8835 59.3203 12.9233C59.1925 12.9602 59.0462 12.9929 58.8814 13.0213C58.7166 13.0469 58.5561 13.071 58.3999 13.0938C58.2436 13.1136 58.1129 13.1307 58.0078 13.1449C57.7607 13.1761 57.5348 13.2287 57.3303 13.3026C57.1286 13.3764 56.9666 13.483 56.8445 13.6222C56.7251 13.7585 56.6655 13.9403 56.6655 14.1676C56.6655 14.483 56.782 14.7216 57.0149 14.8835C57.2479 15.0426 57.5447 15.1222 57.9055 15.1222ZM62.5558 16V9.45455H63.7873V10.4943H63.8555C63.9748 10.142 64.185 9.86506 64.4862 9.66335C64.7901 9.45881 65.1339 9.35653 65.5174 9.35653C65.5969 9.35653 65.6907 9.35937 65.7987 9.36506C65.9094 9.37074 65.9961 9.37784 66.0586 9.38636V10.6051C66.0075 10.5909 65.9165 10.5753 65.7859 10.5582C65.6552 10.5384 65.5245 10.5284 65.3938 10.5284C65.0927 10.5284 64.8242 10.5923 64.5884 10.7202C64.3555 10.8452 64.1708 11.0199 64.0344 11.2443C63.8981 11.4659 63.8299 11.7187 63.8299 12.0028V16H62.5558ZM70.6033 9.45455V10.4773H67.0281V9.45455H70.6033ZM67.9869 7.88636H69.261V14.0781C69.261 14.3253 69.2979 14.5114 69.3718 14.6364C69.4457 14.7585 69.5408 14.8423 69.6573 14.8878C69.7766 14.9304 69.9059 14.9517 70.0451 14.9517C70.1474 14.9517 70.2369 14.9446 70.3136 14.9304C70.3903 14.9162 70.4499 14.9048 70.4925 14.8963L70.7227 15.9489C70.6488 15.9773 70.5437 16.0057 70.4073 16.0341C70.271 16.0653 70.1005 16.0824 69.896 16.0852C69.5607 16.0909 69.2482 16.0312 68.9585 15.9062C68.6687 15.7812 68.4343 15.5881 68.2553 15.3267C68.0763 15.0653 67.9869 14.7372 67.9869 14.3423V7.88636ZM72.8182 18.4545C72.6278 18.4545 72.4545 18.4389 72.2983 18.4077C72.142 18.3793 72.0256 18.348 71.9489 18.3139L72.2557 17.2699C72.4886 17.3324 72.696 17.3594 72.8778 17.3509C73.0597 17.3423 73.2202 17.2741 73.3594 17.1463C73.5014 17.0185 73.6264 16.8097 73.7344 16.5199L73.892 16.0852L71.4972 9.45455H72.8608L74.5185 14.5341H74.5866L76.2443 9.45455H77.6122L74.9148 16.8736C74.7898 17.2145 74.6307 17.5028 74.4375 17.7386C74.2443 17.9773 74.0142 18.1563 73.7472 18.2756C73.4801 18.3949 73.1705 18.4545 72.8182 18.4545ZM82.0877 16V7.27273H85.1985C85.8746 7.27273 86.4357 7.3892 86.8817 7.62216C87.3306 7.85511 87.6658 8.17756 87.8874 8.58949C88.109 8.99858 88.2198 9.47159 88.2198 10.0085C88.2198 10.5426 88.1076 11.0128 87.8832 11.419C87.6616 11.8224 87.3263 12.1364 86.8775 12.3608C86.4315 12.5852 85.8704 12.6974 85.1942 12.6974H82.8377V11.5639H85.0749C85.5011 11.5639 85.8477 11.5028 86.1147 11.3807C86.3846 11.2585 86.582 11.081 86.707 10.848C86.832 10.6151 86.8945 10.3352 86.8945 10.0085C86.8945 9.67898 86.8306 9.39347 86.7028 9.15199C86.5778 8.91051 86.3803 8.72585 86.1104 8.59801C85.8434 8.46733 85.4925 8.40199 85.0579 8.40199H83.4045V16H82.0877ZM86.396 12.0625L88.5522 16H87.0522L84.9386 12.0625H86.396ZM89.7198 16V9.45455H90.994V16H89.7198ZM90.3633 8.4446C90.1417 8.4446 89.9513 8.37074 89.7923 8.22301C89.636 8.07244 89.5579 7.89347 89.5579 7.68608C89.5579 7.47585 89.636 7.29687 89.7923 7.14915C89.9513 6.99858 90.1417 6.9233 90.3633 6.9233C90.5849 6.9233 90.7738 6.99858 90.93 7.14915C91.0891 7.29687 91.1687 7.47585 91.1687 7.68608C91.1687 7.89347 91.0891 8.07244 90.93 8.22301C90.7738 8.37074 90.5849 8.4446 90.3633 8.4446ZM97.6129 11.0526L96.4581 11.2571C96.4098 11.1094 96.3331 10.9687 96.228 10.8352C96.1257 10.7017 95.9865 10.5923 95.8104 10.5071C95.6342 10.4219 95.4141 10.3793 95.1499 10.3793C94.7891 10.3793 94.4879 10.4602 94.2464 10.6222C94.005 10.7812 93.8842 10.9872 93.8842 11.2401C93.8842 11.4588 93.9652 11.6349 94.1271 11.7685C94.2891 11.902 94.5504 12.0114 94.9112 12.0966L95.951 12.3352C96.5533 12.4744 97.0021 12.6889 97.2976 12.9787C97.593 13.2685 97.7408 13.6449 97.7408 14.108C97.7408 14.5 97.6271 14.8494 97.3999 15.1562C97.1754 15.4602 96.8615 15.6989 96.4581 15.8722C96.0575 16.0455 95.593 16.1321 95.0646 16.1321C94.3317 16.1321 93.7337 15.9759 93.2706 15.6634C92.8075 15.348 92.5234 14.9006 92.4183 14.321L93.6499 14.1335C93.7266 14.4545 93.8842 14.6974 94.1229 14.8622C94.3615 15.0241 94.6726 15.1051 95.0561 15.1051C95.4737 15.1051 95.8075 15.0185 96.0575 14.8452C96.3075 14.669 96.4325 14.4545 96.4325 14.2017C96.4325 13.9972 96.3558 13.8253 96.2024 13.6861C96.0518 13.5469 95.8203 13.4418 95.5078 13.3707L94.3999 13.1278C93.7891 12.9886 93.3374 12.767 93.0447 12.4631C92.755 12.1591 92.6101 11.7741 92.6101 11.3082C92.6101 10.9219 92.718 10.5838 92.9339 10.294C93.1499 10.0043 93.4482 9.77841 93.8288 9.61648C94.2095 9.4517 94.6456 9.36932 95.1371 9.36932C95.8445 9.36932 96.4013 9.52273 96.8075 9.82955C97.2138 10.1335 97.4822 10.5412 97.6129 11.0526ZM100.314 13.7798L100.305 12.2244H100.527L103.135 9.45455H104.66L101.686 12.608H101.485L100.314 13.7798ZM99.1417 16V7.27273H100.416V16H99.1417ZM103.275 16L100.931 12.8892L101.809 11.9986L104.839 16H103.275ZM109.099 7.27273H110.697L113.476 14.0568H113.578L116.357 7.27273H117.955V16H116.702V9.68466H116.621L114.047 15.9872H113.007L110.433 9.6804H110.352V16H109.099V7.27273ZM121.672 16.1449C121.257 16.1449 120.882 16.0682 120.547 15.9148C120.211 15.7585 119.946 15.5327 119.75 15.2372C119.556 14.9418 119.46 14.5795 119.46 14.1506C119.46 13.7812 119.531 13.4773 119.673 13.2386C119.815 13 120.007 12.8111 120.248 12.6719C120.49 12.5327 120.76 12.4276 121.058 12.3565C121.356 12.2855 121.66 12.2315 121.97 12.1946C122.362 12.1491 122.68 12.1122 122.924 12.0838C123.169 12.0526 123.346 12.0028 123.457 11.9347C123.568 11.8665 123.623 11.7557 123.623 11.6023V11.5724C123.623 11.2003 123.518 10.9119 123.308 10.7074C123.1 10.5028 122.791 10.4006 122.379 10.4006C121.95 10.4006 121.612 10.4957 121.365 10.6861C121.12 10.8736 120.951 11.0824 120.858 11.3125L119.66 11.0398C119.802 10.642 120.01 10.321 120.282 10.0767C120.558 9.82955 120.875 9.65057 121.233 9.53977C121.591 9.42614 121.967 9.36932 122.362 9.36932C122.623 9.36932 122.9 9.40057 123.193 9.46307C123.488 9.52273 123.764 9.63352 124.02 9.79545C124.278 9.95739 124.49 10.1889 124.654 10.4901C124.819 10.7884 124.902 11.1761 124.902 11.6534V16H123.657V15.1051H123.606C123.524 15.2699 123.4 15.4318 123.235 15.5909C123.071 15.75 122.859 15.8821 122.6 15.9872C122.342 16.0923 122.032 16.1449 121.672 16.1449ZM121.949 15.1222C122.301 15.1222 122.602 15.0526 122.852 14.9134C123.105 14.7741 123.297 14.5923 123.427 14.3679C123.561 14.1406 123.627 13.8977 123.627 13.6392V12.7955C123.582 12.8409 123.494 12.8835 123.363 12.9233C123.235 12.9602 123.089 12.9929 122.924 13.0213C122.76 13.0469 122.599 13.071 122.443 13.0938C122.287 13.1136 122.156 13.1307 122.051 13.1449C121.804 13.1761 121.578 13.2287 121.373 13.3026C121.172 13.3764 121.01 13.483 120.887 13.6222C120.768 13.7585 120.708 13.9403 120.708 14.1676C120.708 14.483 120.825 14.7216 121.058 14.8835C121.291 15.0426 121.588 15.1222 121.949 15.1222ZM127.873 12.1136V16H126.599V9.45455H127.822V10.5199H127.903C128.053 10.1733 128.289 9.89489 128.61 9.68466C128.934 9.47443 129.342 9.36932 129.833 9.36932C130.279 9.36932 130.67 9.46307 131.005 9.65057C131.34 9.83523 131.6 10.1108 131.785 10.4773C131.969 10.8437 132.062 11.2969 132.062 11.8366V16H130.788V11.9901C130.788 11.5156 130.664 11.1449 130.417 10.8778C130.17 10.608 129.83 10.473 129.398 10.473C129.103 10.473 128.84 10.5369 128.61 10.6648C128.383 10.7926 128.202 10.9801 128.069 11.2273C127.938 11.4716 127.873 11.767 127.873 12.1136ZM135.675 16.1449C135.261 16.1449 134.886 16.0682 134.55 15.9148C134.215 15.7585 133.95 15.5327 133.754 15.2372C133.56 14.9418 133.464 14.5795 133.464 14.1506C133.464 13.7812 133.535 13.4773 133.677 13.2386C133.819 13 134.011 12.8111 134.252 12.6719C134.494 12.5327 134.763 12.4276 135.062 12.3565C135.36 12.2855 135.664 12.2315 135.974 12.1946C136.366 12.1491 136.684 12.1122 136.928 12.0838C137.173 12.0526 137.35 12.0028 137.461 11.9347C137.572 11.8665 137.627 11.7557 137.627 11.6023V11.5724C137.627 11.2003 137.522 10.9119 137.312 10.7074C137.104 10.5028 136.795 10.4006 136.383 10.4006C135.954 10.4006 135.616 10.4957 135.369 10.6861C135.124 10.8736 134.955 11.0824 134.862 11.3125L133.664 11.0398C133.806 10.642 134.013 10.321 134.286 10.0767C134.562 9.82955 134.879 9.65057 135.237 9.53977C135.594 9.42614 135.971 9.36932 136.366 9.36932C136.627 9.36932 136.904 9.40057 137.197 9.46307C137.492 9.52273 137.768 9.63352 138.023 9.79545C138.282 9.95739 138.494 10.1889 138.658 10.4901C138.823 10.7884 138.906 11.1761 138.906 11.6534V16H137.661V15.1051H137.61C137.528 15.2699 137.404 15.4318 137.239 15.5909C137.075 15.75 136.863 15.8821 136.604 15.9872C136.346 16.0923 136.036 16.1449 135.675 16.1449ZM135.952 15.1222C136.305 15.1222 136.606 15.0526 136.856 14.9134C137.109 14.7741 137.3 14.5923 137.431 14.3679C137.565 14.1406 137.631 13.8977 137.631 13.6392V12.7955C137.586 12.8409 137.498 12.8835 137.367 12.9233C137.239 12.9602 137.093 12.9929 136.928 13.0213C136.763 13.0469 136.603 13.071 136.447 13.0938C136.29 13.1136 136.16 13.1307 136.055 13.1449C135.808 13.1761 135.582 13.2287 135.377 13.3026C135.175 13.3764 135.013 13.483 134.891 13.6222C134.772 13.7585 134.712 13.9403 134.712 14.1676C134.712 14.483 134.829 14.7216 135.062 14.8835C135.295 15.0426 135.592 15.1222 135.952 15.1222ZM143.347 18.5909C142.827 18.5909 142.38 18.5227 142.005 18.3864C141.632 18.25 141.328 18.0696 141.093 17.8452C140.857 17.6207 140.681 17.375 140.564 17.108L141.659 16.6562C141.736 16.7812 141.838 16.9134 141.966 17.0526C142.097 17.1946 142.273 17.3153 142.495 17.4148C142.719 17.5142 143.007 17.5639 143.36 17.5639C143.843 17.5639 144.242 17.446 144.557 17.2102C144.873 16.9773 145.03 16.6051 145.03 16.0938V14.8068H144.949C144.873 14.946 144.762 15.1009 144.617 15.2713C144.475 15.4418 144.279 15.5895 144.029 15.7145C143.779 15.8395 143.453 15.902 143.053 15.902C142.536 15.902 142.07 15.7812 141.655 15.5398C141.243 15.2955 140.917 14.9361 140.675 14.4616C140.436 13.9844 140.317 13.3977 140.317 12.7017C140.317 12.0057 140.435 11.4091 140.671 10.9119C140.909 10.4148 141.236 10.0341 141.651 9.76989C142.066 9.50284 142.536 9.36932 143.061 9.36932C143.468 9.36932 143.796 9.4375 144.046 9.57386C144.296 9.70739 144.49 9.86364 144.63 10.0426C144.772 10.2216 144.881 10.3793 144.958 10.5156H145.051V9.45455H146.3V16.1449C146.3 16.7074 146.169 17.169 145.908 17.5298C145.647 17.8906 145.293 18.1577 144.847 18.331C144.404 18.5043 143.904 18.5909 143.347 18.5909ZM143.334 14.8452C143.701 14.8452 144.01 14.7599 144.263 14.5895C144.519 14.4162 144.712 14.169 144.843 13.848C144.976 13.5241 145.043 13.1364 145.043 12.6847C145.043 12.2443 144.978 11.8565 144.847 11.5213C144.716 11.1861 144.525 10.9247 144.272 10.7372C144.019 10.5469 143.706 10.4517 143.334 10.4517C142.951 10.4517 142.631 10.5511 142.375 10.75C142.12 10.946 141.926 11.2131 141.796 11.5511C141.668 11.8892 141.604 12.267 141.604 12.6847C141.604 13.1136 141.669 13.4901 141.8 13.8139C141.931 14.1378 142.124 14.3906 142.38 14.5724C142.638 14.7543 142.956 14.8452 143.334 14.8452ZM150.83 16.1321C150.185 16.1321 149.63 15.9943 149.164 15.7188C148.701 15.4403 148.343 15.0497 148.09 14.5469C147.84 14.0412 147.715 13.4489 147.715 12.7699C147.715 12.0994 147.84 11.5085 148.09 10.9972C148.343 10.4858 148.695 10.0866 149.147 9.79972C149.601 9.51278 150.132 9.36932 150.74 9.36932C151.11 9.36932 151.468 9.4304 151.814 9.55256C152.161 9.67472 152.472 9.86648 152.748 10.1278C153.023 10.3892 153.24 10.7287 153.4 11.1463C153.559 11.5611 153.638 12.0653 153.638 12.6591V13.1108H148.435V12.1562H152.39C152.39 11.821 152.321 11.5241 152.185 11.2656C152.049 11.0043 151.857 10.7983 151.61 10.6477C151.365 10.4972 151.078 10.4219 150.749 10.4219C150.391 10.4219 150.078 10.5099 149.811 10.6861C149.547 10.8594 149.343 11.0866 149.198 11.3679C149.056 11.6463 148.985 11.9489 148.985 12.2756V13.0213C148.985 13.4588 149.061 13.831 149.215 14.1378C149.371 14.4446 149.588 14.679 149.867 14.8409C150.145 15 150.471 15.0795 150.843 15.0795C151.084 15.0795 151.304 15.0455 151.503 14.9773C151.702 14.9062 151.874 14.8011 152.019 14.6619C152.164 14.5227 152.275 14.3509 152.351 14.1463L153.557 14.3636C153.461 14.7187 153.287 15.0298 153.037 15.2969C152.79 15.5611 152.479 15.767 152.104 15.9148C151.732 16.0597 151.307 16.1321 150.83 16.1321ZM155.052 16V9.45455H156.275V10.5199H156.356C156.492 10.1591 156.715 9.87784 157.025 9.67614C157.335 9.47159 157.705 9.36932 158.137 9.36932C158.575 9.36932 158.941 9.47159 159.237 9.67614C159.535 9.88068 159.755 10.1619 159.897 10.5199H159.965C160.121 10.1705 160.37 9.89205 160.711 9.68466C161.052 9.47443 161.458 9.36932 161.93 9.36932C162.523 9.36932 163.008 9.5554 163.383 9.92756C163.761 10.2997 163.95 10.8608 163.95 11.6108V16H162.675V11.7301C162.675 11.2869 162.555 10.9659 162.313 10.767C162.072 10.5682 161.783 10.4688 161.448 10.4688C161.033 10.4688 160.711 10.5966 160.481 10.8523C160.251 11.1051 160.136 11.4304 160.136 11.8281V16H158.866V11.6491C158.866 11.294 158.755 11.0085 158.533 10.7926C158.312 10.5767 158.023 10.4688 157.668 10.4688C157.427 10.4688 157.204 10.5327 156.999 10.6605C156.798 10.7855 156.634 10.9602 156.509 11.1847C156.387 11.4091 156.326 11.669 156.326 11.9645V16H155.052ZM168.478 16.1321C167.833 16.1321 167.278 15.9943 166.812 15.7188C166.349 15.4403 165.991 15.0497 165.738 14.5469C165.488 14.0412 165.363 13.4489 165.363 12.7699C165.363 12.0994 165.488 11.5085 165.738 10.9972C165.991 10.4858 166.343 10.0866 166.795 9.79972C167.25 9.51278 167.781 9.36932 168.389 9.36932C168.758 9.36932 169.116 9.4304 169.463 9.55256C169.809 9.67472 170.12 9.86648 170.396 10.1278C170.672 10.3892 170.889 10.7287 171.048 11.1463C171.207 11.5611 171.287 12.0653 171.287 12.6591V13.1108H166.083V12.1562H170.038C170.038 11.821 169.97 11.5241 169.833 11.2656C169.697 11.0043 169.505 10.7983 169.258 10.6477C169.014 10.4972 168.727 10.4219 168.397 10.4219C168.039 10.4219 167.727 10.5099 167.46 10.6861C167.196 10.8594 166.991 11.0866 166.846 11.3679C166.704 11.6463 166.633 11.9489 166.633 12.2756V13.0213C166.633 13.4588 166.71 13.831 166.863 14.1378C167.02 14.4446 167.237 14.679 167.515 14.8409C167.794 15 168.119 15.0795 168.491 15.0795C168.733 15.0795 168.953 15.0455 169.152 14.9773C169.35 14.9062 169.522 14.8011 169.667 14.6619C169.812 14.5227 169.923 14.3509 170 14.1463L171.206 14.3636C171.109 14.7187 170.936 15.0298 170.686 15.2969C170.439 15.5611 170.127 15.767 169.752 15.9148C169.38 16.0597 168.956 16.1321 168.478 16.1321ZM173.974 12.1136V16H172.7V9.45455H173.923V10.5199H174.004C174.155 10.1733 174.391 9.89489 174.712 9.68466C175.036 9.47443 175.443 9.36932 175.935 9.36932C176.381 9.36932 176.771 9.46307 177.107 9.65057C177.442 9.83523 177.702 10.1108 177.886 10.4773C178.071 10.8437 178.163 11.2969 178.163 11.8366V16H176.889V11.9901C176.889 11.5156 176.766 11.1449 176.518 10.8778C176.271 10.608 175.932 10.473 175.5 10.473C175.205 10.473 174.942 10.5369 174.712 10.6648C174.484 10.7926 174.304 10.9801 174.17 11.2273C174.04 11.4716 173.974 11.767 173.974 12.1136ZM182.928 9.45455V10.4773H179.352V9.45455H182.928ZM180.311 7.88636H181.585V14.0781C181.585 14.3253 181.622 14.5114 181.696 14.6364C181.77 14.7585 181.865 14.8423 181.982 14.8878C182.101 14.9304 182.23 14.9517 182.369 14.9517C182.472 14.9517 182.561 14.9446 182.638 14.9304C182.714 14.9162 182.774 14.9048 182.817 14.8963L183.047 15.9489C182.973 15.9773 182.868 16.0057 182.732 16.0341C182.595 16.0653 182.425 16.0824 182.22 16.0852C181.885 16.0909 181.572 16.0312 181.283 15.9062C180.993 15.7812 180.759 15.5881 180.58 15.3267C180.401 15.0653 180.311 14.7372 180.311 14.3423V7.88636Z" fill="#F28438"/>
</svg>
